G04 #@! TF.GenerationSoftware,KiCad,Pcbnew,6.0.8+dfsg-1~bpo11+1*
G04 #@! TF.CreationDate,2023-03-24T18:53:05-04:00*
G04 #@! TF.ProjectId,captouch_sensor_diamond_large_gaps,63617074-6f75-4636-985f-73656e736f72,rev?*
G04 #@! TF.SameCoordinates,Original*
G04 #@! TF.FileFunction,Copper,L1,Top*
G04 #@! TF.FilePolarity,Positive*
%FSLAX46Y46*%
G04 Gerber Fmt 4.6, Leading zero omitted, Abs format (unit mm)*
G04 Created by KiCad (PCBNEW 6.0.8+dfsg-1~bpo11+1) date 2023-03-24 18:53:05*
%MOMM*%
%LPD*%
G01*
G04 APERTURE LIST*
G04 Aperture macros list*
%AMFreePoly0*
4,1,4236,192.029999,0.116850,192.052035,0.113655,192.062312,0.104737,192.075052,0.099961,192.088373,0.082122,192.105189,0.067530,192.109019,0.054474,192.117160,0.043572,192.118733,0.021364,192.125000,0.000000,192.125000,-4.150000,192.124072,-4.156402,192.124664,-4.159154,192.123047,-4.163467,192.119852,-4.185502,192.107776,-4.204205,192.099961,-4.225052,192.089059,-4.233193,192.081678,-4.244624,192.061411,-4.253839,
192.043572,-4.267160,192.030000,-4.268121,192.017613,-4.273753,191.995579,-4.270558,191.973371,-4.272131,191.961431,-4.265607,191.947965,-4.263655,191.931148,-4.249062,191.911612,-4.238388,191.304474,-3.631250,191.658026,-3.631250,191.875000,-3.848224,191.875000,-3.414277,191.658026,-3.631250,191.304474,-3.631250,190.785724,-3.112500,191.139276,-3.112500,191.481250,-3.454474,191.823224,-3.112500,191.481250,-2.770526,
191.139276,-3.112500,190.785724,-3.112500,190.266974,-2.593750,190.620526,-2.593750,190.962500,-2.935724,191.304474,-2.593750,191.658026,-2.593750,191.875000,-2.810724,191.875000,-2.376777,191.658026,-2.593750,191.304474,-2.593750,190.962500,-2.251776,190.620526,-2.593750,190.266974,-2.593750,189.873224,-2.200000,188.126776,-2.200000,186.088388,-4.238388,186.059644,-4.259852,186.050812,-4.261753,186.043572,-4.267160,
186.016941,-4.269046,185.990846,-4.274664,185.982386,-4.271493,185.973371,-4.272131,185.949943,-4.259331,185.924948,-4.249961,185.919541,-4.242720,185.911612,-4.238388,185.304474,-3.631250,185.658026,-3.631250,186.000000,-3.973224,186.341974,-3.631250,186.000000,-3.289276,185.658026,-3.631250,185.304474,-3.631250,184.785724,-3.112500,185.139276,-3.112500,185.481250,-3.454474,185.823224,-3.112500,186.176776,-3.112500,
186.518750,-3.454474,186.860724,-3.112500,186.518750,-2.770526,186.176776,-3.112500,185.823224,-3.112500,185.481250,-2.770526,185.139276,-3.112500,184.785724,-3.112500,184.266974,-2.593750,184.620526,-2.593750,184.962500,-2.935724,185.304474,-2.593750,185.658026,-2.593750,186.000000,-2.935724,186.341974,-2.593750,186.695526,-2.593750,187.037500,-2.935724,187.379474,-2.593750,187.037500,-2.251776,186.695526,-2.593750,
186.341974,-2.593750,186.000000,-2.251776,185.658026,-2.593750,185.304474,-2.593750,184.962500,-2.251776,184.620526,-2.593750,184.266974,-2.593750,183.873224,-2.200000,182.126776,-2.200000,180.088388,-4.238388,180.059644,-4.259852,180.050812,-4.261753,180.043572,-4.267160,180.016941,-4.269046,179.990846,-4.274664,179.982386,-4.271493,179.973371,-4.272131,179.949943,-4.259331,179.924948,-4.249961,179.919541,-4.242720,
179.911612,-4.238388,179.304474,-3.631250,179.658026,-3.631250,180.000000,-3.973224,180.341974,-3.631250,180.000000,-3.289276,179.658026,-3.631250,179.304474,-3.631250,178.785724,-3.112500,179.139276,-3.112500,179.481250,-3.454474,179.823224,-3.112500,180.176776,-3.112500,180.518750,-3.454474,180.860724,-3.112500,180.518750,-2.770526,180.176776,-3.112500,179.823224,-3.112500,179.481250,-2.770526,179.139276,-3.112500,
178.785724,-3.112500,178.266974,-2.593750,178.620526,-2.593750,178.962500,-2.935724,179.304474,-2.593750,179.658026,-2.593750,180.000000,-2.935724,180.341974,-2.593750,180.695526,-2.593750,181.037500,-2.935724,181.379474,-2.593750,181.037500,-2.251776,180.695526,-2.593750,180.341974,-2.593750,180.000000,-2.251776,179.658026,-2.593750,179.304474,-2.593750,178.962500,-2.251776,178.620526,-2.593750,178.266974,-2.593750,
177.873224,-2.200000,176.126776,-2.200000,174.088388,-4.238388,174.059644,-4.259852,174.050812,-4.261753,174.043572,-4.267160,174.016941,-4.269046,173.990846,-4.274664,173.982386,-4.271493,173.973371,-4.272131,173.949943,-4.259331,173.924948,-4.249961,173.919541,-4.242720,173.911612,-4.238388,173.304474,-3.631250,173.658026,-3.631250,174.000000,-3.973224,174.341974,-3.631250,174.000000,-3.289276,173.658026,-3.631250,
173.304474,-3.631250,172.785724,-3.112500,173.139276,-3.112500,173.481250,-3.454474,173.823224,-3.112500,174.176776,-3.112500,174.518750,-3.454474,174.860724,-3.112500,174.518750,-2.770526,174.176776,-3.112500,173.823224,-3.112500,173.481250,-2.770526,173.139276,-3.112500,172.785724,-3.112500,172.266974,-2.593750,172.620526,-2.593750,172.962500,-2.935724,173.304474,-2.593750,173.658026,-2.593750,174.000000,-2.935724,
174.341974,-2.593750,174.695526,-2.593750,175.037500,-2.935724,175.379474,-2.593750,175.037500,-2.251776,174.695526,-2.593750,174.341974,-2.593750,174.000000,-2.251776,173.658026,-2.593750,173.304474,-2.593750,172.962500,-2.251776,172.620526,-2.593750,172.266974,-2.593750,171.873224,-2.200000,170.126776,-2.200000,168.088388,-4.238388,168.059644,-4.259852,168.050812,-4.261753,168.043572,-4.267160,168.016941,-4.269046,
167.990846,-4.274664,167.982386,-4.271493,167.973371,-4.272131,167.949943,-4.259331,167.924948,-4.249961,167.919541,-4.242720,167.911612,-4.238388,167.304474,-3.631250,167.658026,-3.631250,168.000000,-3.973224,168.341974,-3.631250,168.000000,-3.289276,167.658026,-3.631250,167.304474,-3.631250,166.785724,-3.112500,167.139276,-3.112500,167.481250,-3.454474,167.823224,-3.112500,168.176776,-3.112500,168.518750,-3.454474,
168.860724,-3.112500,168.518750,-2.770526,168.176776,-3.112500,167.823224,-3.112500,167.481250,-2.770526,167.139276,-3.112500,166.785724,-3.112500,166.266974,-2.593750,166.620526,-2.593750,166.962500,-2.935724,167.304474,-2.593750,167.658026,-2.593750,168.000000,-2.935724,168.341974,-2.593750,168.695526,-2.593750,169.037500,-2.935724,169.379474,-2.593750,169.037500,-2.251776,168.695526,-2.593750,168.341974,-2.593750,
168.000000,-2.251776,167.658026,-2.593750,167.304474,-2.593750,166.962500,-2.251776,166.620526,-2.593750,166.266974,-2.593750,165.873224,-2.200000,164.126776,-2.200000,162.088388,-4.238388,162.059644,-4.259852,162.050812,-4.261753,162.043572,-4.267160,162.016941,-4.269046,161.990846,-4.274664,161.982386,-4.271493,161.973371,-4.272131,161.949943,-4.259331,161.924948,-4.249961,161.919541,-4.242720,161.911612,-4.238388,
161.304474,-3.631250,161.658026,-3.631250,162.000000,-3.973224,162.341974,-3.631250,162.000000,-3.289276,161.658026,-3.631250,161.304474,-3.631250,160.785724,-3.112500,161.139276,-3.112500,161.481250,-3.454474,161.823224,-3.112500,162.176776,-3.112500,162.518750,-3.454474,162.860724,-3.112500,162.518750,-2.770526,162.176776,-3.112500,161.823224,-3.112500,161.481250,-2.770526,161.139276,-3.112500,160.785724,-3.112500,
160.266974,-2.593750,160.620526,-2.593750,160.962500,-2.935724,161.304474,-2.593750,161.658026,-2.593750,162.000000,-2.935724,162.341974,-2.593750,162.695526,-2.593750,163.037500,-2.935724,163.379474,-2.593750,163.037500,-2.251776,162.695526,-2.593750,162.341974,-2.593750,162.000000,-2.251776,161.658026,-2.593750,161.304474,-2.593750,160.962500,-2.251776,160.620526,-2.593750,160.266974,-2.593750,159.873224,-2.200000,
158.126776,-2.200000,156.088388,-4.238388,156.059644,-4.259852,156.050812,-4.261753,156.043572,-4.267160,156.016941,-4.269046,155.990846,-4.274664,155.982386,-4.271493,155.973371,-4.272131,155.949943,-4.259331,155.924948,-4.249961,155.919541,-4.242720,155.911612,-4.238388,155.304474,-3.631250,155.658026,-3.631250,156.000000,-3.973224,156.341974,-3.631250,156.000000,-3.289276,155.658026,-3.631250,155.304474,-3.631250,
154.785724,-3.112500,155.139276,-3.112500,155.481250,-3.454474,155.823224,-3.112500,156.176776,-3.112500,156.518750,-3.454474,156.860724,-3.112500,156.518750,-2.770526,156.176776,-3.112500,155.823224,-3.112500,155.481250,-2.770526,155.139276,-3.112500,154.785724,-3.112500,154.266974,-2.593750,154.620526,-2.593750,154.962500,-2.935724,155.304474,-2.593750,155.658026,-2.593750,156.000000,-2.935724,156.341974,-2.593750,
156.695526,-2.593750,157.037500,-2.935724,157.379474,-2.593750,157.037500,-2.251776,156.695526,-2.593750,156.341974,-2.593750,156.000000,-2.251776,155.658026,-2.593750,155.304474,-2.593750,154.962500,-2.251776,154.620526,-2.593750,154.266974,-2.593750,153.873224,-2.200000,152.126776,-2.200000,150.088388,-4.238388,150.059644,-4.259852,150.050812,-4.261753,150.043572,-4.267160,150.016941,-4.269046,149.990846,-4.274664,
149.982386,-4.271493,149.973371,-4.272131,149.949943,-4.259331,149.924948,-4.249961,149.919541,-4.242720,149.911612,-4.238388,149.304474,-3.631250,149.658026,-3.631250,150.000000,-3.973224,150.341974,-3.631250,150.000000,-3.289276,149.658026,-3.631250,149.304474,-3.631250,148.785724,-3.112500,149.139276,-3.112500,149.481250,-3.454474,149.823224,-3.112500,150.176776,-3.112500,150.518750,-3.454474,150.860724,-3.112500,
150.518750,-2.770526,150.176776,-3.112500,149.823224,-3.112500,149.481250,-2.770526,149.139276,-3.112500,148.785724,-3.112500,148.266974,-2.593750,148.620526,-2.593750,148.962500,-2.935724,149.304474,-2.593750,149.658026,-2.593750,150.000000,-2.935724,150.341974,-2.593750,150.695526,-2.593750,151.037500,-2.935724,151.379474,-2.593750,151.037500,-2.251776,150.695526,-2.593750,150.341974,-2.593750,150.000000,-2.251776,
149.658026,-2.593750,149.304474,-2.593750,148.962500,-2.251776,148.620526,-2.593750,148.266974,-2.593750,147.873224,-2.200000,146.126776,-2.200000,144.088388,-4.238388,144.059644,-4.259852,144.050812,-4.261753,144.043572,-4.267160,144.016941,-4.269046,143.990846,-4.274664,143.982386,-4.271493,143.973371,-4.272131,143.949943,-4.259331,143.924948,-4.249961,143.919541,-4.242720,143.911612,-4.238388,143.304474,-3.631250,
143.658026,-3.631250,144.000000,-3.973224,144.341974,-3.631250,144.000000,-3.289276,143.658026,-3.631250,143.304474,-3.631250,142.785724,-3.112500,143.139276,-3.112500,143.481250,-3.454474,143.823224,-3.112500,144.176776,-3.112500,144.518750,-3.454474,144.860724,-3.112500,144.518750,-2.770526,144.176776,-3.112500,143.823224,-3.112500,143.481250,-2.770526,143.139276,-3.112500,142.785724,-3.112500,142.266974,-2.593750,
142.620526,-2.593750,142.962500,-2.935724,143.304474,-2.593750,143.658026,-2.593750,144.000000,-2.935724,144.341974,-2.593750,144.695526,-2.593750,145.037500,-2.935724,145.379474,-2.593750,145.037500,-2.251776,144.695526,-2.593750,144.341974,-2.593750,144.000000,-2.251776,143.658026,-2.593750,143.304474,-2.593750,142.962500,-2.251776,142.620526,-2.593750,142.266974,-2.593750,141.873224,-2.200000,140.126776,-2.200000,
138.088388,-4.238388,138.059644,-4.259852,138.050812,-4.261753,138.043572,-4.267160,138.016941,-4.269046,137.990846,-4.274664,137.982386,-4.271493,137.973371,-4.272131,137.949943,-4.259331,137.924948,-4.249961,137.919541,-4.242720,137.911612,-4.238388,137.304474,-3.631250,137.658026,-3.631250,138.000000,-3.973224,138.341974,-3.631250,138.000000,-3.289276,137.658026,-3.631250,137.304474,-3.631250,136.785724,-3.112500,
137.139276,-3.112500,137.481250,-3.454474,137.823224,-3.112500,138.176776,-3.112500,138.518750,-3.454474,138.860724,-3.112500,138.518750,-2.770526,138.176776,-3.112500,137.823224,-3.112500,137.481250,-2.770526,137.139276,-3.112500,136.785724,-3.112500,136.266974,-2.593750,136.620526,-2.593750,136.962500,-2.935724,137.304474,-2.593750,137.658026,-2.593750,138.000000,-2.935724,138.341974,-2.593750,138.695526,-2.593750,
139.037500,-2.935724,139.379474,-2.593750,139.037500,-2.251776,138.695526,-2.593750,138.341974,-2.593750,138.000000,-2.251776,137.658026,-2.593750,137.304474,-2.593750,136.962500,-2.251776,136.620526,-2.593750,136.266974,-2.593750,135.873224,-2.200000,134.126776,-2.200000,132.088388,-4.238388,132.059644,-4.259852,132.050812,-4.261753,132.043572,-4.267160,132.016941,-4.269046,131.990846,-4.274664,131.982386,-4.271493,
131.973371,-4.272131,131.949943,-4.259331,131.924948,-4.249961,131.919541,-4.242720,131.911612,-4.238388,131.304474,-3.631250,131.658026,-3.631250,132.000000,-3.973224,132.341974,-3.631250,132.000000,-3.289276,131.658026,-3.631250,131.304474,-3.631250,130.785724,-3.112500,131.139276,-3.112500,131.481250,-3.454474,131.823224,-3.112500,132.176776,-3.112500,132.518750,-3.454474,132.860724,-3.112500,132.518750,-2.770526,
132.176776,-3.112500,131.823224,-3.112500,131.481250,-2.770526,131.139276,-3.112500,130.785724,-3.112500,130.266974,-2.593750,130.620526,-2.593750,130.962500,-2.935724,131.304474,-2.593750,131.658026,-2.593750,132.000000,-2.935724,132.341974,-2.593750,132.695526,-2.593750,133.037500,-2.935724,133.379474,-2.593750,133.037500,-2.251776,132.695526,-2.593750,132.341974,-2.593750,132.000000,-2.251776,131.658026,-2.593750,
131.304474,-2.593750,130.962500,-2.251776,130.620526,-2.593750,130.266974,-2.593750,129.873224,-2.200000,128.126776,-2.200000,126.088388,-4.238388,126.059644,-4.259852,126.050812,-4.261753,126.043572,-4.267160,126.016941,-4.269046,125.990846,-4.274664,125.982386,-4.271493,125.973371,-4.272131,125.949943,-4.259331,125.924948,-4.249961,125.919541,-4.242720,125.911612,-4.238388,125.304474,-3.631250,125.658026,-3.631250,
126.000000,-3.973224,126.341974,-3.631250,126.000000,-3.289276,125.658026,-3.631250,125.304474,-3.631250,124.785724,-3.112500,125.139276,-3.112500,125.481250,-3.454474,125.823224,-3.112500,126.176776,-3.112500,126.518750,-3.454474,126.860724,-3.112500,126.518750,-2.770526,126.176776,-3.112500,125.823224,-3.112500,125.481250,-2.770526,125.139276,-3.112500,124.785724,-3.112500,124.266974,-2.593750,124.620526,-2.593750,
124.962500,-2.935724,125.304474,-2.593750,125.658026,-2.593750,126.000000,-2.935724,126.341974,-2.593750,126.695526,-2.593750,127.037500,-2.935724,127.379474,-2.593750,127.037500,-2.251776,126.695526,-2.593750,126.341974,-2.593750,126.000000,-2.251776,125.658026,-2.593750,125.304474,-2.593750,124.962500,-2.251776,124.620526,-2.593750,124.266974,-2.593750,123.873224,-2.200000,122.126776,-2.200000,120.088388,-4.238388,
120.059644,-4.259852,120.050812,-4.261753,120.043572,-4.267160,120.016941,-4.269046,119.990846,-4.274664,119.982386,-4.271493,119.973371,-4.272131,119.949943,-4.259331,119.924948,-4.249961,119.919541,-4.242720,119.911612,-4.238388,119.304474,-3.631250,119.658026,-3.631250,120.000000,-3.973224,120.341974,-3.631250,120.000000,-3.289276,119.658026,-3.631250,119.304474,-3.631250,118.785724,-3.112500,119.139276,-3.112500,
119.481250,-3.454474,119.823224,-3.112500,120.176776,-3.112500,120.518750,-3.454474,120.860724,-3.112500,120.518750,-2.770526,120.176776,-3.112500,119.823224,-3.112500,119.481250,-2.770526,119.139276,-3.112500,118.785724,-3.112500,118.266974,-2.593750,118.620526,-2.593750,118.962500,-2.935724,119.304474,-2.593750,119.658026,-2.593750,120.000000,-2.935724,120.341974,-2.593750,120.695526,-2.593750,121.037500,-2.935724,
121.379474,-2.593750,121.037500,-2.251776,120.695526,-2.593750,120.341974,-2.593750,120.000000,-2.251776,119.658026,-2.593750,119.304474,-2.593750,118.962500,-2.251776,118.620526,-2.593750,118.266974,-2.593750,117.873224,-2.200000,116.126776,-2.200000,114.088388,-4.238388,114.059644,-4.259852,114.050812,-4.261753,114.043572,-4.267160,114.016941,-4.269046,113.990846,-4.274664,113.982386,-4.271493,113.973371,-4.272131,
113.949943,-4.259331,113.924948,-4.249961,113.919541,-4.242720,113.911612,-4.238388,113.304474,-3.631250,113.658026,-3.631250,114.000000,-3.973224,114.341974,-3.631250,114.000000,-3.289276,113.658026,-3.631250,113.304474,-3.631250,112.785724,-3.112500,113.139276,-3.112500,113.481250,-3.454474,113.823224,-3.112500,114.176776,-3.112500,114.518750,-3.454474,114.860724,-3.112500,114.518750,-2.770526,114.176776,-3.112500,
113.823224,-3.112500,113.481250,-2.770526,113.139276,-3.112500,112.785724,-3.112500,112.266974,-2.593750,112.620526,-2.593750,112.962500,-2.935724,113.304474,-2.593750,113.658026,-2.593750,114.000000,-2.935724,114.341974,-2.593750,114.695526,-2.593750,115.037500,-2.935724,115.379474,-2.593750,115.037500,-2.251776,114.695526,-2.593750,114.341974,-2.593750,114.000000,-2.251776,113.658026,-2.593750,113.304474,-2.593750,
112.962500,-2.251776,112.620526,-2.593750,112.266974,-2.593750,111.873224,-2.200000,110.126776,-2.200000,108.088388,-4.238388,108.059644,-4.259852,108.050812,-4.261753,108.043572,-4.267160,108.016941,-4.269046,107.990846,-4.274664,107.982386,-4.271493,107.973371,-4.272131,107.949943,-4.259331,107.924948,-4.249961,107.919541,-4.242720,107.911612,-4.238388,107.304474,-3.631250,107.658026,-3.631250,108.000000,-3.973224,
108.341974,-3.631250,108.000000,-3.289276,107.658026,-3.631250,107.304474,-3.631250,106.785724,-3.112500,107.139276,-3.112500,107.481250,-3.454474,107.823224,-3.112500,108.176776,-3.112500,108.518750,-3.454474,108.860724,-3.112500,108.518750,-2.770526,108.176776,-3.112500,107.823224,-3.112500,107.481250,-2.770526,107.139276,-3.112500,106.785724,-3.112500,106.266974,-2.593750,106.620526,-2.593750,106.962500,-2.935724,
107.304474,-2.593750,107.658026,-2.593750,108.000000,-2.935724,108.341974,-2.593750,108.695526,-2.593750,109.037500,-2.935724,109.379474,-2.593750,109.037500,-2.251776,108.695526,-2.593750,108.341974,-2.593750,108.000000,-2.251776,107.658026,-2.593750,107.304474,-2.593750,106.962500,-2.251776,106.620526,-2.593750,106.266974,-2.593750,105.873224,-2.200000,104.126776,-2.200000,102.088388,-4.238388,102.059644,-4.259852,
102.050812,-4.261753,102.043572,-4.267160,102.016941,-4.269046,101.990846,-4.274664,101.982386,-4.271493,101.973371,-4.272131,101.949943,-4.259331,101.924948,-4.249961,101.919541,-4.242720,101.911612,-4.238388,101.304474,-3.631250,101.658026,-3.631250,102.000000,-3.973224,102.341974,-3.631250,102.000000,-3.289276,101.658026,-3.631250,101.304474,-3.631250,100.785724,-3.112500,101.139276,-3.112500,101.481250,-3.454474,
101.823224,-3.112500,102.176776,-3.112500,102.518750,-3.454474,102.860724,-3.112500,102.518750,-2.770526,102.176776,-3.112500,101.823224,-3.112500,101.481250,-2.770526,101.139276,-3.112500,100.785724,-3.112500,100.266974,-2.593750,100.620526,-2.593750,100.962500,-2.935724,101.304474,-2.593750,101.658026,-2.593750,102.000000,-2.935724,102.341974,-2.593750,102.695526,-2.593750,103.037500,-2.935724,103.379474,-2.593750,
103.037500,-2.251776,102.695526,-2.593750,102.341974,-2.593750,102.000000,-2.251776,101.658026,-2.593750,101.304474,-2.593750,100.962500,-2.251776,100.620526,-2.593750,100.266974,-2.593750,99.873224,-2.200000,98.126776,-2.200000,96.088388,-4.238388,96.059644,-4.259852,96.050812,-4.261753,96.043572,-4.267160,96.016941,-4.269046,95.990846,-4.274664,95.982386,-4.271493,95.973371,-4.272131,95.949943,-4.259331,
95.924948,-4.249961,95.919541,-4.242720,95.911612,-4.238388,95.304474,-3.631250,95.658026,-3.631250,96.000000,-3.973224,96.341974,-3.631250,96.000000,-3.289276,95.658026,-3.631250,95.304474,-3.631250,94.785724,-3.112500,95.139276,-3.112500,95.481250,-3.454474,95.823224,-3.112500,96.176776,-3.112500,96.518750,-3.454474,96.860724,-3.112500,96.518750,-2.770526,96.176776,-3.112500,95.823224,-3.112500,
95.481250,-2.770526,95.139276,-3.112500,94.785724,-3.112500,94.266974,-2.593750,94.620526,-2.593750,94.962500,-2.935724,95.304474,-2.593750,95.658026,-2.593750,96.000000,-2.935724,96.341974,-2.593750,96.695526,-2.593750,97.037500,-2.935724,97.379474,-2.593750,97.037500,-2.251776,96.695526,-2.593750,96.341974,-2.593750,96.000000,-2.251776,95.658026,-2.593750,95.304474,-2.593750,94.962500,-2.251776,
94.620526,-2.593750,94.266974,-2.593750,93.873224,-2.200000,92.126776,-2.200000,90.088388,-4.238388,90.059644,-4.259852,90.050812,-4.261753,90.043572,-4.267160,90.016941,-4.269046,89.990846,-4.274664,89.982386,-4.271493,89.973371,-4.272131,89.949943,-4.259331,89.924948,-4.249961,89.919541,-4.242720,89.911612,-4.238388,89.304474,-3.631250,89.658026,-3.631250,90.000000,-3.973224,90.341974,-3.631250,
90.000000,-3.289276,89.658026,-3.631250,89.304474,-3.631250,88.785724,-3.112500,89.139276,-3.112500,89.481250,-3.454474,89.823224,-3.112500,90.176776,-3.112500,90.518750,-3.454474,90.860724,-3.112500,90.518750,-2.770526,90.176776,-3.112500,89.823224,-3.112500,89.481250,-2.770526,89.139276,-3.112500,88.785724,-3.112500,88.266974,-2.593750,88.620526,-2.593750,88.962500,-2.935724,89.304474,-2.593750,
89.658026,-2.593750,90.000000,-2.935724,90.341974,-2.593750,90.695526,-2.593750,91.037500,-2.935724,91.379474,-2.593750,91.037500,-2.251776,90.695526,-2.593750,90.341974,-2.593750,90.000000,-2.251776,89.658026,-2.593750,89.304474,-2.593750,88.962500,-2.251776,88.620526,-2.593750,88.266974,-2.593750,87.873224,-2.200000,86.126776,-2.200000,84.088388,-4.238388,84.059644,-4.259852,84.050812,-4.261753,
84.043572,-4.267160,84.016941,-4.269046,83.990846,-4.274664,83.982386,-4.271493,83.973371,-4.272131,83.949943,-4.259331,83.924948,-4.249961,83.919541,-4.242720,83.911612,-4.238388,83.304474,-3.631250,83.658026,-3.631250,84.000000,-3.973224,84.341974,-3.631250,84.000000,-3.289276,83.658026,-3.631250,83.304474,-3.631250,82.785724,-3.112500,83.139276,-3.112500,83.481250,-3.454474,83.823224,-3.112500,
84.176776,-3.112500,84.518750,-3.454474,84.860724,-3.112500,84.518750,-2.770526,84.176776,-3.112500,83.823224,-3.112500,83.481250,-2.770526,83.139276,-3.112500,82.785724,-3.112500,82.266974,-2.593750,82.620526,-2.593750,82.962500,-2.935724,83.304474,-2.593750,83.658026,-2.593750,84.000000,-2.935724,84.341974,-2.593750,84.695526,-2.593750,85.037500,-2.935724,85.379474,-2.593750,85.037500,-2.251776,
84.695526,-2.593750,84.341974,-2.593750,84.000000,-2.251776,83.658026,-2.593750,83.304474,-2.593750,82.962500,-2.251776,82.620526,-2.593750,82.266974,-2.593750,81.873224,-2.200000,80.126776,-2.200000,78.088388,-4.238388,78.059644,-4.259852,78.050812,-4.261753,78.043572,-4.267160,78.016941,-4.269046,77.990846,-4.274664,77.982386,-4.271493,77.973371,-4.272131,77.949943,-4.259331,77.924948,-4.249961,
77.919541,-4.242720,77.911612,-4.238388,77.304474,-3.631250,77.658026,-3.631250,78.000000,-3.973224,78.341974,-3.631250,78.000000,-3.289276,77.658026,-3.631250,77.304474,-3.631250,76.785724,-3.112500,77.139276,-3.112500,77.481250,-3.454474,77.823224,-3.112500,78.176776,-3.112500,78.518750,-3.454474,78.860724,-3.112500,78.518750,-2.770526,78.176776,-3.112500,77.823224,-3.112500,77.481250,-2.770526,
77.139276,-3.112500,76.785724,-3.112500,76.266974,-2.593750,76.620526,-2.593750,76.962500,-2.935724,77.304474,-2.593750,77.658026,-2.593750,78.000000,-2.935724,78.341974,-2.593750,78.695526,-2.593750,79.037500,-2.935724,79.379474,-2.593750,79.037500,-2.251776,78.695526,-2.593750,78.341974,-2.593750,78.000000,-2.251776,77.658026,-2.593750,77.304474,-2.593750,76.962500,-2.251776,76.620526,-2.593750,
76.266974,-2.593750,75.873224,-2.200000,74.126776,-2.200000,72.088388,-4.238388,72.059644,-4.259852,72.050812,-4.261753,72.043572,-4.267160,72.016941,-4.269046,71.990846,-4.274664,71.982386,-4.271493,71.973371,-4.272131,71.949943,-4.259331,71.924948,-4.249961,71.919541,-4.242720,71.911612,-4.238388,71.304474,-3.631250,71.658026,-3.631250,72.000000,-3.973224,72.341974,-3.631250,72.000000,-3.289276,
71.658026,-3.631250,71.304474,-3.631250,70.785724,-3.112500,71.139276,-3.112500,71.481250,-3.454474,71.823224,-3.112500,72.176776,-3.112500,72.518750,-3.454474,72.860724,-3.112500,72.518750,-2.770526,72.176776,-3.112500,71.823224,-3.112500,71.481250,-2.770526,71.139276,-3.112500,70.785724,-3.112500,70.266974,-2.593750,70.620526,-2.593750,70.962500,-2.935724,71.304474,-2.593750,71.658026,-2.593750,
72.000000,-2.935724,72.341974,-2.593750,72.695526,-2.593750,73.037500,-2.935724,73.379474,-2.593750,73.037500,-2.251776,72.695526,-2.593750,72.341974,-2.593750,72.000000,-2.251776,71.658026,-2.593750,71.304474,-2.593750,70.962500,-2.251776,70.620526,-2.593750,70.266974,-2.593750,69.873224,-2.200000,68.126776,-2.200000,66.088388,-4.238388,66.059644,-4.259852,66.050812,-4.261753,66.043572,-4.267160,
66.016941,-4.269046,65.990846,-4.274664,65.982386,-4.271493,65.973371,-4.272131,65.949943,-4.259331,65.924948,-4.249961,65.919541,-4.242720,65.911612,-4.238388,65.304474,-3.631250,65.658026,-3.631250,66.000000,-3.973224,66.341974,-3.631250,66.000000,-3.289276,65.658026,-3.631250,65.304474,-3.631250,64.785724,-3.112500,65.139276,-3.112500,65.481250,-3.454474,65.823224,-3.112500,66.176776,-3.112500,
66.518750,-3.454474,66.860724,-3.112500,66.518750,-2.770526,66.176776,-3.112500,65.823224,-3.112500,65.481250,-2.770526,65.139276,-3.112500,64.785724,-3.112500,64.266974,-2.593750,64.620526,-2.593750,64.962500,-2.935724,65.304474,-2.593750,65.658026,-2.593750,66.000000,-2.935724,66.341974,-2.593750,66.695526,-2.593750,67.037500,-2.935724,67.379474,-2.593750,67.037500,-2.251776,66.695526,-2.593750,
66.341974,-2.593750,66.000000,-2.251776,65.658026,-2.593750,65.304474,-2.593750,64.962500,-2.251776,64.620526,-2.593750,64.266974,-2.593750,63.873224,-2.200000,62.126776,-2.200000,60.088388,-4.238388,60.059644,-4.259852,60.050812,-4.261753,60.043572,-4.267160,60.016941,-4.269046,59.990846,-4.274664,59.982386,-4.271493,59.973371,-4.272131,59.949943,-4.259331,59.924948,-4.249961,59.919541,-4.242720,
59.911612,-4.238388,59.304474,-3.631250,59.658026,-3.631250,60.000000,-3.973224,60.341974,-3.631250,60.000000,-3.289276,59.658026,-3.631250,59.304474,-3.631250,58.785724,-3.112500,59.139276,-3.112500,59.481250,-3.454474,59.823224,-3.112500,60.176776,-3.112500,60.518750,-3.454474,60.860724,-3.112500,60.518750,-2.770526,60.176776,-3.112500,59.823224,-3.112500,59.481250,-2.770526,59.139276,-3.112500,
58.785724,-3.112500,58.266974,-2.593750,58.620526,-2.593750,58.962500,-2.935724,59.304474,-2.593750,59.658026,-2.593750,60.000000,-2.935724,60.341974,-2.593750,60.695526,-2.593750,61.037500,-2.935724,61.379474,-2.593750,61.037500,-2.251776,60.695526,-2.593750,60.341974,-2.593750,60.000000,-2.251776,59.658026,-2.593750,59.304474,-2.593750,58.962500,-2.251776,58.620526,-2.593750,58.266974,-2.593750,
57.873224,-2.200000,56.126776,-2.200000,54.088388,-4.238388,54.059644,-4.259852,54.050812,-4.261753,54.043572,-4.267160,54.016941,-4.269046,53.990846,-4.274664,53.982386,-4.271493,53.973371,-4.272131,53.949943,-4.259331,53.924948,-4.249961,53.919541,-4.242720,53.911612,-4.238388,53.304474,-3.631250,53.658026,-3.631250,54.000000,-3.973224,54.341974,-3.631250,54.000000,-3.289276,53.658026,-3.631250,
53.304474,-3.631250,52.785724,-3.112500,53.139276,-3.112500,53.481250,-3.454474,53.823224,-3.112500,54.176776,-3.112500,54.518750,-3.454474,54.860724,-3.112500,54.518750,-2.770526,54.176776,-3.112500,53.823224,-3.112500,53.481250,-2.770526,53.139276,-3.112500,52.785724,-3.112500,52.266974,-2.593750,52.620526,-2.593750,52.962500,-2.935724,53.304474,-2.593750,53.658026,-2.593750,54.000000,-2.935724,
54.341974,-2.593750,54.695526,-2.593750,55.037500,-2.935724,55.379474,-2.593750,55.037500,-2.251776,54.695526,-2.593750,54.341974,-2.593750,54.000000,-2.251776,53.658026,-2.593750,53.304474,-2.593750,52.962500,-2.251776,52.620526,-2.593750,52.266974,-2.593750,51.873224,-2.200000,50.126776,-2.200000,48.088388,-4.238388,48.059644,-4.259852,48.050812,-4.261753,48.043572,-4.267160,48.016941,-4.269046,
47.990846,-4.274664,47.982386,-4.271493,47.973371,-4.272131,47.949943,-4.259331,47.924948,-4.249961,47.919541,-4.242720,47.911612,-4.238388,47.304474,-3.631250,47.658026,-3.631250,48.000000,-3.973224,48.341974,-3.631250,48.000000,-3.289276,47.658026,-3.631250,47.304474,-3.631250,46.785724,-3.112500,47.139276,-3.112500,47.481250,-3.454474,47.823224,-3.112500,48.176776,-3.112500,48.518750,-3.454474,
48.860724,-3.112500,48.518750,-2.770526,48.176776,-3.112500,47.823224,-3.112500,47.481250,-2.770526,47.139276,-3.112500,46.785724,-3.112500,46.266974,-2.593750,46.620526,-2.593750,46.962500,-2.935724,47.304474,-2.593750,47.658026,-2.593750,48.000000,-2.935724,48.341974,-2.593750,48.695526,-2.593750,49.037500,-2.935724,49.379474,-2.593750,49.037500,-2.251776,48.695526,-2.593750,48.341974,-2.593750,
48.000000,-2.251776,47.658026,-2.593750,47.304474,-2.593750,46.962500,-2.251776,46.620526,-2.593750,46.266974,-2.593750,45.873224,-2.200000,44.126776,-2.200000,42.088388,-4.238388,42.059644,-4.259852,42.050812,-4.261753,42.043572,-4.267160,42.016941,-4.269046,41.990846,-4.274664,41.982386,-4.271493,41.973371,-4.272131,41.949943,-4.259331,41.924948,-4.249961,41.919541,-4.242720,41.911612,-4.238388,
41.304474,-3.631250,41.658026,-3.631250,42.000000,-3.973224,42.341974,-3.631250,42.000000,-3.289276,41.658026,-3.631250,41.304474,-3.631250,40.785724,-3.112500,41.139276,-3.112500,41.481250,-3.454474,41.823224,-3.112500,42.176776,-3.112500,42.518750,-3.454474,42.860724,-3.112500,42.518750,-2.770526,42.176776,-3.112500,41.823224,-3.112500,41.481250,-2.770526,41.139276,-3.112500,40.785724,-3.112500,
40.266974,-2.593750,40.620526,-2.593750,40.962500,-2.935724,41.304474,-2.593750,41.658026,-2.593750,42.000000,-2.935724,42.341974,-2.593750,42.695526,-2.593750,43.037500,-2.935724,43.379474,-2.593750,43.037500,-2.251776,42.695526,-2.593750,42.341974,-2.593750,42.000000,-2.251776,41.658026,-2.593750,41.304474,-2.593750,40.962500,-2.251776,40.620526,-2.593750,40.266974,-2.593750,39.873224,-2.200000,
38.126776,-2.200000,36.088388,-4.238388,36.059644,-4.259852,36.050812,-4.261753,36.043572,-4.267160,36.016941,-4.269046,35.990846,-4.274664,35.982386,-4.271493,35.973371,-4.272131,35.949943,-4.259331,35.924948,-4.249961,35.919541,-4.242720,35.911612,-4.238388,35.304474,-3.631250,35.658026,-3.631250,36.000000,-3.973224,36.341974,-3.631250,36.000000,-3.289276,35.658026,-3.631250,35.304474,-3.631250,
34.785724,-3.112500,35.139276,-3.112500,35.481250,-3.454474,35.823224,-3.112500,36.176776,-3.112500,36.518750,-3.454474,36.860724,-3.112500,36.518750,-2.770526,36.176776,-3.112500,35.823224,-3.112500,35.481250,-2.770526,35.139276,-3.112500,34.785724,-3.112500,34.266974,-2.593750,34.620526,-2.593750,34.962500,-2.935724,35.304474,-2.593750,35.658026,-2.593750,36.000000,-2.935724,36.341974,-2.593750,
36.695526,-2.593750,37.037500,-2.935724,37.379474,-2.593750,37.037500,-2.251776,36.695526,-2.593750,36.341974,-2.593750,36.000000,-2.251776,35.658026,-2.593750,35.304474,-2.593750,34.962500,-2.251776,34.620526,-2.593750,34.266974,-2.593750,33.873224,-2.200000,32.126776,-2.200000,30.088388,-4.238388,30.059644,-4.259852,30.050812,-4.261753,30.043572,-4.267160,30.016941,-4.269046,29.990846,-4.274664,
29.982386,-4.271493,29.973371,-4.272131,29.949943,-4.259331,29.924948,-4.249961,29.919541,-4.242720,29.911612,-4.238388,29.304474,-3.631250,29.658026,-3.631250,30.000000,-3.973224,30.341974,-3.631250,30.000000,-3.289276,29.658026,-3.631250,29.304474,-3.631250,28.785724,-3.112500,29.139276,-3.112500,29.481250,-3.454474,29.823224,-3.112500,30.176776,-3.112500,30.518750,-3.454474,30.860724,-3.112500,
30.518750,-2.770526,30.176776,-3.112500,29.823224,-3.112500,29.481250,-2.770526,29.139276,-3.112500,28.785724,-3.112500,28.266974,-2.593750,28.620526,-2.593750,28.962500,-2.935724,29.304474,-2.593750,29.658026,-2.593750,30.000000,-2.935724,30.341974,-2.593750,30.695526,-2.593750,31.037500,-2.935724,31.379474,-2.593750,31.037500,-2.251776,30.695526,-2.593750,30.341974,-2.593750,30.000000,-2.251776,
29.658026,-2.593750,29.304474,-2.593750,28.962500,-2.251776,28.620526,-2.593750,28.266974,-2.593750,27.873224,-2.200000,26.126776,-2.200000,24.088388,-4.238388,24.059644,-4.259852,24.050812,-4.261753,24.043572,-4.267160,24.016941,-4.269046,23.990846,-4.274664,23.982386,-4.271493,23.973371,-4.272131,23.949943,-4.259331,23.924948,-4.249961,23.919541,-4.242720,23.911612,-4.238388,23.304474,-3.631250,
23.658026,-3.631250,24.000000,-3.973224,24.341974,-3.631250,24.000000,-3.289276,23.658026,-3.631250,23.304474,-3.631250,22.785724,-3.112500,23.139276,-3.112500,23.481250,-3.454474,23.823224,-3.112500,24.176776,-3.112500,24.518750,-3.454474,24.860724,-3.112500,24.518750,-2.770526,24.176776,-3.112500,23.823224,-3.112500,23.481250,-2.770526,23.139276,-3.112500,22.785724,-3.112500,22.266974,-2.593750,
22.620526,-2.593750,22.962500,-2.935724,23.304474,-2.593750,23.658026,-2.593750,24.000000,-2.935724,24.341974,-2.593750,24.695526,-2.593750,25.037500,-2.935724,25.379474,-2.593750,25.037500,-2.251776,24.695526,-2.593750,24.341974,-2.593750,24.000000,-2.251776,23.658026,-2.593750,23.304474,-2.593750,22.962500,-2.251776,22.620526,-2.593750,22.266974,-2.593750,21.873224,-2.200000,20.126776,-2.200000,
18.088388,-4.238388,18.059644,-4.259852,18.050812,-4.261753,18.043572,-4.267160,18.016941,-4.269046,17.990846,-4.274664,17.982386,-4.271493,17.973371,-4.272131,17.949943,-4.259331,17.924948,-4.249961,17.919541,-4.242720,17.911612,-4.238388,17.304474,-3.631250,17.658026,-3.631250,18.000000,-3.973224,18.341974,-3.631250,18.000000,-3.289276,17.658026,-3.631250,17.304474,-3.631250,16.785724,-3.112500,
17.139276,-3.112500,17.481250,-3.454474,17.823224,-3.112500,18.176776,-3.112500,18.518750,-3.454474,18.860724,-3.112500,18.518750,-2.770526,18.176776,-3.112500,17.823224,-3.112500,17.481250,-2.770526,17.139276,-3.112500,16.785724,-3.112500,16.266974,-2.593750,16.620526,-2.593750,16.962500,-2.935724,17.304474,-2.593750,17.658026,-2.593750,18.000000,-2.935724,18.341974,-2.593750,18.695526,-2.593750,
19.037500,-2.935724,19.379474,-2.593750,19.037500,-2.251776,18.695526,-2.593750,18.341974,-2.593750,18.000000,-2.251776,17.658026,-2.593750,17.304474,-2.593750,16.962500,-2.251776,16.620526,-2.593750,16.266974,-2.593750,15.873224,-2.200000,14.126776,-2.200000,12.088388,-4.238388,12.059644,-4.259852,12.050812,-4.261753,12.043572,-4.267160,12.016941,-4.269046,11.990846,-4.274664,11.982386,-4.271493,
11.973371,-4.272131,11.949943,-4.259331,11.924948,-4.249961,11.919541,-4.242720,11.911612,-4.238388,11.304474,-3.631250,11.658026,-3.631250,12.000000,-3.973224,12.341974,-3.631250,12.000000,-3.289276,11.658026,-3.631250,11.304474,-3.631250,10.785724,-3.112500,11.139276,-3.112500,11.481250,-3.454474,11.823224,-3.112500,12.176776,-3.112500,12.518750,-3.454474,12.860724,-3.112500,12.518750,-2.770526,
12.176776,-3.112500,11.823224,-3.112500,11.481250,-2.770526,11.139276,-3.112500,10.785724,-3.112500,10.266974,-2.593750,10.620526,-2.593750,10.962500,-2.935724,11.304474,-2.593750,11.658026,-2.593750,12.000000,-2.935724,12.341974,-2.593750,12.695526,-2.593750,13.037500,-2.935724,13.379474,-2.593750,13.037500,-2.251776,12.695526,-2.593750,12.341974,-2.593750,12.000000,-2.251776,11.658026,-2.593750,
11.304474,-2.593750,10.962500,-2.251776,10.620526,-2.593750,10.266974,-2.593750,9.873224,-2.200000,8.126776,-2.200000,6.088388,-4.238388,6.059644,-4.259852,6.050812,-4.261753,6.043572,-4.267160,6.016941,-4.269046,5.990846,-4.274664,5.982386,-4.271493,5.973371,-4.272131,5.949943,-4.259331,5.924948,-4.249961,5.919541,-4.242720,5.911612,-4.238388,5.304474,-3.631250,5.658026,-3.631250,
6.000000,-3.973224,6.341974,-3.631250,6.000000,-3.289276,5.658026,-3.631250,5.304474,-3.631250,4.785724,-3.112500,5.139276,-3.112500,5.481250,-3.454474,5.823224,-3.112500,6.176776,-3.112500,6.518750,-3.454474,6.860724,-3.112500,6.518750,-2.770526,6.176776,-3.112500,5.823224,-3.112500,5.481250,-2.770526,5.139276,-3.112500,4.785724,-3.112500,4.266974,-2.593750,4.620526,-2.593750,
4.962500,-2.935724,5.304474,-2.593750,5.658026,-2.593750,6.000000,-2.935724,6.341974,-2.593750,6.695526,-2.593750,7.037500,-2.935724,7.379474,-2.593750,7.037500,-2.251776,6.695526,-2.593750,6.341974,-2.593750,6.000000,-2.251776,5.658026,-2.593750,5.304474,-2.593750,4.962500,-2.251776,4.620526,-2.593750,4.266974,-2.593750,3.873224,-2.200000,2.126776,-2.200000,0.088388,-4.238388,
0.083206,-4.242258,0.081678,-4.244624,0.077482,-4.246532,0.059644,-4.259852,0.037881,-4.264537,0.017613,-4.273753,0.004146,-4.271801,-0.009154,-4.274664,-0.029999,-4.266850,-0.052035,-4.263655,-0.062312,-4.254737,-0.075052,-4.249961,-0.088374,-4.232122,-0.105189,-4.217530,-0.109019,-4.204475,-0.117161,-4.193572,-0.118733,-4.171361,-0.125000,-4.150000,-0.125000,-3.414276,0.125000,-3.414276,
0.125000,-3.848224,0.341974,-3.631250,0.125000,-3.414276,-0.125000,-3.414276,-0.125000,-3.112500,0.176776,-3.112500,0.518750,-3.454474,0.860724,-3.112500,0.518750,-2.770526,0.176776,-3.112500,-0.125000,-3.112500,-0.125000,-2.376776,0.125000,-2.376776,0.125000,-2.810724,0.341974,-2.593750,0.695526,-2.593750,1.037500,-2.935724,1.379474,-2.593750,1.037500,-2.251776,0.695526,-2.593750,
0.341974,-2.593750,0.125000,-2.376776,-0.125000,-2.376776,-0.125000,-2.075000,0.176776,-2.075000,0.518750,-2.416974,0.860724,-2.075000,1.214276,-2.075000,1.556250,-2.416974,1.898224,-2.075000,4.101776,-2.075000,4.443750,-2.416974,4.785724,-2.075000,5.139276,-2.075000,5.481250,-2.416974,5.823224,-2.075000,6.176776,-2.075000,6.518750,-2.416974,6.860724,-2.075000,7.214276,-2.075000,
7.556250,-2.416974,7.898224,-2.075000,10.101776,-2.075000,10.443750,-2.416974,10.785724,-2.075000,11.139276,-2.075000,11.481250,-2.416974,11.823224,-2.075000,12.176776,-2.075000,12.518750,-2.416974,12.860724,-2.075000,13.214276,-2.075000,13.556250,-2.416974,13.898224,-2.075000,16.101776,-2.075000,16.443750,-2.416974,16.785724,-2.075000,17.139276,-2.075000,17.481250,-2.416974,17.823224,-2.075000,
18.176776,-2.075000,18.518750,-2.416974,18.860724,-2.075000,19.214276,-2.075000,19.556250,-2.416974,19.898224,-2.075000,22.101776,-2.075000,22.443750,-2.416974,22.785724,-2.075000,23.139276,-2.075000,23.481250,-2.416974,23.823224,-2.075000,24.176776,-2.075000,24.518750,-2.416974,24.860724,-2.075000,25.214276,-2.075000,25.556250,-2.416974,25.898224,-2.075000,28.101776,-2.075000,28.443750,-2.416974,
28.785724,-2.075000,29.139276,-2.075000,29.481250,-2.416974,29.823224,-2.075000,30.176776,-2.075000,30.518750,-2.416974,30.860724,-2.075000,31.214276,-2.075000,31.556250,-2.416974,31.898224,-2.075000,34.101776,-2.075000,34.443750,-2.416974,34.785724,-2.075000,35.139276,-2.075000,35.481250,-2.416974,35.823224,-2.075000,36.176776,-2.075000,36.518750,-2.416974,36.860724,-2.075000,37.214276,-2.075000,
37.556250,-2.416974,37.898224,-2.075000,40.101776,-2.075000,40.443750,-2.416974,40.785724,-2.075000,41.139276,-2.075000,41.481250,-2.416974,41.823224,-2.075000,42.176776,-2.075000,42.518750,-2.416974,42.860724,-2.075000,43.214276,-2.075000,43.556250,-2.416974,43.898224,-2.075000,46.101776,-2.075000,46.443750,-2.416974,46.785724,-2.075000,47.139276,-2.075000,47.481250,-2.416974,47.823224,-2.075000,
48.176776,-2.075000,48.518750,-2.416974,48.860724,-2.075000,49.214276,-2.075000,49.556250,-2.416974,49.898224,-2.075000,52.101776,-2.075000,52.443750,-2.416974,52.785724,-2.075000,53.139276,-2.075000,53.481250,-2.416974,53.823224,-2.075000,54.176776,-2.075000,54.518750,-2.416974,54.860724,-2.075000,55.214276,-2.075000,55.556250,-2.416974,55.898224,-2.075000,58.101776,-2.075000,58.443750,-2.416974,
58.785724,-2.075000,59.139276,-2.075000,59.481250,-2.416974,59.823224,-2.075000,60.176776,-2.075000,60.518750,-2.416974,60.860724,-2.075000,61.214276,-2.075000,61.556250,-2.416974,61.898224,-2.075000,64.101776,-2.075000,64.443750,-2.416974,64.785724,-2.075000,65.139276,-2.075000,65.481250,-2.416974,65.823224,-2.075000,66.176776,-2.075000,66.518750,-2.416974,66.860724,-2.075000,67.214276,-2.075000,
67.556250,-2.416974,67.898224,-2.075000,70.101776,-2.075000,70.443750,-2.416974,70.785724,-2.075000,71.139276,-2.075000,71.481250,-2.416974,71.823224,-2.075000,72.176776,-2.075000,72.518750,-2.416974,72.860724,-2.075000,73.214276,-2.075000,73.556250,-2.416974,73.898224,-2.075000,76.101776,-2.075000,76.443750,-2.416974,76.785724,-2.075000,77.139276,-2.075000,77.481250,-2.416974,77.823224,-2.075000,
78.176776,-2.075000,78.518750,-2.416974,78.860724,-2.075000,79.214276,-2.075000,79.556250,-2.416974,79.898224,-2.075000,82.101776,-2.075000,82.443750,-2.416974,82.785724,-2.075000,83.139276,-2.075000,83.481250,-2.416974,83.823224,-2.075000,84.176776,-2.075000,84.518750,-2.416974,84.860724,-2.075000,85.214276,-2.075000,85.556250,-2.416974,85.898224,-2.075000,88.101776,-2.075000,88.443750,-2.416974,
88.785724,-2.075000,89.139276,-2.075000,89.481250,-2.416974,89.823224,-2.075000,90.176776,-2.075000,90.518750,-2.416974,90.860724,-2.075000,91.214276,-2.075000,91.556250,-2.416974,91.898224,-2.075000,94.101776,-2.075000,94.443750,-2.416974,94.785724,-2.075000,95.139276,-2.075000,95.481250,-2.416974,95.823224,-2.075000,96.176776,-2.075000,96.518750,-2.416974,96.860724,-2.075000,97.214276,-2.075000,
97.556250,-2.416974,97.898224,-2.075000,100.101776,-2.075000,100.443750,-2.416974,100.785724,-2.075000,101.139276,-2.075000,101.481250,-2.416974,101.823224,-2.075000,102.176776,-2.075000,102.518750,-2.416974,102.860724,-2.075000,103.214276,-2.075000,103.556250,-2.416974,103.898224,-2.075000,106.101776,-2.075000,106.443750,-2.416974,106.785724,-2.075000,107.139276,-2.075000,107.481250,-2.416974,107.823224,-2.075000,
108.176776,-2.075000,108.518750,-2.416974,108.860724,-2.075000,109.214276,-2.075000,109.556250,-2.416974,109.898224,-2.075000,112.101776,-2.075000,112.443750,-2.416974,112.785724,-2.075000,113.139276,-2.075000,113.481250,-2.416974,113.823224,-2.075000,114.176776,-2.075000,114.518750,-2.416974,114.860724,-2.075000,115.214276,-2.075000,115.556250,-2.416974,115.898224,-2.075000,118.101776,-2.075000,118.443750,-2.416974,
118.785724,-2.075000,119.139276,-2.075000,119.481250,-2.416974,119.823224,-2.075000,120.176776,-2.075000,120.518750,-2.416974,120.860724,-2.075000,121.214276,-2.075000,121.556250,-2.416974,121.898224,-2.075000,124.101776,-2.075000,124.443750,-2.416974,124.785724,-2.075000,125.139276,-2.075000,125.481250,-2.416974,125.823224,-2.075000,126.176776,-2.075000,126.518750,-2.416974,126.860724,-2.075000,127.214276,-2.075000,
127.556250,-2.416974,127.898224,-2.075000,130.101776,-2.075000,130.443750,-2.416974,130.785724,-2.075000,131.139276,-2.075000,131.481250,-2.416974,131.823224,-2.075000,132.176776,-2.075000,132.518750,-2.416974,132.860724,-2.075000,133.214276,-2.075000,133.556250,-2.416974,133.898224,-2.075000,136.101776,-2.075000,136.443750,-2.416974,136.785724,-2.075000,137.139276,-2.075000,137.481250,-2.416974,137.823224,-2.075000,
138.176776,-2.075000,138.518750,-2.416974,138.860724,-2.075000,139.214276,-2.075000,139.556250,-2.416974,139.898224,-2.075000,142.101776,-2.075000,142.443750,-2.416974,142.785724,-2.075000,143.139276,-2.075000,143.481250,-2.416974,143.823224,-2.075000,144.176776,-2.075000,144.518750,-2.416974,144.860724,-2.075000,145.214276,-2.075000,145.556250,-2.416974,145.898224,-2.075000,148.101776,-2.075000,148.443750,-2.416974,
148.785724,-2.075000,149.139276,-2.075000,149.481250,-2.416974,149.823224,-2.075000,150.176776,-2.075000,150.518750,-2.416974,150.860724,-2.075000,151.214276,-2.075000,151.556250,-2.416974,151.898224,-2.075000,154.101776,-2.075000,154.443750,-2.416974,154.785724,-2.075000,155.139276,-2.075000,155.481250,-2.416974,155.823224,-2.075000,156.176776,-2.075000,156.518750,-2.416974,156.860724,-2.075000,157.214276,-2.075000,
157.556250,-2.416974,157.898224,-2.075000,160.101776,-2.075000,160.443750,-2.416974,160.785724,-2.075000,161.139276,-2.075000,161.481250,-2.416974,161.823224,-2.075000,162.176776,-2.075000,162.518750,-2.416974,162.860724,-2.075000,163.214276,-2.075000,163.556250,-2.416974,163.898224,-2.075000,166.101776,-2.075000,166.443750,-2.416974,166.785724,-2.075000,167.139276,-2.075000,167.481250,-2.416974,167.823224,-2.075000,
168.176776,-2.075000,168.518750,-2.416974,168.860724,-2.075000,169.214276,-2.075000,169.556250,-2.416974,169.898224,-2.075000,172.101776,-2.075000,172.443750,-2.416974,172.785724,-2.075000,173.139276,-2.075000,173.481250,-2.416974,173.823224,-2.075000,174.176776,-2.075000,174.518750,-2.416974,174.860724,-2.075000,175.214276,-2.075000,175.556250,-2.416974,175.898224,-2.075000,178.101776,-2.075000,178.443750,-2.416974,
178.785724,-2.075000,179.139276,-2.075000,179.481250,-2.416974,179.823224,-2.075000,180.176776,-2.075000,180.518750,-2.416974,180.860724,-2.075000,181.214276,-2.075000,181.556250,-2.416974,181.898224,-2.075000,184.101776,-2.075000,184.443750,-2.416974,184.785724,-2.075000,185.139276,-2.075000,185.481250,-2.416974,185.823224,-2.075000,186.176776,-2.075000,186.518750,-2.416974,186.860724,-2.075000,187.214276,-2.075000,
187.556250,-2.416974,187.898224,-2.075000,190.101776,-2.075000,190.443750,-2.416974,190.785724,-2.075000,191.139276,-2.075000,191.481250,-2.416974,191.823223,-2.075000,191.481250,-1.733026,191.139276,-2.075000,190.785724,-2.075000,190.443750,-1.733026,190.101776,-2.075000,187.898224,-2.075000,187.556250,-1.733026,187.214276,-2.075000,186.860724,-2.075000,186.518750,-1.733026,186.176776,-2.075000,185.823224,-2.075000,
185.481250,-1.733026,185.139276,-2.075000,184.785724,-2.075000,184.443750,-1.733026,184.101776,-2.075000,181.898224,-2.075000,181.556250,-1.733026,181.214276,-2.075000,180.860724,-2.075000,180.518750,-1.733026,180.176776,-2.075000,179.823224,-2.075000,179.481250,-1.733026,179.139276,-2.075000,178.785724,-2.075000,178.443750,-1.733026,178.101776,-2.075000,175.898224,-2.075000,175.556250,-1.733026,175.214276,-2.075000,
174.860724,-2.075000,174.518750,-1.733026,174.176776,-2.075000,173.823224,-2.075000,173.481250,-1.733026,173.139276,-2.075000,172.785724,-2.075000,172.443750,-1.733026,172.101776,-2.075000,169.898224,-2.075000,169.556250,-1.733026,169.214276,-2.075000,168.860724,-2.075000,168.518750,-1.733026,168.176776,-2.075000,167.823224,-2.075000,167.481250,-1.733026,167.139276,-2.075000,166.785724,-2.075000,166.443750,-1.733026,
166.101776,-2.075000,163.898224,-2.075000,163.556250,-1.733026,163.214276,-2.075000,162.860724,-2.075000,162.518750,-1.733026,162.176776,-2.075000,161.823224,-2.075000,161.481250,-1.733026,161.139276,-2.075000,160.785724,-2.075000,160.443750,-1.733026,160.101776,-2.075000,157.898224,-2.075000,157.556250,-1.733026,157.214276,-2.075000,156.860724,-2.075000,156.518750,-1.733026,156.176776,-2.075000,155.823224,-2.075000,
155.481250,-1.733026,155.139276,-2.075000,154.785724,-2.075000,154.443750,-1.733026,154.101776,-2.075000,151.898224,-2.075000,151.556250,-1.733026,151.214276,-2.075000,150.860724,-2.075000,150.518750,-1.733026,150.176776,-2.075000,149.823224,-2.075000,149.481250,-1.733026,149.139276,-2.075000,148.785724,-2.075000,148.443750,-1.733026,148.101776,-2.075000,145.898224,-2.075000,145.556250,-1.733026,145.214276,-2.075000,
144.860724,-2.075000,144.518750,-1.733026,144.176776,-2.075000,143.823224,-2.075000,143.481250,-1.733026,143.139276,-2.075000,142.785724,-2.075000,142.443750,-1.733026,142.101776,-2.075000,139.898224,-2.075000,139.556250,-1.733026,139.214276,-2.075000,138.860724,-2.075000,138.518750,-1.733026,138.176776,-2.075000,137.823224,-2.075000,137.481250,-1.733026,137.139276,-2.075000,136.785724,-2.075000,136.443750,-1.733026,
136.101776,-2.075000,133.898224,-2.075000,133.556250,-1.733026,133.214276,-2.075000,132.860724,-2.075000,132.518750,-1.733026,132.176776,-2.075000,131.823224,-2.075000,131.481250,-1.733026,131.139276,-2.075000,130.785724,-2.075000,130.443750,-1.733026,130.101776,-2.075000,127.898224,-2.075000,127.556250,-1.733026,127.214276,-2.075000,126.860724,-2.075000,126.518750,-1.733026,126.176776,-2.075000,125.823224,-2.075000,
125.481250,-1.733026,125.139276,-2.075000,124.785724,-2.075000,124.443750,-1.733026,124.101776,-2.075000,121.898224,-2.075000,121.556250,-1.733026,121.214276,-2.075000,120.860724,-2.075000,120.518750,-1.733026,120.176776,-2.075000,119.823224,-2.075000,119.481250,-1.733026,119.139276,-2.075000,118.785724,-2.075000,118.443750,-1.733026,118.101776,-2.075000,115.898224,-2.075000,115.556250,-1.733026,115.214276,-2.075000,
114.860724,-2.075000,114.518750,-1.733026,114.176776,-2.075000,113.823224,-2.075000,113.481250,-1.733026,113.139276,-2.075000,112.785724,-2.075000,112.443750,-1.733026,112.101776,-2.075000,109.898224,-2.075000,109.556250,-1.733026,109.214276,-2.075000,108.860724,-2.075000,108.518750,-1.733026,108.176776,-2.075000,107.823224,-2.075000,107.481250,-1.733026,107.139276,-2.075000,106.785724,-2.075000,106.443750,-1.733026,
106.101776,-2.075000,103.898224,-2.075000,103.556250,-1.733026,103.214276,-2.075000,102.860724,-2.075000,102.518750,-1.733026,102.176776,-2.075000,101.823224,-2.075000,101.481250,-1.733026,101.139276,-2.075000,100.785724,-2.075000,100.443750,-1.733026,100.101776,-2.075000,97.898224,-2.075000,97.556250,-1.733026,97.214276,-2.075000,96.860724,-2.075000,96.518750,-1.733026,96.176776,-2.075000,95.823224,-2.075000,
95.481250,-1.733026,95.139276,-2.075000,94.785724,-2.075000,94.443750,-1.733026,94.101776,-2.075000,91.898224,-2.075000,91.556250,-1.733026,91.214276,-2.075000,90.860724,-2.075000,90.518750,-1.733026,90.176776,-2.075000,89.823224,-2.075000,89.481250,-1.733026,89.139276,-2.075000,88.785724,-2.075000,88.443750,-1.733026,88.101776,-2.075000,85.898224,-2.075000,85.556250,-1.733026,85.214276,-2.075000,
84.860724,-2.075000,84.518750,-1.733026,84.176776,-2.075000,83.823224,-2.075000,83.481250,-1.733026,83.139276,-2.075000,82.785724,-2.075000,82.443750,-1.733026,82.101776,-2.075000,79.898224,-2.075000,79.556250,-1.733026,79.214276,-2.075000,78.860724,-2.075000,78.518750,-1.733026,78.176776,-2.075000,77.823224,-2.075000,77.481250,-1.733026,77.139276,-2.075000,76.785724,-2.075000,76.443750,-1.733026,
76.101776,-2.075000,73.898224,-2.075000,73.556250,-1.733026,73.214276,-2.075000,72.860724,-2.075000,72.518750,-1.733026,72.176776,-2.075000,71.823224,-2.075000,71.481250,-1.733026,71.139276,-2.075000,70.785724,-2.075000,70.443750,-1.733026,70.101776,-2.075000,67.898224,-2.075000,67.556250,-1.733026,67.214276,-2.075000,66.860724,-2.075000,66.518750,-1.733026,66.176776,-2.075000,65.823224,-2.075000,
65.481250,-1.733026,65.139276,-2.075000,64.785724,-2.075000,64.443750,-1.733026,64.101776,-2.075000,61.898224,-2.075000,61.556250,-1.733026,61.214276,-2.075000,60.860724,-2.075000,60.518750,-1.733026,60.176776,-2.075000,59.823224,-2.075000,59.481250,-1.733026,59.139276,-2.075000,58.785724,-2.075000,58.443750,-1.733026,58.101776,-2.075000,55.898224,-2.075000,55.556250,-1.733026,55.214276,-2.075000,
54.860724,-2.075000,54.518750,-1.733026,54.176776,-2.075000,53.823224,-2.075000,53.481250,-1.733026,53.139276,-2.075000,52.785724,-2.075000,52.443750,-1.733026,52.101776,-2.075000,49.898224,-2.075000,49.556250,-1.733026,49.214276,-2.075000,48.860724,-2.075000,48.518750,-1.733026,48.176776,-2.075000,47.823224,-2.075000,47.481250,-1.733026,47.139276,-2.075000,46.785724,-2.075000,46.443750,-1.733026,
46.101776,-2.075000,43.898224,-2.075000,43.556250,-1.733026,43.214276,-2.075000,42.860724,-2.075000,42.518750,-1.733026,42.176776,-2.075000,41.823224,-2.075000,41.481250,-1.733026,41.139276,-2.075000,40.785724,-2.075000,40.443750,-1.733026,40.101776,-2.075000,37.898224,-2.075000,37.556250,-1.733026,37.214276,-2.075000,36.860724,-2.075000,36.518750,-1.733026,36.176776,-2.075000,35.823224,-2.075000,
35.481250,-1.733026,35.139276,-2.075000,34.785724,-2.075000,34.443750,-1.733026,34.101776,-2.075000,31.898224,-2.075000,31.556250,-1.733026,31.214276,-2.075000,30.860724,-2.075000,30.518750,-1.733026,30.176776,-2.075000,29.823224,-2.075000,29.481250,-1.733026,29.139276,-2.075000,28.785724,-2.075000,28.443750,-1.733026,28.101776,-2.075000,25.898224,-2.075000,25.556250,-1.733026,25.214276,-2.075000,
24.860724,-2.075000,24.518750,-1.733026,24.176776,-2.075000,23.823224,-2.075000,23.481250,-1.733026,23.139276,-2.075000,22.785724,-2.075000,22.443750,-1.733026,22.101776,-2.075000,19.898224,-2.075000,19.556250,-1.733026,19.214276,-2.075000,18.860724,-2.075000,18.518750,-1.733026,18.176776,-2.075000,17.823224,-2.075000,17.481250,-1.733026,17.139276,-2.075000,16.785724,-2.075000,16.443750,-1.733026,
16.101776,-2.075000,13.898224,-2.075000,13.556250,-1.733026,13.214276,-2.075000,12.860724,-2.075000,12.518750,-1.733026,12.176776,-2.075000,11.823224,-2.075000,11.481250,-1.733026,11.139276,-2.075000,10.785724,-2.075000,10.443750,-1.733026,10.101776,-2.075000,7.898224,-2.075000,7.556250,-1.733026,7.214276,-2.075000,6.860724,-2.075000,6.518750,-1.733026,6.176776,-2.075000,5.823224,-2.075000,
5.481250,-1.733026,5.139276,-2.075000,4.785724,-2.075000,4.443750,-1.733026,4.101776,-2.075000,1.898224,-2.075000,1.556250,-1.733026,1.214276,-2.075000,0.860724,-2.075000,0.518750,-1.733026,0.176776,-2.075000,-0.125000,-2.075000,-0.125000,-1.339276,0.125000,-1.339276,0.125000,-1.773224,0.341974,-1.556250,0.695526,-1.556250,1.037500,-1.898224,1.379474,-1.556250,1.037500,-1.214276,
0.695526,-1.556250,0.341974,-1.556250,0.125000,-1.339276,-0.125000,-1.339276,-0.125000,-1.037500,0.176776,-1.037500,0.518750,-1.379474,0.860724,-1.037500,0.518750,-0.695526,0.176776,-1.037500,-0.125000,-1.037500,-0.125000,-0.301776,0.125000,-0.301776,0.125000,-0.735724,0.341974,-0.518750,0.125000,-0.301776,-0.125000,-0.301776,-0.125000,0.000000,-0.124072,0.006402,-0.124664,0.009154,
-0.123047,0.013467,-0.119852,0.035502,-0.107776,0.054205,-0.099961,0.075052,-0.089058,0.083194,-0.081678,0.094624,-0.061413,0.103838,-0.043572,0.117161,-0.029997,0.118122,-0.017613,0.123753,0.004419,0.120559,0.026629,0.122131,0.038569,0.115607,0.052035,0.113655,0.068852,0.099062,0.088388,0.088388,2.126776,-1.950000,3.873224,-1.950000,4.266974,-1.556250,4.620526,-1.556250,
4.962500,-1.898224,5.304474,-1.556250,5.658026,-1.556250,6.000000,-1.898224,6.341974,-1.556250,6.695526,-1.556250,7.037500,-1.898224,7.379474,-1.556250,7.037500,-1.214276,6.695526,-1.556250,6.341974,-1.556250,6.000000,-1.214276,5.658026,-1.556250,5.304474,-1.556250,4.962500,-1.214276,4.620526,-1.556250,4.266974,-1.556250,4.785724,-1.037500,5.139276,-1.037500,5.481250,-1.379474,
5.823224,-1.037500,6.176776,-1.037500,6.518750,-1.379474,6.860724,-1.037500,6.518750,-0.695526,6.176776,-1.037500,5.823224,-1.037500,5.481250,-0.695526,5.139276,-1.037500,4.785724,-1.037500,5.304474,-0.518750,5.658026,-0.518750,6.000000,-0.860724,6.341974,-0.518750,6.000000,-0.176776,5.658026,-0.518750,5.304474,-0.518750,5.911612,0.088388,5.940355,0.109852,5.949187,0.111753,
5.956428,0.117161,5.983062,0.119047,6.009154,0.124664,6.017614,0.121493,6.026629,0.122131,6.050057,0.109331,6.075052,0.099961,6.080459,0.092720,6.088388,0.088388,8.126776,-1.950000,9.873224,-1.950000,10.266974,-1.556250,10.620526,-1.556250,10.962500,-1.898224,11.304474,-1.556250,11.658026,-1.556250,12.000000,-1.898224,12.341974,-1.556250,12.695526,-1.556250,13.037500,-1.898224,
13.379474,-1.556250,13.037500,-1.214276,12.695526,-1.556250,12.341974,-1.556250,12.000000,-1.214276,11.658026,-1.556250,11.304474,-1.556250,10.962500,-1.214276,10.620526,-1.556250,10.266974,-1.556250,10.785724,-1.037500,11.139276,-1.037500,11.481250,-1.379474,11.823224,-1.037500,12.176776,-1.037500,12.518750,-1.379474,12.860724,-1.037500,12.518750,-0.695526,12.176776,-1.037500,11.823224,-1.037500,
11.481250,-0.695526,11.139276,-1.037500,10.785724,-1.037500,11.304474,-0.518750,11.658026,-0.518750,12.000000,-0.860724,12.341974,-0.518750,12.000000,-0.176776,11.658026,-0.518750,11.304474,-0.518750,11.911612,0.088388,11.940355,0.109852,11.949187,0.111753,11.956428,0.117161,11.983062,0.119047,12.009154,0.124664,12.017614,0.121493,12.026629,0.122131,12.050057,0.109331,12.075052,0.099961,
12.080459,0.092720,12.088388,0.088388,14.126776,-1.950000,15.873224,-1.950000,16.266974,-1.556250,16.620526,-1.556250,16.962500,-1.898224,17.304474,-1.556250,17.658026,-1.556250,18.000000,-1.898224,18.341974,-1.556250,18.695526,-1.556250,19.037500,-1.898224,19.379474,-1.556250,19.037500,-1.214276,18.695526,-1.556250,18.341974,-1.556250,18.000000,-1.214276,17.658026,-1.556250,17.304474,-1.556250,
16.962500,-1.214276,16.620526,-1.556250,16.266974,-1.556250,16.785724,-1.037500,17.139276,-1.037500,17.481250,-1.379474,17.823224,-1.037500,18.176776,-1.037500,18.518750,-1.379474,18.860724,-1.037500,18.518750,-0.695526,18.176776,-1.037500,17.823224,-1.037500,17.481250,-0.695526,17.139276,-1.037500,16.785724,-1.037500,17.304474,-0.518750,17.658026,-0.518750,18.000000,-0.860724,18.341974,-0.518750,
18.000000,-0.176776,17.658026,-0.518750,17.304474,-0.518750,17.911612,0.088388,17.940355,0.109852,17.949187,0.111753,17.956428,0.117161,17.983062,0.119047,18.009154,0.124664,18.017614,0.121493,18.026629,0.122131,18.050057,0.109331,18.075052,0.099961,18.080459,0.092720,18.088388,0.088388,20.126776,-1.950000,21.873224,-1.950000,22.266974,-1.556250,22.620526,-1.556250,22.962500,-1.898224,
23.304474,-1.556250,23.658026,-1.556250,24.000000,-1.898224,24.341974,-1.556250,24.695526,-1.556250,25.037500,-1.898224,25.379474,-1.556250,25.037500,-1.214276,24.695526,-1.556250,24.341974,-1.556250,24.000000,-1.214276,23.658026,-1.556250,23.304474,-1.556250,22.962500,-1.214276,22.620526,-1.556250,22.266974,-1.556250,22.785724,-1.037500,23.139276,-1.037500,23.481250,-1.379474,23.823224,-1.037500,
24.176776,-1.037500,24.518750,-1.379474,24.860724,-1.037500,24.518750,-0.695526,24.176776,-1.037500,23.823224,-1.037500,23.481250,-0.695526,23.139276,-1.037500,22.785724,-1.037500,23.304474,-0.518750,23.658026,-0.518750,24.000000,-0.860724,24.341974,-0.518750,24.000000,-0.176776,23.658026,-0.518750,23.304474,-0.518750,23.911612,0.088388,23.940355,0.109852,23.949187,0.111753,23.956428,0.117161,
23.983062,0.119047,24.009154,0.124664,24.017614,0.121493,24.026629,0.122131,24.050057,0.109331,24.075052,0.099961,24.080459,0.092720,24.088388,0.088388,26.126776,-1.950000,27.873224,-1.950000,28.266974,-1.556250,28.620526,-1.556250,28.962500,-1.898224,29.304474,-1.556250,29.658026,-1.556250,30.000000,-1.898224,30.341974,-1.556250,30.695526,-1.556250,31.037500,-1.898224,31.379474,-1.556250,
31.037500,-1.214276,30.695526,-1.556250,30.341974,-1.556250,30.000000,-1.214276,29.658026,-1.556250,29.304474,-1.556250,28.962500,-1.214276,28.620526,-1.556250,28.266974,-1.556250,28.785724,-1.037500,29.139276,-1.037500,29.481250,-1.379474,29.823224,-1.037500,30.176776,-1.037500,30.518750,-1.379474,30.860724,-1.037500,30.518750,-0.695526,30.176776,-1.037500,29.823224,-1.037500,29.481250,-0.695526,
29.139276,-1.037500,28.785724,-1.037500,29.304474,-0.518750,29.658026,-0.518750,30.000000,-0.860724,30.341974,-0.518750,30.000000,-0.176776,29.658026,-0.518750,29.304474,-0.518750,29.911612,0.088388,29.940355,0.109852,29.949187,0.111753,29.956428,0.117161,29.983062,0.119047,30.009154,0.124664,30.017614,0.121493,30.026629,0.122131,30.050057,0.109331,30.075052,0.099961,30.080459,0.092720,
30.088388,0.088388,32.126776,-1.950000,33.873224,-1.950000,34.266974,-1.556250,34.620526,-1.556250,34.962500,-1.898224,35.304474,-1.556250,35.658026,-1.556250,36.000000,-1.898224,36.341974,-1.556250,36.695526,-1.556250,37.037500,-1.898224,37.379474,-1.556250,37.037500,-1.214276,36.695526,-1.556250,36.341974,-1.556250,36.000000,-1.214276,35.658026,-1.556250,35.304474,-1.556250,34.962500,-1.214276,
34.620526,-1.556250,34.266974,-1.556250,34.785724,-1.037500,35.139276,-1.037500,35.481250,-1.379474,35.823224,-1.037500,36.176776,-1.037500,36.518750,-1.379474,36.860724,-1.037500,36.518750,-0.695526,36.176776,-1.037500,35.823224,-1.037500,35.481250,-0.695526,35.139276,-1.037500,34.785724,-1.037500,35.304474,-0.518750,35.658026,-0.518750,36.000000,-0.860724,36.341974,-0.518750,36.000000,-0.176776,
35.658026,-0.518750,35.304474,-0.518750,35.911612,0.088388,35.940355,0.109852,35.949187,0.111753,35.956428,0.117161,35.983062,0.119047,36.009154,0.124664,36.017614,0.121493,36.026629,0.122131,36.050057,0.109331,36.075052,0.099961,36.080459,0.092720,36.088388,0.088388,38.126776,-1.950000,39.873224,-1.950000,40.266974,-1.556250,40.620526,-1.556250,40.962500,-1.898224,41.304474,-1.556250,
41.658026,-1.556250,42.000000,-1.898224,42.341974,-1.556250,42.695526,-1.556250,43.037500,-1.898224,43.379474,-1.556250,43.037500,-1.214276,42.695526,-1.556250,42.341974,-1.556250,42.000000,-1.214276,41.658026,-1.556250,41.304474,-1.556250,40.962500,-1.214276,40.620526,-1.556250,40.266974,-1.556250,40.785724,-1.037500,41.139276,-1.037500,41.481250,-1.379474,41.823224,-1.037500,42.176776,-1.037500,
42.518750,-1.379474,42.860724,-1.037500,42.518750,-0.695526,42.176776,-1.037500,41.823224,-1.037500,41.481250,-0.695526,41.139276,-1.037500,40.785724,-1.037500,41.304474,-0.518750,41.658026,-0.518750,42.000000,-0.860724,42.341974,-0.518750,42.000000,-0.176776,41.658026,-0.518750,41.304474,-0.518750,41.911612,0.088388,41.940355,0.109852,41.949187,0.111753,41.956428,0.117161,41.983062,0.119047,
42.009154,0.124664,42.017614,0.121493,42.026629,0.122131,42.050057,0.109331,42.075052,0.099961,42.080459,0.092720,42.088388,0.088388,44.126776,-1.950000,45.873224,-1.950000,46.266974,-1.556250,46.620526,-1.556250,46.962500,-1.898224,47.304474,-1.556250,47.658026,-1.556250,48.000000,-1.898224,48.341974,-1.556250,48.695526,-1.556250,49.037500,-1.898224,49.379474,-1.556250,49.037500,-1.214276,
48.695526,-1.556250,48.341974,-1.556250,48.000000,-1.214276,47.658026,-1.556250,47.304474,-1.556250,46.962500,-1.214276,46.620526,-1.556250,46.266974,-1.556250,46.785724,-1.037500,47.139276,-1.037500,47.481250,-1.379474,47.823224,-1.037500,48.176776,-1.037500,48.518750,-1.379474,48.860724,-1.037500,48.518750,-0.695526,48.176776,-1.037500,47.823224,-1.037500,47.481250,-0.695526,47.139276,-1.037500,
46.785724,-1.037500,47.304474,-0.518750,47.658026,-0.518750,48.000000,-0.860724,48.341974,-0.518750,48.000000,-0.176776,47.658026,-0.518750,47.304474,-0.518750,47.911612,0.088388,47.940355,0.109852,47.949187,0.111753,47.956428,0.117161,47.983062,0.119047,48.009154,0.124664,48.017614,0.121493,48.026629,0.122131,48.050057,0.109331,48.075052,0.099961,48.080459,0.092720,48.088388,0.088388,
50.126776,-1.950000,51.873224,-1.950000,52.266974,-1.556250,52.620526,-1.556250,52.962500,-1.898224,53.304474,-1.556250,53.658026,-1.556250,54.000000,-1.898224,54.341974,-1.556250,54.695526,-1.556250,55.037500,-1.898224,55.379474,-1.556250,55.037500,-1.214276,54.695526,-1.556250,54.341974,-1.556250,54.000000,-1.214276,53.658026,-1.556250,53.304474,-1.556250,52.962500,-1.214276,52.620526,-1.556250,
52.266974,-1.556250,52.785724,-1.037500,53.139276,-1.037500,53.481250,-1.379474,53.823224,-1.037500,54.176776,-1.037500,54.518750,-1.379474,54.860724,-1.037500,54.518750,-0.695526,54.176776,-1.037500,53.823224,-1.037500,53.481250,-0.695526,53.139276,-1.037500,52.785724,-1.037500,53.304474,-0.518750,53.658026,-0.518750,54.000000,-0.860724,54.341974,-0.518750,54.000000,-0.176776,53.658026,-0.518750,
53.304474,-0.518750,53.911612,0.088388,53.940355,0.109852,53.949187,0.111753,53.956428,0.117161,53.983062,0.119047,54.009154,0.124664,54.017614,0.121493,54.026629,0.122131,54.050057,0.109331,54.075052,0.099961,54.080459,0.092720,54.088388,0.088388,56.126776,-1.950000,57.873224,-1.950000,58.266974,-1.556250,58.620526,-1.556250,58.962500,-1.898224,59.304474,-1.556250,59.658026,-1.556250,
60.000000,-1.898224,60.341974,-1.556250,60.695526,-1.556250,61.037500,-1.898224,61.379474,-1.556250,61.037500,-1.214276,60.695526,-1.556250,60.341974,-1.556250,60.000000,-1.214276,59.658026,-1.556250,59.304474,-1.556250,58.962500,-1.214276,58.620526,-1.556250,58.266974,-1.556250,58.785724,-1.037500,59.139276,-1.037500,59.481250,-1.379474,59.823224,-1.037500,60.176776,-1.037500,60.518750,-1.379474,
60.860724,-1.037500,60.518750,-0.695526,60.176776,-1.037500,59.823224,-1.037500,59.481250,-0.695526,59.139276,-1.037500,58.785724,-1.037500,59.304474,-0.518750,59.658026,-0.518750,60.000000,-0.860724,60.341974,-0.518750,60.000000,-0.176776,59.658026,-0.518750,59.304474,-0.518750,59.911612,0.088388,59.940355,0.109852,59.949187,0.111753,59.956428,0.117161,59.983062,0.119047,60.009154,0.124664,
60.017614,0.121493,60.026629,0.122131,60.050057,0.109331,60.075052,0.099961,60.080459,0.092720,60.088388,0.088388,62.126776,-1.950000,63.873224,-1.950000,64.266974,-1.556250,64.620526,-1.556250,64.962500,-1.898224,65.304474,-1.556250,65.658026,-1.556250,66.000000,-1.898224,66.341974,-1.556250,66.695526,-1.556250,67.037500,-1.898224,67.379474,-1.556250,67.037500,-1.214276,66.695526,-1.556250,
66.341974,-1.556250,66.000000,-1.214276,65.658026,-1.556250,65.304474,-1.556250,64.962500,-1.214276,64.620526,-1.556250,64.266974,-1.556250,64.785724,-1.037500,65.139276,-1.037500,65.481250,-1.379474,65.823224,-1.037500,66.176776,-1.037500,66.518750,-1.379474,66.860724,-1.037500,66.518750,-0.695526,66.176776,-1.037500,65.823224,-1.037500,65.481250,-0.695526,65.139276,-1.037500,64.785724,-1.037500,
65.304474,-0.518750,65.658026,-0.518750,66.000000,-0.860724,66.341974,-0.518750,66.000000,-0.176776,65.658026,-0.518750,65.304474,-0.518750,65.911612,0.088388,65.940355,0.109852,65.949187,0.111753,65.956428,0.117161,65.983062,0.119047,66.009154,0.124664,66.017614,0.121493,66.026629,0.122131,66.050057,0.109331,66.075052,0.099961,66.080459,0.092720,66.088388,0.088388,68.126776,-1.950000,
69.873224,-1.950000,70.266974,-1.556250,70.620526,-1.556250,70.962500,-1.898224,71.304474,-1.556250,71.658026,-1.556250,72.000000,-1.898224,72.341974,-1.556250,72.695526,-1.556250,73.037500,-1.898224,73.379474,-1.556250,73.037500,-1.214276,72.695526,-1.556250,72.341974,-1.556250,72.000000,-1.214276,71.658026,-1.556250,71.304474,-1.556250,70.962500,-1.214276,70.620526,-1.556250,70.266974,-1.556250,
70.785724,-1.037500,71.139276,-1.037500,71.481250,-1.379474,71.823224,-1.037500,72.176776,-1.037500,72.518750,-1.379474,72.860724,-1.037500,72.518750,-0.695526,72.176776,-1.037500,71.823224,-1.037500,71.481250,-0.695526,71.139276,-1.037500,70.785724,-1.037500,71.304474,-0.518750,71.658026,-0.518750,72.000000,-0.860724,72.341974,-0.518750,72.000000,-0.176776,71.658026,-0.518750,71.304474,-0.518750,
71.911612,0.088388,71.940355,0.109852,71.949187,0.111753,71.956428,0.117161,71.983062,0.119047,72.009154,0.124664,72.017614,0.121493,72.026629,0.122131,72.050057,0.109331,72.075052,0.099961,72.080459,0.092720,72.088388,0.088388,74.126776,-1.950000,75.873224,-1.950000,76.266974,-1.556250,76.620526,-1.556250,76.962500,-1.898224,77.304474,-1.556250,77.658026,-1.556250,78.000000,-1.898224,
78.341974,-1.556250,78.695526,-1.556250,79.037500,-1.898224,79.379474,-1.556250,79.037500,-1.214276,78.695526,-1.556250,78.341974,-1.556250,78.000000,-1.214276,77.658026,-1.556250,77.304474,-1.556250,76.962500,-1.214276,76.620526,-1.556250,76.266974,-1.556250,76.785724,-1.037500,77.139276,-1.037500,77.481250,-1.379474,77.823224,-1.037500,78.176776,-1.037500,78.518750,-1.379474,78.860724,-1.037500,
78.518750,-0.695526,78.176776,-1.037500,77.823224,-1.037500,77.481250,-0.695526,77.139276,-1.037500,76.785724,-1.037500,77.304474,-0.518750,77.658026,-0.518750,78.000000,-0.860724,78.341974,-0.518750,78.000000,-0.176776,77.658026,-0.518750,77.304474,-0.518750,77.911612,0.088388,77.940355,0.109852,77.949187,0.111753,77.956428,0.117161,77.983062,0.119047,78.009154,0.124664,78.017614,0.121493,
78.026629,0.122131,78.050057,0.109331,78.075052,0.099961,78.080459,0.092720,78.088388,0.088388,80.126776,-1.950000,81.873224,-1.950000,82.266974,-1.556250,82.620526,-1.556250,82.962500,-1.898224,83.304474,-1.556250,83.658026,-1.556250,84.000000,-1.898224,84.341974,-1.556250,84.695526,-1.556250,85.037500,-1.898224,85.379474,-1.556250,85.037500,-1.214276,84.695526,-1.556250,84.341974,-1.556250,
84.000000,-1.214276,83.658026,-1.556250,83.304474,-1.556250,82.962500,-1.214276,82.620526,-1.556250,82.266974,-1.556250,82.785724,-1.037500,83.139276,-1.037500,83.481250,-1.379474,83.823224,-1.037500,84.176776,-1.037500,84.518750,-1.379474,84.860724,-1.037500,84.518750,-0.695526,84.176776,-1.037500,83.823224,-1.037500,83.481250,-0.695526,83.139276,-1.037500,82.785724,-1.037500,83.304474,-0.518750,
83.658026,-0.518750,84.000000,-0.860724,84.341974,-0.518750,84.000000,-0.176776,83.658026,-0.518750,83.304474,-0.518750,83.911612,0.088388,83.940355,0.109852,83.949187,0.111753,83.956428,0.117161,83.983062,0.119047,84.009154,0.124664,84.017614,0.121493,84.026629,0.122131,84.050057,0.109331,84.075052,0.099961,84.080459,0.092720,84.088388,0.088388,86.126776,-1.950000,87.873224,-1.950000,
88.266974,-1.556250,88.620526,-1.556250,88.962500,-1.898224,89.304474,-1.556250,89.658026,-1.556250,90.000000,-1.898224,90.341974,-1.556250,90.695526,-1.556250,91.037500,-1.898224,91.379474,-1.556250,91.037500,-1.214276,90.695526,-1.556250,90.341974,-1.556250,90.000000,-1.214276,89.658026,-1.556250,89.304474,-1.556250,88.962500,-1.214276,88.620526,-1.556250,88.266974,-1.556250,88.785724,-1.037500,
89.139276,-1.037500,89.481250,-1.379474,89.823224,-1.037500,90.176776,-1.037500,90.518750,-1.379474,90.860724,-1.037500,90.518750,-0.695526,90.176776,-1.037500,89.823224,-1.037500,89.481250,-0.695526,89.139276,-1.037500,88.785724,-1.037500,89.304474,-0.518750,89.658026,-0.518750,90.000000,-0.860724,90.341974,-0.518750,90.000000,-0.176776,89.658026,-0.518750,89.304474,-0.518750,89.911612,0.088388,
89.940355,0.109852,89.949187,0.111753,89.956428,0.117161,89.983062,0.119047,90.009154,0.124664,90.017614,0.121493,90.026629,0.122131,90.050057,0.109331,90.075052,0.099961,90.080459,0.092720,90.088388,0.088388,92.126776,-1.950000,93.873224,-1.950000,94.266974,-1.556250,94.620526,-1.556250,94.962500,-1.898224,95.304474,-1.556250,95.658026,-1.556250,96.000000,-1.898224,96.341974,-1.556250,
96.695526,-1.556250,97.037500,-1.898224,97.379474,-1.556250,97.037500,-1.214276,96.695526,-1.556250,96.341974,-1.556250,96.000000,-1.214276,95.658026,-1.556250,95.304474,-1.556250,94.962500,-1.214276,94.620526,-1.556250,94.266974,-1.556250,94.785724,-1.037500,95.139276,-1.037500,95.481250,-1.379474,95.823224,-1.037500,96.176776,-1.037500,96.518750,-1.379474,96.860724,-1.037500,96.518750,-0.695526,
96.176776,-1.037500,95.823224,-1.037500,95.481250,-0.695526,95.139276,-1.037500,94.785724,-1.037500,95.304474,-0.518750,95.658026,-0.518750,96.000000,-0.860724,96.341974,-0.518750,96.000000,-0.176776,95.658026,-0.518750,95.304474,-0.518750,95.911612,0.088388,95.940355,0.109852,95.949187,0.111753,95.956428,0.117161,95.983062,0.119047,96.009154,0.124664,96.017614,0.121493,96.026629,0.122131,
96.050057,0.109331,96.075052,0.099961,96.080459,0.092720,96.088388,0.088388,98.126776,-1.950000,99.873224,-1.950000,100.266974,-1.556250,100.620526,-1.556250,100.962500,-1.898224,101.304474,-1.556250,101.658026,-1.556250,102.000000,-1.898224,102.341974,-1.556250,102.695526,-1.556250,103.037500,-1.898224,103.379474,-1.556250,103.037500,-1.214276,102.695526,-1.556250,102.341974,-1.556250,102.000000,-1.214276,
101.658026,-1.556250,101.304474,-1.556250,100.962500,-1.214276,100.620526,-1.556250,100.266974,-1.556250,100.785724,-1.037500,101.139276,-1.037500,101.481250,-1.379474,101.823224,-1.037500,102.176776,-1.037500,102.518750,-1.379474,102.860724,-1.037500,102.518750,-0.695526,102.176776,-1.037500,101.823224,-1.037500,101.481250,-0.695526,101.139276,-1.037500,100.785724,-1.037500,101.304474,-0.518750,101.658026,-0.518750,
102.000000,-0.860724,102.341974,-0.518750,102.000000,-0.176776,101.658026,-0.518750,101.304474,-0.518750,101.911612,0.088388,101.940355,0.109852,101.949187,0.111753,101.956428,0.117161,101.983062,0.119047,102.009154,0.124664,102.017614,0.121493,102.026629,0.122131,102.050057,0.109331,102.075052,0.099961,102.080459,0.092720,102.088388,0.088388,104.126776,-1.950000,105.873224,-1.950000,106.266974,-1.556250,
106.620526,-1.556250,106.962500,-1.898224,107.304474,-1.556250,107.658026,-1.556250,108.000000,-1.898224,108.341974,-1.556250,108.695526,-1.556250,109.037500,-1.898224,109.379474,-1.556250,109.037500,-1.214276,108.695526,-1.556250,108.341974,-1.556250,108.000000,-1.214276,107.658026,-1.556250,107.304474,-1.556250,106.962500,-1.214276,106.620526,-1.556250,106.266974,-1.556250,106.785724,-1.037500,107.139276,-1.037500,
107.481250,-1.379474,107.823224,-1.037500,108.176776,-1.037500,108.518750,-1.379474,108.860724,-1.037500,108.518750,-0.695526,108.176776,-1.037500,107.823224,-1.037500,107.481250,-0.695526,107.139276,-1.037500,106.785724,-1.037500,107.304474,-0.518750,107.658026,-0.518750,108.000000,-0.860724,108.341974,-0.518750,108.000000,-0.176776,107.658026,-0.518750,107.304474,-0.518750,107.911612,0.088388,107.940355,0.109852,
107.949187,0.111753,107.956428,0.117161,107.983062,0.119047,108.009154,0.124664,108.017614,0.121493,108.026629,0.122131,108.050057,0.109331,108.075052,0.099961,108.080459,0.092720,108.088388,0.088388,110.126776,-1.950000,111.873224,-1.950000,112.266974,-1.556250,112.620526,-1.556250,112.962500,-1.898224,113.304474,-1.556250,113.658026,-1.556250,114.000000,-1.898224,114.341974,-1.556250,114.695526,-1.556250,
115.037500,-1.898224,115.379474,-1.556250,115.037500,-1.214276,114.695526,-1.556250,114.341974,-1.556250,114.000000,-1.214276,113.658026,-1.556250,113.304474,-1.556250,112.962500,-1.214276,112.620526,-1.556250,112.266974,-1.556250,112.785724,-1.037500,113.139276,-1.037500,113.481250,-1.379474,113.823224,-1.037500,114.176776,-1.037500,114.518750,-1.379474,114.860724,-1.037500,114.518750,-0.695526,114.176776,-1.037500,
113.823224,-1.037500,113.481250,-0.695526,113.139276,-1.037500,112.785724,-1.037500,113.304474,-0.518750,113.658026,-0.518750,114.000000,-0.860724,114.341974,-0.518750,114.000000,-0.176776,113.658026,-0.518750,113.304474,-0.518750,113.911612,0.088388,113.940355,0.109852,113.949187,0.111753,113.956428,0.117161,113.983062,0.119047,114.009154,0.124664,114.017614,0.121493,114.026629,0.122131,114.050057,0.109331,
114.075052,0.099961,114.080459,0.092720,114.088388,0.088388,116.126776,-1.950000,117.873224,-1.950000,118.266974,-1.556250,118.620526,-1.556250,118.962500,-1.898224,119.304474,-1.556250,119.658026,-1.556250,120.000000,-1.898224,120.341974,-1.556250,120.695526,-1.556250,121.037500,-1.898224,121.379474,-1.556250,121.037500,-1.214276,120.695526,-1.556250,120.341974,-1.556250,120.000000,-1.214276,119.658026,-1.556250,
119.304474,-1.556250,118.962500,-1.214276,118.620526,-1.556250,118.266974,-1.556250,118.785724,-1.037500,119.139276,-1.037500,119.481250,-1.379474,119.823224,-1.037500,120.176776,-1.037500,120.518750,-1.379474,120.860724,-1.037500,120.518750,-0.695526,120.176776,-1.037500,119.823224,-1.037500,119.481250,-0.695526,119.139276,-1.037500,118.785724,-1.037500,119.304474,-0.518750,119.658026,-0.518750,120.000000,-0.860724,
120.341974,-0.518750,120.000000,-0.176776,119.658026,-0.518750,119.304474,-0.518750,119.911612,0.088388,119.940355,0.109852,119.949187,0.111753,119.956428,0.117161,119.983062,0.119047,120.009154,0.124664,120.017614,0.121493,120.026629,0.122131,120.050057,0.109331,120.075052,0.099961,120.080459,0.092720,120.088388,0.088388,122.126776,-1.950000,123.873224,-1.950000,124.266974,-1.556250,124.620526,-1.556250,
124.962500,-1.898224,125.304474,-1.556250,125.658026,-1.556250,126.000000,-1.898224,126.341974,-1.556250,126.695526,-1.556250,127.037500,-1.898224,127.379474,-1.556250,127.037500,-1.214276,126.695526,-1.556250,126.341974,-1.556250,126.000000,-1.214276,125.658026,-1.556250,125.304474,-1.556250,124.962500,-1.214276,124.620526,-1.556250,124.266974,-1.556250,124.785724,-1.037500,125.139276,-1.037500,125.481250,-1.379474,
125.823224,-1.037500,126.176776,-1.037500,126.518750,-1.379474,126.860724,-1.037500,126.518750,-0.695526,126.176776,-1.037500,125.823224,-1.037500,125.481250,-0.695526,125.139276,-1.037500,124.785724,-1.037500,125.304474,-0.518750,125.658026,-0.518750,126.000000,-0.860724,126.341974,-0.518750,126.000000,-0.176776,125.658026,-0.518750,125.304474,-0.518750,125.911612,0.088388,125.940355,0.109852,125.949187,0.111753,
125.956428,0.117161,125.983062,0.119047,126.009154,0.124664,126.017614,0.121493,126.026629,0.122131,126.050057,0.109331,126.075052,0.099961,126.080459,0.092720,126.088388,0.088388,128.126776,-1.950000,129.873224,-1.950000,130.266974,-1.556250,130.620526,-1.556250,130.962500,-1.898224,131.304474,-1.556250,131.658026,-1.556250,132.000000,-1.898224,132.341974,-1.556250,132.695526,-1.556250,133.037500,-1.898224,
133.379474,-1.556250,133.037500,-1.214276,132.695526,-1.556250,132.341974,-1.556250,132.000000,-1.214276,131.658026,-1.556250,131.304474,-1.556250,130.962500,-1.214276,130.620526,-1.556250,130.266974,-1.556250,130.785724,-1.037500,131.139276,-1.037500,131.481250,-1.379474,131.823224,-1.037500,132.176776,-1.037500,132.518750,-1.379474,132.860724,-1.037500,132.518750,-0.695526,132.176776,-1.037500,131.823224,-1.037500,
131.481250,-0.695526,131.139276,-1.037500,130.785724,-1.037500,131.304474,-0.518750,131.658026,-0.518750,132.000000,-0.860724,132.341974,-0.518750,132.000000,-0.176776,131.658026,-0.518750,131.304474,-0.518750,131.911612,0.088388,131.940355,0.109852,131.949187,0.111753,131.956428,0.117161,131.983062,0.119047,132.009154,0.124664,132.017614,0.121493,132.026629,0.122131,132.050057,0.109331,132.075052,0.099961,
132.080459,0.092720,132.088388,0.088388,134.126776,-1.950000,135.873224,-1.950000,136.266974,-1.556250,136.620526,-1.556250,136.962500,-1.898224,137.304474,-1.556250,137.658026,-1.556250,138.000000,-1.898224,138.341974,-1.556250,138.695526,-1.556250,139.037500,-1.898224,139.379474,-1.556250,139.037500,-1.214276,138.695526,-1.556250,138.341974,-1.556250,138.000000,-1.214276,137.658026,-1.556250,137.304474,-1.556250,
136.962500,-1.214276,136.620526,-1.556250,136.266974,-1.556250,136.785724,-1.037500,137.139276,-1.037500,137.481250,-1.379474,137.823224,-1.037500,138.176776,-1.037500,138.518750,-1.379474,138.860724,-1.037500,138.518750,-0.695526,138.176776,-1.037500,137.823224,-1.037500,137.481250,-0.695526,137.139276,-1.037500,136.785724,-1.037500,137.304474,-0.518750,137.658026,-0.518750,138.000000,-0.860724,138.341974,-0.518750,
138.000000,-0.176776,137.658026,-0.518750,137.304474,-0.518750,137.911612,0.088388,137.940355,0.109852,137.949187,0.111753,137.956428,0.117161,137.983062,0.119047,138.009154,0.124664,138.017614,0.121493,138.026629,0.122131,138.050057,0.109331,138.075052,0.099961,138.080459,0.092720,138.088388,0.088388,140.126776,-1.950000,141.873224,-1.950000,142.266974,-1.556250,142.620526,-1.556250,142.962500,-1.898224,
143.304474,-1.556250,143.658026,-1.556250,144.000000,-1.898224,144.341974,-1.556250,144.695526,-1.556250,145.037500,-1.898224,145.379474,-1.556250,145.037500,-1.214276,144.695526,-1.556250,144.341974,-1.556250,144.000000,-1.214276,143.658026,-1.556250,143.304474,-1.556250,142.962500,-1.214276,142.620526,-1.556250,142.266974,-1.556250,142.785724,-1.037500,143.139276,-1.037500,143.481250,-1.379474,143.823224,-1.037500,
144.176776,-1.037500,144.518750,-1.379474,144.860724,-1.037500,144.518750,-0.695526,144.176776,-1.037500,143.823224,-1.037500,143.481250,-0.695526,143.139276,-1.037500,142.785724,-1.037500,143.304474,-0.518750,143.658026,-0.518750,144.000000,-0.860724,144.341974,-0.518750,144.000000,-0.176776,143.658026,-0.518750,143.304474,-0.518750,143.911612,0.088388,143.940355,0.109852,143.949187,0.111753,143.956428,0.117161,
143.983062,0.119047,144.009154,0.124664,144.017614,0.121493,144.026629,0.122131,144.050057,0.109331,144.075052,0.099961,144.080459,0.092720,144.088388,0.088388,146.126776,-1.950000,147.873224,-1.950000,148.266974,-1.556250,148.620526,-1.556250,148.962500,-1.898224,149.304474,-1.556250,149.658026,-1.556250,150.000000,-1.898224,150.341974,-1.556250,150.695526,-1.556250,151.037500,-1.898224,151.379474,-1.556250,
151.037500,-1.214276,150.695526,-1.556250,150.341974,-1.556250,150.000000,-1.214276,149.658026,-1.556250,149.304474,-1.556250,148.962500,-1.214276,148.620526,-1.556250,148.266974,-1.556250,148.785724,-1.037500,149.139276,-1.037500,149.481250,-1.379474,149.823224,-1.037500,150.176776,-1.037500,150.518750,-1.379474,150.860724,-1.037500,150.518750,-0.695526,150.176776,-1.037500,149.823224,-1.037500,149.481250,-0.695526,
149.139276,-1.037500,148.785724,-1.037500,149.304474,-0.518750,149.658026,-0.518750,150.000000,-0.860724,150.341974,-0.518750,150.000000,-0.176776,149.658026,-0.518750,149.304474,-0.518750,149.911612,0.088388,149.940355,0.109852,149.949187,0.111753,149.956428,0.117161,149.983062,0.119047,150.009154,0.124664,150.017614,0.121493,150.026629,0.122131,150.050057,0.109331,150.075052,0.099961,150.080459,0.092720,
150.088388,0.088388,152.126776,-1.950000,153.873224,-1.950000,154.266974,-1.556250,154.620526,-1.556250,154.962500,-1.898224,155.304474,-1.556250,155.658026,-1.556250,156.000000,-1.898224,156.341974,-1.556250,156.695526,-1.556250,157.037500,-1.898224,157.379474,-1.556250,157.037500,-1.214276,156.695526,-1.556250,156.341974,-1.556250,156.000000,-1.214276,155.658026,-1.556250,155.304474,-1.556250,154.962500,-1.214276,
154.620526,-1.556250,154.266974,-1.556250,154.785724,-1.037500,155.139276,-1.037500,155.481250,-1.379474,155.823224,-1.037500,156.176776,-1.037500,156.518750,-1.379474,156.860724,-1.037500,156.518750,-0.695526,156.176776,-1.037500,155.823224,-1.037500,155.481250,-0.695526,155.139276,-1.037500,154.785724,-1.037500,155.304474,-0.518750,155.658026,-0.518750,156.000000,-0.860724,156.341974,-0.518750,156.000000,-0.176776,
155.658026,-0.518750,155.304474,-0.518750,155.911612,0.088388,155.940355,0.109852,155.949187,0.111753,155.956428,0.117161,155.983062,0.119047,156.009154,0.124664,156.017614,0.121493,156.026629,0.122131,156.050057,0.109331,156.075052,0.099961,156.080459,0.092720,156.088388,0.088388,158.126776,-1.950000,159.873224,-1.950000,160.266974,-1.556250,160.620526,-1.556250,160.962500,-1.898224,161.304474,-1.556250,
161.658026,-1.556250,162.000000,-1.898224,162.341974,-1.556250,162.695526,-1.556250,163.037500,-1.898224,163.379474,-1.556250,163.037500,-1.214276,162.695526,-1.556250,162.341974,-1.556250,162.000000,-1.214276,161.658026,-1.556250,161.304474,-1.556250,160.962500,-1.214276,160.620526,-1.556250,160.266974,-1.556250,160.785724,-1.037500,161.139276,-1.037500,161.481250,-1.379474,161.823224,-1.037500,162.176776,-1.037500,
162.518750,-1.379474,162.860724,-1.037500,162.518750,-0.695526,162.176776,-1.037500,161.823224,-1.037500,161.481250,-0.695526,161.139276,-1.037500,160.785724,-1.037500,161.304474,-0.518750,161.658026,-0.518750,162.000000,-0.860724,162.341974,-0.518750,162.000000,-0.176776,161.658026,-0.518750,161.304474,-0.518750,161.911612,0.088388,161.940355,0.109852,161.949187,0.111753,161.956428,0.117161,161.983062,0.119047,
162.009154,0.124664,162.017614,0.121493,162.026629,0.122131,162.050057,0.109331,162.075052,0.099961,162.080459,0.092720,162.088388,0.088388,164.126776,-1.950000,165.873224,-1.950000,166.266974,-1.556250,166.620526,-1.556250,166.962500,-1.898224,167.304474,-1.556250,167.658026,-1.556250,168.000000,-1.898224,168.341974,-1.556250,168.695526,-1.556250,169.037500,-1.898224,169.379474,-1.556250,169.037500,-1.214276,
168.695526,-1.556250,168.341974,-1.556250,168.000000,-1.214276,167.658026,-1.556250,167.304474,-1.556250,166.962500,-1.214276,166.620526,-1.556250,166.266974,-1.556250,166.785724,-1.037500,167.139276,-1.037500,167.481250,-1.379474,167.823224,-1.037500,168.176776,-1.037500,168.518750,-1.379474,168.860724,-1.037500,168.518750,-0.695526,168.176776,-1.037500,167.823224,-1.037500,167.481250,-0.695526,167.139276,-1.037500,
166.785724,-1.037500,167.304474,-0.518750,167.658026,-0.518750,168.000000,-0.860724,168.341974,-0.518750,168.000000,-0.176776,167.658026,-0.518750,167.304474,-0.518750,167.911612,0.088388,167.940355,0.109852,167.949187,0.111753,167.956428,0.117161,167.983062,0.119047,168.009154,0.124664,168.017614,0.121493,168.026629,0.122131,168.050057,0.109331,168.075052,0.099961,168.080459,0.092720,168.088388,0.088388,
170.126776,-1.950000,171.873224,-1.950000,172.266974,-1.556250,172.620526,-1.556250,172.962500,-1.898224,173.304474,-1.556250,173.658026,-1.556250,174.000000,-1.898224,174.341974,-1.556250,174.695526,-1.556250,175.037500,-1.898224,175.379474,-1.556250,175.037500,-1.214276,174.695526,-1.556250,174.341974,-1.556250,174.000000,-1.214276,173.658026,-1.556250,173.304474,-1.556250,172.962500,-1.214276,172.620526,-1.556250,
172.266974,-1.556250,172.785724,-1.037500,173.139276,-1.037500,173.481250,-1.379474,173.823224,-1.037500,174.176776,-1.037500,174.518750,-1.379474,174.860724,-1.037500,174.518750,-0.695526,174.176776,-1.037500,173.823224,-1.037500,173.481250,-0.695526,173.139276,-1.037500,172.785724,-1.037500,173.304474,-0.518750,173.658026,-0.518750,174.000000,-0.860724,174.341974,-0.518750,174.000000,-0.176776,173.658026,-0.518750,
173.304474,-0.518750,173.911612,0.088388,173.940355,0.109852,173.949187,0.111753,173.956428,0.117161,173.983062,0.119047,174.009154,0.124664,174.017614,0.121493,174.026629,0.122131,174.050057,0.109331,174.075052,0.099961,174.080459,0.092720,174.088388,0.088388,176.126776,-1.950000,177.873224,-1.950000,178.266974,-1.556250,178.620526,-1.556250,178.962500,-1.898224,179.304474,-1.556250,179.658026,-1.556250,
180.000000,-1.898224,180.341974,-1.556250,180.695526,-1.556250,181.037500,-1.898224,181.379474,-1.556250,181.037500,-1.214276,180.695526,-1.556250,180.341974,-1.556250,180.000000,-1.214276,179.658026,-1.556250,179.304474,-1.556250,178.962500,-1.214276,178.620526,-1.556250,178.266974,-1.556250,178.785724,-1.037500,179.139276,-1.037500,179.481250,-1.379474,179.823224,-1.037500,180.176776,-1.037500,180.518750,-1.379474,
180.860724,-1.037500,180.518750,-0.695526,180.176776,-1.037500,179.823224,-1.037500,179.481250,-0.695526,179.139276,-1.037500,178.785724,-1.037500,179.304474,-0.518750,179.658026,-0.518750,180.000000,-0.860724,180.341974,-0.518750,180.000000,-0.176776,179.658026,-0.518750,179.304474,-0.518750,179.911612,0.088388,179.940355,0.109852,179.949187,0.111753,179.956428,0.117161,179.983062,0.119047,180.009154,0.124664,
180.017614,0.121493,180.026629,0.122131,180.050057,0.109331,180.075052,0.099961,180.080459,0.092720,180.088388,0.088388,182.126776,-1.950000,183.873224,-1.950000,184.266974,-1.556250,184.620526,-1.556250,184.962500,-1.898224,185.304474,-1.556250,185.658026,-1.556250,186.000000,-1.898224,186.341974,-1.556250,186.695526,-1.556250,187.037500,-1.898224,187.379474,-1.556250,187.037500,-1.214276,186.695526,-1.556250,
186.341974,-1.556250,186.000000,-1.214276,185.658026,-1.556250,185.304474,-1.556250,184.962500,-1.214276,184.620526,-1.556250,184.266974,-1.556250,184.785724,-1.037500,185.139276,-1.037500,185.481250,-1.379474,185.823224,-1.037500,186.176776,-1.037500,186.518750,-1.379474,186.860724,-1.037500,186.518750,-0.695526,186.176776,-1.037500,185.823224,-1.037500,185.481250,-0.695526,185.139276,-1.037500,184.785724,-1.037500,
185.304474,-0.518750,185.658026,-0.518750,186.000000,-0.860724,186.341974,-0.518750,186.000000,-0.176776,185.658026,-0.518750,185.304474,-0.518750,185.911612,0.088388,185.940355,0.109852,185.949187,0.111753,185.956428,0.117161,185.983062,0.119047,186.009154,0.124664,186.017614,0.121493,186.026629,0.122131,186.050057,0.109331,186.075052,0.099961,186.080459,0.092720,186.088388,0.088388,188.126776,-1.950000,
189.873224,-1.950000,190.266974,-1.556250,190.620526,-1.556250,190.962500,-1.898224,191.304474,-1.556250,191.658026,-1.556250,191.875000,-1.773223,191.875000,-1.339276,191.658026,-1.556250,191.304474,-1.556250,190.962500,-1.214276,190.620526,-1.556250,190.266974,-1.556250,190.785724,-1.037500,191.139276,-1.037500,191.481250,-1.379474,191.823224,-1.037500,191.481250,-0.695526,191.139276,-1.037500,190.785724,-1.037500,
191.304474,-0.518750,191.658026,-0.518750,191.875000,-0.735723,191.875000,-0.301776,191.658026,-0.518750,191.304474,-0.518750,191.911612,0.088388,191.916794,0.092258,191.918322,0.094624,191.922517,0.096531,191.940355,0.109852,191.962119,0.114538,191.982387,0.123753,191.995854,0.121801,192.009154,0.124664,192.029999,0.116850,192.029999,0.116850,$1*%
%AMFreePoly1*
4,1,111,-2.057386,-45.803507,-2.048371,-45.802869,-2.024943,-45.815669,-1.999948,-45.825039,-1.994541,-45.832280,-1.986612,-45.836612,0.088388,-47.911612,0.092258,-47.916794,0.094624,-47.918322,0.096531,-47.922517,0.109852,-47.940355,0.114538,-47.962119,0.123753,-47.982387,0.121801,-47.995854,0.124664,-48.009154,0.116850,-48.029999,0.113655,-48.052035,0.104737,-48.062312,0.099961,-48.075052,0.082122,-48.088373,
0.067530,-48.105189,0.054474,-48.109019,0.043572,-48.117160,0.021364,-48.118733,0.000000,-48.125000,-4.150000,-48.125000,-4.156402,-48.124072,-4.159154,-48.124664,-4.163467,-48.123047,-4.185502,-48.119852,-4.204205,-48.107776,-4.225052,-48.099961,-4.233194,-48.089058,-4.244624,-48.081678,-4.253838,-48.061413,-4.267161,-48.043572,-4.268122,-48.029997,-4.273753,-48.017613,-4.270559,-47.995581,-4.272131,-47.973371,
-4.265607,-47.961431,-4.263655,-47.947965,-4.249062,-47.931148,-4.238388,-47.911612,-4.201776,-47.875000,-3.848224,-47.875000,-3.414277,-47.875000,-2.810724,-47.875000,-2.376777,-47.875000,-1.773224,-47.875000,-1.339276,-47.875000,-0.735724,-47.875000,-0.301776,-47.875000,-0.518750,-47.658026,-0.735724,-47.875000,-1.339276,-47.875000,-1.556250,-47.658026,-1.773224,-47.875000,-2.376777,-47.875000,-2.593750,-47.658026,
-2.810724,-47.875000,-3.414277,-47.875000,-3.631250,-47.658026,-3.848224,-47.875000,-4.201776,-47.875000,-3.808026,-47.481250,-3.454474,-47.481250,-3.112500,-47.823224,-2.770526,-47.481250,-2.416974,-47.481250,-2.075000,-47.823224,-1.733026,-47.481250,-1.379474,-47.481250,-1.037500,-47.823224,-0.695526,-47.481250,-1.037500,-47.139276,-1.379474,-47.481250,-1.733026,-47.481250,-2.075000,-47.139276,-2.416974,-47.481250,
-2.770526,-47.481250,-3.112500,-47.139276,-3.454474,-47.481250,-3.808026,-47.481250,-3.289276,-46.962500,-2.935724,-46.962500,-2.593750,-47.304474,-2.251776,-46.962500,-1.898224,-46.962500,-1.556250,-47.304474,-1.214276,-46.962500,-1.556250,-46.620526,-1.898224,-46.962500,-2.251776,-46.962500,-2.593750,-46.620526,-2.935724,-46.962500,-3.289276,-46.962500,-2.770526,-46.443750,-2.416974,-46.443750,-2.075000,-46.785724,
-1.733026,-46.443750,-2.075000,-46.101776,-2.416974,-46.443750,-2.770526,-46.443750,-2.163388,-45.836612,-2.134645,-45.815148,-2.125813,-45.813247,-2.118572,-45.807839,-2.091938,-45.805953,-2.065846,-45.800336,-2.057386,-45.803507,-2.057386,-45.803507,$1*%
%AMFreePoly2*
4,1,152,-2.057386,-39.803507,-2.048371,-39.802869,-2.024943,-39.815669,-1.999948,-39.825039,-1.994541,-39.832280,-1.986612,-39.836612,0.088388,-41.911612,0.109852,-41.940355,0.111754,-41.949188,0.117160,-41.956428,0.119046,-41.983058,0.124664,-42.009154,0.121493,-42.017614,0.122131,-42.026629,0.109331,-42.050057,0.099961,-42.075052,0.092720,-42.080459,0.088388,-42.088388,-1.986612,-44.163388,-2.015356,-44.184852,
-2.024188,-44.186753,-2.031428,-44.192160,-2.058059,-44.194046,-2.084154,-44.199664,-2.092614,-44.196493,-2.101629,-44.197131,-2.125057,-44.184331,-2.150052,-44.174961,-2.155459,-44.167720,-2.163388,-44.163388,-2.770526,-43.556250,-2.416974,-43.556250,-2.075000,-43.898224,-1.733026,-43.556250,-2.075000,-43.214276,-2.416974,-43.556250,-2.770526,-43.556250,-3.289276,-43.037500,-2.935724,-43.037500,-2.593750,-43.379474,
-2.251776,-43.037500,-1.898224,-43.037500,-1.556250,-43.379474,-1.214276,-43.037500,-1.556250,-42.695526,-1.898224,-43.037500,-2.251776,-43.037500,-2.593750,-42.695526,-2.935724,-43.037500,-3.289276,-43.037500,-3.808026,-42.518750,-3.454474,-42.518750,-3.112500,-42.860724,-2.770526,-42.518750,-2.416974,-42.518750,-2.075000,-42.860724,-1.733026,-42.518750,-1.379474,-42.518750,-1.037500,-42.860724,-0.695526,-42.518750,
-1.037500,-42.176776,-1.379474,-42.518750,-1.733026,-42.518750,-2.075000,-42.176776,-2.416974,-42.518750,-2.770526,-42.518750,-3.112500,-42.176776,-3.454474,-42.518750,-3.808026,-42.518750,-4.238388,-42.088388,-4.259852,-42.059644,-4.261753,-42.050814,-4.267161,-42.043572,-4.269047,-42.016937,-4.272693,-42.000000,-3.973224,-42.000000,-3.631250,-42.341974,-3.289276,-42.000000,-2.935724,-42.000000,-2.593750,-42.341974,
-2.251776,-42.000000,-1.898224,-42.000000,-1.556250,-42.341974,-1.214276,-42.000000,-0.860724,-42.000000,-0.518750,-42.341974,-0.176776,-42.000000,-0.518750,-41.658026,-0.860724,-42.000000,-1.214276,-42.000000,-1.556250,-41.658026,-1.898224,-42.000000,-2.251776,-42.000000,-2.593750,-41.658026,-2.935724,-42.000000,-3.289276,-42.000000,-3.631250,-41.658026,-3.973224,-42.000000,-4.272693,-42.000000,-4.274664,-41.990846,
-4.271493,-41.982386,-4.272131,-41.973371,-4.259331,-41.949943,-4.249961,-41.924948,-4.242720,-41.919541,-4.238388,-41.911612,-3.808026,-41.481250,-3.454474,-41.481250,-3.112500,-41.823224,-2.770526,-41.481250,-2.416974,-41.481250,-2.075000,-41.823224,-1.733026,-41.481250,-1.379474,-41.481250,-1.037500,-41.823224,-0.695526,-41.481250,-1.037500,-41.139276,-1.379474,-41.481250,-1.733026,-41.481250,-2.075000,-41.139276,
-2.416974,-41.481250,-2.770526,-41.481250,-3.112500,-41.139276,-3.454474,-41.481250,-3.808026,-41.481250,-3.289276,-40.962500,-2.935724,-40.962500,-2.593750,-41.304474,-2.251776,-40.962500,-1.898224,-40.962500,-1.556250,-41.304474,-1.214276,-40.962500,-1.556250,-40.620526,-1.898224,-40.962500,-2.251776,-40.962500,-2.593750,-40.620526,-2.935724,-40.962500,-3.289276,-40.962500,-2.770526,-40.443750,-2.416974,-40.443750,
-2.075000,-40.785724,-1.733026,-40.443750,-2.075000,-40.101776,-2.416974,-40.443750,-2.770526,-40.443750,-2.163388,-39.836612,-2.134645,-39.815148,-2.125813,-39.813247,-2.118572,-39.807839,-2.091938,-39.805953,-2.065846,-39.800336,-2.057386,-39.803507,-2.057386,-39.803507,$1*%
%AMFreePoly3*
4,1,152,-2.057386,-33.803507,-2.048371,-33.802869,-2.024943,-33.815669,-1.999948,-33.825039,-1.994541,-33.832280,-1.986612,-33.836612,0.088388,-35.911612,0.109852,-35.940355,0.111754,-35.949188,0.117160,-35.956428,0.119046,-35.983058,0.124664,-36.009154,0.121493,-36.017614,0.122131,-36.026629,0.109331,-36.050057,0.099961,-36.075052,0.092720,-36.080459,0.088388,-36.088388,-1.986612,-38.163388,-2.015356,-38.184852,
-2.024188,-38.186753,-2.031428,-38.192160,-2.058059,-38.194046,-2.084154,-38.199664,-2.092614,-38.196493,-2.101629,-38.197131,-2.125057,-38.184331,-2.150052,-38.174961,-2.155459,-38.167720,-2.163388,-38.163388,-2.770526,-37.556250,-2.416974,-37.556250,-2.075000,-37.898224,-1.733026,-37.556250,-2.075000,-37.214276,-2.416974,-37.556250,-2.770526,-37.556250,-3.289276,-37.037500,-2.935724,-37.037500,-2.593750,-37.379474,
-2.251776,-37.037500,-1.898224,-37.037500,-1.556250,-37.379474,-1.214276,-37.037500,-1.556250,-36.695526,-1.898224,-37.037500,-2.251776,-37.037500,-2.593750,-36.695526,-2.935724,-37.037500,-3.289276,-37.037500,-3.808026,-36.518750,-3.454474,-36.518750,-3.112500,-36.860724,-2.770526,-36.518750,-2.416974,-36.518750,-2.075000,-36.860724,-1.733026,-36.518750,-1.379474,-36.518750,-1.037500,-36.860724,-0.695526,-36.518750,
-1.037500,-36.176776,-1.379474,-36.518750,-1.733026,-36.518750,-2.075000,-36.176776,-2.416974,-36.518750,-2.770526,-36.518750,-3.112500,-36.176776,-3.454474,-36.518750,-3.808026,-36.518750,-4.238388,-36.088388,-4.259852,-36.059644,-4.261753,-36.050814,-4.267161,-36.043572,-4.269047,-36.016937,-4.272693,-36.000000,-3.973224,-36.000000,-3.631250,-36.341974,-3.289276,-36.000000,-2.935724,-36.000000,-2.593750,-36.341974,
-2.251776,-36.000000,-1.898224,-36.000000,-1.556250,-36.341974,-1.214276,-36.000000,-0.860724,-36.000000,-0.518750,-36.341974,-0.176776,-36.000000,-0.518750,-35.658026,-0.860724,-36.000000,-1.214276,-36.000000,-1.556250,-35.658026,-1.898224,-36.000000,-2.251776,-36.000000,-2.593750,-35.658026,-2.935724,-36.000000,-3.289276,-36.000000,-3.631250,-35.658026,-3.973224,-36.000000,-4.272693,-36.000000,-4.274664,-35.990846,
-4.271493,-35.982386,-4.272131,-35.973371,-4.259331,-35.949943,-4.249961,-35.924948,-4.242720,-35.919541,-4.238388,-35.911612,-3.808026,-35.481250,-3.454474,-35.481250,-3.112500,-35.823224,-2.770526,-35.481250,-2.416974,-35.481250,-2.075000,-35.823224,-1.733026,-35.481250,-1.379474,-35.481250,-1.037500,-35.823224,-0.695526,-35.481250,-1.037500,-35.139276,-1.379474,-35.481250,-1.733026,-35.481250,-2.075000,-35.139276,
-2.416974,-35.481250,-2.770526,-35.481250,-3.112500,-35.139276,-3.454474,-35.481250,-3.808026,-35.481250,-3.289276,-34.962500,-2.935724,-34.962500,-2.593750,-35.304474,-2.251776,-34.962500,-1.898224,-34.962500,-1.556250,-35.304474,-1.214276,-34.962500,-1.556250,-34.620526,-1.898224,-34.962500,-2.251776,-34.962500,-2.593750,-34.620526,-2.935724,-34.962500,-3.289276,-34.962500,-2.770526,-34.443750,-2.416974,-34.443750,
-2.075000,-34.785724,-1.733026,-34.443750,-2.075000,-34.101776,-2.416974,-34.443750,-2.770526,-34.443750,-2.163388,-33.836612,-2.134645,-33.815148,-2.125813,-33.813247,-2.118572,-33.807839,-2.091938,-33.805953,-2.065846,-33.800336,-2.057386,-33.803507,-2.057386,-33.803507,$1*%
%AMFreePoly4*
4,1,152,-2.057386,-27.803507,-2.048371,-27.802869,-2.024943,-27.815669,-1.999948,-27.825039,-1.994541,-27.832280,-1.986612,-27.836612,0.088388,-29.911612,0.109852,-29.940355,0.111754,-29.949188,0.117160,-29.956428,0.119046,-29.983058,0.124664,-30.009154,0.121493,-30.017614,0.122131,-30.026629,0.109331,-30.050057,0.099961,-30.075052,0.092720,-30.080459,0.088388,-30.088388,-1.986612,-32.163388,-2.015356,-32.184852,
-2.024188,-32.186753,-2.031428,-32.192160,-2.058059,-32.194046,-2.084154,-32.199664,-2.092614,-32.196493,-2.101629,-32.197131,-2.125057,-32.184331,-2.150052,-32.174961,-2.155459,-32.167720,-2.163388,-32.163388,-2.770526,-31.556250,-2.416974,-31.556250,-2.075000,-31.898224,-1.733026,-31.556250,-2.075000,-31.214276,-2.416974,-31.556250,-2.770526,-31.556250,-3.289276,-31.037500,-2.935724,-31.037500,-2.593750,-31.379474,
-2.251776,-31.037500,-1.898224,-31.037500,-1.556250,-31.379474,-1.214276,-31.037500,-1.556250,-30.695526,-1.898224,-31.037500,-2.251776,-31.037500,-2.593750,-30.695526,-2.935724,-31.037500,-3.289276,-31.037500,-3.808026,-30.518750,-3.454474,-30.518750,-3.112500,-30.860724,-2.770526,-30.518750,-2.416974,-30.518750,-2.075000,-30.860724,-1.733026,-30.518750,-1.379474,-30.518750,-1.037500,-30.860724,-0.695526,-30.518750,
-1.037500,-30.176776,-1.379474,-30.518750,-1.733026,-30.518750,-2.075000,-30.176776,-2.416974,-30.518750,-2.770526,-30.518750,-3.112500,-30.176776,-3.454474,-30.518750,-3.808026,-30.518750,-4.238388,-30.088388,-4.259852,-30.059644,-4.261753,-30.050814,-4.267161,-30.043572,-4.269047,-30.016937,-4.272693,-30.000000,-3.973224,-30.000000,-3.631250,-30.341974,-3.289276,-30.000000,-2.935724,-30.000000,-2.593750,-30.341974,
-2.251776,-30.000000,-1.898224,-30.000000,-1.556250,-30.341974,-1.214276,-30.000000,-0.860724,-30.000000,-0.518750,-30.341974,-0.176776,-30.000000,-0.518750,-29.658026,-0.860724,-30.000000,-1.214276,-30.000000,-1.556250,-29.658026,-1.898224,-30.000000,-2.251776,-30.000000,-2.593750,-29.658026,-2.935724,-30.000000,-3.289276,-30.000000,-3.631250,-29.658026,-3.973224,-30.000000,-4.272693,-30.000000,-4.274664,-29.990846,
-4.271493,-29.982386,-4.272131,-29.973371,-4.259331,-29.949943,-4.249961,-29.924948,-4.242720,-29.919541,-4.238388,-29.911612,-3.808026,-29.481250,-3.454474,-29.481250,-3.112500,-29.823224,-2.770526,-29.481250,-2.416974,-29.481250,-2.075000,-29.823224,-1.733026,-29.481250,-1.379474,-29.481250,-1.037500,-29.823224,-0.695526,-29.481250,-1.037500,-29.139276,-1.379474,-29.481250,-1.733026,-29.481250,-2.075000,-29.139276,
-2.416974,-29.481250,-2.770526,-29.481250,-3.112500,-29.139276,-3.454474,-29.481250,-3.808026,-29.481250,-3.289276,-28.962500,-2.935724,-28.962500,-2.593750,-29.304474,-2.251776,-28.962500,-1.898224,-28.962500,-1.556250,-29.304474,-1.214276,-28.962500,-1.556250,-28.620526,-1.898224,-28.962500,-2.251776,-28.962500,-2.593750,-28.620526,-2.935724,-28.962500,-3.289276,-28.962500,-2.770526,-28.443750,-2.416974,-28.443750,
-2.075000,-28.785724,-1.733026,-28.443750,-2.075000,-28.101776,-2.416974,-28.443750,-2.770526,-28.443750,-2.163388,-27.836612,-2.134645,-27.815148,-2.125813,-27.813247,-2.118572,-27.807839,-2.091938,-27.805953,-2.065846,-27.800336,-2.057386,-27.803507,-2.057386,-27.803507,$1*%
%AMFreePoly5*
4,1,152,-2.057386,-21.803507,-2.048371,-21.802869,-2.024943,-21.815669,-1.999948,-21.825039,-1.994541,-21.832280,-1.986612,-21.836612,0.088388,-23.911612,0.109852,-23.940355,0.111754,-23.949188,0.117160,-23.956428,0.119046,-23.983058,0.124664,-24.009154,0.121493,-24.017614,0.122131,-24.026629,0.109331,-24.050057,0.099961,-24.075052,0.092720,-24.080459,0.088388,-24.088388,-1.986612,-26.163388,-2.015356,-26.184852,
-2.024188,-26.186753,-2.031428,-26.192160,-2.058059,-26.194046,-2.084154,-26.199664,-2.092614,-26.196493,-2.101629,-26.197131,-2.125057,-26.184331,-2.150052,-26.174961,-2.155459,-26.167720,-2.163388,-26.163388,-2.770526,-25.556250,-2.416974,-25.556250,-2.075000,-25.898224,-1.733026,-25.556250,-2.075000,-25.214276,-2.416974,-25.556250,-2.770526,-25.556250,-3.289276,-25.037500,-2.935724,-25.037500,-2.593750,-25.379474,
-2.251776,-25.037500,-1.898224,-25.037500,-1.556250,-25.379474,-1.214276,-25.037500,-1.556250,-24.695526,-1.898224,-25.037500,-2.251776,-25.037500,-2.593750,-24.695526,-2.935724,-25.037500,-3.289276,-25.037500,-3.808026,-24.518750,-3.454474,-24.518750,-3.112500,-24.860724,-2.770526,-24.518750,-2.416974,-24.518750,-2.075000,-24.860724,-1.733026,-24.518750,-1.379474,-24.518750,-1.037500,-24.860724,-0.695526,-24.518750,
-1.037500,-24.176776,-1.379474,-24.518750,-1.733026,-24.518750,-2.075000,-24.176776,-2.416974,-24.518750,-2.770526,-24.518750,-3.112500,-24.176776,-3.454474,-24.518750,-3.808026,-24.518750,-4.238388,-24.088388,-4.259852,-24.059644,-4.261753,-24.050814,-4.267161,-24.043572,-4.269047,-24.016937,-4.272693,-24.000000,-3.973224,-24.000000,-3.631250,-24.341974,-3.289276,-24.000000,-2.935724,-24.000000,-2.593750,-24.341974,
-2.251776,-24.000000,-1.898224,-24.000000,-1.556250,-24.341974,-1.214276,-24.000000,-0.860724,-24.000000,-0.518750,-24.341974,-0.176776,-24.000000,-0.518750,-23.658026,-0.860724,-24.000000,-1.214276,-24.000000,-1.556250,-23.658026,-1.898224,-24.000000,-2.251776,-24.000000,-2.593750,-23.658026,-2.935724,-24.000000,-3.289276,-24.000000,-3.631250,-23.658026,-3.973224,-24.000000,-4.272693,-24.000000,-4.274664,-23.990846,
-4.271493,-23.982386,-4.272131,-23.973371,-4.259331,-23.949943,-4.249961,-23.924948,-4.242720,-23.919541,-4.238388,-23.911612,-3.808026,-23.481250,-3.454474,-23.481250,-3.112500,-23.823224,-2.770526,-23.481250,-2.416974,-23.481250,-2.075000,-23.823224,-1.733026,-23.481250,-1.379474,-23.481250,-1.037500,-23.823224,-0.695526,-23.481250,-1.037500,-23.139276,-1.379474,-23.481250,-1.733026,-23.481250,-2.075000,-23.139276,
-2.416974,-23.481250,-2.770526,-23.481250,-3.112500,-23.139276,-3.454474,-23.481250,-3.808026,-23.481250,-3.289276,-22.962500,-2.935724,-22.962500,-2.593750,-23.304474,-2.251776,-22.962500,-1.898224,-22.962500,-1.556250,-23.304474,-1.214276,-22.962500,-1.556250,-22.620526,-1.898224,-22.962500,-2.251776,-22.962500,-2.593750,-22.620526,-2.935724,-22.962500,-3.289276,-22.962500,-2.770526,-22.443750,-2.416974,-22.443750,
-2.075000,-22.785724,-1.733026,-22.443750,-2.075000,-22.101776,-2.416974,-22.443750,-2.770526,-22.443750,-2.163388,-21.836612,-2.134645,-21.815148,-2.125813,-21.813247,-2.118572,-21.807839,-2.091938,-21.805953,-2.065846,-21.800336,-2.057386,-21.803507,-2.057386,-21.803507,$1*%
%AMFreePoly6*
4,1,152,-2.057386,-15.803507,-2.048371,-15.802869,-2.024943,-15.815669,-1.999948,-15.825039,-1.994541,-15.832280,-1.986612,-15.836612,0.088388,-17.911612,0.109852,-17.940355,0.111754,-17.949188,0.117160,-17.956428,0.119046,-17.983058,0.124664,-18.009154,0.121493,-18.017614,0.122131,-18.026629,0.109331,-18.050057,0.099961,-18.075052,0.092720,-18.080459,0.088388,-18.088388,-1.986612,-20.163388,-2.015356,-20.184852,
-2.024188,-20.186753,-2.031428,-20.192160,-2.058059,-20.194046,-2.084154,-20.199664,-2.092614,-20.196493,-2.101629,-20.197131,-2.125057,-20.184331,-2.150052,-20.174961,-2.155459,-20.167720,-2.163388,-20.163388,-2.770526,-19.556250,-2.416974,-19.556250,-2.075000,-19.898224,-1.733026,-19.556250,-2.075000,-19.214276,-2.416974,-19.556250,-2.770526,-19.556250,-3.289276,-19.037500,-2.935724,-19.037500,-2.593750,-19.379474,
-2.251776,-19.037500,-1.898224,-19.037500,-1.556250,-19.379474,-1.214276,-19.037500,-1.556250,-18.695526,-1.898224,-19.037500,-2.251776,-19.037500,-2.593750,-18.695526,-2.935724,-19.037500,-3.289276,-19.037500,-3.808026,-18.518750,-3.454474,-18.518750,-3.112500,-18.860724,-2.770526,-18.518750,-2.416974,-18.518750,-2.075000,-18.860724,-1.733026,-18.518750,-1.379474,-18.518750,-1.037500,-18.860724,-0.695526,-18.518750,
-1.037500,-18.176776,-1.379474,-18.518750,-1.733026,-18.518750,-2.075000,-18.176776,-2.416974,-18.518750,-2.770526,-18.518750,-3.112500,-18.176776,-3.454474,-18.518750,-3.808026,-18.518750,-4.238388,-18.088388,-4.259852,-18.059644,-4.261753,-18.050814,-4.267161,-18.043572,-4.269047,-18.016937,-4.272693,-18.000000,-3.973224,-18.000000,-3.631250,-18.341974,-3.289276,-18.000000,-2.935724,-18.000000,-2.593750,-18.341974,
-2.251776,-18.000000,-1.898224,-18.000000,-1.556250,-18.341974,-1.214276,-18.000000,-0.860724,-18.000000,-0.518750,-18.341974,-0.176776,-18.000000,-0.518750,-17.658026,-0.860724,-18.000000,-1.214276,-18.000000,-1.556250,-17.658026,-1.898224,-18.000000,-2.251776,-18.000000,-2.593750,-17.658026,-2.935724,-18.000000,-3.289276,-18.000000,-3.631250,-17.658026,-3.973224,-18.000000,-4.272693,-18.000000,-4.274664,-17.990846,
-4.271493,-17.982386,-4.272131,-17.973371,-4.259331,-17.949943,-4.249961,-17.924948,-4.242720,-17.919541,-4.238388,-17.911612,-3.808026,-17.481250,-3.454474,-17.481250,-3.112500,-17.823224,-2.770526,-17.481250,-2.416974,-17.481250,-2.075000,-17.823224,-1.733026,-17.481250,-1.379474,-17.481250,-1.037500,-17.823224,-0.695526,-17.481250,-1.037500,-17.139276,-1.379474,-17.481250,-1.733026,-17.481250,-2.075000,-17.139276,
-2.416974,-17.481250,-2.770526,-17.481250,-3.112500,-17.139276,-3.454474,-17.481250,-3.808026,-17.481250,-3.289276,-16.962500,-2.935724,-16.962500,-2.593750,-17.304474,-2.251776,-16.962500,-1.898224,-16.962500,-1.556250,-17.304474,-1.214276,-16.962500,-1.556250,-16.620526,-1.898224,-16.962500,-2.251776,-16.962500,-2.593750,-16.620526,-2.935724,-16.962500,-3.289276,-16.962500,-2.770526,-16.443750,-2.416974,-16.443750,
-2.075000,-16.785724,-1.733026,-16.443750,-2.075000,-16.101776,-2.416974,-16.443750,-2.770526,-16.443750,-2.163388,-15.836612,-2.134645,-15.815148,-2.125813,-15.813247,-2.118572,-15.807839,-2.091938,-15.805953,-2.065846,-15.800336,-2.057386,-15.803507,-2.057386,-15.803507,$1*%
%AMFreePoly7*
4,1,152,-2.057386,-9.803507,-2.048371,-9.802869,-2.024943,-9.815669,-1.999948,-9.825039,-1.994541,-9.832280,-1.986612,-9.836612,0.088388,-11.911612,0.109852,-11.940355,0.111754,-11.949188,0.117160,-11.956428,0.119046,-11.983058,0.124664,-12.009154,0.121493,-12.017614,0.122131,-12.026629,0.109331,-12.050057,0.099961,-12.075052,0.092720,-12.080459,0.088388,-12.088388,-1.986612,-14.163388,-2.015356,-14.184852,
-2.024188,-14.186753,-2.031428,-14.192160,-2.058059,-14.194046,-2.084154,-14.199664,-2.092614,-14.196493,-2.101629,-14.197131,-2.125057,-14.184331,-2.150052,-14.174961,-2.155459,-14.167720,-2.163388,-14.163388,-2.770526,-13.556250,-2.416974,-13.556250,-2.075000,-13.898224,-1.733026,-13.556250,-2.075000,-13.214276,-2.416974,-13.556250,-2.770526,-13.556250,-3.289276,-13.037500,-2.935724,-13.037500,-2.593750,-13.379474,
-2.251776,-13.037500,-1.898224,-13.037500,-1.556250,-13.379474,-1.214276,-13.037500,-1.556250,-12.695526,-1.898224,-13.037500,-2.251776,-13.037500,-2.593750,-12.695526,-2.935724,-13.037500,-3.289276,-13.037500,-3.808026,-12.518750,-3.454474,-12.518750,-3.112500,-12.860724,-2.770526,-12.518750,-2.416974,-12.518750,-2.075000,-12.860724,-1.733026,-12.518750,-1.379474,-12.518750,-1.037500,-12.860724,-0.695526,-12.518750,
-1.037500,-12.176776,-1.379474,-12.518750,-1.733026,-12.518750,-2.075000,-12.176776,-2.416974,-12.518750,-2.770526,-12.518750,-3.112500,-12.176776,-3.454474,-12.518750,-3.808026,-12.518750,-4.238388,-12.088388,-4.259852,-12.059644,-4.261753,-12.050814,-4.267161,-12.043572,-4.269047,-12.016937,-4.272693,-12.000000,-3.973224,-12.000000,-3.631250,-12.341974,-3.289276,-12.000000,-2.935724,-12.000000,-2.593750,-12.341974,
-2.251776,-12.000000,-1.898224,-12.000000,-1.556250,-12.341974,-1.214276,-12.000000,-0.860724,-12.000000,-0.518750,-12.341974,-0.176776,-12.000000,-0.518750,-11.658026,-0.860724,-12.000000,-1.214276,-12.000000,-1.556250,-11.658026,-1.898224,-12.000000,-2.251776,-12.000000,-2.593750,-11.658026,-2.935724,-12.000000,-3.289276,-12.000000,-3.631250,-11.658026,-3.973224,-12.000000,-4.272693,-12.000000,-4.274664,-11.990846,
-4.271493,-11.982386,-4.272131,-11.973371,-4.259331,-11.949943,-4.249961,-11.924948,-4.242720,-11.919541,-4.238388,-11.911612,-3.808026,-11.481250,-3.454474,-11.481250,-3.112500,-11.823224,-2.770526,-11.481250,-2.416974,-11.481250,-2.075000,-11.823224,-1.733026,-11.481250,-1.379474,-11.481250,-1.037500,-11.823224,-0.695526,-11.481250,-1.037500,-11.139276,-1.379474,-11.481250,-1.733026,-11.481250,-2.075000,-11.139276,
-2.416974,-11.481250,-2.770526,-11.481250,-3.112500,-11.139276,-3.454474,-11.481250,-3.808026,-11.481250,-3.289276,-10.962500,-2.935724,-10.962500,-2.593750,-11.304474,-2.251776,-10.962500,-1.898224,-10.962500,-1.556250,-11.304474,-1.214276,-10.962500,-1.556250,-10.620526,-1.898224,-10.962500,-2.251776,-10.962500,-2.593750,-10.620526,-2.935724,-10.962500,-3.289276,-10.962500,-2.770526,-10.443750,-2.416974,-10.443750,
-2.075000,-10.785724,-1.733026,-10.443750,-2.075000,-10.101776,-2.416974,-10.443750,-2.770526,-10.443750,-2.163388,-9.836612,-2.134645,-9.815148,-2.125813,-9.813247,-2.118572,-9.807839,-2.091938,-9.805953,-2.065846,-9.800336,-2.057386,-9.803507,-2.057386,-9.803507,$1*%
%AMFreePoly8*
4,1,152,-2.057386,-3.803507,-2.048371,-3.802869,-2.024943,-3.815669,-1.999948,-3.825039,-1.994541,-3.832280,-1.986612,-3.836612,0.088388,-5.911612,0.109852,-5.940355,0.111754,-5.949188,0.117160,-5.956428,0.119046,-5.983058,0.124664,-6.009154,0.121493,-6.017614,0.122131,-6.026629,0.109331,-6.050057,0.099961,-6.075052,0.092720,-6.080459,0.088388,-6.088388,-1.986612,-8.163388,-2.015356,-8.184852,
-2.024188,-8.186753,-2.031428,-8.192160,-2.058059,-8.194046,-2.084154,-8.199664,-2.092614,-8.196493,-2.101629,-8.197131,-2.125057,-8.184331,-2.150052,-8.174961,-2.155459,-8.167720,-2.163388,-8.163388,-2.770526,-7.556250,-2.416974,-7.556250,-2.075000,-7.898224,-1.733026,-7.556250,-2.075000,-7.214276,-2.416974,-7.556250,-2.770526,-7.556250,-3.289276,-7.037500,-2.935724,-7.037500,-2.593750,-7.379474,
-2.251776,-7.037500,-1.898224,-7.037500,-1.556250,-7.379474,-1.214276,-7.037500,-1.556250,-6.695526,-1.898224,-7.037500,-2.251776,-7.037500,-2.593750,-6.695526,-2.935724,-7.037500,-3.289276,-7.037500,-3.808026,-6.518750,-3.454474,-6.518750,-3.112500,-6.860724,-2.770526,-6.518750,-2.416974,-6.518750,-2.075000,-6.860724,-1.733026,-6.518750,-1.379474,-6.518750,-1.037500,-6.860724,-0.695526,-6.518750,
-1.037500,-6.176776,-1.379474,-6.518750,-1.733026,-6.518750,-2.075000,-6.176776,-2.416974,-6.518750,-2.770526,-6.518750,-3.112500,-6.176776,-3.454474,-6.518750,-3.808026,-6.518750,-4.238388,-6.088388,-4.259852,-6.059644,-4.261753,-6.050814,-4.267161,-6.043572,-4.269047,-6.016937,-4.272693,-6.000000,-3.973224,-6.000000,-3.631250,-6.341974,-3.289276,-6.000000,-2.935724,-6.000000,-2.593750,-6.341974,
-2.251776,-6.000000,-1.898224,-6.000000,-1.556250,-6.341974,-1.214276,-6.000000,-0.860724,-6.000000,-0.518750,-6.341974,-0.176776,-6.000000,-0.518750,-5.658026,-0.860724,-6.000000,-1.214276,-6.000000,-1.556250,-5.658026,-1.898224,-6.000000,-2.251776,-6.000000,-2.593750,-5.658026,-2.935724,-6.000000,-3.289276,-6.000000,-3.631250,-5.658026,-3.973224,-6.000000,-4.272693,-6.000000,-4.274664,-5.990846,
-4.271493,-5.982386,-4.272131,-5.973371,-4.259331,-5.949943,-4.249961,-5.924948,-4.242720,-5.919541,-4.238388,-5.911612,-3.808026,-5.481250,-3.454474,-5.481250,-3.112500,-5.823224,-2.770526,-5.481250,-2.416974,-5.481250,-2.075000,-5.823224,-1.733026,-5.481250,-1.379474,-5.481250,-1.037500,-5.823224,-0.695526,-5.481250,-1.037500,-5.139276,-1.379474,-5.481250,-1.733026,-5.481250,-2.075000,-5.139276,
-2.416974,-5.481250,-2.770526,-5.481250,-3.112500,-5.139276,-3.454474,-5.481250,-3.808026,-5.481250,-3.289276,-4.962500,-2.935724,-4.962500,-2.593750,-5.304474,-2.251776,-4.962500,-1.898224,-4.962500,-1.556250,-5.304474,-1.214276,-4.962500,-1.556250,-4.620526,-1.898224,-4.962500,-2.251776,-4.962500,-2.593750,-4.620526,-2.935724,-4.962500,-3.289276,-4.962500,-2.770526,-4.443750,-2.416974,-4.443750,
-2.075000,-4.785724,-1.733026,-4.443750,-2.075000,-4.101776,-2.416974,-4.443750,-2.770526,-4.443750,-2.163388,-3.836612,-2.134645,-3.815148,-2.125813,-3.813247,-2.118572,-3.807839,-2.091938,-3.805953,-2.065846,-3.800336,-2.057386,-3.803507,-2.057386,-3.803507,$1*%
%AMFreePoly9*
4,1,111,0.006402,0.124072,0.009154,0.124664,0.013467,0.123047,0.035502,0.119852,0.054205,0.107776,0.075052,0.099961,0.083193,0.089059,0.094624,0.081678,0.103839,0.061411,0.117160,0.043572,0.118121,0.030000,0.123753,0.017613,0.120558,-0.004421,0.122131,-0.026629,0.115607,-0.038569,0.113655,-0.052035,0.099062,-0.068852,0.088388,-0.088388,-1.986612,-2.163388,-2.015356,-2.184852,
-2.024188,-2.186753,-2.031428,-2.192160,-2.058059,-2.194046,-2.084154,-2.199664,-2.092614,-2.196493,-2.101629,-2.197131,-2.125057,-2.184331,-2.150052,-2.174961,-2.155459,-2.167720,-2.163388,-2.163388,-2.770526,-1.556250,-2.416974,-1.556250,-2.075000,-1.898224,-1.733026,-1.556250,-2.075000,-1.214276,-2.416974,-1.556250,-2.770526,-1.556250,-3.289276,-1.037500,-2.935724,-1.037500,-2.593750,-1.379474,
-2.251776,-1.037500,-1.898224,-1.037500,-1.556250,-1.379474,-1.214276,-1.037500,-1.556250,-0.695526,-1.898224,-1.037500,-2.251776,-1.037500,-2.593750,-0.695526,-2.935724,-1.037500,-3.289276,-1.037500,-3.808026,-0.518750,-3.454474,-0.518750,-3.112500,-0.860724,-2.770526,-0.518750,-2.416974,-0.518750,-2.075000,-0.860724,-1.733026,-0.518750,-1.379474,-0.518750,-1.037500,-0.860724,-0.695526,-0.518750,
-1.037500,-0.176776,-1.379474,-0.518750,-1.733026,-0.518750,-2.075000,-0.176776,-2.416974,-0.518750,-2.770526,-0.518750,-3.112500,-0.176776,-3.454474,-0.518750,-3.808026,-0.518750,-4.201776,-0.125000,-3.848224,-0.125000,-3.631250,-0.341974,-3.414277,-0.125000,-2.810724,-0.125000,-2.593750,-0.341974,-2.376777,-0.125000,-1.773224,-0.125000,-1.556250,-0.341974,-1.339276,-0.125000,-0.735724,-0.125000,
-0.518750,-0.341974,-0.301776,-0.125000,-0.735724,-0.125000,-1.339276,-0.125000,-1.773224,-0.125000,-2.376777,-0.125000,-2.810724,-0.125000,-3.414277,-0.125000,-3.848224,-0.125000,-4.201776,-0.125000,-4.238388,-0.088388,-4.242258,-0.083206,-4.244624,-0.081678,-4.246532,-0.077482,-4.259852,-0.059644,-4.264537,-0.037881,-4.273753,-0.017613,-4.271801,-0.004146,-4.274664,0.009154,-4.266850,0.029999,
-4.263655,0.052035,-4.254737,0.062312,-4.249961,0.075052,-4.232122,0.088374,-4.217530,0.105189,-4.204475,0.109019,-4.193572,0.117161,-4.171361,0.118733,-4.150000,0.125000,0.000000,0.125000,0.006402,0.124072,0.006402,0.124072,$1*%
G04 Aperture macros list end*
G04 #@! TA.AperFunction,SMDPad,CuDef*
%ADD10FreePoly0,0.000000*%
G04 #@! TD*
G04 #@! TA.AperFunction,SMDPad,CuDef*
%ADD11FreePoly1,0.000000*%
G04 #@! TD*
G04 #@! TA.AperFunction,SMDPad,CuDef*
%ADD12FreePoly2,0.000000*%
G04 #@! TD*
G04 #@! TA.AperFunction,SMDPad,CuDef*
%ADD13FreePoly3,0.000000*%
G04 #@! TD*
G04 #@! TA.AperFunction,SMDPad,CuDef*
%ADD14FreePoly4,0.000000*%
G04 #@! TD*
G04 #@! TA.AperFunction,SMDPad,CuDef*
%ADD15FreePoly5,0.000000*%
G04 #@! TD*
G04 #@! TA.AperFunction,SMDPad,CuDef*
%ADD16FreePoly6,0.000000*%
G04 #@! TD*
G04 #@! TA.AperFunction,SMDPad,CuDef*
%ADD17FreePoly7,0.000000*%
G04 #@! TD*
G04 #@! TA.AperFunction,SMDPad,CuDef*
%ADD18FreePoly8,0.000000*%
G04 #@! TD*
G04 #@! TA.AperFunction,SMDPad,CuDef*
%ADD19FreePoly9,0.000000*%
G04 #@! TD*
G04 #@! TA.AperFunction,ViaPad*
%ADD20C,0.400000*%
G04 #@! TD*
G04 APERTURE END LIST*
D10*
X63150000Y-56725000D03*
X63150000Y-62725000D03*
X63150000Y-68725000D03*
X63150000Y-74725000D03*
X63150000Y-80725000D03*
X63150000Y-86725000D03*
X63150000Y-92725000D03*
X63150000Y-98725000D03*
D11*
X68225000Y-55800000D03*
D12*
X68225000Y-55800000D03*
D13*
X68225000Y-55800000D03*
D14*
X68225000Y-55800000D03*
D15*
X68225000Y-55800000D03*
D16*
X68225000Y-55800000D03*
D17*
X68225000Y-55800000D03*
D18*
X68225000Y-55800000D03*
D19*
X68225000Y-55800000D03*
D11*
X74225000Y-55800000D03*
D12*
X74225000Y-55800000D03*
D13*
X74225000Y-55800000D03*
D14*
X74225000Y-55800000D03*
D15*
X74225000Y-55800000D03*
D16*
X74225000Y-55800000D03*
D17*
X74225000Y-55800000D03*
D18*
X74225000Y-55800000D03*
D19*
X74225000Y-55800000D03*
D11*
X80225000Y-55800000D03*
D12*
X80225000Y-55800000D03*
D13*
X80225000Y-55800000D03*
D14*
X80225000Y-55800000D03*
D15*
X80225000Y-55800000D03*
D16*
X80225000Y-55800000D03*
D17*
X80225000Y-55800000D03*
D18*
X80225000Y-55800000D03*
D19*
X80225000Y-55800000D03*
D11*
X86225000Y-55800000D03*
D12*
X86225000Y-55800000D03*
D13*
X86225000Y-55800000D03*
D14*
X86225000Y-55800000D03*
D15*
X86225000Y-55800000D03*
D16*
X86225000Y-55800000D03*
D17*
X86225000Y-55800000D03*
D18*
X86225000Y-55800000D03*
D19*
X86225000Y-55800000D03*
D11*
X92225000Y-55800000D03*
D12*
X92225000Y-55800000D03*
D13*
X92225000Y-55800000D03*
D14*
X92225000Y-55800000D03*
D15*
X92225000Y-55800000D03*
D16*
X92225000Y-55800000D03*
D17*
X92225000Y-55800000D03*
D18*
X92225000Y-55800000D03*
D19*
X92225000Y-55800000D03*
D11*
X98225000Y-55800000D03*
D12*
X98225000Y-55800000D03*
D13*
X98225000Y-55800000D03*
D14*
X98225000Y-55800000D03*
D15*
X98225000Y-55800000D03*
D16*
X98225000Y-55800000D03*
D17*
X98225000Y-55800000D03*
D18*
X98225000Y-55800000D03*
D19*
X98225000Y-55800000D03*
D11*
X104225000Y-55800000D03*
D12*
X104225000Y-55800000D03*
D13*
X104225000Y-55800000D03*
D14*
X104225000Y-55800000D03*
D15*
X104225000Y-55800000D03*
D16*
X104225000Y-55800000D03*
D17*
X104225000Y-55800000D03*
D18*
X104225000Y-55800000D03*
D19*
X104225000Y-55800000D03*
D11*
X110225000Y-55800000D03*
D12*
X110225000Y-55800000D03*
D13*
X110225000Y-55800000D03*
D14*
X110225000Y-55800000D03*
D15*
X110225000Y-55800000D03*
D16*
X110225000Y-55800000D03*
D17*
X110225000Y-55800000D03*
D18*
X110225000Y-55800000D03*
D19*
X110225000Y-55800000D03*
D11*
X116225000Y-55800000D03*
D12*
X116225000Y-55800000D03*
D13*
X116225000Y-55800000D03*
D14*
X116225000Y-55800000D03*
D15*
X116225000Y-55800000D03*
D16*
X116225000Y-55800000D03*
D17*
X116225000Y-55800000D03*
D18*
X116225000Y-55800000D03*
D19*
X116225000Y-55800000D03*
D11*
X122225000Y-55800000D03*
D12*
X122225000Y-55800000D03*
D13*
X122225000Y-55800000D03*
D14*
X122225000Y-55800000D03*
D15*
X122225000Y-55800000D03*
D16*
X122225000Y-55800000D03*
D17*
X122225000Y-55800000D03*
D18*
X122225000Y-55800000D03*
D19*
X122225000Y-55800000D03*
D11*
X128225000Y-55800000D03*
D12*
X128225000Y-55800000D03*
D13*
X128225000Y-55800000D03*
D14*
X128225000Y-55800000D03*
D15*
X128225000Y-55800000D03*
D16*
X128225000Y-55800000D03*
D17*
X128225000Y-55800000D03*
D18*
X128225000Y-55800000D03*
D19*
X128225000Y-55800000D03*
D11*
X134225000Y-55800000D03*
D12*
X134225000Y-55800000D03*
D13*
X134225000Y-55800000D03*
D14*
X134225000Y-55800000D03*
D15*
X134225000Y-55800000D03*
D16*
X134225000Y-55800000D03*
D17*
X134225000Y-55800000D03*
D18*
X134225000Y-55800000D03*
D19*
X134225000Y-55800000D03*
D11*
X140225000Y-55800000D03*
D12*
X140225000Y-55800000D03*
D13*
X140225000Y-55800000D03*
D14*
X140225000Y-55800000D03*
D15*
X140225000Y-55800000D03*
D16*
X140225000Y-55800000D03*
D17*
X140225000Y-55800000D03*
D18*
X140225000Y-55800000D03*
D19*
X140225000Y-55800000D03*
D11*
X146225000Y-55800000D03*
D12*
X146225000Y-55800000D03*
D13*
X146225000Y-55800000D03*
D14*
X146225000Y-55800000D03*
D15*
X146225000Y-55800000D03*
D16*
X146225000Y-55800000D03*
D17*
X146225000Y-55800000D03*
D18*
X146225000Y-55800000D03*
D19*
X146225000Y-55800000D03*
D11*
X152225000Y-55800000D03*
D12*
X152225000Y-55800000D03*
D13*
X152225000Y-55800000D03*
D14*
X152225000Y-55800000D03*
D15*
X152225000Y-55800000D03*
D16*
X152225000Y-55800000D03*
D17*
X152225000Y-55800000D03*
D18*
X152225000Y-55800000D03*
D19*
X152225000Y-55800000D03*
D11*
X158225000Y-55800000D03*
D12*
X158225000Y-55800000D03*
D13*
X158225000Y-55800000D03*
D14*
X158225000Y-55800000D03*
D15*
X158225000Y-55800000D03*
D16*
X158225000Y-55800000D03*
D17*
X158225000Y-55800000D03*
D18*
X158225000Y-55800000D03*
D19*
X158225000Y-55800000D03*
D11*
X164225000Y-55800000D03*
D12*
X164225000Y-55800000D03*
D13*
X164225000Y-55800000D03*
D14*
X164225000Y-55800000D03*
D15*
X164225000Y-55800000D03*
D16*
X164225000Y-55800000D03*
D17*
X164225000Y-55800000D03*
D18*
X164225000Y-55800000D03*
D19*
X164225000Y-55800000D03*
D11*
X170225000Y-55800000D03*
D12*
X170225000Y-55800000D03*
D13*
X170225000Y-55800000D03*
D14*
X170225000Y-55800000D03*
D15*
X170225000Y-55800000D03*
D16*
X170225000Y-55800000D03*
D17*
X170225000Y-55800000D03*
D18*
X170225000Y-55800000D03*
D19*
X170225000Y-55800000D03*
D11*
X176225000Y-55800000D03*
D12*
X176225000Y-55800000D03*
D13*
X176225000Y-55800000D03*
D14*
X176225000Y-55800000D03*
D15*
X176225000Y-55800000D03*
D16*
X176225000Y-55800000D03*
D17*
X176225000Y-55800000D03*
D18*
X176225000Y-55800000D03*
D19*
X176225000Y-55800000D03*
D11*
X182225000Y-55800000D03*
D12*
X182225000Y-55800000D03*
D13*
X182225000Y-55800000D03*
D14*
X182225000Y-55800000D03*
D15*
X182225000Y-55800000D03*
D16*
X182225000Y-55800000D03*
D17*
X182225000Y-55800000D03*
D18*
X182225000Y-55800000D03*
D19*
X182225000Y-55800000D03*
D11*
X188225000Y-55800000D03*
D12*
X188225000Y-55800000D03*
D13*
X188225000Y-55800000D03*
D14*
X188225000Y-55800000D03*
D15*
X188225000Y-55800000D03*
D16*
X188225000Y-55800000D03*
D17*
X188225000Y-55800000D03*
D18*
X188225000Y-55800000D03*
D19*
X188225000Y-55800000D03*
D11*
X194225000Y-55800000D03*
D12*
X194225000Y-55800000D03*
D13*
X194225000Y-55800000D03*
D14*
X194225000Y-55800000D03*
D15*
X194225000Y-55800000D03*
D16*
X194225000Y-55800000D03*
D17*
X194225000Y-55800000D03*
D18*
X194225000Y-55800000D03*
D19*
X194225000Y-55800000D03*
D11*
X200225000Y-55800000D03*
D12*
X200225000Y-55800000D03*
D13*
X200225000Y-55800000D03*
D14*
X200225000Y-55800000D03*
D15*
X200225000Y-55800000D03*
D16*
X200225000Y-55800000D03*
D17*
X200225000Y-55800000D03*
D18*
X200225000Y-55800000D03*
D19*
X200225000Y-55800000D03*
D11*
X206225000Y-55800000D03*
D12*
X206225000Y-55800000D03*
D13*
X206225000Y-55800000D03*
D14*
X206225000Y-55800000D03*
D15*
X206225000Y-55800000D03*
D16*
X206225000Y-55800000D03*
D17*
X206225000Y-55800000D03*
D18*
X206225000Y-55800000D03*
D19*
X206225000Y-55800000D03*
D11*
X212225000Y-55800000D03*
D12*
X212225000Y-55800000D03*
D13*
X212225000Y-55800000D03*
D14*
X212225000Y-55800000D03*
D15*
X212225000Y-55800000D03*
D16*
X212225000Y-55800000D03*
D17*
X212225000Y-55800000D03*
D18*
X212225000Y-55800000D03*
D19*
X212225000Y-55800000D03*
D11*
X218225000Y-55800000D03*
D12*
X218225000Y-55800000D03*
D13*
X218225000Y-55800000D03*
D14*
X218225000Y-55800000D03*
D15*
X218225000Y-55800000D03*
D16*
X218225000Y-55800000D03*
D17*
X218225000Y-55800000D03*
D18*
X218225000Y-55800000D03*
D19*
X218225000Y-55800000D03*
D11*
X224225000Y-55800000D03*
D12*
X224225000Y-55800000D03*
D13*
X224225000Y-55800000D03*
D14*
X224225000Y-55800000D03*
D15*
X224225000Y-55800000D03*
D16*
X224225000Y-55800000D03*
D17*
X224225000Y-55800000D03*
D18*
X224225000Y-55800000D03*
D19*
X224225000Y-55800000D03*
D11*
X230225000Y-55800000D03*
D12*
X230225000Y-55800000D03*
D13*
X230225000Y-55800000D03*
D14*
X230225000Y-55800000D03*
D15*
X230225000Y-55800000D03*
D16*
X230225000Y-55800000D03*
D17*
X230225000Y-55800000D03*
D18*
X230225000Y-55800000D03*
D19*
X230225000Y-55800000D03*
D11*
X236225000Y-55800000D03*
D12*
X236225000Y-55800000D03*
D13*
X236225000Y-55800000D03*
D14*
X236225000Y-55800000D03*
D15*
X236225000Y-55800000D03*
D16*
X236225000Y-55800000D03*
D17*
X236225000Y-55800000D03*
D18*
X236225000Y-55800000D03*
D19*
X236225000Y-55800000D03*
D11*
X242225000Y-55800000D03*
D12*
X242225000Y-55800000D03*
D13*
X242225000Y-55800000D03*
D14*
X242225000Y-55800000D03*
D15*
X242225000Y-55800000D03*
D16*
X242225000Y-55800000D03*
D17*
X242225000Y-55800000D03*
D18*
X242225000Y-55800000D03*
D19*
X242225000Y-55800000D03*
D11*
X248225000Y-55800000D03*
D12*
X248225000Y-55800000D03*
D13*
X248225000Y-55800000D03*
D14*
X248225000Y-55800000D03*
D15*
X248225000Y-55800000D03*
D16*
X248225000Y-55800000D03*
D17*
X248225000Y-55800000D03*
D18*
X248225000Y-55800000D03*
D19*
X248225000Y-55800000D03*
D11*
X254225000Y-55800000D03*
D12*
X254225000Y-55800000D03*
D13*
X254225000Y-55800000D03*
D14*
X254225000Y-55800000D03*
D15*
X254225000Y-55800000D03*
D16*
X254225000Y-55800000D03*
D17*
X254225000Y-55800000D03*
D18*
X254225000Y-55800000D03*
D19*
X254225000Y-55800000D03*
D20*
X255075000Y-58825000D03*
X255075000Y-64825000D03*
X255075000Y-70825000D03*
X255075000Y-76825000D03*
X255075000Y-82825000D03*
X255075000Y-88825000D03*
X255075000Y-94825000D03*
X255075000Y-100825000D03*
X66150000Y-101775000D03*
X66150000Y-93825000D03*
X66150000Y-87825000D03*
X66150000Y-63825000D03*
X66150000Y-57825000D03*
X66150000Y-75825000D03*
X66150000Y-69825000D03*
X66150000Y-81825000D03*
X66150000Y-99825000D03*
X72150000Y-75825000D03*
X72150000Y-63825000D03*
X72150000Y-81825000D03*
X72150000Y-93825000D03*
X72150000Y-87825000D03*
X72150000Y-57825000D03*
X72150000Y-69825000D03*
X72150000Y-101775000D03*
X72150000Y-99825000D03*
X78150000Y-69825000D03*
X78150000Y-93825000D03*
X78150000Y-57825000D03*
X78150000Y-101775000D03*
X78150000Y-99825000D03*
X78150000Y-63825000D03*
X78150000Y-87825000D03*
X78150000Y-75825000D03*
X78150000Y-81825000D03*
X84150000Y-101775000D03*
X84150000Y-99825000D03*
X84150000Y-75825000D03*
X84150000Y-57825000D03*
X84150000Y-87825000D03*
X84150000Y-69825000D03*
X84150000Y-63825000D03*
X84150000Y-81825000D03*
X84150000Y-93825000D03*
X90150000Y-99825000D03*
X90150000Y-87825000D03*
X90150000Y-63825000D03*
X90150000Y-69825000D03*
X90150000Y-57825000D03*
X90150000Y-101775000D03*
X90150000Y-81825000D03*
X90150000Y-75825000D03*
X90150000Y-93825000D03*
X96150000Y-57825000D03*
X96150000Y-75825000D03*
X96150000Y-87825000D03*
X96150000Y-99825000D03*
X96150000Y-63825000D03*
X96150000Y-81825000D03*
X96150000Y-101775000D03*
X96150000Y-69825000D03*
X96150000Y-93825000D03*
X102150000Y-101775000D03*
X102150000Y-93825000D03*
X102150000Y-63825000D03*
X102150000Y-81825000D03*
X102150000Y-69825000D03*
X102150000Y-75825000D03*
X102150000Y-87825000D03*
X102150000Y-57825000D03*
X102150000Y-99825000D03*
X108150000Y-93825000D03*
X108150000Y-57825000D03*
X108150000Y-99825000D03*
X108150000Y-75825000D03*
X108150000Y-87825000D03*
X108150000Y-63825000D03*
X108150000Y-81825000D03*
X108150000Y-101775000D03*
X108150000Y-69825000D03*
X114150000Y-75825000D03*
X114150000Y-69825000D03*
X114150000Y-63825000D03*
X114150000Y-87825000D03*
X114150000Y-99825000D03*
X114150000Y-57825000D03*
X114150000Y-81825000D03*
X114150000Y-101775000D03*
X114150000Y-93825000D03*
X120150000Y-101775000D03*
X120150000Y-69825000D03*
X120150000Y-87825000D03*
X120150000Y-57825000D03*
X120150000Y-93825000D03*
X120150000Y-75825000D03*
X120150000Y-99825000D03*
X120150000Y-63825000D03*
X120150000Y-81825000D03*
X126150000Y-87825000D03*
X126150000Y-93825000D03*
X126150000Y-99825000D03*
X126150000Y-75825000D03*
X126150000Y-101775000D03*
X126150000Y-69825000D03*
X126150000Y-63825000D03*
X126150000Y-57825000D03*
X126150000Y-81825000D03*
X132150000Y-63825000D03*
X132150000Y-101775000D03*
X132150000Y-93825000D03*
X132150000Y-99825000D03*
X132150000Y-57825000D03*
X132150000Y-75825000D03*
X132150000Y-81825000D03*
X132150000Y-69825000D03*
X132150000Y-87825000D03*
X138150000Y-93825000D03*
X138150000Y-87825000D03*
X138150000Y-75825000D03*
X138150000Y-99825000D03*
X138150000Y-81825000D03*
X138150000Y-63825000D03*
X138150000Y-101775000D03*
X138150000Y-69825000D03*
X138150000Y-57825000D03*
X144150000Y-57825000D03*
X144150000Y-99825000D03*
X144150000Y-101775000D03*
X144150000Y-93825000D03*
X144150000Y-63825000D03*
X144150000Y-75825000D03*
X144150000Y-87825000D03*
X144150000Y-69825000D03*
X144150000Y-81825000D03*
X150150000Y-63825000D03*
X150150000Y-99825000D03*
X150150000Y-87825000D03*
X150150000Y-75825000D03*
X150150000Y-93825000D03*
X150150000Y-101775000D03*
X150150000Y-69825000D03*
X150150000Y-81825000D03*
X150150000Y-57825000D03*
X156150000Y-81825000D03*
X156150000Y-57825000D03*
X156150000Y-69825000D03*
X156150000Y-99825000D03*
X156150000Y-101775000D03*
X156150000Y-93825000D03*
X156150000Y-87825000D03*
X156150000Y-63825000D03*
X156150000Y-75825000D03*
X162150000Y-93825000D03*
X162150000Y-69825000D03*
X162150000Y-75825000D03*
X162150000Y-87825000D03*
X162150000Y-99825000D03*
X162150000Y-81825000D03*
X162150000Y-57825000D03*
X162150000Y-101775000D03*
X162150000Y-63825000D03*
X168150000Y-57825000D03*
X168150000Y-75825000D03*
X168150000Y-101775000D03*
X168150000Y-93825000D03*
X168150000Y-63825000D03*
X168150000Y-99825000D03*
X168150000Y-81825000D03*
X168150000Y-69825000D03*
X168150000Y-87825000D03*
X174150000Y-69825000D03*
X174150000Y-75825000D03*
X174150000Y-101775000D03*
X174150000Y-57825000D03*
X174150000Y-87825000D03*
X174150000Y-63825000D03*
X174150000Y-93825000D03*
X174150000Y-81825000D03*
X174150000Y-99825000D03*
X180150000Y-57825000D03*
X180150000Y-63825000D03*
X180150000Y-87825000D03*
X180150000Y-101775000D03*
X180150000Y-69825000D03*
X180150000Y-75825000D03*
X180150000Y-99825000D03*
X180150000Y-93825000D03*
X180150000Y-81825000D03*
X186150000Y-63825000D03*
X186150000Y-87825000D03*
X186150000Y-57825000D03*
X186150000Y-81825000D03*
X186150000Y-99825000D03*
X186150000Y-69825000D03*
X186150000Y-93825000D03*
X186150000Y-101775000D03*
X186150000Y-75825000D03*
X192150000Y-63825000D03*
X192150000Y-81825000D03*
X192150000Y-99825000D03*
X192150000Y-57825000D03*
X192150000Y-87825000D03*
X192150000Y-69825000D03*
X192150000Y-93825000D03*
X192150000Y-101775000D03*
X192150000Y-75825000D03*
X198150000Y-75825000D03*
X198150000Y-81825000D03*
X198150000Y-93825000D03*
X198150000Y-69825000D03*
X198150000Y-101775000D03*
X198150000Y-99825000D03*
X198150000Y-87825000D03*
X198150000Y-57825000D03*
X198150000Y-63825000D03*
X204150000Y-99825000D03*
X204150000Y-69825000D03*
X204150000Y-57825000D03*
X204150000Y-75825000D03*
X204150000Y-101775000D03*
X204150000Y-81825000D03*
X204150000Y-63825000D03*
X204150000Y-87825000D03*
X204150000Y-93825000D03*
X210150000Y-57825000D03*
X210150000Y-93825000D03*
X210150000Y-69825000D03*
X210150000Y-81825000D03*
X210150000Y-101775000D03*
X210150000Y-75825000D03*
X210150000Y-99825000D03*
X210150000Y-63825000D03*
X210150000Y-87825000D03*
X216150000Y-69825000D03*
X216150000Y-87825000D03*
X216150000Y-81825000D03*
X216150000Y-57825000D03*
X216150000Y-93825000D03*
X216150000Y-99825000D03*
X216150000Y-101775000D03*
X216150000Y-75825000D03*
X216150000Y-63825000D03*
X222150000Y-69825000D03*
X222150000Y-75825000D03*
X222150000Y-81825000D03*
X222150000Y-101775000D03*
X222150000Y-87825000D03*
X222150000Y-93825000D03*
X222150000Y-99825000D03*
X222150000Y-63825000D03*
X222150000Y-57825000D03*
X228150000Y-99825000D03*
X228150000Y-87825000D03*
X228150000Y-63825000D03*
X228150000Y-75825000D03*
X228150000Y-93825000D03*
X228150000Y-81825000D03*
X228150000Y-57825000D03*
X228150000Y-101775000D03*
X228150000Y-69825000D03*
X234150000Y-69825000D03*
X234150000Y-57825000D03*
X234150000Y-87825000D03*
X234150000Y-93825000D03*
X234150000Y-101775000D03*
X234150000Y-63825000D03*
X234150000Y-81825000D03*
X234150000Y-75825000D03*
X234150000Y-99825000D03*
X240150000Y-99825000D03*
X240150000Y-63825000D03*
X240150000Y-101775000D03*
X240150000Y-57825000D03*
X240150000Y-69825000D03*
X240150000Y-75825000D03*
X240150000Y-81825000D03*
X240150000Y-87825000D03*
X240150000Y-93825000D03*
X246150000Y-63825000D03*
X246150000Y-57825000D03*
X246150000Y-81825000D03*
X246150000Y-93825000D03*
X246150000Y-69825000D03*
X246150000Y-87825000D03*
X246150000Y-99825000D03*
X246150000Y-75825000D03*
X246150000Y-101775000D03*
X252150000Y-93825000D03*
X252150000Y-81825000D03*
X252150000Y-69825000D03*
X252150000Y-87825000D03*
X252150000Y-57825000D03*
X252150000Y-101775000D03*
X252150000Y-99825000D03*
X252150000Y-63825000D03*
X252150000Y-75825000D03*
M02*
