G04 #@! TF.GenerationSoftware,KiCad,Pcbnew,6.0.8+dfsg-1~bpo11+1*
G04 #@! TF.CreationDate,2023-03-24T18:53:16-04:00*
G04 #@! TF.ProjectId,captouch_sensor_diamond_large_gaps,63617074-6f75-4636-985f-73656e736f72,rev?*
G04 #@! TF.SameCoordinates,Original*
G04 #@! TF.FileFunction,Soldermask,Top*
G04 #@! TF.FilePolarity,Negative*
%FSLAX46Y46*%
G04 Gerber Fmt 4.6, Leading zero omitted, Abs format (unit mm)*
G04 Created by KiCad (PCBNEW 6.0.8+dfsg-1~bpo11+1) date 2023-03-24 18:53:16*
%MOMM*%
%LPD*%
G01*
G04 APERTURE LIST*
G04 APERTURE END LIST*
G36*
X243275000Y-91925000D02*
G01*
X249025000Y-91925000D01*
X249025000Y-97675000D01*
X243275000Y-97675000D01*
X243275000Y-91925000D01*
G37*
G36*
X111275000Y-55925000D02*
G01*
X117025000Y-55925000D01*
X117025000Y-61675000D01*
X111275000Y-61675000D01*
X111275000Y-55925000D01*
G37*
G36*
X201275000Y-85925000D02*
G01*
X207025000Y-85925000D01*
X207025000Y-91675000D01*
X201275000Y-91675000D01*
X201275000Y-85925000D01*
G37*
G36*
X117275000Y-91925000D02*
G01*
X123025000Y-91925000D01*
X123025000Y-97675000D01*
X117275000Y-97675000D01*
X117275000Y-91925000D01*
G37*
G36*
X135275000Y-79925000D02*
G01*
X141025000Y-79925000D01*
X141025000Y-85675000D01*
X135275000Y-85675000D01*
X135275000Y-79925000D01*
G37*
G36*
X135275000Y-73925000D02*
G01*
X141025000Y-73925000D01*
X141025000Y-79675000D01*
X135275000Y-79675000D01*
X135275000Y-73925000D01*
G37*
G36*
X99275000Y-67925000D02*
G01*
X105025000Y-67925000D01*
X105025000Y-73675000D01*
X99275000Y-73675000D01*
X99275000Y-67925000D01*
G37*
G36*
X123275000Y-85925000D02*
G01*
X129025000Y-85925000D01*
X129025000Y-91675000D01*
X123275000Y-91675000D01*
X123275000Y-85925000D01*
G37*
G36*
X81275000Y-55925000D02*
G01*
X87025000Y-55925000D01*
X87025000Y-61675000D01*
X81275000Y-61675000D01*
X81275000Y-55925000D01*
G37*
G36*
X81275000Y-85925000D02*
G01*
X87025000Y-85925000D01*
X87025000Y-91675000D01*
X81275000Y-91675000D01*
X81275000Y-85925000D01*
G37*
G36*
X141275000Y-67925000D02*
G01*
X147025000Y-67925000D01*
X147025000Y-73675000D01*
X141275000Y-73675000D01*
X141275000Y-67925000D01*
G37*
G36*
X135275000Y-91925000D02*
G01*
X141025000Y-91925000D01*
X141025000Y-97675000D01*
X135275000Y-97675000D01*
X135275000Y-91925000D01*
G37*
G36*
X111275000Y-67925000D02*
G01*
X117025000Y-67925000D01*
X117025000Y-73675000D01*
X111275000Y-73675000D01*
X111275000Y-67925000D01*
G37*
G36*
X231275000Y-97925000D02*
G01*
X237025000Y-97925000D01*
X237025000Y-103675000D01*
X231275000Y-103675000D01*
X231275000Y-97925000D01*
G37*
G36*
X219275000Y-91925000D02*
G01*
X225025000Y-91925000D01*
X225025000Y-97675000D01*
X219275000Y-97675000D01*
X219275000Y-91925000D01*
G37*
G36*
X225275000Y-55925000D02*
G01*
X231025000Y-55925000D01*
X231025000Y-61675000D01*
X225275000Y-61675000D01*
X225275000Y-55925000D01*
G37*
G36*
X93275000Y-85925000D02*
G01*
X99025000Y-85925000D01*
X99025000Y-91675000D01*
X93275000Y-91675000D01*
X93275000Y-85925000D01*
G37*
G36*
X141275000Y-73925000D02*
G01*
X147025000Y-73925000D01*
X147025000Y-79675000D01*
X141275000Y-79675000D01*
X141275000Y-73925000D01*
G37*
G36*
X165275000Y-85925000D02*
G01*
X171025000Y-85925000D01*
X171025000Y-91675000D01*
X165275000Y-91675000D01*
X165275000Y-85925000D01*
G37*
G36*
X111275000Y-85925000D02*
G01*
X117025000Y-85925000D01*
X117025000Y-91675000D01*
X111275000Y-91675000D01*
X111275000Y-85925000D01*
G37*
G36*
X177275000Y-67925000D02*
G01*
X183025000Y-67925000D01*
X183025000Y-73675000D01*
X177275000Y-73675000D01*
X177275000Y-67925000D01*
G37*
G36*
X63275000Y-55925000D02*
G01*
X69025000Y-55925000D01*
X69025000Y-61675000D01*
X63275000Y-61675000D01*
X63275000Y-55925000D01*
G37*
G36*
X183275000Y-55925000D02*
G01*
X189025000Y-55925000D01*
X189025000Y-61675000D01*
X183275000Y-61675000D01*
X183275000Y-55925000D01*
G37*
G36*
X153275000Y-91925000D02*
G01*
X159025000Y-91925000D01*
X159025000Y-97675000D01*
X153275000Y-97675000D01*
X153275000Y-91925000D01*
G37*
G36*
X147275000Y-61925000D02*
G01*
X153025000Y-61925000D01*
X153025000Y-67675000D01*
X147275000Y-67675000D01*
X147275000Y-61925000D01*
G37*
G36*
X63275000Y-97925000D02*
G01*
X69025000Y-97925000D01*
X69025000Y-103675000D01*
X63275000Y-103675000D01*
X63275000Y-97925000D01*
G37*
G36*
X153275000Y-85925000D02*
G01*
X159025000Y-85925000D01*
X159025000Y-91675000D01*
X153275000Y-91675000D01*
X153275000Y-85925000D01*
G37*
G36*
X225275000Y-73925000D02*
G01*
X231025000Y-73925000D01*
X231025000Y-79675000D01*
X225275000Y-79675000D01*
X225275000Y-73925000D01*
G37*
G36*
X189275000Y-61925000D02*
G01*
X195025000Y-61925000D01*
X195025000Y-67675000D01*
X189275000Y-67675000D01*
X189275000Y-61925000D01*
G37*
G36*
X87275000Y-73925000D02*
G01*
X93025000Y-73925000D01*
X93025000Y-79675000D01*
X87275000Y-79675000D01*
X87275000Y-73925000D01*
G37*
G36*
X75275000Y-97925000D02*
G01*
X81025000Y-97925000D01*
X81025000Y-103675000D01*
X75275000Y-103675000D01*
X75275000Y-97925000D01*
G37*
G36*
X237275000Y-85925000D02*
G01*
X243025000Y-85925000D01*
X243025000Y-91675000D01*
X237275000Y-91675000D01*
X237275000Y-85925000D01*
G37*
G36*
X165275000Y-97925000D02*
G01*
X171025000Y-97925000D01*
X171025000Y-103675000D01*
X165275000Y-103675000D01*
X165275000Y-97925000D01*
G37*
G36*
X183275000Y-97925000D02*
G01*
X189025000Y-97925000D01*
X189025000Y-103675000D01*
X183275000Y-103675000D01*
X183275000Y-97925000D01*
G37*
G36*
X87275000Y-61925000D02*
G01*
X93025000Y-61925000D01*
X93025000Y-67675000D01*
X87275000Y-67675000D01*
X87275000Y-61925000D01*
G37*
G36*
X105275000Y-79925000D02*
G01*
X111025000Y-79925000D01*
X111025000Y-85675000D01*
X105275000Y-85675000D01*
X105275000Y-79925000D01*
G37*
G36*
X189275000Y-85925000D02*
G01*
X195025000Y-85925000D01*
X195025000Y-91675000D01*
X189275000Y-91675000D01*
X189275000Y-85925000D01*
G37*
G36*
X249275000Y-67925000D02*
G01*
X255025000Y-67925000D01*
X255025000Y-73675000D01*
X249275000Y-73675000D01*
X249275000Y-67925000D01*
G37*
G36*
X99275000Y-79925000D02*
G01*
X105025000Y-79925000D01*
X105025000Y-85675000D01*
X99275000Y-85675000D01*
X99275000Y-79925000D01*
G37*
G36*
X249275000Y-91925000D02*
G01*
X255025000Y-91925000D01*
X255025000Y-97675000D01*
X249275000Y-97675000D01*
X249275000Y-91925000D01*
G37*
G36*
X135275000Y-55925000D02*
G01*
X141025000Y-55925000D01*
X141025000Y-61675000D01*
X135275000Y-61675000D01*
X135275000Y-55925000D01*
G37*
G36*
X237275000Y-91925000D02*
G01*
X243025000Y-91925000D01*
X243025000Y-97675000D01*
X237275000Y-97675000D01*
X237275000Y-91925000D01*
G37*
G36*
X189275000Y-73925000D02*
G01*
X195025000Y-73925000D01*
X195025000Y-79675000D01*
X189275000Y-79675000D01*
X189275000Y-73925000D01*
G37*
G36*
X75275000Y-67925000D02*
G01*
X81025000Y-67925000D01*
X81025000Y-73675000D01*
X75275000Y-73675000D01*
X75275000Y-67925000D01*
G37*
G36*
X225275000Y-67925000D02*
G01*
X231025000Y-67925000D01*
X231025000Y-73675000D01*
X225275000Y-73675000D01*
X225275000Y-67925000D01*
G37*
G36*
X99275000Y-73925000D02*
G01*
X105025000Y-73925000D01*
X105025000Y-79675000D01*
X99275000Y-79675000D01*
X99275000Y-73925000D01*
G37*
G36*
X87275000Y-91925000D02*
G01*
X93025000Y-91925000D01*
X93025000Y-97675000D01*
X87275000Y-97675000D01*
X87275000Y-91925000D01*
G37*
G36*
X105275000Y-91925000D02*
G01*
X111025000Y-91925000D01*
X111025000Y-97675000D01*
X105275000Y-97675000D01*
X105275000Y-91925000D01*
G37*
G36*
X159275000Y-73925000D02*
G01*
X165025000Y-73925000D01*
X165025000Y-79675000D01*
X159275000Y-79675000D01*
X159275000Y-73925000D01*
G37*
G36*
X189275000Y-91925000D02*
G01*
X195025000Y-91925000D01*
X195025000Y-97675000D01*
X189275000Y-97675000D01*
X189275000Y-91925000D01*
G37*
G36*
X171275000Y-67925000D02*
G01*
X177025000Y-67925000D01*
X177025000Y-73675000D01*
X171275000Y-73675000D01*
X171275000Y-67925000D01*
G37*
G36*
X141275000Y-79925000D02*
G01*
X147025000Y-79925000D01*
X147025000Y-85675000D01*
X141275000Y-85675000D01*
X141275000Y-79925000D01*
G37*
G36*
X153275000Y-55925000D02*
G01*
X159025000Y-55925000D01*
X159025000Y-61675000D01*
X153275000Y-61675000D01*
X153275000Y-55925000D01*
G37*
G36*
X123275000Y-91925000D02*
G01*
X129025000Y-91925000D01*
X129025000Y-97675000D01*
X123275000Y-97675000D01*
X123275000Y-91925000D01*
G37*
G36*
X183275000Y-91925000D02*
G01*
X189025000Y-91925000D01*
X189025000Y-97675000D01*
X183275000Y-97675000D01*
X183275000Y-91925000D01*
G37*
G36*
X93275000Y-67925000D02*
G01*
X99025000Y-67925000D01*
X99025000Y-73675000D01*
X93275000Y-73675000D01*
X93275000Y-67925000D01*
G37*
G36*
X105275000Y-73925000D02*
G01*
X111025000Y-73925000D01*
X111025000Y-79675000D01*
X105275000Y-79675000D01*
X105275000Y-73925000D01*
G37*
G36*
X159275000Y-55925000D02*
G01*
X165025000Y-55925000D01*
X165025000Y-61675000D01*
X159275000Y-61675000D01*
X159275000Y-55925000D01*
G37*
G36*
X75275000Y-91925000D02*
G01*
X81025000Y-91925000D01*
X81025000Y-97675000D01*
X75275000Y-97675000D01*
X75275000Y-91925000D01*
G37*
G36*
X99275000Y-61925000D02*
G01*
X105025000Y-61925000D01*
X105025000Y-67675000D01*
X99275000Y-67675000D01*
X99275000Y-61925000D01*
G37*
G36*
X147275000Y-55925000D02*
G01*
X153025000Y-55925000D01*
X153025000Y-61675000D01*
X147275000Y-61675000D01*
X147275000Y-55925000D01*
G37*
G36*
X195275000Y-79925000D02*
G01*
X201025000Y-79925000D01*
X201025000Y-85675000D01*
X195275000Y-85675000D01*
X195275000Y-79925000D01*
G37*
G36*
X123275000Y-73925000D02*
G01*
X129025000Y-73925000D01*
X129025000Y-79675000D01*
X123275000Y-79675000D01*
X123275000Y-73925000D01*
G37*
G36*
X249275000Y-73925000D02*
G01*
X255025000Y-73925000D01*
X255025000Y-79675000D01*
X249275000Y-79675000D01*
X249275000Y-73925000D01*
G37*
G36*
X93275000Y-91925000D02*
G01*
X99025000Y-91925000D01*
X99025000Y-97675000D01*
X93275000Y-97675000D01*
X93275000Y-91925000D01*
G37*
G36*
X243275000Y-79925000D02*
G01*
X249025000Y-79925000D01*
X249025000Y-85675000D01*
X243275000Y-85675000D01*
X243275000Y-79925000D01*
G37*
G36*
X201275000Y-55925000D02*
G01*
X207025000Y-55925000D01*
X207025000Y-61675000D01*
X201275000Y-61675000D01*
X201275000Y-55925000D01*
G37*
G36*
X231275000Y-73925000D02*
G01*
X237025000Y-73925000D01*
X237025000Y-79675000D01*
X231275000Y-79675000D01*
X231275000Y-73925000D01*
G37*
G36*
X243275000Y-67925000D02*
G01*
X249025000Y-67925000D01*
X249025000Y-73675000D01*
X243275000Y-73675000D01*
X243275000Y-67925000D01*
G37*
G36*
X207275000Y-85925000D02*
G01*
X213025000Y-85925000D01*
X213025000Y-91675000D01*
X207275000Y-91675000D01*
X207275000Y-85925000D01*
G37*
G36*
X159275000Y-91925000D02*
G01*
X165025000Y-91925000D01*
X165025000Y-97675000D01*
X159275000Y-97675000D01*
X159275000Y-91925000D01*
G37*
G36*
X171275000Y-61925000D02*
G01*
X177025000Y-61925000D01*
X177025000Y-67675000D01*
X171275000Y-67675000D01*
X171275000Y-61925000D01*
G37*
G36*
X63275000Y-79925000D02*
G01*
X69025000Y-79925000D01*
X69025000Y-85675000D01*
X63275000Y-85675000D01*
X63275000Y-79925000D01*
G37*
G36*
X159275000Y-61925000D02*
G01*
X165025000Y-61925000D01*
X165025000Y-67675000D01*
X159275000Y-67675000D01*
X159275000Y-61925000D01*
G37*
G36*
X75275000Y-79925000D02*
G01*
X81025000Y-79925000D01*
X81025000Y-85675000D01*
X75275000Y-85675000D01*
X75275000Y-79925000D01*
G37*
G36*
X69275000Y-85925000D02*
G01*
X75025000Y-85925000D01*
X75025000Y-91675000D01*
X69275000Y-91675000D01*
X69275000Y-85925000D01*
G37*
G36*
X213275000Y-61925000D02*
G01*
X219025000Y-61925000D01*
X219025000Y-67675000D01*
X213275000Y-67675000D01*
X213275000Y-61925000D01*
G37*
G36*
X249275000Y-97925000D02*
G01*
X255025000Y-97925000D01*
X255025000Y-103675000D01*
X249275000Y-103675000D01*
X249275000Y-97925000D01*
G37*
G36*
X219275000Y-67925000D02*
G01*
X225025000Y-67925000D01*
X225025000Y-73675000D01*
X219275000Y-73675000D01*
X219275000Y-67925000D01*
G37*
G36*
X189275000Y-67925000D02*
G01*
X195025000Y-67925000D01*
X195025000Y-73675000D01*
X189275000Y-73675000D01*
X189275000Y-67925000D01*
G37*
G36*
X195275000Y-67925000D02*
G01*
X201025000Y-67925000D01*
X201025000Y-73675000D01*
X195275000Y-73675000D01*
X195275000Y-67925000D01*
G37*
G36*
X231275000Y-85925000D02*
G01*
X237025000Y-85925000D01*
X237025000Y-91675000D01*
X231275000Y-91675000D01*
X231275000Y-85925000D01*
G37*
G36*
X207275000Y-61925000D02*
G01*
X213025000Y-61925000D01*
X213025000Y-67675000D01*
X207275000Y-67675000D01*
X207275000Y-61925000D01*
G37*
G36*
X63275000Y-85925000D02*
G01*
X69025000Y-85925000D01*
X69025000Y-91675000D01*
X63275000Y-91675000D01*
X63275000Y-85925000D01*
G37*
G36*
X189275000Y-55925000D02*
G01*
X195025000Y-55925000D01*
X195025000Y-61675000D01*
X189275000Y-61675000D01*
X189275000Y-55925000D01*
G37*
G36*
X201275000Y-79925000D02*
G01*
X207025000Y-79925000D01*
X207025000Y-85675000D01*
X201275000Y-85675000D01*
X201275000Y-79925000D01*
G37*
G36*
X165275000Y-55925000D02*
G01*
X171025000Y-55925000D01*
X171025000Y-61675000D01*
X165275000Y-61675000D01*
X165275000Y-55925000D01*
G37*
G36*
X171275000Y-55925000D02*
G01*
X177025000Y-55925000D01*
X177025000Y-61675000D01*
X171275000Y-61675000D01*
X171275000Y-55925000D01*
G37*
G36*
X81275000Y-73925000D02*
G01*
X87025000Y-73925000D01*
X87025000Y-79675000D01*
X81275000Y-79675000D01*
X81275000Y-73925000D01*
G37*
G36*
X75275000Y-61925000D02*
G01*
X81025000Y-61925000D01*
X81025000Y-67675000D01*
X75275000Y-67675000D01*
X75275000Y-61925000D01*
G37*
G36*
X225275000Y-85925000D02*
G01*
X231025000Y-85925000D01*
X231025000Y-91675000D01*
X225275000Y-91675000D01*
X225275000Y-85925000D01*
G37*
G36*
X213275000Y-97925000D02*
G01*
X219025000Y-97925000D01*
X219025000Y-103675000D01*
X213275000Y-103675000D01*
X213275000Y-97925000D01*
G37*
G36*
X135275000Y-67925000D02*
G01*
X141025000Y-67925000D01*
X141025000Y-73675000D01*
X135275000Y-73675000D01*
X135275000Y-67925000D01*
G37*
G36*
X177275000Y-91925000D02*
G01*
X183025000Y-91925000D01*
X183025000Y-97675000D01*
X177275000Y-97675000D01*
X177275000Y-91925000D01*
G37*
G36*
X165275000Y-73925000D02*
G01*
X171025000Y-73925000D01*
X171025000Y-79675000D01*
X165275000Y-79675000D01*
X165275000Y-73925000D01*
G37*
G36*
X207275000Y-55925000D02*
G01*
X213025000Y-55925000D01*
X213025000Y-61675000D01*
X207275000Y-61675000D01*
X207275000Y-55925000D01*
G37*
G36*
X195275000Y-61925000D02*
G01*
X201025000Y-61925000D01*
X201025000Y-67675000D01*
X195275000Y-67675000D01*
X195275000Y-61925000D01*
G37*
G36*
X249275000Y-55925000D02*
G01*
X255025000Y-55925000D01*
X255025000Y-61675000D01*
X249275000Y-61675000D01*
X249275000Y-55925000D01*
G37*
G36*
X153275000Y-73925000D02*
G01*
X159025000Y-73925000D01*
X159025000Y-79675000D01*
X153275000Y-79675000D01*
X153275000Y-73925000D01*
G37*
G36*
X177275000Y-85925000D02*
G01*
X183025000Y-85925000D01*
X183025000Y-91675000D01*
X177275000Y-91675000D01*
X177275000Y-85925000D01*
G37*
G36*
X69275000Y-73925000D02*
G01*
X75025000Y-73925000D01*
X75025000Y-79675000D01*
X69275000Y-79675000D01*
X69275000Y-73925000D01*
G37*
G36*
X237275000Y-73925000D02*
G01*
X243025000Y-73925000D01*
X243025000Y-79675000D01*
X237275000Y-79675000D01*
X237275000Y-73925000D01*
G37*
G36*
X231275000Y-61925000D02*
G01*
X237025000Y-61925000D01*
X237025000Y-67675000D01*
X231275000Y-67675000D01*
X231275000Y-61925000D01*
G37*
G36*
X117275000Y-79925000D02*
G01*
X123025000Y-79925000D01*
X123025000Y-85675000D01*
X117275000Y-85675000D01*
X117275000Y-79925000D01*
G37*
G36*
X201275000Y-97925000D02*
G01*
X207025000Y-97925000D01*
X207025000Y-103675000D01*
X201275000Y-103675000D01*
X201275000Y-97925000D01*
G37*
G36*
X213275000Y-73925000D02*
G01*
X219025000Y-73925000D01*
X219025000Y-79675000D01*
X213275000Y-79675000D01*
X213275000Y-73925000D01*
G37*
G36*
X105275000Y-61925000D02*
G01*
X111025000Y-61925000D01*
X111025000Y-67675000D01*
X105275000Y-67675000D01*
X105275000Y-61925000D01*
G37*
G36*
X219275000Y-61925000D02*
G01*
X225025000Y-61925000D01*
X225025000Y-67675000D01*
X219275000Y-67675000D01*
X219275000Y-61925000D01*
G37*
G36*
X81275000Y-91925000D02*
G01*
X87025000Y-91925000D01*
X87025000Y-97675000D01*
X81275000Y-97675000D01*
X81275000Y-91925000D01*
G37*
G36*
X75275000Y-85925000D02*
G01*
X81025000Y-85925000D01*
X81025000Y-91675000D01*
X75275000Y-91675000D01*
X75275000Y-85925000D01*
G37*
G36*
X129275000Y-85925000D02*
G01*
X135025000Y-85925000D01*
X135025000Y-91675000D01*
X129275000Y-91675000D01*
X129275000Y-85925000D01*
G37*
G36*
X183275000Y-73925000D02*
G01*
X189025000Y-73925000D01*
X189025000Y-79675000D01*
X183275000Y-79675000D01*
X183275000Y-73925000D01*
G37*
G36*
X177275000Y-61925000D02*
G01*
X183025000Y-61925000D01*
X183025000Y-67675000D01*
X177275000Y-67675000D01*
X177275000Y-61925000D01*
G37*
G36*
X243275000Y-97925000D02*
G01*
X249025000Y-97925000D01*
X249025000Y-103675000D01*
X243275000Y-103675000D01*
X243275000Y-97925000D01*
G37*
G36*
X213275000Y-91925000D02*
G01*
X219025000Y-91925000D01*
X219025000Y-97675000D01*
X213275000Y-97675000D01*
X213275000Y-91925000D01*
G37*
G36*
X111275000Y-97925000D02*
G01*
X117025000Y-97925000D01*
X117025000Y-103675000D01*
X111275000Y-103675000D01*
X111275000Y-97925000D01*
G37*
G36*
X231275000Y-79925000D02*
G01*
X237025000Y-79925000D01*
X237025000Y-85675000D01*
X231275000Y-85675000D01*
X231275000Y-79925000D01*
G37*
G36*
X129275000Y-61925000D02*
G01*
X135025000Y-61925000D01*
X135025000Y-67675000D01*
X129275000Y-67675000D01*
X129275000Y-61925000D01*
G37*
G36*
X183275000Y-85925000D02*
G01*
X189025000Y-85925000D01*
X189025000Y-91675000D01*
X183275000Y-91675000D01*
X183275000Y-85925000D01*
G37*
G36*
X129275000Y-67925000D02*
G01*
X135025000Y-67925000D01*
X135025000Y-73675000D01*
X129275000Y-73675000D01*
X129275000Y-67925000D01*
G37*
G36*
X81275000Y-79925000D02*
G01*
X87025000Y-79925000D01*
X87025000Y-85675000D01*
X81275000Y-85675000D01*
X81275000Y-79925000D01*
G37*
G36*
X183275000Y-79925000D02*
G01*
X189025000Y-79925000D01*
X189025000Y-85675000D01*
X183275000Y-85675000D01*
X183275000Y-79925000D01*
G37*
G36*
X171275000Y-85925000D02*
G01*
X177025000Y-85925000D01*
X177025000Y-91675000D01*
X171275000Y-91675000D01*
X171275000Y-85925000D01*
G37*
G36*
X105275000Y-67925000D02*
G01*
X111025000Y-67925000D01*
X111025000Y-73675000D01*
X105275000Y-73675000D01*
X105275000Y-67925000D01*
G37*
G36*
X201275000Y-61925000D02*
G01*
X207025000Y-61925000D01*
X207025000Y-67675000D01*
X201275000Y-67675000D01*
X201275000Y-61925000D01*
G37*
G36*
X153275000Y-97925000D02*
G01*
X159025000Y-97925000D01*
X159025000Y-103675000D01*
X153275000Y-103675000D01*
X153275000Y-97925000D01*
G37*
G36*
X159275000Y-85925000D02*
G01*
X165025000Y-85925000D01*
X165025000Y-91675000D01*
X159275000Y-91675000D01*
X159275000Y-85925000D01*
G37*
G36*
X195275000Y-55925000D02*
G01*
X201025000Y-55925000D01*
X201025000Y-61675000D01*
X195275000Y-61675000D01*
X195275000Y-55925000D01*
G37*
G36*
X69275000Y-79925000D02*
G01*
X75025000Y-79925000D01*
X75025000Y-85675000D01*
X69275000Y-85675000D01*
X69275000Y-79925000D01*
G37*
G36*
X117275000Y-67925000D02*
G01*
X123025000Y-67925000D01*
X123025000Y-73675000D01*
X117275000Y-73675000D01*
X117275000Y-67925000D01*
G37*
G36*
X87275000Y-79925000D02*
G01*
X93025000Y-79925000D01*
X93025000Y-85675000D01*
X87275000Y-85675000D01*
X87275000Y-79925000D01*
G37*
G36*
X93275000Y-61925000D02*
G01*
X99025000Y-61925000D01*
X99025000Y-67675000D01*
X93275000Y-67675000D01*
X93275000Y-61925000D01*
G37*
G36*
X189275000Y-97925000D02*
G01*
X195025000Y-97925000D01*
X195025000Y-103675000D01*
X189275000Y-103675000D01*
X189275000Y-97925000D01*
G37*
G36*
X237275000Y-61925000D02*
G01*
X243025000Y-61925000D01*
X243025000Y-67675000D01*
X237275000Y-67675000D01*
X237275000Y-61925000D01*
G37*
G36*
X165275000Y-61925000D02*
G01*
X171025000Y-61925000D01*
X171025000Y-67675000D01*
X165275000Y-67675000D01*
X165275000Y-61925000D01*
G37*
G36*
X123275000Y-67925000D02*
G01*
X129025000Y-67925000D01*
X129025000Y-73675000D01*
X123275000Y-73675000D01*
X123275000Y-67925000D01*
G37*
G36*
X69275000Y-67925000D02*
G01*
X75025000Y-67925000D01*
X75025000Y-73675000D01*
X69275000Y-73675000D01*
X69275000Y-67925000D01*
G37*
G36*
X213275000Y-55925000D02*
G01*
X219025000Y-55925000D01*
X219025000Y-61675000D01*
X213275000Y-61675000D01*
X213275000Y-55925000D01*
G37*
G36*
X231275000Y-91925000D02*
G01*
X237025000Y-91925000D01*
X237025000Y-97675000D01*
X231275000Y-97675000D01*
X231275000Y-91925000D01*
G37*
G36*
X135275000Y-61925000D02*
G01*
X141025000Y-61925000D01*
X141025000Y-67675000D01*
X135275000Y-67675000D01*
X135275000Y-61925000D01*
G37*
G36*
X147275000Y-67925000D02*
G01*
X153025000Y-67925000D01*
X153025000Y-73675000D01*
X147275000Y-73675000D01*
X147275000Y-67925000D01*
G37*
G36*
X201275000Y-73925000D02*
G01*
X207025000Y-73925000D01*
X207025000Y-79675000D01*
X201275000Y-79675000D01*
X201275000Y-73925000D01*
G37*
G36*
X207275000Y-67925000D02*
G01*
X213025000Y-67925000D01*
X213025000Y-73675000D01*
X207275000Y-73675000D01*
X207275000Y-67925000D01*
G37*
G36*
X87275000Y-67925000D02*
G01*
X93025000Y-67925000D01*
X93025000Y-73675000D01*
X87275000Y-73675000D01*
X87275000Y-67925000D01*
G37*
G36*
X69275000Y-61925000D02*
G01*
X75025000Y-61925000D01*
X75025000Y-67675000D01*
X69275000Y-67675000D01*
X69275000Y-61925000D01*
G37*
G36*
X117275000Y-61925000D02*
G01*
X123025000Y-61925000D01*
X123025000Y-67675000D01*
X117275000Y-67675000D01*
X117275000Y-61925000D01*
G37*
G36*
X243275000Y-55925000D02*
G01*
X249025000Y-55925000D01*
X249025000Y-61675000D01*
X243275000Y-61675000D01*
X243275000Y-55925000D01*
G37*
G36*
X225275000Y-61925000D02*
G01*
X231025000Y-61925000D01*
X231025000Y-67675000D01*
X225275000Y-67675000D01*
X225275000Y-61925000D01*
G37*
G36*
X177275000Y-97925000D02*
G01*
X183025000Y-97925000D01*
X183025000Y-103675000D01*
X177275000Y-103675000D01*
X177275000Y-97925000D01*
G37*
G36*
X207275000Y-79925000D02*
G01*
X213025000Y-79925000D01*
X213025000Y-85675000D01*
X207275000Y-85675000D01*
X207275000Y-79925000D01*
G37*
G36*
X177275000Y-79925000D02*
G01*
X183025000Y-79925000D01*
X183025000Y-85675000D01*
X177275000Y-85675000D01*
X177275000Y-79925000D01*
G37*
G36*
X237275000Y-67925000D02*
G01*
X243025000Y-67925000D01*
X243025000Y-73675000D01*
X237275000Y-73675000D01*
X237275000Y-67925000D01*
G37*
G36*
X195275000Y-91925000D02*
G01*
X201025000Y-91925000D01*
X201025000Y-97675000D01*
X195275000Y-97675000D01*
X195275000Y-91925000D01*
G37*
G36*
X219275000Y-79925000D02*
G01*
X225025000Y-79925000D01*
X225025000Y-85675000D01*
X219275000Y-85675000D01*
X219275000Y-79925000D01*
G37*
G36*
X213275000Y-85925000D02*
G01*
X219025000Y-85925000D01*
X219025000Y-91675000D01*
X213275000Y-91675000D01*
X213275000Y-85925000D01*
G37*
G36*
X213275000Y-79925000D02*
G01*
X219025000Y-79925000D01*
X219025000Y-85675000D01*
X213275000Y-85675000D01*
X213275000Y-79925000D01*
G37*
G36*
X195275000Y-73925000D02*
G01*
X201025000Y-73925000D01*
X201025000Y-79675000D01*
X195275000Y-79675000D01*
X195275000Y-73925000D01*
G37*
G36*
X183275000Y-61925000D02*
G01*
X189025000Y-61925000D01*
X189025000Y-67675000D01*
X183275000Y-67675000D01*
X183275000Y-61925000D01*
G37*
G36*
X207275000Y-97925000D02*
G01*
X213025000Y-97925000D01*
X213025000Y-103675000D01*
X207275000Y-103675000D01*
X207275000Y-97925000D01*
G37*
G36*
X243275000Y-73925000D02*
G01*
X249025000Y-73925000D01*
X249025000Y-79675000D01*
X243275000Y-79675000D01*
X243275000Y-73925000D01*
G37*
G36*
X81275000Y-97925000D02*
G01*
X87025000Y-97925000D01*
X87025000Y-103675000D01*
X81275000Y-103675000D01*
X81275000Y-97925000D01*
G37*
G36*
X231275000Y-55925000D02*
G01*
X237025000Y-55925000D01*
X237025000Y-61675000D01*
X231275000Y-61675000D01*
X231275000Y-55925000D01*
G37*
G36*
X171275000Y-79925000D02*
G01*
X177025000Y-79925000D01*
X177025000Y-85675000D01*
X171275000Y-85675000D01*
X171275000Y-79925000D01*
G37*
G36*
X105275000Y-55925000D02*
G01*
X111025000Y-55925000D01*
X111025000Y-61675000D01*
X105275000Y-61675000D01*
X105275000Y-55925000D01*
G37*
G36*
X165275000Y-67925000D02*
G01*
X171025000Y-67925000D01*
X171025000Y-73675000D01*
X165275000Y-73675000D01*
X165275000Y-67925000D01*
G37*
G36*
X225275000Y-91925000D02*
G01*
X231025000Y-91925000D01*
X231025000Y-97675000D01*
X225275000Y-97675000D01*
X225275000Y-91925000D01*
G37*
G36*
X87275000Y-85925000D02*
G01*
X93025000Y-85925000D01*
X93025000Y-91675000D01*
X87275000Y-91675000D01*
X87275000Y-85925000D01*
G37*
G36*
X141275000Y-61925000D02*
G01*
X147025000Y-61925000D01*
X147025000Y-67675000D01*
X141275000Y-67675000D01*
X141275000Y-61925000D01*
G37*
G36*
X249275000Y-79925000D02*
G01*
X255025000Y-79925000D01*
X255025000Y-85675000D01*
X249275000Y-85675000D01*
X249275000Y-79925000D01*
G37*
G36*
X117275000Y-55925000D02*
G01*
X123025000Y-55925000D01*
X123025000Y-61675000D01*
X117275000Y-61675000D01*
X117275000Y-55925000D01*
G37*
G36*
X87275000Y-97925000D02*
G01*
X93025000Y-97925000D01*
X93025000Y-103675000D01*
X87275000Y-103675000D01*
X87275000Y-97925000D01*
G37*
G36*
X117275000Y-97925000D02*
G01*
X123025000Y-97925000D01*
X123025000Y-103675000D01*
X117275000Y-103675000D01*
X117275000Y-97925000D01*
G37*
G36*
X69275000Y-55925000D02*
G01*
X75025000Y-55925000D01*
X75025000Y-61675000D01*
X69275000Y-61675000D01*
X69275000Y-55925000D01*
G37*
G36*
X147275000Y-91925000D02*
G01*
X153025000Y-91925000D01*
X153025000Y-97675000D01*
X147275000Y-97675000D01*
X147275000Y-91925000D01*
G37*
G36*
X195275000Y-85925000D02*
G01*
X201025000Y-85925000D01*
X201025000Y-91675000D01*
X195275000Y-91675000D01*
X195275000Y-85925000D01*
G37*
G36*
X75275000Y-73925000D02*
G01*
X81025000Y-73925000D01*
X81025000Y-79675000D01*
X75275000Y-79675000D01*
X75275000Y-73925000D01*
G37*
G36*
X201275000Y-91925000D02*
G01*
X207025000Y-91925000D01*
X207025000Y-97675000D01*
X201275000Y-97675000D01*
X201275000Y-91925000D01*
G37*
G36*
X171275000Y-97925000D02*
G01*
X177025000Y-97925000D01*
X177025000Y-103675000D01*
X171275000Y-103675000D01*
X171275000Y-97925000D01*
G37*
G36*
X105275000Y-97925000D02*
G01*
X111025000Y-97925000D01*
X111025000Y-103675000D01*
X105275000Y-103675000D01*
X105275000Y-97925000D01*
G37*
G36*
X177275000Y-55925000D02*
G01*
X183025000Y-55925000D01*
X183025000Y-61675000D01*
X177275000Y-61675000D01*
X177275000Y-55925000D01*
G37*
G36*
X93275000Y-97925000D02*
G01*
X99025000Y-97925000D01*
X99025000Y-103675000D01*
X93275000Y-103675000D01*
X93275000Y-97925000D01*
G37*
G36*
X147275000Y-85925000D02*
G01*
X153025000Y-85925000D01*
X153025000Y-91675000D01*
X147275000Y-91675000D01*
X147275000Y-85925000D01*
G37*
G36*
X93275000Y-79925000D02*
G01*
X99025000Y-79925000D01*
X99025000Y-85675000D01*
X93275000Y-85675000D01*
X93275000Y-79925000D01*
G37*
G36*
X123275000Y-61925000D02*
G01*
X129025000Y-61925000D01*
X129025000Y-67675000D01*
X123275000Y-67675000D01*
X123275000Y-61925000D01*
G37*
G36*
X141275000Y-97925000D02*
G01*
X147025000Y-97925000D01*
X147025000Y-103675000D01*
X141275000Y-103675000D01*
X141275000Y-97925000D01*
G37*
G36*
X225275000Y-79925000D02*
G01*
X231025000Y-79925000D01*
X231025000Y-85675000D01*
X225275000Y-85675000D01*
X225275000Y-79925000D01*
G37*
G36*
X231275000Y-67925000D02*
G01*
X237025000Y-67925000D01*
X237025000Y-73675000D01*
X231275000Y-73675000D01*
X231275000Y-67925000D01*
G37*
G36*
X111275000Y-91925000D02*
G01*
X117025000Y-91925000D01*
X117025000Y-97675000D01*
X111275000Y-97675000D01*
X111275000Y-91925000D01*
G37*
G36*
X147275000Y-73925000D02*
G01*
X153025000Y-73925000D01*
X153025000Y-79675000D01*
X147275000Y-79675000D01*
X147275000Y-73925000D01*
G37*
G36*
X141275000Y-55925000D02*
G01*
X147025000Y-55925000D01*
X147025000Y-61675000D01*
X141275000Y-61675000D01*
X141275000Y-55925000D01*
G37*
G36*
X63275000Y-61925000D02*
G01*
X69025000Y-61925000D01*
X69025000Y-67675000D01*
X63275000Y-67675000D01*
X63275000Y-61925000D01*
G37*
G36*
X135275000Y-97925000D02*
G01*
X141025000Y-97925000D01*
X141025000Y-103675000D01*
X135275000Y-103675000D01*
X135275000Y-97925000D01*
G37*
G36*
X93275000Y-55925000D02*
G01*
X99025000Y-55925000D01*
X99025000Y-61675000D01*
X93275000Y-61675000D01*
X93275000Y-55925000D01*
G37*
G36*
X207275000Y-73925000D02*
G01*
X213025000Y-73925000D01*
X213025000Y-79675000D01*
X207275000Y-79675000D01*
X207275000Y-73925000D01*
G37*
G36*
X237275000Y-97925000D02*
G01*
X243025000Y-97925000D01*
X243025000Y-103675000D01*
X237275000Y-103675000D01*
X237275000Y-97925000D01*
G37*
G36*
X117275000Y-85925000D02*
G01*
X123025000Y-85925000D01*
X123025000Y-91675000D01*
X117275000Y-91675000D01*
X117275000Y-85925000D01*
G37*
G36*
X99275000Y-85925000D02*
G01*
X105025000Y-85925000D01*
X105025000Y-91675000D01*
X99275000Y-91675000D01*
X99275000Y-85925000D01*
G37*
G36*
X153275000Y-61925000D02*
G01*
X159025000Y-61925000D01*
X159025000Y-67675000D01*
X153275000Y-67675000D01*
X153275000Y-61925000D01*
G37*
G36*
X129275000Y-97925000D02*
G01*
X135025000Y-97925000D01*
X135025000Y-103675000D01*
X129275000Y-103675000D01*
X129275000Y-97925000D01*
G37*
G36*
X105275000Y-85925000D02*
G01*
X111025000Y-85925000D01*
X111025000Y-91675000D01*
X105275000Y-91675000D01*
X105275000Y-85925000D01*
G37*
G36*
X63275000Y-73925000D02*
G01*
X69025000Y-73925000D01*
X69025000Y-79675000D01*
X63275000Y-79675000D01*
X63275000Y-73925000D01*
G37*
G36*
X141275000Y-91925000D02*
G01*
X147025000Y-91925000D01*
X147025000Y-97675000D01*
X141275000Y-97675000D01*
X141275000Y-91925000D01*
G37*
G36*
X165275000Y-79925000D02*
G01*
X171025000Y-79925000D01*
X171025000Y-85675000D01*
X165275000Y-85675000D01*
X165275000Y-79925000D01*
G37*
G36*
X111275000Y-73925000D02*
G01*
X117025000Y-73925000D01*
X117025000Y-79675000D01*
X111275000Y-79675000D01*
X111275000Y-73925000D01*
G37*
G36*
X219275000Y-97925000D02*
G01*
X225025000Y-97925000D01*
X225025000Y-103675000D01*
X219275000Y-103675000D01*
X219275000Y-97925000D01*
G37*
G36*
X147275000Y-97925000D02*
G01*
X153025000Y-97925000D01*
X153025000Y-103675000D01*
X147275000Y-103675000D01*
X147275000Y-97925000D01*
G37*
G36*
X99275000Y-91925000D02*
G01*
X105025000Y-91925000D01*
X105025000Y-97675000D01*
X99275000Y-97675000D01*
X99275000Y-91925000D01*
G37*
G36*
X87275000Y-55925000D02*
G01*
X93025000Y-55925000D01*
X93025000Y-61675000D01*
X87275000Y-61675000D01*
X87275000Y-55925000D01*
G37*
G36*
X243275000Y-61925000D02*
G01*
X249025000Y-61925000D01*
X249025000Y-67675000D01*
X243275000Y-67675000D01*
X243275000Y-61925000D01*
G37*
G36*
X123275000Y-97925000D02*
G01*
X129025000Y-97925000D01*
X129025000Y-103675000D01*
X123275000Y-103675000D01*
X123275000Y-97925000D01*
G37*
G36*
X111275000Y-61925000D02*
G01*
X117025000Y-61925000D01*
X117025000Y-67675000D01*
X111275000Y-67675000D01*
X111275000Y-61925000D01*
G37*
G36*
X99275000Y-55925000D02*
G01*
X105025000Y-55925000D01*
X105025000Y-61675000D01*
X99275000Y-61675000D01*
X99275000Y-55925000D01*
G37*
G36*
X117275000Y-73925000D02*
G01*
X123025000Y-73925000D01*
X123025000Y-79675000D01*
X117275000Y-79675000D01*
X117275000Y-73925000D01*
G37*
G36*
X189275000Y-79925000D02*
G01*
X195025000Y-79925000D01*
X195025000Y-85675000D01*
X189275000Y-85675000D01*
X189275000Y-79925000D01*
G37*
G36*
X153275000Y-79925000D02*
G01*
X159025000Y-79925000D01*
X159025000Y-85675000D01*
X153275000Y-85675000D01*
X153275000Y-79925000D01*
G37*
G36*
X237275000Y-55925000D02*
G01*
X243025000Y-55925000D01*
X243025000Y-61675000D01*
X237275000Y-61675000D01*
X237275000Y-55925000D01*
G37*
G36*
X171275000Y-91925000D02*
G01*
X177025000Y-91925000D01*
X177025000Y-97675000D01*
X171275000Y-97675000D01*
X171275000Y-91925000D01*
G37*
G36*
X129275000Y-79925000D02*
G01*
X135025000Y-79925000D01*
X135025000Y-85675000D01*
X129275000Y-85675000D01*
X129275000Y-79925000D01*
G37*
G36*
X225275000Y-97925000D02*
G01*
X231025000Y-97925000D01*
X231025000Y-103675000D01*
X225275000Y-103675000D01*
X225275000Y-97925000D01*
G37*
G36*
X153275000Y-67925000D02*
G01*
X159025000Y-67925000D01*
X159025000Y-73675000D01*
X153275000Y-73675000D01*
X153275000Y-67925000D01*
G37*
G36*
X81275000Y-67925000D02*
G01*
X87025000Y-67925000D01*
X87025000Y-73675000D01*
X81275000Y-73675000D01*
X81275000Y-67925000D01*
G37*
G36*
X219275000Y-55925000D02*
G01*
X225025000Y-55925000D01*
X225025000Y-61675000D01*
X219275000Y-61675000D01*
X219275000Y-55925000D01*
G37*
G36*
X237275000Y-79925000D02*
G01*
X243025000Y-79925000D01*
X243025000Y-85675000D01*
X237275000Y-85675000D01*
X237275000Y-79925000D01*
G37*
G36*
X201275000Y-67925000D02*
G01*
X207025000Y-67925000D01*
X207025000Y-73675000D01*
X201275000Y-73675000D01*
X201275000Y-67925000D01*
G37*
G36*
X63275000Y-91925000D02*
G01*
X69025000Y-91925000D01*
X69025000Y-97675000D01*
X63275000Y-97675000D01*
X63275000Y-91925000D01*
G37*
G36*
X129275000Y-73925000D02*
G01*
X135025000Y-73925000D01*
X135025000Y-79675000D01*
X129275000Y-79675000D01*
X129275000Y-73925000D01*
G37*
G36*
X111275000Y-79925000D02*
G01*
X117025000Y-79925000D01*
X117025000Y-85675000D01*
X111275000Y-85675000D01*
X111275000Y-79925000D01*
G37*
G36*
X195275000Y-97925000D02*
G01*
X201025000Y-97925000D01*
X201025000Y-103675000D01*
X195275000Y-103675000D01*
X195275000Y-97925000D01*
G37*
G36*
X69275000Y-97925000D02*
G01*
X75025000Y-97925000D01*
X75025000Y-103675000D01*
X69275000Y-103675000D01*
X69275000Y-97925000D01*
G37*
G36*
X159275000Y-79925000D02*
G01*
X165025000Y-79925000D01*
X165025000Y-85675000D01*
X159275000Y-85675000D01*
X159275000Y-79925000D01*
G37*
G36*
X177275000Y-73925000D02*
G01*
X183025000Y-73925000D01*
X183025000Y-79675000D01*
X177275000Y-79675000D01*
X177275000Y-73925000D01*
G37*
G36*
X219275000Y-73925000D02*
G01*
X225025000Y-73925000D01*
X225025000Y-79675000D01*
X219275000Y-79675000D01*
X219275000Y-73925000D01*
G37*
G36*
X123275000Y-55925000D02*
G01*
X129025000Y-55925000D01*
X129025000Y-61675000D01*
X123275000Y-61675000D01*
X123275000Y-55925000D01*
G37*
G36*
X69275000Y-91925000D02*
G01*
X75025000Y-91925000D01*
X75025000Y-97675000D01*
X69275000Y-97675000D01*
X69275000Y-91925000D01*
G37*
G36*
X63275000Y-67925000D02*
G01*
X69025000Y-67925000D01*
X69025000Y-73675000D01*
X63275000Y-73675000D01*
X63275000Y-67925000D01*
G37*
G36*
X249275000Y-61925000D02*
G01*
X255025000Y-61925000D01*
X255025000Y-67675000D01*
X249275000Y-67675000D01*
X249275000Y-61925000D01*
G37*
G36*
X207275000Y-91925000D02*
G01*
X213025000Y-91925000D01*
X213025000Y-97675000D01*
X207275000Y-97675000D01*
X207275000Y-91925000D01*
G37*
G36*
X219275000Y-85925000D02*
G01*
X225025000Y-85925000D01*
X225025000Y-91675000D01*
X219275000Y-91675000D01*
X219275000Y-85925000D01*
G37*
G36*
X123275000Y-79925000D02*
G01*
X129025000Y-79925000D01*
X129025000Y-85675000D01*
X123275000Y-85675000D01*
X123275000Y-79925000D01*
G37*
G36*
X99275000Y-97925000D02*
G01*
X105025000Y-97925000D01*
X105025000Y-103675000D01*
X99275000Y-103675000D01*
X99275000Y-97925000D01*
G37*
G36*
X129275000Y-91925000D02*
G01*
X135025000Y-91925000D01*
X135025000Y-97675000D01*
X129275000Y-97675000D01*
X129275000Y-91925000D01*
G37*
G36*
X75275000Y-55925000D02*
G01*
X81025000Y-55925000D01*
X81025000Y-61675000D01*
X75275000Y-61675000D01*
X75275000Y-55925000D01*
G37*
G36*
X93275000Y-73925000D02*
G01*
X99025000Y-73925000D01*
X99025000Y-79675000D01*
X93275000Y-79675000D01*
X93275000Y-73925000D01*
G37*
G36*
X135275000Y-85925000D02*
G01*
X141025000Y-85925000D01*
X141025000Y-91675000D01*
X135275000Y-91675000D01*
X135275000Y-85925000D01*
G37*
G36*
X81275000Y-61925000D02*
G01*
X87025000Y-61925000D01*
X87025000Y-67675000D01*
X81275000Y-67675000D01*
X81275000Y-61925000D01*
G37*
G36*
X159275000Y-67925000D02*
G01*
X165025000Y-67925000D01*
X165025000Y-73675000D01*
X159275000Y-73675000D01*
X159275000Y-67925000D01*
G37*
G36*
X243275000Y-85925000D02*
G01*
X249025000Y-85925000D01*
X249025000Y-91675000D01*
X243275000Y-91675000D01*
X243275000Y-85925000D01*
G37*
G36*
X147275000Y-79925000D02*
G01*
X153025000Y-79925000D01*
X153025000Y-85675000D01*
X147275000Y-85675000D01*
X147275000Y-79925000D01*
G37*
G36*
X213275000Y-67925000D02*
G01*
X219025000Y-67925000D01*
X219025000Y-73675000D01*
X213275000Y-73675000D01*
X213275000Y-67925000D01*
G37*
G36*
X249275000Y-85925000D02*
G01*
X255025000Y-85925000D01*
X255025000Y-91675000D01*
X249275000Y-91675000D01*
X249275000Y-85925000D01*
G37*
G36*
X183275000Y-67925000D02*
G01*
X189025000Y-67925000D01*
X189025000Y-73675000D01*
X183275000Y-73675000D01*
X183275000Y-67925000D01*
G37*
G36*
X129275000Y-55925000D02*
G01*
X135025000Y-55925000D01*
X135025000Y-61675000D01*
X129275000Y-61675000D01*
X129275000Y-55925000D01*
G37*
G36*
X171275000Y-73925000D02*
G01*
X177025000Y-73925000D01*
X177025000Y-79675000D01*
X171275000Y-79675000D01*
X171275000Y-73925000D01*
G37*
G36*
X165275000Y-91925000D02*
G01*
X171025000Y-91925000D01*
X171025000Y-97675000D01*
X165275000Y-97675000D01*
X165275000Y-91925000D01*
G37*
G36*
X141275000Y-85925000D02*
G01*
X147025000Y-85925000D01*
X147025000Y-91675000D01*
X141275000Y-91675000D01*
X141275000Y-85925000D01*
G37*
G36*
X159275000Y-97925000D02*
G01*
X165025000Y-97925000D01*
X165025000Y-103675000D01*
X159275000Y-103675000D01*
X159275000Y-97925000D01*
G37*
M02*
