M48
; DRILL file {KiCad 6.0.8+dfsg-1~bpo11+1} date Fri 24 Mar 2023 06:53:24 PM EDT
; FORMAT={-:-/ absolute / metric / decimal}
; #@! TF.CreationDate,2023-03-24T18:53:24-04:00
; #@! TF.GenerationSoftware,Kicad,Pcbnew,6.0.8+dfsg-1~bpo11+1
; #@! TF.FileFunction,Plated,1,2,PTH
FMAT,2
METRIC
; #@! TA.AperFunction,Plated,PTH,ViaDrill
T1C0.200
%
G90
G05
T1
X66.15Y-57.825
X66.15Y-63.825
X66.15Y-69.825
X66.15Y-75.825
X66.15Y-81.825
X66.15Y-87.825
X66.15Y-93.825
X66.15Y-99.825
X66.15Y-101.775
X72.15Y-57.825
X72.15Y-63.825
X72.15Y-69.825
X72.15Y-75.825
X72.15Y-81.825
X72.15Y-87.825
X72.15Y-93.825
X72.15Y-99.825
X72.15Y-101.775
X78.15Y-57.825
X78.15Y-63.825
X78.15Y-69.825
X78.15Y-75.825
X78.15Y-81.825
X78.15Y-87.825
X78.15Y-93.825
X78.15Y-99.825
X78.15Y-101.775
X84.15Y-57.825
X84.15Y-63.825
X84.15Y-69.825
X84.15Y-75.825
X84.15Y-81.825
X84.15Y-87.825
X84.15Y-93.825
X84.15Y-99.825
X84.15Y-101.775
X90.15Y-57.825
X90.15Y-63.825
X90.15Y-69.825
X90.15Y-75.825
X90.15Y-81.825
X90.15Y-87.825
X90.15Y-93.825
X90.15Y-99.825
X90.15Y-101.775
X96.15Y-57.825
X96.15Y-63.825
X96.15Y-69.825
X96.15Y-75.825
X96.15Y-81.825
X96.15Y-87.825
X96.15Y-93.825
X96.15Y-99.825
X96.15Y-101.775
X102.15Y-57.825
X102.15Y-63.825
X102.15Y-69.825
X102.15Y-75.825
X102.15Y-81.825
X102.15Y-87.825
X102.15Y-93.825
X102.15Y-99.825
X102.15Y-101.775
X108.15Y-57.825
X108.15Y-63.825
X108.15Y-69.825
X108.15Y-75.825
X108.15Y-81.825
X108.15Y-87.825
X108.15Y-93.825
X108.15Y-99.825
X108.15Y-101.775
X114.15Y-57.825
X114.15Y-63.825
X114.15Y-69.825
X114.15Y-75.825
X114.15Y-81.825
X114.15Y-87.825
X114.15Y-93.825
X114.15Y-99.825
X114.15Y-101.775
X120.15Y-57.825
X120.15Y-63.825
X120.15Y-69.825
X120.15Y-75.825
X120.15Y-81.825
X120.15Y-87.825
X120.15Y-93.825
X120.15Y-99.825
X120.15Y-101.775
X126.15Y-57.825
X126.15Y-63.825
X126.15Y-69.825
X126.15Y-75.825
X126.15Y-81.825
X126.15Y-87.825
X126.15Y-93.825
X126.15Y-99.825
X126.15Y-101.775
X132.15Y-57.825
X132.15Y-63.825
X132.15Y-69.825
X132.15Y-75.825
X132.15Y-81.825
X132.15Y-87.825
X132.15Y-93.825
X132.15Y-99.825
X132.15Y-101.775
X138.15Y-57.825
X138.15Y-63.825
X138.15Y-69.825
X138.15Y-75.825
X138.15Y-81.825
X138.15Y-87.825
X138.15Y-93.825
X138.15Y-99.825
X138.15Y-101.775
X144.15Y-57.825
X144.15Y-63.825
X144.15Y-69.825
X144.15Y-75.825
X144.15Y-81.825
X144.15Y-87.825
X144.15Y-93.825
X144.15Y-99.825
X144.15Y-101.775
X150.15Y-57.825
X150.15Y-63.825
X150.15Y-69.825
X150.15Y-75.825
X150.15Y-81.825
X150.15Y-87.825
X150.15Y-93.825
X150.15Y-99.825
X150.15Y-101.775
X156.15Y-57.825
X156.15Y-63.825
X156.15Y-69.825
X156.15Y-75.825
X156.15Y-81.825
X156.15Y-87.825
X156.15Y-93.825
X156.15Y-99.825
X156.15Y-101.775
X162.15Y-57.825
X162.15Y-63.825
X162.15Y-69.825
X162.15Y-75.825
X162.15Y-81.825
X162.15Y-87.825
X162.15Y-93.825
X162.15Y-99.825
X162.15Y-101.775
X168.15Y-57.825
X168.15Y-63.825
X168.15Y-69.825
X168.15Y-75.825
X168.15Y-81.825
X168.15Y-87.825
X168.15Y-93.825
X168.15Y-99.825
X168.15Y-101.775
X174.15Y-57.825
X174.15Y-63.825
X174.15Y-69.825
X174.15Y-75.825
X174.15Y-81.825
X174.15Y-87.825
X174.15Y-93.825
X174.15Y-99.825
X174.15Y-101.775
X180.15Y-57.825
X180.15Y-63.825
X180.15Y-69.825
X180.15Y-75.825
X180.15Y-81.825
X180.15Y-87.825
X180.15Y-93.825
X180.15Y-99.825
X180.15Y-101.775
X186.15Y-57.825
X186.15Y-63.825
X186.15Y-69.825
X186.15Y-75.825
X186.15Y-81.825
X186.15Y-87.825
X186.15Y-93.825
X186.15Y-99.825
X186.15Y-101.775
X192.15Y-57.825
X192.15Y-63.825
X192.15Y-69.825
X192.15Y-75.825
X192.15Y-81.825
X192.15Y-87.825
X192.15Y-93.825
X192.15Y-99.825
X192.15Y-101.775
X198.15Y-57.825
X198.15Y-63.825
X198.15Y-69.825
X198.15Y-75.825
X198.15Y-81.825
X198.15Y-87.825
X198.15Y-93.825
X198.15Y-99.825
X198.15Y-101.775
X204.15Y-57.825
X204.15Y-63.825
X204.15Y-69.825
X204.15Y-75.825
X204.15Y-81.825
X204.15Y-87.825
X204.15Y-93.825
X204.15Y-99.825
X204.15Y-101.775
X210.15Y-57.825
X210.15Y-63.825
X210.15Y-69.825
X210.15Y-75.825
X210.15Y-81.825
X210.15Y-87.825
X210.15Y-93.825
X210.15Y-99.825
X210.15Y-101.775
X216.15Y-57.825
X216.15Y-63.825
X216.15Y-69.825
X216.15Y-75.825
X216.15Y-81.825
X216.15Y-87.825
X216.15Y-93.825
X216.15Y-99.825
X216.15Y-101.775
X222.15Y-57.825
X222.15Y-63.825
X222.15Y-69.825
X222.15Y-75.825
X222.15Y-81.825
X222.15Y-87.825
X222.15Y-93.825
X222.15Y-99.825
X222.15Y-101.775
X228.15Y-57.825
X228.15Y-63.825
X228.15Y-69.825
X228.15Y-75.825
X228.15Y-81.825
X228.15Y-87.825
X228.15Y-93.825
X228.15Y-99.825
X228.15Y-101.775
X234.15Y-57.825
X234.15Y-63.825
X234.15Y-69.825
X234.15Y-75.825
X234.15Y-81.825
X234.15Y-87.825
X234.15Y-93.825
X234.15Y-99.825
X234.15Y-101.775
X240.15Y-57.825
X240.15Y-63.825
X240.15Y-69.825
X240.15Y-75.825
X240.15Y-81.825
X240.15Y-87.825
X240.15Y-93.825
X240.15Y-99.825
X240.15Y-101.775
X246.15Y-57.825
X246.15Y-63.825
X246.15Y-69.825
X246.15Y-75.825
X246.15Y-81.825
X246.15Y-87.825
X246.15Y-93.825
X246.15Y-99.825
X246.15Y-101.775
X252.15Y-57.825
X252.15Y-63.825
X252.15Y-69.825
X252.15Y-75.825
X252.15Y-81.825
X252.15Y-87.825
X252.15Y-93.825
X252.15Y-99.825
X252.15Y-101.775
X255.075Y-58.825
X255.075Y-64.825
X255.075Y-70.825
X255.075Y-76.825
X255.075Y-82.825
X255.075Y-88.825
X255.075Y-94.825
X255.075Y-100.825
T0
M30
