%TF.GenerationSoftware,KiCad,Pcbnew,6.0.8+dfsg-1~bpo11+1*%
%TF.CreationDate,2023-03-24T18:53:23-04:00*%
%TF.ProjectId,captouch_sensor_diamond_large_gaps,63617074-6f75-4636-985f-73656e736f72,rev?*%
%TF.SameCoordinates,Original*%
%TF.FileFunction,Drillmap*%
%TF.FilePolarity,Positive*%
%FSLAX45Y45*%
G04 Gerber Fmt 4.5, Leading zero omitted, Abs format (unit mm)*
G04 Created by KiCad (PCBNEW 6.0.8+dfsg-1~bpo11+1) date 2023-03-24 18:53:23*
%MOMM*%
%LPD*%
G01*
G04 APERTURE LIST*
%ADD10C,0.100000*%
%ADD11C,0.200000*%
%ADD12C,0.020000*%
G04 APERTURE END LIST*
D10*
X4217500Y-4700000D02*
X27005000Y-4700000D01*
X27005000Y-4700000D02*
X27005000Y-11355000D01*
X27005000Y-11355000D02*
X4217500Y-11355000D01*
X4217500Y-11355000D02*
X4217500Y-4700000D01*
D11*
D12*
X6605000Y-5772500D02*
X6625000Y-5792500D01*
X6625000Y-5772500D02*
X6605000Y-5792500D01*
X6605000Y-6372500D02*
X6625000Y-6392500D01*
X6625000Y-6372500D02*
X6605000Y-6392500D01*
X6605000Y-6972500D02*
X6625000Y-6992500D01*
X6625000Y-6972500D02*
X6605000Y-6992500D01*
X6605000Y-7572500D02*
X6625000Y-7592500D01*
X6625000Y-7572500D02*
X6605000Y-7592500D01*
X6605000Y-8172500D02*
X6625000Y-8192500D01*
X6625000Y-8172500D02*
X6605000Y-8192500D01*
X6605000Y-8772500D02*
X6625000Y-8792500D01*
X6625000Y-8772500D02*
X6605000Y-8792500D01*
X6605000Y-9372500D02*
X6625000Y-9392500D01*
X6625000Y-9372500D02*
X6605000Y-9392500D01*
X6605000Y-9972500D02*
X6625000Y-9992500D01*
X6625000Y-9972500D02*
X6605000Y-9992500D01*
X6605000Y-10167500D02*
X6625000Y-10187500D01*
X6625000Y-10167500D02*
X6605000Y-10187500D01*
X7205000Y-5772500D02*
X7225000Y-5792500D01*
X7225000Y-5772500D02*
X7205000Y-5792500D01*
X7205000Y-6372500D02*
X7225000Y-6392500D01*
X7225000Y-6372500D02*
X7205000Y-6392500D01*
X7205000Y-6972500D02*
X7225000Y-6992500D01*
X7225000Y-6972500D02*
X7205000Y-6992500D01*
X7205000Y-7572500D02*
X7225000Y-7592500D01*
X7225000Y-7572500D02*
X7205000Y-7592500D01*
X7205000Y-8172500D02*
X7225000Y-8192500D01*
X7225000Y-8172500D02*
X7205000Y-8192500D01*
X7205000Y-8772500D02*
X7225000Y-8792500D01*
X7225000Y-8772500D02*
X7205000Y-8792500D01*
X7205000Y-9372500D02*
X7225000Y-9392500D01*
X7225000Y-9372500D02*
X7205000Y-9392500D01*
X7205000Y-9972500D02*
X7225000Y-9992500D01*
X7225000Y-9972500D02*
X7205000Y-9992500D01*
X7205000Y-10167500D02*
X7225000Y-10187500D01*
X7225000Y-10167500D02*
X7205000Y-10187500D01*
X7805000Y-5772500D02*
X7825000Y-5792500D01*
X7825000Y-5772500D02*
X7805000Y-5792500D01*
X7805000Y-6372500D02*
X7825000Y-6392500D01*
X7825000Y-6372500D02*
X7805000Y-6392500D01*
X7805000Y-6972500D02*
X7825000Y-6992500D01*
X7825000Y-6972500D02*
X7805000Y-6992500D01*
X7805000Y-7572500D02*
X7825000Y-7592500D01*
X7825000Y-7572500D02*
X7805000Y-7592500D01*
X7805000Y-8172500D02*
X7825000Y-8192500D01*
X7825000Y-8172500D02*
X7805000Y-8192500D01*
X7805000Y-8772500D02*
X7825000Y-8792500D01*
X7825000Y-8772500D02*
X7805000Y-8792500D01*
X7805000Y-9372500D02*
X7825000Y-9392500D01*
X7825000Y-9372500D02*
X7805000Y-9392500D01*
X7805000Y-9972500D02*
X7825000Y-9992500D01*
X7825000Y-9972500D02*
X7805000Y-9992500D01*
X7805000Y-10167500D02*
X7825000Y-10187500D01*
X7825000Y-10167500D02*
X7805000Y-10187500D01*
X8405000Y-5772500D02*
X8425000Y-5792500D01*
X8425000Y-5772500D02*
X8405000Y-5792500D01*
X8405000Y-6372500D02*
X8425000Y-6392500D01*
X8425000Y-6372500D02*
X8405000Y-6392500D01*
X8405000Y-6972500D02*
X8425000Y-6992500D01*
X8425000Y-6972500D02*
X8405000Y-6992500D01*
X8405000Y-7572500D02*
X8425000Y-7592500D01*
X8425000Y-7572500D02*
X8405000Y-7592500D01*
X8405000Y-8172500D02*
X8425000Y-8192500D01*
X8425000Y-8172500D02*
X8405000Y-8192500D01*
X8405000Y-8772500D02*
X8425000Y-8792500D01*
X8425000Y-8772500D02*
X8405000Y-8792500D01*
X8405000Y-9372500D02*
X8425000Y-9392500D01*
X8425000Y-9372500D02*
X8405000Y-9392500D01*
X8405000Y-9972500D02*
X8425000Y-9992500D01*
X8425000Y-9972500D02*
X8405000Y-9992500D01*
X8405000Y-10167500D02*
X8425000Y-10187500D01*
X8425000Y-10167500D02*
X8405000Y-10187500D01*
X9005000Y-5772500D02*
X9025000Y-5792500D01*
X9025000Y-5772500D02*
X9005000Y-5792500D01*
X9005000Y-6372500D02*
X9025000Y-6392500D01*
X9025000Y-6372500D02*
X9005000Y-6392500D01*
X9005000Y-6972500D02*
X9025000Y-6992500D01*
X9025000Y-6972500D02*
X9005000Y-6992500D01*
X9005000Y-7572500D02*
X9025000Y-7592500D01*
X9025000Y-7572500D02*
X9005000Y-7592500D01*
X9005000Y-8172500D02*
X9025000Y-8192500D01*
X9025000Y-8172500D02*
X9005000Y-8192500D01*
X9005000Y-8772500D02*
X9025000Y-8792500D01*
X9025000Y-8772500D02*
X9005000Y-8792500D01*
X9005000Y-9372500D02*
X9025000Y-9392500D01*
X9025000Y-9372500D02*
X9005000Y-9392500D01*
X9005000Y-9972500D02*
X9025000Y-9992500D01*
X9025000Y-9972500D02*
X9005000Y-9992500D01*
X9005000Y-10167500D02*
X9025000Y-10187500D01*
X9025000Y-10167500D02*
X9005000Y-10187500D01*
X9605000Y-5772500D02*
X9625000Y-5792500D01*
X9625000Y-5772500D02*
X9605000Y-5792500D01*
X9605000Y-6372500D02*
X9625000Y-6392500D01*
X9625000Y-6372500D02*
X9605000Y-6392500D01*
X9605000Y-6972500D02*
X9625000Y-6992500D01*
X9625000Y-6972500D02*
X9605000Y-6992500D01*
X9605000Y-7572500D02*
X9625000Y-7592500D01*
X9625000Y-7572500D02*
X9605000Y-7592500D01*
X9605000Y-8172500D02*
X9625000Y-8192500D01*
X9625000Y-8172500D02*
X9605000Y-8192500D01*
X9605000Y-8772500D02*
X9625000Y-8792500D01*
X9625000Y-8772500D02*
X9605000Y-8792500D01*
X9605000Y-9372500D02*
X9625000Y-9392500D01*
X9625000Y-9372500D02*
X9605000Y-9392500D01*
X9605000Y-9972500D02*
X9625000Y-9992500D01*
X9625000Y-9972500D02*
X9605000Y-9992500D01*
X9605000Y-10167500D02*
X9625000Y-10187500D01*
X9625000Y-10167500D02*
X9605000Y-10187500D01*
X10205000Y-5772500D02*
X10225000Y-5792500D01*
X10225000Y-5772500D02*
X10205000Y-5792500D01*
X10205000Y-6372500D02*
X10225000Y-6392500D01*
X10225000Y-6372500D02*
X10205000Y-6392500D01*
X10205000Y-6972500D02*
X10225000Y-6992500D01*
X10225000Y-6972500D02*
X10205000Y-6992500D01*
X10205000Y-7572500D02*
X10225000Y-7592500D01*
X10225000Y-7572500D02*
X10205000Y-7592500D01*
X10205000Y-8172500D02*
X10225000Y-8192500D01*
X10225000Y-8172500D02*
X10205000Y-8192500D01*
X10205000Y-8772500D02*
X10225000Y-8792500D01*
X10225000Y-8772500D02*
X10205000Y-8792500D01*
X10205000Y-9372500D02*
X10225000Y-9392500D01*
X10225000Y-9372500D02*
X10205000Y-9392500D01*
X10205000Y-9972500D02*
X10225000Y-9992500D01*
X10225000Y-9972500D02*
X10205000Y-9992500D01*
X10205000Y-10167500D02*
X10225000Y-10187500D01*
X10225000Y-10167500D02*
X10205000Y-10187500D01*
X10805000Y-5772500D02*
X10825000Y-5792500D01*
X10825000Y-5772500D02*
X10805000Y-5792500D01*
X10805000Y-6372500D02*
X10825000Y-6392500D01*
X10825000Y-6372500D02*
X10805000Y-6392500D01*
X10805000Y-6972500D02*
X10825000Y-6992500D01*
X10825000Y-6972500D02*
X10805000Y-6992500D01*
X10805000Y-7572500D02*
X10825000Y-7592500D01*
X10825000Y-7572500D02*
X10805000Y-7592500D01*
X10805000Y-8172500D02*
X10825000Y-8192500D01*
X10825000Y-8172500D02*
X10805000Y-8192500D01*
X10805000Y-8772500D02*
X10825000Y-8792500D01*
X10825000Y-8772500D02*
X10805000Y-8792500D01*
X10805000Y-9372500D02*
X10825000Y-9392500D01*
X10825000Y-9372500D02*
X10805000Y-9392500D01*
X10805000Y-9972500D02*
X10825000Y-9992500D01*
X10825000Y-9972500D02*
X10805000Y-9992500D01*
X10805000Y-10167500D02*
X10825000Y-10187500D01*
X10825000Y-10167500D02*
X10805000Y-10187500D01*
X11405000Y-5772500D02*
X11425000Y-5792500D01*
X11425000Y-5772500D02*
X11405000Y-5792500D01*
X11405000Y-6372500D02*
X11425000Y-6392500D01*
X11425000Y-6372500D02*
X11405000Y-6392500D01*
X11405000Y-6972500D02*
X11425000Y-6992500D01*
X11425000Y-6972500D02*
X11405000Y-6992500D01*
X11405000Y-7572500D02*
X11425000Y-7592500D01*
X11425000Y-7572500D02*
X11405000Y-7592500D01*
X11405000Y-8172500D02*
X11425000Y-8192500D01*
X11425000Y-8172500D02*
X11405000Y-8192500D01*
X11405000Y-8772500D02*
X11425000Y-8792500D01*
X11425000Y-8772500D02*
X11405000Y-8792500D01*
X11405000Y-9372500D02*
X11425000Y-9392500D01*
X11425000Y-9372500D02*
X11405000Y-9392500D01*
X11405000Y-9972500D02*
X11425000Y-9992500D01*
X11425000Y-9972500D02*
X11405000Y-9992500D01*
X11405000Y-10167500D02*
X11425000Y-10187500D01*
X11425000Y-10167500D02*
X11405000Y-10187500D01*
X12005000Y-5772500D02*
X12025000Y-5792500D01*
X12025000Y-5772500D02*
X12005000Y-5792500D01*
X12005000Y-6372500D02*
X12025000Y-6392500D01*
X12025000Y-6372500D02*
X12005000Y-6392500D01*
X12005000Y-6972500D02*
X12025000Y-6992500D01*
X12025000Y-6972500D02*
X12005000Y-6992500D01*
X12005000Y-7572500D02*
X12025000Y-7592500D01*
X12025000Y-7572500D02*
X12005000Y-7592500D01*
X12005000Y-8172500D02*
X12025000Y-8192500D01*
X12025000Y-8172500D02*
X12005000Y-8192500D01*
X12005000Y-8772500D02*
X12025000Y-8792500D01*
X12025000Y-8772500D02*
X12005000Y-8792500D01*
X12005000Y-9372500D02*
X12025000Y-9392500D01*
X12025000Y-9372500D02*
X12005000Y-9392500D01*
X12005000Y-9972500D02*
X12025000Y-9992500D01*
X12025000Y-9972500D02*
X12005000Y-9992500D01*
X12005000Y-10167500D02*
X12025000Y-10187500D01*
X12025000Y-10167500D02*
X12005000Y-10187500D01*
X12605000Y-5772500D02*
X12625000Y-5792500D01*
X12625000Y-5772500D02*
X12605000Y-5792500D01*
X12605000Y-6372500D02*
X12625000Y-6392500D01*
X12625000Y-6372500D02*
X12605000Y-6392500D01*
X12605000Y-6972500D02*
X12625000Y-6992500D01*
X12625000Y-6972500D02*
X12605000Y-6992500D01*
X12605000Y-7572500D02*
X12625000Y-7592500D01*
X12625000Y-7572500D02*
X12605000Y-7592500D01*
X12605000Y-8172500D02*
X12625000Y-8192500D01*
X12625000Y-8172500D02*
X12605000Y-8192500D01*
X12605000Y-8772500D02*
X12625000Y-8792500D01*
X12625000Y-8772500D02*
X12605000Y-8792500D01*
X12605000Y-9372500D02*
X12625000Y-9392500D01*
X12625000Y-9372500D02*
X12605000Y-9392500D01*
X12605000Y-9972500D02*
X12625000Y-9992500D01*
X12625000Y-9972500D02*
X12605000Y-9992500D01*
X12605000Y-10167500D02*
X12625000Y-10187500D01*
X12625000Y-10167500D02*
X12605000Y-10187500D01*
X13205000Y-5772500D02*
X13225000Y-5792500D01*
X13225000Y-5772500D02*
X13205000Y-5792500D01*
X13205000Y-6372500D02*
X13225000Y-6392500D01*
X13225000Y-6372500D02*
X13205000Y-6392500D01*
X13205000Y-6972500D02*
X13225000Y-6992500D01*
X13225000Y-6972500D02*
X13205000Y-6992500D01*
X13205000Y-7572500D02*
X13225000Y-7592500D01*
X13225000Y-7572500D02*
X13205000Y-7592500D01*
X13205000Y-8172500D02*
X13225000Y-8192500D01*
X13225000Y-8172500D02*
X13205000Y-8192500D01*
X13205000Y-8772500D02*
X13225000Y-8792500D01*
X13225000Y-8772500D02*
X13205000Y-8792500D01*
X13205000Y-9372500D02*
X13225000Y-9392500D01*
X13225000Y-9372500D02*
X13205000Y-9392500D01*
X13205000Y-9972500D02*
X13225000Y-9992500D01*
X13225000Y-9972500D02*
X13205000Y-9992500D01*
X13205000Y-10167500D02*
X13225000Y-10187500D01*
X13225000Y-10167500D02*
X13205000Y-10187500D01*
X13805000Y-5772500D02*
X13825000Y-5792500D01*
X13825000Y-5772500D02*
X13805000Y-5792500D01*
X13805000Y-6372500D02*
X13825000Y-6392500D01*
X13825000Y-6372500D02*
X13805000Y-6392500D01*
X13805000Y-6972500D02*
X13825000Y-6992500D01*
X13825000Y-6972500D02*
X13805000Y-6992500D01*
X13805000Y-7572500D02*
X13825000Y-7592500D01*
X13825000Y-7572500D02*
X13805000Y-7592500D01*
X13805000Y-8172500D02*
X13825000Y-8192500D01*
X13825000Y-8172500D02*
X13805000Y-8192500D01*
X13805000Y-8772500D02*
X13825000Y-8792500D01*
X13825000Y-8772500D02*
X13805000Y-8792500D01*
X13805000Y-9372500D02*
X13825000Y-9392500D01*
X13825000Y-9372500D02*
X13805000Y-9392500D01*
X13805000Y-9972500D02*
X13825000Y-9992500D01*
X13825000Y-9972500D02*
X13805000Y-9992500D01*
X13805000Y-10167500D02*
X13825000Y-10187500D01*
X13825000Y-10167500D02*
X13805000Y-10187500D01*
X14405000Y-5772500D02*
X14425000Y-5792500D01*
X14425000Y-5772500D02*
X14405000Y-5792500D01*
X14405000Y-6372500D02*
X14425000Y-6392500D01*
X14425000Y-6372500D02*
X14405000Y-6392500D01*
X14405000Y-6972500D02*
X14425000Y-6992500D01*
X14425000Y-6972500D02*
X14405000Y-6992500D01*
X14405000Y-7572500D02*
X14425000Y-7592500D01*
X14425000Y-7572500D02*
X14405000Y-7592500D01*
X14405000Y-8172500D02*
X14425000Y-8192500D01*
X14425000Y-8172500D02*
X14405000Y-8192500D01*
X14405000Y-8772500D02*
X14425000Y-8792500D01*
X14425000Y-8772500D02*
X14405000Y-8792500D01*
X14405000Y-9372500D02*
X14425000Y-9392500D01*
X14425000Y-9372500D02*
X14405000Y-9392500D01*
X14405000Y-9972500D02*
X14425000Y-9992500D01*
X14425000Y-9972500D02*
X14405000Y-9992500D01*
X14405000Y-10167500D02*
X14425000Y-10187500D01*
X14425000Y-10167500D02*
X14405000Y-10187500D01*
X15005000Y-5772500D02*
X15025000Y-5792500D01*
X15025000Y-5772500D02*
X15005000Y-5792500D01*
X15005000Y-6372500D02*
X15025000Y-6392500D01*
X15025000Y-6372500D02*
X15005000Y-6392500D01*
X15005000Y-6972500D02*
X15025000Y-6992500D01*
X15025000Y-6972500D02*
X15005000Y-6992500D01*
X15005000Y-7572500D02*
X15025000Y-7592500D01*
X15025000Y-7572500D02*
X15005000Y-7592500D01*
X15005000Y-8172500D02*
X15025000Y-8192500D01*
X15025000Y-8172500D02*
X15005000Y-8192500D01*
X15005000Y-8772500D02*
X15025000Y-8792500D01*
X15025000Y-8772500D02*
X15005000Y-8792500D01*
X15005000Y-9372500D02*
X15025000Y-9392500D01*
X15025000Y-9372500D02*
X15005000Y-9392500D01*
X15005000Y-9972500D02*
X15025000Y-9992500D01*
X15025000Y-9972500D02*
X15005000Y-9992500D01*
X15005000Y-10167500D02*
X15025000Y-10187500D01*
X15025000Y-10167500D02*
X15005000Y-10187500D01*
X15605000Y-5772500D02*
X15625000Y-5792500D01*
X15625000Y-5772500D02*
X15605000Y-5792500D01*
X15605000Y-6372500D02*
X15625000Y-6392500D01*
X15625000Y-6372500D02*
X15605000Y-6392500D01*
X15605000Y-6972500D02*
X15625000Y-6992500D01*
X15625000Y-6972500D02*
X15605000Y-6992500D01*
X15605000Y-7572500D02*
X15625000Y-7592500D01*
X15625000Y-7572500D02*
X15605000Y-7592500D01*
X15605000Y-8172500D02*
X15625000Y-8192500D01*
X15625000Y-8172500D02*
X15605000Y-8192500D01*
X15605000Y-8772500D02*
X15625000Y-8792500D01*
X15625000Y-8772500D02*
X15605000Y-8792500D01*
X15605000Y-9372500D02*
X15625000Y-9392500D01*
X15625000Y-9372500D02*
X15605000Y-9392500D01*
X15605000Y-9972500D02*
X15625000Y-9992500D01*
X15625000Y-9972500D02*
X15605000Y-9992500D01*
X15605000Y-10167500D02*
X15625000Y-10187500D01*
X15625000Y-10167500D02*
X15605000Y-10187500D01*
X16205000Y-5772500D02*
X16225000Y-5792500D01*
X16225000Y-5772500D02*
X16205000Y-5792500D01*
X16205000Y-6372500D02*
X16225000Y-6392500D01*
X16225000Y-6372500D02*
X16205000Y-6392500D01*
X16205000Y-6972500D02*
X16225000Y-6992500D01*
X16225000Y-6972500D02*
X16205000Y-6992500D01*
X16205000Y-7572500D02*
X16225000Y-7592500D01*
X16225000Y-7572500D02*
X16205000Y-7592500D01*
X16205000Y-8172500D02*
X16225000Y-8192500D01*
X16225000Y-8172500D02*
X16205000Y-8192500D01*
X16205000Y-8772500D02*
X16225000Y-8792500D01*
X16225000Y-8772500D02*
X16205000Y-8792500D01*
X16205000Y-9372500D02*
X16225000Y-9392500D01*
X16225000Y-9372500D02*
X16205000Y-9392500D01*
X16205000Y-9972500D02*
X16225000Y-9992500D01*
X16225000Y-9972500D02*
X16205000Y-9992500D01*
X16205000Y-10167500D02*
X16225000Y-10187500D01*
X16225000Y-10167500D02*
X16205000Y-10187500D01*
X16805000Y-5772500D02*
X16825000Y-5792500D01*
X16825000Y-5772500D02*
X16805000Y-5792500D01*
X16805000Y-6372500D02*
X16825000Y-6392500D01*
X16825000Y-6372500D02*
X16805000Y-6392500D01*
X16805000Y-6972500D02*
X16825000Y-6992500D01*
X16825000Y-6972500D02*
X16805000Y-6992500D01*
X16805000Y-7572500D02*
X16825000Y-7592500D01*
X16825000Y-7572500D02*
X16805000Y-7592500D01*
X16805000Y-8172500D02*
X16825000Y-8192500D01*
X16825000Y-8172500D02*
X16805000Y-8192500D01*
X16805000Y-8772500D02*
X16825000Y-8792500D01*
X16825000Y-8772500D02*
X16805000Y-8792500D01*
X16805000Y-9372500D02*
X16825000Y-9392500D01*
X16825000Y-9372500D02*
X16805000Y-9392500D01*
X16805000Y-9972500D02*
X16825000Y-9992500D01*
X16825000Y-9972500D02*
X16805000Y-9992500D01*
X16805000Y-10167500D02*
X16825000Y-10187500D01*
X16825000Y-10167500D02*
X16805000Y-10187500D01*
X17405000Y-5772500D02*
X17425000Y-5792500D01*
X17425000Y-5772500D02*
X17405000Y-5792500D01*
X17405000Y-6372500D02*
X17425000Y-6392500D01*
X17425000Y-6372500D02*
X17405000Y-6392500D01*
X17405000Y-6972500D02*
X17425000Y-6992500D01*
X17425000Y-6972500D02*
X17405000Y-6992500D01*
X17405000Y-7572500D02*
X17425000Y-7592500D01*
X17425000Y-7572500D02*
X17405000Y-7592500D01*
X17405000Y-8172500D02*
X17425000Y-8192500D01*
X17425000Y-8172500D02*
X17405000Y-8192500D01*
X17405000Y-8772500D02*
X17425000Y-8792500D01*
X17425000Y-8772500D02*
X17405000Y-8792500D01*
X17405000Y-9372500D02*
X17425000Y-9392500D01*
X17425000Y-9372500D02*
X17405000Y-9392500D01*
X17405000Y-9972500D02*
X17425000Y-9992500D01*
X17425000Y-9972500D02*
X17405000Y-9992500D01*
X17405000Y-10167500D02*
X17425000Y-10187500D01*
X17425000Y-10167500D02*
X17405000Y-10187500D01*
X18005000Y-5772500D02*
X18025000Y-5792500D01*
X18025000Y-5772500D02*
X18005000Y-5792500D01*
X18005000Y-6372500D02*
X18025000Y-6392500D01*
X18025000Y-6372500D02*
X18005000Y-6392500D01*
X18005000Y-6972500D02*
X18025000Y-6992500D01*
X18025000Y-6972500D02*
X18005000Y-6992500D01*
X18005000Y-7572500D02*
X18025000Y-7592500D01*
X18025000Y-7572500D02*
X18005000Y-7592500D01*
X18005000Y-8172500D02*
X18025000Y-8192500D01*
X18025000Y-8172500D02*
X18005000Y-8192500D01*
X18005000Y-8772500D02*
X18025000Y-8792500D01*
X18025000Y-8772500D02*
X18005000Y-8792500D01*
X18005000Y-9372500D02*
X18025000Y-9392500D01*
X18025000Y-9372500D02*
X18005000Y-9392500D01*
X18005000Y-9972500D02*
X18025000Y-9992500D01*
X18025000Y-9972500D02*
X18005000Y-9992500D01*
X18005000Y-10167500D02*
X18025000Y-10187500D01*
X18025000Y-10167500D02*
X18005000Y-10187500D01*
X18605000Y-5772500D02*
X18625000Y-5792500D01*
X18625000Y-5772500D02*
X18605000Y-5792500D01*
X18605000Y-6372500D02*
X18625000Y-6392500D01*
X18625000Y-6372500D02*
X18605000Y-6392500D01*
X18605000Y-6972500D02*
X18625000Y-6992500D01*
X18625000Y-6972500D02*
X18605000Y-6992500D01*
X18605000Y-7572500D02*
X18625000Y-7592500D01*
X18625000Y-7572500D02*
X18605000Y-7592500D01*
X18605000Y-8172500D02*
X18625000Y-8192500D01*
X18625000Y-8172500D02*
X18605000Y-8192500D01*
X18605000Y-8772500D02*
X18625000Y-8792500D01*
X18625000Y-8772500D02*
X18605000Y-8792500D01*
X18605000Y-9372500D02*
X18625000Y-9392500D01*
X18625000Y-9372500D02*
X18605000Y-9392500D01*
X18605000Y-9972500D02*
X18625000Y-9992500D01*
X18625000Y-9972500D02*
X18605000Y-9992500D01*
X18605000Y-10167500D02*
X18625000Y-10187500D01*
X18625000Y-10167500D02*
X18605000Y-10187500D01*
X19205000Y-5772500D02*
X19225000Y-5792500D01*
X19225000Y-5772500D02*
X19205000Y-5792500D01*
X19205000Y-6372500D02*
X19225000Y-6392500D01*
X19225000Y-6372500D02*
X19205000Y-6392500D01*
X19205000Y-6972500D02*
X19225000Y-6992500D01*
X19225000Y-6972500D02*
X19205000Y-6992500D01*
X19205000Y-7572500D02*
X19225000Y-7592500D01*
X19225000Y-7572500D02*
X19205000Y-7592500D01*
X19205000Y-8172500D02*
X19225000Y-8192500D01*
X19225000Y-8172500D02*
X19205000Y-8192500D01*
X19205000Y-8772500D02*
X19225000Y-8792500D01*
X19225000Y-8772500D02*
X19205000Y-8792500D01*
X19205000Y-9372500D02*
X19225000Y-9392500D01*
X19225000Y-9372500D02*
X19205000Y-9392500D01*
X19205000Y-9972500D02*
X19225000Y-9992500D01*
X19225000Y-9972500D02*
X19205000Y-9992500D01*
X19205000Y-10167500D02*
X19225000Y-10187500D01*
X19225000Y-10167500D02*
X19205000Y-10187500D01*
X19805000Y-5772500D02*
X19825000Y-5792500D01*
X19825000Y-5772500D02*
X19805000Y-5792500D01*
X19805000Y-6372500D02*
X19825000Y-6392500D01*
X19825000Y-6372500D02*
X19805000Y-6392500D01*
X19805000Y-6972500D02*
X19825000Y-6992500D01*
X19825000Y-6972500D02*
X19805000Y-6992500D01*
X19805000Y-7572500D02*
X19825000Y-7592500D01*
X19825000Y-7572500D02*
X19805000Y-7592500D01*
X19805000Y-8172500D02*
X19825000Y-8192500D01*
X19825000Y-8172500D02*
X19805000Y-8192500D01*
X19805000Y-8772500D02*
X19825000Y-8792500D01*
X19825000Y-8772500D02*
X19805000Y-8792500D01*
X19805000Y-9372500D02*
X19825000Y-9392500D01*
X19825000Y-9372500D02*
X19805000Y-9392500D01*
X19805000Y-9972500D02*
X19825000Y-9992500D01*
X19825000Y-9972500D02*
X19805000Y-9992500D01*
X19805000Y-10167500D02*
X19825000Y-10187500D01*
X19825000Y-10167500D02*
X19805000Y-10187500D01*
X20405000Y-5772500D02*
X20425000Y-5792500D01*
X20425000Y-5772500D02*
X20405000Y-5792500D01*
X20405000Y-6372500D02*
X20425000Y-6392500D01*
X20425000Y-6372500D02*
X20405000Y-6392500D01*
X20405000Y-6972500D02*
X20425000Y-6992500D01*
X20425000Y-6972500D02*
X20405000Y-6992500D01*
X20405000Y-7572500D02*
X20425000Y-7592500D01*
X20425000Y-7572500D02*
X20405000Y-7592500D01*
X20405000Y-8172500D02*
X20425000Y-8192500D01*
X20425000Y-8172500D02*
X20405000Y-8192500D01*
X20405000Y-8772500D02*
X20425000Y-8792500D01*
X20425000Y-8772500D02*
X20405000Y-8792500D01*
X20405000Y-9372500D02*
X20425000Y-9392500D01*
X20425000Y-9372500D02*
X20405000Y-9392500D01*
X20405000Y-9972500D02*
X20425000Y-9992500D01*
X20425000Y-9972500D02*
X20405000Y-9992500D01*
X20405000Y-10167500D02*
X20425000Y-10187500D01*
X20425000Y-10167500D02*
X20405000Y-10187500D01*
X21005000Y-5772500D02*
X21025000Y-5792500D01*
X21025000Y-5772500D02*
X21005000Y-5792500D01*
X21005000Y-6372500D02*
X21025000Y-6392500D01*
X21025000Y-6372500D02*
X21005000Y-6392500D01*
X21005000Y-6972500D02*
X21025000Y-6992500D01*
X21025000Y-6972500D02*
X21005000Y-6992500D01*
X21005000Y-7572500D02*
X21025000Y-7592500D01*
X21025000Y-7572500D02*
X21005000Y-7592500D01*
X21005000Y-8172500D02*
X21025000Y-8192500D01*
X21025000Y-8172500D02*
X21005000Y-8192500D01*
X21005000Y-8772500D02*
X21025000Y-8792500D01*
X21025000Y-8772500D02*
X21005000Y-8792500D01*
X21005000Y-9372500D02*
X21025000Y-9392500D01*
X21025000Y-9372500D02*
X21005000Y-9392500D01*
X21005000Y-9972500D02*
X21025000Y-9992500D01*
X21025000Y-9972500D02*
X21005000Y-9992500D01*
X21005000Y-10167500D02*
X21025000Y-10187500D01*
X21025000Y-10167500D02*
X21005000Y-10187500D01*
X21605000Y-5772500D02*
X21625000Y-5792500D01*
X21625000Y-5772500D02*
X21605000Y-5792500D01*
X21605000Y-6372500D02*
X21625000Y-6392500D01*
X21625000Y-6372500D02*
X21605000Y-6392500D01*
X21605000Y-6972500D02*
X21625000Y-6992500D01*
X21625000Y-6972500D02*
X21605000Y-6992500D01*
X21605000Y-7572500D02*
X21625000Y-7592500D01*
X21625000Y-7572500D02*
X21605000Y-7592500D01*
X21605000Y-8172500D02*
X21625000Y-8192500D01*
X21625000Y-8172500D02*
X21605000Y-8192500D01*
X21605000Y-8772500D02*
X21625000Y-8792500D01*
X21625000Y-8772500D02*
X21605000Y-8792500D01*
X21605000Y-9372500D02*
X21625000Y-9392500D01*
X21625000Y-9372500D02*
X21605000Y-9392500D01*
X21605000Y-9972500D02*
X21625000Y-9992500D01*
X21625000Y-9972500D02*
X21605000Y-9992500D01*
X21605000Y-10167500D02*
X21625000Y-10187500D01*
X21625000Y-10167500D02*
X21605000Y-10187500D01*
X22205000Y-5772500D02*
X22225000Y-5792500D01*
X22225000Y-5772500D02*
X22205000Y-5792500D01*
X22205000Y-6372500D02*
X22225000Y-6392500D01*
X22225000Y-6372500D02*
X22205000Y-6392500D01*
X22205000Y-6972500D02*
X22225000Y-6992500D01*
X22225000Y-6972500D02*
X22205000Y-6992500D01*
X22205000Y-7572500D02*
X22225000Y-7592500D01*
X22225000Y-7572500D02*
X22205000Y-7592500D01*
X22205000Y-8172500D02*
X22225000Y-8192500D01*
X22225000Y-8172500D02*
X22205000Y-8192500D01*
X22205000Y-8772500D02*
X22225000Y-8792500D01*
X22225000Y-8772500D02*
X22205000Y-8792500D01*
X22205000Y-9372500D02*
X22225000Y-9392500D01*
X22225000Y-9372500D02*
X22205000Y-9392500D01*
X22205000Y-9972500D02*
X22225000Y-9992500D01*
X22225000Y-9972500D02*
X22205000Y-9992500D01*
X22205000Y-10167500D02*
X22225000Y-10187500D01*
X22225000Y-10167500D02*
X22205000Y-10187500D01*
X22805000Y-5772500D02*
X22825000Y-5792500D01*
X22825000Y-5772500D02*
X22805000Y-5792500D01*
X22805000Y-6372500D02*
X22825000Y-6392500D01*
X22825000Y-6372500D02*
X22805000Y-6392500D01*
X22805000Y-6972500D02*
X22825000Y-6992500D01*
X22825000Y-6972500D02*
X22805000Y-6992500D01*
X22805000Y-7572500D02*
X22825000Y-7592500D01*
X22825000Y-7572500D02*
X22805000Y-7592500D01*
X22805000Y-8172500D02*
X22825000Y-8192500D01*
X22825000Y-8172500D02*
X22805000Y-8192500D01*
X22805000Y-8772500D02*
X22825000Y-8792500D01*
X22825000Y-8772500D02*
X22805000Y-8792500D01*
X22805000Y-9372500D02*
X22825000Y-9392500D01*
X22825000Y-9372500D02*
X22805000Y-9392500D01*
X22805000Y-9972500D02*
X22825000Y-9992500D01*
X22825000Y-9972500D02*
X22805000Y-9992500D01*
X22805000Y-10167500D02*
X22825000Y-10187500D01*
X22825000Y-10167500D02*
X22805000Y-10187500D01*
X23405000Y-5772500D02*
X23425000Y-5792500D01*
X23425000Y-5772500D02*
X23405000Y-5792500D01*
X23405000Y-6372500D02*
X23425000Y-6392500D01*
X23425000Y-6372500D02*
X23405000Y-6392500D01*
X23405000Y-6972500D02*
X23425000Y-6992500D01*
X23425000Y-6972500D02*
X23405000Y-6992500D01*
X23405000Y-7572500D02*
X23425000Y-7592500D01*
X23425000Y-7572500D02*
X23405000Y-7592500D01*
X23405000Y-8172500D02*
X23425000Y-8192500D01*
X23425000Y-8172500D02*
X23405000Y-8192500D01*
X23405000Y-8772500D02*
X23425000Y-8792500D01*
X23425000Y-8772500D02*
X23405000Y-8792500D01*
X23405000Y-9372500D02*
X23425000Y-9392500D01*
X23425000Y-9372500D02*
X23405000Y-9392500D01*
X23405000Y-9972500D02*
X23425000Y-9992500D01*
X23425000Y-9972500D02*
X23405000Y-9992500D01*
X23405000Y-10167500D02*
X23425000Y-10187500D01*
X23425000Y-10167500D02*
X23405000Y-10187500D01*
X24005000Y-5772500D02*
X24025000Y-5792500D01*
X24025000Y-5772500D02*
X24005000Y-5792500D01*
X24005000Y-6372500D02*
X24025000Y-6392500D01*
X24025000Y-6372500D02*
X24005000Y-6392500D01*
X24005000Y-6972500D02*
X24025000Y-6992500D01*
X24025000Y-6972500D02*
X24005000Y-6992500D01*
X24005000Y-7572500D02*
X24025000Y-7592500D01*
X24025000Y-7572500D02*
X24005000Y-7592500D01*
X24005000Y-8172500D02*
X24025000Y-8192500D01*
X24025000Y-8172500D02*
X24005000Y-8192500D01*
X24005000Y-8772500D02*
X24025000Y-8792500D01*
X24025000Y-8772500D02*
X24005000Y-8792500D01*
X24005000Y-9372500D02*
X24025000Y-9392500D01*
X24025000Y-9372500D02*
X24005000Y-9392500D01*
X24005000Y-9972500D02*
X24025000Y-9992500D01*
X24025000Y-9972500D02*
X24005000Y-9992500D01*
X24005000Y-10167500D02*
X24025000Y-10187500D01*
X24025000Y-10167500D02*
X24005000Y-10187500D01*
X24605000Y-5772500D02*
X24625000Y-5792500D01*
X24625000Y-5772500D02*
X24605000Y-5792500D01*
X24605000Y-6372500D02*
X24625000Y-6392500D01*
X24625000Y-6372500D02*
X24605000Y-6392500D01*
X24605000Y-6972500D02*
X24625000Y-6992500D01*
X24625000Y-6972500D02*
X24605000Y-6992500D01*
X24605000Y-7572500D02*
X24625000Y-7592500D01*
X24625000Y-7572500D02*
X24605000Y-7592500D01*
X24605000Y-8172500D02*
X24625000Y-8192500D01*
X24625000Y-8172500D02*
X24605000Y-8192500D01*
X24605000Y-8772500D02*
X24625000Y-8792500D01*
X24625000Y-8772500D02*
X24605000Y-8792500D01*
X24605000Y-9372500D02*
X24625000Y-9392500D01*
X24625000Y-9372500D02*
X24605000Y-9392500D01*
X24605000Y-9972500D02*
X24625000Y-9992500D01*
X24625000Y-9972500D02*
X24605000Y-9992500D01*
X24605000Y-10167500D02*
X24625000Y-10187500D01*
X24625000Y-10167500D02*
X24605000Y-10187500D01*
X25205000Y-5772500D02*
X25225000Y-5792500D01*
X25225000Y-5772500D02*
X25205000Y-5792500D01*
X25205000Y-6372500D02*
X25225000Y-6392500D01*
X25225000Y-6372500D02*
X25205000Y-6392500D01*
X25205000Y-6972500D02*
X25225000Y-6992500D01*
X25225000Y-6972500D02*
X25205000Y-6992500D01*
X25205000Y-7572500D02*
X25225000Y-7592500D01*
X25225000Y-7572500D02*
X25205000Y-7592500D01*
X25205000Y-8172500D02*
X25225000Y-8192500D01*
X25225000Y-8172500D02*
X25205000Y-8192500D01*
X25205000Y-8772500D02*
X25225000Y-8792500D01*
X25225000Y-8772500D02*
X25205000Y-8792500D01*
X25205000Y-9372500D02*
X25225000Y-9392500D01*
X25225000Y-9372500D02*
X25205000Y-9392500D01*
X25205000Y-9972500D02*
X25225000Y-9992500D01*
X25225000Y-9972500D02*
X25205000Y-9992500D01*
X25205000Y-10167500D02*
X25225000Y-10187500D01*
X25225000Y-10167500D02*
X25205000Y-10187500D01*
X25497500Y-5872500D02*
X25517500Y-5892500D01*
X25517500Y-5872500D02*
X25497500Y-5892500D01*
X25497500Y-6472500D02*
X25517500Y-6492500D01*
X25517500Y-6472500D02*
X25497500Y-6492500D01*
X25497500Y-7072500D02*
X25517500Y-7092500D01*
X25517500Y-7072500D02*
X25497500Y-7092500D01*
X25497500Y-7672500D02*
X25517500Y-7692500D01*
X25517500Y-7672500D02*
X25497500Y-7692500D01*
X25497500Y-8272500D02*
X25517500Y-8292500D01*
X25517500Y-8272500D02*
X25497500Y-8292500D01*
X25497500Y-8872500D02*
X25517500Y-8892500D01*
X25517500Y-8872500D02*
X25497500Y-8892500D01*
X25497500Y-9472500D02*
X25517500Y-9492500D01*
X25517500Y-9472500D02*
X25497500Y-9492500D01*
X25497500Y-10072500D02*
X25517500Y-10092500D01*
X25517500Y-10072500D02*
X25497500Y-10092500D01*
D11*
X4470119Y-11670476D02*
X4470119Y-11470476D01*
X4517738Y-11470476D01*
X4546310Y-11480000D01*
X4565357Y-11499048D01*
X4574881Y-11518095D01*
X4584405Y-11556190D01*
X4584405Y-11584762D01*
X4574881Y-11622857D01*
X4565357Y-11641905D01*
X4546310Y-11660952D01*
X4517738Y-11670476D01*
X4470119Y-11670476D01*
X4670119Y-11670476D02*
X4670119Y-11537143D01*
X4670119Y-11575238D02*
X4679643Y-11556190D01*
X4689167Y-11546667D01*
X4708214Y-11537143D01*
X4727262Y-11537143D01*
X4793929Y-11670476D02*
X4793929Y-11537143D01*
X4793929Y-11470476D02*
X4784405Y-11480000D01*
X4793929Y-11489524D01*
X4803452Y-11480000D01*
X4793929Y-11470476D01*
X4793929Y-11489524D01*
X4917738Y-11670476D02*
X4898690Y-11660952D01*
X4889167Y-11641905D01*
X4889167Y-11470476D01*
X5022500Y-11670476D02*
X5003452Y-11660952D01*
X4993929Y-11641905D01*
X4993929Y-11470476D01*
X5251071Y-11670476D02*
X5251071Y-11470476D01*
X5317738Y-11613333D01*
X5384405Y-11470476D01*
X5384405Y-11670476D01*
X5565357Y-11670476D02*
X5565357Y-11565714D01*
X5555833Y-11546667D01*
X5536786Y-11537143D01*
X5498690Y-11537143D01*
X5479643Y-11546667D01*
X5565357Y-11660952D02*
X5546310Y-11670476D01*
X5498690Y-11670476D01*
X5479643Y-11660952D01*
X5470119Y-11641905D01*
X5470119Y-11622857D01*
X5479643Y-11603809D01*
X5498690Y-11594286D01*
X5546310Y-11594286D01*
X5565357Y-11584762D01*
X5660595Y-11537143D02*
X5660595Y-11737143D01*
X5660595Y-11546667D02*
X5679643Y-11537143D01*
X5717738Y-11537143D01*
X5736786Y-11546667D01*
X5746309Y-11556190D01*
X5755833Y-11575238D01*
X5755833Y-11632381D01*
X5746309Y-11651428D01*
X5736786Y-11660952D01*
X5717738Y-11670476D01*
X5679643Y-11670476D01*
X5660595Y-11660952D01*
X5841548Y-11651428D02*
X5851071Y-11660952D01*
X5841548Y-11670476D01*
X5832024Y-11660952D01*
X5841548Y-11651428D01*
X5841548Y-11670476D01*
X5841548Y-11546667D02*
X5851071Y-11556190D01*
X5841548Y-11565714D01*
X5832024Y-11556190D01*
X5841548Y-11546667D01*
X5841548Y-11565714D01*
D12*
X4192500Y-11990000D02*
X4212500Y-12010000D01*
X4212500Y-11990000D02*
X4192500Y-12010000D01*
D11*
X4508214Y-11890476D02*
X4527262Y-11890476D01*
X4546310Y-11900000D01*
X4555833Y-11909524D01*
X4565357Y-11928571D01*
X4574881Y-11966667D01*
X4574881Y-12014286D01*
X4565357Y-12052381D01*
X4555833Y-12071428D01*
X4546310Y-12080952D01*
X4527262Y-12090476D01*
X4508214Y-12090476D01*
X4489167Y-12080952D01*
X4479643Y-12071428D01*
X4470119Y-12052381D01*
X4460595Y-12014286D01*
X4460595Y-11966667D01*
X4470119Y-11928571D01*
X4479643Y-11909524D01*
X4489167Y-11900000D01*
X4508214Y-11890476D01*
X4660595Y-12071428D02*
X4670119Y-12080952D01*
X4660595Y-12090476D01*
X4651071Y-12080952D01*
X4660595Y-12071428D01*
X4660595Y-12090476D01*
X4746310Y-11909524D02*
X4755833Y-11900000D01*
X4774881Y-11890476D01*
X4822500Y-11890476D01*
X4841548Y-11900000D01*
X4851071Y-11909524D01*
X4860595Y-11928571D01*
X4860595Y-11947619D01*
X4851071Y-11976190D01*
X4736786Y-12090476D01*
X4860595Y-12090476D01*
X4984405Y-11890476D02*
X5003452Y-11890476D01*
X5022500Y-11900000D01*
X5032024Y-11909524D01*
X5041548Y-11928571D01*
X5051071Y-11966667D01*
X5051071Y-12014286D01*
X5041548Y-12052381D01*
X5032024Y-12071428D01*
X5022500Y-12080952D01*
X5003452Y-12090476D01*
X4984405Y-12090476D01*
X4965357Y-12080952D01*
X4955833Y-12071428D01*
X4946310Y-12052381D01*
X4936786Y-12014286D01*
X4936786Y-11966667D01*
X4946310Y-11928571D01*
X4955833Y-11909524D01*
X4965357Y-11900000D01*
X4984405Y-11890476D01*
X5174881Y-11890476D02*
X5193929Y-11890476D01*
X5212976Y-11900000D01*
X5222500Y-11909524D01*
X5232024Y-11928571D01*
X5241548Y-11966667D01*
X5241548Y-12014286D01*
X5232024Y-12052381D01*
X5222500Y-12071428D01*
X5212976Y-12080952D01*
X5193929Y-12090476D01*
X5174881Y-12090476D01*
X5155833Y-12080952D01*
X5146310Y-12071428D01*
X5136786Y-12052381D01*
X5127262Y-12014286D01*
X5127262Y-11966667D01*
X5136786Y-11928571D01*
X5146310Y-11909524D01*
X5155833Y-11900000D01*
X5174881Y-11890476D01*
X5327262Y-12090476D02*
X5327262Y-11957143D01*
X5327262Y-11976190D02*
X5336786Y-11966667D01*
X5355833Y-11957143D01*
X5384405Y-11957143D01*
X5403452Y-11966667D01*
X5412976Y-11985714D01*
X5412976Y-12090476D01*
X5412976Y-11985714D02*
X5422500Y-11966667D01*
X5441548Y-11957143D01*
X5470119Y-11957143D01*
X5489167Y-11966667D01*
X5498690Y-11985714D01*
X5498690Y-12090476D01*
X5593928Y-12090476D02*
X5593928Y-11957143D01*
X5593928Y-11976190D02*
X5603452Y-11966667D01*
X5622500Y-11957143D01*
X5651071Y-11957143D01*
X5670119Y-11966667D01*
X5679643Y-11985714D01*
X5679643Y-12090476D01*
X5679643Y-11985714D02*
X5689167Y-11966667D01*
X5708214Y-11957143D01*
X5736786Y-11957143D01*
X5755833Y-11966667D01*
X5765357Y-11985714D01*
X5765357Y-12090476D01*
X6155833Y-11880952D02*
X5984405Y-12138095D01*
X6412976Y-11890476D02*
X6432024Y-11890476D01*
X6451071Y-11900000D01*
X6460595Y-11909524D01*
X6470119Y-11928571D01*
X6479643Y-11966667D01*
X6479643Y-12014286D01*
X6470119Y-12052381D01*
X6460595Y-12071428D01*
X6451071Y-12080952D01*
X6432024Y-12090476D01*
X6412976Y-12090476D01*
X6393928Y-12080952D01*
X6384405Y-12071428D01*
X6374881Y-12052381D01*
X6365357Y-12014286D01*
X6365357Y-11966667D01*
X6374881Y-11928571D01*
X6384405Y-11909524D01*
X6393928Y-11900000D01*
X6412976Y-11890476D01*
X6565357Y-12071428D02*
X6574881Y-12080952D01*
X6565357Y-12090476D01*
X6555833Y-12080952D01*
X6565357Y-12071428D01*
X6565357Y-12090476D01*
X6698690Y-11890476D02*
X6717738Y-11890476D01*
X6736786Y-11900000D01*
X6746309Y-11909524D01*
X6755833Y-11928571D01*
X6765357Y-11966667D01*
X6765357Y-12014286D01*
X6755833Y-12052381D01*
X6746309Y-12071428D01*
X6736786Y-12080952D01*
X6717738Y-12090476D01*
X6698690Y-12090476D01*
X6679643Y-12080952D01*
X6670119Y-12071428D01*
X6660595Y-12052381D01*
X6651071Y-12014286D01*
X6651071Y-11966667D01*
X6660595Y-11928571D01*
X6670119Y-11909524D01*
X6679643Y-11900000D01*
X6698690Y-11890476D01*
X6889167Y-11890476D02*
X6908214Y-11890476D01*
X6927262Y-11900000D01*
X6936786Y-11909524D01*
X6946309Y-11928571D01*
X6955833Y-11966667D01*
X6955833Y-12014286D01*
X6946309Y-12052381D01*
X6936786Y-12071428D01*
X6927262Y-12080952D01*
X6908214Y-12090476D01*
X6889167Y-12090476D01*
X6870119Y-12080952D01*
X6860595Y-12071428D01*
X6851071Y-12052381D01*
X6841548Y-12014286D01*
X6841548Y-11966667D01*
X6851071Y-11928571D01*
X6860595Y-11909524D01*
X6870119Y-11900000D01*
X6889167Y-11890476D01*
X7022500Y-11890476D02*
X7155833Y-11890476D01*
X7070119Y-12090476D01*
X7241548Y-12090476D02*
X7279643Y-12090476D01*
X7298690Y-12080952D01*
X7308214Y-12071428D01*
X7327262Y-12042857D01*
X7336786Y-12004762D01*
X7336786Y-11928571D01*
X7327262Y-11909524D01*
X7317738Y-11900000D01*
X7298690Y-11890476D01*
X7260595Y-11890476D01*
X7241548Y-11900000D01*
X7232024Y-11909524D01*
X7222500Y-11928571D01*
X7222500Y-11976190D01*
X7232024Y-11995238D01*
X7241548Y-12004762D01*
X7260595Y-12014286D01*
X7298690Y-12014286D01*
X7317738Y-12004762D01*
X7327262Y-11995238D01*
X7336786Y-11976190D01*
X7412976Y-11890476D02*
X7412976Y-11928571D01*
X7489167Y-11890476D02*
X7489167Y-11928571D01*
X7784405Y-12166667D02*
X7774881Y-12157143D01*
X7755833Y-12128571D01*
X7746309Y-12109524D01*
X7736786Y-12080952D01*
X7727262Y-12033333D01*
X7727262Y-11995238D01*
X7736786Y-11947619D01*
X7746309Y-11919048D01*
X7755833Y-11900000D01*
X7774881Y-11871428D01*
X7784405Y-11861905D01*
X7851071Y-11909524D02*
X7860595Y-11900000D01*
X7879643Y-11890476D01*
X7927262Y-11890476D01*
X7946309Y-11900000D01*
X7955833Y-11909524D01*
X7965357Y-11928571D01*
X7965357Y-11947619D01*
X7955833Y-11976190D01*
X7841548Y-12090476D01*
X7965357Y-12090476D01*
X8060595Y-12090476D02*
X8098690Y-12090476D01*
X8117738Y-12080952D01*
X8127262Y-12071428D01*
X8146309Y-12042857D01*
X8155833Y-12004762D01*
X8155833Y-11928571D01*
X8146309Y-11909524D01*
X8136786Y-11900000D01*
X8117738Y-11890476D01*
X8079643Y-11890476D01*
X8060595Y-11900000D01*
X8051071Y-11909524D01*
X8041548Y-11928571D01*
X8041548Y-11976190D01*
X8051071Y-11995238D01*
X8060595Y-12004762D01*
X8079643Y-12014286D01*
X8117738Y-12014286D01*
X8136786Y-12004762D01*
X8146309Y-11995238D01*
X8155833Y-11976190D01*
X8327262Y-11890476D02*
X8289167Y-11890476D01*
X8270119Y-11900000D01*
X8260595Y-11909524D01*
X8241548Y-11938095D01*
X8232024Y-11976190D01*
X8232024Y-12052381D01*
X8241548Y-12071428D01*
X8251071Y-12080952D01*
X8270119Y-12090476D01*
X8308214Y-12090476D01*
X8327262Y-12080952D01*
X8336786Y-12071428D01*
X8346309Y-12052381D01*
X8346309Y-12004762D01*
X8336786Y-11985714D01*
X8327262Y-11976190D01*
X8308214Y-11966667D01*
X8270119Y-11966667D01*
X8251071Y-11976190D01*
X8241548Y-11985714D01*
X8232024Y-12004762D01*
X8584405Y-12090476D02*
X8584405Y-11890476D01*
X8670119Y-12090476D02*
X8670119Y-11985714D01*
X8660595Y-11966667D01*
X8641548Y-11957143D01*
X8612976Y-11957143D01*
X8593929Y-11966667D01*
X8584405Y-11976190D01*
X8793929Y-12090476D02*
X8774881Y-12080952D01*
X8765357Y-12071428D01*
X8755833Y-12052381D01*
X8755833Y-11995238D01*
X8765357Y-11976190D01*
X8774881Y-11966667D01*
X8793929Y-11957143D01*
X8822500Y-11957143D01*
X8841548Y-11966667D01*
X8851071Y-11976190D01*
X8860595Y-11995238D01*
X8860595Y-12052381D01*
X8851071Y-12071428D01*
X8841548Y-12080952D01*
X8822500Y-12090476D01*
X8793929Y-12090476D01*
X8974881Y-12090476D02*
X8955833Y-12080952D01*
X8946310Y-12061905D01*
X8946310Y-11890476D01*
X9127262Y-12080952D02*
X9108214Y-12090476D01*
X9070119Y-12090476D01*
X9051071Y-12080952D01*
X9041548Y-12061905D01*
X9041548Y-11985714D01*
X9051071Y-11966667D01*
X9070119Y-11957143D01*
X9108214Y-11957143D01*
X9127262Y-11966667D01*
X9136786Y-11985714D01*
X9136786Y-12004762D01*
X9041548Y-12023809D01*
X9212976Y-12080952D02*
X9232024Y-12090476D01*
X9270119Y-12090476D01*
X9289167Y-12080952D01*
X9298690Y-12061905D01*
X9298690Y-12052381D01*
X9289167Y-12033333D01*
X9270119Y-12023809D01*
X9241548Y-12023809D01*
X9222500Y-12014286D01*
X9212976Y-11995238D01*
X9212976Y-11985714D01*
X9222500Y-11966667D01*
X9241548Y-11957143D01*
X9270119Y-11957143D01*
X9289167Y-11966667D01*
X9365357Y-12166667D02*
X9374881Y-12157143D01*
X9393929Y-12128571D01*
X9403452Y-12109524D01*
X9412976Y-12080952D01*
X9422500Y-12033333D01*
X9422500Y-11995238D01*
X9412976Y-11947619D01*
X9403452Y-11919048D01*
X9393929Y-11900000D01*
X9374881Y-11871428D01*
X9365357Y-11861905D01*
M02*
