G04 #@! TF.GenerationSoftware,KiCad,Pcbnew,6.0.8+dfsg-1~bpo11+1*
G04 #@! TF.CreationDate,2023-03-24T18:53:16-04:00*
G04 #@! TF.ProjectId,captouch_sensor_diamond_large_gaps,63617074-6f75-4636-985f-73656e736f72,rev?*
G04 #@! TF.SameCoordinates,Original*
G04 #@! TF.FileFunction,Paste,Bot*
G04 #@! TF.FilePolarity,Positive*
%FSLAX46Y46*%
G04 Gerber Fmt 4.6, Leading zero omitted, Abs format (unit mm)*
G04 Created by KiCad (PCBNEW 6.0.8+dfsg-1~bpo11+1) date 2023-03-24 18:53:16*
%MOMM*%
%LPD*%
G01*
G04 APERTURE LIST*
%ADD10R,1.200000X0.600000*%
%ADD11R,1.400000X0.800000*%
G04 APERTURE END LIST*
D10*
X52125000Y-72625000D03*
X49225000Y-73125000D03*
X52125000Y-73625000D03*
X49225000Y-74125000D03*
X52125000Y-74625000D03*
X49225000Y-75125000D03*
X52125000Y-75625000D03*
X49225000Y-76125000D03*
X52125000Y-76625000D03*
X49225000Y-77125000D03*
X52125000Y-77625000D03*
X49225000Y-78125000D03*
X52125000Y-78625000D03*
X49225000Y-79125000D03*
X52125000Y-79625000D03*
X49225000Y-80125000D03*
X52125000Y-80625000D03*
X49225000Y-81125000D03*
X52125000Y-81625000D03*
X49225000Y-82125000D03*
X52125000Y-82625000D03*
X49225000Y-83125000D03*
X52125000Y-83625000D03*
X49225000Y-84125000D03*
X52125000Y-84625000D03*
X49225000Y-85125000D03*
X52125000Y-85625000D03*
X49225000Y-86125000D03*
X52125000Y-86625000D03*
X49225000Y-87125000D03*
X52125000Y-87625000D03*
X49225000Y-88125000D03*
D11*
X52025000Y-71625000D03*
X49325000Y-71625000D03*
X52025000Y-89125000D03*
X49325000Y-89125000D03*
D10*
X265775000Y-76750000D03*
X262875000Y-77250000D03*
X265775000Y-77750000D03*
X262875000Y-78250000D03*
X265775000Y-78750000D03*
X262875000Y-79250000D03*
X265775000Y-79750000D03*
X262875000Y-80250000D03*
D11*
X265675000Y-75750000D03*
X262975000Y-75750000D03*
X265675000Y-81250000D03*
X262975000Y-81250000D03*
M02*
