M48
; DRILL file {KiCad 6.0.8+dfsg-1~bpo11+1} date Tue 30 May 2023 05:00:43 PM EDT
; FORMAT={-:-/ absolute / metric / decimal}
; #@! TF.CreationDate,2023-05-30T17:00:43-04:00
; #@! TF.GenerationSoftware,Kicad,Pcbnew,6.0.8+dfsg-1~bpo11+1
; #@! TF.FileFunction,Plated,1,2,PTH
FMAT,2
METRIC
; #@! TA.AperFunction,Plated,PTH,ViaDrill
T1C0.200
%
G90
G05
T1
X63.22Y-57.73
X63.22Y-60.73
X63.22Y-63.73
X63.22Y-66.73
X63.22Y-69.73
X63.22Y-72.73
X63.22Y-75.73
X63.22Y-78.73
X63.22Y-81.73
X63.22Y-84.73
X63.22Y-87.73
X63.22Y-90.73
X63.22Y-93.73
X63.22Y-96.73
X63.22Y-99.73
X63.22Y-102.73
X64.13Y-56.88
X65.03Y-57.73
X65.03Y-60.73
X65.03Y-63.73
X65.03Y-66.73
X65.03Y-69.73
X65.03Y-72.73
X65.03Y-75.73
X65.03Y-78.73
X65.03Y-81.73
X65.03Y-84.73
X65.03Y-87.73
X65.03Y-90.73
X65.03Y-93.73
X65.03Y-96.73
X65.03Y-99.73
X65.03Y-102.73
X66.22Y-57.73
X66.22Y-60.73
X66.22Y-63.73
X66.22Y-66.73
X66.22Y-69.73
X66.22Y-72.73
X66.22Y-75.73
X66.22Y-78.73
X66.22Y-81.73
X66.22Y-84.73
X66.22Y-87.73
X66.22Y-90.73
X66.22Y-93.73
X66.22Y-96.73
X66.22Y-99.73
X66.22Y-102.73
X67.13Y-56.88
X68.03Y-57.73
X68.03Y-60.73
X68.03Y-63.73
X68.03Y-66.73
X68.03Y-69.73
X68.03Y-72.73
X68.03Y-75.73
X68.03Y-78.73
X68.03Y-81.73
X68.03Y-84.73
X68.03Y-87.73
X68.03Y-90.73
X68.03Y-93.73
X68.03Y-96.73
X68.03Y-99.73
X68.03Y-102.73
X69.22Y-57.73
X69.22Y-60.73
X69.22Y-63.73
X69.22Y-66.73
X69.22Y-69.73
X69.22Y-72.73
X69.22Y-75.73
X69.22Y-78.73
X69.22Y-81.73
X69.22Y-84.73
X69.22Y-87.73
X69.22Y-90.73
X69.22Y-93.73
X69.22Y-96.73
X69.22Y-99.73
X69.22Y-102.73
X70.13Y-56.88
X71.03Y-57.73
X71.03Y-60.73
X71.03Y-63.73
X71.03Y-66.73
X71.03Y-69.73
X71.03Y-72.73
X71.03Y-75.73
X71.03Y-78.73
X71.03Y-81.73
X71.03Y-84.73
X71.03Y-87.73
X71.03Y-90.73
X71.03Y-93.73
X71.03Y-96.73
X71.03Y-99.73
X71.03Y-102.73
X72.22Y-57.73
X72.22Y-60.73
X72.22Y-63.73
X72.22Y-66.73
X72.22Y-69.73
X72.22Y-72.73
X72.22Y-75.73
X72.22Y-78.73
X72.22Y-81.73
X72.22Y-84.73
X72.22Y-87.73
X72.22Y-90.73
X72.22Y-93.73
X72.22Y-96.73
X72.22Y-99.73
X72.22Y-102.73
X73.13Y-56.88
X74.03Y-57.73
X74.03Y-60.73
X74.03Y-63.73
X74.03Y-66.73
X74.03Y-69.73
X74.03Y-72.73
X74.03Y-75.73
X74.03Y-78.73
X74.03Y-81.73
X74.03Y-84.73
X74.03Y-87.73
X74.03Y-90.73
X74.03Y-93.73
X74.03Y-96.73
X74.03Y-99.73
X74.03Y-102.73
X75.22Y-57.73
X75.22Y-60.73
X75.22Y-63.73
X75.22Y-66.73
X75.22Y-69.73
X75.22Y-72.73
X75.22Y-75.73
X75.22Y-78.73
X75.22Y-81.73
X75.22Y-84.73
X75.22Y-87.73
X75.22Y-90.73
X75.22Y-93.73
X75.22Y-96.73
X75.22Y-99.73
X75.22Y-102.73
X76.13Y-56.88
X77.03Y-57.73
X77.03Y-60.73
X77.03Y-63.73
X77.03Y-66.73
X77.03Y-69.73
X77.03Y-72.73
X77.03Y-75.73
X77.03Y-78.73
X77.03Y-81.73
X77.03Y-84.73
X77.03Y-87.73
X77.03Y-90.73
X77.03Y-93.73
X77.03Y-96.73
X77.03Y-99.73
X77.03Y-102.73
X78.22Y-57.73
X78.22Y-60.73
X78.22Y-63.73
X78.22Y-66.73
X78.22Y-69.73
X78.22Y-72.73
X78.22Y-75.73
X78.22Y-78.73
X78.22Y-81.73
X78.22Y-84.73
X78.22Y-87.73
X78.22Y-90.73
X78.22Y-93.73
X78.22Y-96.73
X78.22Y-99.73
X78.22Y-102.73
X79.13Y-56.88
X80.03Y-57.73
X80.03Y-60.73
X80.03Y-63.73
X80.03Y-66.73
X80.03Y-69.73
X80.03Y-72.73
X80.03Y-75.73
X80.03Y-78.73
X80.03Y-81.73
X80.03Y-84.73
X80.03Y-87.73
X80.03Y-90.73
X80.03Y-93.73
X80.03Y-96.73
X80.03Y-99.73
X80.03Y-102.73
X81.22Y-57.73
X81.22Y-60.73
X81.22Y-63.73
X81.22Y-66.73
X81.22Y-69.73
X81.22Y-72.73
X81.22Y-75.73
X81.22Y-78.73
X81.22Y-81.73
X81.22Y-84.73
X81.22Y-87.73
X81.22Y-90.73
X81.22Y-93.73
X81.22Y-96.73
X81.22Y-99.73
X81.22Y-102.73
X82.13Y-56.88
X83.03Y-57.73
X83.03Y-60.73
X83.03Y-63.73
X83.03Y-66.73
X83.03Y-69.73
X83.03Y-72.73
X83.03Y-75.73
X83.03Y-78.73
X83.03Y-81.73
X83.03Y-84.73
X83.03Y-87.73
X83.03Y-90.73
X83.03Y-93.73
X83.03Y-96.73
X83.03Y-99.73
X83.03Y-102.73
X84.22Y-57.73
X84.22Y-60.73
X84.22Y-63.73
X84.22Y-66.73
X84.22Y-69.73
X84.22Y-72.73
X84.22Y-75.73
X84.22Y-78.73
X84.22Y-81.73
X84.22Y-84.73
X84.22Y-87.73
X84.22Y-90.73
X84.22Y-93.73
X84.22Y-96.73
X84.22Y-99.73
X84.22Y-102.73
X85.13Y-56.88
X86.03Y-57.73
X86.03Y-60.73
X86.03Y-63.73
X86.03Y-66.73
X86.03Y-69.73
X86.03Y-72.73
X86.03Y-75.73
X86.03Y-78.73
X86.03Y-81.73
X86.03Y-84.73
X86.03Y-87.73
X86.03Y-90.73
X86.03Y-93.73
X86.03Y-96.73
X86.03Y-99.73
X86.03Y-102.73
X87.22Y-57.73
X87.22Y-60.73
X87.22Y-63.73
X87.22Y-66.73
X87.22Y-69.73
X87.22Y-72.73
X87.22Y-75.73
X87.22Y-78.73
X87.22Y-81.73
X87.22Y-84.73
X87.22Y-87.73
X87.22Y-90.73
X87.22Y-93.73
X87.22Y-96.73
X87.22Y-99.73
X87.22Y-102.73
X88.13Y-56.88
X89.03Y-57.73
X89.03Y-60.73
X89.03Y-63.73
X89.03Y-66.73
X89.03Y-69.73
X89.03Y-72.73
X89.03Y-75.73
X89.03Y-78.73
X89.03Y-81.73
X89.03Y-84.73
X89.03Y-87.73
X89.03Y-90.73
X89.03Y-93.73
X89.03Y-96.73
X89.03Y-99.73
X89.03Y-102.73
X90.22Y-57.73
X90.22Y-60.73
X90.22Y-63.73
X90.22Y-66.73
X90.22Y-69.73
X90.22Y-72.73
X90.22Y-75.73
X90.22Y-78.73
X90.22Y-81.73
X90.22Y-84.73
X90.22Y-87.73
X90.22Y-90.73
X90.22Y-93.73
X90.22Y-96.73
X90.22Y-99.73
X90.22Y-102.73
X91.13Y-56.88
X92.03Y-57.73
X92.03Y-60.73
X92.03Y-63.73
X92.03Y-66.73
X92.03Y-69.73
X92.03Y-72.73
X92.03Y-75.73
X92.03Y-78.73
X92.03Y-81.73
X92.03Y-84.73
X92.03Y-87.73
X92.03Y-90.73
X92.03Y-93.73
X92.03Y-96.73
X92.03Y-99.73
X92.03Y-102.73
X93.22Y-57.73
X93.22Y-60.73
X93.22Y-63.73
X93.22Y-66.73
X93.22Y-69.73
X93.22Y-72.73
X93.22Y-75.73
X93.22Y-78.73
X93.22Y-81.73
X93.22Y-84.73
X93.22Y-87.73
X93.22Y-90.73
X93.22Y-93.73
X93.22Y-96.73
X93.22Y-99.73
X93.22Y-102.73
X94.13Y-56.88
X95.03Y-57.73
X95.03Y-60.73
X95.03Y-63.73
X95.03Y-66.73
X95.03Y-69.73
X95.03Y-72.73
X95.03Y-75.73
X95.03Y-78.73
X95.03Y-81.73
X95.03Y-84.73
X95.03Y-87.73
X95.03Y-90.73
X95.03Y-93.73
X95.03Y-96.73
X95.03Y-99.73
X95.03Y-102.73
X96.22Y-57.73
X96.22Y-60.73
X96.22Y-63.73
X96.22Y-66.73
X96.22Y-69.73
X96.22Y-72.73
X96.22Y-75.73
X96.22Y-78.73
X96.22Y-81.73
X96.22Y-84.73
X96.22Y-87.73
X96.22Y-90.73
X96.22Y-93.73
X96.22Y-96.73
X96.22Y-99.73
X96.22Y-102.73
X97.13Y-56.88
X98.03Y-57.73
X98.03Y-60.73
X98.03Y-63.73
X98.03Y-66.73
X98.03Y-69.73
X98.03Y-72.73
X98.03Y-75.73
X98.03Y-78.73
X98.03Y-81.73
X98.03Y-84.73
X98.03Y-87.73
X98.03Y-90.73
X98.03Y-93.73
X98.03Y-96.73
X98.03Y-99.73
X98.03Y-102.73
X99.22Y-57.73
X99.22Y-60.73
X99.22Y-63.73
X99.22Y-66.73
X99.22Y-69.73
X99.22Y-72.73
X99.22Y-75.73
X99.22Y-78.73
X99.22Y-81.73
X99.22Y-84.73
X99.22Y-87.73
X99.22Y-90.73
X99.22Y-93.73
X99.22Y-96.73
X99.22Y-99.73
X99.22Y-102.73
X100.13Y-56.88
X101.03Y-57.73
X101.03Y-60.73
X101.03Y-63.73
X101.03Y-66.73
X101.03Y-69.73
X101.03Y-72.73
X101.03Y-75.73
X101.03Y-78.73
X101.03Y-81.73
X101.03Y-84.73
X101.03Y-87.73
X101.03Y-90.73
X101.03Y-93.73
X101.03Y-96.73
X101.03Y-99.73
X101.03Y-102.73
X102.22Y-57.73
X102.22Y-60.73
X102.22Y-63.73
X102.22Y-66.73
X102.22Y-69.73
X102.22Y-72.73
X102.22Y-75.73
X102.22Y-78.73
X102.22Y-81.73
X102.22Y-84.73
X102.22Y-87.73
X102.22Y-90.73
X102.22Y-93.73
X102.22Y-96.73
X102.22Y-99.73
X102.22Y-102.73
X103.13Y-56.88
X104.03Y-57.73
X104.03Y-60.73
X104.03Y-63.73
X104.03Y-66.73
X104.03Y-69.73
X104.03Y-72.73
X104.03Y-75.73
X104.03Y-78.73
X104.03Y-81.73
X104.03Y-84.73
X104.03Y-87.73
X104.03Y-90.73
X104.03Y-93.73
X104.03Y-96.73
X104.03Y-99.73
X104.03Y-102.73
X105.22Y-57.73
X105.22Y-60.73
X105.22Y-63.73
X105.22Y-66.73
X105.22Y-69.73
X105.22Y-72.73
X105.22Y-75.73
X105.22Y-78.73
X105.22Y-81.73
X105.22Y-84.73
X105.22Y-87.73
X105.22Y-90.73
X105.22Y-93.73
X105.22Y-96.73
X105.22Y-99.73
X105.22Y-102.73
X106.13Y-56.88
X107.03Y-57.73
X107.03Y-60.73
X107.03Y-63.73
X107.03Y-66.73
X107.03Y-69.73
X107.03Y-72.73
X107.03Y-75.73
X107.03Y-78.73
X107.03Y-81.73
X107.03Y-84.73
X107.03Y-87.73
X107.03Y-90.73
X107.03Y-93.73
X107.03Y-96.73
X107.03Y-99.73
X107.03Y-102.73
X108.22Y-57.73
X108.22Y-60.73
X108.22Y-63.73
X108.22Y-66.73
X108.22Y-69.73
X108.22Y-72.73
X108.22Y-75.73
X108.22Y-78.73
X108.22Y-81.73
X108.22Y-84.73
X108.22Y-87.73
X108.22Y-90.73
X108.22Y-93.73
X108.22Y-96.73
X108.22Y-99.73
X108.22Y-102.73
X109.13Y-56.88
X110.03Y-57.73
X110.03Y-60.73
X110.03Y-63.73
X110.03Y-66.73
X110.03Y-69.73
X110.03Y-72.73
X110.03Y-75.73
X110.03Y-78.73
X110.03Y-81.73
X110.03Y-84.73
X110.03Y-87.73
X110.03Y-90.73
X110.03Y-93.73
X110.03Y-96.73
X110.03Y-99.73
X110.03Y-102.73
X111.22Y-57.73
X111.22Y-60.73
X111.22Y-63.73
X111.22Y-66.73
X111.22Y-69.73
X111.22Y-72.73
X111.22Y-75.73
X111.22Y-78.73
X111.22Y-81.73
X111.22Y-84.73
X111.22Y-87.73
X111.22Y-90.73
X111.22Y-93.73
X111.22Y-96.73
X111.22Y-99.73
X111.22Y-102.73
X112.13Y-56.88
X113.03Y-57.73
X113.03Y-60.73
X113.03Y-63.73
X113.03Y-66.73
X113.03Y-69.73
X113.03Y-72.73
X113.03Y-75.73
X113.03Y-78.73
X113.03Y-81.73
X113.03Y-84.73
X113.03Y-87.73
X113.03Y-90.73
X113.03Y-93.73
X113.03Y-96.73
X113.03Y-99.73
X113.03Y-102.73
X114.22Y-57.73
X114.22Y-60.73
X114.22Y-63.73
X114.22Y-66.73
X114.22Y-69.73
X114.22Y-72.73
X114.22Y-75.73
X114.22Y-78.73
X114.22Y-81.73
X114.22Y-84.73
X114.22Y-87.73
X114.22Y-90.73
X114.22Y-93.73
X114.22Y-96.73
X114.22Y-99.73
X114.22Y-102.73
X115.13Y-56.88
X116.03Y-57.73
X116.03Y-60.73
X116.03Y-63.73
X116.03Y-66.73
X116.03Y-69.73
X116.03Y-72.73
X116.03Y-75.73
X116.03Y-78.73
X116.03Y-81.73
X116.03Y-84.73
X116.03Y-87.73
X116.03Y-90.73
X116.03Y-93.73
X116.03Y-96.73
X116.03Y-99.73
X116.03Y-102.73
X117.22Y-57.73
X117.22Y-60.73
X117.22Y-63.73
X117.22Y-66.73
X117.22Y-69.73
X117.22Y-72.73
X117.22Y-75.73
X117.22Y-78.73
X117.22Y-81.73
X117.22Y-84.73
X117.22Y-87.73
X117.22Y-90.73
X117.22Y-93.73
X117.22Y-96.73
X117.22Y-99.73
X117.22Y-102.73
X118.13Y-56.88
X119.03Y-57.73
X119.03Y-60.73
X119.03Y-63.73
X119.03Y-66.73
X119.03Y-69.73
X119.03Y-72.73
X119.03Y-75.73
X119.03Y-78.73
X119.03Y-81.73
X119.03Y-84.73
X119.03Y-87.73
X119.03Y-90.73
X119.03Y-93.73
X119.03Y-96.73
X119.03Y-99.73
X119.03Y-102.73
X120.22Y-57.73
X120.22Y-60.73
X120.22Y-63.73
X120.22Y-66.73
X120.22Y-69.73
X120.22Y-72.73
X120.22Y-75.73
X120.22Y-78.73
X120.22Y-81.73
X120.22Y-84.73
X120.22Y-87.73
X120.22Y-90.73
X120.22Y-93.73
X120.22Y-96.73
X120.22Y-99.73
X120.22Y-102.73
X121.13Y-56.88
X122.03Y-57.73
X122.03Y-60.73
X122.03Y-63.73
X122.03Y-66.73
X122.03Y-69.73
X122.03Y-72.73
X122.03Y-75.73
X122.03Y-78.73
X122.03Y-81.73
X122.03Y-84.73
X122.03Y-87.73
X122.03Y-90.73
X122.03Y-93.73
X122.03Y-96.73
X122.03Y-99.73
X122.03Y-102.73
X123.22Y-57.73
X123.22Y-60.73
X123.22Y-63.73
X123.22Y-66.73
X123.22Y-69.73
X123.22Y-72.73
X123.22Y-75.73
X123.22Y-78.73
X123.22Y-81.73
X123.22Y-84.73
X123.22Y-87.73
X123.22Y-90.73
X123.22Y-93.73
X123.22Y-96.73
X123.22Y-99.73
X123.22Y-102.73
X124.13Y-56.88
X125.03Y-57.73
X125.03Y-60.73
X125.03Y-63.73
X125.03Y-66.73
X125.03Y-69.73
X125.03Y-72.73
X125.03Y-75.73
X125.03Y-78.73
X125.03Y-81.73
X125.03Y-84.73
X125.03Y-87.73
X125.03Y-90.73
X125.03Y-93.73
X125.03Y-96.73
X125.03Y-99.73
X125.03Y-102.73
X126.22Y-57.73
X126.22Y-60.73
X126.22Y-63.73
X126.22Y-66.73
X126.22Y-69.73
X126.22Y-72.73
X126.22Y-75.73
X126.22Y-78.73
X126.22Y-81.73
X126.22Y-84.73
X126.22Y-87.73
X126.22Y-90.73
X126.22Y-93.73
X126.22Y-96.73
X126.22Y-99.73
X126.22Y-102.73
X127.13Y-56.88
X128.03Y-57.73
X128.03Y-60.73
X128.03Y-63.73
X128.03Y-66.73
X128.03Y-69.73
X128.03Y-72.73
X128.03Y-75.73
X128.03Y-78.73
X128.03Y-81.73
X128.03Y-84.73
X128.03Y-87.73
X128.03Y-90.73
X128.03Y-93.73
X128.03Y-96.73
X128.03Y-99.73
X128.03Y-102.73
X129.22Y-57.73
X129.22Y-60.73
X129.22Y-63.73
X129.22Y-66.73
X129.22Y-69.73
X129.22Y-72.73
X129.22Y-75.73
X129.22Y-78.73
X129.22Y-81.73
X129.22Y-84.73
X129.22Y-87.73
X129.22Y-90.73
X129.22Y-93.73
X129.22Y-96.73
X129.22Y-99.73
X129.22Y-102.73
X130.13Y-56.88
X131.03Y-57.73
X131.03Y-60.73
X131.03Y-63.73
X131.03Y-66.73
X131.03Y-69.73
X131.03Y-72.73
X131.03Y-75.73
X131.03Y-78.73
X131.03Y-81.73
X131.03Y-84.73
X131.03Y-87.73
X131.03Y-90.73
X131.03Y-93.73
X131.03Y-96.73
X131.03Y-99.73
X131.03Y-102.73
X132.22Y-57.73
X132.22Y-60.73
X132.22Y-63.73
X132.22Y-66.73
X132.22Y-69.73
X132.22Y-72.73
X132.22Y-75.73
X132.22Y-78.73
X132.22Y-81.73
X132.22Y-84.73
X132.22Y-87.73
X132.22Y-90.73
X132.22Y-93.73
X132.22Y-96.73
X132.22Y-99.73
X132.22Y-102.73
X133.13Y-56.88
X134.03Y-57.73
X134.03Y-60.73
X134.03Y-63.73
X134.03Y-66.73
X134.03Y-69.73
X134.03Y-72.73
X134.03Y-75.73
X134.03Y-78.73
X134.03Y-81.73
X134.03Y-84.73
X134.03Y-87.73
X134.03Y-90.73
X134.03Y-93.73
X134.03Y-96.73
X134.03Y-99.73
X134.03Y-102.73
X135.22Y-57.73
X135.22Y-60.73
X135.22Y-63.73
X135.22Y-66.73
X135.22Y-69.73
X135.22Y-72.73
X135.22Y-75.73
X135.22Y-78.73
X135.22Y-81.73
X135.22Y-84.73
X135.22Y-87.73
X135.22Y-90.73
X135.22Y-93.73
X135.22Y-96.73
X135.22Y-99.73
X135.22Y-102.73
X136.13Y-56.88
X137.03Y-57.73
X137.03Y-60.73
X137.03Y-63.73
X137.03Y-66.73
X137.03Y-69.73
X137.03Y-72.73
X137.03Y-75.73
X137.03Y-78.73
X137.03Y-81.73
X137.03Y-84.73
X137.03Y-87.73
X137.03Y-90.73
X137.03Y-93.73
X137.03Y-96.73
X137.03Y-99.73
X137.03Y-102.73
X138.22Y-57.73
X138.22Y-60.73
X138.22Y-63.73
X138.22Y-66.73
X138.22Y-69.73
X138.22Y-72.73
X138.22Y-75.73
X138.22Y-78.73
X138.22Y-81.73
X138.22Y-84.73
X138.22Y-87.73
X138.22Y-90.73
X138.22Y-93.73
X138.22Y-96.73
X138.22Y-99.73
X138.22Y-102.73
X139.13Y-56.88
X140.03Y-57.73
X140.03Y-60.73
X140.03Y-63.73
X140.03Y-66.73
X140.03Y-69.73
X140.03Y-72.73
X140.03Y-75.73
X140.03Y-78.73
X140.03Y-81.73
X140.03Y-84.73
X140.03Y-87.73
X140.03Y-90.73
X140.03Y-93.73
X140.03Y-96.73
X140.03Y-99.73
X140.03Y-102.73
X141.22Y-57.73
X141.22Y-60.73
X141.22Y-63.73
X141.22Y-66.73
X141.22Y-69.73
X141.22Y-72.73
X141.22Y-75.73
X141.22Y-78.73
X141.22Y-81.73
X141.22Y-84.73
X141.22Y-87.73
X141.22Y-90.73
X141.22Y-93.73
X141.22Y-96.73
X141.22Y-99.73
X141.22Y-102.73
X142.13Y-56.88
X143.03Y-57.73
X143.03Y-60.73
X143.03Y-63.73
X143.03Y-66.73
X143.03Y-69.73
X143.03Y-72.73
X143.03Y-75.73
X143.03Y-78.73
X143.03Y-81.73
X143.03Y-84.73
X143.03Y-87.73
X143.03Y-90.73
X143.03Y-93.73
X143.03Y-96.73
X143.03Y-99.73
X143.03Y-102.73
X144.22Y-57.73
X144.22Y-60.73
X144.22Y-63.73
X144.22Y-66.73
X144.22Y-69.73
X144.22Y-72.73
X144.22Y-75.73
X144.22Y-78.73
X144.22Y-81.73
X144.22Y-84.73
X144.22Y-87.73
X144.22Y-90.73
X144.22Y-93.73
X144.22Y-96.73
X144.22Y-99.73
X144.22Y-102.73
X145.13Y-56.88
X146.03Y-57.73
X146.03Y-60.73
X146.03Y-63.73
X146.03Y-66.73
X146.03Y-69.73
X146.03Y-72.73
X146.03Y-75.73
X146.03Y-78.73
X146.03Y-81.73
X146.03Y-84.73
X146.03Y-87.73
X146.03Y-90.73
X146.03Y-93.73
X146.03Y-96.73
X146.03Y-99.73
X146.03Y-102.73
X147.22Y-57.73
X147.22Y-60.73
X147.22Y-63.73
X147.22Y-66.73
X147.22Y-69.73
X147.22Y-72.73
X147.22Y-75.73
X147.22Y-78.73
X147.22Y-81.73
X147.22Y-84.73
X147.22Y-87.73
X147.22Y-90.73
X147.22Y-93.73
X147.22Y-96.73
X147.22Y-99.73
X147.22Y-102.73
X148.13Y-56.88
X149.03Y-57.73
X149.03Y-60.73
X149.03Y-63.73
X149.03Y-66.73
X149.03Y-69.73
X149.03Y-72.73
X149.03Y-75.73
X149.03Y-78.73
X149.03Y-81.73
X149.03Y-84.73
X149.03Y-87.73
X149.03Y-90.73
X149.03Y-93.73
X149.03Y-96.73
X149.03Y-99.73
X149.03Y-102.73
X150.22Y-57.73
X150.22Y-60.73
X150.22Y-63.73
X150.22Y-66.73
X150.22Y-69.73
X150.22Y-72.73
X150.22Y-75.73
X150.22Y-78.73
X150.22Y-81.73
X150.22Y-84.73
X150.22Y-87.73
X150.22Y-90.73
X150.22Y-93.73
X150.22Y-96.73
X150.22Y-99.73
X150.22Y-102.73
X151.13Y-56.88
X152.03Y-57.73
X152.03Y-60.73
X152.03Y-63.73
X152.03Y-66.73
X152.03Y-69.73
X152.03Y-72.73
X152.03Y-75.73
X152.03Y-78.73
X152.03Y-81.73
X152.03Y-84.73
X152.03Y-87.73
X152.03Y-90.73
X152.03Y-93.73
X152.03Y-96.73
X152.03Y-99.73
X152.03Y-102.73
X153.22Y-57.73
X153.22Y-60.73
X153.22Y-63.73
X153.22Y-66.73
X153.22Y-69.73
X153.22Y-72.73
X153.22Y-75.73
X153.22Y-78.73
X153.22Y-81.73
X153.22Y-84.73
X153.22Y-87.73
X153.22Y-90.73
X153.22Y-93.73
X153.22Y-96.73
X153.22Y-99.73
X153.22Y-102.73
X154.13Y-56.88
X155.03Y-57.73
X155.03Y-60.73
X155.03Y-63.73
X155.03Y-66.73
X155.03Y-69.73
X155.03Y-72.73
X155.03Y-75.73
X155.03Y-78.73
X155.03Y-81.73
X155.03Y-84.73
X155.03Y-87.73
X155.03Y-90.73
X155.03Y-93.73
X155.03Y-96.73
X155.03Y-99.73
X155.03Y-102.73
X156.22Y-57.73
X156.22Y-60.73
X156.22Y-63.73
X156.22Y-66.73
X156.22Y-69.73
X156.22Y-72.73
X156.22Y-75.73
X156.22Y-78.73
X156.22Y-81.73
X156.22Y-84.73
X156.22Y-87.73
X156.22Y-90.73
X156.22Y-93.73
X156.22Y-96.73
X156.22Y-99.73
X156.22Y-102.73
X157.13Y-56.88
X158.03Y-57.73
X158.03Y-60.73
X158.03Y-63.73
X158.03Y-66.73
X158.03Y-69.73
X158.03Y-72.73
X158.03Y-75.73
X158.03Y-78.73
X158.03Y-81.73
X158.03Y-84.73
X158.03Y-87.73
X158.03Y-90.73
X158.03Y-93.73
X158.03Y-96.73
X158.03Y-99.73
X158.03Y-102.73
X159.22Y-57.73
X159.22Y-60.73
X159.22Y-63.73
X159.22Y-66.73
X159.22Y-69.73
X159.22Y-72.73
X159.22Y-75.73
X159.22Y-78.73
X159.22Y-81.73
X159.22Y-84.73
X159.22Y-87.73
X159.22Y-90.73
X159.22Y-93.73
X159.22Y-96.73
X159.22Y-99.73
X159.22Y-102.73
X160.13Y-104.82
X161.03Y-57.73
X161.03Y-60.73
X161.03Y-63.73
X161.03Y-66.73
X161.03Y-69.73
X161.03Y-72.73
X161.03Y-75.73
X161.03Y-78.73
X161.03Y-81.73
X161.03Y-84.73
X161.03Y-87.73
X161.03Y-90.73
X161.03Y-93.73
X161.03Y-96.73
X161.03Y-99.73
X161.03Y-102.73
X162.22Y-57.73
X162.22Y-60.73
X162.22Y-63.73
X162.22Y-66.73
X162.22Y-69.73
X162.22Y-72.73
X162.22Y-75.73
X162.22Y-78.73
X162.22Y-81.73
X162.22Y-84.73
X162.22Y-87.73
X162.22Y-90.73
X162.22Y-93.73
X162.22Y-96.73
X162.22Y-99.73
X162.22Y-102.73
X163.13Y-104.82
X164.03Y-57.73
X164.03Y-60.73
X164.03Y-63.73
X164.03Y-66.73
X164.03Y-69.73
X164.03Y-72.73
X164.03Y-75.73
X164.03Y-78.73
X164.03Y-81.73
X164.03Y-84.73
X164.03Y-87.73
X164.03Y-90.73
X164.03Y-93.73
X164.03Y-96.73
X164.03Y-99.73
X164.03Y-102.73
X165.22Y-57.73
X165.22Y-60.73
X165.22Y-63.73
X165.22Y-66.73
X165.22Y-69.73
X165.22Y-72.73
X165.22Y-75.73
X165.22Y-78.73
X165.22Y-81.73
X165.22Y-84.73
X165.22Y-87.73
X165.22Y-90.73
X165.22Y-93.73
X165.22Y-96.73
X165.22Y-99.73
X165.22Y-102.73
X166.13Y-104.82
X167.03Y-57.73
X167.03Y-60.73
X167.03Y-63.73
X167.03Y-66.73
X167.03Y-69.73
X167.03Y-72.73
X167.03Y-75.73
X167.03Y-78.73
X167.03Y-81.73
X167.03Y-84.73
X167.03Y-87.73
X167.03Y-90.73
X167.03Y-93.73
X167.03Y-96.73
X167.03Y-99.73
X167.03Y-102.73
X168.22Y-57.73
X168.22Y-60.73
X168.22Y-63.73
X168.22Y-66.73
X168.22Y-69.73
X168.22Y-72.73
X168.22Y-75.73
X168.22Y-78.73
X168.22Y-81.73
X168.22Y-84.73
X168.22Y-87.73
X168.22Y-90.73
X168.22Y-93.73
X168.22Y-96.73
X168.22Y-99.73
X168.22Y-102.73
X169.13Y-104.82
X170.03Y-57.73
X170.03Y-60.73
X170.03Y-63.73
X170.03Y-66.73
X170.03Y-69.73
X170.03Y-72.73
X170.03Y-75.73
X170.03Y-78.73
X170.03Y-81.73
X170.03Y-84.73
X170.03Y-87.73
X170.03Y-90.73
X170.03Y-93.73
X170.03Y-96.73
X170.03Y-99.73
X170.03Y-102.73
X171.22Y-57.73
X171.22Y-60.73
X171.22Y-63.73
X171.22Y-66.73
X171.22Y-69.73
X171.22Y-72.73
X171.22Y-75.73
X171.22Y-78.73
X171.22Y-81.73
X171.22Y-84.73
X171.22Y-87.73
X171.22Y-90.73
X171.22Y-93.73
X171.22Y-96.73
X171.22Y-99.73
X171.22Y-102.73
X172.13Y-104.82
X173.03Y-57.73
X173.03Y-60.73
X173.03Y-63.73
X173.03Y-66.73
X173.03Y-69.73
X173.03Y-72.73
X173.03Y-75.73
X173.03Y-78.73
X173.03Y-81.73
X173.03Y-84.73
X173.03Y-87.73
X173.03Y-90.73
X173.03Y-93.73
X173.03Y-96.73
X173.03Y-99.73
X173.03Y-102.73
X174.22Y-57.73
X174.22Y-60.73
X174.22Y-63.73
X174.22Y-66.73
X174.22Y-69.73
X174.22Y-72.73
X174.22Y-75.73
X174.22Y-78.73
X174.22Y-81.73
X174.22Y-84.73
X174.22Y-87.73
X174.22Y-90.73
X174.22Y-93.73
X174.22Y-96.73
X174.22Y-99.73
X174.22Y-102.73
X175.13Y-104.82
X176.03Y-57.73
X176.03Y-60.73
X176.03Y-63.73
X176.03Y-66.73
X176.03Y-69.73
X176.03Y-72.73
X176.03Y-75.73
X176.03Y-78.73
X176.03Y-81.73
X176.03Y-84.73
X176.03Y-87.73
X176.03Y-90.73
X176.03Y-93.73
X176.03Y-96.73
X176.03Y-99.73
X176.03Y-102.73
X177.22Y-57.73
X177.22Y-60.73
X177.22Y-63.73
X177.22Y-66.73
X177.22Y-69.73
X177.22Y-72.73
X177.22Y-75.73
X177.22Y-78.73
X177.22Y-81.73
X177.22Y-84.73
X177.22Y-87.73
X177.22Y-90.73
X177.22Y-93.73
X177.22Y-96.73
X177.22Y-99.73
X177.22Y-102.73
X178.13Y-104.82
X179.03Y-57.73
X179.03Y-60.73
X179.03Y-63.73
X179.03Y-66.73
X179.03Y-69.73
X179.03Y-72.73
X179.03Y-75.73
X179.03Y-78.73
X179.03Y-81.73
X179.03Y-84.73
X179.03Y-87.73
X179.03Y-90.73
X179.03Y-93.73
X179.03Y-96.73
X179.03Y-99.73
X179.03Y-102.73
X180.22Y-57.73
X180.22Y-60.73
X180.22Y-63.73
X180.22Y-66.73
X180.22Y-69.73
X180.22Y-72.73
X180.22Y-75.73
X180.22Y-78.73
X180.22Y-81.73
X180.22Y-84.73
X180.22Y-87.73
X180.22Y-90.73
X180.22Y-93.73
X180.22Y-96.73
X180.22Y-99.73
X180.22Y-102.73
X181.13Y-104.82
X182.03Y-57.73
X182.03Y-60.73
X182.03Y-63.73
X182.03Y-66.73
X182.03Y-69.73
X182.03Y-72.73
X182.03Y-75.73
X182.03Y-78.73
X182.03Y-81.73
X182.03Y-84.73
X182.03Y-87.73
X182.03Y-90.73
X182.03Y-93.73
X182.03Y-96.73
X182.03Y-99.73
X182.03Y-102.73
X183.22Y-57.73
X183.22Y-60.73
X183.22Y-63.73
X183.22Y-66.73
X183.22Y-69.73
X183.22Y-72.73
X183.22Y-75.73
X183.22Y-78.73
X183.22Y-81.73
X183.22Y-84.73
X183.22Y-87.73
X183.22Y-90.73
X183.22Y-93.73
X183.22Y-96.73
X183.22Y-99.73
X183.22Y-102.73
X184.13Y-104.82
X185.03Y-57.73
X185.03Y-60.73
X185.03Y-63.73
X185.03Y-66.73
X185.03Y-69.73
X185.03Y-72.73
X185.03Y-75.73
X185.03Y-78.73
X185.03Y-81.73
X185.03Y-84.73
X185.03Y-87.73
X185.03Y-90.73
X185.03Y-93.73
X185.03Y-96.73
X185.03Y-99.73
X185.03Y-102.73
X186.22Y-57.73
X186.22Y-60.73
X186.22Y-63.73
X186.22Y-66.73
X186.22Y-69.73
X186.22Y-72.73
X186.22Y-75.73
X186.22Y-78.73
X186.22Y-81.73
X186.22Y-84.73
X186.22Y-87.73
X186.22Y-90.73
X186.22Y-93.73
X186.22Y-96.73
X186.22Y-99.73
X186.22Y-102.73
X187.13Y-104.82
X188.03Y-57.73
X188.03Y-60.73
X188.03Y-63.73
X188.03Y-66.73
X188.03Y-69.73
X188.03Y-72.73
X188.03Y-75.73
X188.03Y-78.73
X188.03Y-81.73
X188.03Y-84.73
X188.03Y-87.73
X188.03Y-90.73
X188.03Y-93.73
X188.03Y-96.73
X188.03Y-99.73
X188.03Y-102.73
X189.22Y-57.73
X189.22Y-60.73
X189.22Y-63.73
X189.22Y-66.73
X189.22Y-69.73
X189.22Y-72.73
X189.22Y-75.73
X189.22Y-78.73
X189.22Y-81.73
X189.22Y-84.73
X189.22Y-87.73
X189.22Y-90.73
X189.22Y-93.73
X189.22Y-96.73
X189.22Y-99.73
X189.22Y-102.73
X190.13Y-104.82
X191.03Y-57.73
X191.03Y-60.73
X191.03Y-63.73
X191.03Y-66.73
X191.03Y-69.73
X191.03Y-72.73
X191.03Y-75.73
X191.03Y-78.73
X191.03Y-81.73
X191.03Y-84.73
X191.03Y-87.73
X191.03Y-90.73
X191.03Y-93.73
X191.03Y-96.73
X191.03Y-99.73
X191.03Y-102.73
X192.22Y-57.73
X192.22Y-60.73
X192.22Y-63.73
X192.22Y-66.73
X192.22Y-69.73
X192.22Y-72.73
X192.22Y-75.73
X192.22Y-78.73
X192.22Y-81.73
X192.22Y-84.73
X192.22Y-87.73
X192.22Y-90.73
X192.22Y-93.73
X192.22Y-96.73
X192.22Y-99.73
X192.22Y-102.73
X193.13Y-104.82
X194.03Y-57.73
X194.03Y-60.73
X194.03Y-63.73
X194.03Y-66.73
X194.03Y-69.73
X194.03Y-72.73
X194.03Y-75.73
X194.03Y-78.73
X194.03Y-81.73
X194.03Y-84.73
X194.03Y-87.73
X194.03Y-90.73
X194.03Y-93.73
X194.03Y-96.73
X194.03Y-99.73
X194.03Y-102.73
X195.22Y-57.73
X195.22Y-60.73
X195.22Y-63.73
X195.22Y-66.73
X195.22Y-69.73
X195.22Y-72.73
X195.22Y-75.73
X195.22Y-78.73
X195.22Y-81.73
X195.22Y-84.73
X195.22Y-87.73
X195.22Y-90.73
X195.22Y-93.73
X195.22Y-96.73
X195.22Y-99.73
X195.22Y-102.73
X196.13Y-104.82
X197.03Y-57.73
X197.03Y-60.73
X197.03Y-63.73
X197.03Y-66.73
X197.03Y-69.73
X197.03Y-72.73
X197.03Y-75.73
X197.03Y-78.73
X197.03Y-81.73
X197.03Y-84.73
X197.03Y-87.73
X197.03Y-90.73
X197.03Y-93.73
X197.03Y-96.73
X197.03Y-99.73
X197.03Y-102.73
X198.22Y-57.73
X198.22Y-60.73
X198.22Y-63.73
X198.22Y-66.73
X198.22Y-69.73
X198.22Y-72.73
X198.22Y-75.73
X198.22Y-78.73
X198.22Y-81.73
X198.22Y-84.73
X198.22Y-87.73
X198.22Y-90.73
X198.22Y-93.73
X198.22Y-96.73
X198.22Y-99.73
X198.22Y-102.73
X199.13Y-104.82
X200.03Y-57.73
X200.03Y-60.73
X200.03Y-63.73
X200.03Y-66.73
X200.03Y-69.73
X200.03Y-72.73
X200.03Y-75.73
X200.03Y-78.73
X200.03Y-81.73
X200.03Y-84.73
X200.03Y-87.73
X200.03Y-90.73
X200.03Y-93.73
X200.03Y-96.73
X200.03Y-99.73
X200.03Y-102.73
X201.22Y-57.73
X201.22Y-60.73
X201.22Y-63.73
X201.22Y-66.73
X201.22Y-69.73
X201.22Y-72.73
X201.22Y-75.73
X201.22Y-78.73
X201.22Y-81.73
X201.22Y-84.73
X201.22Y-87.73
X201.22Y-90.73
X201.22Y-93.73
X201.22Y-96.73
X201.22Y-99.73
X201.22Y-102.73
X202.13Y-104.82
X203.03Y-57.73
X203.03Y-60.73
X203.03Y-63.73
X203.03Y-66.73
X203.03Y-69.73
X203.03Y-72.73
X203.03Y-75.73
X203.03Y-78.73
X203.03Y-81.73
X203.03Y-84.73
X203.03Y-87.73
X203.03Y-90.73
X203.03Y-93.73
X203.03Y-96.73
X203.03Y-99.73
X203.03Y-102.73
X204.22Y-57.73
X204.22Y-60.73
X204.22Y-63.73
X204.22Y-66.73
X204.22Y-69.73
X204.22Y-72.73
X204.22Y-75.73
X204.22Y-78.73
X204.22Y-81.73
X204.22Y-84.73
X204.22Y-87.73
X204.22Y-90.73
X204.22Y-93.73
X204.22Y-96.73
X204.22Y-99.73
X204.22Y-102.73
X205.13Y-104.82
X206.03Y-57.73
X206.03Y-60.73
X206.03Y-63.73
X206.03Y-66.73
X206.03Y-69.73
X206.03Y-72.73
X206.03Y-75.73
X206.03Y-78.73
X206.03Y-81.73
X206.03Y-84.73
X206.03Y-87.73
X206.03Y-90.73
X206.03Y-93.73
X206.03Y-96.73
X206.03Y-99.73
X206.03Y-102.73
X207.22Y-57.73
X207.22Y-60.73
X207.22Y-63.73
X207.22Y-66.73
X207.22Y-69.73
X207.22Y-72.73
X207.22Y-75.73
X207.22Y-78.73
X207.22Y-81.73
X207.22Y-84.73
X207.22Y-87.73
X207.22Y-90.73
X207.22Y-93.73
X207.22Y-96.73
X207.22Y-99.73
X207.22Y-102.73
X208.13Y-104.82
X209.03Y-57.73
X209.03Y-60.73
X209.03Y-63.73
X209.03Y-66.73
X209.03Y-69.73
X209.03Y-72.73
X209.03Y-75.73
X209.03Y-78.73
X209.03Y-81.73
X209.03Y-84.73
X209.03Y-87.73
X209.03Y-90.73
X209.03Y-93.73
X209.03Y-96.73
X209.03Y-99.73
X209.03Y-102.73
X210.22Y-57.73
X210.22Y-60.73
X210.22Y-63.73
X210.22Y-66.73
X210.22Y-69.73
X210.22Y-72.73
X210.22Y-75.73
X210.22Y-78.73
X210.22Y-81.73
X210.22Y-84.73
X210.22Y-87.73
X210.22Y-90.73
X210.22Y-93.73
X210.22Y-96.73
X210.22Y-99.73
X210.22Y-102.73
X211.13Y-104.82
X212.03Y-57.73
X212.03Y-60.73
X212.03Y-63.73
X212.03Y-66.73
X212.03Y-69.73
X212.03Y-72.73
X212.03Y-75.73
X212.03Y-78.73
X212.03Y-81.73
X212.03Y-84.73
X212.03Y-87.73
X212.03Y-90.73
X212.03Y-93.73
X212.03Y-96.73
X212.03Y-99.73
X212.03Y-102.73
X213.22Y-57.73
X213.22Y-60.73
X213.22Y-63.73
X213.22Y-66.73
X213.22Y-69.73
X213.22Y-72.73
X213.22Y-75.73
X213.22Y-78.73
X213.22Y-81.73
X213.22Y-84.73
X213.22Y-87.73
X213.22Y-90.73
X213.22Y-93.73
X213.22Y-96.73
X213.22Y-99.73
X213.22Y-102.73
X214.13Y-104.82
X215.03Y-57.73
X215.03Y-60.73
X215.03Y-63.73
X215.03Y-66.73
X215.03Y-69.73
X215.03Y-72.73
X215.03Y-75.73
X215.03Y-78.73
X215.03Y-81.73
X215.03Y-84.73
X215.03Y-87.73
X215.03Y-90.73
X215.03Y-93.73
X215.03Y-96.73
X215.03Y-99.73
X215.03Y-102.73
X216.22Y-57.73
X216.22Y-60.73
X216.22Y-63.73
X216.22Y-66.73
X216.22Y-69.73
X216.22Y-72.73
X216.22Y-75.73
X216.22Y-78.73
X216.22Y-81.73
X216.22Y-84.73
X216.22Y-87.73
X216.22Y-90.73
X216.22Y-93.73
X216.22Y-96.73
X216.22Y-99.73
X216.22Y-102.73
X217.13Y-104.82
X218.03Y-57.73
X218.03Y-60.73
X218.03Y-63.73
X218.03Y-66.73
X218.03Y-69.73
X218.03Y-72.73
X218.03Y-75.73
X218.03Y-78.73
X218.03Y-81.73
X218.03Y-84.73
X218.03Y-87.73
X218.03Y-90.73
X218.03Y-93.73
X218.03Y-96.73
X218.03Y-99.73
X218.03Y-102.73
X219.22Y-57.73
X219.22Y-60.73
X219.22Y-63.73
X219.22Y-66.73
X219.22Y-69.73
X219.22Y-72.73
X219.22Y-75.73
X219.22Y-78.73
X219.22Y-81.73
X219.22Y-84.73
X219.22Y-87.73
X219.22Y-90.73
X219.22Y-93.73
X219.22Y-96.73
X219.22Y-99.73
X219.22Y-102.73
X220.13Y-104.82
X221.03Y-57.73
X221.03Y-60.73
X221.03Y-63.73
X221.03Y-66.73
X221.03Y-69.73
X221.03Y-72.73
X221.03Y-75.73
X221.03Y-78.73
X221.03Y-81.73
X221.03Y-84.73
X221.03Y-87.73
X221.03Y-90.73
X221.03Y-93.73
X221.03Y-96.73
X221.03Y-99.73
X221.03Y-102.73
X222.22Y-57.73
X222.22Y-60.73
X222.22Y-63.73
X222.22Y-66.73
X222.22Y-69.73
X222.22Y-72.73
X222.22Y-75.73
X222.22Y-78.73
X222.22Y-81.73
X222.22Y-84.73
X222.22Y-87.73
X222.22Y-90.73
X222.22Y-93.73
X222.22Y-96.73
X222.22Y-99.73
X222.22Y-102.73
X223.13Y-104.82
X224.03Y-57.73
X224.03Y-60.73
X224.03Y-63.73
X224.03Y-66.73
X224.03Y-69.73
X224.03Y-72.73
X224.03Y-75.73
X224.03Y-78.73
X224.03Y-81.73
X224.03Y-84.73
X224.03Y-87.73
X224.03Y-90.73
X224.03Y-93.73
X224.03Y-96.73
X224.03Y-99.73
X224.03Y-102.73
X225.22Y-57.73
X225.22Y-60.73
X225.22Y-63.73
X225.22Y-66.73
X225.22Y-69.73
X225.22Y-72.73
X225.22Y-75.73
X225.22Y-78.73
X225.22Y-81.73
X225.22Y-84.73
X225.22Y-87.73
X225.22Y-90.73
X225.22Y-93.73
X225.22Y-96.73
X225.22Y-99.73
X225.22Y-102.73
X226.13Y-104.82
X227.03Y-57.73
X227.03Y-60.73
X227.03Y-63.73
X227.03Y-66.73
X227.03Y-69.73
X227.03Y-72.73
X227.03Y-75.73
X227.03Y-78.73
X227.03Y-81.73
X227.03Y-84.73
X227.03Y-87.73
X227.03Y-90.73
X227.03Y-93.73
X227.03Y-96.73
X227.03Y-99.73
X227.03Y-102.73
X228.22Y-57.73
X228.22Y-60.73
X228.22Y-63.73
X228.22Y-66.73
X228.22Y-69.73
X228.22Y-72.73
X228.22Y-75.73
X228.22Y-78.73
X228.22Y-81.73
X228.22Y-84.73
X228.22Y-87.73
X228.22Y-90.73
X228.22Y-93.73
X228.22Y-96.73
X228.22Y-99.73
X228.22Y-102.73
X229.13Y-104.82
X230.03Y-57.73
X230.03Y-60.73
X230.03Y-63.73
X230.03Y-66.73
X230.03Y-69.73
X230.03Y-72.73
X230.03Y-75.73
X230.03Y-78.73
X230.03Y-81.73
X230.03Y-84.73
X230.03Y-87.73
X230.03Y-90.73
X230.03Y-93.73
X230.03Y-96.73
X230.03Y-99.73
X230.03Y-102.73
X231.22Y-57.73
X231.22Y-60.73
X231.22Y-63.73
X231.22Y-66.73
X231.22Y-69.73
X231.22Y-72.73
X231.22Y-75.73
X231.22Y-78.73
X231.22Y-81.73
X231.22Y-84.73
X231.22Y-87.73
X231.22Y-90.73
X231.22Y-93.73
X231.22Y-96.73
X231.22Y-99.73
X231.22Y-102.73
X232.13Y-104.82
X233.03Y-57.73
X233.03Y-60.73
X233.03Y-63.73
X233.03Y-66.73
X233.03Y-69.73
X233.03Y-72.73
X233.03Y-75.73
X233.03Y-78.73
X233.03Y-81.73
X233.03Y-84.73
X233.03Y-87.73
X233.03Y-90.73
X233.03Y-93.73
X233.03Y-96.73
X233.03Y-99.73
X233.03Y-102.73
X234.22Y-57.73
X234.22Y-60.73
X234.22Y-63.73
X234.22Y-66.73
X234.22Y-69.73
X234.22Y-72.73
X234.22Y-75.73
X234.22Y-78.73
X234.22Y-81.73
X234.22Y-84.73
X234.22Y-87.73
X234.22Y-90.73
X234.22Y-93.73
X234.22Y-96.73
X234.22Y-99.73
X234.22Y-102.73
X235.13Y-104.82
X236.03Y-57.73
X236.03Y-60.73
X236.03Y-63.73
X236.03Y-66.73
X236.03Y-69.73
X236.03Y-72.73
X236.03Y-75.73
X236.03Y-78.73
X236.03Y-81.73
X236.03Y-84.73
X236.03Y-87.73
X236.03Y-90.73
X236.03Y-93.73
X236.03Y-96.73
X236.03Y-99.73
X236.03Y-102.73
X237.22Y-57.73
X237.22Y-60.73
X237.22Y-63.73
X237.22Y-66.73
X237.22Y-69.73
X237.22Y-72.73
X237.22Y-75.73
X237.22Y-78.73
X237.22Y-81.73
X237.22Y-84.73
X237.22Y-87.73
X237.22Y-90.73
X237.22Y-93.73
X237.22Y-96.73
X237.22Y-99.73
X237.22Y-102.73
X238.13Y-104.82
X239.03Y-57.73
X239.03Y-60.73
X239.03Y-63.73
X239.03Y-66.73
X239.03Y-69.73
X239.03Y-72.73
X239.03Y-75.73
X239.03Y-78.73
X239.03Y-81.73
X239.03Y-84.73
X239.03Y-87.73
X239.03Y-90.73
X239.03Y-93.73
X239.03Y-96.73
X239.03Y-99.73
X239.03Y-102.73
X240.22Y-57.73
X240.22Y-60.73
X240.22Y-63.73
X240.22Y-66.73
X240.22Y-69.73
X240.22Y-72.73
X240.22Y-75.73
X240.22Y-78.73
X240.22Y-81.73
X240.22Y-84.73
X240.22Y-87.73
X240.22Y-90.73
X240.22Y-93.73
X240.22Y-96.73
X240.22Y-99.73
X240.22Y-102.73
X241.13Y-104.82
X242.03Y-57.73
X242.03Y-60.73
X242.03Y-63.73
X242.03Y-66.73
X242.03Y-69.73
X242.03Y-72.73
X242.03Y-75.73
X242.03Y-78.73
X242.03Y-81.73
X242.03Y-84.73
X242.03Y-87.73
X242.03Y-90.73
X242.03Y-93.73
X242.03Y-96.73
X242.03Y-99.73
X242.03Y-102.73
X243.22Y-57.73
X243.22Y-60.73
X243.22Y-63.73
X243.22Y-66.73
X243.22Y-69.73
X243.22Y-72.73
X243.22Y-75.73
X243.22Y-78.73
X243.22Y-81.73
X243.22Y-84.73
X243.22Y-87.73
X243.22Y-90.73
X243.22Y-93.73
X243.22Y-96.73
X243.22Y-99.73
X243.22Y-102.73
X244.13Y-104.82
X245.03Y-57.73
X245.03Y-60.73
X245.03Y-63.73
X245.03Y-66.73
X245.03Y-69.73
X245.03Y-72.73
X245.03Y-75.73
X245.03Y-78.73
X245.03Y-81.73
X245.03Y-84.73
X245.03Y-87.73
X245.03Y-90.73
X245.03Y-93.73
X245.03Y-96.73
X245.03Y-99.73
X245.03Y-102.73
X246.22Y-57.73
X246.22Y-60.73
X246.22Y-63.73
X246.22Y-66.73
X246.22Y-69.73
X246.22Y-72.73
X246.22Y-75.73
X246.22Y-78.73
X246.22Y-81.73
X246.22Y-84.73
X246.22Y-87.73
X246.22Y-90.73
X246.22Y-93.73
X246.22Y-96.73
X246.22Y-99.73
X246.22Y-102.73
X247.13Y-104.82
X248.03Y-57.73
X248.03Y-60.73
X248.03Y-63.73
X248.03Y-66.73
X248.03Y-69.73
X248.03Y-72.73
X248.03Y-75.73
X248.03Y-78.73
X248.03Y-81.73
X248.03Y-84.73
X248.03Y-87.73
X248.03Y-90.73
X248.03Y-93.73
X248.03Y-96.73
X248.03Y-99.73
X248.03Y-102.73
X249.22Y-57.73
X249.22Y-60.73
X249.22Y-63.73
X249.22Y-66.73
X249.22Y-69.73
X249.22Y-72.73
X249.22Y-75.73
X249.22Y-78.73
X249.22Y-81.73
X249.22Y-84.73
X249.22Y-87.73
X249.22Y-90.73
X249.22Y-93.73
X249.22Y-96.73
X249.22Y-99.73
X249.22Y-102.73
X250.13Y-104.82
X251.03Y-57.73
X251.03Y-60.73
X251.03Y-63.73
X251.03Y-66.73
X251.03Y-69.73
X251.03Y-72.73
X251.03Y-75.73
X251.03Y-78.73
X251.03Y-81.73
X251.03Y-84.73
X251.03Y-87.73
X251.03Y-90.73
X251.03Y-93.73
X251.03Y-96.73
X251.03Y-99.73
X251.03Y-102.73
X252.22Y-57.73
X252.22Y-60.73
X252.22Y-63.73
X252.22Y-66.73
X252.22Y-69.73
X252.22Y-72.73
X252.22Y-75.73
X252.22Y-78.73
X252.22Y-81.73
X252.22Y-84.73
X252.22Y-87.73
X252.22Y-90.73
X252.22Y-93.73
X252.22Y-96.73
X252.22Y-99.73
X252.22Y-102.73
X253.13Y-104.82
X254.03Y-57.73
X254.03Y-60.73
X254.03Y-63.73
X254.03Y-66.73
X254.03Y-69.73
X254.03Y-72.73
X254.03Y-75.73
X254.03Y-78.73
X254.03Y-81.73
X254.03Y-84.73
X254.03Y-87.73
X254.03Y-90.73
X254.03Y-93.73
X254.03Y-96.73
X254.03Y-99.73
X254.03Y-102.73
T0
M30
