G04 #@! TF.GenerationSoftware,KiCad,Pcbnew,6.0.8+dfsg-1~bpo11+1*
G04 #@! TF.CreationDate,2023-05-30T17:00:38-04:00*
G04 #@! TF.ProjectId,10_padded_high_res_loose,31305f70-6164-4646-9564-5f686967685f,rev?*
G04 #@! TF.SameCoordinates,Original*
G04 #@! TF.FileFunction,Copper,L2,Bot*
G04 #@! TF.FilePolarity,Positive*
%FSLAX46Y46*%
G04 Gerber Fmt 4.6, Leading zero omitted, Abs format (unit mm)*
G04 Created by KiCad (PCBNEW 6.0.8+dfsg-1~bpo11+1) date 2023-05-30 17:00:38*
%MOMM*%
%LPD*%
G01*
G04 APERTURE LIST*
G04 #@! TA.AperFunction,SMDPad,CuDef*
%ADD10R,1.200000X0.600000*%
G04 #@! TD*
G04 #@! TA.AperFunction,SMDPad,CuDef*
%ADD11R,1.400000X0.800000*%
G04 #@! TD*
G04 #@! TA.AperFunction,ViaPad*
%ADD12C,0.400000*%
G04 #@! TD*
G04 #@! TA.AperFunction,Conductor*
%ADD13C,0.127000*%
G04 #@! TD*
G04 APERTURE END LIST*
D10*
X263090000Y-81540000D03*
X260190000Y-82040000D03*
X263090000Y-82540000D03*
X260190000Y-83040000D03*
X263090000Y-83540000D03*
X260190000Y-84040000D03*
X263090000Y-84540000D03*
X260190000Y-85040000D03*
D11*
X262990000Y-80540000D03*
X260290000Y-80540000D03*
X262990000Y-86040000D03*
X260290000Y-86040000D03*
D10*
X53490000Y-62070000D03*
X50590000Y-62570000D03*
X53490000Y-63070000D03*
X50590000Y-63570000D03*
X53490000Y-64070000D03*
X50590000Y-64570000D03*
X53490000Y-65070000D03*
X50590000Y-65570000D03*
X53490000Y-66070000D03*
X50590000Y-66570000D03*
X53490000Y-67070000D03*
X50590000Y-67570000D03*
X53490000Y-68070000D03*
X50590000Y-68570000D03*
X53490000Y-69070000D03*
X50590000Y-69570000D03*
X53490000Y-70070000D03*
X50590000Y-70570000D03*
X53490000Y-71070000D03*
X50590000Y-71570000D03*
X53490000Y-72070000D03*
X50590000Y-72570000D03*
X53490000Y-73070000D03*
X50590000Y-73570000D03*
X53490000Y-74070000D03*
X50590000Y-74570000D03*
X53490000Y-75070000D03*
X50590000Y-75570000D03*
X53490000Y-76070000D03*
X50590000Y-76570000D03*
X53490000Y-77070000D03*
X50590000Y-77570000D03*
D11*
X53390000Y-61070000D03*
X50690000Y-61070000D03*
X53390000Y-78570000D03*
X50690000Y-78570000D03*
D10*
X50560000Y-99160000D03*
X53460000Y-98660000D03*
X50560000Y-98160000D03*
X53460000Y-97660000D03*
X50560000Y-97160000D03*
X53460000Y-96660000D03*
X50560000Y-96160000D03*
X53460000Y-95660000D03*
X50560000Y-95160000D03*
X53460000Y-94660000D03*
X50560000Y-94160000D03*
X53460000Y-93660000D03*
X50560000Y-93160000D03*
X53460000Y-92660000D03*
X50560000Y-92160000D03*
X53460000Y-91660000D03*
X50560000Y-91160000D03*
X53460000Y-90660000D03*
X50560000Y-90160000D03*
X53460000Y-89660000D03*
X50560000Y-89160000D03*
X53460000Y-88660000D03*
X50560000Y-88160000D03*
X53460000Y-87660000D03*
X50560000Y-87160000D03*
X53460000Y-86660000D03*
X50560000Y-86160000D03*
X53460000Y-85660000D03*
X50560000Y-85160000D03*
X53460000Y-84660000D03*
X50560000Y-84160000D03*
X53460000Y-83660000D03*
D11*
X50660000Y-100160000D03*
X53360000Y-100160000D03*
X50660000Y-82660000D03*
X53360000Y-82660000D03*
D10*
X262990000Y-68890000D03*
X260090000Y-69390000D03*
X262990000Y-69890000D03*
X260090000Y-70390000D03*
X262990000Y-70890000D03*
X260090000Y-71390000D03*
X262990000Y-71890000D03*
X260090000Y-72390000D03*
D11*
X262890000Y-67890000D03*
X260190000Y-67890000D03*
X262890000Y-73390000D03*
X260190000Y-73390000D03*
D12*
X253130000Y-104820000D03*
X250130000Y-104820000D03*
X247130000Y-104820000D03*
X244130000Y-104820000D03*
X241130000Y-104820000D03*
X238130000Y-104820000D03*
X235130000Y-104820000D03*
X232130000Y-104820000D03*
X170030000Y-81730000D03*
X234220000Y-81730000D03*
X72220000Y-81730000D03*
X252220000Y-81730000D03*
X221030000Y-81730000D03*
X78220000Y-81730000D03*
X228220000Y-81730000D03*
X174220000Y-81730000D03*
X215030000Y-81730000D03*
X233030000Y-81730000D03*
X107030000Y-81730000D03*
X66220000Y-81730000D03*
X75220000Y-81730000D03*
X129220000Y-81730000D03*
X243220000Y-81730000D03*
X140030000Y-81730000D03*
X207220000Y-81730000D03*
X197030000Y-81730000D03*
X192220000Y-81730000D03*
X74030000Y-81730000D03*
X143030000Y-81730000D03*
X249220000Y-81730000D03*
X194030000Y-81730000D03*
X177220000Y-81730000D03*
X219220000Y-81730000D03*
X141220000Y-81730000D03*
X80030000Y-81730000D03*
X144220000Y-81730000D03*
X158030000Y-81730000D03*
X98030000Y-81730000D03*
X159220000Y-81730000D03*
X99220000Y-81730000D03*
X146030000Y-81730000D03*
X113030000Y-81730000D03*
X222220000Y-81730000D03*
X102220000Y-81730000D03*
X123220000Y-81730000D03*
X251030000Y-81730000D03*
X183220000Y-81730000D03*
X171220000Y-81730000D03*
X191030000Y-81730000D03*
X224030000Y-81730000D03*
X149030000Y-81730000D03*
X210220000Y-81730000D03*
X65030000Y-81730000D03*
X204220000Y-81730000D03*
X95030000Y-81730000D03*
X245030000Y-81730000D03*
X114220000Y-81730000D03*
X153220000Y-81730000D03*
X155030000Y-81730000D03*
X206030000Y-81730000D03*
X161030000Y-81730000D03*
X83030000Y-81730000D03*
X119030000Y-81730000D03*
X240220000Y-81730000D03*
X152030000Y-81730000D03*
X71030000Y-81730000D03*
X63220000Y-81730000D03*
X248030000Y-81730000D03*
X213220000Y-81730000D03*
X126220000Y-81730000D03*
X237220000Y-81730000D03*
X89030000Y-81730000D03*
X167030000Y-81730000D03*
X104030000Y-81730000D03*
X201220000Y-81730000D03*
X189220000Y-81730000D03*
X128030000Y-81730000D03*
X92030000Y-81730000D03*
X209030000Y-81730000D03*
X182030000Y-81730000D03*
X96220000Y-81730000D03*
X68030000Y-81730000D03*
X122030000Y-81730000D03*
X134030000Y-81730000D03*
X203030000Y-81730000D03*
X150220000Y-81730000D03*
X131030000Y-81730000D03*
X164030000Y-81730000D03*
X110030000Y-81730000D03*
X69220000Y-81730000D03*
X242030000Y-81730000D03*
X108220000Y-81730000D03*
X125030000Y-81730000D03*
X111220000Y-81730000D03*
X236030000Y-81730000D03*
X239030000Y-81730000D03*
X101030000Y-81730000D03*
X230030000Y-81730000D03*
X179030000Y-81730000D03*
X116030000Y-81730000D03*
X87220000Y-81730000D03*
X105220000Y-81730000D03*
X195220000Y-81730000D03*
X254030000Y-81730000D03*
X137030000Y-81730000D03*
X86030000Y-81730000D03*
X186220000Y-81730000D03*
X77030000Y-81730000D03*
X173030000Y-81730000D03*
X135220000Y-81730000D03*
X188030000Y-81730000D03*
X120220000Y-81730000D03*
X168220000Y-81730000D03*
X93220000Y-81730000D03*
X198220000Y-81730000D03*
X218030000Y-81730000D03*
X180220000Y-81730000D03*
X212030000Y-81730000D03*
X147220000Y-81730000D03*
X90220000Y-81730000D03*
X81220000Y-81730000D03*
X156220000Y-81730000D03*
X231220000Y-81730000D03*
X132220000Y-81730000D03*
X185030000Y-81730000D03*
X84220000Y-81730000D03*
X225220000Y-81730000D03*
X162220000Y-81730000D03*
X200030000Y-81730000D03*
X117220000Y-81730000D03*
X176030000Y-81730000D03*
X165220000Y-81730000D03*
X246220000Y-81730000D03*
X227030000Y-81730000D03*
X216220000Y-81730000D03*
X138220000Y-81730000D03*
X182030000Y-84730000D03*
X186220000Y-84730000D03*
X246220000Y-84730000D03*
X138220000Y-84730000D03*
X116030000Y-84730000D03*
X171220000Y-84730000D03*
X221030000Y-84730000D03*
X141220000Y-84730000D03*
X87220000Y-84730000D03*
X90220000Y-84730000D03*
X185030000Y-84730000D03*
X248030000Y-84730000D03*
X173030000Y-84730000D03*
X162220000Y-84730000D03*
X195220000Y-84730000D03*
X177220000Y-84730000D03*
X233030000Y-84730000D03*
X183220000Y-84730000D03*
X204220000Y-84730000D03*
X245030000Y-84730000D03*
X254030000Y-84730000D03*
X135220000Y-84730000D03*
X215030000Y-84730000D03*
X251030000Y-84730000D03*
X174220000Y-84730000D03*
X227030000Y-84730000D03*
X143030000Y-84730000D03*
X216220000Y-84730000D03*
X170030000Y-84730000D03*
X92030000Y-84730000D03*
X243220000Y-84730000D03*
X137030000Y-84730000D03*
X249220000Y-84730000D03*
X197030000Y-84730000D03*
X131030000Y-84730000D03*
X207220000Y-84730000D03*
X69220000Y-84730000D03*
X98030000Y-84730000D03*
X176030000Y-84730000D03*
X84220000Y-84730000D03*
X71030000Y-84730000D03*
X86030000Y-84730000D03*
X189220000Y-84730000D03*
X158030000Y-84730000D03*
X222220000Y-84730000D03*
X93220000Y-84730000D03*
X200030000Y-84730000D03*
X191030000Y-84730000D03*
X95030000Y-84730000D03*
X129220000Y-84730000D03*
X101030000Y-84730000D03*
X96220000Y-84730000D03*
X75220000Y-84730000D03*
X234220000Y-84730000D03*
X168220000Y-84730000D03*
X236030000Y-84730000D03*
X159220000Y-84730000D03*
X152030000Y-84730000D03*
X107030000Y-84730000D03*
X206030000Y-84730000D03*
X68030000Y-84730000D03*
X212030000Y-84730000D03*
X188030000Y-84730000D03*
X198220000Y-84730000D03*
X228220000Y-84730000D03*
X66220000Y-84730000D03*
X105220000Y-84730000D03*
X230030000Y-84730000D03*
X89030000Y-84730000D03*
X111220000Y-84730000D03*
X192220000Y-84730000D03*
X225220000Y-84730000D03*
X120220000Y-84730000D03*
X242030000Y-84730000D03*
X210220000Y-84730000D03*
X110030000Y-84730000D03*
X237220000Y-84730000D03*
X147220000Y-84730000D03*
X119030000Y-84730000D03*
X113030000Y-84730000D03*
X72220000Y-84730000D03*
X83030000Y-84730000D03*
X218030000Y-84730000D03*
X146030000Y-84730000D03*
X180220000Y-84730000D03*
X252220000Y-84730000D03*
X128030000Y-84730000D03*
X213220000Y-84730000D03*
X126220000Y-84730000D03*
X78220000Y-84730000D03*
X140030000Y-84730000D03*
X99220000Y-84730000D03*
X161030000Y-84730000D03*
X122030000Y-84730000D03*
X65030000Y-84730000D03*
X156220000Y-84730000D03*
X125030000Y-84730000D03*
X108220000Y-84730000D03*
X239030000Y-84730000D03*
X224030000Y-84730000D03*
X203030000Y-84730000D03*
X179030000Y-84730000D03*
X132220000Y-84730000D03*
X77030000Y-84730000D03*
X194030000Y-84730000D03*
X123220000Y-84730000D03*
X201220000Y-84730000D03*
X104030000Y-84730000D03*
X219220000Y-84730000D03*
X167030000Y-84730000D03*
X164030000Y-84730000D03*
X80030000Y-84730000D03*
X134030000Y-84730000D03*
X144220000Y-84730000D03*
X74030000Y-84730000D03*
X209030000Y-84730000D03*
X117220000Y-84730000D03*
X150220000Y-84730000D03*
X114220000Y-84730000D03*
X102220000Y-84730000D03*
X165220000Y-84730000D03*
X149030000Y-84730000D03*
X240220000Y-84730000D03*
X153220000Y-84730000D03*
X63220000Y-84730000D03*
X155030000Y-84730000D03*
X81220000Y-84730000D03*
X231220000Y-84730000D03*
X173030000Y-87730000D03*
X105220000Y-87730000D03*
X83030000Y-87730000D03*
X131030000Y-87730000D03*
X239030000Y-87730000D03*
X222220000Y-87730000D03*
X242030000Y-87730000D03*
X219220000Y-87730000D03*
X164030000Y-87730000D03*
X221030000Y-87730000D03*
X165220000Y-87730000D03*
X126220000Y-87730000D03*
X185030000Y-87730000D03*
X123220000Y-87730000D03*
X206030000Y-87730000D03*
X230030000Y-87730000D03*
X101030000Y-87730000D03*
X141220000Y-87730000D03*
X218030000Y-87730000D03*
X170030000Y-87730000D03*
X140030000Y-87730000D03*
X98030000Y-87730000D03*
X240220000Y-87730000D03*
X116030000Y-87730000D03*
X197030000Y-87730000D03*
X63220000Y-87730000D03*
X149030000Y-87730000D03*
X198220000Y-87730000D03*
X251030000Y-87730000D03*
X216220000Y-87730000D03*
X117220000Y-87730000D03*
X182030000Y-87730000D03*
X110030000Y-87730000D03*
X168220000Y-87730000D03*
X111220000Y-87730000D03*
X152030000Y-87730000D03*
X96220000Y-87730000D03*
X120220000Y-87730000D03*
X144220000Y-87730000D03*
X210220000Y-87730000D03*
X155030000Y-87730000D03*
X125030000Y-87730000D03*
X179030000Y-87730000D03*
X225220000Y-87730000D03*
X114220000Y-87730000D03*
X66220000Y-87730000D03*
X213220000Y-87730000D03*
X69220000Y-87730000D03*
X104030000Y-87730000D03*
X90220000Y-87730000D03*
X74030000Y-87730000D03*
X189220000Y-87730000D03*
X236030000Y-87730000D03*
X122030000Y-87730000D03*
X248030000Y-87730000D03*
X231220000Y-87730000D03*
X81220000Y-87730000D03*
X107030000Y-87730000D03*
X200030000Y-87730000D03*
X132220000Y-87730000D03*
X228220000Y-87730000D03*
X237220000Y-87730000D03*
X207220000Y-87730000D03*
X243220000Y-87730000D03*
X234220000Y-87730000D03*
X177220000Y-87730000D03*
X171220000Y-87730000D03*
X113030000Y-87730000D03*
X150220000Y-87730000D03*
X119030000Y-87730000D03*
X78220000Y-87730000D03*
X174220000Y-87730000D03*
X195220000Y-87730000D03*
X212030000Y-87730000D03*
X134030000Y-87730000D03*
X204220000Y-87730000D03*
X215030000Y-87730000D03*
X128030000Y-87730000D03*
X246220000Y-87730000D03*
X233030000Y-87730000D03*
X245030000Y-87730000D03*
X87220000Y-87730000D03*
X84220000Y-87730000D03*
X99220000Y-87730000D03*
X137030000Y-87730000D03*
X129220000Y-87730000D03*
X203030000Y-87730000D03*
X77030000Y-87730000D03*
X93220000Y-87730000D03*
X80030000Y-87730000D03*
X167030000Y-87730000D03*
X227030000Y-87730000D03*
X68030000Y-87730000D03*
X153220000Y-87730000D03*
X75220000Y-87730000D03*
X159220000Y-87730000D03*
X108220000Y-87730000D03*
X65030000Y-87730000D03*
X183220000Y-87730000D03*
X95030000Y-87730000D03*
X72220000Y-87730000D03*
X194030000Y-87730000D03*
X186220000Y-87730000D03*
X162220000Y-87730000D03*
X192220000Y-87730000D03*
X191030000Y-87730000D03*
X138220000Y-87730000D03*
X209030000Y-87730000D03*
X176030000Y-87730000D03*
X143030000Y-87730000D03*
X92030000Y-87730000D03*
X254030000Y-87730000D03*
X146030000Y-87730000D03*
X188030000Y-87730000D03*
X180220000Y-87730000D03*
X147220000Y-87730000D03*
X135220000Y-87730000D03*
X156220000Y-87730000D03*
X102220000Y-87730000D03*
X89030000Y-87730000D03*
X86030000Y-87730000D03*
X224030000Y-87730000D03*
X71030000Y-87730000D03*
X201220000Y-87730000D03*
X252220000Y-87730000D03*
X161030000Y-87730000D03*
X158030000Y-87730000D03*
X249220000Y-87730000D03*
X132220000Y-90730000D03*
X182030000Y-90730000D03*
X213220000Y-90730000D03*
X162220000Y-90730000D03*
X65030000Y-90730000D03*
X75220000Y-90730000D03*
X141220000Y-90730000D03*
X120220000Y-90730000D03*
X117220000Y-90730000D03*
X183220000Y-90730000D03*
X192220000Y-90730000D03*
X236030000Y-90730000D03*
X99220000Y-90730000D03*
X110030000Y-90730000D03*
X252220000Y-90730000D03*
X114220000Y-90730000D03*
X108220000Y-90730000D03*
X188030000Y-90730000D03*
X164030000Y-90730000D03*
X152030000Y-90730000D03*
X242030000Y-90730000D03*
X83030000Y-90730000D03*
X197030000Y-90730000D03*
X219220000Y-90730000D03*
X191030000Y-90730000D03*
X111220000Y-90730000D03*
X137030000Y-90730000D03*
X248030000Y-90730000D03*
X189220000Y-90730000D03*
X153220000Y-90730000D03*
X89030000Y-90730000D03*
X143030000Y-90730000D03*
X165220000Y-90730000D03*
X237220000Y-90730000D03*
X218030000Y-90730000D03*
X225220000Y-90730000D03*
X176030000Y-90730000D03*
X119030000Y-90730000D03*
X101030000Y-90730000D03*
X123220000Y-90730000D03*
X63220000Y-90730000D03*
X122030000Y-90730000D03*
X150220000Y-90730000D03*
X180220000Y-90730000D03*
X92030000Y-90730000D03*
X194030000Y-90730000D03*
X144220000Y-90730000D03*
X174220000Y-90730000D03*
X245030000Y-90730000D03*
X156220000Y-90730000D03*
X81220000Y-90730000D03*
X239030000Y-90730000D03*
X230030000Y-90730000D03*
X210220000Y-90730000D03*
X168220000Y-90730000D03*
X72220000Y-90730000D03*
X147220000Y-90730000D03*
X77030000Y-90730000D03*
X105220000Y-90730000D03*
X185030000Y-90730000D03*
X177220000Y-90730000D03*
X221030000Y-90730000D03*
X107030000Y-90730000D03*
X102220000Y-90730000D03*
X138220000Y-90730000D03*
X243220000Y-90730000D03*
X201220000Y-90730000D03*
X93220000Y-90730000D03*
X251030000Y-90730000D03*
X200030000Y-90730000D03*
X159220000Y-90730000D03*
X95030000Y-90730000D03*
X68030000Y-90730000D03*
X212030000Y-90730000D03*
X146030000Y-90730000D03*
X116030000Y-90730000D03*
X203030000Y-90730000D03*
X198220000Y-90730000D03*
X167030000Y-90730000D03*
X86030000Y-90730000D03*
X71030000Y-90730000D03*
X204220000Y-90730000D03*
X149030000Y-90730000D03*
X234220000Y-90730000D03*
X128030000Y-90730000D03*
X104030000Y-90730000D03*
X209030000Y-90730000D03*
X233030000Y-90730000D03*
X170030000Y-90730000D03*
X254030000Y-90730000D03*
X246220000Y-90730000D03*
X249220000Y-90730000D03*
X158030000Y-90730000D03*
X186220000Y-90730000D03*
X240220000Y-90730000D03*
X135220000Y-90730000D03*
X125030000Y-90730000D03*
X155030000Y-90730000D03*
X126220000Y-90730000D03*
X228220000Y-90730000D03*
X131030000Y-90730000D03*
X113030000Y-90730000D03*
X206030000Y-90730000D03*
X80030000Y-90730000D03*
X78220000Y-90730000D03*
X215030000Y-90730000D03*
X87220000Y-90730000D03*
X207220000Y-90730000D03*
X195220000Y-90730000D03*
X222220000Y-90730000D03*
X90220000Y-90730000D03*
X96220000Y-90730000D03*
X84220000Y-90730000D03*
X134030000Y-90730000D03*
X129220000Y-90730000D03*
X179030000Y-90730000D03*
X98030000Y-90730000D03*
X66220000Y-90730000D03*
X173030000Y-90730000D03*
X74030000Y-90730000D03*
X231220000Y-90730000D03*
X227030000Y-90730000D03*
X216220000Y-90730000D03*
X140030000Y-90730000D03*
X171220000Y-90730000D03*
X161030000Y-90730000D03*
X69220000Y-90730000D03*
X224030000Y-90730000D03*
X137030000Y-93730000D03*
X119030000Y-93730000D03*
X93220000Y-93730000D03*
X83030000Y-93730000D03*
X185030000Y-93730000D03*
X77030000Y-93730000D03*
X78220000Y-93730000D03*
X141220000Y-93730000D03*
X174220000Y-93730000D03*
X225220000Y-93730000D03*
X146030000Y-93730000D03*
X108220000Y-93730000D03*
X71030000Y-93730000D03*
X215030000Y-93730000D03*
X68030000Y-93730000D03*
X236030000Y-93730000D03*
X237220000Y-93730000D03*
X114220000Y-93730000D03*
X248030000Y-93730000D03*
X203030000Y-93730000D03*
X234220000Y-93730000D03*
X87220000Y-93730000D03*
X110030000Y-93730000D03*
X182030000Y-93730000D03*
X156220000Y-93730000D03*
X147220000Y-93730000D03*
X107030000Y-93730000D03*
X198220000Y-93730000D03*
X204220000Y-93730000D03*
X177220000Y-93730000D03*
X101030000Y-93730000D03*
X183220000Y-93730000D03*
X194030000Y-93730000D03*
X240220000Y-93730000D03*
X188030000Y-93730000D03*
X200030000Y-93730000D03*
X128030000Y-93730000D03*
X195220000Y-93730000D03*
X132220000Y-93730000D03*
X230030000Y-93730000D03*
X192220000Y-93730000D03*
X162220000Y-93730000D03*
X95030000Y-93730000D03*
X143030000Y-93730000D03*
X167030000Y-93730000D03*
X131030000Y-93730000D03*
X231220000Y-93730000D03*
X125030000Y-93730000D03*
X90220000Y-93730000D03*
X74030000Y-93730000D03*
X207220000Y-93730000D03*
X222220000Y-93730000D03*
X150220000Y-93730000D03*
X219220000Y-93730000D03*
X218030000Y-93730000D03*
X66220000Y-93730000D03*
X209030000Y-93730000D03*
X105220000Y-93730000D03*
X254030000Y-93730000D03*
X180220000Y-93730000D03*
X111220000Y-93730000D03*
X104030000Y-93730000D03*
X201220000Y-93730000D03*
X99220000Y-93730000D03*
X86030000Y-93730000D03*
X81220000Y-93730000D03*
X72220000Y-93730000D03*
X243220000Y-93730000D03*
X117220000Y-93730000D03*
X179030000Y-93730000D03*
X168220000Y-93730000D03*
X155030000Y-93730000D03*
X123220000Y-93730000D03*
X89030000Y-93730000D03*
X161030000Y-93730000D03*
X224030000Y-93730000D03*
X159220000Y-93730000D03*
X92030000Y-93730000D03*
X245030000Y-93730000D03*
X171220000Y-93730000D03*
X69220000Y-93730000D03*
X170030000Y-93730000D03*
X191030000Y-93730000D03*
X63220000Y-93730000D03*
X242030000Y-93730000D03*
X116030000Y-93730000D03*
X173030000Y-93730000D03*
X135220000Y-93730000D03*
X233030000Y-93730000D03*
X113030000Y-93730000D03*
X122030000Y-93730000D03*
X221030000Y-93730000D03*
X251030000Y-93730000D03*
X140030000Y-93730000D03*
X239030000Y-93730000D03*
X210220000Y-93730000D03*
X144220000Y-93730000D03*
X75220000Y-93730000D03*
X228220000Y-93730000D03*
X126220000Y-93730000D03*
X149030000Y-93730000D03*
X98030000Y-93730000D03*
X206030000Y-93730000D03*
X164030000Y-93730000D03*
X249220000Y-93730000D03*
X96220000Y-93730000D03*
X212030000Y-93730000D03*
X186220000Y-93730000D03*
X152030000Y-93730000D03*
X153220000Y-93730000D03*
X216220000Y-93730000D03*
X129220000Y-93730000D03*
X213220000Y-93730000D03*
X189220000Y-93730000D03*
X158030000Y-93730000D03*
X138220000Y-93730000D03*
X176030000Y-93730000D03*
X246220000Y-93730000D03*
X252220000Y-93730000D03*
X120220000Y-93730000D03*
X134030000Y-93730000D03*
X80030000Y-93730000D03*
X84220000Y-93730000D03*
X227030000Y-93730000D03*
X65030000Y-93730000D03*
X102220000Y-93730000D03*
X165220000Y-93730000D03*
X197030000Y-93730000D03*
X240220000Y-96730000D03*
X105220000Y-96730000D03*
X221030000Y-96730000D03*
X197030000Y-96730000D03*
X189220000Y-96730000D03*
X113030000Y-96730000D03*
X86030000Y-96730000D03*
X185030000Y-96730000D03*
X104030000Y-96730000D03*
X242030000Y-96730000D03*
X216220000Y-96730000D03*
X81220000Y-96730000D03*
X129220000Y-96730000D03*
X177220000Y-96730000D03*
X167030000Y-96730000D03*
X128030000Y-96730000D03*
X83030000Y-96730000D03*
X170030000Y-96730000D03*
X69220000Y-96730000D03*
X93220000Y-96730000D03*
X168220000Y-96730000D03*
X234220000Y-96730000D03*
X147220000Y-96730000D03*
X120220000Y-96730000D03*
X84220000Y-96730000D03*
X248030000Y-96730000D03*
X236030000Y-96730000D03*
X107030000Y-96730000D03*
X137030000Y-96730000D03*
X150220000Y-96730000D03*
X111220000Y-96730000D03*
X249220000Y-96730000D03*
X245030000Y-96730000D03*
X227030000Y-96730000D03*
X162220000Y-96730000D03*
X80030000Y-96730000D03*
X204220000Y-96730000D03*
X186220000Y-96730000D03*
X251030000Y-96730000D03*
X65030000Y-96730000D03*
X102220000Y-96730000D03*
X116030000Y-96730000D03*
X243220000Y-96730000D03*
X95030000Y-96730000D03*
X101030000Y-96730000D03*
X146030000Y-96730000D03*
X173030000Y-96730000D03*
X171220000Y-96730000D03*
X198220000Y-96730000D03*
X74030000Y-96730000D03*
X219220000Y-96730000D03*
X149030000Y-96730000D03*
X194030000Y-96730000D03*
X164030000Y-96730000D03*
X174220000Y-96730000D03*
X123220000Y-96730000D03*
X239030000Y-96730000D03*
X230030000Y-96730000D03*
X215030000Y-96730000D03*
X212030000Y-96730000D03*
X98030000Y-96730000D03*
X75220000Y-96730000D03*
X144220000Y-96730000D03*
X131030000Y-96730000D03*
X209030000Y-96730000D03*
X233030000Y-96730000D03*
X224030000Y-96730000D03*
X165220000Y-96730000D03*
X155030000Y-96730000D03*
X225220000Y-96730000D03*
X237220000Y-96730000D03*
X180220000Y-96730000D03*
X110030000Y-96730000D03*
X122030000Y-96730000D03*
X63220000Y-96730000D03*
X135220000Y-96730000D03*
X140030000Y-96730000D03*
X108220000Y-96730000D03*
X125030000Y-96730000D03*
X206030000Y-96730000D03*
X182030000Y-96730000D03*
X68030000Y-96730000D03*
X119030000Y-96730000D03*
X231220000Y-96730000D03*
X158030000Y-96730000D03*
X90220000Y-96730000D03*
X99220000Y-96730000D03*
X71030000Y-96730000D03*
X77030000Y-96730000D03*
X72220000Y-96730000D03*
X156220000Y-96730000D03*
X246220000Y-96730000D03*
X201220000Y-96730000D03*
X161030000Y-96730000D03*
X92030000Y-96730000D03*
X203030000Y-96730000D03*
X153220000Y-96730000D03*
X192220000Y-96730000D03*
X252220000Y-96730000D03*
X207220000Y-96730000D03*
X254030000Y-96730000D03*
X132220000Y-96730000D03*
X117220000Y-96730000D03*
X191030000Y-96730000D03*
X159220000Y-96730000D03*
X210220000Y-96730000D03*
X179030000Y-96730000D03*
X183220000Y-96730000D03*
X152030000Y-96730000D03*
X176030000Y-96730000D03*
X222220000Y-96730000D03*
X126220000Y-96730000D03*
X141220000Y-96730000D03*
X87220000Y-96730000D03*
X66220000Y-96730000D03*
X78220000Y-96730000D03*
X143030000Y-96730000D03*
X200030000Y-96730000D03*
X188030000Y-96730000D03*
X114220000Y-96730000D03*
X218030000Y-96730000D03*
X228220000Y-96730000D03*
X134030000Y-96730000D03*
X138220000Y-96730000D03*
X89030000Y-96730000D03*
X213220000Y-96730000D03*
X96220000Y-96730000D03*
X195220000Y-96730000D03*
X221030000Y-99730000D03*
X171220000Y-99730000D03*
X153220000Y-99730000D03*
X95030000Y-99730000D03*
X197030000Y-99730000D03*
X188030000Y-99730000D03*
X200030000Y-99730000D03*
X128030000Y-99730000D03*
X108220000Y-99730000D03*
X119030000Y-99730000D03*
X185030000Y-99730000D03*
X182030000Y-99730000D03*
X80030000Y-99730000D03*
X213220000Y-99730000D03*
X228220000Y-99730000D03*
X201220000Y-99730000D03*
X129220000Y-99730000D03*
X249220000Y-99730000D03*
X207220000Y-99730000D03*
X210220000Y-99730000D03*
X140030000Y-99730000D03*
X233030000Y-99730000D03*
X192220000Y-99730000D03*
X147220000Y-99730000D03*
X71030000Y-99730000D03*
X93220000Y-99730000D03*
X66220000Y-99730000D03*
X230030000Y-99730000D03*
X165220000Y-99730000D03*
X177220000Y-99730000D03*
X152030000Y-99730000D03*
X87220000Y-99730000D03*
X170030000Y-99730000D03*
X74030000Y-99730000D03*
X84220000Y-99730000D03*
X168220000Y-99730000D03*
X225220000Y-99730000D03*
X189220000Y-99730000D03*
X167030000Y-99730000D03*
X65030000Y-99730000D03*
X164030000Y-99730000D03*
X224030000Y-99730000D03*
X131030000Y-99730000D03*
X231220000Y-99730000D03*
X222220000Y-99730000D03*
X126220000Y-99730000D03*
X161030000Y-99730000D03*
X98030000Y-99730000D03*
X63220000Y-99730000D03*
X234220000Y-99730000D03*
X176030000Y-99730000D03*
X143030000Y-99730000D03*
X72220000Y-99730000D03*
X206030000Y-99730000D03*
X101030000Y-99730000D03*
X246220000Y-99730000D03*
X155030000Y-99730000D03*
X92030000Y-99730000D03*
X141220000Y-99730000D03*
X132220000Y-99730000D03*
X117220000Y-99730000D03*
X173030000Y-99730000D03*
X236030000Y-99730000D03*
X105220000Y-99730000D03*
X83030000Y-99730000D03*
X194030000Y-99730000D03*
X123220000Y-99730000D03*
X69220000Y-99730000D03*
X245030000Y-99730000D03*
X138220000Y-99730000D03*
X204220000Y-99730000D03*
X78220000Y-99730000D03*
X219220000Y-99730000D03*
X179030000Y-99730000D03*
X146030000Y-99730000D03*
X90220000Y-99730000D03*
X75220000Y-99730000D03*
X110030000Y-99730000D03*
X186220000Y-99730000D03*
X122030000Y-99730000D03*
X237220000Y-99730000D03*
X174220000Y-99730000D03*
X135220000Y-99730000D03*
X104030000Y-99730000D03*
X218030000Y-99730000D03*
X114220000Y-99730000D03*
X251030000Y-99730000D03*
X89030000Y-99730000D03*
X120220000Y-99730000D03*
X240220000Y-99730000D03*
X209030000Y-99730000D03*
X137030000Y-99730000D03*
X113030000Y-99730000D03*
X81220000Y-99730000D03*
X134030000Y-99730000D03*
X149030000Y-99730000D03*
X191030000Y-99730000D03*
X107030000Y-99730000D03*
X125030000Y-99730000D03*
X183220000Y-99730000D03*
X180220000Y-99730000D03*
X162220000Y-99730000D03*
X102220000Y-99730000D03*
X212030000Y-99730000D03*
X227030000Y-99730000D03*
X195220000Y-99730000D03*
X144220000Y-99730000D03*
X111220000Y-99730000D03*
X215030000Y-99730000D03*
X96220000Y-99730000D03*
X216220000Y-99730000D03*
X150220000Y-99730000D03*
X254030000Y-99730000D03*
X242030000Y-99730000D03*
X159220000Y-99730000D03*
X203030000Y-99730000D03*
X86030000Y-99730000D03*
X243220000Y-99730000D03*
X248030000Y-99730000D03*
X156220000Y-99730000D03*
X252220000Y-99730000D03*
X158030000Y-99730000D03*
X116030000Y-99730000D03*
X99220000Y-99730000D03*
X77030000Y-99730000D03*
X198220000Y-99730000D03*
X239030000Y-99730000D03*
X68030000Y-99730000D03*
X168220000Y-102730000D03*
X233030000Y-102730000D03*
X207220000Y-102730000D03*
X246220000Y-102730000D03*
X192220000Y-102730000D03*
X162220000Y-102730000D03*
X84220000Y-102730000D03*
X210220000Y-102730000D03*
X186220000Y-102730000D03*
X243220000Y-102730000D03*
X222220000Y-102730000D03*
X129220000Y-102730000D03*
X149030000Y-102730000D03*
X191030000Y-102730000D03*
X126220000Y-102730000D03*
X225220000Y-102730000D03*
X117220000Y-102730000D03*
X110030000Y-102730000D03*
X173030000Y-102730000D03*
X65030000Y-102730000D03*
X242030000Y-102730000D03*
X140030000Y-102730000D03*
X189220000Y-102730000D03*
X212030000Y-102730000D03*
X249220000Y-102730000D03*
X240220000Y-102730000D03*
X137030000Y-102730000D03*
X213220000Y-102730000D03*
X179030000Y-102730000D03*
X104030000Y-102730000D03*
X216220000Y-102730000D03*
X135220000Y-102730000D03*
X170030000Y-102730000D03*
X171220000Y-102730000D03*
X119030000Y-102730000D03*
X155030000Y-102730000D03*
X77030000Y-102730000D03*
X254030000Y-102730000D03*
X167030000Y-102730000D03*
X132220000Y-102730000D03*
X101030000Y-102730000D03*
X230030000Y-102730000D03*
X152030000Y-102730000D03*
X221030000Y-102730000D03*
X147220000Y-102730000D03*
X159220000Y-102730000D03*
X81220000Y-102730000D03*
X219220000Y-102730000D03*
X206030000Y-102730000D03*
X113030000Y-102730000D03*
X86030000Y-102730000D03*
X87220000Y-102730000D03*
X215030000Y-102730000D03*
X224030000Y-102730000D03*
X98030000Y-102730000D03*
X146030000Y-102730000D03*
X69220000Y-102730000D03*
X165220000Y-102730000D03*
X209030000Y-102730000D03*
X161030000Y-102730000D03*
X63220000Y-102730000D03*
X120220000Y-102730000D03*
X107030000Y-102730000D03*
X75220000Y-102730000D03*
X218030000Y-102730000D03*
X239030000Y-102730000D03*
X183220000Y-102730000D03*
X153220000Y-102730000D03*
X201220000Y-102730000D03*
X177220000Y-102730000D03*
X72220000Y-102730000D03*
X182030000Y-102730000D03*
X180220000Y-102730000D03*
X203030000Y-102730000D03*
X174220000Y-102730000D03*
X105220000Y-102730000D03*
X68030000Y-102730000D03*
X252220000Y-102730000D03*
X158030000Y-102730000D03*
X156220000Y-102730000D03*
X200030000Y-102730000D03*
X144220000Y-102730000D03*
X141220000Y-102730000D03*
X228220000Y-102730000D03*
X74030000Y-102730000D03*
X114220000Y-102730000D03*
X128030000Y-102730000D03*
X116030000Y-102730000D03*
X185030000Y-102730000D03*
X176030000Y-102730000D03*
X134030000Y-102730000D03*
X245030000Y-102730000D03*
X227030000Y-102730000D03*
X90220000Y-102730000D03*
X108220000Y-102730000D03*
X194030000Y-102730000D03*
X125030000Y-102730000D03*
X138220000Y-102730000D03*
X122030000Y-102730000D03*
X96220000Y-102730000D03*
X150220000Y-102730000D03*
X237220000Y-102730000D03*
X83030000Y-102730000D03*
X231220000Y-102730000D03*
X111220000Y-102730000D03*
X71030000Y-102730000D03*
X93220000Y-102730000D03*
X66220000Y-102730000D03*
X234220000Y-102730000D03*
X164030000Y-102730000D03*
X143030000Y-102730000D03*
X131030000Y-102730000D03*
X197030000Y-102730000D03*
X123220000Y-102730000D03*
X248030000Y-102730000D03*
X188030000Y-102730000D03*
X251030000Y-102730000D03*
X89030000Y-102730000D03*
X102220000Y-102730000D03*
X92030000Y-102730000D03*
X80030000Y-102730000D03*
X204220000Y-102730000D03*
X78220000Y-102730000D03*
X195220000Y-102730000D03*
X198220000Y-102730000D03*
X99220000Y-102730000D03*
X95030000Y-102730000D03*
X236030000Y-102730000D03*
X229130000Y-104820000D03*
X226130000Y-104820000D03*
X223130000Y-104820000D03*
X220130000Y-104820000D03*
X217130000Y-104820000D03*
X214130000Y-104820000D03*
X211130000Y-104820000D03*
X208130000Y-104820000D03*
X205130000Y-104820000D03*
X202130000Y-104820000D03*
X199130000Y-104820000D03*
X196130000Y-104820000D03*
X193130000Y-104820000D03*
X190130000Y-104820000D03*
X187130000Y-104820000D03*
X184130000Y-104820000D03*
X181130000Y-104820000D03*
X178130000Y-104820000D03*
X175130000Y-104820000D03*
X172130000Y-104820000D03*
X169130000Y-104820000D03*
X166130000Y-104820000D03*
X163130000Y-104820000D03*
X160130000Y-104820000D03*
X200030000Y-57730000D03*
X93220000Y-57730000D03*
X173030000Y-57730000D03*
X192220000Y-57730000D03*
X231220000Y-57730000D03*
X170030000Y-57730000D03*
X134030000Y-57730000D03*
X248030000Y-57730000D03*
X116030000Y-57730000D03*
X209030000Y-57730000D03*
X165220000Y-57730000D03*
X126220000Y-57730000D03*
X144220000Y-57730000D03*
X122030000Y-57730000D03*
X168220000Y-57730000D03*
X230030000Y-57730000D03*
X89030000Y-57730000D03*
X194030000Y-57730000D03*
X131030000Y-57730000D03*
X138220000Y-57730000D03*
X114220000Y-57730000D03*
X69220000Y-57730000D03*
X71030000Y-57730000D03*
X242030000Y-57730000D03*
X78220000Y-57730000D03*
X84220000Y-57730000D03*
X63220000Y-57730000D03*
X72220000Y-57730000D03*
X75220000Y-57730000D03*
X92030000Y-57730000D03*
X201220000Y-57730000D03*
X104030000Y-57730000D03*
X174220000Y-57730000D03*
X90220000Y-57730000D03*
X153220000Y-57730000D03*
X167030000Y-57730000D03*
X195220000Y-57730000D03*
X110030000Y-57730000D03*
X206030000Y-57730000D03*
X237220000Y-57730000D03*
X212030000Y-57730000D03*
X65030000Y-57730000D03*
X129220000Y-57730000D03*
X83030000Y-57730000D03*
X213220000Y-57730000D03*
X183220000Y-57730000D03*
X132220000Y-57730000D03*
X155030000Y-57730000D03*
X86030000Y-57730000D03*
X233030000Y-57730000D03*
X191030000Y-57730000D03*
X120220000Y-57730000D03*
X218030000Y-57730000D03*
X119030000Y-57730000D03*
X225220000Y-57730000D03*
X164030000Y-57730000D03*
X99220000Y-57730000D03*
X197030000Y-57730000D03*
X74030000Y-57730000D03*
X143030000Y-57730000D03*
X150220000Y-57730000D03*
X149030000Y-57730000D03*
X189220000Y-57730000D03*
X239030000Y-57730000D03*
X77030000Y-57730000D03*
X251030000Y-57730000D03*
X171220000Y-57730000D03*
X113030000Y-57730000D03*
X198220000Y-57730000D03*
X204220000Y-57730000D03*
X179030000Y-57730000D03*
X219220000Y-57730000D03*
X207220000Y-57730000D03*
X81220000Y-57730000D03*
X135220000Y-57730000D03*
X95030000Y-57730000D03*
X180220000Y-57730000D03*
X105220000Y-57730000D03*
X228220000Y-57730000D03*
X182030000Y-57730000D03*
X234220000Y-57730000D03*
X147220000Y-57730000D03*
X216220000Y-57730000D03*
X98030000Y-57730000D03*
X152030000Y-57730000D03*
X203030000Y-57730000D03*
X176030000Y-57730000D03*
X80030000Y-57730000D03*
X158030000Y-57730000D03*
X236030000Y-57730000D03*
X107030000Y-57730000D03*
X185030000Y-57730000D03*
X162220000Y-57730000D03*
X146030000Y-57730000D03*
X159220000Y-57730000D03*
X101030000Y-57730000D03*
X210220000Y-57730000D03*
X111220000Y-57730000D03*
X240220000Y-57730000D03*
X156220000Y-57730000D03*
X186220000Y-57730000D03*
X102220000Y-57730000D03*
X249220000Y-57730000D03*
X68030000Y-57730000D03*
X128030000Y-57730000D03*
X96220000Y-57730000D03*
X254030000Y-57730000D03*
X252220000Y-57730000D03*
X141220000Y-57730000D03*
X123220000Y-57730000D03*
X117220000Y-57730000D03*
X227030000Y-57730000D03*
X221030000Y-57730000D03*
X215030000Y-57730000D03*
X222220000Y-57730000D03*
X246220000Y-57730000D03*
X108220000Y-57730000D03*
X161030000Y-57730000D03*
X66220000Y-57730000D03*
X224030000Y-57730000D03*
X137030000Y-57730000D03*
X125030000Y-57730000D03*
X188030000Y-57730000D03*
X177220000Y-57730000D03*
X245030000Y-57730000D03*
X243220000Y-57730000D03*
X87220000Y-57730000D03*
X140030000Y-57730000D03*
X230030000Y-60730000D03*
X105220000Y-60730000D03*
X114220000Y-60730000D03*
X69220000Y-60730000D03*
X138220000Y-60730000D03*
X186220000Y-60730000D03*
X125030000Y-60730000D03*
X126220000Y-60730000D03*
X224030000Y-60730000D03*
X146030000Y-60730000D03*
X165220000Y-60730000D03*
X86030000Y-60730000D03*
X120220000Y-60730000D03*
X92030000Y-60730000D03*
X110030000Y-60730000D03*
X156220000Y-60730000D03*
X251030000Y-60730000D03*
X218030000Y-60730000D03*
X116030000Y-60730000D03*
X242030000Y-60730000D03*
X137030000Y-60730000D03*
X252220000Y-60730000D03*
X107030000Y-60730000D03*
X135220000Y-60730000D03*
X204220000Y-60730000D03*
X143030000Y-60730000D03*
X206030000Y-60730000D03*
X188030000Y-60730000D03*
X222220000Y-60730000D03*
X171220000Y-60730000D03*
X123220000Y-60730000D03*
X176030000Y-60730000D03*
X161030000Y-60730000D03*
X159220000Y-60730000D03*
X173030000Y-60730000D03*
X246220000Y-60730000D03*
X221030000Y-60730000D03*
X227030000Y-60730000D03*
X197030000Y-60730000D03*
X131030000Y-60730000D03*
X71030000Y-60730000D03*
X215030000Y-60730000D03*
X101030000Y-60730000D03*
X177220000Y-60730000D03*
X236030000Y-60730000D03*
X144220000Y-60730000D03*
X203030000Y-60730000D03*
X65030000Y-60730000D03*
X72220000Y-60730000D03*
X80030000Y-60730000D03*
X122030000Y-60730000D03*
X150220000Y-60730000D03*
X201220000Y-60730000D03*
X198220000Y-60730000D03*
X254030000Y-60730000D03*
X231220000Y-60730000D03*
X207220000Y-60730000D03*
X153220000Y-60730000D03*
X155030000Y-60730000D03*
X191030000Y-60730000D03*
X99220000Y-60730000D03*
X96220000Y-60730000D03*
X183220000Y-60730000D03*
X225220000Y-60730000D03*
X102220000Y-60730000D03*
X84220000Y-60730000D03*
X74030000Y-60730000D03*
X192220000Y-60730000D03*
X243220000Y-60730000D03*
X170030000Y-60730000D03*
X147220000Y-60730000D03*
X81220000Y-60730000D03*
X152030000Y-60730000D03*
X168220000Y-60730000D03*
X237220000Y-60730000D03*
X212030000Y-60730000D03*
X98030000Y-60730000D03*
X108220000Y-60730000D03*
X164030000Y-60730000D03*
X149030000Y-60730000D03*
X240220000Y-60730000D03*
X158030000Y-60730000D03*
X66220000Y-60730000D03*
X234220000Y-60730000D03*
X248030000Y-60730000D03*
X210220000Y-60730000D03*
X93220000Y-60730000D03*
X195220000Y-60730000D03*
X117220000Y-60730000D03*
X233030000Y-60730000D03*
X141220000Y-60730000D03*
X245030000Y-60730000D03*
X213220000Y-60730000D03*
X83030000Y-60730000D03*
X134030000Y-60730000D03*
X219220000Y-60730000D03*
X180220000Y-60730000D03*
X200030000Y-60730000D03*
X104030000Y-60730000D03*
X174220000Y-60730000D03*
X249220000Y-60730000D03*
X63220000Y-60730000D03*
X119030000Y-60730000D03*
X111220000Y-60730000D03*
X78220000Y-60730000D03*
X179030000Y-60730000D03*
X132220000Y-60730000D03*
X128030000Y-60730000D03*
X209030000Y-60730000D03*
X140030000Y-60730000D03*
X228220000Y-60730000D03*
X89030000Y-60730000D03*
X182030000Y-60730000D03*
X216220000Y-60730000D03*
X95030000Y-60730000D03*
X90220000Y-60730000D03*
X162220000Y-60730000D03*
X194030000Y-60730000D03*
X113030000Y-60730000D03*
X189220000Y-60730000D03*
X75220000Y-60730000D03*
X87220000Y-60730000D03*
X129220000Y-60730000D03*
X77030000Y-60730000D03*
X239030000Y-60730000D03*
X68030000Y-60730000D03*
X185030000Y-60730000D03*
X167030000Y-60730000D03*
X107030000Y-63730000D03*
X75220000Y-63730000D03*
X156220000Y-63730000D03*
X254030000Y-63730000D03*
X240220000Y-63730000D03*
X137030000Y-63730000D03*
X164030000Y-63730000D03*
X198220000Y-63730000D03*
X179030000Y-63730000D03*
X141220000Y-63730000D03*
X101030000Y-63730000D03*
X245030000Y-63730000D03*
X90220000Y-63730000D03*
X204220000Y-63730000D03*
X170030000Y-63730000D03*
X165220000Y-63730000D03*
X188030000Y-63730000D03*
X210220000Y-63730000D03*
X155030000Y-63730000D03*
X224030000Y-63730000D03*
X194030000Y-63730000D03*
X123220000Y-63730000D03*
X174220000Y-63730000D03*
X230030000Y-63730000D03*
X221030000Y-63730000D03*
X215030000Y-63730000D03*
X108220000Y-63730000D03*
X83030000Y-63730000D03*
X153220000Y-63730000D03*
X185030000Y-63730000D03*
X105220000Y-63730000D03*
X150220000Y-63730000D03*
X252220000Y-63730000D03*
X162220000Y-63730000D03*
X176030000Y-63730000D03*
X140030000Y-63730000D03*
X237220000Y-63730000D03*
X189220000Y-63730000D03*
X80030000Y-63730000D03*
X128030000Y-63730000D03*
X180220000Y-63730000D03*
X234220000Y-63730000D03*
X86030000Y-63730000D03*
X168220000Y-63730000D03*
X152030000Y-63730000D03*
X143030000Y-63730000D03*
X251030000Y-63730000D03*
X78220000Y-63730000D03*
X246220000Y-63730000D03*
X195220000Y-63730000D03*
X63220000Y-63730000D03*
X102220000Y-63730000D03*
X201220000Y-63730000D03*
X212030000Y-63730000D03*
X113030000Y-63730000D03*
X66220000Y-63730000D03*
X197030000Y-63730000D03*
X72220000Y-63730000D03*
X110030000Y-63730000D03*
X161030000Y-63730000D03*
X119030000Y-63730000D03*
X236030000Y-63730000D03*
X186220000Y-63730000D03*
X249220000Y-63730000D03*
X114220000Y-63730000D03*
X98030000Y-63730000D03*
X243220000Y-63730000D03*
X125030000Y-63730000D03*
X239030000Y-63730000D03*
X95030000Y-63730000D03*
X167030000Y-63730000D03*
X120220000Y-63730000D03*
X218030000Y-63730000D03*
X248030000Y-63730000D03*
X158030000Y-63730000D03*
X206030000Y-63730000D03*
X200030000Y-63730000D03*
X135220000Y-63730000D03*
X225220000Y-63730000D03*
X131030000Y-63730000D03*
X81220000Y-63730000D03*
X122030000Y-63730000D03*
X96220000Y-63730000D03*
X111220000Y-63730000D03*
X149030000Y-63730000D03*
X216220000Y-63730000D03*
X191030000Y-63730000D03*
X183220000Y-63730000D03*
X68030000Y-63730000D03*
X129220000Y-63730000D03*
X222220000Y-63730000D03*
X126220000Y-63730000D03*
X213220000Y-63730000D03*
X219220000Y-63730000D03*
X84220000Y-63730000D03*
X99220000Y-63730000D03*
X242030000Y-63730000D03*
X209030000Y-63730000D03*
X228220000Y-63730000D03*
X93220000Y-63730000D03*
X74030000Y-63730000D03*
X117220000Y-63730000D03*
X177220000Y-63730000D03*
X159220000Y-63730000D03*
X144220000Y-63730000D03*
X203030000Y-63730000D03*
X69220000Y-63730000D03*
X77030000Y-63730000D03*
X171220000Y-63730000D03*
X92030000Y-63730000D03*
X146030000Y-63730000D03*
X227030000Y-63730000D03*
X132220000Y-63730000D03*
X192220000Y-63730000D03*
X71030000Y-63730000D03*
X233030000Y-63730000D03*
X65030000Y-63730000D03*
X89030000Y-63730000D03*
X87220000Y-63730000D03*
X138220000Y-63730000D03*
X173030000Y-63730000D03*
X231220000Y-63730000D03*
X147220000Y-63730000D03*
X134030000Y-63730000D03*
X116030000Y-63730000D03*
X104030000Y-63730000D03*
X207220000Y-63730000D03*
X182030000Y-63730000D03*
X75220000Y-66730000D03*
X117220000Y-66730000D03*
X147220000Y-66730000D03*
X230030000Y-66730000D03*
X200030000Y-66730000D03*
X191030000Y-66730000D03*
X143030000Y-66730000D03*
X162220000Y-66730000D03*
X201220000Y-66730000D03*
X221030000Y-66730000D03*
X108220000Y-66730000D03*
X183220000Y-66730000D03*
X231220000Y-66730000D03*
X135220000Y-66730000D03*
X179030000Y-66730000D03*
X128030000Y-66730000D03*
X138220000Y-66730000D03*
X92030000Y-66730000D03*
X80030000Y-66730000D03*
X63220000Y-66730000D03*
X104030000Y-66730000D03*
X156220000Y-66730000D03*
X129220000Y-66730000D03*
X152030000Y-66730000D03*
X219220000Y-66730000D03*
X161030000Y-66730000D03*
X72220000Y-66730000D03*
X66220000Y-66730000D03*
X86030000Y-66730000D03*
X203030000Y-66730000D03*
X227030000Y-66730000D03*
X164030000Y-66730000D03*
X197030000Y-66730000D03*
X194030000Y-66730000D03*
X180220000Y-66730000D03*
X225220000Y-66730000D03*
X141220000Y-66730000D03*
X99220000Y-66730000D03*
X216220000Y-66730000D03*
X119030000Y-66730000D03*
X177220000Y-66730000D03*
X251030000Y-66730000D03*
X185030000Y-66730000D03*
X105220000Y-66730000D03*
X165220000Y-66730000D03*
X126220000Y-66730000D03*
X90220000Y-66730000D03*
X120220000Y-66730000D03*
X237220000Y-66730000D03*
X242030000Y-66730000D03*
X209030000Y-66730000D03*
X213220000Y-66730000D03*
X114220000Y-66730000D03*
X159220000Y-66730000D03*
X71030000Y-66730000D03*
X65030000Y-66730000D03*
X234220000Y-66730000D03*
X206030000Y-66730000D03*
X236030000Y-66730000D03*
X243220000Y-66730000D03*
X192220000Y-66730000D03*
X239030000Y-66730000D03*
X248030000Y-66730000D03*
X249220000Y-66730000D03*
X233030000Y-66730000D03*
X245030000Y-66730000D03*
X122030000Y-66730000D03*
X215030000Y-66730000D03*
X198220000Y-66730000D03*
X81220000Y-66730000D03*
X246220000Y-66730000D03*
X167030000Y-66730000D03*
X93220000Y-66730000D03*
X189220000Y-66730000D03*
X174220000Y-66730000D03*
X173030000Y-66730000D03*
X144220000Y-66730000D03*
X186220000Y-66730000D03*
X153220000Y-66730000D03*
X228220000Y-66730000D03*
X212030000Y-66730000D03*
X204220000Y-66730000D03*
X69220000Y-66730000D03*
X87220000Y-66730000D03*
X125030000Y-66730000D03*
X89030000Y-66730000D03*
X74030000Y-66730000D03*
X222220000Y-66730000D03*
X171220000Y-66730000D03*
X149030000Y-66730000D03*
X168220000Y-66730000D03*
X155030000Y-66730000D03*
X84220000Y-66730000D03*
X68030000Y-66730000D03*
X218030000Y-66730000D03*
X240220000Y-66730000D03*
X110030000Y-66730000D03*
X254030000Y-66730000D03*
X101030000Y-66730000D03*
X252220000Y-66730000D03*
X116030000Y-66730000D03*
X77030000Y-66730000D03*
X150220000Y-66730000D03*
X78220000Y-66730000D03*
X158030000Y-66730000D03*
X113030000Y-66730000D03*
X83030000Y-66730000D03*
X170030000Y-66730000D03*
X195220000Y-66730000D03*
X146030000Y-66730000D03*
X132220000Y-66730000D03*
X188030000Y-66730000D03*
X140030000Y-66730000D03*
X111220000Y-66730000D03*
X96220000Y-66730000D03*
X134030000Y-66730000D03*
X224030000Y-66730000D03*
X107030000Y-66730000D03*
X207220000Y-66730000D03*
X176030000Y-66730000D03*
X182030000Y-66730000D03*
X102220000Y-66730000D03*
X123220000Y-66730000D03*
X137030000Y-66730000D03*
X98030000Y-66730000D03*
X210220000Y-66730000D03*
X95030000Y-66730000D03*
X131030000Y-66730000D03*
X200030000Y-69730000D03*
X167030000Y-69730000D03*
X189220000Y-69730000D03*
X71030000Y-69730000D03*
X165220000Y-69730000D03*
X125030000Y-69730000D03*
X110030000Y-69730000D03*
X98030000Y-69730000D03*
X246220000Y-69730000D03*
X170030000Y-69730000D03*
X99220000Y-69730000D03*
X104030000Y-69730000D03*
X218030000Y-69730000D03*
X224030000Y-69730000D03*
X156220000Y-69730000D03*
X132220000Y-69730000D03*
X135220000Y-69730000D03*
X120220000Y-69730000D03*
X117220000Y-69730000D03*
X177220000Y-69730000D03*
X101030000Y-69730000D03*
X161030000Y-69730000D03*
X183220000Y-69730000D03*
X195220000Y-69730000D03*
X119030000Y-69730000D03*
X96220000Y-69730000D03*
X252220000Y-69730000D03*
X69220000Y-69730000D03*
X107030000Y-69730000D03*
X141220000Y-69730000D03*
X197030000Y-69730000D03*
X86030000Y-69730000D03*
X239030000Y-69730000D03*
X176030000Y-69730000D03*
X93220000Y-69730000D03*
X192220000Y-69730000D03*
X171220000Y-69730000D03*
X90220000Y-69730000D03*
X80030000Y-69730000D03*
X77030000Y-69730000D03*
X215030000Y-69730000D03*
X243220000Y-69730000D03*
X78220000Y-69730000D03*
X155030000Y-69730000D03*
X140030000Y-69730000D03*
X158030000Y-69730000D03*
X201220000Y-69730000D03*
X198220000Y-69730000D03*
X75220000Y-69730000D03*
X152030000Y-69730000D03*
X74030000Y-69730000D03*
X147220000Y-69730000D03*
X213220000Y-69730000D03*
X174220000Y-69730000D03*
X131030000Y-69730000D03*
X234220000Y-69730000D03*
X182030000Y-69730000D03*
X212030000Y-69730000D03*
X129220000Y-69730000D03*
X66220000Y-69730000D03*
X222220000Y-69730000D03*
X72220000Y-69730000D03*
X245030000Y-69730000D03*
X150220000Y-69730000D03*
X164030000Y-69730000D03*
X194030000Y-69730000D03*
X122030000Y-69730000D03*
X159220000Y-69730000D03*
X123220000Y-69730000D03*
X146030000Y-69730000D03*
X209030000Y-69730000D03*
X144220000Y-69730000D03*
X114220000Y-69730000D03*
X219220000Y-69730000D03*
X230030000Y-69730000D03*
X84220000Y-69730000D03*
X162220000Y-69730000D03*
X228220000Y-69730000D03*
X188030000Y-69730000D03*
X102220000Y-69730000D03*
X249220000Y-69730000D03*
X137030000Y-69730000D03*
X233030000Y-69730000D03*
X240220000Y-69730000D03*
X206030000Y-69730000D03*
X65030000Y-69730000D03*
X251030000Y-69730000D03*
X179030000Y-69730000D03*
X221030000Y-69730000D03*
X81220000Y-69730000D03*
X138220000Y-69730000D03*
X231220000Y-69730000D03*
X63220000Y-69730000D03*
X207220000Y-69730000D03*
X108220000Y-69730000D03*
X143030000Y-69730000D03*
X92030000Y-69730000D03*
X111220000Y-69730000D03*
X68030000Y-69730000D03*
X89030000Y-69730000D03*
X173030000Y-69730000D03*
X113030000Y-69730000D03*
X87220000Y-69730000D03*
X95030000Y-69730000D03*
X254030000Y-69730000D03*
X105220000Y-69730000D03*
X227030000Y-69730000D03*
X210220000Y-69730000D03*
X204220000Y-69730000D03*
X168220000Y-69730000D03*
X83030000Y-69730000D03*
X180220000Y-69730000D03*
X216220000Y-69730000D03*
X248030000Y-69730000D03*
X126220000Y-69730000D03*
X236030000Y-69730000D03*
X191030000Y-69730000D03*
X128030000Y-69730000D03*
X225220000Y-69730000D03*
X134030000Y-69730000D03*
X116030000Y-69730000D03*
X237220000Y-69730000D03*
X203030000Y-69730000D03*
X153220000Y-69730000D03*
X185030000Y-69730000D03*
X242030000Y-69730000D03*
X186220000Y-69730000D03*
X149030000Y-69730000D03*
X113030000Y-72730000D03*
X143030000Y-72730000D03*
X125030000Y-72730000D03*
X146030000Y-72730000D03*
X173030000Y-72730000D03*
X147220000Y-72730000D03*
X227030000Y-72730000D03*
X131030000Y-72730000D03*
X239030000Y-72730000D03*
X188030000Y-72730000D03*
X168220000Y-72730000D03*
X197030000Y-72730000D03*
X174220000Y-72730000D03*
X225220000Y-72730000D03*
X122030000Y-72730000D03*
X72220000Y-72730000D03*
X155030000Y-72730000D03*
X167030000Y-72730000D03*
X132220000Y-72730000D03*
X77030000Y-72730000D03*
X246220000Y-72730000D03*
X126220000Y-72730000D03*
X164030000Y-72730000D03*
X248030000Y-72730000D03*
X92030000Y-72730000D03*
X195220000Y-72730000D03*
X204220000Y-72730000D03*
X228220000Y-72730000D03*
X80030000Y-72730000D03*
X116030000Y-72730000D03*
X107030000Y-72730000D03*
X206030000Y-72730000D03*
X194030000Y-72730000D03*
X218030000Y-72730000D03*
X183220000Y-72730000D03*
X230030000Y-72730000D03*
X216220000Y-72730000D03*
X189220000Y-72730000D03*
X105220000Y-72730000D03*
X65030000Y-72730000D03*
X66220000Y-72730000D03*
X111220000Y-72730000D03*
X170030000Y-72730000D03*
X180220000Y-72730000D03*
X140030000Y-72730000D03*
X186220000Y-72730000D03*
X119030000Y-72730000D03*
X87220000Y-72730000D03*
X176030000Y-72730000D03*
X153220000Y-72730000D03*
X192220000Y-72730000D03*
X102220000Y-72730000D03*
X86030000Y-72730000D03*
X213220000Y-72730000D03*
X69220000Y-72730000D03*
X159220000Y-72730000D03*
X171220000Y-72730000D03*
X104030000Y-72730000D03*
X203030000Y-72730000D03*
X179030000Y-72730000D03*
X117220000Y-72730000D03*
X236030000Y-72730000D03*
X98030000Y-72730000D03*
X71030000Y-72730000D03*
X245030000Y-72730000D03*
X90220000Y-72730000D03*
X83030000Y-72730000D03*
X224030000Y-72730000D03*
X152030000Y-72730000D03*
X75220000Y-72730000D03*
X237220000Y-72730000D03*
X134030000Y-72730000D03*
X231220000Y-72730000D03*
X201220000Y-72730000D03*
X84220000Y-72730000D03*
X185030000Y-72730000D03*
X221030000Y-72730000D03*
X234220000Y-72730000D03*
X135220000Y-72730000D03*
X78220000Y-72730000D03*
X81220000Y-72730000D03*
X95030000Y-72730000D03*
X68030000Y-72730000D03*
X182030000Y-72730000D03*
X161030000Y-72730000D03*
X120220000Y-72730000D03*
X63220000Y-72730000D03*
X137030000Y-72730000D03*
X242030000Y-72730000D03*
X191030000Y-72730000D03*
X149030000Y-72730000D03*
X200030000Y-72730000D03*
X243220000Y-72730000D03*
X150220000Y-72730000D03*
X74030000Y-72730000D03*
X93220000Y-72730000D03*
X158030000Y-72730000D03*
X156220000Y-72730000D03*
X177220000Y-72730000D03*
X254030000Y-72730000D03*
X222220000Y-72730000D03*
X138220000Y-72730000D03*
X219220000Y-72730000D03*
X212030000Y-72730000D03*
X123220000Y-72730000D03*
X141220000Y-72730000D03*
X129220000Y-72730000D03*
X252220000Y-72730000D03*
X89030000Y-72730000D03*
X162220000Y-72730000D03*
X128030000Y-72730000D03*
X99220000Y-72730000D03*
X165220000Y-72730000D03*
X101030000Y-72730000D03*
X144220000Y-72730000D03*
X96220000Y-72730000D03*
X251030000Y-72730000D03*
X108220000Y-72730000D03*
X240220000Y-72730000D03*
X209030000Y-72730000D03*
X207220000Y-72730000D03*
X114220000Y-72730000D03*
X110030000Y-72730000D03*
X215030000Y-72730000D03*
X198220000Y-72730000D03*
X233030000Y-72730000D03*
X210220000Y-72730000D03*
X249220000Y-72730000D03*
X243220000Y-75730000D03*
X119030000Y-75730000D03*
X197030000Y-75730000D03*
X228220000Y-75730000D03*
X179030000Y-75730000D03*
X90220000Y-75730000D03*
X113030000Y-75730000D03*
X242030000Y-75730000D03*
X221030000Y-75730000D03*
X69220000Y-75730000D03*
X72220000Y-75730000D03*
X89030000Y-75730000D03*
X170030000Y-75730000D03*
X180220000Y-75730000D03*
X83030000Y-75730000D03*
X213220000Y-75730000D03*
X71030000Y-75730000D03*
X192220000Y-75730000D03*
X155030000Y-75730000D03*
X153220000Y-75730000D03*
X144220000Y-75730000D03*
X201220000Y-75730000D03*
X225220000Y-75730000D03*
X116030000Y-75730000D03*
X210220000Y-75730000D03*
X248030000Y-75730000D03*
X198220000Y-75730000D03*
X147220000Y-75730000D03*
X102220000Y-75730000D03*
X174220000Y-75730000D03*
X254030000Y-75730000D03*
X74030000Y-75730000D03*
X117220000Y-75730000D03*
X251030000Y-75730000D03*
X137030000Y-75730000D03*
X171220000Y-75730000D03*
X128030000Y-75730000D03*
X107030000Y-75730000D03*
X212030000Y-75730000D03*
X77030000Y-75730000D03*
X105220000Y-75730000D03*
X75220000Y-75730000D03*
X188030000Y-75730000D03*
X132220000Y-75730000D03*
X98030000Y-75730000D03*
X135220000Y-75730000D03*
X204220000Y-75730000D03*
X176030000Y-75730000D03*
X99220000Y-75730000D03*
X234220000Y-75730000D03*
X216220000Y-75730000D03*
X245030000Y-75730000D03*
X168220000Y-75730000D03*
X186220000Y-75730000D03*
X93220000Y-75730000D03*
X200030000Y-75730000D03*
X63220000Y-75730000D03*
X104030000Y-75730000D03*
X252220000Y-75730000D03*
X224030000Y-75730000D03*
X173030000Y-75730000D03*
X177220000Y-75730000D03*
X156220000Y-75730000D03*
X218030000Y-75730000D03*
X209030000Y-75730000D03*
X134030000Y-75730000D03*
X108220000Y-75730000D03*
X203030000Y-75730000D03*
X122030000Y-75730000D03*
X191030000Y-75730000D03*
X66220000Y-75730000D03*
X219220000Y-75730000D03*
X111220000Y-75730000D03*
X236030000Y-75730000D03*
X126220000Y-75730000D03*
X125030000Y-75730000D03*
X195220000Y-75730000D03*
X167030000Y-75730000D03*
X140030000Y-75730000D03*
X222220000Y-75730000D03*
X194030000Y-75730000D03*
X120220000Y-75730000D03*
X189220000Y-75730000D03*
X129220000Y-75730000D03*
X68030000Y-75730000D03*
X110030000Y-75730000D03*
X237220000Y-75730000D03*
X123220000Y-75730000D03*
X207220000Y-75730000D03*
X84220000Y-75730000D03*
X114220000Y-75730000D03*
X183220000Y-75730000D03*
X249220000Y-75730000D03*
X92030000Y-75730000D03*
X182030000Y-75730000D03*
X230030000Y-75730000D03*
X65030000Y-75730000D03*
X165220000Y-75730000D03*
X240220000Y-75730000D03*
X185030000Y-75730000D03*
X150220000Y-75730000D03*
X141220000Y-75730000D03*
X158030000Y-75730000D03*
X227030000Y-75730000D03*
X239030000Y-75730000D03*
X161030000Y-75730000D03*
X86030000Y-75730000D03*
X231220000Y-75730000D03*
X215030000Y-75730000D03*
X143030000Y-75730000D03*
X162220000Y-75730000D03*
X87220000Y-75730000D03*
X81220000Y-75730000D03*
X206030000Y-75730000D03*
X78220000Y-75730000D03*
X149030000Y-75730000D03*
X159220000Y-75730000D03*
X80030000Y-75730000D03*
X95030000Y-75730000D03*
X101030000Y-75730000D03*
X164030000Y-75730000D03*
X96220000Y-75730000D03*
X131030000Y-75730000D03*
X246220000Y-75730000D03*
X146030000Y-75730000D03*
X233030000Y-75730000D03*
X152030000Y-75730000D03*
X138220000Y-75730000D03*
X254030000Y-78730000D03*
X237220000Y-78730000D03*
X155030000Y-78730000D03*
X215030000Y-78730000D03*
X123220000Y-78730000D03*
X249220000Y-78730000D03*
X110030000Y-78730000D03*
X101030000Y-78730000D03*
X137030000Y-78730000D03*
X200030000Y-78730000D03*
X140030000Y-78730000D03*
X221030000Y-78730000D03*
X240220000Y-78730000D03*
X71030000Y-78730000D03*
X138220000Y-78730000D03*
X143030000Y-78730000D03*
X171220000Y-78730000D03*
X230030000Y-78730000D03*
X99220000Y-78730000D03*
X113030000Y-78730000D03*
X81220000Y-78730000D03*
X126220000Y-78730000D03*
X180220000Y-78730000D03*
X92030000Y-78730000D03*
X204220000Y-78730000D03*
X179030000Y-78730000D03*
X149030000Y-78730000D03*
X245030000Y-78730000D03*
X80030000Y-78730000D03*
X239030000Y-78730000D03*
X216220000Y-78730000D03*
X152030000Y-78730000D03*
X153220000Y-78730000D03*
X203030000Y-78730000D03*
X177220000Y-78730000D03*
X246220000Y-78730000D03*
X192220000Y-78730000D03*
X125030000Y-78730000D03*
X69220000Y-78730000D03*
X195220000Y-78730000D03*
X135220000Y-78730000D03*
X108220000Y-78730000D03*
X194030000Y-78730000D03*
X132220000Y-78730000D03*
X213220000Y-78730000D03*
X248030000Y-78730000D03*
X119030000Y-78730000D03*
X147220000Y-78730000D03*
X209030000Y-78730000D03*
X156220000Y-78730000D03*
X170030000Y-78730000D03*
X198220000Y-78730000D03*
X68030000Y-78730000D03*
X165220000Y-78730000D03*
X243220000Y-78730000D03*
X111220000Y-78730000D03*
X227030000Y-78730000D03*
X150220000Y-78730000D03*
X207220000Y-78730000D03*
X182030000Y-78730000D03*
X176030000Y-78730000D03*
X134030000Y-78730000D03*
X233030000Y-78730000D03*
X218030000Y-78730000D03*
X186220000Y-78730000D03*
X141220000Y-78730000D03*
X102220000Y-78730000D03*
X188030000Y-78730000D03*
X63220000Y-78730000D03*
X120220000Y-78730000D03*
X164030000Y-78730000D03*
X146030000Y-78730000D03*
X86030000Y-78730000D03*
X210220000Y-78730000D03*
X174220000Y-78730000D03*
X129220000Y-78730000D03*
X228220000Y-78730000D03*
X87220000Y-78730000D03*
X116030000Y-78730000D03*
X168220000Y-78730000D03*
X252220000Y-78730000D03*
X167030000Y-78730000D03*
X222220000Y-78730000D03*
X96220000Y-78730000D03*
X105220000Y-78730000D03*
X201220000Y-78730000D03*
X122030000Y-78730000D03*
X236030000Y-78730000D03*
X191030000Y-78730000D03*
X159220000Y-78730000D03*
X231220000Y-78730000D03*
X78220000Y-78730000D03*
X114220000Y-78730000D03*
X117220000Y-78730000D03*
X189220000Y-78730000D03*
X162220000Y-78730000D03*
X74030000Y-78730000D03*
X197030000Y-78730000D03*
X219220000Y-78730000D03*
X93220000Y-78730000D03*
X95030000Y-78730000D03*
X107030000Y-78730000D03*
X242030000Y-78730000D03*
X98030000Y-78730000D03*
X83030000Y-78730000D03*
X144220000Y-78730000D03*
X77030000Y-78730000D03*
X251030000Y-78730000D03*
X185030000Y-78730000D03*
X90220000Y-78730000D03*
X158030000Y-78730000D03*
X84220000Y-78730000D03*
X104030000Y-78730000D03*
X183220000Y-78730000D03*
X89030000Y-78730000D03*
X234220000Y-78730000D03*
X212030000Y-78730000D03*
X66220000Y-78730000D03*
X128030000Y-78730000D03*
X225220000Y-78730000D03*
X161030000Y-78730000D03*
X224030000Y-78730000D03*
X65030000Y-78730000D03*
X206030000Y-78730000D03*
X72220000Y-78730000D03*
X75220000Y-78730000D03*
X173030000Y-78730000D03*
X131030000Y-78730000D03*
X157130000Y-56880000D03*
X154130000Y-56880000D03*
X151130000Y-56880000D03*
X148130000Y-56880000D03*
X145130000Y-56880000D03*
X142130000Y-56880000D03*
X139130000Y-56880000D03*
X136130000Y-56880000D03*
X133130000Y-56880000D03*
X130130000Y-56880000D03*
X127130000Y-56880000D03*
X124130000Y-56880000D03*
X121130000Y-56880000D03*
X118130000Y-56880000D03*
X115130000Y-56880000D03*
X112130000Y-56880000D03*
X109130000Y-56880000D03*
X106130000Y-56880000D03*
X103130000Y-56880000D03*
X100130000Y-56880000D03*
X97130000Y-56880000D03*
X94130000Y-56880000D03*
X91130000Y-56880000D03*
X88130000Y-56880000D03*
X85130000Y-56880000D03*
X82130000Y-56880000D03*
X79130000Y-56880000D03*
X76130000Y-56880000D03*
X73130000Y-56880000D03*
X70130000Y-56880000D03*
X67130000Y-56880000D03*
X64130000Y-56880000D03*
D13*
X51856000Y-99729000D02*
X51287000Y-99160000D01*
X59268490Y-113654000D02*
X51856000Y-106241510D01*
X253130000Y-104820000D02*
X253130000Y-105590000D01*
X253130000Y-105590000D02*
X245066000Y-113654000D01*
X245066000Y-113654000D02*
X59268490Y-113654000D01*
X51856000Y-106241510D02*
X51856000Y-99729000D01*
X51287000Y-99160000D02*
X50560000Y-99160000D01*
X242170000Y-113400000D02*
X59373700Y-113400000D01*
X250130000Y-104820000D02*
X250130000Y-105440000D01*
X250130000Y-105440000D02*
X242170000Y-113400000D01*
X52110000Y-106136300D02*
X52110000Y-100010000D01*
X52110000Y-100010000D02*
X53460000Y-98660000D01*
X59373700Y-113400000D02*
X52110000Y-106136300D01*
X59478910Y-113146000D02*
X239614000Y-113146000D01*
X54370000Y-98160000D02*
X54384000Y-98174000D01*
X239614000Y-113146000D02*
X247130000Y-105630000D01*
X54384000Y-98174000D02*
X54384000Y-108051090D01*
X54384000Y-108051090D02*
X59478910Y-113146000D01*
X247130000Y-104820000D02*
X247130000Y-105630000D01*
X50560000Y-98160000D02*
X54370000Y-98160000D01*
X244130000Y-105800000D02*
X237038000Y-112892000D01*
X237038000Y-112892000D02*
X59584120Y-112892000D01*
X59584120Y-112892000D02*
X54638000Y-107945880D01*
X244130000Y-104820000D02*
X244130000Y-105800000D01*
X54381790Y-97660000D02*
X53460000Y-97660000D01*
X54638000Y-97916210D02*
X54381790Y-97660000D01*
X54638000Y-107945880D02*
X54638000Y-97916210D01*
X59689330Y-112638000D02*
X234472000Y-112638000D01*
X54892000Y-107840670D02*
X59689330Y-112638000D01*
X50560000Y-97160000D02*
X54241000Y-97160000D01*
X54241000Y-97160000D02*
X54892000Y-97811000D01*
X234472000Y-112638000D02*
X241130000Y-105980000D01*
X54892000Y-97811000D02*
X54892000Y-107840670D01*
X241130000Y-104820000D02*
X241130000Y-105980000D01*
X238130000Y-105870000D02*
X231616000Y-112384000D01*
X55146000Y-107735460D02*
X55146000Y-96980000D01*
X59794540Y-112384000D02*
X55146000Y-107735460D01*
X238130000Y-104820000D02*
X238130000Y-105870000D01*
X54826000Y-96660000D02*
X53460000Y-96660000D01*
X231616000Y-112384000D02*
X59794540Y-112384000D01*
X55146000Y-96980000D02*
X54826000Y-96660000D01*
X59899750Y-112130000D02*
X228950000Y-112130000D01*
X50560000Y-96160000D02*
X55110000Y-96160000D01*
X55400000Y-96450000D02*
X55400000Y-107630250D01*
X55400000Y-107630250D02*
X59899750Y-112130000D01*
X228950000Y-112130000D02*
X235130000Y-105950000D01*
X55110000Y-96160000D02*
X55400000Y-96450000D01*
X235130000Y-104820000D02*
X235130000Y-105950000D01*
X55501580Y-95660000D02*
X53460000Y-95660000D01*
X226084000Y-111876000D02*
X60004960Y-111876000D01*
X232130000Y-104820000D02*
X232130000Y-105830000D01*
X232130000Y-105830000D02*
X226084000Y-111876000D01*
X60004960Y-111876000D02*
X55654000Y-107525040D01*
X55654000Y-95812420D02*
X55501580Y-95660000D01*
X55654000Y-107525040D02*
X55654000Y-95812420D01*
X150220000Y-81730000D02*
X152030000Y-81730000D01*
X222220000Y-81730000D02*
X224030000Y-81730000D01*
X165220000Y-81730000D02*
X167030000Y-81730000D01*
X263090000Y-81540000D02*
X257410000Y-81540000D01*
X99220000Y-81730000D02*
X101030000Y-81730000D01*
X192220000Y-81730000D02*
X194030000Y-81730000D01*
X156220000Y-81730000D02*
X158030000Y-81730000D01*
X75220000Y-81730000D02*
X77030000Y-81730000D01*
X189220000Y-81730000D02*
X191030000Y-81730000D01*
X81220000Y-81730000D02*
X83030000Y-81730000D01*
X126220000Y-81730000D02*
X128030000Y-81730000D01*
X102220000Y-81730000D02*
X104030000Y-81730000D01*
X87220000Y-81730000D02*
X89030000Y-81730000D01*
X252220000Y-81730000D02*
X254030000Y-81730000D01*
X90220000Y-81730000D02*
X92030000Y-81730000D01*
X213220000Y-81730000D02*
X215030000Y-81730000D01*
X225220000Y-81730000D02*
X227030000Y-81730000D01*
X256650000Y-82300000D02*
X254600000Y-82300000D01*
X147220000Y-81730000D02*
X149030000Y-81730000D01*
X93220000Y-81730000D02*
X95030000Y-81730000D01*
X117220000Y-81730000D02*
X119030000Y-81730000D01*
X123220000Y-81730000D02*
X125030000Y-81730000D01*
X254600000Y-82300000D02*
X254030000Y-81730000D01*
X249220000Y-81730000D02*
X251030000Y-81730000D01*
X72220000Y-81730000D02*
X74030000Y-81730000D01*
X135220000Y-81730000D02*
X137030000Y-81730000D01*
X108220000Y-81730000D02*
X110030000Y-81730000D01*
X114220000Y-81730000D02*
X116030000Y-81730000D01*
X180220000Y-81730000D02*
X182030000Y-81730000D01*
X105220000Y-81730000D02*
X107030000Y-81730000D01*
X228220000Y-81730000D02*
X230030000Y-81730000D01*
X210220000Y-81730000D02*
X212030000Y-81730000D01*
X138220000Y-81730000D02*
X140030000Y-81730000D01*
X234220000Y-81730000D02*
X236030000Y-81730000D01*
X69220000Y-81730000D02*
X71030000Y-81730000D01*
X246220000Y-81730000D02*
X248030000Y-81730000D01*
X177220000Y-81730000D02*
X179030000Y-81730000D01*
X162220000Y-81730000D02*
X164030000Y-81730000D01*
X240220000Y-81730000D02*
X242030000Y-81730000D01*
X174220000Y-81730000D02*
X176030000Y-81730000D01*
X84220000Y-81730000D02*
X86030000Y-81730000D01*
X120220000Y-81730000D02*
X122030000Y-81730000D01*
X198220000Y-81730000D02*
X200030000Y-81730000D01*
X201220000Y-81730000D02*
X203030000Y-81730000D01*
X171220000Y-81730000D02*
X173030000Y-81730000D01*
X243220000Y-81730000D02*
X245030000Y-81730000D01*
X257410000Y-81540000D02*
X256650000Y-82300000D01*
X159220000Y-81730000D02*
X161030000Y-81730000D01*
X129220000Y-81730000D02*
X131030000Y-81730000D01*
X63220000Y-81730000D02*
X65030000Y-81730000D01*
X111220000Y-81730000D02*
X113030000Y-81730000D01*
X195220000Y-81730000D02*
X197030000Y-81730000D01*
X186220000Y-81730000D02*
X188030000Y-81730000D01*
X216220000Y-81730000D02*
X218030000Y-81730000D01*
X96220000Y-81730000D02*
X98030000Y-81730000D01*
X231220000Y-81730000D02*
X233030000Y-81730000D01*
X66220000Y-81730000D02*
X68030000Y-81730000D01*
X168220000Y-81730000D02*
X170030000Y-81730000D01*
X207220000Y-81730000D02*
X209030000Y-81730000D01*
X141220000Y-81730000D02*
X143030000Y-81730000D01*
X132220000Y-81730000D02*
X134030000Y-81730000D01*
X237220000Y-81730000D02*
X239030000Y-81730000D01*
X219220000Y-81730000D02*
X221030000Y-81730000D01*
X153220000Y-81730000D02*
X155030000Y-81730000D01*
X183220000Y-81730000D02*
X185030000Y-81730000D01*
X144220000Y-81730000D02*
X146030000Y-81730000D01*
X204220000Y-81730000D02*
X206030000Y-81730000D01*
X78220000Y-81730000D02*
X80030000Y-81730000D01*
X90220000Y-84730000D02*
X92030000Y-84730000D01*
X222220000Y-84730000D02*
X224030000Y-84730000D01*
X177220000Y-84730000D02*
X179030000Y-84730000D01*
X156220000Y-84730000D02*
X158030000Y-84730000D01*
X260190000Y-82040000D02*
X257750000Y-82040000D01*
X108220000Y-84730000D02*
X110030000Y-84730000D01*
X120220000Y-84730000D02*
X122030000Y-84730000D01*
X216220000Y-84730000D02*
X218030000Y-84730000D01*
X246220000Y-84730000D02*
X248030000Y-84730000D01*
X237220000Y-84730000D02*
X239030000Y-84730000D01*
X75220000Y-84730000D02*
X77030000Y-84730000D01*
X165220000Y-84730000D02*
X167030000Y-84730000D01*
X174220000Y-84730000D02*
X176030000Y-84730000D01*
X117220000Y-84730000D02*
X119030000Y-84730000D01*
X78220000Y-84730000D02*
X80030000Y-84730000D01*
X257750000Y-82040000D02*
X256560000Y-83230000D01*
X126220000Y-84730000D02*
X128030000Y-84730000D01*
X69220000Y-84730000D02*
X71030000Y-84730000D01*
X213220000Y-84730000D02*
X215030000Y-84730000D01*
X105220000Y-84730000D02*
X107030000Y-84730000D01*
X93220000Y-84730000D02*
X95030000Y-84730000D01*
X254710000Y-85410000D02*
X254030000Y-84730000D01*
X168220000Y-84730000D02*
X170030000Y-84730000D01*
X171220000Y-84730000D02*
X173030000Y-84730000D01*
X240220000Y-84730000D02*
X242030000Y-84730000D01*
X132220000Y-84730000D02*
X134030000Y-84730000D01*
X147220000Y-84730000D02*
X149030000Y-84730000D01*
X72220000Y-84730000D02*
X74030000Y-84730000D01*
X153220000Y-84730000D02*
X155030000Y-84730000D01*
X186220000Y-84730000D02*
X188030000Y-84730000D01*
X256230000Y-85410000D02*
X254710000Y-85410000D01*
X189220000Y-84730000D02*
X191030000Y-84730000D01*
X123220000Y-84730000D02*
X125030000Y-84730000D01*
X231220000Y-84730000D02*
X233030000Y-84730000D01*
X114220000Y-84730000D02*
X116030000Y-84730000D01*
X228220000Y-84730000D02*
X230030000Y-84730000D01*
X256560000Y-85080000D02*
X256230000Y-85410000D01*
X63220000Y-84730000D02*
X65030000Y-84730000D01*
X159220000Y-84730000D02*
X161030000Y-84730000D01*
X225220000Y-84730000D02*
X227030000Y-84730000D01*
X198220000Y-84730000D02*
X200030000Y-84730000D01*
X183220000Y-84730000D02*
X185030000Y-84730000D01*
X135220000Y-84730000D02*
X137030000Y-84730000D01*
X204220000Y-84730000D02*
X206030000Y-84730000D01*
X256560000Y-83230000D02*
X256560000Y-85080000D01*
X96220000Y-84730000D02*
X98030000Y-84730000D01*
X144220000Y-84730000D02*
X146030000Y-84730000D01*
X252220000Y-84730000D02*
X254030000Y-84730000D01*
X99220000Y-84730000D02*
X101030000Y-84730000D01*
X87220000Y-84730000D02*
X89030000Y-84730000D01*
X150220000Y-84730000D02*
X152030000Y-84730000D01*
X207220000Y-84730000D02*
X209030000Y-84730000D01*
X243220000Y-84730000D02*
X245030000Y-84730000D01*
X111220000Y-84730000D02*
X113030000Y-84730000D01*
X129220000Y-84730000D02*
X131030000Y-84730000D01*
X66220000Y-84730000D02*
X68030000Y-84730000D01*
X249220000Y-84730000D02*
X251030000Y-84730000D01*
X234220000Y-84730000D02*
X236030000Y-84730000D01*
X138220000Y-84730000D02*
X140030000Y-84730000D01*
X162220000Y-84730000D02*
X164030000Y-84730000D01*
X81220000Y-84730000D02*
X83030000Y-84730000D01*
X102220000Y-84730000D02*
X104030000Y-84730000D01*
X210220000Y-84730000D02*
X212030000Y-84730000D01*
X195220000Y-84730000D02*
X197030000Y-84730000D01*
X219220000Y-84730000D02*
X221030000Y-84730000D01*
X201220000Y-84730000D02*
X203030000Y-84730000D01*
X141220000Y-84730000D02*
X143030000Y-84730000D01*
X180220000Y-84730000D02*
X182030000Y-84730000D01*
X192220000Y-84730000D02*
X194030000Y-84730000D01*
X84220000Y-84730000D02*
X86030000Y-84730000D01*
X263090000Y-82540000D02*
X259409000Y-82540000D01*
X201220000Y-87730000D02*
X203030000Y-87730000D01*
X90220000Y-87730000D02*
X92030000Y-87730000D01*
X63220000Y-87730000D02*
X65030000Y-87730000D01*
X141220000Y-87730000D02*
X143030000Y-87730000D01*
X234220000Y-87730000D02*
X236030000Y-87730000D01*
X66220000Y-87730000D02*
X68030000Y-87730000D01*
X256940000Y-87160000D02*
X255790000Y-88310000D01*
X99220000Y-87730000D02*
X101030000Y-87730000D01*
X240220000Y-87730000D02*
X242030000Y-87730000D01*
X114220000Y-87730000D02*
X116030000Y-87730000D01*
X138220000Y-87730000D02*
X140030000Y-87730000D01*
X144220000Y-87730000D02*
X146030000Y-87730000D01*
X213220000Y-87730000D02*
X215030000Y-87730000D01*
X183220000Y-87730000D02*
X185030000Y-87730000D01*
X255790000Y-88310000D02*
X254610000Y-88310000D01*
X132220000Y-87730000D02*
X134030000Y-87730000D01*
X252220000Y-87730000D02*
X254030000Y-87730000D01*
X117220000Y-87730000D02*
X119030000Y-87730000D01*
X159220000Y-87730000D02*
X161030000Y-87730000D01*
X81220000Y-87730000D02*
X83030000Y-87730000D01*
X189220000Y-87730000D02*
X191030000Y-87730000D01*
X256940000Y-83890000D02*
X256940000Y-87160000D01*
X207220000Y-87730000D02*
X209030000Y-87730000D01*
X129220000Y-87730000D02*
X131030000Y-87730000D01*
X120220000Y-87730000D02*
X122030000Y-87730000D01*
X69220000Y-87730000D02*
X71030000Y-87730000D01*
X231220000Y-87730000D02*
X233030000Y-87730000D01*
X75220000Y-87730000D02*
X77030000Y-87730000D01*
X153220000Y-87730000D02*
X155030000Y-87730000D01*
X162220000Y-87730000D02*
X164030000Y-87730000D01*
X216220000Y-87730000D02*
X218030000Y-87730000D01*
X111220000Y-87730000D02*
X113030000Y-87730000D01*
X249220000Y-87730000D02*
X251030000Y-87730000D01*
X198220000Y-87730000D02*
X200030000Y-87730000D01*
X171220000Y-87730000D02*
X173030000Y-87730000D01*
X192220000Y-87730000D02*
X194030000Y-87730000D01*
X186220000Y-87730000D02*
X188030000Y-87730000D01*
X237220000Y-87730000D02*
X239030000Y-87730000D01*
X177220000Y-87730000D02*
X179030000Y-87730000D01*
X180220000Y-87730000D02*
X182030000Y-87730000D01*
X174220000Y-87730000D02*
X176030000Y-87730000D01*
X96220000Y-87730000D02*
X98030000Y-87730000D01*
X105220000Y-87730000D02*
X107030000Y-87730000D01*
X210220000Y-87730000D02*
X212030000Y-87730000D01*
X254610000Y-88310000D02*
X254030000Y-87730000D01*
X243220000Y-87730000D02*
X245030000Y-87730000D01*
X168220000Y-87730000D02*
X170030000Y-87730000D01*
X222220000Y-87730000D02*
X224030000Y-87730000D01*
X150220000Y-87730000D02*
X152030000Y-87730000D01*
X135220000Y-87730000D02*
X137030000Y-87730000D01*
X108220000Y-87730000D02*
X110030000Y-87730000D01*
X84220000Y-87730000D02*
X86030000Y-87730000D01*
X156220000Y-87730000D02*
X158030000Y-87730000D01*
X259409000Y-82540000D02*
X259309000Y-82640000D01*
X102220000Y-87730000D02*
X104030000Y-87730000D01*
X219220000Y-87730000D02*
X221030000Y-87730000D01*
X259309000Y-82640000D02*
X258190000Y-82640000D01*
X126220000Y-87730000D02*
X128030000Y-87730000D01*
X258190000Y-82640000D02*
X256940000Y-83890000D01*
X123220000Y-87730000D02*
X125030000Y-87730000D01*
X87220000Y-87730000D02*
X89030000Y-87730000D01*
X147220000Y-87730000D02*
X149030000Y-87730000D01*
X78220000Y-87730000D02*
X80030000Y-87730000D01*
X228220000Y-87730000D02*
X230030000Y-87730000D01*
X93220000Y-87730000D02*
X95030000Y-87730000D01*
X246220000Y-87730000D02*
X248030000Y-87730000D01*
X165220000Y-87730000D02*
X167030000Y-87730000D01*
X195220000Y-87730000D02*
X197030000Y-87730000D01*
X225220000Y-87730000D02*
X227030000Y-87730000D01*
X204220000Y-87730000D02*
X206030000Y-87730000D01*
X72220000Y-87730000D02*
X74030000Y-87730000D01*
X153220000Y-90730000D02*
X155030000Y-90730000D01*
X102220000Y-90730000D02*
X104030000Y-90730000D01*
X260190000Y-83040000D02*
X258720000Y-83040000D01*
X69220000Y-90730000D02*
X71030000Y-90730000D01*
X168220000Y-90730000D02*
X170030000Y-90730000D01*
X231220000Y-90730000D02*
X233030000Y-90730000D01*
X159220000Y-90730000D02*
X161030000Y-90730000D01*
X63220000Y-90730000D02*
X65030000Y-90730000D01*
X165220000Y-90730000D02*
X167030000Y-90730000D01*
X120220000Y-90730000D02*
X122030000Y-90730000D01*
X177220000Y-90730000D02*
X179030000Y-90730000D01*
X257310000Y-90510000D02*
X256520000Y-91300000D01*
X240220000Y-90730000D02*
X242030000Y-90730000D01*
X135220000Y-90730000D02*
X137030000Y-90730000D01*
X117220000Y-90730000D02*
X119030000Y-90730000D01*
X114220000Y-90730000D02*
X116030000Y-90730000D01*
X66220000Y-90730000D02*
X68030000Y-90730000D01*
X216220000Y-90730000D02*
X218030000Y-90730000D01*
X207220000Y-90730000D02*
X209030000Y-90730000D01*
X257310000Y-84450000D02*
X257310000Y-90510000D01*
X162220000Y-90730000D02*
X164030000Y-90730000D01*
X111220000Y-90730000D02*
X113030000Y-90730000D01*
X225220000Y-90730000D02*
X227030000Y-90730000D01*
X90220000Y-90730000D02*
X92030000Y-90730000D01*
X147220000Y-90730000D02*
X149030000Y-90730000D01*
X171220000Y-90730000D02*
X173030000Y-90730000D01*
X254600000Y-91300000D02*
X254030000Y-90730000D01*
X246220000Y-90730000D02*
X248030000Y-90730000D01*
X174220000Y-90730000D02*
X176030000Y-90730000D01*
X204220000Y-90730000D02*
X206030000Y-90730000D01*
X237220000Y-90730000D02*
X239030000Y-90730000D01*
X198220000Y-90730000D02*
X200030000Y-90730000D01*
X126220000Y-90730000D02*
X128030000Y-90730000D01*
X75220000Y-90730000D02*
X77030000Y-90730000D01*
X123220000Y-90730000D02*
X125030000Y-90730000D01*
X213220000Y-90730000D02*
X215030000Y-90730000D01*
X93220000Y-90730000D02*
X95030000Y-90730000D01*
X81220000Y-90730000D02*
X83030000Y-90730000D01*
X105220000Y-90730000D02*
X107030000Y-90730000D01*
X189220000Y-90730000D02*
X191030000Y-90730000D01*
X72220000Y-90730000D02*
X74030000Y-90730000D01*
X108220000Y-90730000D02*
X110030000Y-90730000D01*
X96220000Y-90730000D02*
X98030000Y-90730000D01*
X150220000Y-90730000D02*
X152030000Y-90730000D01*
X87220000Y-90730000D02*
X89030000Y-90730000D01*
X78220000Y-90730000D02*
X80030000Y-90730000D01*
X186220000Y-90730000D02*
X188030000Y-90730000D01*
X141220000Y-90730000D02*
X143030000Y-90730000D01*
X210220000Y-90730000D02*
X212030000Y-90730000D01*
X129220000Y-90730000D02*
X131030000Y-90730000D01*
X252220000Y-90730000D02*
X254030000Y-90730000D01*
X180220000Y-90730000D02*
X182030000Y-90730000D01*
X249220000Y-90730000D02*
X251030000Y-90730000D01*
X195220000Y-90730000D02*
X197030000Y-90730000D01*
X219220000Y-90730000D02*
X221030000Y-90730000D01*
X183220000Y-90730000D02*
X185030000Y-90730000D01*
X228220000Y-90730000D02*
X230030000Y-90730000D01*
X234220000Y-90730000D02*
X236030000Y-90730000D01*
X222220000Y-90730000D02*
X224030000Y-90730000D01*
X132220000Y-90730000D02*
X134030000Y-90730000D01*
X138220000Y-90730000D02*
X140030000Y-90730000D01*
X144220000Y-90730000D02*
X146030000Y-90730000D01*
X258720000Y-83040000D02*
X257310000Y-84450000D01*
X84220000Y-90730000D02*
X86030000Y-90730000D01*
X201220000Y-90730000D02*
X203030000Y-90730000D01*
X256520000Y-91300000D02*
X254600000Y-91300000D01*
X192220000Y-90730000D02*
X194030000Y-90730000D01*
X99220000Y-90730000D02*
X101030000Y-90730000D01*
X243220000Y-90730000D02*
X245030000Y-90730000D01*
X156220000Y-90730000D02*
X158030000Y-90730000D01*
X69220000Y-93730000D02*
X71030000Y-93730000D01*
X117220000Y-93730000D02*
X119030000Y-93730000D01*
X201220000Y-93730000D02*
X203030000Y-93730000D01*
X257570000Y-93060000D02*
X256250000Y-94380000D01*
X213220000Y-93730000D02*
X215030000Y-93730000D01*
X240220000Y-93730000D02*
X242030000Y-93730000D01*
X186220000Y-93730000D02*
X188030000Y-93730000D01*
X210220000Y-93730000D02*
X212030000Y-93730000D01*
X102220000Y-93730000D02*
X104030000Y-93730000D01*
X246220000Y-93730000D02*
X248030000Y-93730000D01*
X162220000Y-93730000D02*
X164030000Y-93730000D01*
X237220000Y-93730000D02*
X239030000Y-93730000D01*
X195220000Y-93730000D02*
X197030000Y-93730000D01*
X105220000Y-93730000D02*
X107030000Y-93730000D01*
X257564000Y-84555210D02*
X257564000Y-90615210D01*
X126220000Y-93730000D02*
X128030000Y-93730000D01*
X84220000Y-93730000D02*
X86030000Y-93730000D01*
X254680000Y-94380000D02*
X254030000Y-93730000D01*
X216220000Y-93730000D02*
X218030000Y-93730000D01*
X252220000Y-93730000D02*
X254030000Y-93730000D01*
X108220000Y-93730000D02*
X110030000Y-93730000D01*
X259380000Y-83520000D02*
X258599210Y-83520000D01*
X231220000Y-93730000D02*
X233030000Y-93730000D01*
X258599210Y-83520000D02*
X257564000Y-84555210D01*
X257570000Y-90621210D02*
X257570000Y-93060000D01*
X192220000Y-93730000D02*
X194030000Y-93730000D01*
X174220000Y-93730000D02*
X176030000Y-93730000D01*
X153220000Y-93730000D02*
X155030000Y-93730000D01*
X147220000Y-93730000D02*
X149030000Y-93730000D01*
X63220000Y-93730000D02*
X65030000Y-93730000D01*
X183220000Y-93730000D02*
X185030000Y-93730000D01*
X207220000Y-93730000D02*
X209030000Y-93730000D01*
X132220000Y-93730000D02*
X134030000Y-93730000D01*
X129220000Y-93730000D02*
X131030000Y-93730000D01*
X96220000Y-93730000D02*
X98030000Y-93730000D01*
X204220000Y-93730000D02*
X206030000Y-93730000D01*
X165220000Y-93730000D02*
X167030000Y-93730000D01*
X99220000Y-93730000D02*
X101030000Y-93730000D01*
X189220000Y-93730000D02*
X191030000Y-93730000D01*
X144220000Y-93730000D02*
X146030000Y-93730000D01*
X159220000Y-93730000D02*
X161030000Y-93730000D01*
X156220000Y-93730000D02*
X158030000Y-93730000D01*
X198220000Y-93730000D02*
X200030000Y-93730000D01*
X78220000Y-93730000D02*
X80030000Y-93730000D01*
X257564000Y-90615210D02*
X257570000Y-90621210D01*
X263090000Y-83540000D02*
X259400000Y-83540000D01*
X90220000Y-93730000D02*
X92030000Y-93730000D01*
X66220000Y-93730000D02*
X68030000Y-93730000D01*
X114220000Y-93730000D02*
X116030000Y-93730000D01*
X222220000Y-93730000D02*
X224030000Y-93730000D01*
X177220000Y-93730000D02*
X179030000Y-93730000D01*
X72220000Y-93730000D02*
X74030000Y-93730000D01*
X93220000Y-93730000D02*
X95030000Y-93730000D01*
X171220000Y-93730000D02*
X173030000Y-93730000D01*
X249220000Y-93730000D02*
X251030000Y-93730000D01*
X123220000Y-93730000D02*
X125030000Y-93730000D01*
X75220000Y-93730000D02*
X77030000Y-93730000D01*
X87220000Y-93730000D02*
X89030000Y-93730000D01*
X256250000Y-94380000D02*
X254680000Y-94380000D01*
X259400000Y-83540000D02*
X259380000Y-83520000D01*
X180220000Y-93730000D02*
X182030000Y-93730000D01*
X234220000Y-93730000D02*
X236030000Y-93730000D01*
X219220000Y-93730000D02*
X221030000Y-93730000D01*
X168220000Y-93730000D02*
X170030000Y-93730000D01*
X225220000Y-93730000D02*
X227030000Y-93730000D01*
X111220000Y-93730000D02*
X113030000Y-93730000D01*
X120220000Y-93730000D02*
X122030000Y-93730000D01*
X138220000Y-93730000D02*
X140030000Y-93730000D01*
X135220000Y-93730000D02*
X137030000Y-93730000D01*
X141220000Y-93730000D02*
X143030000Y-93730000D01*
X228220000Y-93730000D02*
X230030000Y-93730000D01*
X81220000Y-93730000D02*
X83030000Y-93730000D01*
X150220000Y-93730000D02*
X152030000Y-93730000D01*
X243220000Y-93730000D02*
X245030000Y-93730000D01*
X108220000Y-96730000D02*
X110030000Y-96730000D01*
X168220000Y-96730000D02*
X170030000Y-96730000D01*
X153220000Y-96730000D02*
X155030000Y-96730000D01*
X114220000Y-96730000D02*
X116030000Y-96730000D01*
X249220000Y-96730000D02*
X251030000Y-96730000D01*
X93220000Y-96730000D02*
X95030000Y-96730000D01*
X204220000Y-96730000D02*
X206030000Y-96730000D01*
X162220000Y-96730000D02*
X164030000Y-96730000D01*
X174220000Y-96730000D02*
X176030000Y-96730000D01*
X228220000Y-96730000D02*
X230030000Y-96730000D01*
X243220000Y-96730000D02*
X245030000Y-96730000D01*
X222220000Y-96730000D02*
X224030000Y-96730000D01*
X69220000Y-96730000D02*
X71030000Y-96730000D01*
X213220000Y-96730000D02*
X215030000Y-96730000D01*
X72220000Y-96730000D02*
X74030000Y-96730000D01*
X257824000Y-96416000D02*
X257030000Y-97210000D01*
X141220000Y-96730000D02*
X143030000Y-96730000D01*
X189220000Y-96730000D02*
X191030000Y-96730000D01*
X138220000Y-96730000D02*
X140030000Y-96730000D01*
X78220000Y-96730000D02*
X80030000Y-96730000D01*
X144220000Y-96730000D02*
X146030000Y-96730000D01*
X252220000Y-96730000D02*
X254030000Y-96730000D01*
X66220000Y-96730000D02*
X68030000Y-96730000D01*
X81220000Y-96730000D02*
X83030000Y-96730000D01*
X216220000Y-96730000D02*
X218030000Y-96730000D01*
X186220000Y-96730000D02*
X188030000Y-96730000D01*
X96220000Y-96730000D02*
X98030000Y-96730000D01*
X129220000Y-96730000D02*
X131030000Y-96730000D01*
X260190000Y-84040000D02*
X258438420Y-84040000D01*
X210220000Y-96730000D02*
X212030000Y-96730000D01*
X84220000Y-96730000D02*
X86030000Y-96730000D01*
X183220000Y-96730000D02*
X185030000Y-96730000D01*
X258438420Y-84040000D02*
X257818000Y-84660420D01*
X195220000Y-96730000D02*
X197030000Y-96730000D01*
X257824000Y-84666420D02*
X257824000Y-96416000D01*
X123220000Y-96730000D02*
X125030000Y-96730000D01*
X102220000Y-96730000D02*
X104030000Y-96730000D01*
X237220000Y-96730000D02*
X239030000Y-96730000D01*
X120220000Y-96730000D02*
X122030000Y-96730000D01*
X180220000Y-96730000D02*
X182030000Y-96730000D01*
X75220000Y-96730000D02*
X77030000Y-96730000D01*
X256550000Y-96730000D02*
X257030000Y-97210000D01*
X240220000Y-96730000D02*
X242030000Y-96730000D01*
X156220000Y-96730000D02*
X158030000Y-96730000D01*
X246220000Y-96730000D02*
X248030000Y-96730000D01*
X135220000Y-96730000D02*
X137030000Y-96730000D01*
X132220000Y-96730000D02*
X134030000Y-96730000D01*
X117220000Y-96730000D02*
X119030000Y-96730000D01*
X165220000Y-96730000D02*
X167030000Y-96730000D01*
X254030000Y-96730000D02*
X256550000Y-96730000D01*
X90220000Y-96730000D02*
X92030000Y-96730000D01*
X126220000Y-96730000D02*
X128030000Y-96730000D01*
X87220000Y-96730000D02*
X89030000Y-96730000D01*
X198220000Y-96730000D02*
X200030000Y-96730000D01*
X192220000Y-96730000D02*
X194030000Y-96730000D01*
X219220000Y-96730000D02*
X221030000Y-96730000D01*
X177220000Y-96730000D02*
X179030000Y-96730000D01*
X111220000Y-96730000D02*
X113030000Y-96730000D01*
X225220000Y-96730000D02*
X227030000Y-96730000D01*
X234220000Y-96730000D02*
X236030000Y-96730000D01*
X147220000Y-96730000D02*
X149030000Y-96730000D01*
X171220000Y-96730000D02*
X173030000Y-96730000D01*
X63220000Y-96730000D02*
X65030000Y-96730000D01*
X105220000Y-96730000D02*
X107030000Y-96730000D01*
X201220000Y-96730000D02*
X203030000Y-96730000D01*
X150220000Y-96730000D02*
X152030000Y-96730000D01*
X99220000Y-96730000D02*
X101030000Y-96730000D01*
X231220000Y-96730000D02*
X233030000Y-96730000D01*
X207220000Y-96730000D02*
X209030000Y-96730000D01*
X159220000Y-96730000D02*
X161030000Y-96730000D01*
X257818000Y-84660420D02*
X257824000Y-84666420D01*
X123220000Y-99730000D02*
X125030000Y-99730000D01*
X183220000Y-99730000D02*
X185030000Y-99730000D01*
X222220000Y-99730000D02*
X224030000Y-99730000D01*
X192220000Y-99730000D02*
X194030000Y-99730000D01*
X228220000Y-99730000D02*
X230030000Y-99730000D01*
X78220000Y-99730000D02*
X80030000Y-99730000D01*
X90220000Y-99730000D02*
X92030000Y-99730000D01*
X105220000Y-99730000D02*
X107030000Y-99730000D01*
X66220000Y-99730000D02*
X68030000Y-99730000D01*
X240220000Y-99730000D02*
X242030000Y-99730000D01*
X162220000Y-99730000D02*
X164030000Y-99730000D01*
X234220000Y-99730000D02*
X236030000Y-99730000D01*
X129220000Y-99730000D02*
X131030000Y-99730000D01*
X246220000Y-99730000D02*
X248030000Y-99730000D01*
X165220000Y-99730000D02*
X167030000Y-99730000D01*
X87220000Y-99730000D02*
X89030000Y-99730000D01*
X120220000Y-99730000D02*
X122030000Y-99730000D01*
X198220000Y-99730000D02*
X200030000Y-99730000D01*
X171220000Y-99730000D02*
X173030000Y-99730000D01*
X258340000Y-84540000D02*
X263090000Y-84540000D01*
X195220000Y-99730000D02*
X197030000Y-99730000D01*
X93220000Y-99730000D02*
X95030000Y-99730000D01*
X135220000Y-99730000D02*
X137030000Y-99730000D01*
X249220000Y-99730000D02*
X251030000Y-99730000D01*
X216220000Y-99730000D02*
X218030000Y-99730000D01*
X204220000Y-99730000D02*
X206030000Y-99730000D01*
X168220000Y-99730000D02*
X170030000Y-99730000D01*
X201220000Y-99730000D02*
X203030000Y-99730000D01*
X72220000Y-99730000D02*
X74030000Y-99730000D01*
X159220000Y-99730000D02*
X161030000Y-99730000D01*
X252220000Y-99730000D02*
X254030000Y-99730000D01*
X153220000Y-99730000D02*
X155030000Y-99730000D01*
X102220000Y-99730000D02*
X104030000Y-99730000D01*
X138220000Y-99730000D02*
X140030000Y-99730000D01*
X258078000Y-99282000D02*
X258078000Y-84802000D01*
X207220000Y-99730000D02*
X209030000Y-99730000D01*
X213220000Y-99730000D02*
X215030000Y-99730000D01*
X126220000Y-99730000D02*
X128030000Y-99730000D01*
X141220000Y-99730000D02*
X143030000Y-99730000D01*
X84220000Y-99730000D02*
X86030000Y-99730000D01*
X69220000Y-99730000D02*
X71030000Y-99730000D01*
X254030000Y-99730000D02*
X254520000Y-100220000D01*
X150220000Y-99730000D02*
X152030000Y-99730000D01*
X96220000Y-99730000D02*
X98030000Y-99730000D01*
X147220000Y-99730000D02*
X149030000Y-99730000D01*
X156220000Y-99730000D02*
X158030000Y-99730000D01*
X99220000Y-99730000D02*
X101030000Y-99730000D01*
X111220000Y-99730000D02*
X113030000Y-99730000D01*
X114220000Y-99730000D02*
X116030000Y-99730000D01*
X75220000Y-99730000D02*
X77030000Y-99730000D01*
X231220000Y-99730000D02*
X233030000Y-99730000D01*
X237220000Y-99730000D02*
X239030000Y-99730000D01*
X174220000Y-99730000D02*
X176030000Y-99730000D01*
X108220000Y-99730000D02*
X110030000Y-99730000D01*
X144220000Y-99730000D02*
X146030000Y-99730000D01*
X257140000Y-100220000D02*
X258078000Y-99282000D01*
X117220000Y-99730000D02*
X119030000Y-99730000D01*
X189220000Y-99730000D02*
X191030000Y-99730000D01*
X132220000Y-99730000D02*
X134030000Y-99730000D01*
X81220000Y-99730000D02*
X83030000Y-99730000D01*
X180220000Y-99730000D02*
X182030000Y-99730000D01*
X258078000Y-84802000D02*
X258340000Y-84540000D01*
X63220000Y-99730000D02*
X65030000Y-99730000D01*
X254520000Y-100220000D02*
X257140000Y-100220000D01*
X186220000Y-99730000D02*
X188030000Y-99730000D01*
X243220000Y-99730000D02*
X245030000Y-99730000D01*
X177220000Y-99730000D02*
X179030000Y-99730000D01*
X225220000Y-99730000D02*
X227030000Y-99730000D01*
X219220000Y-99730000D02*
X221030000Y-99730000D01*
X210220000Y-99730000D02*
X212030000Y-99730000D01*
X90220000Y-102730000D02*
X92030000Y-102730000D01*
X260190000Y-85040000D02*
X258920000Y-85040000D01*
X258332000Y-85628000D02*
X258332000Y-102078000D01*
X258920000Y-85040000D02*
X258332000Y-85628000D01*
X213220000Y-102730000D02*
X215030000Y-102730000D01*
X252220000Y-102730000D02*
X254030000Y-102730000D01*
X153220000Y-102730000D02*
X155030000Y-102730000D01*
X198220000Y-102730000D02*
X200030000Y-102730000D01*
X75220000Y-102730000D02*
X77030000Y-102730000D01*
X174220000Y-102730000D02*
X176030000Y-102730000D01*
X168220000Y-102730000D02*
X170030000Y-102730000D01*
X240220000Y-102730000D02*
X242030000Y-102730000D01*
X231220000Y-102730000D02*
X233030000Y-102730000D01*
X195220000Y-102730000D02*
X197030000Y-102730000D01*
X126220000Y-102730000D02*
X128030000Y-102730000D01*
X254030000Y-102730000D02*
X255190000Y-102730000D01*
X216220000Y-102730000D02*
X218030000Y-102730000D01*
X159220000Y-102730000D02*
X161030000Y-102730000D01*
X207220000Y-102730000D02*
X209030000Y-102730000D01*
X150220000Y-102730000D02*
X152030000Y-102730000D01*
X204220000Y-102730000D02*
X206030000Y-102730000D01*
X192220000Y-102730000D02*
X194030000Y-102730000D01*
X183220000Y-102730000D02*
X185030000Y-102730000D01*
X105220000Y-102730000D02*
X107030000Y-102730000D01*
X144220000Y-102730000D02*
X146030000Y-102730000D01*
X255190000Y-102730000D02*
X255830000Y-103370000D01*
X228220000Y-102730000D02*
X230030000Y-102730000D01*
X249220000Y-102730000D02*
X251030000Y-102730000D01*
X225220000Y-102730000D02*
X227030000Y-102730000D01*
X186220000Y-102730000D02*
X188030000Y-102730000D01*
X147220000Y-102730000D02*
X149030000Y-102730000D01*
X63220000Y-102730000D02*
X65030000Y-102730000D01*
X129220000Y-102730000D02*
X131030000Y-102730000D01*
X120220000Y-102730000D02*
X122030000Y-102730000D01*
X257040000Y-103370000D02*
X255830000Y-103370000D01*
X219220000Y-102730000D02*
X221030000Y-102730000D01*
X141220000Y-102730000D02*
X143030000Y-102730000D01*
X165220000Y-102730000D02*
X167030000Y-102730000D01*
X132220000Y-102730000D02*
X134030000Y-102730000D01*
X177220000Y-102730000D02*
X179030000Y-102730000D01*
X237220000Y-102730000D02*
X239030000Y-102730000D01*
X138220000Y-102730000D02*
X140030000Y-102730000D01*
X114220000Y-102730000D02*
X116030000Y-102730000D01*
X171220000Y-102730000D02*
X173030000Y-102730000D01*
X117220000Y-102730000D02*
X119030000Y-102730000D01*
X69220000Y-102730000D02*
X71030000Y-102730000D01*
X72220000Y-102730000D02*
X74030000Y-102730000D01*
X123220000Y-102730000D02*
X125030000Y-102730000D01*
X234220000Y-102730000D02*
X236030000Y-102730000D01*
X96220000Y-102730000D02*
X98030000Y-102730000D01*
X66220000Y-102730000D02*
X68030000Y-102730000D01*
X243220000Y-102730000D02*
X245030000Y-102730000D01*
X258332000Y-102078000D02*
X257040000Y-103370000D01*
X84220000Y-102730000D02*
X86030000Y-102730000D01*
X108220000Y-102730000D02*
X110030000Y-102730000D01*
X87220000Y-102730000D02*
X89030000Y-102730000D01*
X180220000Y-102730000D02*
X182030000Y-102730000D01*
X81220000Y-102730000D02*
X83030000Y-102730000D01*
X102220000Y-102730000D02*
X104030000Y-102730000D01*
X201220000Y-102730000D02*
X203030000Y-102730000D01*
X246220000Y-102730000D02*
X248030000Y-102730000D01*
X93220000Y-102730000D02*
X95030000Y-102730000D01*
X78220000Y-102730000D02*
X80030000Y-102730000D01*
X156220000Y-102730000D02*
X158030000Y-102730000D01*
X162220000Y-102730000D02*
X164030000Y-102730000D01*
X135220000Y-102730000D02*
X137030000Y-102730000D01*
X222220000Y-102730000D02*
X224030000Y-102730000D01*
X189220000Y-102730000D02*
X191030000Y-102730000D01*
X210220000Y-102730000D02*
X212030000Y-102730000D01*
X111220000Y-102730000D02*
X113030000Y-102730000D01*
X99220000Y-102730000D02*
X101030000Y-102730000D01*
X55908000Y-95707210D02*
X55360790Y-95160000D01*
X55908000Y-107419830D02*
X55908000Y-95707210D01*
X55360790Y-95160000D02*
X50560000Y-95160000D01*
X229130000Y-104820000D02*
X229130000Y-105970000D01*
X223478000Y-111622000D02*
X60110170Y-111622000D01*
X60110170Y-111622000D02*
X55908000Y-107419830D01*
X229130000Y-105970000D02*
X223478000Y-111622000D01*
X220622000Y-111368000D02*
X226130000Y-105860000D01*
X53460000Y-94660000D02*
X55252000Y-94660000D01*
X55252000Y-94660000D02*
X55252000Y-94692000D01*
X60215380Y-111368000D02*
X220622000Y-111368000D01*
X55252000Y-94692000D02*
X56162000Y-95602000D01*
X56162000Y-107314620D02*
X60215380Y-111368000D01*
X56162000Y-95602000D02*
X56162000Y-107314620D01*
X226130000Y-104820000D02*
X226130000Y-105860000D01*
X223130000Y-106520000D02*
X218536000Y-111114000D01*
X56416000Y-94716000D02*
X55860000Y-94160000D01*
X60320590Y-111114000D02*
X56416000Y-107209410D01*
X55860000Y-94160000D02*
X50560000Y-94160000D01*
X223130000Y-104820000D02*
X223130000Y-106520000D01*
X56416000Y-107209410D02*
X56416000Y-94716000D01*
X218536000Y-111114000D02*
X60320590Y-111114000D01*
X215080000Y-110860000D02*
X220130000Y-105810000D01*
X56670000Y-93790000D02*
X56670000Y-107104200D01*
X56670000Y-107104200D02*
X60425800Y-110860000D01*
X60425800Y-110860000D02*
X215080000Y-110860000D01*
X53460000Y-93660000D02*
X56540000Y-93660000D01*
X220130000Y-104820000D02*
X220130000Y-105810000D01*
X56540000Y-93660000D02*
X56670000Y-93790000D01*
X217130000Y-104820000D02*
X217130000Y-105710000D01*
X56550790Y-93160000D02*
X56924000Y-93533210D01*
X212234000Y-110606000D02*
X217130000Y-105710000D01*
X50560000Y-93160000D02*
X56550790Y-93160000D01*
X56924000Y-93533210D02*
X56924000Y-106998990D01*
X60531010Y-110606000D02*
X212234000Y-110606000D01*
X56924000Y-106998990D02*
X60531010Y-110606000D01*
X53460000Y-92660000D02*
X56410000Y-92660000D01*
X60636220Y-110352000D02*
X209438000Y-110352000D01*
X209438000Y-110352000D02*
X214130000Y-105660000D01*
X214130000Y-104820000D02*
X214130000Y-105660000D01*
X57178000Y-106893780D02*
X60636220Y-110352000D01*
X56410000Y-92660000D02*
X57178000Y-93428000D01*
X57178000Y-93428000D02*
X57178000Y-106893780D01*
X211130000Y-105640000D02*
X206672000Y-110098000D01*
X57432000Y-92728840D02*
X56863160Y-92160000D01*
X57432000Y-106788570D02*
X57432000Y-92728840D01*
X56863160Y-92160000D02*
X50560000Y-92160000D01*
X211130000Y-104820000D02*
X211130000Y-105640000D01*
X206672000Y-110098000D02*
X60741430Y-110098000D01*
X60741430Y-110098000D02*
X57432000Y-106788570D01*
X204116000Y-109844000D02*
X208130000Y-105830000D01*
X57686000Y-92623630D02*
X57686000Y-106683360D01*
X57686000Y-106683360D02*
X60846640Y-109844000D01*
X53460000Y-91660000D02*
X56722370Y-91660000D01*
X208130000Y-104820000D02*
X208130000Y-105830000D01*
X60846640Y-109844000D02*
X204116000Y-109844000D01*
X56722370Y-91660000D02*
X57686000Y-92623630D01*
X205130000Y-105760000D02*
X201300000Y-109590000D01*
X57940000Y-92518420D02*
X56581580Y-91160000D01*
X60951850Y-109590000D02*
X57940000Y-106578150D01*
X205130000Y-104820000D02*
X205130000Y-105760000D01*
X57940000Y-106578150D02*
X57940000Y-92518420D01*
X201300000Y-109590000D02*
X60951850Y-109590000D01*
X56581580Y-91160000D02*
X50560000Y-91160000D01*
X58194000Y-106472940D02*
X61057060Y-109336000D01*
X61057060Y-109336000D02*
X198614000Y-109336000D01*
X202130000Y-104820000D02*
X202130000Y-105820000D01*
X56440790Y-90660000D02*
X58194000Y-92413210D01*
X53460000Y-90660000D02*
X56440790Y-90660000D01*
X198614000Y-109336000D02*
X202130000Y-105820000D01*
X58194000Y-92413210D02*
X58194000Y-106472940D01*
X61162270Y-109082000D02*
X195788000Y-109082000D01*
X56300000Y-90160000D02*
X58448000Y-92308000D01*
X199130000Y-104820000D02*
X199130000Y-105740000D01*
X58448000Y-106367730D02*
X61162270Y-109082000D01*
X58448000Y-92308000D02*
X58448000Y-106367730D01*
X50560000Y-90160000D02*
X56300000Y-90160000D01*
X195788000Y-109082000D02*
X199130000Y-105740000D01*
X53460000Y-89660000D02*
X58391580Y-89660000D01*
X58702000Y-106262520D02*
X61267480Y-108828000D01*
X61267480Y-108828000D02*
X193112000Y-108828000D01*
X196130000Y-104820000D02*
X196130000Y-105810000D01*
X58702000Y-89970420D02*
X58702000Y-106262520D01*
X193112000Y-108828000D02*
X196130000Y-105810000D01*
X58391580Y-89660000D02*
X58702000Y-89970420D01*
X58250790Y-89160000D02*
X58956000Y-89865210D01*
X58956000Y-106157310D02*
X61372690Y-108574000D01*
X58956000Y-89865210D02*
X58956000Y-106157310D01*
X190326000Y-108574000D02*
X193130000Y-105770000D01*
X61372690Y-108574000D02*
X190326000Y-108574000D01*
X50560000Y-89160000D02*
X58250790Y-89160000D01*
X193130000Y-104820000D02*
X193130000Y-105770000D01*
X190130000Y-105570000D02*
X187380000Y-108320000D01*
X59210000Y-89760000D02*
X58110000Y-88660000D01*
X59210000Y-106052100D02*
X59210000Y-89760000D01*
X187380000Y-108320000D02*
X61477900Y-108320000D01*
X190130000Y-104820000D02*
X190130000Y-105570000D01*
X61477900Y-108320000D02*
X59210000Y-106052100D01*
X58110000Y-88660000D02*
X53460000Y-88660000D01*
X187130000Y-104820000D02*
X187130000Y-105690000D01*
X184754000Y-108066000D02*
X61583110Y-108066000D01*
X59137110Y-88160000D02*
X50560000Y-88160000D01*
X59464000Y-105946890D02*
X59464000Y-88486890D01*
X187130000Y-105690000D02*
X184754000Y-108066000D01*
X59464000Y-88486890D02*
X59137110Y-88160000D01*
X61583110Y-108066000D02*
X59464000Y-105946890D01*
X59718000Y-105841680D02*
X61688320Y-107812000D01*
X61688320Y-107812000D02*
X182058000Y-107812000D01*
X58996320Y-87660000D02*
X59718000Y-88381680D01*
X182058000Y-107812000D02*
X184130000Y-105740000D01*
X53460000Y-87660000D02*
X58996320Y-87660000D01*
X184130000Y-104820000D02*
X184130000Y-105740000D01*
X59718000Y-88381680D02*
X59718000Y-105841680D01*
X59972000Y-88276470D02*
X58855530Y-87160000D01*
X181130000Y-105840000D02*
X179412000Y-107558000D01*
X179412000Y-107558000D02*
X61793530Y-107558000D01*
X59972000Y-105736470D02*
X59972000Y-88276470D01*
X58855530Y-87160000D02*
X50560000Y-87160000D01*
X181130000Y-104820000D02*
X181130000Y-105840000D01*
X61793530Y-107558000D02*
X59972000Y-105736470D01*
X58714740Y-86660000D02*
X60226000Y-88171260D01*
X60226000Y-88171260D02*
X60226000Y-105631260D01*
X53460000Y-86660000D02*
X58714740Y-86660000D01*
X176786000Y-107304000D02*
X178130000Y-105960000D01*
X178130000Y-104820000D02*
X178130000Y-105960000D01*
X61898740Y-107304000D02*
X176786000Y-107304000D01*
X60226000Y-105631260D02*
X61898740Y-107304000D01*
X62003950Y-107050000D02*
X60480000Y-105526050D01*
X175130000Y-104820000D02*
X175130000Y-105900000D01*
X173980000Y-107050000D02*
X62003950Y-107050000D01*
X60480000Y-88066050D02*
X58573950Y-86160000D01*
X60480000Y-105526050D02*
X60480000Y-88066050D01*
X175130000Y-105900000D02*
X173980000Y-107050000D01*
X58573950Y-86160000D02*
X50560000Y-86160000D01*
X58433160Y-85660000D02*
X53460000Y-85660000D01*
X62109160Y-106796000D02*
X60734000Y-105420840D01*
X171254000Y-106796000D02*
X62109160Y-106796000D01*
X172130000Y-105920000D02*
X171254000Y-106796000D01*
X60734000Y-105420840D02*
X60734000Y-87960840D01*
X172130000Y-104820000D02*
X172130000Y-105920000D01*
X60734000Y-87960840D02*
X58433160Y-85660000D01*
X168328000Y-106542000D02*
X62214370Y-106542000D01*
X60988000Y-105315630D02*
X60988000Y-87855630D01*
X60988000Y-87855630D02*
X58292370Y-85160000D01*
X58292370Y-85160000D02*
X50560000Y-85160000D01*
X169130000Y-105740000D02*
X168328000Y-106542000D01*
X62214370Y-106542000D02*
X60988000Y-105315630D01*
X169130000Y-104820000D02*
X169130000Y-105740000D01*
X61242000Y-105210420D02*
X61242000Y-87750420D01*
X58151580Y-84660000D02*
X53460000Y-84660000D01*
X165512000Y-106288000D02*
X62319580Y-106288000D01*
X166130000Y-105670000D02*
X165512000Y-106288000D01*
X62319580Y-106288000D02*
X61242000Y-105210420D01*
X166130000Y-104820000D02*
X166130000Y-105670000D01*
X61242000Y-87750420D02*
X58151580Y-84660000D01*
X58010790Y-84160000D02*
X61496000Y-87645210D01*
X61496000Y-87645210D02*
X61496000Y-105105210D01*
X50560000Y-84160000D02*
X58010790Y-84160000D01*
X163130000Y-105640000D02*
X163120000Y-105650000D01*
X163130000Y-104820000D02*
X163130000Y-105640000D01*
X61496000Y-105105210D02*
X62424790Y-106034000D01*
X162736000Y-106034000D02*
X163120000Y-105650000D01*
X62424790Y-106034000D02*
X162736000Y-106034000D01*
X160130000Y-105550000D02*
X159900000Y-105780000D01*
X61750000Y-105000000D02*
X61750000Y-87540000D01*
X57870000Y-83660000D02*
X53460000Y-83660000D01*
X62530000Y-105780000D02*
X61750000Y-105000000D01*
X160130000Y-104820000D02*
X160130000Y-105550000D01*
X159900000Y-105780000D02*
X62530000Y-105780000D01*
X61750000Y-87540000D02*
X57870000Y-83660000D01*
X129220000Y-57730000D02*
X131030000Y-57730000D01*
X249220000Y-57730000D02*
X251030000Y-57730000D01*
X87220000Y-57730000D02*
X89030000Y-57730000D01*
X189220000Y-57730000D02*
X191030000Y-57730000D01*
X159220000Y-57730000D02*
X161030000Y-57730000D01*
X105220000Y-57730000D02*
X107030000Y-57730000D01*
X213220000Y-57730000D02*
X215030000Y-57730000D01*
X156220000Y-57730000D02*
X158030000Y-57730000D01*
X254620000Y-58320000D02*
X254030000Y-57730000D01*
X257820000Y-67930000D02*
X257820000Y-59290000D01*
X93220000Y-57730000D02*
X95030000Y-57730000D01*
X201220000Y-57730000D02*
X203030000Y-57730000D01*
X135220000Y-57730000D02*
X137030000Y-57730000D01*
X256850000Y-58320000D02*
X254620000Y-58320000D01*
X186220000Y-57730000D02*
X188030000Y-57730000D01*
X114220000Y-57730000D02*
X116030000Y-57730000D01*
X108220000Y-57730000D02*
X110030000Y-57730000D01*
X150220000Y-57730000D02*
X152030000Y-57730000D01*
X69220000Y-57730000D02*
X71030000Y-57730000D01*
X216220000Y-57730000D02*
X218030000Y-57730000D01*
X262990000Y-68890000D02*
X258780000Y-68890000D01*
X183220000Y-57730000D02*
X185030000Y-57730000D01*
X123220000Y-57730000D02*
X125030000Y-57730000D01*
X141220000Y-57730000D02*
X143030000Y-57730000D01*
X171220000Y-57730000D02*
X173030000Y-57730000D01*
X177220000Y-57730000D02*
X179030000Y-57730000D01*
X195220000Y-57730000D02*
X197030000Y-57730000D01*
X180220000Y-57730000D02*
X182030000Y-57730000D01*
X147220000Y-57730000D02*
X149030000Y-57730000D01*
X162220000Y-57730000D02*
X164030000Y-57730000D01*
X192220000Y-57730000D02*
X194030000Y-57730000D01*
X231220000Y-57730000D02*
X233030000Y-57730000D01*
X243220000Y-57730000D02*
X245030000Y-57730000D01*
X153220000Y-57730000D02*
X155030000Y-57730000D01*
X246220000Y-57730000D02*
X248030000Y-57730000D01*
X78220000Y-57730000D02*
X80030000Y-57730000D01*
X102220000Y-57730000D02*
X104030000Y-57730000D01*
X84220000Y-57730000D02*
X86030000Y-57730000D01*
X210220000Y-57730000D02*
X212030000Y-57730000D01*
X66220000Y-57730000D02*
X68030000Y-57730000D01*
X228220000Y-57730000D02*
X230030000Y-57730000D01*
X81220000Y-57730000D02*
X83030000Y-57730000D01*
X72220000Y-57730000D02*
X74030000Y-57730000D01*
X96220000Y-57730000D02*
X98030000Y-57730000D01*
X63220000Y-57730000D02*
X65030000Y-57730000D01*
X165220000Y-57730000D02*
X167030000Y-57730000D01*
X111220000Y-57730000D02*
X113030000Y-57730000D01*
X225220000Y-57730000D02*
X227030000Y-57730000D01*
X144220000Y-57730000D02*
X146030000Y-57730000D01*
X90220000Y-57730000D02*
X92030000Y-57730000D01*
X168220000Y-57730000D02*
X170030000Y-57730000D01*
X126220000Y-57730000D02*
X128030000Y-57730000D01*
X99220000Y-57730000D02*
X101030000Y-57730000D01*
X174220000Y-57730000D02*
X176030000Y-57730000D01*
X120220000Y-57730000D02*
X122030000Y-57730000D01*
X207220000Y-57730000D02*
X209030000Y-57730000D01*
X258780000Y-68890000D02*
X257820000Y-67930000D01*
X252220000Y-57730000D02*
X254030000Y-57730000D01*
X240220000Y-57730000D02*
X242030000Y-57730000D01*
X117220000Y-57730000D02*
X119030000Y-57730000D01*
X222220000Y-57730000D02*
X224030000Y-57730000D01*
X219220000Y-57730000D02*
X221030000Y-57730000D01*
X237220000Y-57730000D02*
X239030000Y-57730000D01*
X75220000Y-57730000D02*
X77030000Y-57730000D01*
X132220000Y-57730000D02*
X134030000Y-57730000D01*
X204220000Y-57730000D02*
X206030000Y-57730000D01*
X198220000Y-57730000D02*
X200030000Y-57730000D01*
X234220000Y-57730000D02*
X236030000Y-57730000D01*
X257820000Y-59290000D02*
X256850000Y-58320000D01*
X138220000Y-57730000D02*
X140030000Y-57730000D01*
X165220000Y-60730000D02*
X167030000Y-60730000D01*
X96220000Y-60730000D02*
X98030000Y-60730000D01*
X162220000Y-60730000D02*
X164030000Y-60730000D01*
X126220000Y-60730000D02*
X128030000Y-60730000D01*
X123220000Y-60730000D02*
X125030000Y-60730000D01*
X78220000Y-60730000D02*
X80030000Y-60730000D01*
X117220000Y-60730000D02*
X119030000Y-60730000D01*
X231220000Y-60730000D02*
X233030000Y-60730000D01*
X99220000Y-60730000D02*
X101030000Y-60730000D01*
X258920790Y-69390000D02*
X257566000Y-68035210D01*
X246220000Y-60730000D02*
X248030000Y-60730000D01*
X216220000Y-60730000D02*
X218030000Y-60730000D01*
X147220000Y-60730000D02*
X149030000Y-60730000D01*
X66220000Y-60730000D02*
X68030000Y-60730000D01*
X183220000Y-60730000D02*
X185030000Y-60730000D01*
X189220000Y-60730000D02*
X191030000Y-60730000D01*
X144220000Y-60730000D02*
X146030000Y-60730000D01*
X84220000Y-60730000D02*
X86030000Y-60730000D01*
X156220000Y-60730000D02*
X158030000Y-60730000D01*
X234220000Y-60730000D02*
X236030000Y-60730000D01*
X141220000Y-60730000D02*
X143030000Y-60730000D01*
X168220000Y-60730000D02*
X170030000Y-60730000D01*
X63220000Y-60730000D02*
X65030000Y-60730000D01*
X256976000Y-61360000D02*
X254660000Y-61360000D01*
X254660000Y-61360000D02*
X254030000Y-60730000D01*
X243220000Y-60730000D02*
X245030000Y-60730000D01*
X129220000Y-60730000D02*
X131030000Y-60730000D01*
X257566000Y-61950000D02*
X256976000Y-61360000D01*
X150220000Y-60730000D02*
X152030000Y-60730000D01*
X105220000Y-60730000D02*
X107030000Y-60730000D01*
X75220000Y-60730000D02*
X77030000Y-60730000D01*
X210220000Y-60730000D02*
X212030000Y-60730000D01*
X69220000Y-60730000D02*
X71030000Y-60730000D01*
X132220000Y-60730000D02*
X134030000Y-60730000D01*
X93220000Y-60730000D02*
X95030000Y-60730000D01*
X159220000Y-60730000D02*
X161030000Y-60730000D01*
X186220000Y-60730000D02*
X188030000Y-60730000D01*
X138220000Y-60730000D02*
X140030000Y-60730000D01*
X177220000Y-60730000D02*
X179030000Y-60730000D01*
X174220000Y-60730000D02*
X176030000Y-60730000D01*
X219220000Y-60730000D02*
X221030000Y-60730000D01*
X72220000Y-60730000D02*
X74030000Y-60730000D01*
X222220000Y-60730000D02*
X224030000Y-60730000D01*
X114220000Y-60730000D02*
X116030000Y-60730000D01*
X90220000Y-60730000D02*
X92030000Y-60730000D01*
X213220000Y-60730000D02*
X215030000Y-60730000D01*
X260090000Y-69390000D02*
X258920790Y-69390000D01*
X120220000Y-60730000D02*
X122030000Y-60730000D01*
X195220000Y-60730000D02*
X197030000Y-60730000D01*
X192220000Y-60730000D02*
X194030000Y-60730000D01*
X87220000Y-60730000D02*
X89030000Y-60730000D01*
X228220000Y-60730000D02*
X230030000Y-60730000D01*
X201220000Y-60730000D02*
X203030000Y-60730000D01*
X111220000Y-60730000D02*
X113030000Y-60730000D01*
X153220000Y-60730000D02*
X155030000Y-60730000D01*
X240220000Y-60730000D02*
X242030000Y-60730000D01*
X171220000Y-60730000D02*
X173030000Y-60730000D01*
X252220000Y-60730000D02*
X254030000Y-60730000D01*
X237220000Y-60730000D02*
X239030000Y-60730000D01*
X207220000Y-60730000D02*
X209030000Y-60730000D01*
X198220000Y-60730000D02*
X200030000Y-60730000D01*
X204220000Y-60730000D02*
X206030000Y-60730000D01*
X108220000Y-60730000D02*
X110030000Y-60730000D01*
X180220000Y-60730000D02*
X182030000Y-60730000D01*
X135220000Y-60730000D02*
X137030000Y-60730000D01*
X257566000Y-68035210D02*
X257566000Y-61950000D01*
X225220000Y-60730000D02*
X227030000Y-60730000D01*
X249220000Y-60730000D02*
X251030000Y-60730000D01*
X102220000Y-60730000D02*
X104030000Y-60730000D01*
X81220000Y-60730000D02*
X83030000Y-60730000D01*
X257190000Y-64560000D02*
X256920000Y-64290000D01*
X207220000Y-63730000D02*
X209030000Y-63730000D01*
X204220000Y-63730000D02*
X206030000Y-63730000D01*
X210220000Y-63730000D02*
X212030000Y-63730000D01*
X93220000Y-63730000D02*
X95030000Y-63730000D01*
X78220000Y-63730000D02*
X80030000Y-63730000D01*
X189220000Y-63730000D02*
X191030000Y-63730000D01*
X126220000Y-63730000D02*
X128030000Y-63730000D01*
X201220000Y-63730000D02*
X203030000Y-63730000D01*
X249220000Y-63730000D02*
X251030000Y-63730000D01*
X256920000Y-64290000D02*
X254590000Y-64290000D01*
X198220000Y-63730000D02*
X200030000Y-63730000D01*
X180220000Y-63730000D02*
X182030000Y-63730000D01*
X252220000Y-63730000D02*
X254030000Y-63730000D01*
X225220000Y-63730000D02*
X227030000Y-63730000D01*
X72220000Y-63730000D02*
X74030000Y-63730000D01*
X228220000Y-63730000D02*
X230030000Y-63730000D01*
X147220000Y-63730000D02*
X149030000Y-63730000D01*
X186220000Y-63730000D02*
X188030000Y-63730000D01*
X183220000Y-63730000D02*
X185030000Y-63730000D01*
X234220000Y-63730000D02*
X236030000Y-63730000D01*
X75220000Y-63730000D02*
X77030000Y-63730000D01*
X243220000Y-63730000D02*
X245030000Y-63730000D01*
X63220000Y-63730000D02*
X65030000Y-63730000D01*
X129220000Y-63730000D02*
X131030000Y-63730000D01*
X156220000Y-63730000D02*
X158030000Y-63730000D01*
X99220000Y-63730000D02*
X101030000Y-63730000D01*
X111220000Y-63730000D02*
X113030000Y-63730000D01*
X138220000Y-63730000D02*
X140030000Y-63730000D01*
X213220000Y-63730000D02*
X215030000Y-63730000D01*
X237220000Y-63730000D02*
X239030000Y-63730000D01*
X192220000Y-63730000D02*
X194030000Y-63730000D01*
X90220000Y-63730000D02*
X92030000Y-63730000D01*
X150220000Y-63730000D02*
X152030000Y-63730000D01*
X81220000Y-63730000D02*
X83030000Y-63730000D01*
X135220000Y-63730000D02*
X137030000Y-63730000D01*
X259061580Y-69890000D02*
X257190000Y-68018420D01*
X171220000Y-63730000D02*
X173030000Y-63730000D01*
X231220000Y-63730000D02*
X233030000Y-63730000D01*
X177220000Y-63730000D02*
X179030000Y-63730000D01*
X246220000Y-63730000D02*
X248030000Y-63730000D01*
X159220000Y-63730000D02*
X161030000Y-63730000D01*
X222220000Y-63730000D02*
X224030000Y-63730000D01*
X216220000Y-63730000D02*
X218030000Y-63730000D01*
X96220000Y-63730000D02*
X98030000Y-63730000D01*
X84220000Y-63730000D02*
X86030000Y-63730000D01*
X132220000Y-63730000D02*
X134030000Y-63730000D01*
X240220000Y-63730000D02*
X242030000Y-63730000D01*
X195220000Y-63730000D02*
X197030000Y-63730000D01*
X257190000Y-68018420D02*
X257190000Y-64560000D01*
X87220000Y-63730000D02*
X89030000Y-63730000D01*
X153220000Y-63730000D02*
X155030000Y-63730000D01*
X174220000Y-63730000D02*
X176030000Y-63730000D01*
X69220000Y-63730000D02*
X71030000Y-63730000D01*
X165220000Y-63730000D02*
X167030000Y-63730000D01*
X262990000Y-69890000D02*
X259061580Y-69890000D01*
X105220000Y-63730000D02*
X107030000Y-63730000D01*
X254590000Y-64290000D02*
X254030000Y-63730000D01*
X66220000Y-63730000D02*
X68030000Y-63730000D01*
X168220000Y-63730000D02*
X170030000Y-63730000D01*
X219220000Y-63730000D02*
X221030000Y-63730000D01*
X117220000Y-63730000D02*
X119030000Y-63730000D01*
X108220000Y-63730000D02*
X110030000Y-63730000D01*
X141220000Y-63730000D02*
X143030000Y-63730000D01*
X102220000Y-63730000D02*
X104030000Y-63730000D01*
X114220000Y-63730000D02*
X116030000Y-63730000D01*
X123220000Y-63730000D02*
X125030000Y-63730000D01*
X120220000Y-63730000D02*
X122030000Y-63730000D01*
X144220000Y-63730000D02*
X146030000Y-63730000D01*
X162220000Y-63730000D02*
X164030000Y-63730000D01*
X105220000Y-66730000D02*
X107030000Y-66730000D01*
X237220000Y-66730000D02*
X239030000Y-66730000D01*
X69220000Y-66730000D02*
X71030000Y-66730000D01*
X174220000Y-66730000D02*
X176030000Y-66730000D01*
X114220000Y-66730000D02*
X116030000Y-66730000D01*
X222220000Y-66730000D02*
X224030000Y-66730000D01*
X120220000Y-66730000D02*
X122030000Y-66730000D01*
X256700000Y-67270000D02*
X254570000Y-67270000D01*
X90220000Y-66730000D02*
X92030000Y-66730000D01*
X156220000Y-66730000D02*
X158030000Y-66730000D01*
X87220000Y-66730000D02*
X89030000Y-66730000D01*
X183220000Y-66730000D02*
X185030000Y-66730000D01*
X162220000Y-66730000D02*
X164030000Y-66730000D01*
X123220000Y-66730000D02*
X125030000Y-66730000D01*
X201220000Y-66730000D02*
X203030000Y-66730000D01*
X108220000Y-66730000D02*
X110030000Y-66730000D01*
X138220000Y-66730000D02*
X140030000Y-66730000D01*
X246220000Y-66730000D02*
X248030000Y-66730000D01*
X141220000Y-66730000D02*
X143030000Y-66730000D01*
X225220000Y-66730000D02*
X227030000Y-66730000D01*
X228220000Y-66730000D02*
X230030000Y-66730000D01*
X231220000Y-66730000D02*
X233030000Y-66730000D01*
X159220000Y-66730000D02*
X161030000Y-66730000D01*
X204220000Y-66730000D02*
X206030000Y-66730000D01*
X189220000Y-66730000D02*
X191030000Y-66730000D01*
X207220000Y-66730000D02*
X209030000Y-66730000D01*
X260090000Y-70390000D02*
X259150000Y-70390000D01*
X165220000Y-66730000D02*
X167030000Y-66730000D01*
X129220000Y-66730000D02*
X131030000Y-66730000D01*
X168220000Y-66730000D02*
X170030000Y-66730000D01*
X135220000Y-66730000D02*
X137030000Y-66730000D01*
X75220000Y-66730000D02*
X77030000Y-66730000D01*
X216220000Y-66730000D02*
X218030000Y-66730000D01*
X186220000Y-66730000D02*
X188030000Y-66730000D01*
X132220000Y-66730000D02*
X134030000Y-66730000D01*
X63220000Y-66730000D02*
X65030000Y-66730000D01*
X234220000Y-66730000D02*
X236030000Y-66730000D01*
X126220000Y-66730000D02*
X128030000Y-66730000D01*
X102220000Y-66730000D02*
X104030000Y-66730000D01*
X96220000Y-66730000D02*
X98030000Y-66730000D01*
X180220000Y-66730000D02*
X182030000Y-66730000D01*
X249220000Y-66730000D02*
X251030000Y-66730000D01*
X213220000Y-66730000D02*
X215030000Y-66730000D01*
X254570000Y-67270000D02*
X254030000Y-66730000D01*
X195220000Y-66730000D02*
X197030000Y-66730000D01*
X66220000Y-66730000D02*
X68030000Y-66730000D01*
X99220000Y-66730000D02*
X101030000Y-66730000D01*
X111220000Y-66730000D02*
X113030000Y-66730000D01*
X78220000Y-66730000D02*
X80030000Y-66730000D01*
X210220000Y-66730000D02*
X212030000Y-66730000D01*
X192220000Y-66730000D02*
X194030000Y-66730000D01*
X144220000Y-66730000D02*
X146030000Y-66730000D01*
X153220000Y-66730000D02*
X155030000Y-66730000D01*
X240220000Y-66730000D02*
X242030000Y-66730000D01*
X150220000Y-66730000D02*
X152030000Y-66730000D01*
X256780000Y-67350000D02*
X256700000Y-67270000D01*
X147220000Y-66730000D02*
X149030000Y-66730000D01*
X198220000Y-66730000D02*
X200030000Y-66730000D01*
X243220000Y-66730000D02*
X245030000Y-66730000D01*
X177220000Y-66730000D02*
X179030000Y-66730000D01*
X72220000Y-66730000D02*
X74030000Y-66730000D01*
X259150000Y-70390000D02*
X256780000Y-68020000D01*
X93220000Y-66730000D02*
X95030000Y-66730000D01*
X117220000Y-66730000D02*
X119030000Y-66730000D01*
X84220000Y-66730000D02*
X86030000Y-66730000D01*
X219220000Y-66730000D02*
X221030000Y-66730000D01*
X81220000Y-66730000D02*
X83030000Y-66730000D01*
X252220000Y-66730000D02*
X254030000Y-66730000D01*
X171220000Y-66730000D02*
X173030000Y-66730000D01*
X256780000Y-68020000D02*
X256780000Y-67350000D01*
X99220000Y-69730000D02*
X101030000Y-69730000D01*
X219220000Y-69730000D02*
X221030000Y-69730000D01*
X195220000Y-69730000D02*
X197030000Y-69730000D01*
X105220000Y-69730000D02*
X107030000Y-69730000D01*
X75220000Y-69730000D02*
X77030000Y-69730000D01*
X126220000Y-69730000D02*
X128030000Y-69730000D01*
X129220000Y-69730000D02*
X131030000Y-69730000D01*
X257160000Y-70270000D02*
X254570000Y-70270000D01*
X252220000Y-69730000D02*
X254030000Y-69730000D01*
X171220000Y-69730000D02*
X173030000Y-69730000D01*
X69220000Y-69730000D02*
X71030000Y-69730000D01*
X141220000Y-69730000D02*
X143030000Y-69730000D01*
X111220000Y-69730000D02*
X113030000Y-69730000D01*
X84220000Y-69730000D02*
X86030000Y-69730000D01*
X228220000Y-69730000D02*
X230030000Y-69730000D01*
X192220000Y-69730000D02*
X194030000Y-69730000D01*
X189220000Y-69730000D02*
X191030000Y-69730000D01*
X81220000Y-69730000D02*
X83030000Y-69730000D01*
X225220000Y-69730000D02*
X227030000Y-69730000D01*
X201220000Y-69730000D02*
X203030000Y-69730000D01*
X108220000Y-69730000D02*
X110030000Y-69730000D01*
X186220000Y-69730000D02*
X188030000Y-69730000D01*
X234220000Y-69730000D02*
X236030000Y-69730000D01*
X246220000Y-69730000D02*
X248030000Y-69730000D01*
X96220000Y-69730000D02*
X98030000Y-69730000D01*
X63220000Y-69730000D02*
X65030000Y-69730000D01*
X123220000Y-69730000D02*
X125030000Y-69730000D01*
X254570000Y-70270000D02*
X254030000Y-69730000D01*
X150220000Y-69730000D02*
X152030000Y-69730000D01*
X117220000Y-69730000D02*
X119030000Y-69730000D01*
X213220000Y-69730000D02*
X215030000Y-69730000D01*
X66220000Y-69730000D02*
X68030000Y-69730000D01*
X231220000Y-69730000D02*
X233030000Y-69730000D01*
X165220000Y-69730000D02*
X167030000Y-69730000D01*
X120220000Y-69730000D02*
X122030000Y-69730000D01*
X156220000Y-69730000D02*
X158030000Y-69730000D01*
X93220000Y-69730000D02*
X95030000Y-69730000D01*
X162220000Y-69730000D02*
X164030000Y-69730000D01*
X147220000Y-69730000D02*
X149030000Y-69730000D01*
X257780000Y-70890000D02*
X257160000Y-70270000D01*
X222220000Y-69730000D02*
X224030000Y-69730000D01*
X180220000Y-69730000D02*
X182030000Y-69730000D01*
X153220000Y-69730000D02*
X155030000Y-69730000D01*
X114220000Y-69730000D02*
X116030000Y-69730000D01*
X204220000Y-69730000D02*
X206030000Y-69730000D01*
X138220000Y-69730000D02*
X140030000Y-69730000D01*
X207220000Y-69730000D02*
X209030000Y-69730000D01*
X177220000Y-69730000D02*
X179030000Y-69730000D01*
X90220000Y-69730000D02*
X92030000Y-69730000D01*
X159220000Y-69730000D02*
X161030000Y-69730000D01*
X78220000Y-69730000D02*
X80030000Y-69730000D01*
X249220000Y-69730000D02*
X251030000Y-69730000D01*
X168220000Y-69730000D02*
X170030000Y-69730000D01*
X132220000Y-69730000D02*
X134030000Y-69730000D01*
X144220000Y-69730000D02*
X146030000Y-69730000D01*
X198220000Y-69730000D02*
X200030000Y-69730000D01*
X183220000Y-69730000D02*
X185030000Y-69730000D01*
X216220000Y-69730000D02*
X218030000Y-69730000D01*
X102220000Y-69730000D02*
X104030000Y-69730000D01*
X174220000Y-69730000D02*
X176030000Y-69730000D01*
X87220000Y-69730000D02*
X89030000Y-69730000D01*
X240220000Y-69730000D02*
X242030000Y-69730000D01*
X237220000Y-69730000D02*
X239030000Y-69730000D01*
X243220000Y-69730000D02*
X245030000Y-69730000D01*
X72220000Y-69730000D02*
X74030000Y-69730000D01*
X135220000Y-69730000D02*
X137030000Y-69730000D01*
X262990000Y-70890000D02*
X257780000Y-70890000D01*
X210220000Y-69730000D02*
X212030000Y-69730000D01*
X111220000Y-72730000D02*
X113030000Y-72730000D01*
X105220000Y-72730000D02*
X107030000Y-72730000D01*
X192220000Y-72730000D02*
X194030000Y-72730000D01*
X153220000Y-72730000D02*
X155030000Y-72730000D01*
X162220000Y-72730000D02*
X164030000Y-72730000D01*
X234220000Y-72730000D02*
X236030000Y-72730000D01*
X186220000Y-72730000D02*
X188030000Y-72730000D01*
X81220000Y-72730000D02*
X83030000Y-72730000D01*
X72220000Y-72730000D02*
X74030000Y-72730000D01*
X177220000Y-72730000D02*
X179030000Y-72730000D01*
X256520000Y-73160000D02*
X256300000Y-73380000D01*
X138220000Y-72730000D02*
X140030000Y-72730000D01*
X189220000Y-72730000D02*
X191030000Y-72730000D01*
X141220000Y-72730000D02*
X143030000Y-72730000D01*
X219220000Y-72730000D02*
X221030000Y-72730000D01*
X123220000Y-72730000D02*
X125030000Y-72730000D01*
X246220000Y-72730000D02*
X248030000Y-72730000D01*
X135220000Y-72730000D02*
X137030000Y-72730000D01*
X210220000Y-72730000D02*
X212030000Y-72730000D01*
X126220000Y-72730000D02*
X128030000Y-72730000D01*
X156220000Y-72730000D02*
X158030000Y-72730000D01*
X183220000Y-72730000D02*
X185030000Y-72730000D01*
X257560000Y-71390000D02*
X256520000Y-72430000D01*
X150220000Y-72730000D02*
X152030000Y-72730000D01*
X165220000Y-72730000D02*
X167030000Y-72730000D01*
X240220000Y-72730000D02*
X242030000Y-72730000D01*
X144220000Y-72730000D02*
X146030000Y-72730000D01*
X228220000Y-72730000D02*
X230030000Y-72730000D01*
X222220000Y-72730000D02*
X224030000Y-72730000D01*
X171220000Y-72730000D02*
X173030000Y-72730000D01*
X66220000Y-72730000D02*
X68030000Y-72730000D01*
X132220000Y-72730000D02*
X134030000Y-72730000D01*
X99220000Y-72730000D02*
X101030000Y-72730000D01*
X243220000Y-72730000D02*
X245030000Y-72730000D01*
X201220000Y-72730000D02*
X203030000Y-72730000D01*
X256300000Y-73380000D02*
X254680000Y-73380000D01*
X204220000Y-72730000D02*
X206030000Y-72730000D01*
X260090000Y-71390000D02*
X257560000Y-71390000D01*
X195220000Y-72730000D02*
X197030000Y-72730000D01*
X69220000Y-72730000D02*
X71030000Y-72730000D01*
X198220000Y-72730000D02*
X200030000Y-72730000D01*
X231220000Y-72730000D02*
X233030000Y-72730000D01*
X180220000Y-72730000D02*
X182030000Y-72730000D01*
X174220000Y-72730000D02*
X176030000Y-72730000D01*
X120220000Y-72730000D02*
X122030000Y-72730000D01*
X168220000Y-72730000D02*
X170030000Y-72730000D01*
X207220000Y-72730000D02*
X209030000Y-72730000D01*
X117220000Y-72730000D02*
X119030000Y-72730000D01*
X96220000Y-72730000D02*
X98030000Y-72730000D01*
X225220000Y-72730000D02*
X227030000Y-72730000D01*
X90220000Y-72730000D02*
X92030000Y-72730000D01*
X108220000Y-72730000D02*
X110030000Y-72730000D01*
X213220000Y-72730000D02*
X215030000Y-72730000D01*
X256520000Y-72430000D02*
X256520000Y-73160000D01*
X87220000Y-72730000D02*
X89030000Y-72730000D01*
X102220000Y-72730000D02*
X104030000Y-72730000D01*
X78220000Y-72730000D02*
X80030000Y-72730000D01*
X254680000Y-73380000D02*
X254030000Y-72730000D01*
X147220000Y-72730000D02*
X149030000Y-72730000D01*
X93220000Y-72730000D02*
X95030000Y-72730000D01*
X129220000Y-72730000D02*
X131030000Y-72730000D01*
X84220000Y-72730000D02*
X86030000Y-72730000D01*
X237220000Y-72730000D02*
X239030000Y-72730000D01*
X159220000Y-72730000D02*
X161030000Y-72730000D01*
X249220000Y-72730000D02*
X251030000Y-72730000D01*
X75220000Y-72730000D02*
X77030000Y-72730000D01*
X252220000Y-72730000D02*
X254030000Y-72730000D01*
X216220000Y-72730000D02*
X218030000Y-72730000D01*
X63220000Y-72730000D02*
X65030000Y-72730000D01*
X114220000Y-72730000D02*
X116030000Y-72730000D01*
X177220000Y-75730000D02*
X179030000Y-75730000D01*
X114220000Y-75730000D02*
X116030000Y-75730000D01*
X126220000Y-75730000D02*
X128030000Y-75730000D01*
X120220000Y-75730000D02*
X122030000Y-75730000D01*
X99220000Y-75730000D02*
X101030000Y-75730000D01*
X78220000Y-75730000D02*
X80030000Y-75730000D01*
X255990000Y-76470000D02*
X254770000Y-76470000D01*
X96220000Y-75730000D02*
X98030000Y-75730000D01*
X195220000Y-75730000D02*
X197030000Y-75730000D01*
X153220000Y-75730000D02*
X155030000Y-75730000D01*
X240220000Y-75730000D02*
X242030000Y-75730000D01*
X225220000Y-75730000D02*
X227030000Y-75730000D01*
X252220000Y-75730000D02*
X254030000Y-75730000D01*
X90220000Y-75730000D02*
X92030000Y-75730000D01*
X189220000Y-75730000D02*
X191030000Y-75730000D01*
X117220000Y-75730000D02*
X119030000Y-75730000D01*
X201220000Y-75730000D02*
X203030000Y-75730000D01*
X204220000Y-75730000D02*
X206030000Y-75730000D01*
X108220000Y-75730000D02*
X110030000Y-75730000D01*
X69220000Y-75730000D02*
X71030000Y-75730000D01*
X135220000Y-75730000D02*
X137030000Y-75730000D01*
X63220000Y-75730000D02*
X65030000Y-75730000D01*
X138220000Y-75730000D02*
X140030000Y-75730000D01*
X129220000Y-75730000D02*
X131030000Y-75730000D01*
X147220000Y-75730000D02*
X149030000Y-75730000D01*
X256680000Y-75780000D02*
X255990000Y-76470000D01*
X81220000Y-75730000D02*
X83030000Y-75730000D01*
X228220000Y-75730000D02*
X230030000Y-75730000D01*
X246220000Y-75730000D02*
X248030000Y-75730000D01*
X231220000Y-75730000D02*
X233030000Y-75730000D01*
X222220000Y-75730000D02*
X224030000Y-75730000D01*
X168220000Y-75730000D02*
X170030000Y-75730000D01*
X249220000Y-75730000D02*
X251030000Y-75730000D01*
X75220000Y-75730000D02*
X77030000Y-75730000D01*
X180220000Y-75730000D02*
X182030000Y-75730000D01*
X186220000Y-75730000D02*
X188030000Y-75730000D01*
X72220000Y-75730000D02*
X74030000Y-75730000D01*
X258920000Y-71890000D02*
X256680000Y-74130000D01*
X66220000Y-75730000D02*
X68030000Y-75730000D01*
X237220000Y-75730000D02*
X239030000Y-75730000D01*
X159220000Y-75730000D02*
X161030000Y-75730000D01*
X262990000Y-71890000D02*
X258920000Y-71890000D01*
X171220000Y-75730000D02*
X173030000Y-75730000D01*
X198220000Y-75730000D02*
X200030000Y-75730000D01*
X165220000Y-75730000D02*
X167030000Y-75730000D01*
X192220000Y-75730000D02*
X194030000Y-75730000D01*
X219220000Y-75730000D02*
X221030000Y-75730000D01*
X256680000Y-74130000D02*
X256680000Y-75780000D01*
X102220000Y-75730000D02*
X104030000Y-75730000D01*
X93220000Y-75730000D02*
X95030000Y-75730000D01*
X234220000Y-75730000D02*
X236030000Y-75730000D01*
X144220000Y-75730000D02*
X146030000Y-75730000D01*
X213220000Y-75730000D02*
X215030000Y-75730000D01*
X105220000Y-75730000D02*
X107030000Y-75730000D01*
X84220000Y-75730000D02*
X86030000Y-75730000D01*
X162220000Y-75730000D02*
X164030000Y-75730000D01*
X254770000Y-76470000D02*
X254030000Y-75730000D01*
X183220000Y-75730000D02*
X185030000Y-75730000D01*
X141220000Y-75730000D02*
X143030000Y-75730000D01*
X111220000Y-75730000D02*
X113030000Y-75730000D01*
X174220000Y-75730000D02*
X176030000Y-75730000D01*
X243220000Y-75730000D02*
X245030000Y-75730000D01*
X156220000Y-75730000D02*
X158030000Y-75730000D01*
X207220000Y-75730000D02*
X209030000Y-75730000D01*
X87220000Y-75730000D02*
X89030000Y-75730000D01*
X150220000Y-75730000D02*
X152030000Y-75730000D01*
X123220000Y-75730000D02*
X125030000Y-75730000D01*
X132220000Y-75730000D02*
X134030000Y-75730000D01*
X216220000Y-75730000D02*
X218030000Y-75730000D01*
X210220000Y-75730000D02*
X212030000Y-75730000D01*
X81220000Y-78730000D02*
X83030000Y-78730000D01*
X260090000Y-72390000D02*
X258779210Y-72390000D01*
X108220000Y-78730000D02*
X110030000Y-78730000D01*
X234220000Y-78730000D02*
X236030000Y-78730000D01*
X111220000Y-78730000D02*
X113030000Y-78730000D01*
X225220000Y-78730000D02*
X227030000Y-78730000D01*
X129220000Y-78730000D02*
X131030000Y-78730000D01*
X63220000Y-78730000D02*
X65030000Y-78730000D01*
X240220000Y-78730000D02*
X242030000Y-78730000D01*
X162220000Y-78730000D02*
X164030000Y-78730000D01*
X237220000Y-78730000D02*
X239030000Y-78730000D01*
X168220000Y-78730000D02*
X170030000Y-78730000D01*
X210220000Y-78730000D02*
X212030000Y-78730000D01*
X180220000Y-78730000D02*
X182030000Y-78730000D01*
X249220000Y-78730000D02*
X251030000Y-78730000D01*
X171220000Y-78730000D02*
X173030000Y-78730000D01*
X144220000Y-78730000D02*
X146030000Y-78730000D01*
X254730000Y-79430000D02*
X254030000Y-78730000D01*
X105220000Y-78730000D02*
X107030000Y-78730000D01*
X123220000Y-78730000D02*
X125030000Y-78730000D01*
X219220000Y-78730000D02*
X221030000Y-78730000D01*
X246220000Y-78730000D02*
X248030000Y-78730000D01*
X75220000Y-78730000D02*
X77030000Y-78730000D01*
X186220000Y-78730000D02*
X188030000Y-78730000D01*
X126220000Y-78730000D02*
X128030000Y-78730000D01*
X84220000Y-78730000D02*
X86030000Y-78730000D01*
X183220000Y-78730000D02*
X185030000Y-78730000D01*
X66220000Y-78730000D02*
X68030000Y-78730000D01*
X132220000Y-78730000D02*
X134030000Y-78730000D01*
X147220000Y-78730000D02*
X149030000Y-78730000D01*
X258779210Y-72390000D02*
X256934000Y-74235210D01*
X165220000Y-78730000D02*
X167030000Y-78730000D01*
X222220000Y-78730000D02*
X224030000Y-78730000D01*
X138220000Y-78730000D02*
X140030000Y-78730000D01*
X153220000Y-78730000D02*
X155030000Y-78730000D01*
X93220000Y-78730000D02*
X95030000Y-78730000D01*
X87220000Y-78730000D02*
X89030000Y-78730000D01*
X96220000Y-78730000D02*
X98030000Y-78730000D01*
X102220000Y-78730000D02*
X104030000Y-78730000D01*
X114220000Y-78730000D02*
X116030000Y-78730000D01*
X117220000Y-78730000D02*
X119030000Y-78730000D01*
X120220000Y-78730000D02*
X122030000Y-78730000D01*
X256934000Y-78666000D02*
X256170000Y-79430000D01*
X204220000Y-78730000D02*
X206030000Y-78730000D01*
X228220000Y-78730000D02*
X230030000Y-78730000D01*
X135220000Y-78730000D02*
X137030000Y-78730000D01*
X201220000Y-78730000D02*
X203030000Y-78730000D01*
X78220000Y-78730000D02*
X80030000Y-78730000D01*
X69220000Y-78730000D02*
X71030000Y-78730000D01*
X231220000Y-78730000D02*
X233030000Y-78730000D01*
X189220000Y-78730000D02*
X191030000Y-78730000D01*
X159220000Y-78730000D02*
X161030000Y-78730000D01*
X141220000Y-78730000D02*
X143030000Y-78730000D01*
X198220000Y-78730000D02*
X200030000Y-78730000D01*
X177220000Y-78730000D02*
X179030000Y-78730000D01*
X256934000Y-74235210D02*
X256934000Y-78666000D01*
X256170000Y-79430000D02*
X254730000Y-79430000D01*
X150220000Y-78730000D02*
X152030000Y-78730000D01*
X207220000Y-78730000D02*
X209030000Y-78730000D01*
X243220000Y-78730000D02*
X245030000Y-78730000D01*
X72220000Y-78730000D02*
X74030000Y-78730000D01*
X90220000Y-78730000D02*
X92030000Y-78730000D01*
X213220000Y-78730000D02*
X215030000Y-78730000D01*
X216220000Y-78730000D02*
X218030000Y-78730000D01*
X174220000Y-78730000D02*
X176030000Y-78730000D01*
X192220000Y-78730000D02*
X194030000Y-78730000D01*
X156220000Y-78730000D02*
X158030000Y-78730000D01*
X195220000Y-78730000D02*
X197030000Y-78730000D01*
X99220000Y-78730000D02*
X101030000Y-78730000D01*
X252220000Y-78730000D02*
X254030000Y-78730000D01*
X59318490Y-48096000D02*
X49720000Y-57694490D01*
X49720000Y-57694490D02*
X49720000Y-62981000D01*
X49720000Y-62981000D02*
X49818500Y-63079500D01*
X149526000Y-48096000D02*
X59318490Y-48096000D01*
X157130000Y-55700000D02*
X149526000Y-48096000D01*
X157130000Y-56880000D02*
X157130000Y-55700000D01*
X53190000Y-62070000D02*
X53490000Y-62070000D01*
X52180500Y-63079500D02*
X53190000Y-62070000D01*
X49818500Y-63079500D02*
X52180500Y-63079500D01*
X154130000Y-56880000D02*
X154130000Y-54970000D01*
X59423700Y-48350000D02*
X52499500Y-55274200D01*
X52499500Y-55274200D02*
X52499500Y-60660500D01*
X147510000Y-48350000D02*
X59423700Y-48350000D01*
X154130000Y-54970000D02*
X147510000Y-48350000D01*
X52499500Y-60660500D02*
X50590000Y-62570000D01*
X151150000Y-53210000D02*
X151150000Y-56320000D01*
X59528910Y-48604000D02*
X146544000Y-48604000D01*
X54404000Y-53728910D02*
X59528910Y-48604000D01*
X53490000Y-63070000D02*
X54320000Y-63070000D01*
X151130000Y-56880000D02*
X151130000Y-56340000D01*
X54404000Y-62986000D02*
X54404000Y-53728910D01*
X146544000Y-48604000D02*
X151150000Y-53210000D01*
X151130000Y-56340000D02*
X151150000Y-56320000D01*
X54320000Y-63070000D02*
X54404000Y-62986000D01*
X54658000Y-63132000D02*
X54220000Y-63570000D01*
X54658000Y-53834120D02*
X54658000Y-63132000D01*
X140578000Y-48858000D02*
X59634120Y-48858000D01*
X148130000Y-56880000D02*
X148130000Y-56410000D01*
X59634120Y-48858000D02*
X54658000Y-53834120D01*
X54220000Y-63570000D02*
X50590000Y-63570000D01*
X148130000Y-56410000D02*
X140578000Y-48858000D01*
X145130000Y-56880000D02*
X145130000Y-56320000D01*
X145130000Y-56320000D02*
X137922000Y-49112000D01*
X54912000Y-53939330D02*
X54912000Y-63738000D01*
X137922000Y-49112000D02*
X59739330Y-49112000D01*
X54912000Y-63738000D02*
X54580000Y-64070000D01*
X59739330Y-49112000D02*
X54912000Y-53939330D01*
X54580000Y-64070000D02*
X53490000Y-64070000D01*
X142130000Y-56390000D02*
X135106000Y-49366000D01*
X59844540Y-49366000D02*
X55166000Y-54044540D01*
X55166000Y-63954370D02*
X54550370Y-64570000D01*
X55166000Y-54044540D02*
X55166000Y-63954370D01*
X142130000Y-56880000D02*
X142130000Y-56390000D01*
X135106000Y-49366000D02*
X59844540Y-49366000D01*
X54550370Y-64570000D02*
X50590000Y-64570000D01*
X55420000Y-54149750D02*
X59949750Y-49620000D01*
X55420000Y-64059580D02*
X55420000Y-54149750D01*
X59949750Y-49620000D02*
X132510000Y-49620000D01*
X139130000Y-56880000D02*
X139130000Y-56240000D01*
X53490000Y-65070000D02*
X54409580Y-65070000D01*
X132510000Y-49620000D02*
X139130000Y-56240000D01*
X54409580Y-65070000D02*
X55420000Y-64059580D01*
X50590000Y-65570000D02*
X54268790Y-65570000D01*
X129904000Y-49874000D02*
X136130000Y-56100000D01*
X55674000Y-54254960D02*
X60054960Y-49874000D01*
X136130000Y-56880000D02*
X136130000Y-56100000D01*
X54268790Y-65570000D02*
X55674000Y-64164790D01*
X60054960Y-49874000D02*
X129904000Y-49874000D01*
X55674000Y-64164790D02*
X55674000Y-54254960D01*
X133130000Y-56340000D02*
X126918000Y-50128000D01*
X55928000Y-64270000D02*
X54128000Y-66070000D01*
X54128000Y-66070000D02*
X53490000Y-66070000D01*
X126918000Y-50128000D02*
X60160170Y-50128000D01*
X55928000Y-54360170D02*
X55928000Y-64270000D01*
X60160170Y-50128000D02*
X55928000Y-54360170D01*
X133130000Y-56880000D02*
X133130000Y-56340000D01*
X56140000Y-66570000D02*
X50590000Y-66570000D01*
X56182000Y-54465380D02*
X56182000Y-66528000D01*
X56182000Y-66528000D02*
X56140000Y-66570000D01*
X60265380Y-50382000D02*
X56182000Y-54465380D01*
X124092000Y-50382000D02*
X60265380Y-50382000D01*
X130130000Y-56420000D02*
X124092000Y-50382000D01*
X130130000Y-56880000D02*
X130130000Y-56420000D01*
X56436000Y-66829530D02*
X56436000Y-54570590D01*
X56195530Y-67070000D02*
X56436000Y-66829530D01*
X60370590Y-50636000D02*
X121476000Y-50636000D01*
X56436000Y-54570590D02*
X60370590Y-50636000D01*
X127130000Y-56880000D02*
X127130000Y-56290000D01*
X121476000Y-50636000D02*
X127130000Y-56290000D01*
X53490000Y-67070000D02*
X56195530Y-67070000D01*
X50590000Y-67570000D02*
X56054740Y-67570000D01*
X60475800Y-50890000D02*
X118910000Y-50890000D01*
X124130000Y-56880000D02*
X124130000Y-56110000D01*
X56054740Y-67570000D02*
X56690000Y-66934740D01*
X118910000Y-50890000D02*
X124130000Y-56110000D01*
X56690000Y-54675800D02*
X60475800Y-50890000D01*
X56690000Y-66934740D02*
X56690000Y-54675800D01*
X56944000Y-54781010D02*
X60581010Y-51144000D01*
X56944000Y-67039950D02*
X56944000Y-54781010D01*
X121130000Y-56880000D02*
X121130000Y-56050000D01*
X60581010Y-51144000D02*
X116304000Y-51144000D01*
X53490000Y-68070000D02*
X55913950Y-68070000D01*
X55913950Y-68070000D02*
X56944000Y-67039950D01*
X116304000Y-51144000D02*
X121170000Y-56010000D01*
X121130000Y-56050000D02*
X121170000Y-56010000D01*
X57198000Y-67145160D02*
X55773160Y-68570000D01*
X55773160Y-68570000D02*
X50590000Y-68570000D01*
X118130000Y-56310000D02*
X113218000Y-51398000D01*
X57198000Y-54886220D02*
X57198000Y-67145160D01*
X60686220Y-51398000D02*
X57198000Y-54886220D01*
X118130000Y-56880000D02*
X118130000Y-56310000D01*
X113218000Y-51398000D02*
X60686220Y-51398000D01*
X55632370Y-69070000D02*
X57452000Y-67250370D01*
X53490000Y-69070000D02*
X55632370Y-69070000D01*
X110762000Y-51652000D02*
X115130000Y-56020000D01*
X115130000Y-56880000D02*
X115130000Y-56020000D01*
X57452000Y-54991430D02*
X60791430Y-51652000D01*
X60791430Y-51652000D02*
X110762000Y-51652000D01*
X57452000Y-67250370D02*
X57452000Y-54991430D01*
X112130000Y-56880000D02*
X112130000Y-56080000D01*
X55491580Y-69570000D02*
X50590000Y-69570000D01*
X57706000Y-55096640D02*
X57706000Y-67355580D01*
X57706000Y-67355580D02*
X55491580Y-69570000D01*
X112130000Y-56080000D02*
X107956000Y-51906000D01*
X107956000Y-51906000D02*
X60896640Y-51906000D01*
X60896640Y-51906000D02*
X57706000Y-55096640D01*
X57960000Y-55201850D02*
X61001850Y-52160000D01*
X105150000Y-52160000D02*
X109130000Y-56140000D01*
X55350790Y-70070000D02*
X57960000Y-67460790D01*
X61001850Y-52160000D02*
X105150000Y-52160000D01*
X57960000Y-67460790D02*
X57960000Y-55201850D01*
X109130000Y-56880000D02*
X109130000Y-56140000D01*
X53490000Y-70070000D02*
X55350790Y-70070000D01*
X50590000Y-70570000D02*
X55210000Y-70570000D01*
X102324000Y-52414000D02*
X106130000Y-56220000D01*
X61107060Y-52414000D02*
X102324000Y-52414000D01*
X55210000Y-70570000D02*
X58214000Y-67566000D01*
X106130000Y-56880000D02*
X106130000Y-56220000D01*
X58214000Y-67566000D02*
X58214000Y-55307060D01*
X58214000Y-55307060D02*
X61107060Y-52414000D01*
X99528000Y-52668000D02*
X61212270Y-52668000D01*
X61212270Y-52668000D02*
X58468000Y-55412270D01*
X103130000Y-56880000D02*
X103130000Y-56270000D01*
X58180000Y-71070000D02*
X53490000Y-71070000D01*
X58468000Y-70782000D02*
X58180000Y-71070000D01*
X58468000Y-55412270D02*
X58468000Y-70782000D01*
X103130000Y-56270000D02*
X99528000Y-52668000D01*
X61317480Y-52922000D02*
X96762000Y-52922000D01*
X58722000Y-55517480D02*
X61317480Y-52922000D01*
X100130000Y-56880000D02*
X100130000Y-56150000D01*
X58332370Y-71570000D02*
X58722000Y-71180370D01*
X58722000Y-71180370D02*
X58722000Y-55517480D01*
X100130000Y-56150000D02*
X99785000Y-55805000D01*
X96762000Y-52922000D02*
X99645000Y-55805000D01*
X99785000Y-55805000D02*
X99645000Y-55805000D01*
X50590000Y-71570000D02*
X58332370Y-71570000D01*
X61422690Y-53176000D02*
X58976000Y-55622690D01*
X58976000Y-71285580D02*
X58191580Y-72070000D01*
X97130000Y-56880000D02*
X97130000Y-56130000D01*
X58976000Y-55622690D02*
X58976000Y-71285580D01*
X58191580Y-72070000D02*
X53490000Y-72070000D01*
X94176000Y-53176000D02*
X61422690Y-53176000D01*
X97130000Y-56130000D02*
X94176000Y-53176000D01*
X94130000Y-56880000D02*
X94130000Y-56150000D01*
X91410000Y-53430000D02*
X94130000Y-56150000D01*
X59230000Y-71390790D02*
X59230000Y-55727900D01*
X50590000Y-72570000D02*
X58050790Y-72570000D01*
X61527900Y-53430000D02*
X91410000Y-53430000D01*
X58050790Y-72570000D02*
X59230000Y-71390790D01*
X59230000Y-55727900D02*
X61527900Y-53430000D01*
X59484000Y-71496000D02*
X59484000Y-55833110D01*
X59484000Y-55833110D02*
X61633110Y-53684000D01*
X88574000Y-53684000D02*
X91130000Y-56240000D01*
X57910000Y-73070000D02*
X59484000Y-71496000D01*
X61633110Y-53684000D02*
X88574000Y-53684000D01*
X91130000Y-56880000D02*
X91130000Y-56240000D01*
X53490000Y-73070000D02*
X57910000Y-73070000D01*
X61738320Y-53938000D02*
X85838000Y-53938000D01*
X88130000Y-56880000D02*
X88130000Y-56230000D01*
X59738000Y-72808320D02*
X59738000Y-55938320D01*
X59738000Y-55938320D02*
X61738320Y-53938000D01*
X85838000Y-53938000D02*
X88130000Y-56230000D01*
X58976320Y-73570000D02*
X59738000Y-72808320D01*
X50590000Y-73570000D02*
X58976320Y-73570000D01*
X59992000Y-72913530D02*
X58835530Y-74070000D01*
X59992000Y-56043530D02*
X59992000Y-72913530D01*
X83162000Y-54192000D02*
X61843530Y-54192000D01*
X85130000Y-56160000D02*
X83162000Y-54192000D01*
X61843530Y-54192000D02*
X59992000Y-56043530D01*
X85130000Y-56880000D02*
X85130000Y-56160000D01*
X58835530Y-74070000D02*
X53490000Y-74070000D01*
X61948740Y-54446000D02*
X60246000Y-56148740D01*
X60246000Y-73018740D02*
X58694740Y-74570000D01*
X80316000Y-54446000D02*
X61948740Y-54446000D01*
X60246000Y-56148740D02*
X60246000Y-73018740D01*
X82130000Y-56880000D02*
X82130000Y-56260000D01*
X82130000Y-56260000D02*
X80316000Y-54446000D01*
X58694740Y-74570000D02*
X50590000Y-74570000D01*
X60500000Y-73123950D02*
X58553950Y-75070000D01*
X58553950Y-75070000D02*
X53490000Y-75070000D01*
X62053950Y-54700000D02*
X60500000Y-56253950D01*
X77520000Y-54700000D02*
X62053950Y-54700000D01*
X60500000Y-56253950D02*
X60500000Y-73123950D01*
X79130000Y-56310000D02*
X77520000Y-54700000D01*
X79130000Y-56880000D02*
X79130000Y-56310000D01*
X58413160Y-75570000D02*
X50590000Y-75570000D01*
X60754000Y-56359160D02*
X60754000Y-73229160D01*
X62159160Y-54954000D02*
X60754000Y-56359160D01*
X60754000Y-73229160D02*
X58413160Y-75570000D01*
X76130000Y-56880000D02*
X76130000Y-56210000D01*
X74874000Y-54954000D02*
X62159160Y-54954000D01*
X76130000Y-56210000D02*
X74874000Y-54954000D01*
X73130000Y-56880000D02*
X73130000Y-56280000D01*
X73130000Y-56280000D02*
X72058000Y-55208000D01*
X72058000Y-55208000D02*
X62264370Y-55208000D01*
X61008000Y-56464370D02*
X61008000Y-73334370D01*
X58272370Y-76070000D02*
X53490000Y-76070000D01*
X62264370Y-55208000D02*
X61008000Y-56464370D01*
X61008000Y-73334370D02*
X58272370Y-76070000D01*
X70130000Y-56880000D02*
X70130000Y-56400000D01*
X62369580Y-55462000D02*
X61262000Y-56569580D01*
X69192000Y-55462000D02*
X62369580Y-55462000D01*
X58131580Y-76570000D02*
X50590000Y-76570000D01*
X61262000Y-56569580D02*
X61262000Y-73439580D01*
X70130000Y-56400000D02*
X69192000Y-55462000D01*
X61262000Y-73439580D02*
X58131580Y-76570000D01*
X57990790Y-77070000D02*
X53490000Y-77070000D01*
X61516000Y-73544790D02*
X57990790Y-77070000D01*
X66456000Y-55716000D02*
X62474790Y-55716000D01*
X61516000Y-56674790D02*
X61516000Y-73544790D01*
X67130000Y-56880000D02*
X67130000Y-56390000D01*
X62474790Y-55716000D02*
X61516000Y-56674790D01*
X67130000Y-56390000D02*
X66456000Y-55716000D01*
X57850000Y-77570000D02*
X50590000Y-77570000D01*
X61770000Y-73650000D02*
X57850000Y-77570000D01*
X64130000Y-56240000D02*
X63860000Y-55970000D01*
X63860000Y-55970000D02*
X62580000Y-55970000D01*
X64130000Y-56880000D02*
X64130000Y-56240000D01*
X62580000Y-55970000D02*
X61770000Y-56780000D01*
X61770000Y-56780000D02*
X61770000Y-73650000D01*
M02*
