G04 #@! TF.GenerationSoftware,KiCad,Pcbnew,6.0.8+dfsg-1~bpo11+1*
G04 #@! TF.CreationDate,2023-05-30T17:00:38-04:00*
G04 #@! TF.ProjectId,10_padded_high_res_loose,31305f70-6164-4646-9564-5f686967685f,rev?*
G04 #@! TF.SameCoordinates,Original*
G04 #@! TF.FileFunction,Legend,Bot*
G04 #@! TF.FilePolarity,Positive*
%FSLAX46Y46*%
G04 Gerber Fmt 4.6, Leading zero omitted, Abs format (unit mm)*
G04 Created by KiCad (PCBNEW 6.0.8+dfsg-1~bpo11+1) date 2023-05-30 17:00:38*
%MOMM*%
%LPD*%
G01*
G04 APERTURE LIST*
%ADD10C,0.254000*%
%ADD11C,0.200000*%
%ADD12C,0.100000*%
%ADD13C,0.050000*%
%ADD14R,1.200000X0.600000*%
%ADD15R,1.400000X0.800000*%
G04 APERTURE END LIST*
D10*
X260994523Y-82846666D02*
X261901666Y-82846666D01*
X262083095Y-82786190D01*
X262204047Y-82665238D01*
X262264523Y-82483809D01*
X262264523Y-82362857D01*
X261115476Y-83390952D02*
X261055000Y-83451428D01*
X260994523Y-83572380D01*
X260994523Y-83874761D01*
X261055000Y-83995714D01*
X261115476Y-84056190D01*
X261236428Y-84116666D01*
X261357380Y-84116666D01*
X261538809Y-84056190D01*
X262264523Y-83330476D01*
X262264523Y-84116666D01*
X51404523Y-69396666D02*
X52311666Y-69396666D01*
X52493095Y-69336190D01*
X52614047Y-69215238D01*
X52674523Y-69033809D01*
X52674523Y-68912857D01*
X51827857Y-70545714D02*
X52674523Y-70545714D01*
X51344047Y-70243333D02*
X52251190Y-69940952D01*
X52251190Y-70727142D01*
X51339523Y-90986666D02*
X52246666Y-90986666D01*
X52428095Y-90926190D01*
X52549047Y-90805238D01*
X52609523Y-90623809D01*
X52609523Y-90502857D01*
X52609523Y-92256666D02*
X52609523Y-91530952D01*
X52609523Y-91893809D02*
X51339523Y-91893809D01*
X51520952Y-91772857D01*
X51641904Y-91651904D01*
X51702380Y-91530952D01*
X260914523Y-70196666D02*
X261821666Y-70196666D01*
X262003095Y-70136190D01*
X262124047Y-70015238D01*
X262184523Y-69833809D01*
X262184523Y-69712857D01*
X260914523Y-70680476D02*
X260914523Y-71466666D01*
X261398333Y-71043333D01*
X261398333Y-71224761D01*
X261458809Y-71345714D01*
X261519285Y-71406190D01*
X261640238Y-71466666D01*
X261942619Y-71466666D01*
X262063571Y-71406190D01*
X262124047Y-71345714D01*
X262184523Y-71224761D01*
X262184523Y-70861904D01*
X262124047Y-70740952D01*
X262063571Y-70680476D01*
D11*
X264240000Y-81490000D02*
X264240000Y-81490000D01*
X264040000Y-81490000D02*
X264040000Y-81490000D01*
X264040000Y-81490000D02*
G75*
G03*
X264240000Y-81490000I100000J0D01*
G01*
X264240000Y-81490000D02*
G75*
G03*
X264040000Y-81490000I-100000J0D01*
G01*
D12*
X49940000Y-60420000D02*
X53840000Y-60420000D01*
X49940000Y-79220000D02*
X53840000Y-79220000D01*
X54110000Y-100810000D02*
X50210000Y-100810000D01*
X54110000Y-82010000D02*
X50210000Y-82010000D01*
D11*
X263940000Y-68840000D02*
X263940000Y-68840000D01*
X264140000Y-68840000D02*
X264140000Y-68840000D01*
X264140000Y-68840000D02*
G75*
G03*
X263940000Y-68840000I-100000J0D01*
G01*
X263940000Y-68840000D02*
G75*
G03*
X264140000Y-68840000I100000J0D01*
G01*
%LPC*%
D13*
X62610000Y-56820000D02*
X254610000Y-56820000D01*
X254610000Y-56820000D02*
X254610000Y-104820000D01*
X254610000Y-104820000D02*
X62610000Y-104820000D01*
X62610000Y-104820000D02*
X62610000Y-56820000D01*
G36*
X62610000Y-56820000D02*
G01*
X254610000Y-56820000D01*
X254610000Y-104820000D01*
X62610000Y-104820000D01*
X62610000Y-56820000D01*
G37*
D14*
X263090000Y-81540000D03*
X260190000Y-82040000D03*
X263090000Y-82540000D03*
X260190000Y-83040000D03*
X263090000Y-83540000D03*
X260190000Y-84040000D03*
X263090000Y-84540000D03*
X260190000Y-85040000D03*
D15*
X262990000Y-80540000D03*
X260290000Y-80540000D03*
X262990000Y-86040000D03*
X260290000Y-86040000D03*
D14*
X53490000Y-62070000D03*
X50590000Y-62570000D03*
X53490000Y-63070000D03*
X50590000Y-63570000D03*
X53490000Y-64070000D03*
X50590000Y-64570000D03*
X53490000Y-65070000D03*
X50590000Y-65570000D03*
X53490000Y-66070000D03*
X50590000Y-66570000D03*
X53490000Y-67070000D03*
X50590000Y-67570000D03*
X53490000Y-68070000D03*
X50590000Y-68570000D03*
X53490000Y-69070000D03*
X50590000Y-69570000D03*
X53490000Y-70070000D03*
X50590000Y-70570000D03*
X53490000Y-71070000D03*
X50590000Y-71570000D03*
X53490000Y-72070000D03*
X50590000Y-72570000D03*
X53490000Y-73070000D03*
X50590000Y-73570000D03*
X53490000Y-74070000D03*
X50590000Y-74570000D03*
X53490000Y-75070000D03*
X50590000Y-75570000D03*
X53490000Y-76070000D03*
X50590000Y-76570000D03*
X53490000Y-77070000D03*
X50590000Y-77570000D03*
D15*
X53390000Y-61070000D03*
X50690000Y-61070000D03*
X53390000Y-78570000D03*
X50690000Y-78570000D03*
D14*
X50560000Y-99160000D03*
X53460000Y-98660000D03*
X50560000Y-98160000D03*
X53460000Y-97660000D03*
X50560000Y-97160000D03*
X53460000Y-96660000D03*
X50560000Y-96160000D03*
X53460000Y-95660000D03*
X50560000Y-95160000D03*
X53460000Y-94660000D03*
X50560000Y-94160000D03*
X53460000Y-93660000D03*
X50560000Y-93160000D03*
X53460000Y-92660000D03*
X50560000Y-92160000D03*
X53460000Y-91660000D03*
X50560000Y-91160000D03*
X53460000Y-90660000D03*
X50560000Y-90160000D03*
X53460000Y-89660000D03*
X50560000Y-89160000D03*
X53460000Y-88660000D03*
X50560000Y-88160000D03*
X53460000Y-87660000D03*
X50560000Y-87160000D03*
X53460000Y-86660000D03*
X50560000Y-86160000D03*
X53460000Y-85660000D03*
X50560000Y-85160000D03*
X53460000Y-84660000D03*
X50560000Y-84160000D03*
X53460000Y-83660000D03*
D15*
X50660000Y-100160000D03*
X53360000Y-100160000D03*
X50660000Y-82660000D03*
X53360000Y-82660000D03*
D14*
X262990000Y-68890000D03*
X260090000Y-69390000D03*
X262990000Y-69890000D03*
X260090000Y-70390000D03*
X262990000Y-70890000D03*
X260090000Y-71390000D03*
X262990000Y-71890000D03*
X260090000Y-72390000D03*
D15*
X262890000Y-67890000D03*
X260190000Y-67890000D03*
X262890000Y-73390000D03*
X260190000Y-73390000D03*
M02*
