%FSLAX45Y45*%
G04 Gerber Fmt 4.5, Leading zero omitted, Abs format (unit mm)*
G04 Created by KiCad (PCBNEW 6.0.2+dfsg-1~bpo11+1) date 2022-09-22 09:55:24*
%MOMM*%
%LPD*%
G01*
G04 APERTURE LIST*
%TA.AperFunction,Profile*%
%ADD10C,0.100000*%
%TD*%
%ADD11C,0.200000*%
G04 APERTURE END LIST*
D10*
X3205000Y-7102500D02*
X24802500Y-7102500D01*
X24802500Y-7102500D02*
X24802500Y-13662500D01*
X24802500Y-13662500D02*
X3205000Y-13662500D01*
X3205000Y-13662500D02*
X3205000Y-7102500D01*
D11*
X3457619Y-13977976D02*
X3457619Y-13777976D01*
X3505238Y-13777976D01*
X3533809Y-13787500D01*
X3552857Y-13806548D01*
X3562381Y-13825595D01*
X3571905Y-13863690D01*
X3571905Y-13892262D01*
X3562381Y-13930357D01*
X3552857Y-13949405D01*
X3533809Y-13968452D01*
X3505238Y-13977976D01*
X3457619Y-13977976D01*
X3657619Y-13977976D02*
X3657619Y-13844643D01*
X3657619Y-13882738D02*
X3667143Y-13863690D01*
X3676667Y-13854167D01*
X3695714Y-13844643D01*
X3714762Y-13844643D01*
X3781428Y-13977976D02*
X3781428Y-13844643D01*
X3781428Y-13777976D02*
X3771905Y-13787500D01*
X3781428Y-13797024D01*
X3790952Y-13787500D01*
X3781428Y-13777976D01*
X3781428Y-13797024D01*
X3905238Y-13977976D02*
X3886190Y-13968452D01*
X3876667Y-13949405D01*
X3876667Y-13777976D01*
X4010000Y-13977976D02*
X3990952Y-13968452D01*
X3981428Y-13949405D01*
X3981428Y-13777976D01*
X4238571Y-13977976D02*
X4238571Y-13777976D01*
X4305238Y-13920833D01*
X4371905Y-13777976D01*
X4371905Y-13977976D01*
X4552857Y-13977976D02*
X4552857Y-13873214D01*
X4543333Y-13854167D01*
X4524286Y-13844643D01*
X4486190Y-13844643D01*
X4467143Y-13854167D01*
X4552857Y-13968452D02*
X4533810Y-13977976D01*
X4486190Y-13977976D01*
X4467143Y-13968452D01*
X4457619Y-13949405D01*
X4457619Y-13930357D01*
X4467143Y-13911309D01*
X4486190Y-13901786D01*
X4533810Y-13901786D01*
X4552857Y-13892262D01*
X4648095Y-13844643D02*
X4648095Y-14044643D01*
X4648095Y-13854167D02*
X4667143Y-13844643D01*
X4705238Y-13844643D01*
X4724286Y-13854167D01*
X4733810Y-13863690D01*
X4743333Y-13882738D01*
X4743333Y-13939881D01*
X4733810Y-13958928D01*
X4724286Y-13968452D01*
X4705238Y-13977976D01*
X4667143Y-13977976D01*
X4648095Y-13968452D01*
X4829048Y-13958928D02*
X4838571Y-13968452D01*
X4829048Y-13977976D01*
X4819524Y-13968452D01*
X4829048Y-13958928D01*
X4829048Y-13977976D01*
X4829048Y-13854167D02*
X4838571Y-13863690D01*
X4829048Y-13873214D01*
X4819524Y-13863690D01*
X4829048Y-13854167D01*
X4829048Y-13873214D01*
M02*
