G04 #@! TF.GenerationSoftware,KiCad,Pcbnew,6.0.2+dfsg-1~bpo11+1*
G04 #@! TF.CreationDate,2022-09-22T09:54:57-04:00*
G04 #@! TF.ProjectId,led_matrix_8x32,6c65645f-6d61-4747-9269-785f38783332,rev?*
G04 #@! TF.SameCoordinates,Original*
G04 #@! TF.FileFunction,Paste,Top*
G04 #@! TF.FilePolarity,Positive*
%FSLAX46Y46*%
G04 Gerber Fmt 4.6, Leading zero omitted, Abs format (unit mm)*
G04 Created by KiCad (PCBNEW 6.0.2+dfsg-1~bpo11+1) date 2022-09-22 09:54:57*
%MOMM*%
%LPD*%
G01*
G04 APERTURE LIST*
G04 Aperture macros list*
%AMRoundRect*
0 Rectangle with rounded corners*
0 $1 Rounding radius*
0 $2 $3 $4 $5 $6 $7 $8 $9 X,Y pos of 4 corners*
0 Add a 4 corners polygon primitive as box body*
4,1,4,$2,$3,$4,$5,$6,$7,$8,$9,$2,$3,0*
0 Add four circle primitives for the rounded corners*
1,1,$1+$1,$2,$3*
1,1,$1+$1,$4,$5*
1,1,$1+$1,$6,$7*
1,1,$1+$1,$8,$9*
0 Add four rect primitives between the rounded corners*
20,1,$1+$1,$2,$3,$4,$5,0*
20,1,$1+$1,$4,$5,$6,$7,0*
20,1,$1+$1,$6,$7,$8,$9,0*
20,1,$1+$1,$8,$9,$2,$3,0*%
G04 Aperture macros list end*
%ADD10RoundRect,0.218750X-0.218750X-0.256250X0.218750X-0.256250X0.218750X0.256250X-0.218750X0.256250X0*%
%ADD11R,0.200000X0.850000*%
%ADD12R,0.850000X0.200000*%
%ADD13R,2.500000X2.500000*%
%ADD14RoundRect,0.225000X-0.225000X-0.250000X0.225000X-0.250000X0.225000X0.250000X-0.225000X0.250000X0*%
%ADD15RoundRect,0.200000X0.200000X0.275000X-0.200000X0.275000X-0.200000X-0.275000X0.200000X-0.275000X0*%
G04 APERTURE END LIST*
D10*
X102712500Y-113500000D03*
X104287500Y-113500000D03*
X102712500Y-100500000D03*
X104287500Y-100500000D03*
X115962500Y-107000000D03*
X117537500Y-107000000D03*
X156712500Y-120250000D03*
X158287500Y-120250000D03*
X149962500Y-120250000D03*
X151537500Y-120250000D03*
X183712500Y-94000000D03*
X185287500Y-94000000D03*
X48712500Y-107000000D03*
X50287500Y-107000000D03*
X156712500Y-107000000D03*
X158287500Y-107000000D03*
X196962500Y-107000000D03*
X198537500Y-107000000D03*
X48712500Y-94000000D03*
X50287500Y-94000000D03*
X82462500Y-120250000D03*
X84037500Y-120250000D03*
X35212500Y-113500000D03*
X36787500Y-113500000D03*
X210462500Y-120250000D03*
X212037500Y-120250000D03*
D11*
X84800000Y-131700000D03*
X85200000Y-131700000D03*
X85600000Y-131700000D03*
X86000000Y-131700000D03*
X86400000Y-131700000D03*
X86800000Y-131700000D03*
X87200000Y-131700000D03*
D12*
X87950000Y-130950000D03*
X87950000Y-130550000D03*
X87950000Y-130150000D03*
X87950000Y-129750000D03*
X87950000Y-129350000D03*
X87950000Y-128950000D03*
X87950000Y-128550000D03*
D11*
X87200000Y-127800000D03*
X86800000Y-127800000D03*
X86400000Y-127800000D03*
X86000000Y-127800000D03*
X85600000Y-127800000D03*
X85200000Y-127800000D03*
X84800000Y-127800000D03*
D12*
X84050000Y-128550000D03*
X84050000Y-128950000D03*
X84050000Y-129350000D03*
X84050000Y-129750000D03*
X84050000Y-130150000D03*
X84050000Y-130550000D03*
X84050000Y-130950000D03*
D13*
X86000000Y-129750000D03*
D10*
X82462500Y-107000000D03*
X84037500Y-107000000D03*
X82462500Y-100500000D03*
X84037500Y-100500000D03*
X176962500Y-80750000D03*
X178537500Y-80750000D03*
X244212500Y-113500000D03*
X245787500Y-113500000D03*
X89212500Y-87250000D03*
X90787500Y-87250000D03*
X109462500Y-80750000D03*
X111037500Y-80750000D03*
D14*
X84350000Y-133800000D03*
X85900000Y-133800000D03*
D10*
X109462500Y-107000000D03*
X111037500Y-107000000D03*
X62212500Y-80750000D03*
X63787500Y-80750000D03*
X102712500Y-87250000D03*
X104287500Y-87250000D03*
X35212500Y-74000000D03*
X36787500Y-74000000D03*
X149962500Y-87250000D03*
X151537500Y-87250000D03*
X203462500Y-94000000D03*
X205037500Y-94000000D03*
X176962500Y-120250000D03*
X178537500Y-120250000D03*
X237462500Y-113500000D03*
X239037500Y-113500000D03*
X203462500Y-87250000D03*
X205037500Y-87250000D03*
X69212500Y-94000000D03*
X70787500Y-94000000D03*
X62212500Y-74000000D03*
X63787500Y-74000000D03*
X89212500Y-94000000D03*
X90787500Y-94000000D03*
X122962500Y-74000000D03*
X124537500Y-74000000D03*
X190212500Y-120250000D03*
X191787500Y-120250000D03*
X136462500Y-80750000D03*
X138037500Y-80750000D03*
X109462500Y-87250000D03*
X111037500Y-87250000D03*
X62212500Y-107000000D03*
X63787500Y-107000000D03*
X115962500Y-120250000D03*
X117537500Y-120250000D03*
X190212500Y-107000000D03*
X191787500Y-107000000D03*
X69212500Y-80750000D03*
X70787500Y-80750000D03*
X136462500Y-94000000D03*
X138037500Y-94000000D03*
X82462500Y-87250000D03*
X84037500Y-87250000D03*
X35212500Y-94000000D03*
X36787500Y-94000000D03*
X244212500Y-100750000D03*
X245787500Y-100750000D03*
X122962500Y-107000000D03*
X124537500Y-107000000D03*
X156712500Y-113500000D03*
X158287500Y-113500000D03*
X210462500Y-87250000D03*
X212037500Y-87250000D03*
X196962500Y-113500000D03*
X198537500Y-113500000D03*
X244212500Y-80750000D03*
X245787500Y-80750000D03*
X82462500Y-80750000D03*
X84037500Y-80750000D03*
X48712500Y-80750000D03*
X50287500Y-80750000D03*
X230462500Y-87250000D03*
X232037500Y-87250000D03*
X176962500Y-74000000D03*
X178537500Y-74000000D03*
X129462500Y-87250000D03*
X131037500Y-87250000D03*
X75712500Y-87250000D03*
X77287500Y-87250000D03*
X176962500Y-87250000D03*
X178537500Y-87250000D03*
X237462500Y-94000000D03*
X239037500Y-94000000D03*
X230462500Y-80750000D03*
X232037500Y-80750000D03*
X156712500Y-80750000D03*
X158287500Y-80750000D03*
X115962500Y-94000000D03*
X117537500Y-94000000D03*
X196962500Y-80750000D03*
X198537500Y-80750000D03*
X223962500Y-120250000D03*
X225537500Y-120250000D03*
X203462500Y-120250000D03*
X205037500Y-120250000D03*
X122962500Y-87250000D03*
X124537500Y-87250000D03*
X230462500Y-100750000D03*
X232037500Y-100750000D03*
X237462500Y-74000000D03*
X239037500Y-74000000D03*
X170212500Y-100750000D03*
X171787500Y-100750000D03*
X55712500Y-80750000D03*
X57287500Y-80750000D03*
X35212500Y-80750000D03*
X36787500Y-80750000D03*
X142962500Y-80750000D03*
X144537500Y-80750000D03*
X95962500Y-107000000D03*
X97537500Y-107000000D03*
X237462500Y-87250000D03*
X239037500Y-87250000D03*
X129462500Y-74000000D03*
X131037500Y-74000000D03*
X42212500Y-94000000D03*
X43787500Y-94000000D03*
X142962500Y-107000000D03*
X144537500Y-107000000D03*
X142962500Y-120250000D03*
X144537500Y-120250000D03*
X217212500Y-120250000D03*
X218787500Y-120250000D03*
X163212500Y-74000000D03*
X164787500Y-74000000D03*
X203462500Y-100750000D03*
X205037500Y-100750000D03*
X223962500Y-74000000D03*
X225537500Y-74000000D03*
X176962500Y-100750000D03*
X178537500Y-100750000D03*
X149962500Y-94000000D03*
X151537500Y-94000000D03*
X244212500Y-74000000D03*
X245787500Y-74000000D03*
X183712500Y-87250000D03*
X185287500Y-87250000D03*
X129462500Y-80750000D03*
X131037500Y-80750000D03*
X55712500Y-107000000D03*
X57287500Y-107000000D03*
X35212500Y-100500000D03*
X36787500Y-100500000D03*
X183712500Y-120250000D03*
X185287500Y-120250000D03*
X75712500Y-120250000D03*
X77287500Y-120250000D03*
X244212500Y-87250000D03*
X245787500Y-87250000D03*
X136462500Y-100750000D03*
X138037500Y-100750000D03*
X176962500Y-107000000D03*
X178537500Y-107000000D03*
X75712500Y-113500000D03*
X77287500Y-113500000D03*
X156712500Y-94000000D03*
X158287500Y-94000000D03*
X217212500Y-80750000D03*
X218787500Y-80750000D03*
X69212500Y-107000000D03*
X70787500Y-107000000D03*
X115962500Y-87250000D03*
X117537500Y-87250000D03*
X170212500Y-80750000D03*
X171787500Y-80750000D03*
X203462500Y-107000000D03*
X205037500Y-107000000D03*
X244212500Y-94000000D03*
X245787500Y-94000000D03*
X109462500Y-74000000D03*
X111037500Y-74000000D03*
X237462500Y-120250000D03*
X239037500Y-120250000D03*
D14*
X191350000Y-133975000D03*
X192900000Y-133975000D03*
D10*
X129462500Y-113500000D03*
X131037500Y-113500000D03*
X190212500Y-113500000D03*
X191787500Y-113500000D03*
X129462500Y-100750000D03*
X131037500Y-100750000D03*
X183712500Y-80750000D03*
X185287500Y-80750000D03*
X163212500Y-113500000D03*
X164787500Y-113500000D03*
X75712500Y-74000000D03*
X77287500Y-74000000D03*
X183712500Y-100750000D03*
X185287500Y-100750000D03*
X223962500Y-94000000D03*
X225537500Y-94000000D03*
X210462500Y-100750000D03*
X212037500Y-100750000D03*
X82462500Y-113500000D03*
X84037500Y-113500000D03*
X223962500Y-107000000D03*
X225537500Y-107000000D03*
X109500000Y-94000000D03*
X111075000Y-94000000D03*
X95962500Y-94000000D03*
X97537500Y-94000000D03*
X196962500Y-74000000D03*
X198537500Y-74000000D03*
X42212500Y-100500000D03*
X43787500Y-100500000D03*
X102712500Y-94000000D03*
X104287500Y-94000000D03*
X109462500Y-120250000D03*
X111037500Y-120250000D03*
X62212500Y-94000000D03*
X63787500Y-94000000D03*
X48712500Y-120250000D03*
X50287500Y-120250000D03*
X62212500Y-120250000D03*
X63787500Y-120250000D03*
X230462500Y-107000000D03*
X232037500Y-107000000D03*
X82462500Y-94000000D03*
X84037500Y-94000000D03*
X190212500Y-74000000D03*
X191787500Y-74000000D03*
X109462500Y-113500000D03*
X111037500Y-113500000D03*
X42212500Y-87250000D03*
X43787500Y-87250000D03*
D15*
X89325000Y-133800000D03*
X87675000Y-133800000D03*
D10*
X183712500Y-113500000D03*
X185287500Y-113500000D03*
X136462500Y-87250000D03*
X138037500Y-87250000D03*
X35212500Y-107000000D03*
X36787500Y-107000000D03*
X129462500Y-94000000D03*
X131037500Y-94000000D03*
X115962500Y-74000000D03*
X117537500Y-74000000D03*
D15*
X196400000Y-133975000D03*
X194750000Y-133975000D03*
D10*
X244212500Y-107000000D03*
X245787500Y-107000000D03*
X89212500Y-120250000D03*
X90787500Y-120250000D03*
X55712500Y-113500000D03*
X57287500Y-113500000D03*
X136462500Y-120250000D03*
X138037500Y-120250000D03*
X163212500Y-87250000D03*
X164787500Y-87250000D03*
X42212500Y-80750000D03*
X43787500Y-80750000D03*
X142962500Y-100750000D03*
X144537500Y-100750000D03*
X42212500Y-74000000D03*
X43787500Y-74000000D03*
X62212500Y-113500000D03*
X63787500Y-113500000D03*
X223962500Y-87250000D03*
X225537500Y-87250000D03*
X102712500Y-107000000D03*
X104287500Y-107000000D03*
X42212500Y-120250000D03*
X43787500Y-120250000D03*
X122962500Y-113500000D03*
X124537500Y-113500000D03*
X89212500Y-107000000D03*
X90787500Y-107000000D03*
X95962500Y-74000000D03*
X97537500Y-74000000D03*
X102712500Y-80750000D03*
X104287500Y-80750000D03*
X35212500Y-87250000D03*
X36787500Y-87250000D03*
X203462500Y-113500000D03*
X205037500Y-113500000D03*
X203462500Y-74000000D03*
X205037500Y-74000000D03*
X210462500Y-94000000D03*
X212037500Y-94000000D03*
X156712500Y-100750000D03*
X158287500Y-100750000D03*
D11*
X192375000Y-131650000D03*
X192775000Y-131650000D03*
X193175000Y-131650000D03*
X193575000Y-131650000D03*
X193975000Y-131650000D03*
X194375000Y-131650000D03*
X194775000Y-131650000D03*
D12*
X195525000Y-130900000D03*
X195525000Y-130500000D03*
X195525000Y-130100000D03*
X195525000Y-129700000D03*
X195525000Y-129300000D03*
X195525000Y-128900000D03*
X195525000Y-128500000D03*
D11*
X194775000Y-127750000D03*
X194375000Y-127750000D03*
X193975000Y-127750000D03*
X193575000Y-127750000D03*
X193175000Y-127750000D03*
X192775000Y-127750000D03*
X192375000Y-127750000D03*
D12*
X191625000Y-128500000D03*
X191625000Y-128900000D03*
X191625000Y-129300000D03*
X191625000Y-129700000D03*
X191625000Y-130100000D03*
X191625000Y-130500000D03*
X191625000Y-130900000D03*
D13*
X193575000Y-129700000D03*
D10*
X210462500Y-107000000D03*
X212037500Y-107000000D03*
X190212500Y-87250000D03*
X191787500Y-87250000D03*
X48712500Y-74000000D03*
X50287500Y-74000000D03*
X42212500Y-107000000D03*
X43787500Y-107000000D03*
X142962500Y-113500000D03*
X144537500Y-113500000D03*
X136462500Y-74000000D03*
X138037500Y-74000000D03*
X176962500Y-113500000D03*
X178537500Y-113500000D03*
X210462500Y-113500000D03*
X212037500Y-113500000D03*
X217212500Y-74000000D03*
X218787500Y-74000000D03*
X196962500Y-94000000D03*
X198537500Y-94000000D03*
X69212500Y-120250000D03*
X70787500Y-120250000D03*
X142962500Y-94000000D03*
X144537500Y-94000000D03*
X149962500Y-74000000D03*
X151537500Y-74000000D03*
X95962500Y-113500000D03*
X97537500Y-113500000D03*
X122962500Y-100750000D03*
X124537500Y-100750000D03*
X217212500Y-107000000D03*
X218787500Y-107000000D03*
X75712500Y-94000000D03*
X77287500Y-94000000D03*
X149962500Y-100750000D03*
X151537500Y-100750000D03*
X230462500Y-113500000D03*
X232037500Y-113500000D03*
X163212500Y-94000000D03*
X164787500Y-94000000D03*
X190212500Y-94000000D03*
X191787500Y-94000000D03*
X217212500Y-100750000D03*
X218787500Y-100750000D03*
X163212500Y-107000000D03*
X164787500Y-107000000D03*
X48712500Y-100500000D03*
X50287500Y-100500000D03*
X190212500Y-80750000D03*
X191787500Y-80750000D03*
X149962500Y-107000000D03*
X151537500Y-107000000D03*
X55712500Y-74000000D03*
X57287500Y-74000000D03*
X170212500Y-74000000D03*
X171787500Y-74000000D03*
X183712500Y-74000000D03*
X185287500Y-74000000D03*
X89212500Y-80750000D03*
X90787500Y-80750000D03*
X237462500Y-107000000D03*
X239037500Y-107000000D03*
X48712500Y-113500000D03*
X50287500Y-113500000D03*
X230462500Y-74000000D03*
X232037500Y-74000000D03*
X75712500Y-80750000D03*
X77287500Y-80750000D03*
X55712500Y-120250000D03*
X57287500Y-120250000D03*
X210462500Y-80750000D03*
X212037500Y-80750000D03*
X115962500Y-113500000D03*
X117537500Y-113500000D03*
X55712500Y-100500000D03*
X57287500Y-100500000D03*
X156712500Y-87250000D03*
X158287500Y-87250000D03*
X210462500Y-74000000D03*
X212037500Y-74000000D03*
X122962500Y-94000000D03*
X124537500Y-94000000D03*
X217212500Y-94000000D03*
X218787500Y-94000000D03*
X69212500Y-87250000D03*
X70787500Y-87250000D03*
X217212500Y-87250000D03*
X218787500Y-87250000D03*
X170212500Y-107000000D03*
X171787500Y-107000000D03*
X115962500Y-80750000D03*
X117537500Y-80750000D03*
X170212500Y-87250000D03*
X171787500Y-87250000D03*
X170212500Y-94000000D03*
X171787500Y-94000000D03*
X237462500Y-100750000D03*
X239037500Y-100750000D03*
X89175000Y-74000000D03*
X90750000Y-74000000D03*
X190212500Y-100750000D03*
X191787500Y-100750000D03*
X109462500Y-100500000D03*
X111037500Y-100500000D03*
X176962500Y-94000000D03*
X178537500Y-94000000D03*
X115962500Y-100750000D03*
X117537500Y-100750000D03*
X163212500Y-80750000D03*
X164787500Y-80750000D03*
X55712500Y-87250000D03*
X57287500Y-87250000D03*
X42212500Y-113500000D03*
X43787500Y-113500000D03*
X183712500Y-107000000D03*
X185287500Y-107000000D03*
X237462500Y-80750000D03*
X239037500Y-80750000D03*
X95962500Y-120250000D03*
X97537500Y-120250000D03*
X129462500Y-107000000D03*
X131037500Y-107000000D03*
X196962500Y-87250000D03*
X198537500Y-87250000D03*
X170212500Y-113500000D03*
X171787500Y-113500000D03*
X75712500Y-107000000D03*
X77287500Y-107000000D03*
X163212500Y-100750000D03*
X164787500Y-100750000D03*
X89212500Y-113500000D03*
X90787500Y-113500000D03*
X82462500Y-74000000D03*
X84037500Y-74000000D03*
X122962500Y-120250000D03*
X124537500Y-120250000D03*
X136462500Y-113500000D03*
X138037500Y-113500000D03*
X95962500Y-80750000D03*
X97537500Y-80750000D03*
X196962500Y-120250000D03*
X198537500Y-120250000D03*
X156712500Y-74000000D03*
X158287500Y-74000000D03*
X69212500Y-100500000D03*
X70787500Y-100500000D03*
X142962500Y-87250000D03*
X144537500Y-87250000D03*
X223962500Y-100750000D03*
X225537500Y-100750000D03*
X217212500Y-113500000D03*
X218787500Y-113500000D03*
X149962500Y-113500000D03*
X151537500Y-113500000D03*
X142962500Y-74000000D03*
X144537500Y-74000000D03*
X149962500Y-80750000D03*
X151537500Y-80750000D03*
X69212500Y-113500000D03*
X70787500Y-113500000D03*
X163212500Y-120250000D03*
X164787500Y-120250000D03*
X223962500Y-113500000D03*
X225537500Y-113500000D03*
X136462500Y-107000000D03*
X138037500Y-107000000D03*
X170212500Y-120250000D03*
X171787500Y-120250000D03*
X89212500Y-100500000D03*
X90787500Y-100500000D03*
X35212500Y-120250000D03*
X36787500Y-120250000D03*
X62212500Y-87250000D03*
X63787500Y-87250000D03*
X102712500Y-120250000D03*
X104287500Y-120250000D03*
X203462500Y-80750000D03*
X205037500Y-80750000D03*
X69212500Y-74000000D03*
X70787500Y-74000000D03*
X196962500Y-100750000D03*
X198537500Y-100750000D03*
X55712500Y-94000000D03*
X57287500Y-94000000D03*
X95962500Y-100500000D03*
X97537500Y-100500000D03*
X48712500Y-87250000D03*
X50287500Y-87250000D03*
X62212500Y-100500000D03*
X63787500Y-100500000D03*
X230462500Y-94000000D03*
X232037500Y-94000000D03*
X102712500Y-74000000D03*
X104287500Y-74000000D03*
X122962500Y-80750000D03*
X124537500Y-80750000D03*
X244212500Y-120250000D03*
X245787500Y-120250000D03*
X75712500Y-100500000D03*
X77287500Y-100500000D03*
X230462500Y-120250000D03*
X232037500Y-120250000D03*
X129462500Y-120250000D03*
X131037500Y-120250000D03*
X223962500Y-80750000D03*
X225537500Y-80750000D03*
X95962500Y-87250000D03*
X97537500Y-87250000D03*
M02*
