M48
; DRILL file {KiCad 6.0.2+dfsg-1~bpo11+1} date Thu 22 Sep 2022 09:55:17 AM EDT
; FORMAT={-:-/ absolute / metric / decimal}
; #@! TF.CreationDate,2022-09-22T09:55:17-04:00
; #@! TF.GenerationSoftware,Kicad,Pcbnew,6.0.2+dfsg-1~bpo11+1
; #@! TF.FileFunction,Plated,1,2,PTH
FMAT,2
METRIC
; #@! TA.AperFunction,Plated,PTH,ViaDrill
T1C0.400
; #@! TA.AperFunction,Plated,PTH,ComponentDrill
T2C1.000
%
G90
G05
T1
X33.5Y-76.0
X33.5Y-83.0
X33.5Y-89.5
X33.5Y-96.25
X33.5Y-102.75
X33.5Y-109.25
X33.5Y-115.75
X33.5Y-122.5
X39.75Y-83.0
X39.75Y-89.5
X39.75Y-96.25
X39.75Y-102.75
X39.75Y-109.25
X39.75Y-115.5
X39.75Y-122.5
X39.8Y-73.2
X40.25Y-124.25
X46.7Y-79.95
X46.75Y-89.5
X46.75Y-96.25
X46.75Y-102.75
X46.75Y-109.25
X46.75Y-115.75
X46.75Y-122.5
X47.0Y-124.75
X53.5Y-75.0
X53.5Y-83.0
X53.5Y-86.5
X53.5Y-96.25
X53.5Y-102.75
X53.5Y-109.25
X53.5Y-115.75
X53.5Y-122.5
X53.75Y-125.25
X60.5Y-75.0
X60.5Y-83.0
X60.5Y-89.5
X60.5Y-93.25
X60.5Y-102.75
X60.5Y-109.25
X60.5Y-115.75
X60.5Y-122.5
X60.875Y-125.625
X67.0Y-75.0
X67.0Y-83.0
X67.0Y-89.5
X67.0Y-96.25
X67.0Y-99.75
X67.0Y-109.25
X67.0Y-115.75
X67.0Y-122.5
X67.375Y-126.125
X74.0Y-75.0
X74.0Y-83.0
X74.0Y-89.5
X74.0Y-96.25
X74.0Y-102.75
X74.0Y-106.25
X74.0Y-115.75
X74.0Y-122.5
X74.5Y-126.5
X79.075Y-126.925
X80.212Y-128.188
X80.5Y-75.0
X80.5Y-83.0
X80.5Y-89.5
X80.5Y-96.25
X80.5Y-102.75
X80.5Y-109.25
X80.5Y-112.75
X80.5Y-122.5
X85.0Y-122.525
X85.8Y-124.475
X86.825Y-125.675
X86.825Y-133.8
X87.25Y-76.25
X87.25Y-83.0
X87.25Y-89.5
X87.25Y-96.25
X87.25Y-102.75
X87.25Y-109.25
X87.25Y-115.75
X87.25Y-122.5
X92.975Y-129.7
X93.75Y-83.0
X93.75Y-89.5
X93.75Y-96.25
X93.75Y-102.75
X93.75Y-109.25
X93.75Y-115.75
X93.75Y-122.5
X93.75Y-126.7
X93.8Y-73.2
X94.85Y-128.7
X95.35Y-129.95
X100.45Y-126.225
X100.75Y-74.5
X100.75Y-80.0
X100.75Y-89.5
X100.75Y-96.25
X100.75Y-102.75
X100.75Y-109.25
X100.75Y-115.75
X100.75Y-122.5
X106.925Y-125.825
X107.25Y-74.5
X107.25Y-83.0
X107.25Y-86.5
X107.25Y-96.25
X107.25Y-102.75
X107.25Y-109.25
X107.25Y-115.75
X107.25Y-122.5
X114.05Y-125.3
X114.25Y-74.5
X114.25Y-83.0
X114.25Y-89.5
X114.25Y-93.25
X114.25Y-103.0
X114.25Y-109.25
X114.25Y-115.75
X114.25Y-122.5
X120.5Y-124.9
X120.75Y-74.5
X120.75Y-83.0
X120.75Y-89.5
X120.75Y-96.25
X120.75Y-100.0
X120.75Y-109.25
X120.75Y-115.75
X120.75Y-122.5
X127.425Y-124.425
X127.75Y-74.5
X127.75Y-83.0
X127.75Y-89.5
X127.75Y-96.25
X127.75Y-103.0
X127.75Y-106.25
X127.75Y-115.75
X127.75Y-122.5
X133.475Y-128.4
X133.975Y-123.95
X134.0Y-83.0
X134.05Y-130.0
X134.25Y-74.5
X134.25Y-89.5
X134.25Y-96.25
X134.25Y-103.0
X134.25Y-109.25
X134.25Y-112.75
X134.25Y-122.5
X136.025Y-129.15
X139.512Y-127.462
X141.0Y-76.25
X141.0Y-83.0
X141.0Y-89.5
X141.0Y-96.25
X141.0Y-103.0
X141.0Y-109.25
X141.0Y-115.75
X141.0Y-122.5
X141.05Y-130.0
X143.175Y-128.9
X147.75Y-83.0
X147.75Y-89.5
X147.75Y-96.25
X147.75Y-103.0
X147.75Y-109.25
X147.75Y-115.75
X147.75Y-122.5
X147.8Y-73.2
X148.35Y-124.025
X154.5Y-74.5
X154.5Y-80.0
X154.5Y-89.5
X154.5Y-96.25
X154.5Y-103.0
X154.5Y-109.25
X154.5Y-115.75
X154.5Y-122.5
X155.45Y-124.55
X161.25Y-74.5
X161.25Y-83.0
X161.25Y-96.25
X161.25Y-103.0
X161.25Y-109.25
X161.25Y-115.75
X161.25Y-122.5
X161.3Y-86.45
X161.9Y-124.85
X168.25Y-74.5
X168.25Y-83.0
X168.25Y-89.5
X168.25Y-93.25
X168.25Y-103.0
X168.25Y-109.25
X168.25Y-115.75
X168.25Y-122.5
X168.925Y-125.4
X174.75Y-74.5
X174.75Y-83.0
X174.75Y-89.5
X174.75Y-96.25
X174.75Y-100.0
X174.75Y-109.25
X174.75Y-115.75
X174.75Y-122.5
X175.525Y-125.775
X180.1Y-127.45
X181.5Y-74.5
X181.5Y-83.0
X181.5Y-89.5
X181.5Y-96.25
X181.5Y-103.0
X181.5Y-106.25
X181.5Y-115.75
X181.5Y-122.5
X181.838Y-126.287
X183.425Y-127.45
X185.725Y-127.4
X187.075Y-129.4
X188.25Y-74.5
X188.25Y-83.0
X188.25Y-89.5
X188.25Y-96.25
X188.25Y-103.0
X188.25Y-109.25
X188.25Y-112.75
X188.25Y-122.5
X189.7Y-133.9
X190.412Y-125.188
X191.675Y-125.725
X193.825Y-133.975
X193.95Y-124.55
X194.35Y-126.25
X195.0Y-76.25
X195.0Y-83.0
X195.0Y-89.5
X195.0Y-96.25
X195.0Y-103.0
X195.0Y-109.25
X195.0Y-115.75
X195.0Y-122.5
X200.075Y-130.625
X201.5Y-83.0
X201.5Y-89.5
X201.5Y-96.25
X201.5Y-103.0
X201.5Y-109.25
X201.5Y-115.75
X201.5Y-122.5
X201.55Y-73.2
X201.6Y-128.475
X207.825Y-126.475
X208.25Y-74.5
X208.25Y-80.0
X208.25Y-89.5
X208.25Y-96.25
X208.25Y-103.0
X208.25Y-109.25
X208.25Y-115.75
X208.25Y-122.5
X214.55Y-125.975
X215.0Y-74.5
X215.0Y-83.0
X215.0Y-86.5
X215.0Y-96.25
X215.0Y-103.0
X215.0Y-109.25
X215.0Y-115.75
X215.0Y-122.5
X221.675Y-125.575
X222.0Y-74.5
X222.0Y-83.0
X222.0Y-89.5
X222.0Y-93.25
X222.0Y-103.0
X222.0Y-109.25
X222.0Y-115.75
X222.0Y-122.5
X227.975Y-125.25
X228.5Y-74.5
X228.5Y-83.0
X228.5Y-89.5
X228.5Y-96.25
X228.5Y-100.0
X228.5Y-109.25
X228.5Y-115.75
X228.5Y-122.5
X234.762Y-124.688
X235.25Y-74.5
X235.25Y-83.0
X235.25Y-89.5
X235.25Y-96.25
X235.25Y-103.0
X235.25Y-106.25
X235.25Y-115.75
X235.25Y-122.5
X241.55Y-124.175
X242.0Y-74.5
X242.0Y-83.0
X242.0Y-89.5
X242.0Y-96.25
X242.0Y-103.0
X242.0Y-109.25
X242.0Y-112.75
X242.0Y-122.5
T2
X136.025Y-134.175
X138.565Y-134.175
X141.105Y-134.175
X143.645Y-134.175
T0
M30
