%FSLAX45Y45*%
G04 Gerber Fmt 4.5, Leading zero omitted, Abs format (unit mm)*
G04 Created by KiCad (PCBNEW 6.0.2+dfsg-1~bpo11+1) date 2022-09-22 09:55:24*
%MOMM*%
%LPD*%
G01*
G04 APERTURE LIST*
%TA.AperFunction,Profile*%
%ADD10C,0.100000*%
%TD*%
%ADD11C,0.200000*%
%ADD12C,0.040000*%
%ADD13C,0.100000*%
G04 APERTURE END LIST*
D10*
X3205000Y-7102500D02*
X24802500Y-7102500D01*
X24802500Y-7102500D02*
X24802500Y-13662500D01*
X24802500Y-13662500D02*
X3205000Y-13662500D01*
X3205000Y-13662500D02*
X3205000Y-7102500D01*
D11*
D12*
X3330000Y-7580000D02*
X3370000Y-7620000D01*
X3370000Y-7580000D02*
X3330000Y-7620000D01*
X3330000Y-8280000D02*
X3370000Y-8320000D01*
X3370000Y-8280000D02*
X3330000Y-8320000D01*
X3330000Y-8930000D02*
X3370000Y-8970000D01*
X3370000Y-8930000D02*
X3330000Y-8970000D01*
X3330000Y-9605000D02*
X3370000Y-9645000D01*
X3370000Y-9605000D02*
X3330000Y-9645000D01*
X3330000Y-10255000D02*
X3370000Y-10295000D01*
X3370000Y-10255000D02*
X3330000Y-10295000D01*
X3330000Y-10905000D02*
X3370000Y-10945000D01*
X3370000Y-10905000D02*
X3330000Y-10945000D01*
X3330000Y-11555000D02*
X3370000Y-11595000D01*
X3370000Y-11555000D02*
X3330000Y-11595000D01*
X3330000Y-12230000D02*
X3370000Y-12270000D01*
X3370000Y-12230000D02*
X3330000Y-12270000D01*
X3955000Y-8280000D02*
X3995000Y-8320000D01*
X3995000Y-8280000D02*
X3955000Y-8320000D01*
X3955000Y-8930000D02*
X3995000Y-8970000D01*
X3995000Y-8930000D02*
X3955000Y-8970000D01*
X3955000Y-9605000D02*
X3995000Y-9645000D01*
X3995000Y-9605000D02*
X3955000Y-9645000D01*
X3955000Y-10255000D02*
X3995000Y-10295000D01*
X3995000Y-10255000D02*
X3955000Y-10295000D01*
X3955000Y-10905000D02*
X3995000Y-10945000D01*
X3995000Y-10905000D02*
X3955000Y-10945000D01*
X3955000Y-11530000D02*
X3995000Y-11570000D01*
X3995000Y-11530000D02*
X3955000Y-11570000D01*
X3955000Y-12230000D02*
X3995000Y-12270000D01*
X3995000Y-12230000D02*
X3955000Y-12270000D01*
X3959952Y-7300048D02*
X3999952Y-7340048D01*
X3999952Y-7300048D02*
X3959952Y-7340048D01*
X4005000Y-12405000D02*
X4045000Y-12445000D01*
X4045000Y-12405000D02*
X4005000Y-12445000D01*
X4650048Y-7975048D02*
X4690048Y-8015048D01*
X4690048Y-7975048D02*
X4650048Y-8015048D01*
X4655000Y-8930000D02*
X4695000Y-8970000D01*
X4695000Y-8930000D02*
X4655000Y-8970000D01*
X4655000Y-9605000D02*
X4695000Y-9645000D01*
X4695000Y-9605000D02*
X4655000Y-9645000D01*
X4655000Y-10255000D02*
X4695000Y-10295000D01*
X4695000Y-10255000D02*
X4655000Y-10295000D01*
X4655000Y-10905000D02*
X4695000Y-10945000D01*
X4695000Y-10905000D02*
X4655000Y-10945000D01*
X4655000Y-11555000D02*
X4695000Y-11595000D01*
X4695000Y-11555000D02*
X4655000Y-11595000D01*
X4655000Y-12230000D02*
X4695000Y-12270000D01*
X4695000Y-12230000D02*
X4655000Y-12270000D01*
X4680000Y-12455000D02*
X4720000Y-12495000D01*
X4720000Y-12455000D02*
X4680000Y-12495000D01*
X5330000Y-7480000D02*
X5370000Y-7520000D01*
X5370000Y-7480000D02*
X5330000Y-7520000D01*
X5330000Y-8280000D02*
X5370000Y-8320000D01*
X5370000Y-8280000D02*
X5330000Y-8320000D01*
X5330000Y-8630000D02*
X5370000Y-8670000D01*
X5370000Y-8630000D02*
X5330000Y-8670000D01*
X5330000Y-9605000D02*
X5370000Y-9645000D01*
X5370000Y-9605000D02*
X5330000Y-9645000D01*
X5330000Y-10255000D02*
X5370000Y-10295000D01*
X5370000Y-10255000D02*
X5330000Y-10295000D01*
X5330000Y-10905000D02*
X5370000Y-10945000D01*
X5370000Y-10905000D02*
X5330000Y-10945000D01*
X5330000Y-11555000D02*
X5370000Y-11595000D01*
X5370000Y-11555000D02*
X5330000Y-11595000D01*
X5330000Y-12230000D02*
X5370000Y-12270000D01*
X5370000Y-12230000D02*
X5330000Y-12270000D01*
X5355000Y-12505000D02*
X5395000Y-12545000D01*
X5395000Y-12505000D02*
X5355000Y-12545000D01*
X6030000Y-7480000D02*
X6070000Y-7520000D01*
X6070000Y-7480000D02*
X6030000Y-7520000D01*
X6030000Y-8280000D02*
X6070000Y-8320000D01*
X6070000Y-8280000D02*
X6030000Y-8320000D01*
X6030000Y-8930000D02*
X6070000Y-8970000D01*
X6070000Y-8930000D02*
X6030000Y-8970000D01*
X6030000Y-9305000D02*
X6070000Y-9345000D01*
X6070000Y-9305000D02*
X6030000Y-9345000D01*
X6030000Y-10255000D02*
X6070000Y-10295000D01*
X6070000Y-10255000D02*
X6030000Y-10295000D01*
X6030000Y-10905000D02*
X6070000Y-10945000D01*
X6070000Y-10905000D02*
X6030000Y-10945000D01*
X6030000Y-11555000D02*
X6070000Y-11595000D01*
X6070000Y-11555000D02*
X6030000Y-11595000D01*
X6030000Y-12230000D02*
X6070000Y-12270000D01*
X6070000Y-12230000D02*
X6030000Y-12270000D01*
X6067500Y-12542500D02*
X6107500Y-12582500D01*
X6107500Y-12542500D02*
X6067500Y-12582500D01*
X6680000Y-7480000D02*
X6720000Y-7520000D01*
X6720000Y-7480000D02*
X6680000Y-7520000D01*
X6680000Y-8280000D02*
X6720000Y-8320000D01*
X6720000Y-8280000D02*
X6680000Y-8320000D01*
X6680000Y-8930000D02*
X6720000Y-8970000D01*
X6720000Y-8930000D02*
X6680000Y-8970000D01*
X6680000Y-9605000D02*
X6720000Y-9645000D01*
X6720000Y-9605000D02*
X6680000Y-9645000D01*
X6680000Y-9955000D02*
X6720000Y-9995000D01*
X6720000Y-9955000D02*
X6680000Y-9995000D01*
X6680000Y-10905000D02*
X6720000Y-10945000D01*
X6720000Y-10905000D02*
X6680000Y-10945000D01*
X6680000Y-11555000D02*
X6720000Y-11595000D01*
X6720000Y-11555000D02*
X6680000Y-11595000D01*
X6680000Y-12230000D02*
X6720000Y-12270000D01*
X6720000Y-12230000D02*
X6680000Y-12270000D01*
X6717500Y-12592500D02*
X6757500Y-12632500D01*
X6757500Y-12592500D02*
X6717500Y-12632500D01*
X7380000Y-7480000D02*
X7420000Y-7520000D01*
X7420000Y-7480000D02*
X7380000Y-7520000D01*
X7380000Y-8280000D02*
X7420000Y-8320000D01*
X7420000Y-8280000D02*
X7380000Y-8320000D01*
X7380000Y-8930000D02*
X7420000Y-8970000D01*
X7420000Y-8930000D02*
X7380000Y-8970000D01*
X7380000Y-9605000D02*
X7420000Y-9645000D01*
X7420000Y-9605000D02*
X7380000Y-9645000D01*
X7380000Y-10255000D02*
X7420000Y-10295000D01*
X7420000Y-10255000D02*
X7380000Y-10295000D01*
X7380000Y-10605000D02*
X7420000Y-10645000D01*
X7420000Y-10605000D02*
X7380000Y-10645000D01*
X7380000Y-11555000D02*
X7420000Y-11595000D01*
X7420000Y-11555000D02*
X7380000Y-11595000D01*
X7380000Y-12230000D02*
X7420000Y-12270000D01*
X7420000Y-12230000D02*
X7380000Y-12270000D01*
X7430000Y-12630000D02*
X7470000Y-12670000D01*
X7470000Y-12630000D02*
X7430000Y-12670000D01*
X7887500Y-12672500D02*
X7927500Y-12712500D01*
X7927500Y-12672500D02*
X7887500Y-12712500D01*
X8001250Y-12798750D02*
X8041250Y-12838750D01*
X8041250Y-12798750D02*
X8001250Y-12838750D01*
X8030000Y-7480000D02*
X8070000Y-7520000D01*
X8070000Y-7480000D02*
X8030000Y-7520000D01*
X8030000Y-8280000D02*
X8070000Y-8320000D01*
X8070000Y-8280000D02*
X8030000Y-8320000D01*
X8030000Y-8930000D02*
X8070000Y-8970000D01*
X8070000Y-8930000D02*
X8030000Y-8970000D01*
X8030000Y-9605000D02*
X8070000Y-9645000D01*
X8070000Y-9605000D02*
X8030000Y-9645000D01*
X8030000Y-10255000D02*
X8070000Y-10295000D01*
X8070000Y-10255000D02*
X8030000Y-10295000D01*
X8030000Y-10905000D02*
X8070000Y-10945000D01*
X8070000Y-10905000D02*
X8030000Y-10945000D01*
X8030000Y-11255000D02*
X8070000Y-11295000D01*
X8070000Y-11255000D02*
X8030000Y-11295000D01*
X8030000Y-12230000D02*
X8070000Y-12270000D01*
X8070000Y-12230000D02*
X8030000Y-12270000D01*
X8480000Y-12232500D02*
X8520000Y-12272500D01*
X8520000Y-12232500D02*
X8480000Y-12272500D01*
X8560000Y-12427500D02*
X8600000Y-12467500D01*
X8600000Y-12427500D02*
X8560000Y-12467500D01*
X8662500Y-12547500D02*
X8702500Y-12587500D01*
X8702500Y-12547500D02*
X8662500Y-12587500D01*
X8662500Y-13360000D02*
X8702500Y-13400000D01*
X8702500Y-13360000D02*
X8662500Y-13400000D01*
X8705000Y-7605000D02*
X8745000Y-7645000D01*
X8745000Y-7605000D02*
X8705000Y-7645000D01*
X8705000Y-8280000D02*
X8745000Y-8320000D01*
X8745000Y-8280000D02*
X8705000Y-8320000D01*
X8705000Y-8930000D02*
X8745000Y-8970000D01*
X8745000Y-8930000D02*
X8705000Y-8970000D01*
X8705000Y-9605000D02*
X8745000Y-9645000D01*
X8745000Y-9605000D02*
X8705000Y-9645000D01*
X8705000Y-10255000D02*
X8745000Y-10295000D01*
X8745000Y-10255000D02*
X8705000Y-10295000D01*
X8705000Y-10905000D02*
X8745000Y-10945000D01*
X8745000Y-10905000D02*
X8705000Y-10945000D01*
X8705000Y-11555000D02*
X8745000Y-11595000D01*
X8745000Y-11555000D02*
X8705000Y-11595000D01*
X8705000Y-12230000D02*
X8745000Y-12270000D01*
X8745000Y-12230000D02*
X8705000Y-12270000D01*
X9277500Y-12950000D02*
X9317500Y-12990000D01*
X9317500Y-12950000D02*
X9277500Y-12990000D01*
X9355000Y-8280000D02*
X9395000Y-8320000D01*
X9395000Y-8280000D02*
X9355000Y-8320000D01*
X9355000Y-8930000D02*
X9395000Y-8970000D01*
X9395000Y-8930000D02*
X9355000Y-8970000D01*
X9355000Y-9605000D02*
X9395000Y-9645000D01*
X9395000Y-9605000D02*
X9355000Y-9645000D01*
X9355000Y-10255000D02*
X9395000Y-10295000D01*
X9395000Y-10255000D02*
X9355000Y-10295000D01*
X9355000Y-10905000D02*
X9395000Y-10945000D01*
X9395000Y-10905000D02*
X9355000Y-10945000D01*
X9355000Y-11555000D02*
X9395000Y-11595000D01*
X9395000Y-11555000D02*
X9355000Y-11595000D01*
X9355000Y-12230000D02*
X9395000Y-12270000D01*
X9395000Y-12230000D02*
X9355000Y-12270000D01*
X9355000Y-12650000D02*
X9395000Y-12690000D01*
X9395000Y-12650000D02*
X9355000Y-12690000D01*
X9359952Y-7300048D02*
X9399952Y-7340048D01*
X9399952Y-7300048D02*
X9359952Y-7340048D01*
X9465000Y-12850000D02*
X9505000Y-12890000D01*
X9505000Y-12850000D02*
X9465000Y-12890000D01*
X9515000Y-12975000D02*
X9555000Y-13015000D01*
X9555000Y-12975000D02*
X9515000Y-13015000D01*
X10025000Y-12602500D02*
X10065000Y-12642500D01*
X10065000Y-12602500D02*
X10025000Y-12642500D01*
X10055000Y-7430000D02*
X10095000Y-7470000D01*
X10095000Y-7430000D02*
X10055000Y-7470000D01*
X10055000Y-7980000D02*
X10095000Y-8020000D01*
X10095000Y-7980000D02*
X10055000Y-8020000D01*
X10055000Y-8930000D02*
X10095000Y-8970000D01*
X10095000Y-8930000D02*
X10055000Y-8970000D01*
X10055000Y-9605000D02*
X10095000Y-9645000D01*
X10095000Y-9605000D02*
X10055000Y-9645000D01*
X10055000Y-10255000D02*
X10095000Y-10295000D01*
X10095000Y-10255000D02*
X10055000Y-10295000D01*
X10055000Y-10905000D02*
X10095000Y-10945000D01*
X10095000Y-10905000D02*
X10055000Y-10945000D01*
X10055000Y-11555000D02*
X10095000Y-11595000D01*
X10095000Y-11555000D02*
X10055000Y-11595000D01*
X10055000Y-12230000D02*
X10095000Y-12270000D01*
X10095000Y-12230000D02*
X10055000Y-12270000D01*
X10672500Y-12562500D02*
X10712500Y-12602500D01*
X10712500Y-12562500D02*
X10672500Y-12602500D01*
X10705000Y-7430000D02*
X10745000Y-7470000D01*
X10745000Y-7430000D02*
X10705000Y-7470000D01*
X10705000Y-8280000D02*
X10745000Y-8320000D01*
X10745000Y-8280000D02*
X10705000Y-8320000D01*
X10705000Y-8630000D02*
X10745000Y-8670000D01*
X10745000Y-8630000D02*
X10705000Y-8670000D01*
X10705000Y-9605000D02*
X10745000Y-9645000D01*
X10745000Y-9605000D02*
X10705000Y-9645000D01*
X10705000Y-10255000D02*
X10745000Y-10295000D01*
X10745000Y-10255000D02*
X10705000Y-10295000D01*
X10705000Y-10905000D02*
X10745000Y-10945000D01*
X10745000Y-10905000D02*
X10705000Y-10945000D01*
X10705000Y-11555000D02*
X10745000Y-11595000D01*
X10745000Y-11555000D02*
X10705000Y-11595000D01*
X10705000Y-12230000D02*
X10745000Y-12270000D01*
X10745000Y-12230000D02*
X10705000Y-12270000D01*
X11385000Y-12510000D02*
X11425000Y-12550000D01*
X11425000Y-12510000D02*
X11385000Y-12550000D01*
X11405000Y-7430000D02*
X11445000Y-7470000D01*
X11445000Y-7430000D02*
X11405000Y-7470000D01*
X11405000Y-8280000D02*
X11445000Y-8320000D01*
X11445000Y-8280000D02*
X11405000Y-8320000D01*
X11405000Y-8930000D02*
X11445000Y-8970000D01*
X11445000Y-8930000D02*
X11405000Y-8970000D01*
X11405000Y-9305000D02*
X11445000Y-9345000D01*
X11445000Y-9305000D02*
X11405000Y-9345000D01*
X11405000Y-10280000D02*
X11445000Y-10320000D01*
X11445000Y-10280000D02*
X11405000Y-10320000D01*
X11405000Y-10905000D02*
X11445000Y-10945000D01*
X11445000Y-10905000D02*
X11405000Y-10945000D01*
X11405000Y-11555000D02*
X11445000Y-11595000D01*
X11445000Y-11555000D02*
X11405000Y-11595000D01*
X11405000Y-12230000D02*
X11445000Y-12270000D01*
X11445000Y-12230000D02*
X11405000Y-12270000D01*
X12030000Y-12470000D02*
X12070000Y-12510000D01*
X12070000Y-12470000D02*
X12030000Y-12510000D01*
X12055000Y-7430000D02*
X12095000Y-7470000D01*
X12095000Y-7430000D02*
X12055000Y-7470000D01*
X12055000Y-8280000D02*
X12095000Y-8320000D01*
X12095000Y-8280000D02*
X12055000Y-8320000D01*
X12055000Y-8930000D02*
X12095000Y-8970000D01*
X12095000Y-8930000D02*
X12055000Y-8970000D01*
X12055000Y-9605000D02*
X12095000Y-9645000D01*
X12095000Y-9605000D02*
X12055000Y-9645000D01*
X12055000Y-9980000D02*
X12095000Y-10020000D01*
X12095000Y-9980000D02*
X12055000Y-10020000D01*
X12055000Y-10905000D02*
X12095000Y-10945000D01*
X12095000Y-10905000D02*
X12055000Y-10945000D01*
X12055000Y-11555000D02*
X12095000Y-11595000D01*
X12095000Y-11555000D02*
X12055000Y-11595000D01*
X12055000Y-12230000D02*
X12095000Y-12270000D01*
X12095000Y-12230000D02*
X12055000Y-12270000D01*
X12722500Y-12422500D02*
X12762500Y-12462500D01*
X12762500Y-12422500D02*
X12722500Y-12462500D01*
X12755000Y-7430000D02*
X12795000Y-7470000D01*
X12795000Y-7430000D02*
X12755000Y-7470000D01*
X12755000Y-8280000D02*
X12795000Y-8320000D01*
X12795000Y-8280000D02*
X12755000Y-8320000D01*
X12755000Y-8930000D02*
X12795000Y-8970000D01*
X12795000Y-8930000D02*
X12755000Y-8970000D01*
X12755000Y-9605000D02*
X12795000Y-9645000D01*
X12795000Y-9605000D02*
X12755000Y-9645000D01*
X12755000Y-10280000D02*
X12795000Y-10320000D01*
X12795000Y-10280000D02*
X12755000Y-10320000D01*
X12755000Y-10605000D02*
X12795000Y-10645000D01*
X12795000Y-10605000D02*
X12755000Y-10645000D01*
X12755000Y-11555000D02*
X12795000Y-11595000D01*
X12795000Y-11555000D02*
X12755000Y-11595000D01*
X12755000Y-12230000D02*
X12795000Y-12270000D01*
X12795000Y-12230000D02*
X12755000Y-12270000D01*
X13327500Y-12820000D02*
X13367500Y-12860000D01*
X13367500Y-12820000D02*
X13327500Y-12860000D01*
X13377500Y-12375000D02*
X13417500Y-12415000D01*
X13417500Y-12375000D02*
X13377500Y-12415000D01*
X13380000Y-8280000D02*
X13420000Y-8320000D01*
X13420000Y-8280000D02*
X13380000Y-8320000D01*
X13385000Y-12980000D02*
X13425000Y-13020000D01*
X13425000Y-12980000D02*
X13385000Y-13020000D01*
X13405000Y-7430000D02*
X13445000Y-7470000D01*
X13445000Y-7430000D02*
X13405000Y-7470000D01*
X13405000Y-8930000D02*
X13445000Y-8970000D01*
X13445000Y-8930000D02*
X13405000Y-8970000D01*
X13405000Y-9605000D02*
X13445000Y-9645000D01*
X13445000Y-9605000D02*
X13405000Y-9645000D01*
X13405000Y-10280000D02*
X13445000Y-10320000D01*
X13445000Y-10280000D02*
X13405000Y-10320000D01*
X13405000Y-10905000D02*
X13445000Y-10945000D01*
X13445000Y-10905000D02*
X13405000Y-10945000D01*
X13405000Y-11255000D02*
X13445000Y-11295000D01*
X13445000Y-11255000D02*
X13405000Y-11295000D01*
X13405000Y-12230000D02*
X13445000Y-12270000D01*
X13445000Y-12230000D02*
X13405000Y-12270000D01*
X13582500Y-12895000D02*
X13622500Y-12935000D01*
X13622500Y-12895000D02*
X13582500Y-12935000D01*
X13931250Y-12726250D02*
X13971250Y-12766250D01*
X13971250Y-12726250D02*
X13931250Y-12766250D01*
X14080000Y-7605000D02*
X14120000Y-7645000D01*
X14120000Y-7605000D02*
X14080000Y-7645000D01*
X14080000Y-8280000D02*
X14120000Y-8320000D01*
X14120000Y-8280000D02*
X14080000Y-8320000D01*
X14080000Y-8930000D02*
X14120000Y-8970000D01*
X14120000Y-8930000D02*
X14080000Y-8970000D01*
X14080000Y-9605000D02*
X14120000Y-9645000D01*
X14120000Y-9605000D02*
X14080000Y-9645000D01*
X14080000Y-10280000D02*
X14120000Y-10320000D01*
X14120000Y-10280000D02*
X14080000Y-10320000D01*
X14080000Y-10905000D02*
X14120000Y-10945000D01*
X14120000Y-10905000D02*
X14080000Y-10945000D01*
X14080000Y-11555000D02*
X14120000Y-11595000D01*
X14120000Y-11555000D02*
X14080000Y-11595000D01*
X14080000Y-12230000D02*
X14120000Y-12270000D01*
X14120000Y-12230000D02*
X14080000Y-12270000D01*
X14085000Y-12980000D02*
X14125000Y-13020000D01*
X14125000Y-12980000D02*
X14085000Y-13020000D01*
X14297500Y-12870000D02*
X14337500Y-12910000D01*
X14337500Y-12870000D02*
X14297500Y-12910000D01*
X14755000Y-8280000D02*
X14795000Y-8320000D01*
X14795000Y-8280000D02*
X14755000Y-8320000D01*
X14755000Y-8930000D02*
X14795000Y-8970000D01*
X14795000Y-8930000D02*
X14755000Y-8970000D01*
X14755000Y-9605000D02*
X14795000Y-9645000D01*
X14795000Y-9605000D02*
X14755000Y-9645000D01*
X14755000Y-10280000D02*
X14795000Y-10320000D01*
X14795000Y-10280000D02*
X14755000Y-10320000D01*
X14755000Y-10905000D02*
X14795000Y-10945000D01*
X14795000Y-10905000D02*
X14755000Y-10945000D01*
X14755000Y-11555000D02*
X14795000Y-11595000D01*
X14795000Y-11555000D02*
X14755000Y-11595000D01*
X14755000Y-12230000D02*
X14795000Y-12270000D01*
X14795000Y-12230000D02*
X14755000Y-12270000D01*
X14759952Y-7300048D02*
X14799952Y-7340048D01*
X14799952Y-7300048D02*
X14759952Y-7340048D01*
X14815000Y-12382500D02*
X14855000Y-12422500D01*
X14855000Y-12382500D02*
X14815000Y-12422500D01*
X15430000Y-7430000D02*
X15470000Y-7470000D01*
X15470000Y-7430000D02*
X15430000Y-7470000D01*
X15430000Y-7980000D02*
X15470000Y-8020000D01*
X15470000Y-7980000D02*
X15430000Y-8020000D01*
X15430000Y-8930000D02*
X15470000Y-8970000D01*
X15470000Y-8930000D02*
X15430000Y-8970000D01*
X15430000Y-9605000D02*
X15470000Y-9645000D01*
X15470000Y-9605000D02*
X15430000Y-9645000D01*
X15430000Y-10280000D02*
X15470000Y-10320000D01*
X15470000Y-10280000D02*
X15430000Y-10320000D01*
X15430000Y-10905000D02*
X15470000Y-10945000D01*
X15470000Y-10905000D02*
X15430000Y-10945000D01*
X15430000Y-11555000D02*
X15470000Y-11595000D01*
X15470000Y-11555000D02*
X15430000Y-11595000D01*
X15430000Y-12230000D02*
X15470000Y-12270000D01*
X15470000Y-12230000D02*
X15430000Y-12270000D01*
X15525000Y-12435000D02*
X15565000Y-12475000D01*
X15565000Y-12435000D02*
X15525000Y-12475000D01*
X16105000Y-7430000D02*
X16145000Y-7470000D01*
X16145000Y-7430000D02*
X16105000Y-7470000D01*
X16105000Y-8280000D02*
X16145000Y-8320000D01*
X16145000Y-8280000D02*
X16105000Y-8320000D01*
X16105000Y-9605000D02*
X16145000Y-9645000D01*
X16145000Y-9605000D02*
X16105000Y-9645000D01*
X16105000Y-10280000D02*
X16145000Y-10320000D01*
X16145000Y-10280000D02*
X16105000Y-10320000D01*
X16105000Y-10905000D02*
X16145000Y-10945000D01*
X16145000Y-10905000D02*
X16105000Y-10945000D01*
X16105000Y-11555000D02*
X16145000Y-11595000D01*
X16145000Y-11555000D02*
X16105000Y-11595000D01*
X16105000Y-12230000D02*
X16145000Y-12270000D01*
X16145000Y-12230000D02*
X16105000Y-12270000D01*
X16109952Y-8625048D02*
X16149952Y-8665048D01*
X16149952Y-8625048D02*
X16109952Y-8665048D01*
X16170000Y-12465000D02*
X16210000Y-12505000D01*
X16210000Y-12465000D02*
X16170000Y-12505000D01*
X16805000Y-7430000D02*
X16845000Y-7470000D01*
X16845000Y-7430000D02*
X16805000Y-7470000D01*
X16805000Y-8280000D02*
X16845000Y-8320000D01*
X16845000Y-8280000D02*
X16805000Y-8320000D01*
X16805000Y-8930000D02*
X16845000Y-8970000D01*
X16845000Y-8930000D02*
X16805000Y-8970000D01*
X16805000Y-9305000D02*
X16845000Y-9345000D01*
X16845000Y-9305000D02*
X16805000Y-9345000D01*
X16805000Y-10280000D02*
X16845000Y-10320000D01*
X16845000Y-10280000D02*
X16805000Y-10320000D01*
X16805000Y-10905000D02*
X16845000Y-10945000D01*
X16845000Y-10905000D02*
X16805000Y-10945000D01*
X16805000Y-11555000D02*
X16845000Y-11595000D01*
X16845000Y-11555000D02*
X16805000Y-11595000D01*
X16805000Y-12230000D02*
X16845000Y-12270000D01*
X16845000Y-12230000D02*
X16805000Y-12270000D01*
X16872500Y-12520000D02*
X16912500Y-12560000D01*
X16912500Y-12520000D02*
X16872500Y-12560000D01*
X17455000Y-7430000D02*
X17495000Y-7470000D01*
X17495000Y-7430000D02*
X17455000Y-7470000D01*
X17455000Y-8280000D02*
X17495000Y-8320000D01*
X17495000Y-8280000D02*
X17455000Y-8320000D01*
X17455000Y-8930000D02*
X17495000Y-8970000D01*
X17495000Y-8930000D02*
X17455000Y-8970000D01*
X17455000Y-9605000D02*
X17495000Y-9645000D01*
X17495000Y-9605000D02*
X17455000Y-9645000D01*
X17455000Y-9980000D02*
X17495000Y-10020000D01*
X17495000Y-9980000D02*
X17455000Y-10020000D01*
X17455000Y-10905000D02*
X17495000Y-10945000D01*
X17495000Y-10905000D02*
X17455000Y-10945000D01*
X17455000Y-11555000D02*
X17495000Y-11595000D01*
X17495000Y-11555000D02*
X17455000Y-11595000D01*
X17455000Y-12230000D02*
X17495000Y-12270000D01*
X17495000Y-12230000D02*
X17455000Y-12270000D01*
X17532500Y-12557500D02*
X17572500Y-12597500D01*
X17572500Y-12557500D02*
X17532500Y-12597500D01*
X17990000Y-12725000D02*
X18030000Y-12765000D01*
X18030000Y-12725000D02*
X17990000Y-12765000D01*
X18130000Y-7430000D02*
X18170000Y-7470000D01*
X18170000Y-7430000D02*
X18130000Y-7470000D01*
X18130000Y-8280000D02*
X18170000Y-8320000D01*
X18170000Y-8280000D02*
X18130000Y-8320000D01*
X18130000Y-8930000D02*
X18170000Y-8970000D01*
X18170000Y-8930000D02*
X18130000Y-8970000D01*
X18130000Y-9605000D02*
X18170000Y-9645000D01*
X18170000Y-9605000D02*
X18130000Y-9645000D01*
X18130000Y-10280000D02*
X18170000Y-10320000D01*
X18170000Y-10280000D02*
X18130000Y-10320000D01*
X18130000Y-10605000D02*
X18170000Y-10645000D01*
X18170000Y-10605000D02*
X18130000Y-10645000D01*
X18130000Y-11555000D02*
X18170000Y-11595000D01*
X18170000Y-11555000D02*
X18130000Y-11595000D01*
X18130000Y-12230000D02*
X18170000Y-12270000D01*
X18170000Y-12230000D02*
X18130000Y-12270000D01*
X18163750Y-12608750D02*
X18203750Y-12648750D01*
X18203750Y-12608750D02*
X18163750Y-12648750D01*
X18322500Y-12725000D02*
X18362500Y-12765000D01*
X18362500Y-12725000D02*
X18322500Y-12765000D01*
X18552500Y-12720000D02*
X18592500Y-12760000D01*
X18592500Y-12720000D02*
X18552500Y-12760000D01*
X18687500Y-12920000D02*
X18727500Y-12960000D01*
X18727500Y-12920000D02*
X18687500Y-12960000D01*
X18805000Y-7430000D02*
X18845000Y-7470000D01*
X18845000Y-7430000D02*
X18805000Y-7470000D01*
X18805000Y-8280000D02*
X18845000Y-8320000D01*
X18845000Y-8280000D02*
X18805000Y-8320000D01*
X18805000Y-8930000D02*
X18845000Y-8970000D01*
X18845000Y-8930000D02*
X18805000Y-8970000D01*
X18805000Y-9605000D02*
X18845000Y-9645000D01*
X18845000Y-9605000D02*
X18805000Y-9645000D01*
X18805000Y-10280000D02*
X18845000Y-10320000D01*
X18845000Y-10280000D02*
X18805000Y-10320000D01*
X18805000Y-10905000D02*
X18845000Y-10945000D01*
X18845000Y-10905000D02*
X18805000Y-10945000D01*
X18805000Y-11255000D02*
X18845000Y-11295000D01*
X18845000Y-11255000D02*
X18805000Y-11295000D01*
X18805000Y-12230000D02*
X18845000Y-12270000D01*
X18845000Y-12230000D02*
X18805000Y-12270000D01*
X18950000Y-13370000D02*
X18990000Y-13410000D01*
X18990000Y-13370000D02*
X18950000Y-13410000D01*
X19021250Y-12498750D02*
X19061250Y-12538750D01*
X19061250Y-12498750D02*
X19021250Y-12538750D01*
X19147500Y-12552500D02*
X19187500Y-12592500D01*
X19187500Y-12552500D02*
X19147500Y-12592500D01*
X19362500Y-13377500D02*
X19402500Y-13417500D01*
X19402500Y-13377500D02*
X19362500Y-13417500D01*
X19375000Y-12435000D02*
X19415000Y-12475000D01*
X19415000Y-12435000D02*
X19375000Y-12475000D01*
X19415000Y-12605000D02*
X19455000Y-12645000D01*
X19455000Y-12605000D02*
X19415000Y-12645000D01*
X19480000Y-7605000D02*
X19520000Y-7645000D01*
X19520000Y-7605000D02*
X19480000Y-7645000D01*
X19480000Y-8280000D02*
X19520000Y-8320000D01*
X19520000Y-8280000D02*
X19480000Y-8320000D01*
X19480000Y-8930000D02*
X19520000Y-8970000D01*
X19520000Y-8930000D02*
X19480000Y-8970000D01*
X19480000Y-9605000D02*
X19520000Y-9645000D01*
X19520000Y-9605000D02*
X19480000Y-9645000D01*
X19480000Y-10280000D02*
X19520000Y-10320000D01*
X19520000Y-10280000D02*
X19480000Y-10320000D01*
X19480000Y-10905000D02*
X19520000Y-10945000D01*
X19520000Y-10905000D02*
X19480000Y-10945000D01*
X19480000Y-11555000D02*
X19520000Y-11595000D01*
X19520000Y-11555000D02*
X19480000Y-11595000D01*
X19480000Y-12230000D02*
X19520000Y-12270000D01*
X19520000Y-12230000D02*
X19480000Y-12270000D01*
X19987500Y-13042500D02*
X20027500Y-13082500D01*
X20027500Y-13042500D02*
X19987500Y-13082500D01*
X20130000Y-8280000D02*
X20170000Y-8320000D01*
X20170000Y-8280000D02*
X20130000Y-8320000D01*
X20130000Y-8930000D02*
X20170000Y-8970000D01*
X20170000Y-8930000D02*
X20130000Y-8970000D01*
X20130000Y-9605000D02*
X20170000Y-9645000D01*
X20170000Y-9605000D02*
X20130000Y-9645000D01*
X20130000Y-10280000D02*
X20170000Y-10320000D01*
X20170000Y-10280000D02*
X20130000Y-10320000D01*
X20130000Y-10905000D02*
X20170000Y-10945000D01*
X20170000Y-10905000D02*
X20130000Y-10945000D01*
X20130000Y-11555000D02*
X20170000Y-11595000D01*
X20170000Y-11555000D02*
X20130000Y-11595000D01*
X20130000Y-12230000D02*
X20170000Y-12270000D01*
X20170000Y-12230000D02*
X20130000Y-12270000D01*
X20134952Y-7300048D02*
X20174952Y-7340048D01*
X20174952Y-7300048D02*
X20134952Y-7340048D01*
X20140000Y-12827500D02*
X20180000Y-12867500D01*
X20180000Y-12827500D02*
X20140000Y-12867500D01*
X20762500Y-12627500D02*
X20802500Y-12667500D01*
X20802500Y-12627500D02*
X20762500Y-12667500D01*
X20805000Y-7430000D02*
X20845000Y-7470000D01*
X20845000Y-7430000D02*
X20805000Y-7470000D01*
X20805000Y-7980000D02*
X20845000Y-8020000D01*
X20845000Y-7980000D02*
X20805000Y-8020000D01*
X20805000Y-8930000D02*
X20845000Y-8970000D01*
X20845000Y-8930000D02*
X20805000Y-8970000D01*
X20805000Y-9605000D02*
X20845000Y-9645000D01*
X20845000Y-9605000D02*
X20805000Y-9645000D01*
X20805000Y-10280000D02*
X20845000Y-10320000D01*
X20845000Y-10280000D02*
X20805000Y-10320000D01*
X20805000Y-10905000D02*
X20845000Y-10945000D01*
X20845000Y-10905000D02*
X20805000Y-10945000D01*
X20805000Y-11555000D02*
X20845000Y-11595000D01*
X20845000Y-11555000D02*
X20805000Y-11595000D01*
X20805000Y-12230000D02*
X20845000Y-12270000D01*
X20845000Y-12230000D02*
X20805000Y-12270000D01*
X21435000Y-12577500D02*
X21475000Y-12617500D01*
X21475000Y-12577500D02*
X21435000Y-12617500D01*
X21480000Y-7430000D02*
X21520000Y-7470000D01*
X21520000Y-7430000D02*
X21480000Y-7470000D01*
X21480000Y-8280000D02*
X21520000Y-8320000D01*
X21520000Y-8280000D02*
X21480000Y-8320000D01*
X21480000Y-8630000D02*
X21520000Y-8670000D01*
X21520000Y-8630000D02*
X21480000Y-8670000D01*
X21480000Y-9605000D02*
X21520000Y-9645000D01*
X21520000Y-9605000D02*
X21480000Y-9645000D01*
X21480000Y-10280000D02*
X21520000Y-10320000D01*
X21520000Y-10280000D02*
X21480000Y-10320000D01*
X21480000Y-10905000D02*
X21520000Y-10945000D01*
X21520000Y-10905000D02*
X21480000Y-10945000D01*
X21480000Y-11555000D02*
X21520000Y-11595000D01*
X21520000Y-11555000D02*
X21480000Y-11595000D01*
X21480000Y-12230000D02*
X21520000Y-12270000D01*
X21520000Y-12230000D02*
X21480000Y-12270000D01*
X22147500Y-12537500D02*
X22187500Y-12577500D01*
X22187500Y-12537500D02*
X22147500Y-12577500D01*
X22180000Y-7430000D02*
X22220000Y-7470000D01*
X22220000Y-7430000D02*
X22180000Y-7470000D01*
X22180000Y-8280000D02*
X22220000Y-8320000D01*
X22220000Y-8280000D02*
X22180000Y-8320000D01*
X22180000Y-8930000D02*
X22220000Y-8970000D01*
X22220000Y-8930000D02*
X22180000Y-8970000D01*
X22180000Y-9305000D02*
X22220000Y-9345000D01*
X22220000Y-9305000D02*
X22180000Y-9345000D01*
X22180000Y-10280000D02*
X22220000Y-10320000D01*
X22220000Y-10280000D02*
X22180000Y-10320000D01*
X22180000Y-10905000D02*
X22220000Y-10945000D01*
X22220000Y-10905000D02*
X22180000Y-10945000D01*
X22180000Y-11555000D02*
X22220000Y-11595000D01*
X22220000Y-11555000D02*
X22180000Y-11595000D01*
X22180000Y-12230000D02*
X22220000Y-12270000D01*
X22220000Y-12230000D02*
X22180000Y-12270000D01*
X22777500Y-12505000D02*
X22817500Y-12545000D01*
X22817500Y-12505000D02*
X22777500Y-12545000D01*
X22830000Y-7430000D02*
X22870000Y-7470000D01*
X22870000Y-7430000D02*
X22830000Y-7470000D01*
X22830000Y-8280000D02*
X22870000Y-8320000D01*
X22870000Y-8280000D02*
X22830000Y-8320000D01*
X22830000Y-8930000D02*
X22870000Y-8970000D01*
X22870000Y-8930000D02*
X22830000Y-8970000D01*
X22830000Y-9605000D02*
X22870000Y-9645000D01*
X22870000Y-9605000D02*
X22830000Y-9645000D01*
X22830000Y-9980000D02*
X22870000Y-10020000D01*
X22870000Y-9980000D02*
X22830000Y-10020000D01*
X22830000Y-10905000D02*
X22870000Y-10945000D01*
X22870000Y-10905000D02*
X22830000Y-10945000D01*
X22830000Y-11555000D02*
X22870000Y-11595000D01*
X22870000Y-11555000D02*
X22830000Y-11595000D01*
X22830000Y-12230000D02*
X22870000Y-12270000D01*
X22870000Y-12230000D02*
X22830000Y-12270000D01*
X23456250Y-12448750D02*
X23496250Y-12488750D01*
X23496250Y-12448750D02*
X23456250Y-12488750D01*
X23505000Y-7430000D02*
X23545000Y-7470000D01*
X23545000Y-7430000D02*
X23505000Y-7470000D01*
X23505000Y-8280000D02*
X23545000Y-8320000D01*
X23545000Y-8280000D02*
X23505000Y-8320000D01*
X23505000Y-8930000D02*
X23545000Y-8970000D01*
X23545000Y-8930000D02*
X23505000Y-8970000D01*
X23505000Y-9605000D02*
X23545000Y-9645000D01*
X23545000Y-9605000D02*
X23505000Y-9645000D01*
X23505000Y-10280000D02*
X23545000Y-10320000D01*
X23545000Y-10280000D02*
X23505000Y-10320000D01*
X23505000Y-10605000D02*
X23545000Y-10645000D01*
X23545000Y-10605000D02*
X23505000Y-10645000D01*
X23505000Y-11555000D02*
X23545000Y-11595000D01*
X23545000Y-11555000D02*
X23505000Y-11595000D01*
X23505000Y-12230000D02*
X23545000Y-12270000D01*
X23545000Y-12230000D02*
X23505000Y-12270000D01*
X24135000Y-12397500D02*
X24175000Y-12437500D01*
X24175000Y-12397500D02*
X24135000Y-12437500D01*
X24180000Y-7430000D02*
X24220000Y-7470000D01*
X24220000Y-7430000D02*
X24180000Y-7470000D01*
X24180000Y-8280000D02*
X24220000Y-8320000D01*
X24220000Y-8280000D02*
X24180000Y-8320000D01*
X24180000Y-8930000D02*
X24220000Y-8970000D01*
X24220000Y-8930000D02*
X24180000Y-8970000D01*
X24180000Y-9605000D02*
X24220000Y-9645000D01*
X24220000Y-9605000D02*
X24180000Y-9645000D01*
X24180000Y-10280000D02*
X24220000Y-10320000D01*
X24220000Y-10280000D02*
X24180000Y-10320000D01*
X24180000Y-10905000D02*
X24220000Y-10945000D01*
X24220000Y-10905000D02*
X24180000Y-10945000D01*
X24180000Y-11255000D02*
X24220000Y-11295000D01*
X24220000Y-11255000D02*
X24180000Y-11295000D01*
X24180000Y-12230000D02*
X24220000Y-12270000D01*
X24220000Y-12230000D02*
X24180000Y-12270000D01*
D13*
X13652500Y-13417500D02*
G75*
G03*
X13652500Y-13417500I-50000J0D01*
G01*
X13906500Y-13417500D02*
G75*
G03*
X13906500Y-13417500I-50000J0D01*
G01*
X14160500Y-13417500D02*
G75*
G03*
X14160500Y-13417500I-50000J0D01*
G01*
X14414500Y-13417500D02*
G75*
G03*
X14414500Y-13417500I-50000J0D01*
G01*
D11*
X3457619Y-13977976D02*
X3457619Y-13777976D01*
X3505238Y-13777976D01*
X3533809Y-13787500D01*
X3552857Y-13806548D01*
X3562381Y-13825595D01*
X3571905Y-13863690D01*
X3571905Y-13892262D01*
X3562381Y-13930357D01*
X3552857Y-13949405D01*
X3533809Y-13968452D01*
X3505238Y-13977976D01*
X3457619Y-13977976D01*
X3657619Y-13977976D02*
X3657619Y-13844643D01*
X3657619Y-13882738D02*
X3667143Y-13863690D01*
X3676667Y-13854167D01*
X3695714Y-13844643D01*
X3714762Y-13844643D01*
X3781428Y-13977976D02*
X3781428Y-13844643D01*
X3781428Y-13777976D02*
X3771905Y-13787500D01*
X3781428Y-13797024D01*
X3790952Y-13787500D01*
X3781428Y-13777976D01*
X3781428Y-13797024D01*
X3905238Y-13977976D02*
X3886190Y-13968452D01*
X3876667Y-13949405D01*
X3876667Y-13777976D01*
X4010000Y-13977976D02*
X3990952Y-13968452D01*
X3981428Y-13949405D01*
X3981428Y-13777976D01*
X4238571Y-13977976D02*
X4238571Y-13777976D01*
X4305238Y-13920833D01*
X4371905Y-13777976D01*
X4371905Y-13977976D01*
X4552857Y-13977976D02*
X4552857Y-13873214D01*
X4543333Y-13854167D01*
X4524286Y-13844643D01*
X4486190Y-13844643D01*
X4467143Y-13854167D01*
X4552857Y-13968452D02*
X4533810Y-13977976D01*
X4486190Y-13977976D01*
X4467143Y-13968452D01*
X4457619Y-13949405D01*
X4457619Y-13930357D01*
X4467143Y-13911309D01*
X4486190Y-13901786D01*
X4533810Y-13901786D01*
X4552857Y-13892262D01*
X4648095Y-13844643D02*
X4648095Y-14044643D01*
X4648095Y-13854167D02*
X4667143Y-13844643D01*
X4705238Y-13844643D01*
X4724286Y-13854167D01*
X4733810Y-13863690D01*
X4743333Y-13882738D01*
X4743333Y-13939881D01*
X4733810Y-13958928D01*
X4724286Y-13968452D01*
X4705238Y-13977976D01*
X4667143Y-13977976D01*
X4648095Y-13968452D01*
X4829048Y-13958928D02*
X4838571Y-13968452D01*
X4829048Y-13977976D01*
X4819524Y-13968452D01*
X4829048Y-13958928D01*
X4829048Y-13977976D01*
X4829048Y-13854167D02*
X4838571Y-13863690D01*
X4829048Y-13873214D01*
X4819524Y-13863690D01*
X4829048Y-13854167D01*
X4829048Y-13873214D01*
D12*
X3160000Y-14287500D02*
X3200000Y-14327500D01*
X3200000Y-14287500D02*
X3160000Y-14327500D01*
D11*
X3495714Y-14197976D02*
X3514762Y-14197976D01*
X3533809Y-14207500D01*
X3543333Y-14217024D01*
X3552857Y-14236071D01*
X3562381Y-14274167D01*
X3562381Y-14321786D01*
X3552857Y-14359881D01*
X3543333Y-14378928D01*
X3533809Y-14388452D01*
X3514762Y-14397976D01*
X3495714Y-14397976D01*
X3476667Y-14388452D01*
X3467143Y-14378928D01*
X3457619Y-14359881D01*
X3448095Y-14321786D01*
X3448095Y-14274167D01*
X3457619Y-14236071D01*
X3467143Y-14217024D01*
X3476667Y-14207500D01*
X3495714Y-14197976D01*
X3648095Y-14378928D02*
X3657619Y-14388452D01*
X3648095Y-14397976D01*
X3638571Y-14388452D01*
X3648095Y-14378928D01*
X3648095Y-14397976D01*
X3829048Y-14264643D02*
X3829048Y-14397976D01*
X3781428Y-14188452D02*
X3733809Y-14331309D01*
X3857619Y-14331309D01*
X3971905Y-14197976D02*
X3990952Y-14197976D01*
X4010000Y-14207500D01*
X4019524Y-14217024D01*
X4029048Y-14236071D01*
X4038571Y-14274167D01*
X4038571Y-14321786D01*
X4029048Y-14359881D01*
X4019524Y-14378928D01*
X4010000Y-14388452D01*
X3990952Y-14397976D01*
X3971905Y-14397976D01*
X3952857Y-14388452D01*
X3943333Y-14378928D01*
X3933809Y-14359881D01*
X3924286Y-14321786D01*
X3924286Y-14274167D01*
X3933809Y-14236071D01*
X3943333Y-14217024D01*
X3952857Y-14207500D01*
X3971905Y-14197976D01*
X4162381Y-14197976D02*
X4181428Y-14197976D01*
X4200476Y-14207500D01*
X4210000Y-14217024D01*
X4219524Y-14236071D01*
X4229048Y-14274167D01*
X4229048Y-14321786D01*
X4219524Y-14359881D01*
X4210000Y-14378928D01*
X4200476Y-14388452D01*
X4181428Y-14397976D01*
X4162381Y-14397976D01*
X4143333Y-14388452D01*
X4133809Y-14378928D01*
X4124286Y-14359881D01*
X4114762Y-14321786D01*
X4114762Y-14274167D01*
X4124286Y-14236071D01*
X4133809Y-14217024D01*
X4143333Y-14207500D01*
X4162381Y-14197976D01*
X4314762Y-14397976D02*
X4314762Y-14264643D01*
X4314762Y-14283690D02*
X4324286Y-14274167D01*
X4343333Y-14264643D01*
X4371905Y-14264643D01*
X4390952Y-14274167D01*
X4400476Y-14293214D01*
X4400476Y-14397976D01*
X4400476Y-14293214D02*
X4410000Y-14274167D01*
X4429048Y-14264643D01*
X4457619Y-14264643D01*
X4476667Y-14274167D01*
X4486190Y-14293214D01*
X4486190Y-14397976D01*
X4581429Y-14397976D02*
X4581429Y-14264643D01*
X4581429Y-14283690D02*
X4590952Y-14274167D01*
X4610000Y-14264643D01*
X4638571Y-14264643D01*
X4657619Y-14274167D01*
X4667143Y-14293214D01*
X4667143Y-14397976D01*
X4667143Y-14293214D02*
X4676667Y-14274167D01*
X4695714Y-14264643D01*
X4724286Y-14264643D01*
X4743333Y-14274167D01*
X4752857Y-14293214D01*
X4752857Y-14397976D01*
X5143333Y-14188452D02*
X4971905Y-14445595D01*
X5400476Y-14197976D02*
X5419524Y-14197976D01*
X5438571Y-14207500D01*
X5448095Y-14217024D01*
X5457619Y-14236071D01*
X5467143Y-14274167D01*
X5467143Y-14321786D01*
X5457619Y-14359881D01*
X5448095Y-14378928D01*
X5438571Y-14388452D01*
X5419524Y-14397976D01*
X5400476Y-14397976D01*
X5381429Y-14388452D01*
X5371905Y-14378928D01*
X5362381Y-14359881D01*
X5352857Y-14321786D01*
X5352857Y-14274167D01*
X5362381Y-14236071D01*
X5371905Y-14217024D01*
X5381429Y-14207500D01*
X5400476Y-14197976D01*
X5552857Y-14378928D02*
X5562381Y-14388452D01*
X5552857Y-14397976D01*
X5543333Y-14388452D01*
X5552857Y-14378928D01*
X5552857Y-14397976D01*
X5686190Y-14197976D02*
X5705238Y-14197976D01*
X5724286Y-14207500D01*
X5733809Y-14217024D01*
X5743333Y-14236071D01*
X5752857Y-14274167D01*
X5752857Y-14321786D01*
X5743333Y-14359881D01*
X5733809Y-14378928D01*
X5724286Y-14388452D01*
X5705238Y-14397976D01*
X5686190Y-14397976D01*
X5667143Y-14388452D01*
X5657619Y-14378928D01*
X5648095Y-14359881D01*
X5638571Y-14321786D01*
X5638571Y-14274167D01*
X5648095Y-14236071D01*
X5657619Y-14217024D01*
X5667143Y-14207500D01*
X5686190Y-14197976D01*
X5943333Y-14397976D02*
X5829048Y-14397976D01*
X5886190Y-14397976D02*
X5886190Y-14197976D01*
X5867143Y-14226548D01*
X5848095Y-14245595D01*
X5829048Y-14255119D01*
X6124286Y-14197976D02*
X6029048Y-14197976D01*
X6019524Y-14293214D01*
X6029048Y-14283690D01*
X6048095Y-14274167D01*
X6095714Y-14274167D01*
X6114762Y-14283690D01*
X6124286Y-14293214D01*
X6133809Y-14312262D01*
X6133809Y-14359881D01*
X6124286Y-14378928D01*
X6114762Y-14388452D01*
X6095714Y-14397976D01*
X6048095Y-14397976D01*
X6029048Y-14388452D01*
X6019524Y-14378928D01*
X6200476Y-14197976D02*
X6333809Y-14197976D01*
X6248095Y-14397976D01*
X6400476Y-14197976D02*
X6400476Y-14236071D01*
X6476667Y-14197976D02*
X6476667Y-14236071D01*
X6771905Y-14474167D02*
X6762381Y-14464643D01*
X6743333Y-14436071D01*
X6733809Y-14417024D01*
X6724286Y-14388452D01*
X6714762Y-14340833D01*
X6714762Y-14302738D01*
X6724286Y-14255119D01*
X6733809Y-14226548D01*
X6743333Y-14207500D01*
X6762381Y-14178928D01*
X6771905Y-14169405D01*
X6829048Y-14197976D02*
X6952857Y-14197976D01*
X6886190Y-14274167D01*
X6914762Y-14274167D01*
X6933809Y-14283690D01*
X6943333Y-14293214D01*
X6952857Y-14312262D01*
X6952857Y-14359881D01*
X6943333Y-14378928D01*
X6933809Y-14388452D01*
X6914762Y-14397976D01*
X6857619Y-14397976D01*
X6838571Y-14388452D01*
X6829048Y-14378928D01*
X7076667Y-14197976D02*
X7095714Y-14197976D01*
X7114762Y-14207500D01*
X7124286Y-14217024D01*
X7133809Y-14236071D01*
X7143333Y-14274167D01*
X7143333Y-14321786D01*
X7133809Y-14359881D01*
X7124286Y-14378928D01*
X7114762Y-14388452D01*
X7095714Y-14397976D01*
X7076667Y-14397976D01*
X7057619Y-14388452D01*
X7048095Y-14378928D01*
X7038571Y-14359881D01*
X7029048Y-14321786D01*
X7029048Y-14274167D01*
X7038571Y-14236071D01*
X7048095Y-14217024D01*
X7057619Y-14207500D01*
X7076667Y-14197976D01*
X7210000Y-14197976D02*
X7343333Y-14197976D01*
X7257619Y-14397976D01*
X7571905Y-14397976D02*
X7571905Y-14197976D01*
X7657619Y-14397976D02*
X7657619Y-14293214D01*
X7648095Y-14274167D01*
X7629048Y-14264643D01*
X7600476Y-14264643D01*
X7581428Y-14274167D01*
X7571905Y-14283690D01*
X7781428Y-14397976D02*
X7762381Y-14388452D01*
X7752857Y-14378928D01*
X7743333Y-14359881D01*
X7743333Y-14302738D01*
X7752857Y-14283690D01*
X7762381Y-14274167D01*
X7781428Y-14264643D01*
X7810000Y-14264643D01*
X7829048Y-14274167D01*
X7838571Y-14283690D01*
X7848095Y-14302738D01*
X7848095Y-14359881D01*
X7838571Y-14378928D01*
X7829048Y-14388452D01*
X7810000Y-14397976D01*
X7781428Y-14397976D01*
X7962381Y-14397976D02*
X7943333Y-14388452D01*
X7933809Y-14369405D01*
X7933809Y-14197976D01*
X8114762Y-14388452D02*
X8095714Y-14397976D01*
X8057619Y-14397976D01*
X8038571Y-14388452D01*
X8029048Y-14369405D01*
X8029048Y-14293214D01*
X8038571Y-14274167D01*
X8057619Y-14264643D01*
X8095714Y-14264643D01*
X8114762Y-14274167D01*
X8124286Y-14293214D01*
X8124286Y-14312262D01*
X8029048Y-14331309D01*
X8200476Y-14388452D02*
X8219524Y-14397976D01*
X8257619Y-14397976D01*
X8276667Y-14388452D01*
X8286190Y-14369405D01*
X8286190Y-14359881D01*
X8276667Y-14340833D01*
X8257619Y-14331309D01*
X8229048Y-14331309D01*
X8210000Y-14321786D01*
X8200476Y-14302738D01*
X8200476Y-14293214D01*
X8210000Y-14274167D01*
X8229048Y-14264643D01*
X8257619Y-14264643D01*
X8276667Y-14274167D01*
X8352857Y-14474167D02*
X8362381Y-14464643D01*
X8381428Y-14436071D01*
X8390952Y-14417024D01*
X8400476Y-14388452D01*
X8410000Y-14340833D01*
X8410000Y-14302738D01*
X8400476Y-14255119D01*
X8390952Y-14226548D01*
X8381428Y-14207500D01*
X8362381Y-14178928D01*
X8352857Y-14169405D01*
D13*
X3200000Y-14571500D02*
G75*
G03*
X3200000Y-14571500I-50000J0D01*
G01*
D11*
X3562381Y-14661976D02*
X3448095Y-14661976D01*
X3505238Y-14661976D02*
X3505238Y-14461976D01*
X3486190Y-14490548D01*
X3467143Y-14509595D01*
X3448095Y-14519119D01*
X3648095Y-14642928D02*
X3657619Y-14652452D01*
X3648095Y-14661976D01*
X3638571Y-14652452D01*
X3648095Y-14642928D01*
X3648095Y-14661976D01*
X3781428Y-14461976D02*
X3800476Y-14461976D01*
X3819524Y-14471500D01*
X3829048Y-14481024D01*
X3838571Y-14500071D01*
X3848095Y-14538167D01*
X3848095Y-14585786D01*
X3838571Y-14623881D01*
X3829048Y-14642928D01*
X3819524Y-14652452D01*
X3800476Y-14661976D01*
X3781428Y-14661976D01*
X3762381Y-14652452D01*
X3752857Y-14642928D01*
X3743333Y-14623881D01*
X3733809Y-14585786D01*
X3733809Y-14538167D01*
X3743333Y-14500071D01*
X3752857Y-14481024D01*
X3762381Y-14471500D01*
X3781428Y-14461976D01*
X3971905Y-14461976D02*
X3990952Y-14461976D01*
X4010000Y-14471500D01*
X4019524Y-14481024D01*
X4029048Y-14500071D01*
X4038571Y-14538167D01*
X4038571Y-14585786D01*
X4029048Y-14623881D01*
X4019524Y-14642928D01*
X4010000Y-14652452D01*
X3990952Y-14661976D01*
X3971905Y-14661976D01*
X3952857Y-14652452D01*
X3943333Y-14642928D01*
X3933809Y-14623881D01*
X3924286Y-14585786D01*
X3924286Y-14538167D01*
X3933809Y-14500071D01*
X3943333Y-14481024D01*
X3952857Y-14471500D01*
X3971905Y-14461976D01*
X4162381Y-14461976D02*
X4181428Y-14461976D01*
X4200476Y-14471500D01*
X4210000Y-14481024D01*
X4219524Y-14500071D01*
X4229048Y-14538167D01*
X4229048Y-14585786D01*
X4219524Y-14623881D01*
X4210000Y-14642928D01*
X4200476Y-14652452D01*
X4181428Y-14661976D01*
X4162381Y-14661976D01*
X4143333Y-14652452D01*
X4133809Y-14642928D01*
X4124286Y-14623881D01*
X4114762Y-14585786D01*
X4114762Y-14538167D01*
X4124286Y-14500071D01*
X4133809Y-14481024D01*
X4143333Y-14471500D01*
X4162381Y-14461976D01*
X4314762Y-14661976D02*
X4314762Y-14528643D01*
X4314762Y-14547690D02*
X4324286Y-14538167D01*
X4343333Y-14528643D01*
X4371905Y-14528643D01*
X4390952Y-14538167D01*
X4400476Y-14557214D01*
X4400476Y-14661976D01*
X4400476Y-14557214D02*
X4410000Y-14538167D01*
X4429048Y-14528643D01*
X4457619Y-14528643D01*
X4476667Y-14538167D01*
X4486190Y-14557214D01*
X4486190Y-14661976D01*
X4581429Y-14661976D02*
X4581429Y-14528643D01*
X4581429Y-14547690D02*
X4590952Y-14538167D01*
X4610000Y-14528643D01*
X4638571Y-14528643D01*
X4657619Y-14538167D01*
X4667143Y-14557214D01*
X4667143Y-14661976D01*
X4667143Y-14557214D02*
X4676667Y-14538167D01*
X4695714Y-14528643D01*
X4724286Y-14528643D01*
X4743333Y-14538167D01*
X4752857Y-14557214D01*
X4752857Y-14661976D01*
X5143333Y-14452452D02*
X4971905Y-14709595D01*
X5400476Y-14461976D02*
X5419524Y-14461976D01*
X5438571Y-14471500D01*
X5448095Y-14481024D01*
X5457619Y-14500071D01*
X5467143Y-14538167D01*
X5467143Y-14585786D01*
X5457619Y-14623881D01*
X5448095Y-14642928D01*
X5438571Y-14652452D01*
X5419524Y-14661976D01*
X5400476Y-14661976D01*
X5381429Y-14652452D01*
X5371905Y-14642928D01*
X5362381Y-14623881D01*
X5352857Y-14585786D01*
X5352857Y-14538167D01*
X5362381Y-14500071D01*
X5371905Y-14481024D01*
X5381429Y-14471500D01*
X5400476Y-14461976D01*
X5552857Y-14642928D02*
X5562381Y-14652452D01*
X5552857Y-14661976D01*
X5543333Y-14652452D01*
X5552857Y-14642928D01*
X5552857Y-14661976D01*
X5686190Y-14461976D02*
X5705238Y-14461976D01*
X5724286Y-14471500D01*
X5733809Y-14481024D01*
X5743333Y-14500071D01*
X5752857Y-14538167D01*
X5752857Y-14585786D01*
X5743333Y-14623881D01*
X5733809Y-14642928D01*
X5724286Y-14652452D01*
X5705238Y-14661976D01*
X5686190Y-14661976D01*
X5667143Y-14652452D01*
X5657619Y-14642928D01*
X5648095Y-14623881D01*
X5638571Y-14585786D01*
X5638571Y-14538167D01*
X5648095Y-14500071D01*
X5657619Y-14481024D01*
X5667143Y-14471500D01*
X5686190Y-14461976D01*
X5819524Y-14461976D02*
X5943333Y-14461976D01*
X5876667Y-14538167D01*
X5905238Y-14538167D01*
X5924286Y-14547690D01*
X5933809Y-14557214D01*
X5943333Y-14576262D01*
X5943333Y-14623881D01*
X5933809Y-14642928D01*
X5924286Y-14652452D01*
X5905238Y-14661976D01*
X5848095Y-14661976D01*
X5829048Y-14652452D01*
X5819524Y-14642928D01*
X6038571Y-14661976D02*
X6076667Y-14661976D01*
X6095714Y-14652452D01*
X6105238Y-14642928D01*
X6124286Y-14614357D01*
X6133809Y-14576262D01*
X6133809Y-14500071D01*
X6124286Y-14481024D01*
X6114762Y-14471500D01*
X6095714Y-14461976D01*
X6057619Y-14461976D01*
X6038571Y-14471500D01*
X6029048Y-14481024D01*
X6019524Y-14500071D01*
X6019524Y-14547690D01*
X6029048Y-14566738D01*
X6038571Y-14576262D01*
X6057619Y-14585786D01*
X6095714Y-14585786D01*
X6114762Y-14576262D01*
X6124286Y-14566738D01*
X6133809Y-14547690D01*
X6305238Y-14528643D02*
X6305238Y-14661976D01*
X6257619Y-14452452D02*
X6210000Y-14595309D01*
X6333809Y-14595309D01*
X6400476Y-14461976D02*
X6400476Y-14500071D01*
X6476667Y-14461976D02*
X6476667Y-14500071D01*
X6771905Y-14738167D02*
X6762381Y-14728643D01*
X6743333Y-14700071D01*
X6733809Y-14681024D01*
X6724286Y-14652452D01*
X6714762Y-14604833D01*
X6714762Y-14566738D01*
X6724286Y-14519119D01*
X6733809Y-14490548D01*
X6743333Y-14471500D01*
X6762381Y-14442928D01*
X6771905Y-14433405D01*
X6933809Y-14528643D02*
X6933809Y-14661976D01*
X6886190Y-14452452D02*
X6838571Y-14595309D01*
X6962381Y-14595309D01*
X7190952Y-14661976D02*
X7190952Y-14461976D01*
X7276667Y-14661976D02*
X7276667Y-14557214D01*
X7267143Y-14538167D01*
X7248095Y-14528643D01*
X7219524Y-14528643D01*
X7200476Y-14538167D01*
X7190952Y-14547690D01*
X7400476Y-14661976D02*
X7381428Y-14652452D01*
X7371905Y-14642928D01*
X7362381Y-14623881D01*
X7362381Y-14566738D01*
X7371905Y-14547690D01*
X7381428Y-14538167D01*
X7400476Y-14528643D01*
X7429048Y-14528643D01*
X7448095Y-14538167D01*
X7457619Y-14547690D01*
X7467143Y-14566738D01*
X7467143Y-14623881D01*
X7457619Y-14642928D01*
X7448095Y-14652452D01*
X7429048Y-14661976D01*
X7400476Y-14661976D01*
X7581428Y-14661976D02*
X7562381Y-14652452D01*
X7552857Y-14633405D01*
X7552857Y-14461976D01*
X7733809Y-14652452D02*
X7714762Y-14661976D01*
X7676667Y-14661976D01*
X7657619Y-14652452D01*
X7648095Y-14633405D01*
X7648095Y-14557214D01*
X7657619Y-14538167D01*
X7676667Y-14528643D01*
X7714762Y-14528643D01*
X7733809Y-14538167D01*
X7743333Y-14557214D01*
X7743333Y-14576262D01*
X7648095Y-14595309D01*
X7819524Y-14652452D02*
X7838571Y-14661976D01*
X7876667Y-14661976D01*
X7895714Y-14652452D01*
X7905238Y-14633405D01*
X7905238Y-14623881D01*
X7895714Y-14604833D01*
X7876667Y-14595309D01*
X7848095Y-14595309D01*
X7829048Y-14585786D01*
X7819524Y-14566738D01*
X7819524Y-14557214D01*
X7829048Y-14538167D01*
X7848095Y-14528643D01*
X7876667Y-14528643D01*
X7895714Y-14538167D01*
X7971905Y-14738167D02*
X7981428Y-14728643D01*
X8000476Y-14700071D01*
X8010000Y-14681024D01*
X8019524Y-14652452D01*
X8029048Y-14604833D01*
X8029048Y-14566738D01*
X8019524Y-14519119D01*
X8010000Y-14490548D01*
X8000476Y-14471500D01*
X7981428Y-14442928D01*
X7971905Y-14433405D01*
M02*
