M48
; DRILL file {KiCad 6.0.8+dfsg-1~bpo11+1} date Wed 21 Jun 2023 07:26:04 AM EDT
; FORMAT={-:-/ absolute / metric / decimal}
; #@! TF.CreationDate,2023-06-21T07:26:04-04:00
; #@! TF.GenerationSoftware,Kicad,Pcbnew,6.0.8+dfsg-1~bpo11+1
; #@! TF.FileFunction,Plated,1,2,PTH
FMAT,2
METRIC
; #@! TA.AperFunction,Plated,PTH,ViaDrill
T1C0.400
%
G90
G05
T1
X69.2Y-57.3
X69.2Y-69.3
X69.2Y-81.3
X69.2Y-93.3
X81.2Y-57.3
X81.2Y-69.3
X81.2Y-81.3
X81.2Y-93.3
X93.2Y-57.3
X93.2Y-69.3
X93.2Y-81.3
X93.2Y-93.3
X105.2Y-57.3
X105.2Y-69.3
X105.2Y-81.3
X105.2Y-93.3
X117.2Y-57.3
X117.2Y-69.3
X117.2Y-81.3
X117.2Y-93.3
X129.2Y-57.3
X129.2Y-69.3
X129.2Y-81.3
X129.2Y-93.3
X141.2Y-57.3
X141.2Y-69.3
X141.2Y-81.3
X141.2Y-93.3
X153.2Y-57.3
X153.2Y-69.3
X153.2Y-81.3
X153.2Y-93.3
X165.2Y-57.3
X165.2Y-69.3
X165.2Y-81.3
X165.2Y-93.3
X177.2Y-57.3
X177.2Y-69.3
X177.2Y-81.3
X177.2Y-93.3
X189.2Y-57.3
X189.2Y-69.3
X189.2Y-81.3
X189.2Y-93.3
X201.2Y-57.3
X201.2Y-69.3
X201.2Y-81.3
X201.2Y-93.3
X213.2Y-57.3
X213.2Y-69.3
X213.2Y-81.3
X213.2Y-93.3
X225.2Y-57.3
X225.2Y-69.3
X225.2Y-81.3
X225.2Y-93.3
X237.2Y-57.3
X237.2Y-69.3
X237.2Y-81.3
X237.2Y-93.3
X249.2Y-57.3
X249.2Y-69.3
X249.2Y-81.3
X249.2Y-93.3
T0
M30
