G04 #@! TF.GenerationSoftware,KiCad,Pcbnew,6.0.8+dfsg-1~bpo11+1*
G04 #@! TF.CreationDate,2023-06-21T07:25:59-04:00*
G04 #@! TF.ProjectId,08_padded_interleaved_loose,30385f70-6164-4646-9564-5f696e746572,rev?*
G04 #@! TF.SameCoordinates,Original*
G04 #@! TF.FileFunction,Legend,Top*
G04 #@! TF.FilePolarity,Positive*
%FSLAX46Y46*%
G04 Gerber Fmt 4.6, Leading zero omitted, Abs format (unit mm)*
G04 Created by KiCad (PCBNEW 6.0.8+dfsg-1~bpo11+1) date 2023-06-21 07:25:59*
%MOMM*%
%LPD*%
G01*
G04 APERTURE LIST*
G04 Aperture macros list*
%AMRoundRect*
0 Rectangle with rounded corners*
0 $1 Rounding radius*
0 $2 $3 $4 $5 $6 $7 $8 $9 X,Y pos of 4 corners*
0 Add a 4 corners polygon primitive as box body*
4,1,4,$2,$3,$4,$5,$6,$7,$8,$9,$2,$3,0*
0 Add four circle primitives for the rounded corners*
1,1,$1+$1,$2,$3*
1,1,$1+$1,$4,$5*
1,1,$1+$1,$6,$7*
1,1,$1+$1,$8,$9*
0 Add four rect primitives between the rounded corners*
20,1,$1+$1,$2,$3,$4,$5,0*
20,1,$1+$1,$4,$5,$6,$7,0*
20,1,$1+$1,$6,$7,$8,$9,0*
20,1,$1+$1,$8,$9,$2,$3,0*%
G04 Aperture macros list end*
%ADD10C,0.150000*%
%ADD11RoundRect,2.500000X-2.500000X-2.500000X2.500000X-2.500000X2.500000X2.500000X-2.500000X2.500000X0*%
G04 APERTURE END LIST*
D10*
X62539166Y-108555714D02*
X62539166Y-109222380D01*
X62301071Y-108174761D02*
X62062976Y-108889047D01*
X62682023Y-108889047D01*
X62967738Y-109222380D02*
X63491547Y-108555714D01*
X62967738Y-108555714D02*
X63491547Y-109222380D01*
X64396309Y-109222380D02*
X63824880Y-109222380D01*
X64110595Y-109222380D02*
X64110595Y-108222380D01*
X64015357Y-108365238D01*
X63920119Y-108460476D01*
X63824880Y-108508095D01*
X65253452Y-108222380D02*
X65062976Y-108222380D01*
X64967738Y-108270000D01*
X64920119Y-108317619D01*
X64824880Y-108460476D01*
X64777261Y-108650952D01*
X64777261Y-109031904D01*
X64824880Y-109127142D01*
X64872500Y-109174761D01*
X64967738Y-109222380D01*
X65158214Y-109222380D01*
X65253452Y-109174761D01*
X65301071Y-109127142D01*
X65348690Y-109031904D01*
X65348690Y-108793809D01*
X65301071Y-108698571D01*
X65253452Y-108650952D01*
X65158214Y-108603333D01*
X64967738Y-108603333D01*
X64872500Y-108650952D01*
X64824880Y-108698571D01*
X64777261Y-108793809D01*
X67110595Y-109127142D02*
X67062976Y-109174761D01*
X66920119Y-109222380D01*
X66824880Y-109222380D01*
X66682023Y-109174761D01*
X66586785Y-109079523D01*
X66539166Y-108984285D01*
X66491547Y-108793809D01*
X66491547Y-108650952D01*
X66539166Y-108460476D01*
X66586785Y-108365238D01*
X66682023Y-108270000D01*
X66824880Y-108222380D01*
X66920119Y-108222380D01*
X67062976Y-108270000D01*
X67110595Y-108317619D01*
X67967738Y-109222380D02*
X67967738Y-108698571D01*
X67920119Y-108603333D01*
X67824880Y-108555714D01*
X67634404Y-108555714D01*
X67539166Y-108603333D01*
X67967738Y-109174761D02*
X67872500Y-109222380D01*
X67634404Y-109222380D01*
X67539166Y-109174761D01*
X67491547Y-109079523D01*
X67491547Y-108984285D01*
X67539166Y-108889047D01*
X67634404Y-108841428D01*
X67872500Y-108841428D01*
X67967738Y-108793809D01*
X68443928Y-108555714D02*
X68443928Y-109555714D01*
X68443928Y-108603333D02*
X68539166Y-108555714D01*
X68729642Y-108555714D01*
X68824880Y-108603333D01*
X68872500Y-108650952D01*
X68920119Y-108746190D01*
X68920119Y-109031904D01*
X68872500Y-109127142D01*
X68824880Y-109174761D01*
X68729642Y-109222380D01*
X68539166Y-109222380D01*
X68443928Y-109174761D01*
X69777261Y-109222380D02*
X69777261Y-108698571D01*
X69729642Y-108603333D01*
X69634404Y-108555714D01*
X69443928Y-108555714D01*
X69348690Y-108603333D01*
X69777261Y-109174761D02*
X69682023Y-109222380D01*
X69443928Y-109222380D01*
X69348690Y-109174761D01*
X69301071Y-109079523D01*
X69301071Y-108984285D01*
X69348690Y-108889047D01*
X69443928Y-108841428D01*
X69682023Y-108841428D01*
X69777261Y-108793809D01*
X70682023Y-109174761D02*
X70586785Y-109222380D01*
X70396309Y-109222380D01*
X70301071Y-109174761D01*
X70253452Y-109127142D01*
X70205833Y-109031904D01*
X70205833Y-108746190D01*
X70253452Y-108650952D01*
X70301071Y-108603333D01*
X70396309Y-108555714D01*
X70586785Y-108555714D01*
X70682023Y-108603333D01*
X71110595Y-109222380D02*
X71110595Y-108555714D01*
X71110595Y-108222380D02*
X71062976Y-108270000D01*
X71110595Y-108317619D01*
X71158214Y-108270000D01*
X71110595Y-108222380D01*
X71110595Y-108317619D01*
X71443928Y-108555714D02*
X71824880Y-108555714D01*
X71586785Y-108222380D02*
X71586785Y-109079523D01*
X71634404Y-109174761D01*
X71729642Y-109222380D01*
X71824880Y-109222380D01*
X72158214Y-109222380D02*
X72158214Y-108555714D01*
X72158214Y-108222380D02*
X72110595Y-108270000D01*
X72158214Y-108317619D01*
X72205833Y-108270000D01*
X72158214Y-108222380D01*
X72158214Y-108317619D01*
X72539166Y-108555714D02*
X72777261Y-109222380D01*
X73015357Y-108555714D01*
X73777261Y-109174761D02*
X73682023Y-109222380D01*
X73491547Y-109222380D01*
X73396309Y-109174761D01*
X73348690Y-109079523D01*
X73348690Y-108698571D01*
X73396309Y-108603333D01*
X73491547Y-108555714D01*
X73682023Y-108555714D01*
X73777261Y-108603333D01*
X73824880Y-108698571D01*
X73824880Y-108793809D01*
X73348690Y-108889047D01*
X74967738Y-109174761D02*
X75110595Y-109222380D01*
X75348690Y-109222380D01*
X75443928Y-109174761D01*
X75491547Y-109127142D01*
X75539166Y-109031904D01*
X75539166Y-108936666D01*
X75491547Y-108841428D01*
X75443928Y-108793809D01*
X75348690Y-108746190D01*
X75158214Y-108698571D01*
X75062976Y-108650952D01*
X75015357Y-108603333D01*
X74967738Y-108508095D01*
X74967738Y-108412857D01*
X75015357Y-108317619D01*
X75062976Y-108270000D01*
X75158214Y-108222380D01*
X75396309Y-108222380D01*
X75539166Y-108270000D01*
X76348690Y-109174761D02*
X76253452Y-109222380D01*
X76062976Y-109222380D01*
X75967738Y-109174761D01*
X75920119Y-109079523D01*
X75920119Y-108698571D01*
X75967738Y-108603333D01*
X76062976Y-108555714D01*
X76253452Y-108555714D01*
X76348690Y-108603333D01*
X76396309Y-108698571D01*
X76396309Y-108793809D01*
X75920119Y-108889047D01*
X76824880Y-108555714D02*
X76824880Y-109222380D01*
X76824880Y-108650952D02*
X76872500Y-108603333D01*
X76967738Y-108555714D01*
X77110595Y-108555714D01*
X77205833Y-108603333D01*
X77253452Y-108698571D01*
X77253452Y-109222380D01*
X77682023Y-109174761D02*
X77777261Y-109222380D01*
X77967738Y-109222380D01*
X78062976Y-109174761D01*
X78110595Y-109079523D01*
X78110595Y-109031904D01*
X78062976Y-108936666D01*
X77967738Y-108889047D01*
X77824880Y-108889047D01*
X77729642Y-108841428D01*
X77682023Y-108746190D01*
X77682023Y-108698571D01*
X77729642Y-108603333D01*
X77824880Y-108555714D01*
X77967738Y-108555714D01*
X78062976Y-108603333D01*
X78682023Y-109222380D02*
X78586785Y-109174761D01*
X78539166Y-109127142D01*
X78491547Y-109031904D01*
X78491547Y-108746190D01*
X78539166Y-108650952D01*
X78586785Y-108603333D01*
X78682023Y-108555714D01*
X78824880Y-108555714D01*
X78920119Y-108603333D01*
X78967738Y-108650952D01*
X79015357Y-108746190D01*
X79015357Y-109031904D01*
X78967738Y-109127142D01*
X78920119Y-109174761D01*
X78824880Y-109222380D01*
X78682023Y-109222380D01*
X79443928Y-109222380D02*
X79443928Y-108555714D01*
X79443928Y-108746190D02*
X79491547Y-108650952D01*
X79539166Y-108603333D01*
X79634404Y-108555714D01*
X79729642Y-108555714D01*
X62062976Y-110784761D02*
X62158214Y-110832380D01*
X62348690Y-110832380D01*
X62443928Y-110784761D01*
X62491547Y-110689523D01*
X62491547Y-110641904D01*
X62443928Y-110546666D01*
X62348690Y-110499047D01*
X62205833Y-110499047D01*
X62110595Y-110451428D01*
X62062976Y-110356190D01*
X62062976Y-110308571D01*
X62110595Y-110213333D01*
X62205833Y-110165714D01*
X62348690Y-110165714D01*
X62443928Y-110213333D01*
X63301071Y-110784761D02*
X63205833Y-110832380D01*
X63015357Y-110832380D01*
X62920119Y-110784761D01*
X62872500Y-110689523D01*
X62872500Y-110308571D01*
X62920119Y-110213333D01*
X63015357Y-110165714D01*
X63205833Y-110165714D01*
X63301071Y-110213333D01*
X63348690Y-110308571D01*
X63348690Y-110403809D01*
X62872500Y-110499047D01*
X63920119Y-110832380D02*
X63824880Y-110784761D01*
X63777261Y-110689523D01*
X63777261Y-109832380D01*
X64158214Y-110165714D02*
X64539166Y-110165714D01*
X64301071Y-110832380D02*
X64301071Y-109975238D01*
X64348690Y-109880000D01*
X64443928Y-109832380D01*
X64539166Y-109832380D01*
X64872500Y-110451428D02*
X65634404Y-110451428D01*
X66110595Y-110832380D02*
X66110595Y-110165714D01*
X66110595Y-110260952D02*
X66158214Y-110213333D01*
X66253452Y-110165714D01*
X66396309Y-110165714D01*
X66491547Y-110213333D01*
X66539166Y-110308571D01*
X66539166Y-110832380D01*
X66539166Y-110308571D02*
X66586785Y-110213333D01*
X66682023Y-110165714D01*
X66824880Y-110165714D01*
X66920119Y-110213333D01*
X66967738Y-110308571D01*
X66967738Y-110832380D01*
X67586785Y-110832380D02*
X67491547Y-110784761D01*
X67443928Y-110737142D01*
X67396309Y-110641904D01*
X67396309Y-110356190D01*
X67443928Y-110260952D01*
X67491547Y-110213333D01*
X67586785Y-110165714D01*
X67729642Y-110165714D01*
X67824880Y-110213333D01*
X67872500Y-110260952D01*
X67920119Y-110356190D01*
X67920119Y-110641904D01*
X67872500Y-110737142D01*
X67824880Y-110784761D01*
X67729642Y-110832380D01*
X67586785Y-110832380D01*
X68777261Y-110832380D02*
X68777261Y-109832380D01*
X68777261Y-110784761D02*
X68682023Y-110832380D01*
X68491547Y-110832380D01*
X68396309Y-110784761D01*
X68348690Y-110737142D01*
X68301071Y-110641904D01*
X68301071Y-110356190D01*
X68348690Y-110260952D01*
X68396309Y-110213333D01*
X68491547Y-110165714D01*
X68682023Y-110165714D01*
X68777261Y-110213333D01*
X69634404Y-110784761D02*
X69539166Y-110832380D01*
X69348690Y-110832380D01*
X69253452Y-110784761D01*
X69205833Y-110689523D01*
X69205833Y-110308571D01*
X69253452Y-110213333D01*
X69348690Y-110165714D01*
X69539166Y-110165714D01*
X69634404Y-110213333D01*
X69682023Y-110308571D01*
X69682023Y-110403809D01*
X69205833Y-110499047D01*
X70777261Y-110165714D02*
X71015357Y-110832380D01*
X71253452Y-110165714D01*
X72158214Y-110832380D02*
X71586785Y-110832380D01*
X71872500Y-110832380D02*
X71872500Y-109832380D01*
X71777261Y-109975238D01*
X71682023Y-110070476D01*
X71586785Y-110118095D01*
%LPC*%
X62500000Y-55300000D02*
X255800000Y-55300000D01*
X255800000Y-55300000D02*
X255800000Y-104400000D01*
X255800000Y-104400000D02*
X62500000Y-104400000D01*
X62500000Y-104400000D02*
X62500000Y-55300000D01*
G36*
X62500000Y-55300000D02*
G01*
X255800000Y-55300000D01*
X255800000Y-104400000D01*
X62500000Y-104400000D01*
X62500000Y-55300000D01*
G37*
D11*
X68800000Y-61500000D03*
X80800000Y-61500000D03*
X92800000Y-61500000D03*
X104800000Y-61500000D03*
X116800000Y-61500000D03*
X128800000Y-61500000D03*
X140800000Y-61500000D03*
X152800000Y-61500000D03*
X68800000Y-73500000D03*
X80800000Y-73500000D03*
X92800000Y-73500000D03*
X104800000Y-73500000D03*
X116800000Y-73500000D03*
X128800000Y-73500000D03*
X140800000Y-73500000D03*
X152800000Y-73500000D03*
X68800000Y-85500000D03*
X80800000Y-85500000D03*
X92800000Y-85500000D03*
X104800000Y-85500000D03*
X116800000Y-85500000D03*
X128800000Y-85500000D03*
X140800000Y-85500000D03*
X152800000Y-85500000D03*
X68800000Y-97500000D03*
X80800000Y-97500000D03*
X92800000Y-97500000D03*
X104800000Y-97500000D03*
X116800000Y-97500000D03*
X128800000Y-97500000D03*
X140800000Y-97500000D03*
X152800000Y-97500000D03*
X164800000Y-61500000D03*
X176800000Y-61500000D03*
X188800000Y-61500000D03*
X200800000Y-61500000D03*
X212800000Y-61500000D03*
X224800000Y-61500000D03*
X236800000Y-61500000D03*
X248800000Y-61500000D03*
X164800000Y-73500000D03*
X176800000Y-73500000D03*
X188800000Y-73500000D03*
X200800000Y-73500000D03*
X212800000Y-73500000D03*
X224800000Y-73500000D03*
X236800000Y-73500000D03*
X248800000Y-73500000D03*
X164800000Y-85500000D03*
X176800000Y-85500000D03*
X188800000Y-85500000D03*
X200800000Y-85500000D03*
X212800000Y-85500000D03*
X224800000Y-85500000D03*
X236800000Y-85500000D03*
X248800000Y-85500000D03*
X164800000Y-97500000D03*
X176800000Y-97500000D03*
X188800000Y-97500000D03*
X200800000Y-97500000D03*
X212800000Y-97500000D03*
X224800000Y-97500000D03*
X236800000Y-97500000D03*
X248800000Y-97500000D03*
M02*
