G04 #@! TF.GenerationSoftware,KiCad,Pcbnew,6.0.8+dfsg-1~bpo11+1*
G04 #@! TF.CreationDate,2023-06-21T07:25:59-04:00*
G04 #@! TF.ProjectId,08_padded_interleaved_loose,30385f70-6164-4646-9564-5f696e746572,rev?*
G04 #@! TF.SameCoordinates,Original*
G04 #@! TF.FileFunction,Paste,Bot*
G04 #@! TF.FilePolarity,Positive*
%FSLAX46Y46*%
G04 Gerber Fmt 4.6, Leading zero omitted, Abs format (unit mm)*
G04 Created by KiCad (PCBNEW 6.0.8+dfsg-1~bpo11+1) date 2023-06-21 07:25:59*
%MOMM*%
%LPD*%
G01*
G04 APERTURE LIST*
%ADD10R,1.200000X0.600000*%
%ADD11R,1.400000X0.800000*%
G04 APERTURE END LIST*
D10*
X267500000Y-72625000D03*
X264600000Y-73125000D03*
X267500000Y-73625000D03*
X264600000Y-74125000D03*
X267500000Y-74625000D03*
X264600000Y-75125000D03*
X267500000Y-75625000D03*
X264600000Y-76125000D03*
X267500000Y-76625000D03*
X264600000Y-77125000D03*
X267500000Y-77625000D03*
X264600000Y-78125000D03*
X267500000Y-78625000D03*
X264600000Y-79125000D03*
X267500000Y-79625000D03*
X264600000Y-80125000D03*
X267500000Y-80625000D03*
X264600000Y-81125000D03*
X267500000Y-81625000D03*
X264600000Y-82125000D03*
X267500000Y-82625000D03*
X264600000Y-83125000D03*
X267500000Y-83625000D03*
X264600000Y-84125000D03*
X267500000Y-84625000D03*
X264600000Y-85125000D03*
X267500000Y-85625000D03*
X264600000Y-86125000D03*
X267500000Y-86625000D03*
X264600000Y-87125000D03*
X267500000Y-87625000D03*
X264600000Y-88125000D03*
D11*
X267400000Y-71625000D03*
X264700000Y-71625000D03*
X267400000Y-89125000D03*
X264700000Y-89125000D03*
D10*
X53050000Y-72250000D03*
X50150000Y-72750000D03*
X53050000Y-73250000D03*
X50150000Y-73750000D03*
X53050000Y-74250000D03*
X50150000Y-74750000D03*
X53050000Y-75250000D03*
X50150000Y-75750000D03*
X53050000Y-76250000D03*
X50150000Y-76750000D03*
X53050000Y-77250000D03*
X50150000Y-77750000D03*
X53050000Y-78250000D03*
X50150000Y-78750000D03*
X53050000Y-79250000D03*
X50150000Y-79750000D03*
X53050000Y-80250000D03*
X50150000Y-80750000D03*
X53050000Y-81250000D03*
X50150000Y-81750000D03*
X53050000Y-82250000D03*
X50150000Y-82750000D03*
X53050000Y-83250000D03*
X50150000Y-83750000D03*
X53050000Y-84250000D03*
X50150000Y-84750000D03*
X53050000Y-85250000D03*
X50150000Y-85750000D03*
X53050000Y-86250000D03*
X50150000Y-86750000D03*
X53050000Y-87250000D03*
X50150000Y-87750000D03*
D11*
X52950000Y-71250000D03*
X50250000Y-71250000D03*
X52950000Y-88750000D03*
X50250000Y-88750000D03*
M02*
