G04 #@! TF.GenerationSoftware,KiCad,Pcbnew,6.0.8+dfsg-1~bpo11+1*
G04 #@! TF.CreationDate,2023-06-21T07:25:59-04:00*
G04 #@! TF.ProjectId,08_padded_interleaved_loose,30385f70-6164-4646-9564-5f696e746572,rev?*
G04 #@! TF.SameCoordinates,Original*
G04 #@! TF.FileFunction,Copper,L2,Bot*
G04 #@! TF.FilePolarity,Positive*
%FSLAX46Y46*%
G04 Gerber Fmt 4.6, Leading zero omitted, Abs format (unit mm)*
G04 Created by KiCad (PCBNEW 6.0.8+dfsg-1~bpo11+1) date 2023-06-21 07:25:59*
%MOMM*%
%LPD*%
G01*
G04 APERTURE LIST*
G04 #@! TA.AperFunction,SMDPad,CuDef*
%ADD10R,1.200000X0.600000*%
G04 #@! TD*
G04 #@! TA.AperFunction,SMDPad,CuDef*
%ADD11R,1.400000X0.800000*%
G04 #@! TD*
G04 #@! TA.AperFunction,ViaPad*
%ADD12C,0.800000*%
G04 #@! TD*
G04 #@! TA.AperFunction,Conductor*
%ADD13C,0.127000*%
G04 #@! TD*
G04 APERTURE END LIST*
D10*
X267500000Y-72625000D03*
X264600000Y-73125000D03*
X267500000Y-73625000D03*
X264600000Y-74125000D03*
X267500000Y-74625000D03*
X264600000Y-75125000D03*
X267500000Y-75625000D03*
X264600000Y-76125000D03*
X267500000Y-76625000D03*
X264600000Y-77125000D03*
X267500000Y-77625000D03*
X264600000Y-78125000D03*
X267500000Y-78625000D03*
X264600000Y-79125000D03*
X267500000Y-79625000D03*
X264600000Y-80125000D03*
X267500000Y-80625000D03*
X264600000Y-81125000D03*
X267500000Y-81625000D03*
X264600000Y-82125000D03*
X267500000Y-82625000D03*
X264600000Y-83125000D03*
X267500000Y-83625000D03*
X264600000Y-84125000D03*
X267500000Y-84625000D03*
X264600000Y-85125000D03*
X267500000Y-85625000D03*
X264600000Y-86125000D03*
X267500000Y-86625000D03*
X264600000Y-87125000D03*
X267500000Y-87625000D03*
X264600000Y-88125000D03*
D11*
X267400000Y-71625000D03*
X264700000Y-71625000D03*
X267400000Y-89125000D03*
X264700000Y-89125000D03*
D10*
X53050000Y-72250000D03*
X50150000Y-72750000D03*
X53050000Y-73250000D03*
X50150000Y-73750000D03*
X53050000Y-74250000D03*
X50150000Y-74750000D03*
X53050000Y-75250000D03*
X50150000Y-75750000D03*
X53050000Y-76250000D03*
X50150000Y-76750000D03*
X53050000Y-77250000D03*
X50150000Y-77750000D03*
X53050000Y-78250000D03*
X50150000Y-78750000D03*
X53050000Y-79250000D03*
X50150000Y-79750000D03*
X53050000Y-80250000D03*
X50150000Y-80750000D03*
X53050000Y-81250000D03*
X50150000Y-81750000D03*
X53050000Y-82250000D03*
X50150000Y-82750000D03*
X53050000Y-83250000D03*
X50150000Y-83750000D03*
X53050000Y-84250000D03*
X50150000Y-84750000D03*
X53050000Y-85250000D03*
X50150000Y-85750000D03*
X53050000Y-86250000D03*
X50150000Y-86750000D03*
X53050000Y-87250000D03*
X50150000Y-87750000D03*
D11*
X52950000Y-71250000D03*
X50250000Y-71250000D03*
X52950000Y-88750000D03*
X50250000Y-88750000D03*
D12*
X69200000Y-57300000D03*
X81200000Y-57300000D03*
X93200000Y-57300000D03*
X105200000Y-57300000D03*
X117200000Y-57300000D03*
X129200000Y-57300000D03*
X141200000Y-57300000D03*
X153200000Y-57300000D03*
X165200000Y-57300000D03*
X177200000Y-57300000D03*
X189200000Y-57300000D03*
X201200000Y-57300000D03*
X213200000Y-57300000D03*
X225200000Y-57300000D03*
X237200000Y-57300000D03*
X249200000Y-57300000D03*
X165200000Y-69300000D03*
X177200000Y-69300000D03*
X189200000Y-69300000D03*
X201200000Y-69300000D03*
X213200000Y-69300000D03*
X225200000Y-69300000D03*
X237200000Y-69300000D03*
X249200000Y-69300000D03*
X165200000Y-81300000D03*
X177200000Y-81300000D03*
X189200000Y-81300000D03*
X201200000Y-81300000D03*
X213200000Y-81300000D03*
X225200000Y-81300000D03*
X237200000Y-81300000D03*
X249200000Y-81300000D03*
X165200000Y-93300000D03*
X177200000Y-93300000D03*
X189200000Y-93300000D03*
X201200000Y-93300000D03*
X213200000Y-93300000D03*
X225200000Y-93300000D03*
X237200000Y-93300000D03*
X249200000Y-93300000D03*
X69200000Y-69300000D03*
X81200000Y-69300000D03*
X93200000Y-69300000D03*
X105200000Y-69300000D03*
X117200000Y-69300000D03*
X129200000Y-69300000D03*
X141200000Y-69300000D03*
X153200000Y-69300000D03*
X69200000Y-81300000D03*
X81200000Y-81300000D03*
X93200000Y-81300000D03*
X105200000Y-81300000D03*
X117200000Y-81300000D03*
X129200000Y-81300000D03*
X141200000Y-81300000D03*
X153200000Y-81300000D03*
X69200000Y-93300000D03*
X81200000Y-93300000D03*
X93200000Y-93300000D03*
X105200000Y-93300000D03*
X117200000Y-93300000D03*
X129200000Y-93300000D03*
X141200000Y-93300000D03*
X153200000Y-93300000D03*
D13*
X53050000Y-72250000D02*
X53350000Y-72250000D01*
X55000000Y-70600000D02*
X55000000Y-61200000D01*
X55000000Y-61200000D02*
X58900000Y-57300000D01*
X58900000Y-57300000D02*
X69200000Y-57300000D01*
X53350000Y-72250000D02*
X55000000Y-70600000D01*
X53831000Y-72750000D02*
X55254000Y-71327000D01*
X50150000Y-72750000D02*
X53831000Y-72750000D01*
X55254000Y-61305210D02*
X58659210Y-57900000D01*
X58659210Y-57900000D02*
X80600000Y-57900000D01*
X55254000Y-71327000D02*
X55254000Y-61305210D01*
X80600000Y-57900000D02*
X81200000Y-57300000D01*
X82035094Y-57300000D02*
X81181094Y-58154000D01*
X58764420Y-58154000D02*
X55508000Y-61410420D01*
X93200000Y-57300000D02*
X82035094Y-57300000D01*
X55508000Y-71892000D02*
X54100000Y-73300000D01*
X54100000Y-73300000D02*
X53000000Y-73300000D01*
X81181094Y-58154000D02*
X58764420Y-58154000D01*
X55508000Y-61410420D02*
X55508000Y-71892000D01*
X105200000Y-57300000D02*
X104092000Y-58408000D01*
X55762000Y-71997210D02*
X54018710Y-73740500D01*
X54018710Y-73740500D02*
X50159500Y-73740500D01*
X58869630Y-58408000D02*
X55762000Y-61515630D01*
X104092000Y-58408000D02*
X58869630Y-58408000D01*
X55762000Y-61515630D02*
X55762000Y-71997210D01*
X56016000Y-73084000D02*
X54900000Y-74200000D01*
X56016000Y-61620840D02*
X56016000Y-73084000D01*
X54900000Y-74200000D02*
X53100000Y-74200000D01*
X58974840Y-58662000D02*
X56016000Y-61620840D01*
X115838000Y-58662000D02*
X58974840Y-58662000D01*
X117200000Y-57300000D02*
X115838000Y-58662000D01*
X54699710Y-74759500D02*
X50159500Y-74759500D01*
X127584000Y-58916000D02*
X59080050Y-58916000D01*
X56270000Y-61726050D02*
X56270000Y-73189210D01*
X129200000Y-57300000D02*
X127584000Y-58916000D01*
X59080050Y-58916000D02*
X56270000Y-61726050D01*
X56270000Y-73189210D02*
X54699710Y-74759500D01*
X56524000Y-74076000D02*
X55300000Y-75300000D01*
X59155260Y-59200000D02*
X56524000Y-61831260D01*
X53200000Y-75300000D02*
X53100000Y-75200000D01*
X141200000Y-57300000D02*
X139300000Y-59200000D01*
X56524000Y-61831260D02*
X56524000Y-74076000D01*
X55300000Y-75300000D02*
X53200000Y-75300000D01*
X139300000Y-59200000D02*
X59155260Y-59200000D01*
X151046000Y-59454000D02*
X59260470Y-59454000D01*
X55199710Y-75759500D02*
X50159500Y-75759500D01*
X153200000Y-57300000D02*
X151046000Y-59454000D01*
X56778000Y-74181210D02*
X55199710Y-75759500D01*
X56778000Y-61936470D02*
X56778000Y-74181210D01*
X59260470Y-59454000D02*
X56778000Y-61936470D01*
X167416000Y-55084000D02*
X250039260Y-55084000D01*
X260678000Y-71963530D02*
X261314470Y-72600000D01*
X260678000Y-65722740D02*
X260678000Y-71963530D01*
X165200000Y-57300000D02*
X167416000Y-55084000D01*
X261314470Y-72600000D02*
X267600000Y-72600000D01*
X250039260Y-55084000D02*
X260678000Y-65722740D01*
X249934050Y-55338000D02*
X260424000Y-65827950D01*
X260424000Y-72068740D02*
X261455260Y-73100000D01*
X177200000Y-57300000D02*
X179162000Y-55338000D01*
X260424000Y-65827950D02*
X260424000Y-72068740D01*
X261455260Y-73100000D02*
X264800000Y-73100000D01*
X179162000Y-55338000D02*
X249934050Y-55338000D01*
X261611550Y-73615500D02*
X267484500Y-73615500D01*
X260170000Y-65933160D02*
X260170000Y-72173950D01*
X260170000Y-72173950D02*
X261611550Y-73615500D01*
X189200000Y-57300000D02*
X199700000Y-57300000D01*
X199700000Y-57300000D02*
X201408000Y-55592000D01*
X201408000Y-55592000D02*
X249828840Y-55592000D01*
X249828840Y-55592000D02*
X260170000Y-65933160D01*
X261736840Y-74100000D02*
X264700000Y-74100000D01*
X259916000Y-66038370D02*
X259916000Y-72279160D01*
X202654000Y-55846000D02*
X249723630Y-55846000D01*
X249723630Y-55846000D02*
X259916000Y-66038370D01*
X201200000Y-57300000D02*
X202654000Y-55846000D01*
X259916000Y-72279160D02*
X261736840Y-74100000D01*
X261893130Y-74615500D02*
X267484500Y-74615500D01*
X213200000Y-57300000D02*
X214400000Y-56100000D01*
X259662000Y-72384370D02*
X261893130Y-74615500D01*
X214400000Y-56100000D02*
X249618420Y-56100000D01*
X259662000Y-66143580D02*
X259662000Y-72384370D01*
X249618420Y-56100000D02*
X259662000Y-66143580D01*
X259408000Y-66248790D02*
X259408000Y-72489580D01*
X225200000Y-57300000D02*
X226100000Y-56400000D01*
X249559210Y-56400000D02*
X259408000Y-66248790D01*
X259408000Y-72489580D02*
X262018420Y-75100000D01*
X262018420Y-75100000D02*
X264600000Y-75100000D01*
X226100000Y-56400000D02*
X249559210Y-56400000D01*
X262174710Y-75615500D02*
X267684500Y-75615500D01*
X237200000Y-57300000D02*
X237800000Y-56700000D01*
X237800000Y-56700000D02*
X249500000Y-56700000D01*
X259154000Y-66354000D02*
X259154000Y-72594790D01*
X259154000Y-72594790D02*
X262174710Y-75615500D01*
X249500000Y-56700000D02*
X259154000Y-66354000D01*
X258900000Y-67000000D02*
X258900000Y-72700000D01*
X249200000Y-57300000D02*
X258900000Y-67000000D01*
X262400000Y-76200000D02*
X264600000Y-76200000D01*
X258900000Y-72700000D02*
X262400000Y-76200000D01*
X165200000Y-69300000D02*
X167324000Y-67176000D01*
X259689760Y-76634500D02*
X267265500Y-76634500D01*
X250231260Y-67176000D02*
X259689760Y-76634500D01*
X167324000Y-67176000D02*
X250231260Y-67176000D01*
X267265500Y-76634500D02*
X267300000Y-76600000D01*
X250126050Y-67430000D02*
X259796050Y-77100000D01*
X259796050Y-77100000D02*
X264700000Y-77100000D01*
X177200000Y-69300000D02*
X179070000Y-67430000D01*
X179070000Y-67430000D02*
X250126050Y-67430000D01*
X190816000Y-67684000D02*
X250020840Y-67684000D01*
X267465500Y-77634500D02*
X267500000Y-77600000D01*
X250020840Y-67684000D02*
X259971340Y-77634500D01*
X259971340Y-77634500D02*
X267465500Y-77634500D01*
X189200000Y-69300000D02*
X190816000Y-67684000D01*
X201200000Y-69300000D02*
X202562000Y-67938000D01*
X249915630Y-67938000D02*
X260077630Y-78100000D01*
X202562000Y-67938000D02*
X249915630Y-67938000D01*
X260077630Y-78100000D02*
X264600000Y-78100000D01*
X213200000Y-69300000D02*
X214308000Y-68192000D01*
X249810420Y-68192000D02*
X260233920Y-78615500D01*
X260233920Y-78615500D02*
X267584500Y-78615500D01*
X214308000Y-68192000D02*
X249810420Y-68192000D01*
X260359210Y-79100000D02*
X264700000Y-79100000D01*
X249705210Y-68446000D02*
X260359210Y-79100000D01*
X225200000Y-69300000D02*
X226054000Y-68446000D01*
X226054000Y-68446000D02*
X249705210Y-68446000D01*
X237200000Y-69300000D02*
X237800000Y-68700000D01*
X260515500Y-79615500D02*
X267484500Y-79615500D01*
X249600000Y-68700000D02*
X260515500Y-79615500D01*
X237800000Y-68700000D02*
X249600000Y-68700000D01*
X249200000Y-69300000D02*
X260100000Y-80200000D01*
X260100000Y-80200000D02*
X264600000Y-80200000D01*
X251774710Y-80615500D02*
X267484500Y-80615500D01*
X250335210Y-79176000D02*
X251774710Y-80615500D01*
X167324000Y-79176000D02*
X250335210Y-79176000D01*
X165200000Y-81300000D02*
X167324000Y-79176000D01*
X179070000Y-79430000D02*
X250230000Y-79430000D01*
X251900000Y-81100000D02*
X264700000Y-81100000D01*
X177200000Y-81300000D02*
X179070000Y-79430000D01*
X250230000Y-79430000D02*
X251900000Y-81100000D01*
X250120840Y-79684000D02*
X252282840Y-81846000D01*
X190816000Y-79684000D02*
X250120840Y-79684000D01*
X263554000Y-81846000D02*
X263784500Y-81615500D01*
X189200000Y-81300000D02*
X190816000Y-79684000D01*
X252282840Y-81846000D02*
X263554000Y-81846000D01*
X263784500Y-81615500D02*
X267584500Y-81615500D01*
X202562000Y-79938000D02*
X250015630Y-79938000D01*
X250015630Y-79938000D02*
X252177630Y-82100000D01*
X201200000Y-81300000D02*
X202562000Y-79938000D01*
X252177630Y-82100000D02*
X264600000Y-82100000D01*
X213200000Y-81300000D02*
X214308000Y-80192000D01*
X252333920Y-82615500D02*
X267484500Y-82615500D01*
X214308000Y-80192000D02*
X249910420Y-80192000D01*
X249910420Y-80192000D02*
X252333920Y-82615500D01*
X249805210Y-80446000D02*
X252459210Y-83100000D01*
X225200000Y-81300000D02*
X226054000Y-80446000D01*
X226054000Y-80446000D02*
X249805210Y-80446000D01*
X252459210Y-83100000D02*
X264700000Y-83100000D01*
X237800000Y-80700000D02*
X249700000Y-80700000D01*
X249700000Y-80700000D02*
X249700000Y-80740790D01*
X249700000Y-80740790D02*
X252593710Y-83634500D01*
X237200000Y-81300000D02*
X237800000Y-80700000D01*
X252593710Y-83634500D02*
X267565500Y-83634500D01*
X252700000Y-84100000D02*
X264600000Y-84100000D01*
X249900000Y-81300000D02*
X252700000Y-84100000D01*
X249200000Y-81300000D02*
X249900000Y-81300000D01*
X256609530Y-91176000D02*
X263170030Y-84615500D01*
X263170030Y-84615500D02*
X267584500Y-84615500D01*
X167324000Y-91176000D02*
X256609530Y-91176000D01*
X165200000Y-93300000D02*
X167324000Y-91176000D01*
X256714740Y-91430000D02*
X263044740Y-85100000D01*
X263044740Y-85100000D02*
X264700000Y-85100000D01*
X179070000Y-91430000D02*
X256714740Y-91430000D01*
X177200000Y-93300000D02*
X179070000Y-91430000D01*
X262869450Y-85634500D02*
X267565500Y-85634500D01*
X189200000Y-93300000D02*
X190816000Y-91684000D01*
X256819950Y-91684000D02*
X262869450Y-85634500D01*
X190816000Y-91684000D02*
X256819950Y-91684000D01*
X256925160Y-91938000D02*
X262763160Y-86100000D01*
X262763160Y-86100000D02*
X264700000Y-86100000D01*
X201200000Y-93300000D02*
X202562000Y-91938000D01*
X202562000Y-91938000D02*
X256925160Y-91938000D01*
X262606870Y-86615500D02*
X267484500Y-86615500D01*
X213200000Y-93300000D02*
X214308000Y-92192000D01*
X257030370Y-92192000D02*
X262606870Y-86615500D01*
X214308000Y-92192000D02*
X257030370Y-92192000D01*
X225200000Y-93300000D02*
X226054000Y-92446000D01*
X257135580Y-92446000D02*
X262481580Y-87100000D01*
X262481580Y-87100000D02*
X264700000Y-87100000D01*
X226054000Y-92446000D02*
X257135580Y-92446000D01*
X262325290Y-87615500D02*
X267584500Y-87615500D01*
X237200000Y-93300000D02*
X237800000Y-92700000D01*
X237800000Y-92700000D02*
X257240790Y-92700000D01*
X257240790Y-92700000D02*
X262325290Y-87615500D01*
X262100000Y-88200000D02*
X264800000Y-88200000D01*
X257000000Y-93300000D02*
X262100000Y-88200000D01*
X249200000Y-93300000D02*
X257000000Y-93300000D01*
X55118420Y-76200000D02*
X53000000Y-76200000D01*
X69200000Y-69300000D02*
X62018420Y-69300000D01*
X62018420Y-69300000D02*
X55118420Y-76200000D01*
X80500000Y-70000000D02*
X61677630Y-70000000D01*
X81200000Y-69300000D02*
X80500000Y-70000000D01*
X61677630Y-70000000D02*
X54918130Y-76759500D01*
X54918130Y-76759500D02*
X50140500Y-76759500D01*
X93200000Y-69300000D02*
X92200000Y-70300000D01*
X61736840Y-70300000D02*
X54736840Y-77300000D01*
X92200000Y-70300000D02*
X61736840Y-70300000D01*
X54736840Y-77300000D02*
X53000000Y-77300000D01*
X54636550Y-77759500D02*
X50140500Y-77759500D01*
X105200000Y-69300000D02*
X103946000Y-70554000D01*
X103946000Y-70554000D02*
X61842050Y-70554000D01*
X61842050Y-70554000D02*
X54636550Y-77759500D01*
X61947260Y-70808000D02*
X54555260Y-78200000D01*
X117200000Y-69300000D02*
X115692000Y-70808000D01*
X54555260Y-78200000D02*
X53100000Y-78200000D01*
X115692000Y-70808000D02*
X61947260Y-70808000D01*
X127400000Y-71100000D02*
X62014470Y-71100000D01*
X129200000Y-69300000D02*
X127400000Y-71100000D01*
X62014470Y-71100000D02*
X54354970Y-78759500D01*
X54354970Y-78759500D02*
X50159500Y-78759500D01*
X54273680Y-79200000D02*
X53000000Y-79200000D01*
X141200000Y-69300000D02*
X139100000Y-71400000D01*
X62073680Y-71400000D02*
X54273680Y-79200000D01*
X139100000Y-71400000D02*
X62073680Y-71400000D01*
X54073390Y-79759500D02*
X50159500Y-79759500D01*
X62178890Y-71654000D02*
X54073390Y-79759500D01*
X136354000Y-71654000D02*
X62178890Y-71654000D01*
X150800000Y-71700000D02*
X136400000Y-71700000D01*
X136400000Y-71700000D02*
X136354000Y-71654000D01*
X153200000Y-69300000D02*
X150800000Y-71700000D01*
X69200000Y-81300000D02*
X61300000Y-81300000D01*
X61300000Y-81300000D02*
X60200000Y-80200000D01*
X60200000Y-80200000D02*
X52900000Y-80200000D01*
X61540790Y-81900000D02*
X60400290Y-80759500D01*
X50240500Y-80759500D02*
X50200000Y-80800000D01*
X60400290Y-80759500D02*
X50240500Y-80759500D01*
X81200000Y-81300000D02*
X80600000Y-81900000D01*
X80600000Y-81900000D02*
X61540790Y-81900000D01*
X92346000Y-82154000D02*
X61435580Y-82154000D01*
X60481580Y-81200000D02*
X53000000Y-81200000D01*
X93200000Y-81300000D02*
X92346000Y-82154000D01*
X61435580Y-82154000D02*
X60481580Y-81200000D01*
X60681870Y-81759500D02*
X50159500Y-81759500D01*
X104092000Y-82408000D02*
X61330370Y-82408000D01*
X105200000Y-81300000D02*
X104092000Y-82408000D01*
X61330370Y-82408000D02*
X60681870Y-81759500D01*
X60831580Y-82268420D02*
X53031580Y-82268420D01*
X103262000Y-82662000D02*
X61225160Y-82662000D01*
X117200000Y-81300000D02*
X115800000Y-82700000D01*
X115800000Y-82700000D02*
X103300000Y-82700000D01*
X103300000Y-82700000D02*
X103262000Y-82662000D01*
X61225160Y-82662000D02*
X60831580Y-82268420D01*
X101338000Y-82954000D02*
X101300000Y-82916000D01*
X129200000Y-81300000D02*
X127546000Y-82954000D01*
X61116000Y-82916000D02*
X60800000Y-82600000D01*
X60800000Y-82600000D02*
X60659500Y-82740500D01*
X101300000Y-82916000D02*
X61116000Y-82916000D01*
X127546000Y-82954000D02*
X101338000Y-82954000D01*
X60659500Y-82740500D02*
X50140500Y-82740500D01*
X141200000Y-81300000D02*
X139292000Y-83208000D01*
X139292000Y-83208000D02*
X53108000Y-83208000D01*
X53108000Y-83208000D02*
X53100000Y-83200000D01*
X54338000Y-83462000D02*
X54000000Y-83800000D01*
X153200000Y-81300000D02*
X151038000Y-83462000D01*
X151038000Y-83462000D02*
X54338000Y-83462000D01*
X53959500Y-83759500D02*
X50159500Y-83759500D01*
X54000000Y-83800000D02*
X53959500Y-83759500D01*
X69200000Y-93300000D02*
X64900000Y-93300000D01*
X64900000Y-93300000D02*
X59700000Y-88100000D01*
X59700000Y-85400000D02*
X58600000Y-84300000D01*
X58600000Y-84300000D02*
X53000000Y-84300000D01*
X59700000Y-88100000D02*
X59700000Y-85400000D01*
X58700290Y-84759500D02*
X50159500Y-84759500D01*
X81200000Y-93300000D02*
X80600000Y-93900000D01*
X80600000Y-93900000D02*
X65140790Y-93900000D01*
X65140790Y-93900000D02*
X59446000Y-88205210D01*
X59446000Y-88205210D02*
X59446000Y-85505210D01*
X59446000Y-85505210D02*
X58700290Y-84759500D01*
X93200000Y-93300000D02*
X92346000Y-94154000D01*
X58881580Y-85300000D02*
X53000000Y-85300000D01*
X59192000Y-85610420D02*
X58881580Y-85300000D01*
X59192000Y-88310420D02*
X59192000Y-85610420D01*
X92346000Y-94154000D02*
X65035580Y-94154000D01*
X65035580Y-94154000D02*
X59192000Y-88310420D01*
X58938000Y-87000000D02*
X57697500Y-85759500D01*
X64930370Y-94408000D02*
X58938000Y-88415630D01*
X105200000Y-93300000D02*
X104092000Y-94408000D01*
X57697500Y-85759500D02*
X50240500Y-85759500D01*
X58938000Y-88415630D02*
X58938000Y-87000000D01*
X104092000Y-94408000D02*
X64930370Y-94408000D01*
X50240500Y-85759500D02*
X50200000Y-85800000D01*
X115838000Y-94662000D02*
X64825160Y-94662000D01*
X117200000Y-93300000D02*
X115838000Y-94662000D01*
X64825160Y-94662000D02*
X58684000Y-88520840D01*
X58684000Y-87105210D02*
X57878790Y-86300000D01*
X58684000Y-88520840D02*
X58684000Y-87105210D01*
X57878790Y-86300000D02*
X53000000Y-86300000D01*
X58430000Y-88626050D02*
X58430000Y-87210420D01*
X129200000Y-93300000D02*
X127584000Y-94916000D01*
X127584000Y-94916000D02*
X64719950Y-94916000D01*
X57979080Y-86759500D02*
X50359500Y-86759500D01*
X50359500Y-86759500D02*
X50300000Y-86700000D01*
X58430000Y-87210420D02*
X57979080Y-86759500D01*
X64719950Y-94916000D02*
X58430000Y-88626050D01*
X57976000Y-87200000D02*
X52900000Y-87200000D01*
X58176000Y-88731260D02*
X58176000Y-87400000D01*
X58176000Y-87400000D02*
X57976000Y-87200000D01*
X139330000Y-95170000D02*
X64614740Y-95170000D01*
X64614740Y-95170000D02*
X58176000Y-88731260D01*
X141200000Y-93300000D02*
X139330000Y-95170000D01*
X151076000Y-95424000D02*
X64509530Y-95424000D01*
X153200000Y-93300000D02*
X151076000Y-95424000D01*
X56885530Y-87800000D02*
X50200000Y-87800000D01*
X64509530Y-95424000D02*
X56885530Y-87800000D01*
M02*
