M48
; DRILL file {KiCad 6.0.8+dfsg-1~bpo11+1} date Fri 24 Mar 2023 06:57:55 PM EDT
; FORMAT={-:-/ absolute / metric / decimal}
; #@! TF.CreationDate,2023-03-24T18:57:55-04:00
; #@! TF.GenerationSoftware,Kicad,Pcbnew,6.0.8+dfsg-1~bpo11+1
; #@! TF.FileFunction,Plated,1,2,PTH
FMAT,2
METRIC
; #@! TA.AperFunction,Plated,PTH,ViaDrill
T1C0.200
%
G90
G05
T1
X66.125Y-58.075
X66.125Y-64.075
X66.125Y-70.075
X66.125Y-76.075
X66.125Y-82.075
X66.125Y-88.075
X66.125Y-94.075
X66.125Y-100.075
X66.125Y-101.75
X72.125Y-58.075
X72.125Y-64.075
X72.125Y-70.075
X72.125Y-76.075
X72.125Y-82.075
X72.125Y-88.075
X72.125Y-94.075
X72.125Y-100.075
X72.125Y-101.75
X78.125Y-58.075
X78.125Y-64.075
X78.125Y-70.075
X78.125Y-76.075
X78.125Y-82.075
X78.125Y-88.075
X78.125Y-94.075
X78.125Y-100.075
X78.125Y-101.75
X84.125Y-58.075
X84.125Y-64.075
X84.125Y-70.075
X84.125Y-76.075
X84.125Y-82.075
X84.125Y-88.075
X84.125Y-94.075
X84.125Y-100.075
X84.125Y-101.75
X90.125Y-58.075
X90.125Y-64.075
X90.125Y-70.075
X90.125Y-76.075
X90.125Y-82.075
X90.125Y-88.075
X90.125Y-94.075
X90.125Y-100.075
X90.125Y-101.75
X96.125Y-58.075
X96.125Y-64.075
X96.125Y-70.075
X96.125Y-76.075
X96.125Y-82.075
X96.125Y-88.075
X96.125Y-94.075
X96.125Y-100.075
X96.125Y-101.75
X102.125Y-58.075
X102.125Y-64.075
X102.125Y-70.075
X102.125Y-76.075
X102.125Y-82.075
X102.125Y-88.075
X102.125Y-94.075
X102.125Y-100.075
X102.125Y-101.75
X108.125Y-58.075
X108.125Y-64.075
X108.125Y-70.075
X108.125Y-76.075
X108.125Y-82.075
X108.125Y-88.075
X108.125Y-94.075
X108.125Y-100.075
X108.125Y-101.75
X114.125Y-58.075
X114.125Y-64.075
X114.125Y-70.075
X114.125Y-76.075
X114.125Y-82.075
X114.125Y-88.075
X114.125Y-94.075
X114.125Y-100.075
X114.125Y-101.75
X120.125Y-58.075
X120.125Y-64.075
X120.125Y-70.075
X120.125Y-76.075
X120.125Y-82.075
X120.125Y-88.075
X120.125Y-94.075
X120.125Y-100.075
X120.125Y-101.75
X126.125Y-58.075
X126.125Y-64.075
X126.125Y-70.075
X126.125Y-76.075
X126.125Y-82.075
X126.125Y-88.075
X126.125Y-94.075
X126.125Y-100.075
X126.125Y-101.75
X132.125Y-58.075
X132.125Y-64.075
X132.125Y-70.075
X132.125Y-76.075
X132.125Y-82.075
X132.125Y-88.075
X132.125Y-94.075
X132.125Y-100.075
X132.125Y-101.75
X138.125Y-58.075
X138.125Y-64.075
X138.125Y-70.075
X138.125Y-76.075
X138.125Y-82.075
X138.125Y-88.075
X138.125Y-94.075
X138.125Y-100.075
X138.125Y-101.75
X144.125Y-58.075
X144.125Y-64.075
X144.125Y-70.075
X144.125Y-76.075
X144.125Y-82.075
X144.125Y-88.075
X144.125Y-94.075
X144.125Y-100.075
X144.125Y-101.75
X150.125Y-58.075
X150.125Y-64.075
X150.125Y-70.075
X150.125Y-76.075
X150.125Y-82.075
X150.125Y-88.075
X150.125Y-94.075
X150.125Y-100.075
X150.125Y-101.75
X156.125Y-58.075
X156.125Y-64.075
X156.125Y-70.075
X156.125Y-76.075
X156.125Y-82.075
X156.125Y-88.075
X156.125Y-94.075
X156.125Y-100.075
X156.125Y-101.75
X162.125Y-58.075
X162.125Y-64.075
X162.125Y-70.075
X162.125Y-76.075
X162.125Y-82.075
X162.125Y-88.075
X162.125Y-94.075
X162.125Y-100.075
X162.125Y-101.75
X168.125Y-58.075
X168.125Y-64.075
X168.125Y-70.075
X168.125Y-76.075
X168.125Y-82.075
X168.125Y-88.075
X168.125Y-94.075
X168.125Y-100.075
X168.125Y-101.75
X174.125Y-58.075
X174.125Y-64.075
X174.125Y-70.075
X174.125Y-76.075
X174.125Y-82.075
X174.125Y-88.075
X174.125Y-94.075
X174.125Y-100.075
X174.125Y-101.75
X180.125Y-58.075
X180.125Y-64.075
X180.125Y-70.075
X180.125Y-76.075
X180.125Y-82.075
X180.125Y-88.075
X180.125Y-94.075
X180.125Y-100.075
X180.125Y-101.75
X186.125Y-58.075
X186.125Y-64.075
X186.125Y-70.075
X186.125Y-76.075
X186.125Y-82.075
X186.125Y-88.075
X186.125Y-94.075
X186.125Y-100.075
X186.125Y-101.75
X192.125Y-58.075
X192.125Y-64.075
X192.125Y-70.075
X192.125Y-76.075
X192.125Y-82.075
X192.125Y-88.075
X192.125Y-94.075
X192.125Y-100.075
X192.125Y-101.75
X198.125Y-58.075
X198.125Y-64.075
X198.125Y-70.075
X198.125Y-76.075
X198.125Y-82.075
X198.125Y-88.075
X198.125Y-94.075
X198.125Y-100.075
X198.125Y-101.75
X204.125Y-58.075
X204.125Y-64.075
X204.125Y-70.075
X204.125Y-76.075
X204.125Y-82.075
X204.125Y-88.075
X204.125Y-94.075
X204.125Y-100.075
X204.125Y-101.75
X210.125Y-58.075
X210.125Y-64.075
X210.125Y-70.075
X210.125Y-76.075
X210.125Y-82.075
X210.125Y-88.075
X210.125Y-94.075
X210.125Y-100.075
X210.125Y-101.75
X216.125Y-58.075
X216.125Y-64.075
X216.125Y-70.075
X216.125Y-76.075
X216.125Y-82.075
X216.125Y-88.075
X216.125Y-94.075
X216.125Y-100.075
X216.125Y-101.75
X222.125Y-58.075
X222.125Y-64.075
X222.125Y-70.075
X222.125Y-76.075
X222.125Y-82.075
X222.125Y-88.075
X222.125Y-94.075
X222.125Y-100.075
X222.125Y-101.75
X228.125Y-58.075
X228.125Y-64.075
X228.125Y-70.075
X228.125Y-76.075
X228.125Y-82.075
X228.125Y-88.075
X228.125Y-94.075
X228.125Y-100.075
X228.125Y-101.75
X234.125Y-58.075
X234.125Y-64.075
X234.125Y-70.075
X234.125Y-76.075
X234.125Y-82.075
X234.125Y-88.075
X234.125Y-94.075
X234.125Y-100.075
X234.125Y-101.75
X240.125Y-58.075
X240.125Y-64.075
X240.125Y-70.075
X240.125Y-76.075
X240.125Y-82.075
X240.125Y-88.075
X240.125Y-94.075
X240.125Y-100.075
X240.125Y-101.75
X246.125Y-58.075
X246.125Y-64.075
X246.125Y-70.075
X246.125Y-76.075
X246.125Y-82.075
X246.125Y-88.075
X246.125Y-94.075
X246.125Y-100.075
X246.125Y-101.75
X252.125Y-58.075
X252.125Y-64.075
X252.125Y-70.075
X252.125Y-76.075
X252.125Y-82.075
X252.125Y-88.075
X252.125Y-94.075
X252.125Y-100.075
X252.125Y-101.75
X255.05Y-58.9
X255.05Y-64.9
X255.05Y-70.9
X255.05Y-76.9
X255.05Y-82.9
X255.05Y-88.9
X255.05Y-94.9
X255.05Y-100.9
T0
M30
