G04 #@! TF.GenerationSoftware,KiCad,Pcbnew,6.0.8+dfsg-1~bpo11+1*
G04 #@! TF.CreationDate,2023-03-24T18:59:51-04:00*
G04 #@! TF.ProjectId,captouch_sensor_baseline,63617074-6f75-4636-985f-73656e736f72,rev?*
G04 #@! TF.SameCoordinates,Original*
G04 #@! TF.FileFunction,Copper,L1,Top*
G04 #@! TF.FilePolarity,Positive*
%FSLAX46Y46*%
G04 Gerber Fmt 4.6, Leading zero omitted, Abs format (unit mm)*
G04 Created by KiCad (PCBNEW 6.0.8+dfsg-1~bpo11+1) date 2023-03-24 18:59:51*
%MOMM*%
%LPD*%
G01*
G04 APERTURE LIST*
G04 Aperture macros list*
%AMFreePoly0*
4,1,595,192.095671,0.230970,192.176777,0.176777,192.230970,0.095671,192.250001,0.000000,192.250001,-4.500000,192.230970,-4.595671,192.176777,-4.676777,192.095671,-4.730970,192.000000,-4.750001,191.904329,-4.730970,191.823221,-4.676774,189.573223,-2.426777,189.538627,-2.375000,188.461373,-2.375000,188.426774,-2.426779,186.176777,-4.676777,186.095671,-4.730970,186.000000,-4.750001,185.904329,-4.730970,185.823221,-4.676774,
183.573223,-2.426777,183.538627,-2.375000,182.461373,-2.375000,182.426774,-2.426779,180.176777,-4.676777,180.095671,-4.730970,180.000000,-4.750001,179.904329,-4.730970,179.823221,-4.676774,177.573223,-2.426777,177.538627,-2.375000,176.461373,-2.375000,176.426774,-2.426779,174.176777,-4.676777,174.095671,-4.730970,174.000000,-4.750001,173.904329,-4.730970,173.823221,-4.676774,171.573223,-2.426777,171.538627,-2.375000,
170.461373,-2.375000,170.426774,-2.426779,168.176777,-4.676777,168.095671,-4.730970,168.000000,-4.750001,167.904329,-4.730970,167.823221,-4.676774,165.573223,-2.426777,165.538627,-2.375000,164.461373,-2.375000,164.426774,-2.426779,162.176777,-4.676777,162.095671,-4.730970,162.000000,-4.750001,161.904329,-4.730970,161.823221,-4.676774,159.573223,-2.426777,159.538627,-2.375000,158.461373,-2.375000,158.426774,-2.426779,
156.176777,-4.676777,156.095671,-4.730970,156.000000,-4.750001,155.904329,-4.730970,155.823221,-4.676774,153.573223,-2.426777,153.538627,-2.375000,152.461373,-2.375000,152.426774,-2.426779,150.176777,-4.676777,150.095671,-4.730970,150.000000,-4.750001,149.904329,-4.730970,149.823221,-4.676774,147.573223,-2.426777,147.538627,-2.375000,146.461373,-2.375000,146.426774,-2.426779,144.176777,-4.676777,144.095671,-4.730970,
144.000000,-4.750001,143.904329,-4.730970,143.823221,-4.676774,141.573223,-2.426777,141.538627,-2.375000,140.461373,-2.375000,140.426774,-2.426779,138.176777,-4.676777,138.095671,-4.730970,138.000000,-4.750001,137.904329,-4.730970,137.823221,-4.676774,135.573223,-2.426777,135.538627,-2.375000,134.461373,-2.375000,134.426774,-2.426779,132.176777,-4.676777,132.095671,-4.730970,132.000000,-4.750001,131.904329,-4.730970,
131.823221,-4.676774,129.573223,-2.426777,129.538627,-2.375000,128.461373,-2.375000,128.426774,-2.426779,126.176777,-4.676777,126.095671,-4.730970,126.000000,-4.750001,125.904329,-4.730970,125.823221,-4.676774,123.573223,-2.426777,123.538627,-2.375000,122.461373,-2.375000,122.426774,-2.426779,120.176777,-4.676777,120.095671,-4.730970,120.000000,-4.750001,119.904329,-4.730970,119.823221,-4.676774,117.573223,-2.426777,
117.538627,-2.375000,116.461373,-2.375000,116.426774,-2.426779,114.176777,-4.676777,114.095671,-4.730970,114.000000,-4.750001,113.904329,-4.730970,113.823221,-4.676774,111.573223,-2.426777,111.538627,-2.375000,110.461373,-2.375000,110.426774,-2.426779,108.176777,-4.676777,108.095671,-4.730970,108.000000,-4.750001,107.904329,-4.730970,107.823221,-4.676774,105.573223,-2.426777,105.538627,-2.375000,104.461373,-2.375000,
104.426774,-2.426779,102.176777,-4.676777,102.095671,-4.730970,102.000000,-4.750001,101.904329,-4.730970,101.823221,-4.676774,99.573223,-2.426777,99.538627,-2.375000,98.461373,-2.375000,98.426774,-2.426779,96.176777,-4.676777,96.095671,-4.730970,96.000000,-4.750001,95.904329,-4.730970,95.823221,-4.676774,93.573223,-2.426777,93.538627,-2.375000,92.461373,-2.375000,92.426774,-2.426779,90.176777,-4.676777,
90.095671,-4.730970,90.000000,-4.750001,89.904329,-4.730970,89.823221,-4.676774,87.573223,-2.426777,87.538627,-2.375000,86.461373,-2.375000,86.426774,-2.426779,84.176777,-4.676777,84.095671,-4.730970,84.000000,-4.750001,83.904329,-4.730970,83.823221,-4.676774,81.573223,-2.426777,81.538627,-2.375000,80.461373,-2.375000,80.426774,-2.426779,78.176777,-4.676777,78.095671,-4.730970,78.000000,-4.750001,
77.904329,-4.730970,77.823221,-4.676774,75.573223,-2.426777,75.538627,-2.375000,74.461373,-2.375000,74.426774,-2.426779,72.176777,-4.676777,72.095671,-4.730970,72.000000,-4.750001,71.904329,-4.730970,71.823221,-4.676774,69.573223,-2.426777,69.538627,-2.375000,68.461373,-2.375000,68.426774,-2.426779,66.176777,-4.676777,66.095671,-4.730970,66.000000,-4.750001,65.904329,-4.730970,65.823221,-4.676774,
63.573223,-2.426777,63.538627,-2.375000,62.461373,-2.375000,62.426774,-2.426779,60.176777,-4.676777,60.095671,-4.730970,60.000000,-4.750001,59.904329,-4.730970,59.823221,-4.676774,57.573223,-2.426777,57.538627,-2.375000,56.461373,-2.375000,56.426774,-2.426779,54.176777,-4.676777,54.095671,-4.730970,54.000000,-4.750001,53.904329,-4.730970,53.823221,-4.676774,51.573223,-2.426777,51.538627,-2.375000,
50.461373,-2.375000,50.426774,-2.426779,48.176777,-4.676777,48.095671,-4.730970,48.000000,-4.750001,47.904329,-4.730970,47.823221,-4.676774,45.573223,-2.426777,45.538627,-2.375000,44.461373,-2.375000,44.426774,-2.426779,42.176777,-4.676777,42.095671,-4.730970,42.000000,-4.750001,41.904329,-4.730970,41.823221,-4.676774,39.573223,-2.426777,39.538627,-2.375000,38.461373,-2.375000,38.426774,-2.426779,
36.176777,-4.676777,36.095671,-4.730970,36.000000,-4.750001,35.904329,-4.730970,35.823221,-4.676774,33.573223,-2.426777,33.538627,-2.375000,32.461373,-2.375000,32.426774,-2.426779,30.176777,-4.676777,30.095671,-4.730970,30.000000,-4.750001,29.904329,-4.730970,29.823221,-4.676774,27.573223,-2.426777,27.538627,-2.375000,26.461373,-2.375000,26.426774,-2.426779,24.176777,-4.676777,24.095671,-4.730970,
24.000000,-4.750001,23.904329,-4.730970,23.823221,-4.676774,21.573223,-2.426777,21.538627,-2.375000,20.461373,-2.375000,20.426774,-2.426779,18.176777,-4.676777,18.095671,-4.730970,18.000000,-4.750001,17.904329,-4.730970,17.823221,-4.676774,15.573223,-2.426777,15.538627,-2.375000,14.461373,-2.375000,14.426774,-2.426779,12.176777,-4.676777,12.095671,-4.730970,12.000000,-4.750001,11.904329,-4.730970,
11.823221,-4.676774,9.573223,-2.426777,9.538627,-2.375000,8.461373,-2.375000,8.426774,-2.426779,6.176777,-4.676777,6.095671,-4.730970,6.000000,-4.750001,5.904329,-4.730970,5.823221,-4.676774,3.573223,-2.426777,3.538627,-2.375000,2.461373,-2.375000,2.426774,-2.426779,0.176777,-4.676777,0.095671,-4.730970,0.000000,-4.750000,-0.095671,-4.730970,-0.176777,-4.676777,-0.230970,-4.595671,
-0.250000,-4.500000,-0.250000,0.000000,-0.230970,0.095671,-0.176777,0.176777,-0.095671,0.230970,0.000000,0.250000,0.095671,0.230970,0.176777,0.176777,2.426777,-2.073223,2.461373,-2.125000,3.538627,-2.125000,3.573223,-2.073223,5.823223,0.176777,5.904329,0.230970,6.000000,0.250001,6.095671,0.230970,6.176777,0.176777,8.426777,-2.073223,8.461373,-2.125000,9.538627,-2.125000,
9.573223,-2.073223,11.823223,0.176777,11.904329,0.230970,12.000000,0.250001,12.095671,0.230970,12.176777,0.176777,14.426777,-2.073223,14.461373,-2.125000,15.538627,-2.125000,15.573223,-2.073223,17.823223,0.176777,17.904329,0.230970,18.000000,0.250001,18.095671,0.230970,18.176777,0.176777,20.426777,-2.073223,20.461373,-2.125000,21.538627,-2.125000,21.573223,-2.073223,23.823223,0.176777,
23.904329,0.230970,24.000000,0.250001,24.095671,0.230970,24.176777,0.176777,26.426777,-2.073223,26.461373,-2.125000,27.538627,-2.125000,27.573223,-2.073223,29.823223,0.176777,29.904329,0.230970,30.000000,0.250001,30.095671,0.230970,30.176777,0.176777,32.426777,-2.073223,32.461373,-2.125000,33.538627,-2.125000,33.573223,-2.073223,35.823223,0.176777,35.904329,0.230970,36.000000,0.250001,
36.095671,0.230970,36.176777,0.176777,38.426777,-2.073223,38.461373,-2.125000,39.538627,-2.125000,39.573223,-2.073223,41.823223,0.176777,41.904329,0.230970,42.000000,0.250001,42.095671,0.230970,42.176777,0.176777,44.426777,-2.073223,44.461373,-2.125000,45.538627,-2.125000,45.573223,-2.073223,47.823223,0.176777,47.904329,0.230970,48.000000,0.250001,48.095671,0.230970,48.176777,0.176777,
50.426777,-2.073223,50.461373,-2.125000,51.538627,-2.125000,51.573223,-2.073223,53.823223,0.176777,53.904329,0.230970,54.000000,0.250001,54.095671,0.230970,54.176777,0.176777,56.426777,-2.073223,56.461373,-2.125000,57.538627,-2.125000,57.573223,-2.073223,59.823223,0.176777,59.904329,0.230970,60.000000,0.250001,60.095671,0.230970,60.176777,0.176777,62.426777,-2.073223,62.461373,-2.125000,
63.538627,-2.125000,63.573223,-2.073223,65.823223,0.176777,65.904329,0.230970,66.000000,0.250001,66.095671,0.230970,66.176777,0.176777,68.426777,-2.073223,68.461373,-2.125000,69.538627,-2.125000,69.573223,-2.073223,71.823223,0.176777,71.904329,0.230970,72.000000,0.250001,72.095671,0.230970,72.176777,0.176777,74.426777,-2.073223,74.461373,-2.125000,75.538627,-2.125000,75.573223,-2.073223,
77.823223,0.176777,77.904329,0.230970,78.000000,0.250001,78.095671,0.230970,78.176777,0.176777,80.426777,-2.073223,80.461373,-2.125000,81.538627,-2.125000,81.573223,-2.073223,83.823223,0.176777,83.904329,0.230970,84.000000,0.250001,84.095671,0.230970,84.176777,0.176777,86.426777,-2.073223,86.461373,-2.125000,87.538627,-2.125000,87.573223,-2.073223,89.823223,0.176777,89.904329,0.230970,
90.000000,0.250001,90.095671,0.230970,90.176777,0.176777,92.426777,-2.073223,92.461373,-2.125000,93.538627,-2.125000,93.573223,-2.073223,95.823223,0.176777,95.904329,0.230970,96.000000,0.250001,96.095671,0.230970,96.176777,0.176777,98.426777,-2.073223,98.461373,-2.125000,99.538627,-2.125000,99.573223,-2.073223,101.823223,0.176777,101.904329,0.230970,102.000000,0.250001,102.095671,0.230970,
102.176777,0.176777,104.426777,-2.073223,104.461373,-2.125000,105.538627,-2.125000,105.573223,-2.073223,107.823223,0.176777,107.904329,0.230970,108.000000,0.250001,108.095671,0.230970,108.176777,0.176777,110.426777,-2.073223,110.461373,-2.125000,111.538627,-2.125000,111.573223,-2.073223,113.823223,0.176777,113.904329,0.230970,114.000000,0.250001,114.095671,0.230970,114.176777,0.176777,116.426777,-2.073223,
116.461373,-2.125000,117.538627,-2.125000,117.573223,-2.073223,119.823223,0.176777,119.904329,0.230970,120.000000,0.250001,120.095671,0.230970,120.176777,0.176777,122.426777,-2.073223,122.461373,-2.125000,123.538627,-2.125000,123.573223,-2.073223,125.823223,0.176777,125.904329,0.230970,126.000000,0.250001,126.095671,0.230970,126.176777,0.176777,128.426777,-2.073223,128.461373,-2.125000,129.538627,-2.125000,
129.573223,-2.073223,131.823223,0.176777,131.904329,0.230970,132.000000,0.250001,132.095671,0.230970,132.176777,0.176777,134.426777,-2.073223,134.461373,-2.125000,135.538627,-2.125000,135.573223,-2.073223,137.823223,0.176777,137.904329,0.230970,138.000000,0.250001,138.095671,0.230970,138.176777,0.176777,140.426777,-2.073223,140.461373,-2.125000,141.538627,-2.125000,141.573223,-2.073223,143.823223,0.176777,
143.904329,0.230970,144.000000,0.250001,144.095671,0.230970,144.176777,0.176777,146.426777,-2.073223,146.461373,-2.125000,147.538627,-2.125000,147.573223,-2.073223,149.823223,0.176777,149.904329,0.230970,150.000000,0.250001,150.095671,0.230970,150.176777,0.176777,152.426777,-2.073223,152.461373,-2.125000,153.538627,-2.125000,153.573223,-2.073223,155.823223,0.176777,155.904329,0.230970,156.000000,0.250001,
156.095671,0.230970,156.176777,0.176777,158.426777,-2.073223,158.461373,-2.125000,159.538627,-2.125000,159.573223,-2.073223,161.823223,0.176777,161.904329,0.230970,162.000000,0.250001,162.095671,0.230970,162.176777,0.176777,164.426777,-2.073223,164.461373,-2.125000,165.538627,-2.125000,165.573223,-2.073223,167.823223,0.176777,167.904329,0.230970,168.000000,0.250001,168.095671,0.230970,168.176777,0.176777,
170.426777,-2.073223,170.461373,-2.125000,171.538627,-2.125000,171.573223,-2.073223,173.823223,0.176777,173.904329,0.230970,174.000000,0.250001,174.095671,0.230970,174.176777,0.176777,176.426777,-2.073223,176.461373,-2.125000,177.538627,-2.125000,177.573223,-2.073223,179.823223,0.176777,179.904329,0.230970,180.000000,0.250001,180.095671,0.230970,180.176777,0.176777,182.426777,-2.073223,182.461373,-2.125000,
183.538627,-2.125000,183.573223,-2.073223,185.823223,0.176777,185.904329,0.230970,186.000000,0.250001,186.095671,0.230970,186.176777,0.176777,188.426777,-2.073223,188.461373,-2.125000,189.538627,-2.125000,189.573223,-2.073223,191.823223,0.176777,191.904329,0.230970,192.000000,0.250001,192.095671,0.230970,192.095671,0.230970,$1*%
%AMFreePoly1*
4,1,20,-2.154329,-45.519030,-2.073223,-45.573223,0.176777,-47.823223,0.230970,-47.904330,0.250001,-48.000000,0.230970,-48.095671,0.176777,-48.176777,0.095671,-48.230970,0.000000,-48.250001,-4.500000,-48.250000,-4.595671,-48.230970,-4.676777,-48.176777,-4.730970,-48.095671,-4.750000,-48.000000,-4.730970,-47.904329,-4.676777,-47.823223,-2.426777,-45.573223,-2.345671,-45.519030,-2.250000,-45.499999,-2.154329,-45.519030,
-2.154329,-45.519030,$1*%
%AMFreePoly2*
4,1,21,-2.154329,-39.519030,-2.073223,-39.573223,0.176777,-41.823223,0.230970,-41.904330,0.250001,-42.000000,0.230970,-42.095671,0.176774,-42.176779,-2.073223,-44.426777,-2.154329,-44.480970,-2.250000,-44.500001,-2.345671,-44.480970,-2.426779,-44.426774,-4.676777,-42.176777,-4.730970,-42.095671,-4.750000,-42.000000,-4.730970,-41.904329,-4.676777,-41.823223,-2.426777,-39.573223,-2.345671,-39.519030,-2.250000,-39.499999,
-2.154329,-39.519030,-2.154329,-39.519030,$1*%
%AMFreePoly3*
4,1,21,-2.154329,-33.519030,-2.073223,-33.573223,0.176777,-35.823223,0.230970,-35.904330,0.250001,-36.000000,0.230970,-36.095671,0.176774,-36.176779,-2.073223,-38.426777,-2.154329,-38.480970,-2.250000,-38.500001,-2.345671,-38.480970,-2.426779,-38.426774,-4.676777,-36.176777,-4.730970,-36.095671,-4.750000,-36.000000,-4.730970,-35.904329,-4.676777,-35.823223,-2.426777,-33.573223,-2.345671,-33.519030,-2.250000,-33.499999,
-2.154329,-33.519030,-2.154329,-33.519030,$1*%
%AMFreePoly4*
4,1,21,-2.154329,-27.519030,-2.073223,-27.573223,0.176777,-29.823223,0.230970,-29.904330,0.250001,-30.000000,0.230970,-30.095671,0.176774,-30.176779,-2.073223,-32.426777,-2.154329,-32.480970,-2.250000,-32.500001,-2.345671,-32.480970,-2.426779,-32.426774,-4.676777,-30.176777,-4.730970,-30.095671,-4.750000,-30.000000,-4.730970,-29.904329,-4.676777,-29.823223,-2.426777,-27.573223,-2.345671,-27.519030,-2.250000,-27.499999,
-2.154329,-27.519030,-2.154329,-27.519030,$1*%
%AMFreePoly5*
4,1,21,-2.154329,-21.519030,-2.073223,-21.573223,0.176777,-23.823223,0.230970,-23.904330,0.250001,-24.000000,0.230970,-24.095671,0.176774,-24.176779,-2.073223,-26.426777,-2.154329,-26.480970,-2.250000,-26.500001,-2.345671,-26.480970,-2.426779,-26.426774,-4.676777,-24.176777,-4.730970,-24.095671,-4.750000,-24.000000,-4.730970,-23.904329,-4.676777,-23.823223,-2.426777,-21.573223,-2.345671,-21.519030,-2.250000,-21.499999,
-2.154329,-21.519030,-2.154329,-21.519030,$1*%
%AMFreePoly6*
4,1,21,-2.154329,-15.519030,-2.073223,-15.573223,0.176777,-17.823223,0.230970,-17.904330,0.250001,-18.000000,0.230970,-18.095671,0.176774,-18.176779,-2.073223,-20.426777,-2.154329,-20.480970,-2.250000,-20.500001,-2.345671,-20.480970,-2.426779,-20.426774,-4.676777,-18.176777,-4.730970,-18.095671,-4.750000,-18.000000,-4.730970,-17.904329,-4.676777,-17.823223,-2.426777,-15.573223,-2.345671,-15.519030,-2.250000,-15.499999,
-2.154329,-15.519030,-2.154329,-15.519030,$1*%
%AMFreePoly7*
4,1,21,-2.154329,-9.519030,-2.073223,-9.573223,0.176777,-11.823223,0.230970,-11.904330,0.250001,-12.000000,0.230970,-12.095671,0.176774,-12.176779,-2.073223,-14.426777,-2.154329,-14.480970,-2.250000,-14.500001,-2.345671,-14.480970,-2.426779,-14.426774,-4.676777,-12.176777,-4.730970,-12.095671,-4.750000,-12.000000,-4.730970,-11.904329,-4.676777,-11.823223,-2.426777,-9.573223,-2.345671,-9.519030,-2.250000,-9.499999,
-2.154329,-9.519030,-2.154329,-9.519030,$1*%
%AMFreePoly8*
4,1,21,-2.154329,-3.519030,-2.073223,-3.573223,0.176777,-5.823223,0.230970,-5.904330,0.250001,-6.000000,0.230970,-6.095671,0.176774,-6.176779,-2.073223,-8.426777,-2.154329,-8.480970,-2.250000,-8.500001,-2.345671,-8.480970,-2.426779,-8.426774,-4.676777,-6.176777,-4.730970,-6.095671,-4.750000,-6.000000,-4.730970,-5.904329,-4.676777,-5.823223,-2.426777,-3.573223,-2.345671,-3.519030,-2.250000,-3.499999,
-2.154329,-3.519030,-2.154329,-3.519030,$1*%
%AMFreePoly9*
4,1,20,0.095671,0.230970,0.176777,0.176777,0.230970,0.095671,0.250001,0.000000,0.230970,-0.095671,0.176774,-0.176779,-2.073223,-2.426777,-2.154329,-2.480970,-2.250000,-2.500001,-2.345671,-2.480970,-2.426779,-2.426774,-4.676777,-0.176777,-4.730970,-0.095671,-4.750000,0.000000,-4.730970,0.095671,-4.676777,0.176777,-4.595671,0.230970,-4.500000,0.250000,0.000000,0.250001,0.095671,0.230970,
0.095671,0.230970,$1*%
G04 Aperture macros list end*
G04 #@! TA.AperFunction,SMDPad,CuDef*
%ADD10FreePoly0,0.000000*%
G04 #@! TD*
G04 #@! TA.AperFunction,SMDPad,CuDef*
%ADD11FreePoly1,0.000000*%
G04 #@! TD*
G04 #@! TA.AperFunction,SMDPad,CuDef*
%ADD12FreePoly2,0.000000*%
G04 #@! TD*
G04 #@! TA.AperFunction,SMDPad,CuDef*
%ADD13FreePoly3,0.000000*%
G04 #@! TD*
G04 #@! TA.AperFunction,SMDPad,CuDef*
%ADD14FreePoly4,0.000000*%
G04 #@! TD*
G04 #@! TA.AperFunction,SMDPad,CuDef*
%ADD15FreePoly5,0.000000*%
G04 #@! TD*
G04 #@! TA.AperFunction,SMDPad,CuDef*
%ADD16FreePoly6,0.000000*%
G04 #@! TD*
G04 #@! TA.AperFunction,SMDPad,CuDef*
%ADD17FreePoly7,0.000000*%
G04 #@! TD*
G04 #@! TA.AperFunction,SMDPad,CuDef*
%ADD18FreePoly8,0.000000*%
G04 #@! TD*
G04 #@! TA.AperFunction,SMDPad,CuDef*
%ADD19FreePoly9,0.000000*%
G04 #@! TD*
G04 #@! TA.AperFunction,ViaPad*
%ADD20C,0.400000*%
G04 #@! TD*
G04 APERTURE END LIST*
D10*
X63125000Y-56675000D03*
X63125000Y-62675000D03*
X63125000Y-68675000D03*
X63125000Y-74675000D03*
X63125000Y-80675000D03*
X63125000Y-86675000D03*
X63125000Y-92675000D03*
X63125000Y-98675000D03*
D11*
X68375000Y-55925000D03*
D12*
X68375000Y-55925000D03*
D13*
X68375000Y-55925000D03*
D14*
X68375000Y-55925000D03*
D15*
X68375000Y-55925000D03*
D16*
X68375000Y-55925000D03*
D17*
X68375000Y-55925000D03*
D18*
X68375000Y-55925000D03*
D19*
X68375000Y-55925000D03*
D11*
X74375000Y-55925000D03*
D12*
X74375000Y-55925000D03*
D13*
X74375000Y-55925000D03*
D14*
X74375000Y-55925000D03*
D15*
X74375000Y-55925000D03*
D16*
X74375000Y-55925000D03*
D17*
X74375000Y-55925000D03*
D18*
X74375000Y-55925000D03*
D19*
X74375000Y-55925000D03*
D11*
X80375000Y-55925000D03*
D12*
X80375000Y-55925000D03*
D13*
X80375000Y-55925000D03*
D14*
X80375000Y-55925000D03*
D15*
X80375000Y-55925000D03*
D16*
X80375000Y-55925000D03*
D17*
X80375000Y-55925000D03*
D18*
X80375000Y-55925000D03*
D19*
X80375000Y-55925000D03*
D11*
X86375000Y-55925000D03*
D12*
X86375000Y-55925000D03*
D13*
X86375000Y-55925000D03*
D14*
X86375000Y-55925000D03*
D15*
X86375000Y-55925000D03*
D16*
X86375000Y-55925000D03*
D17*
X86375000Y-55925000D03*
D18*
X86375000Y-55925000D03*
D19*
X86375000Y-55925000D03*
D11*
X92375000Y-55925000D03*
D12*
X92375000Y-55925000D03*
D13*
X92375000Y-55925000D03*
D14*
X92375000Y-55925000D03*
D15*
X92375000Y-55925000D03*
D16*
X92375000Y-55925000D03*
D17*
X92375000Y-55925000D03*
D18*
X92375000Y-55925000D03*
D19*
X92375000Y-55925000D03*
D11*
X98375000Y-55925000D03*
D12*
X98375000Y-55925000D03*
D13*
X98375000Y-55925000D03*
D14*
X98375000Y-55925000D03*
D15*
X98375000Y-55925000D03*
D16*
X98375000Y-55925000D03*
D17*
X98375000Y-55925000D03*
D18*
X98375000Y-55925000D03*
D19*
X98375000Y-55925000D03*
D11*
X104375000Y-55925000D03*
D12*
X104375000Y-55925000D03*
D13*
X104375000Y-55925000D03*
D14*
X104375000Y-55925000D03*
D15*
X104375000Y-55925000D03*
D16*
X104375000Y-55925000D03*
D17*
X104375000Y-55925000D03*
D18*
X104375000Y-55925000D03*
D19*
X104375000Y-55925000D03*
D11*
X110375000Y-55925000D03*
D12*
X110375000Y-55925000D03*
D13*
X110375000Y-55925000D03*
D14*
X110375000Y-55925000D03*
D15*
X110375000Y-55925000D03*
D16*
X110375000Y-55925000D03*
D17*
X110375000Y-55925000D03*
D18*
X110375000Y-55925000D03*
D19*
X110375000Y-55925000D03*
D11*
X116375000Y-55925000D03*
D12*
X116375000Y-55925000D03*
D13*
X116375000Y-55925000D03*
D14*
X116375000Y-55925000D03*
D15*
X116375000Y-55925000D03*
D16*
X116375000Y-55925000D03*
D17*
X116375000Y-55925000D03*
D18*
X116375000Y-55925000D03*
D19*
X116375000Y-55925000D03*
D11*
X122375000Y-55925000D03*
D12*
X122375000Y-55925000D03*
D13*
X122375000Y-55925000D03*
D14*
X122375000Y-55925000D03*
D15*
X122375000Y-55925000D03*
D16*
X122375000Y-55925000D03*
D17*
X122375000Y-55925000D03*
D18*
X122375000Y-55925000D03*
D19*
X122375000Y-55925000D03*
D11*
X128375000Y-55925000D03*
D12*
X128375000Y-55925000D03*
D13*
X128375000Y-55925000D03*
D14*
X128375000Y-55925000D03*
D15*
X128375000Y-55925000D03*
D16*
X128375000Y-55925000D03*
D17*
X128375000Y-55925000D03*
D18*
X128375000Y-55925000D03*
D19*
X128375000Y-55925000D03*
D11*
X134375000Y-55925000D03*
D12*
X134375000Y-55925000D03*
D13*
X134375000Y-55925000D03*
D14*
X134375000Y-55925000D03*
D15*
X134375000Y-55925000D03*
D16*
X134375000Y-55925000D03*
D17*
X134375000Y-55925000D03*
D18*
X134375000Y-55925000D03*
D19*
X134375000Y-55925000D03*
D11*
X140375000Y-55925000D03*
D12*
X140375000Y-55925000D03*
D13*
X140375000Y-55925000D03*
D14*
X140375000Y-55925000D03*
D15*
X140375000Y-55925000D03*
D16*
X140375000Y-55925000D03*
D17*
X140375000Y-55925000D03*
D18*
X140375000Y-55925000D03*
D19*
X140375000Y-55925000D03*
D11*
X146375000Y-55925000D03*
D12*
X146375000Y-55925000D03*
D13*
X146375000Y-55925000D03*
D14*
X146375000Y-55925000D03*
D15*
X146375000Y-55925000D03*
D16*
X146375000Y-55925000D03*
D17*
X146375000Y-55925000D03*
D18*
X146375000Y-55925000D03*
D19*
X146375000Y-55925000D03*
D11*
X152375000Y-55925000D03*
D12*
X152375000Y-55925000D03*
D13*
X152375000Y-55925000D03*
D14*
X152375000Y-55925000D03*
D15*
X152375000Y-55925000D03*
D16*
X152375000Y-55925000D03*
D17*
X152375000Y-55925000D03*
D18*
X152375000Y-55925000D03*
D19*
X152375000Y-55925000D03*
D11*
X158375000Y-55925000D03*
D12*
X158375000Y-55925000D03*
D13*
X158375000Y-55925000D03*
D14*
X158375000Y-55925000D03*
D15*
X158375000Y-55925000D03*
D16*
X158375000Y-55925000D03*
D17*
X158375000Y-55925000D03*
D18*
X158375000Y-55925000D03*
D19*
X158375000Y-55925000D03*
D11*
X164375000Y-55925000D03*
D12*
X164375000Y-55925000D03*
D13*
X164375000Y-55925000D03*
D14*
X164375000Y-55925000D03*
D15*
X164375000Y-55925000D03*
D16*
X164375000Y-55925000D03*
D17*
X164375000Y-55925000D03*
D18*
X164375000Y-55925000D03*
D19*
X164375000Y-55925000D03*
D11*
X170375000Y-55925000D03*
D12*
X170375000Y-55925000D03*
D13*
X170375000Y-55925000D03*
D14*
X170375000Y-55925000D03*
D15*
X170375000Y-55925000D03*
D16*
X170375000Y-55925000D03*
D17*
X170375000Y-55925000D03*
D18*
X170375000Y-55925000D03*
D19*
X170375000Y-55925000D03*
D11*
X176375000Y-55925000D03*
D12*
X176375000Y-55925000D03*
D13*
X176375000Y-55925000D03*
D14*
X176375000Y-55925000D03*
D15*
X176375000Y-55925000D03*
D16*
X176375000Y-55925000D03*
D17*
X176375000Y-55925000D03*
D18*
X176375000Y-55925000D03*
D19*
X176375000Y-55925000D03*
D11*
X182375000Y-55925000D03*
D12*
X182375000Y-55925000D03*
D13*
X182375000Y-55925000D03*
D14*
X182375000Y-55925000D03*
D15*
X182375000Y-55925000D03*
D16*
X182375000Y-55925000D03*
D17*
X182375000Y-55925000D03*
D18*
X182375000Y-55925000D03*
D19*
X182375000Y-55925000D03*
D11*
X188375000Y-55925000D03*
D12*
X188375000Y-55925000D03*
D13*
X188375000Y-55925000D03*
D14*
X188375000Y-55925000D03*
D15*
X188375000Y-55925000D03*
D16*
X188375000Y-55925000D03*
D17*
X188375000Y-55925000D03*
D18*
X188375000Y-55925000D03*
D19*
X188375000Y-55925000D03*
D11*
X194375000Y-55925000D03*
D12*
X194375000Y-55925000D03*
D13*
X194375000Y-55925000D03*
D14*
X194375000Y-55925000D03*
D15*
X194375000Y-55925000D03*
D16*
X194375000Y-55925000D03*
D17*
X194375000Y-55925000D03*
D18*
X194375000Y-55925000D03*
D19*
X194375000Y-55925000D03*
D11*
X200375000Y-55925000D03*
D12*
X200375000Y-55925000D03*
D13*
X200375000Y-55925000D03*
D14*
X200375000Y-55925000D03*
D15*
X200375000Y-55925000D03*
D16*
X200375000Y-55925000D03*
D17*
X200375000Y-55925000D03*
D18*
X200375000Y-55925000D03*
D19*
X200375000Y-55925000D03*
D11*
X206375000Y-55925000D03*
D12*
X206375000Y-55925000D03*
D13*
X206375000Y-55925000D03*
D14*
X206375000Y-55925000D03*
D15*
X206375000Y-55925000D03*
D16*
X206375000Y-55925000D03*
D17*
X206375000Y-55925000D03*
D18*
X206375000Y-55925000D03*
D19*
X206375000Y-55925000D03*
D11*
X212375000Y-55925000D03*
D12*
X212375000Y-55925000D03*
D13*
X212375000Y-55925000D03*
D14*
X212375000Y-55925000D03*
D15*
X212375000Y-55925000D03*
D16*
X212375000Y-55925000D03*
D17*
X212375000Y-55925000D03*
D18*
X212375000Y-55925000D03*
D19*
X212375000Y-55925000D03*
D11*
X218375000Y-55925000D03*
D12*
X218375000Y-55925000D03*
D13*
X218375000Y-55925000D03*
D14*
X218375000Y-55925000D03*
D15*
X218375000Y-55925000D03*
D16*
X218375000Y-55925000D03*
D17*
X218375000Y-55925000D03*
D18*
X218375000Y-55925000D03*
D19*
X218375000Y-55925000D03*
D11*
X224375000Y-55925000D03*
D12*
X224375000Y-55925000D03*
D13*
X224375000Y-55925000D03*
D14*
X224375000Y-55925000D03*
D15*
X224375000Y-55925000D03*
D16*
X224375000Y-55925000D03*
D17*
X224375000Y-55925000D03*
D18*
X224375000Y-55925000D03*
D19*
X224375000Y-55925000D03*
D11*
X230375000Y-55925000D03*
D12*
X230375000Y-55925000D03*
D13*
X230375000Y-55925000D03*
D14*
X230375000Y-55925000D03*
D15*
X230375000Y-55925000D03*
D16*
X230375000Y-55925000D03*
D17*
X230375000Y-55925000D03*
D18*
X230375000Y-55925000D03*
D19*
X230375000Y-55925000D03*
D11*
X236375000Y-55925000D03*
D12*
X236375000Y-55925000D03*
D13*
X236375000Y-55925000D03*
D14*
X236375000Y-55925000D03*
D15*
X236375000Y-55925000D03*
D16*
X236375000Y-55925000D03*
D17*
X236375000Y-55925000D03*
D18*
X236375000Y-55925000D03*
D19*
X236375000Y-55925000D03*
D11*
X242375000Y-55925000D03*
D12*
X242375000Y-55925000D03*
D13*
X242375000Y-55925000D03*
D14*
X242375000Y-55925000D03*
D15*
X242375000Y-55925000D03*
D16*
X242375000Y-55925000D03*
D17*
X242375000Y-55925000D03*
D18*
X242375000Y-55925000D03*
D19*
X242375000Y-55925000D03*
D11*
X248375000Y-55925000D03*
D12*
X248375000Y-55925000D03*
D13*
X248375000Y-55925000D03*
D14*
X248375000Y-55925000D03*
D15*
X248375000Y-55925000D03*
D16*
X248375000Y-55925000D03*
D17*
X248375000Y-55925000D03*
D18*
X248375000Y-55925000D03*
D19*
X248375000Y-55925000D03*
D11*
X254375000Y-55925000D03*
D12*
X254375000Y-55925000D03*
D13*
X254375000Y-55925000D03*
D14*
X254375000Y-55925000D03*
D15*
X254375000Y-55925000D03*
D16*
X254375000Y-55925000D03*
D17*
X254375000Y-55925000D03*
D18*
X254375000Y-55925000D03*
D19*
X254375000Y-55925000D03*
D20*
X255050000Y-58900000D03*
X255050000Y-64900000D03*
X255050000Y-70900000D03*
X255050000Y-76900000D03*
X255050000Y-82900000D03*
X255050000Y-88900000D03*
X255050000Y-94900000D03*
X255050000Y-100900000D03*
X66125000Y-70075000D03*
X66125000Y-64075000D03*
X66125000Y-58075000D03*
X66125000Y-82075000D03*
X66125000Y-76075000D03*
X66125000Y-100075000D03*
X66125000Y-94075000D03*
X66125000Y-88075000D03*
X66125000Y-101750000D03*
X72125000Y-100075000D03*
X72125000Y-76075000D03*
X72125000Y-70075000D03*
X72125000Y-82075000D03*
X72125000Y-94075000D03*
X72125000Y-88075000D03*
X72125000Y-64075000D03*
X72125000Y-58075000D03*
X72125000Y-101750000D03*
X78125000Y-64075000D03*
X78125000Y-88075000D03*
X78125000Y-101750000D03*
X78125000Y-58075000D03*
X78125000Y-70075000D03*
X78125000Y-94075000D03*
X78125000Y-82075000D03*
X78125000Y-76075000D03*
X78125000Y-100075000D03*
X84125000Y-64075000D03*
X84125000Y-76075000D03*
X84125000Y-58075000D03*
X84125000Y-100075000D03*
X84125000Y-88075000D03*
X84125000Y-82075000D03*
X84125000Y-94075000D03*
X84125000Y-70075000D03*
X84125000Y-101750000D03*
X90125000Y-70075000D03*
X90125000Y-58075000D03*
X90125000Y-64075000D03*
X90125000Y-94075000D03*
X90125000Y-88075000D03*
X90125000Y-82075000D03*
X90125000Y-100075000D03*
X90125000Y-101750000D03*
X90125000Y-76075000D03*
X96125000Y-76075000D03*
X96125000Y-88075000D03*
X96125000Y-70075000D03*
X96125000Y-100075000D03*
X96125000Y-94075000D03*
X96125000Y-58075000D03*
X96125000Y-64075000D03*
X96125000Y-82075000D03*
X96125000Y-101750000D03*
X102125000Y-101750000D03*
X102125000Y-64075000D03*
X102125000Y-76075000D03*
X102125000Y-58075000D03*
X102125000Y-88075000D03*
X102125000Y-100075000D03*
X102125000Y-70075000D03*
X102125000Y-94075000D03*
X102125000Y-82075000D03*
X108125000Y-70075000D03*
X108125000Y-101750000D03*
X108125000Y-94075000D03*
X108125000Y-76075000D03*
X108125000Y-58075000D03*
X108125000Y-100075000D03*
X108125000Y-64075000D03*
X108125000Y-88075000D03*
X108125000Y-82075000D03*
X114125000Y-58075000D03*
X114125000Y-94075000D03*
X114125000Y-88075000D03*
X114125000Y-82075000D03*
X114125000Y-76075000D03*
X114125000Y-64075000D03*
X114125000Y-101750000D03*
X114125000Y-70075000D03*
X114125000Y-100075000D03*
X120125000Y-88075000D03*
X120125000Y-100075000D03*
X120125000Y-101750000D03*
X120125000Y-64075000D03*
X120125000Y-94075000D03*
X120125000Y-70075000D03*
X120125000Y-58075000D03*
X120125000Y-76075000D03*
X120125000Y-82075000D03*
X126125000Y-94075000D03*
X126125000Y-101750000D03*
X126125000Y-70075000D03*
X126125000Y-88075000D03*
X126125000Y-76075000D03*
X126125000Y-82075000D03*
X126125000Y-64075000D03*
X126125000Y-58075000D03*
X126125000Y-100075000D03*
X132125000Y-76075000D03*
X132125000Y-88075000D03*
X132125000Y-94075000D03*
X132125000Y-100075000D03*
X132125000Y-64075000D03*
X132125000Y-101750000D03*
X132125000Y-70075000D03*
X132125000Y-58075000D03*
X132125000Y-82075000D03*
X138125000Y-58075000D03*
X138125000Y-101750000D03*
X138125000Y-70075000D03*
X138125000Y-64075000D03*
X138125000Y-94075000D03*
X138125000Y-76075000D03*
X138125000Y-100075000D03*
X138125000Y-88075000D03*
X138125000Y-82075000D03*
X144125000Y-82075000D03*
X144125000Y-94075000D03*
X144125000Y-70075000D03*
X144125000Y-76075000D03*
X144125000Y-58075000D03*
X144125000Y-64075000D03*
X144125000Y-100075000D03*
X144125000Y-101750000D03*
X144125000Y-88075000D03*
X150125000Y-64075000D03*
X150125000Y-100075000D03*
X150125000Y-58075000D03*
X150125000Y-70075000D03*
X150125000Y-101750000D03*
X150125000Y-76075000D03*
X150125000Y-88075000D03*
X150125000Y-94075000D03*
X150125000Y-82075000D03*
X156125000Y-76075000D03*
X156125000Y-70075000D03*
X156125000Y-101750000D03*
X156125000Y-64075000D03*
X156125000Y-82075000D03*
X156125000Y-58075000D03*
X156125000Y-100075000D03*
X156125000Y-88075000D03*
X156125000Y-94075000D03*
X162125000Y-88075000D03*
X162125000Y-82075000D03*
X162125000Y-94075000D03*
X162125000Y-101750000D03*
X162125000Y-100075000D03*
X162125000Y-58075000D03*
X162125000Y-64075000D03*
X162125000Y-70075000D03*
X162125000Y-76075000D03*
X168125000Y-70075000D03*
X168125000Y-82075000D03*
X168125000Y-88075000D03*
X168125000Y-94075000D03*
X168125000Y-100075000D03*
X168125000Y-76075000D03*
X168125000Y-64075000D03*
X168125000Y-58075000D03*
X168125000Y-101750000D03*
X174125000Y-101750000D03*
X174125000Y-82075000D03*
X174125000Y-70075000D03*
X174125000Y-100075000D03*
X174125000Y-88075000D03*
X174125000Y-94075000D03*
X174125000Y-58075000D03*
X174125000Y-64075000D03*
X174125000Y-76075000D03*
X180125000Y-82075000D03*
X180125000Y-100075000D03*
X180125000Y-101750000D03*
X180125000Y-58075000D03*
X180125000Y-76075000D03*
X180125000Y-64075000D03*
X180125000Y-88075000D03*
X180125000Y-94075000D03*
X180125000Y-70075000D03*
X186125000Y-58075000D03*
X186125000Y-101750000D03*
X186125000Y-94075000D03*
X186125000Y-88075000D03*
X186125000Y-82075000D03*
X186125000Y-70075000D03*
X186125000Y-64075000D03*
X186125000Y-76075000D03*
X186125000Y-100075000D03*
X192125000Y-94075000D03*
X192125000Y-64075000D03*
X192125000Y-88075000D03*
X192125000Y-58075000D03*
X192125000Y-82075000D03*
X192125000Y-76075000D03*
X192125000Y-100075000D03*
X192125000Y-101750000D03*
X192125000Y-70075000D03*
X198125000Y-70075000D03*
X198125000Y-101750000D03*
X198125000Y-76075000D03*
X198125000Y-100075000D03*
X198125000Y-64075000D03*
X198125000Y-82075000D03*
X198125000Y-94075000D03*
X198125000Y-88075000D03*
X198125000Y-58075000D03*
X204125000Y-101750000D03*
X204125000Y-64075000D03*
X204125000Y-94075000D03*
X204125000Y-70075000D03*
X204125000Y-82075000D03*
X204125000Y-76075000D03*
X204125000Y-58075000D03*
X204125000Y-100075000D03*
X204125000Y-88075000D03*
X210125000Y-70075000D03*
X210125000Y-58075000D03*
X210125000Y-88075000D03*
X210125000Y-76075000D03*
X210125000Y-64075000D03*
X210125000Y-82075000D03*
X210125000Y-94075000D03*
X210125000Y-100075000D03*
X210125000Y-101750000D03*
X216125000Y-88075000D03*
X216125000Y-82075000D03*
X216125000Y-76075000D03*
X216125000Y-100075000D03*
X216125000Y-101750000D03*
X216125000Y-94075000D03*
X216125000Y-58075000D03*
X216125000Y-64075000D03*
X216125000Y-70075000D03*
X222125000Y-94075000D03*
X222125000Y-88075000D03*
X222125000Y-58075000D03*
X222125000Y-76075000D03*
X222125000Y-82075000D03*
X222125000Y-70075000D03*
X222125000Y-101750000D03*
X222125000Y-64075000D03*
X222125000Y-100075000D03*
X228125000Y-94075000D03*
X228125000Y-88075000D03*
X228125000Y-101750000D03*
X228125000Y-100075000D03*
X228125000Y-64075000D03*
X228125000Y-58075000D03*
X228125000Y-70075000D03*
X228125000Y-82075000D03*
X228125000Y-76075000D03*
X234125000Y-94075000D03*
X234125000Y-100075000D03*
X234125000Y-76075000D03*
X234125000Y-70075000D03*
X234125000Y-101750000D03*
X234125000Y-64075000D03*
X234125000Y-58075000D03*
X234125000Y-82075000D03*
X234125000Y-88075000D03*
X240125000Y-76075000D03*
X240125000Y-101750000D03*
X240125000Y-94075000D03*
X240125000Y-88075000D03*
X240125000Y-70075000D03*
X240125000Y-58075000D03*
X240125000Y-82075000D03*
X240125000Y-64075000D03*
X240125000Y-100075000D03*
X246125000Y-94075000D03*
X246125000Y-58075000D03*
X246125000Y-76075000D03*
X246125000Y-101750000D03*
X246125000Y-64075000D03*
X246125000Y-88075000D03*
X246125000Y-70075000D03*
X246125000Y-82075000D03*
X246125000Y-100075000D03*
X252125000Y-94075000D03*
X252125000Y-76075000D03*
X252125000Y-82075000D03*
X252125000Y-70075000D03*
X252125000Y-58075000D03*
X252125000Y-64075000D03*
X252125000Y-88075000D03*
X252125000Y-100075000D03*
X252125000Y-101750000D03*
M02*
