<?xml version="1.0" standalone="no"?>
 <!DOCTYPE svg PUBLIC "-//W3C//DTD SVG 1.1//EN" 
 "http://www.w3.org/Graphics/SVG/1.1/DTD/svg11.dtd"> 
<svg
  xmlns:svg="http://www.w3.org/2000/svg"
  xmlns="http://www.w3.org/2000/svg"
  xmlns:xlink="http://www.w3.org/1999/xlink"
  version="1.1"
  width="29.700220cm" height="21.000720cm" viewBox="0 0 116930 82680">
<title>SVG Picture created as eurorack_to_3v3-Cmts_User.svg date 2022/02/13 09:34:37 </title>
  <desc>Picture generated by PCBNEW </desc>
<g style="fill:#000000; fill-opacity:1;stroke:#000000; stroke-opacity:1;
stroke-linecap:round; stroke-linejoin:round;"
 transform="translate(0 0) scale(1 1)">
</g>
<g style="fill:#000000; fill-opacity:0.0; 
stroke:#000000; stroke-width:-0.000393701; stroke-opacity:1; 
stroke-linecap:round; stroke-linejoin:round;">
</g>
<g style="fill:#000000; fill-opacity:0.0; 
stroke:#000000; stroke-width:59.0551; stroke-opacity:1; 
stroke-linecap:round; stroke-linejoin:round;">
<text x="64921.3" y="14921.3"
textLength="12529.1" font-size="524.934" lengthAdjust="spacingAndGlyphs"
text-anchor="middle" opacity="0">3.05mm diameter holes for 6-32 screws</text>
<path d="M58772 14508
L59015 14508
L58884 14658
L58940 14658
L58978 14677
L58997 14696
L59015 14733
L59015 14827
L58997 14865
L58978 14883
L58940 14902
L58828 14902
L58790 14883
L58772 14865
" />
<path d="M59184 14865
L59203 14883
L59184 14902
L59165 14883
L59184 14865
L59184 14902
" />
<path d="M59446 14508
L59484 14508
L59521 14527
L59540 14546
L59559 14583
L59578 14658
L59578 14752
L59559 14827
L59540 14865
L59521 14883
L59484 14902
L59446 14902
L59409 14883
L59390 14865
L59371 14827
L59353 14752
L59353 14658
L59371 14583
L59390 14546
L59409 14527
L59446 14508
" />
<path d="M59934 14508
L59746 14508
L59728 14696
L59746 14677
L59784 14658
L59878 14658
L59915 14677
L59934 14696
L59953 14733
L59953 14827
L59934 14865
L59915 14883
L59878 14902
L59784 14902
L59746 14883
L59728 14865
" />
<path d="M60121 14902
L60121 14640
" />
<path d="M60121 14677
L60140 14658
L60178 14640
L60234 14640
L60271 14658
L60290 14696
L60290 14902
" />
<path d="M60290 14696
L60309 14658
L60346 14640
L60403 14640
L60440 14658
L60459 14696
L60459 14902
" />
<path d="M60646 14902
L60646 14640
" />
<path d="M60646 14677
L60665 14658
L60703 14640
L60759 14640
L60796 14658
L60815 14696
L60815 14902
" />
<path d="M60815 14696
L60834 14658
L60871 14640
L60928 14640
L60965 14658
L60984 14696
L60984 14902
" />
<path d="M61640 14902
L61640 14508
" />
<path d="M61640 14883
L61602 14902
L61527 14902
L61490 14883
L61471 14865
L61452 14827
L61452 14715
L61471 14677
L61490 14658
L61527 14640
L61602 14640
L61640 14658
" />
<path d="M61827 14902
L61827 14640
" />
<path d="M61827 14508
L61809 14527
L61827 14546
L61846 14527
L61827 14508
L61827 14546
" />
<path d="M62184 14902
L62184 14696
L62165 14658
L62127 14640
L62052 14640
L62015 14658
" />
<path d="M62184 14883
L62146 14902
L62052 14902
L62015 14883
L61996 14846
L61996 14808
L62015 14771
L62052 14752
L62146 14752
L62184 14733
" />
<path d="M62371 14902
L62371 14640
" />
<path d="M62371 14677
L62390 14658
L62427 14640
L62484 14640
L62521 14658
L62540 14696
L62540 14902
" />
<path d="M62540 14696
L62559 14658
L62596 14640
L62652 14640
L62690 14658
L62709 14696
L62709 14902
" />
<path d="M63046 14883
L63008 14902
L62934 14902
L62896 14883
L62877 14846
L62877 14696
L62896 14658
L62934 14640
L63008 14640
L63046 14658
L63065 14696
L63065 14733
L62877 14771
" />
<path d="M63177 14640
L63327 14640
" />
<path d="M63233 14508
L63233 14846
L63252 14883
L63290 14902
L63327 14902
" />
<path d="M63608 14883
L63571 14902
L63496 14902
L63458 14883
L63440 14846
L63440 14696
L63458 14658
L63496 14640
L63571 14640
L63608 14658
L63627 14696
L63627 14733
L63440 14771
" />
<path d="M63796 14902
L63796 14640
" />
<path d="M63796 14715
L63815 14677
L63833 14658
L63871 14640
L63908 14640
" />
<path d="M64340 14902
L64340 14508
" />
<path d="M64508 14902
L64508 14696
L64490 14658
L64452 14640
L64396 14640
L64358 14658
L64340 14677
" />
<path d="M64752 14902
L64715 14883
L64696 14865
L64677 14827
L64677 14715
L64696 14677
L64715 14658
L64752 14640
L64808 14640
L64846 14658
L64865 14677
L64883 14715
L64883 14827
L64865 14865
L64846 14883
L64808 14902
L64752 14902
" />
<path d="M65108 14902
L65071 14883
L65052 14846
L65052 14508
" />
<path d="M65408 14883
L65371 14902
L65296 14902
L65258 14883
L65239 14846
L65239 14696
L65258 14658
L65296 14640
L65371 14640
L65408 14658
L65427 14696
L65427 14733
L65239 14771
" />
<path d="M65577 14883
L65614 14902
L65689 14902
L65727 14883
L65746 14846
L65746 14827
L65727 14790
L65689 14771
L65633 14771
L65596 14752
L65577 14715
L65577 14696
L65596 14658
L65633 14640
L65689 14640
L65727 14658
" />
<path d="M66158 14640
L66308 14640
" />
<path d="M66214 14902
L66214 14565
L66233 14527
L66271 14508
L66308 14508
" />
<path d="M66496 14902
L66458 14883
L66439 14865
L66421 14827
L66421 14715
L66439 14677
L66458 14658
L66496 14640
L66552 14640
L66589 14658
L66608 14677
L66627 14715
L66627 14827
L66608 14865
L66589 14883
L66552 14902
L66496 14902
" />
<path d="M66796 14902
L66796 14640
" />
<path d="M66796 14715
L66814 14677
L66833 14658
L66871 14640
L66908 14640
" />
<path d="M67508 14508
L67433 14508
L67395 14527
L67377 14546
L67339 14602
L67320 14677
L67320 14827
L67339 14865
L67358 14883
L67395 14902
L67470 14902
L67508 14883
L67527 14865
L67545 14827
L67545 14733
L67527 14696
L67508 14677
L67470 14658
L67395 14658
L67358 14677
L67339 14696
L67320 14733
" />
<path d="M67714 14752
L68014 14752
" />
<path d="M68164 14508
L68408 14508
L68277 14658
L68333 14658
L68370 14677
L68389 14696
L68408 14733
L68408 14827
L68389 14865
L68370 14883
L68333 14902
L68220 14902
L68183 14883
L68164 14865
" />
<path d="M68558 14546
L68577 14527
L68614 14508
L68708 14508
L68745 14527
L68764 14546
L68783 14583
L68783 14621
L68764 14677
L68539 14902
L68783 14902
" />
<path d="M69233 14883
L69270 14902
L69345 14902
L69383 14883
L69401 14846
L69401 14827
L69383 14790
L69345 14771
L69289 14771
L69251 14752
L69233 14715
L69233 14696
L69251 14658
L69289 14640
L69345 14640
L69383 14658
" />
<path d="M69739 14883
L69701 14902
L69626 14902
L69589 14883
L69570 14865
L69551 14827
L69551 14715
L69570 14677
L69589 14658
L69626 14640
L69701 14640
L69739 14658
" />
<path d="M69908 14902
L69908 14640
" />
<path d="M69908 14715
L69926 14677
L69945 14658
L69983 14640
L70020 14640
" />
<path d="M70301 14883
L70264 14902
L70189 14902
L70151 14883
L70133 14846
L70133 14696
L70151 14658
L70189 14640
L70264 14640
L70301 14658
L70320 14696
L70320 14733
L70133 14771
" />
<path d="M70451 14640
L70526 14902
L70601 14715
L70676 14902
L70751 14640
" />
<path d="M70883 14883
L70920 14902
L70995 14902
L71032 14883
L71051 14846
L71051 14827
L71032 14790
L70995 14771
L70939 14771
L70901 14752
L70883 14715
L70883 14696
L70901 14658
L70939 14640
L70995 14640
L71032 14658
" />
<circle cx="54980.3" cy="40551.2" r="2204.72" /> 
<circle cx="49468.5" cy="40551.2" r="2204.72" /> 
<circle cx="66003.9" cy="40551.2" r="2204.72" /> 
<circle cx="60492.1" cy="40551.2" r="2204.72" /> 
<circle cx="60492.1" cy="51574.8" r="2204.72" /> 
<circle cx="66003.9" cy="46063" r="2204.72" /> 
<circle cx="66003.9" cy="51574.8" r="2204.72" /> 
<circle cx="49468.5" cy="51574.8" r="2204.72" /> 
<circle cx="54980.3" cy="46063" r="2204.72" /> 
<circle cx="54980.3" cy="51574.8" r="2204.72" /> 
<circle cx="49468.5" cy="46063" r="2204.72" /> 
<circle cx="60492.1" cy="46063" r="2204.72" /> 
<circle cx="60492.1" cy="35039.4" r="2204.72" /> 
<circle cx="49468.5" cy="35039.4" r="2204.72" /> 
<circle cx="54980.3" cy="35039.4" r="2204.72" /> 
<circle cx="66003.9" cy="35039.4" r="2204.72" /> 
<circle cx="60492.1" cy="29527.6" r="2204.72" /> 
<circle cx="49468.5" cy="29527.6" r="2204.72" /> 
<circle cx="54980.3" cy="29527.6" r="2204.72" /> 
<circle cx="66003.9" cy="29527.6" r="2204.72" /> 
<circle cx="60492.1" cy="24015.7" r="2204.72" /> 
<circle cx="49468.5" cy="24015.7" r="2204.72" /> 
<circle cx="54980.3" cy="24015.7" r="2204.72" /> 
<circle cx="66003.9" cy="24015.7" r="2204.72" /> 
<circle cx="66003.9" cy="18503.9" r="2204.72" /> 
<circle cx="60492.1" cy="18503.9" r="2204.72" /> 
<circle cx="54980.3" cy="18503.9" r="2204.72" /> 
<text x="48818.9" y="14763.8"
textLength="9469.35" font-size="1574.8" lengthAdjust="spacingAndGlyphs"
text-anchor="middle" opacity="0">3U, 14HP </text>
<path d="M44291 13526
L45022 13526
L44628 13976
L44797 13976
L44910 14032
L44966 14088
L45022 14201
L45022 14482
L44966 14595
L44910 14651
L44797 14707
L44460 14707
L44347 14651
L44291 14595
" />
<path d="M45528 13526
L45528 14482
L45584 14595
L45641 14651
L45753 14707
L45978 14707
L46091 14651
L46147 14595
L46203 14482
L46203 13526
" />
<path d="M46822 14651
L46822 14707
L46766 14820
L46709 14876
" />
<path d="M48847 14707
L48172 14707
" />
<path d="M48509 14707
L48509 13526
L48397 13695
L48284 13807
L48172 13863
" />
<path d="M49859 13920
L49859 14707
" />
<path d="M49578 13470
L49296 14313
L50028 14313
" />
<path d="M50478 14707
L50478 13526
" />
<path d="M50478 14088
L51152 14088
" />
<path d="M51152 14707
L51152 13526
" />
<path d="M51715 14707
L51715 13526
L52165 13526
L52277 13582
L52334 13638
L52390 13751
L52390 13920
L52334 14032
L52277 14088
L52165 14145
L51715 14145
" />
<path d="M44094 57283
L71574 57283
" />
<path d="M44094 15354
L71574 15354
" />
<path d="M71574 15354
L71574 57283
" />
<path d="M44094 15354
L44094 57283
" />
<circle cx="49468.5" cy="18503.9" r="2204.72" /> 
<circle cx="46063" cy="43267.7" r="1377.95" /> 
<circle cx="57834.6" cy="32283.5" r="1377.95" /> 
<circle cx="45826.8" cy="17086.6" r="1377.95" /> 
<g >
</g>
<g >
</g>
<g >
</g>
<g >
</g>
<g >
</g>
<g >
</g>
<g >
</g>
<g >
</g>
<g >
</g>
<g >
</g>
<g >
</g>
<g >
</g>
<g >
</g>
<g >
</g>
<g >
</g>
<g >
</g>
<g >
</g>
<g >
</g>
<g >
</g>
<g >
</g>
<g >
</g>
<g >
</g>
<g >
</g>
<g >
</g>
<g >
</g>
<g >
</g>
<g >
</g>
<g >
</g>
<g >
</g>
<g >
</g>
<g >
</g>
<g >
</g>
<g >
</g>
<g >
</g>
<g >
</g>
<g >
</g>
<g >
</g>
<g >
</g>
<g >
</g>
<g >
</g>
<g >
</g>
<g >
</g>
<g >
</g>
<g >
</g>
<g >
</g>
<g >
</g>
<g >
</g>
<g >
</g>
<g >
</g>
<g >
</g>
<g >
</g>
<g >
</g>
<g >
</g>
<g >
</g>
<g >
</g>
<g >
</g>
<g >
</g>
<g >
</g>
<g >
</g>
<g >
</g>
<g >
</g>
<g >
</g>
<g >
</g>
<g >
</g>
<g >
</g>
<g >
</g>
<g >
</g>
<g >
</g>
<g >
</g>
<g >
</g>
<g >
</g>
<g >
</g>
<g >
</g>
<g >
</g>
<g >
</g>
<g >
</g>
<g >
</g>
<g >
</g>
<g >
</g>
<g >
</g>
<g >
</g>
<g >
</g>
<g >
</g>
<g >
</g>
<g >
</g>
<g >
</g>
<g >
</g>
<g >
</g>
<g >
</g>
<g >
</g>
<g >
</g>
<g >
</g>
<g >
</g>
<g >
</g>
<g >
</g>
<g >
</g>
<g >
</g>
<g >
</g>
<g >
</g>
<g >
</g>
<g >
</g>
<g >
</g>
<g >
</g>
<g >
</g>
<g >
</g>
<g >
</g>
<g >
</g>
<g >
</g>
<g >
</g>
<g >
</g>
<g >
</g>
<g >
</g>
<g >
</g>
<g >
</g>
<g >
</g>
<g >
</g>
<g >
</g>
<g >
</g>
<g >
</g>
<g >
</g>
<g >
</g>
<g >
</g>
<g >
</g>
<g >
</g>
<g >
</g>
<g >
</g>
<g >
</g>
<g >
</g>
<g >
</g>
<g >
</g>
<g >
</g>
<g >
</g>
<g >
</g>
<g >
</g>
<g >
</g>
<g >
</g>
<g >
</g>
<g >
</g>
<g >
</g>
<g >
</g>
<g >
</g>
<g >
</g>
<g >
</g>
<g >
</g>
<g >
</g>
<g >
</g>
<g >
</g>
<g >
</g>
<g >
</g>
<g >
</g>
<g >
</g>
<g >
</g>
<g >
</g>
<g >
</g>
<g >
</g>
</g> 
</svg>
