<?xml version="1.0" encoding="UTF-8" standalone="no"?>
<svg
   xmlns:osb="http://www.openswatchbook.org/uri/2009/osb"
   xmlns:dc="http://purl.org/dc/elements/1.1/"
   xmlns:cc="http://creativecommons.org/ns#"
   xmlns:rdf="http://www.w3.org/1999/02/22-rdf-syntax-ns#"
   xmlns:svg="http://www.w3.org/2000/svg"
   xmlns="http://www.w3.org/2000/svg"
   xmlns:sodipodi="http://sodipodi.sourceforge.net/DTD/sodipodi-0.dtd"
   xmlns:inkscape="http://www.inkscape.org/namespaces/inkscape"
   id="svg5565"
   version="1.1"
   viewBox="0 0 70.79528 128.53528"
   height="128.53528mm"
   width="70.79528mm"
   sodipodi:docname="front-panel.svg"
   inkscape:version="1.0.2 (e86c870879, 2021-01-15)">
  <defs
     id="defs5559">
    <linearGradient
       id="linearGradient10589"
       osb:paint="solid">
      <stop
         style="stop-color:#0000ff;stop-opacity:1;"
         offset="0"
         id="stop10587" />
    </linearGradient>
  </defs>
  <sodipodi:namedview
     id="base"
     pagecolor="#ffffff"
     bordercolor="#666666"
     borderopacity="1.0"
     inkscape:pageopacity="0.0"
     inkscape:pageshadow="2"
     inkscape:zoom="1.4142136"
     inkscape:cx="81.58152"
     inkscape:cy="186.37192"
     inkscape:document-units="mm"
     inkscape:current-layer="layer1"
     inkscape:document-rotation="0"
     showgrid="false"
     inkscape:window-width="1920"
     inkscape:window-height="1080"
     inkscape:window-x="0"
     inkscape:window-y="0"
     inkscape:window-maximized="0"
     showguides="true"
     inkscape:guide-bbox="true"
     inkscape:snap-grids="true">
    <inkscape:grid
       type="xygrid"
       id="grid9129"
       originx="-75.14034"
       originy="-77.306461" />
  </sodipodi:namedview>
  <metadata
     id="metadata5562">
    <rdf:RDF>
      <cc:Work
         rdf:about="">
        <dc:format>image/svg+xml</dc:format>
        <dc:type
           rdf:resource="http://purl.org/dc/dcmitype/StillImage" />
        <dc:title />
      </cc:Work>
    </rdf:RDF>
  </metadata>
  <g
     inkscape:label="Layer 1"
     inkscape:groupmode="layer"
     id="layer1"
     transform="translate(-75.140343,-77.306458)">
    <g
       inkscape:label="EuroPanel"
       transform="translate(75.157982,77.324097)"
       id="g6164"
       style="opacity:1;stroke-width:0.0352778;stroke-miterlimit:4;stroke-dasharray:none">
      <rect
         style="fill:none;stroke:#ff000b;stroke-width:0.00035278;stroke-miterlimit:4;stroke-dasharray:none;stroke-opacity:1"
         height="128.5"
         width="70.760002"
         x="0"
         y="0"
         rx="0"
         ry="0"
         id="rect6154" />
      <rect
         style="fill:none;stroke:#ff0000;stroke-width:0.00035278;stroke-miterlimit:4;stroke-dasharray:none;stroke-opacity:1"
         height="3.2"
         width="5.5"
         x="4.75"
         y="123.9"
         rx="1.6"
         ry="0"
         id="rect6156" />
      <rect
         style="fill:none;stroke:#ff0000;stroke-width:0.00035278;stroke-miterlimit:4;stroke-dasharray:none;stroke-opacity:1"
         height="3.2"
         width="5.5"
         x="4.75"
         y="1.4"
         rx="1.6"
         ry="0"
         id="rect6158" />
      <rect
         style="fill:none;stroke:#ff0000;stroke-width:0.00035278;stroke-miterlimit:4;stroke-dasharray:none;stroke-opacity:1"
         height="3.2"
         width="5.5"
         x="60.630001"
         y="123.9"
         rx="1.6"
         ry="0"
         id="rect6160" />
      <rect
         style="fill:none;stroke:#ff0000;stroke-width:0.00035278;stroke-miterlimit:4;stroke-dasharray:none;stroke-opacity:1"
         height="3.2"
         width="5.5"
         x="60.630001"
         y="1.4"
         rx="1.6"
         ry="0"
         id="rect6162" />
      <rect
         style="opacity:1;fill:none;stroke:#ff0000;stroke-width:0.00035278;stroke-linecap:round;stroke-miterlimit:4;stroke-dasharray:none;stroke-opacity:1"
         id="rect9125"
         width="23"
         height="7.035573"
         x="23.842018"
         y="117.6759"
         rx="1.6415355" />
      <path
         style="fill:#000000;stroke-width:0.0352778;stroke-miterlimit:4;stroke-dasharray:none"
         id="path10055"
         d="" />
      <path
         style="fill:#000000;stroke-width:0.0352778;stroke-miterlimit:4;stroke-dasharray:none"
         id="path10171"
         d="" />
      <path
         style="fill:#000000;stroke-width:0.0352778;stroke-miterlimit:4;stroke-dasharray:none"
         id="path10259"
         d="" />
      <path
         style="fill:#000000;stroke-width:0.0352778;stroke-miterlimit:4;stroke-dasharray:none"
         id="path10255"
         d="" />
      <text
         xml:space="preserve"
         style="font-style:normal;font-weight:normal;font-size:10.5833px;line-height:0;font-family:sans-serif;fill:none;fill-opacity:1;stroke:#ff0000;stroke-width:0.0352778;stroke-miterlimit:4;stroke-dasharray:none;stroke-opacity:1"
         x="62.068409"
         y="90.017838"
         id="text10595-3-4"><tspan
           sodipodi:role="line"
           x="62.068409"
           y="90.017838"
           style="font-size:4.93889px;line-height:1.05;fill:none;stroke:#ff0000;stroke-width:0.0352778;stroke-miterlimit:4;stroke-dasharray:none;stroke-opacity:1"
           id="tspan10716" /></text>
      <path
         style="fill:#ff0000;stroke:#000000;stroke-width:0.10583333;stroke-linecap:round;stroke-linejoin:miter;stroke-miterlimit:4;stroke-dasharray:none;stroke-opacity:1"
         d="m 66.447889,15.697852 0.169037,38.735452"
         id="path10754" />
      <path
         style="fill:none;stroke:#000000;stroke-width:0.10583333;stroke-linecap:round;stroke-linejoin:miter;stroke-miterlimit:4;stroke-dasharray:none;stroke-opacity:1"
         d="m 3.822185,57.67217 0.069406,24.999244 v 0 0"
         id="path10756"
         sodipodi:nodetypes="cccc" />
      <text
         xml:space="preserve"
         style="font-style:normal;font-weight:normal;font-size:10.5833px;line-height:0;font-family:sans-serif;fill:none;fill-opacity:1;stroke:#020000;stroke-width:0.105833;stroke-miterlimit:4;stroke-dasharray:none;stroke-opacity:1"
         x="8.0535383"
         y="115.43994"
         id="text11061"><tspan
           sodipodi:role="line"
           id="tspan11059"
           x="8.0535383"
           y="115.43994"
           style="font-size:6.35px;line-height:0.95;fill:none;stroke:#020000;stroke-width:0.105833;stroke-miterlimit:4;stroke-dasharray:none;stroke-opacity:1">big</tspan><tspan
           sodipodi:role="line"
           x="8.0535383"
           y="121.47244"
           style="font-size:6.35px;line-height:0.95;fill:none;stroke:#020000;stroke-width:0.105833;stroke-miterlimit:4;stroke-dasharray:none;stroke-opacity:1"
           id="tspan11063">little</tspan></text>
      <text
         xml:space="preserve"
         style="font-style:normal;font-weight:normal;font-size:10.5833px;line-height:0;font-family:sans-serif;fill:none;fill-opacity:1;stroke:#000000;stroke-width:0.105833;stroke-miterlimit:4;stroke-dasharray:none;stroke-opacity:1"
         x="49.113945"
         y="121.36418"
         id="text11061-3"><tspan
           sodipodi:role="line"
           x="49.113945"
           y="121.36418"
           style="font-size:6.35px;line-height:0.95;fill:none;stroke:#000000;stroke-width:0.105833;stroke-miterlimit:4;stroke-dasharray:none;stroke-opacity:1"
           id="tspan11063-0">one</tspan></text>
      <path
         style="fill:none;stroke:#000000;stroke-width:0.10583333;stroke-linecap:round;stroke-linejoin:miter;stroke-miterlimit:4;stroke-dasharray:none;stroke-opacity:1"
         d="m 66.30639,88.047211 0.07174,7.750239 v 0 0"
         id="path10756-6"
         sodipodi:nodetypes="cccc" />
      <path
         style="fill:none;stroke:#000000;stroke-width:0.10583333;stroke-linecap:round;stroke-linejoin:miter;stroke-miterlimit:4;stroke-dasharray:none;stroke-opacity:1"
         d="m 4.1555143,100.77066 0.07174,7.75024 v 0 l -0.00164,0.35963"
         id="path10756-6-1"
         sodipodi:nodetypes="cccc" />
    </g>
    <circle
       style="fill:none;stroke:#ff0000;stroke-width:0.00035278;stroke-linecap:round;stroke-miterlimit:4;stroke-dasharray:none;stroke-opacity:1"
       id="path8811"
       cx="89.210197"
       cy="98.687958"
       r="4.0770698" />
    <circle
       style="fill:none;stroke:#ff0000;stroke-width:0.00035278;stroke-linecap:round;stroke-miterlimit:4;stroke-dasharray:none;stroke-opacity:1"
       id="path8811-3"
       cx="103.27834"
       cy="98.706589"
       r="4.0770698" />
    <circle
       style="fill:none;stroke:#ff0000;stroke-width:0.00035278;stroke-linecap:round;stroke-miterlimit:4;stroke-dasharray:none;stroke-opacity:1"
       id="path8811-3-6"
       cx="117.25505"
       cy="98.67952"
       r="4.0770698" />
    <circle
       style="fill:none;stroke:#ff0000;stroke-width:0.00035278;stroke-linecap:round;stroke-miterlimit:4;stroke-dasharray:none;stroke-opacity:1"
       id="path8811-3-6-7"
       cx="131.24812"
       cy="98.698578"
       r="4.0770698" />
    <circle
       style="fill:none;stroke:#ff0000;stroke-width:0.00035278;stroke-linecap:round;stroke-miterlimit:4;stroke-dasharray:none;stroke-opacity:1"
       id="path8811-5"
       cx="89.178734"
       cy="112.73634"
       r="4.0770698" />
    <circle
       style="fill:none;stroke:#ff0000;stroke-width:0.00035278;stroke-linecap:round;stroke-miterlimit:4;stroke-dasharray:none;stroke-opacity:1"
       id="path8811-3-3"
       cx="103.24688"
       cy="112.75497"
       r="4.0770698" />
    <circle
       style="fill:none;stroke:#ff0000;stroke-width:0.00035278;stroke-linecap:round;stroke-miterlimit:4;stroke-dasharray:none;stroke-opacity:1"
       id="path8811-3-6-5"
       cx="117.22359"
       cy="112.72791"
       r="4.0770698" />
    <circle
       style="fill:none;stroke:#ff0000;stroke-width:0.00035278;stroke-linecap:round;stroke-miterlimit:4;stroke-dasharray:none;stroke-opacity:1"
       id="path8811-3-6-7-6"
       cx="131.21666"
       cy="112.74696"
       r="4.0770698" />
    <circle
       style="fill:none;stroke:#ff0000;stroke-width:0.00035278;stroke-linecap:round;stroke-miterlimit:4;stroke-dasharray:none;stroke-opacity:1"
       id="path8811-5-2"
       cx="89.17083"
       cy="126.83921"
       r="4.0770698" />
    <circle
       style="fill:none;stroke:#ff0000;stroke-width:0.00035278;stroke-linecap:round;stroke-miterlimit:4;stroke-dasharray:none;stroke-opacity:1"
       id="path8811-3-3-9"
       cx="103.23898"
       cy="126.85783"
       r="4.0770698" />
    <circle
       style="fill:none;stroke:#ff0000;stroke-width:0.00035278;stroke-linecap:round;stroke-miterlimit:4;stroke-dasharray:none;stroke-opacity:1"
       id="path8811-3-6-5-1"
       cx="117.21568"
       cy="126.83078"
       r="4.0770698" />
    <circle
       style="fill:none;stroke:#ff0000;stroke-width:0.00035278;stroke-linecap:round;stroke-miterlimit:4;stroke-dasharray:none;stroke-opacity:1"
       id="path8811-3-6-7-6-2"
       cx="131.20876"
       cy="126.84983"
       r="4.0770698" />
    <circle
       style="fill:none;stroke:#ff0000;stroke-width:0.00035278;stroke-linecap:round;stroke-miterlimit:4;stroke-dasharray:none;stroke-opacity:1"
       id="path8811-5-2-7"
       cx="89.134323"
       cy="140.78703"
       r="4.0770698" />
    <circle
       style="fill:none;stroke:#ff0000;stroke-width:0.00035278;stroke-linecap:round;stroke-miterlimit:4;stroke-dasharray:none;stroke-opacity:1"
       id="path8811-3-3-9-0"
       cx="103.20248"
       cy="140.80565"
       r="4.0770698" />
    <circle
       style="fill:none;stroke:#ff0000;stroke-width:0.00035278;stroke-linecap:round;stroke-miterlimit:4;stroke-dasharray:none;stroke-opacity:1"
       id="path8811-3-6-5-1-9"
       cx="117.17918"
       cy="140.77861"
       r="4.0770698" />
    <circle
       style="fill:none;stroke:#ff0000;stroke-width:0.00035278;stroke-linecap:round;stroke-miterlimit:4;stroke-dasharray:none;stroke-opacity:1"
       id="path8811-3-6-7-6-2-3"
       cx="131.17226"
       cy="140.79765"
       r="4.0770698" />
    <circle
       style="fill:none;stroke:#ff0000;stroke-width:0.00035278;stroke-linecap:round;stroke-miterlimit:4;stroke-dasharray:none;stroke-opacity:1"
       id="path8811-5-2-7-6"
       cx="89.173546"
       cy="154.70856"
       r="4.0770698" />
    <circle
       style="fill:none;stroke:#ff0000;stroke-width:0.00035278;stroke-linecap:round;stroke-miterlimit:4;stroke-dasharray:none;stroke-opacity:1"
       id="path8811-3-3-9-0-1"
       cx="103.24171"
       cy="154.72717"
       r="4.0770698" />
    <circle
       style="fill:none;stroke:#ff0000;stroke-width:0.00035278;stroke-linecap:round;stroke-miterlimit:4;stroke-dasharray:none;stroke-opacity:1"
       id="path8811-3-6-5-1-9-8"
       cx="117.21841"
       cy="154.70013"
       r="4.0770698" />
    <circle
       style="fill:none;stroke:#ff0000;stroke-width:0.00035278;stroke-linecap:round;stroke-miterlimit:4;stroke-dasharray:none;stroke-opacity:1"
       id="path8811-3-6-7-6-2-3-7"
       cx="131.21149"
       cy="154.71918"
       r="4.0770698" />
    <circle
       style="fill:none;stroke:#ff0000;stroke-width:0.00035278;stroke-linecap:round;stroke-miterlimit:4;stroke-dasharray:none;stroke-opacity:1"
       id="path8811-5-2-7-6-9"
       cx="89.131935"
       cy="168.83308"
       r="4.0770698" />
    <circle
       style="fill:none;stroke:#ff0000;stroke-width:0.00035278;stroke-linecap:round;stroke-miterlimit:4;stroke-dasharray:none;stroke-opacity:1"
       id="path8811-3-3-9-0-1-2"
       cx="103.2001"
       cy="168.8517"
       r="4.0770698" />
    <circle
       style="fill:none;stroke:#ff0000;stroke-width:0.00035278;stroke-linecap:round;stroke-miterlimit:4;stroke-dasharray:none;stroke-opacity:1"
       id="path8811-3-6-5-1-9-8-0"
       cx="117.1768"
       cy="168.82466"
       r="4.0770698" />
    <circle
       style="fill:none;stroke:#ff0000;stroke-width:0.00035278;stroke-linecap:round;stroke-miterlimit:4;stroke-dasharray:none;stroke-opacity:1"
       id="path8811-3-6-7-6-2-3-7-2"
       cx="131.16986"
       cy="168.8437"
       r="4.0770698" />
    <circle
       style="fill:none;stroke:#ff0000;stroke-width:0.00035278;stroke-linecap:round;stroke-miterlimit:4;stroke-dasharray:none;stroke-opacity:1"
       id="path8811-5-2-7-6-9-3"
       cx="89.143616"
       cy="182.6949"
       r="4.0770698" />
    <circle
       style="fill:none;stroke:#ff0000;stroke-width:0.00035278;stroke-linecap:round;stroke-miterlimit:4;stroke-dasharray:none;stroke-opacity:1"
       id="path8811-3-3-9-0-1-2-7"
       cx="103.21178"
       cy="182.71352"
       r="4.0770698" />
    <circle
       style="fill:none;stroke:#ff0000;stroke-width:0.00035278;stroke-linecap:round;stroke-miterlimit:4;stroke-dasharray:none;stroke-opacity:1"
       id="path8811-3-6-5-1-9-8-0-5"
       cx="117.18848"
       cy="182.68648"
       r="4.0770698" />
    <circle
       style="fill:none;stroke:#ff0000;stroke-width:0.00035278;stroke-linecap:round;stroke-miterlimit:4;stroke-dasharray:none;stroke-opacity:1"
       id="path8811-3-6-7-6-2-3-7-2-9"
       cx="131.18153"
       cy="182.70552"
       r="4.0770698" />
  </g>
  <g
     inkscape:groupmode="layer"
     id="layer2"
     inkscape:label="Layer 2"
     style="display:inline"
     transform="translate(-75.140343,-77.306458)">
    <g
       style="fill:#000000;fill-opacity:1;stroke:#000000;stroke-linecap:round;stroke-linejoin:round;stroke-opacity:1"
       id="g6748"
       transform="matrix(0.00254,0,0,0.00254,-36.47603,51.717504)" />
    <g
       style="fill:#000000;fill-opacity:0;stroke:#000000;stroke-width:-0.000393701;stroke-linecap:round;stroke-linejoin:round;stroke-opacity:1"
       id="g6750"
       transform="matrix(0.00254,0,0,0.00254,-36.47603,51.717504)" />
    <path
       style="fill:#000000;fill-opacity:1;stroke-width:0.0495033"
       d="m 90.233565,91.256202 c -0.02654,-0.02286 -0.148492,-0.08349 -0.271013,-0.134676 -0.122521,-0.05116 -0.280666,-0.132373 -0.351431,-0.180416 -0.07076,-0.04806 -0.237841,-0.124328 -0.371277,-0.169506 -0.514184,-0.174096 -3.59642,-1.653185 -3.660244,-1.756464 -0.01491,-0.02409 -0.109219,-0.08276 -0.209651,-0.130414 -0.100425,-0.04765 -0.272124,-0.179814 -0.381548,-0.293687 -0.109423,-0.113867 -0.334919,-0.306936 -0.501104,-0.42903 -0.275585,-0.20247 -0.561233,-0.518405 -0.523836,-0.579376 0.07748,-0.126327 0.343683,-0.357997 1.282588,-1.116187 0.08777,-0.07087 0.183181,-0.11427 0.21203,-0.09644 0.02888,0.01783 0.128262,0.04181 0.220911,0.05332 0.09265,0.01146 0.353659,0.08962 0.580019,0.173622 0.226367,0.084 0.467263,0.160379 0.535326,0.169734 0.251151,0.0345 0.767346,0.252175 0.752904,0.317466 -0.0095,0.04297 0.01438,0.05408 0.0703,0.03263 0.04777,-0.0183 0.102285,-0.0047 0.125023,0.03105 0.03222,0.05075 0.04046,0.05093 0.0411,5.84e-4 5.84e-4,-0.06976 0.22584,-0.03496 0.3361,0.05198 0.155286,0.122433 0.109231,-0.03245 -0.05414,-0.182124 -0.100209,-0.09178 -0.182194,-0.193033 -0.182194,-0.225004 0,-0.03198 -0.02146,-0.04484 -0.04771,-0.02865 -0.06534,0.0404 -0.249654,-0.152035 -0.247877,-0.258775 0.0012,-0.06928 0.433345,-0.488656 0.666851,-0.647088 0.292225,-0.198267 0.221595,-0.379917 -0.412022,-1.05959 -0.284373,-0.305053 -0.264979,-0.372479 0.237692,-0.826364 0.495246,-0.447184 0.559251,-0.247795 -0.450237,-1.402618 -0.315911,-0.361399 -0.311239,-0.37687 0.253678,-0.839835 0.258442,-0.211797 0.549217,-0.463088 0.64617,-0.558421 0.09695,-0.09533 0.199313,-0.17333 0.227466,-0.17333 0.02818,0 0.0918,-0.04485 0.141429,-0.09971 0.09782,-0.108097 0.151036,-0.102174 0.50406,0.05613 0.114224,0.05122 0.21949,0.09311 0.233938,0.09311 0.03093,0 1.050649,0.472612 1.185232,0.549317 0.05075,0.02888 0.133443,0.0605 0.183796,0.0702 0.09466,0.01824 0.277135,0.09431 0.729564,0.304176 0.14468,0.06711 0.28473,0.114798 0.311222,0.105969 0.05502,-0.01836 -0.477121,-0.58413 -0.549394,-0.58413 -0.292938,0 -0.204522,-0.341327 0.182118,-0.703083 0.154146,-0.14423 0.412478,-0.390324 0.574061,-0.546879 0.352998,-0.342 0.274574,-0.338562 0.836515,-0.03666 0.25386,0.136389 0.60636,0.320173 0.78334,0.408402 0.17697,0.08823 0.33291,0.173243 0.34652,0.188906 0.0364,0.04192 1.23448,0.54081 1.29873,0.54081 0.0302,0 0.09,0.03075 0.13297,0.06833 0.043,0.0376 0.28978,0.149937 0.54844,0.249673 0.258647,0.09974 0.503687,0.198705 0.544527,0.219929 0.0409,0.02122 0.34157,0.124046 0.66829,0.228495 0.32673,0.104448 0.60518,0.204458 0.6188,0.222238 0.0136,0.01778 0.15841,0.07214 0.32177,0.120808 0.47991,0.142961 0.61879,0.195302 0.61879,0.233219 0,0.04034 0.26778,0.135805 0.47889,0.170757 0.37506,0.0621 0.46445,0.253192 0.23459,0.501554 -0.28706,0.310187 -0.54221,0.55838 -0.57441,0.55876 -0.0188,2.23e-4 -0.002,0.06167 0.0368,0.136542 0.10605,0.203301 -0.0142,0.754015 -0.18817,0.861515 -0.0317,0.01965 0.1457,0.227998 0.43245,0.507846 0.51415,0.501765 0.54476,0.595396 0.22755,0.696073 -0.045,0.01427 -0.12033,0.09123 -0.16745,0.171014 -0.0471,0.07978 -0.15562,0.207897 -0.24109,0.284707 -0.5004,0.449675 -0.50236,0.395662 0.0302,0.83269 0.46109,0.378397 0.45798,0.371141 0.24096,0.560918 -0.10371,0.09068 -0.33966,0.302311 -0.52434,0.470279 -0.22572,0.205295 -0.37175,0.302025 -0.44553,0.295103 -0.0604,-0.0058 -0.19885,-0.02163 -0.30776,-0.03555 -0.10891,-0.01392 -0.38737,-0.039 -0.61879,-0.05578 -0.23143,-0.01678 -0.65468,-0.05028 -0.94056,-0.07445 -0.519787,-0.04397 -0.519787,-0.04397 -0.655227,0.103185 -0.2264,0.245977 -0.34995,0.187082 -1.03843,-0.495023 -0.29953,-0.296745 -0.29953,-0.296745 -0.45675,-0.161438 -0.15476,0.133186 -0.0828,0.504566 0.12242,0.631361 0.0263,0.01625 0.0478,0.06081 0.0478,0.09898 0,0.09408 -0.20081,0.275392 -0.26266,0.237166 -0.0273,-0.0169 -0.0361,-0.0087 -0.0195,0.01812 0.19092,0.308912 -0.49243,0.501162 -0.77741,0.218713 -0.21452,-0.212609 -0.33743,-0.300861 -0.381289,-0.273755 -0.258308,0.159648 -0.715309,0.61555 -0.617029,0.61555 0.120287,0 0.572769,0.412296 0.572769,0.521896 0,0.05943 -0.144733,0.220227 -0.354582,0.393919 -0.06579,0.05443 -0.234892,0.207125 -0.375789,0.339269 -0.299522,0.28093 -0.35236,0.266804 -0.90739,-0.242562 -0.116452,-0.106869 -0.1754,-0.08919 -0.296511,0.08893 -0.272487,0.400748 -0.845618,0.735872 -1.012429,0.591987 z m 0.884903,-0.739235 c 0.292839,-0.318507 0.340643,-0.321009 0.652035,-0.03409 0.394054,0.363095 0.374251,0.362838 0.761452,0.0099 0.399609,-0.364247 0.35812,-0.831007 -0.07386,-0.831007 -0.162028,0 -0.11872,-0.178996 0.08975,-0.370994 0.793375,-0.730675 0.777735,-0.722835 0.960085,-0.481377 0.14412,0.190806 0.17314,0.221741 0.35103,0.374198 0.23338,0.200009 0.62762,-0.375917 0.45627,-0.666529 -0.21667,-0.36748 -0.19467,-0.446927 0.20821,-0.75177 0.17984,-0.13608 0.17984,-0.13608 0.65389,0.335662 0.53085,0.528268 0.51488,0.520229 0.67986,0.342327 0.11994,-0.129338 0.56153,-0.14706 1.134827,-0.04555 0.14974,0.02654 0.79878,0.0776 1.2301,0.09682 0.27696,0.01234 0.33273,-0.0012 0.46961,-0.114821 0.0854,-0.07085 0.20962,-0.173376 0.27597,-0.227834 0.43809,-0.359534 0.43637,-0.356985 0.30712,-0.454984 -0.77246,-0.585656 -0.78791,-0.664261 -0.24168,-1.229399 0.25135,-0.260051 0.47488,-0.504776 0.49674,-0.543833 0.0454,-0.08117 -0.61296,-0.766733 -0.73633,-0.766733 -0.12678,0 -0.13207,-0.142739 -0.0106,-0.287045 0.19969,-0.237323 0.2665,-0.513417 0.17071,-0.70544 -0.0855,-0.17147 -0.10624,-0.344104 -0.0413,-0.344104 0.0611,0 0.47831,-0.403199 0.59644,-0.576394 0.10614,-0.155614 0.10614,-0.155614 -0.0296,-0.189081 -0.0747,-0.01842 -0.33624,-0.111856 -0.58128,-0.207663 -0.24505,-0.0958 -0.49009,-0.191432 -0.54454,-0.212504 -0.13623,-0.05274 -0.64237,-0.231389 -1.26233,-0.4456 -0.765357,-0.264447 -2.231107,-0.903197 -3.212617,-1.400016 -0.47367,-0.239756 -0.86928,-0.427854 -0.879132,-0.418003 -0.02923,0.02923 0.520572,0.629332 0.748082,0.816431 0.1016,0.08355 -0.0449,0.368141 -0.34433,0.668938 -0.187793,0.188643 -0.370659,0.424896 -0.370595,0.478792 1.2e-5,0.01362 0.133367,0.169547 0.296335,0.346526 0.16298,0.176972 0.29647,0.338479 0.29667,0.358897 2e-4,0.02041 0.0472,0.08394 0.10439,0.14116 0.14144,0.141447 0.52142,0.56511 0.76227,0.849904 0.22128,0.261652 0.25138,0.27334 0.36547,0.141915 0.97177,-1.119426 1.03841,-1.156478 1.37351,-0.763657 0.13263,0.155479 0.291277,0.336942 0.352537,0.403257 0.0613,0.06631 0.11138,0.139161 0.11138,0.161893 0,0.02274 0.054,0.0549 0.12011,0.07148 0.47855,0.120106 0.41743,0.564332 -0.16085,1.169311 -0.18179,0.190186 -0.330527,0.365913 -0.330527,0.390511 0,0.0667 0.486807,0.633565 0.546857,0.636786 0.0285,0.0018 0.13656,0.08955 0.24012,0.195606 0.2725,0.279065 0.24173,0.344228 -0.57073,1.208836 -0.235007,0.250093 -0.481797,0.519347 -0.548427,0.598343 -0.20517,0.243264 -1.54146,-0.764954 -1.381,-1.041955 0.18189,-0.314005 0.27669,-0.333042 0.5184,-0.104115 0.26941,0.255145 0.61357,0.532157 0.66118,0.532157 0.12572,0 0.759367,-0.803123 0.697077,-0.883505 -0.144337,-0.18624 -0.276237,-0.329909 -0.522387,-0.569021 -0.33574,-0.326149 -0.29657,-0.617352 0.13424,-0.997888 0.10947,-0.09669 0.546437,-0.648754 0.546437,-0.690367 0,-0.799293 -1.099297,-0.676252 -1.620797,0.181405 -0.17868,0.293874 -0.27453,0.2421 -0.92998,-0.502361 -0.47804,-0.54295 -0.47804,-0.54295 -1.125793,0.122807 -0.777842,0.799457 -0.685619,0.791149 -1.345787,0.121217 -0.295125,-0.299493 -0.550025,-0.544307 -0.566437,-0.544032 -0.09062,0.0018 -0.864585,0.855148 -0.797615,0.879693 0.04058,0.01485 0.136968,0.09024 0.214199,0.167466 0.07723,0.07722 0.179545,0.140418 0.227367,0.140418 0.11696,0 0.162419,0.05268 0.105068,0.121807 -0.0304,0.03666 -0.02228,0.10439 0.02304,0.191724 0.107372,0.206955 -0.106635,0.502186 -0.669809,0.924048 -0.194741,0.145879 -0.344911,0.300136 -0.344911,0.354307 0,0.07423 -0.176675,-0.02871 -0.616776,-0.359458 -0.484516,-0.364095 -0.464456,-0.366007 -0.967331,0.09213 -0.117844,0.10736 0.4446,0.804082 0.649111,0.804082 0.02678,0 0.100589,0.06035 0.164027,0.134098 0.119709,0.139172 0.08777,0.311432 -0.05777,0.311432 -0.03432,0 -0.06234,0.02543 -0.06234,0.05654 0,0.09177 -0.898777,0.97422 -1.024344,1.005734 -0.126029,0.03163 -0.353313,-0.06647 -0.464362,-0.200418 -0.224601,-0.270931 -0.74517,-0.621356 -0.826727,-0.556521 -0.4243,0.337311 -0.852781,0.766657 -0.852781,0.854505 0,0.03824 -0.02765,0.07869 -0.06141,0.08995 -0.03426,0.0114 0.0041,0.05625 0.08663,0.101402 0.299393,0.163671 2.576361,1.272473 2.613079,1.272473 0.01432,0 0.192542,0.07797 0.39603,0.17326 0.203488,0.09529 0.400393,0.173406 0.437567,0.173575 0.03719,1.52e-4 0.265029,0.10042 0.50634,0.222765 0.241311,0.122351 0.466917,0.222449 0.501344,0.222449 0.03444,0 0.09049,0.03362 0.124567,0.07466 0.06909,0.08324 0.28325,-0.0875 0.759552,-0.605558 z m 7.655669,-7.463887 c 0,-0.01362 0.0111,-0.02473 0.0247,-0.02473 0.0136,0 0.0247,0.01117 0.0247,0.02473 0,0.01362 -0.0111,0.02473 -0.0247,0.02473 -0.0136,0 -0.0247,-0.01111 -0.0247,-0.02473 z M 95.45742,82.805559 c 0,-0.01362 0.0111,-0.02473 0.0247,-0.02473 0.0136,0 0.0247,0.01111 0.0247,0.02473 0,0.01362 -0.0112,0.02473 -0.0247,0.02473 -0.0136,0 -0.0247,-0.01117 -0.0247,-0.02473 z m 0.94056,-0.643539 c 0,-0.01362 0.0111,-0.02473 0.0247,-0.02473 0.0136,0 0.0247,0.01117 0.0247,0.02473 0,0.01362 -0.0111,0.02473 -0.0247,0.02473 -0.0136,0 -0.0247,-0.01111 -0.0247,-0.02473 z m -10.890729,6.410678 c 0,-0.02725 -0.0098,-0.04952 -0.02181,-0.04952 -0.01199,0 -0.03561,0.02228 -0.05245,0.04952 -0.01684,0.02725 -0.007,0.04952 0.02181,0.04952 0.02882,0 0.05245,-0.02228 0.05245,-0.04952 z m 0.346525,-0.123761 c 0,-0.01362 -0.01111,-0.02473 -0.02473,-0.02473 -0.01362,0 -0.02473,0.01117 -0.02473,0.02473 0,0.01362 0.01111,0.02473 0.02473,0.02473 0.01362,0 0.02473,-0.01111 0.02473,-0.02473 z m 0.106032,-0.439776 c 0.235289,-0.227612 0.441777,-0.457861 0.458855,-0.511675 0.04309,-0.135671 0.260121,-0.232617 0.31231,-0.139495 0.02122,0.03789 0.221367,0.204944 0.44474,0.371211 0.223367,0.166267 0.452628,0.361429 0.509465,0.43369 0.103349,0.131379 0.103349,0.131379 0.472613,-0.252543 0.378577,-0.393604 0.499502,-0.560397 0.445465,-0.614439 -0.0169,-0.0169 -0.04391,0.0197 -0.06002,0.08129 -0.02041,0.07811 -0.05356,0.102647 -0.109418,0.08105 -0.203102,-0.07852 -0.64033,-0.215064 -0.788892,-0.246374 -0.09033,-0.01906 -0.175704,-0.06452 -0.18973,-0.101069 -0.01403,-0.03654 -0.05198,-0.0563 -0.08428,-0.04391 -0.03233,0.0124 -0.22373,-0.03356 -0.425346,-0.102133 -0.201623,-0.06858 -0.394253,-0.124684 -0.428066,-0.124684 -0.03379,0 -0.169143,-0.0483 -0.300727,-0.107342 -0.131583,-0.05904 -0.256764,-0.109155 -0.278181,-0.111382 -0.0214,-0.0023 -0.0587,-0.03602 -0.08286,-0.07511 -0.03625,-0.05868 -0.05742,-0.05986 -0.121409,-0.0068 -0.04262,0.03537 -0.06695,0.08135 -0.05408,0.102174 0.0283,0.04584 -0.337661,0.380776 -0.784723,0.718215 -0.180357,0.136132 -0.328131,0.26333 -0.328382,0.28266 -5.85e-4,0.05385 0.481739,0.492871 0.659098,0.599805 0.08649,0.05215 0.16467,0.114393 0.17375,0.13833 0.03742,0.09867 0.153182,0.02187 0.559813,-0.371503 z m -0.205043,-1.441348 c 0,-0.01362 0.01117,-0.02473 0.02473,-0.02473 0.01362,0 0.02473,0.01117 0.02473,0.02473 0,0.01362 -0.01111,0.02473 -0.02473,0.02473 -0.01362,0 -0.02473,-0.01111 -0.02473,-0.02473 z m 0.44553,1.584104 c 0,-0.01362 -0.01111,-0.02473 -0.02473,-0.02473 -0.01362,0 -0.02473,0.01111 -0.02473,0.02473 0,0.01362 0.01111,0.02473 0.02473,0.02473 0.01362,0 0.02473,-0.01111 0.02473,-0.02473 z m 9.009615,-0.544534 c 0,-0.01362 -0.0111,-0.02473 -0.0247,-0.02473 -0.0136,0 -0.0247,0.01111 -0.0247,0.02473 0,0.01362 0.0112,0.02473 0.0247,0.02473 0.0136,0 0.0247,-0.01111 0.0247,-0.02473 z m -0.19802,-0.099 c 0,-0.01362 -0.0111,-0.02473 -0.0247,-0.02473 -0.0136,0 -0.0247,0.01111 -0.0247,0.02473 0,0.01362 0.0111,0.02473 0.0247,0.02473 0.0136,0 0.0247,-0.01111 0.0247,-0.02473 z m -9.47164,-0.99832 c -0.01812,-0.01812 -0.03298,-0.0035 -0.03298,0.03298 0,0.03631 0.01485,0.05116 0.03298,0.03298 0.01813,-0.01813 0.01813,-0.04783 0,-0.06601 z m 3.778754,-0.239265 c 0,-0.01362 -0.01111,-0.02473 -0.02473,-0.02473 -0.01362,0 -0.02473,0.01111 -0.02473,0.02473 0,0.01362 0.01111,0.02473 0.02473,0.02473 0.01362,0 0.02473,-0.01111 0.02473,-0.02473 z m 0.247523,0 c 0,-0.01362 -0.01111,-0.02473 -0.02473,-0.02473 -0.01362,0 -0.02473,0.01111 -0.02473,0.02473 0,0.01362 0.01111,0.02473 0.02473,0.02473 0.01362,0 0.02473,-0.01111 0.02473,-0.02473 z m -0.04952,-0.099 c 0,-0.01362 -0.01111,-0.02473 -0.02473,-0.02473 -0.01362,0 -0.02473,0.01111 -0.02473,0.02473 0,0.01362 0.01111,0.02473 0.02473,0.02473 0.01362,0 0.02473,-0.01111 0.02473,-0.02473 z m 0.574751,-0.504162 c 0.329183,-0.318613 0.359423,-0.362148 0.251549,-0.362148 -0.03561,0 -0.130292,-0.0887 -0.210388,-0.197109 -0.08491,-0.114926 -0.173967,-0.186842 -0.213591,-0.172482 -0.09539,0.03455 -0.793303,0.584743 -0.796074,0.627554 -0.0068,0.105892 0.606923,0.566279 0.633397,0.475097 0.01035,-0.03561 0.16114,-0.202535 0.335107,-0.370912 z m 0.745338,-0.147633 c -0.01812,-0.01813 -0.04789,-0.01813 -0.06601,0 -0.01812,0.01813 -0.0035,0.03298 0.03298,0.03298 0.03631,0 0.05116,-0.01485 0.03298,-0.03298 z M 89.38885,84.790667 c 0.16346,-0.14758 0.175773,-0.122936 -0.316043,-0.632617 -0.223502,-0.231629 -0.223502,-0.231629 -0.375023,-0.07425 -0.08334,0.08656 -0.228085,0.215327 -0.32167,0.286162 -0.170155,0.128794 -0.170155,0.128794 0.02748,0.370152 0.428288,0.523083 0.463562,0.541652 0.664354,0.349694 0.09724,-0.09296 0.241656,-0.227571 0.320919,-0.299136 z m 0.716659,-0.675288 c 0.125567,-0.11002 0.317408,-0.283753 0.426318,-0.386073 0.698464,-0.656215 0.64427,-0.629776 0.807771,-0.394089 0.08123,0.117095 0.266295,0.335422 0.411255,0.485171 0.144956,0.14975 0.302961,0.327962 0.351115,0.396025 0.04818,0.06807 0.08771,0.09663 0.08789,0.06346 1.99e-4,-0.03315 0.05256,-0.08885 0.116464,-0.123761 0.40459,-0.221075 0.885733,-0.928011 0.742111,-1.090384 -0.368153,-0.416226 -0.61396,-0.633389 -0.790085,-0.698015 -0.337328,-0.123777 -1.955168,-0.829194 -2.297624,-1.001816 -0.593785,-0.299306 -0.760386,-0.23554 -0.334001,0.127835 0.38557,0.328599 0.791815,1.075639 0.655198,1.204849 -1.054985,0.997753 -1.032954,0.961713 -0.766306,1.253465 0.136898,0.14979 0.248906,0.292827 0.248906,0.317858 0,0.09365 0.119603,0.03947 0.340988,-0.154527 z m -0.83602,-0.07223 c 0,-0.01362 -0.01111,-0.02473 -0.02473,-0.02473 -0.01362,0 -0.02473,0.01111 -0.02473,0.02473 0,0.01362 0.01117,0.02473 0.02473,0.02473 0.01362,0 0.02473,-0.01117 0.02473,-0.02473 z m -0.191888,-0.903437 c 0.813452,-0.711579 0.780096,-0.589713 0.31454,-1.14907 -0.443311,-0.532636 -0.386076,-0.523515 -0.833968,-0.132887 -0.198354,0.172985 -0.403473,0.338632 -0.455832,0.368112 -0.132068,0.07435 0.570664,1.099482 0.753706,1.099482 0.0053,0 0.10484,-0.08353 0.221554,-0.185637 z m 3.829929,-1.435594 c 0.28204,-0.297845 0.279327,-0.36506 -0.02999,-0.742761 -0.278134,-0.33962 -0.311607,-0.357277 -0.392095,-0.206885 -0.03011,0.05625 -0.142277,0.181381 -0.249257,0.27803 -0.193806,0.175095 -0.252999,0.282549 -0.129543,0.235178 0.03707,-0.01421 0.09449,0.03426 0.133706,0.112937 0.282853,0.567267 0.388049,0.618281 0.667184,0.323501 z"
       id="path11026" />
    <path
       style="fill:#000000;fill-opacity:1;stroke-width:0.0420914"
       d="m 106.10165,83.62251 c 0.0195,-0.02253 0.071,-0.126266 0.11452,-0.230442 0.0435,-0.104175 0.11255,-0.238638 0.1534,-0.298812 0.0409,-0.0602 0.10571,-0.202229 0.14413,-0.315681 0.14803,-0.437203 1.40566,-3.057944 1.49348,-3.112217 0.0205,-0.01267 0.0704,-0.09287 0.11088,-0.17826 0.0406,-0.08538 0.15289,-0.231376 0.24972,-0.324422 0.0968,-0.09304 0.26097,-0.284774 0.36479,-0.426072 0.17216,-0.234328 0.44078,-0.4772 0.49262,-0.445408 0.10742,0.0659 0.3044,0.292231 0.94907,1.090553 0.0603,0.07465 0.0972,0.155754 0.082,0.180284 -0.0151,0.02457 -0.0355,0.109056 -0.0453,0.187834 -0.01,0.07882 -0.0762,0.300708 -0.14763,0.493176 -0.0714,0.192477 -0.13636,0.397299 -0.14432,0.455178 -0.0293,0.213546 -0.21441,0.652449 -0.26993,0.640171 -0.0366,-0.0085 -0.046,0.01224 -0.0277,0.05977 0.0156,0.04064 0.004,0.08697 -0.0264,0.106302 -0.0431,0.02738 -0.0433,0.03444 -5e-4,0.03495 0.0593,5.02e-4 0.0298,0.192026 -0.0442,0.285777 -0.1041,0.132039 0.0276,0.09288 0.15486,-0.046 0.0781,-0.08521 0.16413,-0.154911 0.19132,-0.154911 0.0272,0 0.0381,-0.01828 0.0243,-0.04056 -0.0344,-0.05552 0.12928,-0.212271 0.22004,-0.210766 0.0589,8.5e-4 0.41548,0.368466 0.5502,0.567005 0.16858,0.248476 0.32303,0.188421 0.90094,-0.35033 0.25938,-0.241792 0.3167,-0.225306 0.70264,0.202102 0.38022,0.421098 0.21069,0.475516 1.19261,-0.382819 0.30729,-0.26861 0.32044,-0.26464 0.71408,0.215689 0.18009,0.219753 0.39376,0.466988 0.47481,0.549422 0.081,0.08239 0.14738,0.169476 0.14738,0.193412 0,0.02398 0.0381,0.07806 0.0848,0.120254 0.0919,0.08316 0.0869,0.128425 -0.0477,0.428589 -0.0435,0.09712 -0.0792,0.186627 -0.0792,0.198913 0,0.02627 -0.40184,0.893341 -0.46706,1.007771 -0.0246,0.04311 -0.0514,0.113461 -0.0597,0.156281 -0.0155,0.08052 -0.0802,0.235636 -0.25864,0.620326 -0.0571,0.123017 -0.0976,0.242098 -0.0901,0.264622 0.0156,0.04677 0.49667,-0.405683 0.49667,-0.467132 0,-0.24908 0.29022,-0.173898 0.59781,0.154852 0.12264,0.131061 0.33189,0.350712 0.465,0.488108 0.29079,0.300139 0.28788,0.23346 0.0312,0.711263 -0.11596,0.215851 -0.27223,0.515573 -0.34725,0.666054 -0.075,0.150473 -0.1473,0.283065 -0.16061,0.294637 -0.0356,0.03095 -0.45984,1.049647 -0.45984,1.104277 0,0.02568 -0.0261,0.07653 -0.0581,0.113061 -0.032,0.03656 -0.1275,0.246393 -0.2123,0.466325 -0.0848,0.219923 -0.16895,0.428274 -0.187,0.462999 -0.018,0.03478 -0.10547,0.290429 -0.19428,0.56823 -0.0888,0.27781 -0.17385,0.514569 -0.18897,0.52615 -0.0151,0.01156 -0.0613,0.134692 -0.10272,0.273593 -0.12155,0.408055 -0.16606,0.526141 -0.1983,0.526141 -0.0343,0 -0.11547,0.227687 -0.14518,0.407188 -0.0528,0.318904 -0.21529,0.39491 -0.42647,0.199466 -0.26374,-0.24408 -0.47477,-0.461027 -0.4751,-0.488406 -1.8e-4,-0.01599 -0.0525,-0.0017 -0.11609,0.03129 -0.17286,0.09017 -0.64112,-0.01207 -0.73252,-0.159996 -0.0168,-0.02695 -0.19387,0.123885 -0.43181,0.367701 -0.42665,0.437168 -0.50626,0.463195 -0.59185,0.19348 -0.0122,-0.03826 -0.0775,-0.102314 -0.14542,-0.142379 -0.0679,-0.04005 -0.17676,-0.132319 -0.24207,-0.204992 -0.38235,-0.425478 -0.33643,-0.427144 -0.70802,0.02568 -0.32174,0.392053 -0.31558,0.389409 -0.47693,0.204882 -0.0771,-0.08818 -0.25705,-0.288804 -0.39987,-0.445833 -0.17456,-0.191924 -0.25681,-0.316089 -0.25092,-0.378822 0.005,-0.05136 0.0184,-0.169078 0.0303,-0.261681 0.0118,-0.0926 0.0332,-0.329371 0.0475,-0.526141 0.0143,-0.196779 0.0428,-0.556658 0.0633,-0.799734 0.0374,-0.441964 0.0374,-0.441964 -0.0877,-0.557125 -0.20915,-0.192503 -0.15907,-0.297554 0.4209,-0.882951 0.25232,-0.254683 0.25232,-0.254683 0.13727,-0.388363 -0.11324,-0.131588 -0.42901,-0.0704 -0.53683,0.104091 -0.0138,0.02236 -0.0517,0.04064 -0.0842,0.04064 -0.08,0 -0.23415,-0.170744 -0.20165,-0.223333 0.0144,-0.02321 0.008,-0.0307 -0.0154,-0.01658 -0.26266,0.162334 -0.42613,-0.418701 -0.18597,-0.661012 0.18078,-0.182401 0.25582,-0.286908 0.23277,-0.324201 -0.13574,-0.219635 -0.52338,-0.60821 -0.52338,-0.524645 0,0.102279 -0.35057,0.487012 -0.44376,0.487012 -0.0505,0 -0.18726,-0.123061 -0.33494,-0.301491 -0.0463,-0.05595 -0.17611,-0.199721 -0.28847,-0.319524 -0.23887,-0.254674 -0.22686,-0.299603 0.20624,-0.771531 0.0909,-0.09901 0.0758,-0.149138 -0.0756,-0.252115 -0.34074,-0.231691 -0.62569,-0.719009 -0.50335,-0.860843 z m 0.62856,0.752407 c 0.27082,0.248995 0.27295,0.289638 0.029,0.554405 -0.30873,0.335059 -0.30851,0.318223 -0.008,0.64745 0.30971,0.339778 0.70659,0.3045 0.70659,-0.06284 0,-0.13777 0.15219,-0.100944 0.31544,0.07627 0.62128,0.674582 0.61461,0.661284 0.40931,0.816331 -0.16224,0.122542 -0.18854,0.147217 -0.31818,0.298472 -0.17006,0.198437 0.31964,0.533649 0.56674,0.387955 0.31246,-0.184229 0.38001,-0.165523 0.63921,0.177036 0.1157,0.152913 0.1157,0.152913 -0.28541,0.555985 -0.44917,0.451369 -0.44233,0.43779 -0.29107,0.578068 0.10997,0.101982 0.12504,0.477455 0.0388,0.964917 -0.0225,0.12732 -0.066,0.679182 -0.0823,1.045922 -0.0105,0.235492 8.5e-4,0.282912 0.0976,0.399298 0.0602,0.07261 0.14742,0.178234 0.19372,0.23465 0.30571,0.372497 0.30354,0.371034 0.38687,0.261136 0.49796,-0.656803 0.5648,-0.66994 1.04533,-0.205494 0.22111,0.213716 0.42919,0.403778 0.4624,0.422365 0.069,0.0386 0.65193,-0.521184 0.65193,-0.626082 0,-0.107798 0.12137,-0.112296 0.24407,-0.009 0.20179,0.169791 0.43655,0.226598 0.59982,0.14515 0.1458,-0.0727 0.29258,-0.09033 0.29258,-0.03512 0,0.05195 0.34283,0.406694 0.4901,0.507137 0.13231,0.09025 0.13231,0.09025 0.16077,-0.02517 0.0156,-0.06351 0.0951,-0.285896 0.17657,-0.494247 0.0815,-0.20836 0.16276,-0.416711 0.18068,-0.463009 0.0448,-0.115833 0.19674,-0.54619 0.37888,-1.073327 0.22486,-0.650765 0.76797,-1.897055 1.1904,-2.731608 0.20386,-0.402749 0.36379,-0.739126 0.35542,-0.747502 -0.0248,-0.02483 -0.53511,0.442628 -0.69419,0.636074 -0.0711,0.08639 -0.31302,-0.03818 -0.56879,-0.292775 -0.16039,-0.159673 -0.36127,-0.315163 -0.4071,-0.315104 -0.0116,9e-6 -0.14415,0.113393 -0.29463,0.251962 -0.15049,0.138578 -0.28781,0.252081 -0.30517,0.252251 -0.0173,1.7e-4 -0.0713,0.04013 -0.12002,0.08876 -0.12027,0.120263 -0.4805,0.44335 -0.72265,0.648139 -0.22248,0.188149 -0.23242,0.213742 -0.12067,0.31075 0.95182,0.826271 0.98332,0.882933 0.64932,1.16786 -0.1322,0.112772 -0.28649,0.247668 -0.34288,0.299756 -0.0564,0.05212 -0.11833,0.0947 -0.13765,0.0947 -0.0193,0 -0.0467,0.04591 -0.0608,0.102127 -0.10213,0.406899 -0.47983,0.35493 -0.99423,-0.136767 -0.16172,-0.154571 -0.31114,-0.281041 -0.33204,-0.281041 -0.0567,0 -0.53871,0.413922 -0.54145,0.464981 -0.002,0.02423 -0.0761,0.116113 -0.16632,0.204168 -0.23728,0.2317 -0.29268,0.205537 -1.02784,-0.485277 -0.21265,-0.199823 -0.44159,-0.409662 -0.50876,-0.466316 -0.20684,-0.174451 0.65042,-1.310664 0.88595,-1.174229 0.26699,0.154656 0.28318,0.235262 0.0885,0.440782 -0.21694,0.229073 -0.45247,0.521703 -0.45247,0.562185 0,0.106896 0.68287,0.645672 0.75122,0.592709 0.15835,-0.122729 0.28051,-0.23488 0.48382,-0.444175 0.27732,-0.285471 0.52493,-0.252166 0.84848,0.114141 0.0822,0.09308 0.55162,0.464624 0.587,0.464624 0.67962,0 0.575,-0.934707 -0.15424,-1.378125 -0.24987,-0.151927 -0.20586,-0.233426 0.42714,-0.790738 0.46166,-0.406465 0.46166,-0.406465 -0.10441,-0.95723 -0.67976,-0.661378 -0.6727,-0.582966 -0.10307,-1.144291 0.25464,-0.250933 0.46281,-0.467668 0.46257,-0.48163 -0.002,-0.07703 -0.72711,-0.73513 -0.74798,-0.678187 -0.0127,0.03452 -0.0767,0.116462 -0.14239,0.182129 -0.0656,0.06564 -0.11939,0.152658 -0.11939,0.193327 0,0.09945 -0.0448,0.138093 -0.10357,0.08933 -0.0312,-0.02585 -0.0888,-0.01896 -0.16302,0.01956 -0.17597,0.0913 -0.427,-0.09067 -0.78569,-0.569522 -0.12404,-0.165583 -0.2552,-0.293269 -0.30126,-0.293269 -0.0631,0 0.0244,-0.150217 0.30564,-0.524423 0.30957,-0.411975 0.3112,-0.394919 -0.0783,-0.822496 -0.0913,-0.100205 -0.68369,0.378032 -0.68369,0.551921 0,0.02279 -0.0513,0.08553 -0.11402,0.139462 -0.11834,0.101787 -0.26481,0.07466 -0.26481,-0.04914 0,-0.02917 -0.0216,-0.05297 -0.048,-0.05297 -0.0781,0 -0.82835,-0.764202 -0.85515,-0.870971 -0.0269,-0.10716 0.0565,-0.30041 0.17041,-0.394833 0.23037,-0.190972 0.52833,-0.633599 0.4732,-0.702947 -0.28681,-0.360772 -0.65188,-0.725097 -0.72656,-0.725097 -0.0325,0 -0.0669,-0.02355 -0.0765,-0.05221 -0.01,-0.02916 -0.0478,0.0034 -0.0862,0.07363 -0.13917,0.254563 -1.08195,2.190613 -1.08195,2.221835 0,0.01216 -0.0663,0.163711 -0.14732,0.336734 -0.081,0.173022 -0.14745,0.340441 -0.14758,0.372054 -1.4e-4,0.03163 -0.0854,0.225349 -0.18942,0.430528 -0.10403,0.20518 -0.18914,0.397002 -0.18914,0.426277 0,0.02925 -0.0286,0.07695 -0.0635,0.105918 -0.0707,0.05875 0.0744,0.240841 0.51489,0.645826 z m 6.34635,6.50942 c 0.0116,0 0.021,0.0094 0.021,0.021 0,0.01156 -0.01,0.021 -0.021,0.021 -0.0116,0 -0.021,-0.0094 -0.021,-0.021 0,-0.01156 0.009,-0.021 0.021,-0.021 z m 0.21046,-2.820122 c 0.0116,0 0.021,0.0094 0.021,0.021 0,0.01156 -0.009,0.021 -0.021,0.021 -0.0116,0 -0.021,-0.0095 -0.021,-0.021 0,-0.01156 0.01,-0.021 0.021,-0.021 z m 0.54719,0.799734 c 0.0116,0 0.021,0.0094 0.021,0.021 0,0.01156 -0.01,0.021 -0.021,0.021 -0.0116,0 -0.021,-0.0094 -0.021,-0.021 0,-0.01156 0.009,-0.021 0.021,-0.021 z m -5.45084,-9.260108 c 0.0231,0 0.0421,-0.0085 0.0421,-0.01854 0,-0.0102 -0.019,-0.03027 -0.0421,-0.04455 -0.0231,-0.01429 -0.0421,-0.006 -0.0421,0.01854 0,0.02449 0.019,0.04455 0.0421,0.04455 z m 0.10523,0.294646 c 0.0116,0 0.021,-0.0094 0.021,-0.021 0,-0.01156 -0.01,-0.021 -0.021,-0.021 -0.0116,0 -0.021,0.0094 -0.021,0.021 0,0.01156 0.009,0.021 0.021,0.021 z m 0.37394,0.09015 c 0.19353,0.200061 0.3893,0.375634 0.43506,0.390148 0.11535,0.03665 0.19779,0.221182 0.11861,0.26555 -0.0322,0.01802 -0.17426,0.188225 -0.31564,0.378151 -0.14137,0.189925 -0.30731,0.384859 -0.36876,0.433189 -0.1117,0.08788 -0.1117,0.08788 0.21474,0.401848 0.33467,0.321897 0.47649,0.424712 0.52244,0.378772 0.0144,-0.01437 -0.0168,-0.03733 -0.0691,-0.05102 -0.0664,-0.01734 -0.0873,-0.04557 -0.0689,-0.09304 0.0668,-0.17269 0.18286,-0.544456 0.20949,-0.670773 0.0162,-0.07678 0.0548,-0.149401 0.0859,-0.161322 0.031,-0.0119 0.0479,-0.04421 0.0373,-0.07168 -0.0105,-0.02746 0.0286,-0.190232 0.0868,-0.361664 0.0583,-0.171433 0.10602,-0.335221 0.10602,-0.363969 0,-0.02874 0.0411,-0.143824 0.0913,-0.255703 0.0502,-0.111879 0.0928,-0.218325 0.0947,-0.236529 0.002,-0.0182 0.0306,-0.04991 0.0639,-0.07049 0.0499,-0.03078 0.0509,-0.04881 0.006,-0.103232 -0.0301,-0.03622 -0.0692,-0.05688 -0.0869,-0.046 -0.0389,0.02406 -0.32377,-0.287103 -0.61069,-0.667227 -0.11574,-0.153355 -0.2239,-0.279009 -0.24034,-0.279222 -0.0457,-4.93e-4 -0.41907,0.409612 -0.50999,0.560416 -0.0443,0.07355 -0.0973,0.140015 -0.11762,0.147735 -0.0839,0.0318 -0.0186,0.130246 0.31588,0.475993 z m 1.22553,-0.17434 c 0.0116,0 0.021,0.0095 0.021,0.021 0,0.01156 -0.01,0.021 -0.021,0.021 -0.0116,0 -0.021,-0.0094 -0.021,-0.021 0,-0.01156 0.009,-0.021 0.021,-0.021 z m -1.34692,0.378823 c 0.0116,0 0.021,-0.0094 0.021,-0.021 0,-0.01156 -0.009,-0.021 -0.021,-0.021 -0.0116,0 -0.021,0.0094 -0.021,0.021 0,0.01156 0.009,0.021 0.021,0.021 z m 0.463,7.66064 c 0.0116,0 0.021,-0.0094 0.021,-0.021 0,-0.01156 -0.009,-0.021 -0.021,-0.021 -0.0116,0 -0.021,0.0095 -0.021,0.021 0,0.01156 0.009,0.021 0.021,0.021 z m 0.0842,-0.168371 c 0.0116,0 0.021,-0.0094 0.021,-0.021 0,-0.01156 -0.009,-0.021 -0.021,-0.021 -0.0116,0 -0.021,0.0094 -0.021,0.021 0,0.01156 0.009,0.021 0.021,0.021 z m 0.84884,-8.053493 c 0.0154,-0.01539 0.003,-0.02806 -0.0281,-0.02806 -0.0309,0 -0.0435,0.01258 -0.028,0.02806 0.0154,0.01539 0.0406,0.01539 0.0561,0 z m 0.20345,3.212983 c 0.0116,0 0.021,-0.0094 0.021,-0.021 0,-0.01156 -0.009,-0.021 -0.021,-0.021 -0.0116,0 -0.021,0.0094 -0.021,0.021 0,0.01156 0.009,0.021 0.021,0.021 z m 0,0.21046 c 0.0116,0 0.021,-0.0094 0.021,-0.021 0,-0.01156 -0.009,-0.021 -0.021,-0.021 -0.0116,0 -0.021,0.0094 -0.021,0.021 0,0.01156 0.009,0.021 0.021,0.021 z m 0.0842,-0.04209 c 0.0116,0 0.021,-0.0094 0.021,-0.021 0,-0.01156 -0.009,-0.021 -0.021,-0.021 -0.0116,0 -0.021,0.0094 -0.021,0.021 0,0.01156 0.009,0.021 0.021,0.021 z m 0.42867,0.488695 c 0.27091,0.279894 0.30793,0.305606 0.30793,0.213887 0,-0.03027 0.0754,-0.110783 0.16759,-0.178889 0.0977,-0.07219 0.15887,-0.147923 0.14666,-0.181611 -0.0293,-0.08112 -0.49719,-0.674522 -0.53359,-0.676877 -0.09,-0.006 -0.48149,0.516048 -0.40396,0.538555 0.0303,0.0088 0.1722,0.137013 0.31537,0.284935 z m 0.12553,0.633744 c 0.0154,-0.01539 0.0154,-0.04073 0,-0.05612 -0.0154,-0.01539 -0.0281,-0.0034 -0.0281,0.02806 0,0.03086 0.0126,0.04353 0.0281,0.02806 z m 0.62014,-1.23141 c 0.12548,0.138986 0.10453,0.149453 0.5379,-0.268721 0.19695,-0.190036 0.19695,-0.190036 0.0632,-0.31887 -0.0736,-0.07083 -0.18309,-0.193939 -0.24332,-0.273507 -0.10951,-0.144683 -0.10951,-0.144683 -0.31473,0.02338 -0.44476,0.364156 -0.46055,0.394153 -0.29733,0.56488 0.0791,0.08265 0.19349,0.205477 0.25434,0.27287 z m 0.57418,0.609357 c 0.0935,0.106769 0.24126,0.269886 0.32826,0.362489 0.55797,0.593883 0.53549,0.547807 0.33509,0.686827 -0.0996,0.06904 -0.2852,0.226419 -0.41253,0.349675 -0.12733,0.123256 -0.27886,0.257608 -0.33673,0.298548 -0.0579,0.04098 -0.0821,0.07457 -0.054,0.07474 0.0281,1.7e-4 0.0755,0.04473 0.10523,0.09902 0.18798,0.344013 0.78907,0.753122 0.92713,0.630997 0.3539,-0.313028 0.53856,-0.522034 0.5935,-0.671784 0.10525,-0.286823 0.70505,-1.662431 0.85183,-1.953608 0.25449,-0.504884 0.20027,-0.64654 -0.1087,-0.284 -0.2794,0.32784 -0.91458,0.673264 -1.02445,0.5571 -0.84837,-0.897023 -0.81772,-0.878291 -1.06579,-0.651565 -0.12736,0.116394 -0.24899,0.211633 -0.27027,0.211633 -0.0796,0 -0.0336,0.101701 0.13139,0.289935 z m 0.0614,-0.710846 c 0.0116,0 0.021,-0.0094 0.021,-0.021 0,-0.01156 -0.009,-0.021 -0.021,-0.021 -0.0116,0 -0.021,0.0095 -0.021,0.021 0,0.01156 0.01,0.021 0.021,0.021 z m 0.76816,-0.163159 c 0.60504,0.691656 0.50142,0.663299 0.97703,0.267445 0.45289,-0.376935 0.44513,-0.328265 0.11299,-0.709103 -0.14708,-0.168652 -0.28793,-0.34306 -0.313,-0.387581 -0.0632,-0.112295 -0.93486,0.485226 -0.93486,0.640861 0,0.0043 0.071,0.08914 0.15784,0.188378 z m 1.22065,3.256491 c 0.25325,0.239812 0.31041,0.237507 0.63155,-0.02551 0.28877,-0.236487 0.30379,-0.264954 0.17591,-0.333384 -0.0478,-0.02559 -0.15422,-0.120977 -0.2364,-0.211939 -0.14888,-0.164792 -0.24024,-0.21512 -0.19996,-0.110145 0.0121,0.03154 -0.0292,0.08035 -0.096,0.113682 -0.48234,0.240508 -0.52571,0.329949 -0.27507,0.567294 z"
       id="path11026-0" />
    <path
       style="fill:#000000;fill-opacity:1;stroke-width:0.0495033"
       d="m 130.19542,80.717913 c 0.0265,0.0229 0.1485,0.0835 0.27102,0.13468 0.12252,0.0512 0.28066,0.13237 0.35143,0.18041 0.0708,0.0481 0.23784,0.12433 0.37128,0.16951 0.51418,0.1741 3.59641,1.65319 3.66024,1.75646 0.0149,0.0241 0.10922,0.0828 0.20965,0.13042 0.10043,0.0476 0.27212,0.17981 0.38155,0.29369 0.10942,0.11386 0.33492,0.30693 0.5011,0.42903 0.27559,0.20247 0.56123,0.5184 0.52384,0.57937 -0.0775,0.12633 -0.34369,0.358 -1.28259,1.11619 -0.0878,0.0709 -0.18318,0.11427 -0.21203,0.0964 -0.0289,-0.0178 -0.12826,-0.0418 -0.22091,-0.0533 -0.0927,-0.0115 -0.35366,-0.0896 -0.58002,-0.17362 -0.22637,-0.084 -0.46726,-0.16038 -0.53533,-0.16974 -0.25115,-0.0345 -0.76734,-0.25217 -0.7529,-0.31746 0.01,-0.043 -0.0144,-0.0541 -0.0703,-0.0326 -0.0478,0.0183 -0.10228,0.005 -0.12502,-0.0311 -0.0322,-0.0507 -0.0405,-0.0509 -0.0411,-5.9e-4 -5.9e-4,0.0698 -0.22584,0.035 -0.3361,-0.052 -0.15529,-0.12243 -0.10923,0.0325 0.0541,0.18213 0.10021,0.0918 0.18219,0.19303 0.18219,0.225 0,0.032 0.0215,0.0448 0.0477,0.0286 0.0653,-0.0404 0.24965,0.15204 0.24788,0.25878 -0.001,0.0693 -0.43335,0.48865 -0.66685,0.64708 -0.29223,0.19827 -0.2216,0.37992 0.41202,1.05959 0.28437,0.30506 0.26498,0.37248 -0.23769,0.82637 -0.49525,0.44718 -0.55925,0.24779 0.45023,1.40262 0.31591,0.36139 0.31124,0.37687 -0.25367,0.83983 -0.25845,0.2118 -0.54922,0.46309 -0.64617,0.55842 -0.0969,0.0953 -0.19932,0.17333 -0.22747,0.17333 -0.0282,0 -0.0918,0.0448 -0.14143,0.0997 -0.0978,0.1081 -0.15104,0.10218 -0.50406,-0.0561 -0.11422,-0.0512 -0.21949,-0.0931 -0.23394,-0.0931 -0.0309,0 -1.05065,-0.47261 -1.18523,-0.54932 -0.0507,-0.0289 -0.13344,-0.0605 -0.18379,-0.0702 -0.0947,-0.0182 -0.27714,-0.0943 -0.72957,-0.30417 -0.14468,-0.0671 -0.28473,-0.1148 -0.31122,-0.10597 -0.055,0.0184 0.47712,0.58413 0.54939,0.58413 0.29294,0 0.20453,0.34133 -0.18211,0.70308 -0.15415,0.14423 -0.41248,0.39033 -0.57407,0.54688 -0.35299,0.342 -0.27457,0.33856 -0.83651,0.0367 -0.25386,-0.13639 -0.60636,-0.32017 -0.78334,-0.4084 -0.17697,-0.0882 -0.33291,-0.17324 -0.34652,-0.1889 -0.0364,-0.0419 -1.23448,-0.54081 -1.29873,-0.54081 -0.0302,0 -0.09,-0.0307 -0.13297,-0.0683 -0.043,-0.0376 -0.28978,-0.14994 -0.54844,-0.24968 -0.25865,-0.0997 -0.50369,-0.1987 -0.54453,-0.21993 -0.0409,-0.0212 -0.34157,-0.12404 -0.66829,-0.22849 -0.32673,-0.10445 -0.60518,-0.20446 -0.6188,-0.22224 -0.0136,-0.0178 -0.15841,-0.0721 -0.32177,-0.12081 -0.47991,-0.14296 -0.61879,-0.1953 -0.61879,-0.23322 0,-0.0403 -0.26778,-0.1358 -0.47889,-0.17075 -0.37506,-0.0621 -0.46445,-0.2532 -0.23459,-0.50156 0.28706,-0.31018 0.54221,-0.55838 0.57441,-0.55876 0.0188,-2.2e-4 0.002,-0.0617 -0.0368,-0.13654 -0.10605,-0.2033 0.0142,-0.75401 0.18817,-0.86151 0.0317,-0.0196 -0.1457,-0.228 -0.43245,-0.50785 -0.51415,-0.50177 -0.54476,-0.5954 -0.22755,-0.69607 0.045,-0.0143 0.12033,-0.0912 0.16745,-0.17102 0.0471,-0.0798 0.15562,-0.20789 0.24109,-0.2847 0.5004,-0.44968 0.50236,-0.39567 -0.0302,-0.83269 -0.46109,-0.3784 -0.45798,-0.37115 -0.24096,-0.56092 0.10371,-0.0907 0.33966,-0.30231 0.52434,-0.47028 0.22572,-0.2053 0.37175,-0.30203 0.44553,-0.2951 0.0604,0.006 0.19885,0.0216 0.30776,0.0356 0.10891,0.0139 0.38737,0.039 0.61879,0.0558 0.23143,0.0168 0.65468,0.0503 0.94056,0.0744 0.51979,0.044 0.51979,0.044 0.65523,-0.10319 0.2264,-0.24598 0.34995,-0.18708 1.03843,0.49502 0.29953,0.29675 0.29953,0.29675 0.45675,0.16144 0.15476,-0.13318 0.0828,-0.50456 -0.12242,-0.63136 -0.0263,-0.0162 -0.0478,-0.0608 -0.0478,-0.099 0,-0.0941 0.20081,-0.27539 0.26266,-0.23717 0.0273,0.0169 0.0361,0.009 0.0195,-0.0181 -0.19092,-0.30891 0.49243,-0.50116 0.77741,-0.21871 0.21452,0.21261 0.33743,0.30086 0.38129,0.27376 0.25831,-0.15965 0.71531,-0.61555 0.61703,-0.61555 -0.12029,0 -0.57277,-0.4123 -0.57277,-0.5219 0,-0.0594 0.14473,-0.22023 0.35458,-0.39392 0.0658,-0.0544 0.23489,-0.20712 0.37579,-0.33927 0.29952,-0.28093 0.35236,-0.2668 0.90739,0.24256 0.11645,0.10687 0.1754,0.0892 0.29651,-0.0889 0.27249,-0.40074 0.84562,-0.73587 1.01243,-0.59198 z m -0.8849,0.73924 c -0.29284,0.3185 -0.34064,0.32101 -0.65203,0.0341 -0.39406,-0.3631 -0.37426,-0.36284 -0.76146,-0.01 -0.39961,0.36424 -0.35812,0.831 0.0739,0.831 0.16203,0 0.11872,0.179 -0.0898,0.371 -0.79337,0.73067 -0.77773,0.72283 -0.96008,0.48138 -0.14412,-0.19081 -0.17314,-0.22175 -0.35103,-0.3742 -0.23338,-0.20001 -0.62762,0.37591 -0.45627,0.66653 0.21667,0.36748 0.19467,0.44692 -0.20821,0.75177 -0.17984,0.13608 -0.17984,0.13608 -0.65389,-0.33567 -0.53085,-0.52826 -0.51488,-0.52022 -0.67986,-0.34232 -0.11994,0.12934 -0.56153,0.14706 -1.13483,0.0455 -0.14974,-0.0265 -0.79878,-0.0776 -1.2301,-0.0968 -0.27696,-0.0123 -0.33273,10e-4 -0.46961,0.11482 -0.0854,0.0709 -0.20962,0.17337 -0.27597,0.22783 -0.43809,0.35954 -0.43637,0.35699 -0.30712,0.45499 0.77246,0.58565 0.78791,0.66426 0.24168,1.2294 -0.25135,0.26005 -0.47488,0.50477 -0.49674,0.54383 -0.0454,0.0812 0.61296,0.76673 0.73633,0.76673 0.12678,0 0.13207,0.14274 0.0106,0.28705 -0.19969,0.23732 -0.2665,0.51341 -0.17071,0.70544 0.0855,0.17147 0.10624,0.3441 0.0413,0.3441 -0.0611,0 -0.47831,0.4032 -0.59644,0.57639 -0.10614,0.15562 -0.10614,0.15562 0.0296,0.18909 0.0747,0.0184 0.33624,0.11185 0.58128,0.20766 0.24505,0.0958 0.49009,0.19143 0.54454,0.2125 0.13623,0.0527 0.64237,0.23139 1.26233,0.4456 0.76536,0.26445 2.23111,0.9032 3.21262,1.40002 0.47367,0.23975 0.86928,0.42785 0.87913,0.418 0.0292,-0.0292 -0.52057,-0.62933 -0.74808,-0.81643 -0.1016,-0.0836 0.0449,-0.36814 0.34433,-0.66894 0.18779,-0.18864 0.37066,-0.42489 0.37059,-0.47879 -10e-6,-0.0136 -0.13336,-0.16955 -0.29633,-0.34653 -0.16298,-0.17697 -0.29647,-0.33847 -0.29667,-0.35889 -2e-4,-0.0204 -0.0472,-0.0839 -0.10439,-0.14116 -0.14144,-0.14145 -0.52142,-0.56511 -0.76227,-0.84991 -0.22128,-0.26165 -0.25138,-0.27334 -0.36547,-0.14191 -0.97177,1.11943 -1.03841,1.15648 -1.37351,0.76366 -0.13263,-0.15548 -0.29128,-0.33695 -0.35254,-0.40326 -0.0613,-0.0663 -0.11138,-0.13916 -0.11138,-0.16189 0,-0.0227 -0.054,-0.0549 -0.12011,-0.0715 -0.47855,-0.12011 -0.41743,-0.56434 0.16085,-1.16931 0.18179,-0.19019 0.33053,-0.36592 0.33053,-0.39052 0,-0.0667 -0.48681,-0.63356 -0.54686,-0.63678 -0.0285,-0.002 -0.13656,-0.0895 -0.24012,-0.19561 -0.2725,-0.27906 -0.24173,-0.34423 0.57073,-1.20883 0.23501,-0.2501 0.4818,-0.51935 0.54843,-0.59835 0.20517,-0.24326 1.54146,0.76496 1.381,1.04196 -0.18189,0.314 -0.27669,0.33304 -0.5184,0.10411 -0.26941,-0.25514 -0.61357,-0.53215 -0.66118,-0.53215 -0.12572,0 -0.75937,0.80312 -0.69708,0.8835 0.14434,0.18624 0.27624,0.32991 0.52239,0.56902 0.33574,0.32615 0.29657,0.61735 -0.13424,0.99789 -0.10947,0.0967 -0.54644,0.64875 -0.54644,0.69037 0,0.79929 1.0993,0.67625 1.6208,-0.18141 0.17868,-0.29387 0.27453,-0.2421 0.92998,0.50236 0.47804,0.54295 0.47804,0.54295 1.12579,-0.1228 0.77784,-0.79946 0.68562,-0.79115 1.34579,-0.12122 0.29512,0.29949 0.55002,0.54431 0.56644,0.54403 0.0906,-0.002 0.86458,-0.85515 0.79761,-0.87969 -0.0406,-0.0148 -0.13697,-0.0902 -0.2142,-0.16747 -0.0772,-0.0772 -0.17954,-0.14042 -0.22737,-0.14042 -0.11696,0 -0.16241,-0.0527 -0.10506,-0.1218 0.0304,-0.0367 0.0223,-0.10439 -0.023,-0.19173 -0.10738,-0.20695 0.10663,-0.50218 0.66981,-0.92405 0.19474,-0.14587 0.34491,-0.30013 0.34491,-0.3543 0,-0.0742 0.17667,0.0287 0.61677,0.35946 0.48452,0.36409 0.46446,0.366 0.96733,-0.0921 0.11785,-0.10736 -0.4446,-0.80409 -0.64911,-0.80409 -0.0268,0 -0.10059,-0.0603 -0.16402,-0.13409 -0.11971,-0.13918 -0.0878,-0.31144 0.0578,-0.31144 0.0343,0 0.0623,-0.0254 0.0623,-0.0565 0,-0.0918 0.89877,-0.97422 1.02434,-1.00573 0.12603,-0.0316 0.35331,0.0665 0.46436,0.20042 0.2246,0.27093 0.74517,0.62135 0.82673,0.55652 0.4243,-0.33731 0.85278,-0.76666 0.85278,-0.85451 0,-0.0382 0.0277,-0.0787 0.0614,-0.09 0.0343,-0.0114 -0.004,-0.0563 -0.0866,-0.1014 -0.29939,-0.16367 -2.57636,-1.27247 -2.61308,-1.27247 -0.0143,0 -0.19254,-0.078 -0.39603,-0.17326 -0.20349,-0.0953 -0.40039,-0.17341 -0.43757,-0.17358 -0.0372,-1.5e-4 -0.26503,-0.10042 -0.50634,-0.22276 -0.24131,-0.12235 -0.46691,-0.22245 -0.50134,-0.22245 -0.0344,0 -0.0905,-0.0336 -0.12457,-0.0747 -0.0691,-0.0832 -0.28325,0.0875 -0.75955,0.60556 z m -7.65567,7.46388 c 0,0.0136 -0.0111,0.0247 -0.0247,0.0247 -0.0136,0 -0.0247,-0.0112 -0.0247,-0.0247 0,-0.0136 0.0111,-0.0247 0.0247,-0.0247 0.0136,0 0.0247,0.0111 0.0247,0.0247 z m 3.31672,0.24753 c 0,0.0136 -0.0111,0.0247 -0.0247,0.0247 -0.0136,0 -0.0247,-0.0111 -0.0247,-0.0247 0,-0.0136 0.0112,-0.0247 0.0247,-0.0247 0.0136,0 0.0247,0.0112 0.0247,0.0247 z m -0.94056,0.64353 c 0,0.0136 -0.0111,0.0247 -0.0247,0.0247 -0.0136,0 -0.0247,-0.0112 -0.0247,-0.0247 0,-0.0136 0.0111,-0.0247 0.0247,-0.0247 0.0136,0 0.0247,0.0111 0.0247,0.0247 z m 10.89073,-6.41067 c 0,0.0272 0.01,0.0495 0.0218,0.0495 0.012,0 0.0356,-0.0223 0.0525,-0.0495 0.0168,-0.0272 0.007,-0.0495 -0.0218,-0.0495 -0.0288,0 -0.0524,0.0223 -0.0524,0.0495 z m -0.34653,0.12376 c 0,0.0136 0.0111,0.0247 0.0247,0.0247 0.0136,0 0.0247,-0.0112 0.0247,-0.0247 0,-0.0136 -0.0111,-0.0247 -0.0247,-0.0247 -0.0136,0 -0.0247,0.0111 -0.0247,0.0247 z m -0.10603,0.43977 c -0.23529,0.22762 -0.44178,0.45786 -0.45885,0.51168 -0.0431,0.13567 -0.26013,0.23262 -0.31231,0.13949 -0.0212,-0.0379 -0.22137,-0.20494 -0.44474,-0.37121 -0.22337,-0.16626 -0.45263,-0.36143 -0.50947,-0.43369 -0.10335,-0.13138 -0.10335,-0.13138 -0.47261,0.25255 -0.37858,0.3936 -0.4995,0.56039 -0.44547,0.61443 0.0169,0.0169 0.0439,-0.0197 0.06,-0.0813 0.0204,-0.0781 0.0536,-0.10264 0.10942,-0.0811 0.2031,0.0785 0.64033,0.21507 0.78889,0.24638 0.0903,0.0191 0.17571,0.0645 0.18973,0.10107 0.014,0.0365 0.052,0.0563 0.0843,0.0439 0.0323,-0.0124 0.22373,0.0336 0.42535,0.10213 0.20162,0.0686 0.39425,0.12468 0.42807,0.12468 0.0338,0 0.16914,0.0483 0.30072,0.10735 0.13159,0.059 0.25677,0.10915 0.27818,0.11138 0.0214,0.002 0.0587,0.036 0.0829,0.0751 0.0363,0.0587 0.0574,0.0599 0.12141,0.007 0.0426,-0.0354 0.0669,-0.0814 0.0541,-0.10218 -0.0283,-0.0458 0.33766,-0.38077 0.78473,-0.71821 0.18035,-0.13613 0.32813,-0.26333 0.32838,-0.28266 5.8e-4,-0.0538 -0.48174,-0.49287 -0.6591,-0.59981 -0.0865,-0.0521 -0.16467,-0.11439 -0.17375,-0.13833 -0.0374,-0.0987 -0.15318,-0.0219 -0.55981,0.37151 z m 0.20504,1.44135 c 0,0.0136 -0.0112,0.0247 -0.0247,0.0247 -0.0136,0 -0.0247,-0.0112 -0.0247,-0.0247 0,-0.0136 0.0111,-0.0247 0.0247,-0.0247 0.0136,0 0.0247,0.0111 0.0247,0.0247 z m -0.44553,-1.5841 c 0,0.0136 0.0111,0.0247 0.0247,0.0247 0.0136,0 0.0247,-0.0111 0.0247,-0.0247 0,-0.0136 -0.0111,-0.0247 -0.0247,-0.0247 -0.0136,0 -0.0247,0.0111 -0.0247,0.0247 z m -9.00961,0.54453 c 0,0.0136 0.0111,0.0247 0.0247,0.0247 0.0136,0 0.0247,-0.0111 0.0247,-0.0247 0,-0.0136 -0.0112,-0.0247 -0.0247,-0.0247 -0.0136,0 -0.0247,0.0111 -0.0247,0.0247 z m 0.19802,0.099 c 0,0.0136 0.0111,0.0247 0.0247,0.0247 0.0136,0 0.0247,-0.0111 0.0247,-0.0247 0,-0.0136 -0.0111,-0.0247 -0.0247,-0.0247 -0.0136,0 -0.0247,0.0111 -0.0247,0.0247 z m 9.47164,0.99832 c 0.0181,0.0181 0.033,0.004 0.033,-0.033 0,-0.0363 -0.0148,-0.0512 -0.033,-0.033 -0.0181,0.0181 -0.0181,0.0478 0,0.066 z m -3.77876,0.23927 c 0,0.0136 0.0111,0.0247 0.0247,0.0247 0.0136,0 0.0247,-0.0111 0.0247,-0.0247 0,-0.0136 -0.0111,-0.0247 -0.0247,-0.0247 -0.0136,0 -0.0247,0.0111 -0.0247,0.0247 z m -0.24752,0 c 0,0.0136 0.0111,0.0247 0.0247,0.0247 0.0136,0 0.0247,-0.0111 0.0247,-0.0247 0,-0.0136 -0.0111,-0.0247 -0.0247,-0.0247 -0.0136,0 -0.0247,0.0111 -0.0247,0.0247 z m 0.0495,0.099 c 0,0.0136 0.0111,0.0247 0.0247,0.0247 0.0136,0 0.0247,-0.0111 0.0247,-0.0247 0,-0.0136 -0.0111,-0.0247 -0.0247,-0.0247 -0.0136,0 -0.0247,0.0111 -0.0247,0.0247 z m -0.57475,0.50416 c -0.32918,0.31861 -0.35942,0.36215 -0.25155,0.36215 0.0356,0 0.13029,0.0887 0.21039,0.19711 0.0849,0.11492 0.17397,0.18684 0.21359,0.17248 0.0954,-0.0345 0.7933,-0.58475 0.79607,-0.62756 0.007,-0.10589 -0.60692,-0.56628 -0.63339,-0.47509 -0.0104,0.0356 -0.16114,0.20253 -0.33511,0.37091 z m -0.74534,0.14763 c 0.0181,0.0181 0.0479,0.0181 0.066,0 0.0181,-0.0181 0.004,-0.033 -0.033,-0.033 -0.0363,0 -0.0512,0.0149 -0.033,0.033 z m 1.44825,0.72934 c -0.16346,0.14758 -0.17577,0.12293 0.31604,0.63261 0.2235,0.23163 0.2235,0.23163 0.37502,0.0743 0.0833,-0.0866 0.22809,-0.21532 0.32167,-0.28616 0.17016,-0.12879 0.17016,-0.12879 -0.0275,-0.37015 -0.42828,-0.52308 -0.46356,-0.54165 -0.66435,-0.34969 -0.0972,0.093 -0.24166,0.22757 -0.32092,0.29913 z m -0.71666,0.67529 c -0.12557,0.11002 -0.31741,0.28375 -0.42632,0.38607 -0.69846,0.65621 -0.64427,0.62977 -0.80777,0.39409 -0.0812,-0.1171 -0.26629,-0.33542 -0.41125,-0.48517 -0.14496,-0.14975 -0.30297,-0.32797 -0.35112,-0.39603 -0.0482,-0.0681 -0.0877,-0.0966 -0.0879,-0.0635 -2e-4,0.0332 -0.0526,0.0889 -0.11646,0.12376 -0.40459,0.22108 -0.88574,0.92801 -0.74211,1.09039 0.36815,0.41622 0.61396,0.63338 0.79008,0.69801 0.33733,0.12378 1.95517,0.8292 2.29763,1.00182 0.59378,0.2993 0.76038,0.23554 0.334,-0.12784 -0.38557,-0.3286 -0.79182,-1.07564 -0.6552,-1.20485 1.05498,-0.99775 1.03295,-0.96171 0.7663,-1.25346 -0.13689,-0.14979 -0.2489,-0.29283 -0.2489,-0.31786 0,-0.0936 -0.1196,-0.0395 -0.34099,0.15453 z m 0.83602,0.0722 c 0,0.0136 0.0111,0.0247 0.0247,0.0247 0.0136,0 0.0247,-0.0111 0.0247,-0.0247 0,-0.0136 -0.0112,-0.0247 -0.0247,-0.0247 -0.0136,0 -0.0247,0.0112 -0.0247,0.0247 z m 0.19189,0.90343 c -0.81345,0.71158 -0.7801,0.58972 -0.31454,1.14907 0.44331,0.53264 0.38607,0.52352 0.83397,0.13289 0.19835,-0.17299 0.40347,-0.33863 0.45583,-0.36811 0.13207,-0.0744 -0.57067,-1.09948 -0.75371,-1.09948 -0.005,0 -0.10484,0.0835 -0.22155,0.18563 z m -3.82993,1.4356 c -0.28204,0.29784 -0.27933,0.36506 0.03,0.74276 0.27813,0.33962 0.31161,0.35727 0.39209,0.20688 0.0301,-0.0563 0.14228,-0.18138 0.24926,-0.27803 0.19381,-0.17509 0.253,-0.28255 0.12954,-0.23518 -0.0371,0.0142 -0.0945,-0.0343 -0.1337,-0.11293 -0.28286,-0.56727 -0.38805,-0.61828 -0.66719,-0.3235 z"
       id="path11026-6" />
  </g>
</svg>
