%FSLAX45Y45*%
G04 Gerber Fmt 4.5, Leading zero omitted, Abs format (unit mm)*
G04 Created by KiCad (PCBNEW 5.1.9+dfsg1-1) date 2022-01-14 18:57:33*
%MOMM*%
%LPD*%
G01*
G04 APERTURE LIST*
%TA.AperFunction,Profile*%
%ADD10C,0.050000*%
%TD*%
%ADD11C,0.200000*%
%ADD12C,0.300000*%
G04 APERTURE END LIST*
D10*
X12649200Y-7162800D02*
X8001000Y-7162800D01*
X12649200Y-9855200D02*
X12649200Y-7162800D01*
X8001000Y-9855200D02*
X12649200Y-9855200D01*
X8001000Y-7162800D02*
X8001000Y-9855200D01*
D11*
X8423000Y-8423000D02*
X8463000Y-8463000D01*
X8463000Y-8423000D02*
X8423000Y-8463000D01*
X8764700Y-8561500D02*
X8804700Y-8601500D01*
X8804700Y-8561500D02*
X8764700Y-8601500D01*
X9492300Y-8812850D02*
X9532300Y-8852850D01*
X9532300Y-8812850D02*
X9492300Y-8852850D01*
X9644700Y-8628700D02*
X9684700Y-8668700D01*
X9684700Y-8628700D02*
X9644700Y-8668700D01*
X9695500Y-7860350D02*
X9735500Y-7900350D01*
X9735500Y-7860350D02*
X9695500Y-7900350D01*
X9748850Y-8999550D02*
X9788850Y-9039550D01*
X9788850Y-8999550D02*
X9748850Y-9039550D01*
X9905050Y-8349300D02*
X9945050Y-8389300D01*
X9945050Y-8349300D02*
X9905050Y-8389300D01*
X10470200Y-7796850D02*
X10510200Y-7836850D01*
X10510200Y-7796850D02*
X10470200Y-7836850D01*
X10584101Y-8375099D02*
X10624101Y-8415099D01*
X10624101Y-8375099D02*
X10584101Y-8415099D01*
X10622600Y-8108000D02*
X10662600Y-8148000D01*
X10662600Y-8108000D02*
X10622600Y-8148000D01*
X10622600Y-8215950D02*
X10662600Y-8255950D01*
X10662600Y-8215950D02*
X10622600Y-8255950D01*
X10635300Y-8647750D02*
X10675300Y-8687750D01*
X10675300Y-8647750D02*
X10635300Y-8687750D01*
X10800400Y-9174800D02*
X10840400Y-9214800D01*
X10840400Y-9174800D02*
X10800400Y-9214800D01*
X10902000Y-8108000D02*
X10942000Y-8148000D01*
X10942000Y-8108000D02*
X10902000Y-8148000D01*
X11149650Y-8412800D02*
X11189650Y-8452800D01*
X11189650Y-8412800D02*
X11149650Y-8452800D01*
X11149650Y-8520750D02*
X11189650Y-8560750D01*
X11189650Y-8520750D02*
X11149650Y-8560750D01*
X11244900Y-7911150D02*
X11284900Y-7951150D01*
X11284900Y-7911150D02*
X11244900Y-7951150D01*
X11403650Y-8006400D02*
X11443650Y-8046400D01*
X11443650Y-8006400D02*
X11403650Y-8046400D01*
X12019600Y-7682550D02*
X12059600Y-7722550D01*
X12059600Y-7682550D02*
X12019600Y-7722550D01*
X12019600Y-7923850D02*
X12059600Y-7963850D01*
X12059600Y-7923850D02*
X12019600Y-7963850D01*
X12127550Y-7923850D02*
X12167550Y-7963850D01*
X12167550Y-7923850D02*
X12127550Y-7963850D01*
X12140250Y-8190550D02*
X12180250Y-8230550D01*
X12180250Y-8190550D02*
X12140250Y-8230550D01*
X8160300Y-8077000D02*
G75*
G03*
X8160300Y-8077000I-30000J0D01*
G01*
X8170300Y-8057000D02*
X8090300Y-8057000D01*
X8170300Y-8097000D02*
X8090300Y-8097000D01*
X8090300Y-8057000D02*
G75*
G03*
X8090300Y-8097000I0J-20000D01*
G01*
X8170300Y-8097000D02*
G75*
G03*
X8170300Y-8057000I0J20000D01*
G01*
X8160300Y-8941000D02*
G75*
G03*
X8160300Y-8941000I-30000J0D01*
G01*
X8170300Y-8921000D02*
X8090300Y-8921000D01*
X8170300Y-8961000D02*
X8090300Y-8961000D01*
X8090300Y-8921000D02*
G75*
G03*
X8090300Y-8961000I0J-20000D01*
G01*
X8170300Y-8961000D02*
G75*
G03*
X8170300Y-8921000I0J20000D01*
G01*
X8578300Y-8077000D02*
G75*
G03*
X8578300Y-8077000I-30000J0D01*
G01*
X8603300Y-8057000D02*
X8493300Y-8057000D01*
X8603300Y-8097000D02*
X8493300Y-8097000D01*
X8493300Y-8057000D02*
G75*
G03*
X8493300Y-8097000I0J-20000D01*
G01*
X8603300Y-8097000D02*
G75*
G03*
X8603300Y-8057000I0J20000D01*
G01*
X8578300Y-8941000D02*
G75*
G03*
X8578300Y-8941000I-30000J0D01*
G01*
X8603300Y-8921000D02*
X8493300Y-8921000D01*
X8603300Y-8961000D02*
X8493300Y-8961000D01*
X8493300Y-8921000D02*
G75*
G03*
X8493300Y-8961000I0J-20000D01*
G01*
X8603300Y-8961000D02*
G75*
G03*
X8603300Y-8921000I0J20000D01*
G01*
X12331700Y-8178050D02*
X12331700Y-8243050D01*
X12299200Y-8210550D02*
X12364200Y-8210550D01*
X12331700Y-8305050D02*
X12331700Y-8370050D01*
X12299200Y-8337550D02*
X12364200Y-8337550D01*
X12331700Y-8432050D02*
X12331700Y-8497050D01*
X12299200Y-8464550D02*
X12364200Y-8464550D01*
X12331700Y-8559050D02*
X12331700Y-8624050D01*
X12299200Y-8591550D02*
X12364200Y-8591550D01*
X12331700Y-8686050D02*
X12331700Y-8751050D01*
X12299200Y-8718550D02*
X12364200Y-8718550D01*
X12458700Y-8178050D02*
X12458700Y-8243050D01*
X12426200Y-8210550D02*
X12491200Y-8210550D01*
X12458700Y-8305050D02*
X12458700Y-8370050D01*
X12426200Y-8337550D02*
X12491200Y-8337550D01*
X12458700Y-8432050D02*
X12458700Y-8497050D01*
X12426200Y-8464550D02*
X12491200Y-8464550D01*
X12458700Y-8559050D02*
X12458700Y-8624050D01*
X12426200Y-8591550D02*
X12491200Y-8591550D01*
X12458700Y-8686050D02*
X12458700Y-8751050D01*
X12426200Y-8718550D02*
X12491200Y-8718550D01*
X8417356Y-7401356D02*
X8417356Y-7330644D01*
X8346644Y-7330644D01*
X8346644Y-7401356D01*
X8417356Y-7401356D01*
X8417356Y-9687356D02*
X8417356Y-9616644D01*
X8346644Y-9616644D01*
X8346644Y-9687356D01*
X8417356Y-9687356D01*
X8671356Y-7401356D02*
X8671356Y-7330644D01*
X8600644Y-7330644D01*
X8600644Y-7401356D01*
X8671356Y-7401356D01*
X8671356Y-9687356D02*
X8671356Y-9616644D01*
X8600644Y-9616644D01*
X8600644Y-9687356D01*
X8671356Y-9687356D01*
X8925356Y-7401356D02*
X8925356Y-7330644D01*
X8854644Y-7330644D01*
X8854644Y-7401356D01*
X8925356Y-7401356D01*
X8925356Y-9687356D02*
X8925356Y-9616644D01*
X8854644Y-9616644D01*
X8854644Y-9687356D01*
X8925356Y-9687356D01*
X9179356Y-7401356D02*
X9179356Y-7330644D01*
X9108644Y-7330644D01*
X9108644Y-7401356D01*
X9179356Y-7401356D01*
X9179356Y-9687356D02*
X9179356Y-9616644D01*
X9108644Y-9616644D01*
X9108644Y-9687356D01*
X9179356Y-9687356D01*
X9433356Y-7401356D02*
X9433356Y-7330644D01*
X9362644Y-7330644D01*
X9362644Y-7401356D01*
X9433356Y-7401356D01*
X9433356Y-9687356D02*
X9433356Y-9616644D01*
X9362644Y-9616644D01*
X9362644Y-9687356D01*
X9433356Y-9687356D01*
X9687356Y-7401356D02*
X9687356Y-7330644D01*
X9616644Y-7330644D01*
X9616644Y-7401356D01*
X9687356Y-7401356D01*
X9687356Y-9687356D02*
X9687356Y-9616644D01*
X9616644Y-9616644D01*
X9616644Y-9687356D01*
X9687356Y-9687356D01*
X9941356Y-7401356D02*
X9941356Y-7330644D01*
X9870644Y-7330644D01*
X9870644Y-7401356D01*
X9941356Y-7401356D01*
X9941356Y-9687356D02*
X9941356Y-9616644D01*
X9870644Y-9616644D01*
X9870644Y-9687356D01*
X9941356Y-9687356D01*
X10195356Y-7401356D02*
X10195356Y-7330644D01*
X10124644Y-7330644D01*
X10124644Y-7401356D01*
X10195356Y-7401356D01*
X10195356Y-9687356D02*
X10195356Y-9616644D01*
X10124644Y-9616644D01*
X10124644Y-9687356D01*
X10195356Y-9687356D01*
X10449356Y-7401356D02*
X10449356Y-7330644D01*
X10378644Y-7330644D01*
X10378644Y-7401356D01*
X10449356Y-7401356D01*
X10449356Y-9687356D02*
X10449356Y-9616644D01*
X10378644Y-9616644D01*
X10378644Y-9687356D01*
X10449356Y-9687356D01*
X10703356Y-7401356D02*
X10703356Y-7330644D01*
X10632644Y-7330644D01*
X10632644Y-7401356D01*
X10703356Y-7401356D01*
X10703356Y-9687356D02*
X10703356Y-9616644D01*
X10632644Y-9616644D01*
X10632644Y-9687356D01*
X10703356Y-9687356D01*
X10957356Y-7401356D02*
X10957356Y-7330644D01*
X10886644Y-7330644D01*
X10886644Y-7401356D01*
X10957356Y-7401356D01*
X10957356Y-9687356D02*
X10957356Y-9616644D01*
X10886644Y-9616644D01*
X10886644Y-9687356D01*
X10957356Y-9687356D01*
X11211356Y-7401356D02*
X11211356Y-7330644D01*
X11140644Y-7330644D01*
X11140644Y-7401356D01*
X11211356Y-7401356D01*
X11211356Y-9687356D02*
X11211356Y-9616644D01*
X11140644Y-9616644D01*
X11140644Y-9687356D01*
X11211356Y-9687356D01*
X11465356Y-7401356D02*
X11465356Y-7330644D01*
X11394644Y-7330644D01*
X11394644Y-7401356D01*
X11465356Y-7401356D01*
X11465356Y-9687356D02*
X11465356Y-9616644D01*
X11394644Y-9616644D01*
X11394644Y-9687356D01*
X11465356Y-9687356D01*
X11719356Y-7401356D02*
X11719356Y-7330644D01*
X11648644Y-7330644D01*
X11648644Y-7401356D01*
X11719356Y-7401356D01*
X11719356Y-9687356D02*
X11719356Y-9616644D01*
X11648644Y-9616644D01*
X11648644Y-9687356D01*
X11719356Y-9687356D01*
X11973356Y-7401356D02*
X11973356Y-7330644D01*
X11902644Y-7330644D01*
X11902644Y-7401356D01*
X11973356Y-7401356D01*
X11973356Y-9687356D02*
X11973356Y-9616644D01*
X11902644Y-9616644D01*
X11902644Y-9687356D01*
X11973356Y-9687356D01*
X12227356Y-7401356D02*
X12227356Y-7330644D01*
X12156644Y-7330644D01*
X12156644Y-7401356D01*
X12227356Y-7401356D01*
X12227356Y-9687356D02*
X12227356Y-9616644D01*
X12156644Y-9616644D01*
X12156644Y-9687356D01*
X12227356Y-9687356D01*
X12481356Y-7401356D02*
X12481356Y-7330644D01*
X12410644Y-7330644D01*
X12410644Y-7401356D01*
X12481356Y-7401356D01*
X12481356Y-9687356D02*
X12481356Y-9616644D01*
X12410644Y-9616644D01*
X12410644Y-9687356D01*
X12481356Y-9687356D01*
D12*
X8284928Y-10323414D02*
X8284928Y-10023414D01*
X8356357Y-10023414D01*
X8399214Y-10037700D01*
X8427786Y-10066272D01*
X8442071Y-10094843D01*
X8456357Y-10151986D01*
X8456357Y-10194843D01*
X8442071Y-10251986D01*
X8427786Y-10280557D01*
X8399214Y-10309129D01*
X8356357Y-10323414D01*
X8284928Y-10323414D01*
X8584928Y-10323414D02*
X8584928Y-10123414D01*
X8584928Y-10180557D02*
X8599214Y-10151986D01*
X8613500Y-10137700D01*
X8642071Y-10123414D01*
X8670643Y-10123414D01*
X8770643Y-10323414D02*
X8770643Y-10123414D01*
X8770643Y-10023414D02*
X8756357Y-10037700D01*
X8770643Y-10051986D01*
X8784928Y-10037700D01*
X8770643Y-10023414D01*
X8770643Y-10051986D01*
X8956357Y-10323414D02*
X8927786Y-10309129D01*
X8913500Y-10280557D01*
X8913500Y-10023414D01*
X9113500Y-10323414D02*
X9084928Y-10309129D01*
X9070643Y-10280557D01*
X9070643Y-10023414D01*
X9456357Y-10323414D02*
X9456357Y-10023414D01*
X9556357Y-10237700D01*
X9656357Y-10023414D01*
X9656357Y-10323414D01*
X9927786Y-10323414D02*
X9927786Y-10166272D01*
X9913500Y-10137700D01*
X9884928Y-10123414D01*
X9827786Y-10123414D01*
X9799214Y-10137700D01*
X9927786Y-10309129D02*
X9899214Y-10323414D01*
X9827786Y-10323414D01*
X9799214Y-10309129D01*
X9784928Y-10280557D01*
X9784928Y-10251986D01*
X9799214Y-10223414D01*
X9827786Y-10209129D01*
X9899214Y-10209129D01*
X9927786Y-10194843D01*
X10070643Y-10123414D02*
X10070643Y-10423414D01*
X10070643Y-10137700D02*
X10099214Y-10123414D01*
X10156357Y-10123414D01*
X10184928Y-10137700D01*
X10199214Y-10151986D01*
X10213500Y-10180557D01*
X10213500Y-10266272D01*
X10199214Y-10294843D01*
X10184928Y-10309129D01*
X10156357Y-10323414D01*
X10099214Y-10323414D01*
X10070643Y-10309129D01*
X10342071Y-10294843D02*
X10356357Y-10309129D01*
X10342071Y-10323414D01*
X10327786Y-10309129D01*
X10342071Y-10294843D01*
X10342071Y-10323414D01*
X10342071Y-10137700D02*
X10356357Y-10151986D01*
X10342071Y-10166272D01*
X10327786Y-10151986D01*
X10342071Y-10137700D01*
X10342071Y-10166272D01*
X7958500Y-10797700D02*
X7998500Y-10837700D01*
X7998500Y-10797700D02*
X7958500Y-10837700D01*
X8342071Y-10653414D02*
X8370643Y-10653414D01*
X8399214Y-10667700D01*
X8413500Y-10681986D01*
X8427786Y-10710557D01*
X8442071Y-10767700D01*
X8442071Y-10839129D01*
X8427786Y-10896272D01*
X8413500Y-10924843D01*
X8399214Y-10939129D01*
X8370643Y-10953414D01*
X8342071Y-10953414D01*
X8313500Y-10939129D01*
X8299214Y-10924843D01*
X8284928Y-10896272D01*
X8270643Y-10839129D01*
X8270643Y-10767700D01*
X8284928Y-10710557D01*
X8299214Y-10681986D01*
X8313500Y-10667700D01*
X8342071Y-10653414D01*
X8570643Y-10924843D02*
X8584928Y-10939129D01*
X8570643Y-10953414D01*
X8556357Y-10939129D01*
X8570643Y-10924843D01*
X8570643Y-10953414D01*
X8842071Y-10753414D02*
X8842071Y-10953414D01*
X8770643Y-10639129D02*
X8699214Y-10853414D01*
X8884928Y-10853414D01*
X9056357Y-10653414D02*
X9084928Y-10653414D01*
X9113500Y-10667700D01*
X9127786Y-10681986D01*
X9142071Y-10710557D01*
X9156357Y-10767700D01*
X9156357Y-10839129D01*
X9142071Y-10896272D01*
X9127786Y-10924843D01*
X9113500Y-10939129D01*
X9084928Y-10953414D01*
X9056357Y-10953414D01*
X9027786Y-10939129D01*
X9013500Y-10924843D01*
X8999214Y-10896272D01*
X8984928Y-10839129D01*
X8984928Y-10767700D01*
X8999214Y-10710557D01*
X9013500Y-10681986D01*
X9027786Y-10667700D01*
X9056357Y-10653414D01*
X9284928Y-10953414D02*
X9284928Y-10753414D01*
X9284928Y-10781986D02*
X9299214Y-10767700D01*
X9327786Y-10753414D01*
X9370643Y-10753414D01*
X9399214Y-10767700D01*
X9413500Y-10796272D01*
X9413500Y-10953414D01*
X9413500Y-10796272D02*
X9427786Y-10767700D01*
X9456357Y-10753414D01*
X9499214Y-10753414D01*
X9527786Y-10767700D01*
X9542071Y-10796272D01*
X9542071Y-10953414D01*
X9684928Y-10953414D02*
X9684928Y-10753414D01*
X9684928Y-10781986D02*
X9699214Y-10767700D01*
X9727786Y-10753414D01*
X9770643Y-10753414D01*
X9799214Y-10767700D01*
X9813500Y-10796272D01*
X9813500Y-10953414D01*
X9813500Y-10796272D02*
X9827786Y-10767700D01*
X9856357Y-10753414D01*
X9899214Y-10753414D01*
X9927786Y-10767700D01*
X9942071Y-10796272D01*
X9942071Y-10953414D01*
X10527786Y-10639129D02*
X10270643Y-11024843D01*
X10913500Y-10653414D02*
X10942071Y-10653414D01*
X10970643Y-10667700D01*
X10984928Y-10681986D01*
X10999214Y-10710557D01*
X11013500Y-10767700D01*
X11013500Y-10839129D01*
X10999214Y-10896272D01*
X10984928Y-10924843D01*
X10970643Y-10939129D01*
X10942071Y-10953414D01*
X10913500Y-10953414D01*
X10884928Y-10939129D01*
X10870643Y-10924843D01*
X10856357Y-10896272D01*
X10842071Y-10839129D01*
X10842071Y-10767700D01*
X10856357Y-10710557D01*
X10870643Y-10681986D01*
X10884928Y-10667700D01*
X10913500Y-10653414D01*
X11142071Y-10924843D02*
X11156357Y-10939129D01*
X11142071Y-10953414D01*
X11127786Y-10939129D01*
X11142071Y-10924843D01*
X11142071Y-10953414D01*
X11342071Y-10653414D02*
X11370643Y-10653414D01*
X11399214Y-10667700D01*
X11413500Y-10681986D01*
X11427786Y-10710557D01*
X11442071Y-10767700D01*
X11442071Y-10839129D01*
X11427786Y-10896272D01*
X11413500Y-10924843D01*
X11399214Y-10939129D01*
X11370643Y-10953414D01*
X11342071Y-10953414D01*
X11313500Y-10939129D01*
X11299214Y-10924843D01*
X11284928Y-10896272D01*
X11270643Y-10839129D01*
X11270643Y-10767700D01*
X11284928Y-10710557D01*
X11299214Y-10681986D01*
X11313500Y-10667700D01*
X11342071Y-10653414D01*
X11727786Y-10953414D02*
X11556357Y-10953414D01*
X11642071Y-10953414D02*
X11642071Y-10653414D01*
X11613500Y-10696272D01*
X11584928Y-10724843D01*
X11556357Y-10739129D01*
X11984928Y-10653414D02*
X11927786Y-10653414D01*
X11899214Y-10667700D01*
X11884928Y-10681986D01*
X11856357Y-10724843D01*
X11842071Y-10781986D01*
X11842071Y-10896272D01*
X11856357Y-10924843D01*
X11870643Y-10939129D01*
X11899214Y-10953414D01*
X11956357Y-10953414D01*
X11984928Y-10939129D01*
X11999214Y-10924843D01*
X12013500Y-10896272D01*
X12013500Y-10824843D01*
X11999214Y-10796272D01*
X11984928Y-10781986D01*
X11956357Y-10767700D01*
X11899214Y-10767700D01*
X11870643Y-10781986D01*
X11856357Y-10796272D01*
X11842071Y-10824843D01*
X12127786Y-10653414D02*
X12127786Y-10710557D01*
X12242071Y-10653414D02*
X12242071Y-10710557D01*
X12684928Y-11067700D02*
X12670643Y-11053414D01*
X12642071Y-11010557D01*
X12627786Y-10981986D01*
X12613500Y-10939129D01*
X12599214Y-10867700D01*
X12599214Y-10810557D01*
X12613500Y-10739129D01*
X12627786Y-10696272D01*
X12642071Y-10667700D01*
X12670643Y-10624843D01*
X12684928Y-10610557D01*
X12784928Y-10681986D02*
X12799214Y-10667700D01*
X12827786Y-10653414D01*
X12899214Y-10653414D01*
X12927786Y-10667700D01*
X12942071Y-10681986D01*
X12956357Y-10710557D01*
X12956357Y-10739129D01*
X12942071Y-10781986D01*
X12770643Y-10953414D01*
X12956357Y-10953414D01*
X13070643Y-10681986D02*
X13084928Y-10667700D01*
X13113500Y-10653414D01*
X13184928Y-10653414D01*
X13213500Y-10667700D01*
X13227786Y-10681986D01*
X13242071Y-10710557D01*
X13242071Y-10739129D01*
X13227786Y-10781986D01*
X13056357Y-10953414D01*
X13242071Y-10953414D01*
X13599214Y-10953414D02*
X13599214Y-10653414D01*
X13727786Y-10953414D02*
X13727786Y-10796272D01*
X13713500Y-10767700D01*
X13684928Y-10753414D01*
X13642071Y-10753414D01*
X13613500Y-10767700D01*
X13599214Y-10781986D01*
X13913500Y-10953414D02*
X13884928Y-10939129D01*
X13870643Y-10924843D01*
X13856357Y-10896272D01*
X13856357Y-10810557D01*
X13870643Y-10781986D01*
X13884928Y-10767700D01*
X13913500Y-10753414D01*
X13956357Y-10753414D01*
X13984928Y-10767700D01*
X13999214Y-10781986D01*
X14013500Y-10810557D01*
X14013500Y-10896272D01*
X13999214Y-10924843D01*
X13984928Y-10939129D01*
X13956357Y-10953414D01*
X13913500Y-10953414D01*
X14184928Y-10953414D02*
X14156357Y-10939129D01*
X14142071Y-10910557D01*
X14142071Y-10653414D01*
X14413500Y-10939129D02*
X14384928Y-10953414D01*
X14327786Y-10953414D01*
X14299214Y-10939129D01*
X14284928Y-10910557D01*
X14284928Y-10796272D01*
X14299214Y-10767700D01*
X14327786Y-10753414D01*
X14384928Y-10753414D01*
X14413500Y-10767700D01*
X14427786Y-10796272D01*
X14427786Y-10824843D01*
X14284928Y-10853414D01*
X14542071Y-10939129D02*
X14570643Y-10953414D01*
X14627786Y-10953414D01*
X14656357Y-10939129D01*
X14670643Y-10910557D01*
X14670643Y-10896272D01*
X14656357Y-10867700D01*
X14627786Y-10853414D01*
X14584928Y-10853414D01*
X14556357Y-10839129D01*
X14542071Y-10810557D01*
X14542071Y-10796272D01*
X14556357Y-10767700D01*
X14584928Y-10753414D01*
X14627786Y-10753414D01*
X14656357Y-10767700D01*
X14770643Y-11067700D02*
X14784928Y-11053414D01*
X14813500Y-11010557D01*
X14827786Y-10981986D01*
X14842071Y-10939129D01*
X14856357Y-10867700D01*
X14856357Y-10810557D01*
X14842071Y-10739129D01*
X14827786Y-10696272D01*
X14813500Y-10667700D01*
X14784928Y-10624843D01*
X14770643Y-10610557D01*
X7998500Y-11213700D02*
G75*
G03*
X7998500Y-11213700I-30000J0D01*
G01*
X8342071Y-11049414D02*
X8370643Y-11049414D01*
X8399214Y-11063700D01*
X8413500Y-11077986D01*
X8427786Y-11106557D01*
X8442071Y-11163700D01*
X8442071Y-11235129D01*
X8427786Y-11292271D01*
X8413500Y-11320843D01*
X8399214Y-11335129D01*
X8370643Y-11349414D01*
X8342071Y-11349414D01*
X8313500Y-11335129D01*
X8299214Y-11320843D01*
X8284928Y-11292271D01*
X8270643Y-11235129D01*
X8270643Y-11163700D01*
X8284928Y-11106557D01*
X8299214Y-11077986D01*
X8313500Y-11063700D01*
X8342071Y-11049414D01*
X8570643Y-11320843D02*
X8584928Y-11335129D01*
X8570643Y-11349414D01*
X8556357Y-11335129D01*
X8570643Y-11320843D01*
X8570643Y-11349414D01*
X8842071Y-11049414D02*
X8784928Y-11049414D01*
X8756357Y-11063700D01*
X8742071Y-11077986D01*
X8713500Y-11120843D01*
X8699214Y-11177986D01*
X8699214Y-11292271D01*
X8713500Y-11320843D01*
X8727786Y-11335129D01*
X8756357Y-11349414D01*
X8813500Y-11349414D01*
X8842071Y-11335129D01*
X8856357Y-11320843D01*
X8870643Y-11292271D01*
X8870643Y-11220843D01*
X8856357Y-11192271D01*
X8842071Y-11177986D01*
X8813500Y-11163700D01*
X8756357Y-11163700D01*
X8727786Y-11177986D01*
X8713500Y-11192271D01*
X8699214Y-11220843D01*
X9056357Y-11049414D02*
X9084928Y-11049414D01*
X9113500Y-11063700D01*
X9127786Y-11077986D01*
X9142071Y-11106557D01*
X9156357Y-11163700D01*
X9156357Y-11235129D01*
X9142071Y-11292271D01*
X9127786Y-11320843D01*
X9113500Y-11335129D01*
X9084928Y-11349414D01*
X9056357Y-11349414D01*
X9027786Y-11335129D01*
X9013500Y-11320843D01*
X8999214Y-11292271D01*
X8984928Y-11235129D01*
X8984928Y-11163700D01*
X8999214Y-11106557D01*
X9013500Y-11077986D01*
X9027786Y-11063700D01*
X9056357Y-11049414D01*
X9284928Y-11349414D02*
X9284928Y-11149414D01*
X9284928Y-11177986D02*
X9299214Y-11163700D01*
X9327786Y-11149414D01*
X9370643Y-11149414D01*
X9399214Y-11163700D01*
X9413500Y-11192271D01*
X9413500Y-11349414D01*
X9413500Y-11192271D02*
X9427786Y-11163700D01*
X9456357Y-11149414D01*
X9499214Y-11149414D01*
X9527786Y-11163700D01*
X9542071Y-11192271D01*
X9542071Y-11349414D01*
X9684928Y-11349414D02*
X9684928Y-11149414D01*
X9684928Y-11177986D02*
X9699214Y-11163700D01*
X9727786Y-11149414D01*
X9770643Y-11149414D01*
X9799214Y-11163700D01*
X9813500Y-11192271D01*
X9813500Y-11349414D01*
X9813500Y-11192271D02*
X9827786Y-11163700D01*
X9856357Y-11149414D01*
X9899214Y-11149414D01*
X9927786Y-11163700D01*
X9942071Y-11192271D01*
X9942071Y-11349414D01*
X10527786Y-11035129D02*
X10270643Y-11420843D01*
X10913500Y-11049414D02*
X10942071Y-11049414D01*
X10970643Y-11063700D01*
X10984928Y-11077986D01*
X10999214Y-11106557D01*
X11013500Y-11163700D01*
X11013500Y-11235129D01*
X10999214Y-11292271D01*
X10984928Y-11320843D01*
X10970643Y-11335129D01*
X10942071Y-11349414D01*
X10913500Y-11349414D01*
X10884928Y-11335129D01*
X10870643Y-11320843D01*
X10856357Y-11292271D01*
X10842071Y-11235129D01*
X10842071Y-11163700D01*
X10856357Y-11106557D01*
X10870643Y-11077986D01*
X10884928Y-11063700D01*
X10913500Y-11049414D01*
X11142071Y-11320843D02*
X11156357Y-11335129D01*
X11142071Y-11349414D01*
X11127786Y-11335129D01*
X11142071Y-11320843D01*
X11142071Y-11349414D01*
X11342071Y-11049414D02*
X11370643Y-11049414D01*
X11399214Y-11063700D01*
X11413500Y-11077986D01*
X11427786Y-11106557D01*
X11442071Y-11163700D01*
X11442071Y-11235129D01*
X11427786Y-11292271D01*
X11413500Y-11320843D01*
X11399214Y-11335129D01*
X11370643Y-11349414D01*
X11342071Y-11349414D01*
X11313500Y-11335129D01*
X11299214Y-11320843D01*
X11284928Y-11292271D01*
X11270643Y-11235129D01*
X11270643Y-11163700D01*
X11284928Y-11106557D01*
X11299214Y-11077986D01*
X11313500Y-11063700D01*
X11342071Y-11049414D01*
X11556357Y-11077986D02*
X11570643Y-11063700D01*
X11599214Y-11049414D01*
X11670643Y-11049414D01*
X11699214Y-11063700D01*
X11713500Y-11077986D01*
X11727786Y-11106557D01*
X11727786Y-11135129D01*
X11713500Y-11177986D01*
X11542071Y-11349414D01*
X11727786Y-11349414D01*
X11984928Y-11149414D02*
X11984928Y-11349414D01*
X11913500Y-11035129D02*
X11842071Y-11249414D01*
X12027786Y-11249414D01*
X12127786Y-11049414D02*
X12127786Y-11106557D01*
X12242071Y-11049414D02*
X12242071Y-11106557D01*
X12684928Y-11463700D02*
X12670643Y-11449414D01*
X12642071Y-11406557D01*
X12627786Y-11377986D01*
X12613500Y-11335129D01*
X12599214Y-11263700D01*
X12599214Y-11206557D01*
X12613500Y-11135129D01*
X12627786Y-11092272D01*
X12642071Y-11063700D01*
X12670643Y-11020843D01*
X12684928Y-11006557D01*
X12856357Y-11049414D02*
X12884928Y-11049414D01*
X12913500Y-11063700D01*
X12927786Y-11077986D01*
X12942071Y-11106557D01*
X12956357Y-11163700D01*
X12956357Y-11235129D01*
X12942071Y-11292271D01*
X12927786Y-11320843D01*
X12913500Y-11335129D01*
X12884928Y-11349414D01*
X12856357Y-11349414D01*
X12827786Y-11335129D01*
X12813500Y-11320843D01*
X12799214Y-11292271D01*
X12784928Y-11235129D01*
X12784928Y-11163700D01*
X12799214Y-11106557D01*
X12813500Y-11077986D01*
X12827786Y-11063700D01*
X12856357Y-11049414D01*
X13313500Y-11349414D02*
X13313500Y-11049414D01*
X13442071Y-11349414D02*
X13442071Y-11192271D01*
X13427786Y-11163700D01*
X13399214Y-11149414D01*
X13356357Y-11149414D01*
X13327786Y-11163700D01*
X13313500Y-11177986D01*
X13627786Y-11349414D02*
X13599214Y-11335129D01*
X13584928Y-11320843D01*
X13570643Y-11292271D01*
X13570643Y-11206557D01*
X13584928Y-11177986D01*
X13599214Y-11163700D01*
X13627786Y-11149414D01*
X13670643Y-11149414D01*
X13699214Y-11163700D01*
X13713500Y-11177986D01*
X13727786Y-11206557D01*
X13727786Y-11292271D01*
X13713500Y-11320843D01*
X13699214Y-11335129D01*
X13670643Y-11349414D01*
X13627786Y-11349414D01*
X13899214Y-11349414D02*
X13870643Y-11335129D01*
X13856357Y-11306557D01*
X13856357Y-11049414D01*
X14127786Y-11335129D02*
X14099214Y-11349414D01*
X14042071Y-11349414D01*
X14013500Y-11335129D01*
X13999214Y-11306557D01*
X13999214Y-11192271D01*
X14013500Y-11163700D01*
X14042071Y-11149414D01*
X14099214Y-11149414D01*
X14127786Y-11163700D01*
X14142071Y-11192271D01*
X14142071Y-11220843D01*
X13999214Y-11249414D01*
X14256357Y-11335129D02*
X14284928Y-11349414D01*
X14342071Y-11349414D01*
X14370643Y-11335129D01*
X14384928Y-11306557D01*
X14384928Y-11292271D01*
X14370643Y-11263700D01*
X14342071Y-11249414D01*
X14299214Y-11249414D01*
X14270643Y-11235129D01*
X14256357Y-11206557D01*
X14256357Y-11192271D01*
X14270643Y-11163700D01*
X14299214Y-11149414D01*
X14342071Y-11149414D01*
X14370643Y-11163700D01*
X14742071Y-11235129D02*
X14970643Y-11235129D01*
X14856357Y-11349414D02*
X14856357Y-11120843D01*
X15470643Y-11149414D02*
X15470643Y-11349414D01*
X15399214Y-11035129D02*
X15327786Y-11249414D01*
X15513500Y-11249414D01*
X15842071Y-11335129D02*
X15870643Y-11349414D01*
X15927786Y-11349414D01*
X15956357Y-11335129D01*
X15970643Y-11306557D01*
X15970643Y-11292271D01*
X15956357Y-11263700D01*
X15927786Y-11249414D01*
X15884928Y-11249414D01*
X15856357Y-11235129D01*
X15842071Y-11206557D01*
X15842071Y-11192271D01*
X15856357Y-11163700D01*
X15884928Y-11149414D01*
X15927786Y-11149414D01*
X15956357Y-11163700D01*
X16142071Y-11349414D02*
X16113500Y-11335129D01*
X16099214Y-11306557D01*
X16099214Y-11049414D01*
X16299214Y-11349414D02*
X16270643Y-11335129D01*
X16256357Y-11320843D01*
X16242071Y-11292271D01*
X16242071Y-11206557D01*
X16256357Y-11177986D01*
X16270643Y-11163700D01*
X16299214Y-11149414D01*
X16342071Y-11149414D01*
X16370643Y-11163700D01*
X16384928Y-11177986D01*
X16399214Y-11206557D01*
X16399214Y-11292271D01*
X16384928Y-11320843D01*
X16370643Y-11335129D01*
X16342071Y-11349414D01*
X16299214Y-11349414D01*
X16484928Y-11149414D02*
X16599214Y-11149414D01*
X16527786Y-11049414D02*
X16527786Y-11306557D01*
X16542071Y-11335129D01*
X16570643Y-11349414D01*
X16599214Y-11349414D01*
X16684928Y-11335129D02*
X16713500Y-11349414D01*
X16770643Y-11349414D01*
X16799214Y-11335129D01*
X16813500Y-11306557D01*
X16813500Y-11292271D01*
X16799214Y-11263700D01*
X16770643Y-11249414D01*
X16727786Y-11249414D01*
X16699214Y-11235129D01*
X16684928Y-11206557D01*
X16684928Y-11192271D01*
X16699214Y-11163700D01*
X16727786Y-11149414D01*
X16770643Y-11149414D01*
X16799214Y-11163700D01*
X16913500Y-11463700D02*
X16927786Y-11449414D01*
X16956357Y-11406557D01*
X16970643Y-11377986D01*
X16984928Y-11335129D01*
X16999214Y-11263700D01*
X16999214Y-11206557D01*
X16984928Y-11135129D01*
X16970643Y-11092272D01*
X16956357Y-11063700D01*
X16927786Y-11020843D01*
X16913500Y-11006557D01*
X7966000Y-11577200D02*
X7966000Y-11642200D01*
X7933500Y-11609700D02*
X7998500Y-11609700D01*
X8342071Y-11445414D02*
X8370643Y-11445414D01*
X8399214Y-11459700D01*
X8413500Y-11473986D01*
X8427786Y-11502557D01*
X8442071Y-11559700D01*
X8442071Y-11631129D01*
X8427786Y-11688271D01*
X8413500Y-11716843D01*
X8399214Y-11731129D01*
X8370643Y-11745414D01*
X8342071Y-11745414D01*
X8313500Y-11731129D01*
X8299214Y-11716843D01*
X8284928Y-11688271D01*
X8270643Y-11631129D01*
X8270643Y-11559700D01*
X8284928Y-11502557D01*
X8299214Y-11473986D01*
X8313500Y-11459700D01*
X8342071Y-11445414D01*
X8570643Y-11716843D02*
X8584928Y-11731129D01*
X8570643Y-11745414D01*
X8556357Y-11731129D01*
X8570643Y-11716843D01*
X8570643Y-11745414D01*
X8842071Y-11445414D02*
X8784928Y-11445414D01*
X8756357Y-11459700D01*
X8742071Y-11473986D01*
X8713500Y-11516843D01*
X8699214Y-11573986D01*
X8699214Y-11688271D01*
X8713500Y-11716843D01*
X8727786Y-11731129D01*
X8756357Y-11745414D01*
X8813500Y-11745414D01*
X8842071Y-11731129D01*
X8856357Y-11716843D01*
X8870643Y-11688271D01*
X8870643Y-11616843D01*
X8856357Y-11588271D01*
X8842071Y-11573986D01*
X8813500Y-11559700D01*
X8756357Y-11559700D01*
X8727786Y-11573986D01*
X8713500Y-11588271D01*
X8699214Y-11616843D01*
X9142071Y-11445414D02*
X8999214Y-11445414D01*
X8984928Y-11588271D01*
X8999214Y-11573986D01*
X9027786Y-11559700D01*
X9099214Y-11559700D01*
X9127786Y-11573986D01*
X9142071Y-11588271D01*
X9156357Y-11616843D01*
X9156357Y-11688271D01*
X9142071Y-11716843D01*
X9127786Y-11731129D01*
X9099214Y-11745414D01*
X9027786Y-11745414D01*
X8999214Y-11731129D01*
X8984928Y-11716843D01*
X9284928Y-11745414D02*
X9284928Y-11545414D01*
X9284928Y-11573986D02*
X9299214Y-11559700D01*
X9327786Y-11545414D01*
X9370643Y-11545414D01*
X9399214Y-11559700D01*
X9413500Y-11588271D01*
X9413500Y-11745414D01*
X9413500Y-11588271D02*
X9427786Y-11559700D01*
X9456357Y-11545414D01*
X9499214Y-11545414D01*
X9527786Y-11559700D01*
X9542071Y-11588271D01*
X9542071Y-11745414D01*
X9684928Y-11745414D02*
X9684928Y-11545414D01*
X9684928Y-11573986D02*
X9699214Y-11559700D01*
X9727786Y-11545414D01*
X9770643Y-11545414D01*
X9799214Y-11559700D01*
X9813500Y-11588271D01*
X9813500Y-11745414D01*
X9813500Y-11588271D02*
X9827786Y-11559700D01*
X9856357Y-11545414D01*
X9899214Y-11545414D01*
X9927786Y-11559700D01*
X9942071Y-11588271D01*
X9942071Y-11745414D01*
X10527786Y-11431129D02*
X10270643Y-11816843D01*
X10913500Y-11445414D02*
X10942071Y-11445414D01*
X10970643Y-11459700D01*
X10984928Y-11473986D01*
X10999214Y-11502557D01*
X11013500Y-11559700D01*
X11013500Y-11631129D01*
X10999214Y-11688271D01*
X10984928Y-11716843D01*
X10970643Y-11731129D01*
X10942071Y-11745414D01*
X10913500Y-11745414D01*
X10884928Y-11731129D01*
X10870643Y-11716843D01*
X10856357Y-11688271D01*
X10842071Y-11631129D01*
X10842071Y-11559700D01*
X10856357Y-11502557D01*
X10870643Y-11473986D01*
X10884928Y-11459700D01*
X10913500Y-11445414D01*
X11142071Y-11716843D02*
X11156357Y-11731129D01*
X11142071Y-11745414D01*
X11127786Y-11731129D01*
X11142071Y-11716843D01*
X11142071Y-11745414D01*
X11342071Y-11445414D02*
X11370643Y-11445414D01*
X11399214Y-11459700D01*
X11413500Y-11473986D01*
X11427786Y-11502557D01*
X11442071Y-11559700D01*
X11442071Y-11631129D01*
X11427786Y-11688271D01*
X11413500Y-11716843D01*
X11399214Y-11731129D01*
X11370643Y-11745414D01*
X11342071Y-11745414D01*
X11313500Y-11731129D01*
X11299214Y-11716843D01*
X11284928Y-11688271D01*
X11270643Y-11631129D01*
X11270643Y-11559700D01*
X11284928Y-11502557D01*
X11299214Y-11473986D01*
X11313500Y-11459700D01*
X11342071Y-11445414D01*
X11556357Y-11473986D02*
X11570643Y-11459700D01*
X11599214Y-11445414D01*
X11670643Y-11445414D01*
X11699214Y-11459700D01*
X11713500Y-11473986D01*
X11727786Y-11502557D01*
X11727786Y-11531129D01*
X11713500Y-11573986D01*
X11542071Y-11745414D01*
X11727786Y-11745414D01*
X11984928Y-11445414D02*
X11927786Y-11445414D01*
X11899214Y-11459700D01*
X11884928Y-11473986D01*
X11856357Y-11516843D01*
X11842071Y-11573986D01*
X11842071Y-11688271D01*
X11856357Y-11716843D01*
X11870643Y-11731129D01*
X11899214Y-11745414D01*
X11956357Y-11745414D01*
X11984928Y-11731129D01*
X11999214Y-11716843D01*
X12013500Y-11688271D01*
X12013500Y-11616843D01*
X11999214Y-11588271D01*
X11984928Y-11573986D01*
X11956357Y-11559700D01*
X11899214Y-11559700D01*
X11870643Y-11573986D01*
X11856357Y-11588271D01*
X11842071Y-11616843D01*
X12127786Y-11445414D02*
X12127786Y-11502557D01*
X12242071Y-11445414D02*
X12242071Y-11502557D01*
X12684928Y-11859700D02*
X12670643Y-11845414D01*
X12642071Y-11802557D01*
X12627786Y-11773986D01*
X12613500Y-11731129D01*
X12599214Y-11659700D01*
X12599214Y-11602557D01*
X12613500Y-11531129D01*
X12627786Y-11488271D01*
X12642071Y-11459700D01*
X12670643Y-11416843D01*
X12684928Y-11402557D01*
X12956357Y-11745414D02*
X12784928Y-11745414D01*
X12870643Y-11745414D02*
X12870643Y-11445414D01*
X12842071Y-11488271D01*
X12813500Y-11516843D01*
X12784928Y-11531129D01*
X13142071Y-11445414D02*
X13170643Y-11445414D01*
X13199214Y-11459700D01*
X13213500Y-11473986D01*
X13227786Y-11502557D01*
X13242071Y-11559700D01*
X13242071Y-11631129D01*
X13227786Y-11688271D01*
X13213500Y-11716843D01*
X13199214Y-11731129D01*
X13170643Y-11745414D01*
X13142071Y-11745414D01*
X13113500Y-11731129D01*
X13099214Y-11716843D01*
X13084928Y-11688271D01*
X13070643Y-11631129D01*
X13070643Y-11559700D01*
X13084928Y-11502557D01*
X13099214Y-11473986D01*
X13113500Y-11459700D01*
X13142071Y-11445414D01*
X13599214Y-11745414D02*
X13599214Y-11445414D01*
X13727786Y-11745414D02*
X13727786Y-11588271D01*
X13713500Y-11559700D01*
X13684928Y-11545414D01*
X13642071Y-11545414D01*
X13613500Y-11559700D01*
X13599214Y-11573986D01*
X13913500Y-11745414D02*
X13884928Y-11731129D01*
X13870643Y-11716843D01*
X13856357Y-11688271D01*
X13856357Y-11602557D01*
X13870643Y-11573986D01*
X13884928Y-11559700D01*
X13913500Y-11545414D01*
X13956357Y-11545414D01*
X13984928Y-11559700D01*
X13999214Y-11573986D01*
X14013500Y-11602557D01*
X14013500Y-11688271D01*
X13999214Y-11716843D01*
X13984928Y-11731129D01*
X13956357Y-11745414D01*
X13913500Y-11745414D01*
X14184928Y-11745414D02*
X14156357Y-11731129D01*
X14142071Y-11702557D01*
X14142071Y-11445414D01*
X14413500Y-11731129D02*
X14384928Y-11745414D01*
X14327786Y-11745414D01*
X14299214Y-11731129D01*
X14284928Y-11702557D01*
X14284928Y-11588271D01*
X14299214Y-11559700D01*
X14327786Y-11545414D01*
X14384928Y-11545414D01*
X14413500Y-11559700D01*
X14427786Y-11588271D01*
X14427786Y-11616843D01*
X14284928Y-11645414D01*
X14542071Y-11731129D02*
X14570643Y-11745414D01*
X14627786Y-11745414D01*
X14656357Y-11731129D01*
X14670643Y-11702557D01*
X14670643Y-11688271D01*
X14656357Y-11659700D01*
X14627786Y-11645414D01*
X14584928Y-11645414D01*
X14556357Y-11631129D01*
X14542071Y-11602557D01*
X14542071Y-11588271D01*
X14556357Y-11559700D01*
X14584928Y-11545414D01*
X14627786Y-11545414D01*
X14656357Y-11559700D01*
X14770643Y-11859700D02*
X14784928Y-11845414D01*
X14813500Y-11802557D01*
X14827786Y-11773986D01*
X14842071Y-11731129D01*
X14856357Y-11659700D01*
X14856357Y-11602557D01*
X14842071Y-11531129D01*
X14827786Y-11488271D01*
X14813500Y-11459700D01*
X14784928Y-11416843D01*
X14770643Y-11402557D01*
X7983856Y-12041056D02*
X7983856Y-11970344D01*
X7913144Y-11970344D01*
X7913144Y-12041056D01*
X7983856Y-12041056D01*
X8442071Y-12141414D02*
X8270643Y-12141414D01*
X8356357Y-12141414D02*
X8356357Y-11841414D01*
X8327786Y-11884271D01*
X8299214Y-11912843D01*
X8270643Y-11927129D01*
X8570643Y-12112843D02*
X8584928Y-12127129D01*
X8570643Y-12141414D01*
X8556357Y-12127129D01*
X8570643Y-12112843D01*
X8570643Y-12141414D01*
X8770643Y-11841414D02*
X8799214Y-11841414D01*
X8827786Y-11855700D01*
X8842071Y-11869986D01*
X8856357Y-11898557D01*
X8870643Y-11955700D01*
X8870643Y-12027129D01*
X8856357Y-12084271D01*
X8842071Y-12112843D01*
X8827786Y-12127129D01*
X8799214Y-12141414D01*
X8770643Y-12141414D01*
X8742071Y-12127129D01*
X8727786Y-12112843D01*
X8713500Y-12084271D01*
X8699214Y-12027129D01*
X8699214Y-11955700D01*
X8713500Y-11898557D01*
X8727786Y-11869986D01*
X8742071Y-11855700D01*
X8770643Y-11841414D01*
X9056357Y-11841414D02*
X9084928Y-11841414D01*
X9113500Y-11855700D01*
X9127786Y-11869986D01*
X9142071Y-11898557D01*
X9156357Y-11955700D01*
X9156357Y-12027129D01*
X9142071Y-12084271D01*
X9127786Y-12112843D01*
X9113500Y-12127129D01*
X9084928Y-12141414D01*
X9056357Y-12141414D01*
X9027786Y-12127129D01*
X9013500Y-12112843D01*
X8999214Y-12084271D01*
X8984928Y-12027129D01*
X8984928Y-11955700D01*
X8999214Y-11898557D01*
X9013500Y-11869986D01*
X9027786Y-11855700D01*
X9056357Y-11841414D01*
X9284928Y-12141414D02*
X9284928Y-11941414D01*
X9284928Y-11969986D02*
X9299214Y-11955700D01*
X9327786Y-11941414D01*
X9370643Y-11941414D01*
X9399214Y-11955700D01*
X9413500Y-11984271D01*
X9413500Y-12141414D01*
X9413500Y-11984271D02*
X9427786Y-11955700D01*
X9456357Y-11941414D01*
X9499214Y-11941414D01*
X9527786Y-11955700D01*
X9542071Y-11984271D01*
X9542071Y-12141414D01*
X9684928Y-12141414D02*
X9684928Y-11941414D01*
X9684928Y-11969986D02*
X9699214Y-11955700D01*
X9727786Y-11941414D01*
X9770643Y-11941414D01*
X9799214Y-11955700D01*
X9813500Y-11984271D01*
X9813500Y-12141414D01*
X9813500Y-11984271D02*
X9827786Y-11955700D01*
X9856357Y-11941414D01*
X9899214Y-11941414D01*
X9927786Y-11955700D01*
X9942071Y-11984271D01*
X9942071Y-12141414D01*
X10527786Y-11827129D02*
X10270643Y-12212843D01*
X10913500Y-11841414D02*
X10942071Y-11841414D01*
X10970643Y-11855700D01*
X10984928Y-11869986D01*
X10999214Y-11898557D01*
X11013500Y-11955700D01*
X11013500Y-12027129D01*
X10999214Y-12084271D01*
X10984928Y-12112843D01*
X10970643Y-12127129D01*
X10942071Y-12141414D01*
X10913500Y-12141414D01*
X10884928Y-12127129D01*
X10870643Y-12112843D01*
X10856357Y-12084271D01*
X10842071Y-12027129D01*
X10842071Y-11955700D01*
X10856357Y-11898557D01*
X10870643Y-11869986D01*
X10884928Y-11855700D01*
X10913500Y-11841414D01*
X11142071Y-12112843D02*
X11156357Y-12127129D01*
X11142071Y-12141414D01*
X11127786Y-12127129D01*
X11142071Y-12112843D01*
X11142071Y-12141414D01*
X11342071Y-11841414D02*
X11370643Y-11841414D01*
X11399214Y-11855700D01*
X11413500Y-11869986D01*
X11427786Y-11898557D01*
X11442071Y-11955700D01*
X11442071Y-12027129D01*
X11427786Y-12084271D01*
X11413500Y-12112843D01*
X11399214Y-12127129D01*
X11370643Y-12141414D01*
X11342071Y-12141414D01*
X11313500Y-12127129D01*
X11299214Y-12112843D01*
X11284928Y-12084271D01*
X11270643Y-12027129D01*
X11270643Y-11955700D01*
X11284928Y-11898557D01*
X11299214Y-11869986D01*
X11313500Y-11855700D01*
X11342071Y-11841414D01*
X11542071Y-11841414D02*
X11727786Y-11841414D01*
X11627786Y-11955700D01*
X11670643Y-11955700D01*
X11699214Y-11969986D01*
X11713500Y-11984271D01*
X11727786Y-12012843D01*
X11727786Y-12084271D01*
X11713500Y-12112843D01*
X11699214Y-12127129D01*
X11670643Y-12141414D01*
X11584928Y-12141414D01*
X11556357Y-12127129D01*
X11542071Y-12112843D01*
X11870643Y-12141414D02*
X11927786Y-12141414D01*
X11956357Y-12127129D01*
X11970643Y-12112843D01*
X11999214Y-12069986D01*
X12013500Y-12012843D01*
X12013500Y-11898557D01*
X11999214Y-11869986D01*
X11984928Y-11855700D01*
X11956357Y-11841414D01*
X11899214Y-11841414D01*
X11870643Y-11855700D01*
X11856357Y-11869986D01*
X11842071Y-11898557D01*
X11842071Y-11969986D01*
X11856357Y-11998557D01*
X11870643Y-12012843D01*
X11899214Y-12027129D01*
X11956357Y-12027129D01*
X11984928Y-12012843D01*
X11999214Y-11998557D01*
X12013500Y-11969986D01*
X12127786Y-11841414D02*
X12127786Y-11898557D01*
X12242071Y-11841414D02*
X12242071Y-11898557D01*
X12684928Y-12255700D02*
X12670643Y-12241414D01*
X12642071Y-12198557D01*
X12627786Y-12169986D01*
X12613500Y-12127129D01*
X12599214Y-12055700D01*
X12599214Y-11998557D01*
X12613500Y-11927129D01*
X12627786Y-11884271D01*
X12642071Y-11855700D01*
X12670643Y-11812843D01*
X12684928Y-11798557D01*
X12770643Y-11841414D02*
X12956357Y-11841414D01*
X12856357Y-11955700D01*
X12899214Y-11955700D01*
X12927786Y-11969986D01*
X12942071Y-11984271D01*
X12956357Y-12012843D01*
X12956357Y-12084271D01*
X12942071Y-12112843D01*
X12927786Y-12127129D01*
X12899214Y-12141414D01*
X12813500Y-12141414D01*
X12784928Y-12127129D01*
X12770643Y-12112843D01*
X13213500Y-11941414D02*
X13213500Y-12141414D01*
X13142071Y-11827129D02*
X13070643Y-12041414D01*
X13256357Y-12041414D01*
X13599214Y-12141414D02*
X13599214Y-11841414D01*
X13727786Y-12141414D02*
X13727786Y-11984271D01*
X13713500Y-11955700D01*
X13684928Y-11941414D01*
X13642071Y-11941414D01*
X13613500Y-11955700D01*
X13599214Y-11969986D01*
X13913500Y-12141414D02*
X13884928Y-12127129D01*
X13870643Y-12112843D01*
X13856357Y-12084271D01*
X13856357Y-11998557D01*
X13870643Y-11969986D01*
X13884928Y-11955700D01*
X13913500Y-11941414D01*
X13956357Y-11941414D01*
X13984928Y-11955700D01*
X13999214Y-11969986D01*
X14013500Y-11998557D01*
X14013500Y-12084271D01*
X13999214Y-12112843D01*
X13984928Y-12127129D01*
X13956357Y-12141414D01*
X13913500Y-12141414D01*
X14184928Y-12141414D02*
X14156357Y-12127129D01*
X14142071Y-12098557D01*
X14142071Y-11841414D01*
X14413500Y-12127129D02*
X14384928Y-12141414D01*
X14327786Y-12141414D01*
X14299214Y-12127129D01*
X14284928Y-12098557D01*
X14284928Y-11984271D01*
X14299214Y-11955700D01*
X14327786Y-11941414D01*
X14384928Y-11941414D01*
X14413500Y-11955700D01*
X14427786Y-11984271D01*
X14427786Y-12012843D01*
X14284928Y-12041414D01*
X14542071Y-12127129D02*
X14570643Y-12141414D01*
X14627786Y-12141414D01*
X14656357Y-12127129D01*
X14670643Y-12098557D01*
X14670643Y-12084271D01*
X14656357Y-12055700D01*
X14627786Y-12041414D01*
X14584928Y-12041414D01*
X14556357Y-12027129D01*
X14542071Y-11998557D01*
X14542071Y-11984271D01*
X14556357Y-11955700D01*
X14584928Y-11941414D01*
X14627786Y-11941414D01*
X14656357Y-11955700D01*
X14770643Y-12255700D02*
X14784928Y-12241414D01*
X14813500Y-12198557D01*
X14827786Y-12169986D01*
X14842071Y-12127129D01*
X14856357Y-12055700D01*
X14856357Y-11998557D01*
X14842071Y-11927129D01*
X14827786Y-11884271D01*
X14813500Y-11855700D01*
X14784928Y-11812843D01*
X14770643Y-11798557D01*
M02*
