%TF.GenerationSoftware,KiCad,Pcbnew,5.1.9+dfsg1-1*%
%TF.CreationDate,2022-01-14T18:57:29-05:00*%
%TF.ProjectId,samd21g17d,73616d64-3231-4673-9137-642e6b696361,rev?*%
%TF.SameCoordinates,Original*%
%TF.FileFunction,Soldermask,Top*%
%TF.FilePolarity,Negative*%
%FSLAX46Y46*%
G04 Gerber Fmt 4.6, Leading zero omitted, Abs format (unit mm)*
G04 Created by KiCad (PCBNEW 5.1.9+dfsg1-1) date 2022-01-14 18:57:29*
%MOMM*%
%LPD*%
G01*
G04 APERTURE LIST*
%ADD10R,1.800000X1.000000*%
%ADD11R,1.060000X0.650000*%
%ADD12R,0.250000X1.300000*%
%ADD13R,1.300000X0.250000*%
%ADD14R,1.600000X1.400000*%
%ADD15O,1.000000X1.000000*%
%ADD16R,1.000000X1.000000*%
%ADD17O,1.700000X1.700000*%
%ADD18R,1.700000X1.700000*%
%ADD19R,1.150000X0.300000*%
%ADD20O,0.650000X0.650000*%
%ADD21O,1.800000X1.000000*%
%ADD22O,2.100000X1.000000*%
%ADD23R,1.086500X0.300000*%
G04 APERTURE END LIST*
D10*
%TO.C,Y1*%
X101536500Y-81133000D03*
X101536500Y-78633000D03*
%TD*%
D11*
%TO.C,U2*%
X95397500Y-82235000D03*
X95397500Y-84135000D03*
X93197500Y-84135000D03*
X93197500Y-83185000D03*
X93197500Y-82235000D03*
%TD*%
D12*
%TO.C,U1*%
X106216000Y-79724000D03*
X106716000Y-79724000D03*
X107216000Y-79724000D03*
X107716000Y-79724000D03*
X108216000Y-79724000D03*
X108716000Y-79724000D03*
X109216000Y-79724000D03*
X109716000Y-79724000D03*
X110216000Y-79724000D03*
X110716000Y-79724000D03*
X111216000Y-79724000D03*
X111716000Y-79724000D03*
D13*
X113316000Y-81324000D03*
X113316000Y-81824000D03*
X113316000Y-82324000D03*
X113316000Y-82824000D03*
X113316000Y-83324000D03*
X113316000Y-83824000D03*
X113316000Y-84324000D03*
X113316000Y-84824000D03*
X113316000Y-85324000D03*
X113316000Y-85824000D03*
X113316000Y-86324000D03*
X113316000Y-86824000D03*
D12*
X111716000Y-88424000D03*
X111216000Y-88424000D03*
X110716000Y-88424000D03*
X110216000Y-88424000D03*
X109716000Y-88424000D03*
X109216000Y-88424000D03*
X108716000Y-88424000D03*
X108216000Y-88424000D03*
X107716000Y-88424000D03*
X107216000Y-88424000D03*
X106716000Y-88424000D03*
X106216000Y-88424000D03*
D13*
X104616000Y-86824000D03*
X104616000Y-86324000D03*
X104616000Y-85824000D03*
X104616000Y-85324000D03*
X104616000Y-84824000D03*
X104616000Y-84324000D03*
X104616000Y-83824000D03*
X104616000Y-83324000D03*
X104616000Y-82824000D03*
X104616000Y-82324000D03*
X104616000Y-81824000D03*
X104616000Y-81324000D03*
%TD*%
D14*
%TO.C,RESET*%
X100207000Y-90195500D03*
X93007000Y-90195500D03*
X100207000Y-87195500D03*
X93007000Y-87195500D03*
%TD*%
%TO.C,R5*%
G36*
G01*
X97605000Y-85012500D02*
X97975000Y-85012500D01*
G75*
G02*
X98110000Y-85147500I0J-135000D01*
G01*
X98110000Y-85417500D01*
G75*
G02*
X97975000Y-85552500I-135000J0D01*
G01*
X97605000Y-85552500D01*
G75*
G02*
X97470000Y-85417500I0J135000D01*
G01*
X97470000Y-85147500D01*
G75*
G02*
X97605000Y-85012500I135000J0D01*
G01*
G37*
G36*
G01*
X97605000Y-83992500D02*
X97975000Y-83992500D01*
G75*
G02*
X98110000Y-84127500I0J-135000D01*
G01*
X98110000Y-84397500D01*
G75*
G02*
X97975000Y-84532500I-135000J0D01*
G01*
X97605000Y-84532500D01*
G75*
G02*
X97470000Y-84397500I0J135000D01*
G01*
X97470000Y-84127500D01*
G75*
G02*
X97605000Y-83992500I135000J0D01*
G01*
G37*
%TD*%
%TO.C,R4*%
G36*
G01*
X91434500Y-82500500D02*
X91064500Y-82500500D01*
G75*
G02*
X90929500Y-82365500I0J135000D01*
G01*
X90929500Y-82095500D01*
G75*
G02*
X91064500Y-81960500I135000J0D01*
G01*
X91434500Y-81960500D01*
G75*
G02*
X91569500Y-82095500I0J-135000D01*
G01*
X91569500Y-82365500D01*
G75*
G02*
X91434500Y-82500500I-135000J0D01*
G01*
G37*
G36*
G01*
X91434500Y-83520500D02*
X91064500Y-83520500D01*
G75*
G02*
X90929500Y-83385500I0J135000D01*
G01*
X90929500Y-83115500D01*
G75*
G02*
X91064500Y-82980500I135000J0D01*
G01*
X91434500Y-82980500D01*
G75*
G02*
X91569500Y-83115500I0J-135000D01*
G01*
X91569500Y-83385500D01*
G75*
G02*
X91434500Y-83520500I-135000J0D01*
G01*
G37*
%TD*%
%TO.C,R3*%
G36*
G01*
X85104000Y-77793000D02*
X85104000Y-78163000D01*
G75*
G02*
X84969000Y-78298000I-135000J0D01*
G01*
X84699000Y-78298000D01*
G75*
G02*
X84564000Y-78163000I0J135000D01*
G01*
X84564000Y-77793000D01*
G75*
G02*
X84699000Y-77658000I135000J0D01*
G01*
X84969000Y-77658000D01*
G75*
G02*
X85104000Y-77793000I0J-135000D01*
G01*
G37*
G36*
G01*
X86124000Y-77793000D02*
X86124000Y-78163000D01*
G75*
G02*
X85989000Y-78298000I-135000J0D01*
G01*
X85719000Y-78298000D01*
G75*
G02*
X85584000Y-78163000I0J135000D01*
G01*
X85584000Y-77793000D01*
G75*
G02*
X85719000Y-77658000I135000J0D01*
G01*
X85989000Y-77658000D01*
G75*
G02*
X86124000Y-77793000I0J-135000D01*
G01*
G37*
%TD*%
%TO.C,R2*%
G36*
G01*
X90475500Y-86481500D02*
X90475500Y-86111500D01*
G75*
G02*
X90610500Y-85976500I135000J0D01*
G01*
X90880500Y-85976500D01*
G75*
G02*
X91015500Y-86111500I0J-135000D01*
G01*
X91015500Y-86481500D01*
G75*
G02*
X90880500Y-86616500I-135000J0D01*
G01*
X90610500Y-86616500D01*
G75*
G02*
X90475500Y-86481500I0J135000D01*
G01*
G37*
G36*
G01*
X89455500Y-86481500D02*
X89455500Y-86111500D01*
G75*
G02*
X89590500Y-85976500I135000J0D01*
G01*
X89860500Y-85976500D01*
G75*
G02*
X89995500Y-86111500I0J-135000D01*
G01*
X89995500Y-86481500D01*
G75*
G02*
X89860500Y-86616500I-135000J0D01*
G01*
X89590500Y-86616500D01*
G75*
G02*
X89455500Y-86481500I0J135000D01*
G01*
G37*
%TD*%
%TO.C,R1*%
G36*
G01*
X90473500Y-87942000D02*
X90473500Y-87572000D01*
G75*
G02*
X90608500Y-87437000I135000J0D01*
G01*
X90878500Y-87437000D01*
G75*
G02*
X91013500Y-87572000I0J-135000D01*
G01*
X91013500Y-87942000D01*
G75*
G02*
X90878500Y-88077000I-135000J0D01*
G01*
X90608500Y-88077000D01*
G75*
G02*
X90473500Y-87942000I0J135000D01*
G01*
G37*
G36*
G01*
X89453500Y-87942000D02*
X89453500Y-87572000D01*
G75*
G02*
X89588500Y-87437000I135000J0D01*
G01*
X89858500Y-87437000D01*
G75*
G02*
X89993500Y-87572000I0J-135000D01*
G01*
X89993500Y-87942000D01*
G75*
G02*
X89858500Y-88077000I-135000J0D01*
G01*
X89588500Y-88077000D01*
G75*
G02*
X89453500Y-87942000I0J135000D01*
G01*
G37*
%TD*%
%TO.C,L1*%
G36*
G01*
X101886500Y-84076250D02*
X101886500Y-83563750D01*
G75*
G02*
X102105250Y-83345000I218750J0D01*
G01*
X102542750Y-83345000D01*
G75*
G02*
X102761500Y-83563750I0J-218750D01*
G01*
X102761500Y-84076250D01*
G75*
G02*
X102542750Y-84295000I-218750J0D01*
G01*
X102105250Y-84295000D01*
G75*
G02*
X101886500Y-84076250I0J218750D01*
G01*
G37*
G36*
G01*
X100311500Y-84076250D02*
X100311500Y-83563750D01*
G75*
G02*
X100530250Y-83345000I218750J0D01*
G01*
X100967750Y-83345000D01*
G75*
G02*
X101186500Y-83563750I0J-218750D01*
G01*
X101186500Y-84076250D01*
G75*
G02*
X100967750Y-84295000I-218750J0D01*
G01*
X100530250Y-84295000D01*
G75*
G02*
X100311500Y-84076250I0J218750D01*
G01*
G37*
%TD*%
D15*
%TO.C,DEBUG*%
X124587000Y-87185500D03*
X123317000Y-87185500D03*
X124587000Y-85915500D03*
X123317000Y-85915500D03*
X124587000Y-84645500D03*
X123317000Y-84645500D03*
X124587000Y-83375500D03*
X123317000Y-83375500D03*
X124587000Y-82105500D03*
D16*
X123317000Y-82105500D03*
%TD*%
D17*
%TO.C,J3*%
X124460000Y-73660000D03*
X121920000Y-73660000D03*
X119380000Y-73660000D03*
X116840000Y-73660000D03*
X114300000Y-73660000D03*
X111760000Y-73660000D03*
X109220000Y-73660000D03*
X106680000Y-73660000D03*
X104140000Y-73660000D03*
X101600000Y-73660000D03*
X99060000Y-73660000D03*
X96520000Y-73660000D03*
X93980000Y-73660000D03*
X91440000Y-73660000D03*
X88900000Y-73660000D03*
X86360000Y-73660000D03*
D18*
X83820000Y-73660000D03*
%TD*%
D17*
%TO.C,J2*%
X124460000Y-96520000D03*
X121920000Y-96520000D03*
X119380000Y-96520000D03*
X116840000Y-96520000D03*
X114300000Y-96520000D03*
X111760000Y-96520000D03*
X109220000Y-96520000D03*
X106680000Y-96520000D03*
X104140000Y-96520000D03*
X101600000Y-96520000D03*
X99060000Y-96520000D03*
X96520000Y-96520000D03*
X93980000Y-96520000D03*
X91440000Y-96520000D03*
X88900000Y-96520000D03*
X86360000Y-96520000D03*
D18*
X83820000Y-96520000D03*
%TD*%
D19*
%TO.C,J1*%
X86058000Y-88440000D03*
X86058000Y-87640000D03*
D20*
X84983000Y-87980000D03*
X84983000Y-82200000D03*
D21*
X81303000Y-89410000D03*
X81303000Y-80770000D03*
D22*
X85483000Y-80770000D03*
X85483000Y-89410000D03*
D19*
X86058000Y-86840000D03*
X86058000Y-86340000D03*
X86058000Y-85840000D03*
X86058000Y-85340000D03*
X86058000Y-84840000D03*
X86058000Y-84340000D03*
X86058000Y-83840000D03*
X86058000Y-83340000D03*
D23*
X86089750Y-88140000D03*
D19*
X86058000Y-87340000D03*
X86058000Y-82540000D03*
X86058000Y-81740000D03*
%TD*%
%TO.C,D1*%
G36*
G01*
X82265000Y-78234250D02*
X82265000Y-77721750D01*
G75*
G02*
X82483750Y-77503000I218750J0D01*
G01*
X82921250Y-77503000D01*
G75*
G02*
X83140000Y-77721750I0J-218750D01*
G01*
X83140000Y-78234250D01*
G75*
G02*
X82921250Y-78453000I-218750J0D01*
G01*
X82483750Y-78453000D01*
G75*
G02*
X82265000Y-78234250I0J218750D01*
G01*
G37*
G36*
G01*
X80690000Y-78234250D02*
X80690000Y-77721750D01*
G75*
G02*
X80908750Y-77503000I218750J0D01*
G01*
X81346250Y-77503000D01*
G75*
G02*
X81565000Y-77721750I0J-218750D01*
G01*
X81565000Y-78234250D01*
G75*
G02*
X81346250Y-78453000I-218750J0D01*
G01*
X80908750Y-78453000D01*
G75*
G02*
X80690000Y-78234250I0J218750D01*
G01*
G37*
%TD*%
%TO.C,C10*%
G36*
G01*
X101082500Y-85110500D02*
X101082500Y-85450500D01*
G75*
G02*
X100942500Y-85590500I-140000J0D01*
G01*
X100662500Y-85590500D01*
G75*
G02*
X100522500Y-85450500I0J140000D01*
G01*
X100522500Y-85110500D01*
G75*
G02*
X100662500Y-84970500I140000J0D01*
G01*
X100942500Y-84970500D01*
G75*
G02*
X101082500Y-85110500I0J-140000D01*
G01*
G37*
G36*
G01*
X102042500Y-85110500D02*
X102042500Y-85450500D01*
G75*
G02*
X101902500Y-85590500I-140000J0D01*
G01*
X101622500Y-85590500D01*
G75*
G02*
X101482500Y-85450500I0J140000D01*
G01*
X101482500Y-85110500D01*
G75*
G02*
X101622500Y-84970500I140000J0D01*
G01*
X101902500Y-84970500D01*
G75*
G02*
X102042500Y-85110500I0J-140000D01*
G01*
G37*
%TD*%
%TO.C,C9*%
G36*
G01*
X108785000Y-90721000D02*
X108785000Y-90381000D01*
G75*
G02*
X108925000Y-90241000I140000J0D01*
G01*
X109205000Y-90241000D01*
G75*
G02*
X109345000Y-90381000I0J-140000D01*
G01*
X109345000Y-90721000D01*
G75*
G02*
X109205000Y-90861000I-140000J0D01*
G01*
X108925000Y-90861000D01*
G75*
G02*
X108785000Y-90721000I0J140000D01*
G01*
G37*
G36*
G01*
X107825000Y-90721000D02*
X107825000Y-90381000D01*
G75*
G02*
X107965000Y-90241000I140000J0D01*
G01*
X108245000Y-90241000D01*
G75*
G02*
X108385000Y-90381000I0J-140000D01*
G01*
X108385000Y-90721000D01*
G75*
G02*
X108245000Y-90861000I-140000J0D01*
G01*
X107965000Y-90861000D01*
G75*
G02*
X107825000Y-90721000I0J140000D01*
G01*
G37*
%TD*%
%TO.C,C8*%
G36*
G01*
X115527000Y-81353000D02*
X115867000Y-81353000D01*
G75*
G02*
X116007000Y-81493000I0J-140000D01*
G01*
X116007000Y-81773000D01*
G75*
G02*
X115867000Y-81913000I-140000J0D01*
G01*
X115527000Y-81913000D01*
G75*
G02*
X115387000Y-81773000I0J140000D01*
G01*
X115387000Y-81493000D01*
G75*
G02*
X115527000Y-81353000I140000J0D01*
G01*
G37*
G36*
G01*
X115527000Y-80393000D02*
X115867000Y-80393000D01*
G75*
G02*
X116007000Y-80533000I0J-140000D01*
G01*
X116007000Y-80813000D01*
G75*
G02*
X115867000Y-80953000I-140000J0D01*
G01*
X115527000Y-80953000D01*
G75*
G02*
X115387000Y-80813000I0J140000D01*
G01*
X115387000Y-80533000D01*
G75*
G02*
X115527000Y-80393000I140000J0D01*
G01*
G37*
%TD*%
%TO.C,C7*%
G36*
G01*
X108975500Y-78021000D02*
X108975500Y-77681000D01*
G75*
G02*
X109115500Y-77541000I140000J0D01*
G01*
X109395500Y-77541000D01*
G75*
G02*
X109535500Y-77681000I0J-140000D01*
G01*
X109535500Y-78021000D01*
G75*
G02*
X109395500Y-78161000I-140000J0D01*
G01*
X109115500Y-78161000D01*
G75*
G02*
X108975500Y-78021000I0J140000D01*
G01*
G37*
G36*
G01*
X108015500Y-78021000D02*
X108015500Y-77681000D01*
G75*
G02*
X108155500Y-77541000I140000J0D01*
G01*
X108435500Y-77541000D01*
G75*
G02*
X108575500Y-77681000I0J-140000D01*
G01*
X108575500Y-78021000D01*
G75*
G02*
X108435500Y-78161000I-140000J0D01*
G01*
X108155500Y-78161000D01*
G75*
G02*
X108015500Y-78021000I0J140000D01*
G01*
G37*
%TD*%
%TO.C,C6*%
G36*
G01*
X106480000Y-77681000D02*
X106480000Y-78021000D01*
G75*
G02*
X106340000Y-78161000I-140000J0D01*
G01*
X106060000Y-78161000D01*
G75*
G02*
X105920000Y-78021000I0J140000D01*
G01*
X105920000Y-77681000D01*
G75*
G02*
X106060000Y-77541000I140000J0D01*
G01*
X106340000Y-77541000D01*
G75*
G02*
X106480000Y-77681000I0J-140000D01*
G01*
G37*
G36*
G01*
X107440000Y-77681000D02*
X107440000Y-78021000D01*
G75*
G02*
X107300000Y-78161000I-140000J0D01*
G01*
X107020000Y-78161000D01*
G75*
G02*
X106880000Y-78021000I0J140000D01*
G01*
X106880000Y-77681000D01*
G75*
G02*
X107020000Y-77541000I140000J0D01*
G01*
X107300000Y-77541000D01*
G75*
G02*
X107440000Y-77681000I0J-140000D01*
G01*
G37*
%TD*%
%TO.C,C5*%
G36*
G01*
X99514000Y-85450500D02*
X99514000Y-85110500D01*
G75*
G02*
X99654000Y-84970500I140000J0D01*
G01*
X99934000Y-84970500D01*
G75*
G02*
X100074000Y-85110500I0J-140000D01*
G01*
X100074000Y-85450500D01*
G75*
G02*
X99934000Y-85590500I-140000J0D01*
G01*
X99654000Y-85590500D01*
G75*
G02*
X99514000Y-85450500I0J140000D01*
G01*
G37*
G36*
G01*
X98554000Y-85450500D02*
X98554000Y-85110500D01*
G75*
G02*
X98694000Y-84970500I140000J0D01*
G01*
X98974000Y-84970500D01*
G75*
G02*
X99114000Y-85110500I0J-140000D01*
G01*
X99114000Y-85450500D01*
G75*
G02*
X98974000Y-85590500I-140000J0D01*
G01*
X98694000Y-85590500D01*
G75*
G02*
X98554000Y-85450500I0J140000D01*
G01*
G37*
%TD*%
%TO.C,C4*%
G36*
G01*
X97620000Y-83067500D02*
X97960000Y-83067500D01*
G75*
G02*
X98100000Y-83207500I0J-140000D01*
G01*
X98100000Y-83487500D01*
G75*
G02*
X97960000Y-83627500I-140000J0D01*
G01*
X97620000Y-83627500D01*
G75*
G02*
X97480000Y-83487500I0J140000D01*
G01*
X97480000Y-83207500D01*
G75*
G02*
X97620000Y-83067500I140000J0D01*
G01*
G37*
G36*
G01*
X97620000Y-82107500D02*
X97960000Y-82107500D01*
G75*
G02*
X98100000Y-82247500I0J-140000D01*
G01*
X98100000Y-82527500D01*
G75*
G02*
X97960000Y-82667500I-140000J0D01*
G01*
X97620000Y-82667500D01*
G75*
G02*
X97480000Y-82527500I0J140000D01*
G01*
X97480000Y-82247500D01*
G75*
G02*
X97620000Y-82107500I140000J0D01*
G01*
G37*
%TD*%
%TO.C,C3*%
G36*
G01*
X89428500Y-82940500D02*
X89768500Y-82940500D01*
G75*
G02*
X89908500Y-83080500I0J-140000D01*
G01*
X89908500Y-83360500D01*
G75*
G02*
X89768500Y-83500500I-140000J0D01*
G01*
X89428500Y-83500500D01*
G75*
G02*
X89288500Y-83360500I0J140000D01*
G01*
X89288500Y-83080500D01*
G75*
G02*
X89428500Y-82940500I140000J0D01*
G01*
G37*
G36*
G01*
X89428500Y-81980500D02*
X89768500Y-81980500D01*
G75*
G02*
X89908500Y-82120500I0J-140000D01*
G01*
X89908500Y-82400500D01*
G75*
G02*
X89768500Y-82540500I-140000J0D01*
G01*
X89428500Y-82540500D01*
G75*
G02*
X89288500Y-82400500I0J140000D01*
G01*
X89288500Y-82120500D01*
G75*
G02*
X89428500Y-81980500I140000J0D01*
G01*
G37*
%TD*%
%TO.C,C2*%
G36*
G01*
X99525000Y-80527500D02*
X99865000Y-80527500D01*
G75*
G02*
X100005000Y-80667500I0J-140000D01*
G01*
X100005000Y-80947500D01*
G75*
G02*
X99865000Y-81087500I-140000J0D01*
G01*
X99525000Y-81087500D01*
G75*
G02*
X99385000Y-80947500I0J140000D01*
G01*
X99385000Y-80667500D01*
G75*
G02*
X99525000Y-80527500I140000J0D01*
G01*
G37*
G36*
G01*
X99525000Y-79567500D02*
X99865000Y-79567500D01*
G75*
G02*
X100005000Y-79707500I0J-140000D01*
G01*
X100005000Y-79987500D01*
G75*
G02*
X99865000Y-80127500I-140000J0D01*
G01*
X99525000Y-80127500D01*
G75*
G02*
X99385000Y-79987500I0J140000D01*
G01*
X99385000Y-79707500D01*
G75*
G02*
X99525000Y-79567500I140000J0D01*
G01*
G37*
%TD*%
%TO.C,C1*%
G36*
G01*
X98382000Y-79575000D02*
X98722000Y-79575000D01*
G75*
G02*
X98862000Y-79715000I0J-140000D01*
G01*
X98862000Y-79995000D01*
G75*
G02*
X98722000Y-80135000I-140000J0D01*
G01*
X98382000Y-80135000D01*
G75*
G02*
X98242000Y-79995000I0J140000D01*
G01*
X98242000Y-79715000D01*
G75*
G02*
X98382000Y-79575000I140000J0D01*
G01*
G37*
G36*
G01*
X98382000Y-78615000D02*
X98722000Y-78615000D01*
G75*
G02*
X98862000Y-78755000I0J-140000D01*
G01*
X98862000Y-79035000D01*
G75*
G02*
X98722000Y-79175000I-140000J0D01*
G01*
X98382000Y-79175000D01*
G75*
G02*
X98242000Y-79035000I0J140000D01*
G01*
X98242000Y-78755000D01*
G75*
G02*
X98382000Y-78615000I140000J0D01*
G01*
G37*
%TD*%
M02*
