%TF.GenerationSoftware,KiCad,Pcbnew,5.1.9+dfsg1-1*%
%TF.CreationDate,2022-01-14T18:57:29-05:00*%
%TF.ProjectId,samd21g17d,73616d64-3231-4673-9137-642e6b696361,rev?*%
%TF.SameCoordinates,Original*%
%TF.FileFunction,Copper,L2,Bot*%
%TF.FilePolarity,Positive*%
%FSLAX46Y46*%
G04 Gerber Fmt 4.6, Leading zero omitted, Abs format (unit mm)*
G04 Created by KiCad (PCBNEW 5.1.9+dfsg1-1) date 2022-01-14 18:57:29*
%MOMM*%
%LPD*%
G01*
G04 APERTURE LIST*
%TA.AperFunction,ComponentPad*%
%ADD10O,1.000000X1.000000*%
%TD*%
%TA.AperFunction,ComponentPad*%
%ADD11R,1.000000X1.000000*%
%TD*%
%TA.AperFunction,ComponentPad*%
%ADD12O,1.700000X1.700000*%
%TD*%
%TA.AperFunction,ComponentPad*%
%ADD13R,1.700000X1.700000*%
%TD*%
%TA.AperFunction,ComponentPad*%
%ADD14O,1.800000X1.000000*%
%TD*%
%TA.AperFunction,ComponentPad*%
%ADD15O,2.100000X1.000000*%
%TD*%
%TA.AperFunction,ViaPad*%
%ADD16C,0.800000*%
%TD*%
%TA.AperFunction,Conductor*%
%ADD17C,0.250000*%
%TD*%
%TA.AperFunction,Conductor*%
%ADD18C,0.254000*%
%TD*%
%TA.AperFunction,Conductor*%
%ADD19C,0.100000*%
%TD*%
G04 APERTURE END LIST*
D10*
%TO.P,DEBUG,10*%
%TO.N,RESET*%
X124587000Y-87185500D03*
%TO.P,DEBUG,9*%
%TO.N,Net-(J4-Pad9)*%
X123317000Y-87185500D03*
%TO.P,DEBUG,8*%
%TO.N,Net-(J4-Pad8)*%
X124587000Y-85915500D03*
%TO.P,DEBUG,7*%
%TO.N,Net-(J4-Pad7)*%
X123317000Y-85915500D03*
%TO.P,DEBUG,6*%
%TO.N,Net-(J4-Pad6)*%
X124587000Y-84645500D03*
%TO.P,DEBUG,5*%
%TO.N,GND*%
X123317000Y-84645500D03*
%TO.P,DEBUG,4*%
%TO.N,SWCLK*%
X124587000Y-83375500D03*
%TO.P,DEBUG,3*%
%TO.N,GND*%
X123317000Y-83375500D03*
%TO.P,DEBUG,2*%
%TO.N,SWDIO*%
X124587000Y-82105500D03*
D11*
%TO.P,DEBUG,1*%
%TO.N,+3V3*%
X123317000Y-82105500D03*
%TD*%
D12*
%TO.P,J3,17*%
%TO.N,GND*%
X124460000Y-73660000D03*
%TO.P,J3,16*%
%TO.N,+3V3*%
X121920000Y-73660000D03*
%TO.P,J3,15*%
%TO.N,PA17*%
X119380000Y-73660000D03*
%TO.P,J3,14*%
%TO.N,PA18*%
X116840000Y-73660000D03*
%TO.P,J3,13*%
%TO.N,PA19*%
X114300000Y-73660000D03*
%TO.P,J3,12*%
%TO.N,PA20*%
X111760000Y-73660000D03*
%TO.P,J3,11*%
%TO.N,PA21*%
X109220000Y-73660000D03*
%TO.P,J3,10*%
%TO.N,PA22*%
X106680000Y-73660000D03*
%TO.P,J3,9*%
%TO.N,PA23*%
X104140000Y-73660000D03*
%TO.P,J3,8*%
%TO.N,PB22*%
X101600000Y-73660000D03*
%TO.P,J3,7*%
%TO.N,PB23*%
X99060000Y-73660000D03*
%TO.P,J3,6*%
%TO.N,PA27*%
X96520000Y-73660000D03*
%TO.P,J3,5*%
%TO.N,PA28*%
X93980000Y-73660000D03*
%TO.P,J3,4*%
%TO.N,PB02*%
X91440000Y-73660000D03*
%TO.P,J3,3*%
%TO.N,PB03*%
X88900000Y-73660000D03*
%TO.P,J3,2*%
%TO.N,PA02*%
X86360000Y-73660000D03*
D13*
%TO.P,J3,1*%
%TO.N,PA03*%
X83820000Y-73660000D03*
%TD*%
D12*
%TO.P,J2,17*%
%TO.N,PA16*%
X124460000Y-96520000D03*
%TO.P,J2,16*%
%TO.N,PA15*%
X121920000Y-96520000D03*
%TO.P,J2,15*%
%TO.N,PA14*%
X119380000Y-96520000D03*
%TO.P,J2,14*%
%TO.N,PA13*%
X116840000Y-96520000D03*
%TO.P,J2,13*%
%TO.N,PA12*%
X114300000Y-96520000D03*
%TO.P,J2,12*%
%TO.N,PB11*%
X111760000Y-96520000D03*
%TO.P,J2,11*%
%TO.N,PB10*%
X109220000Y-96520000D03*
%TO.P,J2,10*%
%TO.N,PA11*%
X106680000Y-96520000D03*
%TO.P,J2,9*%
%TO.N,PA10*%
X104140000Y-96520000D03*
%TO.P,J2,8*%
%TO.N,PA09*%
X101600000Y-96520000D03*
%TO.P,J2,7*%
%TO.N,PA08*%
X99060000Y-96520000D03*
%TO.P,J2,6*%
%TO.N,PA05*%
X96520000Y-96520000D03*
%TO.P,J2,5*%
%TO.N,PA07*%
X93980000Y-96520000D03*
%TO.P,J2,4*%
%TO.N,PA06*%
X91440000Y-96520000D03*
%TO.P,J2,3*%
%TO.N,PA04*%
X88900000Y-96520000D03*
%TO.P,J2,2*%
%TO.N,PB09*%
X86360000Y-96520000D03*
D13*
%TO.P,J2,1*%
%TO.N,PB08*%
X83820000Y-96520000D03*
%TD*%
D14*
%TO.P,J1,S1*%
%TO.N,GND*%
X81303000Y-89410000D03*
X81303000Y-80770000D03*
D15*
X85483000Y-80770000D03*
X85483000Y-89410000D03*
%TD*%
D16*
%TO.N,GND*%
X109220000Y-81280000D03*
X104902000Y-78168500D03*
X96647000Y-86487000D03*
X108204000Y-91948000D03*
X106041011Y-83950989D03*
X97155000Y-78803500D03*
X97688500Y-90195500D03*
%TO.N,+3V3*%
X114236500Y-80264000D03*
X106553000Y-86677500D03*
X121602500Y-82105500D03*
X99250500Y-83693000D03*
%TO.N,RESET*%
X120396000Y-77025500D03*
X112649000Y-79311500D03*
X95123000Y-88328500D03*
%TO.N,D+*%
X111696500Y-85407500D03*
X87847001Y-85815001D03*
%TO.N,D-*%
X111696500Y-84328000D03*
X84429999Y-84429999D03*
%TO.N,SWCLK*%
X106426000Y-82359500D03*
X120396000Y-79438500D03*
%TO.N,SWDIO*%
X106426000Y-81280000D03*
X121475500Y-79438500D03*
%TD*%
D17*
%TO.N,+3V3*%
X99250500Y-83693000D02*
X100774500Y-83693000D01*
X103759000Y-86677500D02*
X106553000Y-86677500D01*
X100774500Y-83693000D02*
X103759000Y-86677500D01*
X119761000Y-80264000D02*
X121602500Y-82105500D01*
X114236500Y-80264000D02*
X119761000Y-80264000D01*
%TO.N,RESET*%
X114935000Y-77025500D02*
X112649000Y-79311500D01*
X120396000Y-77025500D02*
X114935000Y-77025500D01*
X112649000Y-85654480D02*
X112649000Y-79311500D01*
X109974980Y-88328500D02*
X112649000Y-85654480D01*
X95123000Y-88328500D02*
X109974980Y-88328500D01*
%TO.N,D+*%
X87847001Y-85815001D02*
X90243993Y-83418009D01*
X99598501Y-84418001D02*
X99873492Y-84143010D01*
X98902499Y-84418001D02*
X99598501Y-84418001D01*
X97902507Y-83418009D02*
X98902499Y-84418001D01*
X90243993Y-83418009D02*
X97902507Y-83418009D01*
X107034499Y-87402501D02*
X108034491Y-86402509D01*
X103847591Y-87402501D02*
X107034499Y-87402501D01*
X100588100Y-84143010D02*
X103847591Y-87402501D01*
X99873492Y-84143010D02*
X100588100Y-84143010D01*
X110110410Y-85407500D02*
X111696500Y-85407500D01*
X109115401Y-86402509D02*
X110110410Y-85407500D01*
X108034491Y-86402509D02*
X109115401Y-86402509D01*
%TO.N,D-*%
X85891999Y-82967999D02*
X99598501Y-82967999D01*
X84429999Y-84429999D02*
X85891999Y-82967999D01*
X99873492Y-83242990D02*
X100960901Y-83242991D01*
X99598501Y-82967999D02*
X99873492Y-83242990D01*
X100960901Y-83242991D02*
X103945400Y-86227490D01*
X103945400Y-86227490D02*
X105930008Y-86227490D01*
X106204999Y-85952499D02*
X108929001Y-85952499D01*
X105930008Y-86227490D02*
X106204999Y-85952499D01*
X111067009Y-84957491D02*
X111696500Y-84328000D01*
X109924009Y-84957491D02*
X111067009Y-84957491D01*
X108929001Y-85952499D02*
X109924009Y-84957491D01*
%TO.N,SWCLK*%
X120396000Y-79438500D02*
X120396000Y-77978000D01*
X120047999Y-76300499D02*
X119773008Y-76575490D01*
X120744001Y-76300499D02*
X120047999Y-76300499D01*
X121121001Y-76677499D02*
X120744001Y-76300499D01*
X121121001Y-77373501D02*
X121121001Y-76677499D01*
X120744001Y-77750501D02*
X121121001Y-77373501D01*
X120623499Y-77750501D02*
X120744001Y-77750501D01*
X120396000Y-77978000D02*
X120623499Y-77750501D01*
X119773008Y-76575490D02*
X114748599Y-76575491D01*
X110199001Y-78586499D02*
X106426000Y-82359500D01*
X112737591Y-78586499D02*
X110199001Y-78586499D01*
X114748599Y-76575491D02*
X112737591Y-78586499D01*
%TO.N,SWDIO*%
X121571011Y-76491099D02*
X120930401Y-75850489D01*
X121571011Y-79342989D02*
X121571011Y-76491099D01*
X121475500Y-79438500D02*
X121571011Y-79342989D01*
X119581518Y-76125482D02*
X114562198Y-76125482D01*
X119856511Y-75850489D02*
X119581518Y-76125482D01*
X120930401Y-75850489D02*
X119856511Y-75850489D01*
X112551191Y-78136489D02*
X110012600Y-78136490D01*
X114562198Y-76125482D02*
X112551191Y-78136489D01*
X106869090Y-81280000D02*
X106426000Y-81280000D01*
X110012600Y-78136490D02*
X106869090Y-81280000D01*
%TD*%
D18*
%TO.N,GND*%
X82518815Y-72358815D02*
X82439463Y-72455506D01*
X82380498Y-72565820D01*
X82344188Y-72685518D01*
X82331928Y-72810000D01*
X82331928Y-74510000D01*
X82344188Y-74634482D01*
X82380498Y-74754180D01*
X82439463Y-74864494D01*
X82518815Y-74961185D01*
X82615506Y-75040537D01*
X82725820Y-75099502D01*
X82845518Y-75135812D01*
X82970000Y-75148072D01*
X84670000Y-75148072D01*
X84794482Y-75135812D01*
X84914180Y-75099502D01*
X85024494Y-75040537D01*
X85121185Y-74961185D01*
X85200537Y-74864494D01*
X85259502Y-74754180D01*
X85281513Y-74681620D01*
X85413368Y-74813475D01*
X85656589Y-74975990D01*
X85926842Y-75087932D01*
X86213740Y-75145000D01*
X86506260Y-75145000D01*
X86793158Y-75087932D01*
X87063411Y-74975990D01*
X87306632Y-74813475D01*
X87513475Y-74606632D01*
X87630000Y-74432240D01*
X87746525Y-74606632D01*
X87953368Y-74813475D01*
X88196589Y-74975990D01*
X88466842Y-75087932D01*
X88753740Y-75145000D01*
X89046260Y-75145000D01*
X89333158Y-75087932D01*
X89603411Y-74975990D01*
X89846632Y-74813475D01*
X90053475Y-74606632D01*
X90170000Y-74432240D01*
X90286525Y-74606632D01*
X90493368Y-74813475D01*
X90736589Y-74975990D01*
X91006842Y-75087932D01*
X91293740Y-75145000D01*
X91586260Y-75145000D01*
X91873158Y-75087932D01*
X92143411Y-74975990D01*
X92386632Y-74813475D01*
X92593475Y-74606632D01*
X92710000Y-74432240D01*
X92826525Y-74606632D01*
X93033368Y-74813475D01*
X93276589Y-74975990D01*
X93546842Y-75087932D01*
X93833740Y-75145000D01*
X94126260Y-75145000D01*
X94413158Y-75087932D01*
X94683411Y-74975990D01*
X94926632Y-74813475D01*
X95133475Y-74606632D01*
X95250000Y-74432240D01*
X95366525Y-74606632D01*
X95573368Y-74813475D01*
X95816589Y-74975990D01*
X96086842Y-75087932D01*
X96373740Y-75145000D01*
X96666260Y-75145000D01*
X96953158Y-75087932D01*
X97223411Y-74975990D01*
X97466632Y-74813475D01*
X97673475Y-74606632D01*
X97790000Y-74432240D01*
X97906525Y-74606632D01*
X98113368Y-74813475D01*
X98356589Y-74975990D01*
X98626842Y-75087932D01*
X98913740Y-75145000D01*
X99206260Y-75145000D01*
X99493158Y-75087932D01*
X99763411Y-74975990D01*
X100006632Y-74813475D01*
X100213475Y-74606632D01*
X100330000Y-74432240D01*
X100446525Y-74606632D01*
X100653368Y-74813475D01*
X100896589Y-74975990D01*
X101166842Y-75087932D01*
X101453740Y-75145000D01*
X101746260Y-75145000D01*
X102033158Y-75087932D01*
X102303411Y-74975990D01*
X102546632Y-74813475D01*
X102753475Y-74606632D01*
X102870000Y-74432240D01*
X102986525Y-74606632D01*
X103193368Y-74813475D01*
X103436589Y-74975990D01*
X103706842Y-75087932D01*
X103993740Y-75145000D01*
X104286260Y-75145000D01*
X104573158Y-75087932D01*
X104843411Y-74975990D01*
X105086632Y-74813475D01*
X105293475Y-74606632D01*
X105410000Y-74432240D01*
X105526525Y-74606632D01*
X105733368Y-74813475D01*
X105976589Y-74975990D01*
X106246842Y-75087932D01*
X106533740Y-75145000D01*
X106826260Y-75145000D01*
X107113158Y-75087932D01*
X107383411Y-74975990D01*
X107626632Y-74813475D01*
X107833475Y-74606632D01*
X107950000Y-74432240D01*
X108066525Y-74606632D01*
X108273368Y-74813475D01*
X108516589Y-74975990D01*
X108786842Y-75087932D01*
X109073740Y-75145000D01*
X109366260Y-75145000D01*
X109653158Y-75087932D01*
X109923411Y-74975990D01*
X110166632Y-74813475D01*
X110373475Y-74606632D01*
X110490000Y-74432240D01*
X110606525Y-74606632D01*
X110813368Y-74813475D01*
X111056589Y-74975990D01*
X111326842Y-75087932D01*
X111613740Y-75145000D01*
X111906260Y-75145000D01*
X112193158Y-75087932D01*
X112463411Y-74975990D01*
X112706632Y-74813475D01*
X112913475Y-74606632D01*
X113030000Y-74432240D01*
X113146525Y-74606632D01*
X113353368Y-74813475D01*
X113596589Y-74975990D01*
X113866842Y-75087932D01*
X114153740Y-75145000D01*
X114446260Y-75145000D01*
X114733158Y-75087932D01*
X115003411Y-74975990D01*
X115246632Y-74813475D01*
X115453475Y-74606632D01*
X115570000Y-74432240D01*
X115686525Y-74606632D01*
X115893368Y-74813475D01*
X116136589Y-74975990D01*
X116406842Y-75087932D01*
X116693740Y-75145000D01*
X116986260Y-75145000D01*
X117273158Y-75087932D01*
X117543411Y-74975990D01*
X117786632Y-74813475D01*
X117993475Y-74606632D01*
X118110000Y-74432240D01*
X118226525Y-74606632D01*
X118433368Y-74813475D01*
X118676589Y-74975990D01*
X118946842Y-75087932D01*
X119233740Y-75145000D01*
X119526260Y-75145000D01*
X119636108Y-75123150D01*
X119564264Y-75144943D01*
X119432235Y-75215515D01*
X119316510Y-75310488D01*
X119292707Y-75339492D01*
X119266717Y-75365482D01*
X114599520Y-75365482D01*
X114562197Y-75361806D01*
X114524874Y-75365482D01*
X114524865Y-75365482D01*
X114413212Y-75376479D01*
X114269951Y-75419936D01*
X114137922Y-75490508D01*
X114137920Y-75490509D01*
X114137921Y-75490509D01*
X114051194Y-75561683D01*
X114051190Y-75561687D01*
X114022197Y-75585481D01*
X113998403Y-75614474D01*
X112236389Y-77376489D01*
X110049931Y-77376491D01*
X110012599Y-77372814D01*
X109863613Y-77387488D01*
X109720353Y-77430945D01*
X109588323Y-77501517D01*
X109501596Y-77572691D01*
X109501586Y-77572701D01*
X109472599Y-77596490D01*
X109448810Y-77625477D01*
X106771468Y-80302821D01*
X106727898Y-80284774D01*
X106527939Y-80245000D01*
X106324061Y-80245000D01*
X106124102Y-80284774D01*
X105935744Y-80362795D01*
X105766226Y-80476063D01*
X105622063Y-80620226D01*
X105508795Y-80789744D01*
X105430774Y-80978102D01*
X105391000Y-81178061D01*
X105391000Y-81381939D01*
X105430774Y-81581898D01*
X105508795Y-81770256D01*
X105541866Y-81819750D01*
X105508795Y-81869244D01*
X105430774Y-82057602D01*
X105391000Y-82257561D01*
X105391000Y-82461439D01*
X105430774Y-82661398D01*
X105508795Y-82849756D01*
X105622063Y-83019274D01*
X105766226Y-83163437D01*
X105935744Y-83276705D01*
X106124102Y-83354726D01*
X106324061Y-83394500D01*
X106527939Y-83394500D01*
X106727898Y-83354726D01*
X106916256Y-83276705D01*
X107085774Y-83163437D01*
X107229937Y-83019274D01*
X107343205Y-82849756D01*
X107421226Y-82661398D01*
X107461000Y-82461439D01*
X107461000Y-82399301D01*
X110513803Y-79346499D01*
X111614000Y-79346499D01*
X111614000Y-79413439D01*
X111653774Y-79613398D01*
X111731795Y-79801756D01*
X111845063Y-79971274D01*
X111889001Y-80015212D01*
X111889000Y-83311014D01*
X111798439Y-83293000D01*
X111594561Y-83293000D01*
X111394602Y-83332774D01*
X111206244Y-83410795D01*
X111036726Y-83524063D01*
X110892563Y-83668226D01*
X110779295Y-83837744D01*
X110701274Y-84026102D01*
X110667183Y-84197491D01*
X109961332Y-84197491D01*
X109924009Y-84193815D01*
X109886686Y-84197491D01*
X109886676Y-84197491D01*
X109775023Y-84208488D01*
X109631762Y-84251945D01*
X109499733Y-84322517D01*
X109384008Y-84417490D01*
X109360210Y-84446488D01*
X108614200Y-85192499D01*
X106242321Y-85192499D01*
X106204998Y-85188823D01*
X106167676Y-85192499D01*
X106167666Y-85192499D01*
X106056013Y-85203496D01*
X105912752Y-85246953D01*
X105780723Y-85317525D01*
X105664998Y-85412498D01*
X105641195Y-85441502D01*
X105615207Y-85467490D01*
X104260202Y-85467490D01*
X101524699Y-82731988D01*
X101500902Y-82702991D01*
X101471903Y-82679192D01*
X101385177Y-82608017D01*
X101253147Y-82537445D01*
X101153343Y-82507171D01*
X101109887Y-82493989D01*
X100998234Y-82482992D01*
X100960901Y-82479315D01*
X100923570Y-82482992D01*
X100188294Y-82482991D01*
X100162305Y-82457002D01*
X100138502Y-82427998D01*
X100022777Y-82333025D01*
X99890748Y-82262453D01*
X99747487Y-82218996D01*
X99635834Y-82207999D01*
X99635823Y-82207999D01*
X99598501Y-82204323D01*
X99561179Y-82207999D01*
X85943000Y-82207999D01*
X85943000Y-82105448D01*
X85906108Y-81919978D01*
X85899904Y-81905000D01*
X86160000Y-81905000D01*
X86378987Y-81858415D01*
X86584678Y-81770003D01*
X86769169Y-81643161D01*
X86925369Y-81482764D01*
X87047276Y-81294976D01*
X87127119Y-81071874D01*
X87000954Y-80897000D01*
X85610000Y-80897000D01*
X85610000Y-80917000D01*
X85356000Y-80917000D01*
X85356000Y-80897000D01*
X83965046Y-80897000D01*
X83838881Y-81071874D01*
X83918724Y-81294976D01*
X84040631Y-81482764D01*
X84196831Y-81643161D01*
X84199335Y-81644883D01*
X84132259Y-81745269D01*
X84059892Y-81919978D01*
X84023000Y-82105448D01*
X84023000Y-82294552D01*
X84059892Y-82480022D01*
X84132259Y-82654731D01*
X84237319Y-82811964D01*
X84371036Y-82945681D01*
X84528269Y-83050741D01*
X84674065Y-83111132D01*
X84390198Y-83394999D01*
X84328060Y-83394999D01*
X84128101Y-83434773D01*
X83939743Y-83512794D01*
X83770225Y-83626062D01*
X83626062Y-83770225D01*
X83512794Y-83939743D01*
X83434773Y-84128101D01*
X83394999Y-84328060D01*
X83394999Y-84531938D01*
X83434773Y-84731897D01*
X83512794Y-84920255D01*
X83626062Y-85089773D01*
X83770225Y-85233936D01*
X83939743Y-85347204D01*
X84128101Y-85425225D01*
X84328060Y-85464999D01*
X84531938Y-85464999D01*
X84731897Y-85425225D01*
X84920255Y-85347204D01*
X85089773Y-85233936D01*
X85233936Y-85089773D01*
X85347204Y-84920255D01*
X85425225Y-84731897D01*
X85464999Y-84531938D01*
X85464999Y-84469800D01*
X86206801Y-83727999D01*
X88859201Y-83727999D01*
X87807200Y-84780001D01*
X87745062Y-84780001D01*
X87545103Y-84819775D01*
X87356745Y-84897796D01*
X87187227Y-85011064D01*
X87043064Y-85155227D01*
X86929796Y-85324745D01*
X86851775Y-85513103D01*
X86812001Y-85713062D01*
X86812001Y-85916940D01*
X86851775Y-86116899D01*
X86929796Y-86305257D01*
X87043064Y-86474775D01*
X87187227Y-86618938D01*
X87356745Y-86732206D01*
X87545103Y-86810227D01*
X87745062Y-86850001D01*
X87948940Y-86850001D01*
X88148899Y-86810227D01*
X88337257Y-86732206D01*
X88506775Y-86618938D01*
X88650938Y-86474775D01*
X88764206Y-86305257D01*
X88842227Y-86116899D01*
X88882001Y-85916940D01*
X88882001Y-85854802D01*
X90558795Y-84178009D01*
X97587706Y-84178009D01*
X98338700Y-84929004D01*
X98362498Y-84958002D01*
X98478223Y-85052975D01*
X98610252Y-85123547D01*
X98753513Y-85167004D01*
X98865166Y-85178001D01*
X98865175Y-85178001D01*
X98902498Y-85181677D01*
X98939821Y-85178001D01*
X99561179Y-85178001D01*
X99598501Y-85181677D01*
X99635823Y-85178001D01*
X99635834Y-85178001D01*
X99747487Y-85167004D01*
X99890748Y-85123547D01*
X100022777Y-85052975D01*
X100138502Y-84958002D01*
X100162305Y-84928998D01*
X100188293Y-84903010D01*
X100273299Y-84903010D01*
X102938787Y-87568500D01*
X95826711Y-87568500D01*
X95782774Y-87524563D01*
X95613256Y-87411295D01*
X95424898Y-87333274D01*
X95224939Y-87293500D01*
X95021061Y-87293500D01*
X94821102Y-87333274D01*
X94632744Y-87411295D01*
X94463226Y-87524563D01*
X94319063Y-87668726D01*
X94205795Y-87838244D01*
X94127774Y-88026602D01*
X94088000Y-88226561D01*
X94088000Y-88430439D01*
X94127774Y-88630398D01*
X94205795Y-88818756D01*
X94319063Y-88988274D01*
X94463226Y-89132437D01*
X94632744Y-89245705D01*
X94821102Y-89323726D01*
X95021061Y-89363500D01*
X95224939Y-89363500D01*
X95424898Y-89323726D01*
X95613256Y-89245705D01*
X95782774Y-89132437D01*
X95826711Y-89088500D01*
X109937658Y-89088500D01*
X109974980Y-89092176D01*
X110012302Y-89088500D01*
X110012313Y-89088500D01*
X110123966Y-89077503D01*
X110267227Y-89034046D01*
X110399256Y-88963474D01*
X110514981Y-88868501D01*
X110538784Y-88839497D01*
X113160004Y-86218278D01*
X113189001Y-86194481D01*
X113283974Y-86078756D01*
X113354546Y-85946727D01*
X113398003Y-85803466D01*
X113409000Y-85691813D01*
X113409000Y-85691804D01*
X113412676Y-85654481D01*
X113409000Y-85617158D01*
X113409000Y-83677374D01*
X122222881Y-83677374D01*
X122239554Y-83732364D01*
X122329877Y-83935706D01*
X122382639Y-84010500D01*
X122329877Y-84085294D01*
X122239554Y-84288636D01*
X122222881Y-84343626D01*
X122349046Y-84518500D01*
X123190000Y-84518500D01*
X123190000Y-83502500D01*
X122349046Y-83502500D01*
X122222881Y-83677374D01*
X113409000Y-83677374D01*
X113409000Y-80888509D01*
X113432563Y-80923774D01*
X113576726Y-81067937D01*
X113746244Y-81181205D01*
X113934602Y-81259226D01*
X114134561Y-81299000D01*
X114338439Y-81299000D01*
X114538398Y-81259226D01*
X114726756Y-81181205D01*
X114896274Y-81067937D01*
X114940211Y-81024000D01*
X119446199Y-81024000D01*
X120567500Y-82145302D01*
X120567500Y-82207439D01*
X120607274Y-82407398D01*
X120685295Y-82595756D01*
X120798563Y-82765274D01*
X120942726Y-82909437D01*
X121112244Y-83022705D01*
X121300602Y-83100726D01*
X121500561Y-83140500D01*
X121704439Y-83140500D01*
X121904398Y-83100726D01*
X122092756Y-83022705D01*
X122260185Y-82910833D01*
X122275070Y-82938680D01*
X122239554Y-83018636D01*
X122222881Y-83073626D01*
X122349046Y-83248500D01*
X123190000Y-83248500D01*
X123190000Y-83243572D01*
X123444000Y-83243572D01*
X123444000Y-83248500D01*
X123455026Y-83248500D01*
X123452000Y-83263712D01*
X123452000Y-83487288D01*
X123455026Y-83502500D01*
X123444000Y-83502500D01*
X123444000Y-84518500D01*
X123455026Y-84518500D01*
X123452000Y-84533712D01*
X123452000Y-84757288D01*
X123455026Y-84772500D01*
X123444000Y-84772500D01*
X123444000Y-84783526D01*
X123428788Y-84780500D01*
X123205212Y-84780500D01*
X123190000Y-84783526D01*
X123190000Y-84772500D01*
X122349046Y-84772500D01*
X122222881Y-84947374D01*
X122239554Y-85002364D01*
X122329877Y-85205706D01*
X122379353Y-85275842D01*
X122311176Y-85377876D01*
X122225617Y-85584433D01*
X122182000Y-85803712D01*
X122182000Y-86027288D01*
X122225617Y-86246567D01*
X122311176Y-86453124D01*
X122376241Y-86550500D01*
X122311176Y-86647876D01*
X122225617Y-86854433D01*
X122182000Y-87073712D01*
X122182000Y-87297288D01*
X122225617Y-87516567D01*
X122311176Y-87723124D01*
X122435388Y-87909020D01*
X122593480Y-88067112D01*
X122779376Y-88191324D01*
X122985933Y-88276883D01*
X123205212Y-88320500D01*
X123428788Y-88320500D01*
X123648067Y-88276883D01*
X123854624Y-88191324D01*
X123952000Y-88126259D01*
X124049376Y-88191324D01*
X124255933Y-88276883D01*
X124475212Y-88320500D01*
X124698788Y-88320500D01*
X124918067Y-88276883D01*
X125124624Y-88191324D01*
X125310520Y-88067112D01*
X125468612Y-87909020D01*
X125592824Y-87723124D01*
X125678383Y-87516567D01*
X125722000Y-87297288D01*
X125722000Y-87073712D01*
X125678383Y-86854433D01*
X125592824Y-86647876D01*
X125527759Y-86550500D01*
X125592824Y-86453124D01*
X125678383Y-86246567D01*
X125722000Y-86027288D01*
X125722000Y-85803712D01*
X125678383Y-85584433D01*
X125592824Y-85377876D01*
X125527759Y-85280500D01*
X125592824Y-85183124D01*
X125678383Y-84976567D01*
X125722000Y-84757288D01*
X125722000Y-84533712D01*
X125678383Y-84314433D01*
X125592824Y-84107876D01*
X125527759Y-84010500D01*
X125592824Y-83913124D01*
X125678383Y-83706567D01*
X125722000Y-83487288D01*
X125722000Y-83263712D01*
X125678383Y-83044433D01*
X125592824Y-82837876D01*
X125527759Y-82740500D01*
X125592824Y-82643124D01*
X125678383Y-82436567D01*
X125722000Y-82217288D01*
X125722000Y-81993712D01*
X125678383Y-81774433D01*
X125592824Y-81567876D01*
X125468612Y-81381980D01*
X125310520Y-81223888D01*
X125124624Y-81099676D01*
X124918067Y-81014117D01*
X124698788Y-80970500D01*
X124475212Y-80970500D01*
X124255933Y-81014117D01*
X124144226Y-81060388D01*
X124061180Y-81015998D01*
X123941482Y-80979688D01*
X123817000Y-80967428D01*
X122817000Y-80967428D01*
X122692518Y-80979688D01*
X122572820Y-81015998D01*
X122462506Y-81074963D01*
X122365815Y-81154315D01*
X122286463Y-81251006D01*
X122260185Y-81300167D01*
X122092756Y-81188295D01*
X121904398Y-81110274D01*
X121704439Y-81070500D01*
X121642302Y-81070500D01*
X120910984Y-80339182D01*
X120935750Y-80322634D01*
X120985244Y-80355705D01*
X121173602Y-80433726D01*
X121373561Y-80473500D01*
X121577439Y-80473500D01*
X121777398Y-80433726D01*
X121965756Y-80355705D01*
X122135274Y-80242437D01*
X122279437Y-80098274D01*
X122392705Y-79928756D01*
X122470726Y-79740398D01*
X122510500Y-79540439D01*
X122510500Y-79336561D01*
X122470726Y-79136602D01*
X122392705Y-78948244D01*
X122331011Y-78855912D01*
X122331011Y-76528421D01*
X122334687Y-76491098D01*
X122331011Y-76453775D01*
X122331011Y-76453766D01*
X122320014Y-76342113D01*
X122276557Y-76198852D01*
X122205985Y-76066823D01*
X122111012Y-75951098D01*
X122082013Y-75927299D01*
X121494204Y-75339491D01*
X121470402Y-75310488D01*
X121354677Y-75215515D01*
X121222648Y-75144943D01*
X121079387Y-75101486D01*
X120967734Y-75090489D01*
X120967723Y-75090489D01*
X120930401Y-75086813D01*
X120893079Y-75090489D01*
X119893834Y-75090489D01*
X119856511Y-75086813D01*
X119819188Y-75090489D01*
X119819178Y-75090489D01*
X119781791Y-75094171D01*
X119813158Y-75087932D01*
X120083411Y-74975990D01*
X120326632Y-74813475D01*
X120533475Y-74606632D01*
X120650000Y-74432240D01*
X120766525Y-74606632D01*
X120973368Y-74813475D01*
X121216589Y-74975990D01*
X121486842Y-75087932D01*
X121773740Y-75145000D01*
X122066260Y-75145000D01*
X122353158Y-75087932D01*
X122623411Y-74975990D01*
X122866632Y-74813475D01*
X123073475Y-74606632D01*
X123195195Y-74424466D01*
X123264822Y-74541355D01*
X123459731Y-74757588D01*
X123693080Y-74931641D01*
X123955901Y-75056825D01*
X124103110Y-75101476D01*
X124333000Y-74980155D01*
X124333000Y-73787000D01*
X124313000Y-73787000D01*
X124313000Y-73533000D01*
X124333000Y-73533000D01*
X124333000Y-73513000D01*
X124587000Y-73513000D01*
X124587000Y-73533000D01*
X124607000Y-73533000D01*
X124607000Y-73787000D01*
X124587000Y-73787000D01*
X124587000Y-74980155D01*
X124816890Y-75101476D01*
X124964099Y-75056825D01*
X125226920Y-74931641D01*
X125460269Y-74757588D01*
X125655178Y-74541355D01*
X125804157Y-74291252D01*
X125832001Y-74212759D01*
X125832000Y-95951810D01*
X125775990Y-95816589D01*
X125613475Y-95573368D01*
X125406632Y-95366525D01*
X125163411Y-95204010D01*
X124893158Y-95092068D01*
X124606260Y-95035000D01*
X124313740Y-95035000D01*
X124026842Y-95092068D01*
X123756589Y-95204010D01*
X123513368Y-95366525D01*
X123306525Y-95573368D01*
X123190000Y-95747760D01*
X123073475Y-95573368D01*
X122866632Y-95366525D01*
X122623411Y-95204010D01*
X122353158Y-95092068D01*
X122066260Y-95035000D01*
X121773740Y-95035000D01*
X121486842Y-95092068D01*
X121216589Y-95204010D01*
X120973368Y-95366525D01*
X120766525Y-95573368D01*
X120650000Y-95747760D01*
X120533475Y-95573368D01*
X120326632Y-95366525D01*
X120083411Y-95204010D01*
X119813158Y-95092068D01*
X119526260Y-95035000D01*
X119233740Y-95035000D01*
X118946842Y-95092068D01*
X118676589Y-95204010D01*
X118433368Y-95366525D01*
X118226525Y-95573368D01*
X118110000Y-95747760D01*
X117993475Y-95573368D01*
X117786632Y-95366525D01*
X117543411Y-95204010D01*
X117273158Y-95092068D01*
X116986260Y-95035000D01*
X116693740Y-95035000D01*
X116406842Y-95092068D01*
X116136589Y-95204010D01*
X115893368Y-95366525D01*
X115686525Y-95573368D01*
X115570000Y-95747760D01*
X115453475Y-95573368D01*
X115246632Y-95366525D01*
X115003411Y-95204010D01*
X114733158Y-95092068D01*
X114446260Y-95035000D01*
X114153740Y-95035000D01*
X113866842Y-95092068D01*
X113596589Y-95204010D01*
X113353368Y-95366525D01*
X113146525Y-95573368D01*
X113030000Y-95747760D01*
X112913475Y-95573368D01*
X112706632Y-95366525D01*
X112463411Y-95204010D01*
X112193158Y-95092068D01*
X111906260Y-95035000D01*
X111613740Y-95035000D01*
X111326842Y-95092068D01*
X111056589Y-95204010D01*
X110813368Y-95366525D01*
X110606525Y-95573368D01*
X110490000Y-95747760D01*
X110373475Y-95573368D01*
X110166632Y-95366525D01*
X109923411Y-95204010D01*
X109653158Y-95092068D01*
X109366260Y-95035000D01*
X109073740Y-95035000D01*
X108786842Y-95092068D01*
X108516589Y-95204010D01*
X108273368Y-95366525D01*
X108066525Y-95573368D01*
X107950000Y-95747760D01*
X107833475Y-95573368D01*
X107626632Y-95366525D01*
X107383411Y-95204010D01*
X107113158Y-95092068D01*
X106826260Y-95035000D01*
X106533740Y-95035000D01*
X106246842Y-95092068D01*
X105976589Y-95204010D01*
X105733368Y-95366525D01*
X105526525Y-95573368D01*
X105410000Y-95747760D01*
X105293475Y-95573368D01*
X105086632Y-95366525D01*
X104843411Y-95204010D01*
X104573158Y-95092068D01*
X104286260Y-95035000D01*
X103993740Y-95035000D01*
X103706842Y-95092068D01*
X103436589Y-95204010D01*
X103193368Y-95366525D01*
X102986525Y-95573368D01*
X102870000Y-95747760D01*
X102753475Y-95573368D01*
X102546632Y-95366525D01*
X102303411Y-95204010D01*
X102033158Y-95092068D01*
X101746260Y-95035000D01*
X101453740Y-95035000D01*
X101166842Y-95092068D01*
X100896589Y-95204010D01*
X100653368Y-95366525D01*
X100446525Y-95573368D01*
X100330000Y-95747760D01*
X100213475Y-95573368D01*
X100006632Y-95366525D01*
X99763411Y-95204010D01*
X99493158Y-95092068D01*
X99206260Y-95035000D01*
X98913740Y-95035000D01*
X98626842Y-95092068D01*
X98356589Y-95204010D01*
X98113368Y-95366525D01*
X97906525Y-95573368D01*
X97790000Y-95747760D01*
X97673475Y-95573368D01*
X97466632Y-95366525D01*
X97223411Y-95204010D01*
X96953158Y-95092068D01*
X96666260Y-95035000D01*
X96373740Y-95035000D01*
X96086842Y-95092068D01*
X95816589Y-95204010D01*
X95573368Y-95366525D01*
X95366525Y-95573368D01*
X95250000Y-95747760D01*
X95133475Y-95573368D01*
X94926632Y-95366525D01*
X94683411Y-95204010D01*
X94413158Y-95092068D01*
X94126260Y-95035000D01*
X93833740Y-95035000D01*
X93546842Y-95092068D01*
X93276589Y-95204010D01*
X93033368Y-95366525D01*
X92826525Y-95573368D01*
X92710000Y-95747760D01*
X92593475Y-95573368D01*
X92386632Y-95366525D01*
X92143411Y-95204010D01*
X91873158Y-95092068D01*
X91586260Y-95035000D01*
X91293740Y-95035000D01*
X91006842Y-95092068D01*
X90736589Y-95204010D01*
X90493368Y-95366525D01*
X90286525Y-95573368D01*
X90170000Y-95747760D01*
X90053475Y-95573368D01*
X89846632Y-95366525D01*
X89603411Y-95204010D01*
X89333158Y-95092068D01*
X89046260Y-95035000D01*
X88753740Y-95035000D01*
X88466842Y-95092068D01*
X88196589Y-95204010D01*
X87953368Y-95366525D01*
X87746525Y-95573368D01*
X87630000Y-95747760D01*
X87513475Y-95573368D01*
X87306632Y-95366525D01*
X87063411Y-95204010D01*
X86793158Y-95092068D01*
X86506260Y-95035000D01*
X86213740Y-95035000D01*
X85926842Y-95092068D01*
X85656589Y-95204010D01*
X85413368Y-95366525D01*
X85281513Y-95498380D01*
X85259502Y-95425820D01*
X85200537Y-95315506D01*
X85121185Y-95218815D01*
X85024494Y-95139463D01*
X84914180Y-95080498D01*
X84794482Y-95044188D01*
X84670000Y-95031928D01*
X82970000Y-95031928D01*
X82845518Y-95044188D01*
X82725820Y-95080498D01*
X82615506Y-95139463D01*
X82518815Y-95218815D01*
X82439463Y-95315506D01*
X82380498Y-95425820D01*
X82344188Y-95545518D01*
X82331928Y-95670000D01*
X82331928Y-97370000D01*
X82344188Y-97494482D01*
X82380498Y-97614180D01*
X82439463Y-97724494D01*
X82518815Y-97821185D01*
X82605104Y-97892000D01*
X80670000Y-97892000D01*
X80670000Y-90522451D01*
X80776000Y-90545000D01*
X81176000Y-90545000D01*
X81176000Y-89537000D01*
X81430000Y-89537000D01*
X81430000Y-90545000D01*
X81830000Y-90545000D01*
X82048987Y-90498415D01*
X82254678Y-90410003D01*
X82439169Y-90283161D01*
X82595369Y-90122764D01*
X82717276Y-89934976D01*
X82797119Y-89711874D01*
X83838881Y-89711874D01*
X83918724Y-89934976D01*
X84040631Y-90122764D01*
X84196831Y-90283161D01*
X84381322Y-90410003D01*
X84587013Y-90498415D01*
X84806000Y-90545000D01*
X85356000Y-90545000D01*
X85356000Y-89537000D01*
X85610000Y-89537000D01*
X85610000Y-90545000D01*
X86160000Y-90545000D01*
X86378987Y-90498415D01*
X86584678Y-90410003D01*
X86769169Y-90283161D01*
X86925369Y-90122764D01*
X87047276Y-89934976D01*
X87127119Y-89711874D01*
X87000954Y-89537000D01*
X85610000Y-89537000D01*
X85356000Y-89537000D01*
X83965046Y-89537000D01*
X83838881Y-89711874D01*
X82797119Y-89711874D01*
X82670954Y-89537000D01*
X81430000Y-89537000D01*
X81176000Y-89537000D01*
X81156000Y-89537000D01*
X81156000Y-89283000D01*
X81176000Y-89283000D01*
X81176000Y-88275000D01*
X81430000Y-88275000D01*
X81430000Y-89283000D01*
X82670954Y-89283000D01*
X82797119Y-89108126D01*
X83838881Y-89108126D01*
X83965046Y-89283000D01*
X85356000Y-89283000D01*
X85356000Y-89263000D01*
X85610000Y-89263000D01*
X85610000Y-89283000D01*
X87000954Y-89283000D01*
X87127119Y-89108126D01*
X87047276Y-88885024D01*
X86925369Y-88697236D01*
X86769169Y-88536839D01*
X86584678Y-88409997D01*
X86378987Y-88321585D01*
X86160000Y-88275000D01*
X85899904Y-88275000D01*
X85906108Y-88260022D01*
X85943000Y-88074552D01*
X85943000Y-87885448D01*
X85906108Y-87699978D01*
X85833741Y-87525269D01*
X85728681Y-87368036D01*
X85594964Y-87234319D01*
X85437731Y-87129259D01*
X85263022Y-87056892D01*
X85077552Y-87020000D01*
X84888448Y-87020000D01*
X84702978Y-87056892D01*
X84528269Y-87129259D01*
X84371036Y-87234319D01*
X84237319Y-87368036D01*
X84132259Y-87525269D01*
X84059892Y-87699978D01*
X84023000Y-87885448D01*
X84023000Y-88074552D01*
X84059892Y-88260022D01*
X84132259Y-88434731D01*
X84199335Y-88535117D01*
X84196831Y-88536839D01*
X84040631Y-88697236D01*
X83918724Y-88885024D01*
X83838881Y-89108126D01*
X82797119Y-89108126D01*
X82717276Y-88885024D01*
X82595369Y-88697236D01*
X82439169Y-88536839D01*
X82254678Y-88409997D01*
X82048987Y-88321585D01*
X81830000Y-88275000D01*
X81430000Y-88275000D01*
X81176000Y-88275000D01*
X80776000Y-88275000D01*
X80670000Y-88297549D01*
X80670000Y-81882451D01*
X80776000Y-81905000D01*
X81176000Y-81905000D01*
X81176000Y-80897000D01*
X81430000Y-80897000D01*
X81430000Y-81905000D01*
X81830000Y-81905000D01*
X82048987Y-81858415D01*
X82254678Y-81770003D01*
X82439169Y-81643161D01*
X82595369Y-81482764D01*
X82717276Y-81294976D01*
X82797119Y-81071874D01*
X82670954Y-80897000D01*
X81430000Y-80897000D01*
X81176000Y-80897000D01*
X81156000Y-80897000D01*
X81156000Y-80643000D01*
X81176000Y-80643000D01*
X81176000Y-79635000D01*
X81430000Y-79635000D01*
X81430000Y-80643000D01*
X82670954Y-80643000D01*
X82797119Y-80468126D01*
X83838881Y-80468126D01*
X83965046Y-80643000D01*
X85356000Y-80643000D01*
X85356000Y-79635000D01*
X85610000Y-79635000D01*
X85610000Y-80643000D01*
X87000954Y-80643000D01*
X87127119Y-80468126D01*
X87047276Y-80245024D01*
X86925369Y-80057236D01*
X86769169Y-79896839D01*
X86584678Y-79769997D01*
X86378987Y-79681585D01*
X86160000Y-79635000D01*
X85610000Y-79635000D01*
X85356000Y-79635000D01*
X84806000Y-79635000D01*
X84587013Y-79681585D01*
X84381322Y-79769997D01*
X84196831Y-79896839D01*
X84040631Y-80057236D01*
X83918724Y-80245024D01*
X83838881Y-80468126D01*
X82797119Y-80468126D01*
X82717276Y-80245024D01*
X82595369Y-80057236D01*
X82439169Y-79896839D01*
X82254678Y-79769997D01*
X82048987Y-79681585D01*
X81830000Y-79635000D01*
X81430000Y-79635000D01*
X81176000Y-79635000D01*
X80776000Y-79635000D01*
X80670000Y-79657549D01*
X80670000Y-72288000D01*
X82605104Y-72288000D01*
X82518815Y-72358815D01*
%TA.AperFunction,Conductor*%
D19*
G36*
X82518815Y-72358815D02*
G01*
X82439463Y-72455506D01*
X82380498Y-72565820D01*
X82344188Y-72685518D01*
X82331928Y-72810000D01*
X82331928Y-74510000D01*
X82344188Y-74634482D01*
X82380498Y-74754180D01*
X82439463Y-74864494D01*
X82518815Y-74961185D01*
X82615506Y-75040537D01*
X82725820Y-75099502D01*
X82845518Y-75135812D01*
X82970000Y-75148072D01*
X84670000Y-75148072D01*
X84794482Y-75135812D01*
X84914180Y-75099502D01*
X85024494Y-75040537D01*
X85121185Y-74961185D01*
X85200537Y-74864494D01*
X85259502Y-74754180D01*
X85281513Y-74681620D01*
X85413368Y-74813475D01*
X85656589Y-74975990D01*
X85926842Y-75087932D01*
X86213740Y-75145000D01*
X86506260Y-75145000D01*
X86793158Y-75087932D01*
X87063411Y-74975990D01*
X87306632Y-74813475D01*
X87513475Y-74606632D01*
X87630000Y-74432240D01*
X87746525Y-74606632D01*
X87953368Y-74813475D01*
X88196589Y-74975990D01*
X88466842Y-75087932D01*
X88753740Y-75145000D01*
X89046260Y-75145000D01*
X89333158Y-75087932D01*
X89603411Y-74975990D01*
X89846632Y-74813475D01*
X90053475Y-74606632D01*
X90170000Y-74432240D01*
X90286525Y-74606632D01*
X90493368Y-74813475D01*
X90736589Y-74975990D01*
X91006842Y-75087932D01*
X91293740Y-75145000D01*
X91586260Y-75145000D01*
X91873158Y-75087932D01*
X92143411Y-74975990D01*
X92386632Y-74813475D01*
X92593475Y-74606632D01*
X92710000Y-74432240D01*
X92826525Y-74606632D01*
X93033368Y-74813475D01*
X93276589Y-74975990D01*
X93546842Y-75087932D01*
X93833740Y-75145000D01*
X94126260Y-75145000D01*
X94413158Y-75087932D01*
X94683411Y-74975990D01*
X94926632Y-74813475D01*
X95133475Y-74606632D01*
X95250000Y-74432240D01*
X95366525Y-74606632D01*
X95573368Y-74813475D01*
X95816589Y-74975990D01*
X96086842Y-75087932D01*
X96373740Y-75145000D01*
X96666260Y-75145000D01*
X96953158Y-75087932D01*
X97223411Y-74975990D01*
X97466632Y-74813475D01*
X97673475Y-74606632D01*
X97790000Y-74432240D01*
X97906525Y-74606632D01*
X98113368Y-74813475D01*
X98356589Y-74975990D01*
X98626842Y-75087932D01*
X98913740Y-75145000D01*
X99206260Y-75145000D01*
X99493158Y-75087932D01*
X99763411Y-74975990D01*
X100006632Y-74813475D01*
X100213475Y-74606632D01*
X100330000Y-74432240D01*
X100446525Y-74606632D01*
X100653368Y-74813475D01*
X100896589Y-74975990D01*
X101166842Y-75087932D01*
X101453740Y-75145000D01*
X101746260Y-75145000D01*
X102033158Y-75087932D01*
X102303411Y-74975990D01*
X102546632Y-74813475D01*
X102753475Y-74606632D01*
X102870000Y-74432240D01*
X102986525Y-74606632D01*
X103193368Y-74813475D01*
X103436589Y-74975990D01*
X103706842Y-75087932D01*
X103993740Y-75145000D01*
X104286260Y-75145000D01*
X104573158Y-75087932D01*
X104843411Y-74975990D01*
X105086632Y-74813475D01*
X105293475Y-74606632D01*
X105410000Y-74432240D01*
X105526525Y-74606632D01*
X105733368Y-74813475D01*
X105976589Y-74975990D01*
X106246842Y-75087932D01*
X106533740Y-75145000D01*
X106826260Y-75145000D01*
X107113158Y-75087932D01*
X107383411Y-74975990D01*
X107626632Y-74813475D01*
X107833475Y-74606632D01*
X107950000Y-74432240D01*
X108066525Y-74606632D01*
X108273368Y-74813475D01*
X108516589Y-74975990D01*
X108786842Y-75087932D01*
X109073740Y-75145000D01*
X109366260Y-75145000D01*
X109653158Y-75087932D01*
X109923411Y-74975990D01*
X110166632Y-74813475D01*
X110373475Y-74606632D01*
X110490000Y-74432240D01*
X110606525Y-74606632D01*
X110813368Y-74813475D01*
X111056589Y-74975990D01*
X111326842Y-75087932D01*
X111613740Y-75145000D01*
X111906260Y-75145000D01*
X112193158Y-75087932D01*
X112463411Y-74975990D01*
X112706632Y-74813475D01*
X112913475Y-74606632D01*
X113030000Y-74432240D01*
X113146525Y-74606632D01*
X113353368Y-74813475D01*
X113596589Y-74975990D01*
X113866842Y-75087932D01*
X114153740Y-75145000D01*
X114446260Y-75145000D01*
X114733158Y-75087932D01*
X115003411Y-74975990D01*
X115246632Y-74813475D01*
X115453475Y-74606632D01*
X115570000Y-74432240D01*
X115686525Y-74606632D01*
X115893368Y-74813475D01*
X116136589Y-74975990D01*
X116406842Y-75087932D01*
X116693740Y-75145000D01*
X116986260Y-75145000D01*
X117273158Y-75087932D01*
X117543411Y-74975990D01*
X117786632Y-74813475D01*
X117993475Y-74606632D01*
X118110000Y-74432240D01*
X118226525Y-74606632D01*
X118433368Y-74813475D01*
X118676589Y-74975990D01*
X118946842Y-75087932D01*
X119233740Y-75145000D01*
X119526260Y-75145000D01*
X119636108Y-75123150D01*
X119564264Y-75144943D01*
X119432235Y-75215515D01*
X119316510Y-75310488D01*
X119292707Y-75339492D01*
X119266717Y-75365482D01*
X114599520Y-75365482D01*
X114562197Y-75361806D01*
X114524874Y-75365482D01*
X114524865Y-75365482D01*
X114413212Y-75376479D01*
X114269951Y-75419936D01*
X114137922Y-75490508D01*
X114137920Y-75490509D01*
X114137921Y-75490509D01*
X114051194Y-75561683D01*
X114051190Y-75561687D01*
X114022197Y-75585481D01*
X113998403Y-75614474D01*
X112236389Y-77376489D01*
X110049931Y-77376491D01*
X110012599Y-77372814D01*
X109863613Y-77387488D01*
X109720353Y-77430945D01*
X109588323Y-77501517D01*
X109501596Y-77572691D01*
X109501586Y-77572701D01*
X109472599Y-77596490D01*
X109448810Y-77625477D01*
X106771468Y-80302821D01*
X106727898Y-80284774D01*
X106527939Y-80245000D01*
X106324061Y-80245000D01*
X106124102Y-80284774D01*
X105935744Y-80362795D01*
X105766226Y-80476063D01*
X105622063Y-80620226D01*
X105508795Y-80789744D01*
X105430774Y-80978102D01*
X105391000Y-81178061D01*
X105391000Y-81381939D01*
X105430774Y-81581898D01*
X105508795Y-81770256D01*
X105541866Y-81819750D01*
X105508795Y-81869244D01*
X105430774Y-82057602D01*
X105391000Y-82257561D01*
X105391000Y-82461439D01*
X105430774Y-82661398D01*
X105508795Y-82849756D01*
X105622063Y-83019274D01*
X105766226Y-83163437D01*
X105935744Y-83276705D01*
X106124102Y-83354726D01*
X106324061Y-83394500D01*
X106527939Y-83394500D01*
X106727898Y-83354726D01*
X106916256Y-83276705D01*
X107085774Y-83163437D01*
X107229937Y-83019274D01*
X107343205Y-82849756D01*
X107421226Y-82661398D01*
X107461000Y-82461439D01*
X107461000Y-82399301D01*
X110513803Y-79346499D01*
X111614000Y-79346499D01*
X111614000Y-79413439D01*
X111653774Y-79613398D01*
X111731795Y-79801756D01*
X111845063Y-79971274D01*
X111889001Y-80015212D01*
X111889000Y-83311014D01*
X111798439Y-83293000D01*
X111594561Y-83293000D01*
X111394602Y-83332774D01*
X111206244Y-83410795D01*
X111036726Y-83524063D01*
X110892563Y-83668226D01*
X110779295Y-83837744D01*
X110701274Y-84026102D01*
X110667183Y-84197491D01*
X109961332Y-84197491D01*
X109924009Y-84193815D01*
X109886686Y-84197491D01*
X109886676Y-84197491D01*
X109775023Y-84208488D01*
X109631762Y-84251945D01*
X109499733Y-84322517D01*
X109384008Y-84417490D01*
X109360210Y-84446488D01*
X108614200Y-85192499D01*
X106242321Y-85192499D01*
X106204998Y-85188823D01*
X106167676Y-85192499D01*
X106167666Y-85192499D01*
X106056013Y-85203496D01*
X105912752Y-85246953D01*
X105780723Y-85317525D01*
X105664998Y-85412498D01*
X105641195Y-85441502D01*
X105615207Y-85467490D01*
X104260202Y-85467490D01*
X101524699Y-82731988D01*
X101500902Y-82702991D01*
X101471903Y-82679192D01*
X101385177Y-82608017D01*
X101253147Y-82537445D01*
X101153343Y-82507171D01*
X101109887Y-82493989D01*
X100998234Y-82482992D01*
X100960901Y-82479315D01*
X100923570Y-82482992D01*
X100188294Y-82482991D01*
X100162305Y-82457002D01*
X100138502Y-82427998D01*
X100022777Y-82333025D01*
X99890748Y-82262453D01*
X99747487Y-82218996D01*
X99635834Y-82207999D01*
X99635823Y-82207999D01*
X99598501Y-82204323D01*
X99561179Y-82207999D01*
X85943000Y-82207999D01*
X85943000Y-82105448D01*
X85906108Y-81919978D01*
X85899904Y-81905000D01*
X86160000Y-81905000D01*
X86378987Y-81858415D01*
X86584678Y-81770003D01*
X86769169Y-81643161D01*
X86925369Y-81482764D01*
X87047276Y-81294976D01*
X87127119Y-81071874D01*
X87000954Y-80897000D01*
X85610000Y-80897000D01*
X85610000Y-80917000D01*
X85356000Y-80917000D01*
X85356000Y-80897000D01*
X83965046Y-80897000D01*
X83838881Y-81071874D01*
X83918724Y-81294976D01*
X84040631Y-81482764D01*
X84196831Y-81643161D01*
X84199335Y-81644883D01*
X84132259Y-81745269D01*
X84059892Y-81919978D01*
X84023000Y-82105448D01*
X84023000Y-82294552D01*
X84059892Y-82480022D01*
X84132259Y-82654731D01*
X84237319Y-82811964D01*
X84371036Y-82945681D01*
X84528269Y-83050741D01*
X84674065Y-83111132D01*
X84390198Y-83394999D01*
X84328060Y-83394999D01*
X84128101Y-83434773D01*
X83939743Y-83512794D01*
X83770225Y-83626062D01*
X83626062Y-83770225D01*
X83512794Y-83939743D01*
X83434773Y-84128101D01*
X83394999Y-84328060D01*
X83394999Y-84531938D01*
X83434773Y-84731897D01*
X83512794Y-84920255D01*
X83626062Y-85089773D01*
X83770225Y-85233936D01*
X83939743Y-85347204D01*
X84128101Y-85425225D01*
X84328060Y-85464999D01*
X84531938Y-85464999D01*
X84731897Y-85425225D01*
X84920255Y-85347204D01*
X85089773Y-85233936D01*
X85233936Y-85089773D01*
X85347204Y-84920255D01*
X85425225Y-84731897D01*
X85464999Y-84531938D01*
X85464999Y-84469800D01*
X86206801Y-83727999D01*
X88859201Y-83727999D01*
X87807200Y-84780001D01*
X87745062Y-84780001D01*
X87545103Y-84819775D01*
X87356745Y-84897796D01*
X87187227Y-85011064D01*
X87043064Y-85155227D01*
X86929796Y-85324745D01*
X86851775Y-85513103D01*
X86812001Y-85713062D01*
X86812001Y-85916940D01*
X86851775Y-86116899D01*
X86929796Y-86305257D01*
X87043064Y-86474775D01*
X87187227Y-86618938D01*
X87356745Y-86732206D01*
X87545103Y-86810227D01*
X87745062Y-86850001D01*
X87948940Y-86850001D01*
X88148899Y-86810227D01*
X88337257Y-86732206D01*
X88506775Y-86618938D01*
X88650938Y-86474775D01*
X88764206Y-86305257D01*
X88842227Y-86116899D01*
X88882001Y-85916940D01*
X88882001Y-85854802D01*
X90558795Y-84178009D01*
X97587706Y-84178009D01*
X98338700Y-84929004D01*
X98362498Y-84958002D01*
X98478223Y-85052975D01*
X98610252Y-85123547D01*
X98753513Y-85167004D01*
X98865166Y-85178001D01*
X98865175Y-85178001D01*
X98902498Y-85181677D01*
X98939821Y-85178001D01*
X99561179Y-85178001D01*
X99598501Y-85181677D01*
X99635823Y-85178001D01*
X99635834Y-85178001D01*
X99747487Y-85167004D01*
X99890748Y-85123547D01*
X100022777Y-85052975D01*
X100138502Y-84958002D01*
X100162305Y-84928998D01*
X100188293Y-84903010D01*
X100273299Y-84903010D01*
X102938787Y-87568500D01*
X95826711Y-87568500D01*
X95782774Y-87524563D01*
X95613256Y-87411295D01*
X95424898Y-87333274D01*
X95224939Y-87293500D01*
X95021061Y-87293500D01*
X94821102Y-87333274D01*
X94632744Y-87411295D01*
X94463226Y-87524563D01*
X94319063Y-87668726D01*
X94205795Y-87838244D01*
X94127774Y-88026602D01*
X94088000Y-88226561D01*
X94088000Y-88430439D01*
X94127774Y-88630398D01*
X94205795Y-88818756D01*
X94319063Y-88988274D01*
X94463226Y-89132437D01*
X94632744Y-89245705D01*
X94821102Y-89323726D01*
X95021061Y-89363500D01*
X95224939Y-89363500D01*
X95424898Y-89323726D01*
X95613256Y-89245705D01*
X95782774Y-89132437D01*
X95826711Y-89088500D01*
X109937658Y-89088500D01*
X109974980Y-89092176D01*
X110012302Y-89088500D01*
X110012313Y-89088500D01*
X110123966Y-89077503D01*
X110267227Y-89034046D01*
X110399256Y-88963474D01*
X110514981Y-88868501D01*
X110538784Y-88839497D01*
X113160004Y-86218278D01*
X113189001Y-86194481D01*
X113283974Y-86078756D01*
X113354546Y-85946727D01*
X113398003Y-85803466D01*
X113409000Y-85691813D01*
X113409000Y-85691804D01*
X113412676Y-85654481D01*
X113409000Y-85617158D01*
X113409000Y-83677374D01*
X122222881Y-83677374D01*
X122239554Y-83732364D01*
X122329877Y-83935706D01*
X122382639Y-84010500D01*
X122329877Y-84085294D01*
X122239554Y-84288636D01*
X122222881Y-84343626D01*
X122349046Y-84518500D01*
X123190000Y-84518500D01*
X123190000Y-83502500D01*
X122349046Y-83502500D01*
X122222881Y-83677374D01*
X113409000Y-83677374D01*
X113409000Y-80888509D01*
X113432563Y-80923774D01*
X113576726Y-81067937D01*
X113746244Y-81181205D01*
X113934602Y-81259226D01*
X114134561Y-81299000D01*
X114338439Y-81299000D01*
X114538398Y-81259226D01*
X114726756Y-81181205D01*
X114896274Y-81067937D01*
X114940211Y-81024000D01*
X119446199Y-81024000D01*
X120567500Y-82145302D01*
X120567500Y-82207439D01*
X120607274Y-82407398D01*
X120685295Y-82595756D01*
X120798563Y-82765274D01*
X120942726Y-82909437D01*
X121112244Y-83022705D01*
X121300602Y-83100726D01*
X121500561Y-83140500D01*
X121704439Y-83140500D01*
X121904398Y-83100726D01*
X122092756Y-83022705D01*
X122260185Y-82910833D01*
X122275070Y-82938680D01*
X122239554Y-83018636D01*
X122222881Y-83073626D01*
X122349046Y-83248500D01*
X123190000Y-83248500D01*
X123190000Y-83243572D01*
X123444000Y-83243572D01*
X123444000Y-83248500D01*
X123455026Y-83248500D01*
X123452000Y-83263712D01*
X123452000Y-83487288D01*
X123455026Y-83502500D01*
X123444000Y-83502500D01*
X123444000Y-84518500D01*
X123455026Y-84518500D01*
X123452000Y-84533712D01*
X123452000Y-84757288D01*
X123455026Y-84772500D01*
X123444000Y-84772500D01*
X123444000Y-84783526D01*
X123428788Y-84780500D01*
X123205212Y-84780500D01*
X123190000Y-84783526D01*
X123190000Y-84772500D01*
X122349046Y-84772500D01*
X122222881Y-84947374D01*
X122239554Y-85002364D01*
X122329877Y-85205706D01*
X122379353Y-85275842D01*
X122311176Y-85377876D01*
X122225617Y-85584433D01*
X122182000Y-85803712D01*
X122182000Y-86027288D01*
X122225617Y-86246567D01*
X122311176Y-86453124D01*
X122376241Y-86550500D01*
X122311176Y-86647876D01*
X122225617Y-86854433D01*
X122182000Y-87073712D01*
X122182000Y-87297288D01*
X122225617Y-87516567D01*
X122311176Y-87723124D01*
X122435388Y-87909020D01*
X122593480Y-88067112D01*
X122779376Y-88191324D01*
X122985933Y-88276883D01*
X123205212Y-88320500D01*
X123428788Y-88320500D01*
X123648067Y-88276883D01*
X123854624Y-88191324D01*
X123952000Y-88126259D01*
X124049376Y-88191324D01*
X124255933Y-88276883D01*
X124475212Y-88320500D01*
X124698788Y-88320500D01*
X124918067Y-88276883D01*
X125124624Y-88191324D01*
X125310520Y-88067112D01*
X125468612Y-87909020D01*
X125592824Y-87723124D01*
X125678383Y-87516567D01*
X125722000Y-87297288D01*
X125722000Y-87073712D01*
X125678383Y-86854433D01*
X125592824Y-86647876D01*
X125527759Y-86550500D01*
X125592824Y-86453124D01*
X125678383Y-86246567D01*
X125722000Y-86027288D01*
X125722000Y-85803712D01*
X125678383Y-85584433D01*
X125592824Y-85377876D01*
X125527759Y-85280500D01*
X125592824Y-85183124D01*
X125678383Y-84976567D01*
X125722000Y-84757288D01*
X125722000Y-84533712D01*
X125678383Y-84314433D01*
X125592824Y-84107876D01*
X125527759Y-84010500D01*
X125592824Y-83913124D01*
X125678383Y-83706567D01*
X125722000Y-83487288D01*
X125722000Y-83263712D01*
X125678383Y-83044433D01*
X125592824Y-82837876D01*
X125527759Y-82740500D01*
X125592824Y-82643124D01*
X125678383Y-82436567D01*
X125722000Y-82217288D01*
X125722000Y-81993712D01*
X125678383Y-81774433D01*
X125592824Y-81567876D01*
X125468612Y-81381980D01*
X125310520Y-81223888D01*
X125124624Y-81099676D01*
X124918067Y-81014117D01*
X124698788Y-80970500D01*
X124475212Y-80970500D01*
X124255933Y-81014117D01*
X124144226Y-81060388D01*
X124061180Y-81015998D01*
X123941482Y-80979688D01*
X123817000Y-80967428D01*
X122817000Y-80967428D01*
X122692518Y-80979688D01*
X122572820Y-81015998D01*
X122462506Y-81074963D01*
X122365815Y-81154315D01*
X122286463Y-81251006D01*
X122260185Y-81300167D01*
X122092756Y-81188295D01*
X121904398Y-81110274D01*
X121704439Y-81070500D01*
X121642302Y-81070500D01*
X120910984Y-80339182D01*
X120935750Y-80322634D01*
X120985244Y-80355705D01*
X121173602Y-80433726D01*
X121373561Y-80473500D01*
X121577439Y-80473500D01*
X121777398Y-80433726D01*
X121965756Y-80355705D01*
X122135274Y-80242437D01*
X122279437Y-80098274D01*
X122392705Y-79928756D01*
X122470726Y-79740398D01*
X122510500Y-79540439D01*
X122510500Y-79336561D01*
X122470726Y-79136602D01*
X122392705Y-78948244D01*
X122331011Y-78855912D01*
X122331011Y-76528421D01*
X122334687Y-76491098D01*
X122331011Y-76453775D01*
X122331011Y-76453766D01*
X122320014Y-76342113D01*
X122276557Y-76198852D01*
X122205985Y-76066823D01*
X122111012Y-75951098D01*
X122082013Y-75927299D01*
X121494204Y-75339491D01*
X121470402Y-75310488D01*
X121354677Y-75215515D01*
X121222648Y-75144943D01*
X121079387Y-75101486D01*
X120967734Y-75090489D01*
X120967723Y-75090489D01*
X120930401Y-75086813D01*
X120893079Y-75090489D01*
X119893834Y-75090489D01*
X119856511Y-75086813D01*
X119819188Y-75090489D01*
X119819178Y-75090489D01*
X119781791Y-75094171D01*
X119813158Y-75087932D01*
X120083411Y-74975990D01*
X120326632Y-74813475D01*
X120533475Y-74606632D01*
X120650000Y-74432240D01*
X120766525Y-74606632D01*
X120973368Y-74813475D01*
X121216589Y-74975990D01*
X121486842Y-75087932D01*
X121773740Y-75145000D01*
X122066260Y-75145000D01*
X122353158Y-75087932D01*
X122623411Y-74975990D01*
X122866632Y-74813475D01*
X123073475Y-74606632D01*
X123195195Y-74424466D01*
X123264822Y-74541355D01*
X123459731Y-74757588D01*
X123693080Y-74931641D01*
X123955901Y-75056825D01*
X124103110Y-75101476D01*
X124333000Y-74980155D01*
X124333000Y-73787000D01*
X124313000Y-73787000D01*
X124313000Y-73533000D01*
X124333000Y-73533000D01*
X124333000Y-73513000D01*
X124587000Y-73513000D01*
X124587000Y-73533000D01*
X124607000Y-73533000D01*
X124607000Y-73787000D01*
X124587000Y-73787000D01*
X124587000Y-74980155D01*
X124816890Y-75101476D01*
X124964099Y-75056825D01*
X125226920Y-74931641D01*
X125460269Y-74757588D01*
X125655178Y-74541355D01*
X125804157Y-74291252D01*
X125832001Y-74212759D01*
X125832000Y-95951810D01*
X125775990Y-95816589D01*
X125613475Y-95573368D01*
X125406632Y-95366525D01*
X125163411Y-95204010D01*
X124893158Y-95092068D01*
X124606260Y-95035000D01*
X124313740Y-95035000D01*
X124026842Y-95092068D01*
X123756589Y-95204010D01*
X123513368Y-95366525D01*
X123306525Y-95573368D01*
X123190000Y-95747760D01*
X123073475Y-95573368D01*
X122866632Y-95366525D01*
X122623411Y-95204010D01*
X122353158Y-95092068D01*
X122066260Y-95035000D01*
X121773740Y-95035000D01*
X121486842Y-95092068D01*
X121216589Y-95204010D01*
X120973368Y-95366525D01*
X120766525Y-95573368D01*
X120650000Y-95747760D01*
X120533475Y-95573368D01*
X120326632Y-95366525D01*
X120083411Y-95204010D01*
X119813158Y-95092068D01*
X119526260Y-95035000D01*
X119233740Y-95035000D01*
X118946842Y-95092068D01*
X118676589Y-95204010D01*
X118433368Y-95366525D01*
X118226525Y-95573368D01*
X118110000Y-95747760D01*
X117993475Y-95573368D01*
X117786632Y-95366525D01*
X117543411Y-95204010D01*
X117273158Y-95092068D01*
X116986260Y-95035000D01*
X116693740Y-95035000D01*
X116406842Y-95092068D01*
X116136589Y-95204010D01*
X115893368Y-95366525D01*
X115686525Y-95573368D01*
X115570000Y-95747760D01*
X115453475Y-95573368D01*
X115246632Y-95366525D01*
X115003411Y-95204010D01*
X114733158Y-95092068D01*
X114446260Y-95035000D01*
X114153740Y-95035000D01*
X113866842Y-95092068D01*
X113596589Y-95204010D01*
X113353368Y-95366525D01*
X113146525Y-95573368D01*
X113030000Y-95747760D01*
X112913475Y-95573368D01*
X112706632Y-95366525D01*
X112463411Y-95204010D01*
X112193158Y-95092068D01*
X111906260Y-95035000D01*
X111613740Y-95035000D01*
X111326842Y-95092068D01*
X111056589Y-95204010D01*
X110813368Y-95366525D01*
X110606525Y-95573368D01*
X110490000Y-95747760D01*
X110373475Y-95573368D01*
X110166632Y-95366525D01*
X109923411Y-95204010D01*
X109653158Y-95092068D01*
X109366260Y-95035000D01*
X109073740Y-95035000D01*
X108786842Y-95092068D01*
X108516589Y-95204010D01*
X108273368Y-95366525D01*
X108066525Y-95573368D01*
X107950000Y-95747760D01*
X107833475Y-95573368D01*
X107626632Y-95366525D01*
X107383411Y-95204010D01*
X107113158Y-95092068D01*
X106826260Y-95035000D01*
X106533740Y-95035000D01*
X106246842Y-95092068D01*
X105976589Y-95204010D01*
X105733368Y-95366525D01*
X105526525Y-95573368D01*
X105410000Y-95747760D01*
X105293475Y-95573368D01*
X105086632Y-95366525D01*
X104843411Y-95204010D01*
X104573158Y-95092068D01*
X104286260Y-95035000D01*
X103993740Y-95035000D01*
X103706842Y-95092068D01*
X103436589Y-95204010D01*
X103193368Y-95366525D01*
X102986525Y-95573368D01*
X102870000Y-95747760D01*
X102753475Y-95573368D01*
X102546632Y-95366525D01*
X102303411Y-95204010D01*
X102033158Y-95092068D01*
X101746260Y-95035000D01*
X101453740Y-95035000D01*
X101166842Y-95092068D01*
X100896589Y-95204010D01*
X100653368Y-95366525D01*
X100446525Y-95573368D01*
X100330000Y-95747760D01*
X100213475Y-95573368D01*
X100006632Y-95366525D01*
X99763411Y-95204010D01*
X99493158Y-95092068D01*
X99206260Y-95035000D01*
X98913740Y-95035000D01*
X98626842Y-95092068D01*
X98356589Y-95204010D01*
X98113368Y-95366525D01*
X97906525Y-95573368D01*
X97790000Y-95747760D01*
X97673475Y-95573368D01*
X97466632Y-95366525D01*
X97223411Y-95204010D01*
X96953158Y-95092068D01*
X96666260Y-95035000D01*
X96373740Y-95035000D01*
X96086842Y-95092068D01*
X95816589Y-95204010D01*
X95573368Y-95366525D01*
X95366525Y-95573368D01*
X95250000Y-95747760D01*
X95133475Y-95573368D01*
X94926632Y-95366525D01*
X94683411Y-95204010D01*
X94413158Y-95092068D01*
X94126260Y-95035000D01*
X93833740Y-95035000D01*
X93546842Y-95092068D01*
X93276589Y-95204010D01*
X93033368Y-95366525D01*
X92826525Y-95573368D01*
X92710000Y-95747760D01*
X92593475Y-95573368D01*
X92386632Y-95366525D01*
X92143411Y-95204010D01*
X91873158Y-95092068D01*
X91586260Y-95035000D01*
X91293740Y-95035000D01*
X91006842Y-95092068D01*
X90736589Y-95204010D01*
X90493368Y-95366525D01*
X90286525Y-95573368D01*
X90170000Y-95747760D01*
X90053475Y-95573368D01*
X89846632Y-95366525D01*
X89603411Y-95204010D01*
X89333158Y-95092068D01*
X89046260Y-95035000D01*
X88753740Y-95035000D01*
X88466842Y-95092068D01*
X88196589Y-95204010D01*
X87953368Y-95366525D01*
X87746525Y-95573368D01*
X87630000Y-95747760D01*
X87513475Y-95573368D01*
X87306632Y-95366525D01*
X87063411Y-95204010D01*
X86793158Y-95092068D01*
X86506260Y-95035000D01*
X86213740Y-95035000D01*
X85926842Y-95092068D01*
X85656589Y-95204010D01*
X85413368Y-95366525D01*
X85281513Y-95498380D01*
X85259502Y-95425820D01*
X85200537Y-95315506D01*
X85121185Y-95218815D01*
X85024494Y-95139463D01*
X84914180Y-95080498D01*
X84794482Y-95044188D01*
X84670000Y-95031928D01*
X82970000Y-95031928D01*
X82845518Y-95044188D01*
X82725820Y-95080498D01*
X82615506Y-95139463D01*
X82518815Y-95218815D01*
X82439463Y-95315506D01*
X82380498Y-95425820D01*
X82344188Y-95545518D01*
X82331928Y-95670000D01*
X82331928Y-97370000D01*
X82344188Y-97494482D01*
X82380498Y-97614180D01*
X82439463Y-97724494D01*
X82518815Y-97821185D01*
X82605104Y-97892000D01*
X80670000Y-97892000D01*
X80670000Y-90522451D01*
X80776000Y-90545000D01*
X81176000Y-90545000D01*
X81176000Y-89537000D01*
X81430000Y-89537000D01*
X81430000Y-90545000D01*
X81830000Y-90545000D01*
X82048987Y-90498415D01*
X82254678Y-90410003D01*
X82439169Y-90283161D01*
X82595369Y-90122764D01*
X82717276Y-89934976D01*
X82797119Y-89711874D01*
X83838881Y-89711874D01*
X83918724Y-89934976D01*
X84040631Y-90122764D01*
X84196831Y-90283161D01*
X84381322Y-90410003D01*
X84587013Y-90498415D01*
X84806000Y-90545000D01*
X85356000Y-90545000D01*
X85356000Y-89537000D01*
X85610000Y-89537000D01*
X85610000Y-90545000D01*
X86160000Y-90545000D01*
X86378987Y-90498415D01*
X86584678Y-90410003D01*
X86769169Y-90283161D01*
X86925369Y-90122764D01*
X87047276Y-89934976D01*
X87127119Y-89711874D01*
X87000954Y-89537000D01*
X85610000Y-89537000D01*
X85356000Y-89537000D01*
X83965046Y-89537000D01*
X83838881Y-89711874D01*
X82797119Y-89711874D01*
X82670954Y-89537000D01*
X81430000Y-89537000D01*
X81176000Y-89537000D01*
X81156000Y-89537000D01*
X81156000Y-89283000D01*
X81176000Y-89283000D01*
X81176000Y-88275000D01*
X81430000Y-88275000D01*
X81430000Y-89283000D01*
X82670954Y-89283000D01*
X82797119Y-89108126D01*
X83838881Y-89108126D01*
X83965046Y-89283000D01*
X85356000Y-89283000D01*
X85356000Y-89263000D01*
X85610000Y-89263000D01*
X85610000Y-89283000D01*
X87000954Y-89283000D01*
X87127119Y-89108126D01*
X87047276Y-88885024D01*
X86925369Y-88697236D01*
X86769169Y-88536839D01*
X86584678Y-88409997D01*
X86378987Y-88321585D01*
X86160000Y-88275000D01*
X85899904Y-88275000D01*
X85906108Y-88260022D01*
X85943000Y-88074552D01*
X85943000Y-87885448D01*
X85906108Y-87699978D01*
X85833741Y-87525269D01*
X85728681Y-87368036D01*
X85594964Y-87234319D01*
X85437731Y-87129259D01*
X85263022Y-87056892D01*
X85077552Y-87020000D01*
X84888448Y-87020000D01*
X84702978Y-87056892D01*
X84528269Y-87129259D01*
X84371036Y-87234319D01*
X84237319Y-87368036D01*
X84132259Y-87525269D01*
X84059892Y-87699978D01*
X84023000Y-87885448D01*
X84023000Y-88074552D01*
X84059892Y-88260022D01*
X84132259Y-88434731D01*
X84199335Y-88535117D01*
X84196831Y-88536839D01*
X84040631Y-88697236D01*
X83918724Y-88885024D01*
X83838881Y-89108126D01*
X82797119Y-89108126D01*
X82717276Y-88885024D01*
X82595369Y-88697236D01*
X82439169Y-88536839D01*
X82254678Y-88409997D01*
X82048987Y-88321585D01*
X81830000Y-88275000D01*
X81430000Y-88275000D01*
X81176000Y-88275000D01*
X80776000Y-88275000D01*
X80670000Y-88297549D01*
X80670000Y-81882451D01*
X80776000Y-81905000D01*
X81176000Y-81905000D01*
X81176000Y-80897000D01*
X81430000Y-80897000D01*
X81430000Y-81905000D01*
X81830000Y-81905000D01*
X82048987Y-81858415D01*
X82254678Y-81770003D01*
X82439169Y-81643161D01*
X82595369Y-81482764D01*
X82717276Y-81294976D01*
X82797119Y-81071874D01*
X82670954Y-80897000D01*
X81430000Y-80897000D01*
X81176000Y-80897000D01*
X81156000Y-80897000D01*
X81156000Y-80643000D01*
X81176000Y-80643000D01*
X81176000Y-79635000D01*
X81430000Y-79635000D01*
X81430000Y-80643000D01*
X82670954Y-80643000D01*
X82797119Y-80468126D01*
X83838881Y-80468126D01*
X83965046Y-80643000D01*
X85356000Y-80643000D01*
X85356000Y-79635000D01*
X85610000Y-79635000D01*
X85610000Y-80643000D01*
X87000954Y-80643000D01*
X87127119Y-80468126D01*
X87047276Y-80245024D01*
X86925369Y-80057236D01*
X86769169Y-79896839D01*
X86584678Y-79769997D01*
X86378987Y-79681585D01*
X86160000Y-79635000D01*
X85610000Y-79635000D01*
X85356000Y-79635000D01*
X84806000Y-79635000D01*
X84587013Y-79681585D01*
X84381322Y-79769997D01*
X84196831Y-79896839D01*
X84040631Y-80057236D01*
X83918724Y-80245024D01*
X83838881Y-80468126D01*
X82797119Y-80468126D01*
X82717276Y-80245024D01*
X82595369Y-80057236D01*
X82439169Y-79896839D01*
X82254678Y-79769997D01*
X82048987Y-79681585D01*
X81830000Y-79635000D01*
X81430000Y-79635000D01*
X81176000Y-79635000D01*
X80776000Y-79635000D01*
X80670000Y-79657549D01*
X80670000Y-72288000D01*
X82605104Y-72288000D01*
X82518815Y-72358815D01*
G37*
%TD.AperFunction*%
%TD*%
M02*
