M48
; DRILL file {KiCad 5.1.9+dfsg1-1} date Fri Jan 14 18:57:33 2022
; FORMAT={-:-/ absolute / metric / decimal}
; #@! TF.CreationDate,2022-01-14T18:57:33-05:00
; #@! TF.GenerationSoftware,Kicad,Pcbnew,5.1.9+dfsg1-1
; #@! TF.FileFunction,Plated,1,2,PTH
FMAT,2
METRIC
T1C0.400
T2C0.600
T3C0.650
T4C1.000
%
G90
G05
T1
X84.43Y-84.43
X87.847Y-85.815
X95.123Y-88.328
X96.647Y-86.487
X97.155Y-78.803
X97.688Y-90.195
X99.251Y-83.693
X104.902Y-78.168
X106.041Y-83.951
X106.426Y-81.28
X106.426Y-82.359
X106.553Y-86.677
X108.204Y-91.948
X109.22Y-81.28
X111.697Y-84.328
X111.697Y-85.407
X112.649Y-79.311
X114.236Y-80.264
X120.396Y-77.025
X120.396Y-79.438
X121.475Y-79.438
X121.602Y-82.105
T3
X123.317Y-82.105
X123.317Y-83.376
X123.317Y-84.645
X123.317Y-85.915
X123.317Y-87.185
X124.587Y-82.105
X124.587Y-83.376
X124.587Y-84.645
X124.587Y-85.915
X124.587Y-87.185
T4
X83.82Y-73.66
X83.82Y-96.52
X86.36Y-73.66
X86.36Y-96.52
X88.9Y-73.66
X88.9Y-96.52
X91.44Y-73.66
X91.44Y-96.52
X93.98Y-73.66
X93.98Y-96.52
X96.52Y-73.66
X96.52Y-96.52
X99.06Y-73.66
X99.06Y-96.52
X101.6Y-73.66
X101.6Y-96.52
X104.14Y-73.66
X104.14Y-96.52
X106.68Y-73.66
X106.68Y-96.52
X109.22Y-73.66
X109.22Y-96.52
X111.76Y-73.66
X111.76Y-96.52
X114.3Y-73.66
X114.3Y-96.52
X116.84Y-73.66
X116.84Y-96.52
X119.38Y-73.66
X119.38Y-96.52
X121.92Y-73.66
X121.92Y-96.52
X124.46Y-73.66
X124.46Y-96.52
T2
X81.703Y-80.77G85X80.903Y-80.77
G05
X81.703Y-89.41G85X80.903Y-89.41
G05
X86.033Y-80.77G85X84.933Y-80.77
G05
X86.033Y-89.41G85X84.933Y-89.41
G05
T0
M30
