%TF.GenerationSoftware,KiCad,Pcbnew,5.1.9+dfsg1-1*%
%TF.CreationDate,2022-01-14T18:57:29-05:00*%
%TF.ProjectId,samd21g17d,73616d64-3231-4673-9137-642e6b696361,rev?*%
%TF.SameCoordinates,Original*%
%TF.FileFunction,Soldermask,Bot*%
%TF.FilePolarity,Negative*%
%FSLAX46Y46*%
G04 Gerber Fmt 4.6, Leading zero omitted, Abs format (unit mm)*
G04 Created by KiCad (PCBNEW 5.1.9+dfsg1-1) date 2022-01-14 18:57:29*
%MOMM*%
%LPD*%
G01*
G04 APERTURE LIST*
%ADD10O,1.000000X1.000000*%
%ADD11R,1.000000X1.000000*%
%ADD12O,1.700000X1.700000*%
%ADD13R,1.700000X1.700000*%
%ADD14O,0.650000X0.650000*%
%ADD15O,1.800000X1.000000*%
%ADD16O,2.100000X1.000000*%
G04 APERTURE END LIST*
D10*
%TO.C,DEBUG*%
X124587000Y-87185500D03*
X123317000Y-87185500D03*
X124587000Y-85915500D03*
X123317000Y-85915500D03*
X124587000Y-84645500D03*
X123317000Y-84645500D03*
X124587000Y-83375500D03*
X123317000Y-83375500D03*
X124587000Y-82105500D03*
D11*
X123317000Y-82105500D03*
%TD*%
D12*
%TO.C,J3*%
X124460000Y-73660000D03*
X121920000Y-73660000D03*
X119380000Y-73660000D03*
X116840000Y-73660000D03*
X114300000Y-73660000D03*
X111760000Y-73660000D03*
X109220000Y-73660000D03*
X106680000Y-73660000D03*
X104140000Y-73660000D03*
X101600000Y-73660000D03*
X99060000Y-73660000D03*
X96520000Y-73660000D03*
X93980000Y-73660000D03*
X91440000Y-73660000D03*
X88900000Y-73660000D03*
X86360000Y-73660000D03*
D13*
X83820000Y-73660000D03*
%TD*%
D12*
%TO.C,J2*%
X124460000Y-96520000D03*
X121920000Y-96520000D03*
X119380000Y-96520000D03*
X116840000Y-96520000D03*
X114300000Y-96520000D03*
X111760000Y-96520000D03*
X109220000Y-96520000D03*
X106680000Y-96520000D03*
X104140000Y-96520000D03*
X101600000Y-96520000D03*
X99060000Y-96520000D03*
X96520000Y-96520000D03*
X93980000Y-96520000D03*
X91440000Y-96520000D03*
X88900000Y-96520000D03*
X86360000Y-96520000D03*
D13*
X83820000Y-96520000D03*
%TD*%
D14*
%TO.C,J1*%
X84983000Y-87980000D03*
X84983000Y-82200000D03*
D15*
X81303000Y-89410000D03*
X81303000Y-80770000D03*
D16*
X85483000Y-80770000D03*
X85483000Y-89410000D03*
%TD*%
M02*
