%TF.GenerationSoftware,KiCad,Pcbnew,5.1.9+dfsg1-1*%
%TF.CreationDate,2022-01-14T18:57:29-05:00*%
%TF.ProjectId,samd21g17d,73616d64-3231-4673-9137-642e6b696361,rev?*%
%TF.SameCoordinates,Original*%
%TF.FileFunction,Copper,L1,Top*%
%TF.FilePolarity,Positive*%
%FSLAX46Y46*%
G04 Gerber Fmt 4.6, Leading zero omitted, Abs format (unit mm)*
G04 Created by KiCad (PCBNEW 5.1.9+dfsg1-1) date 2022-01-14 18:57:29*
%MOMM*%
%LPD*%
G01*
G04 APERTURE LIST*
%TA.AperFunction,SMDPad,CuDef*%
%ADD10R,1.800000X1.000000*%
%TD*%
%TA.AperFunction,SMDPad,CuDef*%
%ADD11R,1.060000X0.650000*%
%TD*%
%TA.AperFunction,SMDPad,CuDef*%
%ADD12R,0.250000X1.300000*%
%TD*%
%TA.AperFunction,SMDPad,CuDef*%
%ADD13R,1.300000X0.250000*%
%TD*%
%TA.AperFunction,SMDPad,CuDef*%
%ADD14R,1.600000X1.400000*%
%TD*%
%TA.AperFunction,ComponentPad*%
%ADD15O,1.000000X1.000000*%
%TD*%
%TA.AperFunction,ComponentPad*%
%ADD16R,1.000000X1.000000*%
%TD*%
%TA.AperFunction,ComponentPad*%
%ADD17O,1.700000X1.700000*%
%TD*%
%TA.AperFunction,ComponentPad*%
%ADD18R,1.700000X1.700000*%
%TD*%
%TA.AperFunction,SMDPad,CuDef*%
%ADD19R,1.150000X0.300000*%
%TD*%
%TA.AperFunction,SMDPad,CuDef*%
%ADD20R,1.086500X0.300000*%
%TD*%
%TA.AperFunction,ComponentPad*%
%ADD21O,1.800000X1.000000*%
%TD*%
%TA.AperFunction,ComponentPad*%
%ADD22O,2.100000X1.000000*%
%TD*%
%TA.AperFunction,ViaPad*%
%ADD23C,0.800000*%
%TD*%
%TA.AperFunction,Conductor*%
%ADD24C,0.250000*%
%TD*%
G04 APERTURE END LIST*
D10*
%TO.P,Y1,2*%
%TO.N,XOUT32*%
X101536500Y-81133000D03*
%TO.P,Y1,1*%
%TO.N,XIN32*%
X101536500Y-78633000D03*
%TD*%
D11*
%TO.P,U2,5*%
%TO.N,+3V3*%
X95397500Y-82235000D03*
%TO.P,U2,4*%
%TO.N,Net-(U2-Pad4)*%
X95397500Y-84135000D03*
%TO.P,U2,3*%
%TO.N,Net-(R4-Pad1)*%
X93197500Y-84135000D03*
%TO.P,U2,2*%
%TO.N,GND*%
X93197500Y-83185000D03*
%TO.P,U2,1*%
%TO.N,VDD*%
X93197500Y-82235000D03*
%TD*%
D12*
%TO.P,U1,48*%
%TO.N,PB03*%
X106216000Y-79724000D03*
%TO.P,U1,47*%
%TO.N,PB02*%
X106716000Y-79724000D03*
%TO.P,U1,46*%
%TO.N,SWDIO*%
X107216000Y-79724000D03*
%TO.P,U1,45*%
%TO.N,SWCLK*%
X107716000Y-79724000D03*
%TO.P,U1,44*%
%TO.N,+3V3*%
X108216000Y-79724000D03*
%TO.P,U1,43*%
%TO.N,Net-(C7-Pad1)*%
X108716000Y-79724000D03*
%TO.P,U1,42*%
%TO.N,GND*%
X109216000Y-79724000D03*
%TO.P,U1,41*%
%TO.N,PA28*%
X109716000Y-79724000D03*
%TO.P,U1,40*%
%TO.N,RESET*%
X110216000Y-79724000D03*
%TO.P,U1,39*%
%TO.N,PA27*%
X110716000Y-79724000D03*
%TO.P,U1,38*%
%TO.N,PB23*%
X111216000Y-79724000D03*
%TO.P,U1,37*%
%TO.N,PB22*%
X111716000Y-79724000D03*
D13*
%TO.P,U1,36*%
%TO.N,+3V3*%
X113316000Y-81324000D03*
%TO.P,U1,35*%
%TO.N,GND*%
X113316000Y-81824000D03*
%TO.P,U1,34*%
%TO.N,D+*%
X113316000Y-82324000D03*
%TO.P,U1,33*%
%TO.N,D-*%
X113316000Y-82824000D03*
%TO.P,U1,32*%
%TO.N,PA23*%
X113316000Y-83324000D03*
%TO.P,U1,31*%
%TO.N,PA22*%
X113316000Y-83824000D03*
%TO.P,U1,30*%
%TO.N,PA21*%
X113316000Y-84324000D03*
%TO.P,U1,29*%
%TO.N,PA20*%
X113316000Y-84824000D03*
%TO.P,U1,28*%
%TO.N,PA19*%
X113316000Y-85324000D03*
%TO.P,U1,27*%
%TO.N,PA18*%
X113316000Y-85824000D03*
%TO.P,U1,26*%
%TO.N,PA17*%
X113316000Y-86324000D03*
%TO.P,U1,25*%
%TO.N,PA16*%
X113316000Y-86824000D03*
D12*
%TO.P,U1,24*%
%TO.N,PA15*%
X111716000Y-88424000D03*
%TO.P,U1,23*%
%TO.N,PA14*%
X111216000Y-88424000D03*
%TO.P,U1,22*%
%TO.N,PA13*%
X110716000Y-88424000D03*
%TO.P,U1,21*%
%TO.N,PA12*%
X110216000Y-88424000D03*
%TO.P,U1,20*%
%TO.N,PB11*%
X109716000Y-88424000D03*
%TO.P,U1,19*%
%TO.N,PB10*%
X109216000Y-88424000D03*
%TO.P,U1,18*%
%TO.N,GND*%
X108716000Y-88424000D03*
%TO.P,U1,17*%
%TO.N,+3V3*%
X108216000Y-88424000D03*
%TO.P,U1,16*%
%TO.N,PA11*%
X107716000Y-88424000D03*
%TO.P,U1,15*%
%TO.N,PA10*%
X107216000Y-88424000D03*
%TO.P,U1,14*%
%TO.N,PA09*%
X106716000Y-88424000D03*
%TO.P,U1,13*%
%TO.N,PA08*%
X106216000Y-88424000D03*
D13*
%TO.P,U1,12*%
%TO.N,PA07*%
X104616000Y-86824000D03*
%TO.P,U1,11*%
%TO.N,PA06*%
X104616000Y-86324000D03*
%TO.P,U1,10*%
%TO.N,PA05*%
X104616000Y-85824000D03*
%TO.P,U1,9*%
%TO.N,PA04*%
X104616000Y-85324000D03*
%TO.P,U1,8*%
%TO.N,PB09*%
X104616000Y-84824000D03*
%TO.P,U1,7*%
%TO.N,PB08*%
X104616000Y-84324000D03*
%TO.P,U1,6*%
%TO.N,VDDA*%
X104616000Y-83824000D03*
%TO.P,U1,5*%
%TO.N,GND*%
X104616000Y-83324000D03*
%TO.P,U1,4*%
%TO.N,PA03*%
X104616000Y-82824000D03*
%TO.P,U1,3*%
%TO.N,PA02*%
X104616000Y-82324000D03*
%TO.P,U1,2*%
%TO.N,XOUT32*%
X104616000Y-81824000D03*
%TO.P,U1,1*%
%TO.N,XIN32*%
X104616000Y-81324000D03*
%TD*%
D14*
%TO.P,RESET,2*%
%TO.N,GND*%
X100207000Y-90195500D03*
X93007000Y-90195500D03*
%TO.P,RESET,1*%
%TO.N,RESET*%
X100207000Y-87195500D03*
X93007000Y-87195500D03*
%TD*%
%TO.P,R5,2*%
%TO.N,RESET*%
%TA.AperFunction,SMDPad,CuDef*%
G36*
G01*
X97605000Y-85012500D02*
X97975000Y-85012500D01*
G75*
G02*
X98110000Y-85147500I0J-135000D01*
G01*
X98110000Y-85417500D01*
G75*
G02*
X97975000Y-85552500I-135000J0D01*
G01*
X97605000Y-85552500D01*
G75*
G02*
X97470000Y-85417500I0J135000D01*
G01*
X97470000Y-85147500D01*
G75*
G02*
X97605000Y-85012500I135000J0D01*
G01*
G37*
%TD.AperFunction*%
%TO.P,R5,1*%
%TO.N,+3V3*%
%TA.AperFunction,SMDPad,CuDef*%
G36*
G01*
X97605000Y-83992500D02*
X97975000Y-83992500D01*
G75*
G02*
X98110000Y-84127500I0J-135000D01*
G01*
X98110000Y-84397500D01*
G75*
G02*
X97975000Y-84532500I-135000J0D01*
G01*
X97605000Y-84532500D01*
G75*
G02*
X97470000Y-84397500I0J135000D01*
G01*
X97470000Y-84127500D01*
G75*
G02*
X97605000Y-83992500I135000J0D01*
G01*
G37*
%TD.AperFunction*%
%TD*%
%TO.P,R4,2*%
%TO.N,VDD*%
%TA.AperFunction,SMDPad,CuDef*%
G36*
G01*
X91434500Y-82500500D02*
X91064500Y-82500500D01*
G75*
G02*
X90929500Y-82365500I0J135000D01*
G01*
X90929500Y-82095500D01*
G75*
G02*
X91064500Y-81960500I135000J0D01*
G01*
X91434500Y-81960500D01*
G75*
G02*
X91569500Y-82095500I0J-135000D01*
G01*
X91569500Y-82365500D01*
G75*
G02*
X91434500Y-82500500I-135000J0D01*
G01*
G37*
%TD.AperFunction*%
%TO.P,R4,1*%
%TO.N,Net-(R4-Pad1)*%
%TA.AperFunction,SMDPad,CuDef*%
G36*
G01*
X91434500Y-83520500D02*
X91064500Y-83520500D01*
G75*
G02*
X90929500Y-83385500I0J135000D01*
G01*
X90929500Y-83115500D01*
G75*
G02*
X91064500Y-82980500I135000J0D01*
G01*
X91434500Y-82980500D01*
G75*
G02*
X91569500Y-83115500I0J-135000D01*
G01*
X91569500Y-83385500D01*
G75*
G02*
X91434500Y-83520500I-135000J0D01*
G01*
G37*
%TD.AperFunction*%
%TD*%
%TO.P,R3,2*%
%TO.N,Net-(D1-Pad2)*%
%TA.AperFunction,SMDPad,CuDef*%
G36*
G01*
X85104000Y-77793000D02*
X85104000Y-78163000D01*
G75*
G02*
X84969000Y-78298000I-135000J0D01*
G01*
X84699000Y-78298000D01*
G75*
G02*
X84564000Y-78163000I0J135000D01*
G01*
X84564000Y-77793000D01*
G75*
G02*
X84699000Y-77658000I135000J0D01*
G01*
X84969000Y-77658000D01*
G75*
G02*
X85104000Y-77793000I0J-135000D01*
G01*
G37*
%TD.AperFunction*%
%TO.P,R3,1*%
%TO.N,+3V3*%
%TA.AperFunction,SMDPad,CuDef*%
G36*
G01*
X86124000Y-77793000D02*
X86124000Y-78163000D01*
G75*
G02*
X85989000Y-78298000I-135000J0D01*
G01*
X85719000Y-78298000D01*
G75*
G02*
X85584000Y-78163000I0J135000D01*
G01*
X85584000Y-77793000D01*
G75*
G02*
X85719000Y-77658000I135000J0D01*
G01*
X85989000Y-77658000D01*
G75*
G02*
X86124000Y-77793000I0J-135000D01*
G01*
G37*
%TD.AperFunction*%
%TD*%
%TO.P,R2,2*%
%TO.N,GND*%
%TA.AperFunction,SMDPad,CuDef*%
G36*
G01*
X90475500Y-86481500D02*
X90475500Y-86111500D01*
G75*
G02*
X90610500Y-85976500I135000J0D01*
G01*
X90880500Y-85976500D01*
G75*
G02*
X91015500Y-86111500I0J-135000D01*
G01*
X91015500Y-86481500D01*
G75*
G02*
X90880500Y-86616500I-135000J0D01*
G01*
X90610500Y-86616500D01*
G75*
G02*
X90475500Y-86481500I0J135000D01*
G01*
G37*
%TD.AperFunction*%
%TO.P,R2,1*%
%TO.N,Net-(J1-PadA5)*%
%TA.AperFunction,SMDPad,CuDef*%
G36*
G01*
X89455500Y-86481500D02*
X89455500Y-86111500D01*
G75*
G02*
X89590500Y-85976500I135000J0D01*
G01*
X89860500Y-85976500D01*
G75*
G02*
X89995500Y-86111500I0J-135000D01*
G01*
X89995500Y-86481500D01*
G75*
G02*
X89860500Y-86616500I-135000J0D01*
G01*
X89590500Y-86616500D01*
G75*
G02*
X89455500Y-86481500I0J135000D01*
G01*
G37*
%TD.AperFunction*%
%TD*%
%TO.P,R1,2*%
%TO.N,GND*%
%TA.AperFunction,SMDPad,CuDef*%
G36*
G01*
X90473500Y-87942000D02*
X90473500Y-87572000D01*
G75*
G02*
X90608500Y-87437000I135000J0D01*
G01*
X90878500Y-87437000D01*
G75*
G02*
X91013500Y-87572000I0J-135000D01*
G01*
X91013500Y-87942000D01*
G75*
G02*
X90878500Y-88077000I-135000J0D01*
G01*
X90608500Y-88077000D01*
G75*
G02*
X90473500Y-87942000I0J135000D01*
G01*
G37*
%TD.AperFunction*%
%TO.P,R1,1*%
%TO.N,Net-(J1-PadB5)*%
%TA.AperFunction,SMDPad,CuDef*%
G36*
G01*
X89453500Y-87942000D02*
X89453500Y-87572000D01*
G75*
G02*
X89588500Y-87437000I135000J0D01*
G01*
X89858500Y-87437000D01*
G75*
G02*
X89993500Y-87572000I0J-135000D01*
G01*
X89993500Y-87942000D01*
G75*
G02*
X89858500Y-88077000I-135000J0D01*
G01*
X89588500Y-88077000D01*
G75*
G02*
X89453500Y-87942000I0J135000D01*
G01*
G37*
%TD.AperFunction*%
%TD*%
%TO.P,L1,2*%
%TO.N,VDDA*%
%TA.AperFunction,SMDPad,CuDef*%
G36*
G01*
X101886500Y-84076250D02*
X101886500Y-83563750D01*
G75*
G02*
X102105250Y-83345000I218750J0D01*
G01*
X102542750Y-83345000D01*
G75*
G02*
X102761500Y-83563750I0J-218750D01*
G01*
X102761500Y-84076250D01*
G75*
G02*
X102542750Y-84295000I-218750J0D01*
G01*
X102105250Y-84295000D01*
G75*
G02*
X101886500Y-84076250I0J218750D01*
G01*
G37*
%TD.AperFunction*%
%TO.P,L1,1*%
%TO.N,+3V3*%
%TA.AperFunction,SMDPad,CuDef*%
G36*
G01*
X100311500Y-84076250D02*
X100311500Y-83563750D01*
G75*
G02*
X100530250Y-83345000I218750J0D01*
G01*
X100967750Y-83345000D01*
G75*
G02*
X101186500Y-83563750I0J-218750D01*
G01*
X101186500Y-84076250D01*
G75*
G02*
X100967750Y-84295000I-218750J0D01*
G01*
X100530250Y-84295000D01*
G75*
G02*
X100311500Y-84076250I0J218750D01*
G01*
G37*
%TD.AperFunction*%
%TD*%
D15*
%TO.P,DEBUG,10*%
%TO.N,RESET*%
X124587000Y-87185500D03*
%TO.P,DEBUG,9*%
%TO.N,Net-(J4-Pad9)*%
X123317000Y-87185500D03*
%TO.P,DEBUG,8*%
%TO.N,Net-(J4-Pad8)*%
X124587000Y-85915500D03*
%TO.P,DEBUG,7*%
%TO.N,Net-(J4-Pad7)*%
X123317000Y-85915500D03*
%TO.P,DEBUG,6*%
%TO.N,Net-(J4-Pad6)*%
X124587000Y-84645500D03*
%TO.P,DEBUG,5*%
%TO.N,GND*%
X123317000Y-84645500D03*
%TO.P,DEBUG,4*%
%TO.N,SWCLK*%
X124587000Y-83375500D03*
%TO.P,DEBUG,3*%
%TO.N,GND*%
X123317000Y-83375500D03*
%TO.P,DEBUG,2*%
%TO.N,SWDIO*%
X124587000Y-82105500D03*
D16*
%TO.P,DEBUG,1*%
%TO.N,+3V3*%
X123317000Y-82105500D03*
%TD*%
D17*
%TO.P,J3,17*%
%TO.N,GND*%
X124460000Y-73660000D03*
%TO.P,J3,16*%
%TO.N,+3V3*%
X121920000Y-73660000D03*
%TO.P,J3,15*%
%TO.N,PA17*%
X119380000Y-73660000D03*
%TO.P,J3,14*%
%TO.N,PA18*%
X116840000Y-73660000D03*
%TO.P,J3,13*%
%TO.N,PA19*%
X114300000Y-73660000D03*
%TO.P,J3,12*%
%TO.N,PA20*%
X111760000Y-73660000D03*
%TO.P,J3,11*%
%TO.N,PA21*%
X109220000Y-73660000D03*
%TO.P,J3,10*%
%TO.N,PA22*%
X106680000Y-73660000D03*
%TO.P,J3,9*%
%TO.N,PA23*%
X104140000Y-73660000D03*
%TO.P,J3,8*%
%TO.N,PB22*%
X101600000Y-73660000D03*
%TO.P,J3,7*%
%TO.N,PB23*%
X99060000Y-73660000D03*
%TO.P,J3,6*%
%TO.N,PA27*%
X96520000Y-73660000D03*
%TO.P,J3,5*%
%TO.N,PA28*%
X93980000Y-73660000D03*
%TO.P,J3,4*%
%TO.N,PB02*%
X91440000Y-73660000D03*
%TO.P,J3,3*%
%TO.N,PB03*%
X88900000Y-73660000D03*
%TO.P,J3,2*%
%TO.N,PA02*%
X86360000Y-73660000D03*
D18*
%TO.P,J3,1*%
%TO.N,PA03*%
X83820000Y-73660000D03*
%TD*%
D17*
%TO.P,J2,17*%
%TO.N,PA16*%
X124460000Y-96520000D03*
%TO.P,J2,16*%
%TO.N,PA15*%
X121920000Y-96520000D03*
%TO.P,J2,15*%
%TO.N,PA14*%
X119380000Y-96520000D03*
%TO.P,J2,14*%
%TO.N,PA13*%
X116840000Y-96520000D03*
%TO.P,J2,13*%
%TO.N,PA12*%
X114300000Y-96520000D03*
%TO.P,J2,12*%
%TO.N,PB11*%
X111760000Y-96520000D03*
%TO.P,J2,11*%
%TO.N,PB10*%
X109220000Y-96520000D03*
%TO.P,J2,10*%
%TO.N,PA11*%
X106680000Y-96520000D03*
%TO.P,J2,9*%
%TO.N,PA10*%
X104140000Y-96520000D03*
%TO.P,J2,8*%
%TO.N,PA09*%
X101600000Y-96520000D03*
%TO.P,J2,7*%
%TO.N,PA08*%
X99060000Y-96520000D03*
%TO.P,J2,6*%
%TO.N,PA05*%
X96520000Y-96520000D03*
%TO.P,J2,5*%
%TO.N,PA07*%
X93980000Y-96520000D03*
%TO.P,J2,4*%
%TO.N,PA06*%
X91440000Y-96520000D03*
%TO.P,J2,3*%
%TO.N,PA04*%
X88900000Y-96520000D03*
%TO.P,J2,2*%
%TO.N,PB09*%
X86360000Y-96520000D03*
D18*
%TO.P,J2,1*%
%TO.N,PB08*%
X83820000Y-96520000D03*
%TD*%
D19*
%TO.P,J1,B1*%
%TO.N,GND*%
X86058000Y-88440000D03*
%TO.P,J1,B4*%
%TO.N,VDD*%
X86058000Y-87640000D03*
D20*
%TO.P,J1,B12*%
%TO.N,GND*%
X86089750Y-82040000D03*
D19*
%TO.P,J1,B9*%
%TO.N,VDD*%
X86058000Y-82840000D03*
D21*
%TO.P,J1,S1*%
%TO.N,GND*%
X81303000Y-89410000D03*
X81303000Y-80770000D03*
D22*
X85483000Y-80770000D03*
X85483000Y-89410000D03*
D19*
%TO.P,J1,B5*%
%TO.N,Net-(J1-PadB5)*%
X86058000Y-86840000D03*
%TO.P,J1,A8*%
%TO.N,Net-(J1-PadA8)*%
X86058000Y-86340000D03*
%TO.P,J1,B6*%
%TO.N,D+*%
X86058000Y-85840000D03*
%TO.P,J1,A7*%
%TO.N,D-*%
X86058000Y-85340000D03*
%TO.P,J1,A6*%
%TO.N,D+*%
X86058000Y-84840000D03*
%TO.P,J1,B7*%
%TO.N,D-*%
X86058000Y-84340000D03*
%TO.P,J1,A5*%
%TO.N,Net-(J1-PadA5)*%
X86058000Y-83840000D03*
%TO.P,J1,B8*%
%TO.N,Net-(J1-PadB8)*%
X86058000Y-83340000D03*
D20*
%TO.P,J1,A12*%
%TO.N,GND*%
X86089750Y-88140000D03*
D19*
%TO.P,J1,A9*%
%TO.N,VDD*%
X86058000Y-87340000D03*
%TO.P,J1,A4*%
X86058000Y-82540000D03*
%TO.P,J1,A1*%
%TO.N,GND*%
X86058000Y-81740000D03*
%TD*%
%TO.P,D1,2*%
%TO.N,Net-(D1-Pad2)*%
%TA.AperFunction,SMDPad,CuDef*%
G36*
G01*
X82265000Y-78234250D02*
X82265000Y-77721750D01*
G75*
G02*
X82483750Y-77503000I218750J0D01*
G01*
X82921250Y-77503000D01*
G75*
G02*
X83140000Y-77721750I0J-218750D01*
G01*
X83140000Y-78234250D01*
G75*
G02*
X82921250Y-78453000I-218750J0D01*
G01*
X82483750Y-78453000D01*
G75*
G02*
X82265000Y-78234250I0J218750D01*
G01*
G37*
%TD.AperFunction*%
%TO.P,D1,1*%
%TO.N,GND*%
%TA.AperFunction,SMDPad,CuDef*%
G36*
G01*
X80690000Y-78234250D02*
X80690000Y-77721750D01*
G75*
G02*
X80908750Y-77503000I218750J0D01*
G01*
X81346250Y-77503000D01*
G75*
G02*
X81565000Y-77721750I0J-218750D01*
G01*
X81565000Y-78234250D01*
G75*
G02*
X81346250Y-78453000I-218750J0D01*
G01*
X80908750Y-78453000D01*
G75*
G02*
X80690000Y-78234250I0J218750D01*
G01*
G37*
%TD.AperFunction*%
%TD*%
%TO.P,C10,2*%
%TO.N,GND*%
%TA.AperFunction,SMDPad,CuDef*%
G36*
G01*
X101082500Y-85110500D02*
X101082500Y-85450500D01*
G75*
G02*
X100942500Y-85590500I-140000J0D01*
G01*
X100662500Y-85590500D01*
G75*
G02*
X100522500Y-85450500I0J140000D01*
G01*
X100522500Y-85110500D01*
G75*
G02*
X100662500Y-84970500I140000J0D01*
G01*
X100942500Y-84970500D01*
G75*
G02*
X101082500Y-85110500I0J-140000D01*
G01*
G37*
%TD.AperFunction*%
%TO.P,C10,1*%
%TO.N,VDDA*%
%TA.AperFunction,SMDPad,CuDef*%
G36*
G01*
X102042500Y-85110500D02*
X102042500Y-85450500D01*
G75*
G02*
X101902500Y-85590500I-140000J0D01*
G01*
X101622500Y-85590500D01*
G75*
G02*
X101482500Y-85450500I0J140000D01*
G01*
X101482500Y-85110500D01*
G75*
G02*
X101622500Y-84970500I140000J0D01*
G01*
X101902500Y-84970500D01*
G75*
G02*
X102042500Y-85110500I0J-140000D01*
G01*
G37*
%TD.AperFunction*%
%TD*%
%TO.P,C9,2*%
%TO.N,GND*%
%TA.AperFunction,SMDPad,CuDef*%
G36*
G01*
X108785000Y-90721000D02*
X108785000Y-90381000D01*
G75*
G02*
X108925000Y-90241000I140000J0D01*
G01*
X109205000Y-90241000D01*
G75*
G02*
X109345000Y-90381000I0J-140000D01*
G01*
X109345000Y-90721000D01*
G75*
G02*
X109205000Y-90861000I-140000J0D01*
G01*
X108925000Y-90861000D01*
G75*
G02*
X108785000Y-90721000I0J140000D01*
G01*
G37*
%TD.AperFunction*%
%TO.P,C9,1*%
%TO.N,+3V3*%
%TA.AperFunction,SMDPad,CuDef*%
G36*
G01*
X107825000Y-90721000D02*
X107825000Y-90381000D01*
G75*
G02*
X107965000Y-90241000I140000J0D01*
G01*
X108245000Y-90241000D01*
G75*
G02*
X108385000Y-90381000I0J-140000D01*
G01*
X108385000Y-90721000D01*
G75*
G02*
X108245000Y-90861000I-140000J0D01*
G01*
X107965000Y-90861000D01*
G75*
G02*
X107825000Y-90721000I0J140000D01*
G01*
G37*
%TD.AperFunction*%
%TD*%
%TO.P,C8,2*%
%TO.N,GND*%
%TA.AperFunction,SMDPad,CuDef*%
G36*
G01*
X115527000Y-81353000D02*
X115867000Y-81353000D01*
G75*
G02*
X116007000Y-81493000I0J-140000D01*
G01*
X116007000Y-81773000D01*
G75*
G02*
X115867000Y-81913000I-140000J0D01*
G01*
X115527000Y-81913000D01*
G75*
G02*
X115387000Y-81773000I0J140000D01*
G01*
X115387000Y-81493000D01*
G75*
G02*
X115527000Y-81353000I140000J0D01*
G01*
G37*
%TD.AperFunction*%
%TO.P,C8,1*%
%TO.N,+3V3*%
%TA.AperFunction,SMDPad,CuDef*%
G36*
G01*
X115527000Y-80393000D02*
X115867000Y-80393000D01*
G75*
G02*
X116007000Y-80533000I0J-140000D01*
G01*
X116007000Y-80813000D01*
G75*
G02*
X115867000Y-80953000I-140000J0D01*
G01*
X115527000Y-80953000D01*
G75*
G02*
X115387000Y-80813000I0J140000D01*
G01*
X115387000Y-80533000D01*
G75*
G02*
X115527000Y-80393000I140000J0D01*
G01*
G37*
%TD.AperFunction*%
%TD*%
%TO.P,C7,2*%
%TO.N,GND*%
%TA.AperFunction,SMDPad,CuDef*%
G36*
G01*
X108975500Y-78021000D02*
X108975500Y-77681000D01*
G75*
G02*
X109115500Y-77541000I140000J0D01*
G01*
X109395500Y-77541000D01*
G75*
G02*
X109535500Y-77681000I0J-140000D01*
G01*
X109535500Y-78021000D01*
G75*
G02*
X109395500Y-78161000I-140000J0D01*
G01*
X109115500Y-78161000D01*
G75*
G02*
X108975500Y-78021000I0J140000D01*
G01*
G37*
%TD.AperFunction*%
%TO.P,C7,1*%
%TO.N,Net-(C7-Pad1)*%
%TA.AperFunction,SMDPad,CuDef*%
G36*
G01*
X108015500Y-78021000D02*
X108015500Y-77681000D01*
G75*
G02*
X108155500Y-77541000I140000J0D01*
G01*
X108435500Y-77541000D01*
G75*
G02*
X108575500Y-77681000I0J-140000D01*
G01*
X108575500Y-78021000D01*
G75*
G02*
X108435500Y-78161000I-140000J0D01*
G01*
X108155500Y-78161000D01*
G75*
G02*
X108015500Y-78021000I0J140000D01*
G01*
G37*
%TD.AperFunction*%
%TD*%
%TO.P,C6,2*%
%TO.N,GND*%
%TA.AperFunction,SMDPad,CuDef*%
G36*
G01*
X106480000Y-77681000D02*
X106480000Y-78021000D01*
G75*
G02*
X106340000Y-78161000I-140000J0D01*
G01*
X106060000Y-78161000D01*
G75*
G02*
X105920000Y-78021000I0J140000D01*
G01*
X105920000Y-77681000D01*
G75*
G02*
X106060000Y-77541000I140000J0D01*
G01*
X106340000Y-77541000D01*
G75*
G02*
X106480000Y-77681000I0J-140000D01*
G01*
G37*
%TD.AperFunction*%
%TO.P,C6,1*%
%TO.N,+3V3*%
%TA.AperFunction,SMDPad,CuDef*%
G36*
G01*
X107440000Y-77681000D02*
X107440000Y-78021000D01*
G75*
G02*
X107300000Y-78161000I-140000J0D01*
G01*
X107020000Y-78161000D01*
G75*
G02*
X106880000Y-78021000I0J140000D01*
G01*
X106880000Y-77681000D01*
G75*
G02*
X107020000Y-77541000I140000J0D01*
G01*
X107300000Y-77541000D01*
G75*
G02*
X107440000Y-77681000I0J-140000D01*
G01*
G37*
%TD.AperFunction*%
%TD*%
%TO.P,C5,2*%
%TO.N,GND*%
%TA.AperFunction,SMDPad,CuDef*%
G36*
G01*
X99514000Y-85450500D02*
X99514000Y-85110500D01*
G75*
G02*
X99654000Y-84970500I140000J0D01*
G01*
X99934000Y-84970500D01*
G75*
G02*
X100074000Y-85110500I0J-140000D01*
G01*
X100074000Y-85450500D01*
G75*
G02*
X99934000Y-85590500I-140000J0D01*
G01*
X99654000Y-85590500D01*
G75*
G02*
X99514000Y-85450500I0J140000D01*
G01*
G37*
%TD.AperFunction*%
%TO.P,C5,1*%
%TO.N,RESET*%
%TA.AperFunction,SMDPad,CuDef*%
G36*
G01*
X98554000Y-85450500D02*
X98554000Y-85110500D01*
G75*
G02*
X98694000Y-84970500I140000J0D01*
G01*
X98974000Y-84970500D01*
G75*
G02*
X99114000Y-85110500I0J-140000D01*
G01*
X99114000Y-85450500D01*
G75*
G02*
X98974000Y-85590500I-140000J0D01*
G01*
X98694000Y-85590500D01*
G75*
G02*
X98554000Y-85450500I0J140000D01*
G01*
G37*
%TD.AperFunction*%
%TD*%
%TO.P,C4,2*%
%TO.N,GND*%
%TA.AperFunction,SMDPad,CuDef*%
G36*
G01*
X97620000Y-83067500D02*
X97960000Y-83067500D01*
G75*
G02*
X98100000Y-83207500I0J-140000D01*
G01*
X98100000Y-83487500D01*
G75*
G02*
X97960000Y-83627500I-140000J0D01*
G01*
X97620000Y-83627500D01*
G75*
G02*
X97480000Y-83487500I0J140000D01*
G01*
X97480000Y-83207500D01*
G75*
G02*
X97620000Y-83067500I140000J0D01*
G01*
G37*
%TD.AperFunction*%
%TO.P,C4,1*%
%TO.N,+3V3*%
%TA.AperFunction,SMDPad,CuDef*%
G36*
G01*
X97620000Y-82107500D02*
X97960000Y-82107500D01*
G75*
G02*
X98100000Y-82247500I0J-140000D01*
G01*
X98100000Y-82527500D01*
G75*
G02*
X97960000Y-82667500I-140000J0D01*
G01*
X97620000Y-82667500D01*
G75*
G02*
X97480000Y-82527500I0J140000D01*
G01*
X97480000Y-82247500D01*
G75*
G02*
X97620000Y-82107500I140000J0D01*
G01*
G37*
%TD.AperFunction*%
%TD*%
%TO.P,C3,2*%
%TO.N,GND*%
%TA.AperFunction,SMDPad,CuDef*%
G36*
G01*
X89428500Y-82940500D02*
X89768500Y-82940500D01*
G75*
G02*
X89908500Y-83080500I0J-140000D01*
G01*
X89908500Y-83360500D01*
G75*
G02*
X89768500Y-83500500I-140000J0D01*
G01*
X89428500Y-83500500D01*
G75*
G02*
X89288500Y-83360500I0J140000D01*
G01*
X89288500Y-83080500D01*
G75*
G02*
X89428500Y-82940500I140000J0D01*
G01*
G37*
%TD.AperFunction*%
%TO.P,C3,1*%
%TO.N,VDD*%
%TA.AperFunction,SMDPad,CuDef*%
G36*
G01*
X89428500Y-81980500D02*
X89768500Y-81980500D01*
G75*
G02*
X89908500Y-82120500I0J-140000D01*
G01*
X89908500Y-82400500D01*
G75*
G02*
X89768500Y-82540500I-140000J0D01*
G01*
X89428500Y-82540500D01*
G75*
G02*
X89288500Y-82400500I0J140000D01*
G01*
X89288500Y-82120500D01*
G75*
G02*
X89428500Y-81980500I140000J0D01*
G01*
G37*
%TD.AperFunction*%
%TD*%
%TO.P,C2,2*%
%TO.N,GND*%
%TA.AperFunction,SMDPad,CuDef*%
G36*
G01*
X99525000Y-80527500D02*
X99865000Y-80527500D01*
G75*
G02*
X100005000Y-80667500I0J-140000D01*
G01*
X100005000Y-80947500D01*
G75*
G02*
X99865000Y-81087500I-140000J0D01*
G01*
X99525000Y-81087500D01*
G75*
G02*
X99385000Y-80947500I0J140000D01*
G01*
X99385000Y-80667500D01*
G75*
G02*
X99525000Y-80527500I140000J0D01*
G01*
G37*
%TD.AperFunction*%
%TO.P,C2,1*%
%TO.N,XOUT32*%
%TA.AperFunction,SMDPad,CuDef*%
G36*
G01*
X99525000Y-79567500D02*
X99865000Y-79567500D01*
G75*
G02*
X100005000Y-79707500I0J-140000D01*
G01*
X100005000Y-79987500D01*
G75*
G02*
X99865000Y-80127500I-140000J0D01*
G01*
X99525000Y-80127500D01*
G75*
G02*
X99385000Y-79987500I0J140000D01*
G01*
X99385000Y-79707500D01*
G75*
G02*
X99525000Y-79567500I140000J0D01*
G01*
G37*
%TD.AperFunction*%
%TD*%
%TO.P,C1,2*%
%TO.N,GND*%
%TA.AperFunction,SMDPad,CuDef*%
G36*
G01*
X98382000Y-79575000D02*
X98722000Y-79575000D01*
G75*
G02*
X98862000Y-79715000I0J-140000D01*
G01*
X98862000Y-79995000D01*
G75*
G02*
X98722000Y-80135000I-140000J0D01*
G01*
X98382000Y-80135000D01*
G75*
G02*
X98242000Y-79995000I0J140000D01*
G01*
X98242000Y-79715000D01*
G75*
G02*
X98382000Y-79575000I140000J0D01*
G01*
G37*
%TD.AperFunction*%
%TO.P,C1,1*%
%TO.N,XIN32*%
%TA.AperFunction,SMDPad,CuDef*%
G36*
G01*
X98382000Y-78615000D02*
X98722000Y-78615000D01*
G75*
G02*
X98862000Y-78755000I0J-140000D01*
G01*
X98862000Y-79035000D01*
G75*
G02*
X98722000Y-79175000I-140000J0D01*
G01*
X98382000Y-79175000D01*
G75*
G02*
X98242000Y-79035000I0J140000D01*
G01*
X98242000Y-78755000D01*
G75*
G02*
X98382000Y-78615000I140000J0D01*
G01*
G37*
%TD.AperFunction*%
%TD*%
D23*
%TO.N,GND*%
X109220000Y-81280000D03*
X104902000Y-78168500D03*
X96647000Y-86487000D03*
X108204000Y-91948000D03*
X106041011Y-83950989D03*
X97155000Y-78803500D03*
X97688500Y-90195500D03*
%TO.N,+3V3*%
X114236500Y-80264000D03*
X106553000Y-86677500D03*
X121602500Y-82105500D03*
X99250500Y-83693000D03*
%TO.N,RESET*%
X120396000Y-77025500D03*
X112649000Y-79311500D03*
X95123000Y-88328500D03*
%TO.N,D+*%
X111696500Y-85407500D03*
X87847001Y-85815001D03*
%TO.N,D-*%
X111696500Y-84328000D03*
X84429999Y-84429999D03*
%TO.N,SWCLK*%
X106426000Y-82359500D03*
X120396000Y-79438500D03*
%TO.N,SWDIO*%
X106426000Y-81280000D03*
X121475500Y-79438500D03*
%TD*%
D24*
%TO.N,GND*%
X98552000Y-79855000D02*
X98587500Y-79855000D01*
X98587500Y-79855000D02*
X99568000Y-80835500D01*
X109255500Y-77851000D02*
X109255500Y-79339500D01*
X98897500Y-86487000D02*
X96647000Y-86487000D01*
X99794000Y-85590500D02*
X98897500Y-86487000D01*
X99794000Y-85280500D02*
X99794000Y-85590500D01*
X108716000Y-88424000D02*
X108716000Y-90174000D01*
X108716000Y-90174000D02*
X109029500Y-90487500D01*
X105219500Y-77851000D02*
X104902000Y-78168500D01*
X106200000Y-77851000D02*
X105219500Y-77851000D01*
X113316000Y-81824000D02*
X115343500Y-81824000D01*
X115343500Y-81824000D02*
X115633500Y-81534000D01*
X123317000Y-84645500D02*
X123317000Y-83375500D01*
X99794000Y-85280500D02*
X100711000Y-85280500D01*
X97790000Y-83347500D02*
X93380500Y-83347500D01*
X93380500Y-83347500D02*
X93218000Y-83185000D01*
X105526001Y-83373999D02*
X106041011Y-83889009D01*
X104646499Y-83373999D02*
X105526001Y-83373999D01*
X104616000Y-83343500D02*
X104646499Y-83373999D01*
X104616000Y-83324000D02*
X104616000Y-83343500D01*
X106041011Y-83889009D02*
X106041011Y-83950989D01*
X109216000Y-81276000D02*
X109220000Y-81280000D01*
X109216000Y-79724000D02*
X109216000Y-81276000D01*
X110521489Y-83485689D02*
X110521489Y-86708989D01*
X112183178Y-81824000D02*
X110521489Y-83485689D01*
X113316000Y-81824000D02*
X112183178Y-81824000D01*
X110521489Y-86708989D02*
X110521489Y-86708989D01*
X110521489Y-86708989D02*
X109781479Y-87448999D01*
X89397956Y-88402010D02*
X90159990Y-88402010D01*
X89135946Y-88140000D02*
X89397956Y-88402010D01*
X86089750Y-88140000D02*
X89135946Y-88140000D01*
X90159990Y-88402010D02*
X90741500Y-87820500D01*
X90741500Y-87820500D02*
X92964000Y-90043000D01*
X90745500Y-86296500D02*
X90745500Y-87753000D01*
X90745500Y-86296500D02*
X90745500Y-84395500D01*
X90745500Y-84395500D02*
X89725500Y-83375500D01*
X94052501Y-83549999D02*
X93814502Y-83312000D01*
X94052501Y-84720001D02*
X94052501Y-83549999D01*
X93987501Y-84785001D02*
X94052501Y-84720001D01*
X91389001Y-84785001D02*
X93987501Y-84785001D01*
X89979500Y-83375500D02*
X91389001Y-84785001D01*
X89725500Y-83375500D02*
X89979500Y-83375500D01*
X93814502Y-83312000D02*
X93281500Y-83312000D01*
X86089750Y-82040000D02*
X86089750Y-81327250D01*
X86089750Y-81327250D02*
X85534500Y-80772000D01*
X86058000Y-88440000D02*
X86058000Y-88821000D01*
X86058000Y-88821000D02*
X85471000Y-89408000D01*
X81127500Y-77978000D02*
X81127500Y-80543500D01*
X81927510Y-78778010D02*
X85572510Y-78778010D01*
X81127500Y-77978000D02*
X81927510Y-78778010D01*
X85572510Y-78778010D02*
X87058500Y-80264000D01*
X87058500Y-80264000D02*
X87058500Y-81026000D01*
X87058500Y-81026000D02*
X86169500Y-81915000D01*
X108830999Y-87448999D02*
X108712000Y-87567998D01*
X109781479Y-87448999D02*
X108830999Y-87448999D01*
X108712000Y-87567998D02*
X108712000Y-88265000D01*
X98552000Y-79855000D02*
X98206500Y-79855000D01*
X98206500Y-79855000D02*
X97155000Y-78803500D01*
X97155000Y-78803500D02*
X97155000Y-78803500D01*
X108710010Y-91441990D02*
X108710010Y-90933990D01*
X108204000Y-91948000D02*
X108710010Y-91441990D01*
X108710010Y-90933990D02*
X109093000Y-90551000D01*
X100207000Y-90195500D02*
X97688500Y-90195500D01*
X97688500Y-90195500D02*
X97688500Y-90195500D01*
X86058000Y-88440000D02*
X86058000Y-88186000D01*
%TO.N,XIN32*%
X101536500Y-78633000D02*
X102947705Y-80044205D01*
X102947705Y-80659205D02*
X103632000Y-81343500D01*
X102947705Y-80044205D02*
X102947705Y-80659205D01*
X103632000Y-81343500D02*
X104648000Y-81343500D01*
X98552000Y-78895000D02*
X101564500Y-78895000D01*
%TO.N,XOUT32*%
X102686500Y-81133000D02*
X103405000Y-81851500D01*
X101536500Y-81133000D02*
X102686500Y-81133000D01*
X103405000Y-81851500D02*
X104648000Y-81851500D01*
X99695000Y-79847500D02*
X100104000Y-79847500D01*
X100104000Y-79847500D02*
X101473000Y-81216500D01*
%TO.N,VDD*%
X86058000Y-82540000D02*
X89227500Y-82540000D01*
X89227500Y-82540000D02*
X89535000Y-82232500D01*
X89535000Y-82232500D02*
X93154500Y-82232500D01*
X83704998Y-84081998D02*
X83704998Y-85797000D01*
X84921997Y-82864999D02*
X83704998Y-84081998D01*
X85410001Y-82864999D02*
X84921997Y-82864999D01*
X83704998Y-85797000D02*
X85283998Y-87376000D01*
X85435000Y-82840000D02*
X85410001Y-82864999D01*
X86058000Y-82840000D02*
X85435000Y-82840000D01*
X85283998Y-87376000D02*
X85979000Y-87376000D01*
X86058000Y-87640000D02*
X86058000Y-87455000D01*
X86058000Y-82540000D02*
X86058000Y-82864999D01*
%TO.N,+3V3*%
X95397500Y-82235000D02*
X97665500Y-82235000D01*
X97665500Y-82235000D02*
X97790000Y-82359500D01*
X98425010Y-82712510D02*
X98425010Y-83692990D01*
X98100000Y-82387500D02*
X98425010Y-82712510D01*
X97790000Y-82387500D02*
X98100000Y-82387500D01*
X98425010Y-83692990D02*
X97853500Y-84264500D01*
X97853500Y-84264500D02*
X98425000Y-83693000D01*
X98425000Y-83693000D02*
X99250500Y-83693000D01*
X108101001Y-78748999D02*
X108204000Y-78851998D01*
X107747999Y-78748999D02*
X108101001Y-78748999D01*
X107160000Y-78161000D02*
X107747999Y-78748999D01*
X107160000Y-77851000D02*
X107160000Y-78161000D01*
X108204000Y-78851998D02*
X108204000Y-79438500D01*
X108216000Y-88424000D02*
X108216000Y-90348500D01*
X108216000Y-90348500D02*
X108077000Y-90487500D01*
X113455000Y-81324000D02*
X113474500Y-81343500D01*
X113316000Y-81324000D02*
X113455000Y-81324000D01*
X113474500Y-81343500D02*
X114935000Y-81343500D01*
X114935000Y-81343500D02*
X115570000Y-80708500D01*
X123317000Y-82105500D02*
X121602500Y-82105500D01*
X119507000Y-76517500D02*
X119482074Y-76492573D01*
X119507000Y-80034926D02*
X119507000Y-76517500D01*
X121577574Y-82105500D02*
X119507000Y-80034926D01*
X119482074Y-76480336D02*
X121920000Y-74042410D01*
X119482074Y-76492573D02*
X119482074Y-76480336D01*
X121920000Y-74042410D02*
X121920000Y-73723500D01*
X109568001Y-82005001D02*
X110423991Y-81149011D01*
X108871999Y-82005001D02*
X109568001Y-82005001D01*
X108216000Y-81349002D02*
X108871999Y-82005001D01*
X108216000Y-79724000D02*
X108216000Y-81349002D01*
X112454511Y-81149011D02*
X112649000Y-81343500D01*
X110423991Y-81149011D02*
X112454511Y-81149011D01*
X112649000Y-81343500D02*
X113157000Y-81343500D01*
X106517500Y-86642000D02*
X106553000Y-86677500D01*
X121602500Y-82105500D02*
X121577574Y-82105500D01*
X85854000Y-77978000D02*
X85854000Y-78423090D01*
X89015909Y-81584999D02*
X94792999Y-81584999D01*
X85854000Y-78423090D02*
X89015909Y-81584999D01*
X94792999Y-81584999D02*
X95377000Y-82169000D01*
X99250500Y-83693000D02*
X100584000Y-83693000D01*
X108101001Y-87448999D02*
X108166001Y-87513999D01*
X107324499Y-87448999D02*
X108101001Y-87448999D01*
X106553000Y-86677500D02*
X107324499Y-87448999D01*
X108166001Y-87513999D02*
X108166001Y-88265000D01*
X106553000Y-84512002D02*
X106553000Y-86677500D01*
X108216000Y-82849002D02*
X106553000Y-84512002D01*
X108216000Y-81349002D02*
X108216000Y-82849002D01*
X114645500Y-80673000D02*
X114236500Y-80264000D01*
X115697000Y-80673000D02*
X114645500Y-80673000D01*
%TO.N,RESET*%
X97790000Y-85282500D02*
X98740500Y-85282500D01*
X125412001Y-86360499D02*
X125412001Y-83186909D01*
X124587000Y-87185500D02*
X125412001Y-86360499D01*
X125862011Y-82736899D02*
X125862011Y-81400585D01*
X125412001Y-83186909D02*
X125862011Y-82736899D01*
X125862011Y-81400585D02*
X122724915Y-78263489D01*
X121633989Y-78263489D02*
X120396000Y-77025500D01*
X122724915Y-78263489D02*
X121633989Y-78263489D01*
X93007000Y-87195500D02*
X93060500Y-87249000D01*
X93007000Y-87195500D02*
X93990000Y-87195500D01*
X96322592Y-88328500D02*
X96709102Y-87941990D01*
X95123000Y-88328500D02*
X95123000Y-88328500D01*
X93990000Y-87195500D02*
X95123000Y-88328500D01*
X96709102Y-87941990D02*
X99446510Y-87941990D01*
X99446510Y-87941990D02*
X100266500Y-87122000D01*
X96778498Y-85282500D02*
X95921999Y-86138999D01*
X97790000Y-85282500D02*
X96778498Y-85282500D01*
X95921999Y-86138999D02*
X94582001Y-86138999D01*
X94582001Y-86138999D02*
X93535500Y-87185500D01*
X95123000Y-88328500D02*
X96322592Y-88328500D01*
X112649000Y-80151002D02*
X112649000Y-79311500D01*
X110330999Y-80699001D02*
X112101001Y-80699001D01*
X110216000Y-80584002D02*
X110330999Y-80699001D01*
X112101001Y-80699001D02*
X112649000Y-80151002D01*
X110216000Y-79724000D02*
X110216000Y-80584002D01*
%TO.N,Net-(C7-Pad1)*%
X108295500Y-78307088D02*
X108712000Y-78723588D01*
X108295500Y-77851000D02*
X108295500Y-78307088D01*
X108712000Y-78723588D02*
X108712000Y-79565500D01*
%TO.N,VDDA*%
X101762500Y-85280500D02*
X101762500Y-84419500D01*
X101762500Y-84419500D02*
X102362000Y-83820000D01*
X102362000Y-83820000D02*
X104584500Y-83820000D01*
%TO.N,Net-(D1-Pad2)*%
X84834000Y-77978000D02*
X82740500Y-77978000D01*
%TO.N,Net-(J1-PadB5)*%
X86285999Y-86815001D02*
X88783501Y-86815001D01*
X86261000Y-86840000D02*
X86285999Y-86815001D01*
X86058000Y-86840000D02*
X86261000Y-86840000D01*
X88783501Y-86815001D02*
X89725500Y-87757000D01*
%TO.N,D+*%
X86958001Y-85750001D02*
X86893001Y-85815001D01*
X86958001Y-84915001D02*
X86958001Y-85750001D01*
X86883000Y-84840000D02*
X86958001Y-84915001D01*
X86058000Y-84840000D02*
X86883000Y-84840000D01*
X86893001Y-85815001D02*
X85979000Y-85815001D01*
X110971499Y-83672089D02*
X110971499Y-84682499D01*
X112226098Y-82417490D02*
X110971499Y-83672089D01*
X112400510Y-82417490D02*
X112226098Y-82417490D01*
X110971499Y-84682499D02*
X111696500Y-85407500D01*
X112494000Y-82324000D02*
X112400510Y-82417490D01*
X113316000Y-82324000D02*
X112494000Y-82324000D01*
X86893001Y-85815001D02*
X87847001Y-85815001D01*
X87847001Y-85815001D02*
X87847001Y-85815001D01*
%TO.N,D-*%
X85157999Y-85250001D02*
X85157999Y-84429999D01*
X85247998Y-85340000D02*
X85157999Y-85250001D01*
X85157999Y-84429999D02*
X85222999Y-84364999D01*
X86058000Y-85340000D02*
X85247998Y-85340000D01*
X85222999Y-84364999D02*
X85979000Y-84364999D01*
X111696500Y-83583498D02*
X112412498Y-82867500D01*
X111696500Y-84328000D02*
X111696500Y-83583498D01*
X112412498Y-82867500D02*
X112839500Y-82867500D01*
X85157999Y-84429999D02*
X84429999Y-84429999D01*
X84429999Y-84429999D02*
X84429999Y-84429999D01*
%TO.N,Net-(J1-PadA5)*%
X86058000Y-83840000D02*
X87269000Y-83840000D01*
X87269000Y-83840000D02*
X89662000Y-86233000D01*
%TO.N,PA18*%
X116840000Y-73660000D02*
X116840000Y-77666331D01*
X118582055Y-82897621D02*
X115685666Y-85794010D01*
X118582056Y-79408388D02*
X118582055Y-82897621D01*
X116840000Y-77666331D02*
X118582056Y-79408388D01*
X115685666Y-85794010D02*
X113220500Y-85794010D01*
%TO.N,PA17*%
X119380000Y-73660000D02*
X119380000Y-75946000D01*
X119032064Y-83084022D02*
X115819586Y-86296500D01*
X119032065Y-76293935D02*
X119032064Y-83084022D01*
X119380000Y-75946000D02*
X119032065Y-76293935D01*
X115819586Y-86296500D02*
X113157000Y-86296500D01*
%TO.N,PA16*%
X112416000Y-86824000D02*
X112166001Y-87073999D01*
X113316000Y-86824000D02*
X112416000Y-86824000D01*
X112166001Y-88865915D02*
X112370070Y-89069984D01*
X112166001Y-87073999D02*
X112166001Y-88865915D01*
X112370070Y-89069984D02*
X112370070Y-91921660D01*
X113553925Y-93105515D02*
X121109015Y-93105515D01*
X112370070Y-91921660D02*
X113553925Y-93105515D01*
X121109015Y-93105515D02*
X124460000Y-96456500D01*
%TO.N,PA15*%
X111716000Y-89052324D02*
X111920060Y-89256384D01*
X111716000Y-88424000D02*
X111716000Y-89052324D01*
X113367525Y-93555525D02*
X119146025Y-93555525D01*
X111920060Y-92108060D02*
X113367525Y-93555525D01*
X111920060Y-89256384D02*
X111920060Y-92108060D01*
X119146025Y-93555525D02*
X122110500Y-96520000D01*
%TO.N,PA14*%
X111470050Y-89442784D02*
X111470050Y-92353730D01*
X111216000Y-89188734D02*
X111470050Y-89442784D01*
X111216000Y-88424000D02*
X111216000Y-89188734D01*
X113121855Y-94005535D02*
X117246535Y-94005535D01*
X111470050Y-92353730D02*
X113121855Y-94005535D01*
X117246535Y-94005535D02*
X119380000Y-96139000D01*
%TO.N,PA13*%
X111020040Y-89629184D02*
X111020040Y-92540130D01*
X110716000Y-89325144D02*
X111020040Y-89629184D01*
X110716000Y-88424000D02*
X110716000Y-89325144D01*
X111020040Y-92540130D02*
X112935455Y-94455545D01*
X112935455Y-94455545D02*
X114839045Y-94455545D01*
X114839045Y-94455545D02*
X116903500Y-96520000D01*
%TO.N,PA12*%
X110216000Y-89461554D02*
X110570030Y-89815584D01*
X110216000Y-88424000D02*
X110216000Y-89461554D01*
X110570030Y-89815584D02*
X110570030Y-92726530D01*
X110570030Y-92726530D02*
X114173000Y-96329500D01*
%TO.N,PA11*%
X107716000Y-89596820D02*
X106819810Y-90493010D01*
X107716000Y-88424000D02*
X107716000Y-89596820D01*
X106819810Y-90493010D02*
X106819810Y-96507190D01*
%TO.N,PA10*%
X106633410Y-90043000D02*
X106262962Y-90043000D01*
X107216000Y-89460410D02*
X106633410Y-90043000D01*
X107216000Y-88424000D02*
X107216000Y-89460410D01*
X106262962Y-90043000D02*
X104140000Y-92165962D01*
X104140000Y-92165962D02*
X104140000Y-96456500D01*
%TO.N,PA09*%
X106568500Y-89471500D02*
X106198052Y-89471500D01*
X106716000Y-89324000D02*
X106568500Y-89471500D01*
X106716000Y-88424000D02*
X106716000Y-89324000D01*
X106198052Y-89471500D02*
X102629026Y-93040526D01*
X102629026Y-93040526D02*
X101600000Y-94069552D01*
X101600000Y-94069552D02*
X101600000Y-96583500D01*
%TO.N,PA08*%
X106216000Y-88817142D02*
X101983602Y-93049540D01*
X106216000Y-88424000D02*
X106216000Y-88817142D01*
X101983602Y-93049540D02*
X100561960Y-93049540D01*
X100561960Y-93049540D02*
X98996500Y-94615000D01*
X98996500Y-94615000D02*
X98996500Y-96647000D01*
%TO.N,PA07*%
X104457500Y-86804500D02*
X103751766Y-86804500D01*
X104477000Y-86824000D02*
X104457500Y-86804500D01*
X104616000Y-86824000D02*
X104477000Y-86824000D01*
X103751766Y-86804500D02*
X103132039Y-87424227D01*
X103132038Y-90628284D02*
X101610802Y-92149520D01*
X103132039Y-87424227D02*
X103132038Y-90628284D01*
X101610802Y-92149520D02*
X95683622Y-92149520D01*
X94812601Y-93020541D02*
X94558459Y-93020541D01*
X95683622Y-92149520D02*
X94812601Y-93020541D01*
X94558459Y-93020541D02*
X93980000Y-93599000D01*
X93980000Y-93599000D02*
X93980000Y-96583500D01*
%TO.N,PA06*%
X104616000Y-86324000D02*
X103595856Y-86324000D01*
X102682029Y-90441883D02*
X101453401Y-91670511D01*
X102682030Y-87237826D02*
X102682029Y-90441883D01*
X103595856Y-86324000D02*
X102682030Y-87237826D01*
X101453401Y-91670511D02*
X101424402Y-91699510D01*
X95497222Y-91699510D02*
X94626201Y-92570531D01*
X101424402Y-91699510D02*
X95497222Y-91699510D01*
X94626201Y-92570531D02*
X93801969Y-92570531D01*
X93801969Y-92570531D02*
X91440000Y-94932500D01*
X91440000Y-94932500D02*
X91440000Y-96520000D01*
%TO.N,PA05*%
X105591001Y-87209001D02*
X105233502Y-87566500D01*
X105591001Y-85938999D02*
X105591001Y-87209001D01*
X105526001Y-85873999D02*
X105591001Y-85938999D01*
X104923999Y-85873999D02*
X105526001Y-85873999D01*
X104874000Y-85824000D02*
X104923999Y-85873999D01*
X104616000Y-85824000D02*
X104874000Y-85824000D01*
X104457500Y-87566500D02*
X103582048Y-88441952D01*
X105233502Y-87566500D02*
X104457500Y-87566500D01*
X103582047Y-90814685D02*
X101797202Y-92599530D01*
X103582048Y-88441952D02*
X103582047Y-90814685D01*
X101797202Y-92599530D02*
X97646470Y-92599530D01*
X97646470Y-92599530D02*
X96520000Y-93726000D01*
X96520000Y-93726000D02*
X96520000Y-96393000D01*
%TO.N,PA04*%
X104616000Y-85324000D02*
X103588500Y-85324000D01*
X103267529Y-85644971D02*
X103267528Y-86015918D01*
X103588500Y-85324000D02*
X103267529Y-85644971D01*
X103267528Y-86015918D02*
X102232020Y-87051426D01*
X101267001Y-91220501D02*
X96173501Y-91220501D01*
X102232020Y-90255482D02*
X101267001Y-91220501D01*
X102232020Y-87051426D02*
X102232020Y-90255482D01*
X95310822Y-91249500D02*
X94439801Y-92120521D01*
X96144502Y-91249500D02*
X95310822Y-91249500D01*
X96173501Y-91220501D02*
X96144502Y-91249500D01*
X94439801Y-92120521D02*
X89933979Y-92120521D01*
X89933979Y-92120521D02*
X88836500Y-93218000D01*
X88836500Y-93218000D02*
X88836500Y-96456500D01*
%TO.N,PA03*%
X104616000Y-82824000D02*
X99194126Y-82824000D01*
X94538626Y-78168500D02*
X88328500Y-78168500D01*
X88328500Y-78168500D02*
X83947000Y-73787000D01*
X99194126Y-82824000D02*
X94538626Y-78168500D01*
%TO.N,PA02*%
X99330536Y-82324000D02*
X94725026Y-77718490D01*
X104616000Y-82324000D02*
X99330536Y-82324000D01*
X94725026Y-77718490D02*
X88519000Y-77718490D01*
X88519000Y-77718490D02*
X88514900Y-77718490D01*
X88514900Y-77718490D02*
X86360000Y-75563590D01*
X86360000Y-75563590D02*
X86360000Y-73914000D01*
%TO.N,PB23*%
X103750110Y-76315970D02*
X103421602Y-75987462D01*
X109960916Y-76315970D02*
X103750110Y-76315970D01*
X111216000Y-77571054D02*
X109960916Y-76315970D01*
X111216000Y-79724000D02*
X111216000Y-77571054D01*
X103421602Y-75987462D02*
X99799962Y-75987462D01*
X99799962Y-75987462D02*
X98996500Y-75184000D01*
X98996500Y-75184000D02*
X98996500Y-73596500D01*
%TO.N,PB22*%
X111716000Y-77434644D02*
X110147316Y-75865960D01*
X111716000Y-79724000D02*
X111716000Y-77434644D01*
X103936510Y-75865960D02*
X103608002Y-75537452D01*
X110147316Y-75865960D02*
X103936510Y-75865960D01*
X103608002Y-75537452D02*
X103096452Y-75537452D01*
X103096452Y-75537452D02*
X101536500Y-73977500D01*
%TO.N,PB11*%
X109716000Y-89597964D02*
X110120020Y-90001984D01*
X109716000Y-88424000D02*
X109716000Y-89597964D01*
X110120020Y-90001984D02*
X110120020Y-94753020D01*
X110120020Y-94753020D02*
X111950500Y-96583500D01*
%TO.N,PB10*%
X109670010Y-90188384D02*
X109670010Y-91053490D01*
X109216000Y-89734374D02*
X109670010Y-90188384D01*
X109216000Y-88424000D02*
X109216000Y-89734374D01*
X109670010Y-91053490D02*
X109283500Y-91440000D01*
X109283500Y-91440000D02*
X109283500Y-96520000D01*
%TO.N,PB09*%
X104433500Y-84836000D02*
X103188404Y-84836000D01*
X104445500Y-84824000D02*
X104433500Y-84836000D01*
X104616000Y-84824000D02*
X104445500Y-84824000D01*
X102281516Y-86365520D02*
X101913390Y-86365520D01*
X102817519Y-85829517D02*
X102281516Y-86365520D01*
X102817520Y-85206884D02*
X102817519Y-85829517D01*
X103188404Y-84836000D02*
X102817520Y-85206884D01*
X101782010Y-88341902D02*
X101281902Y-88842010D01*
X101782011Y-86496899D02*
X101782010Y-88341902D01*
X101913390Y-86365520D02*
X101782011Y-86496899D01*
X97081902Y-88842010D02*
X94253401Y-91670511D01*
X101281902Y-88842010D02*
X97081902Y-88842010D01*
X94253401Y-91670511D02*
X89115399Y-91670511D01*
X89115399Y-91670511D02*
X86360000Y-94425910D01*
X86360000Y-94425910D02*
X86360000Y-96329500D01*
%TO.N,PB08*%
X103063994Y-84324000D02*
X102367510Y-85020484D01*
X104616000Y-84324000D02*
X103063994Y-84324000D01*
X102367510Y-85643116D02*
X102095116Y-85915510D01*
X102367510Y-85020484D02*
X102367510Y-85643116D01*
X101726990Y-85915510D02*
X101332001Y-86310499D01*
X102095116Y-85915510D02*
X101726990Y-85915510D01*
X101332001Y-88155501D02*
X101095502Y-88392000D01*
X101332001Y-86310499D02*
X101332001Y-88155501D01*
X96895502Y-88392000D02*
X94067001Y-91220501D01*
X101095502Y-88392000D02*
X96895502Y-88392000D01*
X94067001Y-91220501D02*
X88928999Y-91220501D01*
X88928999Y-91220501D02*
X83883500Y-96266000D01*
%TO.N,PB03*%
X106216000Y-79724000D02*
X106216000Y-79482500D01*
X102761501Y-77872999D02*
X102676002Y-77787500D01*
X102761501Y-78060001D02*
X102761501Y-77872999D01*
X95430446Y-77787500D02*
X94911426Y-77268480D01*
X102676002Y-77787500D02*
X95430446Y-77787500D01*
X94911426Y-77268480D02*
X90095480Y-77268480D01*
X90095480Y-77268480D02*
X88836500Y-76009500D01*
X88836500Y-76009500D02*
X88836500Y-73723500D01*
X102761501Y-79221591D02*
X103397715Y-79857805D01*
X102761501Y-78060001D02*
X102761501Y-79221591D01*
X103860805Y-79857805D02*
X104876999Y-80873999D01*
X103397715Y-79857805D02*
X103860805Y-79857805D01*
X104876999Y-80873999D02*
X105498501Y-80873999D01*
X105498501Y-80873999D02*
X106108500Y-80264000D01*
X106108500Y-80264000D02*
X106235500Y-80264000D01*
%TO.N,PB02*%
X95616846Y-77337490D02*
X95097826Y-76818470D01*
X102862402Y-77337490D02*
X95616846Y-77337490D01*
X95097826Y-76818470D02*
X92185470Y-76818470D01*
X92185470Y-76818470D02*
X91440000Y-76073000D01*
X91440000Y-76073000D02*
X91440000Y-73723500D01*
X105830999Y-78748999D02*
X105765999Y-78813999D01*
X106640999Y-78748999D02*
X105830999Y-78748999D01*
X106716000Y-78824000D02*
X106640999Y-78748999D01*
X106716000Y-79724000D02*
X106716000Y-78824000D01*
X105765999Y-78813999D02*
X105765999Y-79970091D01*
X105030410Y-80391000D02*
X104047205Y-79407795D01*
X105345090Y-80391000D02*
X105030410Y-80391000D01*
X105765999Y-79970091D02*
X105345090Y-80391000D01*
X103211511Y-77686599D02*
X103059456Y-77534544D01*
X103584115Y-79407795D02*
X103211511Y-79035191D01*
X104047205Y-79407795D02*
X103584115Y-79407795D01*
X103211511Y-79035191D02*
X103211511Y-77686599D01*
X103059456Y-77534544D02*
X102862402Y-77337490D01*
X103211510Y-77686598D02*
X103059456Y-77534544D01*
%TO.N,PA27*%
X110716000Y-77707464D02*
X109774516Y-76765980D01*
X110716000Y-79724000D02*
X110716000Y-77707464D01*
X105606020Y-76765980D02*
X105479010Y-76892990D01*
X109774516Y-76765980D02*
X105606020Y-76765980D01*
X103690722Y-76892990D02*
X103235202Y-76437472D01*
X105479010Y-76892990D02*
X103690722Y-76892990D01*
X103235202Y-76437472D02*
X97392472Y-76437472D01*
X97392472Y-76437472D02*
X96456500Y-75501500D01*
X96456500Y-75501500D02*
X96456500Y-73660000D01*
%TO.N,PA28*%
X93980000Y-73660000D02*
X93980000Y-75064234D01*
X93980000Y-75064234D02*
X95803246Y-76887480D01*
X103048803Y-76887481D02*
X103504322Y-77343000D01*
X95803246Y-76887480D02*
X103048803Y-76887481D01*
X109860510Y-78289990D02*
X109705510Y-78444990D01*
X109860510Y-77488384D02*
X109860510Y-78289990D01*
X109588116Y-77215990D02*
X109860510Y-77488384D01*
X105867384Y-77215990D02*
X109588116Y-77215990D01*
X105740374Y-77343000D02*
X105867384Y-77215990D01*
X103504322Y-77343000D02*
X105740374Y-77343000D01*
X109705510Y-78444990D02*
X109705510Y-79502000D01*
%TO.N,PA19*%
X114300000Y-73660000D02*
X114300000Y-75762737D01*
X118132046Y-82711220D02*
X115499266Y-85344000D01*
X118132047Y-79594787D02*
X118132046Y-82711220D01*
X114300000Y-75762737D02*
X118132047Y-79594787D01*
X115499266Y-85344000D02*
X113220500Y-85344000D01*
%TO.N,PA20*%
X111760000Y-73660000D02*
X111760000Y-74933004D01*
X117682037Y-82524819D02*
X115370856Y-84836000D01*
X117682038Y-79781186D02*
X117682037Y-82524819D01*
X115252339Y-77351484D02*
X117682038Y-79781186D01*
X114178478Y-77351482D02*
X115252339Y-77351484D01*
X111760000Y-74933004D02*
X114178478Y-77351482D01*
X115370856Y-84836000D02*
X113220500Y-84836000D01*
%TO.N,PA21*%
X115065938Y-77801492D02*
X117232029Y-79967585D01*
X113992077Y-77801491D02*
X115065938Y-77801492D01*
X117232028Y-82338418D02*
X115242446Y-84328000D01*
X110706519Y-74515933D02*
X113992077Y-77801491D01*
X109694932Y-74515932D02*
X110706519Y-74515933D01*
X117232029Y-79967585D02*
X117232028Y-82338418D01*
X109220000Y-74041000D02*
X109694932Y-74515932D01*
X109220000Y-73660000D02*
X109220000Y-74041000D01*
X115242446Y-84328000D02*
X113284000Y-84328000D01*
%TO.N,PA22*%
X110520118Y-74965942D02*
X112616019Y-77061843D01*
X107985942Y-74965942D02*
X110520118Y-74965942D01*
X106680000Y-73660000D02*
X107985942Y-74965942D01*
X116782019Y-82152017D02*
X115114036Y-83820000D01*
X116782020Y-80153984D02*
X116782019Y-82152017D01*
X114879537Y-78251501D02*
X116782020Y-80153984D01*
X113495410Y-78251500D02*
X114879537Y-78251501D01*
X112616019Y-77372109D02*
X113495410Y-78251500D01*
X112616019Y-77061843D02*
X112616019Y-77372109D01*
X115114036Y-83820000D02*
X113220500Y-83820000D01*
%TO.N,PA23*%
X104140000Y-75184000D02*
X104140000Y-73660000D01*
X104371950Y-75415950D02*
X104140000Y-75184000D01*
X112166010Y-77248244D02*
X110333717Y-75415951D01*
X112166010Y-77558510D02*
X112166010Y-77248244D01*
X113309010Y-78701510D02*
X112166010Y-77558510D01*
X114693136Y-78701510D02*
X113309010Y-78701510D01*
X115023625Y-83274001D02*
X116332010Y-81965616D01*
X110333717Y-75415951D02*
X104371950Y-75415950D01*
X113448999Y-83274001D02*
X115023625Y-83274001D01*
X116332010Y-80340384D02*
X114693136Y-78701510D01*
X113399000Y-83324000D02*
X113448999Y-83274001D01*
X116332010Y-81965616D02*
X116332010Y-80340384D01*
X113316000Y-83324000D02*
X113399000Y-83324000D01*
%TO.N,SWCLK*%
X106426000Y-82359500D02*
X107696000Y-81089500D01*
X107696000Y-81089500D02*
X107696000Y-79756000D01*
X125412001Y-81586985D02*
X122538515Y-78713499D01*
X121121001Y-78713499D02*
X120396000Y-79438500D01*
X125412001Y-82550499D02*
X125412001Y-81586985D01*
X124587000Y-83375500D02*
X125412001Y-82550499D01*
X122538515Y-78713499D02*
X121121001Y-78713499D01*
%TO.N,SWDIO*%
X106426000Y-81280000D02*
X107188000Y-80518000D01*
X107188000Y-80518000D02*
X107188000Y-79565500D01*
X124587000Y-81398394D02*
X122627106Y-79438500D01*
X122627106Y-79438500D02*
X121475500Y-79438500D01*
X124587000Y-82105500D02*
X124587000Y-81398394D01*
%TO.N,Net-(R4-Pad1)*%
X91249500Y-83250500D02*
X92263500Y-84264500D01*
X92263500Y-84264500D02*
X92964000Y-84264500D01*
%TD*%
M02*
