%TF.GenerationSoftware,KiCad,Pcbnew,5.1.9+dfsg1-1*%
%TF.CreationDate,2022-01-14T18:57:29-05:00*%
%TF.ProjectId,samd21g17d,73616d64-3231-4673-9137-642e6b696361,rev?*%
%TF.SameCoordinates,Original*%
%TF.FileFunction,Legend,Bot*%
%TF.FilePolarity,Positive*%
%FSLAX46Y46*%
G04 Gerber Fmt 4.6, Leading zero omitted, Abs format (unit mm)*
G04 Created by KiCad (PCBNEW 5.1.9+dfsg1-1) date 2022-01-14 18:57:29*
%MOMM*%
%LPD*%
G01*
G04 APERTURE LIST*
%ADD10C,0.150000*%
%ADD11C,0.120000*%
%ADD12O,1.000000X1.000000*%
%ADD13R,1.000000X1.000000*%
%ADD14O,1.700000X1.700000*%
%ADD15R,1.700000X1.700000*%
%ADD16O,0.650000X0.650000*%
%ADD17O,1.800000X1.000000*%
%ADD18O,2.100000X1.000000*%
G04 APERTURE END LIST*
D10*
X82883285Y-93638714D02*
X82645190Y-94305380D01*
X82407095Y-93638714D01*
X81502333Y-94305380D02*
X82073761Y-94305380D01*
X81788047Y-94305380D02*
X81788047Y-93305380D01*
X81883285Y-93448238D01*
X81978523Y-93543476D01*
X82073761Y-93591095D01*
D11*
X86741000Y-75946000D02*
X87249000Y-75438000D01*
X88011000Y-75438000D02*
X86741000Y-76962000D01*
X86868000Y-77978000D02*
X88900000Y-75565000D01*
X89789000Y-75438000D02*
X86614000Y-79375000D01*
X87249000Y-80010000D02*
X90424000Y-75565000D01*
X91440000Y-75311000D02*
X87376000Y-80772000D01*
X87503000Y-81788000D02*
X92329000Y-75438000D01*
X93345000Y-75565000D02*
X87503000Y-83312000D01*
X87376000Y-85090000D02*
X94234000Y-75438000D01*
X94996000Y-75819000D02*
X87630000Y-86487000D01*
X87757000Y-87376000D02*
X96012000Y-75946000D01*
X97282000Y-75565000D02*
X87630000Y-89154000D01*
X87503000Y-90551000D02*
X98171000Y-75565000D01*
X98679000Y-76073000D02*
X87503000Y-91567000D01*
X87630000Y-92583000D02*
X99949000Y-75819000D01*
X101219000Y-75438000D02*
X87884000Y-93218000D01*
X87884000Y-94234000D02*
X102108000Y-75438000D01*
X102870000Y-75438000D02*
X88519000Y-94361000D01*
X103505000Y-75438000D02*
X89662000Y-93853000D01*
D10*
X114584476Y-93440047D02*
X114013047Y-93630523D01*
X113060666Y-93630523D01*
X112679714Y-93440047D01*
X112489238Y-93249571D01*
X112298761Y-92868619D01*
X112298761Y-92487666D01*
X112489238Y-92106714D01*
X112679714Y-91916238D01*
X113060666Y-91725761D01*
X113822571Y-91535285D01*
X114203523Y-91344809D01*
X114394000Y-91154333D01*
X114584476Y-90773380D01*
X114584476Y-90392428D01*
X114394000Y-90011476D01*
X114203523Y-89821000D01*
X113822571Y-89630523D01*
X112870190Y-89630523D01*
X112298761Y-89821000D01*
X109822571Y-91725761D02*
X109822571Y-93630523D01*
X111155904Y-89630523D02*
X109822571Y-91725761D01*
X108489238Y-89630523D01*
X107536857Y-89630523D02*
X104870190Y-89630523D01*
X107536857Y-93630523D01*
X104870190Y-93630523D01*
X102584476Y-91725761D02*
X102584476Y-93630523D01*
X103917809Y-89630523D02*
X102584476Y-91725761D01*
X101251142Y-89630523D01*
X97822571Y-89821000D02*
X98203523Y-89630523D01*
X98774952Y-89630523D01*
X99346380Y-89821000D01*
X99727333Y-90201952D01*
X99917809Y-90582904D01*
X100108285Y-91344809D01*
X100108285Y-91916238D01*
X99917809Y-92678142D01*
X99727333Y-93059095D01*
X99346380Y-93440047D01*
X98774952Y-93630523D01*
X98394000Y-93630523D01*
X97822571Y-93440047D01*
X97632095Y-93249571D01*
X97632095Y-91916238D01*
X98394000Y-91916238D01*
X95155904Y-91725761D02*
X95155904Y-93630523D01*
X96489238Y-89630523D02*
X95155904Y-91725761D01*
X93822571Y-89630523D01*
X118267476Y-88487047D02*
X117696047Y-88677523D01*
X116743666Y-88677523D01*
X116362714Y-88487047D01*
X116172238Y-88296571D01*
X115981761Y-87915619D01*
X115981761Y-87534666D01*
X116172238Y-87153714D01*
X116362714Y-86963238D01*
X116743666Y-86772761D01*
X117505571Y-86582285D01*
X117886523Y-86391809D01*
X118077000Y-86201333D01*
X118267476Y-85820380D01*
X118267476Y-85439428D01*
X118077000Y-85058476D01*
X117886523Y-84868000D01*
X117505571Y-84677523D01*
X116553190Y-84677523D01*
X115981761Y-84868000D01*
X113505571Y-86772761D02*
X113505571Y-88677523D01*
X114838904Y-84677523D02*
X113505571Y-86772761D01*
X112172238Y-84677523D01*
X111219857Y-84677523D02*
X108553190Y-84677523D01*
X111219857Y-88677523D01*
X108553190Y-88677523D01*
X106267476Y-86772761D02*
X106267476Y-88677523D01*
X107600809Y-84677523D02*
X106267476Y-86772761D01*
X104934142Y-84677523D01*
X101505571Y-84868000D02*
X101886523Y-84677523D01*
X102457952Y-84677523D01*
X103029380Y-84868000D01*
X103410333Y-85248952D01*
X103600809Y-85629904D01*
X103791285Y-86391809D01*
X103791285Y-86963238D01*
X103600809Y-87725142D01*
X103410333Y-88106095D01*
X103029380Y-88487047D01*
X102457952Y-88677523D01*
X102077000Y-88677523D01*
X101505571Y-88487047D01*
X101315095Y-88296571D01*
X101315095Y-86963238D01*
X102077000Y-86963238D01*
X98838904Y-86772761D02*
X98838904Y-88677523D01*
X100172238Y-84677523D02*
X98838904Y-86772761D01*
X97505571Y-84677523D01*
X121696476Y-83661047D02*
X121125047Y-83851523D01*
X120172666Y-83851523D01*
X119791714Y-83661047D01*
X119601238Y-83470571D01*
X119410761Y-83089619D01*
X119410761Y-82708666D01*
X119601238Y-82327714D01*
X119791714Y-82137238D01*
X120172666Y-81946761D01*
X120934571Y-81756285D01*
X121315523Y-81565809D01*
X121506000Y-81375333D01*
X121696476Y-80994380D01*
X121696476Y-80613428D01*
X121506000Y-80232476D01*
X121315523Y-80042000D01*
X120934571Y-79851523D01*
X119982190Y-79851523D01*
X119410761Y-80042000D01*
X116934571Y-81946761D02*
X116934571Y-83851523D01*
X118267904Y-79851523D02*
X116934571Y-81946761D01*
X115601238Y-79851523D01*
X114648857Y-79851523D02*
X111982190Y-79851523D01*
X114648857Y-83851523D01*
X111982190Y-83851523D01*
X109696476Y-81946761D02*
X109696476Y-83851523D01*
X111029809Y-79851523D02*
X109696476Y-81946761D01*
X108363142Y-79851523D01*
X104934571Y-80042000D02*
X105315523Y-79851523D01*
X105886952Y-79851523D01*
X106458380Y-80042000D01*
X106839333Y-80422952D01*
X107029809Y-80803904D01*
X107220285Y-81565809D01*
X107220285Y-82137238D01*
X107029809Y-82899142D01*
X106839333Y-83280095D01*
X106458380Y-83661047D01*
X105886952Y-83851523D01*
X105506000Y-83851523D01*
X104934571Y-83661047D01*
X104744095Y-83470571D01*
X104744095Y-82137238D01*
X105506000Y-82137238D01*
X102267904Y-81946761D02*
X102267904Y-83851523D01*
X103601238Y-79851523D02*
X102267904Y-81946761D01*
X100934571Y-79851523D01*
X125252476Y-79089047D02*
X124681047Y-79279523D01*
X123728666Y-79279523D01*
X123347714Y-79089047D01*
X123157238Y-78898571D01*
X122966761Y-78517619D01*
X122966761Y-78136666D01*
X123157238Y-77755714D01*
X123347714Y-77565238D01*
X123728666Y-77374761D01*
X124490571Y-77184285D01*
X124871523Y-76993809D01*
X125062000Y-76803333D01*
X125252476Y-76422380D01*
X125252476Y-76041428D01*
X125062000Y-75660476D01*
X124871523Y-75470000D01*
X124490571Y-75279523D01*
X123538190Y-75279523D01*
X122966761Y-75470000D01*
X120490571Y-77374761D02*
X120490571Y-79279523D01*
X121823904Y-75279523D02*
X120490571Y-77374761D01*
X119157238Y-75279523D01*
X118204857Y-75279523D02*
X115538190Y-75279523D01*
X118204857Y-79279523D01*
X115538190Y-79279523D01*
X113252476Y-77374761D02*
X113252476Y-79279523D01*
X114585809Y-75279523D02*
X113252476Y-77374761D01*
X111919142Y-75279523D01*
X108490571Y-75470000D02*
X108871523Y-75279523D01*
X109442952Y-75279523D01*
X110014380Y-75470000D01*
X110395333Y-75850952D01*
X110585809Y-76231904D01*
X110776285Y-76993809D01*
X110776285Y-77565238D01*
X110585809Y-78327142D01*
X110395333Y-78708095D01*
X110014380Y-79089047D01*
X109442952Y-79279523D01*
X109062000Y-79279523D01*
X108490571Y-79089047D01*
X108300095Y-78898571D01*
X108300095Y-77565238D01*
X109062000Y-77565238D01*
X105823904Y-77374761D02*
X105823904Y-79279523D01*
X107157238Y-75279523D02*
X105823904Y-77374761D01*
X104490571Y-75279523D01*
%LPC*%
D12*
%TO.C,DEBUG*%
X124587000Y-87185500D03*
X123317000Y-87185500D03*
X124587000Y-85915500D03*
X123317000Y-85915500D03*
X124587000Y-84645500D03*
X123317000Y-84645500D03*
X124587000Y-83375500D03*
X123317000Y-83375500D03*
X124587000Y-82105500D03*
D13*
X123317000Y-82105500D03*
%TD*%
D14*
%TO.C,J3*%
X124460000Y-73660000D03*
X121920000Y-73660000D03*
X119380000Y-73660000D03*
X116840000Y-73660000D03*
X114300000Y-73660000D03*
X111760000Y-73660000D03*
X109220000Y-73660000D03*
X106680000Y-73660000D03*
X104140000Y-73660000D03*
X101600000Y-73660000D03*
X99060000Y-73660000D03*
X96520000Y-73660000D03*
X93980000Y-73660000D03*
X91440000Y-73660000D03*
X88900000Y-73660000D03*
X86360000Y-73660000D03*
D15*
X83820000Y-73660000D03*
%TD*%
D14*
%TO.C,J2*%
X124460000Y-96520000D03*
X121920000Y-96520000D03*
X119380000Y-96520000D03*
X116840000Y-96520000D03*
X114300000Y-96520000D03*
X111760000Y-96520000D03*
X109220000Y-96520000D03*
X106680000Y-96520000D03*
X104140000Y-96520000D03*
X101600000Y-96520000D03*
X99060000Y-96520000D03*
X96520000Y-96520000D03*
X93980000Y-96520000D03*
X91440000Y-96520000D03*
X88900000Y-96520000D03*
X86360000Y-96520000D03*
D15*
X83820000Y-96520000D03*
%TD*%
D16*
%TO.C,J1*%
X84983000Y-87980000D03*
X84983000Y-82200000D03*
D17*
X81303000Y-89410000D03*
X81303000Y-80770000D03*
D18*
X85483000Y-80770000D03*
X85483000Y-89410000D03*
%TD*%
M02*
