G04 #@! TF.GenerationSoftware,KiCad,Pcbnew,6.0.8+dfsg-1~bpo11+1*
G04 #@! TF.CreationDate,2023-03-24T18:54:05-04:00*
G04 #@! TF.ProjectId,captouch_sensor_interleaved_loose,63617074-6f75-4636-985f-73656e736f72,rev?*
G04 #@! TF.SameCoordinates,Original*
G04 #@! TF.FileFunction,Copper,L1,Top*
G04 #@! TF.FilePolarity,Positive*
%FSLAX46Y46*%
G04 Gerber Fmt 4.6, Leading zero omitted, Abs format (unit mm)*
G04 Created by KiCad (PCBNEW 6.0.8+dfsg-1~bpo11+1) date 2023-03-24 18:54:05*
%MOMM*%
%LPD*%
G01*
G04 APERTURE LIST*
G04 Aperture macros list*
%AMFreePoly0*
4,1,63,146.095671,0.230970,146.176777,0.176777,146.230970,0.095671,146.250000,0.000000,146.230970,-0.095671,146.176777,-0.176777,146.095671,-0.230970,146.000000,-0.250000,144.250000,-0.250000,144.250000,-1.750000,146.000000,-1.750000,146.095671,-1.769030,146.176777,-1.823223,146.230970,-1.904329,146.250000,-2.000000,146.230970,-2.095671,146.176777,-2.176777,146.095671,-2.230970,146.000000,-2.250000,144.250000,-2.250000,
144.250000,-3.750000,146.000000,-3.750000,146.095671,-3.769030,146.176777,-3.823223,146.230970,-3.904329,146.250000,-4.000000,146.230970,-4.095671,146.176777,-4.176777,146.095671,-4.230970,146.000000,-4.250000,142.000000,-4.250000,141.904329,-4.230970,141.823223,-4.176777,141.769030,-4.095671,141.750000,-4.000000,141.769030,-3.904329,141.823223,-3.823223,141.904329,-3.769030,142.000000,-3.750000,143.750000,-3.750000,
143.750000,-2.250000,142.000000,-2.250000,141.904329,-2.230970,141.823223,-2.176777,141.769030,-2.095671,141.750000,-2.000000,141.769030,-1.904329,141.823223,-1.823223,141.904329,-1.769030,142.000000,-1.750000,143.750000,-1.750000,143.750000,-0.250000,142.000000,-0.250000,141.904329,-0.230970,141.823223,-0.176777,141.769030,-0.095671,141.750000,0.000000,141.769030,0.095671,141.823223,0.176777,141.904329,0.230970,
142.000000,0.250000,146.000000,0.250000,146.095671,0.230970,146.095671,0.230970,$1*%
%AMFreePoly1*
4,1,63,68.095671,0.230970,68.176777,0.176777,68.230970,0.095671,68.250000,0.000000,68.230970,-0.095671,68.176777,-0.176777,68.095671,-0.230970,68.000000,-0.250000,66.250000,-0.250000,66.250000,-1.750000,68.000000,-1.750000,68.095671,-1.769030,68.176777,-1.823223,68.230970,-1.904329,68.250000,-2.000000,68.230970,-2.095671,68.176777,-2.176777,68.095671,-2.230970,68.000000,-2.250000,66.250000,-2.250000,
66.250000,-3.750000,68.000000,-3.750000,68.095671,-3.769030,68.176777,-3.823223,68.230970,-3.904329,68.250000,-4.000000,68.230970,-4.095671,68.176777,-4.176777,68.095671,-4.230970,68.000000,-4.250000,64.000000,-4.250000,63.904329,-4.230970,63.823223,-4.176777,63.769030,-4.095671,63.750000,-4.000000,63.769030,-3.904329,63.823223,-3.823223,63.904329,-3.769030,64.000000,-3.750000,65.750000,-3.750000,
65.750000,-2.250000,64.000000,-2.250000,63.904329,-2.230970,63.823223,-2.176777,63.769030,-2.095671,63.750000,-2.000000,63.769030,-1.904329,63.823223,-1.823223,63.904329,-1.769030,64.000000,-1.750000,65.750000,-1.750000,65.750000,-0.250000,64.000000,-0.250000,63.904329,-0.230970,63.823223,-0.176777,63.769030,-0.095671,63.750000,0.000000,63.769030,0.095671,63.823223,0.176777,63.904329,0.230970,
64.000000,0.250000,68.000000,0.250000,68.095671,0.230970,68.095671,0.230970,$1*%
%AMFreePoly2*
4,1,63,152.095671,0.230970,152.176777,0.176777,152.230970,0.095671,152.250000,0.000000,152.230970,-0.095671,152.176777,-0.176777,152.095671,-0.230970,152.000000,-0.250000,150.250000,-0.250000,150.250000,-1.750000,152.000000,-1.750000,152.095671,-1.769030,152.176777,-1.823223,152.230970,-1.904329,152.250000,-2.000000,152.230970,-2.095671,152.176777,-2.176777,152.095671,-2.230970,152.000000,-2.250000,150.250000,-2.250000,
150.250000,-3.750000,152.000000,-3.750000,152.095671,-3.769030,152.176777,-3.823223,152.230970,-3.904329,152.250000,-4.000000,152.230970,-4.095671,152.176777,-4.176777,152.095671,-4.230970,152.000000,-4.250000,148.000000,-4.250000,147.904329,-4.230970,147.823223,-4.176777,147.769030,-4.095671,147.750000,-4.000000,147.769030,-3.904329,147.823223,-3.823223,147.904329,-3.769030,148.000000,-3.750000,149.750000,-3.750000,
149.750000,-2.250000,148.000000,-2.250000,147.904329,-2.230970,147.823223,-2.176777,147.769030,-2.095671,147.750000,-2.000000,147.769030,-1.904329,147.823223,-1.823223,147.904329,-1.769030,148.000000,-1.750000,149.750000,-1.750000,149.750000,-0.250000,148.000000,-0.250000,147.904329,-0.230970,147.823223,-0.176777,147.769030,-0.095671,147.750000,0.000000,147.769030,0.095671,147.823223,0.176777,147.904329,0.230970,
148.000000,0.250000,152.000000,0.250000,152.095671,0.230970,152.095671,0.230970,$1*%
%AMFreePoly3*
4,1,63,104.095671,0.230970,104.176777,0.176777,104.230970,0.095671,104.250000,0.000000,104.230970,-0.095671,104.176777,-0.176777,104.095671,-0.230970,104.000000,-0.250000,102.250000,-0.250000,102.250000,-1.750000,104.000000,-1.750000,104.095671,-1.769030,104.176777,-1.823223,104.230970,-1.904329,104.250000,-2.000000,104.230970,-2.095671,104.176777,-2.176777,104.095671,-2.230970,104.000000,-2.250000,102.250000,-2.250000,
102.250000,-3.750000,104.000000,-3.750000,104.095671,-3.769030,104.176777,-3.823223,104.230970,-3.904329,104.250000,-4.000000,104.230970,-4.095671,104.176777,-4.176777,104.095671,-4.230970,104.000000,-4.250000,100.000000,-4.250000,99.904329,-4.230970,99.823223,-4.176777,99.769030,-4.095671,99.750000,-4.000000,99.769030,-3.904329,99.823223,-3.823223,99.904329,-3.769030,100.000000,-3.750000,101.750000,-3.750000,
101.750000,-2.250000,100.000000,-2.250000,99.904329,-2.230970,99.823223,-2.176777,99.769030,-2.095671,99.750000,-2.000000,99.769030,-1.904329,99.823223,-1.823223,99.904329,-1.769030,100.000000,-1.750000,101.750000,-1.750000,101.750000,-0.250000,100.000000,-0.250000,99.904329,-0.230970,99.823223,-0.176777,99.769030,-0.095671,99.750000,0.000000,99.769030,0.095671,99.823223,0.176777,99.904329,0.230970,
100.000000,0.250000,104.000000,0.250000,104.095671,0.230970,104.095671,0.230970,$1*%
%AMFreePoly4*
4,1,63,158.095671,0.230970,158.176777,0.176777,158.230970,0.095671,158.250000,0.000000,158.230970,-0.095671,158.176777,-0.176777,158.095671,-0.230970,158.000000,-0.250000,156.250000,-0.250000,156.250000,-1.750000,158.000000,-1.750000,158.095671,-1.769030,158.176777,-1.823223,158.230970,-1.904329,158.250000,-2.000000,158.230970,-2.095671,158.176777,-2.176777,158.095671,-2.230970,158.000000,-2.250000,156.250000,-2.250000,
156.250000,-3.750000,158.000000,-3.750000,158.095671,-3.769030,158.176777,-3.823223,158.230970,-3.904329,158.250000,-4.000000,158.230970,-4.095671,158.176777,-4.176777,158.095671,-4.230970,158.000000,-4.250000,154.000000,-4.250000,153.904329,-4.230970,153.823223,-4.176777,153.769030,-4.095671,153.750000,-4.000000,153.769030,-3.904329,153.823223,-3.823223,153.904329,-3.769030,154.000000,-3.750000,155.750000,-3.750000,
155.750000,-2.250000,154.000000,-2.250000,153.904329,-2.230970,153.823223,-2.176777,153.769030,-2.095671,153.750000,-2.000000,153.769030,-1.904329,153.823223,-1.823223,153.904329,-1.769030,154.000000,-1.750000,155.750000,-1.750000,155.750000,-0.250000,154.000000,-0.250000,153.904329,-0.230970,153.823223,-0.176777,153.769030,-0.095671,153.750000,0.000000,153.769030,0.095671,153.823223,0.176777,153.904329,0.230970,
154.000000,0.250000,158.000000,0.250000,158.095671,0.230970,158.095671,0.230970,$1*%
%AMFreePoly5*
4,1,63,74.095671,0.230970,74.176777,0.176777,74.230970,0.095671,74.250000,0.000000,74.230970,-0.095671,74.176777,-0.176777,74.095671,-0.230970,74.000000,-0.250000,72.250000,-0.250000,72.250000,-1.750000,74.000000,-1.750000,74.095671,-1.769030,74.176777,-1.823223,74.230970,-1.904329,74.250000,-2.000000,74.230970,-2.095671,74.176777,-2.176777,74.095671,-2.230970,74.000000,-2.250000,72.250000,-2.250000,
72.250000,-3.750000,74.000000,-3.750000,74.095671,-3.769030,74.176777,-3.823223,74.230970,-3.904329,74.250000,-4.000000,74.230970,-4.095671,74.176777,-4.176777,74.095671,-4.230970,74.000000,-4.250000,70.000000,-4.250000,69.904329,-4.230970,69.823223,-4.176777,69.769030,-4.095671,69.750000,-4.000000,69.769030,-3.904329,69.823223,-3.823223,69.904329,-3.769030,70.000000,-3.750000,71.750000,-3.750000,
71.750000,-2.250000,70.000000,-2.250000,69.904329,-2.230970,69.823223,-2.176777,69.769030,-2.095671,69.750000,-2.000000,69.769030,-1.904329,69.823223,-1.823223,69.904329,-1.769030,70.000000,-1.750000,71.750000,-1.750000,71.750000,-0.250000,70.000000,-0.250000,69.904329,-0.230970,69.823223,-0.176777,69.769030,-0.095671,69.750000,0.000000,69.769030,0.095671,69.823223,0.176777,69.904329,0.230970,
70.000000,0.250000,74.000000,0.250000,74.095671,0.230970,74.095671,0.230970,$1*%
%AMFreePoly6*
4,1,63,140.095671,0.230970,140.176777,0.176777,140.230970,0.095671,140.250000,0.000000,140.230970,-0.095671,140.176777,-0.176777,140.095671,-0.230970,140.000000,-0.250000,138.250000,-0.250000,138.250000,-1.750000,140.000000,-1.750000,140.095671,-1.769030,140.176777,-1.823223,140.230970,-1.904329,140.250000,-2.000000,140.230970,-2.095671,140.176777,-2.176777,140.095671,-2.230970,140.000000,-2.250000,138.250000,-2.250000,
138.250000,-3.750000,140.000000,-3.750000,140.095671,-3.769030,140.176777,-3.823223,140.230970,-3.904329,140.250000,-4.000000,140.230970,-4.095671,140.176777,-4.176777,140.095671,-4.230970,140.000000,-4.250000,136.000000,-4.250000,135.904329,-4.230970,135.823223,-4.176777,135.769030,-4.095671,135.750000,-4.000000,135.769030,-3.904329,135.823223,-3.823223,135.904329,-3.769030,136.000000,-3.750000,137.750000,-3.750000,
137.750000,-2.250000,136.000000,-2.250000,135.904329,-2.230970,135.823223,-2.176777,135.769030,-2.095671,135.750000,-2.000000,135.769030,-1.904329,135.823223,-1.823223,135.904329,-1.769030,136.000000,-1.750000,137.750000,-1.750000,137.750000,-0.250000,136.000000,-0.250000,135.904329,-0.230970,135.823223,-0.176777,135.769030,-0.095671,135.750000,0.000000,135.769030,0.095671,135.823223,0.176777,135.904329,0.230970,
136.000000,0.250000,140.000000,0.250000,140.095671,0.230970,140.095671,0.230970,$1*%
%AMFreePoly7*
4,1,63,86.095671,0.230970,86.176777,0.176777,86.230970,0.095671,86.250000,0.000000,86.230970,-0.095671,86.176777,-0.176777,86.095671,-0.230970,86.000000,-0.250000,84.250000,-0.250000,84.250000,-1.750000,86.000000,-1.750000,86.095671,-1.769030,86.176777,-1.823223,86.230970,-1.904329,86.250000,-2.000000,86.230970,-2.095671,86.176777,-2.176777,86.095671,-2.230970,86.000000,-2.250000,84.250000,-2.250000,
84.250000,-3.750000,86.000000,-3.750000,86.095671,-3.769030,86.176777,-3.823223,86.230970,-3.904329,86.250000,-4.000000,86.230970,-4.095671,86.176777,-4.176777,86.095671,-4.230970,86.000000,-4.250000,82.000000,-4.250000,81.904329,-4.230970,81.823223,-4.176777,81.769030,-4.095671,81.750000,-4.000000,81.769030,-3.904329,81.823223,-3.823223,81.904329,-3.769030,82.000000,-3.750000,83.750000,-3.750000,
83.750000,-2.250000,82.000000,-2.250000,81.904329,-2.230970,81.823223,-2.176777,81.769030,-2.095671,81.750000,-2.000000,81.769030,-1.904329,81.823223,-1.823223,81.904329,-1.769030,82.000000,-1.750000,83.750000,-1.750000,83.750000,-0.250000,82.000000,-0.250000,81.904329,-0.230970,81.823223,-0.176777,81.769030,-0.095671,81.750000,0.000000,81.769030,0.095671,81.823223,0.176777,81.904329,0.230970,
82.000000,0.250000,86.000000,0.250000,86.095671,0.230970,86.095671,0.230970,$1*%
%AMFreePoly8*
4,1,63,80.095671,0.230970,80.176777,0.176777,80.230970,0.095671,80.250000,0.000000,80.230970,-0.095671,80.176777,-0.176777,80.095671,-0.230970,80.000000,-0.250000,78.250000,-0.250000,78.250000,-1.750000,80.000000,-1.750000,80.095671,-1.769030,80.176777,-1.823223,80.230970,-1.904329,80.250000,-2.000000,80.230970,-2.095671,80.176777,-2.176777,80.095671,-2.230970,80.000000,-2.250000,78.250000,-2.250000,
78.250000,-3.750000,80.000000,-3.750000,80.095671,-3.769030,80.176777,-3.823223,80.230970,-3.904329,80.250000,-4.000000,80.230970,-4.095671,80.176777,-4.176777,80.095671,-4.230970,80.000000,-4.250000,76.000000,-4.250000,75.904329,-4.230970,75.823223,-4.176777,75.769030,-4.095671,75.750000,-4.000000,75.769030,-3.904329,75.823223,-3.823223,75.904329,-3.769030,76.000000,-3.750000,77.750000,-3.750000,
77.750000,-2.250000,76.000000,-2.250000,75.904329,-2.230970,75.823223,-2.176777,75.769030,-2.095671,75.750000,-2.000000,75.769030,-1.904329,75.823223,-1.823223,75.904329,-1.769030,76.000000,-1.750000,77.750000,-1.750000,77.750000,-0.250000,76.000000,-0.250000,75.904329,-0.230970,75.823223,-0.176777,75.769030,-0.095671,75.750000,0.000000,75.769030,0.095671,75.823223,0.176777,75.904329,0.230970,
76.000000,0.250000,80.000000,0.250000,80.095671,0.230970,80.095671,0.230970,$1*%
%AMFreePoly9*
4,1,63,188.095671,0.230970,188.176777,0.176777,188.230970,0.095671,188.250000,0.000000,188.230970,-0.095671,188.176777,-0.176777,188.095671,-0.230970,188.000000,-0.250000,186.250000,-0.250000,186.250000,-1.750000,188.000000,-1.750000,188.095671,-1.769030,188.176777,-1.823223,188.230970,-1.904329,188.250000,-2.000000,188.230970,-2.095671,188.176777,-2.176777,188.095671,-2.230970,188.000000,-2.250000,186.250000,-2.250000,
186.250000,-3.750000,188.000000,-3.750000,188.095671,-3.769030,188.176777,-3.823223,188.230970,-3.904329,188.250000,-4.000000,188.230970,-4.095671,188.176777,-4.176777,188.095671,-4.230970,188.000000,-4.250000,184.000000,-4.250000,183.904329,-4.230970,183.823223,-4.176777,183.769030,-4.095671,183.750000,-4.000000,183.769030,-3.904329,183.823223,-3.823223,183.904329,-3.769030,184.000000,-3.750000,185.750000,-3.750000,
185.750000,-2.250000,184.000000,-2.250000,183.904329,-2.230970,183.823223,-2.176777,183.769030,-2.095671,183.750000,-2.000000,183.769030,-1.904329,183.823223,-1.823223,183.904329,-1.769030,184.000000,-1.750000,185.750000,-1.750000,185.750000,-0.250000,184.000000,-0.250000,183.904329,-0.230970,183.823223,-0.176777,183.769030,-0.095671,183.750000,0.000000,183.769030,0.095671,183.823223,0.176777,183.904329,0.230970,
184.000000,0.250000,188.000000,0.250000,188.095671,0.230970,188.095671,0.230970,$1*%
%AMFreePoly10*
4,1,63,134.095671,0.230970,134.176777,0.176777,134.230970,0.095671,134.250000,0.000000,134.230970,-0.095671,134.176777,-0.176777,134.095671,-0.230970,134.000000,-0.250000,132.250000,-0.250000,132.250000,-1.750000,134.000000,-1.750000,134.095671,-1.769030,134.176777,-1.823223,134.230970,-1.904329,134.250000,-2.000000,134.230970,-2.095671,134.176777,-2.176777,134.095671,-2.230970,134.000000,-2.250000,132.250000,-2.250000,
132.250000,-3.750000,134.000000,-3.750000,134.095671,-3.769030,134.176777,-3.823223,134.230970,-3.904329,134.250000,-4.000000,134.230970,-4.095671,134.176777,-4.176777,134.095671,-4.230970,134.000000,-4.250000,130.000000,-4.250000,129.904329,-4.230970,129.823223,-4.176777,129.769030,-4.095671,129.750000,-4.000000,129.769030,-3.904329,129.823223,-3.823223,129.904329,-3.769030,130.000000,-3.750000,131.750000,-3.750000,
131.750000,-2.250000,130.000000,-2.250000,129.904329,-2.230970,129.823223,-2.176777,129.769030,-2.095671,129.750000,-2.000000,129.769030,-1.904329,129.823223,-1.823223,129.904329,-1.769030,130.000000,-1.750000,131.750000,-1.750000,131.750000,-0.250000,130.000000,-0.250000,129.904329,-0.230970,129.823223,-0.176777,129.769030,-0.095671,129.750000,0.000000,129.769030,0.095671,129.823223,0.176777,129.904329,0.230970,
130.000000,0.250000,134.000000,0.250000,134.095671,0.230970,134.095671,0.230970,$1*%
%AMFreePoly11*
4,1,63,170.095671,0.230970,170.176777,0.176777,170.230970,0.095671,170.250000,0.000000,170.230970,-0.095671,170.176777,-0.176777,170.095671,-0.230970,170.000000,-0.250000,168.250000,-0.250000,168.250000,-1.750000,170.000000,-1.750000,170.095671,-1.769030,170.176777,-1.823223,170.230970,-1.904329,170.250000,-2.000000,170.230970,-2.095671,170.176777,-2.176777,170.095671,-2.230970,170.000000,-2.250000,168.250000,-2.250000,
168.250000,-3.750000,170.000000,-3.750000,170.095671,-3.769030,170.176777,-3.823223,170.230970,-3.904329,170.250000,-4.000000,170.230970,-4.095671,170.176777,-4.176777,170.095671,-4.230970,170.000000,-4.250000,166.000000,-4.250000,165.904329,-4.230970,165.823223,-4.176777,165.769030,-4.095671,165.750000,-4.000000,165.769030,-3.904329,165.823223,-3.823223,165.904329,-3.769030,166.000000,-3.750000,167.750000,-3.750000,
167.750000,-2.250000,166.000000,-2.250000,165.904329,-2.230970,165.823223,-2.176777,165.769030,-2.095671,165.750000,-2.000000,165.769030,-1.904329,165.823223,-1.823223,165.904329,-1.769030,166.000000,-1.750000,167.750000,-1.750000,167.750000,-0.250000,166.000000,-0.250000,165.904329,-0.230970,165.823223,-0.176777,165.769030,-0.095671,165.750000,0.000000,165.769030,0.095671,165.823223,0.176777,165.904329,0.230970,
166.000000,0.250000,170.000000,0.250000,170.095671,0.230970,170.095671,0.230970,$1*%
%AMFreePoly12*
4,1,63,56.095671,0.230970,56.176777,0.176777,56.230970,0.095671,56.250000,0.000000,56.230970,-0.095671,56.176777,-0.176777,56.095671,-0.230970,56.000000,-0.250000,54.250000,-0.250000,54.250000,-1.750000,56.000000,-1.750000,56.095671,-1.769030,56.176777,-1.823223,56.230970,-1.904329,56.250000,-2.000000,56.230970,-2.095671,56.176777,-2.176777,56.095671,-2.230970,56.000000,-2.250000,54.250000,-2.250000,
54.250000,-3.750000,56.000000,-3.750000,56.095671,-3.769030,56.176777,-3.823223,56.230970,-3.904329,56.250000,-4.000000,56.230970,-4.095671,56.176777,-4.176777,56.095671,-4.230970,56.000000,-4.250000,52.000000,-4.250000,51.904329,-4.230970,51.823223,-4.176777,51.769030,-4.095671,51.750000,-4.000000,51.769030,-3.904329,51.823223,-3.823223,51.904329,-3.769030,52.000000,-3.750000,53.750000,-3.750000,
53.750000,-2.250000,52.000000,-2.250000,51.904329,-2.230970,51.823223,-2.176777,51.769030,-2.095671,51.750000,-2.000000,51.769030,-1.904329,51.823223,-1.823223,51.904329,-1.769030,52.000000,-1.750000,53.750000,-1.750000,53.750000,-0.250000,52.000000,-0.250000,51.904329,-0.230970,51.823223,-0.176777,51.769030,-0.095671,51.750000,0.000000,51.769030,0.095671,51.823223,0.176777,51.904329,0.230970,
52.000000,0.250000,56.000000,0.250000,56.095671,0.230970,56.095671,0.230970,$1*%
%AMFreePoly13*
4,1,63,128.095671,0.230970,128.176777,0.176777,128.230970,0.095671,128.250000,0.000000,128.230970,-0.095671,128.176777,-0.176777,128.095671,-0.230970,128.000000,-0.250000,126.250000,-0.250000,126.250000,-1.750000,128.000000,-1.750000,128.095671,-1.769030,128.176777,-1.823223,128.230970,-1.904329,128.250000,-2.000000,128.230970,-2.095671,128.176777,-2.176777,128.095671,-2.230970,128.000000,-2.250000,126.250000,-2.250000,
126.250000,-3.750000,128.000000,-3.750000,128.095671,-3.769030,128.176777,-3.823223,128.230970,-3.904329,128.250000,-4.000000,128.230970,-4.095671,128.176777,-4.176777,128.095671,-4.230970,128.000000,-4.250000,124.000000,-4.250000,123.904329,-4.230970,123.823223,-4.176777,123.769030,-4.095671,123.750000,-4.000000,123.769030,-3.904329,123.823223,-3.823223,123.904329,-3.769030,124.000000,-3.750000,125.750000,-3.750000,
125.750000,-2.250000,124.000000,-2.250000,123.904329,-2.230970,123.823223,-2.176777,123.769030,-2.095671,123.750000,-2.000000,123.769030,-1.904329,123.823223,-1.823223,123.904329,-1.769030,124.000000,-1.750000,125.750000,-1.750000,125.750000,-0.250000,124.000000,-0.250000,123.904329,-0.230970,123.823223,-0.176777,123.769030,-0.095671,123.750000,0.000000,123.769030,0.095671,123.823223,0.176777,123.904329,0.230970,
124.000000,0.250000,128.000000,0.250000,128.095671,0.230970,128.095671,0.230970,$1*%
%AMFreePoly14*
4,1,63,116.095671,0.230970,116.176777,0.176777,116.230970,0.095671,116.250000,0.000000,116.230970,-0.095671,116.176777,-0.176777,116.095671,-0.230970,116.000000,-0.250000,114.250000,-0.250000,114.250000,-1.750000,116.000000,-1.750000,116.095671,-1.769030,116.176777,-1.823223,116.230970,-1.904329,116.250000,-2.000000,116.230970,-2.095671,116.176777,-2.176777,116.095671,-2.230970,116.000000,-2.250000,114.250000,-2.250000,
114.250000,-3.750000,116.000000,-3.750000,116.095671,-3.769030,116.176777,-3.823223,116.230970,-3.904329,116.250000,-4.000000,116.230970,-4.095671,116.176777,-4.176777,116.095671,-4.230970,116.000000,-4.250000,112.000000,-4.250000,111.904329,-4.230970,111.823223,-4.176777,111.769030,-4.095671,111.750000,-4.000000,111.769030,-3.904329,111.823223,-3.823223,111.904329,-3.769030,112.000000,-3.750000,113.750000,-3.750000,
113.750000,-2.250000,112.000000,-2.250000,111.904329,-2.230970,111.823223,-2.176777,111.769030,-2.095671,111.750000,-2.000000,111.769030,-1.904329,111.823223,-1.823223,111.904329,-1.769030,112.000000,-1.750000,113.750000,-1.750000,113.750000,-0.250000,112.000000,-0.250000,111.904329,-0.230970,111.823223,-0.176777,111.769030,-0.095671,111.750000,0.000000,111.769030,0.095671,111.823223,0.176777,111.904329,0.230970,
112.000000,0.250000,116.000000,0.250000,116.095671,0.230970,116.095671,0.230970,$1*%
%AMFreePoly15*
4,1,63,122.095671,0.230970,122.176777,0.176777,122.230970,0.095671,122.250000,0.000000,122.230970,-0.095671,122.176777,-0.176777,122.095671,-0.230970,122.000000,-0.250000,120.250000,-0.250000,120.250000,-1.750000,122.000000,-1.750000,122.095671,-1.769030,122.176777,-1.823223,122.230970,-1.904329,122.250000,-2.000000,122.230970,-2.095671,122.176777,-2.176777,122.095671,-2.230970,122.000000,-2.250000,120.250000,-2.250000,
120.250000,-3.750000,122.000000,-3.750000,122.095671,-3.769030,122.176777,-3.823223,122.230970,-3.904329,122.250000,-4.000000,122.230970,-4.095671,122.176777,-4.176777,122.095671,-4.230970,122.000000,-4.250000,118.000000,-4.250000,117.904329,-4.230970,117.823223,-4.176777,117.769030,-4.095671,117.750000,-4.000000,117.769030,-3.904329,117.823223,-3.823223,117.904329,-3.769030,118.000000,-3.750000,119.750000,-3.750000,
119.750000,-2.250000,118.000000,-2.250000,117.904329,-2.230970,117.823223,-2.176777,117.769030,-2.095671,117.750000,-2.000000,117.769030,-1.904329,117.823223,-1.823223,117.904329,-1.769030,118.000000,-1.750000,119.750000,-1.750000,119.750000,-0.250000,118.000000,-0.250000,117.904329,-0.230970,117.823223,-0.176777,117.769030,-0.095671,117.750000,0.000000,117.769030,0.095671,117.823223,0.176777,117.904329,0.230970,
118.000000,0.250000,122.000000,0.250000,122.095671,0.230970,122.095671,0.230970,$1*%
%AMFreePoly16*
4,1,63,110.095671,0.230970,110.176777,0.176777,110.230970,0.095671,110.250000,0.000000,110.230970,-0.095671,110.176777,-0.176777,110.095671,-0.230970,110.000000,-0.250000,108.250000,-0.250000,108.250000,-1.750000,110.000000,-1.750000,110.095671,-1.769030,110.176777,-1.823223,110.230970,-1.904329,110.250000,-2.000000,110.230970,-2.095671,110.176777,-2.176777,110.095671,-2.230970,110.000000,-2.250000,108.250000,-2.250000,
108.250000,-3.750000,110.000000,-3.750000,110.095671,-3.769030,110.176777,-3.823223,110.230970,-3.904329,110.250000,-4.000000,110.230970,-4.095671,110.176777,-4.176777,110.095671,-4.230970,110.000000,-4.250000,106.000000,-4.250000,105.904329,-4.230970,105.823223,-4.176777,105.769030,-4.095671,105.750000,-4.000000,105.769030,-3.904329,105.823223,-3.823223,105.904329,-3.769030,106.000000,-3.750000,107.750000,-3.750000,
107.750000,-2.250000,106.000000,-2.250000,105.904329,-2.230970,105.823223,-2.176777,105.769030,-2.095671,105.750000,-2.000000,105.769030,-1.904329,105.823223,-1.823223,105.904329,-1.769030,106.000000,-1.750000,107.750000,-1.750000,107.750000,-0.250000,106.000000,-0.250000,105.904329,-0.230970,105.823223,-0.176777,105.769030,-0.095671,105.750000,0.000000,105.769030,0.095671,105.823223,0.176777,105.904329,0.230970,
106.000000,0.250000,110.000000,0.250000,110.095671,0.230970,110.095671,0.230970,$1*%
%AMFreePoly17*
4,1,42,2.095671,0.230970,2.176777,0.176777,2.230970,0.095671,2.250000,0.000000,2.230970,-0.095671,2.176777,-0.176777,2.095671,-0.230970,2.000000,-0.250000,0.250000,-0.250000,0.250000,-1.750000,2.000000,-1.750000,2.095671,-1.769030,2.176777,-1.823223,2.230970,-1.904329,2.250000,-2.000000,2.230970,-2.095671,2.176777,-2.176777,2.095671,-2.230970,2.000000,-2.250000,0.250000,-2.250000,
0.250000,-3.750000,2.000000,-3.750000,2.095671,-3.769030,2.176777,-3.823223,2.230970,-3.904329,2.250000,-4.000000,2.230970,-4.095671,2.176777,-4.176777,2.095671,-4.230970,2.000000,-4.250000,0.000000,-4.250000,-0.095671,-4.230970,-0.176777,-4.176777,-0.230970,-4.095671,-0.250000,-4.000000,-0.250000,0.000000,-0.230970,0.095671,-0.176777,0.176777,-0.095671,0.230970,0.000000,0.250000,
2.000000,0.250000,2.095671,0.230970,2.095671,0.230970,$1*%
%AMFreePoly18*
4,1,63,164.095671,0.230970,164.176777,0.176777,164.230970,0.095671,164.250000,0.000000,164.230970,-0.095671,164.176777,-0.176777,164.095671,-0.230970,164.000000,-0.250000,162.250000,-0.250000,162.250000,-1.750000,164.000000,-1.750000,164.095671,-1.769030,164.176777,-1.823223,164.230970,-1.904329,164.250000,-2.000000,164.230970,-2.095671,164.176777,-2.176777,164.095671,-2.230970,164.000000,-2.250000,162.250000,-2.250000,
162.250000,-3.750000,164.000000,-3.750000,164.095671,-3.769030,164.176777,-3.823223,164.230970,-3.904329,164.250000,-4.000000,164.230970,-4.095671,164.176777,-4.176777,164.095671,-4.230970,164.000000,-4.250000,160.000000,-4.250000,159.904329,-4.230970,159.823223,-4.176777,159.769030,-4.095671,159.750000,-4.000000,159.769030,-3.904329,159.823223,-3.823223,159.904329,-3.769030,160.000000,-3.750000,161.750000,-3.750000,
161.750000,-2.250000,160.000000,-2.250000,159.904329,-2.230970,159.823223,-2.176777,159.769030,-2.095671,159.750000,-2.000000,159.769030,-1.904329,159.823223,-1.823223,159.904329,-1.769030,160.000000,-1.750000,161.750000,-1.750000,161.750000,-0.250000,160.000000,-0.250000,159.904329,-0.230970,159.823223,-0.176777,159.769030,-0.095671,159.750000,0.000000,159.769030,0.095671,159.823223,0.176777,159.904329,0.230970,
160.000000,0.250000,164.000000,0.250000,164.095671,0.230970,164.095671,0.230970,$1*%
%AMFreePoly19*
4,1,63,50.095671,0.230970,50.176777,0.176777,50.230970,0.095671,50.250000,0.000000,50.230970,-0.095671,50.176777,-0.176777,50.095671,-0.230970,50.000000,-0.250000,48.250000,-0.250000,48.250000,-1.750000,50.000000,-1.750000,50.095671,-1.769030,50.176777,-1.823223,50.230970,-1.904329,50.250000,-2.000000,50.230970,-2.095671,50.176777,-2.176777,50.095671,-2.230970,50.000000,-2.250000,48.250000,-2.250000,
48.250000,-3.750000,50.000000,-3.750000,50.095671,-3.769030,50.176777,-3.823223,50.230970,-3.904329,50.250000,-4.000000,50.230970,-4.095671,50.176777,-4.176777,50.095671,-4.230970,50.000000,-4.250000,46.000000,-4.250000,45.904329,-4.230970,45.823223,-4.176777,45.769030,-4.095671,45.750000,-4.000000,45.769030,-3.904329,45.823223,-3.823223,45.904329,-3.769030,46.000000,-3.750000,47.750000,-3.750000,
47.750000,-2.250000,46.000000,-2.250000,45.904329,-2.230970,45.823223,-2.176777,45.769030,-2.095671,45.750000,-2.000000,45.769030,-1.904329,45.823223,-1.823223,45.904329,-1.769030,46.000000,-1.750000,47.750000,-1.750000,47.750000,-0.250000,46.000000,-0.250000,45.904329,-0.230970,45.823223,-0.176777,45.769030,-0.095671,45.750000,0.000000,45.769030,0.095671,45.823223,0.176777,45.904329,0.230970,
46.000000,0.250000,50.000000,0.250000,50.095671,0.230970,50.095671,0.230970,$1*%
%AMFreePoly20*
4,1,63,44.095671,0.230970,44.176777,0.176777,44.230970,0.095671,44.250000,0.000000,44.230970,-0.095671,44.176777,-0.176777,44.095671,-0.230970,44.000000,-0.250000,42.250000,-0.250000,42.250000,-1.750000,44.000000,-1.750000,44.095671,-1.769030,44.176777,-1.823223,44.230970,-1.904329,44.250000,-2.000000,44.230970,-2.095671,44.176777,-2.176777,44.095671,-2.230970,44.000000,-2.250000,42.250000,-2.250000,
42.250000,-3.750000,44.000000,-3.750000,44.095671,-3.769030,44.176777,-3.823223,44.230970,-3.904329,44.250000,-4.000000,44.230970,-4.095671,44.176777,-4.176777,44.095671,-4.230970,44.000000,-4.250000,40.000000,-4.250000,39.904329,-4.230970,39.823223,-4.176777,39.769030,-4.095671,39.750000,-4.000000,39.769030,-3.904329,39.823223,-3.823223,39.904329,-3.769030,40.000000,-3.750000,41.750000,-3.750000,
41.750000,-2.250000,40.000000,-2.250000,39.904329,-2.230970,39.823223,-2.176777,39.769030,-2.095671,39.750000,-2.000000,39.769030,-1.904329,39.823223,-1.823223,39.904329,-1.769030,40.000000,-1.750000,41.750000,-1.750000,41.750000,-0.250000,40.000000,-0.250000,39.904329,-0.230970,39.823223,-0.176777,39.769030,-0.095671,39.750000,0.000000,39.769030,0.095671,39.823223,0.176777,39.904329,0.230970,
40.000000,0.250000,44.000000,0.250000,44.095671,0.230970,44.095671,0.230970,$1*%
%AMFreePoly21*
4,1,63,38.095671,0.230970,38.176777,0.176777,38.230970,0.095671,38.250000,0.000000,38.230970,-0.095671,38.176777,-0.176777,38.095671,-0.230970,38.000000,-0.250000,36.250000,-0.250000,36.250000,-1.750000,38.000000,-1.750000,38.095671,-1.769030,38.176777,-1.823223,38.230970,-1.904329,38.250000,-2.000000,38.230970,-2.095671,38.176777,-2.176777,38.095671,-2.230970,38.000000,-2.250000,36.250000,-2.250000,
36.250000,-3.750000,38.000000,-3.750000,38.095671,-3.769030,38.176777,-3.823223,38.230970,-3.904329,38.250000,-4.000000,38.230970,-4.095671,38.176777,-4.176777,38.095671,-4.230970,38.000000,-4.250000,34.000000,-4.250000,33.904329,-4.230970,33.823223,-4.176777,33.769030,-4.095671,33.750000,-4.000000,33.769030,-3.904329,33.823223,-3.823223,33.904329,-3.769030,34.000000,-3.750000,35.750000,-3.750000,
35.750000,-2.250000,34.000000,-2.250000,33.904329,-2.230970,33.823223,-2.176777,33.769030,-2.095671,33.750000,-2.000000,33.769030,-1.904329,33.823223,-1.823223,33.904329,-1.769030,34.000000,-1.750000,35.750000,-1.750000,35.750000,-0.250000,34.000000,-0.250000,33.904329,-0.230970,33.823223,-0.176777,33.769030,-0.095671,33.750000,0.000000,33.769030,0.095671,33.823223,0.176777,33.904329,0.230970,
34.000000,0.250000,38.000000,0.250000,38.095671,0.230970,38.095671,0.230970,$1*%
%AMFreePoly22*
4,1,42,192.095671,0.230970,192.176777,0.176777,192.230970,0.095671,192.250000,0.000000,192.250000,-4.000000,192.230970,-4.095671,192.176777,-4.176777,192.095671,-4.230970,192.000000,-4.250000,190.000000,-4.250000,189.904329,-4.230970,189.823223,-4.176777,189.769030,-4.095671,189.750000,-4.000000,189.769030,-3.904329,189.823223,-3.823223,189.904329,-3.769030,190.000000,-3.750000,191.750000,-3.750000,191.750000,-2.250000,
190.000000,-2.250000,189.904329,-2.230970,189.823223,-2.176777,189.769030,-2.095671,189.750000,-2.000000,189.769030,-1.904329,189.823223,-1.823223,189.904329,-1.769030,190.000000,-1.750000,191.750000,-1.750000,191.750000,-0.250000,190.000000,-0.250000,189.904329,-0.230970,189.823223,-0.176777,189.769030,-0.095671,189.750000,0.000000,189.769030,0.095671,189.823223,0.176777,189.904329,0.230970,190.000000,0.250000,
192.000000,0.250000,192.095671,0.230970,192.095671,0.230970,$1*%
%AMFreePoly23*
4,1,63,8.095671,0.230970,8.176777,0.176777,8.230970,0.095671,8.250000,0.000000,8.230970,-0.095671,8.176777,-0.176777,8.095671,-0.230970,8.000000,-0.250000,6.250000,-0.250000,6.250000,-1.750000,8.000000,-1.750000,8.095671,-1.769030,8.176777,-1.823223,8.230970,-1.904329,8.250000,-2.000000,8.230970,-2.095671,8.176777,-2.176777,8.095671,-2.230970,8.000000,-2.250000,6.250000,-2.250000,
6.250000,-3.750000,8.000000,-3.750000,8.095671,-3.769030,8.176777,-3.823223,8.230970,-3.904329,8.250000,-4.000000,8.230970,-4.095671,8.176777,-4.176777,8.095671,-4.230970,8.000000,-4.250000,4.000000,-4.250000,3.904329,-4.230970,3.823223,-4.176777,3.769030,-4.095671,3.750000,-4.000000,3.769030,-3.904329,3.823223,-3.823223,3.904329,-3.769030,4.000000,-3.750000,5.750000,-3.750000,
5.750000,-2.250000,4.000000,-2.250000,3.904329,-2.230970,3.823223,-2.176777,3.769030,-2.095671,3.750000,-2.000000,3.769030,-1.904329,3.823223,-1.823223,3.904329,-1.769030,4.000000,-1.750000,5.750000,-1.750000,5.750000,-0.250000,4.000000,-0.250000,3.904329,-0.230970,3.823223,-0.176777,3.769030,-0.095671,3.750000,0.000000,3.769030,0.095671,3.823223,0.176777,3.904329,0.230970,
4.000000,0.250000,8.000000,0.250000,8.095671,0.230970,8.095671,0.230970,$1*%
%AMFreePoly24*
4,1,63,62.095671,0.230970,62.176777,0.176777,62.230970,0.095671,62.250000,0.000000,62.230970,-0.095671,62.176777,-0.176777,62.095671,-0.230970,62.000000,-0.250000,60.250000,-0.250000,60.250000,-1.750000,62.000000,-1.750000,62.095671,-1.769030,62.176777,-1.823223,62.230970,-1.904329,62.250000,-2.000000,62.230970,-2.095671,62.176777,-2.176777,62.095671,-2.230970,62.000000,-2.250000,60.250000,-2.250000,
60.250000,-3.750000,62.000000,-3.750000,62.095671,-3.769030,62.176777,-3.823223,62.230970,-3.904329,62.250000,-4.000000,62.230970,-4.095671,62.176777,-4.176777,62.095671,-4.230970,62.000000,-4.250000,58.000000,-4.250000,57.904329,-4.230970,57.823223,-4.176777,57.769030,-4.095671,57.750000,-4.000000,57.769030,-3.904329,57.823223,-3.823223,57.904329,-3.769030,58.000000,-3.750000,59.750000,-3.750000,
59.750000,-2.250000,58.000000,-2.250000,57.904329,-2.230970,57.823223,-2.176777,57.769030,-2.095671,57.750000,-2.000000,57.769030,-1.904329,57.823223,-1.823223,57.904329,-1.769030,58.000000,-1.750000,59.750000,-1.750000,59.750000,-0.250000,58.000000,-0.250000,57.904329,-0.230970,57.823223,-0.176777,57.769030,-0.095671,57.750000,0.000000,57.769030,0.095671,57.823223,0.176777,57.904329,0.230970,
58.000000,0.250000,62.000000,0.250000,62.095671,0.230970,62.095671,0.230970,$1*%
%AMFreePoly25*
4,1,63,98.095671,0.230970,98.176777,0.176777,98.230970,0.095671,98.250000,0.000000,98.230970,-0.095671,98.176777,-0.176777,98.095671,-0.230970,98.000000,-0.250000,96.250000,-0.250000,96.250000,-1.750000,98.000000,-1.750000,98.095671,-1.769030,98.176777,-1.823223,98.230970,-1.904329,98.250000,-2.000000,98.230970,-2.095671,98.176777,-2.176777,98.095671,-2.230970,98.000000,-2.250000,96.250000,-2.250000,
96.250000,-3.750000,98.000000,-3.750000,98.095671,-3.769030,98.176777,-3.823223,98.230970,-3.904329,98.250000,-4.000000,98.230970,-4.095671,98.176777,-4.176777,98.095671,-4.230970,98.000000,-4.250000,94.000000,-4.250000,93.904329,-4.230970,93.823223,-4.176777,93.769030,-4.095671,93.750000,-4.000000,93.769030,-3.904329,93.823223,-3.823223,93.904329,-3.769030,94.000000,-3.750000,95.750000,-3.750000,
95.750000,-2.250000,94.000000,-2.250000,93.904329,-2.230970,93.823223,-2.176777,93.769030,-2.095671,93.750000,-2.000000,93.769030,-1.904329,93.823223,-1.823223,93.904329,-1.769030,94.000000,-1.750000,95.750000,-1.750000,95.750000,-0.250000,94.000000,-0.250000,93.904329,-0.230970,93.823223,-0.176777,93.769030,-0.095671,93.750000,0.000000,93.769030,0.095671,93.823223,0.176777,93.904329,0.230970,
94.000000,0.250000,98.000000,0.250000,98.095671,0.230970,98.095671,0.230970,$1*%
%AMFreePoly26*
4,1,63,26.095671,0.230970,26.176777,0.176777,26.230970,0.095671,26.250000,0.000000,26.230970,-0.095671,26.176777,-0.176777,26.095671,-0.230970,26.000000,-0.250000,24.250000,-0.250000,24.250000,-1.750000,26.000000,-1.750000,26.095671,-1.769030,26.176777,-1.823223,26.230970,-1.904329,26.250000,-2.000000,26.230970,-2.095671,26.176777,-2.176777,26.095671,-2.230970,26.000000,-2.250000,24.250000,-2.250000,
24.250000,-3.750000,26.000000,-3.750000,26.095671,-3.769030,26.176777,-3.823223,26.230970,-3.904329,26.250000,-4.000000,26.230970,-4.095671,26.176777,-4.176777,26.095671,-4.230970,26.000000,-4.250000,22.000000,-4.250000,21.904329,-4.230970,21.823223,-4.176777,21.769030,-4.095671,21.750000,-4.000000,21.769030,-3.904329,21.823223,-3.823223,21.904329,-3.769030,22.000000,-3.750000,23.750000,-3.750000,
23.750000,-2.250000,22.000000,-2.250000,21.904329,-2.230970,21.823223,-2.176777,21.769030,-2.095671,21.750000,-2.000000,21.769030,-1.904329,21.823223,-1.823223,21.904329,-1.769030,22.000000,-1.750000,23.750000,-1.750000,23.750000,-0.250000,22.000000,-0.250000,21.904329,-0.230970,21.823223,-0.176777,21.769030,-0.095671,21.750000,0.000000,21.769030,0.095671,21.823223,0.176777,21.904329,0.230970,
22.000000,0.250000,26.000000,0.250000,26.095671,0.230970,26.095671,0.230970,$1*%
%AMFreePoly27*
4,1,63,182.095671,0.230970,182.176777,0.176777,182.230970,0.095671,182.250000,0.000000,182.230970,-0.095671,182.176777,-0.176777,182.095671,-0.230970,182.000000,-0.250000,180.250000,-0.250000,180.250000,-1.750000,182.000000,-1.750000,182.095671,-1.769030,182.176777,-1.823223,182.230970,-1.904329,182.250000,-2.000000,182.230970,-2.095671,182.176777,-2.176777,182.095671,-2.230970,182.000000,-2.250000,180.250000,-2.250000,
180.250000,-3.750000,182.000000,-3.750000,182.095671,-3.769030,182.176777,-3.823223,182.230970,-3.904329,182.250000,-4.000000,182.230970,-4.095671,182.176777,-4.176777,182.095671,-4.230970,182.000000,-4.250000,178.000000,-4.250000,177.904329,-4.230970,177.823223,-4.176777,177.769030,-4.095671,177.750000,-4.000000,177.769030,-3.904329,177.823223,-3.823223,177.904329,-3.769030,178.000000,-3.750000,179.750000,-3.750000,
179.750000,-2.250000,178.000000,-2.250000,177.904329,-2.230970,177.823223,-2.176777,177.769030,-2.095671,177.750000,-2.000000,177.769030,-1.904329,177.823223,-1.823223,177.904329,-1.769030,178.000000,-1.750000,179.750000,-1.750000,179.750000,-0.250000,178.000000,-0.250000,177.904329,-0.230970,177.823223,-0.176777,177.769030,-0.095671,177.750000,0.000000,177.769030,0.095671,177.823223,0.176777,177.904329,0.230970,
178.000000,0.250000,182.000000,0.250000,182.095671,0.230970,182.095671,0.230970,$1*%
%AMFreePoly28*
4,1,63,176.095671,0.230970,176.176777,0.176777,176.230970,0.095671,176.250000,0.000000,176.230970,-0.095671,176.176777,-0.176777,176.095671,-0.230970,176.000000,-0.250000,174.250000,-0.250000,174.250000,-1.750000,176.000000,-1.750000,176.095671,-1.769030,176.176777,-1.823223,176.230970,-1.904329,176.250000,-2.000000,176.230970,-2.095671,176.176777,-2.176777,176.095671,-2.230970,176.000000,-2.250000,174.250000,-2.250000,
174.250000,-3.750000,176.000000,-3.750000,176.095671,-3.769030,176.176777,-3.823223,176.230970,-3.904329,176.250000,-4.000000,176.230970,-4.095671,176.176777,-4.176777,176.095671,-4.230970,176.000000,-4.250000,172.000000,-4.250000,171.904329,-4.230970,171.823223,-4.176777,171.769030,-4.095671,171.750000,-4.000000,171.769030,-3.904329,171.823223,-3.823223,171.904329,-3.769030,172.000000,-3.750000,173.750000,-3.750000,
173.750000,-2.250000,172.000000,-2.250000,171.904329,-2.230970,171.823223,-2.176777,171.769030,-2.095671,171.750000,-2.000000,171.769030,-1.904329,171.823223,-1.823223,171.904329,-1.769030,172.000000,-1.750000,173.750000,-1.750000,173.750000,-0.250000,172.000000,-0.250000,171.904329,-0.230970,171.823223,-0.176777,171.769030,-0.095671,171.750000,0.000000,171.769030,0.095671,171.823223,0.176777,171.904329,0.230970,
172.000000,0.250000,176.000000,0.250000,176.095671,0.230970,176.095671,0.230970,$1*%
%AMFreePoly29*
4,1,63,32.095671,0.230970,32.176777,0.176777,32.230970,0.095671,32.250000,0.000000,32.230970,-0.095671,32.176777,-0.176777,32.095671,-0.230970,32.000000,-0.250000,30.250000,-0.250000,30.250000,-1.750000,32.000000,-1.750000,32.095671,-1.769030,32.176777,-1.823223,32.230970,-1.904329,32.250000,-2.000000,32.230970,-2.095671,32.176777,-2.176777,32.095671,-2.230970,32.000000,-2.250000,30.250000,-2.250000,
30.250000,-3.750000,32.000000,-3.750000,32.095671,-3.769030,32.176777,-3.823223,32.230970,-3.904329,32.250000,-4.000000,32.230970,-4.095671,32.176777,-4.176777,32.095671,-4.230970,32.000000,-4.250000,28.000000,-4.250000,27.904329,-4.230970,27.823223,-4.176777,27.769030,-4.095671,27.750000,-4.000000,27.769030,-3.904329,27.823223,-3.823223,27.904329,-3.769030,28.000000,-3.750000,29.750000,-3.750000,
29.750000,-2.250000,28.000000,-2.250000,27.904329,-2.230970,27.823223,-2.176777,27.769030,-2.095671,27.750000,-2.000000,27.769030,-1.904329,27.823223,-1.823223,27.904329,-1.769030,28.000000,-1.750000,29.750000,-1.750000,29.750000,-0.250000,28.000000,-0.250000,27.904329,-0.230970,27.823223,-0.176777,27.769030,-0.095671,27.750000,0.000000,27.769030,0.095671,27.823223,0.176777,27.904329,0.230970,
28.000000,0.250000,32.000000,0.250000,32.095671,0.230970,32.095671,0.230970,$1*%
%AMFreePoly30*
4,1,63,14.095671,0.230970,14.176777,0.176777,14.230970,0.095671,14.250000,0.000000,14.230970,-0.095671,14.176777,-0.176777,14.095671,-0.230970,14.000000,-0.250000,12.250000,-0.250000,12.250000,-1.750000,14.000000,-1.750000,14.095671,-1.769030,14.176777,-1.823223,14.230970,-1.904329,14.250000,-2.000000,14.230970,-2.095671,14.176777,-2.176777,14.095671,-2.230970,14.000000,-2.250000,12.250000,-2.250000,
12.250000,-3.750000,14.000000,-3.750000,14.095671,-3.769030,14.176777,-3.823223,14.230970,-3.904329,14.250000,-4.000000,14.230970,-4.095671,14.176777,-4.176777,14.095671,-4.230970,14.000000,-4.250000,10.000000,-4.250000,9.904329,-4.230970,9.823223,-4.176777,9.769030,-4.095671,9.750000,-4.000000,9.769030,-3.904329,9.823223,-3.823223,9.904329,-3.769030,10.000000,-3.750000,11.750000,-3.750000,
11.750000,-2.250000,10.000000,-2.250000,9.904329,-2.230970,9.823223,-2.176777,9.769030,-2.095671,9.750000,-2.000000,9.769030,-1.904329,9.823223,-1.823223,9.904329,-1.769030,10.000000,-1.750000,11.750000,-1.750000,11.750000,-0.250000,10.000000,-0.250000,9.904329,-0.230970,9.823223,-0.176777,9.769030,-0.095671,9.750000,0.000000,9.769030,0.095671,9.823223,0.176777,9.904329,0.230970,
10.000000,0.250000,14.000000,0.250000,14.095671,0.230970,14.095671,0.230970,$1*%
%AMFreePoly31*
4,1,63,92.095671,0.230970,92.176777,0.176777,92.230970,0.095671,92.250000,0.000000,92.230970,-0.095671,92.176777,-0.176777,92.095671,-0.230970,92.000000,-0.250000,90.250000,-0.250000,90.250000,-1.750000,92.000000,-1.750000,92.095671,-1.769030,92.176777,-1.823223,92.230970,-1.904329,92.250000,-2.000000,92.230970,-2.095671,92.176777,-2.176777,92.095671,-2.230970,92.000000,-2.250000,90.250000,-2.250000,
90.250000,-3.750000,92.000000,-3.750000,92.095671,-3.769030,92.176777,-3.823223,92.230970,-3.904329,92.250000,-4.000000,92.230970,-4.095671,92.176777,-4.176777,92.095671,-4.230970,92.000000,-4.250000,88.000000,-4.250000,87.904329,-4.230970,87.823223,-4.176777,87.769030,-4.095671,87.750000,-4.000000,87.769030,-3.904329,87.823223,-3.823223,87.904329,-3.769030,88.000000,-3.750000,89.750000,-3.750000,
89.750000,-2.250000,88.000000,-2.250000,87.904329,-2.230970,87.823223,-2.176777,87.769030,-2.095671,87.750000,-2.000000,87.769030,-1.904329,87.823223,-1.823223,87.904329,-1.769030,88.000000,-1.750000,89.750000,-1.750000,89.750000,-0.250000,88.000000,-0.250000,87.904329,-0.230970,87.823223,-0.176777,87.769030,-0.095671,87.750000,0.000000,87.769030,0.095671,87.823223,0.176777,87.904329,0.230970,
88.000000,0.250000,92.000000,0.250000,92.095671,0.230970,92.095671,0.230970,$1*%
%AMFreePoly32*
4,1,63,20.095671,0.230970,20.176777,0.176777,20.230970,0.095671,20.250000,0.000000,20.230970,-0.095671,20.176777,-0.176777,20.095671,-0.230970,20.000000,-0.250000,18.250000,-0.250000,18.250000,-1.750000,20.000000,-1.750000,20.095671,-1.769030,20.176777,-1.823223,20.230970,-1.904329,20.250000,-2.000000,20.230970,-2.095671,20.176777,-2.176777,20.095671,-2.230970,20.000000,-2.250000,18.250000,-2.250000,
18.250000,-3.750000,20.000000,-3.750000,20.095671,-3.769030,20.176777,-3.823223,20.230970,-3.904329,20.250000,-4.000000,20.230970,-4.095671,20.176777,-4.176777,20.095671,-4.230970,20.000000,-4.250000,16.000000,-4.250000,15.904329,-4.230970,15.823223,-4.176777,15.769030,-4.095671,15.750000,-4.000000,15.769030,-3.904329,15.823223,-3.823223,15.904329,-3.769030,16.000000,-3.750000,17.750000,-3.750000,
17.750000,-2.250000,16.000000,-2.250000,15.904329,-2.230970,15.823223,-2.176777,15.769030,-2.095671,15.750000,-2.000000,15.769030,-1.904329,15.823223,-1.823223,15.904329,-1.769030,16.000000,-1.750000,17.750000,-1.750000,17.750000,-0.250000,16.000000,-0.250000,15.904329,-0.230970,15.823223,-0.176777,15.769030,-0.095671,15.750000,0.000000,15.769030,0.095671,15.823223,0.176777,15.904329,0.230970,
16.000000,0.250000,20.000000,0.250000,20.095671,0.230970,20.095671,0.230970,$1*%
%AMFreePoly33*
4,1,547,2.095671,0.230970,2.176777,0.176777,2.230970,0.095671,2.250000,0.000000,2.230970,-0.095671,2.176777,-0.176777,2.095671,-0.230970,2.000000,-0.250000,0.250000,-0.250000,0.250000,-1.750000,2.000000,-1.750000,2.095671,-1.769030,2.176777,-1.823223,2.230970,-1.904329,2.250000,-2.000000,2.230970,-2.095671,2.176777,-2.176777,2.095671,-2.230970,2.000000,-2.250000,0.250000,-2.250000,
0.250000,-3.750000,2.000000,-3.750000,2.095671,-3.769030,2.176777,-3.823223,2.230970,-3.904329,2.250000,-4.000000,2.230970,-4.095671,2.176777,-4.176777,2.095671,-4.230970,2.000000,-4.250000,0.250000,-4.250000,0.250000,-5.750000,2.000000,-5.750000,2.095671,-5.769030,2.176777,-5.823223,2.230970,-5.904329,2.250000,-6.000000,2.230970,-6.095671,2.176777,-6.176777,2.095671,-6.230970,
2.000000,-6.250000,0.250000,-6.250000,0.250000,-7.750000,2.000000,-7.750000,2.095671,-7.769030,2.176777,-7.823223,2.230970,-7.904329,2.250000,-8.000000,2.230970,-8.095671,2.176777,-8.176777,2.095671,-8.230970,2.000000,-8.250000,0.250000,-8.250000,0.250000,-9.750000,2.000000,-9.750000,2.095671,-9.769030,2.176777,-9.823223,2.230970,-9.904329,2.250000,-10.000000,2.230970,-10.095671,
2.176777,-10.176777,2.095671,-10.230970,2.000000,-10.250000,0.250000,-10.250000,0.250000,-11.750000,2.000000,-11.750000,2.095671,-11.769030,2.176777,-11.823223,2.230970,-11.904329,2.250000,-12.000000,2.230970,-12.095671,2.176777,-12.176777,2.095671,-12.230970,2.000000,-12.250000,0.250000,-12.250000,0.250000,-13.750000,2.000000,-13.750000,2.095671,-13.769030,2.176777,-13.823223,2.230970,-13.904329,
2.250000,-14.000000,2.230970,-14.095671,2.176777,-14.176777,2.095671,-14.230970,2.000000,-14.250000,0.250000,-14.250000,0.250000,-15.750000,2.000000,-15.750000,2.095671,-15.769030,2.176777,-15.823223,2.230970,-15.904329,2.250000,-16.000000,2.230970,-16.095671,2.176777,-16.176777,2.095671,-16.230970,2.000000,-16.250000,0.250000,-16.250000,0.250000,-17.750000,2.000000,-17.750000,2.095671,-17.769030,
2.176777,-17.823223,2.230970,-17.904329,2.250000,-18.000000,2.230970,-18.095671,2.176777,-18.176777,2.095671,-18.230970,2.000000,-18.250000,0.250000,-18.250000,0.250000,-19.750000,2.000000,-19.750000,2.095671,-19.769030,2.176777,-19.823223,2.230970,-19.904329,2.250000,-20.000000,2.230970,-20.095671,2.176777,-20.176777,2.095671,-20.230970,2.000000,-20.250000,0.250000,-20.250000,0.250000,-21.750000,
2.000000,-21.750000,2.095671,-21.769030,2.176777,-21.823223,2.230970,-21.904329,2.250000,-22.000000,2.230970,-22.095671,2.176777,-22.176777,2.095671,-22.230970,2.000000,-22.250000,0.250000,-22.250000,0.250000,-23.750000,2.000000,-23.750000,2.095671,-23.769030,2.176777,-23.823223,2.230970,-23.904329,2.250000,-24.000000,2.230970,-24.095671,2.176777,-24.176777,2.095671,-24.230970,2.000000,-24.250000,
0.250000,-24.250000,0.250000,-25.750000,2.000000,-25.750000,2.095671,-25.769030,2.176777,-25.823223,2.230970,-25.904329,2.250000,-26.000000,2.230970,-26.095671,2.176777,-26.176777,2.095671,-26.230970,2.000000,-26.250000,0.250000,-26.250000,0.250000,-27.750000,2.000000,-27.750000,2.095671,-27.769030,2.176777,-27.823223,2.230970,-27.904329,2.250000,-28.000000,2.230970,-28.095671,2.176777,-28.176777,
2.095671,-28.230970,2.000000,-28.250000,0.250000,-28.250000,0.250000,-29.750000,2.000000,-29.750000,2.095671,-29.769030,2.176777,-29.823223,2.230970,-29.904329,2.250000,-30.000000,2.230970,-30.095671,2.176777,-30.176777,2.095671,-30.230970,2.000000,-30.250000,0.250000,-30.250000,0.250000,-31.750000,2.000000,-31.750000,2.095671,-31.769030,2.176777,-31.823223,2.230970,-31.904329,2.250000,-32.000000,
2.230970,-32.095671,2.176777,-32.176777,2.095671,-32.230970,2.000000,-32.250000,0.250000,-32.250000,0.250000,-33.750000,2.000000,-33.750000,2.095671,-33.769030,2.176777,-33.823223,2.230970,-33.904329,2.250000,-34.000000,2.230970,-34.095671,2.176777,-34.176777,2.095671,-34.230970,2.000000,-34.250000,0.250000,-34.250000,0.250000,-35.750000,2.000000,-35.750000,2.095671,-35.769030,2.176777,-35.823223,
2.230970,-35.904329,2.250000,-36.000000,2.230970,-36.095671,2.176777,-36.176777,2.095671,-36.230970,2.000000,-36.250000,0.250000,-36.250000,0.250000,-37.750000,2.000000,-37.750000,2.095671,-37.769030,2.176777,-37.823223,2.230970,-37.904329,2.250000,-38.000000,2.230970,-38.095671,2.176777,-38.176777,2.095671,-38.230970,2.000000,-38.250000,0.250000,-38.250000,0.250000,-39.750000,2.000000,-39.750000,
2.095671,-39.769030,2.176777,-39.823223,2.230970,-39.904329,2.250000,-40.000000,2.230970,-40.095671,2.176777,-40.176777,2.095671,-40.230970,2.000000,-40.250000,0.250000,-40.250000,0.250000,-41.750000,2.000000,-41.750000,2.095671,-41.769030,2.176777,-41.823223,2.230970,-41.904329,2.250000,-42.000000,2.230970,-42.095671,2.176777,-42.176777,2.095671,-42.230970,2.000000,-42.250000,0.250000,-42.250000,
0.250000,-43.750000,2.000000,-43.750000,2.095671,-43.769030,2.176777,-43.823223,2.230970,-43.904329,2.250000,-44.000000,2.230970,-44.095671,2.176777,-44.176777,2.095671,-44.230970,2.000000,-44.250000,0.250000,-44.250000,0.250000,-45.750000,2.000000,-45.750000,2.095671,-45.769030,2.176777,-45.823223,2.230970,-45.904329,2.250000,-46.000000,2.230970,-46.095671,2.176777,-46.176777,2.095671,-46.230970,
2.000000,-46.250000,0.250000,-46.250000,0.250000,-47.750000,2.000000,-47.750000,2.095671,-47.769030,2.176777,-47.823223,2.230970,-47.904329,2.250000,-48.000000,2.230970,-48.095671,2.176777,-48.176777,2.095671,-48.230970,2.000000,-48.250000,-2.000000,-48.250000,-2.095671,-48.230970,-2.176777,-48.176777,-2.230970,-48.095671,-2.250000,-48.000000,-2.230970,-47.904329,-2.176777,-47.823223,-2.095671,-47.769030,
-2.000000,-47.750000,-0.250000,-47.750000,-0.250000,-46.250000,-2.000000,-46.250000,-2.095671,-46.230970,-2.176777,-46.176777,-2.230970,-46.095671,-2.250000,-46.000000,-2.230970,-45.904329,-2.176777,-45.823223,-2.095671,-45.769030,-2.000000,-45.750000,-0.250000,-45.750000,-0.250000,-44.250000,-2.000000,-44.250000,-2.095671,-44.230970,-2.176777,-44.176777,-2.230970,-44.095671,-2.250000,-44.000000,-2.230970,-43.904329,
-2.176777,-43.823223,-2.095671,-43.769030,-2.000000,-43.750000,-0.250000,-43.750000,-0.250000,-42.250000,-2.000000,-42.250000,-2.095671,-42.230970,-2.176777,-42.176777,-2.230970,-42.095671,-2.250000,-42.000000,-2.230970,-41.904329,-2.176777,-41.823223,-2.095671,-41.769030,-2.000000,-41.750000,-0.250000,-41.750000,-0.250000,-40.250000,-2.000000,-40.250000,-2.095671,-40.230970,-2.176777,-40.176777,-2.230970,-40.095671,
-2.250000,-40.000000,-2.230970,-39.904329,-2.176777,-39.823223,-2.095671,-39.769030,-2.000000,-39.750000,-0.250000,-39.750000,-0.250000,-38.250000,-2.000000,-38.250000,-2.095671,-38.230970,-2.176777,-38.176777,-2.230970,-38.095671,-2.250000,-38.000000,-2.230970,-37.904329,-2.176777,-37.823223,-2.095671,-37.769030,-2.000000,-37.750000,-0.250000,-37.750000,-0.250000,-36.250000,-2.000000,-36.250000,-2.095671,-36.230970,
-2.176777,-36.176777,-2.230970,-36.095671,-2.250000,-36.000000,-2.230970,-35.904329,-2.176777,-35.823223,-2.095671,-35.769030,-2.000000,-35.750000,-0.250000,-35.750000,-0.250000,-34.250000,-2.000000,-34.250000,-2.095671,-34.230970,-2.176777,-34.176777,-2.230970,-34.095671,-2.250000,-34.000000,-2.230970,-33.904329,-2.176777,-33.823223,-2.095671,-33.769030,-2.000000,-33.750000,-0.250000,-33.750000,-0.250000,-32.250000,
-2.000000,-32.250000,-2.095671,-32.230970,-2.176777,-32.176777,-2.230970,-32.095671,-2.250000,-32.000000,-2.230970,-31.904329,-2.176777,-31.823223,-2.095671,-31.769030,-2.000000,-31.750000,-0.250000,-31.750000,-0.250000,-30.250000,-2.000000,-30.250000,-2.095671,-30.230970,-2.176777,-30.176777,-2.230970,-30.095671,-2.250000,-30.000000,-2.230970,-29.904329,-2.176777,-29.823223,-2.095671,-29.769030,-2.000000,-29.750000,
-0.250000,-29.750000,-0.250000,-28.250000,-2.000000,-28.250000,-2.095671,-28.230970,-2.176777,-28.176777,-2.230970,-28.095671,-2.250000,-28.000000,-2.230970,-27.904329,-2.176777,-27.823223,-2.095671,-27.769030,-2.000000,-27.750000,-0.250000,-27.750000,-0.250000,-26.250000,-2.000000,-26.250000,-2.095671,-26.230970,-2.176777,-26.176777,-2.230970,-26.095671,-2.250000,-26.000000,-2.230970,-25.904329,-2.176777,-25.823223,
-2.095671,-25.769030,-2.000000,-25.750000,-0.250000,-25.750000,-0.250000,-24.250000,-2.000000,-24.250000,-2.095671,-24.230970,-2.176777,-24.176777,-2.230970,-24.095671,-2.250000,-24.000000,-2.230970,-23.904329,-2.176777,-23.823223,-2.095671,-23.769030,-2.000000,-23.750000,-0.250000,-23.750000,-0.250000,-22.250000,-2.000000,-22.250000,-2.095671,-22.230970,-2.176777,-22.176777,-2.230970,-22.095671,-2.250000,-22.000000,
-2.230970,-21.904329,-2.176777,-21.823223,-2.095671,-21.769030,-2.000000,-21.750000,-0.250000,-21.750000,-0.250000,-20.250000,-2.000000,-20.250000,-2.095671,-20.230970,-2.176777,-20.176777,-2.230970,-20.095671,-2.250000,-20.000000,-2.230970,-19.904329,-2.176777,-19.823223,-2.095671,-19.769030,-2.000000,-19.750000,-0.250000,-19.750000,-0.250000,-18.250000,-2.000000,-18.250000,-2.095671,-18.230970,-2.176777,-18.176777,
-2.230970,-18.095671,-2.250000,-18.000000,-2.230970,-17.904329,-2.176777,-17.823223,-2.095671,-17.769030,-2.000000,-17.750000,-0.250000,-17.750000,-0.250000,-16.250000,-2.000000,-16.250000,-2.095671,-16.230970,-2.176777,-16.176777,-2.230970,-16.095671,-2.250000,-16.000000,-2.230970,-15.904329,-2.176777,-15.823223,-2.095671,-15.769030,-2.000000,-15.750000,-0.250000,-15.750000,-0.250000,-14.250000,-2.000000,-14.250000,
-2.095671,-14.230970,-2.176777,-14.176777,-2.230970,-14.095671,-2.250000,-14.000000,-2.230970,-13.904329,-2.176777,-13.823223,-2.095671,-13.769030,-2.000000,-13.750000,-0.250000,-13.750000,-0.250000,-12.250000,-2.000000,-12.250000,-2.095671,-12.230970,-2.176777,-12.176777,-2.230970,-12.095671,-2.250000,-12.000000,-2.230970,-11.904329,-2.176777,-11.823223,-2.095671,-11.769030,-2.000000,-11.750000,-0.250000,-11.750000,
-0.250000,-10.250000,-2.000000,-10.250000,-2.095671,-10.230970,-2.176777,-10.176777,-2.230970,-10.095671,-2.250000,-10.000000,-2.230970,-9.904329,-2.176777,-9.823223,-2.095671,-9.769030,-2.000000,-9.750000,-0.250000,-9.750000,-0.250000,-8.250000,-2.000000,-8.250000,-2.095671,-8.230970,-2.176777,-8.176777,-2.230970,-8.095671,-2.250000,-8.000000,-2.230970,-7.904329,-2.176777,-7.823223,-2.095671,-7.769030,
-2.000000,-7.750000,-0.250000,-7.750000,-0.250000,-6.250000,-2.000000,-6.250000,-2.095671,-6.230970,-2.176777,-6.176777,-2.230970,-6.095671,-2.250000,-6.000000,-2.230970,-5.904329,-2.176777,-5.823223,-2.095671,-5.769030,-2.000000,-5.750000,-0.250000,-5.750000,-0.250000,-4.250000,-2.000000,-4.250000,-2.095671,-4.230970,-2.176777,-4.176777,-2.230970,-4.095671,-2.250000,-4.000000,-2.230970,-3.904329,
-2.176777,-3.823223,-2.095671,-3.769030,-2.000000,-3.750000,-0.250000,-3.750000,-0.250000,-2.250000,-2.000000,-2.250000,-2.095671,-2.230970,-2.176777,-2.176777,-2.230970,-2.095671,-2.250000,-2.000000,-2.230970,-1.904329,-2.176777,-1.823223,-2.095671,-1.769030,-2.000000,-1.750000,-0.250000,-1.750000,-0.250000,-0.250000,-2.000000,-0.250000,-2.095671,-0.230970,-2.176777,-0.176777,-2.230970,-0.095671,
-2.250000,0.000000,-2.230970,0.095671,-2.176777,0.176777,-2.095671,0.230970,-2.000000,0.250000,2.000000,0.250000,2.095671,0.230970,2.095671,0.230970,$1*%
G04 Aperture macros list end*
G04 #@! TA.AperFunction,SMDPad,CuDef*
%ADD10FreePoly0,0.000000*%
G04 #@! TD*
G04 #@! TA.AperFunction,SMDPad,CuDef*
%ADD11FreePoly1,0.000000*%
G04 #@! TD*
G04 #@! TA.AperFunction,SMDPad,CuDef*
%ADD12FreePoly2,0.000000*%
G04 #@! TD*
G04 #@! TA.AperFunction,SMDPad,CuDef*
%ADD13FreePoly3,0.000000*%
G04 #@! TD*
G04 #@! TA.AperFunction,SMDPad,CuDef*
%ADD14FreePoly4,0.000000*%
G04 #@! TD*
G04 #@! TA.AperFunction,SMDPad,CuDef*
%ADD15FreePoly5,0.000000*%
G04 #@! TD*
G04 #@! TA.AperFunction,SMDPad,CuDef*
%ADD16FreePoly6,0.000000*%
G04 #@! TD*
G04 #@! TA.AperFunction,SMDPad,CuDef*
%ADD17FreePoly7,0.000000*%
G04 #@! TD*
G04 #@! TA.AperFunction,SMDPad,CuDef*
%ADD18FreePoly8,0.000000*%
G04 #@! TD*
G04 #@! TA.AperFunction,SMDPad,CuDef*
%ADD19FreePoly9,0.000000*%
G04 #@! TD*
G04 #@! TA.AperFunction,SMDPad,CuDef*
%ADD20FreePoly10,0.000000*%
G04 #@! TD*
G04 #@! TA.AperFunction,SMDPad,CuDef*
%ADD21FreePoly11,0.000000*%
G04 #@! TD*
G04 #@! TA.AperFunction,SMDPad,CuDef*
%ADD22FreePoly12,0.000000*%
G04 #@! TD*
G04 #@! TA.AperFunction,SMDPad,CuDef*
%ADD23FreePoly13,0.000000*%
G04 #@! TD*
G04 #@! TA.AperFunction,SMDPad,CuDef*
%ADD24FreePoly14,0.000000*%
G04 #@! TD*
G04 #@! TA.AperFunction,SMDPad,CuDef*
%ADD25FreePoly15,0.000000*%
G04 #@! TD*
G04 #@! TA.AperFunction,SMDPad,CuDef*
%ADD26FreePoly16,0.000000*%
G04 #@! TD*
G04 #@! TA.AperFunction,SMDPad,CuDef*
%ADD27FreePoly17,0.000000*%
G04 #@! TD*
G04 #@! TA.AperFunction,SMDPad,CuDef*
%ADD28FreePoly18,0.000000*%
G04 #@! TD*
G04 #@! TA.AperFunction,SMDPad,CuDef*
%ADD29FreePoly19,0.000000*%
G04 #@! TD*
G04 #@! TA.AperFunction,SMDPad,CuDef*
%ADD30FreePoly20,0.000000*%
G04 #@! TD*
G04 #@! TA.AperFunction,SMDPad,CuDef*
%ADD31FreePoly21,0.000000*%
G04 #@! TD*
G04 #@! TA.AperFunction,SMDPad,CuDef*
%ADD32FreePoly22,0.000000*%
G04 #@! TD*
G04 #@! TA.AperFunction,SMDPad,CuDef*
%ADD33FreePoly23,0.000000*%
G04 #@! TD*
G04 #@! TA.AperFunction,SMDPad,CuDef*
%ADD34FreePoly24,0.000000*%
G04 #@! TD*
G04 #@! TA.AperFunction,SMDPad,CuDef*
%ADD35FreePoly25,0.000000*%
G04 #@! TD*
G04 #@! TA.AperFunction,SMDPad,CuDef*
%ADD36FreePoly26,0.000000*%
G04 #@! TD*
G04 #@! TA.AperFunction,SMDPad,CuDef*
%ADD37FreePoly27,0.000000*%
G04 #@! TD*
G04 #@! TA.AperFunction,SMDPad,CuDef*
%ADD38FreePoly28,0.000000*%
G04 #@! TD*
G04 #@! TA.AperFunction,SMDPad,CuDef*
%ADD39FreePoly29,0.000000*%
G04 #@! TD*
G04 #@! TA.AperFunction,SMDPad,CuDef*
%ADD40FreePoly30,0.000000*%
G04 #@! TD*
G04 #@! TA.AperFunction,SMDPad,CuDef*
%ADD41FreePoly31,0.000000*%
G04 #@! TD*
G04 #@! TA.AperFunction,SMDPad,CuDef*
%ADD42FreePoly32,0.000000*%
G04 #@! TD*
G04 #@! TA.AperFunction,SMDPad,CuDef*
%ADD43FreePoly33,0.000000*%
G04 #@! TD*
G04 #@! TA.AperFunction,ViaPad*
%ADD44C,0.400000*%
G04 #@! TD*
G04 APERTURE END LIST*
D10*
X63425000Y-57075000D03*
D11*
X63425000Y-57075000D03*
D12*
X63425000Y-57075000D03*
D13*
X63425000Y-57075000D03*
D14*
X63425000Y-57075000D03*
D15*
X63425000Y-57075000D03*
D16*
X63425000Y-57075000D03*
D17*
X63425000Y-57075000D03*
D18*
X63425000Y-57075000D03*
D19*
X63425000Y-57075000D03*
D20*
X63425000Y-57075000D03*
D21*
X63425000Y-57075000D03*
D22*
X63425000Y-57075000D03*
D23*
X63425000Y-57075000D03*
D24*
X63425000Y-57075000D03*
D25*
X63425000Y-57075000D03*
D26*
X63425000Y-57075000D03*
D27*
X63425000Y-57075000D03*
D28*
X63425000Y-57075000D03*
D29*
X63425000Y-57075000D03*
D30*
X63425000Y-57075000D03*
D31*
X63425000Y-57075000D03*
D32*
X63425000Y-57075000D03*
D33*
X63425000Y-57075000D03*
D34*
X63425000Y-57075000D03*
D35*
X63425000Y-57075000D03*
D36*
X63425000Y-57075000D03*
D37*
X63425000Y-57075000D03*
D38*
X63425000Y-57075000D03*
D39*
X63425000Y-57075000D03*
D40*
X63425000Y-57075000D03*
D41*
X63425000Y-57075000D03*
D42*
X63425000Y-57075000D03*
D10*
X63425000Y-63075000D03*
D11*
X63425000Y-63075000D03*
D12*
X63425000Y-63075000D03*
D13*
X63425000Y-63075000D03*
D14*
X63425000Y-63075000D03*
D15*
X63425000Y-63075000D03*
D16*
X63425000Y-63075000D03*
D17*
X63425000Y-63075000D03*
D18*
X63425000Y-63075000D03*
D19*
X63425000Y-63075000D03*
D20*
X63425000Y-63075000D03*
D21*
X63425000Y-63075000D03*
D22*
X63425000Y-63075000D03*
D23*
X63425000Y-63075000D03*
D24*
X63425000Y-63075000D03*
D25*
X63425000Y-63075000D03*
D26*
X63425000Y-63075000D03*
D27*
X63425000Y-63075000D03*
D28*
X63425000Y-63075000D03*
D29*
X63425000Y-63075000D03*
D30*
X63425000Y-63075000D03*
D31*
X63425000Y-63075000D03*
D32*
X63425000Y-63075000D03*
D33*
X63425000Y-63075000D03*
D34*
X63425000Y-63075000D03*
D35*
X63425000Y-63075000D03*
D36*
X63425000Y-63075000D03*
D37*
X63425000Y-63075000D03*
D38*
X63425000Y-63075000D03*
D39*
X63425000Y-63075000D03*
D40*
X63425000Y-63075000D03*
D41*
X63425000Y-63075000D03*
D42*
X63425000Y-63075000D03*
D10*
X63425000Y-69075000D03*
D11*
X63425000Y-69075000D03*
D12*
X63425000Y-69075000D03*
D13*
X63425000Y-69075000D03*
D14*
X63425000Y-69075000D03*
D15*
X63425000Y-69075000D03*
D16*
X63425000Y-69075000D03*
D17*
X63425000Y-69075000D03*
D18*
X63425000Y-69075000D03*
D19*
X63425000Y-69075000D03*
D20*
X63425000Y-69075000D03*
D21*
X63425000Y-69075000D03*
D22*
X63425000Y-69075000D03*
D23*
X63425000Y-69075000D03*
D24*
X63425000Y-69075000D03*
D25*
X63425000Y-69075000D03*
D26*
X63425000Y-69075000D03*
D27*
X63425000Y-69075000D03*
D28*
X63425000Y-69075000D03*
D29*
X63425000Y-69075000D03*
D30*
X63425000Y-69075000D03*
D31*
X63425000Y-69075000D03*
D32*
X63425000Y-69075000D03*
D33*
X63425000Y-69075000D03*
D34*
X63425000Y-69075000D03*
D35*
X63425000Y-69075000D03*
D36*
X63425000Y-69075000D03*
D37*
X63425000Y-69075000D03*
D38*
X63425000Y-69075000D03*
D39*
X63425000Y-69075000D03*
D40*
X63425000Y-69075000D03*
D41*
X63425000Y-69075000D03*
D42*
X63425000Y-69075000D03*
D10*
X63425000Y-75075000D03*
D11*
X63425000Y-75075000D03*
D12*
X63425000Y-75075000D03*
D13*
X63425000Y-75075000D03*
D14*
X63425000Y-75075000D03*
D15*
X63425000Y-75075000D03*
D16*
X63425000Y-75075000D03*
D17*
X63425000Y-75075000D03*
D18*
X63425000Y-75075000D03*
D19*
X63425000Y-75075000D03*
D20*
X63425000Y-75075000D03*
D21*
X63425000Y-75075000D03*
D22*
X63425000Y-75075000D03*
D23*
X63425000Y-75075000D03*
D24*
X63425000Y-75075000D03*
D25*
X63425000Y-75075000D03*
D26*
X63425000Y-75075000D03*
D27*
X63425000Y-75075000D03*
D28*
X63425000Y-75075000D03*
D29*
X63425000Y-75075000D03*
D30*
X63425000Y-75075000D03*
D31*
X63425000Y-75075000D03*
D32*
X63425000Y-75075000D03*
D33*
X63425000Y-75075000D03*
D34*
X63425000Y-75075000D03*
D35*
X63425000Y-75075000D03*
D36*
X63425000Y-75075000D03*
D37*
X63425000Y-75075000D03*
D38*
X63425000Y-75075000D03*
D39*
X63425000Y-75075000D03*
D40*
X63425000Y-75075000D03*
D41*
X63425000Y-75075000D03*
D42*
X63425000Y-75075000D03*
D10*
X63425000Y-81075000D03*
D11*
X63425000Y-81075000D03*
D12*
X63425000Y-81075000D03*
D13*
X63425000Y-81075000D03*
D14*
X63425000Y-81075000D03*
D15*
X63425000Y-81075000D03*
D16*
X63425000Y-81075000D03*
D17*
X63425000Y-81075000D03*
D18*
X63425000Y-81075000D03*
D19*
X63425000Y-81075000D03*
D20*
X63425000Y-81075000D03*
D21*
X63425000Y-81075000D03*
D22*
X63425000Y-81075000D03*
D23*
X63425000Y-81075000D03*
D24*
X63425000Y-81075000D03*
D25*
X63425000Y-81075000D03*
D26*
X63425000Y-81075000D03*
D27*
X63425000Y-81075000D03*
D28*
X63425000Y-81075000D03*
D29*
X63425000Y-81075000D03*
D30*
X63425000Y-81075000D03*
D31*
X63425000Y-81075000D03*
D32*
X63425000Y-81075000D03*
D33*
X63425000Y-81075000D03*
D34*
X63425000Y-81075000D03*
D35*
X63425000Y-81075000D03*
D36*
X63425000Y-81075000D03*
D37*
X63425000Y-81075000D03*
D38*
X63425000Y-81075000D03*
D39*
X63425000Y-81075000D03*
D40*
X63425000Y-81075000D03*
D41*
X63425000Y-81075000D03*
D42*
X63425000Y-81075000D03*
D10*
X63425000Y-87075000D03*
D11*
X63425000Y-87075000D03*
D12*
X63425000Y-87075000D03*
D13*
X63425000Y-87075000D03*
D14*
X63425000Y-87075000D03*
D15*
X63425000Y-87075000D03*
D16*
X63425000Y-87075000D03*
D17*
X63425000Y-87075000D03*
D18*
X63425000Y-87075000D03*
D19*
X63425000Y-87075000D03*
D20*
X63425000Y-87075000D03*
D21*
X63425000Y-87075000D03*
D22*
X63425000Y-87075000D03*
D23*
X63425000Y-87075000D03*
D24*
X63425000Y-87075000D03*
D25*
X63425000Y-87075000D03*
D26*
X63425000Y-87075000D03*
D27*
X63425000Y-87075000D03*
D28*
X63425000Y-87075000D03*
D29*
X63425000Y-87075000D03*
D30*
X63425000Y-87075000D03*
D31*
X63425000Y-87075000D03*
D32*
X63425000Y-87075000D03*
D33*
X63425000Y-87075000D03*
D34*
X63425000Y-87075000D03*
D35*
X63425000Y-87075000D03*
D36*
X63425000Y-87075000D03*
D37*
X63425000Y-87075000D03*
D38*
X63425000Y-87075000D03*
D39*
X63425000Y-87075000D03*
D40*
X63425000Y-87075000D03*
D41*
X63425000Y-87075000D03*
D42*
X63425000Y-87075000D03*
D10*
X63425000Y-93075000D03*
D11*
X63425000Y-93075000D03*
D12*
X63425000Y-93075000D03*
D13*
X63425000Y-93075000D03*
D14*
X63425000Y-93075000D03*
D15*
X63425000Y-93075000D03*
D16*
X63425000Y-93075000D03*
D17*
X63425000Y-93075000D03*
D18*
X63425000Y-93075000D03*
D19*
X63425000Y-93075000D03*
D20*
X63425000Y-93075000D03*
D21*
X63425000Y-93075000D03*
D22*
X63425000Y-93075000D03*
D23*
X63425000Y-93075000D03*
D24*
X63425000Y-93075000D03*
D25*
X63425000Y-93075000D03*
D26*
X63425000Y-93075000D03*
D27*
X63425000Y-93075000D03*
D28*
X63425000Y-93075000D03*
D29*
X63425000Y-93075000D03*
D30*
X63425000Y-93075000D03*
D31*
X63425000Y-93075000D03*
D32*
X63425000Y-93075000D03*
D33*
X63425000Y-93075000D03*
D34*
X63425000Y-93075000D03*
D35*
X63425000Y-93075000D03*
D36*
X63425000Y-93075000D03*
D37*
X63425000Y-93075000D03*
D38*
X63425000Y-93075000D03*
D39*
X63425000Y-93075000D03*
D40*
X63425000Y-93075000D03*
D41*
X63425000Y-93075000D03*
D42*
X63425000Y-93075000D03*
D10*
X63425000Y-99075000D03*
D11*
X63425000Y-99075000D03*
D12*
X63425000Y-99075000D03*
D13*
X63425000Y-99075000D03*
D14*
X63425000Y-99075000D03*
D15*
X63425000Y-99075000D03*
D16*
X63425000Y-99075000D03*
D17*
X63425000Y-99075000D03*
D18*
X63425000Y-99075000D03*
D19*
X63425000Y-99075000D03*
D20*
X63425000Y-99075000D03*
D21*
X63425000Y-99075000D03*
D22*
X63425000Y-99075000D03*
D23*
X63425000Y-99075000D03*
D24*
X63425000Y-99075000D03*
D25*
X63425000Y-99075000D03*
D26*
X63425000Y-99075000D03*
D27*
X63425000Y-99075000D03*
D28*
X63425000Y-99075000D03*
D29*
X63425000Y-99075000D03*
D30*
X63425000Y-99075000D03*
D31*
X63425000Y-99075000D03*
D32*
X63425000Y-99075000D03*
D33*
X63425000Y-99075000D03*
D34*
X63425000Y-99075000D03*
D35*
X63425000Y-99075000D03*
D36*
X63425000Y-99075000D03*
D37*
X63425000Y-99075000D03*
D38*
X63425000Y-99075000D03*
D39*
X63425000Y-99075000D03*
D40*
X63425000Y-99075000D03*
D41*
X63425000Y-99075000D03*
D42*
X63425000Y-99075000D03*
D43*
X66425000Y-56075000D03*
X72425000Y-56075000D03*
X78425000Y-56075000D03*
X84425000Y-56075000D03*
X90425000Y-56075000D03*
X96425000Y-56075000D03*
X102425000Y-56075000D03*
X108425000Y-56075000D03*
X114425000Y-56075000D03*
X120425000Y-56075000D03*
X126425000Y-56075000D03*
X132425000Y-56075000D03*
X138425000Y-56075000D03*
X144425000Y-56075000D03*
X150425000Y-56075000D03*
X156425000Y-56075000D03*
X162425000Y-56075000D03*
X168425000Y-56075000D03*
X174425000Y-56075000D03*
X180425000Y-56075000D03*
X186425000Y-56075000D03*
X192425000Y-56075000D03*
X198425000Y-56075000D03*
X204425000Y-56075000D03*
X210425000Y-56075000D03*
X216425000Y-56075000D03*
X222425000Y-56075000D03*
X228425000Y-56075000D03*
X234425000Y-56075000D03*
X240425000Y-56075000D03*
X246425000Y-56075000D03*
X252425000Y-56075000D03*
D44*
X237425000Y-57075000D03*
X255425000Y-57075000D03*
X165425000Y-57075000D03*
X63425000Y-57075000D03*
X249425000Y-57075000D03*
X183425000Y-57075000D03*
X177425000Y-57075000D03*
X189425000Y-57075000D03*
X201425000Y-57075000D03*
X123425000Y-57075000D03*
X207425000Y-57075000D03*
X153425000Y-57075000D03*
X135425000Y-57075000D03*
X99425000Y-57075000D03*
X81425000Y-57075000D03*
X225425000Y-57075000D03*
X75425000Y-57075000D03*
X141425000Y-57075000D03*
X105425000Y-57075000D03*
X111425000Y-57075000D03*
X171425000Y-57075000D03*
X93425000Y-57075000D03*
X129425000Y-57075000D03*
X231425000Y-57075000D03*
X117425000Y-57075000D03*
X87425000Y-57075000D03*
X219425000Y-57075000D03*
X69425000Y-57075000D03*
X195425000Y-57075000D03*
X213425000Y-57075000D03*
X243425000Y-57075000D03*
X159425000Y-57075000D03*
X147425000Y-57075000D03*
X81425000Y-63075000D03*
X159425000Y-63075000D03*
X237425000Y-63075000D03*
X231425000Y-63075000D03*
X255425000Y-63075000D03*
X123425000Y-63075000D03*
X177425000Y-63075000D03*
X105425000Y-63075000D03*
X147425000Y-63075000D03*
X243425000Y-63075000D03*
X93425000Y-63075000D03*
X135425000Y-63075000D03*
X141425000Y-63075000D03*
X63425000Y-63075000D03*
X117425000Y-63075000D03*
X219425000Y-63075000D03*
X249425000Y-63075000D03*
X225425000Y-63075000D03*
X165425000Y-63075000D03*
X213425000Y-63075000D03*
X171425000Y-63075000D03*
X189425000Y-63075000D03*
X87425000Y-63075000D03*
X207425000Y-63075000D03*
X75425000Y-63075000D03*
X129425000Y-63075000D03*
X201425000Y-63075000D03*
X99425000Y-63075000D03*
X111425000Y-63075000D03*
X153425000Y-63075000D03*
X183425000Y-63075000D03*
X69425000Y-63075000D03*
X195425000Y-63075000D03*
X165425000Y-69075000D03*
X255425000Y-69075000D03*
X93425000Y-69075000D03*
X135425000Y-69075000D03*
X243425000Y-69075000D03*
X237425000Y-69075000D03*
X207425000Y-69075000D03*
X69425000Y-69075000D03*
X123425000Y-69075000D03*
X81425000Y-69075000D03*
X219425000Y-69075000D03*
X177425000Y-69075000D03*
X195425000Y-69075000D03*
X153425000Y-69075000D03*
X231425000Y-69075000D03*
X213425000Y-69075000D03*
X87425000Y-69075000D03*
X249425000Y-69075000D03*
X129425000Y-69075000D03*
X111425000Y-69075000D03*
X225425000Y-69075000D03*
X147425000Y-69075000D03*
X63425000Y-69075000D03*
X183425000Y-69075000D03*
X117425000Y-69075000D03*
X75425000Y-69075000D03*
X189425000Y-69075000D03*
X159425000Y-69075000D03*
X141425000Y-69075000D03*
X105425000Y-69075000D03*
X201425000Y-69075000D03*
X171425000Y-69075000D03*
X99425000Y-69075000D03*
X105425000Y-75075000D03*
X195425000Y-75075000D03*
X93425000Y-75075000D03*
X231425000Y-75075000D03*
X63425000Y-75075000D03*
X255425000Y-75075000D03*
X111425000Y-75075000D03*
X75425000Y-75075000D03*
X147425000Y-75075000D03*
X171425000Y-75075000D03*
X99425000Y-75075000D03*
X213425000Y-75075000D03*
X201425000Y-75075000D03*
X177425000Y-75075000D03*
X249425000Y-75075000D03*
X135425000Y-75075000D03*
X219425000Y-75075000D03*
X123425000Y-75075000D03*
X159425000Y-75075000D03*
X165425000Y-75075000D03*
X183425000Y-75075000D03*
X87425000Y-75075000D03*
X153425000Y-75075000D03*
X189425000Y-75075000D03*
X129425000Y-75075000D03*
X243425000Y-75075000D03*
X117425000Y-75075000D03*
X69425000Y-75075000D03*
X237425000Y-75075000D03*
X81425000Y-75075000D03*
X225425000Y-75075000D03*
X207425000Y-75075000D03*
X141425000Y-75075000D03*
X225425000Y-81075000D03*
X243425000Y-81075000D03*
X81425000Y-81075000D03*
X249425000Y-81075000D03*
X123425000Y-81075000D03*
X117425000Y-81075000D03*
X87425000Y-81075000D03*
X129425000Y-81075000D03*
X159425000Y-81075000D03*
X219425000Y-81075000D03*
X207425000Y-81075000D03*
X141425000Y-81075000D03*
X111425000Y-81075000D03*
X237425000Y-81075000D03*
X213425000Y-81075000D03*
X153425000Y-81075000D03*
X195425000Y-81075000D03*
X171425000Y-81075000D03*
X189425000Y-81075000D03*
X69425000Y-81075000D03*
X135425000Y-81075000D03*
X93425000Y-81075000D03*
X147425000Y-81075000D03*
X165425000Y-81075000D03*
X99425000Y-81075000D03*
X105425000Y-81075000D03*
X183425000Y-81075000D03*
X255425000Y-81075000D03*
X63425000Y-81075000D03*
X75425000Y-81075000D03*
X177425000Y-81075000D03*
X201425000Y-81075000D03*
X231425000Y-81075000D03*
X117425000Y-87075000D03*
X255425000Y-87075000D03*
X243425000Y-87075000D03*
X69425000Y-87075000D03*
X165425000Y-87075000D03*
X147425000Y-87075000D03*
X237425000Y-87075000D03*
X105425000Y-87075000D03*
X123425000Y-87075000D03*
X207425000Y-87075000D03*
X87425000Y-87075000D03*
X225425000Y-87075000D03*
X63425000Y-87075000D03*
X111425000Y-87075000D03*
X159425000Y-87075000D03*
X93425000Y-87075000D03*
X213425000Y-87075000D03*
X141425000Y-87075000D03*
X231425000Y-87075000D03*
X75425000Y-87075000D03*
X81425000Y-87075000D03*
X219425000Y-87075000D03*
X201425000Y-87075000D03*
X135425000Y-87075000D03*
X129425000Y-87075000D03*
X189425000Y-87075000D03*
X177425000Y-87075000D03*
X153425000Y-87075000D03*
X195425000Y-87075000D03*
X249425000Y-87075000D03*
X183425000Y-87075000D03*
X171425000Y-87075000D03*
X99425000Y-87075000D03*
X213425000Y-93075000D03*
X231425000Y-93075000D03*
X147425000Y-93075000D03*
X237425000Y-93075000D03*
X195425000Y-93075000D03*
X201425000Y-93075000D03*
X99425000Y-93075000D03*
X129425000Y-93075000D03*
X141425000Y-93075000D03*
X183425000Y-93075000D03*
X243425000Y-93075000D03*
X87425000Y-93075000D03*
X63425000Y-93075000D03*
X207425000Y-93075000D03*
X75425000Y-93075000D03*
X69425000Y-93075000D03*
X105425000Y-93075000D03*
X153425000Y-93075000D03*
X135425000Y-93075000D03*
X225425000Y-93075000D03*
X117425000Y-93075000D03*
X123425000Y-93075000D03*
X93425000Y-93075000D03*
X111425000Y-93075000D03*
X165425000Y-93075000D03*
X171425000Y-93075000D03*
X81425000Y-93075000D03*
X219425000Y-93075000D03*
X159425000Y-93075000D03*
X189425000Y-93075000D03*
X255425000Y-93075000D03*
X249425000Y-93075000D03*
X177425000Y-93075000D03*
X81425000Y-99075000D03*
X225425000Y-99075000D03*
X201425000Y-99075000D03*
X207425000Y-99075000D03*
X153425000Y-99075000D03*
X87425000Y-99075000D03*
X183425000Y-99075000D03*
X63425000Y-99075000D03*
X189425000Y-99075000D03*
X123425000Y-99075000D03*
X69425000Y-99075000D03*
X75425000Y-99075000D03*
X147425000Y-99075000D03*
X141425000Y-99075000D03*
X111425000Y-99075000D03*
X165425000Y-99075000D03*
X237425000Y-99075000D03*
X219425000Y-99075000D03*
X93425000Y-99075000D03*
X129425000Y-99075000D03*
X213425000Y-99075000D03*
X171425000Y-99075000D03*
X105425000Y-99075000D03*
X195425000Y-99075000D03*
X255425000Y-99075000D03*
X135425000Y-99075000D03*
X231425000Y-99075000D03*
X243425000Y-99075000D03*
X249425000Y-99075000D03*
X99425000Y-99075000D03*
X159425000Y-99075000D03*
X117425000Y-99075000D03*
X177425000Y-99075000D03*
X66425000Y-56075000D03*
X72425000Y-56075000D03*
X78425000Y-56075000D03*
X84425000Y-56075000D03*
X90425000Y-56075000D03*
X96425000Y-56075000D03*
X102425000Y-56075000D03*
X108425000Y-56075000D03*
X114425000Y-56075000D03*
X120425000Y-56075000D03*
X126425000Y-56075000D03*
X132425000Y-56075000D03*
X138425000Y-56075000D03*
X144425000Y-56075000D03*
X150425000Y-56075000D03*
X156425000Y-56075000D03*
X162425000Y-104075000D03*
X168425000Y-104075000D03*
X174425000Y-104075000D03*
X180425000Y-104075000D03*
X186425000Y-104075000D03*
X192425000Y-104075000D03*
X198425000Y-104075000D03*
X204425000Y-104075000D03*
X210425000Y-104075000D03*
X216425000Y-104075000D03*
X222425000Y-104075000D03*
X228425000Y-104075000D03*
X234425000Y-104075000D03*
X240425000Y-104075000D03*
X246425000Y-104075000D03*
X252425000Y-104075000D03*
M02*
