M48
; DRILL file {KiCad 6.0.8+dfsg-1~bpo11+1} date Fri 24 Mar 2023 06:54:10 PM EDT
; FORMAT={-:-/ absolute / metric / decimal}
; #@! TF.CreationDate,2023-03-24T18:54:10-04:00
; #@! TF.GenerationSoftware,Kicad,Pcbnew,6.0.8+dfsg-1~bpo11+1
; #@! TF.FileFunction,Plated,1,2,PTH
FMAT,2
METRIC
; #@! TA.AperFunction,Plated,PTH,ViaDrill
T1C0.200
%
G90
G05
T1
X63.425Y-57.075
X63.425Y-63.075
X63.425Y-69.075
X63.425Y-75.075
X63.425Y-81.075
X63.425Y-87.075
X63.425Y-93.075
X63.425Y-99.075
X66.425Y-56.075
X69.425Y-57.075
X69.425Y-63.075
X69.425Y-69.075
X69.425Y-75.075
X69.425Y-81.075
X69.425Y-87.075
X69.425Y-93.075
X69.425Y-99.075
X72.425Y-56.075
X75.425Y-57.075
X75.425Y-63.075
X75.425Y-69.075
X75.425Y-75.075
X75.425Y-81.075
X75.425Y-87.075
X75.425Y-93.075
X75.425Y-99.075
X78.425Y-56.075
X81.425Y-57.075
X81.425Y-63.075
X81.425Y-69.075
X81.425Y-75.075
X81.425Y-81.075
X81.425Y-87.075
X81.425Y-93.075
X81.425Y-99.075
X84.425Y-56.075
X87.425Y-57.075
X87.425Y-63.075
X87.425Y-69.075
X87.425Y-75.075
X87.425Y-81.075
X87.425Y-87.075
X87.425Y-93.075
X87.425Y-99.075
X90.425Y-56.075
X93.425Y-57.075
X93.425Y-63.075
X93.425Y-69.075
X93.425Y-75.075
X93.425Y-81.075
X93.425Y-87.075
X93.425Y-93.075
X93.425Y-99.075
X96.425Y-56.075
X99.425Y-57.075
X99.425Y-63.075
X99.425Y-69.075
X99.425Y-75.075
X99.425Y-81.075
X99.425Y-87.075
X99.425Y-93.075
X99.425Y-99.075
X102.425Y-56.075
X105.425Y-57.075
X105.425Y-63.075
X105.425Y-69.075
X105.425Y-75.075
X105.425Y-81.075
X105.425Y-87.075
X105.425Y-93.075
X105.425Y-99.075
X108.425Y-56.075
X111.425Y-57.075
X111.425Y-63.075
X111.425Y-69.075
X111.425Y-75.075
X111.425Y-81.075
X111.425Y-87.075
X111.425Y-93.075
X111.425Y-99.075
X114.425Y-56.075
X117.425Y-57.075
X117.425Y-63.075
X117.425Y-69.075
X117.425Y-75.075
X117.425Y-81.075
X117.425Y-87.075
X117.425Y-93.075
X117.425Y-99.075
X120.425Y-56.075
X123.425Y-57.075
X123.425Y-63.075
X123.425Y-69.075
X123.425Y-75.075
X123.425Y-81.075
X123.425Y-87.075
X123.425Y-93.075
X123.425Y-99.075
X126.425Y-56.075
X129.425Y-57.075
X129.425Y-63.075
X129.425Y-69.075
X129.425Y-75.075
X129.425Y-81.075
X129.425Y-87.075
X129.425Y-93.075
X129.425Y-99.075
X132.425Y-56.075
X135.425Y-57.075
X135.425Y-63.075
X135.425Y-69.075
X135.425Y-75.075
X135.425Y-81.075
X135.425Y-87.075
X135.425Y-93.075
X135.425Y-99.075
X138.425Y-56.075
X141.425Y-57.075
X141.425Y-63.075
X141.425Y-69.075
X141.425Y-75.075
X141.425Y-81.075
X141.425Y-87.075
X141.425Y-93.075
X141.425Y-99.075
X144.425Y-56.075
X147.425Y-57.075
X147.425Y-63.075
X147.425Y-69.075
X147.425Y-75.075
X147.425Y-81.075
X147.425Y-87.075
X147.425Y-93.075
X147.425Y-99.075
X150.425Y-56.075
X153.425Y-57.075
X153.425Y-63.075
X153.425Y-69.075
X153.425Y-75.075
X153.425Y-81.075
X153.425Y-87.075
X153.425Y-93.075
X153.425Y-99.075
X156.425Y-56.075
X159.425Y-57.075
X159.425Y-63.075
X159.425Y-69.075
X159.425Y-75.075
X159.425Y-81.075
X159.425Y-87.075
X159.425Y-93.075
X159.425Y-99.075
X162.425Y-104.075
X165.425Y-57.075
X165.425Y-63.075
X165.425Y-69.075
X165.425Y-75.075
X165.425Y-81.075
X165.425Y-87.075
X165.425Y-93.075
X165.425Y-99.075
X168.425Y-104.075
X171.425Y-57.075
X171.425Y-63.075
X171.425Y-69.075
X171.425Y-75.075
X171.425Y-81.075
X171.425Y-87.075
X171.425Y-93.075
X171.425Y-99.075
X174.425Y-104.075
X177.425Y-57.075
X177.425Y-63.075
X177.425Y-69.075
X177.425Y-75.075
X177.425Y-81.075
X177.425Y-87.075
X177.425Y-93.075
X177.425Y-99.075
X180.425Y-104.075
X183.425Y-57.075
X183.425Y-63.075
X183.425Y-69.075
X183.425Y-75.075
X183.425Y-81.075
X183.425Y-87.075
X183.425Y-93.075
X183.425Y-99.075
X186.425Y-104.075
X189.425Y-57.075
X189.425Y-63.075
X189.425Y-69.075
X189.425Y-75.075
X189.425Y-81.075
X189.425Y-87.075
X189.425Y-93.075
X189.425Y-99.075
X192.425Y-104.075
X195.425Y-57.075
X195.425Y-63.075
X195.425Y-69.075
X195.425Y-75.075
X195.425Y-81.075
X195.425Y-87.075
X195.425Y-93.075
X195.425Y-99.075
X198.425Y-104.075
X201.425Y-57.075
X201.425Y-63.075
X201.425Y-69.075
X201.425Y-75.075
X201.425Y-81.075
X201.425Y-87.075
X201.425Y-93.075
X201.425Y-99.075
X204.425Y-104.075
X207.425Y-57.075
X207.425Y-63.075
X207.425Y-69.075
X207.425Y-75.075
X207.425Y-81.075
X207.425Y-87.075
X207.425Y-93.075
X207.425Y-99.075
X210.425Y-104.075
X213.425Y-57.075
X213.425Y-63.075
X213.425Y-69.075
X213.425Y-75.075
X213.425Y-81.075
X213.425Y-87.075
X213.425Y-93.075
X213.425Y-99.075
X216.425Y-104.075
X219.425Y-57.075
X219.425Y-63.075
X219.425Y-69.075
X219.425Y-75.075
X219.425Y-81.075
X219.425Y-87.075
X219.425Y-93.075
X219.425Y-99.075
X222.425Y-104.075
X225.425Y-57.075
X225.425Y-63.075
X225.425Y-69.075
X225.425Y-75.075
X225.425Y-81.075
X225.425Y-87.075
X225.425Y-93.075
X225.425Y-99.075
X228.425Y-104.075
X231.425Y-57.075
X231.425Y-63.075
X231.425Y-69.075
X231.425Y-75.075
X231.425Y-81.075
X231.425Y-87.075
X231.425Y-93.075
X231.425Y-99.075
X234.425Y-104.075
X237.425Y-57.075
X237.425Y-63.075
X237.425Y-69.075
X237.425Y-75.075
X237.425Y-81.075
X237.425Y-87.075
X237.425Y-93.075
X237.425Y-99.075
X240.425Y-104.075
X243.425Y-57.075
X243.425Y-63.075
X243.425Y-69.075
X243.425Y-75.075
X243.425Y-81.075
X243.425Y-87.075
X243.425Y-93.075
X243.425Y-99.075
X246.425Y-104.075
X249.425Y-57.075
X249.425Y-63.075
X249.425Y-69.075
X249.425Y-75.075
X249.425Y-81.075
X249.425Y-87.075
X249.425Y-93.075
X249.425Y-99.075
X252.425Y-104.075
X255.425Y-57.075
X255.425Y-63.075
X255.425Y-69.075
X255.425Y-75.075
X255.425Y-81.075
X255.425Y-87.075
X255.425Y-93.075
X255.425Y-99.075
T0
M30
