G04 #@! TF.GenerationSoftware,KiCad,Pcbnew,6.0.8+dfsg-1~bpo11+1*
G04 #@! TF.CreationDate,2023-03-24T18:54:05-04:00*
G04 #@! TF.ProjectId,captouch_sensor_interleaved_loose,63617074-6f75-4636-985f-73656e736f72,rev?*
G04 #@! TF.SameCoordinates,Original*
G04 #@! TF.FileFunction,Legend,Bot*
G04 #@! TF.FilePolarity,Positive*
%FSLAX46Y46*%
G04 Gerber Fmt 4.6, Leading zero omitted, Abs format (unit mm)*
G04 Created by KiCad (PCBNEW 6.0.8+dfsg-1~bpo11+1) date 2023-03-24 18:54:05*
%MOMM*%
%LPD*%
G01*
G04 APERTURE LIST*
%ADD10C,0.254000*%
%ADD11C,0.100000*%
%ADD12C,0.200000*%
%ADD13C,0.150000*%
%ADD14R,1.200000X0.600000*%
%ADD15R,1.400000X0.800000*%
G04 APERTURE END LIST*
D10*
X49954523Y-79951666D02*
X50861666Y-79951666D01*
X51043095Y-79891190D01*
X51164047Y-79770238D01*
X51224523Y-79588809D01*
X51224523Y-79467857D01*
X50075476Y-80495952D02*
X50015000Y-80556428D01*
X49954523Y-80677380D01*
X49954523Y-80979761D01*
X50015000Y-81100714D01*
X50075476Y-81161190D01*
X50196428Y-81221666D01*
X50317380Y-81221666D01*
X50498809Y-81161190D01*
X51224523Y-80435476D01*
X51224523Y-81221666D01*
X263429523Y-78076666D02*
X264336666Y-78076666D01*
X264518095Y-78016190D01*
X264639047Y-77895238D01*
X264699523Y-77713809D01*
X264699523Y-77592857D01*
X264699523Y-79346666D02*
X264699523Y-78620952D01*
X264699523Y-78983809D02*
X263429523Y-78983809D01*
X263610952Y-78862857D01*
X263731904Y-78741904D01*
X263792380Y-78620952D01*
D11*
X48575000Y-89775000D02*
X52475000Y-89775000D01*
X48575000Y-70975000D02*
X52475000Y-70975000D01*
D12*
X266725000Y-76700000D02*
X266725000Y-76700000D01*
X266925000Y-76700000D02*
X266925000Y-76700000D01*
X266925000Y-76700000D02*
G75*
G03*
X266725000Y-76700000I-100000J0D01*
G01*
X266725000Y-76700000D02*
G75*
G03*
X266925000Y-76700000I100000J0D01*
G01*
%LPC*%
D13*
X63450000Y-56025000D02*
X255525000Y-56025000D01*
X255525000Y-56025000D02*
X255525000Y-104150000D01*
X255525000Y-104150000D02*
X63450000Y-104150000D01*
X63450000Y-104150000D02*
X63450000Y-56025000D01*
G36*
X63450000Y-56025000D02*
G01*
X255525000Y-56025000D01*
X255525000Y-104150000D01*
X63450000Y-104150000D01*
X63450000Y-56025000D01*
G37*
D14*
X52125000Y-72625000D03*
X49225000Y-73125000D03*
X52125000Y-73625000D03*
X49225000Y-74125000D03*
X52125000Y-74625000D03*
X49225000Y-75125000D03*
X52125000Y-75625000D03*
X49225000Y-76125000D03*
X52125000Y-76625000D03*
X49225000Y-77125000D03*
X52125000Y-77625000D03*
X49225000Y-78125000D03*
X52125000Y-78625000D03*
X49225000Y-79125000D03*
X52125000Y-79625000D03*
X49225000Y-80125000D03*
X52125000Y-80625000D03*
X49225000Y-81125000D03*
X52125000Y-81625000D03*
X49225000Y-82125000D03*
X52125000Y-82625000D03*
X49225000Y-83125000D03*
X52125000Y-83625000D03*
X49225000Y-84125000D03*
X52125000Y-84625000D03*
X49225000Y-85125000D03*
X52125000Y-85625000D03*
X49225000Y-86125000D03*
X52125000Y-86625000D03*
X49225000Y-87125000D03*
X52125000Y-87625000D03*
X49225000Y-88125000D03*
D15*
X52025000Y-71625000D03*
X49325000Y-71625000D03*
X52025000Y-89125000D03*
X49325000Y-89125000D03*
D14*
X265775000Y-76750000D03*
X262875000Y-77250000D03*
X265775000Y-77750000D03*
X262875000Y-78250000D03*
X265775000Y-78750000D03*
X262875000Y-79250000D03*
X265775000Y-79750000D03*
X262875000Y-80250000D03*
D15*
X265675000Y-75750000D03*
X262975000Y-75750000D03*
X265675000Y-81250000D03*
X262975000Y-81250000D03*
M02*
