G04 #@! TF.GenerationSoftware,KiCad,Pcbnew,6.0.8+dfsg-1~bpo11+1*
G04 #@! TF.CreationDate,2023-03-24T18:51:06-04:00*
G04 #@! TF.ProjectId,06_8x15_diamond_for_trackpad,30365f38-7831-4355-9f64-69616d6f6e64,rev?*
G04 #@! TF.SameCoordinates,Original*
G04 #@! TF.FileFunction,Copper,L2,Bot*
G04 #@! TF.FilePolarity,Positive*
%FSLAX46Y46*%
G04 Gerber Fmt 4.6, Leading zero omitted, Abs format (unit mm)*
G04 Created by KiCad (PCBNEW 6.0.8+dfsg-1~bpo11+1) date 2023-03-24 18:51:06*
%MOMM*%
%LPD*%
G01*
G04 APERTURE LIST*
G04 #@! TA.AperFunction,SMDPad,CuDef*
%ADD10R,1.200000X0.600000*%
G04 #@! TD*
G04 #@! TA.AperFunction,SMDPad,CuDef*
%ADD11R,1.400000X0.800000*%
G04 #@! TD*
G04 #@! TA.AperFunction,ViaPad*
%ADD12C,0.400000*%
G04 #@! TD*
G04 #@! TA.AperFunction,Conductor*
%ADD13C,0.127000*%
G04 #@! TD*
G04 APERTURE END LIST*
D10*
X52125000Y-72625000D03*
X49225000Y-73125000D03*
X52125000Y-73625000D03*
X49225000Y-74125000D03*
X52125000Y-74625000D03*
X49225000Y-75125000D03*
X52125000Y-75625000D03*
X49225000Y-76125000D03*
X52125000Y-76625000D03*
X49225000Y-77125000D03*
X52125000Y-77625000D03*
X49225000Y-78125000D03*
X52125000Y-78625000D03*
X49225000Y-79125000D03*
X52125000Y-79625000D03*
X49225000Y-80125000D03*
X52125000Y-80625000D03*
X49225000Y-81125000D03*
X52125000Y-81625000D03*
X49225000Y-82125000D03*
X52125000Y-82625000D03*
X49225000Y-83125000D03*
X52125000Y-83625000D03*
X49225000Y-84125000D03*
X52125000Y-84625000D03*
X49225000Y-85125000D03*
X52125000Y-85625000D03*
X49225000Y-86125000D03*
X52125000Y-86625000D03*
X49225000Y-87125000D03*
X52125000Y-87625000D03*
X49225000Y-88125000D03*
D11*
X52025000Y-71625000D03*
X49325000Y-71625000D03*
X52025000Y-89125000D03*
X49325000Y-89125000D03*
D10*
X265775000Y-76750000D03*
X262875000Y-77250000D03*
X265775000Y-77750000D03*
X262875000Y-78250000D03*
X265775000Y-78750000D03*
X262875000Y-79250000D03*
X265775000Y-79750000D03*
X262875000Y-80250000D03*
D11*
X265675000Y-75750000D03*
X262975000Y-75750000D03*
X265675000Y-81250000D03*
X262975000Y-81250000D03*
D12*
X60975000Y-90275000D03*
X243500000Y-58975000D03*
X243500000Y-64975000D03*
X243500000Y-70975000D03*
X243500000Y-76975000D03*
X243500000Y-82975000D03*
X243500000Y-88975000D03*
X243500000Y-94975000D03*
X243500000Y-100975000D03*
X66450000Y-100275000D03*
X66450000Y-58275000D03*
X66450000Y-94275000D03*
X66450000Y-101625000D03*
X66450000Y-88275000D03*
X72450000Y-64275000D03*
X66450000Y-76275000D03*
X72450000Y-100275000D03*
X66450000Y-64275000D03*
X72450000Y-101625000D03*
X72450000Y-76275000D03*
X72450000Y-88275000D03*
X72450000Y-94275000D03*
X72450000Y-82275000D03*
X72450000Y-58275000D03*
X66450000Y-82275000D03*
X66450000Y-70275000D03*
X72450000Y-70275000D03*
X78450000Y-100275000D03*
X78450000Y-82275000D03*
X78450000Y-70275000D03*
X84450000Y-70275000D03*
X84450000Y-82275000D03*
X84450000Y-100275000D03*
X84450000Y-64275000D03*
X84450000Y-101625000D03*
X78450000Y-88275000D03*
X78450000Y-58275000D03*
X84450000Y-88275000D03*
X78450000Y-64275000D03*
X78450000Y-76275000D03*
X78450000Y-94275000D03*
X84450000Y-76275000D03*
X78450000Y-101625000D03*
X84450000Y-94275000D03*
X84450000Y-58275000D03*
X96450000Y-82275000D03*
X96450000Y-100275000D03*
X96450000Y-76275000D03*
X90450000Y-82275000D03*
X90450000Y-70275000D03*
X96450000Y-58275000D03*
X96450000Y-101625000D03*
X90450000Y-58275000D03*
X90450000Y-88275000D03*
X90450000Y-76275000D03*
X90450000Y-64275000D03*
X90450000Y-94275000D03*
X96450000Y-64275000D03*
X96450000Y-88275000D03*
X90450000Y-101625000D03*
X96450000Y-70275000D03*
X90450000Y-100275000D03*
X96450000Y-94275000D03*
X102450000Y-76275000D03*
X108450000Y-82275000D03*
X108450000Y-76275000D03*
X108450000Y-64275000D03*
X102450000Y-94275000D03*
X108450000Y-101625000D03*
X102450000Y-82275000D03*
X108450000Y-100275000D03*
X102450000Y-100275000D03*
X108450000Y-94275000D03*
X108450000Y-70275000D03*
X102450000Y-88275000D03*
X102450000Y-101625000D03*
X108450000Y-58275000D03*
X108450000Y-88275000D03*
X102450000Y-64275000D03*
X102450000Y-70275000D03*
X102450000Y-58275000D03*
X114450000Y-101625000D03*
X120450000Y-94275000D03*
X114450000Y-94275000D03*
X120450000Y-70275000D03*
X120450000Y-100275000D03*
X114450000Y-70275000D03*
X114450000Y-58275000D03*
X120450000Y-88275000D03*
X120450000Y-64275000D03*
X120450000Y-101625000D03*
X114450000Y-76275000D03*
X114450000Y-100275000D03*
X114450000Y-64275000D03*
X120450000Y-58275000D03*
X114450000Y-88275000D03*
X114450000Y-82275000D03*
X120450000Y-82275000D03*
X120450000Y-76275000D03*
X132450000Y-64275000D03*
X126450000Y-58275000D03*
X126450000Y-94275000D03*
X126450000Y-70275000D03*
X126450000Y-88275000D03*
X126450000Y-64275000D03*
X132450000Y-58275000D03*
X132450000Y-70275000D03*
X126450000Y-82275000D03*
X126450000Y-100275000D03*
X132450000Y-100275000D03*
X132450000Y-82275000D03*
X132450000Y-94275000D03*
X126450000Y-76275000D03*
X132450000Y-88275000D03*
X132450000Y-101625000D03*
X126450000Y-101625000D03*
X132450000Y-76275000D03*
X144450000Y-82275000D03*
X138450000Y-101625000D03*
X144450000Y-101625000D03*
X138450000Y-58275000D03*
X138450000Y-64275000D03*
X144450000Y-58275000D03*
X144450000Y-94275000D03*
X138450000Y-70275000D03*
X144450000Y-100275000D03*
X144450000Y-64275000D03*
X138450000Y-88275000D03*
X144450000Y-70275000D03*
X138450000Y-82275000D03*
X144450000Y-88275000D03*
X138450000Y-100275000D03*
X138450000Y-76275000D03*
X144450000Y-76275000D03*
X138450000Y-94275000D03*
X156450000Y-100275000D03*
X156450000Y-76275000D03*
X150450000Y-76275000D03*
X156450000Y-94275000D03*
X156450000Y-70275000D03*
X150450000Y-64275000D03*
X150450000Y-94275000D03*
X150450000Y-101625000D03*
X150450000Y-88275000D03*
X156450000Y-82275000D03*
X150450000Y-70275000D03*
X156450000Y-64275000D03*
X150450000Y-82275000D03*
X156450000Y-58275000D03*
X156450000Y-101625000D03*
X150450000Y-58275000D03*
X156450000Y-88275000D03*
X150450000Y-100275000D03*
X168450000Y-94275000D03*
X168450000Y-64275000D03*
X168450000Y-70275000D03*
X168450000Y-82275000D03*
X168450000Y-58275000D03*
X162450000Y-100275000D03*
X168450000Y-100275000D03*
X162450000Y-64275000D03*
X168450000Y-76275000D03*
X162450000Y-70275000D03*
X162450000Y-76275000D03*
X162450000Y-58275000D03*
X162450000Y-101625000D03*
X168450000Y-88275000D03*
X162450000Y-88275000D03*
X162450000Y-82275000D03*
X168450000Y-101625000D03*
X162450000Y-94275000D03*
X180450000Y-70275000D03*
X174450000Y-70275000D03*
X174450000Y-101625000D03*
X180450000Y-58275000D03*
X174450000Y-82275000D03*
X180450000Y-82275000D03*
X180450000Y-94275000D03*
X180450000Y-88275000D03*
X174450000Y-100275000D03*
X174450000Y-88275000D03*
X180450000Y-100275000D03*
X174450000Y-76275000D03*
X174450000Y-94275000D03*
X180450000Y-101625000D03*
X174450000Y-64275000D03*
X180450000Y-76275000D03*
X180450000Y-64275000D03*
X174450000Y-58275000D03*
X186450000Y-94275000D03*
X186450000Y-101625000D03*
X192450000Y-101625000D03*
X192450000Y-64275000D03*
X192450000Y-94275000D03*
X186450000Y-88275000D03*
X192450000Y-76275000D03*
X192450000Y-70275000D03*
X186450000Y-76275000D03*
X192450000Y-82275000D03*
X186450000Y-100275000D03*
X192450000Y-88275000D03*
X186450000Y-70275000D03*
X186450000Y-58275000D03*
X192450000Y-58275000D03*
X186450000Y-64275000D03*
X192450000Y-100275000D03*
X186450000Y-82275000D03*
X198450000Y-100275000D03*
X198450000Y-64275000D03*
X198450000Y-101625000D03*
X204450000Y-101625000D03*
X204450000Y-76275000D03*
X198450000Y-88275000D03*
X198450000Y-82275000D03*
X204450000Y-100275000D03*
X204450000Y-64275000D03*
X204450000Y-82275000D03*
X204450000Y-58275000D03*
X204450000Y-88275000D03*
X204450000Y-70275000D03*
X204450000Y-94275000D03*
X198450000Y-76275000D03*
X198450000Y-94275000D03*
X198450000Y-70275000D03*
X198450000Y-58275000D03*
X216450000Y-101625000D03*
X210450000Y-101625000D03*
X216450000Y-70275000D03*
X210450000Y-58275000D03*
X210450000Y-64275000D03*
X216450000Y-88275000D03*
X216450000Y-82275000D03*
X210450000Y-76275000D03*
X216450000Y-100275000D03*
X210450000Y-94275000D03*
X216450000Y-94275000D03*
X210450000Y-70275000D03*
X210450000Y-82275000D03*
X210450000Y-100275000D03*
X210450000Y-88275000D03*
X216450000Y-76275000D03*
X216450000Y-58275000D03*
X216450000Y-64275000D03*
X228450000Y-88275000D03*
X228450000Y-64275000D03*
X222450000Y-64275000D03*
X222450000Y-76275000D03*
X222450000Y-100275000D03*
X228450000Y-82275000D03*
X228450000Y-101625000D03*
X222450000Y-70275000D03*
X228450000Y-94275000D03*
X222450000Y-101625000D03*
X222450000Y-58275000D03*
X222450000Y-82275000D03*
X222450000Y-94275000D03*
X228450000Y-100275000D03*
X228450000Y-58275000D03*
X222450000Y-88275000D03*
X228450000Y-76275000D03*
X228450000Y-70275000D03*
X240450000Y-88275000D03*
X234450000Y-76275000D03*
X234450000Y-100275000D03*
X240450000Y-76275000D03*
X240450000Y-64275000D03*
X240450000Y-100275000D03*
X234450000Y-88275000D03*
X234450000Y-70275000D03*
X234450000Y-101625000D03*
X240450000Y-94275000D03*
X240450000Y-101625000D03*
X234450000Y-94275000D03*
X234450000Y-58275000D03*
X234450000Y-64275000D03*
X240450000Y-70275000D03*
X234450000Y-82275000D03*
X240450000Y-58275000D03*
X240450000Y-82275000D03*
D13*
X49225000Y-88125000D02*
X58825000Y-88125000D01*
X58825000Y-88125000D02*
X60975000Y-90275000D01*
X243700000Y-58775000D02*
X243500000Y-58975000D01*
X265775000Y-76750000D02*
X266075000Y-76750000D01*
X263500000Y-58775000D02*
X243700000Y-58775000D01*
X266075000Y-76750000D02*
X267025000Y-75800000D01*
X267025000Y-75800000D02*
X267025000Y-62300000D01*
X267025000Y-62300000D02*
X263500000Y-58775000D01*
X262875000Y-77250000D02*
X263375000Y-77250000D01*
X264300000Y-76325000D02*
X264300000Y-66050000D01*
X263400000Y-65150000D02*
X259600000Y-65150000D01*
X243500000Y-64975000D02*
X259425000Y-64975000D01*
X259425000Y-64975000D02*
X259600000Y-65150000D01*
X263375000Y-77250000D02*
X264300000Y-76325000D01*
X264300000Y-66050000D02*
X263400000Y-65150000D01*
X261850000Y-77750000D02*
X261325000Y-77225000D01*
X265775000Y-77750000D02*
X261850000Y-77750000D01*
X261325000Y-77225000D02*
X261325000Y-71600000D01*
X260700000Y-70975000D02*
X243500000Y-70975000D01*
X261325000Y-71600000D02*
X260700000Y-70975000D01*
X259050000Y-76850000D02*
X243625000Y-76850000D01*
X260450000Y-78250000D02*
X259050000Y-76850000D01*
X243625000Y-76850000D02*
X243500000Y-76975000D01*
X262875000Y-78250000D02*
X260450000Y-78250000D01*
X258450000Y-82825000D02*
X243650000Y-82825000D01*
X243650000Y-82825000D02*
X243500000Y-82975000D01*
X265775000Y-78750000D02*
X261425000Y-78750000D01*
X258700000Y-81475000D02*
X258700000Y-82575000D01*
X258700000Y-82575000D02*
X258450000Y-82825000D01*
X261425000Y-78750000D02*
X258700000Y-81475000D01*
X243650000Y-88825000D02*
X243500000Y-88975000D01*
X259500000Y-88300000D02*
X258975000Y-88825000D01*
X258975000Y-88825000D02*
X243650000Y-88825000D01*
X259500000Y-81775000D02*
X259500000Y-88300000D01*
X262875000Y-79250000D02*
X262025000Y-79250000D01*
X262025000Y-79250000D02*
X259500000Y-81775000D01*
X260950000Y-80894000D02*
X260950000Y-93150000D01*
X262094000Y-79750000D02*
X260950000Y-80894000D01*
X243737500Y-94737500D02*
X243500000Y-94975000D01*
X265775000Y-79750000D02*
X262094000Y-79750000D01*
X259362500Y-94737500D02*
X243737500Y-94737500D01*
X259362500Y-94737500D02*
X260950000Y-93150000D01*
X263602000Y-80250000D02*
X264325000Y-80973000D01*
X243700000Y-100775000D02*
X243500000Y-100975000D01*
X264325000Y-96650000D02*
X260200000Y-100775000D01*
X260200000Y-100775000D02*
X243700000Y-100775000D01*
X262875000Y-80250000D02*
X263602000Y-80250000D01*
X264325000Y-80973000D02*
X264325000Y-96650000D01*
X66450000Y-100275000D02*
X72450000Y-100275000D01*
X52125000Y-72625000D02*
X52425000Y-72625000D01*
X61550000Y-52700000D02*
X66075000Y-52700000D01*
X66450000Y-101625000D02*
X66450000Y-58275000D01*
X66450000Y-53075000D02*
X66450000Y-58275000D01*
X66450000Y-64275000D02*
X72450000Y-64275000D01*
X66450000Y-70275000D02*
X72450000Y-70275000D01*
X59875000Y-65175000D02*
X59875000Y-54375000D01*
X52425000Y-72625000D02*
X59875000Y-65175000D01*
X66450000Y-82275000D02*
X72450000Y-82275000D01*
X66450000Y-58275000D02*
X72450000Y-58275000D01*
X59875000Y-54375000D02*
X61550000Y-52700000D01*
X66450000Y-76275000D02*
X72450000Y-76275000D01*
X66075000Y-52700000D02*
X66450000Y-53075000D01*
X66450000Y-94275000D02*
X72450000Y-94275000D01*
X66450000Y-88275000D02*
X72450000Y-88275000D01*
X72450000Y-101625000D02*
X72450000Y-58275000D01*
X78450000Y-70275000D02*
X84450000Y-70275000D01*
X78450000Y-101625000D02*
X78450000Y-58275000D01*
X78450000Y-94275000D02*
X84450000Y-94275000D01*
X59621000Y-62079000D02*
X59621000Y-54269790D01*
X59621000Y-54269790D02*
X61465790Y-52425000D01*
X49225000Y-73125000D02*
X50725000Y-71625000D01*
X61465790Y-52425000D02*
X72600000Y-52425000D01*
X50725000Y-70975000D02*
X59621000Y-62079000D01*
X78450000Y-88275000D02*
X84450000Y-88275000D01*
X50725000Y-71625000D02*
X50725000Y-70975000D01*
X78450000Y-76275000D02*
X84450000Y-76275000D01*
X78450000Y-82275000D02*
X84450000Y-82275000D01*
X78450000Y-64275000D02*
X84450000Y-64275000D01*
X78450000Y-100275000D02*
X84450000Y-100275000D01*
X72600000Y-52425000D02*
X78450000Y-58275000D01*
X78450000Y-58275000D02*
X84450000Y-58275000D01*
X84450000Y-101625000D02*
X84450000Y-58275000D01*
X90450000Y-58275000D02*
X96450000Y-58275000D01*
X96450000Y-101625000D02*
X96450000Y-58275000D01*
X90450000Y-100275000D02*
X96450000Y-100275000D01*
X77746000Y-52171000D02*
X80725000Y-55150000D01*
X59367000Y-61973790D02*
X59367000Y-54164580D01*
X59367000Y-54164580D02*
X61360580Y-52171000D01*
X47700000Y-71200000D02*
X50325000Y-68575000D01*
X52125000Y-73625000D02*
X48100000Y-73625000D01*
X89400000Y-55150000D02*
X90450000Y-56200000D01*
X90450000Y-94275000D02*
X96450000Y-94275000D01*
X48100000Y-73625000D02*
X47700000Y-73225000D01*
X80725000Y-55150000D02*
X89400000Y-55150000D01*
X50325000Y-68575000D02*
X52765790Y-68575000D01*
X90450000Y-64275000D02*
X96450000Y-64275000D01*
X90450000Y-76275000D02*
X96450000Y-76275000D01*
X90450000Y-70275000D02*
X96450000Y-70275000D01*
X61360580Y-52171000D02*
X77746000Y-52171000D01*
X47700000Y-73225000D02*
X47700000Y-71200000D01*
X90450000Y-101625000D02*
X90450000Y-58275000D01*
X90450000Y-88275000D02*
X96450000Y-88275000D01*
X52765790Y-68575000D02*
X59367000Y-61973790D01*
X90450000Y-82275000D02*
X96450000Y-82275000D01*
X90450000Y-56200000D02*
X90450000Y-58275000D01*
X102450000Y-82275000D02*
X108450000Y-82275000D01*
X102450000Y-58275000D02*
X108450000Y-58275000D01*
X102450000Y-64275000D02*
X108450000Y-64275000D01*
X102450000Y-101625000D02*
X102450000Y-58275000D01*
X102450000Y-100275000D02*
X108450000Y-100275000D01*
X48200000Y-74125000D02*
X47446000Y-73371000D01*
X102450000Y-88275000D02*
X108450000Y-88275000D01*
X50219790Y-68321000D02*
X52660580Y-68321000D01*
X59113000Y-54059370D02*
X61255370Y-51917000D01*
X52660580Y-68321000D02*
X59113000Y-61868580D01*
X102450000Y-70275000D02*
X108450000Y-70275000D01*
X102450000Y-76275000D02*
X108450000Y-76275000D01*
X102450000Y-94275000D02*
X108450000Y-94275000D01*
X100900000Y-55100000D02*
X102450000Y-56650000D01*
X89525000Y-52000000D02*
X92625000Y-55100000D01*
X102450000Y-56650000D02*
X102450000Y-58275000D01*
X49225000Y-74125000D02*
X48200000Y-74125000D01*
X47446000Y-73371000D02*
X47446000Y-71094790D01*
X108450000Y-101625000D02*
X108450000Y-58275000D01*
X83892000Y-51917000D02*
X83975000Y-52000000D01*
X61255370Y-51917000D02*
X83892000Y-51917000D01*
X59113000Y-61868580D02*
X59113000Y-54059370D01*
X47446000Y-71094790D02*
X50219790Y-68321000D01*
X92625000Y-55100000D02*
X100900000Y-55100000D01*
X83975000Y-52000000D02*
X89525000Y-52000000D01*
X112175000Y-54750000D02*
X114450000Y-57025000D01*
X114450000Y-57025000D02*
X114450000Y-58275000D01*
X114450000Y-94275000D02*
X120450000Y-94275000D01*
X120450000Y-101625000D02*
X120450000Y-58275000D01*
X47192000Y-73517000D02*
X47192000Y-70989580D01*
X52555370Y-68067000D02*
X58859000Y-61763370D01*
X114450000Y-64275000D02*
X120450000Y-64275000D01*
X114450000Y-58275000D02*
X120450000Y-58275000D01*
X52125000Y-74625000D02*
X48300000Y-74625000D01*
X58859000Y-53954160D02*
X61150160Y-51663000D01*
X114450000Y-70275000D02*
X120450000Y-70275000D01*
X61150160Y-51663000D02*
X89563000Y-51663000D01*
X92650000Y-54750000D02*
X112175000Y-54750000D01*
X114450000Y-101625000D02*
X114450000Y-58275000D01*
X114450000Y-76275000D02*
X120450000Y-76275000D01*
X114450000Y-100275000D02*
X120450000Y-100275000D01*
X89563000Y-51663000D02*
X92650000Y-54750000D01*
X47192000Y-70989580D02*
X50114580Y-68067000D01*
X48300000Y-74625000D02*
X47192000Y-73517000D01*
X58859000Y-61763370D02*
X58859000Y-53954160D01*
X114450000Y-88275000D02*
X120450000Y-88275000D01*
X114450000Y-82275000D02*
X120450000Y-82275000D01*
X50114580Y-68067000D02*
X52555370Y-68067000D01*
X98321000Y-54496000D02*
X122671000Y-54496000D01*
X46800000Y-73484210D02*
X46800000Y-71022370D01*
X126450000Y-76275000D02*
X132450000Y-76275000D01*
X126450000Y-82275000D02*
X132450000Y-82275000D01*
X126450000Y-64275000D02*
X132450000Y-64275000D01*
X61044950Y-51409000D02*
X95234000Y-51409000D01*
X50009370Y-67813000D02*
X52450160Y-67813000D01*
X95234000Y-51409000D02*
X98321000Y-54496000D01*
X126450000Y-100275000D02*
X132450000Y-100275000D01*
X126450000Y-70275000D02*
X132450000Y-70275000D01*
X126450000Y-94275000D02*
X132450000Y-94275000D01*
X48440790Y-75125000D02*
X46800000Y-73484210D01*
X46800000Y-71022370D02*
X50009370Y-67813000D01*
X52450160Y-67813000D02*
X58605000Y-61658160D01*
X122671000Y-54496000D02*
X126450000Y-58275000D01*
X126450000Y-101625000D02*
X126450000Y-58275000D01*
X132450000Y-101625000D02*
X132450000Y-58275000D01*
X58605000Y-61658160D02*
X58605000Y-53848950D01*
X126450000Y-88275000D02*
X132450000Y-88275000D01*
X126450000Y-58275000D02*
X132450000Y-58275000D01*
X49225000Y-75125000D02*
X48440790Y-75125000D01*
X58605000Y-53848950D02*
X61044950Y-51409000D01*
X144450000Y-101625000D02*
X144450000Y-58275000D01*
X46546000Y-73727000D02*
X46546000Y-70917160D01*
X138450000Y-64275000D02*
X144450000Y-64275000D01*
X60939740Y-51155000D02*
X101080000Y-51155000D01*
X58351000Y-53743740D02*
X60939740Y-51155000D01*
X138450000Y-88275000D02*
X144450000Y-88275000D01*
X138450000Y-70275000D02*
X144450000Y-70275000D01*
X138450000Y-58275000D02*
X144450000Y-58275000D01*
X48444000Y-75625000D02*
X46546000Y-73727000D01*
X49904160Y-67559000D02*
X52344950Y-67559000D01*
X134417000Y-54242000D02*
X138450000Y-58275000D01*
X138450000Y-82275000D02*
X144450000Y-82275000D01*
X138450000Y-76275000D02*
X144450000Y-76275000D01*
X138450000Y-100275000D02*
X144450000Y-100275000D01*
X58351000Y-61552950D02*
X58351000Y-53743740D01*
X46546000Y-70917160D02*
X49904160Y-67559000D01*
X138450000Y-101625000D02*
X138450000Y-58275000D01*
X52125000Y-75625000D02*
X48444000Y-75625000D01*
X52344950Y-67559000D02*
X58351000Y-61552950D01*
X104167000Y-54242000D02*
X134417000Y-54242000D01*
X101080000Y-51155000D02*
X104167000Y-54242000D01*
X138450000Y-94275000D02*
X144450000Y-94275000D01*
X146163000Y-53988000D02*
X150450000Y-58275000D01*
X150450000Y-100275000D02*
X156450000Y-100275000D01*
X60834530Y-50901000D02*
X107401000Y-50901000D01*
X150450000Y-58275000D02*
X156450000Y-58275000D01*
X150450000Y-64275000D02*
X156450000Y-64275000D01*
X110488000Y-53988000D02*
X146163000Y-53988000D01*
X58097000Y-61447740D02*
X58097000Y-53638530D01*
X52239740Y-67305000D02*
X58097000Y-61447740D01*
X150450000Y-76275000D02*
X156450000Y-76275000D01*
X49798950Y-67305000D02*
X52239740Y-67305000D01*
X150450000Y-94275000D02*
X156450000Y-94275000D01*
X150450000Y-88275000D02*
X156450000Y-88275000D01*
X46292000Y-70811950D02*
X49798950Y-67305000D01*
X156450000Y-101625000D02*
X156450000Y-58275000D01*
X107401000Y-50901000D02*
X110488000Y-53988000D01*
X46292000Y-73832210D02*
X46292000Y-70811950D01*
X150450000Y-82275000D02*
X156450000Y-82275000D01*
X48584790Y-76125000D02*
X46292000Y-73832210D01*
X49225000Y-76125000D02*
X48584790Y-76125000D01*
X150450000Y-101625000D02*
X150450000Y-58275000D01*
X150450000Y-70275000D02*
X156450000Y-70275000D01*
X58097000Y-53638530D02*
X60834530Y-50901000D01*
X162450000Y-100275000D02*
X168450000Y-100275000D01*
X113072000Y-50647000D02*
X116159000Y-53734000D01*
X116159000Y-53734000D02*
X157909000Y-53734000D01*
X46038000Y-74219000D02*
X46038000Y-70706740D01*
X52134530Y-67051000D02*
X57843000Y-61342530D01*
X162450000Y-76275000D02*
X168450000Y-76275000D01*
X60729320Y-50647000D02*
X113072000Y-50647000D01*
X162450000Y-70275000D02*
X168450000Y-70275000D01*
X46038000Y-70706740D02*
X49693740Y-67051000D01*
X162450000Y-64275000D02*
X168450000Y-64275000D01*
X162450000Y-101625000D02*
X162450000Y-58275000D01*
X162450000Y-58275000D02*
X168450000Y-58275000D01*
X162450000Y-88275000D02*
X168450000Y-88275000D01*
X157909000Y-53734000D02*
X162450000Y-58275000D01*
X162450000Y-94275000D02*
X168450000Y-94275000D01*
X48444000Y-76625000D02*
X46038000Y-74219000D01*
X168450000Y-101625000D02*
X168450000Y-58275000D01*
X52125000Y-76625000D02*
X48444000Y-76625000D01*
X49693740Y-67051000D02*
X52134530Y-67051000D01*
X162450000Y-82275000D02*
X168450000Y-82275000D01*
X57843000Y-53533320D02*
X60729320Y-50647000D01*
X57843000Y-61342530D02*
X57843000Y-53533320D01*
X57589000Y-61237320D02*
X57589000Y-53428110D01*
X174450000Y-94275000D02*
X180450000Y-94275000D01*
X122255000Y-53480000D02*
X169655000Y-53480000D01*
X52029320Y-66797000D02*
X57589000Y-61237320D01*
X174450000Y-76275000D02*
X180450000Y-76275000D01*
X45784000Y-74324210D02*
X45784000Y-70601530D01*
X174450000Y-88275000D02*
X180450000Y-88275000D01*
X49225000Y-77125000D02*
X48584790Y-77125000D01*
X174450000Y-101625000D02*
X174450000Y-58275000D01*
X174450000Y-70275000D02*
X180450000Y-70275000D01*
X119168000Y-50393000D02*
X122255000Y-53480000D01*
X45784000Y-70601530D02*
X49588530Y-66797000D01*
X174450000Y-64275000D02*
X180450000Y-64275000D01*
X174450000Y-58275000D02*
X180450000Y-58275000D01*
X174450000Y-82275000D02*
X180450000Y-82275000D01*
X57589000Y-53428110D02*
X60624110Y-50393000D01*
X169655000Y-53480000D02*
X174450000Y-58275000D01*
X180450000Y-101625000D02*
X180450000Y-58275000D01*
X174450000Y-100275000D02*
X180450000Y-100275000D01*
X49588530Y-66797000D02*
X52029320Y-66797000D01*
X60624110Y-50393000D02*
X119168000Y-50393000D01*
X48584790Y-77125000D02*
X45784000Y-74324210D01*
X181401000Y-53226000D02*
X186450000Y-58275000D01*
X186450000Y-70275000D02*
X192450000Y-70275000D01*
X186450000Y-76275000D02*
X192450000Y-76275000D01*
X45530000Y-74711000D02*
X45530000Y-70496320D01*
X186450000Y-100275000D02*
X192450000Y-100275000D01*
X60518900Y-50139000D02*
X124464000Y-50139000D01*
X52125000Y-77625000D02*
X48444000Y-77625000D01*
X48444000Y-77625000D02*
X45530000Y-74711000D01*
X57335000Y-61132110D02*
X57335000Y-53322900D01*
X186450000Y-82275000D02*
X192450000Y-82275000D01*
X186450000Y-64275000D02*
X192450000Y-64275000D01*
X49483320Y-66543000D02*
X51924110Y-66543000D01*
X186450000Y-94275000D02*
X192450000Y-94275000D01*
X192450000Y-101625000D02*
X192450000Y-58275000D01*
X124464000Y-50139000D02*
X127551000Y-53226000D01*
X186450000Y-101625000D02*
X186450000Y-58275000D01*
X127551000Y-53226000D02*
X181401000Y-53226000D01*
X51924110Y-66543000D02*
X57335000Y-61132110D01*
X57335000Y-53322900D02*
X60518900Y-50139000D01*
X186450000Y-58275000D02*
X192450000Y-58275000D01*
X45530000Y-70496320D02*
X49483320Y-66543000D01*
X186450000Y-88275000D02*
X192450000Y-88275000D01*
X130285000Y-49885000D02*
X133372000Y-52972000D01*
X57081000Y-61026900D02*
X57081000Y-53217690D01*
X193147000Y-52972000D02*
X198450000Y-58275000D01*
X204450000Y-101625000D02*
X204450000Y-58275000D01*
X198450000Y-58275000D02*
X204450000Y-58275000D01*
X48584790Y-78125000D02*
X45276000Y-74816210D01*
X45276000Y-74816210D02*
X45276000Y-70391110D01*
X60413690Y-49885000D02*
X130285000Y-49885000D01*
X198450000Y-70275000D02*
X204450000Y-70275000D01*
X133372000Y-52972000D02*
X193147000Y-52972000D01*
X45276000Y-70391110D02*
X49378110Y-66289000D01*
X198450000Y-64275000D02*
X204450000Y-64275000D01*
X198450000Y-76275000D02*
X204450000Y-76275000D01*
X198450000Y-101625000D02*
X198450000Y-58275000D01*
X198450000Y-94275000D02*
X204450000Y-94275000D01*
X49378110Y-66289000D02*
X51818900Y-66289000D01*
X49225000Y-78125000D02*
X48584790Y-78125000D01*
X57081000Y-53217690D02*
X60413690Y-49885000D01*
X198450000Y-82275000D02*
X204450000Y-82275000D01*
X51818900Y-66289000D02*
X57081000Y-61026900D01*
X198450000Y-88275000D02*
X204450000Y-88275000D01*
X198450000Y-100275000D02*
X204450000Y-100275000D01*
X137206000Y-49631000D02*
X140293000Y-52718000D01*
X210450000Y-76275000D02*
X216450000Y-76275000D01*
X210450000Y-64275000D02*
X216450000Y-64275000D01*
X45022000Y-75203000D02*
X45022000Y-70285900D01*
X140293000Y-52718000D02*
X204893000Y-52718000D01*
X210450000Y-100275000D02*
X216450000Y-100275000D01*
X210450000Y-58275000D02*
X216450000Y-58275000D01*
X210450000Y-88275000D02*
X216450000Y-88275000D01*
X60308480Y-49631000D02*
X137206000Y-49631000D01*
X52125000Y-78625000D02*
X48444000Y-78625000D01*
X48444000Y-78625000D02*
X45022000Y-75203000D01*
X204893000Y-52718000D02*
X210450000Y-58275000D01*
X216450000Y-101625000D02*
X216450000Y-58275000D01*
X210450000Y-94275000D02*
X216450000Y-94275000D01*
X49272900Y-66035000D02*
X51713690Y-66035000D01*
X56827000Y-53112480D02*
X60308480Y-49631000D01*
X51713690Y-66035000D02*
X56827000Y-60921690D01*
X56827000Y-60921690D02*
X56827000Y-53112480D01*
X210450000Y-101625000D02*
X210450000Y-58275000D01*
X210450000Y-70275000D02*
X216450000Y-70275000D01*
X210450000Y-82275000D02*
X216450000Y-82275000D01*
X45022000Y-70285900D02*
X49272900Y-66035000D01*
X44768000Y-75308210D02*
X44768000Y-70180690D01*
X222450000Y-64275000D02*
X228450000Y-64275000D01*
X228450000Y-101625000D02*
X228450000Y-58275000D01*
X222450000Y-94275000D02*
X228450000Y-94275000D01*
X56573000Y-60816480D02*
X56573000Y-53007270D01*
X49167690Y-65781000D02*
X51608480Y-65781000D01*
X56573000Y-53007270D02*
X60203270Y-49377000D01*
X60203270Y-49377000D02*
X142452000Y-49377000D01*
X222450000Y-100275000D02*
X228450000Y-100275000D01*
X145539000Y-52464000D02*
X216639000Y-52464000D01*
X222450000Y-76275000D02*
X228450000Y-76275000D01*
X51608480Y-65781000D02*
X56573000Y-60816480D01*
X222450000Y-70275000D02*
X228450000Y-70275000D01*
X48584790Y-79125000D02*
X44768000Y-75308210D01*
X222450000Y-82275000D02*
X228450000Y-82275000D01*
X142452000Y-49377000D02*
X145539000Y-52464000D01*
X222450000Y-58275000D02*
X228450000Y-58275000D01*
X216639000Y-52464000D02*
X222450000Y-58275000D01*
X44768000Y-70180690D02*
X49167690Y-65781000D01*
X49225000Y-79125000D02*
X48584790Y-79125000D01*
X222450000Y-101625000D02*
X222450000Y-58275000D01*
X222450000Y-88275000D02*
X228450000Y-88275000D01*
X234450000Y-64275000D02*
X240450000Y-64275000D01*
X49062480Y-65527000D02*
X51503270Y-65527000D01*
X234450000Y-76275000D02*
X240450000Y-76275000D01*
X44514000Y-75695000D02*
X44514000Y-70075480D01*
X240450000Y-101625000D02*
X240450000Y-58275000D01*
X234450000Y-70275000D02*
X240450000Y-70275000D01*
X234450000Y-58275000D02*
X240450000Y-58275000D01*
X234450000Y-101625000D02*
X234450000Y-58275000D01*
X148173000Y-49123000D02*
X151260000Y-52210000D01*
X51503270Y-65527000D02*
X56319000Y-60711270D01*
X234450000Y-82275000D02*
X240450000Y-82275000D01*
X151260000Y-52210000D02*
X228385000Y-52210000D01*
X234450000Y-94275000D02*
X240450000Y-94275000D01*
X48444000Y-79625000D02*
X44514000Y-75695000D01*
X234450000Y-100275000D02*
X240450000Y-100275000D01*
X60098060Y-49123000D02*
X148173000Y-49123000D01*
X228385000Y-52210000D02*
X234450000Y-58275000D01*
X56319000Y-52902060D02*
X60098060Y-49123000D01*
X52125000Y-79625000D02*
X48444000Y-79625000D01*
X44514000Y-70075480D02*
X49062480Y-65527000D01*
X234450000Y-88275000D02*
X240450000Y-88275000D01*
X56319000Y-60711270D02*
X56319000Y-52902060D01*
M02*
