G04 #@! TF.GenerationSoftware,KiCad,Pcbnew,6.0.8+dfsg-1~bpo11+1*
G04 #@! TF.CreationDate,2023-03-24T18:51:04-04:00*
G04 #@! TF.ProjectId,06_8x15_diamond_for_trackpad,30365f38-7831-4355-9f64-69616d6f6e64,rev?*
G04 #@! TF.SameCoordinates,Original*
G04 #@! TF.FileFunction,Copper,L1,Top*
G04 #@! TF.FilePolarity,Positive*
%FSLAX46Y46*%
G04 Gerber Fmt 4.6, Leading zero omitted, Abs format (unit mm)*
G04 Created by KiCad (PCBNEW 6.0.8+dfsg-1~bpo11+1) date 2023-03-24 18:51:04*
%MOMM*%
%LPD*%
G01*
G04 APERTURE LIST*
G04 Aperture macros list*
%AMFreePoly0*
4,1,1904,180.019075,0.144889,180.038823,0.144889,180.055925,0.135015,180.075000,0.129904,180.088964,0.115940,180.106066,0.106066,180.115940,0.088964,180.129904,0.075000,180.135015,0.055925,180.144889,0.038823,180.144889,0.019075,180.150000,0.000000,180.150000,-4.700000,180.144889,-4.719075,180.144889,-4.738823,180.135015,-4.755925,180.129904,-4.775000,180.115940,-4.788964,180.106066,-4.806066,180.088964,-4.815940,
180.075000,-4.829904,180.055925,-4.835015,180.038823,-4.844889,180.019075,-4.844889,180.000000,-4.850000,179.980925,-4.844889,179.961177,-4.844889,179.944075,-4.835015,179.925000,-4.829904,179.911036,-4.815940,179.893934,-4.806066,179.116439,-4.028571,179.540703,-4.028571,179.664286,-4.152154,179.850000,-3.966439,179.850000,-3.719275,179.540703,-4.028571,179.116439,-4.028571,178.780725,-3.692857,179.204989,-3.692857,
179.328571,-3.816439,179.850000,-3.295011,179.850000,-3.047846,179.204989,-3.692857,178.780725,-3.692857,178.445011,-3.357143,178.869275,-3.357143,178.992857,-3.480725,179.850000,-2.623582,179.850000,-2.376418,178.869275,-3.357143,178.445011,-3.357143,178.109297,-3.021429,178.533561,-3.021429,178.657143,-3.145011,179.850000,-1.952154,179.850000,-1.704989,178.533561,-3.021429,178.109297,-3.021429,177.773582,-2.685714,
178.197846,-2.685714,178.321429,-2.809297,179.850000,-1.280725,179.850000,-1.033561,178.197846,-2.685714,177.773582,-2.685714,177.562868,-2.475000,176.437132,-2.475000,174.106066,-4.806066,174.038823,-4.844889,173.961177,-4.844889,173.893934,-4.806066,173.452154,-4.364286,173.876418,-4.364286,174.000000,-4.487868,176.137868,-2.350000,177.862132,-2.350000,177.985714,-2.473582,179.850000,-0.609297,179.850000,-0.362132,
177.862132,-2.350000,176.137868,-2.350000,176.014286,-2.226418,173.876418,-4.364286,173.452154,-4.364286,173.116439,-4.028571,173.540703,-4.028571,173.664286,-4.152154,175.802154,-2.014286,175.678571,-1.890703,173.540703,-4.028571,173.116439,-4.028571,172.780725,-3.692857,173.204989,-3.692857,173.328571,-3.816439,175.466439,-1.678571,175.342857,-1.554989,173.204989,-3.692857,172.780725,-3.692857,172.445011,-3.357143,
172.869275,-3.357143,172.992857,-3.480725,175.130725,-1.342857,175.007143,-1.219275,172.869275,-3.357143,172.445011,-3.357143,172.109297,-3.021429,172.533561,-3.021429,172.657143,-3.145011,174.795011,-1.007143,174.671429,-0.883561,172.533561,-3.021429,172.109297,-3.021429,171.773582,-2.685714,172.197846,-2.685714,172.321429,-2.809297,174.459297,-0.671429,174.335714,-0.547846,172.197846,-2.685714,171.773582,-2.685714,
171.562868,-2.475000,170.437132,-2.475000,168.106066,-4.806066,168.038823,-4.844889,167.961177,-4.844889,167.893934,-4.806066,167.452154,-4.364286,167.876418,-4.364286,168.000000,-4.487868,170.137868,-2.350000,171.862132,-2.350000,171.985714,-2.473582,174.123582,-0.335714,174.000000,-0.212132,171.862132,-2.350000,170.137868,-2.350000,170.014286,-2.226418,167.876418,-4.364286,167.452154,-4.364286,167.116439,-4.028571,
167.540703,-4.028571,167.664286,-4.152154,169.802154,-2.014286,169.678571,-1.890703,167.540703,-4.028571,167.116439,-4.028571,166.780725,-3.692857,167.204989,-3.692857,167.328571,-3.816439,169.466439,-1.678571,169.342857,-1.554989,167.204989,-3.692857,166.780725,-3.692857,166.445011,-3.357143,166.869275,-3.357143,166.992857,-3.480725,169.130725,-1.342857,169.007143,-1.219275,166.869275,-3.357143,166.445011,-3.357143,
166.109297,-3.021429,166.533561,-3.021429,166.657143,-3.145011,168.795011,-1.007143,168.671429,-0.883561,166.533561,-3.021429,166.109297,-3.021429,165.773582,-2.685714,166.197846,-2.685714,166.321429,-2.809297,168.459297,-0.671429,168.335714,-0.547846,166.197846,-2.685714,165.773582,-2.685714,165.562868,-2.475000,164.437132,-2.475000,162.106066,-4.806066,162.038823,-4.844889,161.961177,-4.844889,161.893934,-4.806066,
161.452154,-4.364286,161.876418,-4.364286,162.000000,-4.487868,164.137868,-2.350000,165.862132,-2.350000,165.985714,-2.473582,168.123582,-0.335714,168.000000,-0.212132,165.862132,-2.350000,164.137868,-2.350000,164.014286,-2.226418,161.876418,-4.364286,161.452154,-4.364286,161.116439,-4.028571,161.540703,-4.028571,161.664286,-4.152154,163.802154,-2.014286,163.678571,-1.890703,161.540703,-4.028571,161.116439,-4.028571,
160.780725,-3.692857,161.204989,-3.692857,161.328571,-3.816439,163.466439,-1.678571,163.342857,-1.554989,161.204989,-3.692857,160.780725,-3.692857,160.445011,-3.357143,160.869275,-3.357143,160.992857,-3.480725,163.130725,-1.342857,163.007143,-1.219275,160.869275,-3.357143,160.445011,-3.357143,160.109297,-3.021429,160.533561,-3.021429,160.657143,-3.145011,162.795011,-1.007143,162.671429,-0.883561,160.533561,-3.021429,
160.109297,-3.021429,159.773582,-2.685714,160.197846,-2.685714,160.321429,-2.809297,162.459297,-0.671429,162.335714,-0.547846,160.197846,-2.685714,159.773582,-2.685714,159.562868,-2.475000,158.437132,-2.475000,156.106066,-4.806066,156.038823,-4.844889,155.961177,-4.844889,155.893934,-4.806066,155.452154,-4.364286,155.876418,-4.364286,156.000000,-4.487868,158.137868,-2.350000,159.862132,-2.350000,159.985714,-2.473582,
162.123582,-0.335714,162.000000,-0.212132,159.862132,-2.350000,158.137868,-2.350000,158.014286,-2.226418,155.876418,-4.364286,155.452154,-4.364286,155.116439,-4.028571,155.540703,-4.028571,155.664286,-4.152154,157.802154,-2.014286,157.678571,-1.890703,155.540703,-4.028571,155.116439,-4.028571,154.780725,-3.692857,155.204989,-3.692857,155.328571,-3.816439,157.466439,-1.678571,157.342857,-1.554989,155.204989,-3.692857,
154.780725,-3.692857,154.445011,-3.357143,154.869275,-3.357143,154.992857,-3.480725,157.130725,-1.342857,157.007143,-1.219275,154.869275,-3.357143,154.445011,-3.357143,154.109297,-3.021429,154.533561,-3.021429,154.657143,-3.145011,156.795011,-1.007143,156.671429,-0.883561,154.533561,-3.021429,154.109297,-3.021429,153.773582,-2.685714,154.197846,-2.685714,154.321429,-2.809297,156.459297,-0.671429,156.335714,-0.547846,
154.197846,-2.685714,153.773582,-2.685714,153.562868,-2.475000,152.437132,-2.475000,150.106066,-4.806066,150.038823,-4.844889,149.961177,-4.844889,149.893934,-4.806066,149.452154,-4.364286,149.876418,-4.364286,150.000000,-4.487868,152.137868,-2.350000,153.862132,-2.350000,153.985714,-2.473582,156.123582,-0.335714,156.000000,-0.212132,153.862132,-2.350000,152.137868,-2.350000,152.014286,-2.226418,149.876418,-4.364286,
149.452154,-4.364286,149.116439,-4.028571,149.540703,-4.028571,149.664286,-4.152154,151.802154,-2.014286,151.678571,-1.890703,149.540703,-4.028571,149.116439,-4.028571,148.780725,-3.692857,149.204989,-3.692857,149.328571,-3.816439,151.466439,-1.678571,151.342857,-1.554989,149.204989,-3.692857,148.780725,-3.692857,148.445011,-3.357143,148.869275,-3.357143,148.992857,-3.480725,151.130725,-1.342857,151.007143,-1.219275,
148.869275,-3.357143,148.445011,-3.357143,148.109297,-3.021429,148.533561,-3.021429,148.657143,-3.145011,150.795011,-1.007143,150.671429,-0.883561,148.533561,-3.021429,148.109297,-3.021429,147.773582,-2.685714,148.197846,-2.685714,148.321429,-2.809297,150.459297,-0.671429,150.335714,-0.547846,148.197846,-2.685714,147.773582,-2.685714,147.562868,-2.475000,146.437132,-2.475000,144.106066,-4.806066,144.038823,-4.844889,
143.961177,-4.844889,143.893934,-4.806066,143.452154,-4.364286,143.876418,-4.364286,144.000000,-4.487868,146.137868,-2.350000,147.862132,-2.350000,147.985714,-2.473582,150.123582,-0.335714,150.000000,-0.212132,147.862132,-2.350000,146.137868,-2.350000,146.014286,-2.226418,143.876418,-4.364286,143.452154,-4.364286,143.116439,-4.028571,143.540703,-4.028571,143.664286,-4.152154,145.802154,-2.014286,145.678571,-1.890703,
143.540703,-4.028571,143.116439,-4.028571,142.780725,-3.692857,143.204989,-3.692857,143.328571,-3.816439,145.466439,-1.678571,145.342857,-1.554989,143.204989,-3.692857,142.780725,-3.692857,142.445011,-3.357143,142.869275,-3.357143,142.992857,-3.480725,145.130725,-1.342857,145.007143,-1.219275,142.869275,-3.357143,142.445011,-3.357143,142.109297,-3.021429,142.533561,-3.021429,142.657143,-3.145011,144.795011,-1.007143,
144.671429,-0.883561,142.533561,-3.021429,142.109297,-3.021429,141.773582,-2.685714,142.197846,-2.685714,142.321429,-2.809297,144.459297,-0.671429,144.335714,-0.547846,142.197846,-2.685714,141.773582,-2.685714,141.562868,-2.475000,140.437132,-2.475000,138.106066,-4.806066,138.038823,-4.844889,137.961177,-4.844889,137.893934,-4.806066,137.452154,-4.364286,137.876418,-4.364286,138.000000,-4.487868,140.137868,-2.350000,
141.862132,-2.350000,141.985714,-2.473582,144.123582,-0.335714,144.000000,-0.212132,141.862132,-2.350000,140.137868,-2.350000,140.014286,-2.226418,137.876418,-4.364286,137.452154,-4.364286,137.116439,-4.028571,137.540703,-4.028571,137.664286,-4.152154,139.802154,-2.014286,139.678571,-1.890703,137.540703,-4.028571,137.116439,-4.028571,136.780725,-3.692857,137.204989,-3.692857,137.328571,-3.816439,139.466439,-1.678571,
139.342857,-1.554989,137.204989,-3.692857,136.780725,-3.692857,136.445011,-3.357143,136.869275,-3.357143,136.992857,-3.480725,139.130725,-1.342857,139.007143,-1.219275,136.869275,-3.357143,136.445011,-3.357143,136.109297,-3.021429,136.533561,-3.021429,136.657143,-3.145011,138.795011,-1.007143,138.671429,-0.883561,136.533561,-3.021429,136.109297,-3.021429,135.773582,-2.685714,136.197846,-2.685714,136.321429,-2.809297,
138.459297,-0.671429,138.335714,-0.547846,136.197846,-2.685714,135.773582,-2.685714,135.562868,-2.475000,134.437132,-2.475000,132.106066,-4.806066,132.038823,-4.844889,131.961177,-4.844889,131.893934,-4.806066,131.452154,-4.364286,131.876418,-4.364286,132.000000,-4.487868,134.137868,-2.350000,135.862132,-2.350000,135.985714,-2.473582,138.123582,-0.335714,138.000000,-0.212132,135.862132,-2.350000,134.137868,-2.350000,
134.014286,-2.226418,131.876418,-4.364286,131.452154,-4.364286,131.116439,-4.028571,131.540703,-4.028571,131.664286,-4.152154,133.802154,-2.014286,133.678571,-1.890703,131.540703,-4.028571,131.116439,-4.028571,130.780725,-3.692857,131.204989,-3.692857,131.328571,-3.816439,133.466439,-1.678571,133.342857,-1.554989,131.204989,-3.692857,130.780725,-3.692857,130.445011,-3.357143,130.869275,-3.357143,130.992857,-3.480725,
133.130725,-1.342857,133.007143,-1.219275,130.869275,-3.357143,130.445011,-3.357143,130.109297,-3.021429,130.533561,-3.021429,130.657143,-3.145011,132.795011,-1.007143,132.671429,-0.883561,130.533561,-3.021429,130.109297,-3.021429,129.773582,-2.685714,130.197846,-2.685714,130.321429,-2.809297,132.459297,-0.671429,132.335714,-0.547846,130.197846,-2.685714,129.773582,-2.685714,129.562868,-2.475000,128.437132,-2.475000,
126.106066,-4.806066,126.038823,-4.844889,125.961177,-4.844889,125.893934,-4.806066,125.452154,-4.364286,125.876418,-4.364286,126.000000,-4.487868,128.137868,-2.350000,129.862132,-2.350000,129.985714,-2.473582,132.123582,-0.335714,132.000000,-0.212132,129.862132,-2.350000,128.137868,-2.350000,128.014286,-2.226418,125.876418,-4.364286,125.452154,-4.364286,125.116439,-4.028571,125.540703,-4.028571,125.664286,-4.152154,
127.802154,-2.014286,127.678571,-1.890703,125.540703,-4.028571,125.116439,-4.028571,124.780725,-3.692857,125.204989,-3.692857,125.328571,-3.816439,127.466439,-1.678571,127.342857,-1.554989,125.204989,-3.692857,124.780725,-3.692857,124.445011,-3.357143,124.869275,-3.357143,124.992857,-3.480725,127.130725,-1.342857,127.007143,-1.219275,124.869275,-3.357143,124.445011,-3.357143,124.109297,-3.021429,124.533561,-3.021429,
124.657143,-3.145011,126.795011,-1.007143,126.671429,-0.883561,124.533561,-3.021429,124.109297,-3.021429,123.773582,-2.685714,124.197846,-2.685714,124.321429,-2.809297,126.459297,-0.671429,126.335714,-0.547846,124.197846,-2.685714,123.773582,-2.685714,123.562868,-2.475000,122.437132,-2.475000,120.106066,-4.806066,120.038823,-4.844889,119.961177,-4.844889,119.893934,-4.806066,119.452154,-4.364286,119.876418,-4.364286,
120.000000,-4.487868,122.137868,-2.350000,123.862132,-2.350000,123.985714,-2.473582,126.123582,-0.335714,126.000000,-0.212132,123.862132,-2.350000,122.137868,-2.350000,122.014286,-2.226418,119.876418,-4.364286,119.452154,-4.364286,119.116439,-4.028571,119.540703,-4.028571,119.664286,-4.152154,121.802154,-2.014286,121.678571,-1.890703,119.540703,-4.028571,119.116439,-4.028571,118.780725,-3.692857,119.204989,-3.692857,
119.328571,-3.816439,121.466439,-1.678571,121.342857,-1.554989,119.204989,-3.692857,118.780725,-3.692857,118.445011,-3.357143,118.869275,-3.357143,118.992857,-3.480725,121.130725,-1.342857,121.007143,-1.219275,118.869275,-3.357143,118.445011,-3.357143,118.109297,-3.021429,118.533561,-3.021429,118.657143,-3.145011,120.795011,-1.007143,120.671429,-0.883561,118.533561,-3.021429,118.109297,-3.021429,117.773582,-2.685714,
118.197846,-2.685714,118.321429,-2.809297,120.459297,-0.671429,120.335714,-0.547846,118.197846,-2.685714,117.773582,-2.685714,117.562868,-2.475000,116.437132,-2.475000,114.106066,-4.806066,114.038823,-4.844889,113.961177,-4.844889,113.893934,-4.806066,113.452154,-4.364286,113.876418,-4.364286,114.000000,-4.487868,116.137868,-2.350000,117.862132,-2.350000,117.985714,-2.473582,120.123582,-0.335714,120.000000,-0.212132,
117.862132,-2.350000,116.137868,-2.350000,116.014286,-2.226418,113.876418,-4.364286,113.452154,-4.364286,113.116439,-4.028571,113.540703,-4.028571,113.664286,-4.152154,115.802154,-2.014286,115.678571,-1.890703,113.540703,-4.028571,113.116439,-4.028571,112.780725,-3.692857,113.204989,-3.692857,113.328571,-3.816439,115.466439,-1.678571,115.342857,-1.554989,113.204989,-3.692857,112.780725,-3.692857,112.445011,-3.357143,
112.869275,-3.357143,112.992857,-3.480725,115.130725,-1.342857,115.007143,-1.219275,112.869275,-3.357143,112.445011,-3.357143,112.109297,-3.021429,112.533561,-3.021429,112.657143,-3.145011,114.795011,-1.007143,114.671429,-0.883561,112.533561,-3.021429,112.109297,-3.021429,111.773582,-2.685714,112.197846,-2.685714,112.321429,-2.809297,114.459297,-0.671429,114.335714,-0.547846,112.197846,-2.685714,111.773582,-2.685714,
111.562868,-2.475000,110.437132,-2.475000,108.106066,-4.806066,108.038823,-4.844889,107.961177,-4.844889,107.893934,-4.806066,107.452154,-4.364286,107.876418,-4.364286,108.000000,-4.487868,110.137868,-2.350000,111.862132,-2.350000,111.985714,-2.473582,114.123582,-0.335714,114.000000,-0.212132,111.862132,-2.350000,110.137868,-2.350000,110.014286,-2.226418,107.876418,-4.364286,107.452154,-4.364286,107.116439,-4.028571,
107.540703,-4.028571,107.664286,-4.152154,109.802154,-2.014286,109.678571,-1.890703,107.540703,-4.028571,107.116439,-4.028571,106.780725,-3.692857,107.204989,-3.692857,107.328571,-3.816439,109.466439,-1.678571,109.342857,-1.554989,107.204989,-3.692857,106.780725,-3.692857,106.445011,-3.357143,106.869275,-3.357143,106.992857,-3.480725,109.130725,-1.342857,109.007143,-1.219275,106.869275,-3.357143,106.445011,-3.357143,
106.109297,-3.021429,106.533561,-3.021429,106.657143,-3.145011,108.795011,-1.007143,108.671429,-0.883561,106.533561,-3.021429,106.109297,-3.021429,105.773582,-2.685714,106.197846,-2.685714,106.321429,-2.809297,108.459297,-0.671429,108.335714,-0.547846,106.197846,-2.685714,105.773582,-2.685714,105.562868,-2.475000,104.437132,-2.475000,102.106066,-4.806066,102.038823,-4.844889,101.961177,-4.844889,101.893934,-4.806066,
101.452154,-4.364286,101.876418,-4.364286,102.000000,-4.487868,104.137868,-2.350000,105.862132,-2.350000,105.985714,-2.473582,108.123582,-0.335714,108.000000,-0.212132,105.862132,-2.350000,104.137868,-2.350000,104.014286,-2.226418,101.876418,-4.364286,101.452154,-4.364286,101.116439,-4.028571,101.540703,-4.028571,101.664286,-4.152154,103.802154,-2.014286,103.678571,-1.890703,101.540703,-4.028571,101.116439,-4.028571,
100.780725,-3.692857,101.204989,-3.692857,101.328571,-3.816439,103.466439,-1.678571,103.342857,-1.554989,101.204989,-3.692857,100.780725,-3.692857,100.445011,-3.357143,100.869275,-3.357143,100.992857,-3.480725,103.130725,-1.342857,103.007143,-1.219275,100.869275,-3.357143,100.445011,-3.357143,100.109297,-3.021429,100.533561,-3.021429,100.657143,-3.145011,102.795011,-1.007143,102.671429,-0.883561,100.533561,-3.021429,
100.109297,-3.021429,99.773582,-2.685714,100.197846,-2.685714,100.321429,-2.809297,102.459297,-0.671429,102.335714,-0.547846,100.197846,-2.685714,99.773582,-2.685714,99.562868,-2.475000,98.437132,-2.475000,96.106066,-4.806066,96.038823,-4.844889,95.961177,-4.844889,95.893934,-4.806066,95.452154,-4.364286,95.876418,-4.364286,96.000000,-4.487868,98.137868,-2.350000,99.862132,-2.350000,99.985714,-2.473582,
102.123582,-0.335714,102.000000,-0.212132,99.862132,-2.350000,98.137868,-2.350000,98.014286,-2.226418,95.876418,-4.364286,95.452154,-4.364286,95.116439,-4.028571,95.540703,-4.028571,95.664286,-4.152154,97.802154,-2.014286,97.678571,-1.890703,95.540703,-4.028571,95.116439,-4.028571,94.780725,-3.692857,95.204989,-3.692857,95.328571,-3.816439,97.466439,-1.678571,97.342857,-1.554989,95.204989,-3.692857,
94.780725,-3.692857,94.445011,-3.357143,94.869275,-3.357143,94.992857,-3.480725,97.130725,-1.342857,97.007143,-1.219275,94.869275,-3.357143,94.445011,-3.357143,94.109297,-3.021429,94.533561,-3.021429,94.657143,-3.145011,96.795011,-1.007143,96.671429,-0.883561,94.533561,-3.021429,94.109297,-3.021429,93.773582,-2.685714,94.197846,-2.685714,94.321429,-2.809297,96.459297,-0.671429,96.335714,-0.547846,
94.197846,-2.685714,93.773582,-2.685714,93.562868,-2.475000,92.437132,-2.475000,90.106066,-4.806066,90.038823,-4.844889,89.961177,-4.844889,89.893934,-4.806066,89.452154,-4.364286,89.876418,-4.364286,90.000000,-4.487868,92.137868,-2.350000,93.862132,-2.350000,93.985714,-2.473582,96.123582,-0.335714,96.000000,-0.212132,93.862132,-2.350000,92.137868,-2.350000,92.014286,-2.226418,89.876418,-4.364286,
89.452154,-4.364286,89.116439,-4.028571,89.540703,-4.028571,89.664286,-4.152154,91.802154,-2.014286,91.678571,-1.890703,89.540703,-4.028571,89.116439,-4.028571,88.780725,-3.692857,89.204989,-3.692857,89.328571,-3.816439,91.466439,-1.678571,91.342857,-1.554989,89.204989,-3.692857,88.780725,-3.692857,88.445011,-3.357143,88.869275,-3.357143,88.992857,-3.480725,91.130725,-1.342857,91.007143,-1.219275,
88.869275,-3.357143,88.445011,-3.357143,88.109297,-3.021429,88.533561,-3.021429,88.657143,-3.145011,90.795011,-1.007143,90.671429,-0.883561,88.533561,-3.021429,88.109297,-3.021429,87.773582,-2.685714,88.197846,-2.685714,88.321429,-2.809297,90.459297,-0.671429,90.335714,-0.547846,88.197846,-2.685714,87.773582,-2.685714,87.562868,-2.475000,86.437132,-2.475000,84.106066,-4.806066,84.038823,-4.844889,
83.961177,-4.844889,83.893934,-4.806066,83.452154,-4.364286,83.876418,-4.364286,84.000000,-4.487868,86.137868,-2.350000,87.862132,-2.350000,87.985714,-2.473582,90.123582,-0.335714,90.000000,-0.212132,87.862132,-2.350000,86.137868,-2.350000,86.014286,-2.226418,83.876418,-4.364286,83.452154,-4.364286,83.116439,-4.028571,83.540703,-4.028571,83.664286,-4.152154,85.802154,-2.014286,85.678571,-1.890703,
83.540703,-4.028571,83.116439,-4.028571,82.780725,-3.692857,83.204989,-3.692857,83.328571,-3.816439,85.466439,-1.678571,85.342857,-1.554989,83.204989,-3.692857,82.780725,-3.692857,82.445011,-3.357143,82.869275,-3.357143,82.992857,-3.480725,85.130725,-1.342857,85.007143,-1.219275,82.869275,-3.357143,82.445011,-3.357143,82.109297,-3.021429,82.533561,-3.021429,82.657143,-3.145011,84.795011,-1.007143,
84.671429,-0.883561,82.533561,-3.021429,82.109297,-3.021429,81.773582,-2.685714,82.197846,-2.685714,82.321429,-2.809297,84.459297,-0.671429,84.335714,-0.547846,82.197846,-2.685714,81.773582,-2.685714,81.562868,-2.475000,80.437132,-2.475000,78.106066,-4.806066,78.038823,-4.844889,77.961177,-4.844889,77.893934,-4.806066,77.452154,-4.364286,77.876418,-4.364286,78.000000,-4.487868,80.137868,-2.350000,
81.862132,-2.350000,81.985714,-2.473582,84.123582,-0.335714,84.000000,-0.212132,81.862132,-2.350000,80.137868,-2.350000,80.014286,-2.226418,77.876418,-4.364286,77.452154,-4.364286,77.116439,-4.028571,77.540703,-4.028571,77.664286,-4.152154,79.802154,-2.014286,79.678571,-1.890703,77.540703,-4.028571,77.116439,-4.028571,76.780725,-3.692857,77.204989,-3.692857,77.328571,-3.816439,79.466439,-1.678571,
79.342857,-1.554989,77.204989,-3.692857,76.780725,-3.692857,76.445011,-3.357143,76.869275,-3.357143,76.992857,-3.480725,79.130725,-1.342857,79.007143,-1.219275,76.869275,-3.357143,76.445011,-3.357143,76.109297,-3.021429,76.533561,-3.021429,76.657143,-3.145011,78.795011,-1.007143,78.671429,-0.883561,76.533561,-3.021429,76.109297,-3.021429,75.773582,-2.685714,76.197846,-2.685714,76.321429,-2.809297,
78.459297,-0.671429,78.335714,-0.547846,76.197846,-2.685714,75.773582,-2.685714,75.562868,-2.475000,74.437132,-2.475000,72.106066,-4.806066,72.038823,-4.844889,71.961177,-4.844889,71.893934,-4.806066,71.452154,-4.364286,71.876418,-4.364286,72.000000,-4.487868,74.137868,-2.350000,75.862132,-2.350000,75.985714,-2.473582,78.123582,-0.335714,78.000000,-0.212132,75.862132,-2.350000,74.137868,-2.350000,
74.014286,-2.226418,71.876418,-4.364286,71.452154,-4.364286,71.116439,-4.028571,71.540703,-4.028571,71.664286,-4.152154,73.802154,-2.014286,73.678571,-1.890703,71.540703,-4.028571,71.116439,-4.028571,70.780725,-3.692857,71.204989,-3.692857,71.328571,-3.816439,73.466439,-1.678571,73.342857,-1.554989,71.204989,-3.692857,70.780725,-3.692857,70.445011,-3.357143,70.869275,-3.357143,70.992857,-3.480725,
73.130725,-1.342857,73.007143,-1.219275,70.869275,-3.357143,70.445011,-3.357143,70.109297,-3.021429,70.533561,-3.021429,70.657143,-3.145011,72.795011,-1.007143,72.671429,-0.883561,70.533561,-3.021429,70.109297,-3.021429,69.773582,-2.685714,70.197846,-2.685714,70.321429,-2.809297,72.459297,-0.671429,72.335714,-0.547846,70.197846,-2.685714,69.773582,-2.685714,69.562868,-2.475000,68.437132,-2.475000,
66.106066,-4.806066,66.038823,-4.844889,65.961177,-4.844889,65.893934,-4.806066,65.452154,-4.364286,65.876418,-4.364286,66.000000,-4.487868,68.137868,-2.350000,69.862132,-2.350000,69.985714,-2.473582,72.123582,-0.335714,72.000000,-0.212132,69.862132,-2.350000,68.137868,-2.350000,68.014286,-2.226418,65.876418,-4.364286,65.452154,-4.364286,65.116439,-4.028571,65.540703,-4.028571,65.664286,-4.152154,
67.802154,-2.014286,67.678571,-1.890703,65.540703,-4.028571,65.116439,-4.028571,64.780725,-3.692857,65.204989,-3.692857,65.328571,-3.816439,67.466439,-1.678571,67.342857,-1.554989,65.204989,-3.692857,64.780725,-3.692857,64.445011,-3.357143,64.869275,-3.357143,64.992857,-3.480725,67.130725,-1.342857,67.007143,-1.219275,64.869275,-3.357143,64.445011,-3.357143,64.109297,-3.021429,64.533561,-3.021429,
64.657143,-3.145011,66.795011,-1.007143,66.671429,-0.883561,64.533561,-3.021429,64.109297,-3.021429,63.773582,-2.685714,64.197846,-2.685714,64.321429,-2.809297,66.459297,-0.671429,66.335714,-0.547846,64.197846,-2.685714,63.773582,-2.685714,63.562868,-2.475000,62.437132,-2.475000,60.106066,-4.806066,60.038823,-4.844889,59.961177,-4.844889,59.893934,-4.806066,59.452154,-4.364286,59.876418,-4.364286,
60.000000,-4.487868,62.137868,-2.350000,63.862132,-2.350000,63.985714,-2.473582,66.123582,-0.335714,66.000000,-0.212132,63.862132,-2.350000,62.137868,-2.350000,62.014286,-2.226418,59.876418,-4.364286,59.452154,-4.364286,59.116439,-4.028571,59.540703,-4.028571,59.664286,-4.152154,61.802154,-2.014286,61.678571,-1.890703,59.540703,-4.028571,59.116439,-4.028571,58.780725,-3.692857,59.204989,-3.692857,
59.328571,-3.816439,61.466439,-1.678571,61.342857,-1.554989,59.204989,-3.692857,58.780725,-3.692857,58.445011,-3.357143,58.869275,-3.357143,58.992857,-3.480725,61.130725,-1.342857,61.007143,-1.219275,58.869275,-3.357143,58.445011,-3.357143,58.109297,-3.021429,58.533561,-3.021429,58.657143,-3.145011,60.795011,-1.007143,60.671429,-0.883561,58.533561,-3.021429,58.109297,-3.021429,57.773582,-2.685714,
58.197846,-2.685714,58.321429,-2.809297,60.459297,-0.671429,60.335714,-0.547846,58.197846,-2.685714,57.773582,-2.685714,57.562868,-2.475000,56.437132,-2.475000,54.106066,-4.806066,54.038823,-4.844889,53.961177,-4.844889,53.893934,-4.806066,53.452154,-4.364286,53.876418,-4.364286,54.000000,-4.487868,56.137868,-2.350000,57.862132,-2.350000,57.985714,-2.473582,60.123582,-0.335714,60.000000,-0.212132,
57.862132,-2.350000,56.137868,-2.350000,56.014286,-2.226418,53.876418,-4.364286,53.452154,-4.364286,53.116439,-4.028571,53.540703,-4.028571,53.664286,-4.152154,55.802154,-2.014286,55.678571,-1.890703,53.540703,-4.028571,53.116439,-4.028571,52.780725,-3.692857,53.204989,-3.692857,53.328571,-3.816439,55.466439,-1.678571,55.342857,-1.554989,53.204989,-3.692857,52.780725,-3.692857,52.445011,-3.357143,
52.869275,-3.357143,52.992857,-3.480725,55.130725,-1.342857,55.007143,-1.219275,52.869275,-3.357143,52.445011,-3.357143,52.109297,-3.021429,52.533561,-3.021429,52.657143,-3.145011,54.795011,-1.007143,54.671429,-0.883561,52.533561,-3.021429,52.109297,-3.021429,51.773582,-2.685714,52.197846,-2.685714,52.321429,-2.809297,54.459297,-0.671429,54.335714,-0.547846,52.197846,-2.685714,51.773582,-2.685714,
51.562868,-2.475000,50.437132,-2.475000,48.106066,-4.806066,48.038823,-4.844889,47.961177,-4.844889,47.893934,-4.806066,47.452154,-4.364286,47.876418,-4.364286,48.000000,-4.487868,50.137868,-2.350000,51.862132,-2.350000,51.985714,-2.473582,54.123582,-0.335714,54.000000,-0.212132,51.862132,-2.350000,50.137868,-2.350000,50.014286,-2.226418,47.876418,-4.364286,47.452154,-4.364286,47.116439,-4.028571,
47.540703,-4.028571,47.664286,-4.152154,49.802154,-2.014286,49.678571,-1.890703,47.540703,-4.028571,47.116439,-4.028571,46.780725,-3.692857,47.204989,-3.692857,47.328571,-3.816439,49.466439,-1.678571,49.342857,-1.554989,47.204989,-3.692857,46.780725,-3.692857,46.445011,-3.357143,46.869275,-3.357143,46.992857,-3.480725,49.130725,-1.342857,49.007143,-1.219275,46.869275,-3.357143,46.445011,-3.357143,
46.109297,-3.021429,46.533561,-3.021429,46.657143,-3.145011,48.795011,-1.007143,48.671429,-0.883561,46.533561,-3.021429,46.109297,-3.021429,45.773582,-2.685714,46.197846,-2.685714,46.321429,-2.809297,48.459297,-0.671429,48.335714,-0.547846,46.197846,-2.685714,45.773582,-2.685714,45.562868,-2.475000,44.437132,-2.475000,42.106066,-4.806066,42.038823,-4.844889,41.961177,-4.844889,41.893934,-4.806066,
41.452154,-4.364286,41.876418,-4.364286,42.000000,-4.487868,44.137868,-2.350000,45.862132,-2.350000,45.985714,-2.473582,48.123582,-0.335714,48.000000,-0.212132,45.862132,-2.350000,44.137868,-2.350000,44.014286,-2.226418,41.876418,-4.364286,41.452154,-4.364286,41.116439,-4.028571,41.540703,-4.028571,41.664286,-4.152154,43.802154,-2.014286,43.678571,-1.890703,41.540703,-4.028571,41.116439,-4.028571,
40.780725,-3.692857,41.204989,-3.692857,41.328571,-3.816439,43.466439,-1.678571,43.342857,-1.554989,41.204989,-3.692857,40.780725,-3.692857,40.445011,-3.357143,40.869275,-3.357143,40.992857,-3.480725,43.130725,-1.342857,43.007143,-1.219275,40.869275,-3.357143,40.445011,-3.357143,40.109297,-3.021429,40.533561,-3.021429,40.657143,-3.145011,42.795011,-1.007143,42.671429,-0.883561,40.533561,-3.021429,
40.109297,-3.021429,39.773582,-2.685714,40.197846,-2.685714,40.321429,-2.809297,42.459297,-0.671429,42.335714,-0.547846,40.197846,-2.685714,39.773582,-2.685714,39.562868,-2.475000,38.437132,-2.475000,36.106066,-4.806066,36.038823,-4.844889,35.961177,-4.844889,35.893934,-4.806066,35.452154,-4.364286,35.876418,-4.364286,36.000000,-4.487868,38.137868,-2.350000,39.862132,-2.350000,39.985714,-2.473582,
42.123582,-0.335714,42.000000,-0.212132,39.862132,-2.350000,38.137868,-2.350000,38.014286,-2.226418,35.876418,-4.364286,35.452154,-4.364286,35.116439,-4.028571,35.540703,-4.028571,35.664286,-4.152154,37.802154,-2.014286,37.678571,-1.890703,35.540703,-4.028571,35.116439,-4.028571,34.780725,-3.692857,35.204989,-3.692857,35.328571,-3.816439,37.466439,-1.678571,37.342857,-1.554989,35.204989,-3.692857,
34.780725,-3.692857,34.445011,-3.357143,34.869275,-3.357143,34.992857,-3.480725,37.130725,-1.342857,37.007143,-1.219275,34.869275,-3.357143,34.445011,-3.357143,34.109297,-3.021429,34.533561,-3.021429,34.657143,-3.145011,36.795011,-1.007143,36.671429,-0.883561,34.533561,-3.021429,34.109297,-3.021429,33.773582,-2.685714,34.197846,-2.685714,34.321429,-2.809297,36.459297,-0.671429,36.335714,-0.547846,
34.197846,-2.685714,33.773582,-2.685714,33.562868,-2.475000,32.437132,-2.475000,30.106066,-4.806066,30.038823,-4.844889,29.961177,-4.844889,29.893934,-4.806066,29.452154,-4.364286,29.876418,-4.364286,30.000000,-4.487868,32.137868,-2.350000,33.862132,-2.350000,33.985714,-2.473582,36.123582,-0.335714,36.000000,-0.212132,33.862132,-2.350000,32.137868,-2.350000,32.014286,-2.226418,29.876418,-4.364286,
29.452154,-4.364286,29.116439,-4.028571,29.540703,-4.028571,29.664286,-4.152154,31.802154,-2.014286,31.678571,-1.890703,29.540703,-4.028571,29.116439,-4.028571,28.780725,-3.692857,29.204989,-3.692857,29.328571,-3.816439,31.466439,-1.678571,31.342857,-1.554989,29.204989,-3.692857,28.780725,-3.692857,28.445011,-3.357143,28.869275,-3.357143,28.992857,-3.480725,31.130725,-1.342857,31.007143,-1.219275,
28.869275,-3.357143,28.445011,-3.357143,28.109297,-3.021429,28.533561,-3.021429,28.657143,-3.145011,30.795011,-1.007143,30.671429,-0.883561,28.533561,-3.021429,28.109297,-3.021429,27.773582,-2.685714,28.197846,-2.685714,28.321429,-2.809297,30.459297,-0.671429,30.335714,-0.547846,28.197846,-2.685714,27.773582,-2.685714,27.562868,-2.475000,26.437132,-2.475000,24.106066,-4.806066,24.038823,-4.844889,
23.961177,-4.844889,23.893934,-4.806066,23.452154,-4.364286,23.876418,-4.364286,24.000000,-4.487868,26.137868,-2.350000,27.862132,-2.350000,27.985714,-2.473582,30.123582,-0.335714,30.000000,-0.212132,27.862132,-2.350000,26.137868,-2.350000,26.014286,-2.226418,23.876418,-4.364286,23.452154,-4.364286,23.116439,-4.028571,23.540703,-4.028571,23.664286,-4.152154,25.802154,-2.014286,25.678571,-1.890703,
23.540703,-4.028571,23.116439,-4.028571,22.780725,-3.692857,23.204989,-3.692857,23.328571,-3.816439,25.466439,-1.678571,25.342857,-1.554989,23.204989,-3.692857,22.780725,-3.692857,22.445011,-3.357143,22.869275,-3.357143,22.992857,-3.480725,25.130725,-1.342857,25.007143,-1.219275,22.869275,-3.357143,22.445011,-3.357143,22.109297,-3.021429,22.533561,-3.021429,22.657143,-3.145011,24.795011,-1.007143,
24.671429,-0.883561,22.533561,-3.021429,22.109297,-3.021429,21.773582,-2.685714,22.197846,-2.685714,22.321429,-2.809297,24.459297,-0.671429,24.335714,-0.547846,22.197846,-2.685714,21.773582,-2.685714,21.562868,-2.475000,20.437132,-2.475000,18.106066,-4.806066,18.038823,-4.844889,17.961177,-4.844889,17.893934,-4.806066,17.452154,-4.364286,17.876418,-4.364286,18.000000,-4.487868,20.137868,-2.350000,
21.862132,-2.350000,21.985714,-2.473582,24.123582,-0.335714,24.000000,-0.212132,21.862132,-2.350000,20.137868,-2.350000,20.014286,-2.226418,17.876418,-4.364286,17.452154,-4.364286,17.116439,-4.028571,17.540703,-4.028571,17.664286,-4.152154,19.802154,-2.014286,19.678571,-1.890703,17.540703,-4.028571,17.116439,-4.028571,16.780725,-3.692857,17.204989,-3.692857,17.328571,-3.816439,19.466439,-1.678571,
19.342857,-1.554989,17.204989,-3.692857,16.780725,-3.692857,16.445011,-3.357143,16.869275,-3.357143,16.992857,-3.480725,19.130725,-1.342857,19.007143,-1.219275,16.869275,-3.357143,16.445011,-3.357143,16.109297,-3.021429,16.533561,-3.021429,16.657143,-3.145011,18.795011,-1.007143,18.671429,-0.883561,16.533561,-3.021429,16.109297,-3.021429,15.773582,-2.685714,16.197846,-2.685714,16.321429,-2.809297,
18.459297,-0.671429,18.335714,-0.547846,16.197846,-2.685714,15.773582,-2.685714,15.562868,-2.475000,14.437132,-2.475000,12.106066,-4.806066,12.038823,-4.844889,11.961177,-4.844889,11.893934,-4.806066,11.452154,-4.364286,11.876418,-4.364286,12.000000,-4.487868,14.137868,-2.350000,15.862132,-2.350000,15.985714,-2.473582,18.123582,-0.335714,18.000000,-0.212132,15.862132,-2.350000,14.137868,-2.350000,
14.014286,-2.226418,11.876418,-4.364286,11.452154,-4.364286,11.116439,-4.028571,11.540703,-4.028571,11.664286,-4.152154,13.802154,-2.014286,13.678571,-1.890703,11.540703,-4.028571,11.116439,-4.028571,10.780725,-3.692857,11.204989,-3.692857,11.328571,-3.816439,13.466439,-1.678571,13.342857,-1.554989,11.204989,-3.692857,10.780725,-3.692857,10.445011,-3.357143,10.869275,-3.357143,10.992857,-3.480725,
13.130725,-1.342857,13.007143,-1.219275,10.869275,-3.357143,10.445011,-3.357143,10.109297,-3.021429,10.533561,-3.021429,10.657143,-3.145011,12.795011,-1.007143,12.671429,-0.883561,10.533561,-3.021429,10.109297,-3.021429,9.773582,-2.685714,10.197846,-2.685714,10.321429,-2.809297,12.459297,-0.671429,12.335714,-0.547846,10.197846,-2.685714,9.773582,-2.685714,9.562868,-2.475000,8.437132,-2.475000,
6.106066,-4.806066,6.038823,-4.844889,5.961177,-4.844889,5.893934,-4.806066,5.452154,-4.364286,5.876418,-4.364286,6.000000,-4.487868,8.137868,-2.350000,9.862132,-2.350000,9.985714,-2.473582,12.123582,-0.335714,12.000000,-0.212132,9.862132,-2.350000,8.137868,-2.350000,8.014286,-2.226418,5.876418,-4.364286,5.452154,-4.364286,5.116439,-4.028571,5.540703,-4.028571,5.664286,-4.152154,
7.802154,-2.014286,7.678571,-1.890703,5.540703,-4.028571,5.116439,-4.028571,4.780725,-3.692857,5.204989,-3.692857,5.328571,-3.816439,7.466439,-1.678571,7.342857,-1.554989,5.204989,-3.692857,4.780725,-3.692857,4.445011,-3.357143,4.869275,-3.357143,4.992857,-3.480725,7.130725,-1.342857,7.007143,-1.219275,4.869275,-3.357143,4.445011,-3.357143,4.109297,-3.021429,4.533561,-3.021429,
4.657143,-3.145011,6.795011,-1.007143,6.671429,-0.883561,4.533561,-3.021429,4.109297,-3.021429,3.773582,-2.685714,4.197846,-2.685714,4.321429,-2.809297,6.459297,-0.671429,6.335714,-0.547846,4.197846,-2.685714,3.773582,-2.685714,3.562868,-2.475000,2.437132,-2.475000,0.106066,-4.806066,0.088964,-4.815940,0.075000,-4.829904,0.055925,-4.835015,0.038823,-4.844889,0.019075,-4.844889,
0.000000,-4.850000,-0.019075,-4.844889,-0.038823,-4.844889,-0.055925,-4.835015,-0.075000,-4.829904,-0.088964,-4.815940,-0.106066,-4.806066,-0.115940,-4.788964,-0.129904,-4.775000,-0.135015,-4.755925,-0.144889,-4.738823,-0.144889,-4.719075,-0.150000,-4.700000,-0.150000,-4.337868,0.150000,-4.337868,2.137868,-2.350000,3.862132,-2.350000,3.985714,-2.473582,6.123582,-0.335714,6.000000,-0.212132,
3.862132,-2.350000,2.137868,-2.350000,2.014286,-2.226418,0.150000,-4.090703,0.150000,-4.337868,-0.150000,-4.337868,-0.150000,-3.666439,0.150000,-3.666439,1.802154,-2.014286,1.678571,-1.890703,0.150000,-3.419275,0.150000,-3.666439,-0.150000,-3.666439,-0.150000,-2.995011,0.150000,-2.995011,1.466439,-1.678571,1.342857,-1.554989,0.150000,-2.747846,0.150000,-2.995011,-0.150000,-2.995011,
-0.150000,-2.323582,0.150000,-2.323582,1.130725,-1.342857,1.007143,-1.219275,0.150000,-2.076418,0.150000,-2.323582,-0.150000,-2.323582,-0.150000,-1.652154,0.150000,-1.652154,0.795011,-1.007143,0.671429,-0.883561,0.150000,-1.404989,0.150000,-1.652154,-0.150000,-1.652154,-0.150000,-0.980725,0.150000,-0.980725,0.459297,-0.671429,0.335714,-0.547846,0.150000,-0.733561,0.150000,-0.980725,
-0.150000,-0.980725,-0.150000,0.000000,-0.144889,0.019075,-0.144889,0.038823,-0.135015,0.055925,-0.129904,0.075000,-0.115940,0.088964,-0.106066,0.106066,-0.088964,0.115940,-0.075000,0.129904,-0.055925,0.135015,-0.038823,0.144889,-0.019075,0.144889,0.000000,0.150000,0.019075,0.144889,0.038823,0.144889,0.055925,0.135015,0.075000,0.129904,0.088964,0.115940,0.106066,0.106066,
2.437132,-2.225000,3.562868,-2.225000,5.893934,0.106066,5.961177,0.144889,6.038823,0.144889,6.106066,0.106066,8.437132,-2.225000,9.562868,-2.225000,11.893934,0.106066,11.961177,0.144889,12.038823,0.144889,12.106066,0.106066,14.437132,-2.225000,15.562868,-2.225000,17.893934,0.106066,17.961177,0.144889,18.038823,0.144889,18.106066,0.106066,20.437132,-2.225000,21.562868,-2.225000,
23.893934,0.106066,23.961177,0.144889,24.038823,0.144889,24.106066,0.106066,26.437132,-2.225000,27.562868,-2.225000,29.893934,0.106066,29.961177,0.144889,30.038823,0.144889,30.106066,0.106066,32.437132,-2.225000,33.562868,-2.225000,35.893934,0.106066,35.961177,0.144889,36.038823,0.144889,36.106066,0.106066,38.437132,-2.225000,39.562868,-2.225000,41.893934,0.106066,41.961177,0.144889,
42.038823,0.144889,42.106066,0.106066,44.437132,-2.225000,45.562868,-2.225000,47.893934,0.106066,47.961177,0.144889,48.038823,0.144889,48.106066,0.106066,50.437132,-2.225000,51.562868,-2.225000,53.893934,0.106066,53.961177,0.144889,54.038823,0.144889,54.106066,0.106066,56.437132,-2.225000,57.562868,-2.225000,59.893934,0.106066,59.961177,0.144889,60.038823,0.144889,60.106066,0.106066,
62.437132,-2.225000,63.562868,-2.225000,65.893934,0.106066,65.961177,0.144889,66.038823,0.144889,66.106066,0.106066,68.437132,-2.225000,69.562868,-2.225000,71.893934,0.106066,71.961177,0.144889,72.038823,0.144889,72.106066,0.106066,74.437132,-2.225000,75.562868,-2.225000,77.893934,0.106066,77.961177,0.144889,78.038823,0.144889,78.106066,0.106066,80.437132,-2.225000,81.562868,-2.225000,
83.893934,0.106066,83.961177,0.144889,84.038823,0.144889,84.106066,0.106066,86.437132,-2.225000,87.562868,-2.225000,89.893934,0.106066,89.961177,0.144889,90.038823,0.144889,90.106066,0.106066,92.437132,-2.225000,93.562868,-2.225000,95.893934,0.106066,95.961177,0.144889,96.038823,0.144889,96.106066,0.106066,98.437132,-2.225000,99.562868,-2.225000,101.893934,0.106066,101.961177,0.144889,
102.038823,0.144889,102.106066,0.106066,104.437132,-2.225000,105.562868,-2.225000,107.893934,0.106066,107.961177,0.144889,108.038823,0.144889,108.106066,0.106066,110.437132,-2.225000,111.562868,-2.225000,113.893934,0.106066,113.961177,0.144889,114.038823,0.144889,114.106066,0.106066,116.437132,-2.225000,117.562868,-2.225000,119.893934,0.106066,119.961177,0.144889,120.038823,0.144889,120.106066,0.106066,
122.437132,-2.225000,123.562868,-2.225000,125.893934,0.106066,125.961177,0.144889,126.038823,0.144889,126.106066,0.106066,128.437132,-2.225000,129.562868,-2.225000,131.893934,0.106066,131.961177,0.144889,132.038823,0.144889,132.106066,0.106066,134.437132,-2.225000,135.562868,-2.225000,137.893934,0.106066,137.961177,0.144889,138.038823,0.144889,138.106066,0.106066,140.437132,-2.225000,141.562868,-2.225000,
143.893934,0.106066,143.961177,0.144889,144.038823,0.144889,144.106066,0.106066,146.437132,-2.225000,147.562868,-2.225000,149.893934,0.106066,149.961177,0.144889,150.038823,0.144889,150.106066,0.106066,152.437132,-2.225000,153.562868,-2.225000,155.893934,0.106066,155.961177,0.144889,156.038823,0.144889,156.106066,0.106066,158.437132,-2.225000,159.562868,-2.225000,161.893934,0.106066,161.961177,0.144889,
162.038823,0.144889,162.106066,0.106066,164.437132,-2.225000,165.562868,-2.225000,167.893934,0.106066,167.961177,0.144889,168.038823,0.144889,168.106066,0.106066,170.437132,-2.225000,171.562868,-2.225000,173.893934,0.106066,173.961177,0.144889,174.038823,0.144889,174.106066,0.106066,176.437132,-2.225000,177.562868,-2.225000,179.893934,0.106066,179.911036,0.115940,179.925000,0.129904,179.944075,0.135015,
179.961177,0.144889,179.980925,0.144889,180.000000,0.150000,180.019075,0.144889,180.019075,0.144889,$1*%
%AMFreePoly1*
4,1,85,3.756066,-45.543934,6.106066,-47.893934,6.115940,-47.911036,6.129904,-47.925000,6.135015,-47.944075,6.144889,-47.961177,6.144889,-47.980925,6.150000,-48.000000,6.144889,-48.019075,6.144889,-48.038823,6.135015,-48.055925,6.129904,-48.075000,6.115940,-48.088964,6.106066,-48.106066,6.088964,-48.115940,6.075000,-48.129904,6.055925,-48.135015,6.038823,-48.144889,6.019075,-48.144889,6.000000,-48.150000,
1.300000,-48.150000,1.280925,-48.144889,1.261177,-48.144889,1.244075,-48.135015,1.225000,-48.129904,1.211036,-48.115940,1.193934,-48.106066,1.184060,-48.088964,1.170096,-48.075000,1.164985,-48.055925,1.155111,-48.038823,1.155111,-48.019075,1.150000,-48.000000,1.155111,-47.980925,1.155111,-47.961177,1.164985,-47.944075,1.170096,-47.925000,1.184060,-47.911036,1.193934,-47.893934,1.423582,-47.664286,
1.847846,-47.664286,2.033561,-47.850000,2.280725,-47.850000,1.971429,-47.540703,1.847846,-47.664286,1.423582,-47.664286,1.759297,-47.328571,2.183561,-47.328571,2.704989,-47.850000,2.952154,-47.850000,2.307143,-47.204989,2.183561,-47.328571,1.759297,-47.328571,2.095011,-46.992857,2.519275,-46.992857,3.376418,-47.850000,3.623582,-47.850000,2.642857,-46.869275,2.519275,-46.992857,2.095011,-46.992857,
2.430725,-46.657143,2.854989,-46.657143,4.047846,-47.850000,4.295011,-47.850000,2.978571,-46.533561,2.854989,-46.657143,2.430725,-46.657143,2.766439,-46.321429,3.190703,-46.321429,4.719275,-47.850000,4.966439,-47.850000,3.314286,-46.197846,3.190703,-46.321429,2.766439,-46.321429,3.102154,-45.985714,3.526418,-45.985714,5.390703,-47.850000,5.637868,-47.850000,3.650000,-45.862132,3.526418,-45.985714,
3.102154,-45.985714,3.543934,-45.543934,3.611177,-45.505111,3.688823,-45.505111,3.756066,-45.543934,3.756066,-45.543934,$1*%
%AMFreePoly2*
4,1,85,-2.243934,-45.543934,0.106066,-47.893934,0.115940,-47.911036,0.129904,-47.925000,0.135015,-47.944075,0.144889,-47.961177,0.144889,-47.980925,0.150000,-48.000000,0.144889,-48.019075,0.144889,-48.038823,0.135015,-48.055925,0.129904,-48.075000,0.115940,-48.088964,0.106066,-48.106066,0.088964,-48.115940,0.075000,-48.129904,0.055925,-48.135015,0.038823,-48.144889,0.019075,-48.144889,0.000000,-48.150000,
-4.700000,-48.150000,-4.719075,-48.144889,-4.738823,-48.144889,-4.755925,-48.135015,-4.775000,-48.129904,-4.788964,-48.115940,-4.806066,-48.106066,-4.815940,-48.088964,-4.829904,-48.075000,-4.835015,-48.055925,-4.844889,-48.038823,-4.844889,-48.019075,-4.850000,-48.000000,-4.844889,-47.980925,-4.844889,-47.961177,-4.835015,-47.944075,-4.829904,-47.925000,-4.815940,-47.911036,-4.806066,-47.893934,-4.576418,-47.664286,
-4.152154,-47.664286,-3.966439,-47.850000,-3.719275,-47.850000,-4.028571,-47.540703,-4.152154,-47.664286,-4.576418,-47.664286,-4.240703,-47.328571,-3.816439,-47.328571,-3.295011,-47.850000,-3.047846,-47.850000,-3.692857,-47.204989,-3.816439,-47.328571,-4.240703,-47.328571,-3.904989,-46.992857,-3.480725,-46.992857,-2.623582,-47.850000,-2.376418,-47.850000,-3.357143,-46.869275,-3.480725,-46.992857,-3.904989,-46.992857,
-3.569275,-46.657143,-3.145011,-46.657143,-1.952154,-47.850000,-1.704989,-47.850000,-3.021429,-46.533561,-3.145011,-46.657143,-3.569275,-46.657143,-3.233561,-46.321429,-2.809297,-46.321429,-1.280725,-47.850000,-1.033561,-47.850000,-2.685714,-46.197846,-2.809297,-46.321429,-3.233561,-46.321429,-2.897846,-45.985714,-2.473582,-45.985714,-0.609297,-47.850000,-0.362132,-47.850000,-2.350000,-45.862132,-2.473582,-45.985714,
-2.897846,-45.985714,-2.456066,-45.543934,-2.388823,-45.505111,-2.311177,-45.505111,-2.243934,-45.543934,-2.243934,-45.543934,$1*%
%AMFreePoly3*
4,1,66,3.756066,-39.543934,6.106066,-41.893934,6.144889,-41.961177,6.144889,-42.038823,6.106066,-42.106066,3.756066,-44.456066,3.688823,-44.494889,3.611177,-44.494889,3.543934,-44.456066,1.193934,-42.106066,1.155111,-42.038823,1.155111,-42.000000,1.512132,-42.000000,3.650000,-44.137868,3.773582,-44.014286,1.635714,-41.876418,1.512132,-42.000000,1.155111,-42.000000,1.155111,-41.961177,1.193934,-41.893934,
1.423582,-41.664286,1.847846,-41.664286,3.985714,-43.802154,4.109297,-43.678571,1.971429,-41.540703,1.847846,-41.664286,1.423582,-41.664286,1.759297,-41.328571,2.183561,-41.328571,4.321429,-43.466439,4.445011,-43.342857,2.307143,-41.204989,2.183561,-41.328571,1.759297,-41.328571,2.095011,-40.992857,2.519275,-40.992857,4.657143,-43.130725,4.780725,-43.007143,2.642857,-40.869275,2.519275,-40.992857,
2.095011,-40.992857,2.430725,-40.657143,2.854989,-40.657143,4.992857,-42.795011,5.116439,-42.671429,2.978571,-40.533561,2.854989,-40.657143,2.430725,-40.657143,2.766439,-40.321429,3.190703,-40.321429,5.328571,-42.459297,5.452154,-42.335714,3.314286,-40.197846,3.190703,-40.321429,2.766439,-40.321429,3.102154,-39.985714,3.526418,-39.985714,5.664286,-42.123582,5.787868,-42.000000,3.650000,-39.862132,
3.526418,-39.985714,3.102154,-39.985714,3.543934,-39.543934,3.611177,-39.505111,3.688823,-39.505111,3.756066,-39.543934,3.756066,-39.543934,$1*%
%AMFreePoly4*
4,1,66,-2.243934,-39.543934,0.106066,-41.893934,0.144889,-41.961177,0.144889,-42.038823,0.106066,-42.106066,-2.243934,-44.456066,-2.311177,-44.494889,-2.388823,-44.494889,-2.456066,-44.456066,-4.806066,-42.106066,-4.844889,-42.038823,-4.844889,-42.000000,-4.487868,-42.000000,-2.350000,-44.137868,-2.226418,-44.014286,-4.364286,-41.876418,-4.487868,-42.000000,-4.844889,-42.000000,-4.844889,-41.961177,-4.806066,-41.893934,
-4.576418,-41.664286,-4.152154,-41.664286,-2.014286,-43.802154,-1.890703,-43.678571,-4.028571,-41.540703,-4.152154,-41.664286,-4.576418,-41.664286,-4.240703,-41.328571,-3.816439,-41.328571,-1.678571,-43.466439,-1.554989,-43.342857,-3.692857,-41.204989,-3.816439,-41.328571,-4.240703,-41.328571,-3.904989,-40.992857,-3.480725,-40.992857,-1.342857,-43.130725,-1.219275,-43.007143,-3.357143,-40.869275,-3.480725,-40.992857,
-3.904989,-40.992857,-3.569275,-40.657143,-3.145011,-40.657143,-1.007143,-42.795011,-0.883561,-42.671429,-3.021429,-40.533561,-3.145011,-40.657143,-3.569275,-40.657143,-3.233561,-40.321429,-2.809297,-40.321429,-0.671429,-42.459297,-0.547846,-42.335714,-2.685714,-40.197846,-2.809297,-40.321429,-3.233561,-40.321429,-2.897846,-39.985714,-2.473582,-39.985714,-0.335714,-42.123582,-0.212132,-42.000000,-2.350000,-39.862132,
-2.473582,-39.985714,-2.897846,-39.985714,-2.456066,-39.543934,-2.388823,-39.505111,-2.311177,-39.505111,-2.243934,-39.543934,-2.243934,-39.543934,$1*%
%AMFreePoly5*
4,1,66,3.756066,-33.543934,6.106066,-35.893934,6.144889,-35.961177,6.144889,-36.038823,6.106066,-36.106066,3.756066,-38.456066,3.688823,-38.494889,3.611177,-38.494889,3.543934,-38.456066,1.193934,-36.106066,1.155111,-36.038823,1.155111,-36.000000,1.512132,-36.000000,3.650000,-38.137868,3.773582,-38.014286,1.635714,-35.876418,1.512132,-36.000000,1.155111,-36.000000,1.155111,-35.961177,1.193934,-35.893934,
1.423582,-35.664286,1.847846,-35.664286,3.985714,-37.802154,4.109297,-37.678571,1.971429,-35.540703,1.847846,-35.664286,1.423582,-35.664286,1.759297,-35.328571,2.183561,-35.328571,4.321429,-37.466439,4.445011,-37.342857,2.307143,-35.204989,2.183561,-35.328571,1.759297,-35.328571,2.095011,-34.992857,2.519275,-34.992857,4.657143,-37.130725,4.780725,-37.007143,2.642857,-34.869275,2.519275,-34.992857,
2.095011,-34.992857,2.430725,-34.657143,2.854989,-34.657143,4.992857,-36.795011,5.116439,-36.671429,2.978571,-34.533561,2.854989,-34.657143,2.430725,-34.657143,2.766439,-34.321429,3.190703,-34.321429,5.328571,-36.459297,5.452154,-36.335714,3.314286,-34.197846,3.190703,-34.321429,2.766439,-34.321429,3.102154,-33.985714,3.526418,-33.985714,5.664286,-36.123582,5.787868,-36.000000,3.650000,-33.862132,
3.526418,-33.985714,3.102154,-33.985714,3.543934,-33.543934,3.611177,-33.505111,3.688823,-33.505111,3.756066,-33.543934,3.756066,-33.543934,$1*%
%AMFreePoly6*
4,1,66,-2.243934,-33.543934,0.106066,-35.893934,0.144889,-35.961177,0.144889,-36.038823,0.106066,-36.106066,-2.243934,-38.456066,-2.311177,-38.494889,-2.388823,-38.494889,-2.456066,-38.456066,-4.806066,-36.106066,-4.844889,-36.038823,-4.844889,-36.000000,-4.487868,-36.000000,-2.350000,-38.137868,-2.226418,-38.014286,-4.364286,-35.876418,-4.487868,-36.000000,-4.844889,-36.000000,-4.844889,-35.961177,-4.806066,-35.893934,
-4.576418,-35.664286,-4.152154,-35.664286,-2.014286,-37.802154,-1.890703,-37.678571,-4.028571,-35.540703,-4.152154,-35.664286,-4.576418,-35.664286,-4.240703,-35.328571,-3.816439,-35.328571,-1.678571,-37.466439,-1.554989,-37.342857,-3.692857,-35.204989,-3.816439,-35.328571,-4.240703,-35.328571,-3.904989,-34.992857,-3.480725,-34.992857,-1.342857,-37.130725,-1.219275,-37.007143,-3.357143,-34.869275,-3.480725,-34.992857,
-3.904989,-34.992857,-3.569275,-34.657143,-3.145011,-34.657143,-1.007143,-36.795011,-0.883561,-36.671429,-3.021429,-34.533561,-3.145011,-34.657143,-3.569275,-34.657143,-3.233561,-34.321429,-2.809297,-34.321429,-0.671429,-36.459297,-0.547846,-36.335714,-2.685714,-34.197846,-2.809297,-34.321429,-3.233561,-34.321429,-2.897846,-33.985714,-2.473582,-33.985714,-0.335714,-36.123582,-0.212132,-36.000000,-2.350000,-33.862132,
-2.473582,-33.985714,-2.897846,-33.985714,-2.456066,-33.543934,-2.388823,-33.505111,-2.311177,-33.505111,-2.243934,-33.543934,-2.243934,-33.543934,$1*%
%AMFreePoly7*
4,1,66,-2.243934,-27.543934,0.106066,-29.893934,0.144889,-29.961177,0.144889,-30.038823,0.106066,-30.106066,-2.243934,-32.456066,-2.311177,-32.494889,-2.388823,-32.494889,-2.456066,-32.456066,-4.806066,-30.106066,-4.844889,-30.038823,-4.844889,-30.000000,-4.487868,-30.000000,-2.350000,-32.137868,-2.226418,-32.014286,-4.364286,-29.876418,-4.487868,-30.000000,-4.844889,-30.000000,-4.844889,-29.961177,-4.806066,-29.893934,
-4.576418,-29.664286,-4.152154,-29.664286,-2.014286,-31.802154,-1.890703,-31.678571,-4.028571,-29.540703,-4.152154,-29.664286,-4.576418,-29.664286,-4.240703,-29.328571,-3.816439,-29.328571,-1.678571,-31.466439,-1.554989,-31.342857,-3.692857,-29.204989,-3.816439,-29.328571,-4.240703,-29.328571,-3.904989,-28.992857,-3.480725,-28.992857,-1.342857,-31.130725,-1.219275,-31.007143,-3.357143,-28.869275,-3.480725,-28.992857,
-3.904989,-28.992857,-3.569275,-28.657143,-3.145011,-28.657143,-1.007143,-30.795011,-0.883561,-30.671429,-3.021429,-28.533561,-3.145011,-28.657143,-3.569275,-28.657143,-3.233561,-28.321429,-2.809297,-28.321429,-0.671429,-30.459297,-0.547846,-30.335714,-2.685714,-28.197846,-2.809297,-28.321429,-3.233561,-28.321429,-2.897846,-27.985714,-2.473582,-27.985714,-0.335714,-30.123582,-0.212132,-30.000000,-2.350000,-27.862132,
-2.473582,-27.985714,-2.897846,-27.985714,-2.456066,-27.543934,-2.388823,-27.505111,-2.311177,-27.505111,-2.243934,-27.543934,-2.243934,-27.543934,$1*%
%AMFreePoly8*
4,1,66,3.756066,-27.543934,6.106066,-29.893934,6.144889,-29.961177,6.144889,-30.038823,6.106066,-30.106066,3.756066,-32.456066,3.688823,-32.494889,3.611177,-32.494889,3.543934,-32.456066,1.193934,-30.106066,1.155111,-30.038823,1.155111,-30.000000,1.512132,-30.000000,3.650000,-32.137868,3.773582,-32.014286,1.635714,-29.876418,1.512132,-30.000000,1.155111,-30.000000,1.155111,-29.961177,1.193934,-29.893934,
1.423582,-29.664286,1.847846,-29.664286,3.985714,-31.802154,4.109297,-31.678571,1.971429,-29.540703,1.847846,-29.664286,1.423582,-29.664286,1.759297,-29.328571,2.183561,-29.328571,4.321429,-31.466439,4.445011,-31.342857,2.307143,-29.204989,2.183561,-29.328571,1.759297,-29.328571,2.095011,-28.992857,2.519275,-28.992857,4.657143,-31.130725,4.780725,-31.007143,2.642857,-28.869275,2.519275,-28.992857,
2.095011,-28.992857,2.430725,-28.657143,2.854989,-28.657143,4.992857,-30.795011,5.116439,-30.671429,2.978571,-28.533561,2.854989,-28.657143,2.430725,-28.657143,2.766439,-28.321429,3.190703,-28.321429,5.328571,-30.459297,5.452154,-30.335714,3.314286,-28.197846,3.190703,-28.321429,2.766439,-28.321429,3.102154,-27.985714,3.526418,-27.985714,5.664286,-30.123582,5.787868,-30.000000,3.650000,-27.862132,
3.526418,-27.985714,3.102154,-27.985714,3.543934,-27.543934,3.611177,-27.505111,3.688823,-27.505111,3.756066,-27.543934,3.756066,-27.543934,$1*%
%AMFreePoly9*
4,1,66,3.756066,-21.543934,6.106066,-23.893934,6.144889,-23.961177,6.144889,-24.038823,6.106066,-24.106066,3.756066,-26.456066,3.688823,-26.494889,3.611177,-26.494889,3.543934,-26.456066,1.193934,-24.106066,1.155111,-24.038823,1.155111,-24.000000,1.512132,-24.000000,3.650000,-26.137868,3.773582,-26.014286,1.635714,-23.876418,1.512132,-24.000000,1.155111,-24.000000,1.155111,-23.961177,1.193934,-23.893934,
1.423582,-23.664286,1.847846,-23.664286,3.985714,-25.802154,4.109297,-25.678571,1.971429,-23.540703,1.847846,-23.664286,1.423582,-23.664286,1.759297,-23.328571,2.183561,-23.328571,4.321429,-25.466439,4.445011,-25.342857,2.307143,-23.204989,2.183561,-23.328571,1.759297,-23.328571,2.095011,-22.992857,2.519275,-22.992857,4.657143,-25.130725,4.780725,-25.007143,2.642857,-22.869275,2.519275,-22.992857,
2.095011,-22.992857,2.430725,-22.657143,2.854989,-22.657143,4.992857,-24.795011,5.116439,-24.671429,2.978571,-22.533561,2.854989,-22.657143,2.430725,-22.657143,2.766439,-22.321429,3.190703,-22.321429,5.328571,-24.459297,5.452154,-24.335714,3.314286,-22.197846,3.190703,-22.321429,2.766439,-22.321429,3.102154,-21.985714,3.526418,-21.985714,5.664286,-24.123582,5.787868,-24.000000,3.650000,-21.862132,
3.526418,-21.985714,3.102154,-21.985714,3.543934,-21.543934,3.611177,-21.505111,3.688823,-21.505111,3.756066,-21.543934,3.756066,-21.543934,$1*%
%AMFreePoly10*
4,1,66,-2.243934,-21.543934,0.106066,-23.893934,0.144889,-23.961177,0.144889,-24.038823,0.106066,-24.106066,-2.243934,-26.456066,-2.311177,-26.494889,-2.388823,-26.494889,-2.456066,-26.456066,-4.806066,-24.106066,-4.844889,-24.038823,-4.844889,-24.000000,-4.487868,-24.000000,-2.350000,-26.137868,-2.226418,-26.014286,-4.364286,-23.876418,-4.487868,-24.000000,-4.844889,-24.000000,-4.844889,-23.961177,-4.806066,-23.893934,
-4.576418,-23.664286,-4.152154,-23.664286,-2.014286,-25.802154,-1.890703,-25.678571,-4.028571,-23.540703,-4.152154,-23.664286,-4.576418,-23.664286,-4.240703,-23.328571,-3.816439,-23.328571,-1.678571,-25.466439,-1.554989,-25.342857,-3.692857,-23.204989,-3.816439,-23.328571,-4.240703,-23.328571,-3.904989,-22.992857,-3.480725,-22.992857,-1.342857,-25.130725,-1.219275,-25.007143,-3.357143,-22.869275,-3.480725,-22.992857,
-3.904989,-22.992857,-3.569275,-22.657143,-3.145011,-22.657143,-1.007143,-24.795011,-0.883561,-24.671429,-3.021429,-22.533561,-3.145011,-22.657143,-3.569275,-22.657143,-3.233561,-22.321429,-2.809297,-22.321429,-0.671429,-24.459297,-0.547846,-24.335714,-2.685714,-22.197846,-2.809297,-22.321429,-3.233561,-22.321429,-2.897846,-21.985714,-2.473582,-21.985714,-0.335714,-24.123582,-0.212132,-24.000000,-2.350000,-21.862132,
-2.473582,-21.985714,-2.897846,-21.985714,-2.456066,-21.543934,-2.388823,-21.505111,-2.311177,-21.505111,-2.243934,-21.543934,-2.243934,-21.543934,$1*%
%AMFreePoly11*
4,1,66,-2.243934,-15.543934,0.106066,-17.893934,0.144889,-17.961177,0.144889,-18.038823,0.106066,-18.106066,-2.243934,-20.456066,-2.311177,-20.494889,-2.388823,-20.494889,-2.456066,-20.456066,-4.806066,-18.106066,-4.844889,-18.038823,-4.844889,-18.000000,-4.487868,-18.000000,-2.350000,-20.137868,-2.226418,-20.014286,-4.364286,-17.876418,-4.487868,-18.000000,-4.844889,-18.000000,-4.844889,-17.961177,-4.806066,-17.893934,
-4.576418,-17.664286,-4.152154,-17.664286,-2.014286,-19.802154,-1.890703,-19.678571,-4.028571,-17.540703,-4.152154,-17.664286,-4.576418,-17.664286,-4.240703,-17.328571,-3.816439,-17.328571,-1.678571,-19.466439,-1.554989,-19.342857,-3.692857,-17.204989,-3.816439,-17.328571,-4.240703,-17.328571,-3.904989,-16.992857,-3.480725,-16.992857,-1.342857,-19.130725,-1.219275,-19.007143,-3.357143,-16.869275,-3.480725,-16.992857,
-3.904989,-16.992857,-3.569275,-16.657143,-3.145011,-16.657143,-1.007143,-18.795011,-0.883561,-18.671429,-3.021429,-16.533561,-3.145011,-16.657143,-3.569275,-16.657143,-3.233561,-16.321429,-2.809297,-16.321429,-0.671429,-18.459297,-0.547846,-18.335714,-2.685714,-16.197846,-2.809297,-16.321429,-3.233561,-16.321429,-2.897846,-15.985714,-2.473582,-15.985714,-0.335714,-18.123582,-0.212132,-18.000000,-2.350000,-15.862132,
-2.473582,-15.985714,-2.897846,-15.985714,-2.456066,-15.543934,-2.388823,-15.505111,-2.311177,-15.505111,-2.243934,-15.543934,-2.243934,-15.543934,$1*%
%AMFreePoly12*
4,1,66,3.756066,-15.543934,6.106066,-17.893934,6.144889,-17.961177,6.144889,-18.038823,6.106066,-18.106066,3.756066,-20.456066,3.688823,-20.494889,3.611177,-20.494889,3.543934,-20.456066,1.193934,-18.106066,1.155111,-18.038823,1.155111,-18.000000,1.512132,-18.000000,3.650000,-20.137868,3.773582,-20.014286,1.635714,-17.876418,1.512132,-18.000000,1.155111,-18.000000,1.155111,-17.961177,1.193934,-17.893934,
1.423582,-17.664286,1.847846,-17.664286,3.985714,-19.802154,4.109297,-19.678571,1.971429,-17.540703,1.847846,-17.664286,1.423582,-17.664286,1.759297,-17.328571,2.183561,-17.328571,4.321429,-19.466439,4.445011,-19.342857,2.307143,-17.204989,2.183561,-17.328571,1.759297,-17.328571,2.095011,-16.992857,2.519275,-16.992857,4.657143,-19.130725,4.780725,-19.007143,2.642857,-16.869275,2.519275,-16.992857,
2.095011,-16.992857,2.430725,-16.657143,2.854989,-16.657143,4.992857,-18.795011,5.116439,-18.671429,2.978571,-16.533561,2.854989,-16.657143,2.430725,-16.657143,2.766439,-16.321429,3.190703,-16.321429,5.328571,-18.459297,5.452154,-18.335714,3.314286,-16.197846,3.190703,-16.321429,2.766439,-16.321429,3.102154,-15.985714,3.526418,-15.985714,5.664286,-18.123582,5.787868,-18.000000,3.650000,-15.862132,
3.526418,-15.985714,3.102154,-15.985714,3.543934,-15.543934,3.611177,-15.505111,3.688823,-15.505111,3.756066,-15.543934,3.756066,-15.543934,$1*%
%AMFreePoly13*
4,1,66,-2.243934,-9.543934,0.106066,-11.893934,0.144889,-11.961177,0.144889,-12.038823,0.106066,-12.106066,-2.243934,-14.456066,-2.311177,-14.494889,-2.388823,-14.494889,-2.456066,-14.456066,-4.806066,-12.106066,-4.844889,-12.038823,-4.844889,-12.000000,-4.487868,-12.000000,-2.350000,-14.137868,-2.226418,-14.014286,-4.364286,-11.876418,-4.487868,-12.000000,-4.844889,-12.000000,-4.844889,-11.961177,-4.806066,-11.893934,
-4.576418,-11.664286,-4.152154,-11.664286,-2.014286,-13.802154,-1.890703,-13.678571,-4.028571,-11.540703,-4.152154,-11.664286,-4.576418,-11.664286,-4.240703,-11.328571,-3.816439,-11.328571,-1.678571,-13.466439,-1.554989,-13.342857,-3.692857,-11.204989,-3.816439,-11.328571,-4.240703,-11.328571,-3.904989,-10.992857,-3.480725,-10.992857,-1.342857,-13.130725,-1.219275,-13.007143,-3.357143,-10.869275,-3.480725,-10.992857,
-3.904989,-10.992857,-3.569275,-10.657143,-3.145011,-10.657143,-1.007143,-12.795011,-0.883561,-12.671429,-3.021429,-10.533561,-3.145011,-10.657143,-3.569275,-10.657143,-3.233561,-10.321429,-2.809297,-10.321429,-0.671429,-12.459297,-0.547846,-12.335714,-2.685714,-10.197846,-2.809297,-10.321429,-3.233561,-10.321429,-2.897846,-9.985714,-2.473582,-9.985714,-0.335714,-12.123582,-0.212132,-12.000000,-2.350000,-9.862132,
-2.473582,-9.985714,-2.897846,-9.985714,-2.456066,-9.543934,-2.388823,-9.505111,-2.311177,-9.505111,-2.243934,-9.543934,-2.243934,-9.543934,$1*%
%AMFreePoly14*
4,1,66,3.756066,-9.543934,6.106066,-11.893934,6.144889,-11.961177,6.144889,-12.038823,6.106066,-12.106066,3.756066,-14.456066,3.688823,-14.494889,3.611177,-14.494889,3.543934,-14.456066,1.193934,-12.106066,1.155111,-12.038823,1.155111,-12.000000,1.512132,-12.000000,3.650000,-14.137868,3.773582,-14.014286,1.635714,-11.876418,1.512132,-12.000000,1.155111,-12.000000,1.155111,-11.961177,1.193934,-11.893934,
1.423582,-11.664286,1.847846,-11.664286,3.985714,-13.802154,4.109297,-13.678571,1.971429,-11.540703,1.847846,-11.664286,1.423582,-11.664286,1.759297,-11.328571,2.183561,-11.328571,4.321429,-13.466439,4.445011,-13.342857,2.307143,-11.204989,2.183561,-11.328571,1.759297,-11.328571,2.095011,-10.992857,2.519275,-10.992857,4.657143,-13.130725,4.780725,-13.007143,2.642857,-10.869275,2.519275,-10.992857,
2.095011,-10.992857,2.430725,-10.657143,2.854989,-10.657143,4.992857,-12.795011,5.116439,-12.671429,2.978571,-10.533561,2.854989,-10.657143,2.430725,-10.657143,2.766439,-10.321429,3.190703,-10.321429,5.328571,-12.459297,5.452154,-12.335714,3.314286,-10.197846,3.190703,-10.321429,2.766439,-10.321429,3.102154,-9.985714,3.526418,-9.985714,5.664286,-12.123582,5.787868,-12.000000,3.650000,-9.862132,
3.526418,-9.985714,3.102154,-9.985714,3.543934,-9.543934,3.611177,-9.505111,3.688823,-9.505111,3.756066,-9.543934,3.756066,-9.543934,$1*%
%AMFreePoly15*
4,1,66,-2.243934,-3.543934,0.106066,-5.893934,0.144889,-5.961177,0.144889,-6.038823,0.106066,-6.106066,-2.243934,-8.456066,-2.311177,-8.494889,-2.388823,-8.494889,-2.456066,-8.456066,-4.806066,-6.106066,-4.844889,-6.038823,-4.844889,-6.000000,-4.487868,-6.000000,-2.350000,-8.137868,-2.226418,-8.014286,-4.364286,-5.876418,-4.487868,-6.000000,-4.844889,-6.000000,-4.844889,-5.961177,-4.806066,-5.893934,
-4.576418,-5.664286,-4.152154,-5.664286,-2.014286,-7.802154,-1.890703,-7.678571,-4.028571,-5.540703,-4.152154,-5.664286,-4.576418,-5.664286,-4.240703,-5.328571,-3.816439,-5.328571,-1.678571,-7.466439,-1.554989,-7.342857,-3.692857,-5.204989,-3.816439,-5.328571,-4.240703,-5.328571,-3.904989,-4.992857,-3.480725,-4.992857,-1.342857,-7.130725,-1.219275,-7.007143,-3.357143,-4.869275,-3.480725,-4.992857,
-3.904989,-4.992857,-3.569275,-4.657143,-3.145011,-4.657143,-1.007143,-6.795011,-0.883561,-6.671429,-3.021429,-4.533561,-3.145011,-4.657143,-3.569275,-4.657143,-3.233561,-4.321429,-2.809297,-4.321429,-0.671429,-6.459297,-0.547846,-6.335714,-2.685714,-4.197846,-2.809297,-4.321429,-3.233561,-4.321429,-2.897846,-3.985714,-2.473582,-3.985714,-0.335714,-6.123582,-0.212132,-6.000000,-2.350000,-3.862132,
-2.473582,-3.985714,-2.897846,-3.985714,-2.456066,-3.543934,-2.388823,-3.505111,-2.311177,-3.505111,-2.243934,-3.543934,-2.243934,-3.543934,$1*%
%AMFreePoly16*
4,1,66,3.756066,-3.543934,6.106066,-5.893934,6.144889,-5.961177,6.144889,-6.038823,6.106066,-6.106066,3.756066,-8.456066,3.688823,-8.494889,3.611177,-8.494889,3.543934,-8.456066,1.193934,-6.106066,1.155111,-6.038823,1.155111,-6.000000,1.512132,-6.000000,3.650000,-8.137868,3.773582,-8.014286,1.635714,-5.876418,1.512132,-6.000000,1.155111,-6.000000,1.155111,-5.961177,1.193934,-5.893934,
1.423582,-5.664286,1.847846,-5.664286,3.985714,-7.802154,4.109297,-7.678571,1.971429,-5.540703,1.847846,-5.664286,1.423582,-5.664286,1.759297,-5.328571,2.183561,-5.328571,4.321429,-7.466439,4.445011,-7.342857,2.307143,-5.204989,2.183561,-5.328571,1.759297,-5.328571,2.095011,-4.992857,2.519275,-4.992857,4.657143,-7.130725,4.780725,-7.007143,2.642857,-4.869275,2.519275,-4.992857,
2.095011,-4.992857,2.430725,-4.657143,2.854989,-4.657143,4.992857,-6.795011,5.116439,-6.671429,2.978571,-4.533561,2.854989,-4.657143,2.430725,-4.657143,2.766439,-4.321429,3.190703,-4.321429,5.328571,-6.459297,5.452154,-6.335714,3.314286,-4.197846,3.190703,-4.321429,2.766439,-4.321429,3.102154,-3.985714,3.526418,-3.985714,5.664286,-6.123582,5.787868,-6.000000,3.650000,-3.862132,
3.526418,-3.985714,3.102154,-3.985714,3.543934,-3.543934,3.611177,-3.505111,3.688823,-3.505111,3.756066,-3.543934,3.756066,-3.543934,$1*%
%AMFreePoly17*
4,1,80,0.019075,0.144889,0.038823,0.144889,0.055925,0.135015,0.075000,0.129904,0.088964,0.115940,0.106066,0.106066,0.115940,0.088964,0.129904,0.075000,0.135015,0.055925,0.144889,0.038823,0.144889,0.019075,0.150000,0.000000,0.144889,-0.019075,0.144889,-0.038823,0.135015,-0.055925,0.129904,-0.075000,0.115940,-0.088964,0.106066,-0.106066,-2.243934,-2.456066,-2.311177,-2.494889,
-2.388823,-2.494889,-2.456066,-2.456066,-4.762132,-0.150000,-4.337868,-0.150000,-2.350000,-2.137868,-2.226418,-2.014286,-4.090703,-0.150000,-3.666439,-0.150000,-2.014286,-1.802154,-1.890703,-1.678571,-3.419275,-0.150000,-2.995011,-0.150000,-1.678571,-1.466439,-1.554989,-1.342857,-2.747846,-0.150000,-2.323582,-0.150000,-1.342857,-1.130725,-1.219275,-1.007143,-2.076418,-0.150000,-1.652154,-0.150000,
-1.007143,-0.795011,-0.883561,-0.671429,-1.404989,-0.150000,-0.980725,-0.150000,-0.671429,-0.459297,-0.547846,-0.335714,-0.733561,-0.150000,-0.980725,-0.150000,-1.404989,-0.150000,-1.652154,-0.150000,-2.076418,-0.150000,-2.323582,-0.150000,-2.747846,-0.150000,-2.995011,-0.150000,-3.419275,-0.150000,-3.666439,-0.150000,-4.090703,-0.150000,-4.337868,-0.150000,-4.762132,-0.150000,-4.806066,-0.106066,
-4.815940,-0.088964,-4.829904,-0.075000,-4.835015,-0.055925,-4.844889,-0.038823,-4.844889,-0.019075,-4.850000,0.000000,-4.844889,0.019075,-4.844889,0.038823,-4.835015,0.055925,-4.829904,0.075000,-4.815940,0.088964,-4.806066,0.106066,-4.788964,0.115940,-4.775000,0.129904,-4.755925,0.135015,-4.738823,0.144889,-4.719075,0.144889,-4.700000,0.150000,0.000000,0.150000,0.019075,0.144889,
0.019075,0.144889,$1*%
%AMFreePoly18*
4,1,80,6.019075,0.144889,6.038823,0.144889,6.055925,0.135015,6.075000,0.129904,6.088964,0.115940,6.106066,0.106066,6.115940,0.088964,6.129904,0.075000,6.135015,0.055925,6.144889,0.038823,6.144889,0.019075,6.150000,0.000000,6.144889,-0.019075,6.144889,-0.038823,6.135015,-0.055925,6.129904,-0.075000,6.115940,-0.088964,6.106066,-0.106066,3.756066,-2.456066,3.688823,-2.494889,
3.611177,-2.494889,3.543934,-2.456066,1.237868,-0.150000,1.662132,-0.150000,3.650000,-2.137868,3.773582,-2.014286,1.909297,-0.150000,2.333561,-0.150000,3.985714,-1.802154,4.109297,-1.678571,2.580725,-0.150000,3.004989,-0.150000,4.321429,-1.466439,4.445011,-1.342857,3.252154,-0.150000,3.676418,-0.150000,4.657143,-1.130725,4.780725,-1.007143,3.923582,-0.150000,4.347846,-0.150000,
4.992857,-0.795011,5.116439,-0.671429,4.595011,-0.150000,5.019275,-0.150000,5.328571,-0.459297,5.452154,-0.335714,5.266439,-0.150000,5.019275,-0.150000,4.595011,-0.150000,4.347846,-0.150000,3.923582,-0.150000,3.676418,-0.150000,3.252154,-0.150000,3.004989,-0.150000,2.580725,-0.150000,2.333561,-0.150000,1.909297,-0.150000,1.662132,-0.150000,1.237868,-0.150000,1.193934,-0.106066,
1.184060,-0.088964,1.170096,-0.075000,1.164985,-0.055925,1.155111,-0.038823,1.155111,-0.019075,1.150000,0.000000,1.155111,0.019075,1.155111,0.038823,1.164985,0.055925,1.170096,0.075000,1.184060,0.088964,1.193934,0.106066,1.211036,0.115940,1.225000,0.129904,1.244075,0.135015,1.261177,0.144889,1.280925,0.144889,1.300000,0.150000,6.000000,0.150000,6.019075,0.144889,
6.019075,0.144889,$1*%
G04 Aperture macros list end*
G04 #@! TA.AperFunction,SMDPad,CuDef*
%ADD10FreePoly0,0.000000*%
G04 #@! TD*
G04 #@! TA.AperFunction,SMDPad,CuDef*
%ADD11FreePoly1,0.000000*%
G04 #@! TD*
G04 #@! TA.AperFunction,SMDPad,CuDef*
%ADD12FreePoly2,0.000000*%
G04 #@! TD*
G04 #@! TA.AperFunction,SMDPad,CuDef*
%ADD13FreePoly3,0.000000*%
G04 #@! TD*
G04 #@! TA.AperFunction,SMDPad,CuDef*
%ADD14FreePoly4,0.000000*%
G04 #@! TD*
G04 #@! TA.AperFunction,SMDPad,CuDef*
%ADD15FreePoly5,0.000000*%
G04 #@! TD*
G04 #@! TA.AperFunction,SMDPad,CuDef*
%ADD16FreePoly6,0.000000*%
G04 #@! TD*
G04 #@! TA.AperFunction,SMDPad,CuDef*
%ADD17FreePoly7,0.000000*%
G04 #@! TD*
G04 #@! TA.AperFunction,SMDPad,CuDef*
%ADD18FreePoly8,0.000000*%
G04 #@! TD*
G04 #@! TA.AperFunction,SMDPad,CuDef*
%ADD19FreePoly9,0.000000*%
G04 #@! TD*
G04 #@! TA.AperFunction,SMDPad,CuDef*
%ADD20FreePoly10,0.000000*%
G04 #@! TD*
G04 #@! TA.AperFunction,SMDPad,CuDef*
%ADD21FreePoly11,0.000000*%
G04 #@! TD*
G04 #@! TA.AperFunction,SMDPad,CuDef*
%ADD22FreePoly12,0.000000*%
G04 #@! TD*
G04 #@! TA.AperFunction,SMDPad,CuDef*
%ADD23FreePoly13,0.000000*%
G04 #@! TD*
G04 #@! TA.AperFunction,SMDPad,CuDef*
%ADD24FreePoly14,0.000000*%
G04 #@! TD*
G04 #@! TA.AperFunction,SMDPad,CuDef*
%ADD25FreePoly15,0.000000*%
G04 #@! TD*
G04 #@! TA.AperFunction,SMDPad,CuDef*
%ADD26FreePoly16,0.000000*%
G04 #@! TD*
G04 #@! TA.AperFunction,SMDPad,CuDef*
%ADD27FreePoly17,0.000000*%
G04 #@! TD*
G04 #@! TA.AperFunction,SMDPad,CuDef*
%ADD28FreePoly18,0.000000*%
G04 #@! TD*
G04 #@! TA.AperFunction,ViaPad*
%ADD29C,0.400000*%
G04 #@! TD*
G04 #@! TA.AperFunction,Conductor*
%ADD30C,0.200000*%
G04 #@! TD*
G04 APERTURE END LIST*
D10*
X63450000Y-56625000D03*
X63450000Y-62625000D03*
X63450000Y-68625000D03*
X63450000Y-74625000D03*
X63450000Y-80625000D03*
X63450000Y-86625000D03*
X63450000Y-92625000D03*
X63450000Y-98625000D03*
D11*
X68800000Y-55975000D03*
D12*
X68800000Y-55975000D03*
D13*
X68800000Y-55975000D03*
D14*
X68800000Y-55975000D03*
D15*
X68800000Y-55975000D03*
D16*
X68800000Y-55975000D03*
D17*
X68800000Y-55975000D03*
D18*
X68800000Y-55975000D03*
D19*
X68800000Y-55975000D03*
D20*
X68800000Y-55975000D03*
D21*
X68800000Y-55975000D03*
D22*
X68800000Y-55975000D03*
D23*
X68800000Y-55975000D03*
D24*
X68800000Y-55975000D03*
D25*
X68800000Y-55975000D03*
D26*
X68800000Y-55975000D03*
D27*
X68800000Y-55975000D03*
D28*
X68800000Y-55975000D03*
D11*
X80800000Y-55975000D03*
D12*
X80800000Y-55975000D03*
D13*
X80800000Y-55975000D03*
D14*
X80800000Y-55975000D03*
D15*
X80800000Y-55975000D03*
D16*
X80800000Y-55975000D03*
D17*
X80800000Y-55975000D03*
D18*
X80800000Y-55975000D03*
D19*
X80800000Y-55975000D03*
D20*
X80800000Y-55975000D03*
D21*
X80800000Y-55975000D03*
D22*
X80800000Y-55975000D03*
D23*
X80800000Y-55975000D03*
D24*
X80800000Y-55975000D03*
D25*
X80800000Y-55975000D03*
D26*
X80800000Y-55975000D03*
D27*
X80800000Y-55975000D03*
D28*
X80800000Y-55975000D03*
D11*
X92800000Y-55975000D03*
D12*
X92800000Y-55975000D03*
D13*
X92800000Y-55975000D03*
D14*
X92800000Y-55975000D03*
D15*
X92800000Y-55975000D03*
D16*
X92800000Y-55975000D03*
D17*
X92800000Y-55975000D03*
D18*
X92800000Y-55975000D03*
D19*
X92800000Y-55975000D03*
D20*
X92800000Y-55975000D03*
D21*
X92800000Y-55975000D03*
D22*
X92800000Y-55975000D03*
D23*
X92800000Y-55975000D03*
D24*
X92800000Y-55975000D03*
D25*
X92800000Y-55975000D03*
D26*
X92800000Y-55975000D03*
D27*
X92800000Y-55975000D03*
D28*
X92800000Y-55975000D03*
D11*
X104800000Y-55975000D03*
D12*
X104800000Y-55975000D03*
D13*
X104800000Y-55975000D03*
D14*
X104800000Y-55975000D03*
D15*
X104800000Y-55975000D03*
D16*
X104800000Y-55975000D03*
D17*
X104800000Y-55975000D03*
D18*
X104800000Y-55975000D03*
D19*
X104800000Y-55975000D03*
D20*
X104800000Y-55975000D03*
D21*
X104800000Y-55975000D03*
D22*
X104800000Y-55975000D03*
D23*
X104800000Y-55975000D03*
D24*
X104800000Y-55975000D03*
D25*
X104800000Y-55975000D03*
D26*
X104800000Y-55975000D03*
D27*
X104800000Y-55975000D03*
D28*
X104800000Y-55975000D03*
D11*
X116800000Y-55975000D03*
D12*
X116800000Y-55975000D03*
D13*
X116800000Y-55975000D03*
D14*
X116800000Y-55975000D03*
D15*
X116800000Y-55975000D03*
D16*
X116800000Y-55975000D03*
D17*
X116800000Y-55975000D03*
D18*
X116800000Y-55975000D03*
D19*
X116800000Y-55975000D03*
D20*
X116800000Y-55975000D03*
D21*
X116800000Y-55975000D03*
D22*
X116800000Y-55975000D03*
D23*
X116800000Y-55975000D03*
D24*
X116800000Y-55975000D03*
D25*
X116800000Y-55975000D03*
D26*
X116800000Y-55975000D03*
D27*
X116800000Y-55975000D03*
D28*
X116800000Y-55975000D03*
D11*
X128800000Y-55975000D03*
D12*
X128800000Y-55975000D03*
D13*
X128800000Y-55975000D03*
D14*
X128800000Y-55975000D03*
D15*
X128800000Y-55975000D03*
D16*
X128800000Y-55975000D03*
D17*
X128800000Y-55975000D03*
D18*
X128800000Y-55975000D03*
D19*
X128800000Y-55975000D03*
D20*
X128800000Y-55975000D03*
D21*
X128800000Y-55975000D03*
D22*
X128800000Y-55975000D03*
D23*
X128800000Y-55975000D03*
D24*
X128800000Y-55975000D03*
D25*
X128800000Y-55975000D03*
D26*
X128800000Y-55975000D03*
D27*
X128800000Y-55975000D03*
D28*
X128800000Y-55975000D03*
D11*
X140800000Y-55975000D03*
D12*
X140800000Y-55975000D03*
D13*
X140800000Y-55975000D03*
D14*
X140800000Y-55975000D03*
D15*
X140800000Y-55975000D03*
D16*
X140800000Y-55975000D03*
D17*
X140800000Y-55975000D03*
D18*
X140800000Y-55975000D03*
D19*
X140800000Y-55975000D03*
D20*
X140800000Y-55975000D03*
D21*
X140800000Y-55975000D03*
D22*
X140800000Y-55975000D03*
D23*
X140800000Y-55975000D03*
D24*
X140800000Y-55975000D03*
D25*
X140800000Y-55975000D03*
D26*
X140800000Y-55975000D03*
D27*
X140800000Y-55975000D03*
D28*
X140800000Y-55975000D03*
D11*
X152800000Y-55975000D03*
D12*
X152800000Y-55975000D03*
D13*
X152800000Y-55975000D03*
D14*
X152800000Y-55975000D03*
D15*
X152800000Y-55975000D03*
D16*
X152800000Y-55975000D03*
D17*
X152800000Y-55975000D03*
D18*
X152800000Y-55975000D03*
D19*
X152800000Y-55975000D03*
D20*
X152800000Y-55975000D03*
D21*
X152800000Y-55975000D03*
D22*
X152800000Y-55975000D03*
D23*
X152800000Y-55975000D03*
D24*
X152800000Y-55975000D03*
D25*
X152800000Y-55975000D03*
D26*
X152800000Y-55975000D03*
D27*
X152800000Y-55975000D03*
D28*
X152800000Y-55975000D03*
D11*
X164800000Y-55975000D03*
D12*
X164800000Y-55975000D03*
D13*
X164800000Y-55975000D03*
D14*
X164800000Y-55975000D03*
D15*
X164800000Y-55975000D03*
D16*
X164800000Y-55975000D03*
D17*
X164800000Y-55975000D03*
D18*
X164800000Y-55975000D03*
D19*
X164800000Y-55975000D03*
D20*
X164800000Y-55975000D03*
D21*
X164800000Y-55975000D03*
D22*
X164800000Y-55975000D03*
D23*
X164800000Y-55975000D03*
D24*
X164800000Y-55975000D03*
D25*
X164800000Y-55975000D03*
D26*
X164800000Y-55975000D03*
D27*
X164800000Y-55975000D03*
D28*
X164800000Y-55975000D03*
D11*
X176800000Y-55975000D03*
D12*
X176800000Y-55975000D03*
D13*
X176800000Y-55975000D03*
D14*
X176800000Y-55975000D03*
D15*
X176800000Y-55975000D03*
D16*
X176800000Y-55975000D03*
D17*
X176800000Y-55975000D03*
D18*
X176800000Y-55975000D03*
D19*
X176800000Y-55975000D03*
D20*
X176800000Y-55975000D03*
D21*
X176800000Y-55975000D03*
D22*
X176800000Y-55975000D03*
D23*
X176800000Y-55975000D03*
D24*
X176800000Y-55975000D03*
D25*
X176800000Y-55975000D03*
D26*
X176800000Y-55975000D03*
D27*
X176800000Y-55975000D03*
D28*
X176800000Y-55975000D03*
D11*
X188800000Y-55975000D03*
D12*
X188800000Y-55975000D03*
D13*
X188800000Y-55975000D03*
D14*
X188800000Y-55975000D03*
D15*
X188800000Y-55975000D03*
D16*
X188800000Y-55975000D03*
D17*
X188800000Y-55975000D03*
D18*
X188800000Y-55975000D03*
D19*
X188800000Y-55975000D03*
D20*
X188800000Y-55975000D03*
D21*
X188800000Y-55975000D03*
D22*
X188800000Y-55975000D03*
D23*
X188800000Y-55975000D03*
D24*
X188800000Y-55975000D03*
D25*
X188800000Y-55975000D03*
D26*
X188800000Y-55975000D03*
D27*
X188800000Y-55975000D03*
D28*
X188800000Y-55975000D03*
D11*
X200800000Y-55975000D03*
D12*
X200800000Y-55975000D03*
D13*
X200800000Y-55975000D03*
D14*
X200800000Y-55975000D03*
D15*
X200800000Y-55975000D03*
D16*
X200800000Y-55975000D03*
D17*
X200800000Y-55975000D03*
D18*
X200800000Y-55975000D03*
D19*
X200800000Y-55975000D03*
D20*
X200800000Y-55975000D03*
D21*
X200800000Y-55975000D03*
D22*
X200800000Y-55975000D03*
D23*
X200800000Y-55975000D03*
D24*
X200800000Y-55975000D03*
D25*
X200800000Y-55975000D03*
D26*
X200800000Y-55975000D03*
D27*
X200800000Y-55975000D03*
D28*
X200800000Y-55975000D03*
D11*
X212800000Y-55975000D03*
D12*
X212800000Y-55975000D03*
D13*
X212800000Y-55975000D03*
D14*
X212800000Y-55975000D03*
D15*
X212800000Y-55975000D03*
D16*
X212800000Y-55975000D03*
D17*
X212800000Y-55975000D03*
D18*
X212800000Y-55975000D03*
D19*
X212800000Y-55975000D03*
D20*
X212800000Y-55975000D03*
D21*
X212800000Y-55975000D03*
D22*
X212800000Y-55975000D03*
D23*
X212800000Y-55975000D03*
D24*
X212800000Y-55975000D03*
D25*
X212800000Y-55975000D03*
D26*
X212800000Y-55975000D03*
D27*
X212800000Y-55975000D03*
D28*
X212800000Y-55975000D03*
D11*
X224800000Y-55975000D03*
D12*
X224800000Y-55975000D03*
D13*
X224800000Y-55975000D03*
D14*
X224800000Y-55975000D03*
D15*
X224800000Y-55975000D03*
D16*
X224800000Y-55975000D03*
D17*
X224800000Y-55975000D03*
D18*
X224800000Y-55975000D03*
D19*
X224800000Y-55975000D03*
D20*
X224800000Y-55975000D03*
D21*
X224800000Y-55975000D03*
D22*
X224800000Y-55975000D03*
D23*
X224800000Y-55975000D03*
D24*
X224800000Y-55975000D03*
D25*
X224800000Y-55975000D03*
D26*
X224800000Y-55975000D03*
D27*
X224800000Y-55975000D03*
D28*
X224800000Y-55975000D03*
D11*
X236800000Y-55975000D03*
D12*
X236800000Y-55975000D03*
D13*
X236800000Y-55975000D03*
D14*
X236800000Y-55975000D03*
D15*
X236800000Y-55975000D03*
D16*
X236800000Y-55975000D03*
D17*
X236800000Y-55975000D03*
D18*
X236800000Y-55975000D03*
D19*
X236800000Y-55975000D03*
D20*
X236800000Y-55975000D03*
D21*
X236800000Y-55975000D03*
D22*
X236800000Y-55975000D03*
D23*
X236800000Y-55975000D03*
D24*
X236800000Y-55975000D03*
D25*
X236800000Y-55975000D03*
D26*
X236800000Y-55975000D03*
D27*
X236800000Y-55975000D03*
D28*
X236800000Y-55975000D03*
D29*
X60975000Y-90275000D03*
X243500000Y-58975000D03*
X243500000Y-64975000D03*
X243500000Y-70975000D03*
X243500000Y-76975000D03*
X243500000Y-82975000D03*
X243500000Y-88975000D03*
X243500000Y-94975000D03*
X243500000Y-100975000D03*
X66450000Y-100275000D03*
X66450000Y-58275000D03*
X66450000Y-94275000D03*
X66450000Y-101625000D03*
X66450000Y-88275000D03*
X72450000Y-64275000D03*
X66450000Y-76275000D03*
X72450000Y-100275000D03*
X66450000Y-64275000D03*
X72450000Y-101625000D03*
X72450000Y-76275000D03*
X72450000Y-88275000D03*
X72450000Y-94275000D03*
X72450000Y-82275000D03*
X72450000Y-58275000D03*
X66450000Y-82275000D03*
X66450000Y-70275000D03*
X72450000Y-70275000D03*
X78450000Y-100275000D03*
X78450000Y-82275000D03*
X78450000Y-70275000D03*
X84450000Y-70275000D03*
X84450000Y-82275000D03*
X84450000Y-100275000D03*
X84450000Y-64275000D03*
X84450000Y-101625000D03*
X78450000Y-88275000D03*
X78450000Y-58275000D03*
X84450000Y-88275000D03*
X78450000Y-64275000D03*
X78450000Y-76275000D03*
X78450000Y-94275000D03*
X84450000Y-76275000D03*
X78450000Y-101625000D03*
X84450000Y-94275000D03*
X84450000Y-58275000D03*
X96450000Y-82275000D03*
X96450000Y-100275000D03*
X96450000Y-76275000D03*
X90450000Y-82275000D03*
X90450000Y-70275000D03*
X96450000Y-58275000D03*
X96450000Y-101625000D03*
X90450000Y-58275000D03*
X90450000Y-88275000D03*
X90450000Y-76275000D03*
X90450000Y-64275000D03*
X90450000Y-94275000D03*
X96450000Y-64275000D03*
X96450000Y-88275000D03*
X90450000Y-101625000D03*
X96450000Y-70275000D03*
X90450000Y-100275000D03*
X96450000Y-94275000D03*
X102450000Y-76275000D03*
X108450000Y-82275000D03*
X108450000Y-76275000D03*
X108450000Y-64275000D03*
X102450000Y-94275000D03*
X108450000Y-101625000D03*
X102450000Y-82275000D03*
X108450000Y-100275000D03*
X102450000Y-100275000D03*
X108450000Y-94275000D03*
X108450000Y-70275000D03*
X102450000Y-88275000D03*
X102450000Y-101625000D03*
X108450000Y-58275000D03*
X108450000Y-88275000D03*
X102450000Y-64275000D03*
X102450000Y-70275000D03*
X102450000Y-58275000D03*
X114450000Y-101625000D03*
X120450000Y-94275000D03*
X114450000Y-94275000D03*
X120450000Y-70275000D03*
X120450000Y-100275000D03*
X114450000Y-70275000D03*
X114450000Y-58275000D03*
X120450000Y-88275000D03*
X120450000Y-64275000D03*
X120450000Y-101625000D03*
X114450000Y-76275000D03*
X114450000Y-100275000D03*
X114450000Y-64275000D03*
X120450000Y-58275000D03*
X114450000Y-88275000D03*
X114450000Y-82275000D03*
X120450000Y-82275000D03*
X120450000Y-76275000D03*
X132450000Y-64275000D03*
X126450000Y-58275000D03*
X126450000Y-94275000D03*
X126450000Y-70275000D03*
X126450000Y-88275000D03*
X126450000Y-64275000D03*
X132450000Y-58275000D03*
X132450000Y-70275000D03*
X126450000Y-82275000D03*
X126450000Y-100275000D03*
X132450000Y-100275000D03*
X132450000Y-82275000D03*
X132450000Y-94275000D03*
X126450000Y-76275000D03*
X132450000Y-88275000D03*
X132450000Y-101625000D03*
X126450000Y-101625000D03*
X132450000Y-76275000D03*
X144450000Y-82275000D03*
X138450000Y-101625000D03*
X144450000Y-101625000D03*
X138450000Y-58275000D03*
X138450000Y-64275000D03*
X144450000Y-58275000D03*
X144450000Y-94275000D03*
X138450000Y-70275000D03*
X144450000Y-100275000D03*
X144450000Y-64275000D03*
X138450000Y-88275000D03*
X144450000Y-70275000D03*
X138450000Y-82275000D03*
X144450000Y-88275000D03*
X138450000Y-100275000D03*
X138450000Y-76275000D03*
X144450000Y-76275000D03*
X138450000Y-94275000D03*
X156450000Y-100275000D03*
X156450000Y-76275000D03*
X150450000Y-76275000D03*
X156450000Y-94275000D03*
X156450000Y-70275000D03*
X150450000Y-64275000D03*
X150450000Y-94275000D03*
X150450000Y-101625000D03*
X150450000Y-88275000D03*
X156450000Y-82275000D03*
X150450000Y-70275000D03*
X156450000Y-64275000D03*
X150450000Y-82275000D03*
X156450000Y-58275000D03*
X156450000Y-101625000D03*
X150450000Y-58275000D03*
X156450000Y-88275000D03*
X150450000Y-100275000D03*
X168450000Y-94275000D03*
X168450000Y-64275000D03*
X168450000Y-70275000D03*
X168450000Y-82275000D03*
X168450000Y-58275000D03*
X162450000Y-100275000D03*
X168450000Y-100275000D03*
X162450000Y-64275000D03*
X168450000Y-76275000D03*
X162450000Y-70275000D03*
X162450000Y-76275000D03*
X162450000Y-58275000D03*
X162450000Y-101625000D03*
X168450000Y-88275000D03*
X162450000Y-88275000D03*
X162450000Y-82275000D03*
X168450000Y-101625000D03*
X162450000Y-94275000D03*
X180450000Y-70275000D03*
X174450000Y-70275000D03*
X174450000Y-101625000D03*
X180450000Y-58275000D03*
X174450000Y-82275000D03*
X180450000Y-82275000D03*
X180450000Y-94275000D03*
X180450000Y-88275000D03*
X174450000Y-100275000D03*
X174450000Y-88275000D03*
X180450000Y-100275000D03*
X174450000Y-76275000D03*
X174450000Y-94275000D03*
X180450000Y-101625000D03*
X174450000Y-64275000D03*
X180450000Y-76275000D03*
X180450000Y-64275000D03*
X174450000Y-58275000D03*
X186450000Y-94275000D03*
X186450000Y-101625000D03*
X192450000Y-101625000D03*
X192450000Y-64275000D03*
X192450000Y-94275000D03*
X186450000Y-88275000D03*
X192450000Y-76275000D03*
X192450000Y-70275000D03*
X186450000Y-76275000D03*
X192450000Y-82275000D03*
X186450000Y-100275000D03*
X192450000Y-88275000D03*
X186450000Y-70275000D03*
X186450000Y-58275000D03*
X192450000Y-58275000D03*
X186450000Y-64275000D03*
X192450000Y-100275000D03*
X186450000Y-82275000D03*
X198450000Y-100275000D03*
X198450000Y-64275000D03*
X198450000Y-101625000D03*
X204450000Y-101625000D03*
X204450000Y-76275000D03*
X198450000Y-88275000D03*
X198450000Y-82275000D03*
X204450000Y-100275000D03*
X204450000Y-64275000D03*
X204450000Y-82275000D03*
X204450000Y-58275000D03*
X204450000Y-88275000D03*
X204450000Y-70275000D03*
X204450000Y-94275000D03*
X198450000Y-76275000D03*
X198450000Y-94275000D03*
X198450000Y-70275000D03*
X198450000Y-58275000D03*
X216450000Y-101625000D03*
X210450000Y-101625000D03*
X216450000Y-70275000D03*
X210450000Y-58275000D03*
X210450000Y-64275000D03*
X216450000Y-88275000D03*
X216450000Y-82275000D03*
X210450000Y-76275000D03*
X216450000Y-100275000D03*
X210450000Y-94275000D03*
X216450000Y-94275000D03*
X210450000Y-70275000D03*
X210450000Y-82275000D03*
X210450000Y-100275000D03*
X210450000Y-88275000D03*
X216450000Y-76275000D03*
X216450000Y-58275000D03*
X216450000Y-64275000D03*
X228450000Y-88275000D03*
X228450000Y-64275000D03*
X222450000Y-64275000D03*
X222450000Y-76275000D03*
X222450000Y-100275000D03*
X228450000Y-82275000D03*
X228450000Y-101625000D03*
X222450000Y-70275000D03*
X228450000Y-94275000D03*
X222450000Y-101625000D03*
X222450000Y-58275000D03*
X222450000Y-82275000D03*
X222450000Y-94275000D03*
X228450000Y-100275000D03*
X228450000Y-58275000D03*
X222450000Y-88275000D03*
X228450000Y-76275000D03*
X228450000Y-70275000D03*
X240450000Y-88275000D03*
X234450000Y-76275000D03*
X234450000Y-100275000D03*
X240450000Y-76275000D03*
X240450000Y-64275000D03*
X240450000Y-100275000D03*
X234450000Y-88275000D03*
X234450000Y-70275000D03*
X234450000Y-101625000D03*
X240450000Y-94275000D03*
X240450000Y-101625000D03*
X234450000Y-94275000D03*
X234450000Y-58275000D03*
X234450000Y-64275000D03*
X240450000Y-70275000D03*
X234450000Y-82275000D03*
X240450000Y-58275000D03*
X240450000Y-82275000D03*
D30*
X245875000Y-106875000D02*
X245875000Y-53175000D01*
X60975000Y-106875000D02*
X245875000Y-106875000D01*
X60975000Y-53175000D02*
X60975000Y-106875000D01*
X245875000Y-53175000D02*
X60975000Y-53175000D01*
M02*
