M48
; DRILL file {KiCad 6.0.8+dfsg-1~bpo11+1} date Fri 24 Mar 2023 06:51:31 PM EDT
; FORMAT={-:-/ absolute / metric / decimal}
; #@! TF.CreationDate,2023-03-24T18:51:31-04:00
; #@! TF.GenerationSoftware,Kicad,Pcbnew,6.0.8+dfsg-1~bpo11+1
; #@! TF.FileFunction,Plated,1,2,PTH
FMAT,2
METRIC
; #@! TA.AperFunction,Plated,PTH,ViaDrill
T1C0.200
%
G90
G05
T1
X60.975Y-90.275
X66.45Y-58.275
X66.45Y-64.275
X66.45Y-70.275
X66.45Y-76.275
X66.45Y-82.275
X66.45Y-88.275
X66.45Y-94.275
X66.45Y-100.275
X66.45Y-101.625
X72.45Y-58.275
X72.45Y-64.275
X72.45Y-70.275
X72.45Y-76.275
X72.45Y-82.275
X72.45Y-88.275
X72.45Y-94.275
X72.45Y-100.275
X72.45Y-101.625
X78.45Y-58.275
X78.45Y-64.275
X78.45Y-70.275
X78.45Y-76.275
X78.45Y-82.275
X78.45Y-88.275
X78.45Y-94.275
X78.45Y-100.275
X78.45Y-101.625
X84.45Y-58.275
X84.45Y-64.275
X84.45Y-70.275
X84.45Y-76.275
X84.45Y-82.275
X84.45Y-88.275
X84.45Y-94.275
X84.45Y-100.275
X84.45Y-101.625
X90.45Y-58.275
X90.45Y-64.275
X90.45Y-70.275
X90.45Y-76.275
X90.45Y-82.275
X90.45Y-88.275
X90.45Y-94.275
X90.45Y-100.275
X90.45Y-101.625
X96.45Y-58.275
X96.45Y-64.275
X96.45Y-70.275
X96.45Y-76.275
X96.45Y-82.275
X96.45Y-88.275
X96.45Y-94.275
X96.45Y-100.275
X96.45Y-101.625
X102.45Y-58.275
X102.45Y-64.275
X102.45Y-70.275
X102.45Y-76.275
X102.45Y-82.275
X102.45Y-88.275
X102.45Y-94.275
X102.45Y-100.275
X102.45Y-101.625
X108.45Y-58.275
X108.45Y-64.275
X108.45Y-70.275
X108.45Y-76.275
X108.45Y-82.275
X108.45Y-88.275
X108.45Y-94.275
X108.45Y-100.275
X108.45Y-101.625
X114.45Y-58.275
X114.45Y-64.275
X114.45Y-70.275
X114.45Y-76.275
X114.45Y-82.275
X114.45Y-88.275
X114.45Y-94.275
X114.45Y-100.275
X114.45Y-101.625
X120.45Y-58.275
X120.45Y-64.275
X120.45Y-70.275
X120.45Y-76.275
X120.45Y-82.275
X120.45Y-88.275
X120.45Y-94.275
X120.45Y-100.275
X120.45Y-101.625
X126.45Y-58.275
X126.45Y-64.275
X126.45Y-70.275
X126.45Y-76.275
X126.45Y-82.275
X126.45Y-88.275
X126.45Y-94.275
X126.45Y-100.275
X126.45Y-101.625
X132.45Y-58.275
X132.45Y-64.275
X132.45Y-70.275
X132.45Y-76.275
X132.45Y-82.275
X132.45Y-88.275
X132.45Y-94.275
X132.45Y-100.275
X132.45Y-101.625
X138.45Y-58.275
X138.45Y-64.275
X138.45Y-70.275
X138.45Y-76.275
X138.45Y-82.275
X138.45Y-88.275
X138.45Y-94.275
X138.45Y-100.275
X138.45Y-101.625
X144.45Y-58.275
X144.45Y-64.275
X144.45Y-70.275
X144.45Y-76.275
X144.45Y-82.275
X144.45Y-88.275
X144.45Y-94.275
X144.45Y-100.275
X144.45Y-101.625
X150.45Y-58.275
X150.45Y-64.275
X150.45Y-70.275
X150.45Y-76.275
X150.45Y-82.275
X150.45Y-88.275
X150.45Y-94.275
X150.45Y-100.275
X150.45Y-101.625
X156.45Y-58.275
X156.45Y-64.275
X156.45Y-70.275
X156.45Y-76.275
X156.45Y-82.275
X156.45Y-88.275
X156.45Y-94.275
X156.45Y-100.275
X156.45Y-101.625
X162.45Y-58.275
X162.45Y-64.275
X162.45Y-70.275
X162.45Y-76.275
X162.45Y-82.275
X162.45Y-88.275
X162.45Y-94.275
X162.45Y-100.275
X162.45Y-101.625
X168.45Y-58.275
X168.45Y-64.275
X168.45Y-70.275
X168.45Y-76.275
X168.45Y-82.275
X168.45Y-88.275
X168.45Y-94.275
X168.45Y-100.275
X168.45Y-101.625
X174.45Y-58.275
X174.45Y-64.275
X174.45Y-70.275
X174.45Y-76.275
X174.45Y-82.275
X174.45Y-88.275
X174.45Y-94.275
X174.45Y-100.275
X174.45Y-101.625
X180.45Y-58.275
X180.45Y-64.275
X180.45Y-70.275
X180.45Y-76.275
X180.45Y-82.275
X180.45Y-88.275
X180.45Y-94.275
X180.45Y-100.275
X180.45Y-101.625
X186.45Y-58.275
X186.45Y-64.275
X186.45Y-70.275
X186.45Y-76.275
X186.45Y-82.275
X186.45Y-88.275
X186.45Y-94.275
X186.45Y-100.275
X186.45Y-101.625
X192.45Y-58.275
X192.45Y-64.275
X192.45Y-70.275
X192.45Y-76.275
X192.45Y-82.275
X192.45Y-88.275
X192.45Y-94.275
X192.45Y-100.275
X192.45Y-101.625
X198.45Y-58.275
X198.45Y-64.275
X198.45Y-70.275
X198.45Y-76.275
X198.45Y-82.275
X198.45Y-88.275
X198.45Y-94.275
X198.45Y-100.275
X198.45Y-101.625
X204.45Y-58.275
X204.45Y-64.275
X204.45Y-70.275
X204.45Y-76.275
X204.45Y-82.275
X204.45Y-88.275
X204.45Y-94.275
X204.45Y-100.275
X204.45Y-101.625
X210.45Y-58.275
X210.45Y-64.275
X210.45Y-70.275
X210.45Y-76.275
X210.45Y-82.275
X210.45Y-88.275
X210.45Y-94.275
X210.45Y-100.275
X210.45Y-101.625
X216.45Y-58.275
X216.45Y-64.275
X216.45Y-70.275
X216.45Y-76.275
X216.45Y-82.275
X216.45Y-88.275
X216.45Y-94.275
X216.45Y-100.275
X216.45Y-101.625
X222.45Y-58.275
X222.45Y-64.275
X222.45Y-70.275
X222.45Y-76.275
X222.45Y-82.275
X222.45Y-88.275
X222.45Y-94.275
X222.45Y-100.275
X222.45Y-101.625
X228.45Y-58.275
X228.45Y-64.275
X228.45Y-70.275
X228.45Y-76.275
X228.45Y-82.275
X228.45Y-88.275
X228.45Y-94.275
X228.45Y-100.275
X228.45Y-101.625
X234.45Y-58.275
X234.45Y-64.275
X234.45Y-70.275
X234.45Y-76.275
X234.45Y-82.275
X234.45Y-88.275
X234.45Y-94.275
X234.45Y-100.275
X234.45Y-101.625
X240.45Y-58.275
X240.45Y-64.275
X240.45Y-70.275
X240.45Y-76.275
X240.45Y-82.275
X240.45Y-88.275
X240.45Y-94.275
X240.45Y-100.275
X240.45Y-101.625
X243.5Y-58.975
X243.5Y-64.975
X243.5Y-70.975
X243.5Y-76.975
X243.5Y-82.975
X243.5Y-88.975
X243.5Y-94.975
X243.5Y-100.975
T0
M30
