%FSLAX45Y45*%
G04 Gerber Fmt 4.5, Leading zero omitted, Abs format (unit mm)*
G04 Created by KiCad (PCBNEW 5.1.9+dfsg1-1) date 2022-02-13 09:10:32*
%MOMM*%
%LPD*%
G01*
G04 APERTURE LIST*
%TA.AperFunction,Profile*%
%ADD10C,0.100000*%
%TD*%
%ADD11C,0.200000*%
%ADD12C,0.300000*%
G04 APERTURE END LIST*
D10*
X15950000Y-3900000D02*
X15950000Y-13500000D01*
X11200000Y-3900000D02*
X15950000Y-3900000D01*
X11200000Y-13500000D02*
X11200000Y-3900000D01*
X15950000Y-13500000D02*
X11200000Y-13500000D01*
D11*
X11465000Y-4165000D02*
X11815000Y-4515000D01*
X11815000Y-4165000D02*
X11465000Y-4515000D01*
X11525000Y-10815000D02*
X11875000Y-11165000D01*
X11875000Y-10815000D02*
X11525000Y-11165000D01*
X14515000Y-8025000D02*
X14865000Y-8375000D01*
X14865000Y-8025000D02*
X14515000Y-8375000D01*
D12*
X11481428Y-13970714D02*
X11481428Y-13670714D01*
X11552857Y-13670714D01*
X11595714Y-13685000D01*
X11624286Y-13713571D01*
X11638571Y-13742143D01*
X11652857Y-13799286D01*
X11652857Y-13842143D01*
X11638571Y-13899286D01*
X11624286Y-13927857D01*
X11595714Y-13956429D01*
X11552857Y-13970714D01*
X11481428Y-13970714D01*
X11781428Y-13970714D02*
X11781428Y-13770714D01*
X11781428Y-13827857D02*
X11795714Y-13799286D01*
X11810000Y-13785000D01*
X11838571Y-13770714D01*
X11867143Y-13770714D01*
X11967143Y-13970714D02*
X11967143Y-13770714D01*
X11967143Y-13670714D02*
X11952857Y-13685000D01*
X11967143Y-13699286D01*
X11981428Y-13685000D01*
X11967143Y-13670714D01*
X11967143Y-13699286D01*
X12152857Y-13970714D02*
X12124286Y-13956429D01*
X12110000Y-13927857D01*
X12110000Y-13670714D01*
X12310000Y-13970714D02*
X12281428Y-13956429D01*
X12267143Y-13927857D01*
X12267143Y-13670714D01*
X12652857Y-13970714D02*
X12652857Y-13670714D01*
X12752857Y-13885000D01*
X12852857Y-13670714D01*
X12852857Y-13970714D01*
X13124286Y-13970714D02*
X13124286Y-13813571D01*
X13110000Y-13785000D01*
X13081428Y-13770714D01*
X13024286Y-13770714D01*
X12995714Y-13785000D01*
X13124286Y-13956429D02*
X13095714Y-13970714D01*
X13024286Y-13970714D01*
X12995714Y-13956429D01*
X12981428Y-13927857D01*
X12981428Y-13899286D01*
X12995714Y-13870714D01*
X13024286Y-13856429D01*
X13095714Y-13856429D01*
X13124286Y-13842143D01*
X13267143Y-13770714D02*
X13267143Y-14070714D01*
X13267143Y-13785000D02*
X13295714Y-13770714D01*
X13352857Y-13770714D01*
X13381428Y-13785000D01*
X13395714Y-13799286D01*
X13410000Y-13827857D01*
X13410000Y-13913571D01*
X13395714Y-13942143D01*
X13381428Y-13956429D01*
X13352857Y-13970714D01*
X13295714Y-13970714D01*
X13267143Y-13956429D01*
X13538571Y-13942143D02*
X13552857Y-13956429D01*
X13538571Y-13970714D01*
X13524286Y-13956429D01*
X13538571Y-13942143D01*
X13538571Y-13970714D01*
X13538571Y-13785000D02*
X13552857Y-13799286D01*
X13538571Y-13813571D01*
X13524286Y-13799286D01*
X13538571Y-13785000D01*
X13538571Y-13813571D01*
X10845000Y-14290000D02*
X11195000Y-14640000D01*
X11195000Y-14290000D02*
X10845000Y-14640000D01*
X11452857Y-14300714D02*
X11638571Y-14300714D01*
X11538571Y-14415000D01*
X11581428Y-14415000D01*
X11610000Y-14429286D01*
X11624286Y-14443571D01*
X11638571Y-14472143D01*
X11638571Y-14543571D01*
X11624286Y-14572143D01*
X11610000Y-14586429D01*
X11581428Y-14600714D01*
X11495714Y-14600714D01*
X11467143Y-14586429D01*
X11452857Y-14572143D01*
X11767143Y-14572143D02*
X11781428Y-14586429D01*
X11767143Y-14600714D01*
X11752857Y-14586429D01*
X11767143Y-14572143D01*
X11767143Y-14600714D01*
X12052857Y-14300714D02*
X11910000Y-14300714D01*
X11895714Y-14443571D01*
X11910000Y-14429286D01*
X11938571Y-14415000D01*
X12010000Y-14415000D01*
X12038571Y-14429286D01*
X12052857Y-14443571D01*
X12067143Y-14472143D01*
X12067143Y-14543571D01*
X12052857Y-14572143D01*
X12038571Y-14586429D01*
X12010000Y-14600714D01*
X11938571Y-14600714D01*
X11910000Y-14586429D01*
X11895714Y-14572143D01*
X12252857Y-14300714D02*
X12281428Y-14300714D01*
X12310000Y-14315000D01*
X12324286Y-14329286D01*
X12338571Y-14357857D01*
X12352857Y-14415000D01*
X12352857Y-14486429D01*
X12338571Y-14543571D01*
X12324286Y-14572143D01*
X12310000Y-14586429D01*
X12281428Y-14600714D01*
X12252857Y-14600714D01*
X12224286Y-14586429D01*
X12210000Y-14572143D01*
X12195714Y-14543571D01*
X12181428Y-14486429D01*
X12181428Y-14415000D01*
X12195714Y-14357857D01*
X12210000Y-14329286D01*
X12224286Y-14315000D01*
X12252857Y-14300714D01*
X12481428Y-14600714D02*
X12481428Y-14400714D01*
X12481428Y-14429286D02*
X12495714Y-14415000D01*
X12524286Y-14400714D01*
X12567143Y-14400714D01*
X12595714Y-14415000D01*
X12610000Y-14443571D01*
X12610000Y-14600714D01*
X12610000Y-14443571D02*
X12624286Y-14415000D01*
X12652857Y-14400714D01*
X12695714Y-14400714D01*
X12724286Y-14415000D01*
X12738571Y-14443571D01*
X12738571Y-14600714D01*
X12881428Y-14600714D02*
X12881428Y-14400714D01*
X12881428Y-14429286D02*
X12895714Y-14415000D01*
X12924286Y-14400714D01*
X12967143Y-14400714D01*
X12995714Y-14415000D01*
X13010000Y-14443571D01*
X13010000Y-14600714D01*
X13010000Y-14443571D02*
X13024286Y-14415000D01*
X13052857Y-14400714D01*
X13095714Y-14400714D01*
X13124286Y-14415000D01*
X13138571Y-14443571D01*
X13138571Y-14600714D01*
X13724286Y-14286429D02*
X13467143Y-14672143D01*
X14110000Y-14300714D02*
X14138571Y-14300714D01*
X14167143Y-14315000D01*
X14181428Y-14329286D01*
X14195714Y-14357857D01*
X14210000Y-14415000D01*
X14210000Y-14486429D01*
X14195714Y-14543571D01*
X14181428Y-14572143D01*
X14167143Y-14586429D01*
X14138571Y-14600714D01*
X14110000Y-14600714D01*
X14081428Y-14586429D01*
X14067143Y-14572143D01*
X14052857Y-14543571D01*
X14038571Y-14486429D01*
X14038571Y-14415000D01*
X14052857Y-14357857D01*
X14067143Y-14329286D01*
X14081428Y-14315000D01*
X14110000Y-14300714D01*
X14338571Y-14572143D02*
X14352857Y-14586429D01*
X14338571Y-14600714D01*
X14324286Y-14586429D01*
X14338571Y-14572143D01*
X14338571Y-14600714D01*
X14638571Y-14600714D02*
X14467143Y-14600714D01*
X14552857Y-14600714D02*
X14552857Y-14300714D01*
X14524286Y-14343571D01*
X14495714Y-14372143D01*
X14467143Y-14386429D01*
X14738571Y-14300714D02*
X14924286Y-14300714D01*
X14824286Y-14415000D01*
X14867143Y-14415000D01*
X14895714Y-14429286D01*
X14910000Y-14443571D01*
X14924286Y-14472143D01*
X14924286Y-14543571D01*
X14910000Y-14572143D01*
X14895714Y-14586429D01*
X14867143Y-14600714D01*
X14781428Y-14600714D01*
X14752857Y-14586429D01*
X14738571Y-14572143D01*
X15095714Y-14429286D02*
X15067143Y-14415000D01*
X15052857Y-14400714D01*
X15038571Y-14372143D01*
X15038571Y-14357857D01*
X15052857Y-14329286D01*
X15067143Y-14315000D01*
X15095714Y-14300714D01*
X15152857Y-14300714D01*
X15181428Y-14315000D01*
X15195714Y-14329286D01*
X15210000Y-14357857D01*
X15210000Y-14372143D01*
X15195714Y-14400714D01*
X15181428Y-14415000D01*
X15152857Y-14429286D01*
X15095714Y-14429286D01*
X15067143Y-14443571D01*
X15052857Y-14457857D01*
X15038571Y-14486429D01*
X15038571Y-14543571D01*
X15052857Y-14572143D01*
X15067143Y-14586429D01*
X15095714Y-14600714D01*
X15152857Y-14600714D01*
X15181428Y-14586429D01*
X15195714Y-14572143D01*
X15210000Y-14543571D01*
X15210000Y-14486429D01*
X15195714Y-14457857D01*
X15181428Y-14443571D01*
X15152857Y-14429286D01*
X15324286Y-14300714D02*
X15324286Y-14357857D01*
X15438571Y-14300714D02*
X15438571Y-14357857D01*
X15881428Y-14715000D02*
X15867143Y-14700714D01*
X15838571Y-14657857D01*
X15824286Y-14629286D01*
X15810000Y-14586429D01*
X15795714Y-14515000D01*
X15795714Y-14457857D01*
X15810000Y-14386429D01*
X15824286Y-14343571D01*
X15838571Y-14315000D01*
X15867143Y-14272143D01*
X15881428Y-14257857D01*
X15967143Y-14300714D02*
X16152857Y-14300714D01*
X16052857Y-14415000D01*
X16095714Y-14415000D01*
X16124286Y-14429286D01*
X16138571Y-14443571D01*
X16152857Y-14472143D01*
X16152857Y-14543571D01*
X16138571Y-14572143D01*
X16124286Y-14586429D01*
X16095714Y-14600714D01*
X16010000Y-14600714D01*
X15981428Y-14586429D01*
X15967143Y-14572143D01*
X16510000Y-14600714D02*
X16510000Y-14300714D01*
X16638571Y-14600714D02*
X16638571Y-14443571D01*
X16624286Y-14415000D01*
X16595714Y-14400714D01*
X16552857Y-14400714D01*
X16524286Y-14415000D01*
X16510000Y-14429286D01*
X16824286Y-14600714D02*
X16795714Y-14586429D01*
X16781428Y-14572143D01*
X16767143Y-14543571D01*
X16767143Y-14457857D01*
X16781428Y-14429286D01*
X16795714Y-14415000D01*
X16824286Y-14400714D01*
X16867143Y-14400714D01*
X16895714Y-14415000D01*
X16910000Y-14429286D01*
X16924286Y-14457857D01*
X16924286Y-14543571D01*
X16910000Y-14572143D01*
X16895714Y-14586429D01*
X16867143Y-14600714D01*
X16824286Y-14600714D01*
X17095714Y-14600714D02*
X17067143Y-14586429D01*
X17052857Y-14557857D01*
X17052857Y-14300714D01*
X17324286Y-14586429D02*
X17295714Y-14600714D01*
X17238571Y-14600714D01*
X17210000Y-14586429D01*
X17195714Y-14557857D01*
X17195714Y-14443571D01*
X17210000Y-14415000D01*
X17238571Y-14400714D01*
X17295714Y-14400714D01*
X17324286Y-14415000D01*
X17338571Y-14443571D01*
X17338571Y-14472143D01*
X17195714Y-14500714D01*
X17452857Y-14586429D02*
X17481428Y-14600714D01*
X17538571Y-14600714D01*
X17567143Y-14586429D01*
X17581428Y-14557857D01*
X17581428Y-14543571D01*
X17567143Y-14515000D01*
X17538571Y-14500714D01*
X17495714Y-14500714D01*
X17467143Y-14486429D01*
X17452857Y-14457857D01*
X17452857Y-14443571D01*
X17467143Y-14415000D01*
X17495714Y-14400714D01*
X17538571Y-14400714D01*
X17567143Y-14415000D01*
X17681428Y-14715000D02*
X17695714Y-14700714D01*
X17724286Y-14657857D01*
X17738571Y-14629286D01*
X17752857Y-14586429D01*
X17767143Y-14515000D01*
X17767143Y-14457857D01*
X17752857Y-14386429D01*
X17738571Y-14343571D01*
X17724286Y-14315000D01*
X17695714Y-14272143D01*
X17681428Y-14257857D01*
X18224286Y-14715000D02*
X18210000Y-14700714D01*
X18181428Y-14657857D01*
X18167143Y-14629286D01*
X18152857Y-14586429D01*
X18138571Y-14515000D01*
X18138571Y-14457857D01*
X18152857Y-14386429D01*
X18167143Y-14343571D01*
X18181428Y-14315000D01*
X18210000Y-14272143D01*
X18224286Y-14257857D01*
X18338571Y-14400714D02*
X18338571Y-14600714D01*
X18338571Y-14429286D02*
X18352857Y-14415000D01*
X18381428Y-14400714D01*
X18424286Y-14400714D01*
X18452857Y-14415000D01*
X18467143Y-14443571D01*
X18467143Y-14600714D01*
X18652857Y-14600714D02*
X18624286Y-14586429D01*
X18610000Y-14572143D01*
X18595714Y-14543571D01*
X18595714Y-14457857D01*
X18610000Y-14429286D01*
X18624286Y-14415000D01*
X18652857Y-14400714D01*
X18695714Y-14400714D01*
X18724286Y-14415000D01*
X18738571Y-14429286D01*
X18752857Y-14457857D01*
X18752857Y-14543571D01*
X18738571Y-14572143D01*
X18724286Y-14586429D01*
X18695714Y-14600714D01*
X18652857Y-14600714D01*
X18838571Y-14400714D02*
X18952857Y-14400714D01*
X18881428Y-14300714D02*
X18881428Y-14557857D01*
X18895714Y-14586429D01*
X18924286Y-14600714D01*
X18952857Y-14600714D01*
X19281428Y-14400714D02*
X19281428Y-14700714D01*
X19281428Y-14415000D02*
X19310000Y-14400714D01*
X19367143Y-14400714D01*
X19395714Y-14415000D01*
X19410000Y-14429286D01*
X19424286Y-14457857D01*
X19424286Y-14543571D01*
X19410000Y-14572143D01*
X19395714Y-14586429D01*
X19367143Y-14600714D01*
X19310000Y-14600714D01*
X19281428Y-14586429D01*
X19595714Y-14600714D02*
X19567143Y-14586429D01*
X19552857Y-14557857D01*
X19552857Y-14300714D01*
X19838571Y-14600714D02*
X19838571Y-14443571D01*
X19824286Y-14415000D01*
X19795714Y-14400714D01*
X19738571Y-14400714D01*
X19710000Y-14415000D01*
X19838571Y-14586429D02*
X19810000Y-14600714D01*
X19738571Y-14600714D01*
X19710000Y-14586429D01*
X19695714Y-14557857D01*
X19695714Y-14529286D01*
X19710000Y-14500714D01*
X19738571Y-14486429D01*
X19810000Y-14486429D01*
X19838571Y-14472143D01*
X19938571Y-14400714D02*
X20052857Y-14400714D01*
X19981428Y-14300714D02*
X19981428Y-14557857D01*
X19995714Y-14586429D01*
X20024286Y-14600714D01*
X20052857Y-14600714D01*
X20267143Y-14586429D02*
X20238571Y-14600714D01*
X20181428Y-14600714D01*
X20152857Y-14586429D01*
X20138571Y-14557857D01*
X20138571Y-14443571D01*
X20152857Y-14415000D01*
X20181428Y-14400714D01*
X20238571Y-14400714D01*
X20267143Y-14415000D01*
X20281428Y-14443571D01*
X20281428Y-14472143D01*
X20138571Y-14500714D01*
X20538571Y-14600714D02*
X20538571Y-14300714D01*
X20538571Y-14586429D02*
X20510000Y-14600714D01*
X20452857Y-14600714D01*
X20424286Y-14586429D01*
X20410000Y-14572143D01*
X20395714Y-14543571D01*
X20395714Y-14457857D01*
X20410000Y-14429286D01*
X20424286Y-14415000D01*
X20452857Y-14400714D01*
X20510000Y-14400714D01*
X20538571Y-14415000D01*
X20652857Y-14715000D02*
X20667143Y-14700714D01*
X20695714Y-14657857D01*
X20710000Y-14629286D01*
X20724286Y-14586429D01*
X20738571Y-14515000D01*
X20738571Y-14457857D01*
X20724286Y-14386429D01*
X20710000Y-14343571D01*
X20695714Y-14315000D01*
X20667143Y-14272143D01*
X20652857Y-14257857D01*
M02*
