%TF.GenerationSoftware,KiCad,Pcbnew,6.0.2+dfsg-1~bpo11+1*%
%TF.CreationDate,2022-05-04T11:35:57-04:00*%
%TF.ProjectId,eurorack_to_3v3,6575726f-7261-4636-9b5f-746f5f337633,1*%
%TF.SameCoordinates,Original*%
%TF.FileFunction,Soldermask,Bot*%
%TF.FilePolarity,Negative*%
%FSLAX46Y46*%
G04 Gerber Fmt 4.6, Leading zero omitted, Abs format (unit mm)*
G04 Created by KiCad (PCBNEW 6.0.2+dfsg-1~bpo11+1) date 2022-05-04 11:35:57*
%MOMM*%
%LPD*%
G01*
G04 APERTURE LIST*
G04 Aperture macros list*
%AMRoundRect*
0 Rectangle with rounded corners*
0 $1 Rounding radius*
0 $2 $3 $4 $5 $6 $7 $8 $9 X,Y pos of 4 corners*
0 Add a 4 corners polygon primitive as box body*
4,1,4,$2,$3,$4,$5,$6,$7,$8,$9,$2,$3,0*
0 Add four circle primitives for the rounded corners*
1,1,$1+$1,$2,$3*
1,1,$1+$1,$4,$5*
1,1,$1+$1,$6,$7*
1,1,$1+$1,$8,$9*
0 Add four rect primitives between the rounded corners*
20,1,$1+$1,$2,$3,$4,$5,0*
20,1,$1+$1,$4,$5,$6,$7,0*
20,1,$1+$1,$6,$7,$8,$9,0*
20,1,$1+$1,$8,$9,$2,$3,0*%
G04 Aperture macros list end*
%ADD10R,1.524000X1.524000*%
%ADD11C,1.524000*%
%ADD12C,3.500000*%
%ADD13RoundRect,0.250000X0.600000X-0.600000X0.600000X0.600000X-0.600000X0.600000X-0.600000X-0.600000X0*%
%ADD14C,1.700000*%
%ADD15RoundRect,0.250000X-0.600000X0.600000X-0.600000X-0.600000X0.600000X-0.600000X0.600000X0.600000X0*%
G04 APERTURE END LIST*
D10*
%TO.C,J2*%
X116600000Y-67832000D03*
D11*
X116600000Y-65800000D03*
X116600000Y-63800000D03*
X116600000Y-61800000D03*
%TD*%
D10*
%TO.C,J3*%
X116600000Y-56632000D03*
D11*
X116600000Y-54600000D03*
X116600000Y-52600000D03*
X116600000Y-50600000D03*
%TD*%
D10*
%TO.C,J4*%
X116600000Y-91532000D03*
D11*
X116600000Y-89500000D03*
X116600000Y-87500000D03*
X116600000Y-85500000D03*
%TD*%
D10*
%TO.C,J7*%
X116600000Y-79732000D03*
D11*
X116600000Y-77700000D03*
X116600000Y-75700000D03*
X116600000Y-73700000D03*
%TD*%
D12*
%TO.C,H1*%
X116400000Y-43400000D03*
%TD*%
%TO.C,H2*%
X146900000Y-82000000D03*
%TD*%
%TO.C,H3*%
X117000000Y-109900000D03*
%TD*%
D10*
%TO.C,J1*%
X154200000Y-49532000D03*
D11*
X154200000Y-47500000D03*
X154200000Y-45500000D03*
X154200000Y-43500000D03*
%TD*%
D10*
%TO.C,J8*%
X154200000Y-61532000D03*
D11*
X154200000Y-59500000D03*
X154200000Y-57500000D03*
X154200000Y-55500000D03*
%TD*%
D10*
%TO.C,J9*%
X154300000Y-73532000D03*
D11*
X154300000Y-71500000D03*
X154300000Y-69500000D03*
X154300000Y-67500000D03*
%TD*%
D13*
%TO.C,J5*%
X129700000Y-129200000D03*
D14*
X129700000Y-126660000D03*
X127160000Y-129200000D03*
X127160000Y-126660000D03*
X124620000Y-129200000D03*
X124620000Y-126660000D03*
X122080000Y-129200000D03*
X122080000Y-126660000D03*
X119540000Y-129200000D03*
X119540000Y-126660000D03*
%TD*%
D15*
%TO.C,J6*%
X141900000Y-126700000D03*
D14*
X141900000Y-129240000D03*
X144440000Y-126700000D03*
X144440000Y-129240000D03*
X146980000Y-126700000D03*
X146980000Y-129240000D03*
X149520000Y-126700000D03*
X149520000Y-129240000D03*
X152060000Y-126700000D03*
X152060000Y-129240000D03*
%TD*%
M02*
