%FSLAX45Y45*%
G04 Gerber Fmt 4.5, Leading zero omitted, Abs format (unit mm)*
G04 Created by KiCad (PCBNEW 6.0.2+dfsg-1~bpo11+1) date 2022-05-04 11:37:20*
%MOMM*%
%LPD*%
G01*
G04 APERTURE LIST*
%TA.AperFunction,Profile*%
%ADD10C,0.100000*%
%TD*%
%ADD11C,0.200000*%
%ADD12C,0.350000*%
G04 APERTURE END LIST*
D10*
X15950000Y-3900000D02*
X15950000Y-13500000D01*
X11200000Y-13500000D02*
X11200000Y-3900000D01*
X15950000Y-13500000D02*
X11200000Y-13500000D01*
X11200000Y-3900000D02*
X15950000Y-3900000D01*
D11*
D12*
X11465000Y-4165000D02*
X11815000Y-4515000D01*
X11815000Y-4165000D02*
X11465000Y-4515000D01*
X11525000Y-10815000D02*
X11875000Y-11165000D01*
X11875000Y-10815000D02*
X11525000Y-11165000D01*
X14515000Y-8025000D02*
X14865000Y-8375000D01*
X14865000Y-8025000D02*
X14515000Y-8375000D01*
D11*
X11452619Y-13815476D02*
X11452619Y-13615476D01*
X11500238Y-13615476D01*
X11528809Y-13625000D01*
X11547857Y-13644048D01*
X11557381Y-13663095D01*
X11566905Y-13701190D01*
X11566905Y-13729762D01*
X11557381Y-13767857D01*
X11547857Y-13786905D01*
X11528809Y-13805952D01*
X11500238Y-13815476D01*
X11452619Y-13815476D01*
X11652619Y-13815476D02*
X11652619Y-13682143D01*
X11652619Y-13720238D02*
X11662143Y-13701190D01*
X11671667Y-13691667D01*
X11690714Y-13682143D01*
X11709762Y-13682143D01*
X11776428Y-13815476D02*
X11776428Y-13682143D01*
X11776428Y-13615476D02*
X11766905Y-13625000D01*
X11776428Y-13634524D01*
X11785952Y-13625000D01*
X11776428Y-13615476D01*
X11776428Y-13634524D01*
X11900238Y-13815476D02*
X11881190Y-13805952D01*
X11871667Y-13786905D01*
X11871667Y-13615476D01*
X12005000Y-13815476D02*
X11985952Y-13805952D01*
X11976428Y-13786905D01*
X11976428Y-13615476D01*
X12233571Y-13815476D02*
X12233571Y-13615476D01*
X12300238Y-13758333D01*
X12366905Y-13615476D01*
X12366905Y-13815476D01*
X12547857Y-13815476D02*
X12547857Y-13710714D01*
X12538333Y-13691667D01*
X12519286Y-13682143D01*
X12481190Y-13682143D01*
X12462143Y-13691667D01*
X12547857Y-13805952D02*
X12528809Y-13815476D01*
X12481190Y-13815476D01*
X12462143Y-13805952D01*
X12452619Y-13786905D01*
X12452619Y-13767857D01*
X12462143Y-13748809D01*
X12481190Y-13739286D01*
X12528809Y-13739286D01*
X12547857Y-13729762D01*
X12643095Y-13682143D02*
X12643095Y-13882143D01*
X12643095Y-13691667D02*
X12662143Y-13682143D01*
X12700238Y-13682143D01*
X12719286Y-13691667D01*
X12728809Y-13701190D01*
X12738333Y-13720238D01*
X12738333Y-13777381D01*
X12728809Y-13796428D01*
X12719286Y-13805952D01*
X12700238Y-13815476D01*
X12662143Y-13815476D01*
X12643095Y-13805952D01*
X12824048Y-13796428D02*
X12833571Y-13805952D01*
X12824048Y-13815476D01*
X12814524Y-13805952D01*
X12824048Y-13796428D01*
X12824048Y-13815476D01*
X12824048Y-13691667D02*
X12833571Y-13701190D01*
X12824048Y-13710714D01*
X12814524Y-13701190D01*
X12824048Y-13691667D01*
X12824048Y-13710714D01*
X10995000Y-14045000D02*
X11195000Y-14245000D01*
X11195000Y-14045000D02*
X10995000Y-14245000D01*
X11433571Y-14035476D02*
X11557381Y-14035476D01*
X11490714Y-14111667D01*
X11519286Y-14111667D01*
X11538333Y-14121190D01*
X11547857Y-14130714D01*
X11557381Y-14149762D01*
X11557381Y-14197381D01*
X11547857Y-14216428D01*
X11538333Y-14225952D01*
X11519286Y-14235476D01*
X11462143Y-14235476D01*
X11443095Y-14225952D01*
X11433571Y-14216428D01*
X11643095Y-14216428D02*
X11652619Y-14225952D01*
X11643095Y-14235476D01*
X11633571Y-14225952D01*
X11643095Y-14216428D01*
X11643095Y-14235476D01*
X11833571Y-14035476D02*
X11738333Y-14035476D01*
X11728809Y-14130714D01*
X11738333Y-14121190D01*
X11757381Y-14111667D01*
X11805000Y-14111667D01*
X11824048Y-14121190D01*
X11833571Y-14130714D01*
X11843095Y-14149762D01*
X11843095Y-14197381D01*
X11833571Y-14216428D01*
X11824048Y-14225952D01*
X11805000Y-14235476D01*
X11757381Y-14235476D01*
X11738333Y-14225952D01*
X11728809Y-14216428D01*
X11966905Y-14035476D02*
X11985952Y-14035476D01*
X12005000Y-14045000D01*
X12014524Y-14054524D01*
X12024048Y-14073571D01*
X12033571Y-14111667D01*
X12033571Y-14159286D01*
X12024048Y-14197381D01*
X12014524Y-14216428D01*
X12005000Y-14225952D01*
X11985952Y-14235476D01*
X11966905Y-14235476D01*
X11947857Y-14225952D01*
X11938333Y-14216428D01*
X11928809Y-14197381D01*
X11919286Y-14159286D01*
X11919286Y-14111667D01*
X11928809Y-14073571D01*
X11938333Y-14054524D01*
X11947857Y-14045000D01*
X11966905Y-14035476D01*
X12157381Y-14035476D02*
X12176428Y-14035476D01*
X12195476Y-14045000D01*
X12205000Y-14054524D01*
X12214524Y-14073571D01*
X12224048Y-14111667D01*
X12224048Y-14159286D01*
X12214524Y-14197381D01*
X12205000Y-14216428D01*
X12195476Y-14225952D01*
X12176428Y-14235476D01*
X12157381Y-14235476D01*
X12138333Y-14225952D01*
X12128809Y-14216428D01*
X12119286Y-14197381D01*
X12109762Y-14159286D01*
X12109762Y-14111667D01*
X12119286Y-14073571D01*
X12128809Y-14054524D01*
X12138333Y-14045000D01*
X12157381Y-14035476D01*
X12309762Y-14235476D02*
X12309762Y-14102143D01*
X12309762Y-14121190D02*
X12319286Y-14111667D01*
X12338333Y-14102143D01*
X12366905Y-14102143D01*
X12385952Y-14111667D01*
X12395476Y-14130714D01*
X12395476Y-14235476D01*
X12395476Y-14130714D02*
X12405000Y-14111667D01*
X12424048Y-14102143D01*
X12452619Y-14102143D01*
X12471667Y-14111667D01*
X12481190Y-14130714D01*
X12481190Y-14235476D01*
X12576428Y-14235476D02*
X12576428Y-14102143D01*
X12576428Y-14121190D02*
X12585952Y-14111667D01*
X12605000Y-14102143D01*
X12633571Y-14102143D01*
X12652619Y-14111667D01*
X12662143Y-14130714D01*
X12662143Y-14235476D01*
X12662143Y-14130714D02*
X12671667Y-14111667D01*
X12690714Y-14102143D01*
X12719286Y-14102143D01*
X12738333Y-14111667D01*
X12747857Y-14130714D01*
X12747857Y-14235476D01*
X13138333Y-14025952D02*
X12966905Y-14283095D01*
X13395476Y-14035476D02*
X13414524Y-14035476D01*
X13433571Y-14045000D01*
X13443095Y-14054524D01*
X13452619Y-14073571D01*
X13462143Y-14111667D01*
X13462143Y-14159286D01*
X13452619Y-14197381D01*
X13443095Y-14216428D01*
X13433571Y-14225952D01*
X13414524Y-14235476D01*
X13395476Y-14235476D01*
X13376428Y-14225952D01*
X13366905Y-14216428D01*
X13357381Y-14197381D01*
X13347857Y-14159286D01*
X13347857Y-14111667D01*
X13357381Y-14073571D01*
X13366905Y-14054524D01*
X13376428Y-14045000D01*
X13395476Y-14035476D01*
X13547857Y-14216428D02*
X13557381Y-14225952D01*
X13547857Y-14235476D01*
X13538333Y-14225952D01*
X13547857Y-14216428D01*
X13547857Y-14235476D01*
X13747857Y-14235476D02*
X13633571Y-14235476D01*
X13690714Y-14235476D02*
X13690714Y-14035476D01*
X13671667Y-14064048D01*
X13652619Y-14083095D01*
X13633571Y-14092619D01*
X13814524Y-14035476D02*
X13938333Y-14035476D01*
X13871667Y-14111667D01*
X13900238Y-14111667D01*
X13919286Y-14121190D01*
X13928809Y-14130714D01*
X13938333Y-14149762D01*
X13938333Y-14197381D01*
X13928809Y-14216428D01*
X13919286Y-14225952D01*
X13900238Y-14235476D01*
X13843095Y-14235476D01*
X13824048Y-14225952D01*
X13814524Y-14216428D01*
X14005000Y-14035476D02*
X14138333Y-14035476D01*
X14052619Y-14235476D01*
X14243095Y-14121190D02*
X14224048Y-14111667D01*
X14214524Y-14102143D01*
X14205000Y-14083095D01*
X14205000Y-14073571D01*
X14214524Y-14054524D01*
X14224048Y-14045000D01*
X14243095Y-14035476D01*
X14281190Y-14035476D01*
X14300238Y-14045000D01*
X14309762Y-14054524D01*
X14319286Y-14073571D01*
X14319286Y-14083095D01*
X14309762Y-14102143D01*
X14300238Y-14111667D01*
X14281190Y-14121190D01*
X14243095Y-14121190D01*
X14224048Y-14130714D01*
X14214524Y-14140238D01*
X14205000Y-14159286D01*
X14205000Y-14197381D01*
X14214524Y-14216428D01*
X14224048Y-14225952D01*
X14243095Y-14235476D01*
X14281190Y-14235476D01*
X14300238Y-14225952D01*
X14309762Y-14216428D01*
X14319286Y-14197381D01*
X14319286Y-14159286D01*
X14309762Y-14140238D01*
X14300238Y-14130714D01*
X14281190Y-14121190D01*
X14395476Y-14035476D02*
X14395476Y-14073571D01*
X14471667Y-14035476D02*
X14471667Y-14073571D01*
X14766905Y-14311667D02*
X14757381Y-14302143D01*
X14738333Y-14273571D01*
X14728809Y-14254524D01*
X14719286Y-14225952D01*
X14709762Y-14178333D01*
X14709762Y-14140238D01*
X14719286Y-14092619D01*
X14728809Y-14064048D01*
X14738333Y-14045000D01*
X14757381Y-14016428D01*
X14766905Y-14006905D01*
X14824048Y-14035476D02*
X14947857Y-14035476D01*
X14881190Y-14111667D01*
X14909762Y-14111667D01*
X14928809Y-14121190D01*
X14938333Y-14130714D01*
X14947857Y-14149762D01*
X14947857Y-14197381D01*
X14938333Y-14216428D01*
X14928809Y-14225952D01*
X14909762Y-14235476D01*
X14852619Y-14235476D01*
X14833571Y-14225952D01*
X14824048Y-14216428D01*
X15185952Y-14235476D02*
X15185952Y-14035476D01*
X15271667Y-14235476D02*
X15271667Y-14130714D01*
X15262143Y-14111667D01*
X15243095Y-14102143D01*
X15214524Y-14102143D01*
X15195476Y-14111667D01*
X15185952Y-14121190D01*
X15395476Y-14235476D02*
X15376428Y-14225952D01*
X15366905Y-14216428D01*
X15357381Y-14197381D01*
X15357381Y-14140238D01*
X15366905Y-14121190D01*
X15376428Y-14111667D01*
X15395476Y-14102143D01*
X15424048Y-14102143D01*
X15443095Y-14111667D01*
X15452619Y-14121190D01*
X15462143Y-14140238D01*
X15462143Y-14197381D01*
X15452619Y-14216428D01*
X15443095Y-14225952D01*
X15424048Y-14235476D01*
X15395476Y-14235476D01*
X15576428Y-14235476D02*
X15557381Y-14225952D01*
X15547857Y-14206905D01*
X15547857Y-14035476D01*
X15728809Y-14225952D02*
X15709762Y-14235476D01*
X15671667Y-14235476D01*
X15652619Y-14225952D01*
X15643095Y-14206905D01*
X15643095Y-14130714D01*
X15652619Y-14111667D01*
X15671667Y-14102143D01*
X15709762Y-14102143D01*
X15728809Y-14111667D01*
X15738333Y-14130714D01*
X15738333Y-14149762D01*
X15643095Y-14168809D01*
X15814524Y-14225952D02*
X15833571Y-14235476D01*
X15871667Y-14235476D01*
X15890714Y-14225952D01*
X15900238Y-14206905D01*
X15900238Y-14197381D01*
X15890714Y-14178333D01*
X15871667Y-14168809D01*
X15843095Y-14168809D01*
X15824048Y-14159286D01*
X15814524Y-14140238D01*
X15814524Y-14130714D01*
X15824048Y-14111667D01*
X15843095Y-14102143D01*
X15871667Y-14102143D01*
X15890714Y-14111667D01*
X15966905Y-14311667D02*
X15976428Y-14302143D01*
X15995476Y-14273571D01*
X16005000Y-14254524D01*
X16014524Y-14225952D01*
X16024048Y-14178333D01*
X16024048Y-14140238D01*
X16014524Y-14092619D01*
X16005000Y-14064048D01*
X15995476Y-14045000D01*
X15976428Y-14016428D01*
X15966905Y-14006905D01*
X16328809Y-14311667D02*
X16319286Y-14302143D01*
X16300238Y-14273571D01*
X16290714Y-14254524D01*
X16281190Y-14225952D01*
X16271667Y-14178333D01*
X16271667Y-14140238D01*
X16281190Y-14092619D01*
X16290714Y-14064048D01*
X16300238Y-14045000D01*
X16319286Y-14016428D01*
X16328809Y-14006905D01*
X16405000Y-14102143D02*
X16405000Y-14235476D01*
X16405000Y-14121190D02*
X16414524Y-14111667D01*
X16433571Y-14102143D01*
X16462143Y-14102143D01*
X16481190Y-14111667D01*
X16490714Y-14130714D01*
X16490714Y-14235476D01*
X16614524Y-14235476D02*
X16595476Y-14225952D01*
X16585952Y-14216428D01*
X16576428Y-14197381D01*
X16576428Y-14140238D01*
X16585952Y-14121190D01*
X16595476Y-14111667D01*
X16614524Y-14102143D01*
X16643095Y-14102143D01*
X16662143Y-14111667D01*
X16671667Y-14121190D01*
X16681190Y-14140238D01*
X16681190Y-14197381D01*
X16671667Y-14216428D01*
X16662143Y-14225952D01*
X16643095Y-14235476D01*
X16614524Y-14235476D01*
X16738333Y-14102143D02*
X16814524Y-14102143D01*
X16766905Y-14035476D02*
X16766905Y-14206905D01*
X16776428Y-14225952D01*
X16795476Y-14235476D01*
X16814524Y-14235476D01*
X17033571Y-14102143D02*
X17033571Y-14302143D01*
X17033571Y-14111667D02*
X17052619Y-14102143D01*
X17090714Y-14102143D01*
X17109762Y-14111667D01*
X17119286Y-14121190D01*
X17128810Y-14140238D01*
X17128810Y-14197381D01*
X17119286Y-14216428D01*
X17109762Y-14225952D01*
X17090714Y-14235476D01*
X17052619Y-14235476D01*
X17033571Y-14225952D01*
X17243095Y-14235476D02*
X17224048Y-14225952D01*
X17214524Y-14206905D01*
X17214524Y-14035476D01*
X17405000Y-14235476D02*
X17405000Y-14130714D01*
X17395476Y-14111667D01*
X17376429Y-14102143D01*
X17338333Y-14102143D01*
X17319286Y-14111667D01*
X17405000Y-14225952D02*
X17385952Y-14235476D01*
X17338333Y-14235476D01*
X17319286Y-14225952D01*
X17309762Y-14206905D01*
X17309762Y-14187857D01*
X17319286Y-14168809D01*
X17338333Y-14159286D01*
X17385952Y-14159286D01*
X17405000Y-14149762D01*
X17471667Y-14102143D02*
X17547857Y-14102143D01*
X17500238Y-14035476D02*
X17500238Y-14206905D01*
X17509762Y-14225952D01*
X17528810Y-14235476D01*
X17547857Y-14235476D01*
X17690714Y-14225952D02*
X17671667Y-14235476D01*
X17633571Y-14235476D01*
X17614524Y-14225952D01*
X17605000Y-14206905D01*
X17605000Y-14130714D01*
X17614524Y-14111667D01*
X17633571Y-14102143D01*
X17671667Y-14102143D01*
X17690714Y-14111667D01*
X17700238Y-14130714D01*
X17700238Y-14149762D01*
X17605000Y-14168809D01*
X17871667Y-14235476D02*
X17871667Y-14035476D01*
X17871667Y-14225952D02*
X17852619Y-14235476D01*
X17814524Y-14235476D01*
X17795476Y-14225952D01*
X17785952Y-14216428D01*
X17776429Y-14197381D01*
X17776429Y-14140238D01*
X17785952Y-14121190D01*
X17795476Y-14111667D01*
X17814524Y-14102143D01*
X17852619Y-14102143D01*
X17871667Y-14111667D01*
X17947857Y-14311667D02*
X17957381Y-14302143D01*
X17976429Y-14273571D01*
X17985952Y-14254524D01*
X17995476Y-14225952D01*
X18005000Y-14178333D01*
X18005000Y-14140238D01*
X17995476Y-14092619D01*
X17985952Y-14064048D01*
X17976429Y-14045000D01*
X17957381Y-14016428D01*
X17947857Y-14006905D01*
M02*
