%TF.GenerationSoftware,KiCad,Pcbnew,6.0.2+dfsg-1~bpo11+1*%
%TF.CreationDate,2022-05-04T11:35:56-04:00*%
%TF.ProjectId,eurorack_to_3v3,6575726f-7261-4636-9b5f-746f5f337633,1*%
%TF.SameCoordinates,Original*%
%TF.FileFunction,Legend,Bot*%
%TF.FilePolarity,Positive*%
%FSLAX46Y46*%
G04 Gerber Fmt 4.6, Leading zero omitted, Abs format (unit mm)*
G04 Created by KiCad (PCBNEW 6.0.2+dfsg-1~bpo11+1) date 2022-05-04 11:35:56*
%MOMM*%
%LPD*%
G01*
G04 APERTURE LIST*
G04 Aperture macros list*
%AMRoundRect*
0 Rectangle with rounded corners*
0 $1 Rounding radius*
0 $2 $3 $4 $5 $6 $7 $8 $9 X,Y pos of 4 corners*
0 Add a 4 corners polygon primitive as box body*
4,1,4,$2,$3,$4,$5,$6,$7,$8,$9,$2,$3,0*
0 Add four circle primitives for the rounded corners*
1,1,$1+$1,$2,$3*
1,1,$1+$1,$4,$5*
1,1,$1+$1,$6,$7*
1,1,$1+$1,$8,$9*
0 Add four rect primitives between the rounded corners*
20,1,$1+$1,$2,$3,$4,$5,0*
20,1,$1+$1,$4,$5,$6,$7,0*
20,1,$1+$1,$6,$7,$8,$9,0*
20,1,$1+$1,$8,$9,$2,$3,0*%
G04 Aperture macros list end*
%ADD10C,0.500000*%
%ADD11C,0.350000*%
%ADD12C,0.150000*%
%ADD13C,0.120000*%
%ADD14R,1.524000X1.524000*%
%ADD15C,1.524000*%
%ADD16C,3.500000*%
%ADD17RoundRect,0.250000X0.600000X-0.600000X0.600000X0.600000X-0.600000X0.600000X-0.600000X-0.600000X0*%
%ADD18C,1.700000*%
%ADD19RoundRect,0.250000X-0.600000X0.600000X-0.600000X-0.600000X0.600000X-0.600000X0.600000X0.600000X0*%
G04 APERTURE END LIST*
D10*
X146100000Y-53941428D02*
X145242857Y-54227142D01*
X144957142Y-54512857D01*
X144671428Y-55084285D01*
X144671428Y-55941428D01*
X144957142Y-56512857D01*
X145242857Y-56798571D01*
X145814285Y-57084285D01*
X148100000Y-57084285D01*
X148100000Y-51084285D01*
X146100000Y-51084285D01*
X145528571Y-51370000D01*
X145242857Y-51655714D01*
X144957142Y-52227142D01*
X144957142Y-52798571D01*
X145242857Y-53370000D01*
X145528571Y-53655714D01*
X146100000Y-53941428D01*
X148100000Y-53941428D01*
X142100000Y-57084285D02*
X142100000Y-53084285D01*
X142100000Y-51084285D02*
X142385714Y-51370000D01*
X142100000Y-51655714D01*
X141814285Y-51370000D01*
X142100000Y-51084285D01*
X142100000Y-51655714D01*
X139242857Y-57084285D02*
X139242857Y-53084285D01*
X139242857Y-51084285D02*
X139528571Y-51370000D01*
X139242857Y-51655714D01*
X138957142Y-51370000D01*
X139242857Y-51084285D01*
X139242857Y-51655714D01*
X136385714Y-57084285D02*
X136385714Y-53084285D01*
X136385714Y-51084285D02*
X136671428Y-51370000D01*
X136385714Y-51655714D01*
X136100000Y-51370000D01*
X136385714Y-51084285D01*
X136385714Y-51655714D01*
X133528571Y-57084285D02*
X133528571Y-53084285D01*
X133528571Y-51084285D02*
X133814285Y-51370000D01*
X133528571Y-51655714D01*
X133242857Y-51370000D01*
X133528571Y-51084285D01*
X133528571Y-51655714D01*
X130671428Y-57084285D02*
X130671428Y-53084285D01*
X130671428Y-51084285D02*
X130957142Y-51370000D01*
X130671428Y-51655714D01*
X130385714Y-51370000D01*
X130671428Y-51084285D01*
X130671428Y-51655714D01*
X127814285Y-57084285D02*
X127814285Y-53084285D01*
X127814285Y-51084285D02*
X128100000Y-51370000D01*
X127814285Y-51655714D01*
X127528571Y-51370000D01*
X127814285Y-51084285D01*
X127814285Y-51655714D01*
X124957142Y-57084285D02*
X124957142Y-53084285D01*
X124957142Y-51084285D02*
X125242857Y-51370000D01*
X124957142Y-51655714D01*
X124671428Y-51370000D01*
X124957142Y-51084285D01*
X124957142Y-51655714D01*
X122100000Y-57084285D02*
X122100000Y-53084285D01*
X122100000Y-51084285D02*
X122385714Y-51370000D01*
X122100000Y-51655714D01*
X121814285Y-51370000D01*
X122100000Y-51084285D01*
X122100000Y-51655714D01*
X116100000Y-51370000D02*
X116671428Y-51084285D01*
X117528571Y-51084285D01*
X118385714Y-51370000D01*
X118957142Y-51941428D01*
X119242857Y-52512857D01*
X119528571Y-53655714D01*
X119528571Y-54512857D01*
X119242857Y-55655714D01*
X118957142Y-56227142D01*
X118385714Y-56798571D01*
X117528571Y-57084285D01*
X116957142Y-57084285D01*
X116100000Y-56798571D01*
X115814285Y-56512857D01*
X115814285Y-54512857D01*
X116957142Y-54512857D01*
X148100000Y-60744285D02*
X146957142Y-60744285D01*
X146385714Y-61030000D01*
X145814285Y-61601428D01*
X145528571Y-62744285D01*
X145528571Y-64744285D01*
X145814285Y-65887142D01*
X146385714Y-66458571D01*
X146957142Y-66744285D01*
X148100000Y-66744285D01*
X148671428Y-66458571D01*
X149242857Y-65887142D01*
X149528571Y-64744285D01*
X149528571Y-62744285D01*
X149242857Y-61601428D01*
X148671428Y-61030000D01*
X148100000Y-60744285D01*
X142957142Y-62744285D02*
X142957142Y-66744285D01*
X142957142Y-63315714D02*
X142671428Y-63030000D01*
X142100000Y-62744285D01*
X141242857Y-62744285D01*
X140671428Y-63030000D01*
X140385714Y-63601428D01*
X140385714Y-66744285D01*
X137528571Y-63601428D02*
X135528571Y-63601428D01*
X134671428Y-66744285D02*
X137528571Y-66744285D01*
X137528571Y-60744285D01*
X134671428Y-60744285D01*
X132100000Y-66172857D02*
X131814285Y-66458571D01*
X132100000Y-66744285D01*
X132385714Y-66458571D01*
X132100000Y-66172857D01*
X132100000Y-66744285D01*
X129242857Y-66172857D02*
X128957142Y-66458571D01*
X129242857Y-66744285D01*
X129528571Y-66458571D01*
X129242857Y-66172857D01*
X129242857Y-66744285D01*
X126385714Y-66172857D02*
X126100000Y-66458571D01*
X126385714Y-66744285D01*
X126671428Y-66458571D01*
X126385714Y-66172857D01*
X126385714Y-66744285D01*
X123528571Y-66172857D02*
X123242857Y-66458571D01*
X123528571Y-66744285D01*
X123814285Y-66458571D01*
X123528571Y-66172857D01*
X123528571Y-66744285D01*
X120671428Y-66172857D02*
X120385714Y-66458571D01*
X120671428Y-66744285D01*
X120957142Y-66458571D01*
X120671428Y-66172857D01*
X120671428Y-66744285D01*
X117814285Y-66172857D02*
X117528571Y-66458571D01*
X117814285Y-66744285D01*
X118100000Y-66458571D01*
X117814285Y-66172857D01*
X117814285Y-66744285D01*
X114957142Y-66172857D02*
X114671428Y-66458571D01*
X114957142Y-66744285D01*
X115242857Y-66458571D01*
X114957142Y-66172857D01*
X114957142Y-66744285D01*
D11*
X146485714Y-115257142D02*
X146771428Y-115114285D01*
X146914285Y-114828571D01*
X146914285Y-112257142D01*
X145342857Y-115257142D02*
X145342857Y-113257142D01*
X145342857Y-112257142D02*
X145485714Y-112400000D01*
X145342857Y-112542857D01*
X145200000Y-112400000D01*
X145342857Y-112257142D01*
X145342857Y-112542857D01*
X144342857Y-113257142D02*
X143200000Y-113257142D01*
X143914285Y-112257142D02*
X143914285Y-114828571D01*
X143771428Y-115114285D01*
X143485714Y-115257142D01*
X143200000Y-115257142D01*
X142628571Y-113257142D02*
X141485714Y-113257142D01*
X142200000Y-112257142D02*
X142200000Y-114828571D01*
X142057142Y-115114285D01*
X141771428Y-115257142D01*
X141485714Y-115257142D01*
X140057142Y-115257142D02*
X140342857Y-115114285D01*
X140485714Y-114828571D01*
X140485714Y-112257142D01*
X137771428Y-115114285D02*
X138057142Y-115257142D01*
X138628571Y-115257142D01*
X138914285Y-115114285D01*
X139057142Y-114828571D01*
X139057142Y-113685714D01*
X138914285Y-113400000D01*
X138628571Y-113257142D01*
X138057142Y-113257142D01*
X137771428Y-113400000D01*
X137628571Y-113685714D01*
X137628571Y-113971428D01*
X139057142Y-114257142D01*
X133628571Y-115257142D02*
X133914285Y-115114285D01*
X134057142Y-114971428D01*
X134200000Y-114685714D01*
X134200000Y-113828571D01*
X134057142Y-113542857D01*
X133914285Y-113400000D01*
X133628571Y-113257142D01*
X133200000Y-113257142D01*
X132914285Y-113400000D01*
X132771428Y-113542857D01*
X132628571Y-113828571D01*
X132628571Y-114685714D01*
X132771428Y-114971428D01*
X132914285Y-115114285D01*
X133200000Y-115257142D01*
X133628571Y-115257142D01*
X131342857Y-113257142D02*
X131342857Y-115257142D01*
X131342857Y-113542857D02*
X131200000Y-113400000D01*
X130914285Y-113257142D01*
X130485714Y-113257142D01*
X130200000Y-113400000D01*
X130057142Y-113685714D01*
X130057142Y-115257142D01*
X127485714Y-115114285D02*
X127771428Y-115257142D01*
X128342857Y-115257142D01*
X128628571Y-115114285D01*
X128771428Y-114828571D01*
X128771428Y-113685714D01*
X128628571Y-113400000D01*
X128342857Y-113257142D01*
X127771428Y-113257142D01*
X127485714Y-113400000D01*
X127342857Y-113685714D01*
X127342857Y-113971428D01*
X128771428Y-114257142D01*
D12*
%TO.C,J1*%
X150352380Y-45666666D02*
X151066666Y-45666666D01*
X151209523Y-45619047D01*
X151304761Y-45523809D01*
X151352380Y-45380952D01*
X151352380Y-45285714D01*
X151352380Y-46666666D02*
X151352380Y-46095238D01*
X151352380Y-46380952D02*
X150352380Y-46380952D01*
X150495238Y-46285714D01*
X150590476Y-46190476D01*
X150638095Y-46095238D01*
%TO.C,J8*%
X150352380Y-57666666D02*
X151066666Y-57666666D01*
X151209523Y-57619047D01*
X151304761Y-57523809D01*
X151352380Y-57380952D01*
X151352380Y-57285714D01*
X150780952Y-58285714D02*
X150733333Y-58190476D01*
X150685714Y-58142857D01*
X150590476Y-58095238D01*
X150542857Y-58095238D01*
X150447619Y-58142857D01*
X150400000Y-58190476D01*
X150352380Y-58285714D01*
X150352380Y-58476190D01*
X150400000Y-58571428D01*
X150447619Y-58619047D01*
X150542857Y-58666666D01*
X150590476Y-58666666D01*
X150685714Y-58619047D01*
X150733333Y-58571428D01*
X150780952Y-58476190D01*
X150780952Y-58285714D01*
X150828571Y-58190476D01*
X150876190Y-58142857D01*
X150971428Y-58095238D01*
X151161904Y-58095238D01*
X151257142Y-58142857D01*
X151304761Y-58190476D01*
X151352380Y-58285714D01*
X151352380Y-58476190D01*
X151304761Y-58571428D01*
X151257142Y-58619047D01*
X151161904Y-58666666D01*
X150971428Y-58666666D01*
X150876190Y-58619047D01*
X150828571Y-58571428D01*
X150780952Y-58476190D01*
%TO.C,J9*%
X150452380Y-69666666D02*
X151166666Y-69666666D01*
X151309523Y-69619047D01*
X151404761Y-69523809D01*
X151452380Y-69380952D01*
X151452380Y-69285714D01*
X151452380Y-70190476D02*
X151452380Y-70380952D01*
X151404761Y-70476190D01*
X151357142Y-70523809D01*
X151214285Y-70619047D01*
X151023809Y-70666666D01*
X150642857Y-70666666D01*
X150547619Y-70619047D01*
X150500000Y-70571428D01*
X150452380Y-70476190D01*
X150452380Y-70285714D01*
X150500000Y-70190476D01*
X150547619Y-70142857D01*
X150642857Y-70095238D01*
X150880952Y-70095238D01*
X150976190Y-70142857D01*
X151023809Y-70190476D01*
X151071428Y-70285714D01*
X151071428Y-70476190D01*
X151023809Y-70571428D01*
X150976190Y-70619047D01*
X150880952Y-70666666D01*
%TO.C,J5*%
X135252380Y-127596666D02*
X135966666Y-127596666D01*
X136109523Y-127549047D01*
X136204761Y-127453809D01*
X136252380Y-127310952D01*
X136252380Y-127215714D01*
X135252380Y-128549047D02*
X135252380Y-128072857D01*
X135728571Y-128025238D01*
X135680952Y-128072857D01*
X135633333Y-128168095D01*
X135633333Y-128406190D01*
X135680952Y-128501428D01*
X135728571Y-128549047D01*
X135823809Y-128596666D01*
X136061904Y-128596666D01*
X136157142Y-128549047D01*
X136204761Y-128501428D01*
X136252380Y-128406190D01*
X136252380Y-128168095D01*
X136204761Y-128072857D01*
X136157142Y-128025238D01*
%TO.C,J6*%
X135252380Y-127636666D02*
X135966666Y-127636666D01*
X136109523Y-127589047D01*
X136204761Y-127493809D01*
X136252380Y-127350952D01*
X136252380Y-127255714D01*
X135252380Y-128541428D02*
X135252380Y-128350952D01*
X135300000Y-128255714D01*
X135347619Y-128208095D01*
X135490476Y-128112857D01*
X135680952Y-128065238D01*
X136061904Y-128065238D01*
X136157142Y-128112857D01*
X136204761Y-128160476D01*
X136252380Y-128255714D01*
X136252380Y-128446190D01*
X136204761Y-128541428D01*
X136157142Y-128589047D01*
X136061904Y-128636666D01*
X135823809Y-128636666D01*
X135728571Y-128589047D01*
X135680952Y-128541428D01*
X135633333Y-128446190D01*
X135633333Y-128255714D01*
X135680952Y-128160476D01*
X135728571Y-128112857D01*
X135823809Y-128065238D01*
D13*
%TO.C,J1*%
X156600000Y-41500000D02*
X151800000Y-41500000D01*
X156600000Y-44000000D02*
X156600000Y-41500000D01*
X156600000Y-51500000D02*
X151800000Y-51500000D01*
X157200000Y-44000000D02*
X156600000Y-44000000D01*
X156600000Y-51500000D02*
X156600000Y-49000000D01*
X151800000Y-51500000D02*
X151800000Y-41500000D01*
X156600000Y-49000000D02*
X157200000Y-49000000D01*
%TO.C,J8*%
X156600000Y-53500000D02*
X151800000Y-53500000D01*
X156600000Y-56000000D02*
X156600000Y-53500000D01*
X156600000Y-61000000D02*
X157200000Y-61000000D01*
X157200000Y-56000000D02*
X156600000Y-56000000D01*
X156600000Y-63500000D02*
X156600000Y-61000000D01*
X156600000Y-63500000D02*
X151800000Y-63500000D01*
X151800000Y-63500000D02*
X151800000Y-53500000D01*
%TO.C,J9*%
X157300000Y-68000000D02*
X156700000Y-68000000D01*
X156700000Y-75500000D02*
X151900000Y-75500000D01*
X156700000Y-68000000D02*
X156700000Y-65500000D01*
X156700000Y-75500000D02*
X156700000Y-73000000D01*
X156700000Y-73000000D02*
X157300000Y-73000000D01*
X156700000Y-65500000D02*
X151900000Y-65500000D01*
X151900000Y-75500000D02*
X151900000Y-65500000D01*
%TO.C,J5*%
X129700000Y-132880000D02*
X130200000Y-133880000D01*
X115630000Y-131180000D02*
X122570000Y-131180000D01*
X114330000Y-123370000D02*
X114330000Y-132490000D01*
X134910000Y-123370000D02*
X114330000Y-123370000D01*
X134910000Y-132490000D02*
X134910000Y-123370000D01*
X126670000Y-131180000D02*
X133610000Y-131180000D01*
X133610000Y-124680000D02*
X115630000Y-124680000D01*
X114330000Y-132490000D02*
X134910000Y-132490000D01*
X129200000Y-133880000D02*
X129700000Y-132880000D01*
X133610000Y-131180000D02*
X133610000Y-124680000D01*
X122570000Y-131180000D02*
X122570000Y-132490000D01*
X126670000Y-132490000D02*
X126670000Y-131180000D01*
X115630000Y-124680000D02*
X115630000Y-131180000D01*
X130200000Y-133880000D02*
X129200000Y-133880000D01*
X122570000Y-131180000D02*
X122570000Y-131180000D01*
%TO.C,J6*%
X141900000Y-123020000D02*
X141400000Y-122020000D01*
X144930000Y-123410000D02*
X144930000Y-124720000D01*
X142400000Y-122020000D02*
X141900000Y-123020000D01*
X136690000Y-132530000D02*
X157270000Y-132530000D01*
X149030000Y-124720000D02*
X149030000Y-123410000D01*
X157270000Y-132530000D02*
X157270000Y-123410000D01*
X155970000Y-131220000D02*
X155970000Y-124720000D01*
X141400000Y-122020000D02*
X142400000Y-122020000D01*
X137990000Y-131220000D02*
X155970000Y-131220000D01*
X136690000Y-123410000D02*
X136690000Y-132530000D01*
X155970000Y-124720000D02*
X149030000Y-124720000D01*
X149030000Y-124720000D02*
X149030000Y-124720000D01*
X137990000Y-124720000D02*
X137990000Y-131220000D01*
X157270000Y-123410000D02*
X136690000Y-123410000D01*
X144930000Y-124720000D02*
X137990000Y-124720000D01*
%TD*%
%LPC*%
D14*
%TO.C,J2*%
X116600000Y-67832000D03*
D15*
X116600000Y-65800000D03*
X116600000Y-63800000D03*
X116600000Y-61800000D03*
%TD*%
D14*
%TO.C,J3*%
X116600000Y-56632000D03*
D15*
X116600000Y-54600000D03*
X116600000Y-52600000D03*
X116600000Y-50600000D03*
%TD*%
D14*
%TO.C,J4*%
X116600000Y-91532000D03*
D15*
X116600000Y-89500000D03*
X116600000Y-87500000D03*
X116600000Y-85500000D03*
%TD*%
D14*
%TO.C,J7*%
X116600000Y-79732000D03*
D15*
X116600000Y-77700000D03*
X116600000Y-75700000D03*
X116600000Y-73700000D03*
%TD*%
D16*
%TO.C,H1*%
X116400000Y-43400000D03*
%TD*%
%TO.C,H2*%
X146900000Y-82000000D03*
%TD*%
%TO.C,H3*%
X117000000Y-109900000D03*
%TD*%
D14*
%TO.C,J1*%
X154200000Y-49532000D03*
D15*
X154200000Y-47500000D03*
X154200000Y-45500000D03*
X154200000Y-43500000D03*
%TD*%
D14*
%TO.C,J8*%
X154200000Y-61532000D03*
D15*
X154200000Y-59500000D03*
X154200000Y-57500000D03*
X154200000Y-55500000D03*
%TD*%
D14*
%TO.C,J9*%
X154300000Y-73532000D03*
D15*
X154300000Y-71500000D03*
X154300000Y-69500000D03*
X154300000Y-67500000D03*
%TD*%
D17*
%TO.C,J5*%
X129700000Y-129200000D03*
D18*
X129700000Y-126660000D03*
X127160000Y-129200000D03*
X127160000Y-126660000D03*
X124620000Y-129200000D03*
X124620000Y-126660000D03*
X122080000Y-129200000D03*
X122080000Y-126660000D03*
X119540000Y-129200000D03*
X119540000Y-126660000D03*
%TD*%
D19*
%TO.C,J6*%
X141900000Y-126700000D03*
D18*
X141900000Y-129240000D03*
X144440000Y-126700000D03*
X144440000Y-129240000D03*
X146980000Y-126700000D03*
X146980000Y-129240000D03*
X149520000Y-126700000D03*
X149520000Y-129240000D03*
X152060000Y-126700000D03*
X152060000Y-129240000D03*
%TD*%
M02*
