%TF.GenerationSoftware,KiCad,Pcbnew,6.0.2+dfsg-1~bpo11+1*%
%TF.CreationDate,2022-05-04T11:35:56-04:00*%
%TF.ProjectId,eurorack_to_3v3,6575726f-7261-4636-9b5f-746f5f337633,1*%
%TF.SameCoordinates,Original*%
%TF.FileFunction,Soldermask,Top*%
%TF.FilePolarity,Negative*%
%FSLAX46Y46*%
G04 Gerber Fmt 4.6, Leading zero omitted, Abs format (unit mm)*
G04 Created by KiCad (PCBNEW 6.0.2+dfsg-1~bpo11+1) date 2022-05-04 11:35:56*
%MOMM*%
%LPD*%
G01*
G04 APERTURE LIST*
G04 Aperture macros list*
%AMRoundRect*
0 Rectangle with rounded corners*
0 $1 Rounding radius*
0 $2 $3 $4 $5 $6 $7 $8 $9 X,Y pos of 4 corners*
0 Add a 4 corners polygon primitive as box body*
4,1,4,$2,$3,$4,$5,$6,$7,$8,$9,$2,$3,0*
0 Add four circle primitives for the rounded corners*
1,1,$1+$1,$2,$3*
1,1,$1+$1,$4,$5*
1,1,$1+$1,$6,$7*
1,1,$1+$1,$8,$9*
0 Add four rect primitives between the rounded corners*
20,1,$1+$1,$2,$3,$4,$5,0*
20,1,$1+$1,$4,$5,$6,$7,0*
20,1,$1+$1,$6,$7,$8,$9,0*
20,1,$1+$1,$8,$9,$2,$3,0*%
G04 Aperture macros list end*
%ADD10RoundRect,0.150000X0.825000X0.150000X-0.825000X0.150000X-0.825000X-0.150000X0.825000X-0.150000X0*%
%ADD11RoundRect,0.150000X-0.825000X-0.150000X0.825000X-0.150000X0.825000X0.150000X-0.825000X0.150000X0*%
%ADD12RoundRect,0.140000X-0.170000X0.140000X-0.170000X-0.140000X0.170000X-0.140000X0.170000X0.140000X0*%
%ADD13RoundRect,0.140000X-0.140000X-0.170000X0.140000X-0.170000X0.140000X0.170000X-0.140000X0.170000X0*%
%ADD14RoundRect,0.140000X0.140000X0.170000X-0.140000X0.170000X-0.140000X-0.170000X0.140000X-0.170000X0*%
%ADD15RoundRect,0.140000X0.170000X-0.140000X0.170000X0.140000X-0.170000X0.140000X-0.170000X-0.140000X0*%
%ADD16R,1.300000X1.700000*%
%ADD17R,1.524000X1.524000*%
%ADD18C,1.524000*%
%ADD19RoundRect,0.135000X-0.185000X0.135000X-0.185000X-0.135000X0.185000X-0.135000X0.185000X0.135000X0*%
%ADD20RoundRect,0.135000X0.185000X-0.135000X0.185000X0.135000X-0.185000X0.135000X-0.185000X-0.135000X0*%
%ADD21RoundRect,0.250000X-0.312500X-0.625000X0.312500X-0.625000X0.312500X0.625000X-0.312500X0.625000X0*%
%ADD22RoundRect,0.250000X-0.625000X0.312500X-0.625000X-0.312500X0.625000X-0.312500X0.625000X0.312500X0*%
%ADD23RoundRect,0.135000X-0.135000X-0.185000X0.135000X-0.185000X0.135000X0.185000X-0.135000X0.185000X0*%
%ADD24RoundRect,0.135000X0.135000X0.185000X-0.135000X0.185000X-0.135000X-0.185000X0.135000X-0.185000X0*%
%ADD25RoundRect,0.200000X-0.275000X0.200000X-0.275000X-0.200000X0.275000X-0.200000X0.275000X0.200000X0*%
%ADD26RoundRect,0.250000X0.312500X0.625000X-0.312500X0.625000X-0.312500X-0.625000X0.312500X-0.625000X0*%
%ADD27RoundRect,0.100000X0.130000X0.100000X-0.130000X0.100000X-0.130000X-0.100000X0.130000X-0.100000X0*%
%ADD28RoundRect,0.250000X0.262500X0.450000X-0.262500X0.450000X-0.262500X-0.450000X0.262500X-0.450000X0*%
%ADD29RoundRect,0.100000X-0.130000X-0.100000X0.130000X-0.100000X0.130000X0.100000X-0.130000X0.100000X0*%
%ADD30RoundRect,0.250000X-0.450000X0.262500X-0.450000X-0.262500X0.450000X-0.262500X0.450000X0.262500X0*%
%ADD31RoundRect,0.200000X0.275000X-0.200000X0.275000X0.200000X-0.275000X0.200000X-0.275000X-0.200000X0*%
%ADD32RoundRect,0.250000X-0.262500X-0.450000X0.262500X-0.450000X0.262500X0.450000X-0.262500X0.450000X0*%
%ADD33RoundRect,0.150000X0.150000X-0.825000X0.150000X0.825000X-0.150000X0.825000X-0.150000X-0.825000X0*%
%ADD34RoundRect,0.150000X-0.150000X0.825000X-0.150000X-0.825000X0.150000X-0.825000X0.150000X0.825000X0*%
%ADD35R,0.800000X0.900000*%
%ADD36RoundRect,0.100000X0.100000X-0.637500X0.100000X0.637500X-0.100000X0.637500X-0.100000X-0.637500X0*%
%ADD37R,1.200000X0.400000*%
%ADD38C,3.500000*%
%ADD39RoundRect,0.250000X0.600000X-0.600000X0.600000X0.600000X-0.600000X0.600000X-0.600000X-0.600000X0*%
%ADD40C,1.700000*%
%ADD41RoundRect,0.250000X-0.600000X0.600000X-0.600000X-0.600000X0.600000X-0.600000X0.600000X0.600000X0*%
G04 APERTURE END LIST*
D10*
%TO.C,U9*%
X129825000Y-89410000D03*
X129825000Y-88140000D03*
X129825000Y-86870000D03*
X129825000Y-85600000D03*
X129825000Y-84330000D03*
X129825000Y-83060000D03*
X129825000Y-81790000D03*
X134775000Y-81790000D03*
X134775000Y-83060000D03*
X134775000Y-84330000D03*
X134775000Y-85600000D03*
X134775000Y-86870000D03*
X134775000Y-88140000D03*
X134775000Y-89410000D03*
%TD*%
%TO.C,U8*%
X136775000Y-75910000D03*
X136775000Y-74640000D03*
X136775000Y-73370000D03*
X136775000Y-72100000D03*
X136775000Y-70830000D03*
X136775000Y-69560000D03*
X136775000Y-68290000D03*
X131825000Y-68290000D03*
X131825000Y-69560000D03*
X131825000Y-70830000D03*
X131825000Y-72100000D03*
X131825000Y-73370000D03*
X131825000Y-74640000D03*
X131825000Y-75910000D03*
%TD*%
D11*
%TO.C,U4*%
X150975000Y-88455000D03*
X150975000Y-89725000D03*
X150975000Y-90995000D03*
X150975000Y-92265000D03*
X150975000Y-93535000D03*
X150975000Y-94805000D03*
X150975000Y-96075000D03*
X150975000Y-97345000D03*
X155925000Y-97345000D03*
X155925000Y-96075000D03*
X155925000Y-94805000D03*
X155925000Y-93535000D03*
X155925000Y-92265000D03*
X155925000Y-90995000D03*
X155925000Y-89725000D03*
X155925000Y-88455000D03*
%TD*%
%TO.C,U2*%
X142525000Y-88455000D03*
X142525000Y-89725000D03*
X142525000Y-90995000D03*
X142525000Y-92265000D03*
X142525000Y-93535000D03*
X142525000Y-94805000D03*
X142525000Y-96075000D03*
X142525000Y-97345000D03*
X147475000Y-97345000D03*
X147475000Y-96075000D03*
X147475000Y-94805000D03*
X147475000Y-93535000D03*
X147475000Y-92265000D03*
X147475000Y-90995000D03*
X147475000Y-89725000D03*
X147475000Y-88455000D03*
%TD*%
D12*
%TO.C,C17*%
X127400000Y-119220000D03*
X127400000Y-120180000D03*
%TD*%
D13*
%TO.C,C18*%
X126220000Y-112800000D03*
X127180000Y-112800000D03*
%TD*%
D14*
%TO.C,C19*%
X133880000Y-103500000D03*
X132920000Y-103500000D03*
%TD*%
%TO.C,C20*%
X133880000Y-112800000D03*
X132920000Y-112800000D03*
%TD*%
D13*
%TO.C,C21*%
X127120000Y-103400000D03*
X128080000Y-103400000D03*
%TD*%
D15*
%TO.C,C13*%
X138600000Y-89180000D03*
X138600000Y-88220000D03*
%TD*%
D12*
%TO.C,C14*%
X126300000Y-81920000D03*
X126300000Y-82880000D03*
%TD*%
%TO.C,C15*%
X138700000Y-82020000D03*
X138700000Y-82980000D03*
%TD*%
D15*
%TO.C,C16*%
X126300000Y-89280000D03*
X126300000Y-88320000D03*
%TD*%
%TO.C,C9*%
X141100000Y-75880000D03*
X141100000Y-74920000D03*
%TD*%
D12*
%TO.C,C10*%
X127900000Y-68520000D03*
X127900000Y-69480000D03*
%TD*%
%TO.C,C11*%
X141100000Y-68520000D03*
X141100000Y-69480000D03*
%TD*%
D15*
%TO.C,C12*%
X127900000Y-75880000D03*
X127900000Y-74920000D03*
%TD*%
D13*
%TO.C,C1*%
X119520000Y-115800000D03*
X120480000Y-115800000D03*
%TD*%
D15*
%TO.C,C2*%
X144500000Y-86980000D03*
X144500000Y-86020000D03*
%TD*%
%TO.C,C3*%
X138500000Y-97480000D03*
X138500000Y-96520000D03*
%TD*%
D14*
%TO.C,C4*%
X156480000Y-83600000D03*
X155520000Y-83600000D03*
%TD*%
D12*
%TO.C,C5*%
X139000000Y-110220000D03*
X139000000Y-111180000D03*
%TD*%
%TO.C,C6*%
X148000000Y-106520000D03*
X148000000Y-107480000D03*
%TD*%
%TO.C,C7*%
X147900000Y-101620000D03*
X147900000Y-102580000D03*
%TD*%
D13*
%TO.C,C8*%
X147820000Y-103600000D03*
X148780000Y-103600000D03*
%TD*%
D16*
%TO.C,D1*%
X138050000Y-121900000D03*
X134550000Y-121900000D03*
%TD*%
%TO.C,D2*%
X134550000Y-118500000D03*
X138050000Y-118500000D03*
%TD*%
D17*
%TO.C,J2*%
X116600000Y-67832000D03*
D18*
X116600000Y-65800000D03*
X116600000Y-63800000D03*
X116600000Y-61800000D03*
%TD*%
D17*
%TO.C,J3*%
X116600000Y-56632000D03*
D18*
X116600000Y-54600000D03*
X116600000Y-52600000D03*
X116600000Y-50600000D03*
%TD*%
D17*
%TO.C,J4*%
X116600000Y-91532000D03*
D18*
X116600000Y-89500000D03*
X116600000Y-87500000D03*
X116600000Y-85500000D03*
%TD*%
D17*
%TO.C,J7*%
X116600000Y-79732000D03*
D18*
X116600000Y-77700000D03*
X116600000Y-75700000D03*
X116600000Y-73700000D03*
%TD*%
D19*
%TO.C,R65*%
X118000000Y-104190000D03*
X118000000Y-105210000D03*
%TD*%
D20*
%TO.C,R66*%
X120300000Y-95510000D03*
X120300000Y-94490000D03*
%TD*%
D21*
%TO.C,R67*%
X121637500Y-111000000D03*
X124562500Y-111000000D03*
%TD*%
D22*
%TO.C,R68*%
X125100000Y-96137500D03*
X125100000Y-99062500D03*
%TD*%
D23*
%TO.C,R69*%
X115890000Y-104200000D03*
X116910000Y-104200000D03*
%TD*%
D24*
%TO.C,R70*%
X122410000Y-95600000D03*
X121390000Y-95600000D03*
%TD*%
D23*
%TO.C,R71*%
X113690000Y-104200000D03*
X114710000Y-104200000D03*
%TD*%
D24*
%TO.C,R72*%
X124410000Y-94600000D03*
X123390000Y-94600000D03*
%TD*%
D23*
%TO.C,R73*%
X121290000Y-105700000D03*
X122310000Y-105700000D03*
%TD*%
D20*
%TO.C,R74*%
X118100000Y-95410000D03*
X118100000Y-94390000D03*
%TD*%
D22*
%TO.C,R75*%
X124200000Y-105937500D03*
X124200000Y-108862500D03*
%TD*%
%TO.C,R76*%
X126000000Y-91237500D03*
X126000000Y-94162500D03*
%TD*%
D24*
%TO.C,R77*%
X122310000Y-104400000D03*
X121290000Y-104400000D03*
%TD*%
D23*
%TO.C,R78*%
X115880000Y-95300000D03*
X116900000Y-95300000D03*
%TD*%
D24*
%TO.C,R79*%
X124410000Y-104400000D03*
X123390000Y-104400000D03*
%TD*%
D23*
%TO.C,R80*%
X113790000Y-95300000D03*
X114810000Y-95300000D03*
%TD*%
D20*
%TO.C,R55*%
X124100000Y-120710000D03*
X124100000Y-119690000D03*
%TD*%
D25*
%TO.C,R56*%
X125800000Y-118875000D03*
X125800000Y-120525000D03*
%TD*%
D21*
%TO.C,R59*%
X125237500Y-114800000D03*
X128162500Y-114800000D03*
%TD*%
D20*
%TO.C,R58*%
X131300000Y-102110000D03*
X131300000Y-101090000D03*
%TD*%
D19*
%TO.C,R57*%
X129800000Y-114390000D03*
X129800000Y-115410000D03*
%TD*%
D26*
%TO.C,R60*%
X135662500Y-101600000D03*
X132737500Y-101600000D03*
%TD*%
D19*
%TO.C,R61*%
X131500000Y-114390000D03*
X131500000Y-115410000D03*
%TD*%
D20*
%TO.C,R62*%
X130000000Y-102110000D03*
X130000000Y-101090000D03*
%TD*%
D26*
%TO.C,R63*%
X136362500Y-114800000D03*
X133437500Y-114800000D03*
%TD*%
D21*
%TO.C,R64*%
X125537500Y-101500000D03*
X128462500Y-101500000D03*
%TD*%
D27*
%TO.C,R19*%
X138480000Y-87000000D03*
X139120000Y-87000000D03*
%TD*%
D28*
%TO.C,R20*%
X146112500Y-73700000D03*
X144287500Y-73700000D03*
%TD*%
D29*
%TO.C,R21*%
X126520000Y-83900000D03*
X125880000Y-83900000D03*
%TD*%
D30*
%TO.C,R22*%
X147200000Y-67487500D03*
X147200000Y-69312500D03*
%TD*%
D31*
%TO.C,R23*%
X137100000Y-89525000D03*
X137100000Y-87875000D03*
%TD*%
D25*
%TO.C,R24*%
X127700000Y-81575000D03*
X127700000Y-83225000D03*
%TD*%
D27*
%TO.C,R25*%
X138180000Y-84100000D03*
X138820000Y-84100000D03*
%TD*%
D28*
%TO.C,R26*%
X146112500Y-71600000D03*
X144287500Y-71600000D03*
%TD*%
D29*
%TO.C,R27*%
X126800000Y-86700000D03*
X126160000Y-86700000D03*
%TD*%
D30*
%TO.C,R28*%
X144200000Y-67487500D03*
X144200000Y-69312500D03*
%TD*%
D25*
%TO.C,R29*%
X137000000Y-81675000D03*
X137000000Y-83325000D03*
%TD*%
D31*
%TO.C,R30*%
X127700000Y-89625000D03*
X127700000Y-87975000D03*
%TD*%
D32*
%TO.C,R31*%
X140987500Y-46900000D03*
X142812500Y-46900000D03*
%TD*%
%TO.C,R32*%
X127787500Y-47100000D03*
X129612500Y-47100000D03*
%TD*%
D19*
%TO.C,R33*%
X144600000Y-46390000D03*
X144600000Y-47410000D03*
%TD*%
%TO.C,R34*%
X131200000Y-46590000D03*
X131200000Y-47610000D03*
%TD*%
D32*
%TO.C,R35*%
X134187500Y-47100000D03*
X136012500Y-47100000D03*
%TD*%
%TO.C,R36*%
X120887500Y-47200000D03*
X122712500Y-47200000D03*
%TD*%
D19*
%TO.C,R37*%
X138000000Y-46590000D03*
X138000000Y-47610000D03*
%TD*%
%TO.C,R38*%
X124800000Y-46690000D03*
X124800000Y-47710000D03*
%TD*%
D27*
%TO.C,R7*%
X140580000Y-74000000D03*
X141220000Y-74000000D03*
%TD*%
D32*
%TO.C,R8*%
X120687500Y-91600000D03*
X122512500Y-91600000D03*
%TD*%
D29*
%TO.C,R9*%
X127920000Y-70400000D03*
X127280000Y-70400000D03*
%TD*%
D32*
%TO.C,R10*%
X120587500Y-86800000D03*
X122412500Y-86800000D03*
%TD*%
D31*
%TO.C,R11*%
X139300000Y-76250000D03*
X139300000Y-74600000D03*
%TD*%
D25*
%TO.C,R12*%
X129400000Y-68075000D03*
X129400000Y-69725000D03*
%TD*%
D27*
%TO.C,R13*%
X140760000Y-70500000D03*
X141400000Y-70500000D03*
%TD*%
D32*
%TO.C,R14*%
X120687500Y-89300000D03*
X122512500Y-89300000D03*
%TD*%
D29*
%TO.C,R15*%
X127920000Y-73900000D03*
X127280000Y-73900000D03*
%TD*%
D32*
%TO.C,R16*%
X120587500Y-84300000D03*
X122412500Y-84300000D03*
%TD*%
D25*
%TO.C,R17*%
X139400000Y-68175000D03*
X139400000Y-69825000D03*
%TD*%
D31*
%TO.C,R18*%
X129400000Y-76250000D03*
X129400000Y-74600000D03*
%TD*%
D32*
%TO.C,R39*%
X144587500Y-55000000D03*
X146412500Y-55000000D03*
%TD*%
%TO.C,R40*%
X132187500Y-54900000D03*
X134012500Y-54900000D03*
%TD*%
D19*
%TO.C,R41*%
X148100000Y-54490000D03*
X148100000Y-55510000D03*
%TD*%
%TO.C,R42*%
X136000000Y-54390000D03*
X136000000Y-55410000D03*
%TD*%
D32*
%TO.C,R43*%
X138387500Y-54900000D03*
X140212500Y-54900000D03*
%TD*%
%TO.C,R44*%
X126087500Y-54900000D03*
X127912500Y-54900000D03*
%TD*%
D19*
%TO.C,R45*%
X142100000Y-54390000D03*
X142100000Y-55410000D03*
%TD*%
%TO.C,R46*%
X129800000Y-54390000D03*
X129800000Y-55410000D03*
%TD*%
D24*
%TO.C,R1*%
X118410000Y-115800000D03*
X117390000Y-115800000D03*
%TD*%
D23*
%TO.C,R2*%
X119090000Y-114700000D03*
X120110000Y-114700000D03*
%TD*%
D32*
%TO.C,R47*%
X144587500Y-63200000D03*
X146412500Y-63200000D03*
%TD*%
%TO.C,R48*%
X132287500Y-63300000D03*
X134112500Y-63300000D03*
%TD*%
D19*
%TO.C,R49*%
X148200000Y-62590000D03*
X148200000Y-63610000D03*
%TD*%
%TO.C,R50*%
X136000000Y-62790000D03*
X136000000Y-63810000D03*
%TD*%
D32*
%TO.C,R51*%
X138287500Y-63200000D03*
X140112500Y-63200000D03*
%TD*%
%TO.C,R52*%
X126287500Y-63300000D03*
X128112500Y-63300000D03*
%TD*%
D19*
%TO.C,R53*%
X142000000Y-62700000D03*
X142000000Y-63720000D03*
%TD*%
%TO.C,R54*%
X129800000Y-62790000D03*
X129800000Y-63810000D03*
%TD*%
D20*
%TO.C,R3*%
X143700000Y-118810000D03*
X143700000Y-117790000D03*
%TD*%
%TO.C,R4*%
X139800000Y-118810000D03*
X139800000Y-117790000D03*
%TD*%
D19*
%TO.C,R5*%
X141100000Y-117790000D03*
X141100000Y-118810000D03*
%TD*%
D33*
%TO.C,U24*%
X114890000Y-102375000D03*
X116160000Y-102375000D03*
X117430000Y-102375000D03*
X118700000Y-102375000D03*
X119970000Y-102375000D03*
X121240000Y-102375000D03*
X122510000Y-102375000D03*
X122510000Y-97425000D03*
X121240000Y-97425000D03*
X119970000Y-97425000D03*
X118700000Y-97425000D03*
X117430000Y-97425000D03*
X116160000Y-97425000D03*
X114890000Y-97425000D03*
%TD*%
%TO.C,U23*%
X126290000Y-110575000D03*
X127560000Y-110575000D03*
X128830000Y-110575000D03*
X130100000Y-110575000D03*
X131370000Y-110575000D03*
X132640000Y-110575000D03*
X133910000Y-110575000D03*
X133910000Y-105625000D03*
X132640000Y-105625000D03*
X131370000Y-105625000D03*
X130100000Y-105625000D03*
X128830000Y-105625000D03*
X127560000Y-105625000D03*
X126290000Y-105625000D03*
%TD*%
D34*
%TO.C,U3*%
X122410000Y-122775000D03*
X121140000Y-122775000D03*
X119870000Y-122775000D03*
X118600000Y-122775000D03*
X117330000Y-122775000D03*
X116060000Y-122775000D03*
X114790000Y-122775000D03*
X114790000Y-117825000D03*
X116060000Y-117825000D03*
X117330000Y-117825000D03*
X118600000Y-117825000D03*
X119870000Y-117825000D03*
X121140000Y-117825000D03*
X122410000Y-117825000D03*
%TD*%
D35*
%TO.C,U10*%
X142750000Y-45200000D03*
X144650000Y-45200000D03*
X143700000Y-43200000D03*
%TD*%
%TO.C,U11*%
X129350000Y-45300000D03*
X131250000Y-45300000D03*
X130300000Y-43300000D03*
%TD*%
%TO.C,U12*%
X136050000Y-45300000D03*
X137950000Y-45300000D03*
X137000000Y-43300000D03*
%TD*%
%TO.C,U13*%
X122850000Y-45400000D03*
X124750000Y-45400000D03*
X123800000Y-43400000D03*
%TD*%
%TO.C,U14*%
X146250000Y-53200000D03*
X148150000Y-53200000D03*
X147200000Y-51200000D03*
%TD*%
%TO.C,U15*%
X134150000Y-53100000D03*
X136050000Y-53100000D03*
X135100000Y-51100000D03*
%TD*%
%TO.C,U17*%
X127950000Y-53100000D03*
X129850000Y-53100000D03*
X128900000Y-51100000D03*
%TD*%
D34*
%TO.C,U1*%
X136845000Y-92525000D03*
X135575000Y-92525000D03*
X134305000Y-92525000D03*
X133035000Y-92525000D03*
X131765000Y-92525000D03*
X130495000Y-92525000D03*
X129225000Y-92525000D03*
X127955000Y-92525000D03*
X127955000Y-97475000D03*
X129225000Y-97475000D03*
X130495000Y-97475000D03*
X131765000Y-97475000D03*
X133035000Y-97475000D03*
X134305000Y-97475000D03*
X135575000Y-97475000D03*
X136845000Y-97475000D03*
%TD*%
D36*
%TO.C,U5*%
X149825000Y-106662500D03*
X150475000Y-106662500D03*
X151125000Y-106662500D03*
X151775000Y-106662500D03*
X152425000Y-106662500D03*
X153075000Y-106662500D03*
X153725000Y-106662500D03*
X154375000Y-106662500D03*
X154375000Y-100937500D03*
X153725000Y-100937500D03*
X153075000Y-100937500D03*
X152425000Y-100937500D03*
X151775000Y-100937500D03*
X151125000Y-100937500D03*
X150475000Y-100937500D03*
X149825000Y-100937500D03*
%TD*%
D37*
%TO.C,U6*%
X146450000Y-101950000D03*
X146450000Y-102600000D03*
X146450000Y-103250000D03*
X146450000Y-103900000D03*
X146450000Y-104550000D03*
X146450000Y-105200000D03*
X146450000Y-105850000D03*
X139550000Y-105850000D03*
X139550000Y-105200000D03*
X139550000Y-104550000D03*
X139550000Y-103900000D03*
X139550000Y-103250000D03*
X139550000Y-102600000D03*
X139550000Y-101950000D03*
%TD*%
D33*
%TO.C,U7*%
X140755000Y-115575000D03*
X142025000Y-115575000D03*
X143295000Y-115575000D03*
X144565000Y-115575000D03*
X145835000Y-115575000D03*
X147105000Y-115575000D03*
X148375000Y-115575000D03*
X149645000Y-115575000D03*
X149645000Y-110625000D03*
X148375000Y-110625000D03*
X147105000Y-110625000D03*
X145835000Y-110625000D03*
X144565000Y-110625000D03*
X143295000Y-110625000D03*
X142025000Y-110625000D03*
X140755000Y-110625000D03*
%TD*%
D35*
%TO.C,U18*%
X146250000Y-61200000D03*
X148150000Y-61200000D03*
X147200000Y-59200000D03*
%TD*%
%TO.C,U19*%
X134150000Y-61200000D03*
X136050000Y-61200000D03*
X135100000Y-59200000D03*
%TD*%
%TO.C,U20*%
X140150000Y-61200000D03*
X142050000Y-61200000D03*
X141100000Y-59200000D03*
%TD*%
%TO.C,U21*%
X127850000Y-61300000D03*
X129750000Y-61300000D03*
X128800000Y-59300000D03*
%TD*%
%TO.C,U16*%
X140250000Y-53100000D03*
X142150000Y-53100000D03*
X141200000Y-51100000D03*
%TD*%
D38*
%TO.C,H1*%
X116400000Y-43400000D03*
%TD*%
%TO.C,H2*%
X146900000Y-82000000D03*
%TD*%
%TO.C,H3*%
X117000000Y-109900000D03*
%TD*%
D20*
%TO.C,R6*%
X142400000Y-118810000D03*
X142400000Y-117790000D03*
%TD*%
D17*
%TO.C,J1*%
X154200000Y-49532000D03*
D18*
X154200000Y-47500000D03*
X154200000Y-45500000D03*
X154200000Y-43500000D03*
%TD*%
D17*
%TO.C,J8*%
X154200000Y-61532000D03*
D18*
X154200000Y-59500000D03*
X154200000Y-57500000D03*
X154200000Y-55500000D03*
%TD*%
D17*
%TO.C,J9*%
X154300000Y-73532000D03*
D18*
X154300000Y-71500000D03*
X154300000Y-69500000D03*
X154300000Y-67500000D03*
%TD*%
D39*
%TO.C,J5*%
X129700000Y-129200000D03*
D40*
X129700000Y-126660000D03*
X127160000Y-129200000D03*
X127160000Y-126660000D03*
X124620000Y-129200000D03*
X124620000Y-126660000D03*
X122080000Y-129200000D03*
X122080000Y-126660000D03*
X119540000Y-129200000D03*
X119540000Y-126660000D03*
%TD*%
D41*
%TO.C,J6*%
X141900000Y-126700000D03*
D40*
X141900000Y-129240000D03*
X144440000Y-126700000D03*
X144440000Y-129240000D03*
X146980000Y-126700000D03*
X146980000Y-129240000D03*
X149520000Y-126700000D03*
X149520000Y-129240000D03*
X152060000Y-126700000D03*
X152060000Y-129240000D03*
%TD*%
M02*
