%FSLAX45Y45*%
G04 Gerber Fmt 4.5, Leading zero omitted, Abs format (unit mm)*
G04 Created by KiCad (PCBNEW 6.0.2+dfsg-1~bpo11+1) date 2022-05-04 11:37:20*
%MOMM*%
%LPD*%
G01*
G04 APERTURE LIST*
%TA.AperFunction,Profile*%
%ADD10C,0.100000*%
%TD*%
%ADD11C,0.200000*%
%ADD12C,0.040000*%
%ADD13C,0.076200*%
%ADD14C,0.100000*%
G04 APERTURE END LIST*
D10*
X15950000Y-3900000D02*
X15950000Y-13500000D01*
X11200000Y-13500000D02*
X11200000Y-3900000D01*
X15950000Y-13500000D02*
X11200000Y-13500000D01*
X11200000Y-3900000D02*
X15950000Y-3900000D01*
D11*
D12*
X11329996Y-8260000D02*
X11369996Y-8300000D01*
X11369996Y-8260000D02*
X11329996Y-8300000D01*
X11340000Y-9950000D02*
X11380000Y-9990000D01*
X11380000Y-9950000D02*
X11340000Y-9990000D01*
X11349000Y-10099000D02*
X11389000Y-10139000D01*
X11389000Y-10099000D02*
X11349000Y-10139000D01*
X11490000Y-9330000D02*
X11530000Y-9370000D01*
X11530000Y-9330000D02*
X11490000Y-9370000D01*
X11596000Y-9894000D02*
X11636000Y-9934000D01*
X11636000Y-9894000D02*
X11596000Y-9934000D01*
X11630000Y-9320000D02*
X11670000Y-9360000D01*
X11670000Y-9320000D02*
X11630000Y-9360000D01*
X11650000Y-8220000D02*
X11690000Y-8260000D01*
X11690000Y-8220000D02*
X11650000Y-8260000D01*
X11820000Y-9890000D02*
X11860000Y-9930000D01*
X11860000Y-9890000D02*
X11820000Y-9930000D01*
X11940000Y-8110000D02*
X11980000Y-8150000D01*
X11980000Y-8110000D02*
X11940000Y-8150000D01*
X11970000Y-10530000D02*
X12010000Y-10570000D01*
X12010000Y-10530000D02*
X11970000Y-10570000D01*
X12150000Y-10660000D02*
X12190000Y-10700000D01*
X12190000Y-10660000D02*
X12150000Y-10700000D01*
X12160000Y-9410000D02*
X12200000Y-9450000D01*
X12200000Y-9410000D02*
X12160000Y-9450000D01*
X12250000Y-8250000D02*
X12290000Y-8290000D01*
X12290000Y-8250000D02*
X12250000Y-8290000D01*
X12330000Y-11450000D02*
X12370000Y-11490000D01*
X12370000Y-11450000D02*
X12330000Y-11490000D01*
X12390000Y-9140000D02*
X12430000Y-9180000D01*
X12430000Y-9140000D02*
X12390000Y-9180000D01*
X12420000Y-11250000D02*
X12460000Y-11290000D01*
X12460000Y-11250000D02*
X12420000Y-11290000D01*
X12490000Y-9770000D02*
X12530000Y-9810000D01*
X12530000Y-9770000D02*
X12490000Y-9810000D01*
X12570000Y-7470000D02*
X12610000Y-7510000D01*
X12610000Y-7470000D02*
X12570000Y-7510000D01*
X12580000Y-4660000D02*
X12620000Y-4700000D01*
X12620000Y-4660000D02*
X12580000Y-4700000D01*
X12604529Y-8555471D02*
X12644529Y-8595471D01*
X12644529Y-8555471D02*
X12604529Y-8595471D01*
X12610000Y-8020000D02*
X12650000Y-8060000D01*
X12650000Y-8020000D02*
X12610000Y-8060000D01*
X12610000Y-12270000D02*
X12650000Y-12310000D01*
X12650000Y-12270000D02*
X12610000Y-12310000D01*
X12620000Y-9230000D02*
X12660000Y-9270000D01*
X12660000Y-9230000D02*
X12620000Y-9270000D01*
X12650000Y-7700000D02*
X12690000Y-7740000D01*
X12690000Y-7700000D02*
X12650000Y-7740000D01*
X12690000Y-10720000D02*
X12730000Y-10760000D01*
X12730000Y-10720000D02*
X12690000Y-10760000D01*
X12760000Y-8540000D02*
X12800000Y-8580000D01*
X12800000Y-8540000D02*
X12760000Y-8580000D01*
X12760750Y-4520750D02*
X12800750Y-4560750D01*
X12800750Y-4520750D02*
X12760750Y-4560750D01*
X12772000Y-7208000D02*
X12812000Y-7248000D01*
X12812000Y-7208000D02*
X12772000Y-7248000D01*
X12775500Y-9554500D02*
X12815500Y-9594500D01*
X12815500Y-9554500D02*
X12775500Y-9594500D01*
X12779700Y-8667000D02*
X12819700Y-8707000D01*
X12819700Y-8667000D02*
X12779700Y-8707000D01*
X12800000Y-4940000D02*
X12840000Y-4980000D01*
X12840000Y-4940000D02*
X12800000Y-4980000D01*
X12840000Y-7800000D02*
X12880000Y-7840000D01*
X12880000Y-7800000D02*
X12840000Y-7840000D01*
X12890000Y-11230000D02*
X12930000Y-11270000D01*
X12930000Y-11230000D02*
X12890000Y-11270000D01*
X12900000Y-10350000D02*
X12940000Y-10390000D01*
X12940000Y-10350000D02*
X12900000Y-10390000D01*
X12950000Y-7800000D02*
X12990000Y-7840000D01*
X12990000Y-7800000D02*
X12950000Y-7840000D01*
X12970000Y-7200000D02*
X13010000Y-7240000D01*
X13010000Y-7200000D02*
X12970000Y-7240000D01*
X12989700Y-7073000D02*
X13029700Y-7113000D01*
X13029700Y-7073000D02*
X12989700Y-7113000D01*
X13030000Y-8010000D02*
X13070000Y-8050000D01*
X13070000Y-8010000D02*
X13030000Y-8050000D01*
X13090000Y-7800000D02*
X13130000Y-7840000D01*
X13130000Y-7800000D02*
X13090000Y-7840000D01*
X13110000Y-6030000D02*
X13150000Y-6070000D01*
X13150000Y-6030000D02*
X13110000Y-6070000D01*
X13130000Y-5200000D02*
X13170000Y-5240000D01*
X13170000Y-5200000D02*
X13130000Y-5240000D01*
X13130000Y-11210000D02*
X13170000Y-11250000D01*
X13170000Y-11210000D02*
X13130000Y-11250000D01*
X13160000Y-10290000D02*
X13200000Y-10330000D01*
X13200000Y-10290000D02*
X13160000Y-10330000D01*
X13200000Y-8120000D02*
X13240000Y-8160000D01*
X13240000Y-8120000D02*
X13200000Y-8160000D01*
X13210500Y-6110500D02*
X13250500Y-6150500D01*
X13250500Y-6110500D02*
X13210500Y-6150500D01*
X13220000Y-4650000D02*
X13260000Y-4690000D01*
X13260000Y-4650000D02*
X13220000Y-4690000D01*
X13240000Y-6540000D02*
X13280000Y-6580000D01*
X13280000Y-6540000D02*
X13240000Y-6580000D01*
X13250000Y-12170000D02*
X13290000Y-12210000D01*
X13290000Y-12170000D02*
X13250000Y-12210000D01*
X13255000Y-11915000D02*
X13295000Y-11955000D01*
X13295000Y-11915000D02*
X13255000Y-11955000D01*
X13277500Y-5212500D02*
X13317500Y-5252500D01*
X13317500Y-5212500D02*
X13277500Y-5252500D01*
X13283500Y-9056500D02*
X13323500Y-9096500D01*
X13323500Y-9056500D02*
X13283500Y-9096500D01*
X13380000Y-4910000D02*
X13420000Y-4950000D01*
X13420000Y-4910000D02*
X13380000Y-4950000D01*
X13410500Y-9060500D02*
X13450500Y-9100500D01*
X13450500Y-9060500D02*
X13410500Y-9100500D01*
X13410500Y-9550500D02*
X13450500Y-9590500D01*
X13450500Y-9550500D02*
X13410500Y-9590500D01*
X13423090Y-4513091D02*
X13463090Y-4553091D01*
X13463090Y-4513091D02*
X13423090Y-4553091D01*
X13430000Y-7870000D02*
X13470000Y-7910000D01*
X13470000Y-7870000D02*
X13430000Y-7910000D01*
X13490000Y-11080000D02*
X13530000Y-11120000D01*
X13530000Y-11080000D02*
X13490000Y-11120000D01*
X13490000Y-11210000D02*
X13530000Y-11250000D01*
X13530000Y-11210000D02*
X13490000Y-11250000D01*
X13530000Y-10980000D02*
X13570000Y-11020000D01*
X13570000Y-10980000D02*
X13530000Y-11020000D01*
X13537500Y-9052500D02*
X13577500Y-9092500D01*
X13577500Y-9052500D02*
X13537500Y-9092500D01*
X13570000Y-9540000D02*
X13610000Y-9580000D01*
X13610000Y-9540000D02*
X13570000Y-9580000D01*
X13570000Y-10720000D02*
X13610000Y-10760000D01*
X13610000Y-10720000D02*
X13570000Y-10760000D01*
X13580000Y-10350000D02*
X13620000Y-10390000D01*
X13620000Y-10350000D02*
X13580000Y-10390000D01*
X13610000Y-11150000D02*
X13650000Y-11190000D01*
X13650000Y-11150000D02*
X13610000Y-11190000D01*
X13620000Y-8650000D02*
X13660000Y-8690000D01*
X13660000Y-8650000D02*
X13620000Y-8690000D01*
X13670000Y-8540000D02*
X13710000Y-8580000D01*
X13710000Y-8540000D02*
X13670000Y-8580000D01*
X13700000Y-6100000D02*
X13740000Y-6140000D01*
X13740000Y-6100000D02*
X13700000Y-6140000D01*
X13720000Y-10640000D02*
X13760000Y-10680000D01*
X13760000Y-10640000D02*
X13720000Y-10680000D01*
X13730000Y-5200000D02*
X13770000Y-5240000D01*
X13770000Y-5200000D02*
X13730000Y-5240000D01*
X13740000Y-8660000D02*
X13780000Y-8700000D01*
X13780000Y-8660000D02*
X13740000Y-8700000D01*
X13740000Y-11560000D02*
X13780000Y-11600000D01*
X13780000Y-11560000D02*
X13740000Y-11600000D01*
X13780000Y-12820000D02*
X13820000Y-12860000D01*
X13820000Y-12820000D02*
X13780000Y-12860000D01*
X13790000Y-7940000D02*
X13830000Y-7980000D01*
X13830000Y-7940000D02*
X13790000Y-7980000D01*
X13802700Y-8060000D02*
X13842700Y-8100000D01*
X13842700Y-8060000D02*
X13802700Y-8100000D01*
X13820000Y-7730000D02*
X13860000Y-7770000D01*
X13860000Y-7730000D02*
X13820000Y-7770000D01*
X13830000Y-6110000D02*
X13870000Y-6150000D01*
X13870000Y-6110000D02*
X13830000Y-6150000D01*
X13830000Y-9540000D02*
X13870000Y-9580000D01*
X13870000Y-9540000D02*
X13830000Y-9580000D01*
X13830000Y-9980000D02*
X13870000Y-10020000D01*
X13870000Y-9980000D02*
X13830000Y-10020000D01*
X13848650Y-7318650D02*
X13888650Y-7358650D01*
X13888650Y-7318650D02*
X13848650Y-7358650D01*
X13860000Y-6500000D02*
X13900000Y-6540000D01*
X13900000Y-6500000D02*
X13860000Y-6540000D01*
X13860000Y-7200000D02*
X13900000Y-7240000D01*
X13900000Y-7200000D02*
X13860000Y-7240000D01*
X13860000Y-11590000D02*
X13900000Y-11630000D01*
X13900000Y-11590000D02*
X13860000Y-11630000D01*
X13880000Y-10890000D02*
X13920000Y-10930000D01*
X13920000Y-10890000D02*
X13880000Y-10930000D01*
X13889000Y-4639000D02*
X13929000Y-4679000D01*
X13929000Y-4639000D02*
X13889000Y-4679000D01*
X13900000Y-11460000D02*
X13940000Y-11500000D01*
X13940000Y-11460000D02*
X13900000Y-11500000D01*
X13910000Y-9130000D02*
X13950000Y-9170000D01*
X13950000Y-9130000D02*
X13910000Y-9170000D01*
X13940000Y-11200000D02*
X13980000Y-11240000D01*
X13980000Y-11200000D02*
X13940000Y-11240000D01*
X13945000Y-7075000D02*
X13985000Y-7115000D01*
X13985000Y-7075000D02*
X13945000Y-7115000D01*
X13960000Y-9020000D02*
X14000000Y-9060000D01*
X14000000Y-9020000D02*
X13960000Y-9060000D01*
X13970000Y-7840000D02*
X14010000Y-7880000D01*
X14010000Y-7840000D02*
X13970000Y-7880000D01*
X13970000Y-8180000D02*
X14010000Y-8220000D01*
X14010000Y-8180000D02*
X13970000Y-8220000D01*
X13970000Y-8440000D02*
X14010000Y-8480000D01*
X14010000Y-8440000D02*
X13970000Y-8480000D01*
X13990000Y-8567300D02*
X14030000Y-8607300D01*
X14030000Y-8567300D02*
X13990000Y-8607300D01*
X13995000Y-12825000D02*
X14035000Y-12865000D01*
X14035000Y-12825000D02*
X13995000Y-12865000D01*
X14010000Y-9680000D02*
X14050000Y-9720000D01*
X14050000Y-9680000D02*
X14010000Y-9720000D01*
X14010000Y-10860000D02*
X14050000Y-10900000D01*
X14050000Y-10860000D02*
X14010000Y-10900000D01*
X14030000Y-4840000D02*
X14070000Y-4880000D01*
X14070000Y-4840000D02*
X14030000Y-4880000D01*
X14050000Y-7930000D02*
X14090000Y-7970000D01*
X14090000Y-7930000D02*
X14050000Y-7970000D01*
X14098090Y-4498091D02*
X14138090Y-4538091D01*
X14138090Y-4498091D02*
X14098090Y-4538091D01*
X14140000Y-5730000D02*
X14180000Y-5770000D01*
X14180000Y-5730000D02*
X14140000Y-5770000D01*
X14140000Y-8060000D02*
X14180000Y-8100000D01*
X14180000Y-8060000D02*
X14140000Y-8100000D01*
X14150000Y-11970000D02*
X14190000Y-12010000D01*
X14190000Y-11970000D02*
X14150000Y-12010000D01*
X14180000Y-10800000D02*
X14220000Y-10840000D01*
X14220000Y-10800000D02*
X14180000Y-10840000D01*
X14210000Y-4960000D02*
X14250000Y-5000000D01*
X14250000Y-4960000D02*
X14210000Y-5000000D01*
X14210000Y-5180000D02*
X14250000Y-5220000D01*
X14250000Y-5180000D02*
X14210000Y-5220000D01*
X14234999Y-8125001D02*
X14274999Y-8165001D01*
X14274999Y-8125001D02*
X14234999Y-8165001D01*
X14240000Y-8530000D02*
X14280000Y-8570000D01*
X14280000Y-8530000D02*
X14240000Y-8570000D01*
X14260000Y-10500000D02*
X14300000Y-10540000D01*
X14300000Y-10500000D02*
X14260000Y-10540000D01*
X14310000Y-7950000D02*
X14350000Y-7990000D01*
X14350000Y-7950000D02*
X14310000Y-7990000D01*
X14340000Y-4940000D02*
X14380000Y-4980000D01*
X14380000Y-4940000D02*
X14340000Y-4980000D01*
X14370000Y-6580000D02*
X14410000Y-6620000D01*
X14410000Y-6580000D02*
X14370000Y-6620000D01*
X14400000Y-7880000D02*
X14440000Y-7920000D01*
X14440000Y-7880000D02*
X14400000Y-7920000D01*
X14400000Y-9980000D02*
X14440000Y-10020000D01*
X14440000Y-9980000D02*
X14400000Y-10020000D01*
X14410000Y-7750000D02*
X14450000Y-7790000D01*
X14450000Y-7750000D02*
X14410000Y-7790000D01*
X14420000Y-6460000D02*
X14460000Y-6500000D01*
X14460000Y-6460000D02*
X14420000Y-6500000D01*
X14420000Y-9730000D02*
X14460000Y-9770000D01*
X14460000Y-9730000D02*
X14420000Y-9770000D01*
X14420000Y-10250000D02*
X14460000Y-10290000D01*
X14460000Y-10250000D02*
X14420000Y-10290000D01*
X14430000Y-5980000D02*
X14470000Y-6020000D01*
X14470000Y-5980000D02*
X14430000Y-6020000D01*
X14430000Y-9080000D02*
X14470000Y-9120000D01*
X14470000Y-9080000D02*
X14430000Y-9120000D01*
X14436500Y-11206500D02*
X14476500Y-11246500D01*
X14476500Y-11206500D02*
X14436500Y-11246500D01*
X14440000Y-10560000D02*
X14480000Y-10600000D01*
X14480000Y-10560000D02*
X14440000Y-10600000D01*
X14450000Y-6120000D02*
X14490000Y-6160000D01*
X14490000Y-6120000D02*
X14450000Y-6160000D01*
X14480000Y-4960000D02*
X14520000Y-5000000D01*
X14520000Y-4960000D02*
X14480000Y-5000000D01*
X14480000Y-7660000D02*
X14520000Y-7700000D01*
X14520000Y-7660000D02*
X14480000Y-7700000D01*
X14500000Y-7480000D02*
X14540000Y-7520000D01*
X14540000Y-7480000D02*
X14500000Y-7520000D01*
X14520000Y-9290000D02*
X14560000Y-9330000D01*
X14560000Y-9290000D02*
X14520000Y-9330000D01*
X14550000Y-6820000D02*
X14590000Y-6860000D01*
X14590000Y-6820000D02*
X14550000Y-6860000D01*
X14550000Y-8630000D02*
X14590000Y-8670000D01*
X14590000Y-8630000D02*
X14550000Y-8670000D01*
X14550000Y-10080000D02*
X14590000Y-10120000D01*
X14590000Y-10080000D02*
X14550000Y-10120000D01*
X14580000Y-10820000D02*
X14620000Y-10860000D01*
X14620000Y-10820000D02*
X14580000Y-10860000D01*
X14590000Y-6460000D02*
X14630000Y-6500000D01*
X14630000Y-6460000D02*
X14590000Y-6500000D01*
X14610000Y-4970000D02*
X14650000Y-5010000D01*
X14650000Y-4970000D02*
X14610000Y-5010000D01*
X14630000Y-11240000D02*
X14670000Y-11280000D01*
X14670000Y-11240000D02*
X14630000Y-11280000D01*
X14660000Y-6570000D02*
X14700000Y-6610000D01*
X14700000Y-6570000D02*
X14660000Y-6610000D01*
X14667500Y-7552500D02*
X14707500Y-7592500D01*
X14707500Y-7552500D02*
X14667500Y-7592500D01*
X14700000Y-9990000D02*
X14740000Y-10030000D01*
X14740000Y-9990000D02*
X14700000Y-10030000D01*
X14730000Y-7230000D02*
X14770000Y-7270000D01*
X14770000Y-7230000D02*
X14730000Y-7270000D01*
X14740000Y-7060000D02*
X14780000Y-7100000D01*
X14780000Y-7060000D02*
X14740000Y-7100000D01*
X14760000Y-10510000D02*
X14800000Y-10550000D01*
X14800000Y-10510000D02*
X14760000Y-10550000D01*
X14775000Y-12045000D02*
X14815000Y-12085000D01*
X14815000Y-12045000D02*
X14775000Y-12085000D01*
X14790000Y-9930000D02*
X14830000Y-9970000D01*
X14830000Y-9930000D02*
X14790000Y-9970000D01*
X14790000Y-12180000D02*
X14830000Y-12220000D01*
X14830000Y-12180000D02*
X14790000Y-12220000D01*
X14820000Y-10840000D02*
X14860000Y-10880000D01*
X14860000Y-10840000D02*
X14820000Y-10880000D01*
X14895000Y-9505000D02*
X14935000Y-9545000D01*
X14935000Y-9505000D02*
X14895000Y-9545000D01*
X14899500Y-9079500D02*
X14939500Y-9119500D01*
X14939500Y-9079500D02*
X14899500Y-9119500D01*
X14944500Y-11355500D02*
X14984500Y-11395500D01*
X14984500Y-11355500D02*
X14944500Y-11395500D01*
X14962500Y-9937500D02*
X15002500Y-9977500D01*
X15002500Y-9937500D02*
X14962500Y-9977500D01*
X15030000Y-8560000D02*
X15070000Y-8600000D01*
X15070000Y-8560000D02*
X15030000Y-8600000D01*
X15040000Y-10400000D02*
X15080000Y-10440000D01*
X15080000Y-10400000D02*
X15040000Y-10440000D01*
X15090000Y-8340000D02*
X15130000Y-8380000D01*
X15130000Y-8340000D02*
X15090000Y-8380000D01*
X15130000Y-10840000D02*
X15170000Y-10880000D01*
X15170000Y-10840000D02*
X15130000Y-10880000D01*
X15160000Y-11280000D02*
X15200000Y-11320000D01*
X15200000Y-11280000D02*
X15160000Y-11320000D01*
X15160000Y-12100000D02*
X15200000Y-12140000D01*
X15200000Y-12100000D02*
X15160000Y-12140000D01*
X15200000Y-8500000D02*
X15240000Y-8540000D01*
X15240000Y-8500000D02*
X15200000Y-8540000D01*
X15200000Y-10390000D02*
X15240000Y-10430000D01*
X15240000Y-10390000D02*
X15200000Y-10430000D01*
X15230000Y-10800000D02*
X15270000Y-10840000D01*
X15270000Y-10800000D02*
X15230000Y-10840000D01*
X15240000Y-9840000D02*
X15280000Y-9880000D01*
X15280000Y-9840000D02*
X15240000Y-9880000D01*
X15260000Y-10270000D02*
X15300000Y-10310000D01*
X15300000Y-10270000D02*
X15260000Y-10310000D01*
X15320000Y-10450000D02*
X15360000Y-10490000D01*
X15360000Y-10450000D02*
X15320000Y-10490000D01*
X15374500Y-9714500D02*
X15414500Y-9754500D01*
X15414500Y-9714500D02*
X15374500Y-9754500D01*
X15380000Y-9920000D02*
X15420000Y-9960000D01*
X15420000Y-9920000D02*
X15380000Y-9960000D01*
X15380000Y-11060000D02*
X15420000Y-11100000D01*
X15420000Y-11060000D02*
X15380000Y-11100000D01*
X15390000Y-10920000D02*
X15430000Y-10960000D01*
X15430000Y-10920000D02*
X15390000Y-10960000D01*
X15410000Y-8290000D02*
X15450000Y-8330000D01*
X15450000Y-8290000D02*
X15410000Y-8330000D01*
X15417500Y-10507500D02*
X15457500Y-10547500D01*
X15457500Y-10507500D02*
X15417500Y-10547500D01*
X15465000Y-11165000D02*
X15505000Y-11205000D01*
X15505000Y-11165000D02*
X15465000Y-11205000D01*
X15505000Y-8695000D02*
X15545000Y-8735000D01*
X15545000Y-8695000D02*
X15505000Y-8735000D01*
X15550000Y-9880000D02*
X15590000Y-9920000D01*
X15590000Y-9880000D02*
X15550000Y-9920000D01*
X15550000Y-11950000D02*
X15590000Y-11990000D01*
X15590000Y-11950000D02*
X15550000Y-11990000D01*
X15570000Y-11800000D02*
X15610000Y-11840000D01*
X15610000Y-11800000D02*
X15570000Y-11840000D01*
X15590000Y-8450000D02*
X15630000Y-8490000D01*
X15630000Y-8450000D02*
X15590000Y-8490000D01*
X15630000Y-7870000D02*
X15670000Y-7910000D01*
X15670000Y-7870000D02*
X15630000Y-7910000D01*
X15630000Y-10890000D02*
X15670000Y-10930000D01*
X15670000Y-10890000D02*
X15630000Y-10930000D01*
X15670000Y-8040000D02*
X15710000Y-8080000D01*
X15710000Y-8040000D02*
X15670000Y-8080000D01*
X15775001Y-10874999D02*
X15815001Y-10914999D01*
X15815001Y-10874999D02*
X15775001Y-10914999D01*
D13*
X11698100Y-5060000D02*
G75*
G03*
X11698100Y-5060000I-38100J0D01*
G01*
X11698100Y-5260000D02*
G75*
G03*
X11698100Y-5260000I-38100J0D01*
G01*
X11698100Y-5460000D02*
G75*
G03*
X11698100Y-5460000I-38100J0D01*
G01*
X11698100Y-5663200D02*
G75*
G03*
X11698100Y-5663200I-38100J0D01*
G01*
X11698100Y-6180000D02*
G75*
G03*
X11698100Y-6180000I-38100J0D01*
G01*
X11698100Y-6380000D02*
G75*
G03*
X11698100Y-6380000I-38100J0D01*
G01*
X11698100Y-6580000D02*
G75*
G03*
X11698100Y-6580000I-38100J0D01*
G01*
X11698100Y-6783200D02*
G75*
G03*
X11698100Y-6783200I-38100J0D01*
G01*
X11698100Y-7370000D02*
G75*
G03*
X11698100Y-7370000I-38100J0D01*
G01*
X11698100Y-7570000D02*
G75*
G03*
X11698100Y-7570000I-38100J0D01*
G01*
X11698100Y-7770000D02*
G75*
G03*
X11698100Y-7770000I-38100J0D01*
G01*
X11698100Y-7973200D02*
G75*
G03*
X11698100Y-7973200I-38100J0D01*
G01*
X11698100Y-8550000D02*
G75*
G03*
X11698100Y-8550000I-38100J0D01*
G01*
X11698100Y-8750000D02*
G75*
G03*
X11698100Y-8750000I-38100J0D01*
G01*
X11698100Y-8950000D02*
G75*
G03*
X11698100Y-8950000I-38100J0D01*
G01*
X11698100Y-9153200D02*
G75*
G03*
X11698100Y-9153200I-38100J0D01*
G01*
X15458100Y-4350000D02*
G75*
G03*
X15458100Y-4350000I-38100J0D01*
G01*
X15458100Y-4550000D02*
G75*
G03*
X15458100Y-4550000I-38100J0D01*
G01*
X15458100Y-4750000D02*
G75*
G03*
X15458100Y-4750000I-38100J0D01*
G01*
X15458100Y-4953200D02*
G75*
G03*
X15458100Y-4953200I-38100J0D01*
G01*
X15458100Y-5550000D02*
G75*
G03*
X15458100Y-5550000I-38100J0D01*
G01*
X15458100Y-5750000D02*
G75*
G03*
X15458100Y-5750000I-38100J0D01*
G01*
X15458100Y-5950000D02*
G75*
G03*
X15458100Y-5950000I-38100J0D01*
G01*
X15458100Y-6153200D02*
G75*
G03*
X15458100Y-6153200I-38100J0D01*
G01*
X15468100Y-6750000D02*
G75*
G03*
X15468100Y-6750000I-38100J0D01*
G01*
X15468100Y-6950000D02*
G75*
G03*
X15468100Y-6950000I-38100J0D01*
G01*
X15468100Y-7150000D02*
G75*
G03*
X15468100Y-7150000I-38100J0D01*
G01*
X15468100Y-7353200D02*
G75*
G03*
X15468100Y-7353200I-38100J0D01*
G01*
D14*
X11954000Y-12616000D02*
X11954000Y-12716000D01*
X11904000Y-12666000D02*
X12004000Y-12666000D01*
X11954000Y-12870000D02*
X11954000Y-12970000D01*
X11904000Y-12920000D02*
X12004000Y-12920000D01*
X12208000Y-12616000D02*
X12208000Y-12716000D01*
X12158000Y-12666000D02*
X12258000Y-12666000D01*
X12208000Y-12870000D02*
X12208000Y-12970000D01*
X12158000Y-12920000D02*
X12258000Y-12920000D01*
X12462000Y-12616000D02*
X12462000Y-12716000D01*
X12412000Y-12666000D02*
X12512000Y-12666000D01*
X12462000Y-12870000D02*
X12462000Y-12970000D01*
X12412000Y-12920000D02*
X12512000Y-12920000D01*
X12716000Y-12616000D02*
X12716000Y-12716000D01*
X12666000Y-12666000D02*
X12766000Y-12666000D01*
X12716000Y-12870000D02*
X12716000Y-12970000D01*
X12666000Y-12920000D02*
X12766000Y-12920000D01*
X12970000Y-12616000D02*
X12970000Y-12716000D01*
X12920000Y-12666000D02*
X13020000Y-12666000D01*
X12970000Y-12870000D02*
X12970000Y-12970000D01*
X12920000Y-12920000D02*
X13020000Y-12920000D01*
X14190000Y-12620000D02*
X14190000Y-12720000D01*
X14140000Y-12670000D02*
X14240000Y-12670000D01*
X14190000Y-12874000D02*
X14190000Y-12974000D01*
X14140000Y-12924000D02*
X14240000Y-12924000D01*
X14444000Y-12620000D02*
X14444000Y-12720000D01*
X14394000Y-12670000D02*
X14494000Y-12670000D01*
X14444000Y-12874000D02*
X14444000Y-12974000D01*
X14394000Y-12924000D02*
X14494000Y-12924000D01*
X14698000Y-12620000D02*
X14698000Y-12720000D01*
X14648000Y-12670000D02*
X14748000Y-12670000D01*
X14698000Y-12874000D02*
X14698000Y-12974000D01*
X14648000Y-12924000D02*
X14748000Y-12924000D01*
X14952000Y-12620000D02*
X14952000Y-12720000D01*
X14902000Y-12670000D02*
X15002000Y-12670000D01*
X14952000Y-12874000D02*
X14952000Y-12974000D01*
X14902000Y-12924000D02*
X15002000Y-12924000D01*
X15206000Y-12620000D02*
X15206000Y-12720000D01*
X15156000Y-12670000D02*
X15256000Y-12670000D01*
X15206000Y-12874000D02*
X15206000Y-12974000D01*
X15156000Y-12924000D02*
X15256000Y-12924000D01*
D11*
X11452619Y-13815476D02*
X11452619Y-13615476D01*
X11500238Y-13615476D01*
X11528809Y-13625000D01*
X11547857Y-13644048D01*
X11557381Y-13663095D01*
X11566905Y-13701190D01*
X11566905Y-13729762D01*
X11557381Y-13767857D01*
X11547857Y-13786905D01*
X11528809Y-13805952D01*
X11500238Y-13815476D01*
X11452619Y-13815476D01*
X11652619Y-13815476D02*
X11652619Y-13682143D01*
X11652619Y-13720238D02*
X11662143Y-13701190D01*
X11671667Y-13691667D01*
X11690714Y-13682143D01*
X11709762Y-13682143D01*
X11776428Y-13815476D02*
X11776428Y-13682143D01*
X11776428Y-13615476D02*
X11766905Y-13625000D01*
X11776428Y-13634524D01*
X11785952Y-13625000D01*
X11776428Y-13615476D01*
X11776428Y-13634524D01*
X11900238Y-13815476D02*
X11881190Y-13805952D01*
X11871667Y-13786905D01*
X11871667Y-13615476D01*
X12005000Y-13815476D02*
X11985952Y-13805952D01*
X11976428Y-13786905D01*
X11976428Y-13615476D01*
X12233571Y-13815476D02*
X12233571Y-13615476D01*
X12300238Y-13758333D01*
X12366905Y-13615476D01*
X12366905Y-13815476D01*
X12547857Y-13815476D02*
X12547857Y-13710714D01*
X12538333Y-13691667D01*
X12519286Y-13682143D01*
X12481190Y-13682143D01*
X12462143Y-13691667D01*
X12547857Y-13805952D02*
X12528809Y-13815476D01*
X12481190Y-13815476D01*
X12462143Y-13805952D01*
X12452619Y-13786905D01*
X12452619Y-13767857D01*
X12462143Y-13748809D01*
X12481190Y-13739286D01*
X12528809Y-13739286D01*
X12547857Y-13729762D01*
X12643095Y-13682143D02*
X12643095Y-13882143D01*
X12643095Y-13691667D02*
X12662143Y-13682143D01*
X12700238Y-13682143D01*
X12719286Y-13691667D01*
X12728809Y-13701190D01*
X12738333Y-13720238D01*
X12738333Y-13777381D01*
X12728809Y-13796428D01*
X12719286Y-13805952D01*
X12700238Y-13815476D01*
X12662143Y-13815476D01*
X12643095Y-13805952D01*
X12824048Y-13796428D02*
X12833571Y-13805952D01*
X12824048Y-13815476D01*
X12814524Y-13805952D01*
X12824048Y-13796428D01*
X12824048Y-13815476D01*
X12824048Y-13691667D02*
X12833571Y-13701190D01*
X12824048Y-13710714D01*
X12814524Y-13701190D01*
X12824048Y-13691667D01*
X12824048Y-13710714D01*
D12*
X11155000Y-14125000D02*
X11195000Y-14165000D01*
X11195000Y-14125000D02*
X11155000Y-14165000D01*
D11*
X11490714Y-14035476D02*
X11509762Y-14035476D01*
X11528809Y-14045000D01*
X11538333Y-14054524D01*
X11547857Y-14073571D01*
X11557381Y-14111667D01*
X11557381Y-14159286D01*
X11547857Y-14197381D01*
X11538333Y-14216428D01*
X11528809Y-14225952D01*
X11509762Y-14235476D01*
X11490714Y-14235476D01*
X11471667Y-14225952D01*
X11462143Y-14216428D01*
X11452619Y-14197381D01*
X11443095Y-14159286D01*
X11443095Y-14111667D01*
X11452619Y-14073571D01*
X11462143Y-14054524D01*
X11471667Y-14045000D01*
X11490714Y-14035476D01*
X11643095Y-14216428D02*
X11652619Y-14225952D01*
X11643095Y-14235476D01*
X11633571Y-14225952D01*
X11643095Y-14216428D01*
X11643095Y-14235476D01*
X11824048Y-14102143D02*
X11824048Y-14235476D01*
X11776428Y-14025952D02*
X11728809Y-14168809D01*
X11852619Y-14168809D01*
X11966905Y-14035476D02*
X11985952Y-14035476D01*
X12005000Y-14045000D01*
X12014524Y-14054524D01*
X12024048Y-14073571D01*
X12033571Y-14111667D01*
X12033571Y-14159286D01*
X12024048Y-14197381D01*
X12014524Y-14216428D01*
X12005000Y-14225952D01*
X11985952Y-14235476D01*
X11966905Y-14235476D01*
X11947857Y-14225952D01*
X11938333Y-14216428D01*
X11928809Y-14197381D01*
X11919286Y-14159286D01*
X11919286Y-14111667D01*
X11928809Y-14073571D01*
X11938333Y-14054524D01*
X11947857Y-14045000D01*
X11966905Y-14035476D01*
X12157381Y-14035476D02*
X12176428Y-14035476D01*
X12195476Y-14045000D01*
X12205000Y-14054524D01*
X12214524Y-14073571D01*
X12224048Y-14111667D01*
X12224048Y-14159286D01*
X12214524Y-14197381D01*
X12205000Y-14216428D01*
X12195476Y-14225952D01*
X12176428Y-14235476D01*
X12157381Y-14235476D01*
X12138333Y-14225952D01*
X12128809Y-14216428D01*
X12119286Y-14197381D01*
X12109762Y-14159286D01*
X12109762Y-14111667D01*
X12119286Y-14073571D01*
X12128809Y-14054524D01*
X12138333Y-14045000D01*
X12157381Y-14035476D01*
X12309762Y-14235476D02*
X12309762Y-14102143D01*
X12309762Y-14121190D02*
X12319286Y-14111667D01*
X12338333Y-14102143D01*
X12366905Y-14102143D01*
X12385952Y-14111667D01*
X12395476Y-14130714D01*
X12395476Y-14235476D01*
X12395476Y-14130714D02*
X12405000Y-14111667D01*
X12424048Y-14102143D01*
X12452619Y-14102143D01*
X12471667Y-14111667D01*
X12481190Y-14130714D01*
X12481190Y-14235476D01*
X12576428Y-14235476D02*
X12576428Y-14102143D01*
X12576428Y-14121190D02*
X12585952Y-14111667D01*
X12605000Y-14102143D01*
X12633571Y-14102143D01*
X12652619Y-14111667D01*
X12662143Y-14130714D01*
X12662143Y-14235476D01*
X12662143Y-14130714D02*
X12671667Y-14111667D01*
X12690714Y-14102143D01*
X12719286Y-14102143D01*
X12738333Y-14111667D01*
X12747857Y-14130714D01*
X12747857Y-14235476D01*
X13138333Y-14025952D02*
X12966905Y-14283095D01*
X13395476Y-14035476D02*
X13414524Y-14035476D01*
X13433571Y-14045000D01*
X13443095Y-14054524D01*
X13452619Y-14073571D01*
X13462143Y-14111667D01*
X13462143Y-14159286D01*
X13452619Y-14197381D01*
X13443095Y-14216428D01*
X13433571Y-14225952D01*
X13414524Y-14235476D01*
X13395476Y-14235476D01*
X13376428Y-14225952D01*
X13366905Y-14216428D01*
X13357381Y-14197381D01*
X13347857Y-14159286D01*
X13347857Y-14111667D01*
X13357381Y-14073571D01*
X13366905Y-14054524D01*
X13376428Y-14045000D01*
X13395476Y-14035476D01*
X13547857Y-14216428D02*
X13557381Y-14225952D01*
X13547857Y-14235476D01*
X13538333Y-14225952D01*
X13547857Y-14216428D01*
X13547857Y-14235476D01*
X13681190Y-14035476D02*
X13700238Y-14035476D01*
X13719286Y-14045000D01*
X13728809Y-14054524D01*
X13738333Y-14073571D01*
X13747857Y-14111667D01*
X13747857Y-14159286D01*
X13738333Y-14197381D01*
X13728809Y-14216428D01*
X13719286Y-14225952D01*
X13700238Y-14235476D01*
X13681190Y-14235476D01*
X13662143Y-14225952D01*
X13652619Y-14216428D01*
X13643095Y-14197381D01*
X13633571Y-14159286D01*
X13633571Y-14111667D01*
X13643095Y-14073571D01*
X13652619Y-14054524D01*
X13662143Y-14045000D01*
X13681190Y-14035476D01*
X13938333Y-14235476D02*
X13824048Y-14235476D01*
X13881190Y-14235476D02*
X13881190Y-14035476D01*
X13862143Y-14064048D01*
X13843095Y-14083095D01*
X13824048Y-14092619D01*
X14119286Y-14035476D02*
X14024048Y-14035476D01*
X14014524Y-14130714D01*
X14024048Y-14121190D01*
X14043095Y-14111667D01*
X14090714Y-14111667D01*
X14109762Y-14121190D01*
X14119286Y-14130714D01*
X14128809Y-14149762D01*
X14128809Y-14197381D01*
X14119286Y-14216428D01*
X14109762Y-14225952D01*
X14090714Y-14235476D01*
X14043095Y-14235476D01*
X14024048Y-14225952D01*
X14014524Y-14216428D01*
X14195476Y-14035476D02*
X14328809Y-14035476D01*
X14243095Y-14235476D01*
X14395476Y-14035476D02*
X14395476Y-14073571D01*
X14471667Y-14035476D02*
X14471667Y-14073571D01*
X14766905Y-14311667D02*
X14757381Y-14302143D01*
X14738333Y-14273571D01*
X14728809Y-14254524D01*
X14719286Y-14225952D01*
X14709762Y-14178333D01*
X14709762Y-14140238D01*
X14719286Y-14092619D01*
X14728809Y-14064048D01*
X14738333Y-14045000D01*
X14757381Y-14016428D01*
X14766905Y-14006905D01*
X14947857Y-14235476D02*
X14833571Y-14235476D01*
X14890714Y-14235476D02*
X14890714Y-14035476D01*
X14871667Y-14064048D01*
X14852619Y-14083095D01*
X14833571Y-14092619D01*
X15014524Y-14035476D02*
X15147857Y-14035476D01*
X15062143Y-14235476D01*
X15319286Y-14035476D02*
X15224048Y-14035476D01*
X15214524Y-14130714D01*
X15224048Y-14121190D01*
X15243095Y-14111667D01*
X15290714Y-14111667D01*
X15309762Y-14121190D01*
X15319286Y-14130714D01*
X15328809Y-14149762D01*
X15328809Y-14197381D01*
X15319286Y-14216428D01*
X15309762Y-14225952D01*
X15290714Y-14235476D01*
X15243095Y-14235476D01*
X15224048Y-14225952D01*
X15214524Y-14216428D01*
X15566905Y-14235476D02*
X15566905Y-14035476D01*
X15652619Y-14235476D02*
X15652619Y-14130714D01*
X15643095Y-14111667D01*
X15624048Y-14102143D01*
X15595476Y-14102143D01*
X15576428Y-14111667D01*
X15566905Y-14121190D01*
X15776428Y-14235476D02*
X15757381Y-14225952D01*
X15747857Y-14216428D01*
X15738333Y-14197381D01*
X15738333Y-14140238D01*
X15747857Y-14121190D01*
X15757381Y-14111667D01*
X15776428Y-14102143D01*
X15805000Y-14102143D01*
X15824048Y-14111667D01*
X15833571Y-14121190D01*
X15843095Y-14140238D01*
X15843095Y-14197381D01*
X15833571Y-14216428D01*
X15824048Y-14225952D01*
X15805000Y-14235476D01*
X15776428Y-14235476D01*
X15957381Y-14235476D02*
X15938333Y-14225952D01*
X15928809Y-14206905D01*
X15928809Y-14035476D01*
X16109762Y-14225952D02*
X16090714Y-14235476D01*
X16052619Y-14235476D01*
X16033571Y-14225952D01*
X16024048Y-14206905D01*
X16024048Y-14130714D01*
X16033571Y-14111667D01*
X16052619Y-14102143D01*
X16090714Y-14102143D01*
X16109762Y-14111667D01*
X16119286Y-14130714D01*
X16119286Y-14149762D01*
X16024048Y-14168809D01*
X16195476Y-14225952D02*
X16214524Y-14235476D01*
X16252619Y-14235476D01*
X16271667Y-14225952D01*
X16281190Y-14206905D01*
X16281190Y-14197381D01*
X16271667Y-14178333D01*
X16252619Y-14168809D01*
X16224048Y-14168809D01*
X16205000Y-14159286D01*
X16195476Y-14140238D01*
X16195476Y-14130714D01*
X16205000Y-14111667D01*
X16224048Y-14102143D01*
X16252619Y-14102143D01*
X16271667Y-14111667D01*
X16347857Y-14311667D02*
X16357381Y-14302143D01*
X16376428Y-14273571D01*
X16385952Y-14254524D01*
X16395476Y-14225952D01*
X16405000Y-14178333D01*
X16405000Y-14140238D01*
X16395476Y-14092619D01*
X16385952Y-14064048D01*
X16376428Y-14045000D01*
X16357381Y-14016428D01*
X16347857Y-14006905D01*
D13*
X11195000Y-14409000D02*
G75*
G03*
X11195000Y-14409000I-38100J0D01*
G01*
D11*
X11490714Y-14299476D02*
X11509762Y-14299476D01*
X11528809Y-14309000D01*
X11538333Y-14318524D01*
X11547857Y-14337571D01*
X11557381Y-14375667D01*
X11557381Y-14423286D01*
X11547857Y-14461381D01*
X11538333Y-14480428D01*
X11528809Y-14489952D01*
X11509762Y-14499476D01*
X11490714Y-14499476D01*
X11471667Y-14489952D01*
X11462143Y-14480428D01*
X11452619Y-14461381D01*
X11443095Y-14423286D01*
X11443095Y-14375667D01*
X11452619Y-14337571D01*
X11462143Y-14318524D01*
X11471667Y-14309000D01*
X11490714Y-14299476D01*
X11643095Y-14480428D02*
X11652619Y-14489952D01*
X11643095Y-14499476D01*
X11633571Y-14489952D01*
X11643095Y-14480428D01*
X11643095Y-14499476D01*
X11719286Y-14299476D02*
X11852619Y-14299476D01*
X11766905Y-14499476D01*
X12014524Y-14299476D02*
X11976428Y-14299476D01*
X11957381Y-14309000D01*
X11947857Y-14318524D01*
X11928809Y-14347095D01*
X11919286Y-14385190D01*
X11919286Y-14461381D01*
X11928809Y-14480428D01*
X11938333Y-14489952D01*
X11957381Y-14499476D01*
X11995476Y-14499476D01*
X12014524Y-14489952D01*
X12024048Y-14480428D01*
X12033571Y-14461381D01*
X12033571Y-14413762D01*
X12024048Y-14394714D01*
X12014524Y-14385190D01*
X11995476Y-14375667D01*
X11957381Y-14375667D01*
X11938333Y-14385190D01*
X11928809Y-14394714D01*
X11919286Y-14413762D01*
X12109762Y-14318524D02*
X12119286Y-14309000D01*
X12138333Y-14299476D01*
X12185952Y-14299476D01*
X12205000Y-14309000D01*
X12214524Y-14318524D01*
X12224048Y-14337571D01*
X12224048Y-14356619D01*
X12214524Y-14385190D01*
X12100238Y-14499476D01*
X12224048Y-14499476D01*
X12309762Y-14499476D02*
X12309762Y-14366143D01*
X12309762Y-14385190D02*
X12319286Y-14375667D01*
X12338333Y-14366143D01*
X12366905Y-14366143D01*
X12385952Y-14375667D01*
X12395476Y-14394714D01*
X12395476Y-14499476D01*
X12395476Y-14394714D02*
X12405000Y-14375667D01*
X12424048Y-14366143D01*
X12452619Y-14366143D01*
X12471667Y-14375667D01*
X12481190Y-14394714D01*
X12481190Y-14499476D01*
X12576428Y-14499476D02*
X12576428Y-14366143D01*
X12576428Y-14385190D02*
X12585952Y-14375667D01*
X12605000Y-14366143D01*
X12633571Y-14366143D01*
X12652619Y-14375667D01*
X12662143Y-14394714D01*
X12662143Y-14499476D01*
X12662143Y-14394714D02*
X12671667Y-14375667D01*
X12690714Y-14366143D01*
X12719286Y-14366143D01*
X12738333Y-14375667D01*
X12747857Y-14394714D01*
X12747857Y-14499476D01*
X13138333Y-14289952D02*
X12966905Y-14547095D01*
X13395476Y-14299476D02*
X13414524Y-14299476D01*
X13433571Y-14309000D01*
X13443095Y-14318524D01*
X13452619Y-14337571D01*
X13462143Y-14375667D01*
X13462143Y-14423286D01*
X13452619Y-14461381D01*
X13443095Y-14480428D01*
X13433571Y-14489952D01*
X13414524Y-14499476D01*
X13395476Y-14499476D01*
X13376428Y-14489952D01*
X13366905Y-14480428D01*
X13357381Y-14461381D01*
X13347857Y-14423286D01*
X13347857Y-14375667D01*
X13357381Y-14337571D01*
X13366905Y-14318524D01*
X13376428Y-14309000D01*
X13395476Y-14299476D01*
X13547857Y-14480428D02*
X13557381Y-14489952D01*
X13547857Y-14499476D01*
X13538333Y-14489952D01*
X13547857Y-14480428D01*
X13547857Y-14499476D01*
X13681190Y-14299476D02*
X13700238Y-14299476D01*
X13719286Y-14309000D01*
X13728809Y-14318524D01*
X13738333Y-14337571D01*
X13747857Y-14375667D01*
X13747857Y-14423286D01*
X13738333Y-14461381D01*
X13728809Y-14480428D01*
X13719286Y-14489952D01*
X13700238Y-14499476D01*
X13681190Y-14499476D01*
X13662143Y-14489952D01*
X13652619Y-14480428D01*
X13643095Y-14461381D01*
X13633571Y-14423286D01*
X13633571Y-14375667D01*
X13643095Y-14337571D01*
X13652619Y-14318524D01*
X13662143Y-14309000D01*
X13681190Y-14299476D01*
X13814524Y-14299476D02*
X13938333Y-14299476D01*
X13871667Y-14375667D01*
X13900238Y-14375667D01*
X13919286Y-14385190D01*
X13928809Y-14394714D01*
X13938333Y-14413762D01*
X13938333Y-14461381D01*
X13928809Y-14480428D01*
X13919286Y-14489952D01*
X13900238Y-14499476D01*
X13843095Y-14499476D01*
X13824048Y-14489952D01*
X13814524Y-14480428D01*
X14062143Y-14299476D02*
X14081190Y-14299476D01*
X14100238Y-14309000D01*
X14109762Y-14318524D01*
X14119286Y-14337571D01*
X14128809Y-14375667D01*
X14128809Y-14423286D01*
X14119286Y-14461381D01*
X14109762Y-14480428D01*
X14100238Y-14489952D01*
X14081190Y-14499476D01*
X14062143Y-14499476D01*
X14043095Y-14489952D01*
X14033571Y-14480428D01*
X14024048Y-14461381D01*
X14014524Y-14423286D01*
X14014524Y-14375667D01*
X14024048Y-14337571D01*
X14033571Y-14318524D01*
X14043095Y-14309000D01*
X14062143Y-14299476D01*
X14252619Y-14299476D02*
X14271667Y-14299476D01*
X14290714Y-14309000D01*
X14300238Y-14318524D01*
X14309762Y-14337571D01*
X14319286Y-14375667D01*
X14319286Y-14423286D01*
X14309762Y-14461381D01*
X14300238Y-14480428D01*
X14290714Y-14489952D01*
X14271667Y-14499476D01*
X14252619Y-14499476D01*
X14233571Y-14489952D01*
X14224048Y-14480428D01*
X14214524Y-14461381D01*
X14205000Y-14423286D01*
X14205000Y-14375667D01*
X14214524Y-14337571D01*
X14224048Y-14318524D01*
X14233571Y-14309000D01*
X14252619Y-14299476D01*
X14395476Y-14299476D02*
X14395476Y-14337571D01*
X14471667Y-14299476D02*
X14471667Y-14337571D01*
X14766905Y-14575667D02*
X14757381Y-14566143D01*
X14738333Y-14537571D01*
X14728809Y-14518524D01*
X14719286Y-14489952D01*
X14709762Y-14442333D01*
X14709762Y-14404238D01*
X14719286Y-14356619D01*
X14728809Y-14328048D01*
X14738333Y-14309000D01*
X14757381Y-14280428D01*
X14766905Y-14270905D01*
X14833571Y-14318524D02*
X14843095Y-14309000D01*
X14862143Y-14299476D01*
X14909762Y-14299476D01*
X14928809Y-14309000D01*
X14938333Y-14318524D01*
X14947857Y-14337571D01*
X14947857Y-14356619D01*
X14938333Y-14385190D01*
X14824048Y-14499476D01*
X14947857Y-14499476D01*
X15062143Y-14385190D02*
X15043095Y-14375667D01*
X15033571Y-14366143D01*
X15024048Y-14347095D01*
X15024048Y-14337571D01*
X15033571Y-14318524D01*
X15043095Y-14309000D01*
X15062143Y-14299476D01*
X15100238Y-14299476D01*
X15119286Y-14309000D01*
X15128809Y-14318524D01*
X15138333Y-14337571D01*
X15138333Y-14347095D01*
X15128809Y-14366143D01*
X15119286Y-14375667D01*
X15100238Y-14385190D01*
X15062143Y-14385190D01*
X15043095Y-14394714D01*
X15033571Y-14404238D01*
X15024048Y-14423286D01*
X15024048Y-14461381D01*
X15033571Y-14480428D01*
X15043095Y-14489952D01*
X15062143Y-14499476D01*
X15100238Y-14499476D01*
X15119286Y-14489952D01*
X15128809Y-14480428D01*
X15138333Y-14461381D01*
X15138333Y-14423286D01*
X15128809Y-14404238D01*
X15119286Y-14394714D01*
X15100238Y-14385190D01*
X15376428Y-14499476D02*
X15376428Y-14299476D01*
X15462143Y-14499476D02*
X15462143Y-14394714D01*
X15452619Y-14375667D01*
X15433571Y-14366143D01*
X15405000Y-14366143D01*
X15385952Y-14375667D01*
X15376428Y-14385190D01*
X15585952Y-14499476D02*
X15566905Y-14489952D01*
X15557381Y-14480428D01*
X15547857Y-14461381D01*
X15547857Y-14404238D01*
X15557381Y-14385190D01*
X15566905Y-14375667D01*
X15585952Y-14366143D01*
X15614524Y-14366143D01*
X15633571Y-14375667D01*
X15643095Y-14385190D01*
X15652619Y-14404238D01*
X15652619Y-14461381D01*
X15643095Y-14480428D01*
X15633571Y-14489952D01*
X15614524Y-14499476D01*
X15585952Y-14499476D01*
X15766905Y-14499476D02*
X15747857Y-14489952D01*
X15738333Y-14470905D01*
X15738333Y-14299476D01*
X15919286Y-14489952D02*
X15900238Y-14499476D01*
X15862143Y-14499476D01*
X15843095Y-14489952D01*
X15833571Y-14470905D01*
X15833571Y-14394714D01*
X15843095Y-14375667D01*
X15862143Y-14366143D01*
X15900238Y-14366143D01*
X15919286Y-14375667D01*
X15928809Y-14394714D01*
X15928809Y-14413762D01*
X15833571Y-14432809D01*
X16005000Y-14489952D02*
X16024048Y-14499476D01*
X16062143Y-14499476D01*
X16081190Y-14489952D01*
X16090714Y-14470905D01*
X16090714Y-14461381D01*
X16081190Y-14442333D01*
X16062143Y-14432809D01*
X16033571Y-14432809D01*
X16014524Y-14423286D01*
X16005000Y-14404238D01*
X16005000Y-14394714D01*
X16014524Y-14375667D01*
X16033571Y-14366143D01*
X16062143Y-14366143D01*
X16081190Y-14375667D01*
X16157381Y-14575667D02*
X16166905Y-14566143D01*
X16185952Y-14537571D01*
X16195476Y-14518524D01*
X16205000Y-14489952D01*
X16214524Y-14442333D01*
X16214524Y-14404238D01*
X16205000Y-14356619D01*
X16195476Y-14328048D01*
X16185952Y-14309000D01*
X16166905Y-14280428D01*
X16157381Y-14270905D01*
D14*
X11145000Y-14623000D02*
X11145000Y-14723000D01*
X11095000Y-14673000D02*
X11195000Y-14673000D01*
D11*
X11557381Y-14763476D02*
X11443095Y-14763476D01*
X11500238Y-14763476D02*
X11500238Y-14563476D01*
X11481190Y-14592048D01*
X11462143Y-14611095D01*
X11443095Y-14620619D01*
X11643095Y-14744428D02*
X11652619Y-14753952D01*
X11643095Y-14763476D01*
X11633571Y-14753952D01*
X11643095Y-14744428D01*
X11643095Y-14763476D01*
X11776428Y-14563476D02*
X11795476Y-14563476D01*
X11814524Y-14573000D01*
X11824048Y-14582524D01*
X11833571Y-14601571D01*
X11843095Y-14639667D01*
X11843095Y-14687286D01*
X11833571Y-14725381D01*
X11824048Y-14744428D01*
X11814524Y-14753952D01*
X11795476Y-14763476D01*
X11776428Y-14763476D01*
X11757381Y-14753952D01*
X11747857Y-14744428D01*
X11738333Y-14725381D01*
X11728809Y-14687286D01*
X11728809Y-14639667D01*
X11738333Y-14601571D01*
X11747857Y-14582524D01*
X11757381Y-14573000D01*
X11776428Y-14563476D01*
X11966905Y-14563476D02*
X11985952Y-14563476D01*
X12005000Y-14573000D01*
X12014524Y-14582524D01*
X12024048Y-14601571D01*
X12033571Y-14639667D01*
X12033571Y-14687286D01*
X12024048Y-14725381D01*
X12014524Y-14744428D01*
X12005000Y-14753952D01*
X11985952Y-14763476D01*
X11966905Y-14763476D01*
X11947857Y-14753952D01*
X11938333Y-14744428D01*
X11928809Y-14725381D01*
X11919286Y-14687286D01*
X11919286Y-14639667D01*
X11928809Y-14601571D01*
X11938333Y-14582524D01*
X11947857Y-14573000D01*
X11966905Y-14563476D01*
X12157381Y-14563476D02*
X12176428Y-14563476D01*
X12195476Y-14573000D01*
X12205000Y-14582524D01*
X12214524Y-14601571D01*
X12224048Y-14639667D01*
X12224048Y-14687286D01*
X12214524Y-14725381D01*
X12205000Y-14744428D01*
X12195476Y-14753952D01*
X12176428Y-14763476D01*
X12157381Y-14763476D01*
X12138333Y-14753952D01*
X12128809Y-14744428D01*
X12119286Y-14725381D01*
X12109762Y-14687286D01*
X12109762Y-14639667D01*
X12119286Y-14601571D01*
X12128809Y-14582524D01*
X12138333Y-14573000D01*
X12157381Y-14563476D01*
X12309762Y-14763476D02*
X12309762Y-14630143D01*
X12309762Y-14649190D02*
X12319286Y-14639667D01*
X12338333Y-14630143D01*
X12366905Y-14630143D01*
X12385952Y-14639667D01*
X12395476Y-14658714D01*
X12395476Y-14763476D01*
X12395476Y-14658714D02*
X12405000Y-14639667D01*
X12424048Y-14630143D01*
X12452619Y-14630143D01*
X12471667Y-14639667D01*
X12481190Y-14658714D01*
X12481190Y-14763476D01*
X12576428Y-14763476D02*
X12576428Y-14630143D01*
X12576428Y-14649190D02*
X12585952Y-14639667D01*
X12605000Y-14630143D01*
X12633571Y-14630143D01*
X12652619Y-14639667D01*
X12662143Y-14658714D01*
X12662143Y-14763476D01*
X12662143Y-14658714D02*
X12671667Y-14639667D01*
X12690714Y-14630143D01*
X12719286Y-14630143D01*
X12738333Y-14639667D01*
X12747857Y-14658714D01*
X12747857Y-14763476D01*
X13138333Y-14553952D02*
X12966905Y-14811095D01*
X13395476Y-14563476D02*
X13414524Y-14563476D01*
X13433571Y-14573000D01*
X13443095Y-14582524D01*
X13452619Y-14601571D01*
X13462143Y-14639667D01*
X13462143Y-14687286D01*
X13452619Y-14725381D01*
X13443095Y-14744428D01*
X13433571Y-14753952D01*
X13414524Y-14763476D01*
X13395476Y-14763476D01*
X13376428Y-14753952D01*
X13366905Y-14744428D01*
X13357381Y-14725381D01*
X13347857Y-14687286D01*
X13347857Y-14639667D01*
X13357381Y-14601571D01*
X13366905Y-14582524D01*
X13376428Y-14573000D01*
X13395476Y-14563476D01*
X13547857Y-14744428D02*
X13557381Y-14753952D01*
X13547857Y-14763476D01*
X13538333Y-14753952D01*
X13547857Y-14744428D01*
X13547857Y-14763476D01*
X13681190Y-14563476D02*
X13700238Y-14563476D01*
X13719286Y-14573000D01*
X13728809Y-14582524D01*
X13738333Y-14601571D01*
X13747857Y-14639667D01*
X13747857Y-14687286D01*
X13738333Y-14725381D01*
X13728809Y-14744428D01*
X13719286Y-14753952D01*
X13700238Y-14763476D01*
X13681190Y-14763476D01*
X13662143Y-14753952D01*
X13652619Y-14744428D01*
X13643095Y-14725381D01*
X13633571Y-14687286D01*
X13633571Y-14639667D01*
X13643095Y-14601571D01*
X13652619Y-14582524D01*
X13662143Y-14573000D01*
X13681190Y-14563476D01*
X13814524Y-14563476D02*
X13938333Y-14563476D01*
X13871667Y-14639667D01*
X13900238Y-14639667D01*
X13919286Y-14649190D01*
X13928809Y-14658714D01*
X13938333Y-14677762D01*
X13938333Y-14725381D01*
X13928809Y-14744428D01*
X13919286Y-14753952D01*
X13900238Y-14763476D01*
X13843095Y-14763476D01*
X13824048Y-14753952D01*
X13814524Y-14744428D01*
X14033571Y-14763476D02*
X14071667Y-14763476D01*
X14090714Y-14753952D01*
X14100238Y-14744428D01*
X14119286Y-14715857D01*
X14128809Y-14677762D01*
X14128809Y-14601571D01*
X14119286Y-14582524D01*
X14109762Y-14573000D01*
X14090714Y-14563476D01*
X14052619Y-14563476D01*
X14033571Y-14573000D01*
X14024048Y-14582524D01*
X14014524Y-14601571D01*
X14014524Y-14649190D01*
X14024048Y-14668238D01*
X14033571Y-14677762D01*
X14052619Y-14687286D01*
X14090714Y-14687286D01*
X14109762Y-14677762D01*
X14119286Y-14668238D01*
X14128809Y-14649190D01*
X14300238Y-14630143D02*
X14300238Y-14763476D01*
X14252619Y-14553952D02*
X14205000Y-14696809D01*
X14328809Y-14696809D01*
X14395476Y-14563476D02*
X14395476Y-14601571D01*
X14471667Y-14563476D02*
X14471667Y-14601571D01*
X14766905Y-14839667D02*
X14757381Y-14830143D01*
X14738333Y-14801571D01*
X14728809Y-14782524D01*
X14719286Y-14753952D01*
X14709762Y-14706333D01*
X14709762Y-14668238D01*
X14719286Y-14620619D01*
X14728809Y-14592048D01*
X14738333Y-14573000D01*
X14757381Y-14544428D01*
X14766905Y-14534905D01*
X14833571Y-14582524D02*
X14843095Y-14573000D01*
X14862143Y-14563476D01*
X14909762Y-14563476D01*
X14928809Y-14573000D01*
X14938333Y-14582524D01*
X14947857Y-14601571D01*
X14947857Y-14620619D01*
X14938333Y-14649190D01*
X14824048Y-14763476D01*
X14947857Y-14763476D01*
X15071667Y-14563476D02*
X15090714Y-14563476D01*
X15109762Y-14573000D01*
X15119286Y-14582524D01*
X15128809Y-14601571D01*
X15138333Y-14639667D01*
X15138333Y-14687286D01*
X15128809Y-14725381D01*
X15119286Y-14744428D01*
X15109762Y-14753952D01*
X15090714Y-14763476D01*
X15071667Y-14763476D01*
X15052619Y-14753952D01*
X15043095Y-14744428D01*
X15033571Y-14725381D01*
X15024048Y-14687286D01*
X15024048Y-14639667D01*
X15033571Y-14601571D01*
X15043095Y-14582524D01*
X15052619Y-14573000D01*
X15071667Y-14563476D01*
X15376428Y-14763476D02*
X15376428Y-14563476D01*
X15462143Y-14763476D02*
X15462143Y-14658714D01*
X15452619Y-14639667D01*
X15433571Y-14630143D01*
X15405000Y-14630143D01*
X15385952Y-14639667D01*
X15376428Y-14649190D01*
X15585952Y-14763476D02*
X15566905Y-14753952D01*
X15557381Y-14744428D01*
X15547857Y-14725381D01*
X15547857Y-14668238D01*
X15557381Y-14649190D01*
X15566905Y-14639667D01*
X15585952Y-14630143D01*
X15614524Y-14630143D01*
X15633571Y-14639667D01*
X15643095Y-14649190D01*
X15652619Y-14668238D01*
X15652619Y-14725381D01*
X15643095Y-14744428D01*
X15633571Y-14753952D01*
X15614524Y-14763476D01*
X15585952Y-14763476D01*
X15766905Y-14763476D02*
X15747857Y-14753952D01*
X15738333Y-14734905D01*
X15738333Y-14563476D01*
X15919286Y-14753952D02*
X15900238Y-14763476D01*
X15862143Y-14763476D01*
X15843095Y-14753952D01*
X15833571Y-14734905D01*
X15833571Y-14658714D01*
X15843095Y-14639667D01*
X15862143Y-14630143D01*
X15900238Y-14630143D01*
X15919286Y-14639667D01*
X15928809Y-14658714D01*
X15928809Y-14677762D01*
X15833571Y-14696809D01*
X16005000Y-14753952D02*
X16024048Y-14763476D01*
X16062143Y-14763476D01*
X16081190Y-14753952D01*
X16090714Y-14734905D01*
X16090714Y-14725381D01*
X16081190Y-14706333D01*
X16062143Y-14696809D01*
X16033571Y-14696809D01*
X16014524Y-14687286D01*
X16005000Y-14668238D01*
X16005000Y-14658714D01*
X16014524Y-14639667D01*
X16033571Y-14630143D01*
X16062143Y-14630143D01*
X16081190Y-14639667D01*
X16157381Y-14839667D02*
X16166905Y-14830143D01*
X16185952Y-14801571D01*
X16195476Y-14782524D01*
X16205000Y-14753952D01*
X16214524Y-14706333D01*
X16214524Y-14668238D01*
X16205000Y-14620619D01*
X16195476Y-14592048D01*
X16185952Y-14573000D01*
X16166905Y-14544428D01*
X16157381Y-14534905D01*
M02*
