%TF.GenerationSoftware,KiCad,Pcbnew,5.1.9+dfsg1-1*%
%TF.CreationDate,2022-02-13T09:09:29-05:00*%
%TF.ProjectId,eurorack_to_3v3,6575726f-7261-4636-9b5f-746f5f337633,1*%
%TF.SameCoordinates,Original*%
%TF.FileFunction,Soldermask,Top*%
%TF.FilePolarity,Negative*%
%FSLAX46Y46*%
G04 Gerber Fmt 4.6, Leading zero omitted, Abs format (unit mm)*
G04 Created by KiCad (PCBNEW 5.1.9+dfsg1-1) date 2022-02-13 09:09:29*
%MOMM*%
%LPD*%
G01*
G04 APERTURE LIST*
%ADD10C,3.500000*%
%ADD11R,0.800000X0.900000*%
%ADD12R,1.200000X0.400000*%
%ADD13C,1.700000*%
%ADD14C,1.524000*%
%ADD15R,1.524000X1.524000*%
%ADD16R,1.300000X1.700000*%
G04 APERTURE END LIST*
%TO.C,R9*%
G36*
G01*
X122040000Y-105885000D02*
X122040000Y-105515000D01*
G75*
G02*
X122175000Y-105380000I135000J0D01*
G01*
X122445000Y-105380000D01*
G75*
G02*
X122580000Y-105515000I0J-135000D01*
G01*
X122580000Y-105885000D01*
G75*
G02*
X122445000Y-106020000I-135000J0D01*
G01*
X122175000Y-106020000D01*
G75*
G02*
X122040000Y-105885000I0J135000D01*
G01*
G37*
G36*
G01*
X121020000Y-105885000D02*
X121020000Y-105515000D01*
G75*
G02*
X121155000Y-105380000I135000J0D01*
G01*
X121425000Y-105380000D01*
G75*
G02*
X121560000Y-105515000I0J-135000D01*
G01*
X121560000Y-105885000D01*
G75*
G02*
X121425000Y-106020000I-135000J0D01*
G01*
X121155000Y-106020000D01*
G75*
G02*
X121020000Y-105885000I0J135000D01*
G01*
G37*
%TD*%
%TO.C,C23*%
G36*
G01*
X148500000Y-103770000D02*
X148500000Y-103430000D01*
G75*
G02*
X148640000Y-103290000I140000J0D01*
G01*
X148920000Y-103290000D01*
G75*
G02*
X149060000Y-103430000I0J-140000D01*
G01*
X149060000Y-103770000D01*
G75*
G02*
X148920000Y-103910000I-140000J0D01*
G01*
X148640000Y-103910000D01*
G75*
G02*
X148500000Y-103770000I0J140000D01*
G01*
G37*
G36*
G01*
X147540000Y-103770000D02*
X147540000Y-103430000D01*
G75*
G02*
X147680000Y-103290000I140000J0D01*
G01*
X147960000Y-103290000D01*
G75*
G02*
X148100000Y-103430000I0J-140000D01*
G01*
X148100000Y-103770000D01*
G75*
G02*
X147960000Y-103910000I-140000J0D01*
G01*
X147680000Y-103910000D01*
G75*
G02*
X147540000Y-103770000I0J140000D01*
G01*
G37*
%TD*%
%TO.C,U17*%
G36*
G01*
X155100000Y-88605000D02*
X155100000Y-88305000D01*
G75*
G02*
X155250000Y-88155000I150000J0D01*
G01*
X156900000Y-88155000D01*
G75*
G02*
X157050000Y-88305000I0J-150000D01*
G01*
X157050000Y-88605000D01*
G75*
G02*
X156900000Y-88755000I-150000J0D01*
G01*
X155250000Y-88755000D01*
G75*
G02*
X155100000Y-88605000I0J150000D01*
G01*
G37*
G36*
G01*
X155100000Y-89875000D02*
X155100000Y-89575000D01*
G75*
G02*
X155250000Y-89425000I150000J0D01*
G01*
X156900000Y-89425000D01*
G75*
G02*
X157050000Y-89575000I0J-150000D01*
G01*
X157050000Y-89875000D01*
G75*
G02*
X156900000Y-90025000I-150000J0D01*
G01*
X155250000Y-90025000D01*
G75*
G02*
X155100000Y-89875000I0J150000D01*
G01*
G37*
G36*
G01*
X155100000Y-91145000D02*
X155100000Y-90845000D01*
G75*
G02*
X155250000Y-90695000I150000J0D01*
G01*
X156900000Y-90695000D01*
G75*
G02*
X157050000Y-90845000I0J-150000D01*
G01*
X157050000Y-91145000D01*
G75*
G02*
X156900000Y-91295000I-150000J0D01*
G01*
X155250000Y-91295000D01*
G75*
G02*
X155100000Y-91145000I0J150000D01*
G01*
G37*
G36*
G01*
X155100000Y-92415000D02*
X155100000Y-92115000D01*
G75*
G02*
X155250000Y-91965000I150000J0D01*
G01*
X156900000Y-91965000D01*
G75*
G02*
X157050000Y-92115000I0J-150000D01*
G01*
X157050000Y-92415000D01*
G75*
G02*
X156900000Y-92565000I-150000J0D01*
G01*
X155250000Y-92565000D01*
G75*
G02*
X155100000Y-92415000I0J150000D01*
G01*
G37*
G36*
G01*
X155100000Y-93685000D02*
X155100000Y-93385000D01*
G75*
G02*
X155250000Y-93235000I150000J0D01*
G01*
X156900000Y-93235000D01*
G75*
G02*
X157050000Y-93385000I0J-150000D01*
G01*
X157050000Y-93685000D01*
G75*
G02*
X156900000Y-93835000I-150000J0D01*
G01*
X155250000Y-93835000D01*
G75*
G02*
X155100000Y-93685000I0J150000D01*
G01*
G37*
G36*
G01*
X155100000Y-94955000D02*
X155100000Y-94655000D01*
G75*
G02*
X155250000Y-94505000I150000J0D01*
G01*
X156900000Y-94505000D01*
G75*
G02*
X157050000Y-94655000I0J-150000D01*
G01*
X157050000Y-94955000D01*
G75*
G02*
X156900000Y-95105000I-150000J0D01*
G01*
X155250000Y-95105000D01*
G75*
G02*
X155100000Y-94955000I0J150000D01*
G01*
G37*
G36*
G01*
X155100000Y-96225000D02*
X155100000Y-95925000D01*
G75*
G02*
X155250000Y-95775000I150000J0D01*
G01*
X156900000Y-95775000D01*
G75*
G02*
X157050000Y-95925000I0J-150000D01*
G01*
X157050000Y-96225000D01*
G75*
G02*
X156900000Y-96375000I-150000J0D01*
G01*
X155250000Y-96375000D01*
G75*
G02*
X155100000Y-96225000I0J150000D01*
G01*
G37*
G36*
G01*
X155100000Y-97495000D02*
X155100000Y-97195000D01*
G75*
G02*
X155250000Y-97045000I150000J0D01*
G01*
X156900000Y-97045000D01*
G75*
G02*
X157050000Y-97195000I0J-150000D01*
G01*
X157050000Y-97495000D01*
G75*
G02*
X156900000Y-97645000I-150000J0D01*
G01*
X155250000Y-97645000D01*
G75*
G02*
X155100000Y-97495000I0J150000D01*
G01*
G37*
G36*
G01*
X150150000Y-97495000D02*
X150150000Y-97195000D01*
G75*
G02*
X150300000Y-97045000I150000J0D01*
G01*
X151950000Y-97045000D01*
G75*
G02*
X152100000Y-97195000I0J-150000D01*
G01*
X152100000Y-97495000D01*
G75*
G02*
X151950000Y-97645000I-150000J0D01*
G01*
X150300000Y-97645000D01*
G75*
G02*
X150150000Y-97495000I0J150000D01*
G01*
G37*
G36*
G01*
X150150000Y-96225000D02*
X150150000Y-95925000D01*
G75*
G02*
X150300000Y-95775000I150000J0D01*
G01*
X151950000Y-95775000D01*
G75*
G02*
X152100000Y-95925000I0J-150000D01*
G01*
X152100000Y-96225000D01*
G75*
G02*
X151950000Y-96375000I-150000J0D01*
G01*
X150300000Y-96375000D01*
G75*
G02*
X150150000Y-96225000I0J150000D01*
G01*
G37*
G36*
G01*
X150150000Y-94955000D02*
X150150000Y-94655000D01*
G75*
G02*
X150300000Y-94505000I150000J0D01*
G01*
X151950000Y-94505000D01*
G75*
G02*
X152100000Y-94655000I0J-150000D01*
G01*
X152100000Y-94955000D01*
G75*
G02*
X151950000Y-95105000I-150000J0D01*
G01*
X150300000Y-95105000D01*
G75*
G02*
X150150000Y-94955000I0J150000D01*
G01*
G37*
G36*
G01*
X150150000Y-93685000D02*
X150150000Y-93385000D01*
G75*
G02*
X150300000Y-93235000I150000J0D01*
G01*
X151950000Y-93235000D01*
G75*
G02*
X152100000Y-93385000I0J-150000D01*
G01*
X152100000Y-93685000D01*
G75*
G02*
X151950000Y-93835000I-150000J0D01*
G01*
X150300000Y-93835000D01*
G75*
G02*
X150150000Y-93685000I0J150000D01*
G01*
G37*
G36*
G01*
X150150000Y-92415000D02*
X150150000Y-92115000D01*
G75*
G02*
X150300000Y-91965000I150000J0D01*
G01*
X151950000Y-91965000D01*
G75*
G02*
X152100000Y-92115000I0J-150000D01*
G01*
X152100000Y-92415000D01*
G75*
G02*
X151950000Y-92565000I-150000J0D01*
G01*
X150300000Y-92565000D01*
G75*
G02*
X150150000Y-92415000I0J150000D01*
G01*
G37*
G36*
G01*
X150150000Y-91145000D02*
X150150000Y-90845000D01*
G75*
G02*
X150300000Y-90695000I150000J0D01*
G01*
X151950000Y-90695000D01*
G75*
G02*
X152100000Y-90845000I0J-150000D01*
G01*
X152100000Y-91145000D01*
G75*
G02*
X151950000Y-91295000I-150000J0D01*
G01*
X150300000Y-91295000D01*
G75*
G02*
X150150000Y-91145000I0J150000D01*
G01*
G37*
G36*
G01*
X150150000Y-89875000D02*
X150150000Y-89575000D01*
G75*
G02*
X150300000Y-89425000I150000J0D01*
G01*
X151950000Y-89425000D01*
G75*
G02*
X152100000Y-89575000I0J-150000D01*
G01*
X152100000Y-89875000D01*
G75*
G02*
X151950000Y-90025000I-150000J0D01*
G01*
X150300000Y-90025000D01*
G75*
G02*
X150150000Y-89875000I0J150000D01*
G01*
G37*
G36*
G01*
X150150000Y-88605000D02*
X150150000Y-88305000D01*
G75*
G02*
X150300000Y-88155000I150000J0D01*
G01*
X151950000Y-88155000D01*
G75*
G02*
X152100000Y-88305000I0J-150000D01*
G01*
X152100000Y-88605000D01*
G75*
G02*
X151950000Y-88755000I-150000J0D01*
G01*
X150300000Y-88755000D01*
G75*
G02*
X150150000Y-88605000I0J150000D01*
G01*
G37*
%TD*%
D10*
%TO.C,H3*%
X117000000Y-109900000D03*
%TD*%
%TO.C,H2*%
X146900000Y-82000000D03*
%TD*%
%TO.C,H1*%
X116400000Y-43400000D03*
%TD*%
D11*
%TO.C,U12*%
X141200000Y-51100000D03*
X142150000Y-53100000D03*
X140250000Y-53100000D03*
%TD*%
%TO.C,U24*%
X128800000Y-59300000D03*
X129750000Y-61300000D03*
X127850000Y-61300000D03*
%TD*%
%TO.C,U23*%
X141100000Y-59200000D03*
X142050000Y-61200000D03*
X140150000Y-61200000D03*
%TD*%
%TO.C,U22*%
X135100000Y-59200000D03*
X136050000Y-61200000D03*
X134150000Y-61200000D03*
%TD*%
%TO.C,U21*%
X147200000Y-59200000D03*
X148150000Y-61200000D03*
X146250000Y-61200000D03*
%TD*%
%TO.C,U20*%
G36*
G01*
X140905000Y-111600000D02*
X140605000Y-111600000D01*
G75*
G02*
X140455000Y-111450000I0J150000D01*
G01*
X140455000Y-109800000D01*
G75*
G02*
X140605000Y-109650000I150000J0D01*
G01*
X140905000Y-109650000D01*
G75*
G02*
X141055000Y-109800000I0J-150000D01*
G01*
X141055000Y-111450000D01*
G75*
G02*
X140905000Y-111600000I-150000J0D01*
G01*
G37*
G36*
G01*
X142175000Y-111600000D02*
X141875000Y-111600000D01*
G75*
G02*
X141725000Y-111450000I0J150000D01*
G01*
X141725000Y-109800000D01*
G75*
G02*
X141875000Y-109650000I150000J0D01*
G01*
X142175000Y-109650000D01*
G75*
G02*
X142325000Y-109800000I0J-150000D01*
G01*
X142325000Y-111450000D01*
G75*
G02*
X142175000Y-111600000I-150000J0D01*
G01*
G37*
G36*
G01*
X143445000Y-111600000D02*
X143145000Y-111600000D01*
G75*
G02*
X142995000Y-111450000I0J150000D01*
G01*
X142995000Y-109800000D01*
G75*
G02*
X143145000Y-109650000I150000J0D01*
G01*
X143445000Y-109650000D01*
G75*
G02*
X143595000Y-109800000I0J-150000D01*
G01*
X143595000Y-111450000D01*
G75*
G02*
X143445000Y-111600000I-150000J0D01*
G01*
G37*
G36*
G01*
X144715000Y-111600000D02*
X144415000Y-111600000D01*
G75*
G02*
X144265000Y-111450000I0J150000D01*
G01*
X144265000Y-109800000D01*
G75*
G02*
X144415000Y-109650000I150000J0D01*
G01*
X144715000Y-109650000D01*
G75*
G02*
X144865000Y-109800000I0J-150000D01*
G01*
X144865000Y-111450000D01*
G75*
G02*
X144715000Y-111600000I-150000J0D01*
G01*
G37*
G36*
G01*
X145985000Y-111600000D02*
X145685000Y-111600000D01*
G75*
G02*
X145535000Y-111450000I0J150000D01*
G01*
X145535000Y-109800000D01*
G75*
G02*
X145685000Y-109650000I150000J0D01*
G01*
X145985000Y-109650000D01*
G75*
G02*
X146135000Y-109800000I0J-150000D01*
G01*
X146135000Y-111450000D01*
G75*
G02*
X145985000Y-111600000I-150000J0D01*
G01*
G37*
G36*
G01*
X147255000Y-111600000D02*
X146955000Y-111600000D01*
G75*
G02*
X146805000Y-111450000I0J150000D01*
G01*
X146805000Y-109800000D01*
G75*
G02*
X146955000Y-109650000I150000J0D01*
G01*
X147255000Y-109650000D01*
G75*
G02*
X147405000Y-109800000I0J-150000D01*
G01*
X147405000Y-111450000D01*
G75*
G02*
X147255000Y-111600000I-150000J0D01*
G01*
G37*
G36*
G01*
X148525000Y-111600000D02*
X148225000Y-111600000D01*
G75*
G02*
X148075000Y-111450000I0J150000D01*
G01*
X148075000Y-109800000D01*
G75*
G02*
X148225000Y-109650000I150000J0D01*
G01*
X148525000Y-109650000D01*
G75*
G02*
X148675000Y-109800000I0J-150000D01*
G01*
X148675000Y-111450000D01*
G75*
G02*
X148525000Y-111600000I-150000J0D01*
G01*
G37*
G36*
G01*
X149795000Y-111600000D02*
X149495000Y-111600000D01*
G75*
G02*
X149345000Y-111450000I0J150000D01*
G01*
X149345000Y-109800000D01*
G75*
G02*
X149495000Y-109650000I150000J0D01*
G01*
X149795000Y-109650000D01*
G75*
G02*
X149945000Y-109800000I0J-150000D01*
G01*
X149945000Y-111450000D01*
G75*
G02*
X149795000Y-111600000I-150000J0D01*
G01*
G37*
G36*
G01*
X149795000Y-116550000D02*
X149495000Y-116550000D01*
G75*
G02*
X149345000Y-116400000I0J150000D01*
G01*
X149345000Y-114750000D01*
G75*
G02*
X149495000Y-114600000I150000J0D01*
G01*
X149795000Y-114600000D01*
G75*
G02*
X149945000Y-114750000I0J-150000D01*
G01*
X149945000Y-116400000D01*
G75*
G02*
X149795000Y-116550000I-150000J0D01*
G01*
G37*
G36*
G01*
X148525000Y-116550000D02*
X148225000Y-116550000D01*
G75*
G02*
X148075000Y-116400000I0J150000D01*
G01*
X148075000Y-114750000D01*
G75*
G02*
X148225000Y-114600000I150000J0D01*
G01*
X148525000Y-114600000D01*
G75*
G02*
X148675000Y-114750000I0J-150000D01*
G01*
X148675000Y-116400000D01*
G75*
G02*
X148525000Y-116550000I-150000J0D01*
G01*
G37*
G36*
G01*
X147255000Y-116550000D02*
X146955000Y-116550000D01*
G75*
G02*
X146805000Y-116400000I0J150000D01*
G01*
X146805000Y-114750000D01*
G75*
G02*
X146955000Y-114600000I150000J0D01*
G01*
X147255000Y-114600000D01*
G75*
G02*
X147405000Y-114750000I0J-150000D01*
G01*
X147405000Y-116400000D01*
G75*
G02*
X147255000Y-116550000I-150000J0D01*
G01*
G37*
G36*
G01*
X145985000Y-116550000D02*
X145685000Y-116550000D01*
G75*
G02*
X145535000Y-116400000I0J150000D01*
G01*
X145535000Y-114750000D01*
G75*
G02*
X145685000Y-114600000I150000J0D01*
G01*
X145985000Y-114600000D01*
G75*
G02*
X146135000Y-114750000I0J-150000D01*
G01*
X146135000Y-116400000D01*
G75*
G02*
X145985000Y-116550000I-150000J0D01*
G01*
G37*
G36*
G01*
X144715000Y-116550000D02*
X144415000Y-116550000D01*
G75*
G02*
X144265000Y-116400000I0J150000D01*
G01*
X144265000Y-114750000D01*
G75*
G02*
X144415000Y-114600000I150000J0D01*
G01*
X144715000Y-114600000D01*
G75*
G02*
X144865000Y-114750000I0J-150000D01*
G01*
X144865000Y-116400000D01*
G75*
G02*
X144715000Y-116550000I-150000J0D01*
G01*
G37*
G36*
G01*
X143445000Y-116550000D02*
X143145000Y-116550000D01*
G75*
G02*
X142995000Y-116400000I0J150000D01*
G01*
X142995000Y-114750000D01*
G75*
G02*
X143145000Y-114600000I150000J0D01*
G01*
X143445000Y-114600000D01*
G75*
G02*
X143595000Y-114750000I0J-150000D01*
G01*
X143595000Y-116400000D01*
G75*
G02*
X143445000Y-116550000I-150000J0D01*
G01*
G37*
G36*
G01*
X142175000Y-116550000D02*
X141875000Y-116550000D01*
G75*
G02*
X141725000Y-116400000I0J150000D01*
G01*
X141725000Y-114750000D01*
G75*
G02*
X141875000Y-114600000I150000J0D01*
G01*
X142175000Y-114600000D01*
G75*
G02*
X142325000Y-114750000I0J-150000D01*
G01*
X142325000Y-116400000D01*
G75*
G02*
X142175000Y-116550000I-150000J0D01*
G01*
G37*
G36*
G01*
X140905000Y-116550000D02*
X140605000Y-116550000D01*
G75*
G02*
X140455000Y-116400000I0J150000D01*
G01*
X140455000Y-114750000D01*
G75*
G02*
X140605000Y-114600000I150000J0D01*
G01*
X140905000Y-114600000D01*
G75*
G02*
X141055000Y-114750000I0J-150000D01*
G01*
X141055000Y-116400000D01*
G75*
G02*
X140905000Y-116550000I-150000J0D01*
G01*
G37*
%TD*%
D12*
%TO.C,U19*%
X146450000Y-101950000D03*
X146450000Y-102600000D03*
X146450000Y-103250000D03*
X146450000Y-103900000D03*
X146450000Y-104550000D03*
X146450000Y-105200000D03*
X146450000Y-105850000D03*
X139550000Y-105850000D03*
X139550000Y-105200000D03*
X139550000Y-104550000D03*
X139550000Y-103900000D03*
X139550000Y-103250000D03*
X139550000Y-102600000D03*
X139550000Y-101950000D03*
%TD*%
%TO.C,U18*%
G36*
G01*
X149925000Y-101675000D02*
X149725000Y-101675000D01*
G75*
G02*
X149625000Y-101575000I0J100000D01*
G01*
X149625000Y-100300000D01*
G75*
G02*
X149725000Y-100200000I100000J0D01*
G01*
X149925000Y-100200000D01*
G75*
G02*
X150025000Y-100300000I0J-100000D01*
G01*
X150025000Y-101575000D01*
G75*
G02*
X149925000Y-101675000I-100000J0D01*
G01*
G37*
G36*
G01*
X150575000Y-101675000D02*
X150375000Y-101675000D01*
G75*
G02*
X150275000Y-101575000I0J100000D01*
G01*
X150275000Y-100300000D01*
G75*
G02*
X150375000Y-100200000I100000J0D01*
G01*
X150575000Y-100200000D01*
G75*
G02*
X150675000Y-100300000I0J-100000D01*
G01*
X150675000Y-101575000D01*
G75*
G02*
X150575000Y-101675000I-100000J0D01*
G01*
G37*
G36*
G01*
X151225000Y-101675000D02*
X151025000Y-101675000D01*
G75*
G02*
X150925000Y-101575000I0J100000D01*
G01*
X150925000Y-100300000D01*
G75*
G02*
X151025000Y-100200000I100000J0D01*
G01*
X151225000Y-100200000D01*
G75*
G02*
X151325000Y-100300000I0J-100000D01*
G01*
X151325000Y-101575000D01*
G75*
G02*
X151225000Y-101675000I-100000J0D01*
G01*
G37*
G36*
G01*
X151875000Y-101675000D02*
X151675000Y-101675000D01*
G75*
G02*
X151575000Y-101575000I0J100000D01*
G01*
X151575000Y-100300000D01*
G75*
G02*
X151675000Y-100200000I100000J0D01*
G01*
X151875000Y-100200000D01*
G75*
G02*
X151975000Y-100300000I0J-100000D01*
G01*
X151975000Y-101575000D01*
G75*
G02*
X151875000Y-101675000I-100000J0D01*
G01*
G37*
G36*
G01*
X152525000Y-101675000D02*
X152325000Y-101675000D01*
G75*
G02*
X152225000Y-101575000I0J100000D01*
G01*
X152225000Y-100300000D01*
G75*
G02*
X152325000Y-100200000I100000J0D01*
G01*
X152525000Y-100200000D01*
G75*
G02*
X152625000Y-100300000I0J-100000D01*
G01*
X152625000Y-101575000D01*
G75*
G02*
X152525000Y-101675000I-100000J0D01*
G01*
G37*
G36*
G01*
X153175000Y-101675000D02*
X152975000Y-101675000D01*
G75*
G02*
X152875000Y-101575000I0J100000D01*
G01*
X152875000Y-100300000D01*
G75*
G02*
X152975000Y-100200000I100000J0D01*
G01*
X153175000Y-100200000D01*
G75*
G02*
X153275000Y-100300000I0J-100000D01*
G01*
X153275000Y-101575000D01*
G75*
G02*
X153175000Y-101675000I-100000J0D01*
G01*
G37*
G36*
G01*
X153825000Y-101675000D02*
X153625000Y-101675000D01*
G75*
G02*
X153525000Y-101575000I0J100000D01*
G01*
X153525000Y-100300000D01*
G75*
G02*
X153625000Y-100200000I100000J0D01*
G01*
X153825000Y-100200000D01*
G75*
G02*
X153925000Y-100300000I0J-100000D01*
G01*
X153925000Y-101575000D01*
G75*
G02*
X153825000Y-101675000I-100000J0D01*
G01*
G37*
G36*
G01*
X154475000Y-101675000D02*
X154275000Y-101675000D01*
G75*
G02*
X154175000Y-101575000I0J100000D01*
G01*
X154175000Y-100300000D01*
G75*
G02*
X154275000Y-100200000I100000J0D01*
G01*
X154475000Y-100200000D01*
G75*
G02*
X154575000Y-100300000I0J-100000D01*
G01*
X154575000Y-101575000D01*
G75*
G02*
X154475000Y-101675000I-100000J0D01*
G01*
G37*
G36*
G01*
X154475000Y-107400000D02*
X154275000Y-107400000D01*
G75*
G02*
X154175000Y-107300000I0J100000D01*
G01*
X154175000Y-106025000D01*
G75*
G02*
X154275000Y-105925000I100000J0D01*
G01*
X154475000Y-105925000D01*
G75*
G02*
X154575000Y-106025000I0J-100000D01*
G01*
X154575000Y-107300000D01*
G75*
G02*
X154475000Y-107400000I-100000J0D01*
G01*
G37*
G36*
G01*
X153825000Y-107400000D02*
X153625000Y-107400000D01*
G75*
G02*
X153525000Y-107300000I0J100000D01*
G01*
X153525000Y-106025000D01*
G75*
G02*
X153625000Y-105925000I100000J0D01*
G01*
X153825000Y-105925000D01*
G75*
G02*
X153925000Y-106025000I0J-100000D01*
G01*
X153925000Y-107300000D01*
G75*
G02*
X153825000Y-107400000I-100000J0D01*
G01*
G37*
G36*
G01*
X153175000Y-107400000D02*
X152975000Y-107400000D01*
G75*
G02*
X152875000Y-107300000I0J100000D01*
G01*
X152875000Y-106025000D01*
G75*
G02*
X152975000Y-105925000I100000J0D01*
G01*
X153175000Y-105925000D01*
G75*
G02*
X153275000Y-106025000I0J-100000D01*
G01*
X153275000Y-107300000D01*
G75*
G02*
X153175000Y-107400000I-100000J0D01*
G01*
G37*
G36*
G01*
X152525000Y-107400000D02*
X152325000Y-107400000D01*
G75*
G02*
X152225000Y-107300000I0J100000D01*
G01*
X152225000Y-106025000D01*
G75*
G02*
X152325000Y-105925000I100000J0D01*
G01*
X152525000Y-105925000D01*
G75*
G02*
X152625000Y-106025000I0J-100000D01*
G01*
X152625000Y-107300000D01*
G75*
G02*
X152525000Y-107400000I-100000J0D01*
G01*
G37*
G36*
G01*
X151875000Y-107400000D02*
X151675000Y-107400000D01*
G75*
G02*
X151575000Y-107300000I0J100000D01*
G01*
X151575000Y-106025000D01*
G75*
G02*
X151675000Y-105925000I100000J0D01*
G01*
X151875000Y-105925000D01*
G75*
G02*
X151975000Y-106025000I0J-100000D01*
G01*
X151975000Y-107300000D01*
G75*
G02*
X151875000Y-107400000I-100000J0D01*
G01*
G37*
G36*
G01*
X151225000Y-107400000D02*
X151025000Y-107400000D01*
G75*
G02*
X150925000Y-107300000I0J100000D01*
G01*
X150925000Y-106025000D01*
G75*
G02*
X151025000Y-105925000I100000J0D01*
G01*
X151225000Y-105925000D01*
G75*
G02*
X151325000Y-106025000I0J-100000D01*
G01*
X151325000Y-107300000D01*
G75*
G02*
X151225000Y-107400000I-100000J0D01*
G01*
G37*
G36*
G01*
X150575000Y-107400000D02*
X150375000Y-107400000D01*
G75*
G02*
X150275000Y-107300000I0J100000D01*
G01*
X150275000Y-106025000D01*
G75*
G02*
X150375000Y-105925000I100000J0D01*
G01*
X150575000Y-105925000D01*
G75*
G02*
X150675000Y-106025000I0J-100000D01*
G01*
X150675000Y-107300000D01*
G75*
G02*
X150575000Y-107400000I-100000J0D01*
G01*
G37*
G36*
G01*
X149925000Y-107400000D02*
X149725000Y-107400000D01*
G75*
G02*
X149625000Y-107300000I0J100000D01*
G01*
X149625000Y-106025000D01*
G75*
G02*
X149725000Y-105925000I100000J0D01*
G01*
X149925000Y-105925000D01*
G75*
G02*
X150025000Y-106025000I0J-100000D01*
G01*
X150025000Y-107300000D01*
G75*
G02*
X149925000Y-107400000I-100000J0D01*
G01*
G37*
%TD*%
%TO.C,U15*%
G36*
G01*
X136695000Y-96500000D02*
X136995000Y-96500000D01*
G75*
G02*
X137145000Y-96650000I0J-150000D01*
G01*
X137145000Y-98300000D01*
G75*
G02*
X136995000Y-98450000I-150000J0D01*
G01*
X136695000Y-98450000D01*
G75*
G02*
X136545000Y-98300000I0J150000D01*
G01*
X136545000Y-96650000D01*
G75*
G02*
X136695000Y-96500000I150000J0D01*
G01*
G37*
G36*
G01*
X135425000Y-96500000D02*
X135725000Y-96500000D01*
G75*
G02*
X135875000Y-96650000I0J-150000D01*
G01*
X135875000Y-98300000D01*
G75*
G02*
X135725000Y-98450000I-150000J0D01*
G01*
X135425000Y-98450000D01*
G75*
G02*
X135275000Y-98300000I0J150000D01*
G01*
X135275000Y-96650000D01*
G75*
G02*
X135425000Y-96500000I150000J0D01*
G01*
G37*
G36*
G01*
X134155000Y-96500000D02*
X134455000Y-96500000D01*
G75*
G02*
X134605000Y-96650000I0J-150000D01*
G01*
X134605000Y-98300000D01*
G75*
G02*
X134455000Y-98450000I-150000J0D01*
G01*
X134155000Y-98450000D01*
G75*
G02*
X134005000Y-98300000I0J150000D01*
G01*
X134005000Y-96650000D01*
G75*
G02*
X134155000Y-96500000I150000J0D01*
G01*
G37*
G36*
G01*
X132885000Y-96500000D02*
X133185000Y-96500000D01*
G75*
G02*
X133335000Y-96650000I0J-150000D01*
G01*
X133335000Y-98300000D01*
G75*
G02*
X133185000Y-98450000I-150000J0D01*
G01*
X132885000Y-98450000D01*
G75*
G02*
X132735000Y-98300000I0J150000D01*
G01*
X132735000Y-96650000D01*
G75*
G02*
X132885000Y-96500000I150000J0D01*
G01*
G37*
G36*
G01*
X131615000Y-96500000D02*
X131915000Y-96500000D01*
G75*
G02*
X132065000Y-96650000I0J-150000D01*
G01*
X132065000Y-98300000D01*
G75*
G02*
X131915000Y-98450000I-150000J0D01*
G01*
X131615000Y-98450000D01*
G75*
G02*
X131465000Y-98300000I0J150000D01*
G01*
X131465000Y-96650000D01*
G75*
G02*
X131615000Y-96500000I150000J0D01*
G01*
G37*
G36*
G01*
X130345000Y-96500000D02*
X130645000Y-96500000D01*
G75*
G02*
X130795000Y-96650000I0J-150000D01*
G01*
X130795000Y-98300000D01*
G75*
G02*
X130645000Y-98450000I-150000J0D01*
G01*
X130345000Y-98450000D01*
G75*
G02*
X130195000Y-98300000I0J150000D01*
G01*
X130195000Y-96650000D01*
G75*
G02*
X130345000Y-96500000I150000J0D01*
G01*
G37*
G36*
G01*
X129075000Y-96500000D02*
X129375000Y-96500000D01*
G75*
G02*
X129525000Y-96650000I0J-150000D01*
G01*
X129525000Y-98300000D01*
G75*
G02*
X129375000Y-98450000I-150000J0D01*
G01*
X129075000Y-98450000D01*
G75*
G02*
X128925000Y-98300000I0J150000D01*
G01*
X128925000Y-96650000D01*
G75*
G02*
X129075000Y-96500000I150000J0D01*
G01*
G37*
G36*
G01*
X127805000Y-96500000D02*
X128105000Y-96500000D01*
G75*
G02*
X128255000Y-96650000I0J-150000D01*
G01*
X128255000Y-98300000D01*
G75*
G02*
X128105000Y-98450000I-150000J0D01*
G01*
X127805000Y-98450000D01*
G75*
G02*
X127655000Y-98300000I0J150000D01*
G01*
X127655000Y-96650000D01*
G75*
G02*
X127805000Y-96500000I150000J0D01*
G01*
G37*
G36*
G01*
X127805000Y-91550000D02*
X128105000Y-91550000D01*
G75*
G02*
X128255000Y-91700000I0J-150000D01*
G01*
X128255000Y-93350000D01*
G75*
G02*
X128105000Y-93500000I-150000J0D01*
G01*
X127805000Y-93500000D01*
G75*
G02*
X127655000Y-93350000I0J150000D01*
G01*
X127655000Y-91700000D01*
G75*
G02*
X127805000Y-91550000I150000J0D01*
G01*
G37*
G36*
G01*
X129075000Y-91550000D02*
X129375000Y-91550000D01*
G75*
G02*
X129525000Y-91700000I0J-150000D01*
G01*
X129525000Y-93350000D01*
G75*
G02*
X129375000Y-93500000I-150000J0D01*
G01*
X129075000Y-93500000D01*
G75*
G02*
X128925000Y-93350000I0J150000D01*
G01*
X128925000Y-91700000D01*
G75*
G02*
X129075000Y-91550000I150000J0D01*
G01*
G37*
G36*
G01*
X130345000Y-91550000D02*
X130645000Y-91550000D01*
G75*
G02*
X130795000Y-91700000I0J-150000D01*
G01*
X130795000Y-93350000D01*
G75*
G02*
X130645000Y-93500000I-150000J0D01*
G01*
X130345000Y-93500000D01*
G75*
G02*
X130195000Y-93350000I0J150000D01*
G01*
X130195000Y-91700000D01*
G75*
G02*
X130345000Y-91550000I150000J0D01*
G01*
G37*
G36*
G01*
X131615000Y-91550000D02*
X131915000Y-91550000D01*
G75*
G02*
X132065000Y-91700000I0J-150000D01*
G01*
X132065000Y-93350000D01*
G75*
G02*
X131915000Y-93500000I-150000J0D01*
G01*
X131615000Y-93500000D01*
G75*
G02*
X131465000Y-93350000I0J150000D01*
G01*
X131465000Y-91700000D01*
G75*
G02*
X131615000Y-91550000I150000J0D01*
G01*
G37*
G36*
G01*
X132885000Y-91550000D02*
X133185000Y-91550000D01*
G75*
G02*
X133335000Y-91700000I0J-150000D01*
G01*
X133335000Y-93350000D01*
G75*
G02*
X133185000Y-93500000I-150000J0D01*
G01*
X132885000Y-93500000D01*
G75*
G02*
X132735000Y-93350000I0J150000D01*
G01*
X132735000Y-91700000D01*
G75*
G02*
X132885000Y-91550000I150000J0D01*
G01*
G37*
G36*
G01*
X134155000Y-91550000D02*
X134455000Y-91550000D01*
G75*
G02*
X134605000Y-91700000I0J-150000D01*
G01*
X134605000Y-93350000D01*
G75*
G02*
X134455000Y-93500000I-150000J0D01*
G01*
X134155000Y-93500000D01*
G75*
G02*
X134005000Y-93350000I0J150000D01*
G01*
X134005000Y-91700000D01*
G75*
G02*
X134155000Y-91550000I150000J0D01*
G01*
G37*
G36*
G01*
X135425000Y-91550000D02*
X135725000Y-91550000D01*
G75*
G02*
X135875000Y-91700000I0J-150000D01*
G01*
X135875000Y-93350000D01*
G75*
G02*
X135725000Y-93500000I-150000J0D01*
G01*
X135425000Y-93500000D01*
G75*
G02*
X135275000Y-93350000I0J150000D01*
G01*
X135275000Y-91700000D01*
G75*
G02*
X135425000Y-91550000I150000J0D01*
G01*
G37*
G36*
G01*
X136695000Y-91550000D02*
X136995000Y-91550000D01*
G75*
G02*
X137145000Y-91700000I0J-150000D01*
G01*
X137145000Y-93350000D01*
G75*
G02*
X136995000Y-93500000I-150000J0D01*
G01*
X136695000Y-93500000D01*
G75*
G02*
X136545000Y-93350000I0J150000D01*
G01*
X136545000Y-91700000D01*
G75*
G02*
X136695000Y-91550000I150000J0D01*
G01*
G37*
%TD*%
%TO.C,U14*%
G36*
G01*
X146000000Y-88605000D02*
X146000000Y-88305000D01*
G75*
G02*
X146150000Y-88155000I150000J0D01*
G01*
X147800000Y-88155000D01*
G75*
G02*
X147950000Y-88305000I0J-150000D01*
G01*
X147950000Y-88605000D01*
G75*
G02*
X147800000Y-88755000I-150000J0D01*
G01*
X146150000Y-88755000D01*
G75*
G02*
X146000000Y-88605000I0J150000D01*
G01*
G37*
G36*
G01*
X146000000Y-89875000D02*
X146000000Y-89575000D01*
G75*
G02*
X146150000Y-89425000I150000J0D01*
G01*
X147800000Y-89425000D01*
G75*
G02*
X147950000Y-89575000I0J-150000D01*
G01*
X147950000Y-89875000D01*
G75*
G02*
X147800000Y-90025000I-150000J0D01*
G01*
X146150000Y-90025000D01*
G75*
G02*
X146000000Y-89875000I0J150000D01*
G01*
G37*
G36*
G01*
X146000000Y-91145000D02*
X146000000Y-90845000D01*
G75*
G02*
X146150000Y-90695000I150000J0D01*
G01*
X147800000Y-90695000D01*
G75*
G02*
X147950000Y-90845000I0J-150000D01*
G01*
X147950000Y-91145000D01*
G75*
G02*
X147800000Y-91295000I-150000J0D01*
G01*
X146150000Y-91295000D01*
G75*
G02*
X146000000Y-91145000I0J150000D01*
G01*
G37*
G36*
G01*
X146000000Y-92415000D02*
X146000000Y-92115000D01*
G75*
G02*
X146150000Y-91965000I150000J0D01*
G01*
X147800000Y-91965000D01*
G75*
G02*
X147950000Y-92115000I0J-150000D01*
G01*
X147950000Y-92415000D01*
G75*
G02*
X147800000Y-92565000I-150000J0D01*
G01*
X146150000Y-92565000D01*
G75*
G02*
X146000000Y-92415000I0J150000D01*
G01*
G37*
G36*
G01*
X146000000Y-93685000D02*
X146000000Y-93385000D01*
G75*
G02*
X146150000Y-93235000I150000J0D01*
G01*
X147800000Y-93235000D01*
G75*
G02*
X147950000Y-93385000I0J-150000D01*
G01*
X147950000Y-93685000D01*
G75*
G02*
X147800000Y-93835000I-150000J0D01*
G01*
X146150000Y-93835000D01*
G75*
G02*
X146000000Y-93685000I0J150000D01*
G01*
G37*
G36*
G01*
X146000000Y-94955000D02*
X146000000Y-94655000D01*
G75*
G02*
X146150000Y-94505000I150000J0D01*
G01*
X147800000Y-94505000D01*
G75*
G02*
X147950000Y-94655000I0J-150000D01*
G01*
X147950000Y-94955000D01*
G75*
G02*
X147800000Y-95105000I-150000J0D01*
G01*
X146150000Y-95105000D01*
G75*
G02*
X146000000Y-94955000I0J150000D01*
G01*
G37*
G36*
G01*
X146000000Y-96225000D02*
X146000000Y-95925000D01*
G75*
G02*
X146150000Y-95775000I150000J0D01*
G01*
X147800000Y-95775000D01*
G75*
G02*
X147950000Y-95925000I0J-150000D01*
G01*
X147950000Y-96225000D01*
G75*
G02*
X147800000Y-96375000I-150000J0D01*
G01*
X146150000Y-96375000D01*
G75*
G02*
X146000000Y-96225000I0J150000D01*
G01*
G37*
G36*
G01*
X146000000Y-97495000D02*
X146000000Y-97195000D01*
G75*
G02*
X146150000Y-97045000I150000J0D01*
G01*
X147800000Y-97045000D01*
G75*
G02*
X147950000Y-97195000I0J-150000D01*
G01*
X147950000Y-97495000D01*
G75*
G02*
X147800000Y-97645000I-150000J0D01*
G01*
X146150000Y-97645000D01*
G75*
G02*
X146000000Y-97495000I0J150000D01*
G01*
G37*
G36*
G01*
X141050000Y-97495000D02*
X141050000Y-97195000D01*
G75*
G02*
X141200000Y-97045000I150000J0D01*
G01*
X142850000Y-97045000D01*
G75*
G02*
X143000000Y-97195000I0J-150000D01*
G01*
X143000000Y-97495000D01*
G75*
G02*
X142850000Y-97645000I-150000J0D01*
G01*
X141200000Y-97645000D01*
G75*
G02*
X141050000Y-97495000I0J150000D01*
G01*
G37*
G36*
G01*
X141050000Y-96225000D02*
X141050000Y-95925000D01*
G75*
G02*
X141200000Y-95775000I150000J0D01*
G01*
X142850000Y-95775000D01*
G75*
G02*
X143000000Y-95925000I0J-150000D01*
G01*
X143000000Y-96225000D01*
G75*
G02*
X142850000Y-96375000I-150000J0D01*
G01*
X141200000Y-96375000D01*
G75*
G02*
X141050000Y-96225000I0J150000D01*
G01*
G37*
G36*
G01*
X141050000Y-94955000D02*
X141050000Y-94655000D01*
G75*
G02*
X141200000Y-94505000I150000J0D01*
G01*
X142850000Y-94505000D01*
G75*
G02*
X143000000Y-94655000I0J-150000D01*
G01*
X143000000Y-94955000D01*
G75*
G02*
X142850000Y-95105000I-150000J0D01*
G01*
X141200000Y-95105000D01*
G75*
G02*
X141050000Y-94955000I0J150000D01*
G01*
G37*
G36*
G01*
X141050000Y-93685000D02*
X141050000Y-93385000D01*
G75*
G02*
X141200000Y-93235000I150000J0D01*
G01*
X142850000Y-93235000D01*
G75*
G02*
X143000000Y-93385000I0J-150000D01*
G01*
X143000000Y-93685000D01*
G75*
G02*
X142850000Y-93835000I-150000J0D01*
G01*
X141200000Y-93835000D01*
G75*
G02*
X141050000Y-93685000I0J150000D01*
G01*
G37*
G36*
G01*
X141050000Y-92415000D02*
X141050000Y-92115000D01*
G75*
G02*
X141200000Y-91965000I150000J0D01*
G01*
X142850000Y-91965000D01*
G75*
G02*
X143000000Y-92115000I0J-150000D01*
G01*
X143000000Y-92415000D01*
G75*
G02*
X142850000Y-92565000I-150000J0D01*
G01*
X141200000Y-92565000D01*
G75*
G02*
X141050000Y-92415000I0J150000D01*
G01*
G37*
G36*
G01*
X141050000Y-91145000D02*
X141050000Y-90845000D01*
G75*
G02*
X141200000Y-90695000I150000J0D01*
G01*
X142850000Y-90695000D01*
G75*
G02*
X143000000Y-90845000I0J-150000D01*
G01*
X143000000Y-91145000D01*
G75*
G02*
X142850000Y-91295000I-150000J0D01*
G01*
X141200000Y-91295000D01*
G75*
G02*
X141050000Y-91145000I0J150000D01*
G01*
G37*
G36*
G01*
X141050000Y-89875000D02*
X141050000Y-89575000D01*
G75*
G02*
X141200000Y-89425000I150000J0D01*
G01*
X142850000Y-89425000D01*
G75*
G02*
X143000000Y-89575000I0J-150000D01*
G01*
X143000000Y-89875000D01*
G75*
G02*
X142850000Y-90025000I-150000J0D01*
G01*
X141200000Y-90025000D01*
G75*
G02*
X141050000Y-89875000I0J150000D01*
G01*
G37*
G36*
G01*
X141050000Y-88605000D02*
X141050000Y-88305000D01*
G75*
G02*
X141200000Y-88155000I150000J0D01*
G01*
X142850000Y-88155000D01*
G75*
G02*
X143000000Y-88305000I0J-150000D01*
G01*
X143000000Y-88605000D01*
G75*
G02*
X142850000Y-88755000I-150000J0D01*
G01*
X141200000Y-88755000D01*
G75*
G02*
X141050000Y-88605000I0J150000D01*
G01*
G37*
%TD*%
D11*
%TO.C,U13*%
X128900000Y-51100000D03*
X129850000Y-53100000D03*
X127950000Y-53100000D03*
%TD*%
%TO.C,U11*%
X135100000Y-51100000D03*
X136050000Y-53100000D03*
X134150000Y-53100000D03*
%TD*%
%TO.C,U10*%
X147200000Y-51200000D03*
X148150000Y-53200000D03*
X146250000Y-53200000D03*
%TD*%
%TO.C,U9*%
G36*
G01*
X132800000Y-75860000D02*
X132800000Y-76160000D01*
G75*
G02*
X132650000Y-76310000I-150000J0D01*
G01*
X131000000Y-76310000D01*
G75*
G02*
X130850000Y-76160000I0J150000D01*
G01*
X130850000Y-75860000D01*
G75*
G02*
X131000000Y-75710000I150000J0D01*
G01*
X132650000Y-75710000D01*
G75*
G02*
X132800000Y-75860000I0J-150000D01*
G01*
G37*
G36*
G01*
X132800000Y-74590000D02*
X132800000Y-74890000D01*
G75*
G02*
X132650000Y-75040000I-150000J0D01*
G01*
X131000000Y-75040000D01*
G75*
G02*
X130850000Y-74890000I0J150000D01*
G01*
X130850000Y-74590000D01*
G75*
G02*
X131000000Y-74440000I150000J0D01*
G01*
X132650000Y-74440000D01*
G75*
G02*
X132800000Y-74590000I0J-150000D01*
G01*
G37*
G36*
G01*
X132800000Y-73320000D02*
X132800000Y-73620000D01*
G75*
G02*
X132650000Y-73770000I-150000J0D01*
G01*
X131000000Y-73770000D01*
G75*
G02*
X130850000Y-73620000I0J150000D01*
G01*
X130850000Y-73320000D01*
G75*
G02*
X131000000Y-73170000I150000J0D01*
G01*
X132650000Y-73170000D01*
G75*
G02*
X132800000Y-73320000I0J-150000D01*
G01*
G37*
G36*
G01*
X132800000Y-72050000D02*
X132800000Y-72350000D01*
G75*
G02*
X132650000Y-72500000I-150000J0D01*
G01*
X131000000Y-72500000D01*
G75*
G02*
X130850000Y-72350000I0J150000D01*
G01*
X130850000Y-72050000D01*
G75*
G02*
X131000000Y-71900000I150000J0D01*
G01*
X132650000Y-71900000D01*
G75*
G02*
X132800000Y-72050000I0J-150000D01*
G01*
G37*
G36*
G01*
X132800000Y-70780000D02*
X132800000Y-71080000D01*
G75*
G02*
X132650000Y-71230000I-150000J0D01*
G01*
X131000000Y-71230000D01*
G75*
G02*
X130850000Y-71080000I0J150000D01*
G01*
X130850000Y-70780000D01*
G75*
G02*
X131000000Y-70630000I150000J0D01*
G01*
X132650000Y-70630000D01*
G75*
G02*
X132800000Y-70780000I0J-150000D01*
G01*
G37*
G36*
G01*
X132800000Y-69510000D02*
X132800000Y-69810000D01*
G75*
G02*
X132650000Y-69960000I-150000J0D01*
G01*
X131000000Y-69960000D01*
G75*
G02*
X130850000Y-69810000I0J150000D01*
G01*
X130850000Y-69510000D01*
G75*
G02*
X131000000Y-69360000I150000J0D01*
G01*
X132650000Y-69360000D01*
G75*
G02*
X132800000Y-69510000I0J-150000D01*
G01*
G37*
G36*
G01*
X132800000Y-68240000D02*
X132800000Y-68540000D01*
G75*
G02*
X132650000Y-68690000I-150000J0D01*
G01*
X131000000Y-68690000D01*
G75*
G02*
X130850000Y-68540000I0J150000D01*
G01*
X130850000Y-68240000D01*
G75*
G02*
X131000000Y-68090000I150000J0D01*
G01*
X132650000Y-68090000D01*
G75*
G02*
X132800000Y-68240000I0J-150000D01*
G01*
G37*
G36*
G01*
X137750000Y-68240000D02*
X137750000Y-68540000D01*
G75*
G02*
X137600000Y-68690000I-150000J0D01*
G01*
X135950000Y-68690000D01*
G75*
G02*
X135800000Y-68540000I0J150000D01*
G01*
X135800000Y-68240000D01*
G75*
G02*
X135950000Y-68090000I150000J0D01*
G01*
X137600000Y-68090000D01*
G75*
G02*
X137750000Y-68240000I0J-150000D01*
G01*
G37*
G36*
G01*
X137750000Y-69510000D02*
X137750000Y-69810000D01*
G75*
G02*
X137600000Y-69960000I-150000J0D01*
G01*
X135950000Y-69960000D01*
G75*
G02*
X135800000Y-69810000I0J150000D01*
G01*
X135800000Y-69510000D01*
G75*
G02*
X135950000Y-69360000I150000J0D01*
G01*
X137600000Y-69360000D01*
G75*
G02*
X137750000Y-69510000I0J-150000D01*
G01*
G37*
G36*
G01*
X137750000Y-70780000D02*
X137750000Y-71080000D01*
G75*
G02*
X137600000Y-71230000I-150000J0D01*
G01*
X135950000Y-71230000D01*
G75*
G02*
X135800000Y-71080000I0J150000D01*
G01*
X135800000Y-70780000D01*
G75*
G02*
X135950000Y-70630000I150000J0D01*
G01*
X137600000Y-70630000D01*
G75*
G02*
X137750000Y-70780000I0J-150000D01*
G01*
G37*
G36*
G01*
X137750000Y-72050000D02*
X137750000Y-72350000D01*
G75*
G02*
X137600000Y-72500000I-150000J0D01*
G01*
X135950000Y-72500000D01*
G75*
G02*
X135800000Y-72350000I0J150000D01*
G01*
X135800000Y-72050000D01*
G75*
G02*
X135950000Y-71900000I150000J0D01*
G01*
X137600000Y-71900000D01*
G75*
G02*
X137750000Y-72050000I0J-150000D01*
G01*
G37*
G36*
G01*
X137750000Y-73320000D02*
X137750000Y-73620000D01*
G75*
G02*
X137600000Y-73770000I-150000J0D01*
G01*
X135950000Y-73770000D01*
G75*
G02*
X135800000Y-73620000I0J150000D01*
G01*
X135800000Y-73320000D01*
G75*
G02*
X135950000Y-73170000I150000J0D01*
G01*
X137600000Y-73170000D01*
G75*
G02*
X137750000Y-73320000I0J-150000D01*
G01*
G37*
G36*
G01*
X137750000Y-74590000D02*
X137750000Y-74890000D01*
G75*
G02*
X137600000Y-75040000I-150000J0D01*
G01*
X135950000Y-75040000D01*
G75*
G02*
X135800000Y-74890000I0J150000D01*
G01*
X135800000Y-74590000D01*
G75*
G02*
X135950000Y-74440000I150000J0D01*
G01*
X137600000Y-74440000D01*
G75*
G02*
X137750000Y-74590000I0J-150000D01*
G01*
G37*
G36*
G01*
X137750000Y-75860000D02*
X137750000Y-76160000D01*
G75*
G02*
X137600000Y-76310000I-150000J0D01*
G01*
X135950000Y-76310000D01*
G75*
G02*
X135800000Y-76160000I0J150000D01*
G01*
X135800000Y-75860000D01*
G75*
G02*
X135950000Y-75710000I150000J0D01*
G01*
X137600000Y-75710000D01*
G75*
G02*
X137750000Y-75860000I0J-150000D01*
G01*
G37*
%TD*%
%TO.C,U8*%
X123800000Y-43400000D03*
X124750000Y-45400000D03*
X122850000Y-45400000D03*
%TD*%
%TO.C,U7*%
X137000000Y-43300000D03*
X137950000Y-45300000D03*
X136050000Y-45300000D03*
%TD*%
%TO.C,U6*%
X130300000Y-43300000D03*
X131250000Y-45300000D03*
X129350000Y-45300000D03*
%TD*%
%TO.C,U5*%
X143700000Y-43200000D03*
X144650000Y-45200000D03*
X142750000Y-45200000D03*
%TD*%
%TO.C,U4*%
G36*
G01*
X130800000Y-89260000D02*
X130800000Y-89560000D01*
G75*
G02*
X130650000Y-89710000I-150000J0D01*
G01*
X129000000Y-89710000D01*
G75*
G02*
X128850000Y-89560000I0J150000D01*
G01*
X128850000Y-89260000D01*
G75*
G02*
X129000000Y-89110000I150000J0D01*
G01*
X130650000Y-89110000D01*
G75*
G02*
X130800000Y-89260000I0J-150000D01*
G01*
G37*
G36*
G01*
X130800000Y-87990000D02*
X130800000Y-88290000D01*
G75*
G02*
X130650000Y-88440000I-150000J0D01*
G01*
X129000000Y-88440000D01*
G75*
G02*
X128850000Y-88290000I0J150000D01*
G01*
X128850000Y-87990000D01*
G75*
G02*
X129000000Y-87840000I150000J0D01*
G01*
X130650000Y-87840000D01*
G75*
G02*
X130800000Y-87990000I0J-150000D01*
G01*
G37*
G36*
G01*
X130800000Y-86720000D02*
X130800000Y-87020000D01*
G75*
G02*
X130650000Y-87170000I-150000J0D01*
G01*
X129000000Y-87170000D01*
G75*
G02*
X128850000Y-87020000I0J150000D01*
G01*
X128850000Y-86720000D01*
G75*
G02*
X129000000Y-86570000I150000J0D01*
G01*
X130650000Y-86570000D01*
G75*
G02*
X130800000Y-86720000I0J-150000D01*
G01*
G37*
G36*
G01*
X130800000Y-85450000D02*
X130800000Y-85750000D01*
G75*
G02*
X130650000Y-85900000I-150000J0D01*
G01*
X129000000Y-85900000D01*
G75*
G02*
X128850000Y-85750000I0J150000D01*
G01*
X128850000Y-85450000D01*
G75*
G02*
X129000000Y-85300000I150000J0D01*
G01*
X130650000Y-85300000D01*
G75*
G02*
X130800000Y-85450000I0J-150000D01*
G01*
G37*
G36*
G01*
X130800000Y-84180000D02*
X130800000Y-84480000D01*
G75*
G02*
X130650000Y-84630000I-150000J0D01*
G01*
X129000000Y-84630000D01*
G75*
G02*
X128850000Y-84480000I0J150000D01*
G01*
X128850000Y-84180000D01*
G75*
G02*
X129000000Y-84030000I150000J0D01*
G01*
X130650000Y-84030000D01*
G75*
G02*
X130800000Y-84180000I0J-150000D01*
G01*
G37*
G36*
G01*
X130800000Y-82910000D02*
X130800000Y-83210000D01*
G75*
G02*
X130650000Y-83360000I-150000J0D01*
G01*
X129000000Y-83360000D01*
G75*
G02*
X128850000Y-83210000I0J150000D01*
G01*
X128850000Y-82910000D01*
G75*
G02*
X129000000Y-82760000I150000J0D01*
G01*
X130650000Y-82760000D01*
G75*
G02*
X130800000Y-82910000I0J-150000D01*
G01*
G37*
G36*
G01*
X130800000Y-81640000D02*
X130800000Y-81940000D01*
G75*
G02*
X130650000Y-82090000I-150000J0D01*
G01*
X129000000Y-82090000D01*
G75*
G02*
X128850000Y-81940000I0J150000D01*
G01*
X128850000Y-81640000D01*
G75*
G02*
X129000000Y-81490000I150000J0D01*
G01*
X130650000Y-81490000D01*
G75*
G02*
X130800000Y-81640000I0J-150000D01*
G01*
G37*
G36*
G01*
X135750000Y-81640000D02*
X135750000Y-81940000D01*
G75*
G02*
X135600000Y-82090000I-150000J0D01*
G01*
X133950000Y-82090000D01*
G75*
G02*
X133800000Y-81940000I0J150000D01*
G01*
X133800000Y-81640000D01*
G75*
G02*
X133950000Y-81490000I150000J0D01*
G01*
X135600000Y-81490000D01*
G75*
G02*
X135750000Y-81640000I0J-150000D01*
G01*
G37*
G36*
G01*
X135750000Y-82910000D02*
X135750000Y-83210000D01*
G75*
G02*
X135600000Y-83360000I-150000J0D01*
G01*
X133950000Y-83360000D01*
G75*
G02*
X133800000Y-83210000I0J150000D01*
G01*
X133800000Y-82910000D01*
G75*
G02*
X133950000Y-82760000I150000J0D01*
G01*
X135600000Y-82760000D01*
G75*
G02*
X135750000Y-82910000I0J-150000D01*
G01*
G37*
G36*
G01*
X135750000Y-84180000D02*
X135750000Y-84480000D01*
G75*
G02*
X135600000Y-84630000I-150000J0D01*
G01*
X133950000Y-84630000D01*
G75*
G02*
X133800000Y-84480000I0J150000D01*
G01*
X133800000Y-84180000D01*
G75*
G02*
X133950000Y-84030000I150000J0D01*
G01*
X135600000Y-84030000D01*
G75*
G02*
X135750000Y-84180000I0J-150000D01*
G01*
G37*
G36*
G01*
X135750000Y-85450000D02*
X135750000Y-85750000D01*
G75*
G02*
X135600000Y-85900000I-150000J0D01*
G01*
X133950000Y-85900000D01*
G75*
G02*
X133800000Y-85750000I0J150000D01*
G01*
X133800000Y-85450000D01*
G75*
G02*
X133950000Y-85300000I150000J0D01*
G01*
X135600000Y-85300000D01*
G75*
G02*
X135750000Y-85450000I0J-150000D01*
G01*
G37*
G36*
G01*
X135750000Y-86720000D02*
X135750000Y-87020000D01*
G75*
G02*
X135600000Y-87170000I-150000J0D01*
G01*
X133950000Y-87170000D01*
G75*
G02*
X133800000Y-87020000I0J150000D01*
G01*
X133800000Y-86720000D01*
G75*
G02*
X133950000Y-86570000I150000J0D01*
G01*
X135600000Y-86570000D01*
G75*
G02*
X135750000Y-86720000I0J-150000D01*
G01*
G37*
G36*
G01*
X135750000Y-87990000D02*
X135750000Y-88290000D01*
G75*
G02*
X135600000Y-88440000I-150000J0D01*
G01*
X133950000Y-88440000D01*
G75*
G02*
X133800000Y-88290000I0J150000D01*
G01*
X133800000Y-87990000D01*
G75*
G02*
X133950000Y-87840000I150000J0D01*
G01*
X135600000Y-87840000D01*
G75*
G02*
X135750000Y-87990000I0J-150000D01*
G01*
G37*
G36*
G01*
X135750000Y-89260000D02*
X135750000Y-89560000D01*
G75*
G02*
X135600000Y-89710000I-150000J0D01*
G01*
X133950000Y-89710000D01*
G75*
G02*
X133800000Y-89560000I0J150000D01*
G01*
X133800000Y-89260000D01*
G75*
G02*
X133950000Y-89110000I150000J0D01*
G01*
X135600000Y-89110000D01*
G75*
G02*
X135750000Y-89260000I0J-150000D01*
G01*
G37*
%TD*%
%TO.C,U3*%
G36*
G01*
X122260000Y-121800000D02*
X122560000Y-121800000D01*
G75*
G02*
X122710000Y-121950000I0J-150000D01*
G01*
X122710000Y-123600000D01*
G75*
G02*
X122560000Y-123750000I-150000J0D01*
G01*
X122260000Y-123750000D01*
G75*
G02*
X122110000Y-123600000I0J150000D01*
G01*
X122110000Y-121950000D01*
G75*
G02*
X122260000Y-121800000I150000J0D01*
G01*
G37*
G36*
G01*
X120990000Y-121800000D02*
X121290000Y-121800000D01*
G75*
G02*
X121440000Y-121950000I0J-150000D01*
G01*
X121440000Y-123600000D01*
G75*
G02*
X121290000Y-123750000I-150000J0D01*
G01*
X120990000Y-123750000D01*
G75*
G02*
X120840000Y-123600000I0J150000D01*
G01*
X120840000Y-121950000D01*
G75*
G02*
X120990000Y-121800000I150000J0D01*
G01*
G37*
G36*
G01*
X119720000Y-121800000D02*
X120020000Y-121800000D01*
G75*
G02*
X120170000Y-121950000I0J-150000D01*
G01*
X120170000Y-123600000D01*
G75*
G02*
X120020000Y-123750000I-150000J0D01*
G01*
X119720000Y-123750000D01*
G75*
G02*
X119570000Y-123600000I0J150000D01*
G01*
X119570000Y-121950000D01*
G75*
G02*
X119720000Y-121800000I150000J0D01*
G01*
G37*
G36*
G01*
X118450000Y-121800000D02*
X118750000Y-121800000D01*
G75*
G02*
X118900000Y-121950000I0J-150000D01*
G01*
X118900000Y-123600000D01*
G75*
G02*
X118750000Y-123750000I-150000J0D01*
G01*
X118450000Y-123750000D01*
G75*
G02*
X118300000Y-123600000I0J150000D01*
G01*
X118300000Y-121950000D01*
G75*
G02*
X118450000Y-121800000I150000J0D01*
G01*
G37*
G36*
G01*
X117180000Y-121800000D02*
X117480000Y-121800000D01*
G75*
G02*
X117630000Y-121950000I0J-150000D01*
G01*
X117630000Y-123600000D01*
G75*
G02*
X117480000Y-123750000I-150000J0D01*
G01*
X117180000Y-123750000D01*
G75*
G02*
X117030000Y-123600000I0J150000D01*
G01*
X117030000Y-121950000D01*
G75*
G02*
X117180000Y-121800000I150000J0D01*
G01*
G37*
G36*
G01*
X115910000Y-121800000D02*
X116210000Y-121800000D01*
G75*
G02*
X116360000Y-121950000I0J-150000D01*
G01*
X116360000Y-123600000D01*
G75*
G02*
X116210000Y-123750000I-150000J0D01*
G01*
X115910000Y-123750000D01*
G75*
G02*
X115760000Y-123600000I0J150000D01*
G01*
X115760000Y-121950000D01*
G75*
G02*
X115910000Y-121800000I150000J0D01*
G01*
G37*
G36*
G01*
X114640000Y-121800000D02*
X114940000Y-121800000D01*
G75*
G02*
X115090000Y-121950000I0J-150000D01*
G01*
X115090000Y-123600000D01*
G75*
G02*
X114940000Y-123750000I-150000J0D01*
G01*
X114640000Y-123750000D01*
G75*
G02*
X114490000Y-123600000I0J150000D01*
G01*
X114490000Y-121950000D01*
G75*
G02*
X114640000Y-121800000I150000J0D01*
G01*
G37*
G36*
G01*
X114640000Y-116850000D02*
X114940000Y-116850000D01*
G75*
G02*
X115090000Y-117000000I0J-150000D01*
G01*
X115090000Y-118650000D01*
G75*
G02*
X114940000Y-118800000I-150000J0D01*
G01*
X114640000Y-118800000D01*
G75*
G02*
X114490000Y-118650000I0J150000D01*
G01*
X114490000Y-117000000D01*
G75*
G02*
X114640000Y-116850000I150000J0D01*
G01*
G37*
G36*
G01*
X115910000Y-116850000D02*
X116210000Y-116850000D01*
G75*
G02*
X116360000Y-117000000I0J-150000D01*
G01*
X116360000Y-118650000D01*
G75*
G02*
X116210000Y-118800000I-150000J0D01*
G01*
X115910000Y-118800000D01*
G75*
G02*
X115760000Y-118650000I0J150000D01*
G01*
X115760000Y-117000000D01*
G75*
G02*
X115910000Y-116850000I150000J0D01*
G01*
G37*
G36*
G01*
X117180000Y-116850000D02*
X117480000Y-116850000D01*
G75*
G02*
X117630000Y-117000000I0J-150000D01*
G01*
X117630000Y-118650000D01*
G75*
G02*
X117480000Y-118800000I-150000J0D01*
G01*
X117180000Y-118800000D01*
G75*
G02*
X117030000Y-118650000I0J150000D01*
G01*
X117030000Y-117000000D01*
G75*
G02*
X117180000Y-116850000I150000J0D01*
G01*
G37*
G36*
G01*
X118450000Y-116850000D02*
X118750000Y-116850000D01*
G75*
G02*
X118900000Y-117000000I0J-150000D01*
G01*
X118900000Y-118650000D01*
G75*
G02*
X118750000Y-118800000I-150000J0D01*
G01*
X118450000Y-118800000D01*
G75*
G02*
X118300000Y-118650000I0J150000D01*
G01*
X118300000Y-117000000D01*
G75*
G02*
X118450000Y-116850000I150000J0D01*
G01*
G37*
G36*
G01*
X119720000Y-116850000D02*
X120020000Y-116850000D01*
G75*
G02*
X120170000Y-117000000I0J-150000D01*
G01*
X120170000Y-118650000D01*
G75*
G02*
X120020000Y-118800000I-150000J0D01*
G01*
X119720000Y-118800000D01*
G75*
G02*
X119570000Y-118650000I0J150000D01*
G01*
X119570000Y-117000000D01*
G75*
G02*
X119720000Y-116850000I150000J0D01*
G01*
G37*
G36*
G01*
X120990000Y-116850000D02*
X121290000Y-116850000D01*
G75*
G02*
X121440000Y-117000000I0J-150000D01*
G01*
X121440000Y-118650000D01*
G75*
G02*
X121290000Y-118800000I-150000J0D01*
G01*
X120990000Y-118800000D01*
G75*
G02*
X120840000Y-118650000I0J150000D01*
G01*
X120840000Y-117000000D01*
G75*
G02*
X120990000Y-116850000I150000J0D01*
G01*
G37*
G36*
G01*
X122260000Y-116850000D02*
X122560000Y-116850000D01*
G75*
G02*
X122710000Y-117000000I0J-150000D01*
G01*
X122710000Y-118650000D01*
G75*
G02*
X122560000Y-118800000I-150000J0D01*
G01*
X122260000Y-118800000D01*
G75*
G02*
X122110000Y-118650000I0J150000D01*
G01*
X122110000Y-117000000D01*
G75*
G02*
X122260000Y-116850000I150000J0D01*
G01*
G37*
%TD*%
%TO.C,U2*%
G36*
G01*
X126440000Y-106600000D02*
X126140000Y-106600000D01*
G75*
G02*
X125990000Y-106450000I0J150000D01*
G01*
X125990000Y-104800000D01*
G75*
G02*
X126140000Y-104650000I150000J0D01*
G01*
X126440000Y-104650000D01*
G75*
G02*
X126590000Y-104800000I0J-150000D01*
G01*
X126590000Y-106450000D01*
G75*
G02*
X126440000Y-106600000I-150000J0D01*
G01*
G37*
G36*
G01*
X127710000Y-106600000D02*
X127410000Y-106600000D01*
G75*
G02*
X127260000Y-106450000I0J150000D01*
G01*
X127260000Y-104800000D01*
G75*
G02*
X127410000Y-104650000I150000J0D01*
G01*
X127710000Y-104650000D01*
G75*
G02*
X127860000Y-104800000I0J-150000D01*
G01*
X127860000Y-106450000D01*
G75*
G02*
X127710000Y-106600000I-150000J0D01*
G01*
G37*
G36*
G01*
X128980000Y-106600000D02*
X128680000Y-106600000D01*
G75*
G02*
X128530000Y-106450000I0J150000D01*
G01*
X128530000Y-104800000D01*
G75*
G02*
X128680000Y-104650000I150000J0D01*
G01*
X128980000Y-104650000D01*
G75*
G02*
X129130000Y-104800000I0J-150000D01*
G01*
X129130000Y-106450000D01*
G75*
G02*
X128980000Y-106600000I-150000J0D01*
G01*
G37*
G36*
G01*
X130250000Y-106600000D02*
X129950000Y-106600000D01*
G75*
G02*
X129800000Y-106450000I0J150000D01*
G01*
X129800000Y-104800000D01*
G75*
G02*
X129950000Y-104650000I150000J0D01*
G01*
X130250000Y-104650000D01*
G75*
G02*
X130400000Y-104800000I0J-150000D01*
G01*
X130400000Y-106450000D01*
G75*
G02*
X130250000Y-106600000I-150000J0D01*
G01*
G37*
G36*
G01*
X131520000Y-106600000D02*
X131220000Y-106600000D01*
G75*
G02*
X131070000Y-106450000I0J150000D01*
G01*
X131070000Y-104800000D01*
G75*
G02*
X131220000Y-104650000I150000J0D01*
G01*
X131520000Y-104650000D01*
G75*
G02*
X131670000Y-104800000I0J-150000D01*
G01*
X131670000Y-106450000D01*
G75*
G02*
X131520000Y-106600000I-150000J0D01*
G01*
G37*
G36*
G01*
X132790000Y-106600000D02*
X132490000Y-106600000D01*
G75*
G02*
X132340000Y-106450000I0J150000D01*
G01*
X132340000Y-104800000D01*
G75*
G02*
X132490000Y-104650000I150000J0D01*
G01*
X132790000Y-104650000D01*
G75*
G02*
X132940000Y-104800000I0J-150000D01*
G01*
X132940000Y-106450000D01*
G75*
G02*
X132790000Y-106600000I-150000J0D01*
G01*
G37*
G36*
G01*
X134060000Y-106600000D02*
X133760000Y-106600000D01*
G75*
G02*
X133610000Y-106450000I0J150000D01*
G01*
X133610000Y-104800000D01*
G75*
G02*
X133760000Y-104650000I150000J0D01*
G01*
X134060000Y-104650000D01*
G75*
G02*
X134210000Y-104800000I0J-150000D01*
G01*
X134210000Y-106450000D01*
G75*
G02*
X134060000Y-106600000I-150000J0D01*
G01*
G37*
G36*
G01*
X134060000Y-111550000D02*
X133760000Y-111550000D01*
G75*
G02*
X133610000Y-111400000I0J150000D01*
G01*
X133610000Y-109750000D01*
G75*
G02*
X133760000Y-109600000I150000J0D01*
G01*
X134060000Y-109600000D01*
G75*
G02*
X134210000Y-109750000I0J-150000D01*
G01*
X134210000Y-111400000D01*
G75*
G02*
X134060000Y-111550000I-150000J0D01*
G01*
G37*
G36*
G01*
X132790000Y-111550000D02*
X132490000Y-111550000D01*
G75*
G02*
X132340000Y-111400000I0J150000D01*
G01*
X132340000Y-109750000D01*
G75*
G02*
X132490000Y-109600000I150000J0D01*
G01*
X132790000Y-109600000D01*
G75*
G02*
X132940000Y-109750000I0J-150000D01*
G01*
X132940000Y-111400000D01*
G75*
G02*
X132790000Y-111550000I-150000J0D01*
G01*
G37*
G36*
G01*
X131520000Y-111550000D02*
X131220000Y-111550000D01*
G75*
G02*
X131070000Y-111400000I0J150000D01*
G01*
X131070000Y-109750000D01*
G75*
G02*
X131220000Y-109600000I150000J0D01*
G01*
X131520000Y-109600000D01*
G75*
G02*
X131670000Y-109750000I0J-150000D01*
G01*
X131670000Y-111400000D01*
G75*
G02*
X131520000Y-111550000I-150000J0D01*
G01*
G37*
G36*
G01*
X130250000Y-111550000D02*
X129950000Y-111550000D01*
G75*
G02*
X129800000Y-111400000I0J150000D01*
G01*
X129800000Y-109750000D01*
G75*
G02*
X129950000Y-109600000I150000J0D01*
G01*
X130250000Y-109600000D01*
G75*
G02*
X130400000Y-109750000I0J-150000D01*
G01*
X130400000Y-111400000D01*
G75*
G02*
X130250000Y-111550000I-150000J0D01*
G01*
G37*
G36*
G01*
X128980000Y-111550000D02*
X128680000Y-111550000D01*
G75*
G02*
X128530000Y-111400000I0J150000D01*
G01*
X128530000Y-109750000D01*
G75*
G02*
X128680000Y-109600000I150000J0D01*
G01*
X128980000Y-109600000D01*
G75*
G02*
X129130000Y-109750000I0J-150000D01*
G01*
X129130000Y-111400000D01*
G75*
G02*
X128980000Y-111550000I-150000J0D01*
G01*
G37*
G36*
G01*
X127710000Y-111550000D02*
X127410000Y-111550000D01*
G75*
G02*
X127260000Y-111400000I0J150000D01*
G01*
X127260000Y-109750000D01*
G75*
G02*
X127410000Y-109600000I150000J0D01*
G01*
X127710000Y-109600000D01*
G75*
G02*
X127860000Y-109750000I0J-150000D01*
G01*
X127860000Y-111400000D01*
G75*
G02*
X127710000Y-111550000I-150000J0D01*
G01*
G37*
G36*
G01*
X126440000Y-111550000D02*
X126140000Y-111550000D01*
G75*
G02*
X125990000Y-111400000I0J150000D01*
G01*
X125990000Y-109750000D01*
G75*
G02*
X126140000Y-109600000I150000J0D01*
G01*
X126440000Y-109600000D01*
G75*
G02*
X126590000Y-109750000I0J-150000D01*
G01*
X126590000Y-111400000D01*
G75*
G02*
X126440000Y-111550000I-150000J0D01*
G01*
G37*
%TD*%
%TO.C,U1*%
G36*
G01*
X115040000Y-98400000D02*
X114740000Y-98400000D01*
G75*
G02*
X114590000Y-98250000I0J150000D01*
G01*
X114590000Y-96600000D01*
G75*
G02*
X114740000Y-96450000I150000J0D01*
G01*
X115040000Y-96450000D01*
G75*
G02*
X115190000Y-96600000I0J-150000D01*
G01*
X115190000Y-98250000D01*
G75*
G02*
X115040000Y-98400000I-150000J0D01*
G01*
G37*
G36*
G01*
X116310000Y-98400000D02*
X116010000Y-98400000D01*
G75*
G02*
X115860000Y-98250000I0J150000D01*
G01*
X115860000Y-96600000D01*
G75*
G02*
X116010000Y-96450000I150000J0D01*
G01*
X116310000Y-96450000D01*
G75*
G02*
X116460000Y-96600000I0J-150000D01*
G01*
X116460000Y-98250000D01*
G75*
G02*
X116310000Y-98400000I-150000J0D01*
G01*
G37*
G36*
G01*
X117580000Y-98400000D02*
X117280000Y-98400000D01*
G75*
G02*
X117130000Y-98250000I0J150000D01*
G01*
X117130000Y-96600000D01*
G75*
G02*
X117280000Y-96450000I150000J0D01*
G01*
X117580000Y-96450000D01*
G75*
G02*
X117730000Y-96600000I0J-150000D01*
G01*
X117730000Y-98250000D01*
G75*
G02*
X117580000Y-98400000I-150000J0D01*
G01*
G37*
G36*
G01*
X118850000Y-98400000D02*
X118550000Y-98400000D01*
G75*
G02*
X118400000Y-98250000I0J150000D01*
G01*
X118400000Y-96600000D01*
G75*
G02*
X118550000Y-96450000I150000J0D01*
G01*
X118850000Y-96450000D01*
G75*
G02*
X119000000Y-96600000I0J-150000D01*
G01*
X119000000Y-98250000D01*
G75*
G02*
X118850000Y-98400000I-150000J0D01*
G01*
G37*
G36*
G01*
X120120000Y-98400000D02*
X119820000Y-98400000D01*
G75*
G02*
X119670000Y-98250000I0J150000D01*
G01*
X119670000Y-96600000D01*
G75*
G02*
X119820000Y-96450000I150000J0D01*
G01*
X120120000Y-96450000D01*
G75*
G02*
X120270000Y-96600000I0J-150000D01*
G01*
X120270000Y-98250000D01*
G75*
G02*
X120120000Y-98400000I-150000J0D01*
G01*
G37*
G36*
G01*
X121390000Y-98400000D02*
X121090000Y-98400000D01*
G75*
G02*
X120940000Y-98250000I0J150000D01*
G01*
X120940000Y-96600000D01*
G75*
G02*
X121090000Y-96450000I150000J0D01*
G01*
X121390000Y-96450000D01*
G75*
G02*
X121540000Y-96600000I0J-150000D01*
G01*
X121540000Y-98250000D01*
G75*
G02*
X121390000Y-98400000I-150000J0D01*
G01*
G37*
G36*
G01*
X122660000Y-98400000D02*
X122360000Y-98400000D01*
G75*
G02*
X122210000Y-98250000I0J150000D01*
G01*
X122210000Y-96600000D01*
G75*
G02*
X122360000Y-96450000I150000J0D01*
G01*
X122660000Y-96450000D01*
G75*
G02*
X122810000Y-96600000I0J-150000D01*
G01*
X122810000Y-98250000D01*
G75*
G02*
X122660000Y-98400000I-150000J0D01*
G01*
G37*
G36*
G01*
X122660000Y-103350000D02*
X122360000Y-103350000D01*
G75*
G02*
X122210000Y-103200000I0J150000D01*
G01*
X122210000Y-101550000D01*
G75*
G02*
X122360000Y-101400000I150000J0D01*
G01*
X122660000Y-101400000D01*
G75*
G02*
X122810000Y-101550000I0J-150000D01*
G01*
X122810000Y-103200000D01*
G75*
G02*
X122660000Y-103350000I-150000J0D01*
G01*
G37*
G36*
G01*
X121390000Y-103350000D02*
X121090000Y-103350000D01*
G75*
G02*
X120940000Y-103200000I0J150000D01*
G01*
X120940000Y-101550000D01*
G75*
G02*
X121090000Y-101400000I150000J0D01*
G01*
X121390000Y-101400000D01*
G75*
G02*
X121540000Y-101550000I0J-150000D01*
G01*
X121540000Y-103200000D01*
G75*
G02*
X121390000Y-103350000I-150000J0D01*
G01*
G37*
G36*
G01*
X120120000Y-103350000D02*
X119820000Y-103350000D01*
G75*
G02*
X119670000Y-103200000I0J150000D01*
G01*
X119670000Y-101550000D01*
G75*
G02*
X119820000Y-101400000I150000J0D01*
G01*
X120120000Y-101400000D01*
G75*
G02*
X120270000Y-101550000I0J-150000D01*
G01*
X120270000Y-103200000D01*
G75*
G02*
X120120000Y-103350000I-150000J0D01*
G01*
G37*
G36*
G01*
X118850000Y-103350000D02*
X118550000Y-103350000D01*
G75*
G02*
X118400000Y-103200000I0J150000D01*
G01*
X118400000Y-101550000D01*
G75*
G02*
X118550000Y-101400000I150000J0D01*
G01*
X118850000Y-101400000D01*
G75*
G02*
X119000000Y-101550000I0J-150000D01*
G01*
X119000000Y-103200000D01*
G75*
G02*
X118850000Y-103350000I-150000J0D01*
G01*
G37*
G36*
G01*
X117580000Y-103350000D02*
X117280000Y-103350000D01*
G75*
G02*
X117130000Y-103200000I0J150000D01*
G01*
X117130000Y-101550000D01*
G75*
G02*
X117280000Y-101400000I150000J0D01*
G01*
X117580000Y-101400000D01*
G75*
G02*
X117730000Y-101550000I0J-150000D01*
G01*
X117730000Y-103200000D01*
G75*
G02*
X117580000Y-103350000I-150000J0D01*
G01*
G37*
G36*
G01*
X116310000Y-103350000D02*
X116010000Y-103350000D01*
G75*
G02*
X115860000Y-103200000I0J150000D01*
G01*
X115860000Y-101550000D01*
G75*
G02*
X116010000Y-101400000I150000J0D01*
G01*
X116310000Y-101400000D01*
G75*
G02*
X116460000Y-101550000I0J-150000D01*
G01*
X116460000Y-103200000D01*
G75*
G02*
X116310000Y-103350000I-150000J0D01*
G01*
G37*
G36*
G01*
X115040000Y-103350000D02*
X114740000Y-103350000D01*
G75*
G02*
X114590000Y-103200000I0J150000D01*
G01*
X114590000Y-101550000D01*
G75*
G02*
X114740000Y-101400000I150000J0D01*
G01*
X115040000Y-101400000D01*
G75*
G02*
X115190000Y-101550000I0J-150000D01*
G01*
X115190000Y-103200000D01*
G75*
G02*
X115040000Y-103350000I-150000J0D01*
G01*
G37*
%TD*%
%TO.C,R92*%
G36*
G01*
X142585000Y-118060000D02*
X142215000Y-118060000D01*
G75*
G02*
X142080000Y-117925000I0J135000D01*
G01*
X142080000Y-117655000D01*
G75*
G02*
X142215000Y-117520000I135000J0D01*
G01*
X142585000Y-117520000D01*
G75*
G02*
X142720000Y-117655000I0J-135000D01*
G01*
X142720000Y-117925000D01*
G75*
G02*
X142585000Y-118060000I-135000J0D01*
G01*
G37*
G36*
G01*
X142585000Y-119080000D02*
X142215000Y-119080000D01*
G75*
G02*
X142080000Y-118945000I0J135000D01*
G01*
X142080000Y-118675000D01*
G75*
G02*
X142215000Y-118540000I135000J0D01*
G01*
X142585000Y-118540000D01*
G75*
G02*
X142720000Y-118675000I0J-135000D01*
G01*
X142720000Y-118945000D01*
G75*
G02*
X142585000Y-119080000I-135000J0D01*
G01*
G37*
%TD*%
%TO.C,R91*%
G36*
G01*
X140915000Y-118540000D02*
X141285000Y-118540000D01*
G75*
G02*
X141420000Y-118675000I0J-135000D01*
G01*
X141420000Y-118945000D01*
G75*
G02*
X141285000Y-119080000I-135000J0D01*
G01*
X140915000Y-119080000D01*
G75*
G02*
X140780000Y-118945000I0J135000D01*
G01*
X140780000Y-118675000D01*
G75*
G02*
X140915000Y-118540000I135000J0D01*
G01*
G37*
G36*
G01*
X140915000Y-117520000D02*
X141285000Y-117520000D01*
G75*
G02*
X141420000Y-117655000I0J-135000D01*
G01*
X141420000Y-117925000D01*
G75*
G02*
X141285000Y-118060000I-135000J0D01*
G01*
X140915000Y-118060000D01*
G75*
G02*
X140780000Y-117925000I0J135000D01*
G01*
X140780000Y-117655000D01*
G75*
G02*
X140915000Y-117520000I135000J0D01*
G01*
G37*
%TD*%
%TO.C,R90*%
G36*
G01*
X139985000Y-118060000D02*
X139615000Y-118060000D01*
G75*
G02*
X139480000Y-117925000I0J135000D01*
G01*
X139480000Y-117655000D01*
G75*
G02*
X139615000Y-117520000I135000J0D01*
G01*
X139985000Y-117520000D01*
G75*
G02*
X140120000Y-117655000I0J-135000D01*
G01*
X140120000Y-117925000D01*
G75*
G02*
X139985000Y-118060000I-135000J0D01*
G01*
G37*
G36*
G01*
X139985000Y-119080000D02*
X139615000Y-119080000D01*
G75*
G02*
X139480000Y-118945000I0J135000D01*
G01*
X139480000Y-118675000D01*
G75*
G02*
X139615000Y-118540000I135000J0D01*
G01*
X139985000Y-118540000D01*
G75*
G02*
X140120000Y-118675000I0J-135000D01*
G01*
X140120000Y-118945000D01*
G75*
G02*
X139985000Y-119080000I-135000J0D01*
G01*
G37*
%TD*%
%TO.C,R89*%
G36*
G01*
X143885000Y-118060000D02*
X143515000Y-118060000D01*
G75*
G02*
X143380000Y-117925000I0J135000D01*
G01*
X143380000Y-117655000D01*
G75*
G02*
X143515000Y-117520000I135000J0D01*
G01*
X143885000Y-117520000D01*
G75*
G02*
X144020000Y-117655000I0J-135000D01*
G01*
X144020000Y-117925000D01*
G75*
G02*
X143885000Y-118060000I-135000J0D01*
G01*
G37*
G36*
G01*
X143885000Y-119080000D02*
X143515000Y-119080000D01*
G75*
G02*
X143380000Y-118945000I0J135000D01*
G01*
X143380000Y-118675000D01*
G75*
G02*
X143515000Y-118540000I135000J0D01*
G01*
X143885000Y-118540000D01*
G75*
G02*
X144020000Y-118675000I0J-135000D01*
G01*
X144020000Y-118945000D01*
G75*
G02*
X143885000Y-119080000I-135000J0D01*
G01*
G37*
%TD*%
%TO.C,R88*%
G36*
G01*
X129615000Y-63540000D02*
X129985000Y-63540000D01*
G75*
G02*
X130120000Y-63675000I0J-135000D01*
G01*
X130120000Y-63945000D01*
G75*
G02*
X129985000Y-64080000I-135000J0D01*
G01*
X129615000Y-64080000D01*
G75*
G02*
X129480000Y-63945000I0J135000D01*
G01*
X129480000Y-63675000D01*
G75*
G02*
X129615000Y-63540000I135000J0D01*
G01*
G37*
G36*
G01*
X129615000Y-62520000D02*
X129985000Y-62520000D01*
G75*
G02*
X130120000Y-62655000I0J-135000D01*
G01*
X130120000Y-62925000D01*
G75*
G02*
X129985000Y-63060000I-135000J0D01*
G01*
X129615000Y-63060000D01*
G75*
G02*
X129480000Y-62925000I0J135000D01*
G01*
X129480000Y-62655000D01*
G75*
G02*
X129615000Y-62520000I135000J0D01*
G01*
G37*
%TD*%
%TO.C,R87*%
G36*
G01*
X141815000Y-63450000D02*
X142185000Y-63450000D01*
G75*
G02*
X142320000Y-63585000I0J-135000D01*
G01*
X142320000Y-63855000D01*
G75*
G02*
X142185000Y-63990000I-135000J0D01*
G01*
X141815000Y-63990000D01*
G75*
G02*
X141680000Y-63855000I0J135000D01*
G01*
X141680000Y-63585000D01*
G75*
G02*
X141815000Y-63450000I135000J0D01*
G01*
G37*
G36*
G01*
X141815000Y-62430000D02*
X142185000Y-62430000D01*
G75*
G02*
X142320000Y-62565000I0J-135000D01*
G01*
X142320000Y-62835000D01*
G75*
G02*
X142185000Y-62970000I-135000J0D01*
G01*
X141815000Y-62970000D01*
G75*
G02*
X141680000Y-62835000I0J135000D01*
G01*
X141680000Y-62565000D01*
G75*
G02*
X141815000Y-62430000I135000J0D01*
G01*
G37*
%TD*%
%TO.C,R86*%
G36*
G01*
X127600000Y-63750001D02*
X127600000Y-62849999D01*
G75*
G02*
X127849999Y-62600000I249999J0D01*
G01*
X128375001Y-62600000D01*
G75*
G02*
X128625000Y-62849999I0J-249999D01*
G01*
X128625000Y-63750001D01*
G75*
G02*
X128375001Y-64000000I-249999J0D01*
G01*
X127849999Y-64000000D01*
G75*
G02*
X127600000Y-63750001I0J249999D01*
G01*
G37*
G36*
G01*
X125775000Y-63750001D02*
X125775000Y-62849999D01*
G75*
G02*
X126024999Y-62600000I249999J0D01*
G01*
X126550001Y-62600000D01*
G75*
G02*
X126800000Y-62849999I0J-249999D01*
G01*
X126800000Y-63750001D01*
G75*
G02*
X126550001Y-64000000I-249999J0D01*
G01*
X126024999Y-64000000D01*
G75*
G02*
X125775000Y-63750001I0J249999D01*
G01*
G37*
%TD*%
%TO.C,R85*%
G36*
G01*
X139600000Y-63650001D02*
X139600000Y-62749999D01*
G75*
G02*
X139849999Y-62500000I249999J0D01*
G01*
X140375001Y-62500000D01*
G75*
G02*
X140625000Y-62749999I0J-249999D01*
G01*
X140625000Y-63650001D01*
G75*
G02*
X140375001Y-63900000I-249999J0D01*
G01*
X139849999Y-63900000D01*
G75*
G02*
X139600000Y-63650001I0J249999D01*
G01*
G37*
G36*
G01*
X137775000Y-63650001D02*
X137775000Y-62749999D01*
G75*
G02*
X138024999Y-62500000I249999J0D01*
G01*
X138550001Y-62500000D01*
G75*
G02*
X138800000Y-62749999I0J-249999D01*
G01*
X138800000Y-63650001D01*
G75*
G02*
X138550001Y-63900000I-249999J0D01*
G01*
X138024999Y-63900000D01*
G75*
G02*
X137775000Y-63650001I0J249999D01*
G01*
G37*
%TD*%
%TO.C,R84*%
G36*
G01*
X121100000Y-72349999D02*
X121100000Y-73250001D01*
G75*
G02*
X120850001Y-73500000I-249999J0D01*
G01*
X120324999Y-73500000D01*
G75*
G02*
X120075000Y-73250001I0J249999D01*
G01*
X120075000Y-72349999D01*
G75*
G02*
X120324999Y-72100000I249999J0D01*
G01*
X120850001Y-72100000D01*
G75*
G02*
X121100000Y-72349999I0J-249999D01*
G01*
G37*
G36*
G01*
X122925000Y-72349999D02*
X122925000Y-73250001D01*
G75*
G02*
X122675001Y-73500000I-249999J0D01*
G01*
X122149999Y-73500000D01*
G75*
G02*
X121900000Y-73250001I0J249999D01*
G01*
X121900000Y-72349999D01*
G75*
G02*
X122149999Y-72100000I249999J0D01*
G01*
X122675001Y-72100000D01*
G75*
G02*
X122925000Y-72349999I0J-249999D01*
G01*
G37*
%TD*%
%TO.C,R83*%
G36*
G01*
X121100000Y-77049999D02*
X121100000Y-77950001D01*
G75*
G02*
X120850001Y-78200000I-249999J0D01*
G01*
X120324999Y-78200000D01*
G75*
G02*
X120075000Y-77950001I0J249999D01*
G01*
X120075000Y-77049999D01*
G75*
G02*
X120324999Y-76800000I249999J0D01*
G01*
X120850001Y-76800000D01*
G75*
G02*
X121100000Y-77049999I0J-249999D01*
G01*
G37*
G36*
G01*
X122925000Y-77049999D02*
X122925000Y-77950001D01*
G75*
G02*
X122675001Y-78200000I-249999J0D01*
G01*
X122149999Y-78200000D01*
G75*
G02*
X121900000Y-77950001I0J249999D01*
G01*
X121900000Y-77049999D01*
G75*
G02*
X122149999Y-76800000I249999J0D01*
G01*
X122675001Y-76800000D01*
G75*
G02*
X122925000Y-77049999I0J-249999D01*
G01*
G37*
%TD*%
%TO.C,R82*%
G36*
G01*
X135815000Y-63540000D02*
X136185000Y-63540000D01*
G75*
G02*
X136320000Y-63675000I0J-135000D01*
G01*
X136320000Y-63945000D01*
G75*
G02*
X136185000Y-64080000I-135000J0D01*
G01*
X135815000Y-64080000D01*
G75*
G02*
X135680000Y-63945000I0J135000D01*
G01*
X135680000Y-63675000D01*
G75*
G02*
X135815000Y-63540000I135000J0D01*
G01*
G37*
G36*
G01*
X135815000Y-62520000D02*
X136185000Y-62520000D01*
G75*
G02*
X136320000Y-62655000I0J-135000D01*
G01*
X136320000Y-62925000D01*
G75*
G02*
X136185000Y-63060000I-135000J0D01*
G01*
X135815000Y-63060000D01*
G75*
G02*
X135680000Y-62925000I0J135000D01*
G01*
X135680000Y-62655000D01*
G75*
G02*
X135815000Y-62520000I135000J0D01*
G01*
G37*
%TD*%
%TO.C,R81*%
G36*
G01*
X148015000Y-63340000D02*
X148385000Y-63340000D01*
G75*
G02*
X148520000Y-63475000I0J-135000D01*
G01*
X148520000Y-63745000D01*
G75*
G02*
X148385000Y-63880000I-135000J0D01*
G01*
X148015000Y-63880000D01*
G75*
G02*
X147880000Y-63745000I0J135000D01*
G01*
X147880000Y-63475000D01*
G75*
G02*
X148015000Y-63340000I135000J0D01*
G01*
G37*
G36*
G01*
X148015000Y-62320000D02*
X148385000Y-62320000D01*
G75*
G02*
X148520000Y-62455000I0J-135000D01*
G01*
X148520000Y-62725000D01*
G75*
G02*
X148385000Y-62860000I-135000J0D01*
G01*
X148015000Y-62860000D01*
G75*
G02*
X147880000Y-62725000I0J135000D01*
G01*
X147880000Y-62455000D01*
G75*
G02*
X148015000Y-62320000I135000J0D01*
G01*
G37*
%TD*%
%TO.C,R80*%
G36*
G01*
X133600000Y-63750001D02*
X133600000Y-62849999D01*
G75*
G02*
X133849999Y-62600000I249999J0D01*
G01*
X134375001Y-62600000D01*
G75*
G02*
X134625000Y-62849999I0J-249999D01*
G01*
X134625000Y-63750001D01*
G75*
G02*
X134375001Y-64000000I-249999J0D01*
G01*
X133849999Y-64000000D01*
G75*
G02*
X133600000Y-63750001I0J249999D01*
G01*
G37*
G36*
G01*
X131775000Y-63750001D02*
X131775000Y-62849999D01*
G75*
G02*
X132024999Y-62600000I249999J0D01*
G01*
X132550001Y-62600000D01*
G75*
G02*
X132800000Y-62849999I0J-249999D01*
G01*
X132800000Y-63750001D01*
G75*
G02*
X132550001Y-64000000I-249999J0D01*
G01*
X132024999Y-64000000D01*
G75*
G02*
X131775000Y-63750001I0J249999D01*
G01*
G37*
%TD*%
%TO.C,R79*%
G36*
G01*
X145900000Y-63650001D02*
X145900000Y-62749999D01*
G75*
G02*
X146149999Y-62500000I249999J0D01*
G01*
X146675001Y-62500000D01*
G75*
G02*
X146925000Y-62749999I0J-249999D01*
G01*
X146925000Y-63650001D01*
G75*
G02*
X146675001Y-63900000I-249999J0D01*
G01*
X146149999Y-63900000D01*
G75*
G02*
X145900000Y-63650001I0J249999D01*
G01*
G37*
G36*
G01*
X144075000Y-63650001D02*
X144075000Y-62749999D01*
G75*
G02*
X144324999Y-62500000I249999J0D01*
G01*
X144850001Y-62500000D01*
G75*
G02*
X145100000Y-62749999I0J-249999D01*
G01*
X145100000Y-63650001D01*
G75*
G02*
X144850001Y-63900000I-249999J0D01*
G01*
X144324999Y-63900000D01*
G75*
G02*
X144075000Y-63650001I0J249999D01*
G01*
G37*
%TD*%
%TO.C,R78*%
G36*
G01*
X121100000Y-74649999D02*
X121100000Y-75550001D01*
G75*
G02*
X120850001Y-75800000I-249999J0D01*
G01*
X120324999Y-75800000D01*
G75*
G02*
X120075000Y-75550001I0J249999D01*
G01*
X120075000Y-74649999D01*
G75*
G02*
X120324999Y-74400000I249999J0D01*
G01*
X120850001Y-74400000D01*
G75*
G02*
X121100000Y-74649999I0J-249999D01*
G01*
G37*
G36*
G01*
X122925000Y-74649999D02*
X122925000Y-75550001D01*
G75*
G02*
X122675001Y-75800000I-249999J0D01*
G01*
X122149999Y-75800000D01*
G75*
G02*
X121900000Y-75550001I0J249999D01*
G01*
X121900000Y-74649999D01*
G75*
G02*
X122149999Y-74400000I249999J0D01*
G01*
X122675001Y-74400000D01*
G75*
G02*
X122925000Y-74649999I0J-249999D01*
G01*
G37*
%TD*%
%TO.C,R77*%
G36*
G01*
X121100000Y-79449999D02*
X121100000Y-80350001D01*
G75*
G02*
X120850001Y-80600000I-249999J0D01*
G01*
X120324999Y-80600000D01*
G75*
G02*
X120075000Y-80350001I0J249999D01*
G01*
X120075000Y-79449999D01*
G75*
G02*
X120324999Y-79200000I249999J0D01*
G01*
X120850001Y-79200000D01*
G75*
G02*
X121100000Y-79449999I0J-249999D01*
G01*
G37*
G36*
G01*
X122925000Y-79449999D02*
X122925000Y-80350001D01*
G75*
G02*
X122675001Y-80600000I-249999J0D01*
G01*
X122149999Y-80600000D01*
G75*
G02*
X121900000Y-80350001I0J249999D01*
G01*
X121900000Y-79449999D01*
G75*
G02*
X122149999Y-79200000I249999J0D01*
G01*
X122675001Y-79200000D01*
G75*
G02*
X122925000Y-79449999I0J-249999D01*
G01*
G37*
%TD*%
%TO.C,R76*%
G36*
G01*
X119840000Y-114885000D02*
X119840000Y-114515000D01*
G75*
G02*
X119975000Y-114380000I135000J0D01*
G01*
X120245000Y-114380000D01*
G75*
G02*
X120380000Y-114515000I0J-135000D01*
G01*
X120380000Y-114885000D01*
G75*
G02*
X120245000Y-115020000I-135000J0D01*
G01*
X119975000Y-115020000D01*
G75*
G02*
X119840000Y-114885000I0J135000D01*
G01*
G37*
G36*
G01*
X118820000Y-114885000D02*
X118820000Y-114515000D01*
G75*
G02*
X118955000Y-114380000I135000J0D01*
G01*
X119225000Y-114380000D01*
G75*
G02*
X119360000Y-114515000I0J-135000D01*
G01*
X119360000Y-114885000D01*
G75*
G02*
X119225000Y-115020000I-135000J0D01*
G01*
X118955000Y-115020000D01*
G75*
G02*
X118820000Y-114885000I0J135000D01*
G01*
G37*
%TD*%
%TO.C,R75*%
G36*
G01*
X117660000Y-115615000D02*
X117660000Y-115985000D01*
G75*
G02*
X117525000Y-116120000I-135000J0D01*
G01*
X117255000Y-116120000D01*
G75*
G02*
X117120000Y-115985000I0J135000D01*
G01*
X117120000Y-115615000D01*
G75*
G02*
X117255000Y-115480000I135000J0D01*
G01*
X117525000Y-115480000D01*
G75*
G02*
X117660000Y-115615000I0J-135000D01*
G01*
G37*
G36*
G01*
X118680000Y-115615000D02*
X118680000Y-115985000D01*
G75*
G02*
X118545000Y-116120000I-135000J0D01*
G01*
X118275000Y-116120000D01*
G75*
G02*
X118140000Y-115985000I0J135000D01*
G01*
X118140000Y-115615000D01*
G75*
G02*
X118275000Y-115480000I135000J0D01*
G01*
X118545000Y-115480000D01*
G75*
G02*
X118680000Y-115615000I0J-135000D01*
G01*
G37*
%TD*%
%TO.C,R74*%
G36*
G01*
X129615000Y-55140000D02*
X129985000Y-55140000D01*
G75*
G02*
X130120000Y-55275000I0J-135000D01*
G01*
X130120000Y-55545000D01*
G75*
G02*
X129985000Y-55680000I-135000J0D01*
G01*
X129615000Y-55680000D01*
G75*
G02*
X129480000Y-55545000I0J135000D01*
G01*
X129480000Y-55275000D01*
G75*
G02*
X129615000Y-55140000I135000J0D01*
G01*
G37*
G36*
G01*
X129615000Y-54120000D02*
X129985000Y-54120000D01*
G75*
G02*
X130120000Y-54255000I0J-135000D01*
G01*
X130120000Y-54525000D01*
G75*
G02*
X129985000Y-54660000I-135000J0D01*
G01*
X129615000Y-54660000D01*
G75*
G02*
X129480000Y-54525000I0J135000D01*
G01*
X129480000Y-54255000D01*
G75*
G02*
X129615000Y-54120000I135000J0D01*
G01*
G37*
%TD*%
%TO.C,R73*%
G36*
G01*
X141915000Y-55140000D02*
X142285000Y-55140000D01*
G75*
G02*
X142420000Y-55275000I0J-135000D01*
G01*
X142420000Y-55545000D01*
G75*
G02*
X142285000Y-55680000I-135000J0D01*
G01*
X141915000Y-55680000D01*
G75*
G02*
X141780000Y-55545000I0J135000D01*
G01*
X141780000Y-55275000D01*
G75*
G02*
X141915000Y-55140000I135000J0D01*
G01*
G37*
G36*
G01*
X141915000Y-54120000D02*
X142285000Y-54120000D01*
G75*
G02*
X142420000Y-54255000I0J-135000D01*
G01*
X142420000Y-54525000D01*
G75*
G02*
X142285000Y-54660000I-135000J0D01*
G01*
X141915000Y-54660000D01*
G75*
G02*
X141780000Y-54525000I0J135000D01*
G01*
X141780000Y-54255000D01*
G75*
G02*
X141915000Y-54120000I135000J0D01*
G01*
G37*
%TD*%
%TO.C,R72*%
G36*
G01*
X127400000Y-55350001D02*
X127400000Y-54449999D01*
G75*
G02*
X127649999Y-54200000I249999J0D01*
G01*
X128175001Y-54200000D01*
G75*
G02*
X128425000Y-54449999I0J-249999D01*
G01*
X128425000Y-55350001D01*
G75*
G02*
X128175001Y-55600000I-249999J0D01*
G01*
X127649999Y-55600000D01*
G75*
G02*
X127400000Y-55350001I0J249999D01*
G01*
G37*
G36*
G01*
X125575000Y-55350001D02*
X125575000Y-54449999D01*
G75*
G02*
X125824999Y-54200000I249999J0D01*
G01*
X126350001Y-54200000D01*
G75*
G02*
X126600000Y-54449999I0J-249999D01*
G01*
X126600000Y-55350001D01*
G75*
G02*
X126350001Y-55600000I-249999J0D01*
G01*
X125824999Y-55600000D01*
G75*
G02*
X125575000Y-55350001I0J249999D01*
G01*
G37*
%TD*%
%TO.C,R71*%
G36*
G01*
X139700000Y-55350001D02*
X139700000Y-54449999D01*
G75*
G02*
X139949999Y-54200000I249999J0D01*
G01*
X140475001Y-54200000D01*
G75*
G02*
X140725000Y-54449999I0J-249999D01*
G01*
X140725000Y-55350001D01*
G75*
G02*
X140475001Y-55600000I-249999J0D01*
G01*
X139949999Y-55600000D01*
G75*
G02*
X139700000Y-55350001I0J249999D01*
G01*
G37*
G36*
G01*
X137875000Y-55350001D02*
X137875000Y-54449999D01*
G75*
G02*
X138124999Y-54200000I249999J0D01*
G01*
X138650001Y-54200000D01*
G75*
G02*
X138900000Y-54449999I0J-249999D01*
G01*
X138900000Y-55350001D01*
G75*
G02*
X138650001Y-55600000I-249999J0D01*
G01*
X138124999Y-55600000D01*
G75*
G02*
X137875000Y-55350001I0J249999D01*
G01*
G37*
%TD*%
%TO.C,R70*%
G36*
G01*
X121100000Y-61249999D02*
X121100000Y-62150001D01*
G75*
G02*
X120850001Y-62400000I-249999J0D01*
G01*
X120324999Y-62400000D01*
G75*
G02*
X120075000Y-62150001I0J249999D01*
G01*
X120075000Y-61249999D01*
G75*
G02*
X120324999Y-61000000I249999J0D01*
G01*
X120850001Y-61000000D01*
G75*
G02*
X121100000Y-61249999I0J-249999D01*
G01*
G37*
G36*
G01*
X122925000Y-61249999D02*
X122925000Y-62150001D01*
G75*
G02*
X122675001Y-62400000I-249999J0D01*
G01*
X122149999Y-62400000D01*
G75*
G02*
X121900000Y-62150001I0J249999D01*
G01*
X121900000Y-61249999D01*
G75*
G02*
X122149999Y-61000000I249999J0D01*
G01*
X122675001Y-61000000D01*
G75*
G02*
X122925000Y-61249999I0J-249999D01*
G01*
G37*
%TD*%
%TO.C,R69*%
G36*
G01*
X121100000Y-65449999D02*
X121100000Y-66350001D01*
G75*
G02*
X120850001Y-66600000I-249999J0D01*
G01*
X120324999Y-66600000D01*
G75*
G02*
X120075000Y-66350001I0J249999D01*
G01*
X120075000Y-65449999D01*
G75*
G02*
X120324999Y-65200000I249999J0D01*
G01*
X120850001Y-65200000D01*
G75*
G02*
X121100000Y-65449999I0J-249999D01*
G01*
G37*
G36*
G01*
X122925000Y-65449999D02*
X122925000Y-66350001D01*
G75*
G02*
X122675001Y-66600000I-249999J0D01*
G01*
X122149999Y-66600000D01*
G75*
G02*
X121900000Y-66350001I0J249999D01*
G01*
X121900000Y-65449999D01*
G75*
G02*
X122149999Y-65200000I249999J0D01*
G01*
X122675001Y-65200000D01*
G75*
G02*
X122925000Y-65449999I0J-249999D01*
G01*
G37*
%TD*%
%TO.C,R68*%
G36*
G01*
X135815000Y-55140000D02*
X136185000Y-55140000D01*
G75*
G02*
X136320000Y-55275000I0J-135000D01*
G01*
X136320000Y-55545000D01*
G75*
G02*
X136185000Y-55680000I-135000J0D01*
G01*
X135815000Y-55680000D01*
G75*
G02*
X135680000Y-55545000I0J135000D01*
G01*
X135680000Y-55275000D01*
G75*
G02*
X135815000Y-55140000I135000J0D01*
G01*
G37*
G36*
G01*
X135815000Y-54120000D02*
X136185000Y-54120000D01*
G75*
G02*
X136320000Y-54255000I0J-135000D01*
G01*
X136320000Y-54525000D01*
G75*
G02*
X136185000Y-54660000I-135000J0D01*
G01*
X135815000Y-54660000D01*
G75*
G02*
X135680000Y-54525000I0J135000D01*
G01*
X135680000Y-54255000D01*
G75*
G02*
X135815000Y-54120000I135000J0D01*
G01*
G37*
%TD*%
%TO.C,R67*%
G36*
G01*
X147915000Y-55240000D02*
X148285000Y-55240000D01*
G75*
G02*
X148420000Y-55375000I0J-135000D01*
G01*
X148420000Y-55645000D01*
G75*
G02*
X148285000Y-55780000I-135000J0D01*
G01*
X147915000Y-55780000D01*
G75*
G02*
X147780000Y-55645000I0J135000D01*
G01*
X147780000Y-55375000D01*
G75*
G02*
X147915000Y-55240000I135000J0D01*
G01*
G37*
G36*
G01*
X147915000Y-54220000D02*
X148285000Y-54220000D01*
G75*
G02*
X148420000Y-54355000I0J-135000D01*
G01*
X148420000Y-54625000D01*
G75*
G02*
X148285000Y-54760000I-135000J0D01*
G01*
X147915000Y-54760000D01*
G75*
G02*
X147780000Y-54625000I0J135000D01*
G01*
X147780000Y-54355000D01*
G75*
G02*
X147915000Y-54220000I135000J0D01*
G01*
G37*
%TD*%
%TO.C,R66*%
G36*
G01*
X133500000Y-55350001D02*
X133500000Y-54449999D01*
G75*
G02*
X133749999Y-54200000I249999J0D01*
G01*
X134275001Y-54200000D01*
G75*
G02*
X134525000Y-54449999I0J-249999D01*
G01*
X134525000Y-55350001D01*
G75*
G02*
X134275001Y-55600000I-249999J0D01*
G01*
X133749999Y-55600000D01*
G75*
G02*
X133500000Y-55350001I0J249999D01*
G01*
G37*
G36*
G01*
X131675000Y-55350001D02*
X131675000Y-54449999D01*
G75*
G02*
X131924999Y-54200000I249999J0D01*
G01*
X132450001Y-54200000D01*
G75*
G02*
X132700000Y-54449999I0J-249999D01*
G01*
X132700000Y-55350001D01*
G75*
G02*
X132450001Y-55600000I-249999J0D01*
G01*
X131924999Y-55600000D01*
G75*
G02*
X131675000Y-55350001I0J249999D01*
G01*
G37*
%TD*%
%TO.C,R65*%
G36*
G01*
X145900000Y-55450001D02*
X145900000Y-54549999D01*
G75*
G02*
X146149999Y-54300000I249999J0D01*
G01*
X146675001Y-54300000D01*
G75*
G02*
X146925000Y-54549999I0J-249999D01*
G01*
X146925000Y-55450001D01*
G75*
G02*
X146675001Y-55700000I-249999J0D01*
G01*
X146149999Y-55700000D01*
G75*
G02*
X145900000Y-55450001I0J249999D01*
G01*
G37*
G36*
G01*
X144075000Y-55450001D02*
X144075000Y-54549999D01*
G75*
G02*
X144324999Y-54300000I249999J0D01*
G01*
X144850001Y-54300000D01*
G75*
G02*
X145100000Y-54549999I0J-249999D01*
G01*
X145100000Y-55450001D01*
G75*
G02*
X144850001Y-55700000I-249999J0D01*
G01*
X144324999Y-55700000D01*
G75*
G02*
X144075000Y-55450001I0J249999D01*
G01*
G37*
%TD*%
%TO.C,R64*%
G36*
G01*
X121100000Y-63349999D02*
X121100000Y-64250001D01*
G75*
G02*
X120850001Y-64500000I-249999J0D01*
G01*
X120324999Y-64500000D01*
G75*
G02*
X120075000Y-64250001I0J249999D01*
G01*
X120075000Y-63349999D01*
G75*
G02*
X120324999Y-63100000I249999J0D01*
G01*
X120850001Y-63100000D01*
G75*
G02*
X121100000Y-63349999I0J-249999D01*
G01*
G37*
G36*
G01*
X122925000Y-63349999D02*
X122925000Y-64250001D01*
G75*
G02*
X122675001Y-64500000I-249999J0D01*
G01*
X122149999Y-64500000D01*
G75*
G02*
X121900000Y-64250001I0J249999D01*
G01*
X121900000Y-63349999D01*
G75*
G02*
X122149999Y-63100000I249999J0D01*
G01*
X122675001Y-63100000D01*
G75*
G02*
X122925000Y-63349999I0J-249999D01*
G01*
G37*
%TD*%
%TO.C,R63*%
G36*
G01*
X121100000Y-67549999D02*
X121100000Y-68450001D01*
G75*
G02*
X120850001Y-68700000I-249999J0D01*
G01*
X120324999Y-68700000D01*
G75*
G02*
X120075000Y-68450001I0J249999D01*
G01*
X120075000Y-67549999D01*
G75*
G02*
X120324999Y-67300000I249999J0D01*
G01*
X120850001Y-67300000D01*
G75*
G02*
X121100000Y-67549999I0J-249999D01*
G01*
G37*
G36*
G01*
X122925000Y-67549999D02*
X122925000Y-68450001D01*
G75*
G02*
X122675001Y-68700000I-249999J0D01*
G01*
X122149999Y-68700000D01*
G75*
G02*
X121900000Y-68450001I0J249999D01*
G01*
X121900000Y-67549999D01*
G75*
G02*
X122149999Y-67300000I249999J0D01*
G01*
X122675001Y-67300000D01*
G75*
G02*
X122925000Y-67549999I0J-249999D01*
G01*
G37*
%TD*%
%TO.C,R62*%
G36*
G01*
X129675000Y-75000000D02*
X129125000Y-75000000D01*
G75*
G02*
X128925000Y-74800000I0J200000D01*
G01*
X128925000Y-74400000D01*
G75*
G02*
X129125000Y-74200000I200000J0D01*
G01*
X129675000Y-74200000D01*
G75*
G02*
X129875000Y-74400000I0J-200000D01*
G01*
X129875000Y-74800000D01*
G75*
G02*
X129675000Y-75000000I-200000J0D01*
G01*
G37*
G36*
G01*
X129675000Y-76650000D02*
X129125000Y-76650000D01*
G75*
G02*
X128925000Y-76450000I0J200000D01*
G01*
X128925000Y-76050000D01*
G75*
G02*
X129125000Y-75850000I200000J0D01*
G01*
X129675000Y-75850000D01*
G75*
G02*
X129875000Y-76050000I0J-200000D01*
G01*
X129875000Y-76450000D01*
G75*
G02*
X129675000Y-76650000I-200000J0D01*
G01*
G37*
%TD*%
%TO.C,R61*%
G36*
G01*
X139125000Y-69425000D02*
X139675000Y-69425000D01*
G75*
G02*
X139875000Y-69625000I0J-200000D01*
G01*
X139875000Y-70025000D01*
G75*
G02*
X139675000Y-70225000I-200000J0D01*
G01*
X139125000Y-70225000D01*
G75*
G02*
X138925000Y-70025000I0J200000D01*
G01*
X138925000Y-69625000D01*
G75*
G02*
X139125000Y-69425000I200000J0D01*
G01*
G37*
G36*
G01*
X139125000Y-67775000D02*
X139675000Y-67775000D01*
G75*
G02*
X139875000Y-67975000I0J-200000D01*
G01*
X139875000Y-68375000D01*
G75*
G02*
X139675000Y-68575000I-200000J0D01*
G01*
X139125000Y-68575000D01*
G75*
G02*
X138925000Y-68375000I0J200000D01*
G01*
X138925000Y-67975000D01*
G75*
G02*
X139125000Y-67775000I200000J0D01*
G01*
G37*
%TD*%
%TO.C,R60*%
G36*
G01*
X121900000Y-84750001D02*
X121900000Y-83849999D01*
G75*
G02*
X122149999Y-83600000I249999J0D01*
G01*
X122675001Y-83600000D01*
G75*
G02*
X122925000Y-83849999I0J-249999D01*
G01*
X122925000Y-84750001D01*
G75*
G02*
X122675001Y-85000000I-249999J0D01*
G01*
X122149999Y-85000000D01*
G75*
G02*
X121900000Y-84750001I0J249999D01*
G01*
G37*
G36*
G01*
X120075000Y-84750001D02*
X120075000Y-83849999D01*
G75*
G02*
X120324999Y-83600000I249999J0D01*
G01*
X120850001Y-83600000D01*
G75*
G02*
X121100000Y-83849999I0J-249999D01*
G01*
X121100000Y-84750001D01*
G75*
G02*
X120850001Y-85000000I-249999J0D01*
G01*
X120324999Y-85000000D01*
G75*
G02*
X120075000Y-84750001I0J249999D01*
G01*
G37*
%TD*%
%TO.C,R59*%
G36*
G01*
X127690000Y-74000000D02*
X127690000Y-73800000D01*
G75*
G02*
X127790000Y-73700000I100000J0D01*
G01*
X128050000Y-73700000D01*
G75*
G02*
X128150000Y-73800000I0J-100000D01*
G01*
X128150000Y-74000000D01*
G75*
G02*
X128050000Y-74100000I-100000J0D01*
G01*
X127790000Y-74100000D01*
G75*
G02*
X127690000Y-74000000I0J100000D01*
G01*
G37*
G36*
G01*
X127050000Y-74000000D02*
X127050000Y-73800000D01*
G75*
G02*
X127150000Y-73700000I100000J0D01*
G01*
X127410000Y-73700000D01*
G75*
G02*
X127510000Y-73800000I0J-100000D01*
G01*
X127510000Y-74000000D01*
G75*
G02*
X127410000Y-74100000I-100000J0D01*
G01*
X127150000Y-74100000D01*
G75*
G02*
X127050000Y-74000000I0J100000D01*
G01*
G37*
%TD*%
%TO.C,R58*%
G36*
G01*
X122000000Y-89750001D02*
X122000000Y-88849999D01*
G75*
G02*
X122249999Y-88600000I249999J0D01*
G01*
X122775001Y-88600000D01*
G75*
G02*
X123025000Y-88849999I0J-249999D01*
G01*
X123025000Y-89750001D01*
G75*
G02*
X122775001Y-90000000I-249999J0D01*
G01*
X122249999Y-90000000D01*
G75*
G02*
X122000000Y-89750001I0J249999D01*
G01*
G37*
G36*
G01*
X120175000Y-89750001D02*
X120175000Y-88849999D01*
G75*
G02*
X120424999Y-88600000I249999J0D01*
G01*
X120950001Y-88600000D01*
G75*
G02*
X121200000Y-88849999I0J-249999D01*
G01*
X121200000Y-89750001D01*
G75*
G02*
X120950001Y-90000000I-249999J0D01*
G01*
X120424999Y-90000000D01*
G75*
G02*
X120175000Y-89750001I0J249999D01*
G01*
G37*
%TD*%
%TO.C,R57*%
G36*
G01*
X140990000Y-70400000D02*
X140990000Y-70600000D01*
G75*
G02*
X140890000Y-70700000I-100000J0D01*
G01*
X140630000Y-70700000D01*
G75*
G02*
X140530000Y-70600000I0J100000D01*
G01*
X140530000Y-70400000D01*
G75*
G02*
X140630000Y-70300000I100000J0D01*
G01*
X140890000Y-70300000D01*
G75*
G02*
X140990000Y-70400000I0J-100000D01*
G01*
G37*
G36*
G01*
X141630000Y-70400000D02*
X141630000Y-70600000D01*
G75*
G02*
X141530000Y-70700000I-100000J0D01*
G01*
X141270000Y-70700000D01*
G75*
G02*
X141170000Y-70600000I0J100000D01*
G01*
X141170000Y-70400000D01*
G75*
G02*
X141270000Y-70300000I100000J0D01*
G01*
X141530000Y-70300000D01*
G75*
G02*
X141630000Y-70400000I0J-100000D01*
G01*
G37*
%TD*%
%TO.C,R56*%
G36*
G01*
X129125000Y-69325000D02*
X129675000Y-69325000D01*
G75*
G02*
X129875000Y-69525000I0J-200000D01*
G01*
X129875000Y-69925000D01*
G75*
G02*
X129675000Y-70125000I-200000J0D01*
G01*
X129125000Y-70125000D01*
G75*
G02*
X128925000Y-69925000I0J200000D01*
G01*
X128925000Y-69525000D01*
G75*
G02*
X129125000Y-69325000I200000J0D01*
G01*
G37*
G36*
G01*
X129125000Y-67675000D02*
X129675000Y-67675000D01*
G75*
G02*
X129875000Y-67875000I0J-200000D01*
G01*
X129875000Y-68275000D01*
G75*
G02*
X129675000Y-68475000I-200000J0D01*
G01*
X129125000Y-68475000D01*
G75*
G02*
X128925000Y-68275000I0J200000D01*
G01*
X128925000Y-67875000D01*
G75*
G02*
X129125000Y-67675000I200000J0D01*
G01*
G37*
%TD*%
%TO.C,R55*%
G36*
G01*
X139575000Y-75000000D02*
X139025000Y-75000000D01*
G75*
G02*
X138825000Y-74800000I0J200000D01*
G01*
X138825000Y-74400000D01*
G75*
G02*
X139025000Y-74200000I200000J0D01*
G01*
X139575000Y-74200000D01*
G75*
G02*
X139775000Y-74400000I0J-200000D01*
G01*
X139775000Y-74800000D01*
G75*
G02*
X139575000Y-75000000I-200000J0D01*
G01*
G37*
G36*
G01*
X139575000Y-76650000D02*
X139025000Y-76650000D01*
G75*
G02*
X138825000Y-76450000I0J200000D01*
G01*
X138825000Y-76050000D01*
G75*
G02*
X139025000Y-75850000I200000J0D01*
G01*
X139575000Y-75850000D01*
G75*
G02*
X139775000Y-76050000I0J-200000D01*
G01*
X139775000Y-76450000D01*
G75*
G02*
X139575000Y-76650000I-200000J0D01*
G01*
G37*
%TD*%
%TO.C,R54*%
G36*
G01*
X121900000Y-87250001D02*
X121900000Y-86349999D01*
G75*
G02*
X122149999Y-86100000I249999J0D01*
G01*
X122675001Y-86100000D01*
G75*
G02*
X122925000Y-86349999I0J-249999D01*
G01*
X122925000Y-87250001D01*
G75*
G02*
X122675001Y-87500000I-249999J0D01*
G01*
X122149999Y-87500000D01*
G75*
G02*
X121900000Y-87250001I0J249999D01*
G01*
G37*
G36*
G01*
X120075000Y-87250001D02*
X120075000Y-86349999D01*
G75*
G02*
X120324999Y-86100000I249999J0D01*
G01*
X120850001Y-86100000D01*
G75*
G02*
X121100000Y-86349999I0J-249999D01*
G01*
X121100000Y-87250001D01*
G75*
G02*
X120850001Y-87500000I-249999J0D01*
G01*
X120324999Y-87500000D01*
G75*
G02*
X120075000Y-87250001I0J249999D01*
G01*
G37*
%TD*%
%TO.C,R53*%
G36*
G01*
X127690000Y-70500000D02*
X127690000Y-70300000D01*
G75*
G02*
X127790000Y-70200000I100000J0D01*
G01*
X128050000Y-70200000D01*
G75*
G02*
X128150000Y-70300000I0J-100000D01*
G01*
X128150000Y-70500000D01*
G75*
G02*
X128050000Y-70600000I-100000J0D01*
G01*
X127790000Y-70600000D01*
G75*
G02*
X127690000Y-70500000I0J100000D01*
G01*
G37*
G36*
G01*
X127050000Y-70500000D02*
X127050000Y-70300000D01*
G75*
G02*
X127150000Y-70200000I100000J0D01*
G01*
X127410000Y-70200000D01*
G75*
G02*
X127510000Y-70300000I0J-100000D01*
G01*
X127510000Y-70500000D01*
G75*
G02*
X127410000Y-70600000I-100000J0D01*
G01*
X127150000Y-70600000D01*
G75*
G02*
X127050000Y-70500000I0J100000D01*
G01*
G37*
%TD*%
%TO.C,R52*%
G36*
G01*
X122000000Y-92050001D02*
X122000000Y-91149999D01*
G75*
G02*
X122249999Y-90900000I249999J0D01*
G01*
X122775001Y-90900000D01*
G75*
G02*
X123025000Y-91149999I0J-249999D01*
G01*
X123025000Y-92050001D01*
G75*
G02*
X122775001Y-92300000I-249999J0D01*
G01*
X122249999Y-92300000D01*
G75*
G02*
X122000000Y-92050001I0J249999D01*
G01*
G37*
G36*
G01*
X120175000Y-92050001D02*
X120175000Y-91149999D01*
G75*
G02*
X120424999Y-90900000I249999J0D01*
G01*
X120950001Y-90900000D01*
G75*
G02*
X121200000Y-91149999I0J-249999D01*
G01*
X121200000Y-92050001D01*
G75*
G02*
X120950001Y-92300000I-249999J0D01*
G01*
X120424999Y-92300000D01*
G75*
G02*
X120175000Y-92050001I0J249999D01*
G01*
G37*
%TD*%
%TO.C,R51*%
G36*
G01*
X140810000Y-73900000D02*
X140810000Y-74100000D01*
G75*
G02*
X140710000Y-74200000I-100000J0D01*
G01*
X140450000Y-74200000D01*
G75*
G02*
X140350000Y-74100000I0J100000D01*
G01*
X140350000Y-73900000D01*
G75*
G02*
X140450000Y-73800000I100000J0D01*
G01*
X140710000Y-73800000D01*
G75*
G02*
X140810000Y-73900000I0J-100000D01*
G01*
G37*
G36*
G01*
X141450000Y-73900000D02*
X141450000Y-74100000D01*
G75*
G02*
X141350000Y-74200000I-100000J0D01*
G01*
X141090000Y-74200000D01*
G75*
G02*
X140990000Y-74100000I0J100000D01*
G01*
X140990000Y-73900000D01*
G75*
G02*
X141090000Y-73800000I100000J0D01*
G01*
X141350000Y-73800000D01*
G75*
G02*
X141450000Y-73900000I0J-100000D01*
G01*
G37*
%TD*%
%TO.C,R50*%
G36*
G01*
X124615000Y-47440000D02*
X124985000Y-47440000D01*
G75*
G02*
X125120000Y-47575000I0J-135000D01*
G01*
X125120000Y-47845000D01*
G75*
G02*
X124985000Y-47980000I-135000J0D01*
G01*
X124615000Y-47980000D01*
G75*
G02*
X124480000Y-47845000I0J135000D01*
G01*
X124480000Y-47575000D01*
G75*
G02*
X124615000Y-47440000I135000J0D01*
G01*
G37*
G36*
G01*
X124615000Y-46420000D02*
X124985000Y-46420000D01*
G75*
G02*
X125120000Y-46555000I0J-135000D01*
G01*
X125120000Y-46825000D01*
G75*
G02*
X124985000Y-46960000I-135000J0D01*
G01*
X124615000Y-46960000D01*
G75*
G02*
X124480000Y-46825000I0J135000D01*
G01*
X124480000Y-46555000D01*
G75*
G02*
X124615000Y-46420000I135000J0D01*
G01*
G37*
%TD*%
%TO.C,R49*%
G36*
G01*
X137815000Y-47340000D02*
X138185000Y-47340000D01*
G75*
G02*
X138320000Y-47475000I0J-135000D01*
G01*
X138320000Y-47745000D01*
G75*
G02*
X138185000Y-47880000I-135000J0D01*
G01*
X137815000Y-47880000D01*
G75*
G02*
X137680000Y-47745000I0J135000D01*
G01*
X137680000Y-47475000D01*
G75*
G02*
X137815000Y-47340000I135000J0D01*
G01*
G37*
G36*
G01*
X137815000Y-46320000D02*
X138185000Y-46320000D01*
G75*
G02*
X138320000Y-46455000I0J-135000D01*
G01*
X138320000Y-46725000D01*
G75*
G02*
X138185000Y-46860000I-135000J0D01*
G01*
X137815000Y-46860000D01*
G75*
G02*
X137680000Y-46725000I0J135000D01*
G01*
X137680000Y-46455000D01*
G75*
G02*
X137815000Y-46320000I135000J0D01*
G01*
G37*
%TD*%
%TO.C,R48*%
G36*
G01*
X122200000Y-47650001D02*
X122200000Y-46749999D01*
G75*
G02*
X122449999Y-46500000I249999J0D01*
G01*
X122975001Y-46500000D01*
G75*
G02*
X123225000Y-46749999I0J-249999D01*
G01*
X123225000Y-47650001D01*
G75*
G02*
X122975001Y-47900000I-249999J0D01*
G01*
X122449999Y-47900000D01*
G75*
G02*
X122200000Y-47650001I0J249999D01*
G01*
G37*
G36*
G01*
X120375000Y-47650001D02*
X120375000Y-46749999D01*
G75*
G02*
X120624999Y-46500000I249999J0D01*
G01*
X121150001Y-46500000D01*
G75*
G02*
X121400000Y-46749999I0J-249999D01*
G01*
X121400000Y-47650001D01*
G75*
G02*
X121150001Y-47900000I-249999J0D01*
G01*
X120624999Y-47900000D01*
G75*
G02*
X120375000Y-47650001I0J249999D01*
G01*
G37*
%TD*%
%TO.C,R47*%
G36*
G01*
X135500000Y-47550001D02*
X135500000Y-46649999D01*
G75*
G02*
X135749999Y-46400000I249999J0D01*
G01*
X136275001Y-46400000D01*
G75*
G02*
X136525000Y-46649999I0J-249999D01*
G01*
X136525000Y-47550001D01*
G75*
G02*
X136275001Y-47800000I-249999J0D01*
G01*
X135749999Y-47800000D01*
G75*
G02*
X135500000Y-47550001I0J249999D01*
G01*
G37*
G36*
G01*
X133675000Y-47550001D02*
X133675000Y-46649999D01*
G75*
G02*
X133924999Y-46400000I249999J0D01*
G01*
X134450001Y-46400000D01*
G75*
G02*
X134700000Y-46649999I0J-249999D01*
G01*
X134700000Y-47550001D01*
G75*
G02*
X134450001Y-47800000I-249999J0D01*
G01*
X133924999Y-47800000D01*
G75*
G02*
X133675000Y-47550001I0J249999D01*
G01*
G37*
%TD*%
%TO.C,R46*%
G36*
G01*
X121200000Y-50049999D02*
X121200000Y-50950001D01*
G75*
G02*
X120950001Y-51200000I-249999J0D01*
G01*
X120424999Y-51200000D01*
G75*
G02*
X120175000Y-50950001I0J249999D01*
G01*
X120175000Y-50049999D01*
G75*
G02*
X120424999Y-49800000I249999J0D01*
G01*
X120950001Y-49800000D01*
G75*
G02*
X121200000Y-50049999I0J-249999D01*
G01*
G37*
G36*
G01*
X123025000Y-50049999D02*
X123025000Y-50950001D01*
G75*
G02*
X122775001Y-51200000I-249999J0D01*
G01*
X122249999Y-51200000D01*
G75*
G02*
X122000000Y-50950001I0J249999D01*
G01*
X122000000Y-50049999D01*
G75*
G02*
X122249999Y-49800000I249999J0D01*
G01*
X122775001Y-49800000D01*
G75*
G02*
X123025000Y-50049999I0J-249999D01*
G01*
G37*
%TD*%
%TO.C,R45*%
G36*
G01*
X121200000Y-54249999D02*
X121200000Y-55150001D01*
G75*
G02*
X120950001Y-55400000I-249999J0D01*
G01*
X120424999Y-55400000D01*
G75*
G02*
X120175000Y-55150001I0J249999D01*
G01*
X120175000Y-54249999D01*
G75*
G02*
X120424999Y-54000000I249999J0D01*
G01*
X120950001Y-54000000D01*
G75*
G02*
X121200000Y-54249999I0J-249999D01*
G01*
G37*
G36*
G01*
X123025000Y-54249999D02*
X123025000Y-55150001D01*
G75*
G02*
X122775001Y-55400000I-249999J0D01*
G01*
X122249999Y-55400000D01*
G75*
G02*
X122000000Y-55150001I0J249999D01*
G01*
X122000000Y-54249999D01*
G75*
G02*
X122249999Y-54000000I249999J0D01*
G01*
X122775001Y-54000000D01*
G75*
G02*
X123025000Y-54249999I0J-249999D01*
G01*
G37*
%TD*%
%TO.C,R44*%
G36*
G01*
X131015000Y-47340000D02*
X131385000Y-47340000D01*
G75*
G02*
X131520000Y-47475000I0J-135000D01*
G01*
X131520000Y-47745000D01*
G75*
G02*
X131385000Y-47880000I-135000J0D01*
G01*
X131015000Y-47880000D01*
G75*
G02*
X130880000Y-47745000I0J135000D01*
G01*
X130880000Y-47475000D01*
G75*
G02*
X131015000Y-47340000I135000J0D01*
G01*
G37*
G36*
G01*
X131015000Y-46320000D02*
X131385000Y-46320000D01*
G75*
G02*
X131520000Y-46455000I0J-135000D01*
G01*
X131520000Y-46725000D01*
G75*
G02*
X131385000Y-46860000I-135000J0D01*
G01*
X131015000Y-46860000D01*
G75*
G02*
X130880000Y-46725000I0J135000D01*
G01*
X130880000Y-46455000D01*
G75*
G02*
X131015000Y-46320000I135000J0D01*
G01*
G37*
%TD*%
%TO.C,R43*%
G36*
G01*
X144415000Y-47140000D02*
X144785000Y-47140000D01*
G75*
G02*
X144920000Y-47275000I0J-135000D01*
G01*
X144920000Y-47545000D01*
G75*
G02*
X144785000Y-47680000I-135000J0D01*
G01*
X144415000Y-47680000D01*
G75*
G02*
X144280000Y-47545000I0J135000D01*
G01*
X144280000Y-47275000D01*
G75*
G02*
X144415000Y-47140000I135000J0D01*
G01*
G37*
G36*
G01*
X144415000Y-46120000D02*
X144785000Y-46120000D01*
G75*
G02*
X144920000Y-46255000I0J-135000D01*
G01*
X144920000Y-46525000D01*
G75*
G02*
X144785000Y-46660000I-135000J0D01*
G01*
X144415000Y-46660000D01*
G75*
G02*
X144280000Y-46525000I0J135000D01*
G01*
X144280000Y-46255000D01*
G75*
G02*
X144415000Y-46120000I135000J0D01*
G01*
G37*
%TD*%
%TO.C,R42*%
G36*
G01*
X129100000Y-47550001D02*
X129100000Y-46649999D01*
G75*
G02*
X129349999Y-46400000I249999J0D01*
G01*
X129875001Y-46400000D01*
G75*
G02*
X130125000Y-46649999I0J-249999D01*
G01*
X130125000Y-47550001D01*
G75*
G02*
X129875001Y-47800000I-249999J0D01*
G01*
X129349999Y-47800000D01*
G75*
G02*
X129100000Y-47550001I0J249999D01*
G01*
G37*
G36*
G01*
X127275000Y-47550001D02*
X127275000Y-46649999D01*
G75*
G02*
X127524999Y-46400000I249999J0D01*
G01*
X128050001Y-46400000D01*
G75*
G02*
X128300000Y-46649999I0J-249999D01*
G01*
X128300000Y-47550001D01*
G75*
G02*
X128050001Y-47800000I-249999J0D01*
G01*
X127524999Y-47800000D01*
G75*
G02*
X127275000Y-47550001I0J249999D01*
G01*
G37*
%TD*%
%TO.C,R41*%
G36*
G01*
X142300000Y-47350001D02*
X142300000Y-46449999D01*
G75*
G02*
X142549999Y-46200000I249999J0D01*
G01*
X143075001Y-46200000D01*
G75*
G02*
X143325000Y-46449999I0J-249999D01*
G01*
X143325000Y-47350001D01*
G75*
G02*
X143075001Y-47600000I-249999J0D01*
G01*
X142549999Y-47600000D01*
G75*
G02*
X142300000Y-47350001I0J249999D01*
G01*
G37*
G36*
G01*
X140475000Y-47350001D02*
X140475000Y-46449999D01*
G75*
G02*
X140724999Y-46200000I249999J0D01*
G01*
X141250001Y-46200000D01*
G75*
G02*
X141500000Y-46449999I0J-249999D01*
G01*
X141500000Y-47350001D01*
G75*
G02*
X141250001Y-47600000I-249999J0D01*
G01*
X140724999Y-47600000D01*
G75*
G02*
X140475000Y-47350001I0J249999D01*
G01*
G37*
%TD*%
%TO.C,R40*%
G36*
G01*
X121200000Y-52149999D02*
X121200000Y-53050001D01*
G75*
G02*
X120950001Y-53300000I-249999J0D01*
G01*
X120424999Y-53300000D01*
G75*
G02*
X120175000Y-53050001I0J249999D01*
G01*
X120175000Y-52149999D01*
G75*
G02*
X120424999Y-51900000I249999J0D01*
G01*
X120950001Y-51900000D01*
G75*
G02*
X121200000Y-52149999I0J-249999D01*
G01*
G37*
G36*
G01*
X123025000Y-52149999D02*
X123025000Y-53050001D01*
G75*
G02*
X122775001Y-53300000I-249999J0D01*
G01*
X122249999Y-53300000D01*
G75*
G02*
X122000000Y-53050001I0J249999D01*
G01*
X122000000Y-52149999D01*
G75*
G02*
X122249999Y-51900000I249999J0D01*
G01*
X122775001Y-51900000D01*
G75*
G02*
X123025000Y-52149999I0J-249999D01*
G01*
G37*
%TD*%
%TO.C,R39*%
G36*
G01*
X121200000Y-56349999D02*
X121200000Y-57250001D01*
G75*
G02*
X120950001Y-57500000I-249999J0D01*
G01*
X120424999Y-57500000D01*
G75*
G02*
X120175000Y-57250001I0J249999D01*
G01*
X120175000Y-56349999D01*
G75*
G02*
X120424999Y-56100000I249999J0D01*
G01*
X120950001Y-56100000D01*
G75*
G02*
X121200000Y-56349999I0J-249999D01*
G01*
G37*
G36*
G01*
X123025000Y-56349999D02*
X123025000Y-57250001D01*
G75*
G02*
X122775001Y-57500000I-249999J0D01*
G01*
X122249999Y-57500000D01*
G75*
G02*
X122000000Y-57250001I0J249999D01*
G01*
X122000000Y-56349999D01*
G75*
G02*
X122249999Y-56100000I249999J0D01*
G01*
X122775001Y-56100000D01*
G75*
G02*
X123025000Y-56349999I0J-249999D01*
G01*
G37*
%TD*%
%TO.C,R38*%
G36*
G01*
X127975000Y-88375000D02*
X127425000Y-88375000D01*
G75*
G02*
X127225000Y-88175000I0J200000D01*
G01*
X127225000Y-87775000D01*
G75*
G02*
X127425000Y-87575000I200000J0D01*
G01*
X127975000Y-87575000D01*
G75*
G02*
X128175000Y-87775000I0J-200000D01*
G01*
X128175000Y-88175000D01*
G75*
G02*
X127975000Y-88375000I-200000J0D01*
G01*
G37*
G36*
G01*
X127975000Y-90025000D02*
X127425000Y-90025000D01*
G75*
G02*
X127225000Y-89825000I0J200000D01*
G01*
X127225000Y-89425000D01*
G75*
G02*
X127425000Y-89225000I200000J0D01*
G01*
X127975000Y-89225000D01*
G75*
G02*
X128175000Y-89425000I0J-200000D01*
G01*
X128175000Y-89825000D01*
G75*
G02*
X127975000Y-90025000I-200000J0D01*
G01*
G37*
%TD*%
%TO.C,R37*%
G36*
G01*
X136725000Y-82925000D02*
X137275000Y-82925000D01*
G75*
G02*
X137475000Y-83125000I0J-200000D01*
G01*
X137475000Y-83525000D01*
G75*
G02*
X137275000Y-83725000I-200000J0D01*
G01*
X136725000Y-83725000D01*
G75*
G02*
X136525000Y-83525000I0J200000D01*
G01*
X136525000Y-83125000D01*
G75*
G02*
X136725000Y-82925000I200000J0D01*
G01*
G37*
G36*
G01*
X136725000Y-81275000D02*
X137275000Y-81275000D01*
G75*
G02*
X137475000Y-81475000I0J-200000D01*
G01*
X137475000Y-81875000D01*
G75*
G02*
X137275000Y-82075000I-200000J0D01*
G01*
X136725000Y-82075000D01*
G75*
G02*
X136525000Y-81875000I0J200000D01*
G01*
X136525000Y-81475000D01*
G75*
G02*
X136725000Y-81275000I200000J0D01*
G01*
G37*
%TD*%
%TO.C,R36*%
G36*
G01*
X143749999Y-68800000D02*
X144650001Y-68800000D01*
G75*
G02*
X144900000Y-69049999I0J-249999D01*
G01*
X144900000Y-69575001D01*
G75*
G02*
X144650001Y-69825000I-249999J0D01*
G01*
X143749999Y-69825000D01*
G75*
G02*
X143500000Y-69575001I0J249999D01*
G01*
X143500000Y-69049999D01*
G75*
G02*
X143749999Y-68800000I249999J0D01*
G01*
G37*
G36*
G01*
X143749999Y-66975000D02*
X144650001Y-66975000D01*
G75*
G02*
X144900000Y-67224999I0J-249999D01*
G01*
X144900000Y-67750001D01*
G75*
G02*
X144650001Y-68000000I-249999J0D01*
G01*
X143749999Y-68000000D01*
G75*
G02*
X143500000Y-67750001I0J249999D01*
G01*
X143500000Y-67224999D01*
G75*
G02*
X143749999Y-66975000I249999J0D01*
G01*
G37*
%TD*%
%TO.C,R35*%
G36*
G01*
X126570000Y-86800000D02*
X126570000Y-86600000D01*
G75*
G02*
X126670000Y-86500000I100000J0D01*
G01*
X126930000Y-86500000D01*
G75*
G02*
X127030000Y-86600000I0J-100000D01*
G01*
X127030000Y-86800000D01*
G75*
G02*
X126930000Y-86900000I-100000J0D01*
G01*
X126670000Y-86900000D01*
G75*
G02*
X126570000Y-86800000I0J100000D01*
G01*
G37*
G36*
G01*
X125930000Y-86800000D02*
X125930000Y-86600000D01*
G75*
G02*
X126030000Y-86500000I100000J0D01*
G01*
X126290000Y-86500000D01*
G75*
G02*
X126390000Y-86600000I0J-100000D01*
G01*
X126390000Y-86800000D01*
G75*
G02*
X126290000Y-86900000I-100000J0D01*
G01*
X126030000Y-86900000D01*
G75*
G02*
X125930000Y-86800000I0J100000D01*
G01*
G37*
%TD*%
%TO.C,R34*%
G36*
G01*
X144800000Y-71149999D02*
X144800000Y-72050001D01*
G75*
G02*
X144550001Y-72300000I-249999J0D01*
G01*
X144024999Y-72300000D01*
G75*
G02*
X143775000Y-72050001I0J249999D01*
G01*
X143775000Y-71149999D01*
G75*
G02*
X144024999Y-70900000I249999J0D01*
G01*
X144550001Y-70900000D01*
G75*
G02*
X144800000Y-71149999I0J-249999D01*
G01*
G37*
G36*
G01*
X146625000Y-71149999D02*
X146625000Y-72050001D01*
G75*
G02*
X146375001Y-72300000I-249999J0D01*
G01*
X145849999Y-72300000D01*
G75*
G02*
X145600000Y-72050001I0J249999D01*
G01*
X145600000Y-71149999D01*
G75*
G02*
X145849999Y-70900000I249999J0D01*
G01*
X146375001Y-70900000D01*
G75*
G02*
X146625000Y-71149999I0J-249999D01*
G01*
G37*
%TD*%
%TO.C,R33*%
G36*
G01*
X138410000Y-84000000D02*
X138410000Y-84200000D01*
G75*
G02*
X138310000Y-84300000I-100000J0D01*
G01*
X138050000Y-84300000D01*
G75*
G02*
X137950000Y-84200000I0J100000D01*
G01*
X137950000Y-84000000D01*
G75*
G02*
X138050000Y-83900000I100000J0D01*
G01*
X138310000Y-83900000D01*
G75*
G02*
X138410000Y-84000000I0J-100000D01*
G01*
G37*
G36*
G01*
X139050000Y-84000000D02*
X139050000Y-84200000D01*
G75*
G02*
X138950000Y-84300000I-100000J0D01*
G01*
X138690000Y-84300000D01*
G75*
G02*
X138590000Y-84200000I0J100000D01*
G01*
X138590000Y-84000000D01*
G75*
G02*
X138690000Y-83900000I100000J0D01*
G01*
X138950000Y-83900000D01*
G75*
G02*
X139050000Y-84000000I0J-100000D01*
G01*
G37*
%TD*%
%TO.C,R32*%
G36*
G01*
X127425000Y-82825000D02*
X127975000Y-82825000D01*
G75*
G02*
X128175000Y-83025000I0J-200000D01*
G01*
X128175000Y-83425000D01*
G75*
G02*
X127975000Y-83625000I-200000J0D01*
G01*
X127425000Y-83625000D01*
G75*
G02*
X127225000Y-83425000I0J200000D01*
G01*
X127225000Y-83025000D01*
G75*
G02*
X127425000Y-82825000I200000J0D01*
G01*
G37*
G36*
G01*
X127425000Y-81175000D02*
X127975000Y-81175000D01*
G75*
G02*
X128175000Y-81375000I0J-200000D01*
G01*
X128175000Y-81775000D01*
G75*
G02*
X127975000Y-81975000I-200000J0D01*
G01*
X127425000Y-81975000D01*
G75*
G02*
X127225000Y-81775000I0J200000D01*
G01*
X127225000Y-81375000D01*
G75*
G02*
X127425000Y-81175000I200000J0D01*
G01*
G37*
%TD*%
%TO.C,R31*%
G36*
G01*
X137375000Y-88275000D02*
X136825000Y-88275000D01*
G75*
G02*
X136625000Y-88075000I0J200000D01*
G01*
X136625000Y-87675000D01*
G75*
G02*
X136825000Y-87475000I200000J0D01*
G01*
X137375000Y-87475000D01*
G75*
G02*
X137575000Y-87675000I0J-200000D01*
G01*
X137575000Y-88075000D01*
G75*
G02*
X137375000Y-88275000I-200000J0D01*
G01*
G37*
G36*
G01*
X137375000Y-89925000D02*
X136825000Y-89925000D01*
G75*
G02*
X136625000Y-89725000I0J200000D01*
G01*
X136625000Y-89325000D01*
G75*
G02*
X136825000Y-89125000I200000J0D01*
G01*
X137375000Y-89125000D01*
G75*
G02*
X137575000Y-89325000I0J-200000D01*
G01*
X137575000Y-89725000D01*
G75*
G02*
X137375000Y-89925000I-200000J0D01*
G01*
G37*
%TD*%
%TO.C,R30*%
G36*
G01*
X146749999Y-68800000D02*
X147650001Y-68800000D01*
G75*
G02*
X147900000Y-69049999I0J-249999D01*
G01*
X147900000Y-69575001D01*
G75*
G02*
X147650001Y-69825000I-249999J0D01*
G01*
X146749999Y-69825000D01*
G75*
G02*
X146500000Y-69575001I0J249999D01*
G01*
X146500000Y-69049999D01*
G75*
G02*
X146749999Y-68800000I249999J0D01*
G01*
G37*
G36*
G01*
X146749999Y-66975000D02*
X147650001Y-66975000D01*
G75*
G02*
X147900000Y-67224999I0J-249999D01*
G01*
X147900000Y-67750001D01*
G75*
G02*
X147650001Y-68000000I-249999J0D01*
G01*
X146749999Y-68000000D01*
G75*
G02*
X146500000Y-67750001I0J249999D01*
G01*
X146500000Y-67224999D01*
G75*
G02*
X146749999Y-66975000I249999J0D01*
G01*
G37*
%TD*%
%TO.C,R29*%
G36*
G01*
X126290000Y-84000000D02*
X126290000Y-83800000D01*
G75*
G02*
X126390000Y-83700000I100000J0D01*
G01*
X126650000Y-83700000D01*
G75*
G02*
X126750000Y-83800000I0J-100000D01*
G01*
X126750000Y-84000000D01*
G75*
G02*
X126650000Y-84100000I-100000J0D01*
G01*
X126390000Y-84100000D01*
G75*
G02*
X126290000Y-84000000I0J100000D01*
G01*
G37*
G36*
G01*
X125650000Y-84000000D02*
X125650000Y-83800000D01*
G75*
G02*
X125750000Y-83700000I100000J0D01*
G01*
X126010000Y-83700000D01*
G75*
G02*
X126110000Y-83800000I0J-100000D01*
G01*
X126110000Y-84000000D01*
G75*
G02*
X126010000Y-84100000I-100000J0D01*
G01*
X125750000Y-84100000D01*
G75*
G02*
X125650000Y-84000000I0J100000D01*
G01*
G37*
%TD*%
%TO.C,R28*%
G36*
G01*
X144800000Y-73249999D02*
X144800000Y-74150001D01*
G75*
G02*
X144550001Y-74400000I-249999J0D01*
G01*
X144024999Y-74400000D01*
G75*
G02*
X143775000Y-74150001I0J249999D01*
G01*
X143775000Y-73249999D01*
G75*
G02*
X144024999Y-73000000I249999J0D01*
G01*
X144550001Y-73000000D01*
G75*
G02*
X144800000Y-73249999I0J-249999D01*
G01*
G37*
G36*
G01*
X146625000Y-73249999D02*
X146625000Y-74150001D01*
G75*
G02*
X146375001Y-74400000I-249999J0D01*
G01*
X145849999Y-74400000D01*
G75*
G02*
X145600000Y-74150001I0J249999D01*
G01*
X145600000Y-73249999D01*
G75*
G02*
X145849999Y-73000000I249999J0D01*
G01*
X146375001Y-73000000D01*
G75*
G02*
X146625000Y-73249999I0J-249999D01*
G01*
G37*
%TD*%
%TO.C,R27*%
G36*
G01*
X138710000Y-86900000D02*
X138710000Y-87100000D01*
G75*
G02*
X138610000Y-87200000I-100000J0D01*
G01*
X138350000Y-87200000D01*
G75*
G02*
X138250000Y-87100000I0J100000D01*
G01*
X138250000Y-86900000D01*
G75*
G02*
X138350000Y-86800000I100000J0D01*
G01*
X138610000Y-86800000D01*
G75*
G02*
X138710000Y-86900000I0J-100000D01*
G01*
G37*
G36*
G01*
X139350000Y-86900000D02*
X139350000Y-87100000D01*
G75*
G02*
X139250000Y-87200000I-100000J0D01*
G01*
X138990000Y-87200000D01*
G75*
G02*
X138890000Y-87100000I0J100000D01*
G01*
X138890000Y-86900000D01*
G75*
G02*
X138990000Y-86800000I100000J0D01*
G01*
X139250000Y-86800000D01*
G75*
G02*
X139350000Y-86900000I0J-100000D01*
G01*
G37*
%TD*%
%TO.C,R26*%
G36*
G01*
X127900000Y-102125001D02*
X127900000Y-100874999D01*
G75*
G02*
X128149999Y-100625000I249999J0D01*
G01*
X128775001Y-100625000D01*
G75*
G02*
X129025000Y-100874999I0J-249999D01*
G01*
X129025000Y-102125001D01*
G75*
G02*
X128775001Y-102375000I-249999J0D01*
G01*
X128149999Y-102375000D01*
G75*
G02*
X127900000Y-102125001I0J249999D01*
G01*
G37*
G36*
G01*
X124975000Y-102125001D02*
X124975000Y-100874999D01*
G75*
G02*
X125224999Y-100625000I249999J0D01*
G01*
X125850001Y-100625000D01*
G75*
G02*
X126100000Y-100874999I0J-249999D01*
G01*
X126100000Y-102125001D01*
G75*
G02*
X125850001Y-102375000I-249999J0D01*
G01*
X125224999Y-102375000D01*
G75*
G02*
X124975000Y-102125001I0J249999D01*
G01*
G37*
%TD*%
%TO.C,R25*%
G36*
G01*
X134000000Y-114174999D02*
X134000000Y-115425001D01*
G75*
G02*
X133750001Y-115675000I-249999J0D01*
G01*
X133124999Y-115675000D01*
G75*
G02*
X132875000Y-115425001I0J249999D01*
G01*
X132875000Y-114174999D01*
G75*
G02*
X133124999Y-113925000I249999J0D01*
G01*
X133750001Y-113925000D01*
G75*
G02*
X134000000Y-114174999I0J-249999D01*
G01*
G37*
G36*
G01*
X136925000Y-114174999D02*
X136925000Y-115425001D01*
G75*
G02*
X136675001Y-115675000I-249999J0D01*
G01*
X136049999Y-115675000D01*
G75*
G02*
X135800000Y-115425001I0J249999D01*
G01*
X135800000Y-114174999D01*
G75*
G02*
X136049999Y-113925000I249999J0D01*
G01*
X136675001Y-113925000D01*
G75*
G02*
X136925000Y-114174999I0J-249999D01*
G01*
G37*
%TD*%
%TO.C,R24*%
G36*
G01*
X130185000Y-101360000D02*
X129815000Y-101360000D01*
G75*
G02*
X129680000Y-101225000I0J135000D01*
G01*
X129680000Y-100955000D01*
G75*
G02*
X129815000Y-100820000I135000J0D01*
G01*
X130185000Y-100820000D01*
G75*
G02*
X130320000Y-100955000I0J-135000D01*
G01*
X130320000Y-101225000D01*
G75*
G02*
X130185000Y-101360000I-135000J0D01*
G01*
G37*
G36*
G01*
X130185000Y-102380000D02*
X129815000Y-102380000D01*
G75*
G02*
X129680000Y-102245000I0J135000D01*
G01*
X129680000Y-101975000D01*
G75*
G02*
X129815000Y-101840000I135000J0D01*
G01*
X130185000Y-101840000D01*
G75*
G02*
X130320000Y-101975000I0J-135000D01*
G01*
X130320000Y-102245000D01*
G75*
G02*
X130185000Y-102380000I-135000J0D01*
G01*
G37*
%TD*%
%TO.C,R23*%
G36*
G01*
X131315000Y-115140000D02*
X131685000Y-115140000D01*
G75*
G02*
X131820000Y-115275000I0J-135000D01*
G01*
X131820000Y-115545000D01*
G75*
G02*
X131685000Y-115680000I-135000J0D01*
G01*
X131315000Y-115680000D01*
G75*
G02*
X131180000Y-115545000I0J135000D01*
G01*
X131180000Y-115275000D01*
G75*
G02*
X131315000Y-115140000I135000J0D01*
G01*
G37*
G36*
G01*
X131315000Y-114120000D02*
X131685000Y-114120000D01*
G75*
G02*
X131820000Y-114255000I0J-135000D01*
G01*
X131820000Y-114525000D01*
G75*
G02*
X131685000Y-114660000I-135000J0D01*
G01*
X131315000Y-114660000D01*
G75*
G02*
X131180000Y-114525000I0J135000D01*
G01*
X131180000Y-114255000D01*
G75*
G02*
X131315000Y-114120000I135000J0D01*
G01*
G37*
%TD*%
%TO.C,R22*%
G36*
G01*
X133300000Y-100974999D02*
X133300000Y-102225001D01*
G75*
G02*
X133050001Y-102475000I-249999J0D01*
G01*
X132424999Y-102475000D01*
G75*
G02*
X132175000Y-102225001I0J249999D01*
G01*
X132175000Y-100974999D01*
G75*
G02*
X132424999Y-100725000I249999J0D01*
G01*
X133050001Y-100725000D01*
G75*
G02*
X133300000Y-100974999I0J-249999D01*
G01*
G37*
G36*
G01*
X136225000Y-100974999D02*
X136225000Y-102225001D01*
G75*
G02*
X135975001Y-102475000I-249999J0D01*
G01*
X135349999Y-102475000D01*
G75*
G02*
X135100000Y-102225001I0J249999D01*
G01*
X135100000Y-100974999D01*
G75*
G02*
X135349999Y-100725000I249999J0D01*
G01*
X135975001Y-100725000D01*
G75*
G02*
X136225000Y-100974999I0J-249999D01*
G01*
G37*
%TD*%
%TO.C,R21*%
G36*
G01*
X129615000Y-115140000D02*
X129985000Y-115140000D01*
G75*
G02*
X130120000Y-115275000I0J-135000D01*
G01*
X130120000Y-115545000D01*
G75*
G02*
X129985000Y-115680000I-135000J0D01*
G01*
X129615000Y-115680000D01*
G75*
G02*
X129480000Y-115545000I0J135000D01*
G01*
X129480000Y-115275000D01*
G75*
G02*
X129615000Y-115140000I135000J0D01*
G01*
G37*
G36*
G01*
X129615000Y-114120000D02*
X129985000Y-114120000D01*
G75*
G02*
X130120000Y-114255000I0J-135000D01*
G01*
X130120000Y-114525000D01*
G75*
G02*
X129985000Y-114660000I-135000J0D01*
G01*
X129615000Y-114660000D01*
G75*
G02*
X129480000Y-114525000I0J135000D01*
G01*
X129480000Y-114255000D01*
G75*
G02*
X129615000Y-114120000I135000J0D01*
G01*
G37*
%TD*%
%TO.C,R20*%
G36*
G01*
X131485000Y-101360000D02*
X131115000Y-101360000D01*
G75*
G02*
X130980000Y-101225000I0J135000D01*
G01*
X130980000Y-100955000D01*
G75*
G02*
X131115000Y-100820000I135000J0D01*
G01*
X131485000Y-100820000D01*
G75*
G02*
X131620000Y-100955000I0J-135000D01*
G01*
X131620000Y-101225000D01*
G75*
G02*
X131485000Y-101360000I-135000J0D01*
G01*
G37*
G36*
G01*
X131485000Y-102380000D02*
X131115000Y-102380000D01*
G75*
G02*
X130980000Y-102245000I0J135000D01*
G01*
X130980000Y-101975000D01*
G75*
G02*
X131115000Y-101840000I135000J0D01*
G01*
X131485000Y-101840000D01*
G75*
G02*
X131620000Y-101975000I0J-135000D01*
G01*
X131620000Y-102245000D01*
G75*
G02*
X131485000Y-102380000I-135000J0D01*
G01*
G37*
%TD*%
%TO.C,R19*%
G36*
G01*
X127600000Y-115425001D02*
X127600000Y-114174999D01*
G75*
G02*
X127849999Y-113925000I249999J0D01*
G01*
X128475001Y-113925000D01*
G75*
G02*
X128725000Y-114174999I0J-249999D01*
G01*
X128725000Y-115425001D01*
G75*
G02*
X128475001Y-115675000I-249999J0D01*
G01*
X127849999Y-115675000D01*
G75*
G02*
X127600000Y-115425001I0J249999D01*
G01*
G37*
G36*
G01*
X124675000Y-115425001D02*
X124675000Y-114174999D01*
G75*
G02*
X124924999Y-113925000I249999J0D01*
G01*
X125550001Y-113925000D01*
G75*
G02*
X125800000Y-114174999I0J-249999D01*
G01*
X125800000Y-115425001D01*
G75*
G02*
X125550001Y-115675000I-249999J0D01*
G01*
X124924999Y-115675000D01*
G75*
G02*
X124675000Y-115425001I0J249999D01*
G01*
G37*
%TD*%
%TO.C,R18*%
G36*
G01*
X125525000Y-120125000D02*
X126075000Y-120125000D01*
G75*
G02*
X126275000Y-120325000I0J-200000D01*
G01*
X126275000Y-120725000D01*
G75*
G02*
X126075000Y-120925000I-200000J0D01*
G01*
X125525000Y-120925000D01*
G75*
G02*
X125325000Y-120725000I0J200000D01*
G01*
X125325000Y-120325000D01*
G75*
G02*
X125525000Y-120125000I200000J0D01*
G01*
G37*
G36*
G01*
X125525000Y-118475000D02*
X126075000Y-118475000D01*
G75*
G02*
X126275000Y-118675000I0J-200000D01*
G01*
X126275000Y-119075000D01*
G75*
G02*
X126075000Y-119275000I-200000J0D01*
G01*
X125525000Y-119275000D01*
G75*
G02*
X125325000Y-119075000I0J200000D01*
G01*
X125325000Y-118675000D01*
G75*
G02*
X125525000Y-118475000I200000J0D01*
G01*
G37*
%TD*%
%TO.C,R17*%
G36*
G01*
X124285000Y-119960000D02*
X123915000Y-119960000D01*
G75*
G02*
X123780000Y-119825000I0J135000D01*
G01*
X123780000Y-119555000D01*
G75*
G02*
X123915000Y-119420000I135000J0D01*
G01*
X124285000Y-119420000D01*
G75*
G02*
X124420000Y-119555000I0J-135000D01*
G01*
X124420000Y-119825000D01*
G75*
G02*
X124285000Y-119960000I-135000J0D01*
G01*
G37*
G36*
G01*
X124285000Y-120980000D02*
X123915000Y-120980000D01*
G75*
G02*
X123780000Y-120845000I0J135000D01*
G01*
X123780000Y-120575000D01*
G75*
G02*
X123915000Y-120440000I135000J0D01*
G01*
X124285000Y-120440000D01*
G75*
G02*
X124420000Y-120575000I0J-135000D01*
G01*
X124420000Y-120845000D01*
G75*
G02*
X124285000Y-120980000I-135000J0D01*
G01*
G37*
%TD*%
%TO.C,R16*%
G36*
G01*
X114540000Y-95485000D02*
X114540000Y-95115000D01*
G75*
G02*
X114675000Y-94980000I135000J0D01*
G01*
X114945000Y-94980000D01*
G75*
G02*
X115080000Y-95115000I0J-135000D01*
G01*
X115080000Y-95485000D01*
G75*
G02*
X114945000Y-95620000I-135000J0D01*
G01*
X114675000Y-95620000D01*
G75*
G02*
X114540000Y-95485000I0J135000D01*
G01*
G37*
G36*
G01*
X113520000Y-95485000D02*
X113520000Y-95115000D01*
G75*
G02*
X113655000Y-94980000I135000J0D01*
G01*
X113925000Y-94980000D01*
G75*
G02*
X114060000Y-95115000I0J-135000D01*
G01*
X114060000Y-95485000D01*
G75*
G02*
X113925000Y-95620000I-135000J0D01*
G01*
X113655000Y-95620000D01*
G75*
G02*
X113520000Y-95485000I0J135000D01*
G01*
G37*
%TD*%
%TO.C,R15*%
G36*
G01*
X123660000Y-104215000D02*
X123660000Y-104585000D01*
G75*
G02*
X123525000Y-104720000I-135000J0D01*
G01*
X123255000Y-104720000D01*
G75*
G02*
X123120000Y-104585000I0J135000D01*
G01*
X123120000Y-104215000D01*
G75*
G02*
X123255000Y-104080000I135000J0D01*
G01*
X123525000Y-104080000D01*
G75*
G02*
X123660000Y-104215000I0J-135000D01*
G01*
G37*
G36*
G01*
X124680000Y-104215000D02*
X124680000Y-104585000D01*
G75*
G02*
X124545000Y-104720000I-135000J0D01*
G01*
X124275000Y-104720000D01*
G75*
G02*
X124140000Y-104585000I0J135000D01*
G01*
X124140000Y-104215000D01*
G75*
G02*
X124275000Y-104080000I135000J0D01*
G01*
X124545000Y-104080000D01*
G75*
G02*
X124680000Y-104215000I0J-135000D01*
G01*
G37*
%TD*%
%TO.C,R14*%
G36*
G01*
X116630000Y-95485000D02*
X116630000Y-95115000D01*
G75*
G02*
X116765000Y-94980000I135000J0D01*
G01*
X117035000Y-94980000D01*
G75*
G02*
X117170000Y-95115000I0J-135000D01*
G01*
X117170000Y-95485000D01*
G75*
G02*
X117035000Y-95620000I-135000J0D01*
G01*
X116765000Y-95620000D01*
G75*
G02*
X116630000Y-95485000I0J135000D01*
G01*
G37*
G36*
G01*
X115610000Y-95485000D02*
X115610000Y-95115000D01*
G75*
G02*
X115745000Y-94980000I135000J0D01*
G01*
X116015000Y-94980000D01*
G75*
G02*
X116150000Y-95115000I0J-135000D01*
G01*
X116150000Y-95485000D01*
G75*
G02*
X116015000Y-95620000I-135000J0D01*
G01*
X115745000Y-95620000D01*
G75*
G02*
X115610000Y-95485000I0J135000D01*
G01*
G37*
%TD*%
%TO.C,R13*%
G36*
G01*
X121560000Y-104215000D02*
X121560000Y-104585000D01*
G75*
G02*
X121425000Y-104720000I-135000J0D01*
G01*
X121155000Y-104720000D01*
G75*
G02*
X121020000Y-104585000I0J135000D01*
G01*
X121020000Y-104215000D01*
G75*
G02*
X121155000Y-104080000I135000J0D01*
G01*
X121425000Y-104080000D01*
G75*
G02*
X121560000Y-104215000I0J-135000D01*
G01*
G37*
G36*
G01*
X122580000Y-104215000D02*
X122580000Y-104585000D01*
G75*
G02*
X122445000Y-104720000I-135000J0D01*
G01*
X122175000Y-104720000D01*
G75*
G02*
X122040000Y-104585000I0J135000D01*
G01*
X122040000Y-104215000D01*
G75*
G02*
X122175000Y-104080000I135000J0D01*
G01*
X122445000Y-104080000D01*
G75*
G02*
X122580000Y-104215000I0J-135000D01*
G01*
G37*
%TD*%
%TO.C,R12*%
G36*
G01*
X125374999Y-93600000D02*
X126625001Y-93600000D01*
G75*
G02*
X126875000Y-93849999I0J-249999D01*
G01*
X126875000Y-94475001D01*
G75*
G02*
X126625001Y-94725000I-249999J0D01*
G01*
X125374999Y-94725000D01*
G75*
G02*
X125125000Y-94475001I0J249999D01*
G01*
X125125000Y-93849999D01*
G75*
G02*
X125374999Y-93600000I249999J0D01*
G01*
G37*
G36*
G01*
X125374999Y-90675000D02*
X126625001Y-90675000D01*
G75*
G02*
X126875000Y-90924999I0J-249999D01*
G01*
X126875000Y-91550001D01*
G75*
G02*
X126625001Y-91800000I-249999J0D01*
G01*
X125374999Y-91800000D01*
G75*
G02*
X125125000Y-91550001I0J249999D01*
G01*
X125125000Y-90924999D01*
G75*
G02*
X125374999Y-90675000I249999J0D01*
G01*
G37*
%TD*%
%TO.C,R11*%
G36*
G01*
X123574999Y-108300000D02*
X124825001Y-108300000D01*
G75*
G02*
X125075000Y-108549999I0J-249999D01*
G01*
X125075000Y-109175001D01*
G75*
G02*
X124825001Y-109425000I-249999J0D01*
G01*
X123574999Y-109425000D01*
G75*
G02*
X123325000Y-109175001I0J249999D01*
G01*
X123325000Y-108549999D01*
G75*
G02*
X123574999Y-108300000I249999J0D01*
G01*
G37*
G36*
G01*
X123574999Y-105375000D02*
X124825001Y-105375000D01*
G75*
G02*
X125075000Y-105624999I0J-249999D01*
G01*
X125075000Y-106250001D01*
G75*
G02*
X124825001Y-106500000I-249999J0D01*
G01*
X123574999Y-106500000D01*
G75*
G02*
X123325000Y-106250001I0J249999D01*
G01*
X123325000Y-105624999D01*
G75*
G02*
X123574999Y-105375000I249999J0D01*
G01*
G37*
%TD*%
%TO.C,R10*%
G36*
G01*
X118285000Y-94660000D02*
X117915000Y-94660000D01*
G75*
G02*
X117780000Y-94525000I0J135000D01*
G01*
X117780000Y-94255000D01*
G75*
G02*
X117915000Y-94120000I135000J0D01*
G01*
X118285000Y-94120000D01*
G75*
G02*
X118420000Y-94255000I0J-135000D01*
G01*
X118420000Y-94525000D01*
G75*
G02*
X118285000Y-94660000I-135000J0D01*
G01*
G37*
G36*
G01*
X118285000Y-95680000D02*
X117915000Y-95680000D01*
G75*
G02*
X117780000Y-95545000I0J135000D01*
G01*
X117780000Y-95275000D01*
G75*
G02*
X117915000Y-95140000I135000J0D01*
G01*
X118285000Y-95140000D01*
G75*
G02*
X118420000Y-95275000I0J-135000D01*
G01*
X118420000Y-95545000D01*
G75*
G02*
X118285000Y-95680000I-135000J0D01*
G01*
G37*
%TD*%
%TO.C,R8*%
G36*
G01*
X123660000Y-94415000D02*
X123660000Y-94785000D01*
G75*
G02*
X123525000Y-94920000I-135000J0D01*
G01*
X123255000Y-94920000D01*
G75*
G02*
X123120000Y-94785000I0J135000D01*
G01*
X123120000Y-94415000D01*
G75*
G02*
X123255000Y-94280000I135000J0D01*
G01*
X123525000Y-94280000D01*
G75*
G02*
X123660000Y-94415000I0J-135000D01*
G01*
G37*
G36*
G01*
X124680000Y-94415000D02*
X124680000Y-94785000D01*
G75*
G02*
X124545000Y-94920000I-135000J0D01*
G01*
X124275000Y-94920000D01*
G75*
G02*
X124140000Y-94785000I0J135000D01*
G01*
X124140000Y-94415000D01*
G75*
G02*
X124275000Y-94280000I135000J0D01*
G01*
X124545000Y-94280000D01*
G75*
G02*
X124680000Y-94415000I0J-135000D01*
G01*
G37*
%TD*%
%TO.C,R7*%
G36*
G01*
X114440000Y-104385000D02*
X114440000Y-104015000D01*
G75*
G02*
X114575000Y-103880000I135000J0D01*
G01*
X114845000Y-103880000D01*
G75*
G02*
X114980000Y-104015000I0J-135000D01*
G01*
X114980000Y-104385000D01*
G75*
G02*
X114845000Y-104520000I-135000J0D01*
G01*
X114575000Y-104520000D01*
G75*
G02*
X114440000Y-104385000I0J135000D01*
G01*
G37*
G36*
G01*
X113420000Y-104385000D02*
X113420000Y-104015000D01*
G75*
G02*
X113555000Y-103880000I135000J0D01*
G01*
X113825000Y-103880000D01*
G75*
G02*
X113960000Y-104015000I0J-135000D01*
G01*
X113960000Y-104385000D01*
G75*
G02*
X113825000Y-104520000I-135000J0D01*
G01*
X113555000Y-104520000D01*
G75*
G02*
X113420000Y-104385000I0J135000D01*
G01*
G37*
%TD*%
%TO.C,R6*%
G36*
G01*
X121660000Y-95415000D02*
X121660000Y-95785000D01*
G75*
G02*
X121525000Y-95920000I-135000J0D01*
G01*
X121255000Y-95920000D01*
G75*
G02*
X121120000Y-95785000I0J135000D01*
G01*
X121120000Y-95415000D01*
G75*
G02*
X121255000Y-95280000I135000J0D01*
G01*
X121525000Y-95280000D01*
G75*
G02*
X121660000Y-95415000I0J-135000D01*
G01*
G37*
G36*
G01*
X122680000Y-95415000D02*
X122680000Y-95785000D01*
G75*
G02*
X122545000Y-95920000I-135000J0D01*
G01*
X122275000Y-95920000D01*
G75*
G02*
X122140000Y-95785000I0J135000D01*
G01*
X122140000Y-95415000D01*
G75*
G02*
X122275000Y-95280000I135000J0D01*
G01*
X122545000Y-95280000D01*
G75*
G02*
X122680000Y-95415000I0J-135000D01*
G01*
G37*
%TD*%
%TO.C,R5*%
G36*
G01*
X116640000Y-104385000D02*
X116640000Y-104015000D01*
G75*
G02*
X116775000Y-103880000I135000J0D01*
G01*
X117045000Y-103880000D01*
G75*
G02*
X117180000Y-104015000I0J-135000D01*
G01*
X117180000Y-104385000D01*
G75*
G02*
X117045000Y-104520000I-135000J0D01*
G01*
X116775000Y-104520000D01*
G75*
G02*
X116640000Y-104385000I0J135000D01*
G01*
G37*
G36*
G01*
X115620000Y-104385000D02*
X115620000Y-104015000D01*
G75*
G02*
X115755000Y-103880000I135000J0D01*
G01*
X116025000Y-103880000D01*
G75*
G02*
X116160000Y-104015000I0J-135000D01*
G01*
X116160000Y-104385000D01*
G75*
G02*
X116025000Y-104520000I-135000J0D01*
G01*
X115755000Y-104520000D01*
G75*
G02*
X115620000Y-104385000I0J135000D01*
G01*
G37*
%TD*%
%TO.C,R4*%
G36*
G01*
X124474999Y-98500000D02*
X125725001Y-98500000D01*
G75*
G02*
X125975000Y-98749999I0J-249999D01*
G01*
X125975000Y-99375001D01*
G75*
G02*
X125725001Y-99625000I-249999J0D01*
G01*
X124474999Y-99625000D01*
G75*
G02*
X124225000Y-99375001I0J249999D01*
G01*
X124225000Y-98749999D01*
G75*
G02*
X124474999Y-98500000I249999J0D01*
G01*
G37*
G36*
G01*
X124474999Y-95575000D02*
X125725001Y-95575000D01*
G75*
G02*
X125975000Y-95824999I0J-249999D01*
G01*
X125975000Y-96450001D01*
G75*
G02*
X125725001Y-96700000I-249999J0D01*
G01*
X124474999Y-96700000D01*
G75*
G02*
X124225000Y-96450001I0J249999D01*
G01*
X124225000Y-95824999D01*
G75*
G02*
X124474999Y-95575000I249999J0D01*
G01*
G37*
%TD*%
%TO.C,R3*%
G36*
G01*
X124000000Y-111625001D02*
X124000000Y-110374999D01*
G75*
G02*
X124249999Y-110125000I249999J0D01*
G01*
X124875001Y-110125000D01*
G75*
G02*
X125125000Y-110374999I0J-249999D01*
G01*
X125125000Y-111625001D01*
G75*
G02*
X124875001Y-111875000I-249999J0D01*
G01*
X124249999Y-111875000D01*
G75*
G02*
X124000000Y-111625001I0J249999D01*
G01*
G37*
G36*
G01*
X121075000Y-111625001D02*
X121075000Y-110374999D01*
G75*
G02*
X121324999Y-110125000I249999J0D01*
G01*
X121950001Y-110125000D01*
G75*
G02*
X122200000Y-110374999I0J-249999D01*
G01*
X122200000Y-111625001D01*
G75*
G02*
X121950001Y-111875000I-249999J0D01*
G01*
X121324999Y-111875000D01*
G75*
G02*
X121075000Y-111625001I0J249999D01*
G01*
G37*
%TD*%
%TO.C,R2*%
G36*
G01*
X120485000Y-94760000D02*
X120115000Y-94760000D01*
G75*
G02*
X119980000Y-94625000I0J135000D01*
G01*
X119980000Y-94355000D01*
G75*
G02*
X120115000Y-94220000I135000J0D01*
G01*
X120485000Y-94220000D01*
G75*
G02*
X120620000Y-94355000I0J-135000D01*
G01*
X120620000Y-94625000D01*
G75*
G02*
X120485000Y-94760000I-135000J0D01*
G01*
G37*
G36*
G01*
X120485000Y-95780000D02*
X120115000Y-95780000D01*
G75*
G02*
X119980000Y-95645000I0J135000D01*
G01*
X119980000Y-95375000D01*
G75*
G02*
X120115000Y-95240000I135000J0D01*
G01*
X120485000Y-95240000D01*
G75*
G02*
X120620000Y-95375000I0J-135000D01*
G01*
X120620000Y-95645000D01*
G75*
G02*
X120485000Y-95780000I-135000J0D01*
G01*
G37*
%TD*%
%TO.C,R1*%
G36*
G01*
X117815000Y-104940000D02*
X118185000Y-104940000D01*
G75*
G02*
X118320000Y-105075000I0J-135000D01*
G01*
X118320000Y-105345000D01*
G75*
G02*
X118185000Y-105480000I-135000J0D01*
G01*
X117815000Y-105480000D01*
G75*
G02*
X117680000Y-105345000I0J135000D01*
G01*
X117680000Y-105075000D01*
G75*
G02*
X117815000Y-104940000I135000J0D01*
G01*
G37*
G36*
G01*
X117815000Y-103920000D02*
X118185000Y-103920000D01*
G75*
G02*
X118320000Y-104055000I0J-135000D01*
G01*
X118320000Y-104325000D01*
G75*
G02*
X118185000Y-104460000I-135000J0D01*
G01*
X117815000Y-104460000D01*
G75*
G02*
X117680000Y-104325000I0J135000D01*
G01*
X117680000Y-104055000D01*
G75*
G02*
X117815000Y-103920000I135000J0D01*
G01*
G37*
%TD*%
D13*
%TO.C,J30*%
X152060000Y-129240000D03*
X149520000Y-129240000D03*
X146980000Y-129240000D03*
X144440000Y-129240000D03*
X141900000Y-129240000D03*
X152060000Y-126700000D03*
X149520000Y-126700000D03*
X146980000Y-126700000D03*
X144440000Y-126700000D03*
G36*
G01*
X141300000Y-125850000D02*
X142500000Y-125850000D01*
G75*
G02*
X142750000Y-126100000I0J-250000D01*
G01*
X142750000Y-127300000D01*
G75*
G02*
X142500000Y-127550000I-250000J0D01*
G01*
X141300000Y-127550000D01*
G75*
G02*
X141050000Y-127300000I0J250000D01*
G01*
X141050000Y-126100000D01*
G75*
G02*
X141300000Y-125850000I250000J0D01*
G01*
G37*
%TD*%
%TO.C,J25*%
X119540000Y-126660000D03*
X122080000Y-126660000D03*
X124620000Y-126660000D03*
X127160000Y-126660000D03*
X129700000Y-126660000D03*
X119540000Y-129200000D03*
X122080000Y-129200000D03*
X124620000Y-129200000D03*
X127160000Y-129200000D03*
G36*
G01*
X130300000Y-130050000D02*
X129100000Y-130050000D01*
G75*
G02*
X128850000Y-129800000I0J250000D01*
G01*
X128850000Y-128600000D01*
G75*
G02*
X129100000Y-128350000I250000J0D01*
G01*
X130300000Y-128350000D01*
G75*
G02*
X130550000Y-128600000I0J-250000D01*
G01*
X130550000Y-129800000D01*
G75*
G02*
X130300000Y-130050000I-250000J0D01*
G01*
G37*
%TD*%
D14*
%TO.C,J7*%
X154300000Y-67500000D03*
X154300000Y-69500000D03*
X154300000Y-71500000D03*
D15*
X154300000Y-73532000D03*
%TD*%
D14*
%TO.C,J6*%
X154200000Y-55500000D03*
X154200000Y-57500000D03*
X154200000Y-59500000D03*
D15*
X154200000Y-61532000D03*
%TD*%
D14*
%TO.C,J5*%
X116600000Y-73700000D03*
X116600000Y-75700000D03*
X116600000Y-77700000D03*
D15*
X116600000Y-79732000D03*
%TD*%
D14*
%TO.C,J4*%
X116600000Y-85500000D03*
X116600000Y-87500000D03*
X116600000Y-89500000D03*
D15*
X116600000Y-91532000D03*
%TD*%
D14*
%TO.C,J3*%
X116600000Y-50600000D03*
X116600000Y-52600000D03*
X116600000Y-54600000D03*
D15*
X116600000Y-56632000D03*
%TD*%
D14*
%TO.C,J2*%
X116600000Y-61800000D03*
X116600000Y-63800000D03*
X116600000Y-65800000D03*
D15*
X116600000Y-67832000D03*
%TD*%
D14*
%TO.C,J1*%
X154200000Y-43500000D03*
X154200000Y-45500000D03*
X154200000Y-47500000D03*
D15*
X154200000Y-49532000D03*
%TD*%
D16*
%TO.C,D2*%
X138050000Y-118500000D03*
X134550000Y-118500000D03*
%TD*%
%TO.C,D1*%
X134550000Y-121900000D03*
X138050000Y-121900000D03*
%TD*%
%TO.C,C22*%
G36*
G01*
X147730000Y-102300000D02*
X148070000Y-102300000D01*
G75*
G02*
X148210000Y-102440000I0J-140000D01*
G01*
X148210000Y-102720000D01*
G75*
G02*
X148070000Y-102860000I-140000J0D01*
G01*
X147730000Y-102860000D01*
G75*
G02*
X147590000Y-102720000I0J140000D01*
G01*
X147590000Y-102440000D01*
G75*
G02*
X147730000Y-102300000I140000J0D01*
G01*
G37*
G36*
G01*
X147730000Y-101340000D02*
X148070000Y-101340000D01*
G75*
G02*
X148210000Y-101480000I0J-140000D01*
G01*
X148210000Y-101760000D01*
G75*
G02*
X148070000Y-101900000I-140000J0D01*
G01*
X147730000Y-101900000D01*
G75*
G02*
X147590000Y-101760000I0J140000D01*
G01*
X147590000Y-101480000D01*
G75*
G02*
X147730000Y-101340000I140000J0D01*
G01*
G37*
%TD*%
%TO.C,C21*%
G36*
G01*
X147830000Y-107200000D02*
X148170000Y-107200000D01*
G75*
G02*
X148310000Y-107340000I0J-140000D01*
G01*
X148310000Y-107620000D01*
G75*
G02*
X148170000Y-107760000I-140000J0D01*
G01*
X147830000Y-107760000D01*
G75*
G02*
X147690000Y-107620000I0J140000D01*
G01*
X147690000Y-107340000D01*
G75*
G02*
X147830000Y-107200000I140000J0D01*
G01*
G37*
G36*
G01*
X147830000Y-106240000D02*
X148170000Y-106240000D01*
G75*
G02*
X148310000Y-106380000I0J-140000D01*
G01*
X148310000Y-106660000D01*
G75*
G02*
X148170000Y-106800000I-140000J0D01*
G01*
X147830000Y-106800000D01*
G75*
G02*
X147690000Y-106660000I0J140000D01*
G01*
X147690000Y-106380000D01*
G75*
G02*
X147830000Y-106240000I140000J0D01*
G01*
G37*
%TD*%
%TO.C,C20*%
G36*
G01*
X138830000Y-110900000D02*
X139170000Y-110900000D01*
G75*
G02*
X139310000Y-111040000I0J-140000D01*
G01*
X139310000Y-111320000D01*
G75*
G02*
X139170000Y-111460000I-140000J0D01*
G01*
X138830000Y-111460000D01*
G75*
G02*
X138690000Y-111320000I0J140000D01*
G01*
X138690000Y-111040000D01*
G75*
G02*
X138830000Y-110900000I140000J0D01*
G01*
G37*
G36*
G01*
X138830000Y-109940000D02*
X139170000Y-109940000D01*
G75*
G02*
X139310000Y-110080000I0J-140000D01*
G01*
X139310000Y-110360000D01*
G75*
G02*
X139170000Y-110500000I-140000J0D01*
G01*
X138830000Y-110500000D01*
G75*
G02*
X138690000Y-110360000I0J140000D01*
G01*
X138690000Y-110080000D01*
G75*
G02*
X138830000Y-109940000I140000J0D01*
G01*
G37*
%TD*%
%TO.C,C19*%
G36*
G01*
X155800000Y-83430000D02*
X155800000Y-83770000D01*
G75*
G02*
X155660000Y-83910000I-140000J0D01*
G01*
X155380000Y-83910000D01*
G75*
G02*
X155240000Y-83770000I0J140000D01*
G01*
X155240000Y-83430000D01*
G75*
G02*
X155380000Y-83290000I140000J0D01*
G01*
X155660000Y-83290000D01*
G75*
G02*
X155800000Y-83430000I0J-140000D01*
G01*
G37*
G36*
G01*
X156760000Y-83430000D02*
X156760000Y-83770000D01*
G75*
G02*
X156620000Y-83910000I-140000J0D01*
G01*
X156340000Y-83910000D01*
G75*
G02*
X156200000Y-83770000I0J140000D01*
G01*
X156200000Y-83430000D01*
G75*
G02*
X156340000Y-83290000I140000J0D01*
G01*
X156620000Y-83290000D01*
G75*
G02*
X156760000Y-83430000I0J-140000D01*
G01*
G37*
%TD*%
%TO.C,C18*%
G36*
G01*
X138670000Y-96800000D02*
X138330000Y-96800000D01*
G75*
G02*
X138190000Y-96660000I0J140000D01*
G01*
X138190000Y-96380000D01*
G75*
G02*
X138330000Y-96240000I140000J0D01*
G01*
X138670000Y-96240000D01*
G75*
G02*
X138810000Y-96380000I0J-140000D01*
G01*
X138810000Y-96660000D01*
G75*
G02*
X138670000Y-96800000I-140000J0D01*
G01*
G37*
G36*
G01*
X138670000Y-97760000D02*
X138330000Y-97760000D01*
G75*
G02*
X138190000Y-97620000I0J140000D01*
G01*
X138190000Y-97340000D01*
G75*
G02*
X138330000Y-97200000I140000J0D01*
G01*
X138670000Y-97200000D01*
G75*
G02*
X138810000Y-97340000I0J-140000D01*
G01*
X138810000Y-97620000D01*
G75*
G02*
X138670000Y-97760000I-140000J0D01*
G01*
G37*
%TD*%
%TO.C,C17*%
G36*
G01*
X144670000Y-86300000D02*
X144330000Y-86300000D01*
G75*
G02*
X144190000Y-86160000I0J140000D01*
G01*
X144190000Y-85880000D01*
G75*
G02*
X144330000Y-85740000I140000J0D01*
G01*
X144670000Y-85740000D01*
G75*
G02*
X144810000Y-85880000I0J-140000D01*
G01*
X144810000Y-86160000D01*
G75*
G02*
X144670000Y-86300000I-140000J0D01*
G01*
G37*
G36*
G01*
X144670000Y-87260000D02*
X144330000Y-87260000D01*
G75*
G02*
X144190000Y-87120000I0J140000D01*
G01*
X144190000Y-86840000D01*
G75*
G02*
X144330000Y-86700000I140000J0D01*
G01*
X144670000Y-86700000D01*
G75*
G02*
X144810000Y-86840000I0J-140000D01*
G01*
X144810000Y-87120000D01*
G75*
G02*
X144670000Y-87260000I-140000J0D01*
G01*
G37*
%TD*%
%TO.C,C16*%
G36*
G01*
X131375000Y-117950000D02*
X130425000Y-117950000D01*
G75*
G02*
X130175000Y-117700000I0J250000D01*
G01*
X130175000Y-117200000D01*
G75*
G02*
X130425000Y-116950000I250000J0D01*
G01*
X131375000Y-116950000D01*
G75*
G02*
X131625000Y-117200000I0J-250000D01*
G01*
X131625000Y-117700000D01*
G75*
G02*
X131375000Y-117950000I-250000J0D01*
G01*
G37*
G36*
G01*
X131375000Y-119850000D02*
X130425000Y-119850000D01*
G75*
G02*
X130175000Y-119600000I0J250000D01*
G01*
X130175000Y-119100000D01*
G75*
G02*
X130425000Y-118850000I250000J0D01*
G01*
X131375000Y-118850000D01*
G75*
G02*
X131625000Y-119100000I0J-250000D01*
G01*
X131625000Y-119600000D01*
G75*
G02*
X131375000Y-119850000I-250000J0D01*
G01*
G37*
%TD*%
%TO.C,C15*%
G36*
G01*
X131375000Y-121750000D02*
X130425000Y-121750000D01*
G75*
G02*
X130175000Y-121500000I0J250000D01*
G01*
X130175000Y-121000000D01*
G75*
G02*
X130425000Y-120750000I250000J0D01*
G01*
X131375000Y-120750000D01*
G75*
G02*
X131625000Y-121000000I0J-250000D01*
G01*
X131625000Y-121500000D01*
G75*
G02*
X131375000Y-121750000I-250000J0D01*
G01*
G37*
G36*
G01*
X131375000Y-123650000D02*
X130425000Y-123650000D01*
G75*
G02*
X130175000Y-123400000I0J250000D01*
G01*
X130175000Y-122900000D01*
G75*
G02*
X130425000Y-122650000I250000J0D01*
G01*
X131375000Y-122650000D01*
G75*
G02*
X131625000Y-122900000I0J-250000D01*
G01*
X131625000Y-123400000D01*
G75*
G02*
X131375000Y-123650000I-250000J0D01*
G01*
G37*
%TD*%
%TO.C,C14*%
G36*
G01*
X120200000Y-115970000D02*
X120200000Y-115630000D01*
G75*
G02*
X120340000Y-115490000I140000J0D01*
G01*
X120620000Y-115490000D01*
G75*
G02*
X120760000Y-115630000I0J-140000D01*
G01*
X120760000Y-115970000D01*
G75*
G02*
X120620000Y-116110000I-140000J0D01*
G01*
X120340000Y-116110000D01*
G75*
G02*
X120200000Y-115970000I0J140000D01*
G01*
G37*
G36*
G01*
X119240000Y-115970000D02*
X119240000Y-115630000D01*
G75*
G02*
X119380000Y-115490000I140000J0D01*
G01*
X119660000Y-115490000D01*
G75*
G02*
X119800000Y-115630000I0J-140000D01*
G01*
X119800000Y-115970000D01*
G75*
G02*
X119660000Y-116110000I-140000J0D01*
G01*
X119380000Y-116110000D01*
G75*
G02*
X119240000Y-115970000I0J140000D01*
G01*
G37*
%TD*%
%TO.C,C13*%
G36*
G01*
X128070000Y-75200000D02*
X127730000Y-75200000D01*
G75*
G02*
X127590000Y-75060000I0J140000D01*
G01*
X127590000Y-74780000D01*
G75*
G02*
X127730000Y-74640000I140000J0D01*
G01*
X128070000Y-74640000D01*
G75*
G02*
X128210000Y-74780000I0J-140000D01*
G01*
X128210000Y-75060000D01*
G75*
G02*
X128070000Y-75200000I-140000J0D01*
G01*
G37*
G36*
G01*
X128070000Y-76160000D02*
X127730000Y-76160000D01*
G75*
G02*
X127590000Y-76020000I0J140000D01*
G01*
X127590000Y-75740000D01*
G75*
G02*
X127730000Y-75600000I140000J0D01*
G01*
X128070000Y-75600000D01*
G75*
G02*
X128210000Y-75740000I0J-140000D01*
G01*
X128210000Y-76020000D01*
G75*
G02*
X128070000Y-76160000I-140000J0D01*
G01*
G37*
%TD*%
%TO.C,C12*%
G36*
G01*
X140930000Y-69200000D02*
X141270000Y-69200000D01*
G75*
G02*
X141410000Y-69340000I0J-140000D01*
G01*
X141410000Y-69620000D01*
G75*
G02*
X141270000Y-69760000I-140000J0D01*
G01*
X140930000Y-69760000D01*
G75*
G02*
X140790000Y-69620000I0J140000D01*
G01*
X140790000Y-69340000D01*
G75*
G02*
X140930000Y-69200000I140000J0D01*
G01*
G37*
G36*
G01*
X140930000Y-68240000D02*
X141270000Y-68240000D01*
G75*
G02*
X141410000Y-68380000I0J-140000D01*
G01*
X141410000Y-68660000D01*
G75*
G02*
X141270000Y-68800000I-140000J0D01*
G01*
X140930000Y-68800000D01*
G75*
G02*
X140790000Y-68660000I0J140000D01*
G01*
X140790000Y-68380000D01*
G75*
G02*
X140930000Y-68240000I140000J0D01*
G01*
G37*
%TD*%
%TO.C,C11*%
G36*
G01*
X127730000Y-69200000D02*
X128070000Y-69200000D01*
G75*
G02*
X128210000Y-69340000I0J-140000D01*
G01*
X128210000Y-69620000D01*
G75*
G02*
X128070000Y-69760000I-140000J0D01*
G01*
X127730000Y-69760000D01*
G75*
G02*
X127590000Y-69620000I0J140000D01*
G01*
X127590000Y-69340000D01*
G75*
G02*
X127730000Y-69200000I140000J0D01*
G01*
G37*
G36*
G01*
X127730000Y-68240000D02*
X128070000Y-68240000D01*
G75*
G02*
X128210000Y-68380000I0J-140000D01*
G01*
X128210000Y-68660000D01*
G75*
G02*
X128070000Y-68800000I-140000J0D01*
G01*
X127730000Y-68800000D01*
G75*
G02*
X127590000Y-68660000I0J140000D01*
G01*
X127590000Y-68380000D01*
G75*
G02*
X127730000Y-68240000I140000J0D01*
G01*
G37*
%TD*%
%TO.C,C10*%
G36*
G01*
X141270000Y-75200000D02*
X140930000Y-75200000D01*
G75*
G02*
X140790000Y-75060000I0J140000D01*
G01*
X140790000Y-74780000D01*
G75*
G02*
X140930000Y-74640000I140000J0D01*
G01*
X141270000Y-74640000D01*
G75*
G02*
X141410000Y-74780000I0J-140000D01*
G01*
X141410000Y-75060000D01*
G75*
G02*
X141270000Y-75200000I-140000J0D01*
G01*
G37*
G36*
G01*
X141270000Y-76160000D02*
X140930000Y-76160000D01*
G75*
G02*
X140790000Y-76020000I0J140000D01*
G01*
X140790000Y-75740000D01*
G75*
G02*
X140930000Y-75600000I140000J0D01*
G01*
X141270000Y-75600000D01*
G75*
G02*
X141410000Y-75740000I0J-140000D01*
G01*
X141410000Y-76020000D01*
G75*
G02*
X141270000Y-76160000I-140000J0D01*
G01*
G37*
%TD*%
%TO.C,C9*%
G36*
G01*
X126470000Y-88600000D02*
X126130000Y-88600000D01*
G75*
G02*
X125990000Y-88460000I0J140000D01*
G01*
X125990000Y-88180000D01*
G75*
G02*
X126130000Y-88040000I140000J0D01*
G01*
X126470000Y-88040000D01*
G75*
G02*
X126610000Y-88180000I0J-140000D01*
G01*
X126610000Y-88460000D01*
G75*
G02*
X126470000Y-88600000I-140000J0D01*
G01*
G37*
G36*
G01*
X126470000Y-89560000D02*
X126130000Y-89560000D01*
G75*
G02*
X125990000Y-89420000I0J140000D01*
G01*
X125990000Y-89140000D01*
G75*
G02*
X126130000Y-89000000I140000J0D01*
G01*
X126470000Y-89000000D01*
G75*
G02*
X126610000Y-89140000I0J-140000D01*
G01*
X126610000Y-89420000D01*
G75*
G02*
X126470000Y-89560000I-140000J0D01*
G01*
G37*
%TD*%
%TO.C,C8*%
G36*
G01*
X138530000Y-82700000D02*
X138870000Y-82700000D01*
G75*
G02*
X139010000Y-82840000I0J-140000D01*
G01*
X139010000Y-83120000D01*
G75*
G02*
X138870000Y-83260000I-140000J0D01*
G01*
X138530000Y-83260000D01*
G75*
G02*
X138390000Y-83120000I0J140000D01*
G01*
X138390000Y-82840000D01*
G75*
G02*
X138530000Y-82700000I140000J0D01*
G01*
G37*
G36*
G01*
X138530000Y-81740000D02*
X138870000Y-81740000D01*
G75*
G02*
X139010000Y-81880000I0J-140000D01*
G01*
X139010000Y-82160000D01*
G75*
G02*
X138870000Y-82300000I-140000J0D01*
G01*
X138530000Y-82300000D01*
G75*
G02*
X138390000Y-82160000I0J140000D01*
G01*
X138390000Y-81880000D01*
G75*
G02*
X138530000Y-81740000I140000J0D01*
G01*
G37*
%TD*%
%TO.C,C7*%
G36*
G01*
X126130000Y-82600000D02*
X126470000Y-82600000D01*
G75*
G02*
X126610000Y-82740000I0J-140000D01*
G01*
X126610000Y-83020000D01*
G75*
G02*
X126470000Y-83160000I-140000J0D01*
G01*
X126130000Y-83160000D01*
G75*
G02*
X125990000Y-83020000I0J140000D01*
G01*
X125990000Y-82740000D01*
G75*
G02*
X126130000Y-82600000I140000J0D01*
G01*
G37*
G36*
G01*
X126130000Y-81640000D02*
X126470000Y-81640000D01*
G75*
G02*
X126610000Y-81780000I0J-140000D01*
G01*
X126610000Y-82060000D01*
G75*
G02*
X126470000Y-82200000I-140000J0D01*
G01*
X126130000Y-82200000D01*
G75*
G02*
X125990000Y-82060000I0J140000D01*
G01*
X125990000Y-81780000D01*
G75*
G02*
X126130000Y-81640000I140000J0D01*
G01*
G37*
%TD*%
%TO.C,C6*%
G36*
G01*
X138770000Y-88500000D02*
X138430000Y-88500000D01*
G75*
G02*
X138290000Y-88360000I0J140000D01*
G01*
X138290000Y-88080000D01*
G75*
G02*
X138430000Y-87940000I140000J0D01*
G01*
X138770000Y-87940000D01*
G75*
G02*
X138910000Y-88080000I0J-140000D01*
G01*
X138910000Y-88360000D01*
G75*
G02*
X138770000Y-88500000I-140000J0D01*
G01*
G37*
G36*
G01*
X138770000Y-89460000D02*
X138430000Y-89460000D01*
G75*
G02*
X138290000Y-89320000I0J140000D01*
G01*
X138290000Y-89040000D01*
G75*
G02*
X138430000Y-88900000I140000J0D01*
G01*
X138770000Y-88900000D01*
G75*
G02*
X138910000Y-89040000I0J-140000D01*
G01*
X138910000Y-89320000D01*
G75*
G02*
X138770000Y-89460000I-140000J0D01*
G01*
G37*
%TD*%
%TO.C,C5*%
G36*
G01*
X127800000Y-103570000D02*
X127800000Y-103230000D01*
G75*
G02*
X127940000Y-103090000I140000J0D01*
G01*
X128220000Y-103090000D01*
G75*
G02*
X128360000Y-103230000I0J-140000D01*
G01*
X128360000Y-103570000D01*
G75*
G02*
X128220000Y-103710000I-140000J0D01*
G01*
X127940000Y-103710000D01*
G75*
G02*
X127800000Y-103570000I0J140000D01*
G01*
G37*
G36*
G01*
X126840000Y-103570000D02*
X126840000Y-103230000D01*
G75*
G02*
X126980000Y-103090000I140000J0D01*
G01*
X127260000Y-103090000D01*
G75*
G02*
X127400000Y-103230000I0J-140000D01*
G01*
X127400000Y-103570000D01*
G75*
G02*
X127260000Y-103710000I-140000J0D01*
G01*
X126980000Y-103710000D01*
G75*
G02*
X126840000Y-103570000I0J140000D01*
G01*
G37*
%TD*%
%TO.C,C4*%
G36*
G01*
X133200000Y-112630000D02*
X133200000Y-112970000D01*
G75*
G02*
X133060000Y-113110000I-140000J0D01*
G01*
X132780000Y-113110000D01*
G75*
G02*
X132640000Y-112970000I0J140000D01*
G01*
X132640000Y-112630000D01*
G75*
G02*
X132780000Y-112490000I140000J0D01*
G01*
X133060000Y-112490000D01*
G75*
G02*
X133200000Y-112630000I0J-140000D01*
G01*
G37*
G36*
G01*
X134160000Y-112630000D02*
X134160000Y-112970000D01*
G75*
G02*
X134020000Y-113110000I-140000J0D01*
G01*
X133740000Y-113110000D01*
G75*
G02*
X133600000Y-112970000I0J140000D01*
G01*
X133600000Y-112630000D01*
G75*
G02*
X133740000Y-112490000I140000J0D01*
G01*
X134020000Y-112490000D01*
G75*
G02*
X134160000Y-112630000I0J-140000D01*
G01*
G37*
%TD*%
%TO.C,C3*%
G36*
G01*
X133200000Y-103330000D02*
X133200000Y-103670000D01*
G75*
G02*
X133060000Y-103810000I-140000J0D01*
G01*
X132780000Y-103810000D01*
G75*
G02*
X132640000Y-103670000I0J140000D01*
G01*
X132640000Y-103330000D01*
G75*
G02*
X132780000Y-103190000I140000J0D01*
G01*
X133060000Y-103190000D01*
G75*
G02*
X133200000Y-103330000I0J-140000D01*
G01*
G37*
G36*
G01*
X134160000Y-103330000D02*
X134160000Y-103670000D01*
G75*
G02*
X134020000Y-103810000I-140000J0D01*
G01*
X133740000Y-103810000D01*
G75*
G02*
X133600000Y-103670000I0J140000D01*
G01*
X133600000Y-103330000D01*
G75*
G02*
X133740000Y-103190000I140000J0D01*
G01*
X134020000Y-103190000D01*
G75*
G02*
X134160000Y-103330000I0J-140000D01*
G01*
G37*
%TD*%
%TO.C,C2*%
G36*
G01*
X126900000Y-112970000D02*
X126900000Y-112630000D01*
G75*
G02*
X127040000Y-112490000I140000J0D01*
G01*
X127320000Y-112490000D01*
G75*
G02*
X127460000Y-112630000I0J-140000D01*
G01*
X127460000Y-112970000D01*
G75*
G02*
X127320000Y-113110000I-140000J0D01*
G01*
X127040000Y-113110000D01*
G75*
G02*
X126900000Y-112970000I0J140000D01*
G01*
G37*
G36*
G01*
X125940000Y-112970000D02*
X125940000Y-112630000D01*
G75*
G02*
X126080000Y-112490000I140000J0D01*
G01*
X126360000Y-112490000D01*
G75*
G02*
X126500000Y-112630000I0J-140000D01*
G01*
X126500000Y-112970000D01*
G75*
G02*
X126360000Y-113110000I-140000J0D01*
G01*
X126080000Y-113110000D01*
G75*
G02*
X125940000Y-112970000I0J140000D01*
G01*
G37*
%TD*%
%TO.C,C1*%
G36*
G01*
X127230000Y-119900000D02*
X127570000Y-119900000D01*
G75*
G02*
X127710000Y-120040000I0J-140000D01*
G01*
X127710000Y-120320000D01*
G75*
G02*
X127570000Y-120460000I-140000J0D01*
G01*
X127230000Y-120460000D01*
G75*
G02*
X127090000Y-120320000I0J140000D01*
G01*
X127090000Y-120040000D01*
G75*
G02*
X127230000Y-119900000I140000J0D01*
G01*
G37*
G36*
G01*
X127230000Y-118940000D02*
X127570000Y-118940000D01*
G75*
G02*
X127710000Y-119080000I0J-140000D01*
G01*
X127710000Y-119360000D01*
G75*
G02*
X127570000Y-119500000I-140000J0D01*
G01*
X127230000Y-119500000D01*
G75*
G02*
X127090000Y-119360000I0J140000D01*
G01*
X127090000Y-119080000D01*
G75*
G02*
X127230000Y-118940000I140000J0D01*
G01*
G37*
%TD*%
M02*
