%TF.GenerationSoftware,KiCad,Pcbnew,6.0.2+dfsg-1~bpo11+1*%
%TF.CreationDate,2022-05-04T11:35:55-04:00*%
%TF.ProjectId,eurorack_to_3v3,6575726f-7261-4636-9b5f-746f5f337633,1*%
%TF.SameCoordinates,Original*%
%TF.FileFunction,Copper,L1,Top*%
%TF.FilePolarity,Positive*%
%FSLAX46Y46*%
G04 Gerber Fmt 4.6, Leading zero omitted, Abs format (unit mm)*
G04 Created by KiCad (PCBNEW 6.0.2+dfsg-1~bpo11+1) date 2022-05-04 11:35:55*
%MOMM*%
%LPD*%
G01*
G04 APERTURE LIST*
G04 Aperture macros list*
%AMRoundRect*
0 Rectangle with rounded corners*
0 $1 Rounding radius*
0 $2 $3 $4 $5 $6 $7 $8 $9 X,Y pos of 4 corners*
0 Add a 4 corners polygon primitive as box body*
4,1,4,$2,$3,$4,$5,$6,$7,$8,$9,$2,$3,0*
0 Add four circle primitives for the rounded corners*
1,1,$1+$1,$2,$3*
1,1,$1+$1,$4,$5*
1,1,$1+$1,$6,$7*
1,1,$1+$1,$8,$9*
0 Add four rect primitives between the rounded corners*
20,1,$1+$1,$2,$3,$4,$5,0*
20,1,$1+$1,$4,$5,$6,$7,0*
20,1,$1+$1,$6,$7,$8,$9,0*
20,1,$1+$1,$8,$9,$2,$3,0*%
G04 Aperture macros list end*
%TA.AperFunction,SMDPad,CuDef*%
%ADD10RoundRect,0.150000X0.825000X0.150000X-0.825000X0.150000X-0.825000X-0.150000X0.825000X-0.150000X0*%
%TD*%
%TA.AperFunction,SMDPad,CuDef*%
%ADD11RoundRect,0.150000X-0.825000X-0.150000X0.825000X-0.150000X0.825000X0.150000X-0.825000X0.150000X0*%
%TD*%
%TA.AperFunction,SMDPad,CuDef*%
%ADD12RoundRect,0.140000X-0.170000X0.140000X-0.170000X-0.140000X0.170000X-0.140000X0.170000X0.140000X0*%
%TD*%
%TA.AperFunction,SMDPad,CuDef*%
%ADD13RoundRect,0.140000X-0.140000X-0.170000X0.140000X-0.170000X0.140000X0.170000X-0.140000X0.170000X0*%
%TD*%
%TA.AperFunction,SMDPad,CuDef*%
%ADD14RoundRect,0.140000X0.140000X0.170000X-0.140000X0.170000X-0.140000X-0.170000X0.140000X-0.170000X0*%
%TD*%
%TA.AperFunction,SMDPad,CuDef*%
%ADD15RoundRect,0.140000X0.170000X-0.140000X0.170000X0.140000X-0.170000X0.140000X-0.170000X-0.140000X0*%
%TD*%
%TA.AperFunction,SMDPad,CuDef*%
%ADD16R,1.300000X1.700000*%
%TD*%
%TA.AperFunction,ComponentPad*%
%ADD17R,1.524000X1.524000*%
%TD*%
%TA.AperFunction,ComponentPad*%
%ADD18C,1.524000*%
%TD*%
%TA.AperFunction,SMDPad,CuDef*%
%ADD19RoundRect,0.135000X-0.185000X0.135000X-0.185000X-0.135000X0.185000X-0.135000X0.185000X0.135000X0*%
%TD*%
%TA.AperFunction,SMDPad,CuDef*%
%ADD20RoundRect,0.135000X0.185000X-0.135000X0.185000X0.135000X-0.185000X0.135000X-0.185000X-0.135000X0*%
%TD*%
%TA.AperFunction,SMDPad,CuDef*%
%ADD21RoundRect,0.250000X-0.312500X-0.625000X0.312500X-0.625000X0.312500X0.625000X-0.312500X0.625000X0*%
%TD*%
%TA.AperFunction,SMDPad,CuDef*%
%ADD22RoundRect,0.250000X-0.625000X0.312500X-0.625000X-0.312500X0.625000X-0.312500X0.625000X0.312500X0*%
%TD*%
%TA.AperFunction,SMDPad,CuDef*%
%ADD23RoundRect,0.135000X-0.135000X-0.185000X0.135000X-0.185000X0.135000X0.185000X-0.135000X0.185000X0*%
%TD*%
%TA.AperFunction,SMDPad,CuDef*%
%ADD24RoundRect,0.135000X0.135000X0.185000X-0.135000X0.185000X-0.135000X-0.185000X0.135000X-0.185000X0*%
%TD*%
%TA.AperFunction,SMDPad,CuDef*%
%ADD25RoundRect,0.200000X-0.275000X0.200000X-0.275000X-0.200000X0.275000X-0.200000X0.275000X0.200000X0*%
%TD*%
%TA.AperFunction,SMDPad,CuDef*%
%ADD26RoundRect,0.250000X0.312500X0.625000X-0.312500X0.625000X-0.312500X-0.625000X0.312500X-0.625000X0*%
%TD*%
%TA.AperFunction,SMDPad,CuDef*%
%ADD27RoundRect,0.100000X0.130000X0.100000X-0.130000X0.100000X-0.130000X-0.100000X0.130000X-0.100000X0*%
%TD*%
%TA.AperFunction,SMDPad,CuDef*%
%ADD28RoundRect,0.250000X0.262500X0.450000X-0.262500X0.450000X-0.262500X-0.450000X0.262500X-0.450000X0*%
%TD*%
%TA.AperFunction,SMDPad,CuDef*%
%ADD29RoundRect,0.100000X-0.130000X-0.100000X0.130000X-0.100000X0.130000X0.100000X-0.130000X0.100000X0*%
%TD*%
%TA.AperFunction,SMDPad,CuDef*%
%ADD30RoundRect,0.250000X-0.450000X0.262500X-0.450000X-0.262500X0.450000X-0.262500X0.450000X0.262500X0*%
%TD*%
%TA.AperFunction,SMDPad,CuDef*%
%ADD31RoundRect,0.200000X0.275000X-0.200000X0.275000X0.200000X-0.275000X0.200000X-0.275000X-0.200000X0*%
%TD*%
%TA.AperFunction,SMDPad,CuDef*%
%ADD32RoundRect,0.250000X-0.262500X-0.450000X0.262500X-0.450000X0.262500X0.450000X-0.262500X0.450000X0*%
%TD*%
%TA.AperFunction,SMDPad,CuDef*%
%ADD33RoundRect,0.150000X0.150000X-0.825000X0.150000X0.825000X-0.150000X0.825000X-0.150000X-0.825000X0*%
%TD*%
%TA.AperFunction,SMDPad,CuDef*%
%ADD34RoundRect,0.150000X-0.150000X0.825000X-0.150000X-0.825000X0.150000X-0.825000X0.150000X0.825000X0*%
%TD*%
%TA.AperFunction,SMDPad,CuDef*%
%ADD35R,0.800000X0.900000*%
%TD*%
%TA.AperFunction,SMDPad,CuDef*%
%ADD36RoundRect,0.100000X0.100000X-0.637500X0.100000X0.637500X-0.100000X0.637500X-0.100000X-0.637500X0*%
%TD*%
%TA.AperFunction,SMDPad,CuDef*%
%ADD37R,1.200000X0.400000*%
%TD*%
%TA.AperFunction,ComponentPad*%
%ADD38RoundRect,0.250000X0.600000X-0.600000X0.600000X0.600000X-0.600000X0.600000X-0.600000X-0.600000X0*%
%TD*%
%TA.AperFunction,ComponentPad*%
%ADD39C,1.700000*%
%TD*%
%TA.AperFunction,ComponentPad*%
%ADD40RoundRect,0.250000X-0.600000X0.600000X-0.600000X-0.600000X0.600000X-0.600000X0.600000X0.600000X0*%
%TD*%
%TA.AperFunction,ViaPad*%
%ADD41C,0.800000*%
%TD*%
%TA.AperFunction,Conductor*%
%ADD42C,0.250000*%
%TD*%
G04 APERTURE END LIST*
D10*
%TO.P,U9,14*%
%TO.N,/cv_to_3v3_B/cv_3v3_4*%
X129825000Y-89410000D03*
%TO.P,U9,13,-*%
%TO.N,Net-(C16-Pad2)*%
X129825000Y-88140000D03*
%TO.P,U9,12,+*%
%TO.N,GND*%
X129825000Y-86870000D03*
%TO.P,U9,11,V-*%
%TO.N,GNDD*%
X129825000Y-85600000D03*
%TO.P,U9,10,+*%
%TO.N,GND*%
X129825000Y-84330000D03*
%TO.P,U9,9,-*%
%TO.N,Net-(C14-Pad2)*%
X129825000Y-83060000D03*
%TO.P,U9,8*%
%TO.N,/cv_to_3v3_B/cv_3v3_3*%
X129825000Y-81790000D03*
%TO.P,U9,7*%
%TO.N,/cv_to_3v3_B/cv_3v3_2*%
X134775000Y-81790000D03*
%TO.P,U9,6,-*%
%TO.N,Net-(C15-Pad2)*%
X134775000Y-83060000D03*
%TO.P,U9,5,+*%
%TO.N,GND*%
X134775000Y-84330000D03*
%TO.P,U9,4,V+*%
%TO.N,+3V3*%
X134775000Y-85600000D03*
%TO.P,U9,3,+*%
%TO.N,GND*%
X134775000Y-86870000D03*
%TO.P,U9,2,-*%
%TO.N,Net-(C13-Pad2)*%
X134775000Y-88140000D03*
%TO.P,U9,1*%
%TO.N,/cv_to_3v3_B/cv_3v3_1*%
X134775000Y-89410000D03*
%TD*%
%TO.P,U8,1*%
%TO.N,/cv_to_3v3_A/cv_3v3_1*%
X136775000Y-75910000D03*
%TO.P,U8,2,-*%
%TO.N,Net-(C9-Pad2)*%
X136775000Y-74640000D03*
%TO.P,U8,3,+*%
%TO.N,GND*%
X136775000Y-73370000D03*
%TO.P,U8,4,V+*%
%TO.N,+3V3*%
X136775000Y-72100000D03*
%TO.P,U8,5,+*%
%TO.N,GND*%
X136775000Y-70830000D03*
%TO.P,U8,6,-*%
%TO.N,Net-(C11-Pad2)*%
X136775000Y-69560000D03*
%TO.P,U8,7*%
%TO.N,/cv_to_3v3_A/cv_3v3_2*%
X136775000Y-68290000D03*
%TO.P,U8,8*%
%TO.N,/cv_to_3v3_A/cv_3v3_3*%
X131825000Y-68290000D03*
%TO.P,U8,9,-*%
%TO.N,Net-(C10-Pad2)*%
X131825000Y-69560000D03*
%TO.P,U8,10,+*%
%TO.N,GND*%
X131825000Y-70830000D03*
%TO.P,U8,11,V-*%
%TO.N,GNDD*%
X131825000Y-72100000D03*
%TO.P,U8,12,+*%
%TO.N,GND*%
X131825000Y-73370000D03*
%TO.P,U8,13,-*%
%TO.N,Net-(C12-Pad2)*%
X131825000Y-74640000D03*
%TO.P,U8,14*%
%TO.N,/cv_to_3v3_A/cv_3v3_4*%
X131825000Y-75910000D03*
%TD*%
D11*
%TO.P,U4,1,D2*%
%TO.N,/gate_to_3v3_C/GATE_3V3_2*%
X150975000Y-88455000D03*
%TO.P,U4,2,D3*%
%TO.N,/gate_to_3v3_C/GATE_3V3_3*%
X150975000Y-89725000D03*
%TO.P,U4,3,D4*%
%TO.N,/gate_to_3v3_C/GATE_3V3_4*%
X150975000Y-90995000D03*
%TO.P,U4,4,D5*%
%TO.N,unconnected-(U4-Pad4)*%
X150975000Y-92265000D03*
%TO.P,U4,5,D6*%
%TO.N,unconnected-(U4-Pad5)*%
X150975000Y-93535000D03*
%TO.P,U4,6,D7*%
%TO.N,unconnected-(U4-Pad6)*%
X150975000Y-94805000D03*
%TO.P,U4,7,D8*%
%TO.N,unconnected-(U4-Pad7)*%
X150975000Y-96075000D03*
%TO.P,U4,8,GND*%
%TO.N,GNDD*%
X150975000Y-97345000D03*
%TO.P,U4,9,Qh*%
%TO.N,/POCI*%
X155925000Y-97345000D03*
%TO.P,U4,10,~{OE}*%
%TO.N,/GATE_IN_EN*%
X155925000Y-96075000D03*
%TO.P,U4,11,SCLK*%
%TO.N,/SCK*%
X155925000Y-94805000D03*
%TO.P,U4,12,LATCH*%
%TO.N,/LATCH_GATES*%
X155925000Y-93535000D03*
%TO.P,U4,13,~{LOAD}*%
%TO.N,/LOAD_GATES*%
X155925000Y-92265000D03*
%TO.P,U4,14,SER*%
%TO.N,Net-(U2-Pad9)*%
X155925000Y-90995000D03*
%TO.P,U4,15,D1*%
%TO.N,/gate_to_3v3_C/GATE_3V3_1*%
X155925000Y-89725000D03*
%TO.P,U4,16,Vcc*%
%TO.N,+3V3*%
X155925000Y-88455000D03*
%TD*%
%TO.P,U2,1,D2*%
%TO.N,/gate_to_3v3_A/GATE_3V3_2*%
X142525000Y-88455000D03*
%TO.P,U2,2,D3*%
%TO.N,/gate_to_3v3_A/GATE_3V3_3*%
X142525000Y-89725000D03*
%TO.P,U2,3,D4*%
%TO.N,/gate_to_3v3_A/GATE_3V3_4*%
X142525000Y-90995000D03*
%TO.P,U2,4,D5*%
%TO.N,/gate_to_3v3_B/GATE_3V3_1*%
X142525000Y-92265000D03*
%TO.P,U2,5,D6*%
%TO.N,/gate_to_3v3_B/GATE_3V3_2*%
X142525000Y-93535000D03*
%TO.P,U2,6,D7*%
%TO.N,/gate_to_3v3_B/GATE_3V3_3*%
X142525000Y-94805000D03*
%TO.P,U2,7,D8*%
%TO.N,/gate_to_3v3_B/GATE_3V3_4*%
X142525000Y-96075000D03*
%TO.P,U2,8,GND*%
%TO.N,GNDD*%
X142525000Y-97345000D03*
%TO.P,U2,9,Qh*%
%TO.N,Net-(U2-Pad9)*%
X147475000Y-97345000D03*
%TO.P,U2,10,~{OE}*%
%TO.N,/GATE_IN_EN*%
X147475000Y-96075000D03*
%TO.P,U2,11,SCLK*%
%TO.N,/SCK*%
X147475000Y-94805000D03*
%TO.P,U2,12,LATCH*%
%TO.N,/LATCH_GATES*%
X147475000Y-93535000D03*
%TO.P,U2,13,~{LOAD}*%
%TO.N,/LOAD_GATES*%
X147475000Y-92265000D03*
%TO.P,U2,14,SER*%
%TO.N,GNDD*%
X147475000Y-90995000D03*
%TO.P,U2,15,D1*%
%TO.N,/gate_to_3v3_A/GATE_3V3_1*%
X147475000Y-89725000D03*
%TO.P,U2,16,Vcc*%
%TO.N,+3V3*%
X147475000Y-88455000D03*
%TD*%
D12*
%TO.P,C17,1*%
%TO.N,Net-(C17-Pad1)*%
X127400000Y-119220000D03*
%TO.P,C17,2*%
%TO.N,GND*%
X127400000Y-120180000D03*
%TD*%
D13*
%TO.P,C18,1*%
%TO.N,/3v3_to_cv/CV_OUT_1*%
X126220000Y-112800000D03*
%TO.P,C18,2*%
%TO.N,Net-(C18-Pad2)*%
X127180000Y-112800000D03*
%TD*%
D14*
%TO.P,C19,1*%
%TO.N,/3v3_to_cv/CV_OUT_3*%
X133880000Y-103500000D03*
%TO.P,C19,2*%
%TO.N,Net-(C19-Pad2)*%
X132920000Y-103500000D03*
%TD*%
%TO.P,C20,1*%
%TO.N,/3v3_to_cv/CV_OUT_2*%
X133880000Y-112800000D03*
%TO.P,C20,2*%
%TO.N,Net-(C20-Pad2)*%
X132920000Y-112800000D03*
%TD*%
D13*
%TO.P,C21,1*%
%TO.N,/3v3_to_cv/CV_OUT_4*%
X127120000Y-103400000D03*
%TO.P,C21,2*%
%TO.N,Net-(C21-Pad2)*%
X128080000Y-103400000D03*
%TD*%
D15*
%TO.P,C13,1*%
%TO.N,/cv_to_3v3_B/cv_3v3_1*%
X138600000Y-89180000D03*
%TO.P,C13,2*%
%TO.N,Net-(C13-Pad2)*%
X138600000Y-88220000D03*
%TD*%
D12*
%TO.P,C14,1*%
%TO.N,/cv_to_3v3_B/cv_3v3_3*%
X126300000Y-81920000D03*
%TO.P,C14,2*%
%TO.N,Net-(C14-Pad2)*%
X126300000Y-82880000D03*
%TD*%
%TO.P,C15,1*%
%TO.N,/cv_to_3v3_B/cv_3v3_2*%
X138700000Y-82020000D03*
%TO.P,C15,2*%
%TO.N,Net-(C15-Pad2)*%
X138700000Y-82980000D03*
%TD*%
D15*
%TO.P,C16,1*%
%TO.N,/cv_to_3v3_B/cv_3v3_4*%
X126300000Y-89280000D03*
%TO.P,C16,2*%
%TO.N,Net-(C16-Pad2)*%
X126300000Y-88320000D03*
%TD*%
%TO.P,C9,1*%
%TO.N,/cv_to_3v3_A/cv_3v3_1*%
X141100000Y-75880000D03*
%TO.P,C9,2*%
%TO.N,Net-(C9-Pad2)*%
X141100000Y-74920000D03*
%TD*%
D12*
%TO.P,C10,1*%
%TO.N,/cv_to_3v3_A/cv_3v3_3*%
X127900000Y-68520000D03*
%TO.P,C10,2*%
%TO.N,Net-(C10-Pad2)*%
X127900000Y-69480000D03*
%TD*%
%TO.P,C11,1*%
%TO.N,/cv_to_3v3_A/cv_3v3_2*%
X141100000Y-68520000D03*
%TO.P,C11,2*%
%TO.N,Net-(C11-Pad2)*%
X141100000Y-69480000D03*
%TD*%
D15*
%TO.P,C12,1*%
%TO.N,/cv_to_3v3_A/cv_3v3_4*%
X127900000Y-75880000D03*
%TO.P,C12,2*%
%TO.N,Net-(C12-Pad2)*%
X127900000Y-74920000D03*
%TD*%
D13*
%TO.P,C1,1*%
%TO.N,Net-(C1-Pad1)*%
X119520000Y-115800000D03*
%TO.P,C1,2*%
%TO.N,GND*%
X120480000Y-115800000D03*
%TD*%
D15*
%TO.P,C2,1*%
%TO.N,+3V3*%
X144500000Y-86980000D03*
%TO.P,C2,2*%
%TO.N,GNDD*%
X144500000Y-86020000D03*
%TD*%
%TO.P,C3,1*%
%TO.N,+3V3*%
X138500000Y-97480000D03*
%TO.P,C3,2*%
%TO.N,GNDD*%
X138500000Y-96520000D03*
%TD*%
D14*
%TO.P,C4,1*%
%TO.N,+3V3*%
X156480000Y-83600000D03*
%TO.P,C4,2*%
%TO.N,GNDD*%
X155520000Y-83600000D03*
%TD*%
D12*
%TO.P,C5,1*%
%TO.N,+3V3*%
X139000000Y-110220000D03*
%TO.P,C5,2*%
%TO.N,GNDD*%
X139000000Y-111180000D03*
%TD*%
%TO.P,C6,1*%
%TO.N,+3V3*%
X148000000Y-106520000D03*
%TO.P,C6,2*%
%TO.N,GNDD*%
X148000000Y-107480000D03*
%TD*%
%TO.P,C7,1*%
%TO.N,GNDD*%
X147900000Y-101620000D03*
%TO.P,C7,2*%
%TO.N,+3V3*%
X147900000Y-102580000D03*
%TD*%
D13*
%TO.P,C8,1*%
%TO.N,+3V3*%
X147820000Y-103600000D03*
%TO.P,C8,2*%
%TO.N,GNDD*%
X148780000Y-103600000D03*
%TD*%
D16*
%TO.P,D1,1,K*%
%TO.N,Net-(D1-Pad1)*%
X138050000Y-121900000D03*
%TO.P,D1,2,A*%
%TO.N,-12V*%
X134550000Y-121900000D03*
%TD*%
%TO.P,D2,1,K*%
%TO.N,+12V*%
X134550000Y-118500000D03*
%TO.P,D2,2,A*%
%TO.N,Net-(D2-Pad2)*%
X138050000Y-118500000D03*
%TD*%
D17*
%TO.P,J2,1,Pin_1*%
%TO.N,/gate_to_3v3_B/GATE_IN_1*%
X116600000Y-67832000D03*
D18*
%TO.P,J2,2,Pin_2*%
%TO.N,/gate_to_3v3_B/GATE_IN_2*%
X116600000Y-65800000D03*
%TO.P,J2,3,Pin_3*%
%TO.N,/gate_to_3v3_B/GATE_IN_3*%
X116600000Y-63800000D03*
%TO.P,J2,4,Pin_4*%
%TO.N,/gate_to_3v3_B/GATE_IN_4*%
X116600000Y-61800000D03*
%TD*%
D17*
%TO.P,J3,1,Pin_1*%
%TO.N,/gate_to_3v3_A/GATE_IN_1*%
X116600000Y-56632000D03*
D18*
%TO.P,J3,2,Pin_2*%
%TO.N,/gate_to_3v3_A/GATE_IN_2*%
X116600000Y-54600000D03*
%TO.P,J3,3,Pin_3*%
%TO.N,/gate_to_3v3_A/GATE_IN_3*%
X116600000Y-52600000D03*
%TO.P,J3,4,Pin_4*%
%TO.N,/gate_to_3v3_A/GATE_IN_4*%
X116600000Y-50600000D03*
%TD*%
D17*
%TO.P,J4,1,Pin_1*%
%TO.N,/cv_to_3v3_A/cv_in_1*%
X116600000Y-91532000D03*
D18*
%TO.P,J4,2,Pin_2*%
%TO.N,/cv_to_3v3_A/cv_in_2*%
X116600000Y-89500000D03*
%TO.P,J4,3,Pin_3*%
%TO.N,/cv_to_3v3_A/cv_in_3*%
X116600000Y-87500000D03*
%TO.P,J4,4,Pin_4*%
%TO.N,/cv_to_3v3_A/cv_in_4*%
X116600000Y-85500000D03*
%TD*%
D17*
%TO.P,J7,1,Pin_1*%
%TO.N,/gate_to_3v3_C/GATE_IN_1*%
X116600000Y-79732000D03*
D18*
%TO.P,J7,2,Pin_2*%
%TO.N,/gate_to_3v3_C/GATE_IN_2*%
X116600000Y-77700000D03*
%TO.P,J7,3,Pin_3*%
%TO.N,/gate_to_3v3_C/GATE_IN_3*%
X116600000Y-75700000D03*
%TO.P,J7,4,Pin_4*%
%TO.N,/gate_to_3v3_C/GATE_IN_4*%
X116600000Y-73700000D03*
%TD*%
D19*
%TO.P,R65,1*%
%TO.N,Net-(R65-Pad1)*%
X118000000Y-104190000D03*
%TO.P,R65,2*%
%TO.N,/3v3_to_gate/gate_1*%
X118000000Y-105210000D03*
%TD*%
D20*
%TO.P,R66,1*%
%TO.N,Net-(R66-Pad1)*%
X120300000Y-95510000D03*
%TO.P,R66,2*%
%TO.N,/3v3_to_gate/gate_3*%
X120300000Y-94490000D03*
%TD*%
D21*
%TO.P,R67,1*%
%TO.N,Net-(R67-Pad1)*%
X121637500Y-111000000D03*
%TO.P,R67,2*%
%TO.N,GND*%
X124562500Y-111000000D03*
%TD*%
D22*
%TO.P,R68,1*%
%TO.N,Net-(R68-Pad1)*%
X125100000Y-96137500D03*
%TO.P,R68,2*%
%TO.N,GND*%
X125100000Y-99062500D03*
%TD*%
D23*
%TO.P,R69,1*%
%TO.N,Net-(R69-Pad1)*%
X115890000Y-104200000D03*
%TO.P,R69,2*%
%TO.N,Net-(R67-Pad1)*%
X116910000Y-104200000D03*
%TD*%
D24*
%TO.P,R70,1*%
%TO.N,Net-(R70-Pad1)*%
X122410000Y-95600000D03*
%TO.P,R70,2*%
%TO.N,Net-(R68-Pad1)*%
X121390000Y-95600000D03*
%TD*%
D23*
%TO.P,R71,1*%
%TO.N,/3v3_to_gate/gate_out_1*%
X113690000Y-104200000D03*
%TO.P,R71,2*%
%TO.N,Net-(R69-Pad1)*%
X114710000Y-104200000D03*
%TD*%
D24*
%TO.P,R72,1*%
%TO.N,/3v3_to_gate/gate_out_3*%
X124410000Y-94600000D03*
%TO.P,R72,2*%
%TO.N,Net-(R70-Pad1)*%
X123390000Y-94600000D03*
%TD*%
D23*
%TO.P,R73,1*%
%TO.N,Net-(R73-Pad1)*%
X121290000Y-105700000D03*
%TO.P,R73,2*%
%TO.N,/3v3_to_gate/gate_2*%
X122310000Y-105700000D03*
%TD*%
D20*
%TO.P,R74,1*%
%TO.N,Net-(R74-Pad1)*%
X118100000Y-95410000D03*
%TO.P,R74,2*%
%TO.N,/3v3_to_gate/gate_4*%
X118100000Y-94390000D03*
%TD*%
D22*
%TO.P,R75,1*%
%TO.N,Net-(R75-Pad1)*%
X124200000Y-105937500D03*
%TO.P,R75,2*%
%TO.N,GND*%
X124200000Y-108862500D03*
%TD*%
%TO.P,R76,1*%
%TO.N,Net-(R76-Pad1)*%
X126000000Y-91237500D03*
%TO.P,R76,2*%
%TO.N,GND*%
X126000000Y-94162500D03*
%TD*%
D24*
%TO.P,R77,1*%
%TO.N,Net-(R77-Pad1)*%
X122310000Y-104400000D03*
%TO.P,R77,2*%
%TO.N,Net-(R75-Pad1)*%
X121290000Y-104400000D03*
%TD*%
D23*
%TO.P,R78,1*%
%TO.N,Net-(R78-Pad1)*%
X115880000Y-95300000D03*
%TO.P,R78,2*%
%TO.N,Net-(R76-Pad1)*%
X116900000Y-95300000D03*
%TD*%
D24*
%TO.P,R79,1*%
%TO.N,/3v3_to_gate/gate_out_2*%
X124410000Y-104400000D03*
%TO.P,R79,2*%
%TO.N,Net-(R77-Pad1)*%
X123390000Y-104400000D03*
%TD*%
D23*
%TO.P,R80,1*%
%TO.N,/3v3_to_gate/gate_out_4*%
X113790000Y-95300000D03*
%TO.P,R80,2*%
%TO.N,Net-(R78-Pad1)*%
X114810000Y-95300000D03*
%TD*%
D20*
%TO.P,R55,1*%
%TO.N,+12V*%
X124100000Y-120710000D03*
%TO.P,R55,2*%
%TO.N,Net-(C17-Pad1)*%
X124100000Y-119690000D03*
%TD*%
D25*
%TO.P,R56,1*%
%TO.N,Net-(C17-Pad1)*%
X125800000Y-118875000D03*
%TO.P,R56,2*%
%TO.N,GND*%
X125800000Y-120525000D03*
%TD*%
D21*
%TO.P,R59,1*%
%TO.N,/3v3_to_cv/CV_OUT_1*%
X125237500Y-114800000D03*
%TO.P,R59,2*%
%TO.N,Net-(C18-Pad2)*%
X128162500Y-114800000D03*
%TD*%
D20*
%TO.P,R58,1*%
%TO.N,/3v3_to_cv/CV_BIAS*%
X131300000Y-102110000D03*
%TO.P,R58,2*%
%TO.N,Net-(C19-Pad2)*%
X131300000Y-101090000D03*
%TD*%
D19*
%TO.P,R57,1*%
%TO.N,/3v3_to_cv/CV_BIAS*%
X129800000Y-114390000D03*
%TO.P,R57,2*%
%TO.N,Net-(C18-Pad2)*%
X129800000Y-115410000D03*
%TD*%
D26*
%TO.P,R60,1*%
%TO.N,/3v3_to_cv/CV_OUT_3*%
X135662500Y-101600000D03*
%TO.P,R60,2*%
%TO.N,Net-(C19-Pad2)*%
X132737500Y-101600000D03*
%TD*%
D19*
%TO.P,R61,1*%
%TO.N,/3v3_to_cv/CV_BIAS*%
X131500000Y-114390000D03*
%TO.P,R61,2*%
%TO.N,Net-(C20-Pad2)*%
X131500000Y-115410000D03*
%TD*%
D20*
%TO.P,R62,1*%
%TO.N,/3v3_to_cv/CV_BIAS*%
X130000000Y-102110000D03*
%TO.P,R62,2*%
%TO.N,Net-(C21-Pad2)*%
X130000000Y-101090000D03*
%TD*%
D26*
%TO.P,R63,1*%
%TO.N,/3v3_to_cv/CV_OUT_2*%
X136362500Y-114800000D03*
%TO.P,R63,2*%
%TO.N,Net-(C20-Pad2)*%
X133437500Y-114800000D03*
%TD*%
D21*
%TO.P,R64,1*%
%TO.N,/3v3_to_cv/CV_OUT_4*%
X125537500Y-101500000D03*
%TO.P,R64,2*%
%TO.N,Net-(C21-Pad2)*%
X128462500Y-101500000D03*
%TD*%
D27*
%TO.P,R19,2*%
%TO.N,/AREF_-10V*%
X138480000Y-87000000D03*
%TO.P,R19,1*%
%TO.N,Net-(C13-Pad2)*%
X139120000Y-87000000D03*
%TD*%
D28*
%TO.P,R20,1*%
%TO.N,/cv_to_3v3_B/cv_in_1*%
X146112500Y-73700000D03*
%TO.P,R20,2*%
%TO.N,Net-(C13-Pad2)*%
X144287500Y-73700000D03*
%TD*%
D29*
%TO.P,R21,2*%
%TO.N,/AREF_-10V*%
X126520000Y-83900000D03*
%TO.P,R21,1*%
%TO.N,Net-(C14-Pad2)*%
X125880000Y-83900000D03*
%TD*%
D30*
%TO.P,R22,1*%
%TO.N,/cv_to_3v3_B/cv_in_3*%
X147200000Y-67487500D03*
%TO.P,R22,2*%
%TO.N,Net-(C14-Pad2)*%
X147200000Y-69312500D03*
%TD*%
D31*
%TO.P,R23,1*%
%TO.N,/cv_to_3v3_B/cv_3v3_1*%
X137100000Y-89525000D03*
%TO.P,R23,2*%
%TO.N,Net-(C13-Pad2)*%
X137100000Y-87875000D03*
%TD*%
D25*
%TO.P,R24,1*%
%TO.N,/cv_to_3v3_B/cv_3v3_3*%
X127700000Y-81575000D03*
%TO.P,R24,2*%
%TO.N,Net-(C14-Pad2)*%
X127700000Y-83225000D03*
%TD*%
D27*
%TO.P,R25,2*%
%TO.N,/AREF_-10V*%
X138180000Y-84100000D03*
%TO.P,R25,1*%
%TO.N,Net-(C15-Pad2)*%
X138820000Y-84100000D03*
%TD*%
D28*
%TO.P,R26,1*%
%TO.N,/cv_to_3v3_B/cv_in_2*%
X146112500Y-71600000D03*
%TO.P,R26,2*%
%TO.N,Net-(C15-Pad2)*%
X144287500Y-71600000D03*
%TD*%
D29*
%TO.P,R27,2*%
%TO.N,/AREF_-10V*%
X126800000Y-86700000D03*
%TO.P,R27,1*%
%TO.N,Net-(C16-Pad2)*%
X126160000Y-86700000D03*
%TD*%
D30*
%TO.P,R28,1*%
%TO.N,/cv_to_3v3_B/cv_in_4*%
X144200000Y-67487500D03*
%TO.P,R28,2*%
%TO.N,Net-(C16-Pad2)*%
X144200000Y-69312500D03*
%TD*%
D25*
%TO.P,R29,1*%
%TO.N,/cv_to_3v3_B/cv_3v3_2*%
X137000000Y-81675000D03*
%TO.P,R29,2*%
%TO.N,Net-(C15-Pad2)*%
X137000000Y-83325000D03*
%TD*%
D31*
%TO.P,R30,1*%
%TO.N,/cv_to_3v3_B/cv_3v3_4*%
X127700000Y-89625000D03*
%TO.P,R30,2*%
%TO.N,Net-(C16-Pad2)*%
X127700000Y-87975000D03*
%TD*%
D32*
%TO.P,R31,1*%
%TO.N,/gate_to_3v3_A/GATE_IN_1*%
X140987500Y-46900000D03*
%TO.P,R31,2*%
%TO.N,GNDD*%
X142812500Y-46900000D03*
%TD*%
%TO.P,R32,1*%
%TO.N,/gate_to_3v3_A/GATE_IN_3*%
X127787500Y-47100000D03*
%TO.P,R32,2*%
%TO.N,GNDD*%
X129612500Y-47100000D03*
%TD*%
D19*
%TO.P,R33,1*%
%TO.N,/gate_to_3v3_A/GATE_3V3_1*%
X144600000Y-46390000D03*
%TO.P,R33,2*%
%TO.N,GNDD*%
X144600000Y-47410000D03*
%TD*%
%TO.P,R34,1*%
%TO.N,/gate_to_3v3_A/GATE_3V3_3*%
X131200000Y-46590000D03*
%TO.P,R34,2*%
%TO.N,GNDD*%
X131200000Y-47610000D03*
%TD*%
D32*
%TO.P,R35,1*%
%TO.N,/gate_to_3v3_A/GATE_IN_2*%
X134187500Y-47100000D03*
%TO.P,R35,2*%
%TO.N,GNDD*%
X136012500Y-47100000D03*
%TD*%
%TO.P,R36,1*%
%TO.N,/gate_to_3v3_A/GATE_IN_4*%
X120887500Y-47200000D03*
%TO.P,R36,2*%
%TO.N,GNDD*%
X122712500Y-47200000D03*
%TD*%
D19*
%TO.P,R37,1*%
%TO.N,/gate_to_3v3_A/GATE_3V3_2*%
X138000000Y-46590000D03*
%TO.P,R37,2*%
%TO.N,GNDD*%
X138000000Y-47610000D03*
%TD*%
%TO.P,R38,1*%
%TO.N,/gate_to_3v3_A/GATE_3V3_4*%
X124800000Y-46690000D03*
%TO.P,R38,2*%
%TO.N,GNDD*%
X124800000Y-47710000D03*
%TD*%
D27*
%TO.P,R7,2*%
%TO.N,/AREF_-10V*%
X140580000Y-74000000D03*
%TO.P,R7,1*%
%TO.N,Net-(C9-Pad2)*%
X141220000Y-74000000D03*
%TD*%
D32*
%TO.P,R8,1*%
%TO.N,/cv_to_3v3_A/cv_in_1*%
X120687500Y-91600000D03*
%TO.P,R8,2*%
%TO.N,Net-(C9-Pad2)*%
X122512500Y-91600000D03*
%TD*%
D29*
%TO.P,R9,2*%
%TO.N,/AREF_-10V*%
X127920000Y-70400000D03*
%TO.P,R9,1*%
%TO.N,Net-(C10-Pad2)*%
X127280000Y-70400000D03*
%TD*%
D32*
%TO.P,R10,1*%
%TO.N,/cv_to_3v3_A/cv_in_3*%
X120587500Y-86800000D03*
%TO.P,R10,2*%
%TO.N,Net-(C10-Pad2)*%
X122412500Y-86800000D03*
%TD*%
D31*
%TO.P,R11,1*%
%TO.N,/cv_to_3v3_A/cv_3v3_1*%
X139300000Y-76250000D03*
%TO.P,R11,2*%
%TO.N,Net-(C9-Pad2)*%
X139300000Y-74600000D03*
%TD*%
D25*
%TO.P,R12,1*%
%TO.N,/cv_to_3v3_A/cv_3v3_3*%
X129400000Y-68075000D03*
%TO.P,R12,2*%
%TO.N,Net-(C10-Pad2)*%
X129400000Y-69725000D03*
%TD*%
D27*
%TO.P,R13,2*%
%TO.N,/AREF_-10V*%
X140760000Y-70500000D03*
%TO.P,R13,1*%
%TO.N,Net-(C11-Pad2)*%
X141400000Y-70500000D03*
%TD*%
D32*
%TO.P,R14,1*%
%TO.N,/cv_to_3v3_A/cv_in_2*%
X120687500Y-89300000D03*
%TO.P,R14,2*%
%TO.N,Net-(C11-Pad2)*%
X122512500Y-89300000D03*
%TD*%
D29*
%TO.P,R15,2*%
%TO.N,/AREF_-10V*%
X127920000Y-73900000D03*
%TO.P,R15,1*%
%TO.N,Net-(C12-Pad2)*%
X127280000Y-73900000D03*
%TD*%
D32*
%TO.P,R16,1*%
%TO.N,/cv_to_3v3_A/cv_in_4*%
X120587500Y-84300000D03*
%TO.P,R16,2*%
%TO.N,Net-(C12-Pad2)*%
X122412500Y-84300000D03*
%TD*%
D25*
%TO.P,R17,1*%
%TO.N,/cv_to_3v3_A/cv_3v3_2*%
X139400000Y-68175000D03*
%TO.P,R17,2*%
%TO.N,Net-(C11-Pad2)*%
X139400000Y-69825000D03*
%TD*%
D31*
%TO.P,R18,1*%
%TO.N,/cv_to_3v3_A/cv_3v3_4*%
X129400000Y-76250000D03*
%TO.P,R18,2*%
%TO.N,Net-(C12-Pad2)*%
X129400000Y-74600000D03*
%TD*%
D32*
%TO.P,R39,1*%
%TO.N,/gate_to_3v3_B/GATE_IN_1*%
X144587500Y-55000000D03*
%TO.P,R39,2*%
%TO.N,GNDD*%
X146412500Y-55000000D03*
%TD*%
%TO.P,R40,1*%
%TO.N,/gate_to_3v3_B/GATE_IN_3*%
X132187500Y-54900000D03*
%TO.P,R40,2*%
%TO.N,GNDD*%
X134012500Y-54900000D03*
%TD*%
D19*
%TO.P,R41,1*%
%TO.N,/gate_to_3v3_B/GATE_3V3_1*%
X148100000Y-54490000D03*
%TO.P,R41,2*%
%TO.N,GNDD*%
X148100000Y-55510000D03*
%TD*%
%TO.P,R42,1*%
%TO.N,/gate_to_3v3_B/GATE_3V3_3*%
X136000000Y-54390000D03*
%TO.P,R42,2*%
%TO.N,GNDD*%
X136000000Y-55410000D03*
%TD*%
D32*
%TO.P,R43,1*%
%TO.N,/gate_to_3v3_B/GATE_IN_2*%
X138387500Y-54900000D03*
%TO.P,R43,2*%
%TO.N,GNDD*%
X140212500Y-54900000D03*
%TD*%
%TO.P,R44,1*%
%TO.N,/gate_to_3v3_B/GATE_IN_4*%
X126087500Y-54900000D03*
%TO.P,R44,2*%
%TO.N,GNDD*%
X127912500Y-54900000D03*
%TD*%
D19*
%TO.P,R45,1*%
%TO.N,/gate_to_3v3_B/GATE_3V3_2*%
X142100000Y-54390000D03*
%TO.P,R45,2*%
%TO.N,GNDD*%
X142100000Y-55410000D03*
%TD*%
%TO.P,R46,1*%
%TO.N,/gate_to_3v3_B/GATE_3V3_4*%
X129800000Y-54390000D03*
%TO.P,R46,2*%
%TO.N,GNDD*%
X129800000Y-55410000D03*
%TD*%
D24*
%TO.P,R1,1*%
%TO.N,-12V*%
X118410000Y-115800000D03*
%TO.P,R1,2*%
%TO.N,Net-(C1-Pad1)*%
X117390000Y-115800000D03*
%TD*%
D23*
%TO.P,R2,1*%
%TO.N,Net-(C1-Pad1)*%
X119090000Y-114700000D03*
%TO.P,R2,2*%
%TO.N,GND*%
X120110000Y-114700000D03*
%TD*%
D32*
%TO.P,R47,1*%
%TO.N,/gate_to_3v3_C/GATE_IN_1*%
X144587500Y-63200000D03*
%TO.P,R47,2*%
%TO.N,GNDD*%
X146412500Y-63200000D03*
%TD*%
%TO.P,R48,1*%
%TO.N,/gate_to_3v3_C/GATE_IN_3*%
X132287500Y-63300000D03*
%TO.P,R48,2*%
%TO.N,GNDD*%
X134112500Y-63300000D03*
%TD*%
D19*
%TO.P,R49,1*%
%TO.N,/gate_to_3v3_C/GATE_3V3_1*%
X148200000Y-62590000D03*
%TO.P,R49,2*%
%TO.N,GNDD*%
X148200000Y-63610000D03*
%TD*%
%TO.P,R50,1*%
%TO.N,/gate_to_3v3_C/GATE_3V3_3*%
X136000000Y-62790000D03*
%TO.P,R50,2*%
%TO.N,GNDD*%
X136000000Y-63810000D03*
%TD*%
D32*
%TO.P,R51,1*%
%TO.N,/gate_to_3v3_C/GATE_IN_2*%
X138287500Y-63200000D03*
%TO.P,R51,2*%
%TO.N,GNDD*%
X140112500Y-63200000D03*
%TD*%
%TO.P,R52,1*%
%TO.N,/gate_to_3v3_C/GATE_IN_4*%
X126287500Y-63300000D03*
%TO.P,R52,2*%
%TO.N,GNDD*%
X128112500Y-63300000D03*
%TD*%
D19*
%TO.P,R53,1*%
%TO.N,/gate_to_3v3_C/GATE_3V3_2*%
X142000000Y-62700000D03*
%TO.P,R53,2*%
%TO.N,GNDD*%
X142000000Y-63720000D03*
%TD*%
%TO.P,R54,1*%
%TO.N,/gate_to_3v3_C/GATE_3V3_4*%
X129800000Y-62790000D03*
%TO.P,R54,2*%
%TO.N,GNDD*%
X129800000Y-63810000D03*
%TD*%
D20*
%TO.P,R3,1*%
%TO.N,GNDD*%
X143700000Y-118810000D03*
%TO.P,R3,2*%
%TO.N,/3v3_to_gate/gate_1*%
X143700000Y-117790000D03*
%TD*%
%TO.P,R4,1*%
%TO.N,GNDD*%
X139800000Y-118810000D03*
%TO.P,R4,2*%
%TO.N,/3v3_to_gate/gate_2*%
X139800000Y-117790000D03*
%TD*%
D19*
%TO.P,R5,1*%
%TO.N,/3v3_to_gate/gate_3*%
X141100000Y-117790000D03*
%TO.P,R5,2*%
%TO.N,GNDD*%
X141100000Y-118810000D03*
%TD*%
D33*
%TO.P,U24,1*%
%TO.N,Net-(R69-Pad1)*%
X114890000Y-102375000D03*
%TO.P,U24,2,-*%
%TO.N,Net-(R67-Pad1)*%
X116160000Y-102375000D03*
%TO.P,U24,3,+*%
%TO.N,Net-(R65-Pad1)*%
X117430000Y-102375000D03*
%TO.P,U24,4,V+*%
%TO.N,+12V*%
X118700000Y-102375000D03*
%TO.P,U24,5,+*%
%TO.N,Net-(R73-Pad1)*%
X119970000Y-102375000D03*
%TO.P,U24,6,-*%
%TO.N,Net-(R75-Pad1)*%
X121240000Y-102375000D03*
%TO.P,U24,7*%
%TO.N,Net-(R77-Pad1)*%
X122510000Y-102375000D03*
%TO.P,U24,8*%
%TO.N,Net-(R70-Pad1)*%
X122510000Y-97425000D03*
%TO.P,U24,9,-*%
%TO.N,Net-(R68-Pad1)*%
X121240000Y-97425000D03*
%TO.P,U24,10,+*%
%TO.N,Net-(R66-Pad1)*%
X119970000Y-97425000D03*
%TO.P,U24,11,V-*%
%TO.N,-12V*%
X118700000Y-97425000D03*
%TO.P,U24,12,+*%
%TO.N,Net-(R74-Pad1)*%
X117430000Y-97425000D03*
%TO.P,U24,13,-*%
%TO.N,Net-(R76-Pad1)*%
X116160000Y-97425000D03*
%TO.P,U24,14*%
%TO.N,Net-(R78-Pad1)*%
X114890000Y-97425000D03*
%TD*%
%TO.P,U23,1*%
%TO.N,/3v3_to_cv/CV_OUT_1*%
X126290000Y-110575000D03*
%TO.P,U23,2,-*%
%TO.N,Net-(C18-Pad2)*%
X127560000Y-110575000D03*
%TO.P,U23,3,+*%
%TO.N,/3v3_to_cv/CV_3V3_1*%
X128830000Y-110575000D03*
%TO.P,U23,4,V+*%
%TO.N,+12V*%
X130100000Y-110575000D03*
%TO.P,U23,5,+*%
%TO.N,/3v3_to_cv/CV_3V3_2*%
X131370000Y-110575000D03*
%TO.P,U23,6,-*%
%TO.N,Net-(C20-Pad2)*%
X132640000Y-110575000D03*
%TO.P,U23,7*%
%TO.N,/3v3_to_cv/CV_OUT_2*%
X133910000Y-110575000D03*
%TO.P,U23,8*%
%TO.N,/3v3_to_cv/CV_OUT_3*%
X133910000Y-105625000D03*
%TO.P,U23,9,-*%
%TO.N,Net-(C19-Pad2)*%
X132640000Y-105625000D03*
%TO.P,U23,10,+*%
%TO.N,/3v3_to_cv/CV_3V3_3*%
X131370000Y-105625000D03*
%TO.P,U23,11,V-*%
%TO.N,-12V*%
X130100000Y-105625000D03*
%TO.P,U23,12,+*%
%TO.N,/3v3_to_cv/CV_3V3_4*%
X128830000Y-105625000D03*
%TO.P,U23,13,-*%
%TO.N,Net-(C21-Pad2)*%
X127560000Y-105625000D03*
%TO.P,U23,14*%
%TO.N,/3v3_to_cv/CV_OUT_4*%
X126290000Y-105625000D03*
%TD*%
D34*
%TO.P,U3,14*%
%TO.N,N/C*%
X122410000Y-122775000D03*
%TO.P,U3,13*%
X121140000Y-122775000D03*
%TO.P,U3,12*%
X119870000Y-122775000D03*
%TO.P,U3,11,V-*%
%TO.N,-12V*%
X118600000Y-122775000D03*
%TO.P,U3,10*%
%TO.N,N/C*%
X117330000Y-122775000D03*
%TO.P,U3,9*%
X116060000Y-122775000D03*
%TO.P,U3,8*%
X114790000Y-122775000D03*
%TO.P,U3,7*%
%TO.N,/AREF_-10V*%
X114790000Y-117825000D03*
%TO.P,U3,6,-*%
X116060000Y-117825000D03*
%TO.P,U3,5,+*%
%TO.N,Net-(C1-Pad1)*%
X117330000Y-117825000D03*
%TO.P,U3,4,V+*%
%TO.N,+12V*%
X118600000Y-117825000D03*
%TO.P,U3,3,+*%
%TO.N,Net-(C17-Pad1)*%
X119870000Y-117825000D03*
%TO.P,U3,2,-*%
%TO.N,/3v3_to_cv/CV_BIAS*%
X121140000Y-117825000D03*
%TO.P,U3,1*%
X122410000Y-117825000D03*
%TD*%
D35*
%TO.P,U10,1,Gate*%
%TO.N,/gate_to_3v3_A/GATE_IN_1*%
X142750000Y-45200000D03*
%TO.P,U10,2,Source*%
%TO.N,/gate_to_3v3_A/GATE_3V3_1*%
X144650000Y-45200000D03*
%TO.P,U10,3,Drain*%
%TO.N,+3V3*%
X143700000Y-43200000D03*
%TD*%
%TO.P,U11,1,Gate*%
%TO.N,/gate_to_3v3_A/GATE_IN_3*%
X129350000Y-45300000D03*
%TO.P,U11,2,Source*%
%TO.N,/gate_to_3v3_A/GATE_3V3_3*%
X131250000Y-45300000D03*
%TO.P,U11,3,Drain*%
%TO.N,+3V3*%
X130300000Y-43300000D03*
%TD*%
%TO.P,U12,1,Gate*%
%TO.N,/gate_to_3v3_A/GATE_IN_2*%
X136050000Y-45300000D03*
%TO.P,U12,2,Source*%
%TO.N,/gate_to_3v3_A/GATE_3V3_2*%
X137950000Y-45300000D03*
%TO.P,U12,3,Drain*%
%TO.N,+3V3*%
X137000000Y-43300000D03*
%TD*%
%TO.P,U13,1,Gate*%
%TO.N,/gate_to_3v3_A/GATE_IN_4*%
X122850000Y-45400000D03*
%TO.P,U13,2,Source*%
%TO.N,/gate_to_3v3_A/GATE_3V3_4*%
X124750000Y-45400000D03*
%TO.P,U13,3,Drain*%
%TO.N,+3V3*%
X123800000Y-43400000D03*
%TD*%
%TO.P,U14,1,Gate*%
%TO.N,/gate_to_3v3_B/GATE_IN_1*%
X146250000Y-53200000D03*
%TO.P,U14,2,Source*%
%TO.N,/gate_to_3v3_B/GATE_3V3_1*%
X148150000Y-53200000D03*
%TO.P,U14,3,Drain*%
%TO.N,+3V3*%
X147200000Y-51200000D03*
%TD*%
%TO.P,U15,1,Gate*%
%TO.N,/gate_to_3v3_B/GATE_IN_3*%
X134150000Y-53100000D03*
%TO.P,U15,2,Source*%
%TO.N,/gate_to_3v3_B/GATE_3V3_3*%
X136050000Y-53100000D03*
%TO.P,U15,3,Drain*%
%TO.N,+3V3*%
X135100000Y-51100000D03*
%TD*%
%TO.P,U17,1,Gate*%
%TO.N,/gate_to_3v3_B/GATE_IN_4*%
X127950000Y-53100000D03*
%TO.P,U17,2,Source*%
%TO.N,/gate_to_3v3_B/GATE_3V3_4*%
X129850000Y-53100000D03*
%TO.P,U17,3,Drain*%
%TO.N,+3V3*%
X128900000Y-51100000D03*
%TD*%
D34*
%TO.P,U1,1,CH0*%
%TO.N,/cv_to_3v3_A/cv_3v3_1*%
X136845000Y-92525000D03*
%TO.P,U1,2,CH1*%
%TO.N,/cv_to_3v3_A/cv_3v3_2*%
X135575000Y-92525000D03*
%TO.P,U1,3,CH2*%
%TO.N,/cv_to_3v3_A/cv_3v3_3*%
X134305000Y-92525000D03*
%TO.P,U1,4,CH3*%
%TO.N,/cv_to_3v3_A/cv_3v3_4*%
X133035000Y-92525000D03*
%TO.P,U1,5,CH4*%
%TO.N,/cv_to_3v3_B/cv_3v3_1*%
X131765000Y-92525000D03*
%TO.P,U1,6,CH5*%
%TO.N,/cv_to_3v3_B/cv_3v3_2*%
X130495000Y-92525000D03*
%TO.P,U1,7,CH6*%
%TO.N,/cv_to_3v3_B/cv_3v3_3*%
X129225000Y-92525000D03*
%TO.P,U1,8,CH7*%
%TO.N,/cv_to_3v3_B/cv_3v3_4*%
X127955000Y-92525000D03*
%TO.P,U1,9,DGND*%
%TO.N,GNDD*%
X127955000Y-97475000D03*
%TO.P,U1,10,~{CS}/SHDN*%
%TO.N,/ADC_EN*%
X129225000Y-97475000D03*
%TO.P,U1,11,Din*%
%TO.N,/PICO*%
X130495000Y-97475000D03*
%TO.P,U1,12,Dout*%
%TO.N,/POCI*%
X131765000Y-97475000D03*
%TO.P,U1,13,CLK*%
%TO.N,/SCK*%
X133035000Y-97475000D03*
%TO.P,U1,14,AGND*%
%TO.N,GNDD*%
X134305000Y-97475000D03*
%TO.P,U1,15,Vref*%
%TO.N,+3V3*%
X135575000Y-97475000D03*
%TO.P,U1,16,Vdd*%
X136845000Y-97475000D03*
%TD*%
D36*
%TO.P,U5,1,A0*%
%TO.N,/CS[0]*%
X149825000Y-106662500D03*
%TO.P,U5,2,A1*%
%TO.N,/CS[1]*%
X150475000Y-106662500D03*
%TO.P,U5,3,A2*%
%TO.N,GNDD*%
X151125000Y-106662500D03*
%TO.P,U5,4,~{LE}*%
X151775000Y-106662500D03*
%TO.P,U5,5,~{E1}*%
%TO.N,/DESELECT*%
X152425000Y-106662500D03*
%TO.P,U5,6,E2*%
%TO.N,+3V3*%
X153075000Y-106662500D03*
%TO.P,U5,7,~{Y7}*%
%TO.N,unconnected-(U5-Pad7)*%
X153725000Y-106662500D03*
%TO.P,U5,8,GND*%
%TO.N,GNDD*%
X154375000Y-106662500D03*
%TO.P,U5,9,~{Y6}*%
%TO.N,unconnected-(U5-Pad9)*%
X154375000Y-100937500D03*
%TO.P,U5,10,~{Y5}*%
%TO.N,unconnected-(U5-Pad10)*%
X153725000Y-100937500D03*
%TO.P,U5,11,~{Y4}*%
%TO.N,unconnected-(U5-Pad11)*%
X153075000Y-100937500D03*
%TO.P,U5,12,~{Y3}*%
%TO.N,/GATE_OUT_EN*%
X152425000Y-100937500D03*
%TO.P,U5,13,~{Y2}*%
%TO.N,/GATE_IN_EN*%
X151775000Y-100937500D03*
%TO.P,U5,14,~{Y1}*%
%TO.N,/DAC_EN*%
X151125000Y-100937500D03*
%TO.P,U5,15,~{Y0}*%
%TO.N,/ADC_EN*%
X150475000Y-100937500D03*
%TO.P,U5,16,VCC*%
%TO.N,+3V3*%
X149825000Y-100937500D03*
%TD*%
D37*
%TO.P,U6,14,VSS*%
%TO.N,GNDD*%
X146450000Y-101950000D03*
%TO.P,U6,13,VFS*%
%TO.N,+3V3*%
X146450000Y-102600000D03*
%TO.P,U6,12,DI*%
%TO.N,/PICO*%
X146450000Y-103250000D03*
%TO.P,U6,11,CLK*%
%TO.N,/SCK*%
X146450000Y-103900000D03*
%TO.P,U6,10,CSB*%
%TO.N,/DAC_EN*%
X146450000Y-104550000D03*
%TO.P,U6,9,VDD*%
%TO.N,+3V3*%
X146450000Y-105200000D03*
%TO.P,U6,8*%
%TO.N,N/C*%
X146450000Y-105850000D03*
%TO.P,U6,7*%
X139550000Y-105850000D03*
%TO.P,U6,6,AO4*%
%TO.N,/3v3_to_cv/CV_3V3_1*%
X139550000Y-105200000D03*
%TO.P,U6,5,AO3*%
%TO.N,/3v3_to_cv/CV_3V3_2*%
X139550000Y-104550000D03*
%TO.P,U6,4*%
%TO.N,N/C*%
X139550000Y-103900000D03*
%TO.P,U6,3*%
X139550000Y-103250000D03*
%TO.P,U6,2,AO2*%
%TO.N,/3v3_to_cv/CV_3V3_3*%
X139550000Y-102600000D03*
%TO.P,U6,1,AO1*%
%TO.N,/3v3_to_cv/CV_3V3_4*%
X139550000Y-101950000D03*
%TD*%
D33*
%TO.P,U7,1,QB*%
%TO.N,/3v3_to_gate/gate_2*%
X140755000Y-115575000D03*
%TO.P,U7,2,QC*%
%TO.N,/3v3_to_gate/gate_3*%
X142025000Y-115575000D03*
%TO.P,U7,3,QD*%
%TO.N,/3v3_to_gate/gate_4*%
X143295000Y-115575000D03*
%TO.P,U7,4,QE*%
%TO.N,unconnected-(U7-Pad4)*%
X144565000Y-115575000D03*
%TO.P,U7,5,QF*%
%TO.N,unconnected-(U7-Pad5)*%
X145835000Y-115575000D03*
%TO.P,U7,6,QG*%
%TO.N,unconnected-(U7-Pad6)*%
X147105000Y-115575000D03*
%TO.P,U7,7,QH*%
%TO.N,unconnected-(U7-Pad7)*%
X148375000Y-115575000D03*
%TO.P,U7,8,GND*%
%TO.N,GNDD*%
X149645000Y-115575000D03*
%TO.P,U7,9,QH'*%
%TO.N,unconnected-(U7-Pad9)*%
X149645000Y-110625000D03*
%TO.P,U7,10,~{SRCLR}*%
%TO.N,+3V3*%
X148375000Y-110625000D03*
%TO.P,U7,11,SRCLK*%
%TO.N,/SCK*%
X147105000Y-110625000D03*
%TO.P,U7,12,RCLK*%
%TO.N,/GATE_OUT_EN*%
X145835000Y-110625000D03*
%TO.P,U7,13,~{OE}*%
%TO.N,GNDD*%
X144565000Y-110625000D03*
%TO.P,U7,14,SER*%
%TO.N,/PICO*%
X143295000Y-110625000D03*
%TO.P,U7,15,QA*%
%TO.N,/3v3_to_gate/gate_1*%
X142025000Y-110625000D03*
%TO.P,U7,16,VCC*%
%TO.N,+3V3*%
X140755000Y-110625000D03*
%TD*%
D35*
%TO.P,U18,1,Gate*%
%TO.N,/gate_to_3v3_C/GATE_IN_1*%
X146250000Y-61200000D03*
%TO.P,U18,2,Source*%
%TO.N,/gate_to_3v3_C/GATE_3V3_1*%
X148150000Y-61200000D03*
%TO.P,U18,3,Drain*%
%TO.N,+3V3*%
X147200000Y-59200000D03*
%TD*%
%TO.P,U19,1,Gate*%
%TO.N,/gate_to_3v3_C/GATE_IN_3*%
X134150000Y-61200000D03*
%TO.P,U19,2,Source*%
%TO.N,/gate_to_3v3_C/GATE_3V3_3*%
X136050000Y-61200000D03*
%TO.P,U19,3,Drain*%
%TO.N,+3V3*%
X135100000Y-59200000D03*
%TD*%
%TO.P,U20,1,Gate*%
%TO.N,/gate_to_3v3_C/GATE_IN_2*%
X140150000Y-61200000D03*
%TO.P,U20,2,Source*%
%TO.N,/gate_to_3v3_C/GATE_3V3_2*%
X142050000Y-61200000D03*
%TO.P,U20,3,Drain*%
%TO.N,+3V3*%
X141100000Y-59200000D03*
%TD*%
%TO.P,U21,1,Gate*%
%TO.N,/gate_to_3v3_C/GATE_IN_4*%
X127850000Y-61300000D03*
%TO.P,U21,2,Source*%
%TO.N,/gate_to_3v3_C/GATE_3V3_4*%
X129750000Y-61300000D03*
%TO.P,U21,3,Drain*%
%TO.N,+3V3*%
X128800000Y-59300000D03*
%TD*%
%TO.P,U16,1,Gate*%
%TO.N,/gate_to_3v3_B/GATE_IN_2*%
X140250000Y-53100000D03*
%TO.P,U16,2,Source*%
%TO.N,/gate_to_3v3_B/GATE_3V3_2*%
X142150000Y-53100000D03*
%TO.P,U16,3,Drain*%
%TO.N,+3V3*%
X141200000Y-51100000D03*
%TD*%
D20*
%TO.P,R6,1*%
%TO.N,GNDD*%
X142400000Y-118810000D03*
%TO.P,R6,2*%
%TO.N,/3v3_to_gate/gate_4*%
X142400000Y-117790000D03*
%TD*%
D17*
%TO.P,J1,1,Pin_1*%
%TO.N,/cv_to_3v3_B/cv_in_1*%
X154200000Y-49532000D03*
D18*
%TO.P,J1,2,Pin_2*%
%TO.N,/cv_to_3v3_B/cv_in_2*%
X154200000Y-47500000D03*
%TO.P,J1,3,Pin_3*%
%TO.N,/cv_to_3v3_B/cv_in_3*%
X154200000Y-45500000D03*
%TO.P,J1,4,Pin_4*%
%TO.N,/cv_to_3v3_B/cv_in_4*%
X154200000Y-43500000D03*
%TD*%
D17*
%TO.P,J8,1,Pin_1*%
%TO.N,/3v3_to_gate/gate_out_1*%
X154200000Y-61532000D03*
D18*
%TO.P,J8,2,Pin_2*%
%TO.N,/3v3_to_gate/gate_out_2*%
X154200000Y-59500000D03*
%TO.P,J8,3,Pin_3*%
%TO.N,/3v3_to_gate/gate_out_3*%
X154200000Y-57500000D03*
%TO.P,J8,4,Pin_4*%
%TO.N,/3v3_to_gate/gate_out_4*%
X154200000Y-55500000D03*
%TD*%
D17*
%TO.P,J9,1,Pin_1*%
%TO.N,/3v3_to_cv/CV_OUT_1*%
X154300000Y-73532000D03*
D18*
%TO.P,J9,2,Pin_2*%
%TO.N,/3v3_to_cv/CV_OUT_2*%
X154300000Y-71500000D03*
%TO.P,J9,3,Pin_3*%
%TO.N,/3v3_to_cv/CV_OUT_3*%
X154300000Y-69500000D03*
%TO.P,J9,4,Pin_4*%
%TO.N,/3v3_to_cv/CV_OUT_4*%
X154300000Y-67500000D03*
%TD*%
D38*
%TO.P,J5,1,-12V*%
%TO.N,Net-(D1-Pad1)*%
X129700000Y-129200000D03*
D39*
%TO.P,J5,2,-12V*%
X129700000Y-126660000D03*
%TO.P,J5,3,GND*%
%TO.N,GND*%
X127160000Y-129200000D03*
%TO.P,J5,4,GND*%
X127160000Y-126660000D03*
%TO.P,J5,5,GND*%
X124620000Y-129200000D03*
%TO.P,J5,6,GND*%
X124620000Y-126660000D03*
%TO.P,J5,7,GND*%
X122080000Y-129200000D03*
%TO.P,J5,8,GND*%
X122080000Y-126660000D03*
%TO.P,J5,9,+12V*%
%TO.N,Net-(D2-Pad2)*%
X119540000Y-129200000D03*
%TO.P,J5,10,+12V*%
X119540000Y-126660000D03*
%TD*%
D40*
%TO.P,J6,1*%
%TO.N,+3V3*%
X141900000Y-126700000D03*
D39*
%TO.P,J6,2*%
%TO.N,GNDD*%
X141900000Y-129240000D03*
%TO.P,J6,3*%
%TO.N,/SCK*%
X144440000Y-126700000D03*
%TO.P,J6,4*%
%TO.N,/CS[1]*%
X144440000Y-129240000D03*
%TO.P,J6,5*%
%TO.N,/POCI*%
X146980000Y-126700000D03*
%TO.P,J6,6*%
%TO.N,/DESELECT*%
X146980000Y-129240000D03*
%TO.P,J6,7*%
%TO.N,/PICO*%
X149520000Y-126700000D03*
%TO.P,J6,8*%
%TO.N,/LOAD_GATES*%
X149520000Y-129240000D03*
%TO.P,J6,9*%
%TO.N,/CS[0]*%
X152060000Y-126700000D03*
%TO.P,J6,10*%
%TO.N,/LATCH_GATES*%
X152060000Y-129240000D03*
%TD*%
D41*
%TO.N,Net-(U2-Pad9)*%
X152200000Y-85200000D03*
%TO.N,/gate_to_3v3_C/GATE_3V3_2*%
X150500000Y-85800000D03*
X151100000Y-83600000D03*
%TO.N,/gate_to_3v3_C/GATE_3V3_3*%
X145000000Y-76800000D03*
%TO.N,/gate_to_3v3_C/GATE_3V3_4*%
X144300000Y-77700000D03*
%TO.N,Net-(U2-Pad9)*%
X145400000Y-93100000D03*
%TO.N,GNDD*%
X140300000Y-97000000D03*
X149195000Y-90995000D03*
%TO.N,/gate_to_3v3_A/GATE_3V3_4*%
X144500000Y-91000000D03*
X142600000Y-85500000D03*
%TO.N,/CS[1]*%
X151800000Y-121200000D03*
X148100000Y-122000000D03*
%TO.N,/DESELECT*%
X154100000Y-109400000D03*
X152500000Y-108200000D03*
%TO.N,/SCK*%
X149150000Y-95250000D03*
%TO.N,GND*%
X136400000Y-86700000D03*
X126400000Y-92500000D03*
X138686501Y-73386501D03*
X125100000Y-97900000D03*
X124400000Y-112700000D03*
X127996998Y-86870000D03*
X130096998Y-70930000D03*
%TO.N,/3v3_to_cv/CV_OUT_1*%
X123500000Y-114700000D03*
X126300000Y-122900000D03*
%TO.N,/3v3_to_cv/CV_OUT_3*%
X155900000Y-118200000D03*
X136300000Y-111700000D03*
X156900000Y-80600000D03*
X139200000Y-114800000D03*
X156500000Y-109100000D03*
X136000000Y-103700000D03*
%TO.N,/3v3_to_cv/CV_OUT_2*%
X137600000Y-115800000D03*
X138000000Y-128400000D03*
%TO.N,/3v3_to_cv/CV_OUT_4*%
X157950010Y-108949990D03*
X127100000Y-107400000D03*
X138800000Y-116100000D03*
X135100000Y-112300000D03*
X155700000Y-119700000D03*
X156500000Y-78900000D03*
%TO.N,Net-(C13-Pad2)*%
X140700000Y-79500000D03*
X139900000Y-84600000D03*
%TO.N,Net-(C14-Pad2)*%
X145700000Y-68400000D03*
X134500000Y-78900000D03*
X126300000Y-80400000D03*
X145200000Y-75000000D03*
%TO.N,/cv_to_3v3_B/cv_3v3_3*%
X130500000Y-80300000D03*
X132200000Y-81400000D03*
%TO.N,Net-(C15-Pad2)*%
X139900000Y-82000000D03*
X139900000Y-78600000D03*
%TO.N,/cv_to_3v3_A/cv_3v3_1*%
X138400000Y-77500000D03*
X140100000Y-85873002D03*
%TO.N,Net-(C10-Pad2)*%
X126700000Y-77200000D03*
X125900000Y-74900000D03*
%TO.N,/cv_to_3v3_A/cv_3v3_3*%
X134305000Y-90805000D03*
X129700000Y-78200000D03*
%TO.N,/cv_to_3v3_A/cv_3v3_2*%
X131100000Y-78200000D03*
X135575000Y-90725000D03*
%TO.N,/cv_to_3v3_A/cv_3v3_4*%
X133035000Y-90765000D03*
X128600000Y-78200000D03*
%TO.N,-12V*%
X132700000Y-121900000D03*
X118400000Y-99100000D03*
X129200000Y-103700000D03*
%TO.N,+12V*%
X132750000Y-119350000D03*
X119900000Y-105500000D03*
X129100000Y-112500000D03*
%TO.N,GNDD*%
X144700000Y-61400000D03*
X149645000Y-113755000D03*
X134305000Y-95705000D03*
X154300000Y-83100000D03*
X154375000Y-105275000D03*
X138500000Y-61300000D03*
X127800000Y-85600000D03*
X132305000Y-61305000D03*
X138500000Y-95600000D03*
X141180905Y-45180905D03*
X139600000Y-112200000D03*
X144565000Y-112265000D03*
X141700000Y-119900000D03*
X140150000Y-128450000D03*
X127807499Y-45407499D03*
X145700000Y-101000000D03*
X152200000Y-104100000D03*
X134430905Y-45330905D03*
X152600000Y-98600000D03*
X129900000Y-72200000D03*
X132975001Y-52324999D03*
X145700000Y-86500000D03*
X127955000Y-95745000D03*
X144600000Y-105800000D03*
%TO.N,+3V3*%
X140300000Y-108800000D03*
X154850000Y-111850000D03*
X147950000Y-120650000D03*
X135900000Y-95600000D03*
X155700000Y-99000000D03*
X147800000Y-105300000D03*
X144200000Y-100000000D03*
X138500000Y-100000000D03*
X148400000Y-108600000D03*
X136900000Y-85600000D03*
X138800000Y-72200000D03*
X155250000Y-87150000D03*
X144400000Y-97500000D03*
X153400000Y-104700000D03*
X156100000Y-84700000D03*
X144400000Y-102700000D03*
X149825000Y-99575000D03*
%TO.N,/cv_to_3v3_B/cv_in_4*%
X146100000Y-64800000D03*
%TO.N,/cv_to_3v3_B/cv_in_3*%
X146800000Y-65900000D03*
%TO.N,/cv_to_3v3_B/cv_in_2*%
X147600000Y-70800000D03*
%TO.N,/cv_to_3v3_B/cv_in_1*%
X147500000Y-72500000D03*
%TO.N,/3v3_to_gate/gate_out_2*%
X113600000Y-99700000D03*
X115100000Y-93500000D03*
%TO.N,/3v3_to_gate/gate_out_1*%
X116500000Y-93400000D03*
X113690000Y-101190000D03*
%TO.N,/CS[1]*%
X151500000Y-108600000D03*
X154000000Y-110800000D03*
%TO.N,/PICO*%
X146500000Y-112600000D03*
X151800000Y-113000000D03*
%TO.N,/POCI*%
X147200000Y-100100000D03*
X153945000Y-97345000D03*
%TO.N,/SCK*%
X148100000Y-99500000D03*
X142800000Y-105200000D03*
%TO.N,/3v3_to_gate/gate_1*%
X142000000Y-108200000D03*
X137400000Y-106600000D03*
%TO.N,/3v3_to_gate/gate_3*%
X135500000Y-110000000D03*
X121800000Y-94300000D03*
%TO.N,/3v3_to_gate/gate_2*%
X121700000Y-106800000D03*
X135100000Y-111000000D03*
%TO.N,/3v3_to_gate/gate_4*%
X135900000Y-107400000D03*
X139000000Y-109100000D03*
%TO.N,Net-(R76-Pad1)*%
X124100000Y-91600000D03*
X116160000Y-99140000D03*
%TO.N,/3v3_to_cv/CV_BIAS*%
X131800000Y-103100000D03*
X131500000Y-112300000D03*
%TO.N,/AREF_-10V*%
X119600000Y-81300000D03*
X139650000Y-70950000D03*
X126245294Y-85754706D03*
X116700000Y-82400000D03*
X113499960Y-82800000D03*
X127920000Y-72280000D03*
X122700000Y-82700000D03*
X137600000Y-86800000D03*
%TO.N,/gate_to_3v3_A/GATE_3V3_1*%
X144200000Y-79000000D03*
X146300000Y-49900000D03*
%TO.N,/gate_to_3v3_A/GATE_3V3_3*%
X142549990Y-81450010D03*
X132400000Y-46700000D03*
X143600000Y-49600000D03*
X134000000Y-49300000D03*
%TO.N,/gate_to_3v3_A/GATE_3V3_2*%
X143300000Y-79700000D03*
X139090000Y-46590000D03*
X145000000Y-49800000D03*
X140500000Y-48600000D03*
%TO.N,/gate_to_3v3_A/GATE_3V3_4*%
X141600000Y-80800000D03*
X142300000Y-49800000D03*
X128200000Y-49600000D03*
X126000000Y-46800000D03*
%TO.N,/gate_to_3v3_B/GATE_3V3_1*%
X138100000Y-79600000D03*
X141600000Y-57500000D03*
%TO.N,/gate_to_3v3_B/GATE_3V3_3*%
X137500000Y-52200000D03*
X139800000Y-90400000D03*
%TO.N,/gate_to_3v3_B/GATE_3V3_2*%
X142300000Y-52000000D03*
X138226998Y-80800000D03*
%TO.N,/gate_to_3v3_B/GATE_3V3_4*%
X139300000Y-91500000D03*
X131500000Y-52200000D03*
%TO.N,/gate_to_3v3_C/GATE_3V3_3*%
X137200000Y-61200000D03*
X138800000Y-65200000D03*
X144400000Y-64800000D03*
%TO.N,/gate_to_3v3_C/GATE_3V3_2*%
X146874999Y-75725001D03*
X144500000Y-60000000D03*
%TO.N,/gate_to_3v3_C/GATE_3V3_4*%
X132600000Y-65600000D03*
X143900000Y-66000000D03*
X131300000Y-60500000D03*
%TO.N,/GATE_OUT_EN*%
X146000000Y-108400000D03*
X154000000Y-99400000D03*
X150600000Y-104200000D03*
X152800000Y-102900000D03*
%TD*%
D42*
%TO.N,Net-(C17-Pad1)*%
X120721822Y-119690000D02*
X119900000Y-118868178D01*
%TO.N,Net-(U2-Pad9)*%
X152200000Y-85200000D02*
X152100000Y-85300000D01*
X152100000Y-87100000D02*
X154300000Y-89300000D01*
X152100000Y-85300000D02*
X152100000Y-87100000D01*
X154400000Y-91000000D02*
X155500000Y-91000000D01*
X154300000Y-89300000D02*
X154300000Y-90900000D01*
X154300000Y-90900000D02*
X154400000Y-91000000D01*
%TO.N,/gate_to_3v3_C/GATE_3V3_3*%
X145000000Y-76800000D02*
X145000000Y-77099308D01*
X145000000Y-77099308D02*
X146650192Y-78749500D01*
X152300000Y-88133928D02*
X152300000Y-89500000D01*
X146650192Y-78749500D02*
X147986602Y-78749500D01*
X147986602Y-78749500D02*
X150250499Y-81013397D01*
X152000000Y-89800000D02*
X151000000Y-89800000D01*
X150250499Y-81013397D02*
X150250500Y-84525886D01*
X152300000Y-89500000D02*
X152000000Y-89800000D01*
X151300000Y-85575386D02*
X151300000Y-87133928D01*
X150250500Y-84525886D02*
X151300000Y-85575386D01*
X151300000Y-87133928D02*
X152300000Y-88133928D01*
%TO.N,/gate_to_3v3_C/GATE_3V3_2*%
X150500000Y-85800000D02*
X149800000Y-86500000D01*
X149800000Y-87700000D02*
X150600000Y-88500000D01*
X149800000Y-86500000D02*
X149800000Y-87700000D01*
X146874999Y-75725001D02*
X145800000Y-76800000D01*
X145800000Y-76800000D02*
X145800000Y-77263590D01*
X148172800Y-78299980D02*
X150700019Y-80827199D01*
X145800000Y-77263590D02*
X146836390Y-78299980D01*
X146836390Y-78299980D02*
X148172800Y-78299980D01*
X150700020Y-83200020D02*
X151100000Y-83600000D01*
X150700019Y-80827199D02*
X150700020Y-83200020D01*
%TO.N,/gate_to_3v3_C/GATE_3V3_4*%
X144300000Y-77700000D02*
X144964974Y-77700000D01*
X144964974Y-77700000D02*
X146463995Y-79199020D01*
X146463995Y-79199020D02*
X147800404Y-79199020D01*
X148700000Y-87261104D02*
X149400000Y-87961104D01*
X149424614Y-90200000D02*
X150224614Y-91000000D01*
X147800404Y-79199020D02*
X149800979Y-81199595D01*
X149800979Y-81199595D02*
X149800980Y-84999020D01*
X149400000Y-90200000D02*
X149424614Y-90200000D01*
X149800980Y-84999020D02*
X148700000Y-86100000D01*
X150224614Y-91000000D02*
X150800000Y-91000000D01*
X148700000Y-86100000D02*
X148700000Y-87261104D01*
X149400000Y-87961104D02*
X149400000Y-90200000D01*
%TO.N,/GATE_IN_EN*%
X150900000Y-98300000D02*
X150283928Y-98300000D01*
X150283928Y-98300000D02*
X149675480Y-97691552D01*
X149675480Y-97691552D02*
X149675480Y-96824520D01*
X149675480Y-96824520D02*
X149800480Y-96699520D01*
X149800480Y-96699520D02*
X149953448Y-96699520D01*
%TO.N,+3V3*%
X144400000Y-97500000D02*
X144400000Y-92124614D01*
X146900000Y-88600000D02*
X147400000Y-88600000D01*
X144400000Y-92124614D02*
X146175480Y-90349134D01*
X146175480Y-90349134D02*
X146175480Y-89324520D01*
X146175480Y-89324520D02*
X146900000Y-88600000D01*
%TO.N,Net-(U2-Pad9)*%
X146645000Y-97345000D02*
X145900000Y-96600000D01*
X145900000Y-93600000D02*
X145400000Y-93100000D01*
X147475000Y-97345000D02*
X146645000Y-97345000D01*
X145900000Y-96600000D02*
X145900000Y-93600000D01*
%TO.N,GNDD*%
X142525000Y-97345000D02*
X140645000Y-97345000D01*
X140645000Y-97345000D02*
X140300000Y-97000000D01*
X147475000Y-90995000D02*
X149195000Y-90995000D01*
%TO.N,/gate_to_3v3_A/GATE_3V3_4*%
X144500000Y-91000000D02*
X142600000Y-91000000D01*
X143350010Y-84913600D02*
X143186400Y-84913600D01*
X143186400Y-84913600D02*
X142600000Y-85500000D01*
%TO.N,/gate_to_3v3_A/GATE_3V3_3*%
X142549990Y-81450010D02*
X142549990Y-83521445D01*
X142549990Y-83521445D02*
X141523551Y-84547884D01*
X141523551Y-84547884D02*
X141523551Y-84900000D01*
X141523551Y-84900000D02*
X141723551Y-85100000D01*
X141723551Y-85100000D02*
X141723551Y-86576449D01*
X141148560Y-88948560D02*
X141900000Y-89700000D01*
X141723551Y-86576449D02*
X141148560Y-87151440D01*
X141148560Y-87151440D02*
X141148560Y-88948560D01*
X141900000Y-89700000D02*
X142300000Y-89700000D01*
%TO.N,/gate_to_3v3_A/GATE_3V3_2*%
X143300000Y-79700000D02*
X143749990Y-80149990D01*
X143000000Y-88400000D02*
X142900000Y-88400000D01*
X143749990Y-80149990D02*
X143749991Y-83386401D01*
X143749991Y-83386401D02*
X143800020Y-83436430D01*
X143800020Y-84700020D02*
X143800000Y-84700040D01*
X143800000Y-84700040D02*
X143800000Y-85099327D01*
X143800020Y-83436430D02*
X143800020Y-84700020D01*
X143800000Y-85099327D02*
X143700000Y-85199327D01*
X143700000Y-85199327D02*
X143700000Y-87700000D01*
X143700000Y-87700000D02*
X143000000Y-88400000D01*
%TO.N,/gate_to_3v3_B/GATE_3V3_1*%
X141900000Y-81800000D02*
X141900000Y-83535718D01*
X138100000Y-79600000D02*
X138400000Y-79300000D01*
X138400000Y-79300000D02*
X138890588Y-79300000D01*
X138890588Y-79300000D02*
X139500000Y-79909412D01*
X141274031Y-86359303D02*
X140699040Y-86934294D01*
X139500000Y-79909412D02*
X139500000Y-80009412D01*
X140699040Y-86934294D02*
X140699040Y-87972396D01*
X139500000Y-80009412D02*
X140165598Y-80675010D01*
X140874999Y-81148001D02*
X141251999Y-81525001D01*
X140165598Y-80675010D02*
X140775011Y-80675011D01*
X140775011Y-80675011D02*
X140874999Y-80774999D01*
X141251999Y-81525001D02*
X141625001Y-81525001D01*
X140134050Y-89073718D02*
X140974031Y-89913700D01*
X140874999Y-80774999D02*
X140874999Y-81148001D01*
X141625001Y-81525001D02*
X141900000Y-81800000D01*
X141900000Y-83535718D02*
X141074031Y-84361687D01*
X141074031Y-84361687D02*
X141074031Y-85100000D01*
X141074031Y-85100000D02*
X141274031Y-85300000D01*
X141274031Y-85300000D02*
X141274031Y-86359303D01*
X140699040Y-87972396D02*
X140134050Y-88537386D01*
X140134050Y-88537386D02*
X140134050Y-89073718D01*
X140974031Y-89913700D02*
X140974031Y-91800000D01*
X140974031Y-91800000D02*
X141374031Y-92200000D01*
X141374031Y-92200000D02*
X142400000Y-92200000D01*
%TO.N,/gate_to_3v3_B/GATE_3V3_4*%
X139300000Y-94100000D02*
X141300000Y-96100000D01*
X141300000Y-96100000D02*
X142600000Y-96100000D01*
X139300000Y-91500000D02*
X139300000Y-94100000D01*
%TO.N,/gate_to_3v3_B/GATE_3V3_3*%
X140074991Y-93574991D02*
X141300000Y-94800000D01*
X139800000Y-90400000D02*
X140074991Y-90674991D01*
X140074991Y-90674991D02*
X140074991Y-93574991D01*
X141300000Y-94800000D02*
X142600000Y-94800000D01*
%TO.N,/gate_to_3v3_B/GATE_3V3_2*%
X140524511Y-92524511D02*
X141500000Y-93500000D01*
X140524511Y-90099897D02*
X140524511Y-92524511D01*
X141500000Y-93500000D02*
X142200000Y-93500000D01*
X139684530Y-89259916D02*
X140524511Y-90099897D01*
X139684530Y-88351188D02*
X139684530Y-89259916D01*
X140249520Y-86748096D02*
X140249520Y-87786198D01*
X140824511Y-85524511D02*
X140824511Y-86173105D01*
X140624511Y-85324511D02*
X140824511Y-85524511D01*
X141100000Y-83700000D02*
X140624511Y-84175489D01*
X140824511Y-86173105D02*
X140249520Y-86748096D01*
X140624511Y-84175489D02*
X140624511Y-85324511D01*
X140249520Y-87786198D02*
X139684530Y-88351188D01*
%TO.N,/gate_to_3v3_A/GATE_3V3_1*%
X146875011Y-86638601D02*
X147536410Y-87300000D01*
X145859402Y-84949990D02*
X146875010Y-85965598D01*
X144749990Y-84949990D02*
X145859402Y-84949990D01*
X144250030Y-84450030D02*
X144749990Y-84949990D01*
X146875010Y-85965598D02*
X146875011Y-86638601D01*
X144250030Y-83250030D02*
X144250030Y-84450030D01*
X144200000Y-80400000D02*
X144200000Y-83200000D01*
X145000000Y-79600000D02*
X144200000Y-80400000D01*
X147536410Y-87300000D02*
X147600000Y-87300000D01*
X145000000Y-79300000D02*
X145000000Y-79600000D01*
X144200000Y-79000000D02*
X144700000Y-79000000D01*
X144700000Y-79000000D02*
X145000000Y-79300000D01*
X147679980Y-87379980D02*
X148183158Y-87379980D01*
X148900000Y-89100000D02*
X148300000Y-89700000D01*
X144200000Y-83200000D02*
X144250030Y-83250030D01*
X148725019Y-88058947D02*
X148900000Y-88233928D01*
X147600000Y-87300000D02*
X147679980Y-87379980D01*
X148183158Y-87379980D02*
X148725019Y-87921841D01*
X147600000Y-89700000D02*
X147500000Y-89600000D01*
X148725019Y-87921841D02*
X148725019Y-88058947D01*
X148900000Y-88233928D02*
X148900000Y-89100000D01*
X148300000Y-89700000D02*
X147600000Y-89700000D01*
%TO.N,/gate_to_3v3_C/GATE_3V3_1*%
X154659220Y-85749990D02*
X156549990Y-85749990D01*
X151150028Y-82240798D02*
X154659220Y-85749990D01*
X147250030Y-77849970D02*
X147300000Y-77800000D01*
X148309230Y-77800000D02*
X151150028Y-80640798D01*
X147223000Y-76450002D02*
X146786408Y-76450002D01*
X146950010Y-74727010D02*
X147600000Y-75377000D01*
X147600000Y-76073002D02*
X147223000Y-76450002D01*
X151150028Y-80640798D02*
X151150028Y-82240798D01*
X147022790Y-77849970D02*
X147250030Y-77849970D01*
X146950010Y-73849990D02*
X146950010Y-74727010D01*
X147300000Y-77800000D02*
X148309230Y-77800000D01*
X148200000Y-62590000D02*
X148845010Y-63235010D01*
X147574999Y-73225001D02*
X146950010Y-73849990D01*
X148845010Y-63235010D02*
X148845010Y-63935544D01*
X147600000Y-75377000D02*
X147600000Y-76073002D01*
X148225001Y-72151999D02*
X148225001Y-72848001D01*
X148845010Y-63935544D02*
X148380554Y-64400000D01*
X157300000Y-88900000D02*
X156500000Y-89700000D01*
X148325001Y-71148001D02*
X147773002Y-71700000D01*
X146786408Y-76450002D02*
X146300000Y-76936410D01*
X148380554Y-64400000D02*
X148300000Y-64400000D01*
X148300000Y-64400000D02*
X148000000Y-64700000D01*
X148000000Y-66761810D02*
X148325001Y-67086811D01*
X148000000Y-64700000D02*
X148000000Y-66761810D01*
X148325001Y-67086811D02*
X148325001Y-71148001D01*
X146300000Y-77127180D02*
X147022790Y-77849970D01*
X147848001Y-73225001D02*
X147574999Y-73225001D01*
X146300000Y-76936410D02*
X146300000Y-77127180D01*
X147773002Y-71700000D02*
X148225001Y-72151999D01*
X148225001Y-72848001D02*
X147848001Y-73225001D01*
X156549990Y-85749990D02*
X157300000Y-86500000D01*
X157300000Y-86500000D02*
X157300000Y-88900000D01*
%TO.N,/LOAD_GATES*%
X155349520Y-104500000D02*
X155799540Y-104950020D01*
X150865011Y-130865011D02*
X149600000Y-129600000D01*
X154700000Y-108311776D02*
X154700000Y-108900000D01*
X156609384Y-101949520D02*
X155349520Y-103209384D01*
X156649520Y-99786198D02*
X156649520Y-101949520D01*
X154824511Y-109024511D02*
X154824511Y-110524511D01*
X153969585Y-117987769D02*
X151075489Y-120881865D01*
X155349520Y-103209384D02*
X155349520Y-104500000D01*
X155799540Y-107212236D02*
X154700000Y-108311776D01*
X154725206Y-125924762D02*
X154725205Y-129965565D01*
X156649520Y-101949520D02*
X156609384Y-101949520D01*
X157674040Y-93637968D02*
X157674040Y-98775480D01*
X154774558Y-113825442D02*
X154774558Y-114825442D01*
X157674040Y-98775480D02*
X157660238Y-98775480D01*
X157660238Y-98775480D02*
X156649520Y-99786198D01*
X156301072Y-92265000D02*
X157674040Y-93637968D01*
X155799540Y-104950020D02*
X155799540Y-107212236D01*
X155925000Y-92265000D02*
X156301072Y-92265000D01*
X154700000Y-108900000D02*
X154824511Y-109024511D01*
X153969585Y-115630415D02*
X153969585Y-117987769D01*
X154824511Y-110524511D02*
X155900000Y-111600000D01*
X155900000Y-111600000D02*
X155900000Y-112700000D01*
X155900000Y-112700000D02*
X154774558Y-113825442D01*
X154774558Y-114825442D02*
X153969585Y-115630415D01*
X151075489Y-120881865D02*
X151075489Y-122275045D01*
X151075489Y-122275045D02*
X154725206Y-125924762D01*
X154725205Y-129965565D02*
X153825759Y-130865011D01*
X153825759Y-130865011D02*
X150865011Y-130865011D01*
%TO.N,/CS[1]*%
X151800000Y-121200000D02*
X152290675Y-121690675D01*
X152290675Y-121690675D02*
X152290675Y-122800000D01*
X154000000Y-110800000D02*
X153450010Y-111349990D01*
X153450010Y-111349990D02*
X153450010Y-111667778D01*
X153450010Y-111667778D02*
X153875030Y-112092800D01*
X153875029Y-114297791D02*
X153070057Y-115102763D01*
X150885169Y-119800059D02*
X147336351Y-119800059D01*
X147600000Y-122000000D02*
X148100000Y-122000000D01*
X153875030Y-112092800D02*
X153875029Y-114297791D01*
X153070057Y-115102763D02*
X153070056Y-117615172D01*
X153070056Y-117615172D02*
X150885169Y-119800059D01*
X147100060Y-120036350D02*
X147100060Y-121500060D01*
X147336351Y-119800059D02*
X147100060Y-120036350D01*
X147100060Y-121500060D02*
X147600000Y-122000000D01*
%TO.N,/3v3_to_cv/CV_OUT_1*%
X156713802Y-110749520D02*
X155723551Y-110749520D01*
X154450480Y-119713803D02*
X154450480Y-117989189D01*
X157151440Y-112141408D02*
X157151440Y-111187158D01*
X152740195Y-121424088D02*
X154450480Y-119713803D01*
X155173747Y-108473747D02*
X156249060Y-107398434D01*
X157151440Y-111187158D02*
X156713802Y-110749520D01*
X155940195Y-130023395D02*
X155940195Y-125866932D01*
X142392029Y-131765031D02*
X154198559Y-131765031D01*
X155723551Y-110749520D02*
X155274031Y-110300000D01*
X156249060Y-107398434D02*
X156249060Y-104763823D01*
X154198559Y-131765031D02*
X155940195Y-130023395D01*
X126300000Y-122900000D02*
X126300000Y-123800000D01*
X157199519Y-102035238D02*
X157199519Y-99885718D01*
X117914990Y-125909598D02*
X117914989Y-129950401D01*
X126300000Y-123800000D02*
X125600000Y-124500000D01*
X154450480Y-117989189D02*
X155825961Y-116613708D01*
X125600000Y-124500000D02*
X119324588Y-124500000D01*
X152740195Y-122666932D02*
X152740195Y-121424088D01*
X155825961Y-113466887D02*
X157151440Y-112141408D01*
X155825961Y-116613708D02*
X155825961Y-113466887D01*
X117914989Y-129950401D02*
X118789598Y-130825010D01*
X118789598Y-130825010D02*
X133774990Y-130825010D01*
X155274031Y-108574031D02*
X155173747Y-108473747D01*
X119324588Y-124500000D02*
X117914990Y-125909598D01*
X133774990Y-130825010D02*
X137400000Y-127200000D01*
X137400000Y-127200000D02*
X137873002Y-127200000D01*
X137873002Y-127200000D02*
X142128419Y-131455417D01*
X155800000Y-103394621D02*
X156517378Y-102677243D01*
X155274031Y-110300000D02*
X155274031Y-108574031D01*
X142128419Y-131455417D02*
X142128419Y-131501421D01*
X155940195Y-125866932D02*
X152740195Y-122666932D01*
X142128419Y-131501421D02*
X142392029Y-131765031D01*
X156249060Y-104763823D02*
X155800000Y-104314762D01*
X155800000Y-104314762D02*
X155800000Y-103394621D01*
X156517378Y-102677243D02*
X156537446Y-102697311D01*
X156537446Y-102697311D02*
X157199519Y-102035238D01*
X157199519Y-99885718D02*
X158275029Y-98810208D01*
X158275029Y-98810208D02*
X158275029Y-84375029D01*
X158275029Y-84375029D02*
X154300000Y-80400000D01*
X154300000Y-80400000D02*
X154300000Y-73532000D01*
%TO.N,/3v3_to_cv/CV_OUT_2*%
X154750010Y-80213600D02*
X154750010Y-76049990D01*
X153190205Y-122480532D02*
X153190205Y-121609795D01*
X157649039Y-102221436D02*
X157649039Y-100071916D01*
X156400000Y-103470475D02*
X157649039Y-102221436D01*
X156400000Y-104279046D02*
X156400000Y-103470475D01*
X156698580Y-107724971D02*
X156698580Y-104577626D01*
X156675029Y-107724971D02*
X156698580Y-107724971D01*
X141551431Y-131951431D02*
X141942019Y-131951431D01*
X155723551Y-108676449D02*
X156675029Y-107724971D01*
X155723551Y-110023551D02*
X155723551Y-108676449D01*
X156900000Y-110300000D02*
X156000000Y-110300000D01*
X138000000Y-128400000D02*
X141551431Y-131951431D01*
X156698580Y-104577626D02*
X156400000Y-104279046D01*
X142205628Y-132215040D02*
X154384959Y-132215041D01*
X157600960Y-111000960D02*
X156900000Y-110300000D01*
X156390204Y-130209796D02*
X156390205Y-125680532D01*
X156390205Y-125680532D02*
X153190205Y-122480532D01*
X157600960Y-112327606D02*
X157600960Y-111000960D01*
X153190205Y-121609795D02*
X154900000Y-119900000D01*
X158725039Y-84188629D02*
X154750010Y-80213600D01*
X154900000Y-119900000D02*
X154900000Y-118175386D01*
X154750010Y-76049990D02*
X155387001Y-75412999D01*
X154384959Y-132215041D02*
X156390204Y-130209796D01*
X156275481Y-113653085D02*
X157600960Y-112327606D01*
X158725038Y-98995917D02*
X158725039Y-84188629D01*
X141942019Y-131951431D02*
X142205628Y-132215040D01*
X157649039Y-100071916D02*
X158725038Y-98995917D01*
X156000000Y-110300000D02*
X155723551Y-110023551D01*
X154900000Y-118175386D02*
X156275481Y-116799905D01*
X156275481Y-116799905D02*
X156275481Y-113653085D01*
X155387001Y-75412999D02*
X155387001Y-72587001D01*
X155387001Y-72587001D02*
X154300000Y-71500000D01*
%TO.N,/DESELECT*%
X151564839Y-123450480D02*
X152014340Y-123899980D01*
X152014340Y-123899980D02*
X152039177Y-123875143D01*
X152620047Y-117428771D02*
X150698769Y-119350049D01*
X147950480Y-123450480D02*
X151564839Y-123450480D01*
X153000000Y-111854178D02*
X153425021Y-112279199D01*
X153639359Y-130415001D02*
X153638869Y-130414511D01*
X146650050Y-122150050D02*
X147950480Y-123450480D01*
X146650050Y-119849950D02*
X146650050Y-122150050D01*
X153000000Y-110500000D02*
X153000000Y-111854178D01*
X154275196Y-129779164D02*
X153639359Y-130415001D01*
X150698769Y-119350049D02*
X147149951Y-119350049D01*
X152620048Y-114916362D02*
X152620047Y-117428771D01*
X153425021Y-112279199D02*
X153425020Y-114111390D01*
X153425020Y-114111390D02*
X152620048Y-114916362D01*
X154100000Y-109400000D02*
X153000000Y-110500000D01*
X147149951Y-119350049D02*
X146650050Y-119849950D01*
X152039177Y-123875143D02*
X154275196Y-126111162D01*
X149224479Y-127874511D02*
X147858990Y-129240000D01*
X154275196Y-126111162D02*
X154275196Y-129779164D01*
X153638869Y-130414511D02*
X151414511Y-130414511D01*
X151414511Y-130414511D02*
X150800000Y-129800000D01*
X150800000Y-129800000D02*
X150800000Y-128300000D01*
X147858990Y-129240000D02*
X146980000Y-129240000D01*
X150800000Y-128300000D02*
X150374511Y-127874511D01*
X150374511Y-127874511D02*
X149224479Y-127874511D01*
%TO.N,/3v3_to_cv/CV_OUT_3*%
X155900000Y-118200000D02*
X156725001Y-117374999D01*
X156725001Y-117374999D02*
X156725001Y-113839282D01*
X156725001Y-113839282D02*
X158050480Y-112513803D01*
X158050480Y-112513803D02*
X158050480Y-110250480D01*
X158050480Y-110250480D02*
X156900000Y-109100000D01*
X156900000Y-109100000D02*
X156500000Y-109100000D01*
%TO.N,/3v3_to_cv/CV_OUT_4*%
X155700000Y-119700000D02*
X157175011Y-118224989D01*
X157175011Y-118224989D02*
X157175011Y-114024989D01*
X157175011Y-114024989D02*
X158500000Y-112700000D01*
X158500000Y-112700000D02*
X158500000Y-109499980D01*
X158500000Y-109499980D02*
X157950010Y-108949990D01*
%TO.N,/LATCH_GATES*%
X146472800Y-123899980D02*
X147199980Y-123899980D01*
X147199980Y-123899980D02*
X147200000Y-123900000D01*
X151720031Y-109879969D02*
X151720031Y-111210619D01*
X152975011Y-112465599D02*
X152975011Y-113924989D01*
X152000000Y-109600000D02*
X151720031Y-109879969D01*
X155350020Y-107026038D02*
X152776058Y-109600000D01*
X156200000Y-101723186D02*
X154900000Y-103023186D01*
X154900000Y-104726998D02*
X155350020Y-105177018D01*
X152975011Y-113924989D02*
X152170039Y-114729961D01*
X154900000Y-103023186D02*
X154900000Y-104726998D01*
X155350020Y-105177018D02*
X155350020Y-107026038D01*
X151720031Y-111210619D02*
X152975011Y-112465599D01*
X152776058Y-109600000D02*
X152000000Y-109600000D01*
X156200000Y-99600000D02*
X156200000Y-101723186D01*
X157224520Y-94458448D02*
X157224520Y-98575480D01*
X157224520Y-98575480D02*
X156200000Y-99600000D01*
X156301072Y-93535000D02*
X157224520Y-94458448D01*
X152170039Y-114729961D02*
X152170038Y-117242370D01*
X155925000Y-93535000D02*
X156301072Y-93535000D01*
X152170038Y-117242370D02*
X150512369Y-118900039D01*
X146200040Y-119636370D02*
X146200040Y-123627220D01*
X150512369Y-118900039D02*
X146936371Y-118900039D01*
X146936371Y-118900039D02*
X146200040Y-119636370D01*
X146200040Y-123627220D02*
X146472800Y-123899980D01*
%TO.N,/GATE_OUT_EN*%
X152800000Y-99400000D02*
X152400000Y-99800000D01*
X154000000Y-99400000D02*
X152800000Y-99400000D01*
X152400000Y-99800000D02*
X152400000Y-100500000D01*
%TO.N,GNDD*%
X151125000Y-106662500D02*
X151662500Y-106662500D01*
X151662500Y-106662500D02*
X151700000Y-106700000D01*
%TO.N,/DESELECT*%
X152425000Y-108125000D02*
X152500000Y-108200000D01*
X152425000Y-106662500D02*
X152425000Y-108125000D01*
%TO.N,/LATCH_GATES*%
X152060000Y-129240000D02*
X153560000Y-129240000D01*
X153560000Y-129240000D02*
X153800000Y-129000000D01*
X153800000Y-129000000D02*
X153800000Y-126321358D01*
X153800000Y-126321358D02*
X151378642Y-123900000D01*
X151378642Y-123900000D02*
X147200000Y-123900000D01*
%TO.N,/CS[1]*%
X144400000Y-129300000D02*
X146415021Y-131315021D01*
X146415021Y-131315021D02*
X154012159Y-131315021D01*
X155175214Y-130151966D02*
X155175215Y-125738363D01*
X154012159Y-131315021D02*
X155175214Y-130151966D01*
X155175215Y-125738363D02*
X152362008Y-122925154D01*
%TO.N,/GATE_IN_EN*%
X151996552Y-96699520D02*
X152696072Y-96000000D01*
X149953448Y-96699520D02*
X151996552Y-96699520D01*
X152696072Y-96000000D02*
X155700000Y-96000000D01*
X149328928Y-96075000D02*
X149953448Y-96699520D01*
X147475000Y-96075000D02*
X149328928Y-96075000D01*
%TO.N,/SCK*%
X155170480Y-95429520D02*
X155625480Y-94974520D01*
X148099520Y-95429520D02*
X155170480Y-95429520D01*
X147475000Y-94805000D02*
X148099520Y-95429520D01*
X155625480Y-94974520D02*
X155625480Y-94800000D01*
%TO.N,/LATCH_GATES*%
X148099520Y-94159520D02*
X154940480Y-94159520D01*
X147475000Y-93535000D02*
X148099520Y-94159520D01*
X154940480Y-94159520D02*
X155600000Y-93500000D01*
%TO.N,/LOAD_GATES*%
X154910480Y-92889520D02*
X155500000Y-92300000D01*
X147475000Y-92265000D02*
X148099520Y-92889520D01*
X148099520Y-92889520D02*
X154910480Y-92889520D01*
%TO.N,+3V3*%
X145555000Y-88455000D02*
X147055000Y-88455000D01*
X147055000Y-88455000D02*
X147200000Y-88600000D01*
%TO.N,Net-(C21-Pad2)*%
X128462500Y-101500000D02*
X128462500Y-102337500D01*
X128462500Y-102337500D02*
X127900000Y-102900000D01*
X127500000Y-105000000D02*
X127500000Y-105800000D01*
X127900000Y-102900000D02*
X127900000Y-103200000D01*
X128100000Y-104400000D02*
X127500000Y-105000000D01*
X127900000Y-103200000D02*
X128100000Y-103400000D01*
X128100000Y-103400000D02*
X128100000Y-104400000D01*
%TO.N,/3v3_to_gate/gate_4*%
X123900000Y-101613190D02*
X123900000Y-100100000D01*
X126068232Y-103168232D02*
X125600010Y-102700010D01*
X119325010Y-95625010D02*
X118100000Y-94400000D01*
X124986820Y-102700010D02*
X123900000Y-101613190D01*
X119325010Y-98426778D02*
X119325010Y-95625010D01*
X125600010Y-102700010D02*
X124986820Y-102700010D01*
X120073252Y-99175020D02*
X119325010Y-98426778D01*
X126068232Y-104200000D02*
X126068232Y-103168232D01*
X125664990Y-107101400D02*
X125664990Y-104603242D01*
X127448001Y-108125001D02*
X126688591Y-108125001D01*
X125664990Y-104603242D02*
X126068232Y-104200000D01*
X126688591Y-108125001D02*
X125664990Y-107101400D01*
X127747972Y-107825030D02*
X127448001Y-108125001D01*
X134774970Y-107825030D02*
X127747972Y-107825030D01*
X135200000Y-107400000D02*
X134774970Y-107825030D01*
X135900000Y-107400000D02*
X135200000Y-107400000D01*
X123900000Y-100100000D02*
X122975020Y-99175020D01*
X122975020Y-99175020D02*
X120073252Y-99175020D01*
%TO.N,/3v3_to_cv/CV_3V3_4*%
X139550000Y-101950000D02*
X138814998Y-101950000D01*
X138624999Y-102139999D02*
X138624999Y-104175001D01*
X130075020Y-107375020D02*
X128800000Y-106100000D01*
X138814998Y-101950000D02*
X138624999Y-102139999D01*
X138624999Y-104175001D02*
X136650010Y-106149990D01*
X136650010Y-106149990D02*
X135668188Y-106149990D01*
X135668188Y-106149990D02*
X134443158Y-107375020D01*
X134443158Y-107375020D02*
X130075020Y-107375020D01*
X128800000Y-106100000D02*
X128800000Y-105700000D01*
%TO.N,/3v3_to_cv/CV_3V3_3*%
X139550000Y-102600000D02*
X140285002Y-102600000D01*
X140285002Y-102600000D02*
X140475001Y-102410001D01*
X140475001Y-102410001D02*
X140475001Y-101489999D01*
X138174989Y-101953599D02*
X138174989Y-103988601D01*
X140475001Y-101489999D02*
X140410001Y-101424999D01*
X140410001Y-101424999D02*
X138703589Y-101424999D01*
X138174989Y-103988601D02*
X136463610Y-105699980D01*
X138703589Y-101424999D02*
X138174989Y-101953599D01*
X135481788Y-105699980D02*
X134256758Y-106925010D01*
X136463610Y-105699980D02*
X135481788Y-105699980D01*
X134256758Y-106925010D02*
X132025010Y-106925010D01*
X132025010Y-106925010D02*
X131400000Y-106300000D01*
%TO.N,Net-(C19-Pad2)*%
X132920000Y-103500000D02*
X132920000Y-104080000D01*
X132920000Y-104080000D02*
X132600000Y-104400000D01*
X132600000Y-104400000D02*
X132600000Y-106400000D01*
%TO.N,Net-(C20-Pad2)*%
X132600000Y-110800000D02*
X132600000Y-110700000D01*
X132920000Y-112800000D02*
X132920000Y-111120000D01*
X132920000Y-111120000D02*
X132600000Y-110800000D01*
%TO.N,/3v3_to_cv/CV_3V3_1*%
X139550000Y-105200000D02*
X138700000Y-105200000D01*
X138700000Y-105200000D02*
X138300000Y-105600000D01*
X138300000Y-105600000D02*
X138300000Y-107700000D01*
X138300000Y-107700000D02*
X137175020Y-108824980D01*
X129875019Y-108824981D02*
X128800000Y-109900000D01*
X137175020Y-108824980D02*
X129875019Y-108824981D01*
X128800000Y-109900000D02*
X128800000Y-111100000D01*
%TO.N,/3v3_to_cv/CV_3V3_2*%
X139550000Y-104550000D02*
X140285002Y-104550000D01*
X140285002Y-104550000D02*
X140475001Y-104739999D01*
X140475001Y-104739999D02*
X140475001Y-106310001D01*
X140475001Y-106310001D02*
X137510012Y-109274990D01*
X137510012Y-109274990D02*
X131825010Y-109274990D01*
X131825010Y-109274990D02*
X131400000Y-109700000D01*
X131400000Y-109700000D02*
X131400000Y-110600000D01*
%TO.N,Net-(C18-Pad2)*%
X127180000Y-112800000D02*
X127600000Y-112380000D01*
X127600000Y-112380000D02*
X127600000Y-110400000D01*
%TO.N,/gate_to_3v3_C/GATE_IN_1*%
X124918235Y-77581765D02*
X122500000Y-80000000D01*
X122400000Y-79900000D02*
X122500000Y-80000000D01*
X116700000Y-79900000D02*
X122400000Y-79900000D01*
%TO.N,/gate_to_3v3_C/GATE_IN_2*%
X122400000Y-77600000D02*
X124468225Y-75531775D01*
X116600000Y-77500000D02*
X122500000Y-77500000D01*
%TO.N,/gate_to_3v3_C/GATE_IN_3*%
X122300000Y-75200000D02*
X124018215Y-73481785D01*
X116900000Y-75700000D02*
X117500000Y-75100000D01*
X117500000Y-75100000D02*
X122400000Y-75100000D01*
%TO.N,/gate_to_3v3_C/GATE_IN_4*%
X116700000Y-73500000D02*
X117400000Y-72800000D01*
X126100000Y-64836410D02*
X126100000Y-63100000D01*
X117400000Y-72800000D02*
X122412500Y-72800000D01*
X123568205Y-67368205D02*
X126100000Y-64836410D01*
X122412500Y-72800000D02*
X123568205Y-71644295D01*
X123568205Y-71644295D02*
X123568205Y-67368205D01*
%TO.N,/gate_to_3v3_B/GATE_IN_1*%
X116800000Y-68000000D02*
X122300000Y-68000000D01*
X122300000Y-68000000D02*
X124800000Y-65500000D01*
X124800000Y-65500000D02*
X124800000Y-57800000D01*
X143132480Y-56455020D02*
X144587500Y-55000000D01*
X124800000Y-57800000D02*
X125200000Y-57400000D01*
X125200000Y-57400000D02*
X130960320Y-57400000D01*
X130960320Y-57400000D02*
X131905300Y-56455020D01*
X131905300Y-56455020D02*
X143132480Y-56455020D01*
%TO.N,/gate_to_3v3_B/GATE_IN_2*%
X116400000Y-65900000D02*
X122300000Y-65900000D01*
X124300020Y-63438170D02*
X124300020Y-57599980D01*
X131073900Y-56650010D02*
X131718900Y-56005010D01*
X122300000Y-65900000D02*
X122500000Y-66100000D01*
X122500000Y-66100000D02*
X122500000Y-65238190D01*
X122500000Y-65238190D02*
X124300020Y-63438170D01*
X124300020Y-57599980D02*
X125249990Y-56650010D01*
X125249990Y-56650010D02*
X131073900Y-56650010D01*
X131718900Y-56005010D02*
X137282490Y-56005010D01*
X137282490Y-56005010D02*
X138387500Y-54900000D01*
%TO.N,/gate_to_3v3_B/GATE_IN_3*%
X117000000Y-63800000D02*
X122500000Y-63800000D01*
X122500000Y-63800000D02*
X122600000Y-63900000D01*
X122600000Y-63900000D02*
X123850010Y-62649990D01*
X123850010Y-62649990D02*
X123850010Y-57386400D01*
X123850010Y-57386400D02*
X125036410Y-56200000D01*
X125036410Y-56200000D02*
X130887500Y-56200000D01*
X130887500Y-56200000D02*
X132187500Y-54900000D01*
%TO.N,/gate_to_3v3_B/GATE_IN_4*%
X116700000Y-61700000D02*
X122500000Y-61700000D01*
X122500000Y-61700000D02*
X123400000Y-60800000D01*
X123400000Y-57200000D02*
X125700000Y-54900000D01*
X123400000Y-60800000D02*
X123400000Y-57200000D01*
X125700000Y-54900000D02*
X126087500Y-54900000D01*
%TO.N,/gate_to_3v3_A/GATE_IN_1*%
X117000000Y-56800000D02*
X122400000Y-56800000D01*
X122600000Y-57000000D02*
X124400019Y-55199981D01*
X126955290Y-49205030D02*
X127360320Y-48800000D01*
X122400000Y-56800000D02*
X122600000Y-57000000D01*
X124400019Y-55199981D02*
X124400019Y-49472801D01*
X124400019Y-49472801D02*
X124667790Y-49205030D01*
X124667790Y-49205030D02*
X126955290Y-49205030D01*
X127360320Y-48800000D02*
X133123910Y-48800000D01*
X133123910Y-48800000D02*
X133423910Y-48500000D01*
X133423910Y-48500000D02*
X139387500Y-48500000D01*
X139387500Y-48500000D02*
X140987500Y-46900000D01*
%TO.N,/gate_to_3v3_A/GATE_IN_2*%
X117200000Y-54700000D02*
X122700000Y-54700000D01*
X122700000Y-54700000D02*
X123950009Y-53449991D01*
X123950009Y-53449991D02*
X123950010Y-49286400D01*
X126768890Y-48755020D02*
X127223910Y-48300000D01*
X127223910Y-48300000D02*
X132987500Y-48300000D01*
X123950010Y-49286400D02*
X124481390Y-48755020D01*
X124481390Y-48755020D02*
X126768890Y-48755020D01*
X132987500Y-48300000D02*
X134187500Y-47100000D01*
%TO.N,/gate_to_3v3_A/GATE_IN_3*%
X116900000Y-52600000D02*
X122700000Y-52600000D01*
X122700000Y-52600000D02*
X123500000Y-51800000D01*
X123500000Y-51800000D02*
X123500000Y-49100000D01*
X123500000Y-49100000D02*
X124294990Y-48305010D01*
X124294990Y-48305010D02*
X126582490Y-48305010D01*
X126582490Y-48305010D02*
X127787500Y-47100000D01*
%TO.N,/gate_to_3v3_A/GATE_IN_4*%
X116600000Y-50500000D02*
X122512500Y-50500000D01*
X122512500Y-50500000D02*
X122512500Y-49012500D01*
X122512500Y-49012500D02*
X120800000Y-47300000D01*
%TO.N,GND*%
X138686501Y-73386501D02*
X138673002Y-73400000D01*
X127996998Y-86870000D02*
X127074999Y-85948001D01*
X123694436Y-119125010D02*
X124669456Y-118149990D01*
X124400000Y-112700000D02*
X124500000Y-112600000D01*
X126000000Y-93862500D02*
X126000000Y-92900000D01*
X133474990Y-86074990D02*
X134300000Y-86900000D01*
X126220000Y-120180000D02*
X125900000Y-120500000D01*
X126000000Y-92900000D02*
X126400000Y-92500000D01*
X127200000Y-129100000D02*
X127200000Y-126700000D01*
X131600000Y-116700000D02*
X130900000Y-117400000D01*
X125100000Y-99062500D02*
X125100000Y-97900000D01*
X124669456Y-118149990D02*
X127297616Y-118149990D01*
X124400000Y-126700000D02*
X122100000Y-126700000D01*
X139025001Y-117389999D02*
X138335002Y-116700000D01*
X133800000Y-84330000D02*
X133474990Y-84655010D01*
X123400000Y-113700000D02*
X124400000Y-112700000D01*
X128035010Y-119564990D02*
X127400000Y-120200000D01*
X127100000Y-129200000D02*
X127200000Y-129100000D01*
X134775000Y-86870000D02*
X136230000Y-86870000D01*
X128150000Y-120200000D02*
X127500000Y-120200000D01*
X124562500Y-111000000D02*
X124562500Y-109462500D01*
X138335002Y-116700000D02*
X131600000Y-116700000D01*
X129825000Y-86870000D02*
X127996998Y-86870000D01*
X127926998Y-84400000D02*
X129600000Y-84400000D01*
X134775000Y-84330000D02*
X133800000Y-84330000D01*
X127297616Y-118149990D02*
X128035010Y-118887384D01*
X128335010Y-130375010D02*
X131659992Y-130375010D01*
X124600000Y-129200000D02*
X127100000Y-129200000D01*
X120480000Y-115800000D02*
X120480000Y-116788232D01*
X120793242Y-119125010D02*
X123694436Y-119125010D01*
X121100000Y-113700000D02*
X123400000Y-113700000D01*
X129174999Y-71851999D02*
X129174999Y-72548001D01*
X130900000Y-117450000D02*
X128150000Y-120200000D01*
X126300010Y-96699990D02*
X126300010Y-94200010D01*
X139525001Y-71851999D02*
X139525001Y-72548001D01*
X120480000Y-116788232D02*
X120514990Y-116823222D01*
X127200000Y-126700000D02*
X124400000Y-126700000D01*
X124500000Y-112600000D02*
X124500000Y-111200000D01*
X122100000Y-126700000D02*
X122100000Y-129300000D01*
X139025001Y-123010001D02*
X139025001Y-117389999D01*
X126300010Y-94200010D02*
X126000000Y-93900000D01*
X125100000Y-97900000D02*
X126300010Y-96699990D01*
X127160000Y-129200000D02*
X128335010Y-130375010D01*
X127074999Y-85251999D02*
X127926998Y-84400000D01*
X131659992Y-130375010D02*
X139025001Y-123010001D01*
X128035010Y-118887384D02*
X128035010Y-119564990D01*
X127074999Y-85948001D02*
X127074999Y-85251999D01*
X131825000Y-70930000D02*
X130096998Y-70930000D01*
X127400000Y-120180000D02*
X126220000Y-120180000D01*
X138603002Y-70930000D02*
X139525001Y-71851999D01*
X120110000Y-114700000D02*
X120110000Y-114690000D01*
X120110000Y-114690000D02*
X121100000Y-113700000D01*
X129174999Y-72548001D02*
X130126998Y-73500000D01*
X130126998Y-73500000D02*
X131400000Y-73500000D01*
X120514990Y-116823222D02*
X120514990Y-118846758D01*
X136230000Y-86870000D02*
X136400000Y-86700000D01*
X120514990Y-118846758D02*
X120793242Y-119125010D01*
X122080000Y-129200000D02*
X124600000Y-129200000D01*
X120110000Y-115410000D02*
X120500000Y-115800000D01*
X133474990Y-84655010D02*
X133474990Y-86074990D01*
X130096998Y-70930000D02*
X129174999Y-71851999D01*
X120110000Y-114700000D02*
X120110000Y-115410000D01*
X124562500Y-109462500D02*
X124100000Y-109000000D01*
X136775000Y-70930000D02*
X138603002Y-70930000D01*
X139525001Y-72548001D02*
X138686501Y-73386501D01*
X138673002Y-73400000D02*
X137100000Y-73400000D01*
%TO.N,Net-(C17-Pad1)*%
X125800000Y-118900000D02*
X126100000Y-119200000D01*
X124100000Y-119690000D02*
X120721822Y-119690000D01*
X124100000Y-119600000D02*
X125100000Y-119600000D01*
X126100000Y-119200000D02*
X127400000Y-119200000D01*
X119900000Y-118868178D02*
X119900000Y-118100000D01*
X125100000Y-119600000D02*
X125800000Y-118900000D01*
%TO.N,/3v3_to_cv/CV_3V3_1*%
X128830000Y-110575000D02*
X128830000Y-111070000D01*
%TO.N,Net-(C18-Pad2)*%
X127100000Y-112800000D02*
X127100000Y-114000000D01*
X127100000Y-114000000D02*
X128500000Y-115400000D01*
X128500000Y-115400000D02*
X129800000Y-115400000D01*
%TO.N,/3v3_to_cv/CV_OUT_1*%
X123500000Y-114700000D02*
X123900000Y-114300000D01*
X126300000Y-114100000D02*
X125300000Y-115100000D01*
X124700000Y-114300000D02*
X125100000Y-114700000D01*
X123900000Y-114300000D02*
X124700000Y-114300000D01*
X126290000Y-110575000D02*
X126290000Y-112690000D01*
X126290000Y-112690000D02*
X126300000Y-112700000D01*
X126300000Y-112700000D02*
X126300000Y-114100000D01*
%TO.N,Net-(C19-Pad2)*%
X132800000Y-101800000D02*
X132100000Y-101100000D01*
X132900000Y-101900000D02*
X132800000Y-101800000D01*
X132100000Y-101100000D02*
X131300000Y-101100000D01*
X132900000Y-103500000D02*
X132900000Y-101900000D01*
%TO.N,/3v3_to_cv/CV_OUT_3*%
X154300000Y-69500000D02*
X155837011Y-71037011D01*
X133880000Y-103500000D02*
X133880000Y-102720000D01*
X155837011Y-75599399D02*
X155200020Y-76236390D01*
X135000000Y-101600000D02*
X135500000Y-101600000D01*
X136300000Y-111900000D02*
X136300000Y-111700000D01*
X155772820Y-80600000D02*
X156900000Y-80600000D01*
X136000000Y-103700000D02*
X136600000Y-103100000D01*
X155837011Y-71037011D02*
X155837011Y-75599399D01*
X136600000Y-103100000D02*
X136600000Y-102300000D01*
X139200000Y-114800000D02*
X136300000Y-111900000D01*
X155200020Y-76236390D02*
X155200020Y-80027200D01*
X133910000Y-105625000D02*
X133910000Y-103510000D01*
X155200020Y-80027200D02*
X155772820Y-80600000D01*
X133910000Y-103510000D02*
X133900000Y-103500000D01*
X133880000Y-102720000D02*
X135000000Y-101600000D01*
X136600000Y-102300000D02*
X135900000Y-101600000D01*
%TO.N,Net-(C20-Pad2)*%
X133300000Y-115400000D02*
X131500000Y-115400000D01*
X133437500Y-114800000D02*
X133437500Y-115262500D01*
X132900000Y-112500000D02*
X132900000Y-113600000D01*
X133437500Y-115262500D02*
X133300000Y-115400000D01*
X132900000Y-113600000D02*
X133600000Y-114300000D01*
%TO.N,/3v3_to_cv/CV_OUT_2*%
X134800000Y-113700000D02*
X136100000Y-115000000D01*
X136362500Y-114800000D02*
X137362500Y-115800000D01*
X134800000Y-113680000D02*
X134800000Y-113700000D01*
X133910000Y-112790000D02*
X134800000Y-113680000D01*
X137362500Y-115800000D02*
X137600000Y-115800000D01*
X133910000Y-110575000D02*
X133910000Y-112790000D01*
%TO.N,Net-(C21-Pad2)*%
X129300000Y-101100000D02*
X129900000Y-101100000D01*
X128900000Y-101500000D02*
X129300000Y-101100000D01*
X128600000Y-101500000D02*
X128900000Y-101500000D01*
%TO.N,/3v3_to_cv/CV_OUT_4*%
X126400000Y-107200000D02*
X126400000Y-106200000D01*
X138800000Y-116100000D02*
X138800000Y-115926998D01*
X126290000Y-104810000D02*
X127100000Y-104000000D01*
X156287021Y-69487021D02*
X156287020Y-75785800D01*
X126290000Y-105625000D02*
X126290000Y-104810000D01*
X137773002Y-114900000D02*
X137400000Y-114900000D01*
X155650030Y-76422790D02*
X155650030Y-78050030D01*
X138800000Y-115926998D02*
X137773002Y-114900000D01*
X137250010Y-114750010D02*
X137250010Y-113936820D01*
X156287020Y-75785800D02*
X155650030Y-76422790D01*
X127100000Y-104000000D02*
X127100000Y-103200000D01*
X155650030Y-78050030D02*
X156500000Y-78900000D01*
X137400000Y-114900000D02*
X137250010Y-114750010D01*
X127100000Y-103200000D02*
X125600000Y-101700000D01*
X137250010Y-113936820D02*
X136913180Y-113599990D01*
X135100000Y-113343590D02*
X135100000Y-112300000D01*
X136913180Y-113599990D02*
X135356400Y-113599990D01*
X126600000Y-107400000D02*
X126400000Y-107200000D01*
X127100000Y-107400000D02*
X126600000Y-107400000D01*
X135356400Y-113599990D02*
X135100000Y-113343590D01*
X154300000Y-67500000D02*
X156287021Y-69487021D01*
%TO.N,Net-(C13-Pad2)*%
X139120000Y-86805352D02*
X139250010Y-86675342D01*
X136660000Y-88140000D02*
X136900000Y-87900000D01*
X134775000Y-88140000D02*
X136660000Y-88140000D01*
X138200000Y-87900000D02*
X138500000Y-88200000D01*
X144287500Y-73700000D02*
X144287500Y-75539498D01*
X136900000Y-87900000D02*
X138200000Y-87900000D01*
X139250010Y-86675342D02*
X139250010Y-85249990D01*
X141500000Y-79500000D02*
X140700000Y-79500000D01*
X142674999Y-78325001D02*
X141500000Y-79500000D01*
X138500000Y-88200000D02*
X139100000Y-87600000D01*
X142674999Y-77151999D02*
X142674999Y-78325001D01*
X139120000Y-87000000D02*
X139120000Y-86805352D01*
X144287500Y-75539498D02*
X142674999Y-77151999D01*
X139100000Y-87600000D02*
X139100000Y-87000000D01*
X139250010Y-85249990D02*
X139900000Y-84600000D01*
%TO.N,/cv_to_3v3_B/cv_3v3_1*%
X133000000Y-88800000D02*
X133600000Y-89400000D01*
X134775000Y-89410000D02*
X137110000Y-89410000D01*
X137200000Y-89500000D02*
X137500000Y-89200000D01*
X132500000Y-88800000D02*
X133000000Y-88800000D01*
X137500000Y-89200000D02*
X138500000Y-89200000D01*
X132025029Y-89274971D02*
X132025028Y-90129560D01*
X132500000Y-88800000D02*
X132025029Y-89274971D01*
X131800000Y-90354588D02*
X131800000Y-91900000D01*
X133600000Y-89400000D02*
X134200000Y-89400000D01*
X137110000Y-89410000D02*
X137200000Y-89500000D01*
X132025028Y-90129560D02*
X131800000Y-90354588D01*
%TO.N,Net-(C14-Pad2)*%
X134500000Y-78900000D02*
X134500000Y-78482050D01*
X141322992Y-79950010D02*
X141686401Y-79950009D01*
X125980000Y-82880000D02*
X125600000Y-82500000D01*
X125600000Y-82500000D02*
X125600000Y-81100000D01*
X146612500Y-69312500D02*
X145700000Y-68400000D01*
X147200000Y-69312500D02*
X146612500Y-69312500D01*
X143125009Y-77338399D02*
X145200000Y-75263408D01*
X138926998Y-78700000D02*
X139974999Y-79748001D01*
X125600000Y-81100000D02*
X126300000Y-80400000D01*
X127840000Y-83060000D02*
X127700000Y-83200000D01*
X125900000Y-83280000D02*
X125900000Y-83900000D01*
X127700000Y-83225000D02*
X126725000Y-83225000D01*
X126725000Y-83225000D02*
X126400000Y-82900000D01*
X139974999Y-79848001D02*
X140351999Y-80225001D01*
X140351999Y-80225001D02*
X141048001Y-80225001D01*
X134500000Y-78482050D02*
X135732040Y-77250010D01*
X129825000Y-83060000D02*
X127840000Y-83060000D01*
X135732040Y-77250010D02*
X136440598Y-77250010D01*
X141048001Y-80225001D02*
X141322992Y-79950010D01*
X145200000Y-75263408D02*
X145200000Y-75000000D01*
X141686401Y-79950009D02*
X143125009Y-78511401D01*
X143125009Y-78511401D02*
X143125009Y-77338399D01*
X137890588Y-78700000D02*
X138926998Y-78700000D01*
X126300000Y-82880000D02*
X125980000Y-82880000D01*
X139974999Y-79748001D02*
X139974999Y-79848001D01*
X126300000Y-82880000D02*
X125900000Y-83280000D01*
X136440598Y-77250010D02*
X137890588Y-78700000D01*
%TO.N,/cv_to_3v3_B/cv_3v3_3*%
X132200000Y-81400000D02*
X131800000Y-81800000D01*
X130846758Y-90035010D02*
X129664990Y-90035010D01*
X127700000Y-81575000D02*
X127700000Y-81000000D01*
X128400000Y-80300000D02*
X130500000Y-80300000D01*
X129664990Y-90035010D02*
X129200000Y-90500000D01*
X131125010Y-88574990D02*
X131125010Y-89756758D01*
X129200000Y-90500000D02*
X129200000Y-92100000D01*
X127700000Y-81000000D02*
X128400000Y-80300000D01*
X131800000Y-81800000D02*
X131800000Y-87900000D01*
X131125010Y-89756758D02*
X130846758Y-90035010D01*
X131800000Y-87900000D02*
X131125010Y-88574990D01*
X127800000Y-81600000D02*
X127500000Y-81900000D01*
X127990000Y-81790000D02*
X127800000Y-81600000D01*
X127500000Y-81900000D02*
X126400000Y-81900000D01*
X129825000Y-81790000D02*
X127990000Y-81790000D01*
%TO.N,Net-(C15-Pad2)*%
X138700000Y-82980000D02*
X138800000Y-83080000D01*
X134775000Y-83060000D02*
X136760000Y-83060000D01*
X140074999Y-78774999D02*
X139900000Y-78600000D01*
X138800000Y-83080000D02*
X138800000Y-84100000D01*
X141588591Y-78774999D02*
X140074999Y-78774999D01*
X138300000Y-83300000D02*
X138700000Y-82900000D01*
X143449990Y-72437510D02*
X143449990Y-75740598D01*
X137000000Y-83300000D02*
X137100000Y-83300000D01*
X139900000Y-82000000D02*
X139000000Y-82900000D01*
X142200000Y-76990588D02*
X142200000Y-78163590D01*
X143449990Y-75740598D02*
X142200000Y-76990588D01*
X136760000Y-83060000D02*
X137000000Y-83300000D01*
X138700000Y-82980000D02*
X139010000Y-82980000D01*
X142200000Y-78163590D02*
X141588591Y-78774999D01*
X137100000Y-83300000D02*
X138300000Y-83300000D01*
X144287500Y-71600000D02*
X143449990Y-72437510D01*
%TO.N,/cv_to_3v3_B/cv_3v3_2*%
X130500000Y-91018178D02*
X130500000Y-92100000D01*
X131575019Y-89943159D02*
X130500000Y-91018178D01*
X137220000Y-82100000D02*
X138800000Y-82100000D01*
X132250009Y-88086401D02*
X131575020Y-88761390D01*
X131575020Y-88761390D02*
X131575019Y-89943159D01*
X134775000Y-81790000D02*
X136910000Y-81790000D01*
X136910000Y-81790000D02*
X137220000Y-82100000D01*
X134775000Y-81790000D02*
X132883002Y-81790000D01*
X132883002Y-81790000D02*
X132250010Y-82422992D01*
X132250010Y-82422992D02*
X132250009Y-88086401D01*
%TO.N,Net-(C16-Pad2)*%
X129825000Y-88140000D02*
X127940000Y-88140000D01*
X141749990Y-77977190D02*
X141402191Y-78324989D01*
X140248001Y-77874999D02*
X139098003Y-77874999D01*
X131300000Y-81045640D02*
X131300000Y-87640000D01*
X140473002Y-78100000D02*
X140248001Y-77874999D01*
X130800000Y-88140000D02*
X129825000Y-88140000D01*
X143431058Y-69300000D02*
X143431058Y-71820032D01*
X142999980Y-75554198D02*
X141749990Y-76804188D01*
X144200000Y-69300000D02*
X143431058Y-69300000D01*
X140724989Y-78324989D02*
X140500000Y-78100000D01*
X142999980Y-72251110D02*
X142999980Y-75554198D01*
X137200000Y-76800000D02*
X135545640Y-76800000D01*
X140500000Y-78100000D02*
X140473002Y-78100000D01*
X138051999Y-78225001D02*
X137500000Y-77673002D01*
X143431058Y-71820032D02*
X142999980Y-72251110D01*
X135545640Y-76800000D02*
X131300000Y-81045640D01*
X137500000Y-77673002D02*
X137500000Y-77100000D01*
X127500000Y-88300000D02*
X126300000Y-88300000D01*
X126300000Y-88300000D02*
X126100000Y-88100000D01*
X131300000Y-87640000D02*
X130800000Y-88140000D01*
X127940000Y-88140000D02*
X127800000Y-88000000D01*
X138748001Y-78225001D02*
X138051999Y-78225001D01*
X127800000Y-88000000D02*
X127500000Y-88300000D01*
X141749990Y-76804188D02*
X141749990Y-77977190D01*
X126100000Y-88100000D02*
X126100000Y-86700000D01*
X139098003Y-77874999D02*
X138748001Y-78225001D01*
X137500000Y-77100000D02*
X137200000Y-76800000D01*
X141402191Y-78324989D02*
X140724989Y-78324989D01*
%TO.N,/cv_to_3v3_B/cv_3v3_4*%
X129825000Y-89410000D02*
X127890000Y-89410000D01*
X127700000Y-91700000D02*
X128000000Y-92000000D01*
X127890000Y-89410000D02*
X127700000Y-89600000D01*
X127700000Y-89625000D02*
X127700000Y-91700000D01*
X127700000Y-89625000D02*
X126725000Y-89625000D01*
X126725000Y-89625000D02*
X126400000Y-89300000D01*
%TO.N,Net-(C9-Pad2)*%
X136775000Y-74740000D02*
X139160000Y-74740000D01*
X140900000Y-74511058D02*
X141200000Y-74211058D01*
X125100020Y-89099980D02*
X122500000Y-91700000D01*
X140900000Y-74800000D02*
X140900000Y-74511058D01*
X134500000Y-76040000D02*
X134500000Y-77209230D01*
X139160000Y-74740000D02*
X139300000Y-74600000D01*
X125772801Y-79427199D02*
X125100020Y-80099980D01*
X141200000Y-74211058D02*
X141200000Y-74100000D01*
X134500000Y-77209230D02*
X132309211Y-79400019D01*
X125772801Y-79400019D02*
X125772801Y-79427199D01*
X135800000Y-74740000D02*
X134500000Y-76040000D01*
X125100020Y-80099980D02*
X125100020Y-89099980D01*
X140700000Y-74600000D02*
X140900000Y-74800000D01*
X139300000Y-74600000D02*
X140700000Y-74600000D01*
X136775000Y-74740000D02*
X135800000Y-74740000D01*
X132309211Y-79400019D02*
X125772801Y-79400019D01*
%TO.N,/cv_to_3v3_A/cv_3v3_1*%
X141100000Y-76200000D02*
X140200000Y-77100000D01*
X139235010Y-88164990D02*
X139235010Y-89512616D01*
X138497616Y-90250010D02*
X139235010Y-89512616D01*
X140200000Y-77100000D02*
X138800000Y-77100000D01*
X138497616Y-90250010D02*
X137249990Y-90250010D01*
X140600000Y-76200000D02*
X141000000Y-75800000D01*
X140100000Y-86000000D02*
X139800000Y-86300000D01*
X138800000Y-77100000D02*
X138400000Y-77500000D01*
X139010000Y-76010000D02*
X139200000Y-76200000D01*
X136775000Y-76010000D02*
X139010000Y-76010000D01*
X141100000Y-75880000D02*
X141100000Y-76200000D01*
X139200000Y-76200000D02*
X140600000Y-76200000D01*
X139800000Y-87600000D02*
X139235010Y-88164990D01*
X139800000Y-86300000D02*
X139800000Y-87600000D01*
X136800000Y-90700000D02*
X136800000Y-92000000D01*
X140100000Y-85873002D02*
X140100000Y-86000000D01*
X137249990Y-90250010D02*
X136800000Y-90700000D01*
%TO.N,Net-(C10-Pad2)*%
X127280000Y-70400000D02*
X127280000Y-70020000D01*
X127280000Y-70600000D02*
X125368245Y-72511755D01*
X129200000Y-69500000D02*
X127900000Y-69500000D01*
X126700000Y-77200000D02*
X124200000Y-79700000D01*
X125368245Y-72511755D02*
X125368245Y-74368245D01*
X131825000Y-69660000D02*
X129440000Y-69660000D01*
X124200000Y-85000000D02*
X122400000Y-86800000D01*
X129440000Y-69660000D02*
X129400000Y-69700000D01*
X124200000Y-79700000D02*
X124200000Y-85000000D01*
X127280000Y-70020000D02*
X127800000Y-69500000D01*
X127280000Y-70400000D02*
X127280000Y-70600000D01*
X129400000Y-69700000D02*
X129200000Y-69500000D01*
X125368245Y-74368245D02*
X125900000Y-74900000D01*
%TO.N,/cv_to_3v3_A/cv_3v3_3*%
X129500000Y-68200000D02*
X128200000Y-68200000D01*
X134305000Y-92525000D02*
X134305000Y-90805000D01*
X132800000Y-68390000D02*
X133125010Y-68715010D01*
X133125010Y-68715010D02*
X133125010Y-76674990D01*
X133125010Y-76674990D02*
X132400000Y-77400000D01*
X129700000Y-77600000D02*
X129700000Y-78200000D01*
X131825000Y-68390000D02*
X132800000Y-68390000D01*
X129900000Y-77400000D02*
X129700000Y-77600000D01*
X128200000Y-68200000D02*
X127900000Y-68500000D01*
X129690000Y-68390000D02*
X129500000Y-68200000D01*
X131825000Y-68390000D02*
X129690000Y-68390000D01*
X132400000Y-77400000D02*
X129900000Y-77400000D01*
%TO.N,Net-(C11-Pad2)*%
X132122811Y-78950009D02*
X125586401Y-78950009D01*
X139400000Y-69800000D02*
X139800000Y-69400000D01*
X132122811Y-78950009D02*
X134025028Y-77047792D01*
X141000000Y-69400000D02*
X141400000Y-69800000D01*
X139260000Y-69660000D02*
X139400000Y-69800000D01*
X135540000Y-69660000D02*
X134025029Y-71174971D01*
X124650010Y-79886400D02*
X124650010Y-87049990D01*
X125586401Y-78950009D02*
X124650010Y-79886400D01*
X139800000Y-69400000D02*
X141000000Y-69400000D01*
X124650010Y-87049990D02*
X122400000Y-89300000D01*
X136775000Y-69660000D02*
X139260000Y-69660000D01*
X136775000Y-69660000D02*
X135540000Y-69660000D01*
X141400000Y-69800000D02*
X141400000Y-70400000D01*
X134025029Y-71174971D02*
X134025028Y-77047792D01*
%TO.N,/cv_to_3v3_A/cv_3v3_2*%
X139800000Y-68600000D02*
X141100000Y-68600000D01*
X139300000Y-68100000D02*
X139800000Y-68600000D01*
X136775000Y-68390000D02*
X134585020Y-68390000D01*
X139010000Y-68390000D02*
X139300000Y-68100000D01*
X133575020Y-69400000D02*
X133575019Y-76861391D01*
X133575019Y-76861391D02*
X131936410Y-78500000D01*
X131936410Y-78500000D02*
X131400000Y-78500000D01*
X135575000Y-92525000D02*
X135575000Y-90725000D01*
X136775000Y-68390000D02*
X139010000Y-68390000D01*
X134585020Y-68390000D02*
X133575020Y-69400000D01*
X131400000Y-78500000D02*
X131100000Y-78200000D01*
%TO.N,Net-(C12-Pad2)*%
X127900000Y-74920000D02*
X127590000Y-74920000D01*
X123700000Y-82800000D02*
X122300000Y-84200000D01*
X123700000Y-79436410D02*
X123700000Y-82800000D01*
X131825000Y-74740000D02*
X129540000Y-74740000D01*
X125368244Y-77768166D02*
X123700000Y-79436410D01*
X129540000Y-74740000D02*
X129380000Y-74900000D01*
X127280000Y-73900000D02*
X127280000Y-74280000D01*
X127280000Y-74280000D02*
X127900000Y-74900000D01*
X127590000Y-74920000D02*
X125368244Y-77141756D01*
X129380000Y-74900000D02*
X127900000Y-74900000D01*
X125368244Y-77141756D02*
X125368244Y-77768166D01*
%TO.N,/cv_to_3v3_A/cv_3v3_4*%
X128200000Y-76200000D02*
X128000000Y-76000000D01*
X129690000Y-76010000D02*
X129500000Y-76200000D01*
X128600000Y-78200000D02*
X128600000Y-76500000D01*
X131825000Y-76010000D02*
X129690000Y-76010000D01*
X128600000Y-76500000D02*
X127900000Y-75800000D01*
X129500000Y-76200000D02*
X128200000Y-76200000D01*
X133035000Y-92525000D02*
X133035000Y-90765000D01*
%TO.N,Net-(C1-Pad1)*%
X119100000Y-115400000D02*
X119500000Y-115800000D01*
X119100000Y-114700000D02*
X119100000Y-115400000D01*
X117330000Y-117825000D02*
X117330000Y-115770000D01*
X117330000Y-115770000D02*
X118400000Y-114700000D01*
X118400000Y-114700000D02*
X119100000Y-114700000D01*
%TO.N,-12V*%
X117974990Y-122149990D02*
X117974990Y-116325010D01*
X132700000Y-121900000D02*
X131800000Y-121900000D01*
X130100000Y-104400000D02*
X129500000Y-103800000D01*
X130449980Y-121700020D02*
X122981788Y-121700020D01*
X131800000Y-121900000D02*
X131100000Y-121200000D01*
X118600000Y-122775000D02*
X117974990Y-122149990D01*
X129300000Y-103800000D02*
X129200000Y-103700000D01*
X118700000Y-98800000D02*
X118400000Y-99100000D01*
X129500000Y-103800000D02*
X129300000Y-103800000D01*
X119523242Y-121474990D02*
X118600000Y-122398232D01*
X122981788Y-121700020D02*
X122756758Y-121474990D01*
X130900000Y-121250000D02*
X130449980Y-121700020D01*
X118600000Y-122398232D02*
X118600000Y-122500000D01*
X122756758Y-121474990D02*
X119523242Y-121474990D01*
X118700000Y-97425000D02*
X118700000Y-98800000D01*
X134550000Y-121900000D02*
X132700000Y-121900000D01*
X130100000Y-105625000D02*
X130100000Y-104400000D01*
X117974990Y-116325010D02*
X118400000Y-115900000D01*
%TO.N,+12V*%
X132750000Y-119350000D02*
X133550000Y-119350000D01*
X118795412Y-118400000D02*
X118700000Y-118400000D01*
X124700000Y-120700000D02*
X124100000Y-120700000D01*
X125250010Y-121250010D02*
X124700000Y-120700000D01*
X123780000Y-120710000D02*
X123210010Y-120140010D01*
X130100000Y-110575000D02*
X130100000Y-111500000D01*
X118700000Y-102375000D02*
X118700000Y-104300000D01*
X128999990Y-121250010D02*
X125250010Y-121250010D01*
X130100000Y-111500000D02*
X129100000Y-112500000D01*
X123210010Y-120140010D02*
X120535421Y-120140009D01*
X118700000Y-104300000D02*
X119900000Y-105500000D01*
X124100000Y-120710000D02*
X123780000Y-120710000D01*
X130900000Y-119350000D02*
X128999990Y-121250010D01*
X120535421Y-120140009D02*
X118795412Y-118400000D01*
X133550000Y-119350000D02*
X134400000Y-118500000D01*
X130900000Y-119350000D02*
X132750000Y-119350000D01*
%TO.N,GNDD*%
X144200000Y-61900000D02*
X145295001Y-60804999D01*
X138500000Y-61300000D02*
X138800000Y-61000000D01*
X132305000Y-61305000D02*
X133185001Y-60424999D01*
X141180905Y-45180905D02*
X142061810Y-44300000D01*
X134430905Y-45330905D02*
X135236811Y-44524999D01*
X127807499Y-45407499D02*
X128689999Y-44524999D01*
X132975001Y-52324999D02*
X134810001Y-52324999D01*
X134724999Y-60424999D02*
X135100000Y-60800000D01*
X147424999Y-52939997D02*
X147424999Y-54824999D01*
X141900000Y-129240000D02*
X140940000Y-129240000D01*
X130075001Y-44589999D02*
X130075001Y-46224999D01*
X131825000Y-72200000D02*
X129900000Y-72200000D01*
X147700000Y-63200000D02*
X148100000Y-63600000D01*
X136775001Y-44589999D02*
X136775001Y-46024999D01*
X140940000Y-129240000D02*
X140150000Y-128450000D01*
X140149990Y-46211820D02*
X141180905Y-45180905D01*
X146910001Y-52424999D02*
X147424999Y-52939997D01*
X141400000Y-52814998D02*
X141400000Y-54900000D01*
X129825000Y-85600000D02*
X127800000Y-85600000D01*
X126541090Y-47710000D02*
X126949990Y-47301100D01*
X149645000Y-114045000D02*
X149645000Y-113755000D01*
X152400000Y-104300000D02*
X152200000Y-104100000D01*
X136000000Y-55410000D02*
X139085001Y-52324999D01*
X147600000Y-55000000D02*
X148000000Y-55400000D01*
X138500000Y-96520000D02*
X138500000Y-95600000D01*
X140112500Y-63200000D02*
X141400000Y-63200000D01*
X152300000Y-105100000D02*
X152400000Y-105100000D01*
X155520000Y-83600000D02*
X154800000Y-83600000D01*
X140875001Y-62124999D02*
X140300000Y-62700000D01*
X126949990Y-47301100D02*
X126949990Y-46265008D01*
X145900000Y-101200000D02*
X145700000Y-101000000D01*
X148000000Y-107480000D02*
X147016410Y-107480000D01*
X129800000Y-63810000D02*
X132305000Y-61305000D01*
X138061810Y-61900000D02*
X138061810Y-61738190D01*
X144565000Y-110625000D02*
X144565000Y-112265000D01*
X148210000Y-101620000D02*
X148700000Y-102110000D01*
X123210000Y-47710000D02*
X122700000Y-47200000D01*
X142100000Y-55410000D02*
X145085001Y-52424999D01*
X142061810Y-44300000D02*
X143285002Y-44300000D01*
X127912500Y-54900000D02*
X129200000Y-54900000D01*
X138000000Y-47610000D02*
X139390000Y-47610000D01*
X151125000Y-97345000D02*
X152380000Y-98600000D01*
X136610000Y-47610000D02*
X136100000Y-47100000D01*
X138000000Y-47610000D02*
X137710000Y-47610000D01*
X145175001Y-106375001D02*
X144600000Y-105800000D01*
X135200000Y-52714998D02*
X135200000Y-55300000D01*
X134012500Y-54900000D02*
X134412500Y-55300000D01*
X144200000Y-61900000D02*
X143820000Y-61900000D01*
X130210000Y-47610000D02*
X133041090Y-47610000D01*
X143475001Y-44489999D02*
X143475001Y-45824999D01*
X137449990Y-63401100D02*
X137449990Y-62511820D01*
X147300000Y-60814998D02*
X147300000Y-63200000D01*
X147016410Y-107480000D02*
X145911411Y-106375001D01*
X142300000Y-63420000D02*
X142300000Y-63500000D01*
X128689999Y-44524999D02*
X130010001Y-44524999D01*
X151800000Y-105400000D02*
X152100000Y-105100000D01*
X152380000Y-98600000D02*
X152600000Y-98600000D01*
X139800000Y-118810000D02*
X141090000Y-118810000D01*
X142300000Y-63500000D02*
X142100000Y-63700000D01*
X130075001Y-46224999D02*
X129600000Y-46700000D01*
X136775001Y-46024999D02*
X136200000Y-46600000D01*
X144600000Y-47410000D02*
X143310000Y-47410000D01*
X154800000Y-83600000D02*
X154300000Y-83100000D01*
X144500000Y-86020000D02*
X145220000Y-86020000D01*
X129200000Y-63300000D02*
X129700000Y-63800000D01*
X133185001Y-60424999D02*
X134724999Y-60424999D01*
X135400000Y-63300000D02*
X135900000Y-63800000D01*
X151775000Y-106662500D02*
X151775000Y-105425000D01*
X133349990Y-46411820D02*
X134430905Y-45330905D01*
X141700000Y-118900000D02*
X141700000Y-119900000D01*
X149645000Y-115575000D02*
X149645000Y-114045000D01*
X143820000Y-61900000D02*
X142300000Y-63420000D01*
X147300000Y-63200000D02*
X147700000Y-63200000D01*
X146450000Y-101950000D02*
X146450000Y-101750000D01*
X135100000Y-63300000D02*
X135400000Y-63300000D01*
X145085001Y-52424999D02*
X146910001Y-52424999D01*
X141400000Y-54900000D02*
X141900000Y-55400000D01*
X140212500Y-54900000D02*
X141400000Y-54900000D01*
X148700000Y-102110000D02*
X148700000Y-103600000D01*
X147900000Y-101620000D02*
X146880000Y-101620000D01*
X145911411Y-106375001D02*
X145175001Y-106375001D01*
X137041090Y-63810000D02*
X137449990Y-63401100D01*
X137710000Y-47610000D02*
X136610000Y-47610000D01*
X140910001Y-52324999D02*
X141400000Y-52814998D01*
X132885001Y-52324999D02*
X132975001Y-52324999D01*
X139100000Y-61000000D02*
X139424999Y-60675001D01*
X130210000Y-47610000D02*
X129800000Y-47200000D01*
X147900000Y-101620000D02*
X148210000Y-101620000D01*
X139600000Y-111900000D02*
X139600000Y-112200000D01*
X152400000Y-105100000D02*
X152400000Y-104300000D01*
X139000000Y-111180000D02*
X139000000Y-111300000D01*
X146412500Y-63200000D02*
X147300000Y-63200000D01*
X146412500Y-55000000D02*
X147600000Y-55000000D01*
X134305000Y-97475000D02*
X134305000Y-95705000D01*
X139424999Y-60675001D02*
X139424999Y-60489999D01*
X146880000Y-101620000D02*
X146600000Y-101900000D01*
X133349990Y-47301100D02*
X133349990Y-46411820D01*
X138061810Y-61738190D02*
X138500000Y-61300000D01*
X141090000Y-118810000D02*
X141100000Y-118800000D01*
X143475001Y-45824999D02*
X142800000Y-46500000D01*
X151775000Y-105425000D02*
X151800000Y-105400000D01*
X134810001Y-52324999D02*
X135200000Y-52714998D01*
X145295001Y-60424999D02*
X145295001Y-60804999D01*
X139424999Y-60489999D02*
X139489999Y-60424999D01*
X152100000Y-105100000D02*
X152300000Y-105100000D01*
X136000000Y-63810000D02*
X137041090Y-63810000D01*
X135200000Y-55300000D02*
X136000000Y-55300000D01*
X139489999Y-60424999D02*
X140810001Y-60424999D01*
X138800000Y-61000000D02*
X139100000Y-61000000D01*
X139390000Y-47610000D02*
X140149990Y-46850010D01*
X154375000Y-106662500D02*
X154375000Y-105275000D01*
X145295001Y-60424999D02*
X146910001Y-60424999D01*
X134412500Y-55300000D02*
X135200000Y-55300000D01*
X135100000Y-60800000D02*
X135100000Y-63300000D01*
X140149990Y-46850010D02*
X140149990Y-46211820D01*
X136710001Y-44524999D02*
X136775001Y-44589999D01*
X147424999Y-54824999D02*
X147600000Y-55000000D01*
X143285002Y-44300000D02*
X143475001Y-44489999D01*
X129800000Y-55410000D02*
X132885001Y-52324999D01*
X141100000Y-118800000D02*
X143600000Y-118800000D01*
X127955000Y-97475000D02*
X127955000Y-95745000D01*
X133041090Y-47610000D02*
X133349990Y-47301100D01*
X129200000Y-54900000D02*
X129700000Y-55400000D01*
X126949990Y-46265008D02*
X127807499Y-45407499D01*
X145220000Y-86020000D02*
X145700000Y-86500000D01*
X146450000Y-101750000D02*
X145900000Y-101200000D01*
X124800000Y-47710000D02*
X123210000Y-47710000D01*
X124800000Y-47710000D02*
X126541090Y-47710000D01*
X137449990Y-62511820D02*
X138061810Y-61900000D01*
X134112500Y-63300000D02*
X135100000Y-63300000D01*
X140875001Y-60489999D02*
X140875001Y-62124999D01*
X140810001Y-60424999D02*
X140875001Y-60489999D01*
X139085001Y-52324999D02*
X140910001Y-52324999D01*
X130010001Y-44524999D02*
X130075001Y-44589999D01*
X139000000Y-111300000D02*
X139600000Y-111900000D01*
X128112500Y-63300000D02*
X129200000Y-63300000D01*
X143310000Y-47410000D02*
X142800000Y-46900000D01*
X135236811Y-44524999D02*
X136710001Y-44524999D01*
X146910001Y-60424999D02*
X147300000Y-60814998D01*
X141400000Y-63200000D02*
X141900000Y-63700000D01*
%TO.N,+3V3*%
X148400000Y-108600000D02*
X148400000Y-110600000D01*
X153075000Y-106662500D02*
X153075000Y-105025000D01*
X145375001Y-44225001D02*
X145375001Y-45910001D01*
X145245010Y-46398600D02*
X145695020Y-46848610D01*
X148450010Y-64966954D02*
X148775011Y-65291955D01*
X148849990Y-108150010D02*
X148849990Y-106349990D01*
X147600000Y-73836410D02*
X147600000Y-74740590D01*
X128900000Y-51100000D02*
X135000000Y-51100000D01*
X151600038Y-82000038D02*
X154899980Y-85299980D01*
X156075000Y-87975000D02*
X155250000Y-87150000D01*
X140755000Y-109255000D02*
X140300000Y-108800000D01*
X147200000Y-58016964D02*
X147200000Y-59100000D01*
X147850000Y-51200000D02*
X148900000Y-52250000D01*
X148775011Y-72934401D02*
X148034401Y-73675011D01*
X156500000Y-84300000D02*
X156500000Y-83700000D01*
X153075000Y-105025000D02*
X153400000Y-104700000D01*
X156100000Y-84700000D02*
X156500000Y-84300000D01*
X144400000Y-101600000D02*
X144400000Y-102700000D01*
X153520065Y-117801571D02*
X153520065Y-115289165D01*
X145695020Y-48004980D02*
X147200000Y-49509960D01*
X148775011Y-65291955D02*
X148775011Y-72934401D01*
X147820000Y-102780000D02*
X147900000Y-102700000D01*
X155500020Y-85299980D02*
X156100000Y-84700000D01*
X134775000Y-85600000D02*
X136500000Y-85600000D01*
X149825000Y-99725000D02*
X149825000Y-99575000D01*
X147820000Y-103600000D02*
X147820000Y-102780000D01*
X149825000Y-100937500D02*
X149825000Y-99725000D01*
X143700000Y-43200000D02*
X144350000Y-43200000D01*
X149195019Y-56021945D02*
X147200000Y-58016964D01*
X135100000Y-59200000D02*
X141100000Y-59200000D01*
X148045652Y-76900012D02*
X151600038Y-80454398D01*
X144500000Y-87400000D02*
X144500000Y-87100000D01*
X136600000Y-95600000D02*
X136800000Y-95800000D01*
X154899980Y-85299980D02*
X155500020Y-85299980D01*
X135575000Y-95925000D02*
X135900000Y-95600000D01*
X154325038Y-112374962D02*
X154850000Y-111850000D01*
X154649990Y-102450010D02*
X154837459Y-102450009D01*
X146450000Y-105200000D02*
X147800000Y-105200000D01*
X138500000Y-97480000D02*
X136920000Y-97480000D01*
X147200000Y-51200000D02*
X147850000Y-51200000D01*
X147600000Y-74740590D02*
X148050010Y-75190600D01*
X156075000Y-88455000D02*
X156075000Y-87975000D01*
X137000000Y-43400000D02*
X143600000Y-43400000D01*
X130200000Y-43400000D02*
X137000000Y-43400000D01*
X143300000Y-100500000D02*
X140600000Y-100500000D01*
X151600038Y-80454398D02*
X151600038Y-82000038D01*
X148045652Y-76900012D02*
X148045652Y-76263760D01*
X147850000Y-59200000D02*
X149295019Y-60645019D01*
X148900000Y-52250000D02*
X148900000Y-54703036D01*
X135000000Y-51100000D02*
X141200000Y-51100000D01*
X153400000Y-103700000D02*
X154649990Y-102450010D01*
X145245010Y-46039992D02*
X145245010Y-46398600D01*
X154325038Y-114484190D02*
X154325038Y-112374962D01*
X143300000Y-100500000D02*
X143700000Y-100500000D01*
X144500000Y-87400000D02*
X145555000Y-88455000D01*
X153400000Y-104700000D02*
X153400000Y-103700000D01*
X151071570Y-120250068D02*
X153520065Y-117801571D01*
X149295019Y-64121945D02*
X148450010Y-64966954D01*
X135575000Y-97475000D02*
X135575000Y-95925000D01*
X145695020Y-46848610D02*
X145695020Y-48004980D01*
X139000000Y-110220000D02*
X140680000Y-110220000D01*
X146450000Y-102600000D02*
X147900000Y-102600000D01*
X147800000Y-105200000D02*
X147900000Y-105300000D01*
X148000000Y-106520000D02*
X148000000Y-105500000D01*
X148400000Y-108600000D02*
X148849990Y-108150010D01*
X148050010Y-75190600D02*
X148050010Y-76259402D01*
X149295019Y-60645019D02*
X149295019Y-64121945D01*
X144400000Y-102700000D02*
X146300000Y-102700000D01*
X140600000Y-100500000D02*
X140100000Y-100000000D01*
X149195020Y-54998056D02*
X149195019Y-56021945D01*
X140100000Y-100000000D02*
X138500000Y-100000000D01*
X136800000Y-95800000D02*
X136800000Y-96800000D01*
X147761399Y-73675011D02*
X147600000Y-73836410D01*
X141200000Y-51100000D02*
X147100000Y-51100000D01*
X148900000Y-54703036D02*
X149195020Y-54998056D01*
X123800000Y-43400000D02*
X130200000Y-43400000D01*
X154837459Y-102450009D02*
X155700000Y-101587468D01*
X141100000Y-59200000D02*
X147100000Y-59200000D01*
X143700000Y-100500000D02*
X144200000Y-100000000D01*
X148349931Y-120250069D02*
X151071570Y-120250068D01*
X147800000Y-105300000D02*
X148849990Y-106349990D01*
X147900000Y-105300000D02*
X147900000Y-105526998D01*
X135900000Y-95600000D02*
X136600000Y-95600000D01*
X140755000Y-110625000D02*
X140755000Y-109255000D01*
X136775000Y-72200000D02*
X138800000Y-72200000D01*
X155700000Y-101587468D02*
X155700000Y-99000000D01*
X148045652Y-76263760D02*
X148050010Y-76259402D01*
X147200000Y-59200000D02*
X147850000Y-59200000D01*
X147200000Y-49509960D02*
X147200000Y-51100000D01*
X145375001Y-45910001D02*
X145245010Y-46039992D01*
X143300000Y-100500000D02*
X144400000Y-101600000D01*
X153520065Y-115289165D02*
X154325038Y-114484190D01*
X148034401Y-73675011D02*
X147761399Y-73675011D01*
X128800000Y-59300000D02*
X135000000Y-59300000D01*
X147950000Y-120650000D02*
X148349931Y-120250069D01*
X144350000Y-43200000D02*
X145375001Y-44225001D01*
%TO.N,Net-(D1-Pad1)*%
X133800000Y-126700000D02*
X130000000Y-126700000D01*
X130000000Y-126700000D02*
X129800000Y-126900000D01*
X129800000Y-126900000D02*
X129800000Y-129100000D01*
X138050000Y-122450000D02*
X133800000Y-126700000D01*
X138050000Y-121900000D02*
X138050000Y-122450000D01*
%TO.N,Net-(D2-Pad2)*%
X137074999Y-119475001D02*
X137074999Y-121460003D01*
X138050000Y-118500000D02*
X137074999Y-119475001D01*
X120615001Y-125484999D02*
X119500000Y-126600000D01*
X119600000Y-126700000D02*
X119600000Y-129400000D01*
X119500000Y-126600000D02*
X119600000Y-126700000D01*
X137074999Y-121460003D02*
X133050003Y-125484999D01*
X133050003Y-125484999D02*
X120615001Y-125484999D01*
%TO.N,/cv_to_3v3_B/cv_in_4*%
X145212500Y-67487500D02*
X146000000Y-66700000D01*
X144200000Y-67487500D02*
X145212500Y-67487500D01*
X146000000Y-66700000D02*
X146000000Y-65800000D01*
X146100000Y-64800000D02*
X146100000Y-65700000D01*
X146100000Y-65700000D02*
X146000000Y-65800000D01*
%TO.N,/cv_to_3v3_B/cv_in_3*%
X147200000Y-66300000D02*
X146800000Y-65900000D01*
X147200000Y-67487500D02*
X147200000Y-66300000D01*
%TO.N,/cv_to_3v3_B/cv_in_2*%
X147300000Y-71100000D02*
X147600000Y-70800000D01*
X146112500Y-71600000D02*
X147300000Y-71600000D01*
X147300000Y-71600000D02*
X147300000Y-71100000D01*
%TO.N,/cv_to_3v3_B/cv_in_1*%
X146300000Y-73700000D02*
X147500000Y-72500000D01*
X146112500Y-73700000D02*
X146300000Y-73700000D01*
%TO.N,/cv_to_3v3_A/cv_in_4*%
X117900000Y-84300000D02*
X116700000Y-85500000D01*
X120587500Y-84300000D02*
X117900000Y-84300000D01*
%TO.N,/cv_to_3v3_A/cv_in_3*%
X120587500Y-86800000D02*
X117600000Y-86800000D01*
X117600000Y-86800000D02*
X116700000Y-87700000D01*
%TO.N,/cv_to_3v3_A/cv_in_2*%
X120687500Y-89300000D02*
X116900000Y-89300000D01*
X116900000Y-89300000D02*
X116600000Y-89600000D01*
%TO.N,/cv_to_3v3_A/cv_in_1*%
X120687500Y-91600000D02*
X116600000Y-91600000D01*
%TO.N,/3v3_to_gate/gate_out_4*%
X113949970Y-86400000D02*
X113949970Y-83422992D01*
X149000038Y-49655806D02*
X149000037Y-48663627D01*
X114224961Y-83148001D02*
X114224961Y-82451999D01*
X114224961Y-82451999D02*
X113572962Y-81800000D01*
X120275038Y-44824962D02*
X119827617Y-44824963D01*
X150700037Y-51355805D02*
X149000038Y-49655806D01*
X113804676Y-51458914D02*
X113804676Y-81568286D01*
X147495056Y-47158646D02*
X147495056Y-43650824D01*
X113949970Y-51313620D02*
X113804676Y-51458914D01*
X144919201Y-41074971D02*
X122780796Y-41074972D01*
X120749970Y-44350030D02*
X120275038Y-44824962D01*
X122780796Y-41074972D02*
X120749970Y-43105798D01*
X113949970Y-83422992D02*
X114224961Y-83148001D01*
X147495056Y-43650824D02*
X144919201Y-41074971D01*
X150995056Y-54158646D02*
X150700038Y-53863628D01*
X113790000Y-86559970D02*
X113949970Y-86400000D01*
X149000037Y-48663627D02*
X147495056Y-47158646D01*
X113804676Y-81568286D02*
X113572962Y-81800000D01*
X118549970Y-46102610D02*
X118549970Y-47313620D01*
X120749970Y-43105798D02*
X120749970Y-44350030D01*
X116032035Y-47649973D02*
X113949970Y-49732038D01*
X151395057Y-55500000D02*
X150995057Y-55100000D01*
X118213618Y-47649972D02*
X116032035Y-47649973D01*
X118549970Y-47313620D02*
X118213618Y-47649972D01*
X113949970Y-49732038D02*
X113949970Y-51313620D01*
X150995057Y-55100000D02*
X150995056Y-54158646D01*
X113790000Y-95300000D02*
X113790000Y-86559970D01*
X154200000Y-55500000D02*
X151395057Y-55500000D01*
X119827617Y-44824963D02*
X118549970Y-46102610D01*
X150700038Y-53863628D02*
X150700037Y-51355805D01*
%TO.N,/3v3_to_gate/gate_out_3*%
X114254686Y-51645314D02*
X114399980Y-51500020D01*
X118400018Y-48099982D02*
X118999980Y-47500020D01*
X114399980Y-51500020D02*
X114399980Y-49918438D01*
X122967197Y-41524981D02*
X144732802Y-41524980D01*
X150250028Y-51542206D02*
X150250028Y-54050028D01*
X150545047Y-54345047D02*
X150545047Y-56999999D01*
X114399980Y-88100020D02*
X114399980Y-83609392D01*
X114674971Y-83334401D02*
X114674970Y-82265598D01*
X151045047Y-57500000D02*
X154200000Y-57500000D01*
X114674970Y-82265598D02*
X114254686Y-81845314D01*
X148550028Y-48850028D02*
X148550028Y-49842206D01*
X117219446Y-94300000D02*
X114600000Y-94300000D01*
X120903298Y-45274972D02*
X121199980Y-44978290D01*
X147045048Y-47345048D02*
X148550028Y-48850028D01*
X120014018Y-45274972D02*
X120903298Y-45274972D01*
X121199980Y-44978290D02*
X121199980Y-43292198D01*
X120305010Y-93794990D02*
X117724456Y-93794990D01*
X150545047Y-56999999D02*
X151045047Y-57500000D01*
X114254686Y-81845314D02*
X114254686Y-51645314D01*
X121199980Y-43292198D02*
X122967197Y-41524981D01*
X118999980Y-47500020D02*
X118999980Y-46289010D01*
X117724456Y-93794990D02*
X117219446Y-94300000D01*
X123100000Y-92700000D02*
X121400000Y-92700000D01*
X147045047Y-43837225D02*
X147045048Y-47345048D01*
X116218436Y-48099982D02*
X118400018Y-48099982D01*
X118999980Y-46289010D02*
X120014018Y-45274972D01*
X114600000Y-94300000D02*
X114240010Y-93940010D01*
X114240010Y-88259990D02*
X114399980Y-88100020D01*
X148550028Y-49842206D02*
X150250028Y-51542206D01*
X114399980Y-49918438D02*
X116218436Y-48099982D01*
X150250028Y-54050028D02*
X150545047Y-54345047D01*
X121400000Y-92700000D02*
X120305010Y-93794990D01*
X124400000Y-94000000D02*
X123100000Y-92700000D01*
X124400000Y-94700000D02*
X124400000Y-94000000D01*
X114399980Y-83609392D02*
X114674971Y-83334401D01*
X144732802Y-41524980D02*
X147045047Y-43837225D01*
X114240010Y-93940010D02*
X114240010Y-88259990D01*
%TO.N,/3v3_to_gate/gate_out_2*%
X123449990Y-101799590D02*
X123449990Y-100286400D01*
X124410000Y-102759600D02*
X123449990Y-101799590D01*
X113900000Y-100000000D02*
X119200000Y-100000000D01*
X151095037Y-59500000D02*
X150095037Y-58499999D01*
X150095037Y-58499999D02*
X150095038Y-54625256D01*
X146595038Y-47632178D02*
X146595038Y-44023626D01*
X148100018Y-50028606D02*
X148100018Y-49137158D01*
X124410000Y-104400000D02*
X124410000Y-102759600D01*
X119574970Y-99625030D02*
X119200000Y-100000000D01*
X114849990Y-80727402D02*
X114722891Y-80854501D01*
X116404837Y-48549991D02*
X114849990Y-50104838D01*
X121649990Y-43478598D02*
X121649990Y-45164690D01*
X113900000Y-100000000D02*
X113600000Y-99700000D01*
X115124979Y-82079197D02*
X115124980Y-83520800D01*
X115124980Y-83520800D02*
X114849990Y-83795792D01*
X114722891Y-80854501D02*
X114722891Y-81677109D01*
X123449990Y-100286400D02*
X122788620Y-99625030D01*
X121649990Y-45164690D02*
X121089700Y-45724980D01*
X149800020Y-54330238D02*
X149800019Y-51728607D01*
X123153598Y-41974990D02*
X121649990Y-43478598D01*
X119449990Y-46475410D02*
X119449990Y-47913600D01*
X144546402Y-41974990D02*
X123153598Y-41974990D01*
X114722891Y-81677109D02*
X115124979Y-82079197D01*
X114849989Y-88286421D02*
X114690020Y-88446390D01*
X114690020Y-93090020D02*
X115100000Y-93500000D01*
X154200000Y-59500000D02*
X151095037Y-59500000D01*
X146595038Y-44023626D02*
X144546402Y-41974990D01*
X122788620Y-99625030D02*
X119574970Y-99625030D01*
X149800019Y-51728607D02*
X148100018Y-50028606D01*
X121089700Y-45724980D02*
X120200419Y-45724981D01*
X114849990Y-50104838D02*
X114849990Y-80727402D01*
X114690020Y-88446390D02*
X114690020Y-93090020D01*
X114849990Y-83795792D02*
X114849989Y-88286421D01*
X120200419Y-45724981D02*
X119449990Y-46475410D01*
X119449990Y-47913600D02*
X118813600Y-48549990D01*
X118813600Y-48549990D02*
X116404837Y-48549991D01*
X148100018Y-49137158D02*
X146595038Y-47632178D01*
X150095038Y-54625256D02*
X149800020Y-54330238D01*
%TO.N,/3v3_to_gate/gate_out_1*%
X122100000Y-43664998D02*
X123339999Y-42424999D01*
X121276100Y-46174990D02*
X122100000Y-45351090D01*
X119900000Y-46661810D02*
X120386820Y-46174990D01*
X115574988Y-80815990D02*
X115300000Y-80541002D01*
X144360001Y-42424999D02*
X146145029Y-44210027D01*
X115574989Y-83707199D02*
X115574988Y-80815990D01*
X113690000Y-104200000D02*
X113690000Y-101190000D01*
X120386820Y-46174990D02*
X121276100Y-46174990D01*
X116591238Y-49000000D02*
X119000000Y-49000000D01*
X149645026Y-60358615D02*
X150818410Y-61532000D01*
X116073002Y-93400000D02*
X115140030Y-92467028D01*
X115300000Y-88500000D02*
X115300000Y-83982190D01*
X115300000Y-80541002D02*
X115300000Y-50291238D01*
X119000000Y-49000000D02*
X119900000Y-48100000D01*
X119900000Y-48100000D02*
X119900000Y-46661810D01*
X149645029Y-54811657D02*
X149645026Y-60358615D01*
X115140030Y-92467028D02*
X115140030Y-88659970D01*
X115300000Y-83982190D02*
X115574989Y-83707199D01*
X147650009Y-49323559D02*
X147650010Y-50215008D01*
X146145030Y-47818580D02*
X147650009Y-49323559D01*
X123339999Y-42424999D02*
X144360001Y-42424999D01*
X115300000Y-50291238D02*
X116591238Y-49000000D01*
X122100000Y-45351090D02*
X122100000Y-43664998D01*
X149350010Y-51915008D02*
X149350010Y-54516638D01*
X149350010Y-54516638D02*
X149645029Y-54811657D01*
X150818410Y-61532000D02*
X154200000Y-61532000D01*
X147650010Y-50215008D02*
X149350010Y-51915008D01*
X115140030Y-88659970D02*
X115300000Y-88500000D01*
X146145029Y-44210027D02*
X146145030Y-47818580D01*
X116500000Y-93400000D02*
X116073002Y-93400000D01*
%TO.N,/CS[1]*%
X151100000Y-108600000D02*
X151500000Y-108600000D01*
X150475000Y-107975000D02*
X151100000Y-108600000D01*
X150475000Y-106662500D02*
X150475000Y-107975000D01*
%TO.N,/CS[0]*%
X145750030Y-119449970D02*
X145750030Y-123813620D01*
X152525001Y-113348001D02*
X151720030Y-114152972D01*
X145750030Y-123813620D02*
X146286400Y-124349990D01*
X151474999Y-112274999D02*
X152148001Y-112274999D01*
X146686380Y-118450030D02*
X146686380Y-118513620D01*
X150325968Y-118450030D02*
X146686380Y-118450030D01*
X146286400Y-124349990D02*
X149849990Y-124349990D01*
X152148001Y-112274999D02*
X152525001Y-112651999D01*
X149825000Y-106662500D02*
X149825000Y-108188590D01*
X151270021Y-112070021D02*
X151474999Y-112274999D01*
X152525001Y-112651999D02*
X152525001Y-113348001D01*
X146686380Y-118513620D02*
X145750030Y-119449970D01*
X149849990Y-124349990D02*
X152200000Y-126700000D01*
X149825000Y-108188590D02*
X151270021Y-109633611D01*
X151720030Y-114152972D02*
X151720029Y-117055969D01*
X151720029Y-117055969D02*
X150325968Y-118450030D01*
X151270021Y-109633611D02*
X151270021Y-112070021D01*
%TO.N,/PICO*%
X144216999Y-112990001D02*
X145109999Y-112990001D01*
X145300020Y-119199980D02*
X145300020Y-124000020D01*
X143874999Y-103425001D02*
X144748001Y-103425001D01*
X151270021Y-113529979D02*
X151270020Y-116869568D01*
X142074999Y-104851999D02*
X142921998Y-104005000D01*
X143295000Y-110625000D02*
X143295000Y-107231410D01*
X143674999Y-103048001D02*
X143674999Y-102325001D01*
X146100000Y-124800000D02*
X146819002Y-124800000D01*
X150139568Y-118000020D02*
X146499980Y-118000020D01*
X151800000Y-113000000D02*
X151270021Y-113529979D01*
X148519002Y-126500000D02*
X149400000Y-126500000D01*
X143113600Y-100950010D02*
X140413599Y-100950009D01*
X151270020Y-116869568D02*
X150139568Y-118000020D01*
X137774999Y-100074999D02*
X137375030Y-99675030D01*
X145300020Y-124000020D02*
X146100000Y-124800000D01*
X138848001Y-100725001D02*
X138151999Y-100725001D01*
X142074999Y-106011409D02*
X142074999Y-104851999D01*
X137375030Y-99675030D02*
X132175030Y-99675030D01*
X144923002Y-103250000D02*
X144748001Y-103425001D01*
X146450000Y-103250000D02*
X144923002Y-103250000D01*
X132175030Y-99675030D02*
X130500000Y-98000000D01*
X143295000Y-110625000D02*
X143295000Y-112068002D01*
X143295000Y-104005000D02*
X143874999Y-103425001D01*
X143295000Y-107231410D02*
X142074999Y-106011409D01*
X139913600Y-100450010D02*
X139122992Y-100450010D01*
X143295000Y-112068002D02*
X144216999Y-112990001D01*
X143674999Y-102325001D02*
X143949990Y-102050010D01*
X142921998Y-104005000D02*
X143295000Y-104005000D01*
X145109999Y-112990001D02*
X145500000Y-112600000D01*
X145500000Y-112600000D02*
X146500000Y-112600000D01*
X139122992Y-100450010D02*
X138848001Y-100725001D01*
X140413599Y-100950009D02*
X139913600Y-100450010D01*
X144051999Y-103425001D02*
X143674999Y-103048001D01*
X137774999Y-100348001D02*
X137774999Y-100074999D01*
X138151999Y-100725001D02*
X137774999Y-100348001D01*
X146499980Y-118000020D02*
X145300020Y-119199980D01*
X143949990Y-101786400D02*
X143113600Y-100950010D01*
X146819002Y-124800000D02*
X148519002Y-126500000D01*
X143949990Y-102050010D02*
X143949990Y-101786400D01*
%TO.N,/POCI*%
X154900010Y-99227008D02*
X154900010Y-101751048D01*
X144850010Y-118986400D02*
X146286400Y-117550010D01*
X153945000Y-98519999D02*
X154100000Y-98674999D01*
X145724032Y-99650030D02*
X146750030Y-99650030D01*
X149874999Y-103851999D02*
X150251999Y-103474999D01*
X144900000Y-99300000D02*
X145374002Y-99300000D01*
X156075000Y-97345000D02*
X153945000Y-97345000D01*
X151049990Y-102337478D02*
X151387468Y-102000000D01*
X146286400Y-117550010D02*
X149953168Y-117550010D01*
X154651058Y-102000000D02*
X154900010Y-101751048D01*
X131765000Y-97475000D02*
X131765000Y-98450000D01*
X154348001Y-98674999D02*
X154900010Y-99227008D01*
X150820011Y-116683167D02*
X150820011Y-109820011D01*
X149953168Y-117550010D02*
X150820011Y-116683167D01*
X132540020Y-99225020D02*
X137911390Y-99225020D01*
X151049990Y-103113600D02*
X151049990Y-102337478D01*
X150820011Y-109820011D02*
X149300000Y-108300000D01*
X150251999Y-103474999D02*
X150688591Y-103474999D01*
X153945000Y-97345000D02*
X153945000Y-98519999D01*
X149300000Y-108300000D02*
X149300000Y-105800000D01*
X149300000Y-105800000D02*
X149874999Y-105225001D01*
X150688591Y-103474999D02*
X151049990Y-103113600D01*
X144800020Y-99200020D02*
X144900000Y-99300000D01*
X149874999Y-105225001D02*
X149874999Y-103851999D01*
X137911390Y-99225020D02*
X137936390Y-99200020D01*
X146750030Y-99650030D02*
X147200000Y-100100000D01*
X144850010Y-124450010D02*
X144850010Y-118986400D01*
X145374002Y-99300000D02*
X145724032Y-99650030D01*
X151387468Y-102000000D02*
X154651058Y-102000000D01*
X137936390Y-99200020D02*
X144800020Y-99200020D01*
X131765000Y-98450000D02*
X132540020Y-99225020D01*
X154100000Y-98674999D02*
X154348001Y-98674999D01*
X147100000Y-126700000D02*
X144850010Y-124450010D01*
%TO.N,/SCK*%
X142800000Y-105200000D02*
X144100000Y-103900000D01*
X133035000Y-97475000D02*
X133035000Y-98450000D01*
X144100000Y-103900000D02*
X146200000Y-103900000D01*
X147105000Y-110625000D02*
X147105000Y-111600000D01*
X144400000Y-118800000D02*
X144400000Y-126800000D01*
X137724990Y-98775010D02*
X137749990Y-98750010D01*
X137749990Y-98750010D02*
X145460422Y-98750010D01*
X145910432Y-99200020D02*
X147800020Y-99200020D01*
X150370001Y-113406999D02*
X150370001Y-116496767D01*
X133360010Y-98775010D02*
X137724990Y-98775010D01*
X142800000Y-106100000D02*
X142800000Y-105200000D01*
X145460422Y-98750010D02*
X145910432Y-99200020D01*
X147105000Y-110625000D02*
X147105000Y-108431998D01*
X147800020Y-99200020D02*
X148100000Y-99500000D01*
X147105000Y-108431998D02*
X146273002Y-107600000D01*
X146100000Y-117100000D02*
X144400000Y-118800000D01*
X148534999Y-113029999D02*
X149993001Y-113029999D01*
X143700000Y-107000000D02*
X142800000Y-106100000D01*
X146273002Y-107600000D02*
X146273002Y-107373002D01*
X145900000Y-107000000D02*
X143700000Y-107000000D01*
X146273002Y-107373002D02*
X145900000Y-107000000D01*
X149993001Y-113029999D02*
X150370001Y-113406999D01*
X149766768Y-117100000D02*
X146100000Y-117100000D01*
X133035000Y-98450000D02*
X133360010Y-98775010D01*
X147105000Y-111600000D02*
X148534999Y-113029999D01*
X150370001Y-116496767D02*
X149766768Y-117100000D01*
%TO.N,/3v3_to_gate/gate_1*%
X143700000Y-117790000D02*
X143700000Y-116816768D01*
X125663201Y-108575011D02*
X124988190Y-107900000D01*
X143700000Y-116816768D02*
X143920010Y-116596758D01*
X137400000Y-107165685D02*
X136290645Y-108275040D01*
X142025000Y-109451998D02*
X142000000Y-109426998D01*
X124988190Y-107900000D02*
X120236410Y-107900000D01*
X136290645Y-108275040D02*
X127934372Y-108275040D01*
X143920010Y-113329422D02*
X142000000Y-111409412D01*
X127934372Y-108275040D02*
X127634401Y-108575011D01*
X143920010Y-116596758D02*
X143920010Y-113329422D01*
X142025000Y-110625000D02*
X142025000Y-109451998D01*
X120236410Y-107900000D02*
X118000000Y-105663590D01*
X127634401Y-108575011D02*
X125663201Y-108575011D01*
X118000000Y-105663590D02*
X118000000Y-105300000D01*
X142000000Y-109426998D02*
X142000000Y-108200000D01*
X137400000Y-106600000D02*
X137400000Y-107165685D01*
X142000000Y-111409412D02*
X142000000Y-110500000D01*
%TO.N,Net-(R65-Pad1)*%
X117400000Y-103300000D02*
X117400000Y-102700000D01*
X118000000Y-104190000D02*
X118000000Y-103900000D01*
X118000000Y-103900000D02*
X117400000Y-103300000D01*
%TO.N,/3v3_to_gate/gate_3*%
X137400000Y-110200000D02*
X137400000Y-110100000D01*
X142025000Y-114275010D02*
X141125001Y-113375011D01*
X142025000Y-115575000D02*
X142025000Y-114275010D01*
X137400000Y-110100000D02*
X137025000Y-109725000D01*
X121610000Y-94490000D02*
X121800000Y-94300000D01*
X142000000Y-116890000D02*
X142000000Y-115700000D01*
X141100000Y-117790000D02*
X142000000Y-116890000D01*
X137914980Y-112224392D02*
X139065598Y-113375010D01*
X141125001Y-113375011D02*
X139065598Y-113375010D01*
X137914980Y-110714980D02*
X137400000Y-110200000D01*
X120300000Y-94490000D02*
X121610000Y-94490000D01*
X135775000Y-109725000D02*
X135500000Y-110000000D01*
X137914980Y-112224392D02*
X137914980Y-110714980D01*
X137025000Y-109725000D02*
X135775000Y-109725000D01*
%TO.N,Net-(R66-Pad1)*%
X119970000Y-95830000D02*
X120200000Y-95600000D01*
X119970000Y-97425000D02*
X119970000Y-95830000D01*
%TO.N,Net-(R67-Pad1)*%
X116900000Y-105200000D02*
X116900000Y-104300000D01*
X121637500Y-111000000D02*
X121637500Y-109937500D01*
X116910000Y-103810000D02*
X116100000Y-103000000D01*
X116910000Y-104200000D02*
X116910000Y-103810000D01*
X121637500Y-109937500D02*
X116900000Y-105200000D01*
%TO.N,Net-(R68-Pad1)*%
X122856758Y-98725010D02*
X122163242Y-98725010D01*
X121300000Y-95800000D02*
X121400000Y-95700000D01*
X123135010Y-96564990D02*
X123135010Y-98446758D01*
X125100000Y-96137500D02*
X123562500Y-96137500D01*
X123562500Y-96137500D02*
X123135010Y-96564990D01*
X121300000Y-97861768D02*
X121300000Y-95800000D01*
X122163242Y-98725010D02*
X121300000Y-97861768D01*
X123135010Y-98446758D02*
X122856758Y-98725010D01*
%TO.N,Net-(R69-Pad1)*%
X114900000Y-104100000D02*
X114900000Y-103000000D01*
X115890000Y-104200000D02*
X114800000Y-104200000D01*
X114800000Y-104200000D02*
X114900000Y-104100000D01*
%TO.N,Net-(R70-Pad1)*%
X122510000Y-97425000D02*
X122510000Y-95710000D01*
X122820000Y-95400000D02*
X122820000Y-95080000D01*
X122820000Y-95080000D02*
X123300000Y-94600000D01*
X122510000Y-95710000D02*
X122820000Y-95400000D01*
%TO.N,/3v3_to_gate/gate_2*%
X137464971Y-112410793D02*
X137464971Y-111064971D01*
X140755000Y-114080020D02*
X140500000Y-113825020D01*
X140800000Y-116800000D02*
X140800000Y-115500000D01*
X136800000Y-110400000D02*
X136173002Y-110400000D01*
X139800000Y-117790000D02*
X139810000Y-117790000D01*
X122310000Y-105700000D02*
X122310000Y-106190000D01*
X139810000Y-117790000D02*
X140800000Y-116800000D01*
X137464971Y-112410793D02*
X138879197Y-113825019D01*
X140500000Y-113825020D02*
X138879197Y-113825019D01*
X136173002Y-110400000D02*
X135573002Y-111000000D01*
X135573002Y-111000000D02*
X135100000Y-111000000D01*
X137464971Y-111064971D02*
X136800000Y-110400000D01*
X140755000Y-115575000D02*
X140755000Y-114080020D01*
X122310000Y-106190000D02*
X121700000Y-106800000D01*
%TO.N,Net-(R73-Pad1)*%
X120694990Y-105004990D02*
X120694990Y-103794990D01*
X120694990Y-105004990D02*
X120804990Y-105004990D01*
X120694990Y-103794990D02*
X120000000Y-103100000D01*
X120000000Y-103100000D02*
X120000000Y-102400000D01*
X120804990Y-105004990D02*
X121300000Y-105500000D01*
%TO.N,/3v3_to_gate/gate_4*%
X143295000Y-115575000D02*
X143295000Y-113505000D01*
X139251999Y-112925001D02*
X138400000Y-112073002D01*
X138364990Y-109735010D02*
X139000000Y-109100000D01*
X142590000Y-112800000D02*
X140073002Y-112800000D01*
X143200000Y-117310000D02*
X143200000Y-115800000D01*
X139948001Y-112925001D02*
X139251999Y-112925001D01*
X142400000Y-117790000D02*
X142720000Y-117790000D01*
X138400000Y-112073002D02*
X138364990Y-112037992D01*
X143295000Y-113505000D02*
X142590000Y-112800000D01*
X138364990Y-112037992D02*
X138364990Y-109735010D01*
X142720000Y-117790000D02*
X143200000Y-117310000D01*
X140073002Y-112800000D02*
X139948001Y-112925001D01*
%TO.N,Net-(R74-Pad1)*%
X117430000Y-96070000D02*
X118100000Y-95400000D01*
X117430000Y-97425000D02*
X117430000Y-96070000D01*
%TO.N,Net-(R75-Pad1)*%
X123245010Y-105045010D02*
X123800000Y-105600000D01*
X121240000Y-104340000D02*
X121300000Y-104400000D01*
X121935010Y-105045010D02*
X123245010Y-105045010D01*
X121290000Y-104400000D02*
X121935010Y-105045010D01*
X121240000Y-102375000D02*
X121240000Y-104340000D01*
%TO.N,Net-(R76-Pad1)*%
X116160000Y-97425000D02*
X116160000Y-99140000D01*
X126000000Y-90937500D02*
X124762500Y-90937500D01*
X116160000Y-96240000D02*
X116900000Y-95500000D01*
X116900000Y-95500000D02*
X116900000Y-95300000D01*
X124762500Y-90937500D02*
X124100000Y-91600000D01*
X116160000Y-97425000D02*
X116160000Y-96240000D01*
%TO.N,Net-(R77-Pad1)*%
X122510000Y-104090000D02*
X122300000Y-104300000D01*
X122300000Y-104300000D02*
X123300000Y-104300000D01*
X122510000Y-102375000D02*
X122510000Y-104090000D01*
%TO.N,Net-(R78-Pad1)*%
X114810000Y-95300000D02*
X115900000Y-95300000D01*
X114810000Y-95300000D02*
X114810000Y-96910000D01*
X114810000Y-96910000D02*
X114900000Y-97000000D01*
%TO.N,/3v3_to_cv/CV_BIAS*%
X131800000Y-103100000D02*
X131300000Y-102600000D01*
X132063590Y-112300000D02*
X131500000Y-112300000D01*
X131500000Y-113800000D02*
X132300000Y-113000000D01*
X131300000Y-102600000D02*
X131300000Y-102110000D01*
X131300000Y-102110000D02*
X130110000Y-102110000D01*
X132300000Y-112536410D02*
X132063590Y-112300000D01*
X122535020Y-117699980D02*
X129111830Y-117699980D01*
X129900000Y-114500000D02*
X131300000Y-114500000D01*
X122300000Y-116600000D02*
X122400000Y-116700000D01*
X122410000Y-117825000D02*
X122535020Y-117699980D01*
X129111830Y-117699980D02*
X130445010Y-116366800D01*
X121140000Y-117825000D02*
X121140000Y-116860000D01*
X132300000Y-113000000D02*
X132300000Y-112536410D01*
X121400000Y-116600000D02*
X122300000Y-116600000D01*
X130445010Y-116366800D02*
X130445010Y-115045010D01*
X131500000Y-113800000D02*
X131500000Y-114300000D01*
X130445010Y-115045010D02*
X129900000Y-114500000D01*
X131300000Y-114500000D02*
X131400000Y-114400000D01*
X121140000Y-116860000D02*
X121400000Y-116600000D01*
X122400000Y-116700000D02*
X122400000Y-117600000D01*
%TO.N,/AREF_-10V*%
X127920000Y-72280000D02*
X127920000Y-70520000D01*
X139700000Y-70900000D02*
X139650000Y-70950000D01*
X139650000Y-70950000D02*
X139600000Y-71000000D01*
X126245294Y-85754706D02*
X125900000Y-85409412D01*
X113339990Y-94360010D02*
X113339990Y-86360010D01*
X138800000Y-85400000D02*
X138800000Y-86488942D01*
X138264990Y-84864990D02*
X138800000Y-85400000D01*
X140760000Y-70500000D02*
X140100000Y-70500000D01*
X122700000Y-82700000D02*
X120800000Y-82700000D01*
X116000000Y-115900000D02*
X116000000Y-117400000D01*
X138500000Y-86788942D02*
X138500000Y-86900000D01*
X138180000Y-84100000D02*
X138200000Y-84100000D01*
X139975010Y-71665598D02*
X139975010Y-73475010D01*
X137800000Y-87000000D02*
X137600000Y-86800000D01*
X126300000Y-84311058D02*
X126500000Y-84111058D01*
X115200000Y-115900000D02*
X116000000Y-115900000D01*
X113499960Y-86200040D02*
X113499960Y-82800000D01*
X113339990Y-86360010D02*
X113499960Y-86200040D01*
X120800000Y-82700000D02*
X120500000Y-82400000D01*
X116700000Y-82400000D02*
X119500000Y-82400000D01*
X139975010Y-73475010D02*
X140500000Y-74000000D01*
X116000000Y-116300000D02*
X113800000Y-114100000D01*
X127920000Y-73900000D02*
X127920000Y-72280000D01*
X127920000Y-70520000D02*
X127900000Y-70500000D01*
X113800000Y-114100000D02*
X113800000Y-105800000D01*
X112874999Y-99351999D02*
X113400000Y-98826998D01*
X138200000Y-84100000D02*
X138264990Y-84164990D01*
X138480000Y-87000000D02*
X137800000Y-87000000D01*
X126800000Y-86309412D02*
X126245294Y-85754706D01*
X119500000Y-81400000D02*
X119600000Y-81300000D01*
X112874999Y-104874999D02*
X112874999Y-99351999D01*
X119500000Y-82400000D02*
X119500000Y-81400000D01*
X113194990Y-98621988D02*
X113194990Y-94505010D01*
X138264990Y-84164990D02*
X138264990Y-84864990D01*
X125900000Y-85000000D02*
X126300000Y-84600000D01*
X126800000Y-86700000D02*
X126800000Y-86309412D01*
X126500000Y-84111058D02*
X126500000Y-83900000D01*
X113194990Y-94505010D02*
X113339990Y-94360010D01*
X139600000Y-71000000D02*
X139600000Y-71290588D01*
X120500000Y-82400000D02*
X119500000Y-82400000D01*
X125900000Y-85409412D02*
X125900000Y-85000000D01*
X114790000Y-117825000D02*
X114790000Y-116310000D01*
X126300000Y-84600000D02*
X126300000Y-84311058D01*
X140100000Y-70500000D02*
X139700000Y-70900000D01*
X114790000Y-116310000D02*
X115200000Y-115900000D01*
X139600000Y-71290588D02*
X139975010Y-71665598D01*
X138800000Y-86488942D02*
X138500000Y-86788942D01*
X113400000Y-98826998D02*
X113194990Y-98621988D01*
X113800000Y-105800000D02*
X112874999Y-104874999D01*
%TO.N,/gate_to_3v3_A/GATE_IN_1*%
X140987500Y-46900000D02*
X141000000Y-46900000D01*
X141000000Y-46900000D02*
X142700000Y-45200000D01*
%TO.N,/gate_to_3v3_A/GATE_IN_3*%
X127787500Y-46912500D02*
X129300000Y-45400000D01*
X127787500Y-47100000D02*
X127787500Y-46912500D01*
%TO.N,/gate_to_3v3_A/GATE_3V3_1*%
X144600000Y-46390000D02*
X144600000Y-45200000D01*
X144600000Y-46400000D02*
X145245010Y-47045010D01*
X144600000Y-46390000D02*
X144600000Y-46400000D01*
X145245010Y-47045010D02*
X145245011Y-48191381D01*
X146300000Y-49246370D02*
X146300000Y-49900000D01*
X145245011Y-48191381D02*
X146300000Y-49246370D01*
%TO.N,/gate_to_3v3_A/GATE_3V3_3*%
X143600000Y-48800000D02*
X143600000Y-49600000D01*
X132290000Y-46590000D02*
X132400000Y-46700000D01*
X143175020Y-48375020D02*
X143600000Y-48800000D01*
X140151999Y-49325001D02*
X141011409Y-49325001D01*
X131200000Y-46590000D02*
X132290000Y-46590000D01*
X134100000Y-49300000D02*
X134449990Y-48950010D01*
X134000000Y-49300000D02*
X134100000Y-49300000D01*
X139777008Y-48950010D02*
X140151999Y-49325001D01*
X131200000Y-46590000D02*
X131200000Y-45300000D01*
X141011409Y-49325001D02*
X141961390Y-48375020D01*
X141961390Y-48375020D02*
X143175020Y-48375020D01*
X134449990Y-48950010D02*
X139777008Y-48950010D01*
%TO.N,/gate_to_3v3_A/GATE_IN_2*%
X134187500Y-47012500D02*
X135900000Y-45300000D01*
X134187500Y-47100000D02*
X134187500Y-47012500D01*
%TO.N,/gate_to_3v3_A/GATE_IN_4*%
X122387500Y-45700000D02*
X122700000Y-45700000D01*
X120887500Y-47200000D02*
X122387500Y-45700000D01*
%TO.N,/gate_to_3v3_A/GATE_3V3_2*%
X145000000Y-49100000D02*
X145000000Y-49800000D01*
X138000000Y-46590000D02*
X138000000Y-45300000D01*
X138000000Y-46590000D02*
X139090000Y-46590000D01*
X141774990Y-47925010D02*
X143825010Y-47925010D01*
X140500000Y-48600000D02*
X141100000Y-48600000D01*
X143825010Y-47925010D02*
X145000000Y-49100000D01*
X141100000Y-48600000D02*
X141774990Y-47925010D01*
%TO.N,/gate_to_3v3_A/GATE_3V3_4*%
X125890000Y-46690000D02*
X126000000Y-46800000D01*
X134972982Y-49400020D02*
X139590608Y-49400020D01*
X142300000Y-80100000D02*
X141600000Y-80800000D01*
X134348001Y-50025001D02*
X134972982Y-49400020D01*
X132700000Y-49250010D02*
X133474991Y-50025001D01*
X143350010Y-84913600D02*
X143350010Y-83622830D01*
X124800000Y-46690000D02*
X125890000Y-46690000D01*
X141197810Y-49775010D02*
X141872820Y-49100000D01*
X142626998Y-80100000D02*
X142300000Y-80100000D01*
X143299982Y-80772984D02*
X142626998Y-80100000D01*
X133474991Y-50025001D02*
X134348001Y-50025001D01*
X139965599Y-49775011D02*
X141197810Y-49775010D01*
X142300000Y-49200000D02*
X142300000Y-49800000D01*
X143299982Y-83572802D02*
X143299982Y-80772984D01*
X128649990Y-49250010D02*
X132700000Y-49250010D01*
X141872820Y-49100000D02*
X142200000Y-49100000D01*
X139590608Y-49400020D02*
X139965599Y-49775011D01*
X128200000Y-49600000D02*
X128300000Y-49600000D01*
X128300000Y-49600000D02*
X128649990Y-49250010D01*
X124800000Y-46690000D02*
X124800000Y-45400000D01*
X142200000Y-49100000D02*
X142300000Y-49200000D01*
X143350010Y-83622830D02*
X143299982Y-83572802D01*
%TO.N,/gate_to_3v3_B/GATE_IN_1*%
X144587500Y-55000000D02*
X144587500Y-54912500D01*
X144587500Y-54912500D02*
X146200000Y-53300000D01*
%TO.N,/gate_to_3v3_B/GATE_IN_3*%
X132187500Y-54900000D02*
X132200000Y-54900000D01*
X132200000Y-54900000D02*
X134000000Y-53100000D01*
%TO.N,/gate_to_3v3_B/GATE_3V3_1*%
X148100000Y-54490000D02*
X148100000Y-53200000D01*
X146905010Y-56105010D02*
X146825010Y-56025010D01*
X148475544Y-56105010D02*
X146905010Y-56105010D01*
X148449990Y-54519990D02*
X148449991Y-54889437D01*
X143318880Y-56905030D02*
X141994970Y-56905030D01*
X141994970Y-56905030D02*
X141600000Y-57300000D01*
X148745010Y-55835544D02*
X148475544Y-56105010D01*
X141600000Y-57300000D02*
X141600000Y-57500000D01*
X144198900Y-56025010D02*
X143318880Y-56905030D01*
X148420000Y-54490000D02*
X148449990Y-54519990D01*
X146825010Y-56025010D02*
X144198900Y-56025010D01*
X148100000Y-54490000D02*
X148420000Y-54490000D01*
X148449991Y-54889437D02*
X148745010Y-55184456D01*
X148745010Y-55184456D02*
X148745010Y-55835544D01*
%TO.N,/gate_to_3v3_B/GATE_3V3_3*%
X136000000Y-54390000D02*
X136000000Y-53200000D01*
X136800000Y-52200000D02*
X137500000Y-52200000D01*
X136050000Y-52950000D02*
X136800000Y-52200000D01*
X136050000Y-53100000D02*
X136050000Y-52950000D01*
%TO.N,/gate_to_3v3_B/GATE_IN_2*%
X138387500Y-54900000D02*
X138387500Y-54812500D01*
X138387500Y-54812500D02*
X140100000Y-53100000D01*
%TO.N,/gate_to_3v3_B/GATE_IN_4*%
X126087500Y-54900000D02*
X126087500Y-54812500D01*
X126087500Y-54812500D02*
X127800000Y-53100000D01*
%TO.N,/gate_to_3v3_B/GATE_3V3_2*%
X138626997Y-81199999D02*
X140173001Y-81199999D01*
X141100000Y-82126998D02*
X141100000Y-83700000D01*
X142150000Y-52150000D02*
X142300000Y-52000000D01*
X142100000Y-54390000D02*
X142100000Y-53100000D01*
X140173001Y-81199999D02*
X141100000Y-82126998D01*
X138226998Y-80800000D02*
X138626997Y-81199999D01*
X142150000Y-53100000D02*
X142150000Y-52150000D01*
%TO.N,/gate_to_3v3_B/GATE_3V3_4*%
X129800000Y-54390000D02*
X129800000Y-53200000D01*
X129850000Y-53100000D02*
X129850000Y-52850000D01*
X129850000Y-52850000D02*
X130500000Y-52200000D01*
X130500000Y-52200000D02*
X131500000Y-52200000D01*
%TO.N,/gate_to_3v3_C/GATE_IN_1*%
X137413890Y-64710020D02*
X137808900Y-64315010D01*
X142800000Y-63556410D02*
X143256410Y-63100000D01*
X124918235Y-68018175D02*
X124918235Y-77581765D01*
X144587500Y-62812500D02*
X146100000Y-61300000D01*
X144587500Y-63200000D02*
X144587500Y-62812500D01*
X142800000Y-63890554D02*
X142800000Y-63556410D01*
X142375544Y-64315010D02*
X142800000Y-63890554D01*
X136706944Y-64710020D02*
X137413890Y-64710020D01*
X127336390Y-65600020D02*
X124918235Y-68018175D01*
X136561945Y-64855019D02*
X136706944Y-64710020D01*
X131260300Y-65600020D02*
X132005300Y-64855020D01*
X137808900Y-64315010D02*
X142375544Y-64315010D01*
X143256410Y-63100000D02*
X144500000Y-63100000D01*
X127336390Y-65600020D02*
X131260300Y-65600020D01*
X132005300Y-64855020D02*
X136561945Y-64855019D01*
%TO.N,/gate_to_3v3_C/GATE_IN_3*%
X126872820Y-64700000D02*
X124018215Y-67554605D01*
X132287500Y-62912500D02*
X134000000Y-61200000D01*
X132287500Y-63300000D02*
X132287500Y-62912500D01*
X124018215Y-67554605D02*
X124018215Y-73481785D01*
X132287500Y-63300000D02*
X130887500Y-64700000D01*
X130887500Y-64700000D02*
X126872820Y-64700000D01*
%TO.N,/gate_to_3v3_C/GATE_3V3_1*%
X148200000Y-61400000D02*
X148100000Y-61300000D01*
X148200000Y-62590000D02*
X148200000Y-61400000D01*
%TO.N,/gate_to_3v3_C/GATE_3V3_3*%
X144138190Y-64238190D02*
X144400000Y-64500000D01*
X139234980Y-64765020D02*
X142561945Y-64765019D01*
X136000000Y-62790000D02*
X136000000Y-61200000D01*
X144400000Y-64500000D02*
X144400000Y-64800000D01*
X144100000Y-64238190D02*
X144138190Y-64238190D01*
X143250009Y-64076955D02*
X143938765Y-64076955D01*
X136050000Y-61200000D02*
X137200000Y-61200000D01*
X143938765Y-64076955D02*
X144100000Y-64238190D01*
X138800000Y-65200000D02*
X139234980Y-64765020D01*
X142561945Y-64765019D02*
X143250009Y-64076955D01*
%TO.N,/gate_to_3v3_C/GATE_IN_2*%
X137987500Y-63500000D02*
X138000000Y-63500000D01*
X136375544Y-64405010D02*
X136520544Y-64260010D01*
X136520544Y-64260010D02*
X137227490Y-64260010D01*
X138287500Y-63012500D02*
X140100000Y-61200000D01*
X127149990Y-65150010D02*
X131073901Y-65150009D01*
X131073901Y-65150009D02*
X131818900Y-64405010D01*
X127149990Y-65150010D02*
X124468225Y-67831775D01*
X131818900Y-64405010D02*
X136375544Y-64405010D01*
X137227490Y-64260010D02*
X137987500Y-63500000D01*
X138287500Y-63200000D02*
X138287500Y-63012500D01*
X124468225Y-67831775D02*
X124468225Y-75531775D01*
%TO.N,/gate_to_3v3_C/GATE_IN_4*%
X126287500Y-63300000D02*
X126287500Y-62812500D01*
X126287500Y-62812500D02*
X127800000Y-61300000D01*
%TO.N,/gate_to_3v3_C/GATE_3V3_2*%
X143600000Y-61426998D02*
X144326998Y-60700000D01*
X144326998Y-60173002D02*
X144500000Y-60000000D01*
X142000000Y-61300000D02*
X142100000Y-61200000D01*
X142383590Y-62700000D02*
X143600000Y-61483590D01*
X143600000Y-61483590D02*
X143600000Y-61426998D01*
X144326998Y-60700000D02*
X144326998Y-60173002D01*
X142000000Y-62700000D02*
X142383590Y-62700000D01*
X142000000Y-62700000D02*
X142000000Y-61300000D01*
%TO.N,/gate_to_3v3_C/GATE_3V3_4*%
X129750000Y-61150000D02*
X130400000Y-60500000D01*
X136939970Y-65160030D02*
X137687028Y-65160030D01*
X132600000Y-65600000D02*
X132700000Y-65600000D01*
X136794972Y-65305028D02*
X136939970Y-65160030D01*
X132700000Y-65600000D02*
X132994972Y-65305028D01*
X143600000Y-64800000D02*
X143674999Y-64874999D01*
X143674999Y-65774999D02*
X143900000Y-66000000D01*
X129800000Y-62790000D02*
X129800000Y-61400000D01*
X139857974Y-65215028D02*
X142748346Y-65215028D01*
X132994972Y-65305028D02*
X136794972Y-65305028D01*
X139148001Y-65925001D02*
X139857974Y-65215028D01*
X137687028Y-65160030D02*
X138451999Y-65925001D01*
X129750000Y-61300000D02*
X129750000Y-61150000D01*
X142748346Y-65215028D02*
X143163374Y-64800000D01*
X143163374Y-64800000D02*
X143600000Y-64800000D01*
X138451999Y-65925001D02*
X139148001Y-65925001D01*
X130400000Y-60500000D02*
X131300000Y-60500000D01*
X143674999Y-64874999D02*
X143674999Y-65774999D01*
%TO.N,/GATE_IN_EN*%
X151775000Y-99175000D02*
X150900000Y-98300000D01*
X151775000Y-100937500D02*
X151775000Y-99175000D01*
%TO.N,/ADC_EN*%
X150500000Y-100400000D02*
X150500000Y-100100000D01*
X136248001Y-94874999D02*
X134061999Y-94874999D01*
X151100000Y-99136410D02*
X150713600Y-98750010D01*
X129225000Y-96500000D02*
X129225000Y-97475000D01*
X139225001Y-95948001D02*
X139225001Y-95251999D01*
X145646822Y-98300000D02*
X139700000Y-98300000D01*
X150713600Y-98750010D02*
X146096832Y-98750010D01*
X137079999Y-94979999D02*
X136353001Y-94979999D01*
X133036998Y-95900000D02*
X129825000Y-95900000D01*
X150500000Y-100100000D02*
X151100000Y-99500000D01*
X139135010Y-97735010D02*
X139135010Y-96037992D01*
X139135010Y-96037992D02*
X139225001Y-95948001D01*
X138848001Y-94874999D02*
X137184999Y-94874999D01*
X136353001Y-94979999D02*
X136248001Y-94874999D01*
X139700000Y-98300000D02*
X139135010Y-97735010D01*
X146096832Y-98750010D02*
X145646822Y-98300000D01*
X151100000Y-99500000D02*
X151100000Y-99136410D01*
X134061999Y-94874999D02*
X133036998Y-95900000D01*
X139225001Y-95251999D02*
X138848001Y-94874999D01*
X137184999Y-94874999D02*
X137079999Y-94979999D01*
X129825000Y-95900000D02*
X129225000Y-96500000D01*
%TO.N,/DAC_EN*%
X151100000Y-101651058D02*
X151100000Y-101000000D01*
X149424989Y-104175011D02*
X149424989Y-103326069D01*
X149050000Y-104550000D02*
X149424989Y-104175011D01*
X146450000Y-104550000D02*
X149050000Y-104550000D01*
X149424989Y-103326069D02*
X151100000Y-101651058D01*
%TO.N,/GATE_OUT_EN*%
X151500000Y-102900000D02*
X151500000Y-103300000D01*
X145835000Y-110625000D02*
X145835000Y-108565000D01*
X151500000Y-103300000D02*
X150600000Y-104200000D01*
X152800000Y-102900000D02*
X151500000Y-102900000D01*
X145835000Y-108565000D02*
X146000000Y-108400000D01*
%TD*%
M02*
