%TF.GenerationSoftware,KiCad,Pcbnew,5.1.9+dfsg1-1*%
%TF.CreationDate,2022-02-13T09:09:29-05:00*%
%TF.ProjectId,eurorack_to_3v3,6575726f-7261-4636-9b5f-746f5f337633,1*%
%TF.SameCoordinates,Original*%
%TF.FileFunction,Soldermask,Bot*%
%TF.FilePolarity,Negative*%
%FSLAX46Y46*%
G04 Gerber Fmt 4.6, Leading zero omitted, Abs format (unit mm)*
G04 Created by KiCad (PCBNEW 5.1.9+dfsg1-1) date 2022-02-13 09:09:29*
%MOMM*%
%LPD*%
G01*
G04 APERTURE LIST*
%ADD10C,3.500000*%
%ADD11C,1.700000*%
%ADD12C,1.524000*%
%ADD13R,1.524000X1.524000*%
G04 APERTURE END LIST*
D10*
%TO.C,H3*%
X117000000Y-109900000D03*
%TD*%
%TO.C,H2*%
X146900000Y-82000000D03*
%TD*%
%TO.C,H1*%
X116400000Y-43400000D03*
%TD*%
D11*
%TO.C,J30*%
X152060000Y-129240000D03*
X149520000Y-129240000D03*
X146980000Y-129240000D03*
X144440000Y-129240000D03*
X141900000Y-129240000D03*
X152060000Y-126700000D03*
X149520000Y-126700000D03*
X146980000Y-126700000D03*
X144440000Y-126700000D03*
G36*
G01*
X141300000Y-125850000D02*
X142500000Y-125850000D01*
G75*
G02*
X142750000Y-126100000I0J-250000D01*
G01*
X142750000Y-127300000D01*
G75*
G02*
X142500000Y-127550000I-250000J0D01*
G01*
X141300000Y-127550000D01*
G75*
G02*
X141050000Y-127300000I0J250000D01*
G01*
X141050000Y-126100000D01*
G75*
G02*
X141300000Y-125850000I250000J0D01*
G01*
G37*
%TD*%
%TO.C,J25*%
X119540000Y-126660000D03*
X122080000Y-126660000D03*
X124620000Y-126660000D03*
X127160000Y-126660000D03*
X129700000Y-126660000D03*
X119540000Y-129200000D03*
X122080000Y-129200000D03*
X124620000Y-129200000D03*
X127160000Y-129200000D03*
G36*
G01*
X130300000Y-130050000D02*
X129100000Y-130050000D01*
G75*
G02*
X128850000Y-129800000I0J250000D01*
G01*
X128850000Y-128600000D01*
G75*
G02*
X129100000Y-128350000I250000J0D01*
G01*
X130300000Y-128350000D01*
G75*
G02*
X130550000Y-128600000I0J-250000D01*
G01*
X130550000Y-129800000D01*
G75*
G02*
X130300000Y-130050000I-250000J0D01*
G01*
G37*
%TD*%
D12*
%TO.C,J7*%
X154300000Y-67500000D03*
X154300000Y-69500000D03*
X154300000Y-71500000D03*
D13*
X154300000Y-73532000D03*
%TD*%
D12*
%TO.C,J6*%
X154200000Y-55500000D03*
X154200000Y-57500000D03*
X154200000Y-59500000D03*
D13*
X154200000Y-61532000D03*
%TD*%
D12*
%TO.C,J5*%
X116600000Y-73700000D03*
X116600000Y-75700000D03*
X116600000Y-77700000D03*
D13*
X116600000Y-79732000D03*
%TD*%
D12*
%TO.C,J4*%
X116600000Y-85500000D03*
X116600000Y-87500000D03*
X116600000Y-89500000D03*
D13*
X116600000Y-91532000D03*
%TD*%
D12*
%TO.C,J3*%
X116600000Y-50600000D03*
X116600000Y-52600000D03*
X116600000Y-54600000D03*
D13*
X116600000Y-56632000D03*
%TD*%
D12*
%TO.C,J2*%
X116600000Y-61800000D03*
X116600000Y-63800000D03*
X116600000Y-65800000D03*
D13*
X116600000Y-67832000D03*
%TD*%
D12*
%TO.C,J1*%
X154200000Y-43500000D03*
X154200000Y-45500000D03*
X154200000Y-47500000D03*
D13*
X154200000Y-49532000D03*
%TD*%
M02*
