M48
; DRILL file {KiCad 5.1.9+dfsg1-1} date Sun Feb 13 09:10:25 2022
; FORMAT={-:-/ absolute / metric / decimal}
; #@! TF.CreationDate,2022-02-13T09:10:25-05:00
; #@! TF.GenerationSoftware,Kicad,Pcbnew,5.1.9+dfsg1-1
; #@! TF.FileFunction,Plated,1,2,PTH
FMAT,2
METRIC
T1C0.400
T2C0.762
T3C1.000
%
G90
G05
T1
X113.5Y-82.8
X113.6Y-99.7
X113.69Y-101.19
X115.1Y-93.5
X116.16Y-99.14
X116.5Y-93.4
X116.7Y-82.4
X118.4Y-99.1
X119.6Y-81.3
X119.9Y-105.5
X121.7Y-106.8
X121.8Y-94.3
X122.7Y-82.7
X123.5Y-114.7
X124.1Y-91.6
X124.16Y-118.66
X124.4Y-112.7
X125.1Y-97.9
X125.9Y-74.9
X126.0Y-46.8
X126.245Y-85.755
X126.3Y-80.4
X126.3Y-122.9
X126.4Y-92.5
X126.7Y-77.2
X127.1Y-107.4
X127.8Y-85.6
X127.807Y-45.407
X127.92Y-72.28
X127.955Y-95.745
X127.997Y-86.87
X128.2Y-49.6
X128.6Y-78.2
X129.1Y-112.5
X129.2Y-103.7
X129.7Y-78.2
X129.9Y-72.2
X130.097Y-70.93
X130.5Y-80.3
X131.1Y-78.2
X131.3Y-60.5
X131.5Y-52.2
X131.5Y-112.3
X131.8Y-103.1
X132.2Y-81.4
X132.305Y-61.305
X132.4Y-46.7
X132.6Y-65.6
X132.7Y-121.9
X132.75Y-119.35
X132.975Y-52.325
X133.035Y-90.765
X134.0Y-49.3
X134.305Y-90.805
X134.305Y-95.705
X134.431Y-45.331
X134.5Y-78.9
X135.1Y-111.0
X135.1Y-112.3
X135.5Y-110.0
X135.575Y-90.725
X135.9Y-95.6
X135.9Y-107.4
X136.0Y-103.7
X136.3Y-111.7
X136.4Y-86.7
X136.9Y-85.6
X137.2Y-61.2
X137.4Y-106.6
X137.5Y-52.2
X137.6Y-86.8
X137.6Y-115.8
X138.0Y-128.4
X138.1Y-79.6
X138.227Y-80.8
X138.4Y-77.5
X138.5Y-61.3
X138.5Y-95.6
X138.5Y-100.0
X138.687Y-73.387
X138.8Y-65.2
X138.8Y-72.2
X138.8Y-116.1
X139.0Y-109.1
X139.09Y-46.59
X139.2Y-114.8
X139.3Y-91.5
X139.6Y-112.2
X139.65Y-70.95
X139.8Y-90.4
X139.9Y-78.6
X139.9Y-82.0
X139.9Y-84.6
X140.1Y-85.873
X140.15Y-128.45
X140.3Y-108.8
X140.5Y-48.6
X140.7Y-79.5
X141.1Y-83.7
X141.181Y-45.181
X141.6Y-57.5
X141.6Y-80.8
X141.7Y-119.9
X141.9Y-82.8
X141.933Y-86.9
X142.0Y-108.2
X142.3Y-49.8
X142.3Y-52.0
X142.4Y-85.7
X142.55Y-81.45
X142.8Y-105.2
X143.3Y-79.7
X143.6Y-49.6
X143.9Y-66.0
X143.9Y-91.4
X143.9Y-94.1
X144.0Y-77.8
X144.1Y-92.5
X144.2Y-79.0
X144.2Y-100.0
X144.4Y-64.8
X144.4Y-95.1
X144.4Y-97.5
X144.4Y-102.7
X144.5Y-60.0
X144.565Y-112.265
X144.6Y-105.8
X144.7Y-61.4
X144.7Y-77.0
X145.0Y-49.8
X145.0Y-93.2
X145.2Y-75.0
X145.2Y-88.1
X145.2Y-89.5
X145.7Y-68.4
X145.7Y-86.5
X145.7Y-101.0
X146.0Y-108.4
X146.1Y-64.8
X146.3Y-49.9
X146.5Y-112.6
X146.8Y-65.9
X146.875Y-75.725
X147.2Y-100.1
X147.5Y-72.5
X147.6Y-70.8
X147.8Y-105.3
X147.9Y-86.6
X147.95Y-120.65
X148.1Y-99.5
X148.4Y-108.6
X149.155Y-97.345
X149.2Y-95.6
X149.645Y-113.755
X149.825Y-99.575
X150.3Y-85.8
X150.6Y-104.2
X151.5Y-108.6
X151.8Y-113.0
X152.2Y-104.1
X152.6Y-98.6
X152.7Y-108.4
X152.8Y-102.9
X153.1Y-92.8
X153.4Y-104.7
X153.9Y-109.6
X153.945Y-97.345
X154.0Y-99.4
X154.0Y-110.8
X154.1Y-95.2
X154.2Y-93.5
X154.3Y-83.1
X154.325Y-89.725
X154.375Y-105.275
X154.85Y-111.85
X155.25Y-87.15
X155.7Y-99.0
X155.7Y-119.7
X155.9Y-118.2
X156.1Y-84.7
X156.5Y-78.9
X156.5Y-109.1
X156.9Y-80.6
X157.95Y-108.95
T2
X116.6Y-50.6
X116.6Y-52.6
X116.6Y-54.6
X116.6Y-56.632
X116.6Y-61.8
X116.6Y-63.8
X116.6Y-65.8
X116.6Y-67.832
X116.6Y-73.7
X116.6Y-75.7
X116.6Y-77.7
X116.6Y-79.732
X116.6Y-85.5
X116.6Y-87.5
X116.6Y-89.5
X116.6Y-91.532
X154.2Y-43.5
X154.2Y-45.5
X154.2Y-47.5
X154.2Y-49.532
X154.2Y-55.5
X154.2Y-57.5
X154.2Y-59.5
X154.2Y-61.532
X154.3Y-67.5
X154.3Y-69.5
X154.3Y-71.5
X154.3Y-73.532
T3
X119.54Y-126.66
X119.54Y-129.2
X122.08Y-126.66
X122.08Y-129.2
X124.62Y-126.66
X124.62Y-129.2
X127.16Y-126.66
X127.16Y-129.2
X129.7Y-126.66
X129.7Y-129.2
X141.9Y-126.7
X141.9Y-129.24
X144.44Y-126.7
X144.44Y-129.24
X146.98Y-126.7
X146.98Y-129.24
X149.52Y-126.7
X149.52Y-129.24
X152.06Y-126.7
X152.06Y-129.24
T0
M30
