  0
SECTION
  2
HEADER
  9
$ANGBASE
  50
0.0
  9
$ANGDIR
  70
1
  9
$MEASUREMENT
  70
0
  0
ENDSEC
  0
SECTION
  2
TABLES
  0
TABLE
  2
LTYPE
  70
4
  0
LTYPE
  5
40F
  2
CONTINUOUS
  70
0
  3
Solid line
  72
65
  73
0
  40
0.0
  0
LTYPE
  5
410
  2
DASHDOT
 70
0
  3
Dash Dot ____ _ ____ _
 72
65
 73
4
 40
2.0
 49
1.25
 49
-0.25
 49
0.25
 49
-0.25
  0
LTYPE
  5
411
  2
DASHED
 70
0
  3
Dashed __ __ __ __ __
 72
65
 73
2
 40
0.75
 49
0.5
 49
-0.25
  0
LTYPE
  5
43B
  2
DOTTED
 70
0
  3
Dotted .  .  .  .
 72
65
 73
2
 40
0.2
 49
0.0
 49
-0.2
  0
ENDTAB
  0
TABLE
  2
STYLE
  70
4
  0
STYLE
  2
KICAD
  70
0
  40
0
  41
1
  42
1
  50
0
  71
0
  3
isocp.shx
  0
STYLE
  2
KICADB
  70
0
  40
0
  41
1
  42
1
  50
0
  71
0
  3
isocp.shx
  0
STYLE
  2
KICADI
  70
0
  40
0
  41
1
  42
1
  50
15
  71
0
  3
isocp.shx
  0
STYLE
  2
KICADBI
  70
0
  40
0
  41
1
  42
1
  50
15
  71
0
  3
isocp.shx
  0
ENDTAB
  0
TABLE
  2
LAYER
  70
1
  0
LAYER
  2
BLACK
  70
0
  62
7
  6
CONTINUOUS
  0
ENDTAB
  0
ENDSEC
  0
SECTION
  2
ENTITIES
0
LINE
8
BLACK
6
CONTINUOUS
10
10.8795
20
-4.47896
11
10.8793
21
-4.47926
0
LINE
8
BLACK
6
CONTINUOUS
10
10.8793
20
-4.47926
11
10.8793
21
-4.47961
0
LINE
8
BLACK
6
CONTINUOUS
10
10.8793
20
-4.47961
11
10.8786
21
-4.4804
0
LINE
8
BLACK
6
CONTINUOUS
10
10.8786
20
-4.4804
11
10.878
21
-4.48128
0
LINE
8
BLACK
6
CONTINUOUS
10
10.878
20
-4.48128
11
10.8777
21
-4.48143
0
LINE
8
BLACK
6
CONTINUOUS
10
10.8777
20
-4.48143
11
10.8775
21
-4.4817
0
LINE
8
BLACK
6
CONTINUOUS
10
10.8775
20
-4.4817
11
10.8765
21
-4.482
0
LINE
8
BLACK
6
CONTINUOUS
10
10.8765
20
-4.482
11
10.8755
21
-4.48243
0
LINE
8
BLACK
6
CONTINUOUS
10
10.8755
20
-4.48243
11
10.8751
21
-4.48238
0
LINE
8
BLACK
6
CONTINUOUS
10
10.8751
20
-4.48238
11
10.8748
21
-4.48248
0
LINE
8
BLACK
6
CONTINUOUS
10
10.8748
20
-4.48248
11
2.39134
21
-4.48248
0
LINE
8
BLACK
6
CONTINUOUS
10
2.39134
20
-4.48248
11
2.38994
21
-4.48228
0
LINE
8
BLACK
6
CONTINUOUS
10
2.38994
20
-4.48228
11
2.38964
21
-4.48208
0
LINE
8
BLACK
6
CONTINUOUS
10
2.38964
20
-4.48208
11
2.38929
21
-4.48203
0
LINE
8
BLACK
6
CONTINUOUS
10
2.38929
20
-4.48203
11
2.3885
21
-4.48134
0
LINE
8
BLACK
6
CONTINUOUS
10
2.3885
20
-4.48134
11
2.38761
21
-4.48077
0
LINE
8
BLACK
6
CONTINUOUS
10
2.38761
20
-4.48077
11
2.38747
21
-4.48045
0
LINE
8
BLACK
6
CONTINUOUS
10
2.38747
20
-4.48045
11
2.3872
21
-4.48022
0
LINE
8
BLACK
6
CONTINUOUS
10
2.3872
20
-4.48022
11
2.3869
21
-4.47921
0
LINE
8
BLACK
6
CONTINUOUS
10
2.3869
20
-4.47921
11
2.38647
21
-4.47825
0
LINE
8
BLACK
6
CONTINUOUS
10
2.38647
20
-4.47825
11
2.38652
21
-4.4779
0
LINE
8
BLACK
6
CONTINUOUS
10
2.38652
20
-4.4779
11
2.38642
21
-4.47756
0
LINE
8
BLACK
6
CONTINUOUS
10
2.38642
20
-4.47756
11
2.38642
21
-2.40512
0
LINE
8
BLACK
6
CONTINUOUS
10
2.38642
20
-2.40512
11
2.38662
21
-2.40372
0
LINE
8
BLACK
6
CONTINUOUS
10
2.38662
20
-2.40372
11
2.38681
21
-2.40342
0
LINE
8
BLACK
6
CONTINUOUS
10
2.38681
20
-2.40342
11
2.38686
21
-2.40307
0
LINE
8
BLACK
6
CONTINUOUS
10
2.38686
20
-2.40307
11
2.38755
21
-2.40228
0
LINE
8
BLACK
6
CONTINUOUS
10
2.38755
20
-2.40228
11
2.38812
21
-2.40139
0
LINE
8
BLACK
6
CONTINUOUS
10
2.38812
20
-2.40139
11
2.38845
21
-2.40125
0
LINE
8
BLACK
6
CONTINUOUS
10
2.38845
20
-2.40125
11
2.38868
21
-2.40098
0
LINE
8
BLACK
6
CONTINUOUS
10
2.38868
20
-2.40098
11
2.38969
21
-2.40068
0
LINE
8
BLACK
6
CONTINUOUS
10
2.38969
20
-2.40068
11
2.39065
21
-2.40025
0
LINE
8
BLACK
6
CONTINUOUS
10
2.39065
20
-2.40025
11
2.391
21
-2.4003
0
LINE
8
BLACK
6
CONTINUOUS
10
2.391
20
-2.4003
11
2.39134
21
-2.4002
0
LINE
8
BLACK
6
CONTINUOUS
10
2.39134
20
-2.4002
11
10.8748
21
-2.4002
0
LINE
8
BLACK
6
CONTINUOUS
10
10.8748
20
-2.4002
11
10.8762
21
-2.4004
0
LINE
8
BLACK
6
CONTINUOUS
10
10.8762
20
-2.4004
11
10.8765
21
-2.40059
0
LINE
8
BLACK
6
CONTINUOUS
10
10.8765
20
-2.40059
11
10.8769
21
-2.40064
0
LINE
8
BLACK
6
CONTINUOUS
10
10.8769
20
-2.40064
11
10.8776
21
-2.40133
0
LINE
8
BLACK
6
CONTINUOUS
10
10.8776
20
-2.40133
11
10.8785
21
-2.4019
0
LINE
8
BLACK
6
CONTINUOUS
10
10.8785
20
-2.4019
11
10.8787
21
-2.40223
0
LINE
8
BLACK
6
CONTINUOUS
10
10.8787
20
-2.40223
11
10.8789
21
-2.40246
0
LINE
8
BLACK
6
CONTINUOUS
10
10.8789
20
-2.40246
11
10.8792
21
-2.40347
0
LINE
8
BLACK
6
CONTINUOUS
10
10.8792
20
-2.40347
11
10.8797
21
-2.40442
0
LINE
8
BLACK
6
CONTINUOUS
10
10.8797
20
-2.40442
11
10.8796
21
-2.40478
0
LINE
8
BLACK
6
CONTINUOUS
10
10.8796
20
-2.40478
11
10.8797
21
-2.40512
0
LINE
8
BLACK
6
CONTINUOUS
10
10.8797
20
-2.40512
11
10.8797
21
-4.47756
0
LINE
8
BLACK
6
CONTINUOUS
10
10.8797
20
-4.47756
11
10.8795
21
-4.47896
0
LINE
8
BLACK
6
CONTINUOUS
10
10.6089
20
-4.22343
11
10.6089
21
-4.47264
0
LINE
8
BLACK
6
CONTINUOUS
10
10.6089
20
-4.47264
11
10.8699
21
-4.47264
0
LINE
8
BLACK
6
CONTINUOUS
10
10.8699
20
-4.47264
11
10.8699
21
-4.22343
0
LINE
8
BLACK
6
CONTINUOUS
10
10.8699
20
-4.22343
11
10.6089
21
-4.22343
0
LINE
8
BLACK
6
CONTINUOUS
10
10.3478
20
-4.22343
11
10.3478
21
-4.47264
0
LINE
8
BLACK
6
CONTINUOUS
10
10.3478
20
-4.47264
11
10.599
21
-4.47264
0
LINE
8
BLACK
6
CONTINUOUS
10
10.599
20
-4.47264
11
10.599
21
-4.22343
0
LINE
8
BLACK
6
CONTINUOUS
10
10.599
20
-4.22343
11
10.3478
21
-4.22343
0
LINE
8
BLACK
6
CONTINUOUS
10
10.077
20
-4.22343
11
10.077
21
-4.47264
0
LINE
8
BLACK
6
CONTINUOUS
10
10.077
20
-4.47264
11
10.338
21
-4.47264
0
LINE
8
BLACK
6
CONTINUOUS
10
10.338
20
-4.47264
11
10.338
21
-4.22343
0
LINE
8
BLACK
6
CONTINUOUS
10
10.338
20
-4.22343
11
10.077
21
-4.22343
0
LINE
8
BLACK
6
CONTINUOUS
10
9.8187
20
-4.22343
11
9.8187
21
-4.47264
0
LINE
8
BLACK
6
CONTINUOUS
10
9.8187
20
-4.47264
11
10.0671
21
-4.47264
0
LINE
8
BLACK
6
CONTINUOUS
10
10.0671
20
-4.47264
11
10.0671
21
-4.22343
0
LINE
8
BLACK
6
CONTINUOUS
10
10.0671
20
-4.22343
11
9.8187
21
-4.22343
0
LINE
8
BLACK
6
CONTINUOUS
10
9.54783
20
-4.22343
11
9.54783
21
-4.47264
0
LINE
8
BLACK
6
CONTINUOUS
10
9.54783
20
-4.47264
11
9.8061
21
-4.47264
0
LINE
8
BLACK
6
CONTINUOUS
10
9.8061
20
-4.47264
11
9.8061
21
-4.22343
0
LINE
8
BLACK
6
CONTINUOUS
10
9.8061
20
-4.22343
11
9.54783
21
-4.22343
0
LINE
8
BLACK
6
CONTINUOUS
10
9.28681
20
-4.22343
11
9.28681
21
-4.47264
0
LINE
8
BLACK
6
CONTINUOUS
10
9.28681
20
-4.47264
11
9.53799
21
-4.47264
0
LINE
8
BLACK
6
CONTINUOUS
10
9.53799
20
-4.47264
11
9.53799
21
-4.22343
0
LINE
8
BLACK
6
CONTINUOUS
10
9.53799
20
-4.22343
11
9.28681
21
-4.22343
0
LINE
8
BLACK
6
CONTINUOUS
10
9.01594
20
-4.22343
11
9.01594
21
-4.47264
0
LINE
8
BLACK
6
CONTINUOUS
10
9.01594
20
-4.47264
11
9.27697
21
-4.47264
0
LINE
8
BLACK
6
CONTINUOUS
10
9.27697
20
-4.47264
11
9.27697
21
-4.22343
0
LINE
8
BLACK
6
CONTINUOUS
10
9.27697
20
-4.22343
11
9.01594
21
-4.22343
0
LINE
8
BLACK
6
CONTINUOUS
10
8.7628
20
-4.22343
11
8.7628
21
-4.47264
0
LINE
8
BLACK
6
CONTINUOUS
10
8.7628
20
-4.47264
11
9.0061
21
-4.47264
0
LINE
8
BLACK
6
CONTINUOUS
10
9.0061
20
-4.47264
11
9.0061
21
-4.22343
0
LINE
8
BLACK
6
CONTINUOUS
10
9.0061
20
-4.22343
11
8.7628
21
-4.22343
0
LINE
8
BLACK
6
CONTINUOUS
10
8.49193
20
-4.22343
11
8.49193
21
-4.47264
0
LINE
8
BLACK
6
CONTINUOUS
10
8.49193
20
-4.47264
11
8.74508
21
-4.47264
0
LINE
8
BLACK
6
CONTINUOUS
10
8.74508
20
-4.47264
11
8.74508
21
-4.22343
0
LINE
8
BLACK
6
CONTINUOUS
10
8.74508
20
-4.22343
11
8.49193
21
-4.22343
0
LINE
8
BLACK
6
CONTINUOUS
10
8.23091
20
-4.22343
11
8.23091
21
-4.47264
0
LINE
8
BLACK
6
CONTINUOUS
10
8.23091
20
-4.47264
11
8.48209
21
-4.47264
0
LINE
8
BLACK
6
CONTINUOUS
10
8.48209
20
-4.47264
11
8.48209
21
-4.22343
0
LINE
8
BLACK
6
CONTINUOUS
10
8.48209
20
-4.22343
11
8.23091
21
-4.22343
0
LINE
8
BLACK
6
CONTINUOUS
10
7.96004
20
-4.22343
11
7.96004
21
-4.47264
0
LINE
8
BLACK
6
CONTINUOUS
10
7.96004
20
-4.47264
11
8.22106
21
-4.47264
0
LINE
8
BLACK
6
CONTINUOUS
10
8.22106
20
-4.47264
11
8.22106
21
-4.22343
0
LINE
8
BLACK
6
CONTINUOUS
10
8.22106
20
-4.22343
11
7.96004
21
-4.22343
0
LINE
8
BLACK
6
CONTINUOUS
10
7.70177
20
-4.22343
11
7.70177
21
-4.47264
0
LINE
8
BLACK
6
CONTINUOUS
10
7.70177
20
-4.47264
11
7.9502
21
-4.47264
0
LINE
8
BLACK
6
CONTINUOUS
10
7.9502
20
-4.47264
11
7.9502
21
-4.22343
0
LINE
8
BLACK
6
CONTINUOUS
10
7.9502
20
-4.22343
11
7.70177
21
-4.22343
0
LINE
8
BLACK
6
CONTINUOUS
10
7.43091
20
-4.22343
11
7.43091
21
-4.47264
0
LINE
8
BLACK
6
CONTINUOUS
10
7.43091
20
-4.47264
11
7.68917
21
-4.47264
0
LINE
8
BLACK
6
CONTINUOUS
10
7.68917
20
-4.47264
11
7.68917
21
-4.22343
0
LINE
8
BLACK
6
CONTINUOUS
10
7.68917
20
-4.22343
11
7.43091
21
-4.22343
0
LINE
8
BLACK
6
CONTINUOUS
10
7.16988
20
-4.22343
11
7.16988
21
-4.47264
0
LINE
8
BLACK
6
CONTINUOUS
10
7.16988
20
-4.47264
11
7.42106
21
-4.47264
0
LINE
8
BLACK
6
CONTINUOUS
10
7.42106
20
-4.47264
11
7.42106
21
-4.22343
0
LINE
8
BLACK
6
CONTINUOUS
10
7.42106
20
-4.22343
11
7.16988
21
-4.22343
0
LINE
8
BLACK
6
CONTINUOUS
10
6.89902
20
-4.22343
11
6.89902
21
-4.47264
0
LINE
8
BLACK
6
CONTINUOUS
10
6.89902
20
-4.47264
11
7.16004
21
-4.47264
0
LINE
8
BLACK
6
CONTINUOUS
10
7.16004
20
-4.47264
11
7.16004
21
-4.22343
0
LINE
8
BLACK
6
CONTINUOUS
10
7.16004
20
-4.22343
11
6.89902
21
-4.22343
0
LINE
8
BLACK
6
CONTINUOUS
10
6.63799
20
-4.22343
11
6.63799
21
-4.47264
0
LINE
8
BLACK
6
CONTINUOUS
10
6.63799
20
-4.47264
11
6.88917
21
-4.47264
0
LINE
8
BLACK
6
CONTINUOUS
10
6.88917
20
-4.47264
11
6.88917
21
-4.22343
0
LINE
8
BLACK
6
CONTINUOUS
10
6.88917
20
-4.22343
11
6.63799
21
-4.22343
0
LINE
8
BLACK
6
CONTINUOUS
10
6.36713
20
-4.22343
11
6.36713
21
-4.47264
0
LINE
8
BLACK
6
CONTINUOUS
10
6.36713
20
-4.47264
11
6.62815
21
-4.47264
0
LINE
8
BLACK
6
CONTINUOUS
10
6.62815
20
-4.47264
11
6.62815
21
-4.22343
0
LINE
8
BLACK
6
CONTINUOUS
10
6.62815
20
-4.22343
11
6.36713
21
-4.22343
0
LINE
8
BLACK
6
CONTINUOUS
10
6.1061
20
-4.22343
11
6.1061
21
-4.47264
0
LINE
8
BLACK
6
CONTINUOUS
10
6.1061
20
-4.47264
11
6.35728
21
-4.47264
0
LINE
8
BLACK
6
CONTINUOUS
10
6.35728
20
-4.47264
11
6.35728
21
-4.22343
0
LINE
8
BLACK
6
CONTINUOUS
10
6.35728
20
-4.22343
11
6.1061
21
-4.22343
0
LINE
8
BLACK
6
CONTINUOUS
10
5.83524
20
-4.22343
11
5.83524
21
-4.47264
0
LINE
8
BLACK
6
CONTINUOUS
10
5.83524
20
-4.47264
11
6.09626
21
-4.47264
0
LINE
8
BLACK
6
CONTINUOUS
10
6.09626
20
-4.47264
11
6.09626
21
-4.22343
0
LINE
8
BLACK
6
CONTINUOUS
10
6.09626
20
-4.22343
11
5.83524
21
-4.22343
0
LINE
8
BLACK
6
CONTINUOUS
10
5.57697
20
-4.22343
11
5.57697
21
-4.47264
0
LINE
8
BLACK
6
CONTINUOUS
10
5.57697
20
-4.47264
11
5.82539
21
-4.47264
0
LINE
8
BLACK
6
CONTINUOUS
10
5.82539
20
-4.47264
11
5.82539
21
-4.22343
0
LINE
8
BLACK
6
CONTINUOUS
10
5.82539
20
-4.22343
11
5.57697
21
-4.22343
0
LINE
8
BLACK
6
CONTINUOUS
10
5.3061
20
-4.22343
11
5.3061
21
-4.47264
0
LINE
8
BLACK
6
CONTINUOUS
10
5.3061
20
-4.47264
11
5.56437
21
-4.47264
0
LINE
8
BLACK
6
CONTINUOUS
10
5.56437
20
-4.47264
11
5.56437
21
-4.22343
0
LINE
8
BLACK
6
CONTINUOUS
10
5.56437
20
-4.22343
11
5.3061
21
-4.22343
0
LINE
8
BLACK
6
CONTINUOUS
10
5.04508
20
-4.22343
11
5.04508
21
-4.47264
0
LINE
8
BLACK
6
CONTINUOUS
10
5.04508
20
-4.47264
11
5.29626
21
-4.47264
0
LINE
8
BLACK
6
CONTINUOUS
10
5.29626
20
-4.47264
11
5.29626
21
-4.22343
0
LINE
8
BLACK
6
CONTINUOUS
10
5.29626
20
-4.22343
11
5.04508
21
-4.22343
0
LINE
8
BLACK
6
CONTINUOUS
10
4.77421
20
-4.22343
11
4.77421
21
-4.47264
0
LINE
8
BLACK
6
CONTINUOUS
10
4.77421
20
-4.47264
11
5.03524
21
-4.47264
0
LINE
8
BLACK
6
CONTINUOUS
10
5.03524
20
-4.47264
11
5.03524
21
-4.22343
0
LINE
8
BLACK
6
CONTINUOUS
10
5.03524
20
-4.22343
11
4.77421
21
-4.22343
0
LINE
8
BLACK
6
CONTINUOUS
10
4.52106
20
-4.22343
11
4.52106
21
-4.47264
0
LINE
8
BLACK
6
CONTINUOUS
10
4.52106
20
-4.47264
11
4.76437
21
-4.47264
0
LINE
8
BLACK
6
CONTINUOUS
10
4.76437
20
-4.47264
11
4.76437
21
-4.22343
0
LINE
8
BLACK
6
CONTINUOUS
10
4.76437
20
-4.22343
11
4.52106
21
-4.22343
0
LINE
8
BLACK
6
CONTINUOUS
10
4.2502
20
-4.22343
11
4.2502
21
-4.47264
0
LINE
8
BLACK
6
CONTINUOUS
10
4.2502
20
-4.47264
11
4.50335
21
-4.47264
0
LINE
8
BLACK
6
CONTINUOUS
10
4.50335
20
-4.47264
11
4.50335
21
-4.22343
0
LINE
8
BLACK
6
CONTINUOUS
10
4.50335
20
-4.22343
11
4.2502
21
-4.22343
0
LINE
8
BLACK
6
CONTINUOUS
10
3.98917
20
-4.22343
11
3.98917
21
-4.47264
0
LINE
8
BLACK
6
CONTINUOUS
10
3.98917
20
-4.47264
11
4.24035
21
-4.47264
0
LINE
8
BLACK
6
CONTINUOUS
10
4.24035
20
-4.47264
11
4.24035
21
-4.22343
0
LINE
8
BLACK
6
CONTINUOUS
10
4.24035
20
-4.22343
11
3.98917
21
-4.22343
0
LINE
8
BLACK
6
CONTINUOUS
10
3.71831
20
-4.22343
11
3.71831
21
-4.47264
0
LINE
8
BLACK
6
CONTINUOUS
10
3.71831
20
-4.47264
11
3.97933
21
-4.47264
0
LINE
8
BLACK
6
CONTINUOUS
10
3.97933
20
-4.47264
11
3.97933
21
-4.22343
0
LINE
8
BLACK
6
CONTINUOUS
10
3.97933
20
-4.22343
11
3.71831
21
-4.22343
0
LINE
8
BLACK
6
CONTINUOUS
10
3.46004
20
-4.22343
11
3.46004
21
-4.47264
0
LINE
8
BLACK
6
CONTINUOUS
10
3.46004
20
-4.47264
11
3.70846
21
-4.47264
0
LINE
8
BLACK
6
CONTINUOUS
10
3.70846
20
-4.47264
11
3.70846
21
-4.22343
0
LINE
8
BLACK
6
CONTINUOUS
10
3.70846
20
-4.22343
11
3.46004
21
-4.22343
0
LINE
8
BLACK
6
CONTINUOUS
10
3.18917
20
-4.22343
11
3.18917
21
-4.47264
0
LINE
8
BLACK
6
CONTINUOUS
10
3.18917
20
-4.47264
11
3.44744
21
-4.47264
0
LINE
8
BLACK
6
CONTINUOUS
10
3.44744
20
-4.47264
11
3.44744
21
-4.22343
0
LINE
8
BLACK
6
CONTINUOUS
10
3.44744
20
-4.22343
11
3.18917
21
-4.22343
0
LINE
8
BLACK
6
CONTINUOUS
10
2.92815
20
-4.22343
11
2.92815
21
-4.47264
0
LINE
8
BLACK
6
CONTINUOUS
10
2.92815
20
-4.47264
11
3.17933
21
-4.47264
0
LINE
8
BLACK
6
CONTINUOUS
10
3.17933
20
-4.47264
11
3.17933
21
-4.22343
0
LINE
8
BLACK
6
CONTINUOUS
10
3.17933
20
-4.22343
11
2.92815
21
-4.22343
0
LINE
8
BLACK
6
CONTINUOUS
10
2.65728
20
-4.22343
11
2.65728
21
-4.47264
0
LINE
8
BLACK
6
CONTINUOUS
10
2.65728
20
-4.47264
11
2.91831
21
-4.47264
0
LINE
8
BLACK
6
CONTINUOUS
10
2.91831
20
-4.47264
11
2.91831
21
-4.22343
0
LINE
8
BLACK
6
CONTINUOUS
10
2.91831
20
-4.22343
11
2.65728
21
-4.22343
0
LINE
8
BLACK
6
CONTINUOUS
10
2.39626
20
-4.22343
11
2.39626
21
-4.47264
0
LINE
8
BLACK
6
CONTINUOUS
10
2.39626
20
-4.47264
11
2.64744
21
-4.47264
0
LINE
8
BLACK
6
CONTINUOUS
10
2.64744
20
-4.47264
11
2.64744
21
-4.22343
0
LINE
8
BLACK
6
CONTINUOUS
10
2.64744
20
-4.22343
11
2.39626
21
-4.22343
0
LINE
8
BLACK
6
CONTINUOUS
10
10.6089
20
-3.96437
11
10.6089
21
-4.21358
0
LINE
8
BLACK
6
CONTINUOUS
10
10.6089
20
-4.21358
11
10.8699
21
-4.21358
0
LINE
8
BLACK
6
CONTINUOUS
10
10.8699
20
-4.21358
11
10.8699
21
-3.96437
0
LINE
8
BLACK
6
CONTINUOUS
10
10.8699
20
-3.96437
11
10.6089
21
-3.96437
0
LINE
8
BLACK
6
CONTINUOUS
10
10.3478
20
-3.96437
11
10.3478
21
-4.21358
0
LINE
8
BLACK
6
CONTINUOUS
10
10.3478
20
-4.21358
11
10.599
21
-4.21358
0
LINE
8
BLACK
6
CONTINUOUS
10
10.599
20
-4.21358
11
10.599
21
-3.96437
0
LINE
8
BLACK
6
CONTINUOUS
10
10.599
20
-3.96437
11
10.3478
21
-3.96437
0
LINE
8
BLACK
6
CONTINUOUS
10
10.077
20
-3.96437
11
10.077
21
-4.21358
0
LINE
8
BLACK
6
CONTINUOUS
10
10.077
20
-4.21358
11
10.338
21
-4.21358
0
LINE
8
BLACK
6
CONTINUOUS
10
10.338
20
-4.21358
11
10.338
21
-3.96437
0
LINE
8
BLACK
6
CONTINUOUS
10
10.338
20
-3.96437
11
10.077
21
-3.96437
0
LINE
8
BLACK
6
CONTINUOUS
10
9.8187
20
-3.96437
11
9.8187
21
-4.21358
0
LINE
8
BLACK
6
CONTINUOUS
10
9.8187
20
-4.21358
11
10.0671
21
-4.21358
0
LINE
8
BLACK
6
CONTINUOUS
10
10.0671
20
-4.21358
11
10.0671
21
-3.96437
0
LINE
8
BLACK
6
CONTINUOUS
10
10.0671
20
-3.96437
11
9.8187
21
-3.96437
0
LINE
8
BLACK
6
CONTINUOUS
10
9.54783
20
-3.96437
11
9.54783
21
-4.21358
0
LINE
8
BLACK
6
CONTINUOUS
10
9.54783
20
-4.21358
11
9.8061
21
-4.21358
0
LINE
8
BLACK
6
CONTINUOUS
10
9.8061
20
-4.21358
11
9.8061
21
-3.96437
0
LINE
8
BLACK
6
CONTINUOUS
10
9.8061
20
-3.96437
11
9.54783
21
-3.96437
0
LINE
8
BLACK
6
CONTINUOUS
10
9.28681
20
-3.96437
11
9.28681
21
-4.21358
0
LINE
8
BLACK
6
CONTINUOUS
10
9.28681
20
-4.21358
11
9.53799
21
-4.21358
0
LINE
8
BLACK
6
CONTINUOUS
10
9.53799
20
-4.21358
11
9.53799
21
-3.96437
0
LINE
8
BLACK
6
CONTINUOUS
10
9.53799
20
-3.96437
11
9.28681
21
-3.96437
0
LINE
8
BLACK
6
CONTINUOUS
10
9.01594
20
-3.96437
11
9.01594
21
-4.21358
0
LINE
8
BLACK
6
CONTINUOUS
10
9.01594
20
-4.21358
11
9.27697
21
-4.21358
0
LINE
8
BLACK
6
CONTINUOUS
10
9.27697
20
-4.21358
11
9.27697
21
-3.96437
0
LINE
8
BLACK
6
CONTINUOUS
10
9.27697
20
-3.96437
11
9.01594
21
-3.96437
0
LINE
8
BLACK
6
CONTINUOUS
10
8.7628
20
-3.96437
11
8.7628
21
-4.21358
0
LINE
8
BLACK
6
CONTINUOUS
10
8.7628
20
-4.21358
11
9.0061
21
-4.21358
0
LINE
8
BLACK
6
CONTINUOUS
10
9.0061
20
-4.21358
11
9.0061
21
-3.96437
0
LINE
8
BLACK
6
CONTINUOUS
10
9.0061
20
-3.96437
11
8.7628
21
-3.96437
0
LINE
8
BLACK
6
CONTINUOUS
10
8.49193
20
-3.96437
11
8.49193
21
-4.21358
0
LINE
8
BLACK
6
CONTINUOUS
10
8.49193
20
-4.21358
11
8.74508
21
-4.21358
0
LINE
8
BLACK
6
CONTINUOUS
10
8.74508
20
-4.21358
11
8.74508
21
-3.96437
0
LINE
8
BLACK
6
CONTINUOUS
10
8.74508
20
-3.96437
11
8.49193
21
-3.96437
0
LINE
8
BLACK
6
CONTINUOUS
10
8.23091
20
-3.96437
11
8.23091
21
-4.21358
0
LINE
8
BLACK
6
CONTINUOUS
10
8.23091
20
-4.21358
11
8.48209
21
-4.21358
0
LINE
8
BLACK
6
CONTINUOUS
10
8.48209
20
-4.21358
11
8.48209
21
-3.96437
0
LINE
8
BLACK
6
CONTINUOUS
10
8.48209
20
-3.96437
11
8.23091
21
-3.96437
0
LINE
8
BLACK
6
CONTINUOUS
10
7.96004
20
-3.96437
11
7.96004
21
-4.21358
0
LINE
8
BLACK
6
CONTINUOUS
10
7.96004
20
-4.21358
11
8.22106
21
-4.21358
0
LINE
8
BLACK
6
CONTINUOUS
10
8.22106
20
-4.21358
11
8.22106
21
-3.96437
0
LINE
8
BLACK
6
CONTINUOUS
10
8.22106
20
-3.96437
11
7.96004
21
-3.96437
0
LINE
8
BLACK
6
CONTINUOUS
10
7.70177
20
-3.96437
11
7.70177
21
-4.21358
0
LINE
8
BLACK
6
CONTINUOUS
10
7.70177
20
-4.21358
11
7.9502
21
-4.21358
0
LINE
8
BLACK
6
CONTINUOUS
10
7.9502
20
-4.21358
11
7.9502
21
-3.96437
0
LINE
8
BLACK
6
CONTINUOUS
10
7.9502
20
-3.96437
11
7.70177
21
-3.96437
0
LINE
8
BLACK
6
CONTINUOUS
10
7.43091
20
-3.96437
11
7.43091
21
-4.21358
0
LINE
8
BLACK
6
CONTINUOUS
10
7.43091
20
-4.21358
11
7.68917
21
-4.21358
0
LINE
8
BLACK
6
CONTINUOUS
10
7.68917
20
-4.21358
11
7.68917
21
-3.96437
0
LINE
8
BLACK
6
CONTINUOUS
10
7.68917
20
-3.96437
11
7.43091
21
-3.96437
0
LINE
8
BLACK
6
CONTINUOUS
10
7.16988
20
-3.96437
11
7.16988
21
-4.21358
0
LINE
8
BLACK
6
CONTINUOUS
10
7.16988
20
-4.21358
11
7.42106
21
-4.21358
0
LINE
8
BLACK
6
CONTINUOUS
10
7.42106
20
-4.21358
11
7.42106
21
-3.96437
0
LINE
8
BLACK
6
CONTINUOUS
10
7.42106
20
-3.96437
11
7.16988
21
-3.96437
0
LINE
8
BLACK
6
CONTINUOUS
10
6.89902
20
-3.96437
11
6.89902
21
-4.21358
0
LINE
8
BLACK
6
CONTINUOUS
10
6.89902
20
-4.21358
11
7.16004
21
-4.21358
0
LINE
8
BLACK
6
CONTINUOUS
10
7.16004
20
-4.21358
11
7.16004
21
-3.96437
0
LINE
8
BLACK
6
CONTINUOUS
10
7.16004
20
-3.96437
11
6.89902
21
-3.96437
0
LINE
8
BLACK
6
CONTINUOUS
10
6.63799
20
-3.96437
11
6.63799
21
-4.21358
0
LINE
8
BLACK
6
CONTINUOUS
10
6.63799
20
-4.21358
11
6.88917
21
-4.21358
0
LINE
8
BLACK
6
CONTINUOUS
10
6.88917
20
-4.21358
11
6.88917
21
-3.96437
0
LINE
8
BLACK
6
CONTINUOUS
10
6.88917
20
-3.96437
11
6.63799
21
-3.96437
0
LINE
8
BLACK
6
CONTINUOUS
10
6.36713
20
-3.96437
11
6.36713
21
-4.21358
0
LINE
8
BLACK
6
CONTINUOUS
10
6.36713
20
-4.21358
11
6.62815
21
-4.21358
0
LINE
8
BLACK
6
CONTINUOUS
10
6.62815
20
-4.21358
11
6.62815
21
-3.96437
0
LINE
8
BLACK
6
CONTINUOUS
10
6.62815
20
-3.96437
11
6.36713
21
-3.96437
0
LINE
8
BLACK
6
CONTINUOUS
10
6.1061
20
-3.96437
11
6.1061
21
-4.21358
0
LINE
8
BLACK
6
CONTINUOUS
10
6.1061
20
-4.21358
11
6.35728
21
-4.21358
0
LINE
8
BLACK
6
CONTINUOUS
10
6.35728
20
-4.21358
11
6.35728
21
-3.96437
0
LINE
8
BLACK
6
CONTINUOUS
10
6.35728
20
-3.96437
11
6.1061
21
-3.96437
0
LINE
8
BLACK
6
CONTINUOUS
10
5.83524
20
-3.96437
11
5.83524
21
-4.21358
0
LINE
8
BLACK
6
CONTINUOUS
10
5.83524
20
-4.21358
11
6.09626
21
-4.21358
0
LINE
8
BLACK
6
CONTINUOUS
10
6.09626
20
-4.21358
11
6.09626
21
-3.96437
0
LINE
8
BLACK
6
CONTINUOUS
10
6.09626
20
-3.96437
11
5.83524
21
-3.96437
0
LINE
8
BLACK
6
CONTINUOUS
10
5.57697
20
-3.96437
11
5.57697
21
-4.21358
0
LINE
8
BLACK
6
CONTINUOUS
10
5.57697
20
-4.21358
11
5.82539
21
-4.21358
0
LINE
8
BLACK
6
CONTINUOUS
10
5.82539
20
-4.21358
11
5.82539
21
-3.96437
0
LINE
8
BLACK
6
CONTINUOUS
10
5.82539
20
-3.96437
11
5.57697
21
-3.96437
0
LINE
8
BLACK
6
CONTINUOUS
10
5.3061
20
-3.96437
11
5.3061
21
-4.21358
0
LINE
8
BLACK
6
CONTINUOUS
10
5.3061
20
-4.21358
11
5.56437
21
-4.21358
0
LINE
8
BLACK
6
CONTINUOUS
10
5.56437
20
-4.21358
11
5.56437
21
-3.96437
0
LINE
8
BLACK
6
CONTINUOUS
10
5.56437
20
-3.96437
11
5.3061
21
-3.96437
0
LINE
8
BLACK
6
CONTINUOUS
10
5.04508
20
-3.96437
11
5.04508
21
-4.21358
0
LINE
8
BLACK
6
CONTINUOUS
10
5.04508
20
-4.21358
11
5.29626
21
-4.21358
0
LINE
8
BLACK
6
CONTINUOUS
10
5.29626
20
-4.21358
11
5.29626
21
-3.96437
0
LINE
8
BLACK
6
CONTINUOUS
10
5.29626
20
-3.96437
11
5.04508
21
-3.96437
0
LINE
8
BLACK
6
CONTINUOUS
10
4.77421
20
-3.96437
11
4.77421
21
-4.21358
0
LINE
8
BLACK
6
CONTINUOUS
10
4.77421
20
-4.21358
11
5.03524
21
-4.21358
0
LINE
8
BLACK
6
CONTINUOUS
10
5.03524
20
-4.21358
11
5.03524
21
-3.96437
0
LINE
8
BLACK
6
CONTINUOUS
10
5.03524
20
-3.96437
11
4.77421
21
-3.96437
0
LINE
8
BLACK
6
CONTINUOUS
10
4.52106
20
-3.96437
11
4.52106
21
-4.21358
0
LINE
8
BLACK
6
CONTINUOUS
10
4.52106
20
-4.21358
11
4.76437
21
-4.21358
0
LINE
8
BLACK
6
CONTINUOUS
10
4.76437
20
-4.21358
11
4.76437
21
-3.96437
0
LINE
8
BLACK
6
CONTINUOUS
10
4.76437
20
-3.96437
11
4.52106
21
-3.96437
0
LINE
8
BLACK
6
CONTINUOUS
10
4.2502
20
-3.96437
11
4.2502
21
-4.21358
0
LINE
8
BLACK
6
CONTINUOUS
10
4.2502
20
-4.21358
11
4.50335
21
-4.21358
0
LINE
8
BLACK
6
CONTINUOUS
10
4.50335
20
-4.21358
11
4.50335
21
-3.96437
0
LINE
8
BLACK
6
CONTINUOUS
10
4.50335
20
-3.96437
11
4.2502
21
-3.96437
0
LINE
8
BLACK
6
CONTINUOUS
10
3.98917
20
-3.96437
11
3.98917
21
-4.21358
0
LINE
8
BLACK
6
CONTINUOUS
10
3.98917
20
-4.21358
11
4.24035
21
-4.21358
0
LINE
8
BLACK
6
CONTINUOUS
10
4.24035
20
-4.21358
11
4.24035
21
-3.96437
0
LINE
8
BLACK
6
CONTINUOUS
10
4.24035
20
-3.96437
11
3.98917
21
-3.96437
0
LINE
8
BLACK
6
CONTINUOUS
10
3.71831
20
-3.96437
11
3.71831
21
-4.21358
0
LINE
8
BLACK
6
CONTINUOUS
10
3.71831
20
-4.21358
11
3.97933
21
-4.21358
0
LINE
8
BLACK
6
CONTINUOUS
10
3.97933
20
-4.21358
11
3.97933
21
-3.96437
0
LINE
8
BLACK
6
CONTINUOUS
10
3.97933
20
-3.96437
11
3.71831
21
-3.96437
0
LINE
8
BLACK
6
CONTINUOUS
10
3.46004
20
-3.96437
11
3.46004
21
-4.21358
0
LINE
8
BLACK
6
CONTINUOUS
10
3.46004
20
-4.21358
11
3.70846
21
-4.21358
0
LINE
8
BLACK
6
CONTINUOUS
10
3.70846
20
-4.21358
11
3.70846
21
-3.96437
0
LINE
8
BLACK
6
CONTINUOUS
10
3.70846
20
-3.96437
11
3.46004
21
-3.96437
0
LINE
8
BLACK
6
CONTINUOUS
10
3.18917
20
-3.96437
11
3.18917
21
-4.21358
0
LINE
8
BLACK
6
CONTINUOUS
10
3.18917
20
-4.21358
11
3.44744
21
-4.21358
0
LINE
8
BLACK
6
CONTINUOUS
10
3.44744
20
-4.21358
11
3.44744
21
-3.96437
0
LINE
8
BLACK
6
CONTINUOUS
10
3.44744
20
-3.96437
11
3.18917
21
-3.96437
0
LINE
8
BLACK
6
CONTINUOUS
10
2.92815
20
-3.96437
11
2.92815
21
-4.21358
0
LINE
8
BLACK
6
CONTINUOUS
10
2.92815
20
-4.21358
11
3.17933
21
-4.21358
0
LINE
8
BLACK
6
CONTINUOUS
10
3.17933
20
-4.21358
11
3.17933
21
-3.96437
0
LINE
8
BLACK
6
CONTINUOUS
10
3.17933
20
-3.96437
11
2.92815
21
-3.96437
0
LINE
8
BLACK
6
CONTINUOUS
10
2.65728
20
-3.96437
11
2.65728
21
-4.21358
0
LINE
8
BLACK
6
CONTINUOUS
10
2.65728
20
-4.21358
11
2.91831
21
-4.21358
0
LINE
8
BLACK
6
CONTINUOUS
10
2.91831
20
-4.21358
11
2.91831
21
-3.96437
0
LINE
8
BLACK
6
CONTINUOUS
10
2.91831
20
-3.96437
11
2.65728
21
-3.96437
0
LINE
8
BLACK
6
CONTINUOUS
10
2.39626
20
-3.96437
11
2.39626
21
-4.21358
0
LINE
8
BLACK
6
CONTINUOUS
10
2.39626
20
-4.21358
11
2.64744
21
-4.21358
0
LINE
8
BLACK
6
CONTINUOUS
10
2.64744
20
-4.21358
11
2.64744
21
-3.96437
0
LINE
8
BLACK
6
CONTINUOUS
10
2.64744
20
-3.96437
11
2.39626
21
-3.96437
0
LINE
8
BLACK
6
CONTINUOUS
10
10.6089
20
-3.70531
11
10.6089
21
-3.95453
0
LINE
8
BLACK
6
CONTINUOUS
10
10.6089
20
-3.95453
11
10.8699
21
-3.95453
0
LINE
8
BLACK
6
CONTINUOUS
10
10.8699
20
-3.95453
11
10.8699
21
-3.70531
0
LINE
8
BLACK
6
CONTINUOUS
10
10.8699
20
-3.70531
11
10.6089
21
-3.70531
0
LINE
8
BLACK
6
CONTINUOUS
10
10.3478
20
-3.70531
11
10.3478
21
-3.95453
0
LINE
8
BLACK
6
CONTINUOUS
10
10.3478
20
-3.95453
11
10.599
21
-3.95453
0
LINE
8
BLACK
6
CONTINUOUS
10
10.599
20
-3.95453
11
10.599
21
-3.70531
0
LINE
8
BLACK
6
CONTINUOUS
10
10.599
20
-3.70531
11
10.3478
21
-3.70531
0
LINE
8
BLACK
6
CONTINUOUS
10
10.077
20
-3.70531
11
10.077
21
-3.95453
0
LINE
8
BLACK
6
CONTINUOUS
10
10.077
20
-3.95453
11
10.338
21
-3.95453
0
LINE
8
BLACK
6
CONTINUOUS
10
10.338
20
-3.95453
11
10.338
21
-3.70531
0
LINE
8
BLACK
6
CONTINUOUS
10
10.338
20
-3.70531
11
10.077
21
-3.70531
0
LINE
8
BLACK
6
CONTINUOUS
10
9.8187
20
-3.70531
11
9.8187
21
-3.95453
0
LINE
8
BLACK
6
CONTINUOUS
10
9.8187
20
-3.95453
11
10.0671
21
-3.95453
0
LINE
8
BLACK
6
CONTINUOUS
10
10.0671
20
-3.95453
11
10.0671
21
-3.70531
0
LINE
8
BLACK
6
CONTINUOUS
10
10.0671
20
-3.70531
11
9.8187
21
-3.70531
0
LINE
8
BLACK
6
CONTINUOUS
10
9.54783
20
-3.70531
11
9.54783
21
-3.95453
0
LINE
8
BLACK
6
CONTINUOUS
10
9.54783
20
-3.95453
11
9.8061
21
-3.95453
0
LINE
8
BLACK
6
CONTINUOUS
10
9.8061
20
-3.95453
11
9.8061
21
-3.70531
0
LINE
8
BLACK
6
CONTINUOUS
10
9.8061
20
-3.70531
11
9.54783
21
-3.70531
0
LINE
8
BLACK
6
CONTINUOUS
10
9.28681
20
-3.70531
11
9.28681
21
-3.95453
0
LINE
8
BLACK
6
CONTINUOUS
10
9.28681
20
-3.95453
11
9.53799
21
-3.95453
0
LINE
8
BLACK
6
CONTINUOUS
10
9.53799
20
-3.95453
11
9.53799
21
-3.70531
0
LINE
8
BLACK
6
CONTINUOUS
10
9.53799
20
-3.70531
11
9.28681
21
-3.70531
0
LINE
8
BLACK
6
CONTINUOUS
10
9.01594
20
-3.70531
11
9.01594
21
-3.95453
0
LINE
8
BLACK
6
CONTINUOUS
10
9.01594
20
-3.95453
11
9.27697
21
-3.95453
0
LINE
8
BLACK
6
CONTINUOUS
10
9.27697
20
-3.95453
11
9.27697
21
-3.70531
0
LINE
8
BLACK
6
CONTINUOUS
10
9.27697
20
-3.70531
11
9.01594
21
-3.70531
0
LINE
8
BLACK
6
CONTINUOUS
10
8.7628
20
-3.70531
11
8.7628
21
-3.95453
0
LINE
8
BLACK
6
CONTINUOUS
10
8.7628
20
-3.95453
11
9.0061
21
-3.95453
0
LINE
8
BLACK
6
CONTINUOUS
10
9.0061
20
-3.95453
11
9.0061
21
-3.70531
0
LINE
8
BLACK
6
CONTINUOUS
10
9.0061
20
-3.70531
11
8.7628
21
-3.70531
0
LINE
8
BLACK
6
CONTINUOUS
10
8.49193
20
-3.70531
11
8.49193
21
-3.95453
0
LINE
8
BLACK
6
CONTINUOUS
10
8.49193
20
-3.95453
11
8.74508
21
-3.95453
0
LINE
8
BLACK
6
CONTINUOUS
10
8.74508
20
-3.95453
11
8.74508
21
-3.70531
0
LINE
8
BLACK
6
CONTINUOUS
10
8.74508
20
-3.70531
11
8.49193
21
-3.70531
0
LINE
8
BLACK
6
CONTINUOUS
10
8.23091
20
-3.70531
11
8.23091
21
-3.95453
0
LINE
8
BLACK
6
CONTINUOUS
10
8.23091
20
-3.95453
11
8.48209
21
-3.95453
0
LINE
8
BLACK
6
CONTINUOUS
10
8.48209
20
-3.95453
11
8.48209
21
-3.70531
0
LINE
8
BLACK
6
CONTINUOUS
10
8.48209
20
-3.70531
11
8.23091
21
-3.70531
0
LINE
8
BLACK
6
CONTINUOUS
10
7.96004
20
-3.70531
11
7.96004
21
-3.95453
0
LINE
8
BLACK
6
CONTINUOUS
10
7.96004
20
-3.95453
11
8.22106
21
-3.95453
0
LINE
8
BLACK
6
CONTINUOUS
10
8.22106
20
-3.95453
11
8.22106
21
-3.70531
0
LINE
8
BLACK
6
CONTINUOUS
10
8.22106
20
-3.70531
11
7.96004
21
-3.70531
0
LINE
8
BLACK
6
CONTINUOUS
10
7.70177
20
-3.70531
11
7.70177
21
-3.95453
0
LINE
8
BLACK
6
CONTINUOUS
10
7.70177
20
-3.95453
11
7.9502
21
-3.95453
0
LINE
8
BLACK
6
CONTINUOUS
10
7.9502
20
-3.95453
11
7.9502
21
-3.70531
0
LINE
8
BLACK
6
CONTINUOUS
10
7.9502
20
-3.70531
11
7.70177
21
-3.70531
0
LINE
8
BLACK
6
CONTINUOUS
10
7.43091
20
-3.70531
11
7.43091
21
-3.95453
0
LINE
8
BLACK
6
CONTINUOUS
10
7.43091
20
-3.95453
11
7.68917
21
-3.95453
0
LINE
8
BLACK
6
CONTINUOUS
10
7.68917
20
-3.95453
11
7.68917
21
-3.70531
0
LINE
8
BLACK
6
CONTINUOUS
10
7.68917
20
-3.70531
11
7.43091
21
-3.70531
0
LINE
8
BLACK
6
CONTINUOUS
10
7.16988
20
-3.70531
11
7.16988
21
-3.95453
0
LINE
8
BLACK
6
CONTINUOUS
10
7.16988
20
-3.95453
11
7.42106
21
-3.95453
0
LINE
8
BLACK
6
CONTINUOUS
10
7.42106
20
-3.95453
11
7.42106
21
-3.70531
0
LINE
8
BLACK
6
CONTINUOUS
10
7.42106
20
-3.70531
11
7.16988
21
-3.70531
0
LINE
8
BLACK
6
CONTINUOUS
10
6.89902
20
-3.70531
11
6.89902
21
-3.95453
0
LINE
8
BLACK
6
CONTINUOUS
10
6.89902
20
-3.95453
11
7.16004
21
-3.95453
0
LINE
8
BLACK
6
CONTINUOUS
10
7.16004
20
-3.95453
11
7.16004
21
-3.70531
0
LINE
8
BLACK
6
CONTINUOUS
10
7.16004
20
-3.70531
11
6.89902
21
-3.70531
0
LINE
8
BLACK
6
CONTINUOUS
10
6.63799
20
-3.70531
11
6.63799
21
-3.95453
0
LINE
8
BLACK
6
CONTINUOUS
10
6.63799
20
-3.95453
11
6.88917
21
-3.95453
0
LINE
8
BLACK
6
CONTINUOUS
10
6.88917
20
-3.95453
11
6.88917
21
-3.70531
0
LINE
8
BLACK
6
CONTINUOUS
10
6.88917
20
-3.70531
11
6.63799
21
-3.70531
0
LINE
8
BLACK
6
CONTINUOUS
10
6.36713
20
-3.70531
11
6.36713
21
-3.95453
0
LINE
8
BLACK
6
CONTINUOUS
10
6.36713
20
-3.95453
11
6.62815
21
-3.95453
0
LINE
8
BLACK
6
CONTINUOUS
10
6.62815
20
-3.95453
11
6.62815
21
-3.70531
0
LINE
8
BLACK
6
CONTINUOUS
10
6.62815
20
-3.70531
11
6.36713
21
-3.70531
0
LINE
8
BLACK
6
CONTINUOUS
10
6.1061
20
-3.70531
11
6.1061
21
-3.95453
0
LINE
8
BLACK
6
CONTINUOUS
10
6.1061
20
-3.95453
11
6.35728
21
-3.95453
0
LINE
8
BLACK
6
CONTINUOUS
10
6.35728
20
-3.95453
11
6.35728
21
-3.70531
0
LINE
8
BLACK
6
CONTINUOUS
10
6.35728
20
-3.70531
11
6.1061
21
-3.70531
0
LINE
8
BLACK
6
CONTINUOUS
10
5.83524
20
-3.70531
11
5.83524
21
-3.95453
0
LINE
8
BLACK
6
CONTINUOUS
10
5.83524
20
-3.95453
11
6.09626
21
-3.95453
0
LINE
8
BLACK
6
CONTINUOUS
10
6.09626
20
-3.95453
11
6.09626
21
-3.70531
0
LINE
8
BLACK
6
CONTINUOUS
10
6.09626
20
-3.70531
11
5.83524
21
-3.70531
0
LINE
8
BLACK
6
CONTINUOUS
10
5.57697
20
-3.70531
11
5.57697
21
-3.95453
0
LINE
8
BLACK
6
CONTINUOUS
10
5.57697
20
-3.95453
11
5.82539
21
-3.95453
0
LINE
8
BLACK
6
CONTINUOUS
10
5.82539
20
-3.95453
11
5.82539
21
-3.70531
0
LINE
8
BLACK
6
CONTINUOUS
10
5.82539
20
-3.70531
11
5.57697
21
-3.70531
0
LINE
8
BLACK
6
CONTINUOUS
10
5.3061
20
-3.70531
11
5.3061
21
-3.95453
0
LINE
8
BLACK
6
CONTINUOUS
10
5.3061
20
-3.95453
11
5.56437
21
-3.95453
0
LINE
8
BLACK
6
CONTINUOUS
10
5.56437
20
-3.95453
11
5.56437
21
-3.70531
0
LINE
8
BLACK
6
CONTINUOUS
10
5.56437
20
-3.70531
11
5.3061
21
-3.70531
0
LINE
8
BLACK
6
CONTINUOUS
10
5.04508
20
-3.70531
11
5.04508
21
-3.95453
0
LINE
8
BLACK
6
CONTINUOUS
10
5.04508
20
-3.95453
11
5.29626
21
-3.95453
0
LINE
8
BLACK
6
CONTINUOUS
10
5.29626
20
-3.95453
11
5.29626
21
-3.70531
0
LINE
8
BLACK
6
CONTINUOUS
10
5.29626
20
-3.70531
11
5.04508
21
-3.70531
0
LINE
8
BLACK
6
CONTINUOUS
10
4.77421
20
-3.70531
11
4.77421
21
-3.95453
0
LINE
8
BLACK
6
CONTINUOUS
10
4.77421
20
-3.95453
11
5.03524
21
-3.95453
0
LINE
8
BLACK
6
CONTINUOUS
10
5.03524
20
-3.95453
11
5.03524
21
-3.70531
0
LINE
8
BLACK
6
CONTINUOUS
10
5.03524
20
-3.70531
11
4.77421
21
-3.70531
0
LINE
8
BLACK
6
CONTINUOUS
10
4.52106
20
-3.70531
11
4.52106
21
-3.95453
0
LINE
8
BLACK
6
CONTINUOUS
10
4.52106
20
-3.95453
11
4.76437
21
-3.95453
0
LINE
8
BLACK
6
CONTINUOUS
10
4.76437
20
-3.95453
11
4.76437
21
-3.70531
0
LINE
8
BLACK
6
CONTINUOUS
10
4.76437
20
-3.70531
11
4.52106
21
-3.70531
0
LINE
8
BLACK
6
CONTINUOUS
10
4.2502
20
-3.70531
11
4.2502
21
-3.95453
0
LINE
8
BLACK
6
CONTINUOUS
10
4.2502
20
-3.95453
11
4.50335
21
-3.95453
0
LINE
8
BLACK
6
CONTINUOUS
10
4.50335
20
-3.95453
11
4.50335
21
-3.70531
0
LINE
8
BLACK
6
CONTINUOUS
10
4.50335
20
-3.70531
11
4.2502
21
-3.70531
0
LINE
8
BLACK
6
CONTINUOUS
10
3.98917
20
-3.70531
11
3.98917
21
-3.95453
0
LINE
8
BLACK
6
CONTINUOUS
10
3.98917
20
-3.95453
11
4.24035
21
-3.95453
0
LINE
8
BLACK
6
CONTINUOUS
10
4.24035
20
-3.95453
11
4.24035
21
-3.70531
0
LINE
8
BLACK
6
CONTINUOUS
10
4.24035
20
-3.70531
11
3.98917
21
-3.70531
0
LINE
8
BLACK
6
CONTINUOUS
10
3.71831
20
-3.70531
11
3.71831
21
-3.95453
0
LINE
8
BLACK
6
CONTINUOUS
10
3.71831
20
-3.95453
11
3.97933
21
-3.95453
0
LINE
8
BLACK
6
CONTINUOUS
10
3.97933
20
-3.95453
11
3.97933
21
-3.70531
0
LINE
8
BLACK
6
CONTINUOUS
10
3.97933
20
-3.70531
11
3.71831
21
-3.70531
0
LINE
8
BLACK
6
CONTINUOUS
10
3.46004
20
-3.70531
11
3.46004
21
-3.95453
0
LINE
8
BLACK
6
CONTINUOUS
10
3.46004
20
-3.95453
11
3.70846
21
-3.95453
0
LINE
8
BLACK
6
CONTINUOUS
10
3.70846
20
-3.95453
11
3.70846
21
-3.70531
0
LINE
8
BLACK
6
CONTINUOUS
10
3.70846
20
-3.70531
11
3.46004
21
-3.70531
0
LINE
8
BLACK
6
CONTINUOUS
10
3.18917
20
-3.70531
11
3.18917
21
-3.95453
0
LINE
8
BLACK
6
CONTINUOUS
10
3.18917
20
-3.95453
11
3.44744
21
-3.95453
0
LINE
8
BLACK
6
CONTINUOUS
10
3.44744
20
-3.95453
11
3.44744
21
-3.70531
0
LINE
8
BLACK
6
CONTINUOUS
10
3.44744
20
-3.70531
11
3.18917
21
-3.70531
0
LINE
8
BLACK
6
CONTINUOUS
10
2.92815
20
-3.70531
11
2.92815
21
-3.95453
0
LINE
8
BLACK
6
CONTINUOUS
10
2.92815
20
-3.95453
11
3.17933
21
-3.95453
0
LINE
8
BLACK
6
CONTINUOUS
10
3.17933
20
-3.95453
11
3.17933
21
-3.70531
0
LINE
8
BLACK
6
CONTINUOUS
10
3.17933
20
-3.70531
11
2.92815
21
-3.70531
0
LINE
8
BLACK
6
CONTINUOUS
10
2.65728
20
-3.70531
11
2.65728
21
-3.95453
0
LINE
8
BLACK
6
CONTINUOUS
10
2.65728
20
-3.95453
11
2.91831
21
-3.95453
0
LINE
8
BLACK
6
CONTINUOUS
10
2.91831
20
-3.95453
11
2.91831
21
-3.70531
0
LINE
8
BLACK
6
CONTINUOUS
10
2.91831
20
-3.70531
11
2.65728
21
-3.70531
0
LINE
8
BLACK
6
CONTINUOUS
10
2.39626
20
-3.70531
11
2.39626
21
-3.95453
0
LINE
8
BLACK
6
CONTINUOUS
10
2.39626
20
-3.95453
11
2.64744
21
-3.95453
0
LINE
8
BLACK
6
CONTINUOUS
10
2.64744
20
-3.95453
11
2.64744
21
-3.70531
0
LINE
8
BLACK
6
CONTINUOUS
10
2.64744
20
-3.70531
11
2.39626
21
-3.70531
0
LINE
8
BLACK
6
CONTINUOUS
10
10.6089
20
-3.44626
11
10.6089
21
-3.69547
0
LINE
8
BLACK
6
CONTINUOUS
10
10.6089
20
-3.69547
11
10.8699
21
-3.69547
0
LINE
8
BLACK
6
CONTINUOUS
10
10.8699
20
-3.69547
11
10.8699
21
-3.44626
0
LINE
8
BLACK
6
CONTINUOUS
10
10.8699
20
-3.44626
11
10.6089
21
-3.44626
0
LINE
8
BLACK
6
CONTINUOUS
10
10.3478
20
-3.44626
11
10.3478
21
-3.69547
0
LINE
8
BLACK
6
CONTINUOUS
10
10.3478
20
-3.69547
11
10.599
21
-3.69547
0
LINE
8
BLACK
6
CONTINUOUS
10
10.599
20
-3.69547
11
10.599
21
-3.44626
0
LINE
8
BLACK
6
CONTINUOUS
10
10.599
20
-3.44626
11
10.3478
21
-3.44626
0
LINE
8
BLACK
6
CONTINUOUS
10
10.077
20
-3.44626
11
10.077
21
-3.69547
0
LINE
8
BLACK
6
CONTINUOUS
10
10.077
20
-3.69547
11
10.338
21
-3.69547
0
LINE
8
BLACK
6
CONTINUOUS
10
10.338
20
-3.69547
11
10.338
21
-3.44626
0
LINE
8
BLACK
6
CONTINUOUS
10
10.338
20
-3.44626
11
10.077
21
-3.44626
0
LINE
8
BLACK
6
CONTINUOUS
10
9.8187
20
-3.44626
11
9.8187
21
-3.69547
0
LINE
8
BLACK
6
CONTINUOUS
10
9.8187
20
-3.69547
11
10.0671
21
-3.69547
0
LINE
8
BLACK
6
CONTINUOUS
10
10.0671
20
-3.69547
11
10.0671
21
-3.44626
0
LINE
8
BLACK
6
CONTINUOUS
10
10.0671
20
-3.44626
11
9.8187
21
-3.44626
0
LINE
8
BLACK
6
CONTINUOUS
10
9.54783
20
-3.44626
11
9.54783
21
-3.69547
0
LINE
8
BLACK
6
CONTINUOUS
10
9.54783
20
-3.69547
11
9.8061
21
-3.69547
0
LINE
8
BLACK
6
CONTINUOUS
10
9.8061
20
-3.69547
11
9.8061
21
-3.44626
0
LINE
8
BLACK
6
CONTINUOUS
10
9.8061
20
-3.44626
11
9.54783
21
-3.44626
0
LINE
8
BLACK
6
CONTINUOUS
10
9.28681
20
-3.44626
11
9.28681
21
-3.69547
0
LINE
8
BLACK
6
CONTINUOUS
10
9.28681
20
-3.69547
11
9.53799
21
-3.69547
0
LINE
8
BLACK
6
CONTINUOUS
10
9.53799
20
-3.69547
11
9.53799
21
-3.44626
0
LINE
8
BLACK
6
CONTINUOUS
10
9.53799
20
-3.44626
11
9.28681
21
-3.44626
0
LINE
8
BLACK
6
CONTINUOUS
10
9.01594
20
-3.44626
11
9.01594
21
-3.69547
0
LINE
8
BLACK
6
CONTINUOUS
10
9.01594
20
-3.69547
11
9.27697
21
-3.69547
0
LINE
8
BLACK
6
CONTINUOUS
10
9.27697
20
-3.69547
11
9.27697
21
-3.44626
0
LINE
8
BLACK
6
CONTINUOUS
10
9.27697
20
-3.44626
11
9.01594
21
-3.44626
0
LINE
8
BLACK
6
CONTINUOUS
10
8.7628
20
-3.44626
11
8.7628
21
-3.69547
0
LINE
8
BLACK
6
CONTINUOUS
10
8.7628
20
-3.69547
11
9.0061
21
-3.69547
0
LINE
8
BLACK
6
CONTINUOUS
10
9.0061
20
-3.69547
11
9.0061
21
-3.44626
0
LINE
8
BLACK
6
CONTINUOUS
10
9.0061
20
-3.44626
11
8.7628
21
-3.44626
0
LINE
8
BLACK
6
CONTINUOUS
10
8.49193
20
-3.44626
11
8.49193
21
-3.69547
0
LINE
8
BLACK
6
CONTINUOUS
10
8.49193
20
-3.69547
11
8.74508
21
-3.69547
0
LINE
8
BLACK
6
CONTINUOUS
10
8.74508
20
-3.69547
11
8.74508
21
-3.44626
0
LINE
8
BLACK
6
CONTINUOUS
10
8.74508
20
-3.44626
11
8.49193
21
-3.44626
0
LINE
8
BLACK
6
CONTINUOUS
10
8.23091
20
-3.44626
11
8.23091
21
-3.69547
0
LINE
8
BLACK
6
CONTINUOUS
10
8.23091
20
-3.69547
11
8.48209
21
-3.69547
0
LINE
8
BLACK
6
CONTINUOUS
10
8.48209
20
-3.69547
11
8.48209
21
-3.44626
0
LINE
8
BLACK
6
CONTINUOUS
10
8.48209
20
-3.44626
11
8.23091
21
-3.44626
0
LINE
8
BLACK
6
CONTINUOUS
10
7.96004
20
-3.44626
11
7.96004
21
-3.69547
0
LINE
8
BLACK
6
CONTINUOUS
10
7.96004
20
-3.69547
11
8.22106
21
-3.69547
0
LINE
8
BLACK
6
CONTINUOUS
10
8.22106
20
-3.69547
11
8.22106
21
-3.44626
0
LINE
8
BLACK
6
CONTINUOUS
10
8.22106
20
-3.44626
11
7.96004
21
-3.44626
0
LINE
8
BLACK
6
CONTINUOUS
10
7.70177
20
-3.44626
11
7.70177
21
-3.69547
0
LINE
8
BLACK
6
CONTINUOUS
10
7.70177
20
-3.69547
11
7.9502
21
-3.69547
0
LINE
8
BLACK
6
CONTINUOUS
10
7.9502
20
-3.69547
11
7.9502
21
-3.44626
0
LINE
8
BLACK
6
CONTINUOUS
10
7.9502
20
-3.44626
11
7.70177
21
-3.44626
0
LINE
8
BLACK
6
CONTINUOUS
10
7.43091
20
-3.44626
11
7.43091
21
-3.69547
0
LINE
8
BLACK
6
CONTINUOUS
10
7.43091
20
-3.69547
11
7.68917
21
-3.69547
0
LINE
8
BLACK
6
CONTINUOUS
10
7.68917
20
-3.69547
11
7.68917
21
-3.44626
0
LINE
8
BLACK
6
CONTINUOUS
10
7.68917
20
-3.44626
11
7.43091
21
-3.44626
0
LINE
8
BLACK
6
CONTINUOUS
10
7.16988
20
-3.44626
11
7.16988
21
-3.69547
0
LINE
8
BLACK
6
CONTINUOUS
10
7.16988
20
-3.69547
11
7.42106
21
-3.69547
0
LINE
8
BLACK
6
CONTINUOUS
10
7.42106
20
-3.69547
11
7.42106
21
-3.44626
0
LINE
8
BLACK
6
CONTINUOUS
10
7.42106
20
-3.44626
11
7.16988
21
-3.44626
0
LINE
8
BLACK
6
CONTINUOUS
10
6.89902
20
-3.44626
11
6.89902
21
-3.69547
0
LINE
8
BLACK
6
CONTINUOUS
10
6.89902
20
-3.69547
11
7.16004
21
-3.69547
0
LINE
8
BLACK
6
CONTINUOUS
10
7.16004
20
-3.69547
11
7.16004
21
-3.44626
0
LINE
8
BLACK
6
CONTINUOUS
10
7.16004
20
-3.44626
11
6.89902
21
-3.44626
0
LINE
8
BLACK
6
CONTINUOUS
10
6.63799
20
-3.44626
11
6.63799
21
-3.69547
0
LINE
8
BLACK
6
CONTINUOUS
10
6.63799
20
-3.69547
11
6.88917
21
-3.69547
0
LINE
8
BLACK
6
CONTINUOUS
10
6.88917
20
-3.69547
11
6.88917
21
-3.44626
0
LINE
8
BLACK
6
CONTINUOUS
10
6.88917
20
-3.44626
11
6.63799
21
-3.44626
0
LINE
8
BLACK
6
CONTINUOUS
10
6.36713
20
-3.44626
11
6.36713
21
-3.69547
0
LINE
8
BLACK
6
CONTINUOUS
10
6.36713
20
-3.69547
11
6.62815
21
-3.69547
0
LINE
8
BLACK
6
CONTINUOUS
10
6.62815
20
-3.69547
11
6.62815
21
-3.44626
0
LINE
8
BLACK
6
CONTINUOUS
10
6.62815
20
-3.44626
11
6.36713
21
-3.44626
0
LINE
8
BLACK
6
CONTINUOUS
10
6.1061
20
-3.44626
11
6.1061
21
-3.69547
0
LINE
8
BLACK
6
CONTINUOUS
10
6.1061
20
-3.69547
11
6.35728
21
-3.69547
0
LINE
8
BLACK
6
CONTINUOUS
10
6.35728
20
-3.69547
11
6.35728
21
-3.44626
0
LINE
8
BLACK
6
CONTINUOUS
10
6.35728
20
-3.44626
11
6.1061
21
-3.44626
0
LINE
8
BLACK
6
CONTINUOUS
10
5.83524
20
-3.44626
11
5.83524
21
-3.69547
0
LINE
8
BLACK
6
CONTINUOUS
10
5.83524
20
-3.69547
11
6.09626
21
-3.69547
0
LINE
8
BLACK
6
CONTINUOUS
10
6.09626
20
-3.69547
11
6.09626
21
-3.44626
0
LINE
8
BLACK
6
CONTINUOUS
10
6.09626
20
-3.44626
11
5.83524
21
-3.44626
0
LINE
8
BLACK
6
CONTINUOUS
10
5.57697
20
-3.44626
11
5.57697
21
-3.69547
0
LINE
8
BLACK
6
CONTINUOUS
10
5.57697
20
-3.69547
11
5.82539
21
-3.69547
0
LINE
8
BLACK
6
CONTINUOUS
10
5.82539
20
-3.69547
11
5.82539
21
-3.44626
0
LINE
8
BLACK
6
CONTINUOUS
10
5.82539
20
-3.44626
11
5.57697
21
-3.44626
0
LINE
8
BLACK
6
CONTINUOUS
10
5.3061
20
-3.44626
11
5.3061
21
-3.69547
0
LINE
8
BLACK
6
CONTINUOUS
10
5.3061
20
-3.69547
11
5.56437
21
-3.69547
0
LINE
8
BLACK
6
CONTINUOUS
10
5.56437
20
-3.69547
11
5.56437
21
-3.44626
0
LINE
8
BLACK
6
CONTINUOUS
10
5.56437
20
-3.44626
11
5.3061
21
-3.44626
0
LINE
8
BLACK
6
CONTINUOUS
10
5.04508
20
-3.44626
11
5.04508
21
-3.69547
0
LINE
8
BLACK
6
CONTINUOUS
10
5.04508
20
-3.69547
11
5.29626
21
-3.69547
0
LINE
8
BLACK
6
CONTINUOUS
10
5.29626
20
-3.69547
11
5.29626
21
-3.44626
0
LINE
8
BLACK
6
CONTINUOUS
10
5.29626
20
-3.44626
11
5.04508
21
-3.44626
0
LINE
8
BLACK
6
CONTINUOUS
10
4.77421
20
-3.44626
11
4.77421
21
-3.69547
0
LINE
8
BLACK
6
CONTINUOUS
10
4.77421
20
-3.69547
11
5.03524
21
-3.69547
0
LINE
8
BLACK
6
CONTINUOUS
10
5.03524
20
-3.69547
11
5.03524
21
-3.44626
0
LINE
8
BLACK
6
CONTINUOUS
10
5.03524
20
-3.44626
11
4.77421
21
-3.44626
0
LINE
8
BLACK
6
CONTINUOUS
10
4.52106
20
-3.44626
11
4.52106
21
-3.69547
0
LINE
8
BLACK
6
CONTINUOUS
10
4.52106
20
-3.69547
11
4.76437
21
-3.69547
0
LINE
8
BLACK
6
CONTINUOUS
10
4.76437
20
-3.69547
11
4.76437
21
-3.44626
0
LINE
8
BLACK
6
CONTINUOUS
10
4.76437
20
-3.44626
11
4.52106
21
-3.44626
0
LINE
8
BLACK
6
CONTINUOUS
10
4.2502
20
-3.44626
11
4.2502
21
-3.69547
0
LINE
8
BLACK
6
CONTINUOUS
10
4.2502
20
-3.69547
11
4.50335
21
-3.69547
0
LINE
8
BLACK
6
CONTINUOUS
10
4.50335
20
-3.69547
11
4.50335
21
-3.44626
0
LINE
8
BLACK
6
CONTINUOUS
10
4.50335
20
-3.44626
11
4.2502
21
-3.44626
0
LINE
8
BLACK
6
CONTINUOUS
10
3.98917
20
-3.44626
11
3.98917
21
-3.69547
0
LINE
8
BLACK
6
CONTINUOUS
10
3.98917
20
-3.69547
11
4.24035
21
-3.69547
0
LINE
8
BLACK
6
CONTINUOUS
10
4.24035
20
-3.69547
11
4.24035
21
-3.44626
0
LINE
8
BLACK
6
CONTINUOUS
10
4.24035
20
-3.44626
11
3.98917
21
-3.44626
0
LINE
8
BLACK
6
CONTINUOUS
10
3.71831
20
-3.44626
11
3.71831
21
-3.69547
0
LINE
8
BLACK
6
CONTINUOUS
10
3.71831
20
-3.69547
11
3.97933
21
-3.69547
0
LINE
8
BLACK
6
CONTINUOUS
10
3.97933
20
-3.69547
11
3.97933
21
-3.44626
0
LINE
8
BLACK
6
CONTINUOUS
10
3.97933
20
-3.44626
11
3.71831
21
-3.44626
0
LINE
8
BLACK
6
CONTINUOUS
10
3.46004
20
-3.44626
11
3.46004
21
-3.69547
0
LINE
8
BLACK
6
CONTINUOUS
10
3.46004
20
-3.69547
11
3.70846
21
-3.69547
0
LINE
8
BLACK
6
CONTINUOUS
10
3.70846
20
-3.69547
11
3.70846
21
-3.44626
0
LINE
8
BLACK
6
CONTINUOUS
10
3.70846
20
-3.44626
11
3.46004
21
-3.44626
0
LINE
8
BLACK
6
CONTINUOUS
10
3.18917
20
-3.44626
11
3.18917
21
-3.69547
0
LINE
8
BLACK
6
CONTINUOUS
10
3.18917
20
-3.69547
11
3.44744
21
-3.69547
0
LINE
8
BLACK
6
CONTINUOUS
10
3.44744
20
-3.69547
11
3.44744
21
-3.44626
0
LINE
8
BLACK
6
CONTINUOUS
10
3.44744
20
-3.44626
11
3.18917
21
-3.44626
0
LINE
8
BLACK
6
CONTINUOUS
10
2.92815
20
-3.44626
11
2.92815
21
-3.69547
0
LINE
8
BLACK
6
CONTINUOUS
10
2.92815
20
-3.69547
11
3.17933
21
-3.69547
0
LINE
8
BLACK
6
CONTINUOUS
10
3.17933
20
-3.69547
11
3.17933
21
-3.44626
0
LINE
8
BLACK
6
CONTINUOUS
10
3.17933
20
-3.44626
11
2.92815
21
-3.44626
0
LINE
8
BLACK
6
CONTINUOUS
10
2.65728
20
-3.44626
11
2.65728
21
-3.69547
0
LINE
8
BLACK
6
CONTINUOUS
10
2.65728
20
-3.69547
11
2.91831
21
-3.69547
0
LINE
8
BLACK
6
CONTINUOUS
10
2.91831
20
-3.69547
11
2.91831
21
-3.44626
0
LINE
8
BLACK
6
CONTINUOUS
10
2.91831
20
-3.44626
11
2.65728
21
-3.44626
0
LINE
8
BLACK
6
CONTINUOUS
10
2.39626
20
-3.44626
11
2.39626
21
-3.69547
0
LINE
8
BLACK
6
CONTINUOUS
10
2.39626
20
-3.69547
11
2.64744
21
-3.69547
0
LINE
8
BLACK
6
CONTINUOUS
10
2.64744
20
-3.69547
11
2.64744
21
-3.44626
0
LINE
8
BLACK
6
CONTINUOUS
10
2.64744
20
-3.44626
11
2.39626
21
-3.44626
0
LINE
8
BLACK
6
CONTINUOUS
10
10.6089
20
-3.1872
11
10.6089
21
-3.43642
0
LINE
8
BLACK
6
CONTINUOUS
10
10.6089
20
-3.43642
11
10.8699
21
-3.43642
0
LINE
8
BLACK
6
CONTINUOUS
10
10.8699
20
-3.43642
11
10.8699
21
-3.1872
0
LINE
8
BLACK
6
CONTINUOUS
10
10.8699
20
-3.1872
11
10.6089
21
-3.1872
0
LINE
8
BLACK
6
CONTINUOUS
10
10.3478
20
-3.1872
11
10.3478
21
-3.43642
0
LINE
8
BLACK
6
CONTINUOUS
10
10.3478
20
-3.43642
11
10.599
21
-3.43642
0
LINE
8
BLACK
6
CONTINUOUS
10
10.599
20
-3.43642
11
10.599
21
-3.1872
0
LINE
8
BLACK
6
CONTINUOUS
10
10.599
20
-3.1872
11
10.3478
21
-3.1872
0
LINE
8
BLACK
6
CONTINUOUS
10
10.077
20
-3.1872
11
10.077
21
-3.43642
0
LINE
8
BLACK
6
CONTINUOUS
10
10.077
20
-3.43642
11
10.338
21
-3.43642
0
LINE
8
BLACK
6
CONTINUOUS
10
10.338
20
-3.43642
11
10.338
21
-3.1872
0
LINE
8
BLACK
6
CONTINUOUS
10
10.338
20
-3.1872
11
10.077
21
-3.1872
0
LINE
8
BLACK
6
CONTINUOUS
10
9.8187
20
-3.1872
11
9.8187
21
-3.43642
0
LINE
8
BLACK
6
CONTINUOUS
10
9.8187
20
-3.43642
11
10.0671
21
-3.43642
0
LINE
8
BLACK
6
CONTINUOUS
10
10.0671
20
-3.43642
11
10.0671
21
-3.1872
0
LINE
8
BLACK
6
CONTINUOUS
10
10.0671
20
-3.1872
11
9.8187
21
-3.1872
0
LINE
8
BLACK
6
CONTINUOUS
10
9.54783
20
-3.1872
11
9.54783
21
-3.43642
0
LINE
8
BLACK
6
CONTINUOUS
10
9.54783
20
-3.43642
11
9.8061
21
-3.43642
0
LINE
8
BLACK
6
CONTINUOUS
10
9.8061
20
-3.43642
11
9.8061
21
-3.1872
0
LINE
8
BLACK
6
CONTINUOUS
10
9.8061
20
-3.1872
11
9.54783
21
-3.1872
0
LINE
8
BLACK
6
CONTINUOUS
10
9.28681
20
-3.1872
11
9.28681
21
-3.43642
0
LINE
8
BLACK
6
CONTINUOUS
10
9.28681
20
-3.43642
11
9.53799
21
-3.43642
0
LINE
8
BLACK
6
CONTINUOUS
10
9.53799
20
-3.43642
11
9.53799
21
-3.1872
0
LINE
8
BLACK
6
CONTINUOUS
10
9.53799
20
-3.1872
11
9.28681
21
-3.1872
0
LINE
8
BLACK
6
CONTINUOUS
10
9.01594
20
-3.1872
11
9.01594
21
-3.43642
0
LINE
8
BLACK
6
CONTINUOUS
10
9.01594
20
-3.43642
11
9.27697
21
-3.43642
0
LINE
8
BLACK
6
CONTINUOUS
10
9.27697
20
-3.43642
11
9.27697
21
-3.1872
0
LINE
8
BLACK
6
CONTINUOUS
10
9.27697
20
-3.1872
11
9.01594
21
-3.1872
0
LINE
8
BLACK
6
CONTINUOUS
10
8.7628
20
-3.1872
11
8.7628
21
-3.43642
0
LINE
8
BLACK
6
CONTINUOUS
10
8.7628
20
-3.43642
11
9.0061
21
-3.43642
0
LINE
8
BLACK
6
CONTINUOUS
10
9.0061
20
-3.43642
11
9.0061
21
-3.1872
0
LINE
8
BLACK
6
CONTINUOUS
10
9.0061
20
-3.1872
11
8.7628
21
-3.1872
0
LINE
8
BLACK
6
CONTINUOUS
10
8.49193
20
-3.1872
11
8.49193
21
-3.43642
0
LINE
8
BLACK
6
CONTINUOUS
10
8.49193
20
-3.43642
11
8.74508
21
-3.43642
0
LINE
8
BLACK
6
CONTINUOUS
10
8.74508
20
-3.43642
11
8.74508
21
-3.1872
0
LINE
8
BLACK
6
CONTINUOUS
10
8.74508
20
-3.1872
11
8.49193
21
-3.1872
0
LINE
8
BLACK
6
CONTINUOUS
10
8.23091
20
-3.1872
11
8.23091
21
-3.43642
0
LINE
8
BLACK
6
CONTINUOUS
10
8.23091
20
-3.43642
11
8.48209
21
-3.43642
0
LINE
8
BLACK
6
CONTINUOUS
10
8.48209
20
-3.43642
11
8.48209
21
-3.1872
0
LINE
8
BLACK
6
CONTINUOUS
10
8.48209
20
-3.1872
11
8.23091
21
-3.1872
0
LINE
8
BLACK
6
CONTINUOUS
10
7.96004
20
-3.1872
11
7.96004
21
-3.43642
0
LINE
8
BLACK
6
CONTINUOUS
10
7.96004
20
-3.43642
11
8.22106
21
-3.43642
0
LINE
8
BLACK
6
CONTINUOUS
10
8.22106
20
-3.43642
11
8.22106
21
-3.1872
0
LINE
8
BLACK
6
CONTINUOUS
10
8.22106
20
-3.1872
11
7.96004
21
-3.1872
0
LINE
8
BLACK
6
CONTINUOUS
10
7.70177
20
-3.1872
11
7.70177
21
-3.43642
0
LINE
8
BLACK
6
CONTINUOUS
10
7.70177
20
-3.43642
11
7.9502
21
-3.43642
0
LINE
8
BLACK
6
CONTINUOUS
10
7.9502
20
-3.43642
11
7.9502
21
-3.1872
0
LINE
8
BLACK
6
CONTINUOUS
10
7.9502
20
-3.1872
11
7.70177
21
-3.1872
0
LINE
8
BLACK
6
CONTINUOUS
10
7.43091
20
-3.1872
11
7.43091
21
-3.43642
0
LINE
8
BLACK
6
CONTINUOUS
10
7.43091
20
-3.43642
11
7.68917
21
-3.43642
0
LINE
8
BLACK
6
CONTINUOUS
10
7.68917
20
-3.43642
11
7.68917
21
-3.1872
0
LINE
8
BLACK
6
CONTINUOUS
10
7.68917
20
-3.1872
11
7.43091
21
-3.1872
0
LINE
8
BLACK
6
CONTINUOUS
10
7.16988
20
-3.1872
11
7.16988
21
-3.43642
0
LINE
8
BLACK
6
CONTINUOUS
10
7.16988
20
-3.43642
11
7.42106
21
-3.43642
0
LINE
8
BLACK
6
CONTINUOUS
10
7.42106
20
-3.43642
11
7.42106
21
-3.1872
0
LINE
8
BLACK
6
CONTINUOUS
10
7.42106
20
-3.1872
11
7.16988
21
-3.1872
0
LINE
8
BLACK
6
CONTINUOUS
10
6.89902
20
-3.1872
11
6.89902
21
-3.43642
0
LINE
8
BLACK
6
CONTINUOUS
10
6.89902
20
-3.43642
11
7.16004
21
-3.43642
0
LINE
8
BLACK
6
CONTINUOUS
10
7.16004
20
-3.43642
11
7.16004
21
-3.1872
0
LINE
8
BLACK
6
CONTINUOUS
10
7.16004
20
-3.1872
11
6.89902
21
-3.1872
0
LINE
8
BLACK
6
CONTINUOUS
10
6.63799
20
-3.1872
11
6.63799
21
-3.43642
0
LINE
8
BLACK
6
CONTINUOUS
10
6.63799
20
-3.43642
11
6.88917
21
-3.43642
0
LINE
8
BLACK
6
CONTINUOUS
10
6.88917
20
-3.43642
11
6.88917
21
-3.1872
0
LINE
8
BLACK
6
CONTINUOUS
10
6.88917
20
-3.1872
11
6.63799
21
-3.1872
0
LINE
8
BLACK
6
CONTINUOUS
10
6.36713
20
-3.1872
11
6.36713
21
-3.43642
0
LINE
8
BLACK
6
CONTINUOUS
10
6.36713
20
-3.43642
11
6.62815
21
-3.43642
0
LINE
8
BLACK
6
CONTINUOUS
10
6.62815
20
-3.43642
11
6.62815
21
-3.1872
0
LINE
8
BLACK
6
CONTINUOUS
10
6.62815
20
-3.1872
11
6.36713
21
-3.1872
0
LINE
8
BLACK
6
CONTINUOUS
10
6.1061
20
-3.1872
11
6.1061
21
-3.43642
0
LINE
8
BLACK
6
CONTINUOUS
10
6.1061
20
-3.43642
11
6.35728
21
-3.43642
0
LINE
8
BLACK
6
CONTINUOUS
10
6.35728
20
-3.43642
11
6.35728
21
-3.1872
0
LINE
8
BLACK
6
CONTINUOUS
10
6.35728
20
-3.1872
11
6.1061
21
-3.1872
0
LINE
8
BLACK
6
CONTINUOUS
10
5.83524
20
-3.1872
11
5.83524
21
-3.43642
0
LINE
8
BLACK
6
CONTINUOUS
10
5.83524
20
-3.43642
11
6.09626
21
-3.43642
0
LINE
8
BLACK
6
CONTINUOUS
10
6.09626
20
-3.43642
11
6.09626
21
-3.1872
0
LINE
8
BLACK
6
CONTINUOUS
10
6.09626
20
-3.1872
11
5.83524
21
-3.1872
0
LINE
8
BLACK
6
CONTINUOUS
10
5.57697
20
-3.1872
11
5.57697
21
-3.43642
0
LINE
8
BLACK
6
CONTINUOUS
10
5.57697
20
-3.43642
11
5.82539
21
-3.43642
0
LINE
8
BLACK
6
CONTINUOUS
10
5.82539
20
-3.43642
11
5.82539
21
-3.1872
0
LINE
8
BLACK
6
CONTINUOUS
10
5.82539
20
-3.1872
11
5.57697
21
-3.1872
0
LINE
8
BLACK
6
CONTINUOUS
10
5.3061
20
-3.1872
11
5.3061
21
-3.43642
0
LINE
8
BLACK
6
CONTINUOUS
10
5.3061
20
-3.43642
11
5.56437
21
-3.43642
0
LINE
8
BLACK
6
CONTINUOUS
10
5.56437
20
-3.43642
11
5.56437
21
-3.1872
0
LINE
8
BLACK
6
CONTINUOUS
10
5.56437
20
-3.1872
11
5.3061
21
-3.1872
0
LINE
8
BLACK
6
CONTINUOUS
10
5.04508
20
-3.1872
11
5.04508
21
-3.43642
0
LINE
8
BLACK
6
CONTINUOUS
10
5.04508
20
-3.43642
11
5.29626
21
-3.43642
0
LINE
8
BLACK
6
CONTINUOUS
10
5.29626
20
-3.43642
11
5.29626
21
-3.1872
0
LINE
8
BLACK
6
CONTINUOUS
10
5.29626
20
-3.1872
11
5.04508
21
-3.1872
0
LINE
8
BLACK
6
CONTINUOUS
10
4.77421
20
-3.1872
11
4.77421
21
-3.43642
0
LINE
8
BLACK
6
CONTINUOUS
10
4.77421
20
-3.43642
11
5.03524
21
-3.43642
0
LINE
8
BLACK
6
CONTINUOUS
10
5.03524
20
-3.43642
11
5.03524
21
-3.1872
0
LINE
8
BLACK
6
CONTINUOUS
10
5.03524
20
-3.1872
11
4.77421
21
-3.1872
0
LINE
8
BLACK
6
CONTINUOUS
10
4.52106
20
-3.1872
11
4.52106
21
-3.43642
0
LINE
8
BLACK
6
CONTINUOUS
10
4.52106
20
-3.43642
11
4.76437
21
-3.43642
0
LINE
8
BLACK
6
CONTINUOUS
10
4.76437
20
-3.43642
11
4.76437
21
-3.1872
0
LINE
8
BLACK
6
CONTINUOUS
10
4.76437
20
-3.1872
11
4.52106
21
-3.1872
0
LINE
8
BLACK
6
CONTINUOUS
10
4.2502
20
-3.1872
11
4.2502
21
-3.43642
0
LINE
8
BLACK
6
CONTINUOUS
10
4.2502
20
-3.43642
11
4.50335
21
-3.43642
0
LINE
8
BLACK
6
CONTINUOUS
10
4.50335
20
-3.43642
11
4.50335
21
-3.1872
0
LINE
8
BLACK
6
CONTINUOUS
10
4.50335
20
-3.1872
11
4.2502
21
-3.1872
0
LINE
8
BLACK
6
CONTINUOUS
10
3.98917
20
-3.1872
11
3.98917
21
-3.43642
0
LINE
8
BLACK
6
CONTINUOUS
10
3.98917
20
-3.43642
11
4.24035
21
-3.43642
0
LINE
8
BLACK
6
CONTINUOUS
10
4.24035
20
-3.43642
11
4.24035
21
-3.1872
0
LINE
8
BLACK
6
CONTINUOUS
10
4.24035
20
-3.1872
11
3.98917
21
-3.1872
0
LINE
8
BLACK
6
CONTINUOUS
10
3.71831
20
-3.1872
11
3.71831
21
-3.43642
0
LINE
8
BLACK
6
CONTINUOUS
10
3.71831
20
-3.43642
11
3.97933
21
-3.43642
0
LINE
8
BLACK
6
CONTINUOUS
10
3.97933
20
-3.43642
11
3.97933
21
-3.1872
0
LINE
8
BLACK
6
CONTINUOUS
10
3.97933
20
-3.1872
11
3.71831
21
-3.1872
0
LINE
8
BLACK
6
CONTINUOUS
10
3.46004
20
-3.1872
11
3.46004
21
-3.43642
0
LINE
8
BLACK
6
CONTINUOUS
10
3.46004
20
-3.43642
11
3.70846
21
-3.43642
0
LINE
8
BLACK
6
CONTINUOUS
10
3.70846
20
-3.43642
11
3.70846
21
-3.1872
0
LINE
8
BLACK
6
CONTINUOUS
10
3.70846
20
-3.1872
11
3.46004
21
-3.1872
0
LINE
8
BLACK
6
CONTINUOUS
10
3.18917
20
-3.1872
11
3.18917
21
-3.43642
0
LINE
8
BLACK
6
CONTINUOUS
10
3.18917
20
-3.43642
11
3.44744
21
-3.43642
0
LINE
8
BLACK
6
CONTINUOUS
10
3.44744
20
-3.43642
11
3.44744
21
-3.1872
0
LINE
8
BLACK
6
CONTINUOUS
10
3.44744
20
-3.1872
11
3.18917
21
-3.1872
0
LINE
8
BLACK
6
CONTINUOUS
10
2.92815
20
-3.1872
11
2.92815
21
-3.43642
0
LINE
8
BLACK
6
CONTINUOUS
10
2.92815
20
-3.43642
11
3.17933
21
-3.43642
0
LINE
8
BLACK
6
CONTINUOUS
10
3.17933
20
-3.43642
11
3.17933
21
-3.1872
0
LINE
8
BLACK
6
CONTINUOUS
10
3.17933
20
-3.1872
11
2.92815
21
-3.1872
0
LINE
8
BLACK
6
CONTINUOUS
10
2.65728
20
-3.1872
11
2.65728
21
-3.43642
0
LINE
8
BLACK
6
CONTINUOUS
10
2.65728
20
-3.43642
11
2.91831
21
-3.43642
0
LINE
8
BLACK
6
CONTINUOUS
10
2.91831
20
-3.43642
11
2.91831
21
-3.1872
0
LINE
8
BLACK
6
CONTINUOUS
10
2.91831
20
-3.1872
11
2.65728
21
-3.1872
0
LINE
8
BLACK
6
CONTINUOUS
10
2.39626
20
-3.1872
11
2.39626
21
-3.43642
0
LINE
8
BLACK
6
CONTINUOUS
10
2.39626
20
-3.43642
11
2.64744
21
-3.43642
0
LINE
8
BLACK
6
CONTINUOUS
10
2.64744
20
-3.43642
11
2.64744
21
-3.1872
0
LINE
8
BLACK
6
CONTINUOUS
10
2.64744
20
-3.1872
11
2.39626
21
-3.1872
0
LINE
8
BLACK
6
CONTINUOUS
10
10.6089
20
-2.92815
11
10.6089
21
-3.17736
0
LINE
8
BLACK
6
CONTINUOUS
10
10.6089
20
-3.17736
11
10.8699
21
-3.17736
0
LINE
8
BLACK
6
CONTINUOUS
10
10.8699
20
-3.17736
11
10.8699
21
-2.92815
0
LINE
8
BLACK
6
CONTINUOUS
10
10.8699
20
-2.92815
11
10.6089
21
-2.92815
0
LINE
8
BLACK
6
CONTINUOUS
10
10.3478
20
-2.92815
11
10.3478
21
-3.17736
0
LINE
8
BLACK
6
CONTINUOUS
10
10.3478
20
-3.17736
11
10.599
21
-3.17736
0
LINE
8
BLACK
6
CONTINUOUS
10
10.599
20
-3.17736
11
10.599
21
-2.92815
0
LINE
8
BLACK
6
CONTINUOUS
10
10.599
20
-2.92815
11
10.3478
21
-2.92815
0
LINE
8
BLACK
6
CONTINUOUS
10
10.077
20
-2.92815
11
10.077
21
-3.17736
0
LINE
8
BLACK
6
CONTINUOUS
10
10.077
20
-3.17736
11
10.338
21
-3.17736
0
LINE
8
BLACK
6
CONTINUOUS
10
10.338
20
-3.17736
11
10.338
21
-2.92815
0
LINE
8
BLACK
6
CONTINUOUS
10
10.338
20
-2.92815
11
10.077
21
-2.92815
0
LINE
8
BLACK
6
CONTINUOUS
10
9.8187
20
-2.92815
11
9.8187
21
-3.17736
0
LINE
8
BLACK
6
CONTINUOUS
10
9.8187
20
-3.17736
11
10.0671
21
-3.17736
0
LINE
8
BLACK
6
CONTINUOUS
10
10.0671
20
-3.17736
11
10.0671
21
-2.92815
0
LINE
8
BLACK
6
CONTINUOUS
10
10.0671
20
-2.92815
11
9.8187
21
-2.92815
0
LINE
8
BLACK
6
CONTINUOUS
10
9.54783
20
-2.92815
11
9.54783
21
-3.17736
0
LINE
8
BLACK
6
CONTINUOUS
10
9.54783
20
-3.17736
11
9.8061
21
-3.17736
0
LINE
8
BLACK
6
CONTINUOUS
10
9.8061
20
-3.17736
11
9.8061
21
-2.92815
0
LINE
8
BLACK
6
CONTINUOUS
10
9.8061
20
-2.92815
11
9.54783
21
-2.92815
0
LINE
8
BLACK
6
CONTINUOUS
10
9.28681
20
-2.92815
11
9.28681
21
-3.17736
0
LINE
8
BLACK
6
CONTINUOUS
10
9.28681
20
-3.17736
11
9.53799
21
-3.17736
0
LINE
8
BLACK
6
CONTINUOUS
10
9.53799
20
-3.17736
11
9.53799
21
-2.92815
0
LINE
8
BLACK
6
CONTINUOUS
10
9.53799
20
-2.92815
11
9.28681
21
-2.92815
0
LINE
8
BLACK
6
CONTINUOUS
10
9.01594
20
-2.92815
11
9.01594
21
-3.17736
0
LINE
8
BLACK
6
CONTINUOUS
10
9.01594
20
-3.17736
11
9.27697
21
-3.17736
0
LINE
8
BLACK
6
CONTINUOUS
10
9.27697
20
-3.17736
11
9.27697
21
-2.92815
0
LINE
8
BLACK
6
CONTINUOUS
10
9.27697
20
-2.92815
11
9.01594
21
-2.92815
0
LINE
8
BLACK
6
CONTINUOUS
10
8.7628
20
-2.92815
11
8.7628
21
-3.17736
0
LINE
8
BLACK
6
CONTINUOUS
10
8.7628
20
-3.17736
11
9.0061
21
-3.17736
0
LINE
8
BLACK
6
CONTINUOUS
10
9.0061
20
-3.17736
11
9.0061
21
-2.92815
0
LINE
8
BLACK
6
CONTINUOUS
10
9.0061
20
-2.92815
11
8.7628
21
-2.92815
0
LINE
8
BLACK
6
CONTINUOUS
10
8.49193
20
-2.92815
11
8.49193
21
-3.17736
0
LINE
8
BLACK
6
CONTINUOUS
10
8.49193
20
-3.17736
11
8.74508
21
-3.17736
0
LINE
8
BLACK
6
CONTINUOUS
10
8.74508
20
-3.17736
11
8.74508
21
-2.92815
0
LINE
8
BLACK
6
CONTINUOUS
10
8.74508
20
-2.92815
11
8.49193
21
-2.92815
0
LINE
8
BLACK
6
CONTINUOUS
10
8.23091
20
-2.92815
11
8.23091
21
-3.17736
0
LINE
8
BLACK
6
CONTINUOUS
10
8.23091
20
-3.17736
11
8.48209
21
-3.17736
0
LINE
8
BLACK
6
CONTINUOUS
10
8.48209
20
-3.17736
11
8.48209
21
-2.92815
0
LINE
8
BLACK
6
CONTINUOUS
10
8.48209
20
-2.92815
11
8.23091
21
-2.92815
0
LINE
8
BLACK
6
CONTINUOUS
10
7.96004
20
-2.92815
11
7.96004
21
-3.17736
0
LINE
8
BLACK
6
CONTINUOUS
10
7.96004
20
-3.17736
11
8.22106
21
-3.17736
0
LINE
8
BLACK
6
CONTINUOUS
10
8.22106
20
-3.17736
11
8.22106
21
-2.92815
0
LINE
8
BLACK
6
CONTINUOUS
10
8.22106
20
-2.92815
11
7.96004
21
-2.92815
0
LINE
8
BLACK
6
CONTINUOUS
10
7.70177
20
-2.92815
11
7.70177
21
-3.17736
0
LINE
8
BLACK
6
CONTINUOUS
10
7.70177
20
-3.17736
11
7.9502
21
-3.17736
0
LINE
8
BLACK
6
CONTINUOUS
10
7.9502
20
-3.17736
11
7.9502
21
-2.92815
0
LINE
8
BLACK
6
CONTINUOUS
10
7.9502
20
-2.92815
11
7.70177
21
-2.92815
0
LINE
8
BLACK
6
CONTINUOUS
10
7.43091
20
-2.92815
11
7.43091
21
-3.17736
0
LINE
8
BLACK
6
CONTINUOUS
10
7.43091
20
-3.17736
11
7.68917
21
-3.17736
0
LINE
8
BLACK
6
CONTINUOUS
10
7.68917
20
-3.17736
11
7.68917
21
-2.92815
0
LINE
8
BLACK
6
CONTINUOUS
10
7.68917
20
-2.92815
11
7.43091
21
-2.92815
0
LINE
8
BLACK
6
CONTINUOUS
10
7.16988
20
-2.92815
11
7.16988
21
-3.17736
0
LINE
8
BLACK
6
CONTINUOUS
10
7.16988
20
-3.17736
11
7.42106
21
-3.17736
0
LINE
8
BLACK
6
CONTINUOUS
10
7.42106
20
-3.17736
11
7.42106
21
-2.92815
0
LINE
8
BLACK
6
CONTINUOUS
10
7.42106
20
-2.92815
11
7.16988
21
-2.92815
0
LINE
8
BLACK
6
CONTINUOUS
10
6.89902
20
-2.92815
11
6.89902
21
-3.17736
0
LINE
8
BLACK
6
CONTINUOUS
10
6.89902
20
-3.17736
11
7.16004
21
-3.17736
0
LINE
8
BLACK
6
CONTINUOUS
10
7.16004
20
-3.17736
11
7.16004
21
-2.92815
0
LINE
8
BLACK
6
CONTINUOUS
10
7.16004
20
-2.92815
11
6.89902
21
-2.92815
0
LINE
8
BLACK
6
CONTINUOUS
10
6.63799
20
-2.92815
11
6.63799
21
-3.17736
0
LINE
8
BLACK
6
CONTINUOUS
10
6.63799
20
-3.17736
11
6.88917
21
-3.17736
0
LINE
8
BLACK
6
CONTINUOUS
10
6.88917
20
-3.17736
11
6.88917
21
-2.92815
0
LINE
8
BLACK
6
CONTINUOUS
10
6.88917
20
-2.92815
11
6.63799
21
-2.92815
0
LINE
8
BLACK
6
CONTINUOUS
10
6.36713
20
-2.92815
11
6.36713
21
-3.17736
0
LINE
8
BLACK
6
CONTINUOUS
10
6.36713
20
-3.17736
11
6.62815
21
-3.17736
0
LINE
8
BLACK
6
CONTINUOUS
10
6.62815
20
-3.17736
11
6.62815
21
-2.92815
0
LINE
8
BLACK
6
CONTINUOUS
10
6.62815
20
-2.92815
11
6.36713
21
-2.92815
0
LINE
8
BLACK
6
CONTINUOUS
10
6.1061
20
-2.92815
11
6.1061
21
-3.17736
0
LINE
8
BLACK
6
CONTINUOUS
10
6.1061
20
-3.17736
11
6.35728
21
-3.17736
0
LINE
8
BLACK
6
CONTINUOUS
10
6.35728
20
-3.17736
11
6.35728
21
-2.92815
0
LINE
8
BLACK
6
CONTINUOUS
10
6.35728
20
-2.92815
11
6.1061
21
-2.92815
0
LINE
8
BLACK
6
CONTINUOUS
10
5.83524
20
-2.92815
11
5.83524
21
-3.17736
0
LINE
8
BLACK
6
CONTINUOUS
10
5.83524
20
-3.17736
11
6.09626
21
-3.17736
0
LINE
8
BLACK
6
CONTINUOUS
10
6.09626
20
-3.17736
11
6.09626
21
-2.92815
0
LINE
8
BLACK
6
CONTINUOUS
10
6.09626
20
-2.92815
11
5.83524
21
-2.92815
0
LINE
8
BLACK
6
CONTINUOUS
10
5.57697
20
-2.92815
11
5.57697
21
-3.17736
0
LINE
8
BLACK
6
CONTINUOUS
10
5.57697
20
-3.17736
11
5.82539
21
-3.17736
0
LINE
8
BLACK
6
CONTINUOUS
10
5.82539
20
-3.17736
11
5.82539
21
-2.92815
0
LINE
8
BLACK
6
CONTINUOUS
10
5.82539
20
-2.92815
11
5.57697
21
-2.92815
0
LINE
8
BLACK
6
CONTINUOUS
10
5.3061
20
-2.92815
11
5.3061
21
-3.17736
0
LINE
8
BLACK
6
CONTINUOUS
10
5.3061
20
-3.17736
11
5.56437
21
-3.17736
0
LINE
8
BLACK
6
CONTINUOUS
10
5.56437
20
-3.17736
11
5.56437
21
-2.92815
0
LINE
8
BLACK
6
CONTINUOUS
10
5.56437
20
-2.92815
11
5.3061
21
-2.92815
0
LINE
8
BLACK
6
CONTINUOUS
10
5.04508
20
-2.92815
11
5.04508
21
-3.17736
0
LINE
8
BLACK
6
CONTINUOUS
10
5.04508
20
-3.17736
11
5.29626
21
-3.17736
0
LINE
8
BLACK
6
CONTINUOUS
10
5.29626
20
-3.17736
11
5.29626
21
-2.92815
0
LINE
8
BLACK
6
CONTINUOUS
10
5.29626
20
-2.92815
11
5.04508
21
-2.92815
0
LINE
8
BLACK
6
CONTINUOUS
10
4.77421
20
-2.92815
11
4.77421
21
-3.17736
0
LINE
8
BLACK
6
CONTINUOUS
10
4.77421
20
-3.17736
11
5.03524
21
-3.17736
0
LINE
8
BLACK
6
CONTINUOUS
10
5.03524
20
-3.17736
11
5.03524
21
-2.92815
0
LINE
8
BLACK
6
CONTINUOUS
10
5.03524
20
-2.92815
11
4.77421
21
-2.92815
0
LINE
8
BLACK
6
CONTINUOUS
10
4.52106
20
-2.92815
11
4.52106
21
-3.17736
0
LINE
8
BLACK
6
CONTINUOUS
10
4.52106
20
-3.17736
11
4.76437
21
-3.17736
0
LINE
8
BLACK
6
CONTINUOUS
10
4.76437
20
-3.17736
11
4.76437
21
-2.92815
0
LINE
8
BLACK
6
CONTINUOUS
10
4.76437
20
-2.92815
11
4.52106
21
-2.92815
0
LINE
8
BLACK
6
CONTINUOUS
10
4.2502
20
-2.92815
11
4.2502
21
-3.17736
0
LINE
8
BLACK
6
CONTINUOUS
10
4.2502
20
-3.17736
11
4.50335
21
-3.17736
0
LINE
8
BLACK
6
CONTINUOUS
10
4.50335
20
-3.17736
11
4.50335
21
-2.92815
0
LINE
8
BLACK
6
CONTINUOUS
10
4.50335
20
-2.92815
11
4.2502
21
-2.92815
0
LINE
8
BLACK
6
CONTINUOUS
10
3.98917
20
-2.92815
11
3.98917
21
-3.17736
0
LINE
8
BLACK
6
CONTINUOUS
10
3.98917
20
-3.17736
11
4.24035
21
-3.17736
0
LINE
8
BLACK
6
CONTINUOUS
10
4.24035
20
-3.17736
11
4.24035
21
-2.92815
0
LINE
8
BLACK
6
CONTINUOUS
10
4.24035
20
-2.92815
11
3.98917
21
-2.92815
0
LINE
8
BLACK
6
CONTINUOUS
10
3.71831
20
-2.92815
11
3.71831
21
-3.17736
0
LINE
8
BLACK
6
CONTINUOUS
10
3.71831
20
-3.17736
11
3.97933
21
-3.17736
0
LINE
8
BLACK
6
CONTINUOUS
10
3.97933
20
-3.17736
11
3.97933
21
-2.92815
0
LINE
8
BLACK
6
CONTINUOUS
10
3.97933
20
-2.92815
11
3.71831
21
-2.92815
0
LINE
8
BLACK
6
CONTINUOUS
10
3.46004
20
-2.92815
11
3.46004
21
-3.17736
0
LINE
8
BLACK
6
CONTINUOUS
10
3.46004
20
-3.17736
11
3.70846
21
-3.17736
0
LINE
8
BLACK
6
CONTINUOUS
10
3.70846
20
-3.17736
11
3.70846
21
-2.92815
0
LINE
8
BLACK
6
CONTINUOUS
10
3.70846
20
-2.92815
11
3.46004
21
-2.92815
0
LINE
8
BLACK
6
CONTINUOUS
10
3.18917
20
-2.92815
11
3.18917
21
-3.17736
0
LINE
8
BLACK
6
CONTINUOUS
10
3.18917
20
-3.17736
11
3.44744
21
-3.17736
0
LINE
8
BLACK
6
CONTINUOUS
10
3.44744
20
-3.17736
11
3.44744
21
-2.92815
0
LINE
8
BLACK
6
CONTINUOUS
10
3.44744
20
-2.92815
11
3.18917
21
-2.92815
0
LINE
8
BLACK
6
CONTINUOUS
10
2.92815
20
-2.92815
11
2.92815
21
-3.17736
0
LINE
8
BLACK
6
CONTINUOUS
10
2.92815
20
-3.17736
11
3.17933
21
-3.17736
0
LINE
8
BLACK
6
CONTINUOUS
10
3.17933
20
-3.17736
11
3.17933
21
-2.92815
0
LINE
8
BLACK
6
CONTINUOUS
10
3.17933
20
-2.92815
11
2.92815
21
-2.92815
0
LINE
8
BLACK
6
CONTINUOUS
10
2.65728
20
-2.92815
11
2.65728
21
-3.17736
0
LINE
8
BLACK
6
CONTINUOUS
10
2.65728
20
-3.17736
11
2.91831
21
-3.17736
0
LINE
8
BLACK
6
CONTINUOUS
10
2.91831
20
-3.17736
11
2.91831
21
-2.92815
0
LINE
8
BLACK
6
CONTINUOUS
10
2.91831
20
-2.92815
11
2.65728
21
-2.92815
0
LINE
8
BLACK
6
CONTINUOUS
10
2.39626
20
-2.92815
11
2.39626
21
-3.17736
0
LINE
8
BLACK
6
CONTINUOUS
10
2.39626
20
-3.17736
11
2.64744
21
-3.17736
0
LINE
8
BLACK
6
CONTINUOUS
10
2.64744
20
-3.17736
11
2.64744
21
-2.92815
0
LINE
8
BLACK
6
CONTINUOUS
10
2.64744
20
-2.92815
11
2.39626
21
-2.92815
0
LINE
8
BLACK
6
CONTINUOUS
10
10.6089
20
-2.66909
11
10.6089
21
-2.91831
0
LINE
8
BLACK
6
CONTINUOUS
10
10.6089
20
-2.91831
11
10.8699
21
-2.91831
0
LINE
8
BLACK
6
CONTINUOUS
10
10.8699
20
-2.91831
11
10.8699
21
-2.66909
0
LINE
8
BLACK
6
CONTINUOUS
10
10.8699
20
-2.66909
11
10.6089
21
-2.66909
0
LINE
8
BLACK
6
CONTINUOUS
10
10.3478
20
-2.66909
11
10.3478
21
-2.91831
0
LINE
8
BLACK
6
CONTINUOUS
10
10.3478
20
-2.91831
11
10.599
21
-2.91831
0
LINE
8
BLACK
6
CONTINUOUS
10
10.599
20
-2.91831
11
10.599
21
-2.66909
0
LINE
8
BLACK
6
CONTINUOUS
10
10.599
20
-2.66909
11
10.3478
21
-2.66909
0
LINE
8
BLACK
6
CONTINUOUS
10
10.077
20
-2.66909
11
10.077
21
-2.91831
0
LINE
8
BLACK
6
CONTINUOUS
10
10.077
20
-2.91831
11
10.338
21
-2.91831
0
LINE
8
BLACK
6
CONTINUOUS
10
10.338
20
-2.91831
11
10.338
21
-2.66909
0
LINE
8
BLACK
6
CONTINUOUS
10
10.338
20
-2.66909
11
10.077
21
-2.66909
0
LINE
8
BLACK
6
CONTINUOUS
10
9.8187
20
-2.66909
11
9.8187
21
-2.91831
0
LINE
8
BLACK
6
CONTINUOUS
10
9.8187
20
-2.91831
11
10.0671
21
-2.91831
0
LINE
8
BLACK
6
CONTINUOUS
10
10.0671
20
-2.91831
11
10.0671
21
-2.66909
0
LINE
8
BLACK
6
CONTINUOUS
10
10.0671
20
-2.66909
11
9.8187
21
-2.66909
0
LINE
8
BLACK
6
CONTINUOUS
10
9.54783
20
-2.66909
11
9.54783
21
-2.91831
0
LINE
8
BLACK
6
CONTINUOUS
10
9.54783
20
-2.91831
11
9.8061
21
-2.91831
0
LINE
8
BLACK
6
CONTINUOUS
10
9.8061
20
-2.91831
11
9.8061
21
-2.66909
0
LINE
8
BLACK
6
CONTINUOUS
10
9.8061
20
-2.66909
11
9.54783
21
-2.66909
0
LINE
8
BLACK
6
CONTINUOUS
10
9.28681
20
-2.66909
11
9.28681
21
-2.91831
0
LINE
8
BLACK
6
CONTINUOUS
10
9.28681
20
-2.91831
11
9.53799
21
-2.91831
0
LINE
8
BLACK
6
CONTINUOUS
10
9.53799
20
-2.91831
11
9.53799
21
-2.66909
0
LINE
8
BLACK
6
CONTINUOUS
10
9.53799
20
-2.66909
11
9.28681
21
-2.66909
0
LINE
8
BLACK
6
CONTINUOUS
10
9.01594
20
-2.66909
11
9.01594
21
-2.91831
0
LINE
8
BLACK
6
CONTINUOUS
10
9.01594
20
-2.91831
11
9.27697
21
-2.91831
0
LINE
8
BLACK
6
CONTINUOUS
10
9.27697
20
-2.91831
11
9.27697
21
-2.66909
0
LINE
8
BLACK
6
CONTINUOUS
10
9.27697
20
-2.66909
11
9.01594
21
-2.66909
0
LINE
8
BLACK
6
CONTINUOUS
10
8.7628
20
-2.66909
11
8.7628
21
-2.91831
0
LINE
8
BLACK
6
CONTINUOUS
10
8.7628
20
-2.91831
11
9.0061
21
-2.91831
0
LINE
8
BLACK
6
CONTINUOUS
10
9.0061
20
-2.91831
11
9.0061
21
-2.66909
0
LINE
8
BLACK
6
CONTINUOUS
10
9.0061
20
-2.66909
11
8.7628
21
-2.66909
0
LINE
8
BLACK
6
CONTINUOUS
10
8.49193
20
-2.66909
11
8.49193
21
-2.91831
0
LINE
8
BLACK
6
CONTINUOUS
10
8.49193
20
-2.91831
11
8.74508
21
-2.91831
0
LINE
8
BLACK
6
CONTINUOUS
10
8.74508
20
-2.91831
11
8.74508
21
-2.66909
0
LINE
8
BLACK
6
CONTINUOUS
10
8.74508
20
-2.66909
11
8.49193
21
-2.66909
0
LINE
8
BLACK
6
CONTINUOUS
10
8.23091
20
-2.66909
11
8.23091
21
-2.91831
0
LINE
8
BLACK
6
CONTINUOUS
10
8.23091
20
-2.91831
11
8.48209
21
-2.91831
0
LINE
8
BLACK
6
CONTINUOUS
10
8.48209
20
-2.91831
11
8.48209
21
-2.66909
0
LINE
8
BLACK
6
CONTINUOUS
10
8.48209
20
-2.66909
11
8.23091
21
-2.66909
0
LINE
8
BLACK
6
CONTINUOUS
10
7.96004
20
-2.66909
11
7.96004
21
-2.91831
0
LINE
8
BLACK
6
CONTINUOUS
10
7.96004
20
-2.91831
11
8.22106
21
-2.91831
0
LINE
8
BLACK
6
CONTINUOUS
10
8.22106
20
-2.91831
11
8.22106
21
-2.66909
0
LINE
8
BLACK
6
CONTINUOUS
10
8.22106
20
-2.66909
11
7.96004
21
-2.66909
0
LINE
8
BLACK
6
CONTINUOUS
10
7.70177
20
-2.66909
11
7.70177
21
-2.91831
0
LINE
8
BLACK
6
CONTINUOUS
10
7.70177
20
-2.91831
11
7.9502
21
-2.91831
0
LINE
8
BLACK
6
CONTINUOUS
10
7.9502
20
-2.91831
11
7.9502
21
-2.66909
0
LINE
8
BLACK
6
CONTINUOUS
10
7.9502
20
-2.66909
11
7.70177
21
-2.66909
0
LINE
8
BLACK
6
CONTINUOUS
10
7.43091
20
-2.66909
11
7.43091
21
-2.91831
0
LINE
8
BLACK
6
CONTINUOUS
10
7.43091
20
-2.91831
11
7.68917
21
-2.91831
0
LINE
8
BLACK
6
CONTINUOUS
10
7.68917
20
-2.91831
11
7.68917
21
-2.66909
0
LINE
8
BLACK
6
CONTINUOUS
10
7.68917
20
-2.66909
11
7.43091
21
-2.66909
0
LINE
8
BLACK
6
CONTINUOUS
10
7.16988
20
-2.66909
11
7.16988
21
-2.91831
0
LINE
8
BLACK
6
CONTINUOUS
10
7.16988
20
-2.91831
11
7.42106
21
-2.91831
0
LINE
8
BLACK
6
CONTINUOUS
10
7.42106
20
-2.91831
11
7.42106
21
-2.66909
0
LINE
8
BLACK
6
CONTINUOUS
10
7.42106
20
-2.66909
11
7.16988
21
-2.66909
0
LINE
8
BLACK
6
CONTINUOUS
10
6.89902
20
-2.66909
11
6.89902
21
-2.91831
0
LINE
8
BLACK
6
CONTINUOUS
10
6.89902
20
-2.91831
11
7.16004
21
-2.91831
0
LINE
8
BLACK
6
CONTINUOUS
10
7.16004
20
-2.91831
11
7.16004
21
-2.66909
0
LINE
8
BLACK
6
CONTINUOUS
10
7.16004
20
-2.66909
11
6.89902
21
-2.66909
0
LINE
8
BLACK
6
CONTINUOUS
10
6.63799
20
-2.66909
11
6.63799
21
-2.91831
0
LINE
8
BLACK
6
CONTINUOUS
10
6.63799
20
-2.91831
11
6.88917
21
-2.91831
0
LINE
8
BLACK
6
CONTINUOUS
10
6.88917
20
-2.91831
11
6.88917
21
-2.66909
0
LINE
8
BLACK
6
CONTINUOUS
10
6.88917
20
-2.66909
11
6.63799
21
-2.66909
0
LINE
8
BLACK
6
CONTINUOUS
10
6.36713
20
-2.66909
11
6.36713
21
-2.91831
0
LINE
8
BLACK
6
CONTINUOUS
10
6.36713
20
-2.91831
11
6.62815
21
-2.91831
0
LINE
8
BLACK
6
CONTINUOUS
10
6.62815
20
-2.91831
11
6.62815
21
-2.66909
0
LINE
8
BLACK
6
CONTINUOUS
10
6.62815
20
-2.66909
11
6.36713
21
-2.66909
0
LINE
8
BLACK
6
CONTINUOUS
10
6.1061
20
-2.66909
11
6.1061
21
-2.91831
0
LINE
8
BLACK
6
CONTINUOUS
10
6.1061
20
-2.91831
11
6.35728
21
-2.91831
0
LINE
8
BLACK
6
CONTINUOUS
10
6.35728
20
-2.91831
11
6.35728
21
-2.66909
0
LINE
8
BLACK
6
CONTINUOUS
10
6.35728
20
-2.66909
11
6.1061
21
-2.66909
0
LINE
8
BLACK
6
CONTINUOUS
10
5.83524
20
-2.66909
11
5.83524
21
-2.91831
0
LINE
8
BLACK
6
CONTINUOUS
10
5.83524
20
-2.91831
11
6.09626
21
-2.91831
0
LINE
8
BLACK
6
CONTINUOUS
10
6.09626
20
-2.91831
11
6.09626
21
-2.66909
0
LINE
8
BLACK
6
CONTINUOUS
10
6.09626
20
-2.66909
11
5.83524
21
-2.66909
0
LINE
8
BLACK
6
CONTINUOUS
10
5.57697
20
-2.66909
11
5.57697
21
-2.91831
0
LINE
8
BLACK
6
CONTINUOUS
10
5.57697
20
-2.91831
11
5.82539
21
-2.91831
0
LINE
8
BLACK
6
CONTINUOUS
10
5.82539
20
-2.91831
11
5.82539
21
-2.66909
0
LINE
8
BLACK
6
CONTINUOUS
10
5.82539
20
-2.66909
11
5.57697
21
-2.66909
0
LINE
8
BLACK
6
CONTINUOUS
10
5.3061
20
-2.66909
11
5.3061
21
-2.91831
0
LINE
8
BLACK
6
CONTINUOUS
10
5.3061
20
-2.91831
11
5.56437
21
-2.91831
0
LINE
8
BLACK
6
CONTINUOUS
10
5.56437
20
-2.91831
11
5.56437
21
-2.66909
0
LINE
8
BLACK
6
CONTINUOUS
10
5.56437
20
-2.66909
11
5.3061
21
-2.66909
0
LINE
8
BLACK
6
CONTINUOUS
10
5.04508
20
-2.66909
11
5.04508
21
-2.91831
0
LINE
8
BLACK
6
CONTINUOUS
10
5.04508
20
-2.91831
11
5.29626
21
-2.91831
0
LINE
8
BLACK
6
CONTINUOUS
10
5.29626
20
-2.91831
11
5.29626
21
-2.66909
0
LINE
8
BLACK
6
CONTINUOUS
10
5.29626
20
-2.66909
11
5.04508
21
-2.66909
0
LINE
8
BLACK
6
CONTINUOUS
10
4.77421
20
-2.66909
11
4.77421
21
-2.91831
0
LINE
8
BLACK
6
CONTINUOUS
10
4.77421
20
-2.91831
11
5.03524
21
-2.91831
0
LINE
8
BLACK
6
CONTINUOUS
10
5.03524
20
-2.91831
11
5.03524
21
-2.66909
0
LINE
8
BLACK
6
CONTINUOUS
10
5.03524
20
-2.66909
11
4.77421
21
-2.66909
0
LINE
8
BLACK
6
CONTINUOUS
10
4.52106
20
-2.66909
11
4.52106
21
-2.91831
0
LINE
8
BLACK
6
CONTINUOUS
10
4.52106
20
-2.91831
11
4.76437
21
-2.91831
0
LINE
8
BLACK
6
CONTINUOUS
10
4.76437
20
-2.91831
11
4.76437
21
-2.66909
0
LINE
8
BLACK
6
CONTINUOUS
10
4.76437
20
-2.66909
11
4.52106
21
-2.66909
0
LINE
8
BLACK
6
CONTINUOUS
10
4.2502
20
-2.66909
11
4.2502
21
-2.91831
0
LINE
8
BLACK
6
CONTINUOUS
10
4.2502
20
-2.91831
11
4.50335
21
-2.91831
0
LINE
8
BLACK
6
CONTINUOUS
10
4.50335
20
-2.91831
11
4.50335
21
-2.66909
0
LINE
8
BLACK
6
CONTINUOUS
10
4.50335
20
-2.66909
11
4.2502
21
-2.66909
0
LINE
8
BLACK
6
CONTINUOUS
10
3.98917
20
-2.66909
11
3.98917
21
-2.91831
0
LINE
8
BLACK
6
CONTINUOUS
10
3.98917
20
-2.91831
11
4.24035
21
-2.91831
0
LINE
8
BLACK
6
CONTINUOUS
10
4.24035
20
-2.91831
11
4.24035
21
-2.66909
0
LINE
8
BLACK
6
CONTINUOUS
10
4.24035
20
-2.66909
11
3.98917
21
-2.66909
0
LINE
8
BLACK
6
CONTINUOUS
10
3.71831
20
-2.66909
11
3.71831
21
-2.91831
0
LINE
8
BLACK
6
CONTINUOUS
10
3.71831
20
-2.91831
11
3.97933
21
-2.91831
0
LINE
8
BLACK
6
CONTINUOUS
10
3.97933
20
-2.91831
11
3.97933
21
-2.66909
0
LINE
8
BLACK
6
CONTINUOUS
10
3.97933
20
-2.66909
11
3.71831
21
-2.66909
0
LINE
8
BLACK
6
CONTINUOUS
10
3.46004
20
-2.66909
11
3.46004
21
-2.91831
0
LINE
8
BLACK
6
CONTINUOUS
10
3.46004
20
-2.91831
11
3.70846
21
-2.91831
0
LINE
8
BLACK
6
CONTINUOUS
10
3.70846
20
-2.91831
11
3.70846
21
-2.66909
0
LINE
8
BLACK
6
CONTINUOUS
10
3.70846
20
-2.66909
11
3.46004
21
-2.66909
0
LINE
8
BLACK
6
CONTINUOUS
10
3.18917
20
-2.66909
11
3.18917
21
-2.91831
0
LINE
8
BLACK
6
CONTINUOUS
10
3.18917
20
-2.91831
11
3.44744
21
-2.91831
0
LINE
8
BLACK
6
CONTINUOUS
10
3.44744
20
-2.91831
11
3.44744
21
-2.66909
0
LINE
8
BLACK
6
CONTINUOUS
10
3.44744
20
-2.66909
11
3.18917
21
-2.66909
0
LINE
8
BLACK
6
CONTINUOUS
10
2.92815
20
-2.66909
11
2.92815
21
-2.91831
0
LINE
8
BLACK
6
CONTINUOUS
10
2.92815
20
-2.91831
11
3.17933
21
-2.91831
0
LINE
8
BLACK
6
CONTINUOUS
10
3.17933
20
-2.91831
11
3.17933
21
-2.66909
0
LINE
8
BLACK
6
CONTINUOUS
10
3.17933
20
-2.66909
11
2.92815
21
-2.66909
0
LINE
8
BLACK
6
CONTINUOUS
10
2.65728
20
-2.66909
11
2.65728
21
-2.91831
0
LINE
8
BLACK
6
CONTINUOUS
10
2.65728
20
-2.91831
11
2.91831
21
-2.91831
0
LINE
8
BLACK
6
CONTINUOUS
10
2.91831
20
-2.91831
11
2.91831
21
-2.66909
0
LINE
8
BLACK
6
CONTINUOUS
10
2.91831
20
-2.66909
11
2.65728
21
-2.66909
0
LINE
8
BLACK
6
CONTINUOUS
10
2.39626
20
-2.66909
11
2.39626
21
-2.91831
0
LINE
8
BLACK
6
CONTINUOUS
10
2.39626
20
-2.91831
11
2.64744
21
-2.91831
0
LINE
8
BLACK
6
CONTINUOUS
10
2.64744
20
-2.91831
11
2.64744
21
-2.66909
0
LINE
8
BLACK
6
CONTINUOUS
10
2.64744
20
-2.66909
11
2.39626
21
-2.66909
0
LINE
8
BLACK
6
CONTINUOUS
10
10.6089
20
-2.41004
11
10.6089
21
-2.65925
0
LINE
8
BLACK
6
CONTINUOUS
10
10.6089
20
-2.65925
11
10.8699
21
-2.65925
0
LINE
8
BLACK
6
CONTINUOUS
10
10.8699
20
-2.65925
11
10.8699
21
-2.41004
0
LINE
8
BLACK
6
CONTINUOUS
10
10.8699
20
-2.41004
11
10.6089
21
-2.41004
0
LINE
8
BLACK
6
CONTINUOUS
10
10.3478
20
-2.41004
11
10.3478
21
-2.65925
0
LINE
8
BLACK
6
CONTINUOUS
10
10.3478
20
-2.65925
11
10.599
21
-2.65925
0
LINE
8
BLACK
6
CONTINUOUS
10
10.599
20
-2.65925
11
10.599
21
-2.41004
0
LINE
8
BLACK
6
CONTINUOUS
10
10.599
20
-2.41004
11
10.3478
21
-2.41004
0
LINE
8
BLACK
6
CONTINUOUS
10
10.077
20
-2.41004
11
10.077
21
-2.65925
0
LINE
8
BLACK
6
CONTINUOUS
10
10.077
20
-2.65925
11
10.338
21
-2.65925
0
LINE
8
BLACK
6
CONTINUOUS
10
10.338
20
-2.65925
11
10.338
21
-2.41004
0
LINE
8
BLACK
6
CONTINUOUS
10
10.338
20
-2.41004
11
10.077
21
-2.41004
0
LINE
8
BLACK
6
CONTINUOUS
10
9.8187
20
-2.41004
11
9.8187
21
-2.65925
0
LINE
8
BLACK
6
CONTINUOUS
10
9.8187
20
-2.65925
11
10.0671
21
-2.65925
0
LINE
8
BLACK
6
CONTINUOUS
10
10.0671
20
-2.65925
11
10.0671
21
-2.41004
0
LINE
8
BLACK
6
CONTINUOUS
10
10.0671
20
-2.41004
11
9.8187
21
-2.41004
0
LINE
8
BLACK
6
CONTINUOUS
10
9.54783
20
-2.41004
11
9.54783
21
-2.65925
0
LINE
8
BLACK
6
CONTINUOUS
10
9.54783
20
-2.65925
11
9.8061
21
-2.65925
0
LINE
8
BLACK
6
CONTINUOUS
10
9.8061
20
-2.65925
11
9.8061
21
-2.41004
0
LINE
8
BLACK
6
CONTINUOUS
10
9.8061
20
-2.41004
11
9.54783
21
-2.41004
0
LINE
8
BLACK
6
CONTINUOUS
10
9.28681
20
-2.41004
11
9.28681
21
-2.65925
0
LINE
8
BLACK
6
CONTINUOUS
10
9.28681
20
-2.65925
11
9.53799
21
-2.65925
0
LINE
8
BLACK
6
CONTINUOUS
10
9.53799
20
-2.65925
11
9.53799
21
-2.41004
0
LINE
8
BLACK
6
CONTINUOUS
10
9.53799
20
-2.41004
11
9.28681
21
-2.41004
0
LINE
8
BLACK
6
CONTINUOUS
10
9.01594
20
-2.41004
11
9.01594
21
-2.65925
0
LINE
8
BLACK
6
CONTINUOUS
10
9.01594
20
-2.65925
11
9.27697
21
-2.65925
0
LINE
8
BLACK
6
CONTINUOUS
10
9.27697
20
-2.65925
11
9.27697
21
-2.41004
0
LINE
8
BLACK
6
CONTINUOUS
10
9.27697
20
-2.41004
11
9.01594
21
-2.41004
0
LINE
8
BLACK
6
CONTINUOUS
10
8.7628
20
-2.41004
11
8.7628
21
-2.65925
0
LINE
8
BLACK
6
CONTINUOUS
10
8.7628
20
-2.65925
11
9.0061
21
-2.65925
0
LINE
8
BLACK
6
CONTINUOUS
10
9.0061
20
-2.65925
11
9.0061
21
-2.41004
0
LINE
8
BLACK
6
CONTINUOUS
10
9.0061
20
-2.41004
11
8.7628
21
-2.41004
0
LINE
8
BLACK
6
CONTINUOUS
10
8.49193
20
-2.41004
11
8.49193
21
-2.65925
0
LINE
8
BLACK
6
CONTINUOUS
10
8.49193
20
-2.65925
11
8.74508
21
-2.65925
0
LINE
8
BLACK
6
CONTINUOUS
10
8.74508
20
-2.65925
11
8.74508
21
-2.41004
0
LINE
8
BLACK
6
CONTINUOUS
10
8.74508
20
-2.41004
11
8.49193
21
-2.41004
0
LINE
8
BLACK
6
CONTINUOUS
10
8.23091
20
-2.41004
11
8.23091
21
-2.65925
0
LINE
8
BLACK
6
CONTINUOUS
10
8.23091
20
-2.65925
11
8.48209
21
-2.65925
0
LINE
8
BLACK
6
CONTINUOUS
10
8.48209
20
-2.65925
11
8.48209
21
-2.41004
0
LINE
8
BLACK
6
CONTINUOUS
10
8.48209
20
-2.41004
11
8.23091
21
-2.41004
0
LINE
8
BLACK
6
CONTINUOUS
10
7.96004
20
-2.41004
11
7.96004
21
-2.65925
0
LINE
8
BLACK
6
CONTINUOUS
10
7.96004
20
-2.65925
11
8.22106
21
-2.65925
0
LINE
8
BLACK
6
CONTINUOUS
10
8.22106
20
-2.65925
11
8.22106
21
-2.41004
0
LINE
8
BLACK
6
CONTINUOUS
10
8.22106
20
-2.41004
11
7.96004
21
-2.41004
0
LINE
8
BLACK
6
CONTINUOUS
10
7.70177
20
-2.41004
11
7.70177
21
-2.65925
0
LINE
8
BLACK
6
CONTINUOUS
10
7.70177
20
-2.65925
11
7.9502
21
-2.65925
0
LINE
8
BLACK
6
CONTINUOUS
10
7.9502
20
-2.65925
11
7.9502
21
-2.41004
0
LINE
8
BLACK
6
CONTINUOUS
10
7.9502
20
-2.41004
11
7.70177
21
-2.41004
0
LINE
8
BLACK
6
CONTINUOUS
10
7.43091
20
-2.41004
11
7.43091
21
-2.65925
0
LINE
8
BLACK
6
CONTINUOUS
10
7.43091
20
-2.65925
11
7.68917
21
-2.65925
0
LINE
8
BLACK
6
CONTINUOUS
10
7.68917
20
-2.65925
11
7.68917
21
-2.41004
0
LINE
8
BLACK
6
CONTINUOUS
10
7.68917
20
-2.41004
11
7.43091
21
-2.41004
0
LINE
8
BLACK
6
CONTINUOUS
10
7.16988
20
-2.41004
11
7.16988
21
-2.65925
0
LINE
8
BLACK
6
CONTINUOUS
10
7.16988
20
-2.65925
11
7.42106
21
-2.65925
0
LINE
8
BLACK
6
CONTINUOUS
10
7.42106
20
-2.65925
11
7.42106
21
-2.41004
0
LINE
8
BLACK
6
CONTINUOUS
10
7.42106
20
-2.41004
11
7.16988
21
-2.41004
0
LINE
8
BLACK
6
CONTINUOUS
10
6.89902
20
-2.41004
11
6.89902
21
-2.65925
0
LINE
8
BLACK
6
CONTINUOUS
10
6.89902
20
-2.65925
11
7.16004
21
-2.65925
0
LINE
8
BLACK
6
CONTINUOUS
10
7.16004
20
-2.65925
11
7.16004
21
-2.41004
0
LINE
8
BLACK
6
CONTINUOUS
10
7.16004
20
-2.41004
11
6.89902
21
-2.41004
0
LINE
8
BLACK
6
CONTINUOUS
10
6.63799
20
-2.41004
11
6.63799
21
-2.65925
0
LINE
8
BLACK
6
CONTINUOUS
10
6.63799
20
-2.65925
11
6.88917
21
-2.65925
0
LINE
8
BLACK
6
CONTINUOUS
10
6.88917
20
-2.65925
11
6.88917
21
-2.41004
0
LINE
8
BLACK
6
CONTINUOUS
10
6.88917
20
-2.41004
11
6.63799
21
-2.41004
0
LINE
8
BLACK
6
CONTINUOUS
10
6.36713
20
-2.41004
11
6.36713
21
-2.65925
0
LINE
8
BLACK
6
CONTINUOUS
10
6.36713
20
-2.65925
11
6.62815
21
-2.65925
0
LINE
8
BLACK
6
CONTINUOUS
10
6.62815
20
-2.65925
11
6.62815
21
-2.41004
0
LINE
8
BLACK
6
CONTINUOUS
10
6.62815
20
-2.41004
11
6.36713
21
-2.41004
0
LINE
8
BLACK
6
CONTINUOUS
10
6.1061
20
-2.41004
11
6.1061
21
-2.65925
0
LINE
8
BLACK
6
CONTINUOUS
10
6.1061
20
-2.65925
11
6.35728
21
-2.65925
0
LINE
8
BLACK
6
CONTINUOUS
10
6.35728
20
-2.65925
11
6.35728
21
-2.41004
0
LINE
8
BLACK
6
CONTINUOUS
10
6.35728
20
-2.41004
11
6.1061
21
-2.41004
0
LINE
8
BLACK
6
CONTINUOUS
10
5.83524
20
-2.41004
11
5.83524
21
-2.65925
0
LINE
8
BLACK
6
CONTINUOUS
10
5.83524
20
-2.65925
11
6.09626
21
-2.65925
0
LINE
8
BLACK
6
CONTINUOUS
10
6.09626
20
-2.65925
11
6.09626
21
-2.41004
0
LINE
8
BLACK
6
CONTINUOUS
10
6.09626
20
-2.41004
11
5.83524
21
-2.41004
0
LINE
8
BLACK
6
CONTINUOUS
10
5.57697
20
-2.41004
11
5.57697
21
-2.65925
0
LINE
8
BLACK
6
CONTINUOUS
10
5.57697
20
-2.65925
11
5.82539
21
-2.65925
0
LINE
8
BLACK
6
CONTINUOUS
10
5.82539
20
-2.65925
11
5.82539
21
-2.41004
0
LINE
8
BLACK
6
CONTINUOUS
10
5.82539
20
-2.41004
11
5.57697
21
-2.41004
0
LINE
8
BLACK
6
CONTINUOUS
10
5.3061
20
-2.41004
11
5.3061
21
-2.65925
0
LINE
8
BLACK
6
CONTINUOUS
10
5.3061
20
-2.65925
11
5.56437
21
-2.65925
0
LINE
8
BLACK
6
CONTINUOUS
10
5.56437
20
-2.65925
11
5.56437
21
-2.41004
0
LINE
8
BLACK
6
CONTINUOUS
10
5.56437
20
-2.41004
11
5.3061
21
-2.41004
0
LINE
8
BLACK
6
CONTINUOUS
10
5.04508
20
-2.41004
11
5.04508
21
-2.65925
0
LINE
8
BLACK
6
CONTINUOUS
10
5.04508
20
-2.65925
11
5.29626
21
-2.65925
0
LINE
8
BLACK
6
CONTINUOUS
10
5.29626
20
-2.65925
11
5.29626
21
-2.41004
0
LINE
8
BLACK
6
CONTINUOUS
10
5.29626
20
-2.41004
11
5.04508
21
-2.41004
0
LINE
8
BLACK
6
CONTINUOUS
10
4.77421
20
-2.41004
11
4.77421
21
-2.65925
0
LINE
8
BLACK
6
CONTINUOUS
10
4.77421
20
-2.65925
11
5.03524
21
-2.65925
0
LINE
8
BLACK
6
CONTINUOUS
10
5.03524
20
-2.65925
11
5.03524
21
-2.41004
0
LINE
8
BLACK
6
CONTINUOUS
10
5.03524
20
-2.41004
11
4.77421
21
-2.41004
0
LINE
8
BLACK
6
CONTINUOUS
10
4.52106
20
-2.41004
11
4.52106
21
-2.65925
0
LINE
8
BLACK
6
CONTINUOUS
10
4.52106
20
-2.65925
11
4.76437
21
-2.65925
0
LINE
8
BLACK
6
CONTINUOUS
10
4.76437
20
-2.65925
11
4.76437
21
-2.41004
0
LINE
8
BLACK
6
CONTINUOUS
10
4.76437
20
-2.41004
11
4.52106
21
-2.41004
0
LINE
8
BLACK
6
CONTINUOUS
10
4.2502
20
-2.41004
11
4.2502
21
-2.65925
0
LINE
8
BLACK
6
CONTINUOUS
10
4.2502
20
-2.65925
11
4.50335
21
-2.65925
0
LINE
8
BLACK
6
CONTINUOUS
10
4.50335
20
-2.65925
11
4.50335
21
-2.41004
0
LINE
8
BLACK
6
CONTINUOUS
10
4.50335
20
-2.41004
11
4.2502
21
-2.41004
0
LINE
8
BLACK
6
CONTINUOUS
10
3.98917
20
-2.41004
11
3.98917
21
-2.65925
0
LINE
8
BLACK
6
CONTINUOUS
10
3.98917
20
-2.65925
11
4.24035
21
-2.65925
0
LINE
8
BLACK
6
CONTINUOUS
10
4.24035
20
-2.65925
11
4.24035
21
-2.41004
0
LINE
8
BLACK
6
CONTINUOUS
10
4.24035
20
-2.41004
11
3.98917
21
-2.41004
0
LINE
8
BLACK
6
CONTINUOUS
10
3.71831
20
-2.41004
11
3.71831
21
-2.65925
0
LINE
8
BLACK
6
CONTINUOUS
10
3.71831
20
-2.65925
11
3.97933
21
-2.65925
0
LINE
8
BLACK
6
CONTINUOUS
10
3.97933
20
-2.65925
11
3.97933
21
-2.41004
0
LINE
8
BLACK
6
CONTINUOUS
10
3.97933
20
-2.41004
11
3.71831
21
-2.41004
0
LINE
8
BLACK
6
CONTINUOUS
10
3.46004
20
-2.41004
11
3.46004
21
-2.65925
0
LINE
8
BLACK
6
CONTINUOUS
10
3.46004
20
-2.65925
11
3.70846
21
-2.65925
0
LINE
8
BLACK
6
CONTINUOUS
10
3.70846
20
-2.65925
11
3.70846
21
-2.41004
0
LINE
8
BLACK
6
CONTINUOUS
10
3.70846
20
-2.41004
11
3.46004
21
-2.41004
0
LINE
8
BLACK
6
CONTINUOUS
10
3.18917
20
-2.41004
11
3.18917
21
-2.65925
0
LINE
8
BLACK
6
CONTINUOUS
10
3.18917
20
-2.65925
11
3.44744
21
-2.65925
0
LINE
8
BLACK
6
CONTINUOUS
10
3.44744
20
-2.65925
11
3.44744
21
-2.41004
0
LINE
8
BLACK
6
CONTINUOUS
10
3.44744
20
-2.41004
11
3.18917
21
-2.41004
0
LINE
8
BLACK
6
CONTINUOUS
10
2.92815
20
-2.41004
11
2.92815
21
-2.65925
0
LINE
8
BLACK
6
CONTINUOUS
10
2.92815
20
-2.65925
11
3.17933
21
-2.65925
0
LINE
8
BLACK
6
CONTINUOUS
10
3.17933
20
-2.65925
11
3.17933
21
-2.41004
0
LINE
8
BLACK
6
CONTINUOUS
10
3.17933
20
-2.41004
11
2.92815
21
-2.41004
0
LINE
8
BLACK
6
CONTINUOUS
10
2.65728
20
-2.41004
11
2.65728
21
-2.65925
0
LINE
8
BLACK
6
CONTINUOUS
10
2.65728
20
-2.65925
11
2.91831
21
-2.65925
0
LINE
8
BLACK
6
CONTINUOUS
10
2.91831
20
-2.65925
11
2.91831
21
-2.41004
0
LINE
8
BLACK
6
CONTINUOUS
10
2.91831
20
-2.41004
11
2.65728
21
-2.41004
0
LINE
8
BLACK
6
CONTINUOUS
10
2.39626
20
-2.41004
11
2.39626
21
-2.65925
0
LINE
8
BLACK
6
CONTINUOUS
10
2.39626
20
-2.65925
11
2.64744
21
-2.65925
0
LINE
8
BLACK
6
CONTINUOUS
10
2.64744
20
-2.65925
11
2.64744
21
-2.41004
0
LINE
8
BLACK
6
CONTINUOUS
10
2.64744
20
-2.41004
11
2.39626
21
-2.41004
  0
ENDSEC
  0
EOF
