<?xml version="1.0" standalone="no"?>
 <!DOCTYPE svg PUBLIC "-//W3C//DTD SVG 1.1//EN" 
 "http://www.w3.org/Graphics/SVG/1.1/DTD/svg11.dtd"> 
<svg
  xmlns:svg="http://www.w3.org/2000/svg"
  xmlns="http://www.w3.org/2000/svg"
  xmlns:xlink="http://www.w3.org/1999/xlink"
  version="1.1"
  width="29.700220cm" height="21.000720cm" viewBox="0 0 297002200 210007200">
<title>SVG Picture created as high_speed_opamp_sot-23-5_breakout-F_Cu.svg date 2023/01/23 10:54:56 </title>
  <desc>Picture generated by PCBNEW </desc>
<g style="fill:#000000; fill-opacity:1.000000;stroke:#000000; stroke-opacity:1.000000;
stroke-linecap:round; stroke-linejoin:round;"
 transform="translate(0 0) scale(1 1)">
</g>
<g style="fill:#000000; fill-opacity:0.0; 
stroke:#000000; stroke-width:0.000000; stroke-opacity:1; 
stroke-linecap:round; stroke-linejoin:round;">
<g >
</g>
<g style="fill:#000000; fill-opacity:0.0; 
stroke:#000000; stroke-width:1.000000; stroke-opacity:1; 
stroke-linecap:round; stroke-linejoin:round;">
</g>
<g style="fill:#000000; fill-opacity:1.0; 
stroke:#000000; stroke-width:1.000000; stroke-opacity:1; 
stroke-linecap:round; stroke-linejoin:round;">
<path style="fill:#000000; fill-opacity:1.0; 
stroke:#000000; stroke-width:1.000000; stroke-opacity:1; 
stroke-linecap:round; stroke-linejoin:round;fill-rule:evenodd;"
d="M 164072201.000000,93130001.000000
164072201.000000,94829999.000000
165772199.000000,94829999.000000
165772199.000000,93130001.000000
Z" /> 
<circle cx="164922200.000000" cy="91440000.000000" r="850000.000000" /> 
<circle cx="164922200.000000" cy="88900000.000000" r="850000.000000" /> 
</g>
<g >
</g>
<g style="fill:#000000; fill-opacity:1.0; 
stroke:#000000; stroke-width:1.000000; stroke-opacity:1; 
stroke-linecap:round; stroke-linejoin:round;">
<path style="fill:#000000; fill-opacity:1.0; 
stroke:#000000; stroke-width:1.000000; stroke-opacity:1; 
stroke-linecap:round; stroke-linejoin:round;fill-rule:evenodd;"
d="M 161642200.000000,90340000.000000
161630782.000000,90282597.000000
161598266.000000,90233934.000000
161549603.000000,90201418.000000
161492200.000000,90190000.000000
160467200.000000,90190000.000000
160409797.000000,90201418.000000
160361134.000000,90233934.000000
160328618.000000,90282597.000000
160317200.000000,90340000.000000
160317200.000000,90640000.000000
160328618.000000,90697403.000000
160361134.000000,90746066.000000
160409797.000000,90778582.000000
160467200.000000,90790000.000000
161492200.000000,90790000.000000
161549603.000000,90778582.000000
161598266.000000,90746066.000000
161630782.000000,90697403.000000
161642200.000000,90640000.000000
Z" /> 
<path style="fill:#000000; fill-opacity:1.0; 
stroke:#000000; stroke-width:1.000000; stroke-opacity:1; 
stroke-linecap:round; stroke-linejoin:round;fill-rule:evenodd;"
d="M 161642200.000000,91290000.000000
161630782.000000,91232597.000000
161598266.000000,91183934.000000
161549603.000000,91151418.000000
161492200.000000,91140000.000000
160467200.000000,91140000.000000
160409797.000000,91151418.000000
160361134.000000,91183934.000000
160328618.000000,91232597.000000
160317200.000000,91290000.000000
160317200.000000,91590000.000000
160328618.000000,91647403.000000
160361134.000000,91696066.000000
160409797.000000,91728582.000000
160467200.000000,91740000.000000
161492200.000000,91740000.000000
161549603.000000,91728582.000000
161598266.000000,91696066.000000
161630782.000000,91647403.000000
161642200.000000,91590000.000000
Z" /> 
<path style="fill:#000000; fill-opacity:1.0; 
stroke:#000000; stroke-width:1.000000; stroke-opacity:1; 
stroke-linecap:round; stroke-linejoin:round;fill-rule:evenodd;"
d="M 161642200.000000,92240000.000000
161630782.000000,92182597.000000
161598266.000000,92133934.000000
161549603.000000,92101418.000000
161492200.000000,92090000.000000
160467200.000000,92090000.000000
160409797.000000,92101418.000000
160361134.000000,92133934.000000
160328618.000000,92182597.000000
160317200.000000,92240000.000000
160317200.000000,92540000.000000
160328618.000000,92597403.000000
160361134.000000,92646066.000000
160409797.000000,92678582.000000
160467200.000000,92690000.000000
161492200.000000,92690000.000000
161549603.000000,92678582.000000
161598266.000000,92646066.000000
161630782.000000,92597403.000000
161642200.000000,92540000.000000
Z" /> 
<path style="fill:#000000; fill-opacity:1.0; 
stroke:#000000; stroke-width:1.000000; stroke-opacity:1; 
stroke-linecap:round; stroke-linejoin:round;fill-rule:evenodd;"
d="M 159367200.000000,92240000.000000
159355782.000000,92182597.000000
159323266.000000,92133934.000000
159274603.000000,92101418.000000
159217200.000000,92090000.000000
158192200.000000,92090000.000000
158134797.000000,92101418.000000
158086134.000000,92133934.000000
158053618.000000,92182597.000000
158042200.000000,92240000.000000
158042200.000000,92540000.000000
158053618.000000,92597403.000000
158086134.000000,92646066.000000
158134797.000000,92678582.000000
158192200.000000,92690000.000000
159217200.000000,92690000.000000
159274603.000000,92678582.000000
159323266.000000,92646066.000000
159355782.000000,92597403.000000
159367200.000000,92540000.000000
Z" /> 
<path style="fill:#000000; fill-opacity:1.0; 
stroke:#000000; stroke-width:1.000000; stroke-opacity:1; 
stroke-linecap:round; stroke-linejoin:round;fill-rule:evenodd;"
d="M 159367200.000000,90340000.000000
159355782.000000,90282597.000000
159323266.000000,90233934.000000
159274603.000000,90201418.000000
159217200.000000,90190000.000000
158192200.000000,90190000.000000
158134797.000000,90201418.000000
158086134.000000,90233934.000000
158053618.000000,90282597.000000
158042200.000000,90340000.000000
158042200.000000,90640000.000000
158053618.000000,90697403.000000
158086134.000000,90746066.000000
158134797.000000,90778582.000000
158192200.000000,90790000.000000
159217200.000000,90790000.000000
159274603.000000,90778582.000000
159323266.000000,90746066.000000
159355782.000000,90697403.000000
159367200.000000,90640000.000000
Z" /> 
</g>
<g >
</g>
<g style="fill:#000000; fill-opacity:1.0; 
stroke:#000000; stroke-width:1.000000; stroke-opacity:1; 
stroke-linecap:round; stroke-linejoin:round;">
<path style="fill:#000000; fill-opacity:1.0; 
stroke:#000000; stroke-width:1.000000; stroke-opacity:1; 
stroke-linecap:round; stroke-linejoin:round;fill-rule:evenodd;"
d="M 155612199.000000,89749999.000000
155612199.000000,88050001.000000
153912201.000000,88050001.000000
153912201.000000,89749999.000000
Z" /> 
<circle cx="154762200.000000" cy="91440000.000000" r="850000.000000" /> 
</g>
<g >
</g>
<g >
</g>
<g style="fill:#000000; fill-opacity:1.0; 
stroke:#000000; stroke-width:1.000000; stroke-opacity:1; 
stroke-linecap:round; stroke-linejoin:round;">
</g>
<g style="fill:#000000; fill-opacity:0.0; 
stroke:#000000; stroke-width:250000.000000; stroke-opacity:1; 
stroke-linecap:round; stroke-linejoin:round;">
<path d="M155237200.092333 91914999.907666 A1621762.000000 1621762.000000 0.0 0 0 156383952.000000 92389999.999995" />
<path d="M163694000.000000 88900000.000001 A2714295.000000 2714295.000000 0.0 0 0 161774700.099360 89695000.099360" />
<path d="M161774700.528292 93184999.471707 A2714305.000000 2714305.000000 0.0 0 0 163694000.000001 93979998.999999" />
<path d="M157909699.865104 89695000.134895 A2714290.000000 2714290.000000 0.0 0 0 155990401.000000 88900000.000002" />
<path d="M155990401 88900000
L154762200 88900000
" />
<path d="M157909700 89695000
L158704700 90490000
" />
<path d="M161774700 93185000
L160979700 92390000
" />
<path d="M163694000 93980000
L164922200 93980000
" />
<path d="M160979700 91440000
L164922200 91440000
" />
<path d="M163694000 88900000
L164922200 88900000
" />
<path d="M161774700 89695000
L160979700 90490000
" />
<path d="M155237200 91915000
L154762200 91440000
" />
<path d="M156383952 92390000
L158704700 92390000
" />
</g>
<g >
</g>
</g> 
</svg>
