<?xml version="1.0" standalone="no"?>
 <!DOCTYPE svg PUBLIC "-//W3C//DTD SVG 1.1//EN" 
 "http://www.w3.org/Graphics/SVG/1.1/DTD/svg11.dtd"> 
<svg
  xmlns:svg="http://www.w3.org/2000/svg"
  xmlns="http://www.w3.org/2000/svg"
  xmlns:xlink="http://www.w3.org/1999/xlink"
  version="1.1"
  width="29.700220cm" height="21.000720cm" viewBox="0 0 297002200 210007200">
<title>SVG Picture created as high_speed_opamp_sot-23-5_breakout-F_Cu.svg date 2023/01/24 11:49:20 </title>
  <desc>Picture generated by PCBNEW </desc>
<g style="fill:#000000; fill-opacity:1.000000;stroke:#000000; stroke-opacity:1.000000;
stroke-linecap:round; stroke-linejoin:round;"
 transform="translate(0 0) scale(1 1)">
</g>
<g style="fill:#000000; fill-opacity:0.0; 
stroke:#000000; stroke-width:0.000000; stroke-opacity:1; 
stroke-linecap:round; stroke-linejoin:round;">
<g >
</g>
<g style="fill:#000000; fill-opacity:0.0; 
stroke:#000000; stroke-width:1.000000; stroke-opacity:1; 
stroke-linecap:round; stroke-linejoin:round;">
</g>
<g style="fill:#000000; fill-opacity:1.0; 
stroke:#000000; stroke-width:1.000000; stroke-opacity:1; 
stroke-linecap:round; stroke-linejoin:round;">
<path style="fill:#000000; fill-opacity:1.0; 
stroke:#000000; stroke-width:1.000000; stroke-opacity:1; 
stroke-linecap:round; stroke-linejoin:round;fill-rule:evenodd;"
d="M 164072201.000000,93130001.000000
164072201.000000,94829999.000000
165772199.000000,94829999.000000
165772199.000000,93130001.000000
Z" /> 
<circle cx="164922200.000000" cy="91440000.000000" r="850000.000000" /> 
<circle cx="164922200.000000" cy="88900000.000000" r="850000.000000" /> 
</g>
<g >
</g>
<g style="fill:#000000; fill-opacity:1.0; 
stroke:#000000; stroke-width:1.000000; stroke-opacity:1; 
stroke-linecap:round; stroke-linejoin:round;">
<path style="fill:#000000; fill-opacity:1.0; 
stroke:#000000; stroke-width:1.000000; stroke-opacity:1; 
stroke-linecap:round; stroke-linejoin:round;fill-rule:evenodd;"
d="M 161642200.000000,90340000.000000
161630782.000000,90282597.000000
161598266.000000,90233934.000000
161549603.000000,90201418.000000
161492200.000000,90190000.000000
160467200.000000,90190000.000000
160409797.000000,90201418.000000
160361134.000000,90233934.000000
160328618.000000,90282597.000000
160317200.000000,90340000.000000
160317200.000000,90640000.000000
160328618.000000,90697403.000000
160361134.000000,90746066.000000
160409797.000000,90778582.000000
160467200.000000,90790000.000000
161492200.000000,90790000.000000
161549603.000000,90778582.000000
161598266.000000,90746066.000000
161630782.000000,90697403.000000
161642200.000000,90640000.000000
Z" /> 
<path style="fill:#000000; fill-opacity:1.0; 
stroke:#000000; stroke-width:1.000000; stroke-opacity:1; 
stroke-linecap:round; stroke-linejoin:round;fill-rule:evenodd;"
d="M 161642200.000000,91290000.000000
161630782.000000,91232597.000000
161598266.000000,91183934.000000
161549603.000000,91151418.000000
161492200.000000,91140000.000000
160467200.000000,91140000.000000
160409797.000000,91151418.000000
160361134.000000,91183934.000000
160328618.000000,91232597.000000
160317200.000000,91290000.000000
160317200.000000,91590000.000000
160328618.000000,91647403.000000
160361134.000000,91696066.000000
160409797.000000,91728582.000000
160467200.000000,91740000.000000
161492200.000000,91740000.000000
161549603.000000,91728582.000000
161598266.000000,91696066.000000
161630782.000000,91647403.000000
161642200.000000,91590000.000000
Z" /> 
<path style="fill:#000000; fill-opacity:1.0; 
stroke:#000000; stroke-width:1.000000; stroke-opacity:1; 
stroke-linecap:round; stroke-linejoin:round;fill-rule:evenodd;"
d="M 161642200.000000,92240000.000000
161630782.000000,92182597.000000
161598266.000000,92133934.000000
161549603.000000,92101418.000000
161492200.000000,92090000.000000
160467200.000000,92090000.000000
160409797.000000,92101418.000000
160361134.000000,92133934.000000
160328618.000000,92182597.000000
160317200.000000,92240000.000000
160317200.000000,92540000.000000
160328618.000000,92597403.000000
160361134.000000,92646066.000000
160409797.000000,92678582.000000
160467200.000000,92690000.000000
161492200.000000,92690000.000000
161549603.000000,92678582.000000
161598266.000000,92646066.000000
161630782.000000,92597403.000000
161642200.000000,92540000.000000
Z" /> 
<path style="fill:#000000; fill-opacity:1.0; 
stroke:#000000; stroke-width:1.000000; stroke-opacity:1; 
stroke-linecap:round; stroke-linejoin:round;fill-rule:evenodd;"
d="M 159367200.000000,92240000.000000
159355782.000000,92182597.000000
159323266.000000,92133934.000000
159274603.000000,92101418.000000
159217200.000000,92090000.000000
158192200.000000,92090000.000000
158134797.000000,92101418.000000
158086134.000000,92133934.000000
158053618.000000,92182597.000000
158042200.000000,92240000.000000
158042200.000000,92540000.000000
158053618.000000,92597403.000000
158086134.000000,92646066.000000
158134797.000000,92678582.000000
158192200.000000,92690000.000000
159217200.000000,92690000.000000
159274603.000000,92678582.000000
159323266.000000,92646066.000000
159355782.000000,92597403.000000
159367200.000000,92540000.000000
Z" /> 
<path style="fill:#000000; fill-opacity:1.0; 
stroke:#000000; stroke-width:1.000000; stroke-opacity:1; 
stroke-linecap:round; stroke-linejoin:round;fill-rule:evenodd;"
d="M 159367200.000000,90340000.000000
159355782.000000,90282597.000000
159323266.000000,90233934.000000
159274603.000000,90201418.000000
159217200.000000,90190000.000000
158192200.000000,90190000.000000
158134797.000000,90201418.000000
158086134.000000,90233934.000000
158053618.000000,90282597.000000
158042200.000000,90340000.000000
158042200.000000,90640000.000000
158053618.000000,90697403.000000
158086134.000000,90746066.000000
158134797.000000,90778582.000000
158192200.000000,90790000.000000
159217200.000000,90790000.000000
159274603.000000,90778582.000000
159323266.000000,90746066.000000
159355782.000000,90697403.000000
159367200.000000,90640000.000000
Z" /> 
</g>
<g >
</g>
<g style="fill:#000000; fill-opacity:1.0; 
stroke:#000000; stroke-width:1.000000; stroke-opacity:1; 
stroke-linecap:round; stroke-linejoin:round;">
<path style="fill:#000000; fill-opacity:1.0; 
stroke:#000000; stroke-width:1.000000; stroke-opacity:1; 
stroke-linecap:round; stroke-linejoin:round;fill-rule:evenodd;"
d="M 155612199.000000,89749999.000000
155612199.000000,88050001.000000
153912201.000000,88050001.000000
153912201.000000,89749999.000000
Z" /> 
<circle cx="154762200.000000" cy="91440000.000000" r="850000.000000" /> 
</g>
<g >
</g>
<g >
</g>
<g style="fill:#000000; fill-opacity:1.0; 
stroke:#000000; stroke-width:1.000000; stroke-opacity:1; 
stroke-linecap:round; stroke-linejoin:round;">
</g>
<g style="fill:#000000; fill-opacity:1.0; 
stroke:#000000; stroke-width:250000.000000; stroke-opacity:1; 
stroke-linecap:round; stroke-linejoin:round;">
</g>
<g style="fill:#000000; fill-opacity:0.0; 
stroke:#000000; stroke-width:250000.000000; stroke-opacity:1; 
stroke-linecap:round; stroke-linejoin:round;">
<path d="M155990401 88900000
L154762200 88900000
" />
<path d="M157909700 89695000
L158704700 90490000
" />
<path d="M157909699.865104 89695000.134895 A2714290.000000 2714290.000000 0.0 0 0 155990401.000000 88900000.000002" />
<path d="M161774700 93185000
L160979700 92390000
" />
<path d="M163694000 93980000
L164922200 93980000
" />
<path d="M161774700.528292 93184999.471707 A2714305.000000 2714305.000000 0.0 0 0 163694000.000001 93979998.999999" />
<path d="M160979700 91440000
L164922200 91440000
" />
<path d="M163694000 88900000
L164922200 88900000
" />
<path d="M161774700 89695000
L160979700 90490000
" />
<path d="M163694000.000000 88900000.000001 A2714295.000000 2714295.000000 0.0 0 0 161774700.099360 89695000.099360" />
<path d="M155237200 91915000
L154762200 91440000
" />
<path d="M156383952 92390000
L158704700 92390000
" />
<path d="M155237200.092333 91914999.907666 A1621762.000000 1621762.000000 0.0 0 0 156383952.000000 92389999.999995" />
</g>
<g >
</g>
<g style="fill:#000000; fill-opacity:0.0; 
stroke:#000000; stroke-width:250000.000000; stroke-opacity:1; 
stroke-linecap:round; stroke-linejoin:round;">
<g >
</g>
<g style="fill:#000000; fill-opacity:1.0; 
stroke:#000000; stroke-width:1.000000; stroke-opacity:1; 
stroke-linecap:round; stroke-linejoin:round;">
<path style="fill:#000000; fill-opacity:1.0; 
stroke:#000000; stroke-width:1.000000; stroke-opacity:1; 
stroke-linecap:round; stroke-linejoin:round;fill-rule:evenodd;"
d="M 153296079.000000,87142002.000000
153249586.000000,87195658.000000
153238200.000000,87248000.000000
153238200.000000,87723139.000000
153258202.000000,87791260.000000
153311858.000000,87837753.000000
153382132.000000,87847857.000000
153446712.000000,87818363.000000
153465026.000000,87798704.000000
153543558.000000,87693919.000000
153548939.000000,87686739.000000
153665495.000000,87599385.000000
153801884.000000,87548255.000000
153864066.000000,87541500.000000
155660334.000000,87541500.000000
155722516.000000,87548255.000000
155858905.000000,87599385.000000
155975461.000000,87686739.000000
156062815.000000,87803295.000000
156113945.000000,87939684.000000
156120700.000000,88001866.000000
156120700.000000,88148902.000000
156140702.000000,88217023.000000
156194358.000000,88263516.000000
156240517.000000,88274750.000000
156315848.000000,88278451.000000
156315852.000000,88278451.000000
156318938.000000,88278603.000000
156644312.000000,88326867.000000
156963388.000000,88406791.000000
157273093.000000,88517606.000000
157570446.000000,88658243.000000
157573088.000000,88659826.000000
157573087.000000,88659826.000000
157849932.000000,88825760.000000
157849941.000000,88825766.000000
157852582.000000,88827349.000000
158116784.000000,89023295.000000
158119072.000000,89025369.000000
158337274.000000,89223136.000000
158346232.000000,89230531.000000
158348084.000000,89231922.000000
158348090.000000,89231927.000000
158351394.000000,89234408.000000
158354340.000000,89237292.000000
158354344.000000,89237296.000000
158355499.000000,89238427.000000
158360943.000000,89243758.000000
158363491.000000,89247008.000000
158380154.000000,89268259.000000
158390213.000000,89279609.000000
158755201.000000,89644596.000000
158817513.000000,89678621.000000
158844296.000000,89681500.000000
159283702.000000,89681500.000000
159286150.000000,89681693.000000
159286158.000000,89681693.000000
159314621.000000,89683933.000000
159314626.000000,89683934.000000
159321031.000000,89684438.000000
159392109.000000,89705088.000000
159473188.000000,89728643.000000
159473190.000000,89728644.000000
159480801.000000,89730855.000000
159487628.000000,89734892.000000
159487627.000000,89734892.000000
159617180.000000,89811509.000000
159617183.000000,89811511.000000
159624007.000000,89815547.000000
159741653.000000,89933193.000000
159743906.000000,89937002.000000
159800196.000000,89977655.000000
159871088.000000,89981506.000000
159932809.000000,89946418.000000
159939476.000000,89938724.000000
159942747.000000,89933193.000000
160060393.000000,89815547.000000
160067217.000000,89811511.000000
160067220.000000,89811509.000000
160196773.000000,89734892.000000
160196772.000000,89734892.000000
160203599.000000,89730855.000000
160211210.000000,89728644.000000
160211212.000000,89728643.000000
160292291.000000,89705088.000000
160363369.000000,89684438.000000
160369774.000000,89683934.000000
160369779.000000,89683933.000000
160398242.000000,89681693.000000
160398250.000000,89681693.000000
160400698.000000,89681500.000000
160840105.000000,89681500.000000
160908226.000000,89661498.000000
160929201.000000,89644595.000000
161288573.000000,89285222.000000
161300237.000000,89271780.000000
161311630.000000,89256605.000000
161311636.000000,89256598.000000
161314107.000000,89253307.000000
161318609.000000,89248709.000000
161320568.000000,89246708.000000
161320572.000000,89246705.000000
161323457.000000,89243758.000000
161326719.000000,89241200.000000
161333580.000000,89235413.000000
161565318.000000,89025378.000000
161565329.000000,89025369.000000
161567617.000000,89023295.000000
161831819.000000,88827349.000000
161834460.000000,88825766.000000
161834469.000000,88825760.000000
162111314.000000,88659826.000000
162111313.000000,88659826.000000
162113955.000000,88658243.000000
162142864.000000,88644570.000000
162408515.000000,88518926.000000
162408524.000000,88518922.000000
162411307.000000,88517606.000000
162651346.000000,88431719.000000
162718108.000000,88407831.000000
162718116.000000,88407829.000000
162721013.000000,88406792.000000
162879131.000000,88367185.000000
163037086.000000,88327619.000000
163037090.000000,88327618.000000
163040089.000000,88326867.000000
163043151.000000,88326413.000000
163043155.000000,88326412.000000
163189323.000000,88304731.000000
163365463.000000,88278603.000000
163368545.000000,88278452.000000
163368551.000000,88278451.000000
163652781.000000,88264488.000000
163719838.000000,88241168.000000
163752390.000000,88207080.000000
163839378.000000,88072617.000000
163839380.000000,88072614.000000
163842186.000000,88068277.000000
163992530.000000,87903051.000000
163996581.000000,87899852.000000
163996585.000000,87899848.000000
164163786.000000,87767800.000000
164163790.000000,87767798.000000
164167841.000000,87764598.000000
164363411.000000,87656638.000000
164368280.000000,87654914.000000
164368284.000000,87654912.000000
164569113.000000,87583795.000000
164569117.000000,87583794.000000
164573988.000000,87582069.000000
164579081.000000,87581162.000000
164579084.000000,87581161.000000
164788827.000000,87543800.000000
164788833.000000,87543799.000000
164793916.000000,87542894.000000
164867748.000000,87541992.000000
165012119.000000,87540228.000000
165012121.000000,87540228.000000
165017289.000000,87540165.000000
165238109.000000,87573955.000000
165450444.000000,87643357.000000
165648593.000000,87746507.000000
165652726.000000,87749610.000000
165652729.000000,87749612.000000
165783579.000000,87847857.000000
165827235.000000,87880635.000000
165981571.000000,88042138.000000
166107457.000000,88226680.000000
166201512.000000,88429305.000000
166202320.000000,88432220.000000
166244241.000000,88488744.000000
166310649.000000,88513852.000000
166380090.000000,88499072.000000
166430516.000000,88449095.000000
166446200.000000,88388215.000000
166446200.000000,87248000.000000
166426198.000000,87179879.000000
166372542.000000,87133386.000000
166320200.000000,87122000.000000
153364200.000000,87122000.000000
Z" /> 
<path style="fill:#000000; fill-opacity:1.0; 
stroke:#000000; stroke-width:1.000000; stroke-opacity:1; 
stroke-linecap:round; stroke-linejoin:round;fill-rule:evenodd;"
d="M 163512536.000000,89543690.000000
163468087.000000,89546186.000000
163454053.000000,89547767.000000
163367692.000000,89562441.000000
163237954.000000,89584485.000000
163224179.000000,89587629.000000
163174028.000000,89602077.000000
163013544.000000,89648311.000000
163000230.000000,89652970.000000
162797702.000000,89736860.000000
162784984.000000,89742986.000000
162593143.000000,89849012.000000
162581185.000000,89856526.000000
162402413.000000,89983371.000000
162391372.000000,89992175.000000
162253319.000000,90115547.000000
162237320.000000,90132792.000000
162230644.000000,90141492.000000
162224714.000000,90146243.000000
162224711.000000,90146246.000000
162203209.000000,90163473.000000
162192895.000000,90172711.000000
162187363.000000,90178243.000000
162153337.000000,90240555.000000
162150581.000000,90271987.000000
162150700.000000,90273498.000000
162150700.000000,90680500.000000
162170702.000000,90748621.000000
162224358.000000,90795114.000000
162276700.000000,90806500.000000
163645395.000000,90806500.000000
163713516.000000,90786498.000000
163751187.000000,90748940.000000
163839378.000000,90612617.000000
163839380.000000,90612614.000000
163842186.000000,90608277.000000
163992530.000000,90443051.000000
163996581.000000,90439852.000000
163996585.000000,90439848.000000
164163786.000000,90307800.000000
164163790.000000,90307798.000000
164167841.000000,90304598.000000
164209147.000000,90281796.000000
164259116.000000,90231364.000000
164273888.000000,90161921.000000
164248772.000000,90095516.000000
164221420.000000,90068909.000000
164177597.000000,90037650.000000
164042340.000000,89941173.000000
163884104.000000,89783489.000000
163824606.000000,89700689.000000
163756765.000000,89606277.000000
163753747.000000,89602077.000000
163751536.000000,89597603.000000
163699346.000000,89549549.000000
163636506.000000,89536729.000000
Z" /> 
<path style="fill:#000000; fill-opacity:1.0; 
stroke:#000000; stroke-width:1.000000; stroke-opacity:1; 
stroke-linecap:round; stroke-linejoin:round;fill-rule:evenodd;"
d="M 166237688.000000,89307894.000000
166203457.000000,89355714.000000
166138934.000000,89514616.000000
166136235.000000,89519020.000000
166033767.000000,89686233.000000
166022213.000000,89705088.000000
165875950.000000,89873938.000000
165704074.000000,90016632.000000
165646721.000000,90050146.000000
165630755.000000,90059476.000000
165582031.000000,90111114.000000
165568960.000000,90180897.000000
165595691.000000,90246669.000000
165636145.000000,90280027.000000
165648593.000000,90286507.000000
165652726.000000,90289610.000000
165652729.000000,90289612.000000
165776633.000000,90382642.000000
165827235.000000,90420635.000000
165981571.000000,90582138.000000
166107457.000000,90766680.000000
166201512.000000,90969305.000000
166202320.000000,90972220.000000
166244241.000000,91028744.000000
166310649.000000,91053852.000000
166380090.000000,91039072.000000
166430516.000000,90989095.000000
166446200.000000,90928215.000000
166446200.000000,89403118.000000
166426198.000000,89334997.000000
166372542.000000,89288504.000000
166302268.000000,89278400.000000
Z" /> 
<path style="fill:#000000; fill-opacity:1.0; 
stroke:#000000; stroke-width:1.000000; stroke-opacity:1; 
stroke-linecap:round; stroke-linejoin:round;fill-rule:evenodd;"
d="M 153275055.000000,89987815.000000
153241065.000000,90050146.000000
153238200.000000,90076861.000000
153238200.000000,90932106.000000
153258202.000000,91000227.000000
153311858.000000,91046720.000000
153382132.000000,91056824.000000
153446712.000000,91027330.000000
153479749.000000,90982349.000000
153558781.000000,90800590.000000
153560846.000000,90795840.000000
153600294.000000,90734862.000000
153679378.000000,90612617.000000
153679380.000000,90612614.000000
153682186.000000,90608277.000000
153685668.000000,90604450.000000
153829402.000000,90446488.000000
153860454.000000,90382642.000000
153852059.000000,90312143.000000
153806883.000000,90257375.000000
153780439.000000,90243706.000000
153673903.000000,90203767.000000
153665495.000000,90200615.000000
153548939.000000,90113261.000000
153465025.000000,90001296.000000
153408167.000000,89958781.000000
153337348.000000,89953755.000000
Z" /> 
<path style="fill:#000000; fill-opacity:1.0; 
stroke:#000000; stroke-width:1.000000; stroke-opacity:1; 
stroke-linecap:round; stroke-linejoin:round;fill-rule:evenodd;"
d="M 156197297.000000,89562441.000000
156142474.000000,89607550.000000
156120700.000000,89678352.000000
156120700.000000,89798134.000000
156113945.000000,89860316.000000
156062815.000000,89996705.000000
155975461.000000,90113261.000000
155858905.000000,90200615.000000
155850496.000000,90203767.000000
155850495.000000,90203768.000000
155741749.000000,90244535.000000
155684984.000000,90287176.000000
155660284.000000,90353738.000000
155675491.000000,90423087.000000
155694884.000000,90449568.000000
155821571.000000,90582138.000000
155947457.000000,90766680.000000
156041512.000000,90969305.000000
156101211.000000,91184570.000000
156124949.000000,91406695.000000
156124652.000000,91411848.000000
156124652.000000,91411851.000000
156113237.000000,91609822.000000
156129285.000000,91678981.000000
156180175.000000,91728486.000000
156209609.000000,91739592.000000
156219708.000000,91742017.000000
156239234.000000,91745110.000000
156296907.000000,91749649.000000
156344619.000000,91753404.000000
156362144.000000,91752945.000000
156362144.000000,91752953.000000
156369739.000000,91752874.000000
156377271.000000,91751882.000000
156412207.000000,91755739.000000
156426034.000000,91756500.000000
157692250.000000,91756500.000000
157760371.000000,91736498.000000
157773471.000000,91725941.000000
157773525.000000,91726011.000000
157779785.000000,91721155.000000
157785393.000000,91715547.000000
157792217.000000,91711511.000000
157792220.000000,91711509.000000
157921773.000000,91634892.000000
157921772.000000,91634892.000000
157928599.000000,91630855.000000
157936210.000000,91628644.000000
157936212.000000,91628643.000000
158021473.000000,91603873.000000
158088369.000000,91584438.000000
158094774.000000,91583934.000000
158094779.000000,91583933.000000
158123242.000000,91581693.000000
158123250.000000,91581693.000000
158125698.000000,91581500.000000
159283702.000000,91581500.000000
159286150.000000,91581693.000000
159286158.000000,91581693.000000
159314621.000000,91583933.000000
159314626.000000,91583934.000000
159321031.000000,91584438.000000
159387927.000000,91603873.000000
159473188.000000,91628643.000000
159473190.000000,91628644.000000
159480801.000000,91630855.000000
159618563.000000,91712328.000000
159687377.000000,91729786.000000
159754708.000000,91707269.000000
159799178.000000,91651925.000000
159808700.000000,91603873.000000
159808700.000000,91276127.000000
159788698.000000,91208006.000000
159735042.000000,91161513.000000
159664768.000000,91151409.000000
159618564.000000,91167672.000000
159480801.000000,91249145.000000
159473190.000000,91251356.000000
159473188.000000,91251357.000000
159420969.000000,91266528.000000
159321031.000000,91295562.000000
159314626.000000,91296066.000000
159314621.000000,91296067.000000
159286158.000000,91298307.000000
159286150.000000,91298307.000000
159283702.000000,91298500.000000
158125698.000000,91298500.000000
158123250.000000,91298307.000000
158123242.000000,91298307.000000
158094779.000000,91296067.000000
158094774.000000,91296066.000000
158088369.000000,91295562.000000
157988431.000000,91266528.000000
157936212.000000,91251357.000000
157936210.000000,91251356.000000
157928599.000000,91249145.000000
157859037.000000,91208006.000000
157792220.000000,91168491.000000
157792217.000000,91168489.000000
157785393.000000,91164453.000000
157667747.000000,91046807.000000
157663711.000000,91039983.000000
157663709.000000,91039980.000000
157587092.000000,90910427.000000
157583055.000000,90903601.000000
157536638.000000,90743831.000000
157533700.000000,90706502.000000
157533700.000000,90273498.000000
157533806.000000,90272145.000000
157516528.000000,90203442.000000
157484645.000000,90167393.000000
157469241.000000,90155573.000000
157469236.000000,90155569.000000
157463207.000000,90150942.000000
157450909.000000,90135591.000000
157436535.000000,90120420.000000
157431078.000000,90115544.000000
157293030.000000,89992176.000000
157281983.000000,89983367.000000
157273932.000000,89977655.000000
157122250.000000,89870031.000000
157103223.000000,89856531.000000
157091260.000000,89849014.000000
156972703.000000,89783489.000000
156899415.000000,89742984.000000
156886688.000000,89736855.000000
156684183.000000,89652976.000000
156670847.000000,89648309.000000
156460222.000000,89587629.000000
156446447.000000,89584485.000000
156267806.000000,89554132.000000
Z" /> 
<path style="fill:#000000; fill-opacity:1.0; 
stroke:#000000; stroke-width:1.000000; stroke-opacity:1; 
stroke-linecap:round; stroke-linejoin:round;fill-rule:evenodd;"
d="M 166237688.000000,91847894.000000
166203457.000000,91895714.000000
166148534.000000,92030973.000000
166138934.000000,92054616.000000
166022213.000000,92245088.000000
165875950.000000,92413938.000000
165871970.000000,92417242.000000
165867219.000000,92421187.000000
165827584.000000,92480090.000000
165826087.000000,92551071.000000
165863203.000000,92611593.000000
165903476.000000,92636112.000000
166018905.000000,92679385.000000
166135461.000000,92766739.000000
166163087.000000,92803601.000000
166219374.000000,92878704.000000
166276233.000000,92921219.000000
166347052.000000,92926245.000000
166409345.000000,92892185.000000
166443335.000000,92829854.000000
166446200.000000,92803139.000000
166446200.000000,91943118.000000
166426198.000000,91874997.000000
166372542.000000,91828504.000000
166302268.000000,91818400.000000
Z" /> 
<path style="fill:#000000; fill-opacity:1.0; 
stroke:#000000; stroke-width:1.000000; stroke-opacity:1; 
stroke-linecap:round; stroke-linejoin:round;fill-rule:evenodd;"
d="M 162208579.000000,92093502.000000
162162086.000000,92147158.000000
162150700.000000,92199500.000000
162150700.000000,92606502.000000
162150594.000000,92607855.000000
162167872.000000,92676558.000000
162199756.000000,92712608.000000
162221191.000000,92729056.000000
162225940.000000,92734984.000000
162233494.000000,92744412.000000
162247863.000000,92759577.000000
162391372.000000,92887824.000000
162402405.000000,92896622.000000
162469053.000000,92943912.000000
162581184.000000,93023473.000000
162593143.000000,93030987.000000
162784984.000000,93137013.000000
162797709.000000,93143141.000000
163000220.000000,93227024.000000
163013552.000000,93231689.000000
163224183.000000,93292371.000000
163237959.000000,93295515.000000
163416595.000000,93325866.000000
163487103.000000,93317557.000000
163541927.000000,93272447.000000
163563700.000000,93201646.000000
163563700.000000,93081866.000000
163570455.000000,93019684.000000
163621585.000000,92883295.000000
163708939.000000,92766739.000000
163825495.000000,92679385.000000
163838068.000000,92674672.000000
163943997.000000,92634960.000000
164000761.000000,92592318.000000
164025461.000000,92525756.000000
164010253.000000,92456408.000000
163988707.000000,92427727.000000
163887765.000000,92327137.000000
163884104.000000,92323489.000000
163824606.000000,92240689.000000
163756765.000000,92146277.000000
163753747.000000,92142077.000000
163751454.000000,92137437.000000
163749754.000000,92134608.000000
163697526.000000,92086518.000000
163641749.000000,92073500.000000
162276700.000000,92073500.000000
Z" /> 
<path style="fill:#000000; fill-opacity:1.0; 
stroke:#000000; stroke-width:1.000000; stroke-opacity:1; 
stroke-linecap:round; stroke-linejoin:round;fill-rule:evenodd;"
d="M 166237688.000000,95061637.000000
166219375.000000,95081295.000000
166135461.000000,95193261.000000
166128281.000000,95198642.000000
166023496.000000,95277174.000000
165980981.000000,95334033.000000
165975955.000000,95404852.000000
166010015.000000,95467145.000000
166072346.000000,95501135.000000
166099061.000000,95504000.000000
166320200.000000,95504000.000000
166388321.000000,95483998.000000
166434814.000000,95430342.000000
166446200.000000,95378000.000000
166446200.000000,95156861.000000
166426198.000000,95088740.000000
166372542.000000,95042247.000000
166302268.000000,95032143.000000
Z" /> 
<path style="fill:#000000; fill-opacity:1.0; 
stroke:#000000; stroke-width:1.000000; stroke-opacity:1; 
stroke-linecap:round; stroke-linejoin:round;fill-rule:evenodd;"
d="M 153310787.000000,91831369.000000
153257569.000000,91878362.000000
153238200.000000,91945487.000000
153238200.000000,95378000.000000
153258202.000000,95446121.000000
153311858.000000,95492614.000000
153364200.000000,95504000.000000
163745339.000000,95504000.000000
163813460.000000,95483998.000000
163859953.000000,95430342.000000
163870057.000000,95360068.000000
163840563.000000,95295488.000000
163820904.000000,95277174.000000
163716119.000000,95198642.000000
163708939.000000,95193261.000000
163621585.000000,95076705.000000
163570455.000000,94940316.000000
163563700.000000,94878134.000000
163563700.000000,94731097.000000
163543698.000000,94662976.000000
163490042.000000,94616483.000000
163443883.000000,94605249.000000
163368552.000000,94601548.000000
163368548.000000,94601548.000000
163365462.000000,94601396.000000
163040089.000000,94553131.000000
162721013.000000,94473207.000000
162411308.000000,94362392.000000
162113956.000000,94221755.000000
162090662.000000,94207793.000000
161834470.000000,94054239.000000
161834460.000000,94054233.000000
161831820.000000,94052650.000000
161567618.000000,93856705.000000
161518574.000000,93812254.000000
161347136.000000,93656873.000000
161338179.000000,93649477.000000
161336309.000000,93648073.000000
161333007.000000,93645594.000000
161323458.000000,93636243.000000
161304246.000000,93611741.000000
161294188.000000,93600392.000000
160929199.000000,93235404.000000
160866887.000000,93201379.000000
160840104.000000,93198500.000000
160400698.000000,93198500.000000
160398250.000000,93198307.000000
160398242.000000,93198307.000000
160369779.000000,93196067.000000
160369774.000000,93196066.000000
160363369.000000,93195562.000000
160263431.000000,93166528.000000
160211212.000000,93151357.000000
160211210.000000,93151356.000000
160203599.000000,93149145.000000
160174789.000000,93132107.000000
160067220.000000,93068491.000000
160067217.000000,93068489.000000
160060393.000000,93064453.000000
159942747.000000,92946807.000000
159940494.000000,92942998.000000
159884204.000000,92902345.000000
159813312.000000,92898494.000000
159751591.000000,92933582.000000
159744924.000000,92941276.000000
159741653.000000,92946807.000000
159624007.000000,93064453.000000
159617183.000000,93068489.000000
159617180.000000,93068491.000000
159509611.000000,93132107.000000
159480801.000000,93149145.000000
159473190.000000,93151356.000000
159473188.000000,93151357.000000
159420969.000000,93166528.000000
159321031.000000,93195562.000000
159314626.000000,93196066.000000
159314621.000000,93196067.000000
159286158.000000,93198307.000000
159286150.000000,93198307.000000
159283702.000000,93198500.000000
158125698.000000,93198500.000000
158123250.000000,93198307.000000
158123242.000000,93198307.000000
158094779.000000,93196067.000000
158094774.000000,93196066.000000
158088369.000000,93195562.000000
157988431.000000,93166528.000000
157936212.000000,93151357.000000
157936210.000000,93151356.000000
157928599.000000,93149145.000000
157899789.000000,93132107.000000
157792220.000000,93068491.000000
157792217.000000,93068489.000000
157785393.000000,93064453.000000
157779784.000000,93058844.000000
157773525.000000,93053989.000000
157772356.000000,93055496.000000
157719033.000000,93026379.000000
157692250.000000,93023500.000000
156437945.000000,93023500.000000
156420191.000000,93024757.000000
156397314.000000,93028013.000000
156391161.000000,93028077.000000
156388084.000000,93028110.000000
156388079.000000,93028110.000000
156383950.000000,93028153.000000
156379257.000000,93027585.000000
156371035.000000,93026590.000000
156362961.000000,93025875.000000
156280510.000000,93021245.000000
156131045.000000,93012851.000000
155881320.000000,92970420.000000
155637916.000000,92900297.000000
155403893.000000,92803361.000000
155337630.000000,92766739.000000
155290175.000000,92740512.000000
155220879.000000,92725067.000000
155184279.000000,92733080.000000
155147344.000000,92747184.000000
155147337.000000,92747186.000000
155142508.000000,92749030.000000
155137440.000000,92750061.000000
155137437.000000,92750062.000000
155055466.000000,92766739.000000
154923603.000000,92793567.000000
154918428.000000,92793757.000000
154918426.000000,92793757.000000
154705527.000000,92801564.000000
154705523.000000,92801564.000000
154700363.000000,92801753.000000
154695243.000000,92801097.000000
154695241.000000,92801097.000000
154483912.000000,92774025.000000
154483911.000000,92774025.000000
154478784.000000,92773368.000000
154473834.000000,92771883.000000
154269771.000000,92710661.000000
154269766.000000,92710659.000000
154264816.000000,92709174.000000
154064206.000000,92610896.000000
153882340.000000,92481173.000000
153724104.000000,92323489.000000
153664606.000000,92240689.000000
153596765.000000,92146277.000000
153593747.000000,92142077.000000
153590055.000000,92134608.000000
153497064.000000,91946453.000000
153497063.000000,91946451.000000
153494770.000000,91941811.000000
153484758.000000,91908858.000000
153445817.000000,91849494.000000
153380963.000000,91820607.000000
Z" /> 
</g>
</g>
</g> 
</svg>
