G04 #@! TF.GenerationSoftware,KiCad,Pcbnew,6.0.8+dfsg-1~bpo11+1*
G04 #@! TF.CreationDate,2023-06-19T09:59:53-04:00*
G04 #@! TF.ProjectId,08_padded_interleaved_loose,30385f70-6164-4646-9564-5f696e746572,rev?*
G04 #@! TF.SameCoordinates,Original*
G04 #@! TF.FileFunction,Soldermask,Top*
G04 #@! TF.FilePolarity,Negative*
%FSLAX46Y46*%
G04 Gerber Fmt 4.6, Leading zero omitted, Abs format (unit mm)*
G04 Created by KiCad (PCBNEW 6.0.8+dfsg-1~bpo11+1) date 2023-06-19 09:59:53*
%MOMM*%
%LPD*%
G01*
G04 APERTURE LIST*
%ADD10C,0.400000*%
G04 APERTURE END LIST*
D10*
X220801667Y-73055000D02*
X223468333Y-73055000D01*
X106801667Y-73055000D02*
X109468333Y-73055000D01*
X250801667Y-59721667D02*
X253468333Y-59721667D01*
X106801667Y-59721667D02*
X109468333Y-59721667D01*
X142801667Y-82388333D02*
X145468333Y-82388333D01*
X100801667Y-94388333D02*
X103468333Y-94388333D01*
X166801667Y-58388333D02*
X169468333Y-58388333D01*
X112801667Y-69055000D02*
X115468333Y-69055000D01*
X178801667Y-59721667D02*
X181468333Y-59721667D01*
X166801667Y-87055000D02*
X169468333Y-87055000D01*
X238801667Y-87055000D02*
X241468333Y-87055000D01*
X160801667Y-97055000D02*
X163468333Y-97055000D01*
X232801667Y-79055000D02*
X235468333Y-79055000D01*
X100801667Y-99055000D02*
X103468333Y-99055000D01*
X70801667Y-82388333D02*
X73468333Y-82388333D01*
X96135000Y-56055000D02*
X96135000Y-104055000D01*
X208801667Y-59721667D02*
X211468333Y-59721667D01*
X130801667Y-81055000D02*
X133468333Y-81055000D01*
X196801667Y-99055000D02*
X199468333Y-99055000D01*
X178801667Y-77721667D02*
X181468333Y-77721667D01*
X106801667Y-94388333D02*
X109468333Y-94388333D01*
X94801667Y-99055000D02*
X97468333Y-99055000D01*
X250801667Y-73055000D02*
X253468333Y-73055000D01*
X82801667Y-88388333D02*
X85468333Y-88388333D01*
X238801667Y-69055000D02*
X241468333Y-69055000D01*
X220801667Y-103055000D02*
X223468333Y-103055000D01*
X76801667Y-61055000D02*
X79468333Y-61055000D01*
X238801667Y-100388333D02*
X241468333Y-100388333D01*
X190801667Y-61055000D02*
X193468333Y-61055000D01*
X202801667Y-63055000D02*
X205468333Y-63055000D01*
X118801667Y-65721667D02*
X121468333Y-65721667D01*
X160801667Y-65721667D02*
X163468333Y-65721667D01*
X238801667Y-77721667D02*
X241468333Y-77721667D01*
X160801667Y-100388333D02*
X163468333Y-100388333D01*
X250801667Y-82388333D02*
X253468333Y-82388333D01*
X220801667Y-76388333D02*
X223468333Y-76388333D01*
X94801667Y-89721667D02*
X97468333Y-89721667D01*
X136801667Y-94388333D02*
X139468333Y-94388333D01*
X88801667Y-103055000D02*
X91468333Y-103055000D01*
X130801667Y-99055000D02*
X133468333Y-99055000D01*
X132135000Y-56055000D02*
X132135000Y-104055000D01*
X76801667Y-103055000D02*
X79468333Y-103055000D01*
X190801667Y-99055000D02*
X193468333Y-99055000D01*
X190801667Y-88388333D02*
X193468333Y-88388333D01*
X70801667Y-61055000D02*
X73468333Y-61055000D01*
X64801667Y-65721667D02*
X67468333Y-65721667D01*
X250801667Y-75055000D02*
X253468333Y-75055000D01*
X94801667Y-61055000D02*
X97468333Y-61055000D01*
X184801667Y-94388333D02*
X187468333Y-94388333D01*
X250801667Y-91055000D02*
X253468333Y-91055000D01*
X160801667Y-76388333D02*
X163468333Y-76388333D01*
X112801667Y-57055000D02*
X115468333Y-57055000D01*
X148801667Y-101721667D02*
X151468333Y-101721667D01*
X172801667Y-73055000D02*
X175468333Y-73055000D01*
X190801667Y-100388333D02*
X193468333Y-100388333D01*
X250801667Y-87055000D02*
X253468333Y-87055000D01*
X142801667Y-65721667D02*
X145468333Y-65721667D01*
X172801667Y-85055000D02*
X175468333Y-85055000D01*
X162135000Y-56055000D02*
X162135000Y-104055000D01*
X190801667Y-85055000D02*
X193468333Y-85055000D01*
X208801667Y-76388333D02*
X211468333Y-76388333D01*
X238801667Y-67055000D02*
X241468333Y-67055000D01*
X130801667Y-101721667D02*
X133468333Y-101721667D01*
X76801667Y-85055000D02*
X79468333Y-85055000D01*
X166801667Y-99055000D02*
X169468333Y-99055000D01*
X190801667Y-103055000D02*
X193468333Y-103055000D01*
X184801667Y-99055000D02*
X187468333Y-99055000D01*
X72135000Y-56055000D02*
X72135000Y-104055000D01*
X250801667Y-67055000D02*
X253468333Y-67055000D01*
X70801667Y-103055000D02*
X73468333Y-103055000D01*
X178801667Y-79055000D02*
X181468333Y-79055000D01*
X100801667Y-67055000D02*
X103468333Y-67055000D01*
X82801667Y-89721667D02*
X85468333Y-89721667D01*
X124801667Y-61055000D02*
X127468333Y-61055000D01*
X244801667Y-64388333D02*
X247468333Y-64388333D01*
X70801667Y-101721667D02*
X73468333Y-101721667D01*
X124801667Y-73055000D02*
X127468333Y-73055000D01*
X184801667Y-64388333D02*
X187468333Y-64388333D01*
X208801667Y-85055000D02*
X211468333Y-85055000D01*
X64801667Y-61055000D02*
X67468333Y-61055000D01*
X244801667Y-76388333D02*
X247468333Y-76388333D01*
X112801667Y-58388333D02*
X115468333Y-58388333D01*
X184801667Y-70388333D02*
X187468333Y-70388333D01*
X82801667Y-87055000D02*
X85468333Y-87055000D01*
X154801667Y-100388333D02*
X157468333Y-100388333D01*
X196801667Y-79055000D02*
X199468333Y-79055000D01*
X136801667Y-82388333D02*
X139468333Y-82388333D01*
X232801667Y-97055000D02*
X235468333Y-97055000D01*
X76801667Y-94388333D02*
X79468333Y-94388333D01*
X94801667Y-67055000D02*
X97468333Y-67055000D01*
X124801667Y-95721667D02*
X127468333Y-95721667D01*
X118801667Y-59721667D02*
X121468333Y-59721667D01*
X154801667Y-83721667D02*
X157468333Y-83721667D01*
X160801667Y-85055000D02*
X163468333Y-85055000D01*
X196801667Y-91055000D02*
X199468333Y-91055000D01*
X136801667Y-69055000D02*
X139468333Y-69055000D01*
X100801667Y-59721667D02*
X103468333Y-59721667D01*
X238801667Y-65721667D02*
X241468333Y-65721667D01*
X70801667Y-77721667D02*
X73468333Y-77721667D01*
X64801667Y-67055000D02*
X67468333Y-67055000D01*
X178801667Y-85055000D02*
X181468333Y-85055000D01*
X214801667Y-87055000D02*
X217468333Y-87055000D01*
X208801667Y-89721667D02*
X211468333Y-89721667D01*
X124801667Y-87055000D02*
X127468333Y-87055000D01*
X166801667Y-83721667D02*
X169468333Y-83721667D01*
X76801667Y-65721667D02*
X79468333Y-65721667D01*
X70801667Y-79055000D02*
X73468333Y-79055000D01*
X190801667Y-82388333D02*
X193468333Y-82388333D01*
X178801667Y-100388333D02*
X181468333Y-100388333D01*
X208801667Y-69055000D02*
X211468333Y-69055000D01*
X214801667Y-61055000D02*
X217468333Y-61055000D01*
X142801667Y-79055000D02*
X145468333Y-79055000D01*
X118801667Y-87055000D02*
X121468333Y-87055000D01*
X238801667Y-93055000D02*
X241468333Y-93055000D01*
X154801667Y-99055000D02*
X157468333Y-99055000D01*
X148801667Y-99055000D02*
X151468333Y-99055000D01*
X88801667Y-94388333D02*
X91468333Y-94388333D01*
X124801667Y-59721667D02*
X127468333Y-59721667D01*
X214801667Y-73055000D02*
X217468333Y-73055000D01*
X78135000Y-56055000D02*
X78135000Y-104055000D01*
X244801667Y-91055000D02*
X247468333Y-91055000D01*
X82801667Y-100388333D02*
X85468333Y-100388333D01*
X178801667Y-63055000D02*
X181468333Y-63055000D01*
X184801667Y-95721667D02*
X187468333Y-95721667D01*
X184801667Y-100388333D02*
X187468333Y-100388333D01*
X142801667Y-97055000D02*
X145468333Y-97055000D01*
X106801667Y-89721667D02*
X109468333Y-89721667D01*
X136801667Y-100388333D02*
X139468333Y-100388333D01*
X238801667Y-57055000D02*
X241468333Y-57055000D01*
X130801667Y-75055000D02*
X133468333Y-75055000D01*
X100801667Y-85055000D02*
X103468333Y-85055000D01*
X100801667Y-73055000D02*
X103468333Y-73055000D01*
X214801667Y-77721667D02*
X217468333Y-77721667D01*
X154801667Y-103055000D02*
X157468333Y-103055000D01*
X148801667Y-87055000D02*
X151468333Y-87055000D01*
X154801667Y-71721667D02*
X157468333Y-71721667D01*
X64801667Y-87055000D02*
X67468333Y-87055000D01*
X148801667Y-58388333D02*
X151468333Y-58388333D01*
X76801667Y-70388333D02*
X79468333Y-70388333D01*
X220801667Y-57055000D02*
X223468333Y-57055000D01*
X220801667Y-67055000D02*
X223468333Y-67055000D01*
X136801667Y-91055000D02*
X139468333Y-91055000D01*
X202801667Y-65721667D02*
X205468333Y-65721667D01*
X238801667Y-61055000D02*
X241468333Y-61055000D01*
X196801667Y-81055000D02*
X199468333Y-81055000D01*
X64801667Y-85055000D02*
X67468333Y-85055000D01*
X232801667Y-69055000D02*
X235468333Y-69055000D01*
X196801667Y-95721667D02*
X199468333Y-95721667D01*
X232801667Y-87055000D02*
X235468333Y-87055000D01*
X154801667Y-61055000D02*
X157468333Y-61055000D01*
X130801667Y-79055000D02*
X133468333Y-79055000D01*
X174135000Y-56055000D02*
X174135000Y-104055000D01*
X124801667Y-101721667D02*
X127468333Y-101721667D01*
X196801667Y-94388333D02*
X199468333Y-94388333D01*
X142801667Y-73055000D02*
X145468333Y-73055000D01*
X64801667Y-94388333D02*
X67468333Y-94388333D01*
X148801667Y-97055000D02*
X151468333Y-97055000D01*
X184801667Y-79055000D02*
X187468333Y-79055000D01*
X94801667Y-59721667D02*
X97468333Y-59721667D01*
X244801667Y-101721667D02*
X247468333Y-101721667D01*
X232801667Y-82388333D02*
X235468333Y-82388333D01*
X154801667Y-67055000D02*
X157468333Y-67055000D01*
X136801667Y-93055000D02*
X139468333Y-93055000D01*
X136801667Y-88388333D02*
X139468333Y-88388333D01*
X88801667Y-85055000D02*
X91468333Y-85055000D01*
X244801667Y-70388333D02*
X247468333Y-70388333D01*
X250801667Y-58388333D02*
X253468333Y-58388333D01*
X250801667Y-70388333D02*
X253468333Y-70388333D01*
X70801667Y-87055000D02*
X73468333Y-87055000D01*
X82801667Y-95721667D02*
X85468333Y-95721667D01*
X214801667Y-81055000D02*
X217468333Y-81055000D01*
X112801667Y-85055000D02*
X115468333Y-85055000D01*
X82801667Y-99055000D02*
X85468333Y-99055000D01*
X100801667Y-89721667D02*
X103468333Y-89721667D01*
X118801667Y-70388333D02*
X121468333Y-70388333D01*
X244801667Y-71721667D02*
X247468333Y-71721667D01*
X136801667Y-73055000D02*
X139468333Y-73055000D01*
X184801667Y-97055000D02*
X187468333Y-97055000D01*
X100801667Y-58388333D02*
X103468333Y-58388333D01*
X142801667Y-103055000D02*
X145468333Y-103055000D01*
X82801667Y-67055000D02*
X85468333Y-67055000D01*
X160801667Y-91055000D02*
X163468333Y-91055000D01*
X184801667Y-75055000D02*
X187468333Y-75055000D01*
X64801667Y-103055000D02*
X67468333Y-103055000D01*
X94801667Y-63055000D02*
X97468333Y-63055000D01*
X238801667Y-75055000D02*
X241468333Y-75055000D01*
X94801667Y-97055000D02*
X97468333Y-97055000D01*
X196801667Y-100388333D02*
X199468333Y-100388333D01*
X238801667Y-70388333D02*
X241468333Y-70388333D01*
X148801667Y-85055000D02*
X151468333Y-85055000D01*
X130801667Y-89721667D02*
X133468333Y-89721667D01*
X192135000Y-56055000D02*
X192135000Y-104055000D01*
X142801667Y-89721667D02*
X145468333Y-89721667D01*
X234135000Y-56055000D02*
X234135000Y-104055000D01*
X166801667Y-101721667D02*
X169468333Y-101721667D01*
X172801667Y-58388333D02*
X175468333Y-58388333D01*
X184801667Y-101721667D02*
X187468333Y-101721667D01*
X154801667Y-59721667D02*
X157468333Y-59721667D01*
X88801667Y-59721667D02*
X91468333Y-59721667D01*
X226801667Y-63055000D02*
X229468333Y-63055000D01*
X124801667Y-100388333D02*
X127468333Y-100388333D01*
X142801667Y-95721667D02*
X145468333Y-95721667D01*
X142801667Y-88388333D02*
X145468333Y-88388333D01*
X232801667Y-95721667D02*
X235468333Y-95721667D01*
X154801667Y-87055000D02*
X157468333Y-87055000D01*
X106801667Y-67055000D02*
X109468333Y-67055000D01*
X124801667Y-79055000D02*
X127468333Y-79055000D01*
X232801667Y-81055000D02*
X235468333Y-81055000D01*
X76801667Y-82388333D02*
X79468333Y-82388333D01*
X136801667Y-63055000D02*
X139468333Y-63055000D01*
X160801667Y-94388333D02*
X163468333Y-94388333D01*
X144135000Y-56055000D02*
X144135000Y-104055000D01*
X94801667Y-76388333D02*
X97468333Y-76388333D01*
X202801667Y-101721667D02*
X205468333Y-101721667D01*
X130801667Y-67055000D02*
X133468333Y-67055000D01*
X214801667Y-76388333D02*
X217468333Y-76388333D01*
X100801667Y-100388333D02*
X103468333Y-100388333D01*
X70801667Y-100388333D02*
X73468333Y-100388333D01*
X190801667Y-87055000D02*
X193468333Y-87055000D01*
X94801667Y-94388333D02*
X97468333Y-94388333D01*
X88801667Y-63055000D02*
X91468333Y-63055000D01*
X250801667Y-97055000D02*
X253468333Y-97055000D01*
X184801667Y-65721667D02*
X187468333Y-65721667D01*
X202801667Y-77721667D02*
X205468333Y-77721667D01*
X250801667Y-57055000D02*
X253468333Y-57055000D01*
X130801667Y-70388333D02*
X133468333Y-70388333D01*
X204135000Y-56055000D02*
X204135000Y-104055000D01*
X76801667Y-67055000D02*
X79468333Y-67055000D01*
X184801667Y-76388333D02*
X187468333Y-76388333D01*
X160801667Y-64388333D02*
X163468333Y-64388333D01*
X106801667Y-77721667D02*
X109468333Y-77721667D01*
X106801667Y-99055000D02*
X109468333Y-99055000D01*
X148801667Y-61055000D02*
X151468333Y-61055000D01*
X130801667Y-94388333D02*
X133468333Y-94388333D01*
X178801667Y-91055000D02*
X181468333Y-91055000D01*
X82801667Y-57055000D02*
X85468333Y-57055000D01*
X184801667Y-63055000D02*
X187468333Y-63055000D01*
X208801667Y-75055000D02*
X211468333Y-75055000D01*
X244801667Y-77721667D02*
X247468333Y-77721667D01*
X222135000Y-56055000D02*
X222135000Y-104055000D01*
X166801667Y-76388333D02*
X169468333Y-76388333D01*
X88801667Y-73055000D02*
X91468333Y-73055000D01*
X106801667Y-93055000D02*
X109468333Y-93055000D01*
X142801667Y-100388333D02*
X145468333Y-100388333D01*
X238801667Y-71721667D02*
X241468333Y-71721667D01*
X160801667Y-58388333D02*
X163468333Y-58388333D01*
X166801667Y-88388333D02*
X169468333Y-88388333D01*
X214801667Y-57055000D02*
X217468333Y-57055000D01*
X124801667Y-65721667D02*
X127468333Y-65721667D01*
X226801667Y-64388333D02*
X229468333Y-64388333D01*
X202801667Y-61055000D02*
X205468333Y-61055000D01*
X94801667Y-70388333D02*
X97468333Y-70388333D01*
X208801667Y-64388333D02*
X211468333Y-64388333D01*
X130801667Y-64388333D02*
X133468333Y-64388333D01*
X172801667Y-95721667D02*
X175468333Y-95721667D01*
X220801667Y-70388333D02*
X223468333Y-70388333D01*
X244801667Y-57055000D02*
X247468333Y-57055000D01*
X76801667Y-93055000D02*
X79468333Y-93055000D01*
X208801667Y-91055000D02*
X211468333Y-91055000D01*
X124801667Y-71721667D02*
X127468333Y-71721667D01*
X64801667Y-76388333D02*
X67468333Y-76388333D01*
X120135000Y-56055000D02*
X120135000Y-104055000D01*
X166801667Y-100388333D02*
X169468333Y-100388333D01*
X166801667Y-93055000D02*
X169468333Y-93055000D01*
X214801667Y-67055000D02*
X217468333Y-67055000D01*
X142801667Y-91055000D02*
X145468333Y-91055000D01*
X166801667Y-103055000D02*
X169468333Y-103055000D01*
X244801667Y-65721667D02*
X247468333Y-65721667D01*
X112801667Y-95721667D02*
X115468333Y-95721667D01*
X64801667Y-83721667D02*
X67468333Y-83721667D01*
X126135000Y-56055000D02*
X126135000Y-104055000D01*
X190801667Y-67055000D02*
X193468333Y-67055000D01*
X76801667Y-63055000D02*
X79468333Y-63055000D01*
X202801667Y-59721667D02*
X205468333Y-59721667D01*
X64801667Y-91055000D02*
X67468333Y-91055000D01*
X100801667Y-61055000D02*
X103468333Y-61055000D01*
X100801667Y-75055000D02*
X103468333Y-75055000D01*
X226801667Y-83721667D02*
X229468333Y-83721667D01*
X250801667Y-83721667D02*
X253468333Y-83721667D01*
X228135000Y-56055000D02*
X228135000Y-104055000D01*
X160801667Y-59721667D02*
X163468333Y-59721667D01*
X220801667Y-95721667D02*
X223468333Y-95721667D01*
X100801667Y-95721667D02*
X103468333Y-95721667D01*
X142801667Y-76388333D02*
X145468333Y-76388333D01*
X160801667Y-93055000D02*
X163468333Y-93055000D01*
X64801667Y-59721667D02*
X67468333Y-59721667D01*
X208801667Y-97055000D02*
X211468333Y-97055000D01*
X190801667Y-91055000D02*
X193468333Y-91055000D01*
X106801667Y-82388333D02*
X109468333Y-82388333D01*
X154801667Y-64388333D02*
X157468333Y-64388333D01*
X238801667Y-97055000D02*
X241468333Y-97055000D01*
X180135000Y-56055000D02*
X180135000Y-104055000D01*
X142801667Y-83721667D02*
X145468333Y-83721667D01*
X118801667Y-81055000D02*
X121468333Y-81055000D01*
X70801667Y-89721667D02*
X73468333Y-89721667D01*
X226801667Y-93055000D02*
X229468333Y-93055000D01*
X142801667Y-75055000D02*
X145468333Y-75055000D01*
X214801667Y-65721667D02*
X217468333Y-65721667D01*
X184801667Y-81055000D02*
X187468333Y-81055000D01*
X220801667Y-87055000D02*
X223468333Y-87055000D01*
X172801667Y-103055000D02*
X175468333Y-103055000D01*
X66135000Y-56055000D02*
X66135000Y-104055000D01*
X88801667Y-64388333D02*
X91468333Y-64388333D01*
X250801667Y-79055000D02*
X253468333Y-79055000D01*
X238801667Y-76388333D02*
X241468333Y-76388333D01*
X226801667Y-61055000D02*
X229468333Y-61055000D01*
X190801667Y-76388333D02*
X193468333Y-76388333D01*
X172801667Y-75055000D02*
X175468333Y-75055000D01*
X202801667Y-70388333D02*
X205468333Y-70388333D01*
X252135000Y-56055000D02*
X252135000Y-104055000D01*
X148801667Y-100388333D02*
X151468333Y-100388333D01*
X220801667Y-93055000D02*
X223468333Y-93055000D01*
X118801667Y-71721667D02*
X121468333Y-71721667D01*
X220801667Y-99055000D02*
X223468333Y-99055000D01*
X226801667Y-89721667D02*
X229468333Y-89721667D01*
X226801667Y-76388333D02*
X229468333Y-76388333D01*
X160801667Y-63055000D02*
X163468333Y-63055000D01*
X70801667Y-81055000D02*
X73468333Y-81055000D01*
X178801667Y-99055000D02*
X181468333Y-99055000D01*
X100801667Y-70388333D02*
X103468333Y-70388333D01*
X136801667Y-76388333D02*
X139468333Y-76388333D01*
X64801667Y-81055000D02*
X67468333Y-81055000D01*
X88801667Y-88388333D02*
X91468333Y-88388333D01*
X112801667Y-70388333D02*
X115468333Y-70388333D01*
X184801667Y-85055000D02*
X187468333Y-85055000D01*
X112801667Y-63055000D02*
X115468333Y-63055000D01*
X112801667Y-64388333D02*
X115468333Y-64388333D01*
X124801667Y-76388333D02*
X127468333Y-76388333D01*
X232801667Y-71721667D02*
X235468333Y-71721667D01*
X142801667Y-94388333D02*
X145468333Y-94388333D01*
X124801667Y-57055000D02*
X127468333Y-57055000D01*
X190801667Y-83721667D02*
X193468333Y-83721667D01*
X184801667Y-67055000D02*
X187468333Y-67055000D01*
X112801667Y-89721667D02*
X115468333Y-89721667D01*
X214801667Y-59721667D02*
X217468333Y-59721667D01*
X184801667Y-103055000D02*
X187468333Y-103055000D01*
X196801667Y-89721667D02*
X199468333Y-89721667D01*
X160801667Y-75055000D02*
X163468333Y-75055000D01*
X70801667Y-58388333D02*
X73468333Y-58388333D01*
X190801667Y-93055000D02*
X193468333Y-93055000D01*
X172801667Y-76388333D02*
X175468333Y-76388333D01*
X220801667Y-94388333D02*
X223468333Y-94388333D01*
X88801667Y-77721667D02*
X91468333Y-77721667D01*
X220801667Y-75055000D02*
X223468333Y-75055000D01*
X82801667Y-93055000D02*
X85468333Y-93055000D01*
X64801667Y-89721667D02*
X67468333Y-89721667D01*
X184801667Y-93055000D02*
X187468333Y-93055000D01*
X166801667Y-82388333D02*
X169468333Y-82388333D01*
X160801667Y-61055000D02*
X163468333Y-61055000D01*
X226801667Y-59721667D02*
X229468333Y-59721667D01*
X106801667Y-88388333D02*
X109468333Y-88388333D01*
X220801667Y-64388333D02*
X223468333Y-64388333D01*
X220801667Y-63055000D02*
X223468333Y-63055000D01*
X178801667Y-97055000D02*
X181468333Y-97055000D01*
X172801667Y-93055000D02*
X175468333Y-93055000D01*
X106801667Y-101721667D02*
X109468333Y-101721667D01*
X202801667Y-71721667D02*
X205468333Y-71721667D01*
X130801667Y-95721667D02*
X133468333Y-95721667D01*
X244801667Y-58388333D02*
X247468333Y-58388333D01*
X202801667Y-91055000D02*
X205468333Y-91055000D01*
X118801667Y-88388333D02*
X121468333Y-88388333D01*
X76801667Y-58388333D02*
X79468333Y-58388333D01*
X142801667Y-67055000D02*
X145468333Y-67055000D01*
X184801667Y-59721667D02*
X187468333Y-59721667D01*
X238801667Y-95721667D02*
X241468333Y-95721667D01*
X172801667Y-71721667D02*
X175468333Y-71721667D01*
X148801667Y-93055000D02*
X151468333Y-93055000D01*
X112801667Y-59721667D02*
X115468333Y-59721667D01*
X172801667Y-64388333D02*
X175468333Y-64388333D01*
X136801667Y-61055000D02*
X139468333Y-61055000D01*
X160801667Y-87055000D02*
X163468333Y-87055000D01*
X154801667Y-65721667D02*
X157468333Y-65721667D01*
X130801667Y-57055000D02*
X133468333Y-57055000D01*
X64801667Y-58388333D02*
X67468333Y-58388333D01*
X142801667Y-71721667D02*
X145468333Y-71721667D01*
X238801667Y-81055000D02*
X241468333Y-81055000D01*
X106801667Y-70388333D02*
X109468333Y-70388333D01*
X136801667Y-58388333D02*
X139468333Y-58388333D01*
X118801667Y-77721667D02*
X121468333Y-77721667D01*
X238801667Y-99055000D02*
X241468333Y-99055000D01*
X160801667Y-69055000D02*
X163468333Y-69055000D01*
X136801667Y-70388333D02*
X139468333Y-70388333D01*
X154801667Y-70388333D02*
X157468333Y-70388333D01*
X130801667Y-77721667D02*
X133468333Y-77721667D01*
X240135000Y-56055000D02*
X240135000Y-104055000D01*
X124801667Y-75055000D02*
X127468333Y-75055000D01*
X238801667Y-58388333D02*
X241468333Y-58388333D01*
X196801667Y-58388333D02*
X199468333Y-58388333D01*
X136801667Y-57055000D02*
X139468333Y-57055000D01*
X184801667Y-58388333D02*
X187468333Y-58388333D01*
X94801667Y-87055000D02*
X97468333Y-87055000D01*
X196801667Y-75055000D02*
X199468333Y-75055000D01*
X94801667Y-73055000D02*
X97468333Y-73055000D01*
X190801667Y-97055000D02*
X193468333Y-97055000D01*
X154801667Y-58388333D02*
X157468333Y-58388333D01*
X232801667Y-73055000D02*
X235468333Y-73055000D01*
X202801667Y-97055000D02*
X205468333Y-97055000D01*
X178801667Y-95721667D02*
X181468333Y-95721667D01*
X250801667Y-85055000D02*
X253468333Y-85055000D01*
X130801667Y-93055000D02*
X133468333Y-93055000D01*
X250801667Y-94388333D02*
X253468333Y-94388333D01*
X244801667Y-85055000D02*
X247468333Y-85055000D01*
X100801667Y-65721667D02*
X103468333Y-65721667D01*
X124801667Y-82388333D02*
X127468333Y-82388333D01*
X100801667Y-88388333D02*
X103468333Y-88388333D01*
X136801667Y-77721667D02*
X139468333Y-77721667D01*
X184801667Y-89721667D02*
X187468333Y-89721667D01*
X226801667Y-82388333D02*
X229468333Y-82388333D01*
X172801667Y-83721667D02*
X175468333Y-83721667D01*
X208801667Y-67055000D02*
X211468333Y-67055000D01*
X250801667Y-100388333D02*
X253468333Y-100388333D01*
X196801667Y-93055000D02*
X199468333Y-93055000D01*
X136801667Y-85055000D02*
X139468333Y-85055000D01*
X190801667Y-58388333D02*
X193468333Y-58388333D01*
X100801667Y-57055000D02*
X103468333Y-57055000D01*
X118801667Y-73055000D02*
X121468333Y-73055000D01*
X148801667Y-88388333D02*
X151468333Y-88388333D01*
X232801667Y-76388333D02*
X235468333Y-76388333D01*
X226801667Y-67055000D02*
X229468333Y-67055000D01*
X112801667Y-97055000D02*
X115468333Y-97055000D01*
X112801667Y-73055000D02*
X115468333Y-73055000D01*
X160801667Y-101721667D02*
X163468333Y-101721667D01*
X148801667Y-57055000D02*
X151468333Y-57055000D01*
X202801667Y-69055000D02*
X205468333Y-69055000D01*
X208801667Y-103055000D02*
X211468333Y-103055000D01*
X124801667Y-93055000D02*
X127468333Y-93055000D01*
X82801667Y-79055000D02*
X85468333Y-79055000D01*
X202801667Y-88388333D02*
X205468333Y-88388333D01*
X88801667Y-99055000D02*
X91468333Y-99055000D01*
X154801667Y-79055000D02*
X157468333Y-79055000D01*
X112801667Y-93055000D02*
X115468333Y-93055000D01*
X202801667Y-87055000D02*
X205468333Y-87055000D01*
X130801667Y-71721667D02*
X133468333Y-71721667D01*
X232801667Y-85055000D02*
X235468333Y-85055000D01*
X208801667Y-57055000D02*
X211468333Y-57055000D01*
X172801667Y-70388333D02*
X175468333Y-70388333D01*
X70801667Y-73055000D02*
X73468333Y-73055000D01*
X196801667Y-59721667D02*
X199468333Y-59721667D01*
X76801667Y-100388333D02*
X79468333Y-100388333D01*
X118801667Y-76388333D02*
X121468333Y-76388333D01*
X148801667Y-64388333D02*
X151468333Y-64388333D01*
X196801667Y-70388333D02*
X199468333Y-70388333D01*
X70801667Y-69055000D02*
X73468333Y-69055000D01*
X76801667Y-81055000D02*
X79468333Y-81055000D01*
X82801667Y-59721667D02*
X85468333Y-59721667D01*
X208801667Y-83721667D02*
X211468333Y-83721667D01*
X136801667Y-64388333D02*
X139468333Y-64388333D01*
X76801667Y-87055000D02*
X79468333Y-87055000D01*
X166801667Y-67055000D02*
X169468333Y-67055000D01*
X220801667Y-58388333D02*
X223468333Y-58388333D01*
X124801667Y-64388333D02*
X127468333Y-64388333D01*
X210135000Y-56055000D02*
X210135000Y-104055000D01*
X82801667Y-82388333D02*
X85468333Y-82388333D01*
X136801667Y-75055000D02*
X139468333Y-75055000D01*
X172801667Y-91055000D02*
X175468333Y-91055000D01*
X88801667Y-69055000D02*
X91468333Y-69055000D01*
X226801667Y-103055000D02*
X229468333Y-103055000D01*
X232801667Y-91055000D02*
X235468333Y-91055000D01*
X168135000Y-56055000D02*
X168135000Y-104055000D01*
X148801667Y-83721667D02*
X151468333Y-83721667D01*
X232801667Y-67055000D02*
X235468333Y-67055000D01*
X172801667Y-89721667D02*
X175468333Y-89721667D01*
X112801667Y-103055000D02*
X115468333Y-103055000D01*
X190801667Y-81055000D02*
X193468333Y-81055000D01*
X94801667Y-75055000D02*
X97468333Y-75055000D01*
X106801667Y-91055000D02*
X109468333Y-91055000D01*
X124801667Y-89721667D02*
X127468333Y-89721667D01*
X100801667Y-101721667D02*
X103468333Y-101721667D01*
X250801667Y-71721667D02*
X253468333Y-71721667D01*
X166801667Y-65721667D02*
X169468333Y-65721667D01*
X226801667Y-58388333D02*
X229468333Y-58388333D01*
X64801667Y-63055000D02*
X67468333Y-63055000D01*
X70801667Y-91055000D02*
X73468333Y-91055000D01*
X244801667Y-82388333D02*
X247468333Y-82388333D01*
X148801667Y-77721667D02*
X151468333Y-77721667D01*
X226801667Y-95721667D02*
X229468333Y-95721667D01*
X154801667Y-88388333D02*
X157468333Y-88388333D01*
X148801667Y-95721667D02*
X151468333Y-95721667D01*
X106801667Y-65721667D02*
X109468333Y-65721667D01*
X136801667Y-99055000D02*
X139468333Y-99055000D01*
X76801667Y-79055000D02*
X79468333Y-79055000D01*
X226801667Y-69055000D02*
X229468333Y-69055000D01*
X208801667Y-63055000D02*
X211468333Y-63055000D01*
X220801667Y-69055000D02*
X223468333Y-69055000D01*
X142801667Y-64388333D02*
X145468333Y-64388333D01*
X88801667Y-75055000D02*
X91468333Y-75055000D01*
X154801667Y-89721667D02*
X157468333Y-89721667D01*
X154801667Y-81055000D02*
X157468333Y-81055000D01*
X226801667Y-77721667D02*
X229468333Y-77721667D01*
X106801667Y-79055000D02*
X109468333Y-79055000D01*
X136801667Y-83721667D02*
X139468333Y-83721667D01*
X124801667Y-99055000D02*
X127468333Y-99055000D01*
X160801667Y-77721667D02*
X163468333Y-77721667D01*
X214801667Y-94388333D02*
X217468333Y-94388333D01*
X76801667Y-99055000D02*
X79468333Y-99055000D01*
X118801667Y-64388333D02*
X121468333Y-64388333D01*
X226801667Y-81055000D02*
X229468333Y-81055000D01*
X220801667Y-81055000D02*
X223468333Y-81055000D01*
X112801667Y-82388333D02*
X115468333Y-82388333D01*
X118801667Y-69055000D02*
X121468333Y-69055000D01*
X214801667Y-79055000D02*
X217468333Y-79055000D01*
X196801667Y-77721667D02*
X199468333Y-77721667D01*
X160801667Y-95721667D02*
X163468333Y-95721667D01*
X196801667Y-101721667D02*
X199468333Y-101721667D01*
X220801667Y-83721667D02*
X223468333Y-83721667D01*
X112801667Y-67055000D02*
X115468333Y-67055000D01*
X94801667Y-57055000D02*
X97468333Y-57055000D01*
X184801667Y-88388333D02*
X187468333Y-88388333D01*
X112801667Y-77721667D02*
X115468333Y-77721667D01*
X106801667Y-58388333D02*
X109468333Y-58388333D01*
X172801667Y-65721667D02*
X175468333Y-65721667D01*
X232801667Y-70388333D02*
X235468333Y-70388333D01*
X124801667Y-81055000D02*
X127468333Y-81055000D01*
X190801667Y-94388333D02*
X193468333Y-94388333D01*
X178801667Y-93055000D02*
X181468333Y-93055000D01*
X178801667Y-89721667D02*
X181468333Y-89721667D01*
X94801667Y-77721667D02*
X97468333Y-77721667D01*
X250801667Y-63055000D02*
X253468333Y-63055000D01*
X208801667Y-101721667D02*
X211468333Y-101721667D01*
X244801667Y-103055000D02*
X247468333Y-103055000D01*
X244801667Y-63055000D02*
X247468333Y-63055000D01*
X130801667Y-63055000D02*
X133468333Y-63055000D01*
X154801667Y-91055000D02*
X157468333Y-91055000D01*
X148801667Y-76388333D02*
X151468333Y-76388333D01*
X82801667Y-73055000D02*
X85468333Y-73055000D01*
X244801667Y-73055000D02*
X247468333Y-73055000D01*
X124801667Y-58388333D02*
X127468333Y-58388333D01*
X214801667Y-89721667D02*
X217468333Y-89721667D01*
X130801667Y-82388333D02*
X133468333Y-82388333D01*
X196801667Y-87055000D02*
X199468333Y-87055000D01*
X112801667Y-75055000D02*
X115468333Y-75055000D01*
X102135000Y-56055000D02*
X102135000Y-104055000D01*
X172801667Y-59721667D02*
X175468333Y-59721667D01*
X250801667Y-95721667D02*
X253468333Y-95721667D01*
X76801667Y-77721667D02*
X79468333Y-77721667D01*
X178801667Y-88388333D02*
X181468333Y-88388333D01*
X244801667Y-81055000D02*
X247468333Y-81055000D01*
X202801667Y-94388333D02*
X205468333Y-94388333D01*
X64801667Y-75055000D02*
X67468333Y-75055000D01*
X118801667Y-57055000D02*
X121468333Y-57055000D01*
X202801667Y-75055000D02*
X205468333Y-75055000D01*
X142801667Y-101721667D02*
X145468333Y-101721667D01*
X178801667Y-69055000D02*
X181468333Y-69055000D01*
X148801667Y-79055000D02*
X151468333Y-79055000D01*
X88801667Y-97055000D02*
X91468333Y-97055000D01*
X190801667Y-69055000D02*
X193468333Y-69055000D01*
X94801667Y-91055000D02*
X97468333Y-91055000D01*
X70801667Y-76388333D02*
X73468333Y-76388333D01*
X136801667Y-79055000D02*
X139468333Y-79055000D01*
X76801667Y-75055000D02*
X79468333Y-75055000D01*
X202801667Y-64388333D02*
X205468333Y-64388333D01*
X160801667Y-70388333D02*
X163468333Y-70388333D01*
X166801667Y-75055000D02*
X169468333Y-75055000D01*
X208801667Y-88388333D02*
X211468333Y-88388333D01*
X118801667Y-99055000D02*
X121468333Y-99055000D01*
X100801667Y-93055000D02*
X103468333Y-93055000D01*
X64801667Y-79055000D02*
X67468333Y-79055000D01*
X202801667Y-81055000D02*
X205468333Y-81055000D01*
X214801667Y-88388333D02*
X217468333Y-88388333D01*
X220801667Y-91055000D02*
X223468333Y-91055000D01*
X202801667Y-93055000D02*
X205468333Y-93055000D01*
X232801667Y-103055000D02*
X235468333Y-103055000D01*
X178801667Y-101721667D02*
X181468333Y-101721667D01*
X198135000Y-56055000D02*
X198135000Y-104055000D01*
X112801667Y-91055000D02*
X115468333Y-91055000D01*
X70801667Y-57055000D02*
X73468333Y-57055000D01*
X232801667Y-93055000D02*
X235468333Y-93055000D01*
X100801667Y-69055000D02*
X103468333Y-69055000D01*
X148801667Y-69055000D02*
X151468333Y-69055000D01*
X172801667Y-77721667D02*
X175468333Y-77721667D01*
X106801667Y-71721667D02*
X109468333Y-71721667D01*
X166801667Y-70388333D02*
X169468333Y-70388333D01*
X106801667Y-103055000D02*
X109468333Y-103055000D01*
X160801667Y-82388333D02*
X163468333Y-82388333D01*
X94801667Y-81055000D02*
X97468333Y-81055000D01*
X130801667Y-100388333D02*
X133468333Y-100388333D01*
X208801667Y-93055000D02*
X211468333Y-93055000D01*
X64801667Y-95721667D02*
X67468333Y-95721667D01*
X148801667Y-94388333D02*
X151468333Y-94388333D01*
X94801667Y-103055000D02*
X97468333Y-103055000D01*
X160801667Y-73055000D02*
X163468333Y-73055000D01*
X160801667Y-79055000D02*
X163468333Y-79055000D01*
X232801667Y-59721667D02*
X235468333Y-59721667D01*
X160801667Y-88388333D02*
X163468333Y-88388333D01*
X232801667Y-100388333D02*
X235468333Y-100388333D01*
X226801667Y-65721667D02*
X229468333Y-65721667D01*
X238801667Y-82388333D02*
X241468333Y-82388333D01*
X88801667Y-83721667D02*
X91468333Y-83721667D01*
X142801667Y-99055000D02*
X145468333Y-99055000D01*
X130801667Y-65721667D02*
X133468333Y-65721667D01*
X118801667Y-91055000D02*
X121468333Y-91055000D01*
X124801667Y-91055000D02*
X127468333Y-91055000D01*
X232801667Y-88388333D02*
X235468333Y-88388333D01*
X124801667Y-69055000D02*
X127468333Y-69055000D01*
X196801667Y-65721667D02*
X199468333Y-65721667D01*
X112801667Y-71721667D02*
X115468333Y-71721667D01*
X250801667Y-101721667D02*
X253468333Y-101721667D01*
X130801667Y-61055000D02*
X133468333Y-61055000D01*
X154801667Y-94388333D02*
X157468333Y-94388333D01*
X88801667Y-81055000D02*
X91468333Y-81055000D01*
X106801667Y-95721667D02*
X109468333Y-95721667D01*
X226801667Y-71721667D02*
X229468333Y-71721667D01*
X226801667Y-87055000D02*
X229468333Y-87055000D01*
X88801667Y-89721667D02*
X91468333Y-89721667D01*
X202801667Y-58388333D02*
X205468333Y-58388333D01*
X190801667Y-63055000D02*
X193468333Y-63055000D01*
X202801667Y-79055000D02*
X205468333Y-79055000D01*
X142801667Y-87055000D02*
X145468333Y-87055000D01*
X250801667Y-64388333D02*
X253468333Y-64388333D01*
X136801667Y-59721667D02*
X139468333Y-59721667D01*
X154801667Y-76388333D02*
X157468333Y-76388333D01*
X94801667Y-82388333D02*
X97468333Y-82388333D01*
X76801667Y-101721667D02*
X79468333Y-101721667D01*
X64801667Y-93055000D02*
X67468333Y-93055000D01*
X226801667Y-101721667D02*
X229468333Y-101721667D01*
X196801667Y-97055000D02*
X199468333Y-97055000D01*
X82801667Y-65721667D02*
X85468333Y-65721667D01*
X136801667Y-65721667D02*
X139468333Y-65721667D01*
X64801667Y-57055000D02*
X67468333Y-57055000D01*
X118801667Y-63055000D02*
X121468333Y-63055000D01*
X196801667Y-67055000D02*
X199468333Y-67055000D01*
X76801667Y-83721667D02*
X79468333Y-83721667D01*
X178801667Y-83721667D02*
X181468333Y-83721667D01*
X112801667Y-61055000D02*
X115468333Y-61055000D01*
X172801667Y-61055000D02*
X175468333Y-61055000D01*
X76801667Y-97055000D02*
X79468333Y-97055000D01*
X244801667Y-88388333D02*
X247468333Y-88388333D01*
X90135000Y-56055000D02*
X90135000Y-104055000D01*
X214801667Y-58388333D02*
X217468333Y-58388333D01*
X232801667Y-94388333D02*
X235468333Y-94388333D01*
X148801667Y-103055000D02*
X151468333Y-103055000D01*
X142801667Y-57055000D02*
X145468333Y-57055000D01*
X82801667Y-97055000D02*
X85468333Y-97055000D01*
X226801667Y-85055000D02*
X229468333Y-85055000D01*
X64801667Y-70388333D02*
X67468333Y-70388333D01*
X172801667Y-88388333D02*
X175468333Y-88388333D01*
X172801667Y-79055000D02*
X175468333Y-79055000D01*
X184801667Y-73055000D02*
X187468333Y-73055000D01*
X118801667Y-100388333D02*
X121468333Y-100388333D01*
X124801667Y-63055000D02*
X127468333Y-63055000D01*
X64801667Y-99055000D02*
X67468333Y-99055000D01*
X166801667Y-95721667D02*
X169468333Y-95721667D01*
X172801667Y-94388333D02*
X175468333Y-94388333D01*
X76801667Y-95721667D02*
X79468333Y-95721667D01*
X178801667Y-58388333D02*
X181468333Y-58388333D01*
X244801667Y-93055000D02*
X247468333Y-93055000D01*
X202801667Y-99055000D02*
X205468333Y-99055000D01*
X190801667Y-79055000D02*
X193468333Y-79055000D01*
X244801667Y-69055000D02*
X247468333Y-69055000D01*
X226801667Y-97055000D02*
X229468333Y-97055000D01*
X100801667Y-71721667D02*
X103468333Y-71721667D01*
X202801667Y-73055000D02*
X205468333Y-73055000D01*
X214801667Y-70388333D02*
X217468333Y-70388333D01*
X220801667Y-79055000D02*
X223468333Y-79055000D01*
X190801667Y-65721667D02*
X193468333Y-65721667D01*
X220801667Y-82388333D02*
X223468333Y-82388333D01*
X136801667Y-101721667D02*
X139468333Y-101721667D01*
X70801667Y-71721667D02*
X73468333Y-71721667D01*
X190801667Y-75055000D02*
X193468333Y-75055000D01*
X64801667Y-82388333D02*
X67468333Y-82388333D01*
X238801667Y-64388333D02*
X241468333Y-64388333D01*
X88801667Y-100388333D02*
X91468333Y-100388333D01*
X94801667Y-64388333D02*
X97468333Y-64388333D01*
X142801667Y-70388333D02*
X145468333Y-70388333D01*
X244801667Y-79055000D02*
X247468333Y-79055000D01*
X124801667Y-88388333D02*
X127468333Y-88388333D01*
X208801667Y-65721667D02*
X211468333Y-65721667D01*
X196801667Y-61055000D02*
X199468333Y-61055000D01*
X208801667Y-73055000D02*
X211468333Y-73055000D01*
X118801667Y-101721667D02*
X121468333Y-101721667D01*
X94801667Y-100388333D02*
X97468333Y-100388333D01*
X130801667Y-69055000D02*
X133468333Y-69055000D01*
X154801667Y-77721667D02*
X157468333Y-77721667D01*
X166801667Y-64388333D02*
X169468333Y-64388333D01*
X148801667Y-67055000D02*
X151468333Y-67055000D01*
X154801667Y-57055000D02*
X157468333Y-57055000D01*
X232801667Y-65721667D02*
X235468333Y-65721667D01*
X244801667Y-83721667D02*
X247468333Y-83721667D01*
X82801667Y-85055000D02*
X85468333Y-85055000D01*
X142801667Y-81055000D02*
X145468333Y-81055000D01*
X160801667Y-103055000D02*
X163468333Y-103055000D01*
X118801667Y-95721667D02*
X121468333Y-95721667D01*
X106801667Y-76388333D02*
X109468333Y-76388333D01*
X118801667Y-103055000D02*
X121468333Y-103055000D01*
X220801667Y-77721667D02*
X223468333Y-77721667D01*
X94801667Y-83721667D02*
X97468333Y-83721667D01*
X172801667Y-57055000D02*
X175468333Y-57055000D01*
X220801667Y-88388333D02*
X223468333Y-88388333D01*
X82801667Y-63055000D02*
X85468333Y-63055000D01*
X232801667Y-57055000D02*
X235468333Y-57055000D01*
X76801667Y-76388333D02*
X79468333Y-76388333D01*
X238801667Y-63055000D02*
X241468333Y-63055000D01*
X148801667Y-59721667D02*
X151468333Y-59721667D01*
X208801667Y-95721667D02*
X211468333Y-95721667D01*
X184801667Y-87055000D02*
X187468333Y-87055000D01*
X232801667Y-61055000D02*
X235468333Y-61055000D01*
X250801667Y-89721667D02*
X253468333Y-89721667D01*
X208801667Y-94388333D02*
X211468333Y-94388333D01*
X160801667Y-57055000D02*
X163468333Y-57055000D01*
X118801667Y-67055000D02*
X121468333Y-67055000D01*
X82801667Y-58388333D02*
X85468333Y-58388333D01*
X166801667Y-69055000D02*
X169468333Y-69055000D01*
X178801667Y-94388333D02*
X181468333Y-94388333D01*
X190801667Y-59721667D02*
X193468333Y-59721667D01*
X166801667Y-71721667D02*
X169468333Y-71721667D01*
X64801667Y-64388333D02*
X67468333Y-64388333D01*
X106801667Y-64388333D02*
X109468333Y-64388333D01*
X178801667Y-61055000D02*
X181468333Y-61055000D01*
X70801667Y-70388333D02*
X73468333Y-70388333D01*
X244801667Y-100388333D02*
X247468333Y-100388333D01*
X106801667Y-61055000D02*
X109468333Y-61055000D01*
X166801667Y-63055000D02*
X169468333Y-63055000D01*
X196801667Y-63055000D02*
X199468333Y-63055000D01*
X202801667Y-95721667D02*
X205468333Y-95721667D01*
X166801667Y-85055000D02*
X169468333Y-85055000D01*
X244801667Y-95721667D02*
X247468333Y-95721667D01*
X166801667Y-89721667D02*
X169468333Y-89721667D01*
X94801667Y-88388333D02*
X97468333Y-88388333D01*
X88801667Y-76388333D02*
X91468333Y-76388333D01*
X202801667Y-67055000D02*
X205468333Y-67055000D01*
X82801667Y-94388333D02*
X85468333Y-94388333D01*
X226801667Y-57055000D02*
X229468333Y-57055000D01*
X108135000Y-56055000D02*
X108135000Y-104055000D01*
X202801667Y-89721667D02*
X205468333Y-89721667D01*
X94801667Y-79055000D02*
X97468333Y-79055000D01*
X142801667Y-61055000D02*
X145468333Y-61055000D01*
X130801667Y-73055000D02*
X133468333Y-73055000D01*
X94801667Y-85055000D02*
X97468333Y-85055000D01*
X250801667Y-81055000D02*
X253468333Y-81055000D01*
X142801667Y-63055000D02*
X145468333Y-63055000D01*
X100801667Y-91055000D02*
X103468333Y-91055000D01*
X148801667Y-73055000D02*
X151468333Y-73055000D01*
X88801667Y-91055000D02*
X91468333Y-91055000D01*
X220801667Y-71721667D02*
X223468333Y-71721667D01*
X232801667Y-63055000D02*
X235468333Y-63055000D01*
X154801667Y-73055000D02*
X157468333Y-73055000D01*
X232801667Y-58388333D02*
X235468333Y-58388333D01*
X88801667Y-79055000D02*
X91468333Y-79055000D01*
X142801667Y-58388333D02*
X145468333Y-58388333D01*
X82801667Y-71721667D02*
X85468333Y-71721667D01*
X94801667Y-71721667D02*
X97468333Y-71721667D01*
X250801667Y-77721667D02*
X253468333Y-77721667D01*
X118801667Y-75055000D02*
X121468333Y-75055000D01*
X186135000Y-56055000D02*
X186135000Y-104055000D01*
X214801667Y-64388333D02*
X217468333Y-64388333D01*
X250801667Y-61055000D02*
X253468333Y-61055000D01*
X166801667Y-59721667D02*
X169468333Y-59721667D01*
X70801667Y-64388333D02*
X73468333Y-64388333D01*
X250801667Y-103055000D02*
X253468333Y-103055000D01*
X70801667Y-94388333D02*
X73468333Y-94388333D01*
X232801667Y-89721667D02*
X235468333Y-89721667D01*
X64801667Y-77721667D02*
X67468333Y-77721667D01*
X214801667Y-63055000D02*
X217468333Y-63055000D01*
X148801667Y-82388333D02*
X151468333Y-82388333D01*
X130801667Y-87055000D02*
X133468333Y-87055000D01*
X190801667Y-71721667D02*
X193468333Y-71721667D01*
X184801667Y-77721667D02*
X187468333Y-77721667D01*
X172801667Y-63055000D02*
X175468333Y-63055000D01*
X220801667Y-97055000D02*
X223468333Y-97055000D01*
X160801667Y-71721667D02*
X163468333Y-71721667D01*
X238801667Y-94388333D02*
X241468333Y-94388333D01*
X214801667Y-83721667D02*
X217468333Y-83721667D01*
X106801667Y-97055000D02*
X109468333Y-97055000D01*
X100801667Y-83721667D02*
X103468333Y-83721667D01*
X76801667Y-64388333D02*
X79468333Y-64388333D01*
X226801667Y-100388333D02*
X229468333Y-100388333D01*
X106801667Y-83721667D02*
X109468333Y-83721667D01*
X130801667Y-91055000D02*
X133468333Y-91055000D01*
X214801667Y-93055000D02*
X217468333Y-93055000D01*
X82801667Y-64388333D02*
X85468333Y-64388333D01*
X172801667Y-67055000D02*
X175468333Y-67055000D01*
X124801667Y-103055000D02*
X127468333Y-103055000D01*
X64801667Y-100388333D02*
X67468333Y-100388333D01*
X214801667Y-91055000D02*
X217468333Y-91055000D01*
X196801667Y-76388333D02*
X199468333Y-76388333D01*
X250801667Y-93055000D02*
X253468333Y-93055000D01*
X118801667Y-93055000D02*
X121468333Y-93055000D01*
X70801667Y-75055000D02*
X73468333Y-75055000D01*
X178801667Y-81055000D02*
X181468333Y-81055000D01*
X100801667Y-97055000D02*
X103468333Y-97055000D01*
X82801667Y-61055000D02*
X85468333Y-61055000D01*
X88801667Y-93055000D02*
X91468333Y-93055000D01*
X70801667Y-88388333D02*
X73468333Y-88388333D01*
X232801667Y-77721667D02*
X235468333Y-77721667D01*
X190801667Y-57055000D02*
X193468333Y-57055000D01*
X184801667Y-69055000D02*
X187468333Y-69055000D01*
X232801667Y-101721667D02*
X235468333Y-101721667D01*
X220801667Y-89721667D02*
X223468333Y-89721667D01*
X208801667Y-82388333D02*
X211468333Y-82388333D01*
X94801667Y-95721667D02*
X97468333Y-95721667D01*
X94801667Y-69055000D02*
X97468333Y-69055000D01*
X112801667Y-87055000D02*
X115468333Y-87055000D01*
X100801667Y-82388333D02*
X103468333Y-82388333D01*
X178801667Y-75055000D02*
X181468333Y-75055000D01*
X226801667Y-91055000D02*
X229468333Y-91055000D01*
X202801667Y-82388333D02*
X205468333Y-82388333D01*
X88801667Y-58388333D02*
X91468333Y-58388333D01*
X82801667Y-103055000D02*
X85468333Y-103055000D01*
X100801667Y-64388333D02*
X103468333Y-64388333D01*
X196801667Y-103055000D02*
X199468333Y-103055000D01*
X88801667Y-101721667D02*
X91468333Y-101721667D01*
X214801667Y-85055000D02*
X217468333Y-85055000D01*
X214801667Y-71721667D02*
X217468333Y-71721667D01*
X148801667Y-65721667D02*
X151468333Y-65721667D01*
X112801667Y-99055000D02*
X115468333Y-99055000D01*
X100801667Y-79055000D02*
X103468333Y-79055000D01*
X148801667Y-75055000D02*
X151468333Y-75055000D01*
X202801667Y-85055000D02*
X205468333Y-85055000D01*
X202801667Y-83721667D02*
X205468333Y-83721667D01*
X214801667Y-82388333D02*
X217468333Y-82388333D01*
X106801667Y-87055000D02*
X109468333Y-87055000D01*
X220801667Y-85055000D02*
X223468333Y-85055000D01*
X100801667Y-77721667D02*
X103468333Y-77721667D01*
X238801667Y-73055000D02*
X241468333Y-73055000D01*
X64801667Y-101721667D02*
X67468333Y-101721667D01*
X208801667Y-79055000D02*
X211468333Y-79055000D01*
X136801667Y-87055000D02*
X139468333Y-87055000D01*
X172801667Y-82388333D02*
X175468333Y-82388333D01*
X238801667Y-85055000D02*
X241468333Y-85055000D01*
X136801667Y-103055000D02*
X139468333Y-103055000D01*
X214801667Y-100388333D02*
X217468333Y-100388333D01*
X76801667Y-89721667D02*
X79468333Y-89721667D01*
X124801667Y-83721667D02*
X127468333Y-83721667D01*
X208801667Y-100388333D02*
X211468333Y-100388333D01*
X172801667Y-81055000D02*
X175468333Y-81055000D01*
X70801667Y-67055000D02*
X73468333Y-67055000D01*
X84135000Y-56055000D02*
X84135000Y-104055000D01*
X154801667Y-101721667D02*
X157468333Y-101721667D01*
X100801667Y-87055000D02*
X103468333Y-87055000D01*
X238801667Y-88388333D02*
X241468333Y-88388333D01*
X82801667Y-76388333D02*
X85468333Y-76388333D01*
X136801667Y-71721667D02*
X139468333Y-71721667D01*
X214801667Y-95721667D02*
X217468333Y-95721667D01*
X196801667Y-73055000D02*
X199468333Y-73055000D01*
X136801667Y-81055000D02*
X139468333Y-81055000D01*
X154801667Y-93055000D02*
X157468333Y-93055000D01*
X70801667Y-59721667D02*
X73468333Y-59721667D01*
X160801667Y-89721667D02*
X163468333Y-89721667D01*
X220801667Y-61055000D02*
X223468333Y-61055000D01*
X112801667Y-88388333D02*
X115468333Y-88388333D01*
X178801667Y-73055000D02*
X181468333Y-73055000D01*
X148801667Y-91055000D02*
X151468333Y-91055000D01*
X166801667Y-81055000D02*
X169468333Y-81055000D01*
X142801667Y-69055000D02*
X145468333Y-69055000D01*
X184801667Y-91055000D02*
X187468333Y-91055000D01*
X184801667Y-71721667D02*
X187468333Y-71721667D01*
X64801667Y-97055000D02*
X67468333Y-97055000D01*
X172801667Y-100388333D02*
X175468333Y-100388333D01*
X64801667Y-88388333D02*
X67468333Y-88388333D01*
X196801667Y-82388333D02*
X199468333Y-82388333D01*
X178801667Y-64388333D02*
X181468333Y-64388333D01*
X88801667Y-87055000D02*
X91468333Y-87055000D01*
X202801667Y-76388333D02*
X205468333Y-76388333D01*
X64801667Y-73055000D02*
X67468333Y-73055000D01*
X106801667Y-69055000D02*
X109468333Y-69055000D01*
X190801667Y-64388333D02*
X193468333Y-64388333D01*
X148801667Y-63055000D02*
X151468333Y-63055000D01*
X100801667Y-63055000D02*
X103468333Y-63055000D01*
X178801667Y-70388333D02*
X181468333Y-70388333D01*
X70801667Y-97055000D02*
X73468333Y-97055000D01*
X154801667Y-82388333D02*
X157468333Y-82388333D01*
X142801667Y-77721667D02*
X145468333Y-77721667D01*
X118801667Y-79055000D02*
X121468333Y-79055000D01*
X156135000Y-56055000D02*
X156135000Y-104055000D01*
X100801667Y-103055000D02*
X103468333Y-103055000D01*
X76801667Y-59721667D02*
X79468333Y-59721667D01*
X208801667Y-70388333D02*
X211468333Y-70388333D01*
X172801667Y-97055000D02*
X175468333Y-97055000D01*
X160801667Y-99055000D02*
X163468333Y-99055000D01*
X220801667Y-100388333D02*
X223468333Y-100388333D01*
X208801667Y-81055000D02*
X211468333Y-81055000D01*
X232801667Y-75055000D02*
X235468333Y-75055000D01*
X112801667Y-65721667D02*
X115468333Y-65721667D01*
X190801667Y-101721667D02*
X193468333Y-101721667D01*
X112801667Y-101721667D02*
X115468333Y-101721667D01*
X118801667Y-94388333D02*
X121468333Y-94388333D01*
X148801667Y-81055000D02*
X151468333Y-81055000D01*
X142801667Y-93055000D02*
X145468333Y-93055000D01*
X82801667Y-77721667D02*
X85468333Y-77721667D01*
X178801667Y-76388333D02*
X181468333Y-76388333D01*
X178801667Y-65721667D02*
X181468333Y-65721667D01*
X82801667Y-83721667D02*
X85468333Y-83721667D01*
X160801667Y-83721667D02*
X163468333Y-83721667D01*
X130801667Y-103055000D02*
X133468333Y-103055000D01*
X160801667Y-67055000D02*
X163468333Y-67055000D01*
X166801667Y-57055000D02*
X169468333Y-57055000D01*
X130801667Y-97055000D02*
X133468333Y-97055000D01*
X100801667Y-76388333D02*
X103468333Y-76388333D01*
X202801667Y-103055000D02*
X205468333Y-103055000D01*
X250801667Y-76388333D02*
X253468333Y-76388333D01*
X130801667Y-88388333D02*
X133468333Y-88388333D01*
X154801667Y-85055000D02*
X157468333Y-85055000D01*
X106801667Y-85055000D02*
X109468333Y-85055000D01*
X172801667Y-69055000D02*
X175468333Y-69055000D01*
X76801667Y-91055000D02*
X79468333Y-91055000D01*
X190801667Y-89721667D02*
X193468333Y-89721667D01*
X190801667Y-95721667D02*
X193468333Y-95721667D01*
X82801667Y-91055000D02*
X85468333Y-91055000D01*
X82801667Y-69055000D02*
X85468333Y-69055000D01*
X118801667Y-85055000D02*
X121468333Y-85055000D01*
X166801667Y-94388333D02*
X169468333Y-94388333D01*
X100801667Y-81055000D02*
X103468333Y-81055000D01*
X82801667Y-70388333D02*
X85468333Y-70388333D01*
X76801667Y-57055000D02*
X79468333Y-57055000D01*
X106801667Y-57055000D02*
X109468333Y-57055000D01*
X154801667Y-69055000D02*
X157468333Y-69055000D01*
X178801667Y-103055000D02*
X181468333Y-103055000D01*
X112801667Y-81055000D02*
X115468333Y-81055000D01*
X94801667Y-65721667D02*
X97468333Y-65721667D01*
X172801667Y-101721667D02*
X175468333Y-101721667D01*
X250801667Y-88388333D02*
X253468333Y-88388333D01*
X220801667Y-65721667D02*
X223468333Y-65721667D01*
X124801667Y-77721667D02*
X127468333Y-77721667D01*
X88801667Y-61055000D02*
X91468333Y-61055000D01*
X154801667Y-95721667D02*
X157468333Y-95721667D01*
X130801667Y-85055000D02*
X133468333Y-85055000D01*
X216135000Y-56055000D02*
X216135000Y-104055000D01*
X82801667Y-81055000D02*
X85468333Y-81055000D01*
X238801667Y-89721667D02*
X241468333Y-89721667D01*
X124801667Y-67055000D02*
X127468333Y-67055000D01*
X70801667Y-63055000D02*
X73468333Y-63055000D01*
X226801667Y-73055000D02*
X229468333Y-73055000D01*
X190801667Y-70388333D02*
X193468333Y-70388333D01*
X124801667Y-85055000D02*
X127468333Y-85055000D01*
X106801667Y-81055000D02*
X109468333Y-81055000D01*
X76801667Y-71721667D02*
X79468333Y-71721667D01*
X166801667Y-77721667D02*
X169468333Y-77721667D01*
X82801667Y-75055000D02*
X85468333Y-75055000D01*
X70801667Y-95721667D02*
X73468333Y-95721667D01*
X166801667Y-79055000D02*
X169468333Y-79055000D01*
X196801667Y-71721667D02*
X199468333Y-71721667D01*
X150135000Y-56055000D02*
X150135000Y-104055000D01*
X88801667Y-57055000D02*
X91468333Y-57055000D01*
X124801667Y-70388333D02*
X127468333Y-70388333D01*
X238801667Y-59721667D02*
X241468333Y-59721667D01*
X138135000Y-56055000D02*
X138135000Y-104055000D01*
X244801667Y-75055000D02*
X247468333Y-75055000D01*
X178801667Y-82388333D02*
X181468333Y-82388333D01*
X178801667Y-57055000D02*
X181468333Y-57055000D01*
X202801667Y-57055000D02*
X205468333Y-57055000D01*
X238801667Y-103055000D02*
X241468333Y-103055000D01*
X208801667Y-99055000D02*
X211468333Y-99055000D01*
X196801667Y-85055000D02*
X199468333Y-85055000D01*
X160801667Y-81055000D02*
X163468333Y-81055000D01*
X70801667Y-65721667D02*
X73468333Y-65721667D01*
X244801667Y-94388333D02*
X247468333Y-94388333D01*
X190801667Y-77721667D02*
X193468333Y-77721667D01*
X226801667Y-75055000D02*
X229468333Y-75055000D01*
X130801667Y-58388333D02*
X133468333Y-58388333D01*
X76801667Y-73055000D02*
X79468333Y-73055000D01*
X82801667Y-101721667D02*
X85468333Y-101721667D01*
X244801667Y-87055000D02*
X247468333Y-87055000D01*
X244801667Y-99055000D02*
X247468333Y-99055000D01*
X118801667Y-97055000D02*
X121468333Y-97055000D01*
X112801667Y-83721667D02*
X115468333Y-83721667D01*
X220801667Y-101721667D02*
X223468333Y-101721667D01*
X244801667Y-67055000D02*
X247468333Y-67055000D01*
X184801667Y-61055000D02*
X187468333Y-61055000D01*
X76801667Y-88388333D02*
X79468333Y-88388333D01*
X226801667Y-94388333D02*
X229468333Y-94388333D01*
X154801667Y-75055000D02*
X157468333Y-75055000D01*
X178801667Y-87055000D02*
X181468333Y-87055000D01*
X64801667Y-69055000D02*
X67468333Y-69055000D01*
X88801667Y-71721667D02*
X91468333Y-71721667D01*
X172801667Y-99055000D02*
X175468333Y-99055000D01*
X202801667Y-100388333D02*
X205468333Y-100388333D01*
X166801667Y-61055000D02*
X169468333Y-61055000D01*
X196801667Y-69055000D02*
X199468333Y-69055000D01*
X226801667Y-88388333D02*
X229468333Y-88388333D01*
X226801667Y-79055000D02*
X229468333Y-79055000D01*
X226801667Y-70388333D02*
X229468333Y-70388333D01*
X166801667Y-97055000D02*
X169468333Y-97055000D01*
X76801667Y-69055000D02*
X79468333Y-69055000D01*
X166801667Y-91055000D02*
X169468333Y-91055000D01*
X208801667Y-58388333D02*
X211468333Y-58388333D01*
X136801667Y-95721667D02*
X139468333Y-95721667D01*
X106801667Y-75055000D02*
X109468333Y-75055000D01*
X70801667Y-83721667D02*
X73468333Y-83721667D01*
X250801667Y-69055000D02*
X253468333Y-69055000D01*
X184801667Y-57055000D02*
X187468333Y-57055000D01*
X106801667Y-100388333D02*
X109468333Y-100388333D01*
X118801667Y-61055000D02*
X121468333Y-61055000D01*
X112801667Y-79055000D02*
X115468333Y-79055000D01*
X136801667Y-67055000D02*
X139468333Y-67055000D01*
X238801667Y-83721667D02*
X241468333Y-83721667D01*
X232801667Y-64388333D02*
X235468333Y-64388333D01*
X118801667Y-82388333D02*
X121468333Y-82388333D01*
X190801667Y-73055000D02*
X193468333Y-73055000D01*
X94801667Y-58388333D02*
X97468333Y-58388333D01*
X148801667Y-70388333D02*
X151468333Y-70388333D01*
X118801667Y-58388333D02*
X121468333Y-58388333D01*
X214801667Y-97055000D02*
X217468333Y-97055000D01*
X196801667Y-57055000D02*
X199468333Y-57055000D01*
X238801667Y-101721667D02*
X241468333Y-101721667D01*
X88801667Y-70388333D02*
X91468333Y-70388333D01*
X184801667Y-83721667D02*
X187468333Y-83721667D01*
X118801667Y-89721667D02*
X121468333Y-89721667D01*
X232801667Y-83721667D02*
X235468333Y-83721667D01*
X250801667Y-99055000D02*
X253468333Y-99055000D01*
X244801667Y-89721667D02*
X247468333Y-89721667D01*
X232801667Y-99055000D02*
X235468333Y-99055000D01*
X214801667Y-103055000D02*
X217468333Y-103055000D01*
X124801667Y-94388333D02*
X127468333Y-94388333D01*
X244801667Y-97055000D02*
X247468333Y-97055000D01*
X94801667Y-101721667D02*
X97468333Y-101721667D01*
X246135000Y-56055000D02*
X246135000Y-104055000D01*
X166801667Y-73055000D02*
X169468333Y-73055000D01*
X244801667Y-59721667D02*
X247468333Y-59721667D01*
X94801667Y-93055000D02*
X97468333Y-93055000D01*
X130801667Y-83721667D02*
X133468333Y-83721667D01*
X154801667Y-63055000D02*
X157468333Y-63055000D01*
X106801667Y-63055000D02*
X109468333Y-63055000D01*
X214801667Y-75055000D02*
X217468333Y-75055000D01*
X142801667Y-59721667D02*
X145468333Y-59721667D01*
X148801667Y-89721667D02*
X151468333Y-89721667D01*
X88801667Y-95721667D02*
X91468333Y-95721667D01*
X214801667Y-101721667D02*
X217468333Y-101721667D01*
X214801667Y-99055000D02*
X217468333Y-99055000D01*
X238801667Y-79055000D02*
X241468333Y-79055000D01*
X88801667Y-82388333D02*
X91468333Y-82388333D01*
X244801667Y-61055000D02*
X247468333Y-61055000D01*
X184801667Y-82388333D02*
X187468333Y-82388333D01*
X70801667Y-85055000D02*
X73468333Y-85055000D01*
X88801667Y-67055000D02*
X91468333Y-67055000D01*
X130801667Y-76388333D02*
X133468333Y-76388333D01*
X114135000Y-56055000D02*
X114135000Y-104055000D01*
X70801667Y-93055000D02*
X73468333Y-93055000D01*
X112801667Y-76388333D02*
X115468333Y-76388333D01*
X124801667Y-97055000D02*
X127468333Y-97055000D01*
X64801667Y-71721667D02*
X67468333Y-71721667D01*
X196801667Y-64388333D02*
X199468333Y-64388333D01*
X70801667Y-99055000D02*
X73468333Y-99055000D01*
X196801667Y-88388333D02*
X199468333Y-88388333D01*
X112801667Y-94388333D02*
X115468333Y-94388333D01*
X238801667Y-91055000D02*
X241468333Y-91055000D01*
X178801667Y-71721667D02*
X181468333Y-71721667D01*
X88801667Y-65721667D02*
X91468333Y-65721667D01*
X178801667Y-67055000D02*
X181468333Y-67055000D01*
X118801667Y-83721667D02*
X121468333Y-83721667D01*
X148801667Y-71721667D02*
X151468333Y-71721667D01*
X154801667Y-97055000D02*
X157468333Y-97055000D01*
X112801667Y-100388333D02*
X115468333Y-100388333D01*
X208801667Y-71721667D02*
X211468333Y-71721667D01*
X220801667Y-59721667D02*
X223468333Y-59721667D01*
X136801667Y-89721667D02*
X139468333Y-89721667D01*
X226801667Y-99055000D02*
X229468333Y-99055000D01*
X250801667Y-65721667D02*
X253468333Y-65721667D01*
X208801667Y-77721667D02*
X211468333Y-77721667D01*
X142801667Y-85055000D02*
X145468333Y-85055000D01*
X130801667Y-59721667D02*
X133468333Y-59721667D01*
X172801667Y-87055000D02*
X175468333Y-87055000D01*
X208801667Y-61055000D02*
X211468333Y-61055000D01*
X208801667Y-87055000D02*
X211468333Y-87055000D01*
X196801667Y-83721667D02*
X199468333Y-83721667D01*
X214801667Y-69055000D02*
X217468333Y-69055000D01*
X136801667Y-97055000D02*
X139468333Y-97055000D01*
M02*
