G04 #@! TF.GenerationSoftware,KiCad,Pcbnew,6.0.8+dfsg-1~bpo11+1*
G04 #@! TF.CreationDate,2023-05-30T16:57:20-04:00*
G04 #@! TF.ProjectId,09_padded_high_res_tight,30395f70-6164-4646-9564-5f686967685f,rev?*
G04 #@! TF.SameCoordinates,Original*
G04 #@! TF.FileFunction,Copper,L2,Bot*
G04 #@! TF.FilePolarity,Positive*
%FSLAX46Y46*%
G04 Gerber Fmt 4.6, Leading zero omitted, Abs format (unit mm)*
G04 Created by KiCad (PCBNEW 6.0.8+dfsg-1~bpo11+1) date 2023-05-30 16:57:20*
%MOMM*%
%LPD*%
G01*
G04 APERTURE LIST*
G04 #@! TA.AperFunction,SMDPad,CuDef*
%ADD10R,1.200000X0.600000*%
G04 #@! TD*
G04 #@! TA.AperFunction,SMDPad,CuDef*
%ADD11R,1.400000X0.800000*%
G04 #@! TD*
G04 #@! TA.AperFunction,ViaPad*
%ADD12C,0.400000*%
G04 #@! TD*
G04 #@! TA.AperFunction,Conductor*
%ADD13C,0.127000*%
G04 #@! TD*
G04 APERTURE END LIST*
D10*
X263090000Y-81540000D03*
X260190000Y-82040000D03*
X263090000Y-82540000D03*
X260190000Y-83040000D03*
X263090000Y-83540000D03*
X260190000Y-84040000D03*
X263090000Y-84540000D03*
X260190000Y-85040000D03*
D11*
X262990000Y-80540000D03*
X260290000Y-80540000D03*
X262990000Y-86040000D03*
X260290000Y-86040000D03*
D10*
X53490000Y-62070000D03*
X50590000Y-62570000D03*
X53490000Y-63070000D03*
X50590000Y-63570000D03*
X53490000Y-64070000D03*
X50590000Y-64570000D03*
X53490000Y-65070000D03*
X50590000Y-65570000D03*
X53490000Y-66070000D03*
X50590000Y-66570000D03*
X53490000Y-67070000D03*
X50590000Y-67570000D03*
X53490000Y-68070000D03*
X50590000Y-68570000D03*
X53490000Y-69070000D03*
X50590000Y-69570000D03*
X53490000Y-70070000D03*
X50590000Y-70570000D03*
X53490000Y-71070000D03*
X50590000Y-71570000D03*
X53490000Y-72070000D03*
X50590000Y-72570000D03*
X53490000Y-73070000D03*
X50590000Y-73570000D03*
X53490000Y-74070000D03*
X50590000Y-74570000D03*
X53490000Y-75070000D03*
X50590000Y-75570000D03*
X53490000Y-76070000D03*
X50590000Y-76570000D03*
X53490000Y-77070000D03*
X50590000Y-77570000D03*
D11*
X53390000Y-61070000D03*
X50690000Y-61070000D03*
X53390000Y-78570000D03*
X50690000Y-78570000D03*
D10*
X50560000Y-99160000D03*
X53460000Y-98660000D03*
X50560000Y-98160000D03*
X53460000Y-97660000D03*
X50560000Y-97160000D03*
X53460000Y-96660000D03*
X50560000Y-96160000D03*
X53460000Y-95660000D03*
X50560000Y-95160000D03*
X53460000Y-94660000D03*
X50560000Y-94160000D03*
X53460000Y-93660000D03*
X50560000Y-93160000D03*
X53460000Y-92660000D03*
X50560000Y-92160000D03*
X53460000Y-91660000D03*
X50560000Y-91160000D03*
X53460000Y-90660000D03*
X50560000Y-90160000D03*
X53460000Y-89660000D03*
X50560000Y-89160000D03*
X53460000Y-88660000D03*
X50560000Y-88160000D03*
X53460000Y-87660000D03*
X50560000Y-87160000D03*
X53460000Y-86660000D03*
X50560000Y-86160000D03*
X53460000Y-85660000D03*
X50560000Y-85160000D03*
X53460000Y-84660000D03*
X50560000Y-84160000D03*
X53460000Y-83660000D03*
D11*
X50660000Y-100160000D03*
X53360000Y-100160000D03*
X50660000Y-82660000D03*
X53360000Y-82660000D03*
D10*
X262990000Y-68890000D03*
X260090000Y-69390000D03*
X262990000Y-69890000D03*
X260090000Y-70390000D03*
X262990000Y-70890000D03*
X260090000Y-71390000D03*
X262990000Y-71890000D03*
X260090000Y-72390000D03*
D11*
X262890000Y-67890000D03*
X260190000Y-67890000D03*
X262890000Y-73390000D03*
X260190000Y-73390000D03*
D12*
X254300000Y-102510000D03*
X251980000Y-102490000D03*
X251300000Y-102510000D03*
X248980000Y-102490000D03*
X248300000Y-102510000D03*
X245980000Y-102490000D03*
X245300000Y-102510000D03*
X242980000Y-102490000D03*
X242300000Y-102510000D03*
X239980000Y-102490000D03*
X239300000Y-102510000D03*
X236980000Y-102490000D03*
X236300000Y-102510000D03*
X233980000Y-102490000D03*
X233300000Y-102510000D03*
X230980000Y-102490000D03*
X230300000Y-102510000D03*
X227980000Y-102490000D03*
X227300000Y-102510000D03*
X224980000Y-102490000D03*
X224300000Y-102510000D03*
X221980000Y-102490000D03*
X221300000Y-102510000D03*
X218980000Y-102490000D03*
X218300000Y-102510000D03*
X215980000Y-102490000D03*
X215300000Y-102510000D03*
X212980000Y-102490000D03*
X212300000Y-102510000D03*
X209980000Y-102490000D03*
X209300000Y-102510000D03*
X206980000Y-102490000D03*
X206300000Y-102510000D03*
X203980000Y-102490000D03*
X203300000Y-102510000D03*
X200980000Y-102490000D03*
X200300000Y-102510000D03*
X197980000Y-102490000D03*
X197300000Y-102510000D03*
X194980000Y-102490000D03*
X194300000Y-102510000D03*
X191980000Y-102490000D03*
X191300000Y-102510000D03*
X188980000Y-102490000D03*
X188300000Y-102510000D03*
X185980000Y-102490000D03*
X185300000Y-102510000D03*
X182980000Y-102490000D03*
X182300000Y-102510000D03*
X179980000Y-102490000D03*
X179300000Y-102510000D03*
X176980000Y-102490000D03*
X176300000Y-102510000D03*
X173980000Y-102490000D03*
X173300000Y-102510000D03*
X170980000Y-102490000D03*
X170300000Y-102510000D03*
X167980000Y-102490000D03*
X167300000Y-102510000D03*
X164980000Y-102490000D03*
X164300000Y-102510000D03*
X161980000Y-102490000D03*
X161300000Y-102510000D03*
X158980000Y-102490000D03*
X158300000Y-102510000D03*
X155980000Y-102490000D03*
X155300000Y-102510000D03*
X152980000Y-102490000D03*
X152300000Y-102510000D03*
X149980000Y-102490000D03*
X149300000Y-102510000D03*
X146980000Y-102490000D03*
X146300000Y-102510000D03*
X143980000Y-102490000D03*
X143300000Y-102510000D03*
X140980000Y-102490000D03*
X140300000Y-102510000D03*
X137980000Y-102490000D03*
X137300000Y-102510000D03*
X134980000Y-102490000D03*
X134300000Y-102510000D03*
X131980000Y-102490000D03*
X131300000Y-102510000D03*
X128980000Y-102490000D03*
X128300000Y-102510000D03*
X125980000Y-102490000D03*
X125300000Y-102510000D03*
X122980000Y-102490000D03*
X122300000Y-102510000D03*
X119980000Y-102490000D03*
X119300000Y-102510000D03*
X116980000Y-102490000D03*
X116300000Y-102510000D03*
X113980000Y-102490000D03*
X113300000Y-102510000D03*
X110980000Y-102490000D03*
X110300000Y-102510000D03*
X107980000Y-102490000D03*
X107300000Y-102510000D03*
X104980000Y-102490000D03*
X104300000Y-102510000D03*
X101980000Y-102490000D03*
X101300000Y-102510000D03*
X98980000Y-102490000D03*
X98300000Y-102510000D03*
X95980000Y-102490000D03*
X95300000Y-102510000D03*
X92980000Y-102490000D03*
X92300000Y-102510000D03*
X89980000Y-102490000D03*
X89300000Y-102510000D03*
X86980000Y-102490000D03*
X86300000Y-102510000D03*
X83980000Y-102490000D03*
X83300000Y-102510000D03*
X80980000Y-102490000D03*
X80300000Y-102510000D03*
X77980000Y-102490000D03*
X77300000Y-102510000D03*
X74980000Y-102490000D03*
X74300000Y-102510000D03*
X71980000Y-102490000D03*
X71300000Y-102510000D03*
X68980000Y-102490000D03*
X68300000Y-102510000D03*
X65980000Y-102490000D03*
X65300000Y-102510000D03*
X62980000Y-102490000D03*
X254300000Y-99510000D03*
X251980000Y-99490000D03*
X251300000Y-99510000D03*
X248980000Y-99490000D03*
X248300000Y-99510000D03*
X245980000Y-99490000D03*
X245300000Y-99510000D03*
X242980000Y-99490000D03*
X242300000Y-99510000D03*
X239980000Y-99490000D03*
X239300000Y-99510000D03*
X236980000Y-99490000D03*
X236300000Y-99510000D03*
X233980000Y-99490000D03*
X233300000Y-99510000D03*
X230980000Y-99490000D03*
X230300000Y-99510000D03*
X227980000Y-99490000D03*
X227300000Y-99510000D03*
X224980000Y-99490000D03*
X224300000Y-99510000D03*
X221980000Y-99490000D03*
X221300000Y-99510000D03*
X218980000Y-99490000D03*
X218300000Y-99510000D03*
X215980000Y-99490000D03*
X215300000Y-99510000D03*
X212980000Y-99490000D03*
X212300000Y-99510000D03*
X209980000Y-99490000D03*
X209300000Y-99510000D03*
X206980000Y-99490000D03*
X206300000Y-99510000D03*
X203980000Y-99490000D03*
X203300000Y-99510000D03*
X200980000Y-99490000D03*
X200300000Y-99510000D03*
X197980000Y-99490000D03*
X197300000Y-99510000D03*
X194980000Y-99490000D03*
X194300000Y-99510000D03*
X191980000Y-99490000D03*
X191300000Y-99510000D03*
X188980000Y-99490000D03*
X188300000Y-99510000D03*
X185980000Y-99490000D03*
X185300000Y-99510000D03*
X182980000Y-99490000D03*
X182300000Y-99510000D03*
X179980000Y-99490000D03*
X179300000Y-99510000D03*
X176980000Y-99490000D03*
X176300000Y-99510000D03*
X173980000Y-99490000D03*
X173300000Y-99510000D03*
X170980000Y-99490000D03*
X170300000Y-99510000D03*
X167980000Y-99490000D03*
X167300000Y-99510000D03*
X164980000Y-99490000D03*
X164300000Y-99510000D03*
X161980000Y-99490000D03*
X161300000Y-99510000D03*
X158980000Y-99490000D03*
X158300000Y-99510000D03*
X155980000Y-99490000D03*
X155300000Y-99510000D03*
X152980000Y-99490000D03*
X152300000Y-99510000D03*
X149980000Y-99490000D03*
X149300000Y-99510000D03*
X146980000Y-99490000D03*
X146300000Y-99510000D03*
X143980000Y-99490000D03*
X143300000Y-99510000D03*
X140980000Y-99490000D03*
X140300000Y-99510000D03*
X137980000Y-99490000D03*
X137300000Y-99510000D03*
X134980000Y-99490000D03*
X134300000Y-99510000D03*
X131980000Y-99490000D03*
X131300000Y-99510000D03*
X128980000Y-99490000D03*
X128300000Y-99510000D03*
X125980000Y-99490000D03*
X125300000Y-99510000D03*
X122980000Y-99490000D03*
X122300000Y-99510000D03*
X119980000Y-99490000D03*
X119300000Y-99510000D03*
X116980000Y-99490000D03*
X116300000Y-99510000D03*
X113980000Y-99490000D03*
X113300000Y-99510000D03*
X110980000Y-99490000D03*
X110300000Y-99510000D03*
X107980000Y-99490000D03*
X107300000Y-99510000D03*
X104980000Y-99490000D03*
X104300000Y-99510000D03*
X101980000Y-99490000D03*
X101300000Y-99510000D03*
X98980000Y-99490000D03*
X98300000Y-99510000D03*
X95980000Y-99490000D03*
X95300000Y-99510000D03*
X92980000Y-99490000D03*
X92300000Y-99510000D03*
X89980000Y-99490000D03*
X89300000Y-99510000D03*
X86980000Y-99490000D03*
X86300000Y-99510000D03*
X83980000Y-99490000D03*
X83300000Y-99510000D03*
X80980000Y-99490000D03*
X80300000Y-99510000D03*
X77980000Y-99490000D03*
X77300000Y-99510000D03*
X74980000Y-99490000D03*
X74300000Y-99510000D03*
X71980000Y-99490000D03*
X71300000Y-99510000D03*
X68980000Y-99490000D03*
X68300000Y-99510000D03*
X65980000Y-99490000D03*
X65300000Y-99510000D03*
X62980000Y-99490000D03*
X254300000Y-96510000D03*
X251980000Y-96490000D03*
X251300000Y-96510000D03*
X248980000Y-96490000D03*
X248300000Y-96510000D03*
X245980000Y-96490000D03*
X245300000Y-96510000D03*
X242980000Y-96490000D03*
X242300000Y-96510000D03*
X239980000Y-96490000D03*
X239300000Y-96510000D03*
X236980000Y-96490000D03*
X236300000Y-96510000D03*
X233980000Y-96490000D03*
X233300000Y-96510000D03*
X230980000Y-96490000D03*
X230300000Y-96510000D03*
X227980000Y-96490000D03*
X227300000Y-96510000D03*
X224980000Y-96490000D03*
X224300000Y-96510000D03*
X221980000Y-96490000D03*
X221300000Y-96510000D03*
X218980000Y-96490000D03*
X218300000Y-96510000D03*
X215980000Y-96490000D03*
X215300000Y-96510000D03*
X212980000Y-96490000D03*
X212300000Y-96510000D03*
X209980000Y-96490000D03*
X209300000Y-96510000D03*
X206980000Y-96490000D03*
X206300000Y-96510000D03*
X203980000Y-96490000D03*
X203300000Y-96510000D03*
X200980000Y-96490000D03*
X200300000Y-96510000D03*
X197980000Y-96490000D03*
X197300000Y-96510000D03*
X194980000Y-96490000D03*
X194300000Y-96510000D03*
X191980000Y-96490000D03*
X191300000Y-96510000D03*
X188980000Y-96490000D03*
X188300000Y-96510000D03*
X185980000Y-96490000D03*
X185300000Y-96510000D03*
X182980000Y-96490000D03*
X182300000Y-96510000D03*
X179980000Y-96490000D03*
X179300000Y-96510000D03*
X176980000Y-96490000D03*
X176300000Y-96510000D03*
X173980000Y-96490000D03*
X173300000Y-96510000D03*
X170980000Y-96490000D03*
X170300000Y-96510000D03*
X167980000Y-96490000D03*
X167300000Y-96510000D03*
X164980000Y-96490000D03*
X164300000Y-96510000D03*
X161980000Y-96490000D03*
X161300000Y-96510000D03*
X158980000Y-96490000D03*
X158300000Y-96510000D03*
X155980000Y-96490000D03*
X155300000Y-96510000D03*
X152980000Y-96490000D03*
X152300000Y-96510000D03*
X149980000Y-96490000D03*
X149300000Y-96510000D03*
X146980000Y-96490000D03*
X146300000Y-96510000D03*
X143980000Y-96490000D03*
X143300000Y-96510000D03*
X140980000Y-96490000D03*
X140300000Y-96510000D03*
X137980000Y-96490000D03*
X137300000Y-96510000D03*
X134980000Y-96490000D03*
X134300000Y-96510000D03*
X131980000Y-96490000D03*
X131300000Y-96510000D03*
X128980000Y-96490000D03*
X128300000Y-96510000D03*
X125980000Y-96490000D03*
X125300000Y-96510000D03*
X122980000Y-96490000D03*
X122300000Y-96510000D03*
X119980000Y-96490000D03*
X119300000Y-96510000D03*
X116980000Y-96490000D03*
X116300000Y-96510000D03*
X113980000Y-96490000D03*
X113300000Y-96510000D03*
X110980000Y-96490000D03*
X110300000Y-96510000D03*
X107980000Y-96490000D03*
X107300000Y-96510000D03*
X104980000Y-96490000D03*
X104300000Y-96510000D03*
X101980000Y-96490000D03*
X101300000Y-96510000D03*
X98980000Y-96490000D03*
X98300000Y-96510000D03*
X95980000Y-96490000D03*
X95300000Y-96510000D03*
X92980000Y-96490000D03*
X92300000Y-96510000D03*
X89980000Y-96490000D03*
X89300000Y-96510000D03*
X86980000Y-96490000D03*
X86300000Y-96510000D03*
X83980000Y-96490000D03*
X83300000Y-96510000D03*
X80980000Y-96490000D03*
X80300000Y-96510000D03*
X77980000Y-96490000D03*
X77300000Y-96510000D03*
X74980000Y-96490000D03*
X74300000Y-96510000D03*
X71980000Y-96490000D03*
X71300000Y-96510000D03*
X68980000Y-96490000D03*
X68300000Y-96510000D03*
X65980000Y-96490000D03*
X65300000Y-96510000D03*
X62980000Y-96490000D03*
X254300000Y-93510000D03*
X251980000Y-93490000D03*
X251300000Y-93510000D03*
X248980000Y-93490000D03*
X248300000Y-93510000D03*
X245980000Y-93490000D03*
X245300000Y-93510000D03*
X242980000Y-93490000D03*
X242300000Y-93510000D03*
X239980000Y-93490000D03*
X239300000Y-93510000D03*
X236980000Y-93490000D03*
X236300000Y-93510000D03*
X233980000Y-93490000D03*
X233300000Y-93510000D03*
X230980000Y-93490000D03*
X230300000Y-93510000D03*
X227980000Y-93490000D03*
X227300000Y-93510000D03*
X224980000Y-93490000D03*
X224300000Y-93510000D03*
X221980000Y-93490000D03*
X221300000Y-93510000D03*
X218980000Y-93490000D03*
X218300000Y-93510000D03*
X215980000Y-93490000D03*
X215300000Y-93510000D03*
X212980000Y-93490000D03*
X212300000Y-93510000D03*
X209980000Y-93490000D03*
X209300000Y-93510000D03*
X206980000Y-93490000D03*
X206300000Y-93510000D03*
X203980000Y-93490000D03*
X203300000Y-93510000D03*
X200980000Y-93490000D03*
X200300000Y-93510000D03*
X197980000Y-93490000D03*
X197300000Y-93510000D03*
X194980000Y-93490000D03*
X194300000Y-93510000D03*
X191980000Y-93490000D03*
X191300000Y-93510000D03*
X188980000Y-93490000D03*
X188300000Y-93510000D03*
X185980000Y-93490000D03*
X185300000Y-93510000D03*
X182980000Y-93490000D03*
X182300000Y-93510000D03*
X179980000Y-93490000D03*
X179300000Y-93510000D03*
X176980000Y-93490000D03*
X176300000Y-93510000D03*
X173980000Y-93490000D03*
X173300000Y-93510000D03*
X170980000Y-93490000D03*
X170300000Y-93510000D03*
X167980000Y-93490000D03*
X167300000Y-93510000D03*
X164980000Y-93490000D03*
X164300000Y-93510000D03*
X161980000Y-93490000D03*
X161300000Y-93510000D03*
X158980000Y-93490000D03*
X158300000Y-93510000D03*
X155980000Y-93490000D03*
X155300000Y-93510000D03*
X152980000Y-93490000D03*
X152300000Y-93510000D03*
X149980000Y-93490000D03*
X149300000Y-93510000D03*
X146980000Y-93490000D03*
X146300000Y-93510000D03*
X143980000Y-93490000D03*
X143300000Y-93510000D03*
X140980000Y-93490000D03*
X140300000Y-93510000D03*
X137980000Y-93490000D03*
X137300000Y-93510000D03*
X134980000Y-93490000D03*
X134300000Y-93510000D03*
X131980000Y-93490000D03*
X131300000Y-93510000D03*
X128980000Y-93490000D03*
X128300000Y-93510000D03*
X125980000Y-93490000D03*
X125300000Y-93510000D03*
X122980000Y-93490000D03*
X122300000Y-93510000D03*
X119980000Y-93490000D03*
X119300000Y-93510000D03*
X116980000Y-93490000D03*
X116300000Y-93510000D03*
X113980000Y-93490000D03*
X113300000Y-93510000D03*
X110980000Y-93490000D03*
X110300000Y-93510000D03*
X107980000Y-93490000D03*
X107300000Y-93510000D03*
X104980000Y-93490000D03*
X104300000Y-93510000D03*
X101980000Y-93490000D03*
X101300000Y-93510000D03*
X98980000Y-93490000D03*
X98300000Y-93510000D03*
X95980000Y-93490000D03*
X95300000Y-93510000D03*
X92980000Y-93490000D03*
X92300000Y-93510000D03*
X89980000Y-93490000D03*
X89300000Y-93510000D03*
X86980000Y-93490000D03*
X86300000Y-93510000D03*
X83980000Y-93490000D03*
X83300000Y-93510000D03*
X80980000Y-93490000D03*
X80300000Y-93510000D03*
X77980000Y-93490000D03*
X77300000Y-93510000D03*
X74980000Y-93490000D03*
X74300000Y-93510000D03*
X71980000Y-93490000D03*
X71300000Y-93510000D03*
X68980000Y-93490000D03*
X68300000Y-93510000D03*
X65980000Y-93490000D03*
X65300000Y-93510000D03*
X62980000Y-93490000D03*
X254300000Y-90510000D03*
X251980000Y-90490000D03*
X251300000Y-90510000D03*
X248980000Y-90490000D03*
X248300000Y-90510000D03*
X245980000Y-90490000D03*
X245300000Y-90510000D03*
X242980000Y-90490000D03*
X242300000Y-90510000D03*
X239980000Y-90490000D03*
X239300000Y-90510000D03*
X236980000Y-90490000D03*
X236300000Y-90510000D03*
X233980000Y-90490000D03*
X233300000Y-90510000D03*
X230980000Y-90490000D03*
X230300000Y-90510000D03*
X227980000Y-90490000D03*
X227300000Y-90510000D03*
X224980000Y-90490000D03*
X224300000Y-90510000D03*
X221980000Y-90490000D03*
X221300000Y-90510000D03*
X218980000Y-90490000D03*
X218300000Y-90510000D03*
X215980000Y-90490000D03*
X215300000Y-90510000D03*
X212980000Y-90490000D03*
X212300000Y-90510000D03*
X209980000Y-90490000D03*
X209300000Y-90510000D03*
X206980000Y-90490000D03*
X206300000Y-90510000D03*
X203980000Y-90490000D03*
X203300000Y-90510000D03*
X200980000Y-90490000D03*
X200300000Y-90510000D03*
X197980000Y-90490000D03*
X197300000Y-90510000D03*
X194980000Y-90490000D03*
X194300000Y-90510000D03*
X191980000Y-90490000D03*
X191300000Y-90510000D03*
X188980000Y-90490000D03*
X188300000Y-90510000D03*
X185980000Y-90490000D03*
X185300000Y-90510000D03*
X182980000Y-90490000D03*
X182300000Y-90510000D03*
X179980000Y-90490000D03*
X179300000Y-90510000D03*
X176980000Y-90490000D03*
X176300000Y-90510000D03*
X173980000Y-90490000D03*
X173300000Y-90510000D03*
X170980000Y-90490000D03*
X170300000Y-90510000D03*
X167980000Y-90490000D03*
X167300000Y-90510000D03*
X164980000Y-90490000D03*
X164300000Y-90510000D03*
X161980000Y-90490000D03*
X161300000Y-90510000D03*
X158980000Y-90490000D03*
X158300000Y-90510000D03*
X155980000Y-90490000D03*
X155300000Y-90510000D03*
X152980000Y-90490000D03*
X152300000Y-90510000D03*
X149980000Y-90490000D03*
X149300000Y-90510000D03*
X146980000Y-90490000D03*
X146300000Y-90510000D03*
X143980000Y-90490000D03*
X143300000Y-90510000D03*
X140980000Y-90490000D03*
X140300000Y-90510000D03*
X137980000Y-90490000D03*
X137300000Y-90510000D03*
X134980000Y-90490000D03*
X134300000Y-90510000D03*
X131980000Y-90490000D03*
X131300000Y-90510000D03*
X128980000Y-90490000D03*
X128300000Y-90510000D03*
X125980000Y-90490000D03*
X125300000Y-90510000D03*
X122980000Y-90490000D03*
X122300000Y-90510000D03*
X119980000Y-90490000D03*
X119300000Y-90510000D03*
X116980000Y-90490000D03*
X116300000Y-90510000D03*
X113980000Y-90490000D03*
X113300000Y-90510000D03*
X110980000Y-90490000D03*
X110300000Y-90510000D03*
X107980000Y-90490000D03*
X107300000Y-90510000D03*
X104980000Y-90490000D03*
X104300000Y-90510000D03*
X101980000Y-90490000D03*
X101300000Y-90510000D03*
X98980000Y-90490000D03*
X98300000Y-90510000D03*
X95980000Y-90490000D03*
X95300000Y-90510000D03*
X92980000Y-90490000D03*
X92300000Y-90510000D03*
X89980000Y-90490000D03*
X89300000Y-90510000D03*
X86980000Y-90490000D03*
X86300000Y-90510000D03*
X83980000Y-90490000D03*
X83300000Y-90510000D03*
X80980000Y-90490000D03*
X80300000Y-90510000D03*
X77980000Y-90490000D03*
X77300000Y-90510000D03*
X74980000Y-90490000D03*
X74300000Y-90510000D03*
X71980000Y-90490000D03*
X71300000Y-90510000D03*
X68980000Y-90490000D03*
X68300000Y-90510000D03*
X65980000Y-90490000D03*
X65300000Y-90510000D03*
X62980000Y-90490000D03*
X254300000Y-87510000D03*
X251980000Y-87490000D03*
X251300000Y-87510000D03*
X248980000Y-87490000D03*
X248300000Y-87510000D03*
X245980000Y-87490000D03*
X245300000Y-87510000D03*
X242980000Y-87490000D03*
X242300000Y-87510000D03*
X239980000Y-87490000D03*
X239300000Y-87510000D03*
X236980000Y-87490000D03*
X236300000Y-87510000D03*
X233980000Y-87490000D03*
X233300000Y-87510000D03*
X230980000Y-87490000D03*
X230300000Y-87510000D03*
X227980000Y-87490000D03*
X227300000Y-87510000D03*
X224980000Y-87490000D03*
X224300000Y-87510000D03*
X221980000Y-87490000D03*
X221300000Y-87510000D03*
X218980000Y-87490000D03*
X218300000Y-87510000D03*
X215980000Y-87490000D03*
X215300000Y-87510000D03*
X212980000Y-87490000D03*
X212300000Y-87510000D03*
X209980000Y-87490000D03*
X209300000Y-87510000D03*
X206980000Y-87490000D03*
X206300000Y-87510000D03*
X203980000Y-87490000D03*
X203300000Y-87510000D03*
X200980000Y-87490000D03*
X200300000Y-87510000D03*
X197980000Y-87490000D03*
X197300000Y-87510000D03*
X194980000Y-87490000D03*
X194300000Y-87510000D03*
X191980000Y-87490000D03*
X191300000Y-87510000D03*
X188980000Y-87490000D03*
X188300000Y-87510000D03*
X185980000Y-87490000D03*
X185300000Y-87510000D03*
X182980000Y-87490000D03*
X182300000Y-87510000D03*
X179980000Y-87490000D03*
X179300000Y-87510000D03*
X176980000Y-87490000D03*
X176300000Y-87510000D03*
X173980000Y-87490000D03*
X173300000Y-87510000D03*
X170980000Y-87490000D03*
X170300000Y-87510000D03*
X167980000Y-87490000D03*
X167300000Y-87510000D03*
X164980000Y-87490000D03*
X164300000Y-87510000D03*
X161980000Y-87490000D03*
X161300000Y-87510000D03*
X158980000Y-87490000D03*
X158300000Y-87510000D03*
X155980000Y-87490000D03*
X155300000Y-87510000D03*
X152980000Y-87490000D03*
X152300000Y-87510000D03*
X149980000Y-87490000D03*
X149300000Y-87510000D03*
X146980000Y-87490000D03*
X146300000Y-87510000D03*
X143980000Y-87490000D03*
X143300000Y-87510000D03*
X140980000Y-87490000D03*
X140300000Y-87510000D03*
X137980000Y-87490000D03*
X137300000Y-87510000D03*
X134980000Y-87490000D03*
X134300000Y-87510000D03*
X131980000Y-87490000D03*
X131300000Y-87510000D03*
X128980000Y-87490000D03*
X128300000Y-87510000D03*
X125980000Y-87490000D03*
X125300000Y-87510000D03*
X122980000Y-87490000D03*
X122300000Y-87510000D03*
X119980000Y-87490000D03*
X119300000Y-87510000D03*
X116980000Y-87490000D03*
X116300000Y-87510000D03*
X113980000Y-87490000D03*
X113300000Y-87510000D03*
X110980000Y-87490000D03*
X110300000Y-87510000D03*
X107980000Y-87490000D03*
X107300000Y-87510000D03*
X104980000Y-87490000D03*
X104300000Y-87510000D03*
X101980000Y-87490000D03*
X101300000Y-87510000D03*
X98980000Y-87490000D03*
X98300000Y-87510000D03*
X95980000Y-87490000D03*
X95300000Y-87510000D03*
X92980000Y-87490000D03*
X92300000Y-87510000D03*
X89980000Y-87490000D03*
X89300000Y-87510000D03*
X86980000Y-87490000D03*
X86300000Y-87510000D03*
X83980000Y-87490000D03*
X83300000Y-87510000D03*
X80980000Y-87490000D03*
X80300000Y-87510000D03*
X77980000Y-87490000D03*
X77300000Y-87510000D03*
X74980000Y-87490000D03*
X74300000Y-87510000D03*
X71980000Y-87490000D03*
X71300000Y-87510000D03*
X68980000Y-87490000D03*
X68300000Y-87510000D03*
X65980000Y-87490000D03*
X65300000Y-87510000D03*
X62980000Y-87490000D03*
X254300000Y-84510000D03*
X251980000Y-84490000D03*
X251300000Y-84510000D03*
X248980000Y-84490000D03*
X248300000Y-84510000D03*
X245980000Y-84490000D03*
X245300000Y-84510000D03*
X242980000Y-84490000D03*
X242300000Y-84510000D03*
X239980000Y-84490000D03*
X239300000Y-84510000D03*
X236980000Y-84490000D03*
X236300000Y-84510000D03*
X233980000Y-84490000D03*
X233300000Y-84510000D03*
X230980000Y-84490000D03*
X230300000Y-84510000D03*
X227980000Y-84490000D03*
X227300000Y-84510000D03*
X224980000Y-84490000D03*
X224300000Y-84510000D03*
X221980000Y-84490000D03*
X221300000Y-84510000D03*
X218980000Y-84490000D03*
X218300000Y-84510000D03*
X215980000Y-84490000D03*
X215300000Y-84510000D03*
X212980000Y-84490000D03*
X212300000Y-84510000D03*
X209980000Y-84490000D03*
X209300000Y-84510000D03*
X206980000Y-84490000D03*
X206300000Y-84510000D03*
X203980000Y-84490000D03*
X203300000Y-84510000D03*
X200980000Y-84490000D03*
X200300000Y-84510000D03*
X197980000Y-84490000D03*
X197300000Y-84510000D03*
X194980000Y-84490000D03*
X194300000Y-84510000D03*
X191980000Y-84490000D03*
X191300000Y-84510000D03*
X188980000Y-84490000D03*
X188300000Y-84510000D03*
X185980000Y-84490000D03*
X185300000Y-84510000D03*
X182980000Y-84490000D03*
X182300000Y-84510000D03*
X179980000Y-84490000D03*
X179300000Y-84510000D03*
X176980000Y-84490000D03*
X176300000Y-84510000D03*
X173980000Y-84490000D03*
X173300000Y-84510000D03*
X170980000Y-84490000D03*
X170300000Y-84510000D03*
X167980000Y-84490000D03*
X167300000Y-84510000D03*
X164980000Y-84490000D03*
X164300000Y-84510000D03*
X161980000Y-84490000D03*
X161300000Y-84510000D03*
X158980000Y-84490000D03*
X158300000Y-84510000D03*
X155980000Y-84490000D03*
X155300000Y-84510000D03*
X152980000Y-84490000D03*
X152300000Y-84510000D03*
X149980000Y-84490000D03*
X149300000Y-84510000D03*
X146980000Y-84490000D03*
X146300000Y-84510000D03*
X143980000Y-84490000D03*
X143300000Y-84510000D03*
X140980000Y-84490000D03*
X140300000Y-84510000D03*
X137980000Y-84490000D03*
X137300000Y-84510000D03*
X134980000Y-84490000D03*
X134300000Y-84510000D03*
X131980000Y-84490000D03*
X131300000Y-84510000D03*
X128980000Y-84490000D03*
X128300000Y-84510000D03*
X125980000Y-84490000D03*
X125300000Y-84510000D03*
X122980000Y-84490000D03*
X122300000Y-84510000D03*
X119980000Y-84490000D03*
X119300000Y-84510000D03*
X116980000Y-84490000D03*
X116300000Y-84510000D03*
X113980000Y-84490000D03*
X113300000Y-84510000D03*
X110980000Y-84490000D03*
X110300000Y-84510000D03*
X107980000Y-84490000D03*
X107300000Y-84510000D03*
X104980000Y-84490000D03*
X104300000Y-84510000D03*
X101980000Y-84490000D03*
X101300000Y-84510000D03*
X98980000Y-84490000D03*
X98300000Y-84510000D03*
X95980000Y-84490000D03*
X95300000Y-84510000D03*
X92980000Y-84490000D03*
X92300000Y-84510000D03*
X89980000Y-84490000D03*
X89300000Y-84510000D03*
X86980000Y-84490000D03*
X86300000Y-84510000D03*
X83980000Y-84490000D03*
X83300000Y-84510000D03*
X80980000Y-84490000D03*
X80300000Y-84510000D03*
X77980000Y-84490000D03*
X77300000Y-84510000D03*
X74980000Y-84490000D03*
X74300000Y-84510000D03*
X71980000Y-84490000D03*
X71300000Y-84510000D03*
X68980000Y-84490000D03*
X68300000Y-84510000D03*
X65980000Y-84490000D03*
X65300000Y-84510000D03*
X62980000Y-84490000D03*
X254300000Y-81510000D03*
X251980000Y-81490000D03*
X251300000Y-81510000D03*
X248980000Y-81490000D03*
X248300000Y-81510000D03*
X245980000Y-81490000D03*
X245300000Y-81510000D03*
X242980000Y-81490000D03*
X242300000Y-81510000D03*
X239980000Y-81490000D03*
X239300000Y-81510000D03*
X236980000Y-81490000D03*
X236300000Y-81510000D03*
X233980000Y-81490000D03*
X233300000Y-81510000D03*
X230980000Y-81490000D03*
X230300000Y-81510000D03*
X227980000Y-81490000D03*
X227300000Y-81510000D03*
X224980000Y-81490000D03*
X224300000Y-81510000D03*
X221980000Y-81490000D03*
X221300000Y-81510000D03*
X218980000Y-81490000D03*
X218300000Y-81510000D03*
X215980000Y-81490000D03*
X215300000Y-81510000D03*
X212980000Y-81490000D03*
X212300000Y-81510000D03*
X209980000Y-81490000D03*
X209300000Y-81510000D03*
X206980000Y-81490000D03*
X206300000Y-81510000D03*
X203980000Y-81490000D03*
X203300000Y-81510000D03*
X200980000Y-81490000D03*
X200300000Y-81510000D03*
X197980000Y-81490000D03*
X197300000Y-81510000D03*
X194980000Y-81490000D03*
X194300000Y-81510000D03*
X191980000Y-81490000D03*
X191300000Y-81510000D03*
X188980000Y-81490000D03*
X188300000Y-81510000D03*
X185980000Y-81490000D03*
X185300000Y-81510000D03*
X182980000Y-81490000D03*
X182300000Y-81510000D03*
X179980000Y-81490000D03*
X179300000Y-81510000D03*
X176980000Y-81490000D03*
X176300000Y-81510000D03*
X173980000Y-81490000D03*
X173300000Y-81510000D03*
X170980000Y-81490000D03*
X170300000Y-81510000D03*
X167980000Y-81490000D03*
X167300000Y-81510000D03*
X164980000Y-81490000D03*
X164300000Y-81510000D03*
X161980000Y-81490000D03*
X161300000Y-81510000D03*
X158980000Y-81490000D03*
X158300000Y-81510000D03*
X155980000Y-81490000D03*
X155300000Y-81510000D03*
X152980000Y-81490000D03*
X152300000Y-81510000D03*
X149980000Y-81490000D03*
X149300000Y-81510000D03*
X146980000Y-81490000D03*
X146300000Y-81510000D03*
X143980000Y-81490000D03*
X143300000Y-81510000D03*
X140980000Y-81490000D03*
X140300000Y-81510000D03*
X137980000Y-81490000D03*
X137300000Y-81510000D03*
X134980000Y-81490000D03*
X134300000Y-81510000D03*
X131980000Y-81490000D03*
X131300000Y-81510000D03*
X128980000Y-81490000D03*
X128300000Y-81510000D03*
X125980000Y-81490000D03*
X125300000Y-81510000D03*
X122980000Y-81490000D03*
X122300000Y-81510000D03*
X119980000Y-81490000D03*
X119300000Y-81510000D03*
X116980000Y-81490000D03*
X116300000Y-81510000D03*
X113980000Y-81490000D03*
X113300000Y-81510000D03*
X110980000Y-81490000D03*
X110300000Y-81510000D03*
X107980000Y-81490000D03*
X107300000Y-81510000D03*
X104980000Y-81490000D03*
X104300000Y-81510000D03*
X101980000Y-81490000D03*
X101300000Y-81510000D03*
X98980000Y-81490000D03*
X98300000Y-81510000D03*
X95980000Y-81490000D03*
X95300000Y-81510000D03*
X92980000Y-81490000D03*
X92300000Y-81510000D03*
X89980000Y-81490000D03*
X89300000Y-81510000D03*
X86980000Y-81490000D03*
X86300000Y-81510000D03*
X83980000Y-81490000D03*
X83300000Y-81510000D03*
X80980000Y-81490000D03*
X80300000Y-81510000D03*
X77980000Y-81490000D03*
X77300000Y-81510000D03*
X74980000Y-81490000D03*
X74300000Y-81510000D03*
X71980000Y-81490000D03*
X71300000Y-81510000D03*
X68980000Y-81490000D03*
X68300000Y-81510000D03*
X65980000Y-81490000D03*
X65300000Y-81510000D03*
X62980000Y-81490000D03*
X254300000Y-78510000D03*
X251980000Y-78490000D03*
X251300000Y-78510000D03*
X248980000Y-78490000D03*
X248300000Y-78510000D03*
X245980000Y-78490000D03*
X245300000Y-78510000D03*
X242980000Y-78490000D03*
X242300000Y-78510000D03*
X239980000Y-78490000D03*
X239300000Y-78510000D03*
X236980000Y-78490000D03*
X236300000Y-78510000D03*
X233980000Y-78490000D03*
X233300000Y-78510000D03*
X230980000Y-78490000D03*
X230300000Y-78510000D03*
X227980000Y-78490000D03*
X227300000Y-78510000D03*
X224980000Y-78490000D03*
X224300000Y-78510000D03*
X221980000Y-78490000D03*
X221300000Y-78510000D03*
X218980000Y-78490000D03*
X218300000Y-78510000D03*
X215980000Y-78490000D03*
X215300000Y-78510000D03*
X212980000Y-78490000D03*
X212300000Y-78510000D03*
X209980000Y-78490000D03*
X209300000Y-78510000D03*
X206980000Y-78490000D03*
X206300000Y-78510000D03*
X203980000Y-78490000D03*
X203300000Y-78510000D03*
X200980000Y-78490000D03*
X200300000Y-78510000D03*
X197980000Y-78490000D03*
X197300000Y-78510000D03*
X194980000Y-78490000D03*
X194300000Y-78510000D03*
X191980000Y-78490000D03*
X191300000Y-78510000D03*
X188980000Y-78490000D03*
X188300000Y-78510000D03*
X185980000Y-78490000D03*
X185300000Y-78510000D03*
X182980000Y-78490000D03*
X182300000Y-78510000D03*
X179980000Y-78490000D03*
X179300000Y-78510000D03*
X176980000Y-78490000D03*
X176300000Y-78510000D03*
X173980000Y-78490000D03*
X173300000Y-78510000D03*
X170980000Y-78490000D03*
X170300000Y-78510000D03*
X167980000Y-78490000D03*
X167300000Y-78510000D03*
X164980000Y-78490000D03*
X164300000Y-78510000D03*
X161980000Y-78490000D03*
X161300000Y-78510000D03*
X158980000Y-78490000D03*
X158300000Y-78510000D03*
X155980000Y-78490000D03*
X155300000Y-78510000D03*
X152980000Y-78490000D03*
X152300000Y-78510000D03*
X149980000Y-78490000D03*
X149300000Y-78510000D03*
X146980000Y-78490000D03*
X146300000Y-78510000D03*
X143980000Y-78490000D03*
X143300000Y-78510000D03*
X140980000Y-78490000D03*
X140300000Y-78510000D03*
X137980000Y-78490000D03*
X137300000Y-78510000D03*
X134980000Y-78490000D03*
X134300000Y-78510000D03*
X131980000Y-78490000D03*
X131300000Y-78510000D03*
X128980000Y-78490000D03*
X128300000Y-78510000D03*
X125980000Y-78490000D03*
X125300000Y-78510000D03*
X122980000Y-78490000D03*
X122300000Y-78510000D03*
X119980000Y-78490000D03*
X119300000Y-78510000D03*
X116980000Y-78490000D03*
X116300000Y-78510000D03*
X113980000Y-78490000D03*
X113300000Y-78510000D03*
X110980000Y-78490000D03*
X110300000Y-78510000D03*
X107980000Y-78490000D03*
X107300000Y-78510000D03*
X104980000Y-78490000D03*
X104300000Y-78510000D03*
X101980000Y-78490000D03*
X101300000Y-78510000D03*
X98980000Y-78490000D03*
X98300000Y-78510000D03*
X95980000Y-78490000D03*
X95300000Y-78510000D03*
X92980000Y-78490000D03*
X92300000Y-78510000D03*
X89980000Y-78490000D03*
X89300000Y-78510000D03*
X86980000Y-78490000D03*
X86300000Y-78510000D03*
X83980000Y-78490000D03*
X83300000Y-78510000D03*
X80980000Y-78490000D03*
X80300000Y-78510000D03*
X77980000Y-78490000D03*
X77300000Y-78510000D03*
X74980000Y-78490000D03*
X74300000Y-78510000D03*
X71980000Y-78490000D03*
X71300000Y-78510000D03*
X68980000Y-78490000D03*
X68300000Y-78510000D03*
X65980000Y-78490000D03*
X65300000Y-78510000D03*
X62980000Y-78490000D03*
X254300000Y-75510000D03*
X251980000Y-75490000D03*
X251300000Y-75510000D03*
X248980000Y-75490000D03*
X248300000Y-75510000D03*
X245980000Y-75490000D03*
X245300000Y-75510000D03*
X242980000Y-75490000D03*
X242300000Y-75510000D03*
X239980000Y-75490000D03*
X239300000Y-75510000D03*
X236980000Y-75490000D03*
X236300000Y-75510000D03*
X233980000Y-75490000D03*
X233300000Y-75510000D03*
X230980000Y-75490000D03*
X230300000Y-75510000D03*
X227980000Y-75490000D03*
X227300000Y-75510000D03*
X224980000Y-75490000D03*
X224300000Y-75510000D03*
X221980000Y-75490000D03*
X221300000Y-75510000D03*
X218980000Y-75490000D03*
X218300000Y-75510000D03*
X215980000Y-75490000D03*
X215300000Y-75510000D03*
X212980000Y-75490000D03*
X212300000Y-75510000D03*
X209980000Y-75490000D03*
X209300000Y-75510000D03*
X206980000Y-75490000D03*
X206300000Y-75510000D03*
X203980000Y-75490000D03*
X203300000Y-75510000D03*
X200980000Y-75490000D03*
X200300000Y-75510000D03*
X197980000Y-75490000D03*
X197300000Y-75510000D03*
X194980000Y-75490000D03*
X194300000Y-75510000D03*
X191980000Y-75490000D03*
X191300000Y-75510000D03*
X188980000Y-75490000D03*
X188300000Y-75510000D03*
X185980000Y-75490000D03*
X185300000Y-75510000D03*
X182980000Y-75490000D03*
X182300000Y-75510000D03*
X179980000Y-75490000D03*
X179300000Y-75510000D03*
X176980000Y-75490000D03*
X176300000Y-75510000D03*
X173980000Y-75490000D03*
X173300000Y-75510000D03*
X170980000Y-75490000D03*
X170300000Y-75510000D03*
X167980000Y-75490000D03*
X167300000Y-75510000D03*
X164980000Y-75490000D03*
X164300000Y-75510000D03*
X161980000Y-75490000D03*
X161300000Y-75510000D03*
X158980000Y-75490000D03*
X158300000Y-75510000D03*
X155980000Y-75490000D03*
X155300000Y-75510000D03*
X152980000Y-75490000D03*
X152300000Y-75510000D03*
X149980000Y-75490000D03*
X149300000Y-75510000D03*
X146980000Y-75490000D03*
X146300000Y-75510000D03*
X143980000Y-75490000D03*
X143300000Y-75510000D03*
X140980000Y-75490000D03*
X140300000Y-75510000D03*
X137980000Y-75490000D03*
X137300000Y-75510000D03*
X134980000Y-75490000D03*
X134300000Y-75510000D03*
X131980000Y-75490000D03*
X131300000Y-75510000D03*
X128980000Y-75490000D03*
X128300000Y-75510000D03*
X125980000Y-75490000D03*
X125300000Y-75510000D03*
X122980000Y-75490000D03*
X122300000Y-75510000D03*
X119980000Y-75490000D03*
X119300000Y-75510000D03*
X116980000Y-75490000D03*
X116300000Y-75510000D03*
X113980000Y-75490000D03*
X113300000Y-75510000D03*
X110980000Y-75490000D03*
X110300000Y-75510000D03*
X107980000Y-75490000D03*
X107300000Y-75510000D03*
X104980000Y-75490000D03*
X104300000Y-75510000D03*
X101980000Y-75490000D03*
X101300000Y-75510000D03*
X98980000Y-75490000D03*
X98300000Y-75510000D03*
X95980000Y-75490000D03*
X95300000Y-75510000D03*
X92980000Y-75490000D03*
X92300000Y-75510000D03*
X89980000Y-75490000D03*
X89300000Y-75510000D03*
X86980000Y-75490000D03*
X86300000Y-75510000D03*
X83980000Y-75490000D03*
X83300000Y-75510000D03*
X80980000Y-75490000D03*
X80300000Y-75510000D03*
X77980000Y-75490000D03*
X77300000Y-75510000D03*
X74980000Y-75490000D03*
X74300000Y-75510000D03*
X71980000Y-75490000D03*
X71300000Y-75510000D03*
X68980000Y-75490000D03*
X68300000Y-75510000D03*
X65980000Y-75490000D03*
X65300000Y-75510000D03*
X62980000Y-75490000D03*
X254300000Y-72510000D03*
X251980000Y-72490000D03*
X251300000Y-72510000D03*
X248980000Y-72490000D03*
X248300000Y-72510000D03*
X245980000Y-72490000D03*
X245300000Y-72510000D03*
X242980000Y-72490000D03*
X242300000Y-72510000D03*
X239980000Y-72490000D03*
X239300000Y-72510000D03*
X236980000Y-72490000D03*
X236300000Y-72510000D03*
X233980000Y-72490000D03*
X233300000Y-72510000D03*
X230980000Y-72490000D03*
X230300000Y-72510000D03*
X227980000Y-72490000D03*
X227300000Y-72510000D03*
X224980000Y-72490000D03*
X224300000Y-72510000D03*
X221980000Y-72490000D03*
X221300000Y-72510000D03*
X218980000Y-72490000D03*
X218300000Y-72510000D03*
X215980000Y-72490000D03*
X215300000Y-72510000D03*
X212980000Y-72490000D03*
X212300000Y-72510000D03*
X209980000Y-72490000D03*
X209300000Y-72510000D03*
X206980000Y-72490000D03*
X206300000Y-72510000D03*
X203980000Y-72490000D03*
X203300000Y-72510000D03*
X200980000Y-72490000D03*
X200300000Y-72510000D03*
X197980000Y-72490000D03*
X197300000Y-72510000D03*
X194980000Y-72490000D03*
X194300000Y-72510000D03*
X191980000Y-72490000D03*
X191300000Y-72510000D03*
X188980000Y-72490000D03*
X188300000Y-72510000D03*
X185980000Y-72490000D03*
X185300000Y-72510000D03*
X182980000Y-72490000D03*
X182300000Y-72510000D03*
X179980000Y-72490000D03*
X179300000Y-72510000D03*
X176980000Y-72490000D03*
X176300000Y-72510000D03*
X173980000Y-72490000D03*
X173300000Y-72510000D03*
X170980000Y-72490000D03*
X170300000Y-72510000D03*
X167980000Y-72490000D03*
X167300000Y-72510000D03*
X164980000Y-72490000D03*
X164300000Y-72510000D03*
X161980000Y-72490000D03*
X161300000Y-72510000D03*
X158980000Y-72490000D03*
X158300000Y-72510000D03*
X155980000Y-72490000D03*
X155300000Y-72510000D03*
X152980000Y-72490000D03*
X152300000Y-72510000D03*
X149980000Y-72490000D03*
X149300000Y-72510000D03*
X146980000Y-72490000D03*
X146300000Y-72510000D03*
X143980000Y-72490000D03*
X143300000Y-72510000D03*
X140980000Y-72490000D03*
X140300000Y-72510000D03*
X137980000Y-72490000D03*
X137300000Y-72510000D03*
X134980000Y-72490000D03*
X134300000Y-72510000D03*
X131980000Y-72490000D03*
X131300000Y-72510000D03*
X128980000Y-72490000D03*
X128300000Y-72510000D03*
X125980000Y-72490000D03*
X125300000Y-72510000D03*
X122980000Y-72490000D03*
X122300000Y-72510000D03*
X119980000Y-72490000D03*
X119300000Y-72510000D03*
X116980000Y-72490000D03*
X116300000Y-72510000D03*
X113980000Y-72490000D03*
X113300000Y-72510000D03*
X110980000Y-72490000D03*
X110300000Y-72510000D03*
X107980000Y-72490000D03*
X107300000Y-72510000D03*
X104980000Y-72490000D03*
X104300000Y-72510000D03*
X101980000Y-72490000D03*
X101300000Y-72510000D03*
X98980000Y-72490000D03*
X98300000Y-72510000D03*
X95980000Y-72490000D03*
X95300000Y-72510000D03*
X92980000Y-72490000D03*
X92300000Y-72510000D03*
X89980000Y-72490000D03*
X89300000Y-72510000D03*
X86980000Y-72490000D03*
X86300000Y-72510000D03*
X83980000Y-72490000D03*
X83300000Y-72510000D03*
X80980000Y-72490000D03*
X80300000Y-72510000D03*
X77980000Y-72490000D03*
X77300000Y-72510000D03*
X74980000Y-72490000D03*
X74300000Y-72510000D03*
X71980000Y-72490000D03*
X71300000Y-72510000D03*
X68980000Y-72490000D03*
X68300000Y-72510000D03*
X65980000Y-72490000D03*
X65300000Y-72510000D03*
X62980000Y-72490000D03*
X254300000Y-69510000D03*
X251980000Y-69490000D03*
X251300000Y-69510000D03*
X248980000Y-69490000D03*
X248300000Y-69510000D03*
X245980000Y-69490000D03*
X245300000Y-69510000D03*
X242980000Y-69490000D03*
X242300000Y-69510000D03*
X239980000Y-69490000D03*
X239300000Y-69510000D03*
X236980000Y-69490000D03*
X236300000Y-69510000D03*
X233980000Y-69490000D03*
X233300000Y-69510000D03*
X230980000Y-69490000D03*
X230300000Y-69510000D03*
X227980000Y-69490000D03*
X227300000Y-69510000D03*
X224980000Y-69490000D03*
X224300000Y-69510000D03*
X221980000Y-69490000D03*
X221300000Y-69510000D03*
X218980000Y-69490000D03*
X218300000Y-69510000D03*
X215980000Y-69490000D03*
X215300000Y-69510000D03*
X212980000Y-69490000D03*
X212300000Y-69510000D03*
X209980000Y-69490000D03*
X209300000Y-69510000D03*
X206980000Y-69490000D03*
X206300000Y-69510000D03*
X203980000Y-69490000D03*
X203300000Y-69510000D03*
X200980000Y-69490000D03*
X200300000Y-69510000D03*
X197980000Y-69490000D03*
X197300000Y-69510000D03*
X194980000Y-69490000D03*
X194300000Y-69510000D03*
X191980000Y-69490000D03*
X191300000Y-69510000D03*
X188980000Y-69490000D03*
X188300000Y-69510000D03*
X185980000Y-69490000D03*
X185300000Y-69510000D03*
X182980000Y-69490000D03*
X182300000Y-69510000D03*
X179980000Y-69490000D03*
X179300000Y-69510000D03*
X176980000Y-69490000D03*
X176300000Y-69510000D03*
X173980000Y-69490000D03*
X173300000Y-69510000D03*
X170980000Y-69490000D03*
X170300000Y-69510000D03*
X167980000Y-69490000D03*
X167300000Y-69510000D03*
X164980000Y-69490000D03*
X164300000Y-69510000D03*
X161980000Y-69490000D03*
X161300000Y-69510000D03*
X158980000Y-69490000D03*
X158300000Y-69510000D03*
X155980000Y-69490000D03*
X155300000Y-69510000D03*
X152980000Y-69490000D03*
X152300000Y-69510000D03*
X149980000Y-69490000D03*
X149300000Y-69510000D03*
X146980000Y-69490000D03*
X146300000Y-69510000D03*
X143980000Y-69490000D03*
X143300000Y-69510000D03*
X140980000Y-69490000D03*
X140300000Y-69510000D03*
X137980000Y-69490000D03*
X137300000Y-69510000D03*
X134980000Y-69490000D03*
X134300000Y-69510000D03*
X131980000Y-69490000D03*
X131300000Y-69510000D03*
X128980000Y-69490000D03*
X128300000Y-69510000D03*
X125980000Y-69490000D03*
X125300000Y-69510000D03*
X122980000Y-69490000D03*
X122300000Y-69510000D03*
X119980000Y-69490000D03*
X119300000Y-69510000D03*
X116980000Y-69490000D03*
X116300000Y-69510000D03*
X113980000Y-69490000D03*
X113300000Y-69510000D03*
X110980000Y-69490000D03*
X110300000Y-69510000D03*
X107980000Y-69490000D03*
X107300000Y-69510000D03*
X104980000Y-69490000D03*
X104300000Y-69510000D03*
X101980000Y-69490000D03*
X101300000Y-69510000D03*
X98980000Y-69490000D03*
X98300000Y-69510000D03*
X95980000Y-69490000D03*
X95300000Y-69510000D03*
X92980000Y-69490000D03*
X92300000Y-69510000D03*
X89980000Y-69490000D03*
X89300000Y-69510000D03*
X86980000Y-69490000D03*
X86300000Y-69510000D03*
X83980000Y-69490000D03*
X83300000Y-69510000D03*
X80980000Y-69490000D03*
X80300000Y-69510000D03*
X77980000Y-69490000D03*
X77300000Y-69510000D03*
X74980000Y-69490000D03*
X74300000Y-69510000D03*
X71980000Y-69490000D03*
X71300000Y-69510000D03*
X68980000Y-69490000D03*
X68300000Y-69510000D03*
X65980000Y-69490000D03*
X65300000Y-69510000D03*
X62980000Y-69490000D03*
X254300000Y-66510000D03*
X251980000Y-66490000D03*
X251300000Y-66510000D03*
X248980000Y-66490000D03*
X248300000Y-66510000D03*
X245980000Y-66490000D03*
X245300000Y-66510000D03*
X242980000Y-66490000D03*
X242300000Y-66510000D03*
X239980000Y-66490000D03*
X239300000Y-66510000D03*
X236980000Y-66490000D03*
X236300000Y-66510000D03*
X233980000Y-66490000D03*
X233300000Y-66510000D03*
X230980000Y-66490000D03*
X230300000Y-66510000D03*
X227980000Y-66490000D03*
X227300000Y-66510000D03*
X224980000Y-66490000D03*
X224300000Y-66510000D03*
X221980000Y-66490000D03*
X221300000Y-66510000D03*
X218980000Y-66490000D03*
X218300000Y-66510000D03*
X215980000Y-66490000D03*
X215300000Y-66510000D03*
X212980000Y-66490000D03*
X212300000Y-66510000D03*
X209980000Y-66490000D03*
X209300000Y-66510000D03*
X206980000Y-66490000D03*
X206300000Y-66510000D03*
X203980000Y-66490000D03*
X203300000Y-66510000D03*
X200980000Y-66490000D03*
X200300000Y-66510000D03*
X197980000Y-66490000D03*
X197300000Y-66510000D03*
X194980000Y-66490000D03*
X194300000Y-66510000D03*
X191980000Y-66490000D03*
X191300000Y-66510000D03*
X188980000Y-66490000D03*
X188300000Y-66510000D03*
X185980000Y-66490000D03*
X185300000Y-66510000D03*
X182980000Y-66490000D03*
X182300000Y-66510000D03*
X179980000Y-66490000D03*
X179300000Y-66510000D03*
X176980000Y-66490000D03*
X176300000Y-66510000D03*
X173980000Y-66490000D03*
X173300000Y-66510000D03*
X170980000Y-66490000D03*
X170300000Y-66510000D03*
X167980000Y-66490000D03*
X167300000Y-66510000D03*
X164980000Y-66490000D03*
X164300000Y-66510000D03*
X161980000Y-66490000D03*
X161300000Y-66510000D03*
X158980000Y-66490000D03*
X158300000Y-66510000D03*
X155980000Y-66490000D03*
X155300000Y-66510000D03*
X152980000Y-66490000D03*
X152300000Y-66510000D03*
X149980000Y-66490000D03*
X149300000Y-66510000D03*
X146980000Y-66490000D03*
X146300000Y-66510000D03*
X143980000Y-66490000D03*
X143300000Y-66510000D03*
X140980000Y-66490000D03*
X140300000Y-66510000D03*
X137980000Y-66490000D03*
X137300000Y-66510000D03*
X134980000Y-66490000D03*
X134300000Y-66510000D03*
X131980000Y-66490000D03*
X131300000Y-66510000D03*
X128980000Y-66490000D03*
X128300000Y-66510000D03*
X125980000Y-66490000D03*
X125300000Y-66510000D03*
X122980000Y-66490000D03*
X122300000Y-66510000D03*
X119980000Y-66490000D03*
X119300000Y-66510000D03*
X116980000Y-66490000D03*
X116300000Y-66510000D03*
X113980000Y-66490000D03*
X113300000Y-66510000D03*
X110980000Y-66490000D03*
X110300000Y-66510000D03*
X107980000Y-66490000D03*
X107300000Y-66510000D03*
X104980000Y-66490000D03*
X104300000Y-66510000D03*
X101980000Y-66490000D03*
X101300000Y-66510000D03*
X98980000Y-66490000D03*
X98300000Y-66510000D03*
X95980000Y-66490000D03*
X95300000Y-66510000D03*
X92980000Y-66490000D03*
X92300000Y-66510000D03*
X89980000Y-66490000D03*
X89300000Y-66510000D03*
X86980000Y-66490000D03*
X86300000Y-66510000D03*
X83980000Y-66490000D03*
X83300000Y-66510000D03*
X80980000Y-66490000D03*
X80300000Y-66510000D03*
X77980000Y-66490000D03*
X77300000Y-66510000D03*
X74980000Y-66490000D03*
X74300000Y-66510000D03*
X71980000Y-66490000D03*
X71300000Y-66510000D03*
X68980000Y-66490000D03*
X68300000Y-66510000D03*
X65980000Y-66490000D03*
X65300000Y-66510000D03*
X62980000Y-66490000D03*
X254300000Y-63510000D03*
X251980000Y-63490000D03*
X251300000Y-63510000D03*
X248980000Y-63490000D03*
X248300000Y-63510000D03*
X245980000Y-63490000D03*
X245300000Y-63510000D03*
X242980000Y-63490000D03*
X242300000Y-63510000D03*
X239980000Y-63490000D03*
X239300000Y-63510000D03*
X236980000Y-63490000D03*
X236300000Y-63510000D03*
X233980000Y-63490000D03*
X233300000Y-63510000D03*
X230980000Y-63490000D03*
X230300000Y-63510000D03*
X227980000Y-63490000D03*
X227300000Y-63510000D03*
X224980000Y-63490000D03*
X224300000Y-63510000D03*
X221980000Y-63490000D03*
X221300000Y-63510000D03*
X218980000Y-63490000D03*
X218300000Y-63510000D03*
X215980000Y-63490000D03*
X215300000Y-63510000D03*
X212980000Y-63490000D03*
X212300000Y-63510000D03*
X209980000Y-63490000D03*
X209300000Y-63510000D03*
X206980000Y-63490000D03*
X206300000Y-63510000D03*
X203980000Y-63490000D03*
X203300000Y-63510000D03*
X200980000Y-63490000D03*
X200300000Y-63510000D03*
X197980000Y-63490000D03*
X197300000Y-63510000D03*
X194980000Y-63490000D03*
X194300000Y-63510000D03*
X191980000Y-63490000D03*
X191300000Y-63510000D03*
X188980000Y-63490000D03*
X188300000Y-63510000D03*
X185980000Y-63490000D03*
X185300000Y-63510000D03*
X182980000Y-63490000D03*
X182300000Y-63510000D03*
X179980000Y-63490000D03*
X179300000Y-63510000D03*
X176980000Y-63490000D03*
X176300000Y-63510000D03*
X173980000Y-63490000D03*
X173300000Y-63510000D03*
X170980000Y-63490000D03*
X170300000Y-63510000D03*
X167980000Y-63490000D03*
X167300000Y-63510000D03*
X164980000Y-63490000D03*
X164300000Y-63510000D03*
X161980000Y-63490000D03*
X161300000Y-63510000D03*
X158980000Y-63490000D03*
X158300000Y-63510000D03*
X155980000Y-63490000D03*
X155300000Y-63510000D03*
X152980000Y-63490000D03*
X152300000Y-63510000D03*
X149980000Y-63490000D03*
X149300000Y-63510000D03*
X146980000Y-63490000D03*
X146300000Y-63510000D03*
X143980000Y-63490000D03*
X143300000Y-63510000D03*
X140980000Y-63490000D03*
X140300000Y-63510000D03*
X137980000Y-63490000D03*
X137300000Y-63510000D03*
X134980000Y-63490000D03*
X134300000Y-63510000D03*
X131980000Y-63490000D03*
X131300000Y-63510000D03*
X128980000Y-63490000D03*
X128300000Y-63510000D03*
X125980000Y-63490000D03*
X125300000Y-63510000D03*
X122980000Y-63490000D03*
X122300000Y-63510000D03*
X119980000Y-63490000D03*
X119300000Y-63510000D03*
X116980000Y-63490000D03*
X116300000Y-63510000D03*
X113980000Y-63490000D03*
X113300000Y-63510000D03*
X110980000Y-63490000D03*
X110300000Y-63510000D03*
X107980000Y-63490000D03*
X107300000Y-63510000D03*
X104980000Y-63490000D03*
X104300000Y-63510000D03*
X101980000Y-63490000D03*
X101300000Y-63510000D03*
X98980000Y-63490000D03*
X98300000Y-63510000D03*
X95980000Y-63490000D03*
X95300000Y-63510000D03*
X92980000Y-63490000D03*
X92300000Y-63510000D03*
X89980000Y-63490000D03*
X89300000Y-63510000D03*
X86980000Y-63490000D03*
X86300000Y-63510000D03*
X83980000Y-63490000D03*
X83300000Y-63510000D03*
X80980000Y-63490000D03*
X80300000Y-63510000D03*
X77980000Y-63490000D03*
X77300000Y-63510000D03*
X74980000Y-63490000D03*
X74300000Y-63510000D03*
X71980000Y-63490000D03*
X71300000Y-63510000D03*
X68980000Y-63490000D03*
X68300000Y-63510000D03*
X65980000Y-63490000D03*
X65300000Y-63510000D03*
X62980000Y-63490000D03*
X254300000Y-60510000D03*
X251980000Y-60490000D03*
X251300000Y-60510000D03*
X248980000Y-60490000D03*
X248300000Y-60510000D03*
X245980000Y-60490000D03*
X245300000Y-60510000D03*
X242980000Y-60490000D03*
X242300000Y-60510000D03*
X239980000Y-60490000D03*
X239300000Y-60510000D03*
X236980000Y-60490000D03*
X236300000Y-60510000D03*
X233980000Y-60490000D03*
X233300000Y-60510000D03*
X230980000Y-60490000D03*
X230300000Y-60510000D03*
X227980000Y-60490000D03*
X227300000Y-60510000D03*
X224980000Y-60490000D03*
X224300000Y-60510000D03*
X221980000Y-60490000D03*
X221300000Y-60510000D03*
X218980000Y-60490000D03*
X218300000Y-60510000D03*
X215980000Y-60490000D03*
X215300000Y-60510000D03*
X212980000Y-60490000D03*
X212300000Y-60510000D03*
X209980000Y-60490000D03*
X209300000Y-60510000D03*
X206980000Y-60490000D03*
X206300000Y-60510000D03*
X203980000Y-60490000D03*
X203300000Y-60510000D03*
X200980000Y-60490000D03*
X200300000Y-60510000D03*
X197980000Y-60490000D03*
X197300000Y-60510000D03*
X194980000Y-60490000D03*
X194300000Y-60510000D03*
X191980000Y-60490000D03*
X191300000Y-60510000D03*
X188980000Y-60490000D03*
X188300000Y-60510000D03*
X185980000Y-60490000D03*
X185300000Y-60510000D03*
X182980000Y-60490000D03*
X182300000Y-60510000D03*
X179980000Y-60490000D03*
X179300000Y-60510000D03*
X176980000Y-60490000D03*
X176300000Y-60510000D03*
X173980000Y-60490000D03*
X173300000Y-60510000D03*
X170980000Y-60490000D03*
X170300000Y-60510000D03*
X167980000Y-60490000D03*
X167300000Y-60510000D03*
X164980000Y-60490000D03*
X164300000Y-60510000D03*
X161980000Y-60490000D03*
X161300000Y-60510000D03*
X158980000Y-60490000D03*
X158300000Y-60510000D03*
X155980000Y-60490000D03*
X155300000Y-60510000D03*
X152980000Y-60490000D03*
X152300000Y-60510000D03*
X149980000Y-60490000D03*
X149300000Y-60510000D03*
X146980000Y-60490000D03*
X146300000Y-60510000D03*
X143980000Y-60490000D03*
X143300000Y-60510000D03*
X140980000Y-60490000D03*
X140300000Y-60510000D03*
X137980000Y-60490000D03*
X137300000Y-60510000D03*
X134980000Y-60490000D03*
X134300000Y-60510000D03*
X131980000Y-60490000D03*
X131300000Y-60510000D03*
X128980000Y-60490000D03*
X128300000Y-60510000D03*
X125980000Y-60490000D03*
X125300000Y-60510000D03*
X122980000Y-60490000D03*
X122300000Y-60510000D03*
X119980000Y-60490000D03*
X119300000Y-60510000D03*
X116980000Y-60490000D03*
X116300000Y-60510000D03*
X113980000Y-60490000D03*
X113300000Y-60510000D03*
X110980000Y-60490000D03*
X110300000Y-60510000D03*
X107980000Y-60490000D03*
X107300000Y-60510000D03*
X104980000Y-60490000D03*
X104300000Y-60510000D03*
X101980000Y-60490000D03*
X101300000Y-60510000D03*
X98980000Y-60490000D03*
X98300000Y-60510000D03*
X95980000Y-60490000D03*
X95300000Y-60510000D03*
X92980000Y-60490000D03*
X92300000Y-60510000D03*
X89980000Y-60490000D03*
X89300000Y-60510000D03*
X86980000Y-60490000D03*
X86300000Y-60510000D03*
X83980000Y-60490000D03*
X83300000Y-60510000D03*
X80980000Y-60490000D03*
X80300000Y-60510000D03*
X77980000Y-60490000D03*
X77300000Y-60510000D03*
X74980000Y-60490000D03*
X74300000Y-60510000D03*
X71980000Y-60490000D03*
X71300000Y-60510000D03*
X68980000Y-60490000D03*
X68300000Y-60510000D03*
X65980000Y-60490000D03*
X65300000Y-60510000D03*
X62980000Y-60490000D03*
X254300000Y-57510000D03*
X251980000Y-57490000D03*
X251300000Y-57510000D03*
X248980000Y-57490000D03*
X248300000Y-57510000D03*
X245980000Y-57490000D03*
X245300000Y-57510000D03*
X242980000Y-57490000D03*
X242300000Y-57510000D03*
X239980000Y-57490000D03*
X239300000Y-57510000D03*
X236980000Y-57490000D03*
X236300000Y-57510000D03*
X233980000Y-57490000D03*
X233300000Y-57510000D03*
X230980000Y-57490000D03*
X230300000Y-57510000D03*
X227980000Y-57490000D03*
X227300000Y-57510000D03*
X224980000Y-57490000D03*
X224300000Y-57510000D03*
X221980000Y-57490000D03*
X221300000Y-57510000D03*
X218980000Y-57490000D03*
X218300000Y-57510000D03*
X215980000Y-57490000D03*
X215300000Y-57510000D03*
X212980000Y-57490000D03*
X212300000Y-57510000D03*
X209980000Y-57490000D03*
X209300000Y-57510000D03*
X206980000Y-57490000D03*
X206300000Y-57510000D03*
X203980000Y-57490000D03*
X203300000Y-57510000D03*
X200980000Y-57490000D03*
X200300000Y-57510000D03*
X197980000Y-57490000D03*
X197300000Y-57510000D03*
X194980000Y-57490000D03*
X194300000Y-57510000D03*
X191980000Y-57490000D03*
X191300000Y-57510000D03*
X188980000Y-57490000D03*
X188300000Y-57510000D03*
X185980000Y-57490000D03*
X185300000Y-57510000D03*
X182980000Y-57490000D03*
X182300000Y-57510000D03*
X179980000Y-57490000D03*
X179300000Y-57510000D03*
X176980000Y-57490000D03*
X176300000Y-57510000D03*
X173980000Y-57490000D03*
X173300000Y-57510000D03*
X170980000Y-57490000D03*
X170300000Y-57510000D03*
X167980000Y-57490000D03*
X167300000Y-57510000D03*
X164980000Y-57490000D03*
X164300000Y-57510000D03*
X161980000Y-57490000D03*
X161300000Y-57510000D03*
X158980000Y-57490000D03*
X158300000Y-57510000D03*
X155980000Y-57490000D03*
X155300000Y-57510000D03*
X152980000Y-57490000D03*
X152300000Y-57510000D03*
X149980000Y-57490000D03*
X149300000Y-57510000D03*
X146980000Y-57490000D03*
X146300000Y-57510000D03*
X143980000Y-57490000D03*
X143300000Y-57510000D03*
X140980000Y-57490000D03*
X140300000Y-57510000D03*
X137980000Y-57490000D03*
X137300000Y-57510000D03*
X134980000Y-57490000D03*
X134300000Y-57510000D03*
X131980000Y-57490000D03*
X131300000Y-57510000D03*
X128980000Y-57490000D03*
X128300000Y-57510000D03*
X125980000Y-57490000D03*
X125300000Y-57510000D03*
X122980000Y-57490000D03*
X122300000Y-57510000D03*
X119980000Y-57490000D03*
X119300000Y-57510000D03*
X116980000Y-57490000D03*
X116300000Y-57510000D03*
X113980000Y-57490000D03*
X113300000Y-57510000D03*
X110980000Y-57490000D03*
X110300000Y-57510000D03*
X107980000Y-57490000D03*
X107300000Y-57510000D03*
X104980000Y-57490000D03*
X104300000Y-57510000D03*
X101980000Y-57490000D03*
X101300000Y-57510000D03*
X98980000Y-57490000D03*
X98300000Y-57510000D03*
X95980000Y-57490000D03*
X95300000Y-57510000D03*
X92980000Y-57490000D03*
X92300000Y-57510000D03*
X89980000Y-57490000D03*
X89300000Y-57510000D03*
X86980000Y-57490000D03*
X86300000Y-57510000D03*
X83980000Y-57490000D03*
X83300000Y-57510000D03*
X80980000Y-57490000D03*
X80300000Y-57510000D03*
X77980000Y-57490000D03*
X77300000Y-57510000D03*
X74980000Y-57490000D03*
X74300000Y-57510000D03*
X71980000Y-57490000D03*
X71300000Y-57510000D03*
X68980000Y-57490000D03*
X68300000Y-57510000D03*
X65980000Y-57490000D03*
X65300000Y-57510000D03*
X62980000Y-57490000D03*
X253120000Y-104850000D03*
X250120000Y-104850000D03*
X247120000Y-104850000D03*
X244120000Y-104850000D03*
X241120000Y-104850000D03*
X238120000Y-104850000D03*
X235120000Y-104850000D03*
X232120000Y-104850000D03*
X229120000Y-104850000D03*
X226120000Y-104850000D03*
X223120000Y-104850000D03*
X220120000Y-104850000D03*
X217120000Y-104850000D03*
X214120000Y-104850000D03*
X211120000Y-104850000D03*
X208120000Y-104850000D03*
X205120000Y-104850000D03*
X202120000Y-104850000D03*
X199120000Y-104850000D03*
X196120000Y-104850000D03*
X193120000Y-104850000D03*
X190120000Y-104850000D03*
X187120000Y-104850000D03*
X184120000Y-104850000D03*
X181120000Y-104850000D03*
X178120000Y-104850000D03*
X175120000Y-104850000D03*
X172120000Y-104850000D03*
X169120000Y-104850000D03*
X166120000Y-104850000D03*
X163120000Y-104850000D03*
X160120000Y-104850000D03*
X157130000Y-56830000D03*
X154130000Y-56830000D03*
X151130000Y-56830000D03*
X148130000Y-56830000D03*
X145130000Y-56830000D03*
X142130000Y-56830000D03*
X139130000Y-56830000D03*
X136130000Y-56830000D03*
X133130000Y-56830000D03*
X130130000Y-56830000D03*
X127130000Y-56830000D03*
X124130000Y-56830000D03*
X121130000Y-56830000D03*
X118130000Y-56830000D03*
X115130000Y-56830000D03*
X112130000Y-56830000D03*
X109130000Y-56830000D03*
X106130000Y-56830000D03*
X103130000Y-56830000D03*
X100130000Y-56830000D03*
X97130000Y-56830000D03*
X94130000Y-56830000D03*
X91130000Y-56830000D03*
X88130000Y-56830000D03*
X85130000Y-56830000D03*
X82130000Y-56830000D03*
X79130000Y-56830000D03*
X76130000Y-56830000D03*
X73130000Y-56830000D03*
X70130000Y-56830000D03*
X67130000Y-56830000D03*
X64130000Y-56830000D03*
D13*
X252010000Y-102490000D02*
X254250000Y-102490000D01*
X249010000Y-102490000D02*
X251250000Y-102490000D01*
X246010000Y-102490000D02*
X248250000Y-102490000D01*
X243010000Y-102490000D02*
X245250000Y-102490000D01*
X240010000Y-102490000D02*
X242250000Y-102490000D01*
X237010000Y-102490000D02*
X239250000Y-102490000D01*
X234010000Y-102490000D02*
X236250000Y-102490000D01*
X231010000Y-102490000D02*
X233250000Y-102490000D01*
X228010000Y-102490000D02*
X230250000Y-102490000D01*
X225010000Y-102490000D02*
X227250000Y-102490000D01*
X222010000Y-102490000D02*
X224250000Y-102490000D01*
X219010000Y-102490000D02*
X221250000Y-102490000D01*
X216010000Y-102490000D02*
X218250000Y-102490000D01*
X213010000Y-102490000D02*
X215250000Y-102490000D01*
X210010000Y-102490000D02*
X212250000Y-102490000D01*
X207010000Y-102490000D02*
X209250000Y-102490000D01*
X204010000Y-102490000D02*
X206250000Y-102490000D01*
X201010000Y-102490000D02*
X203250000Y-102490000D01*
X198010000Y-102490000D02*
X200250000Y-102490000D01*
X195010000Y-102490000D02*
X197250000Y-102490000D01*
X192010000Y-102490000D02*
X194250000Y-102490000D01*
X189010000Y-102490000D02*
X191250000Y-102490000D01*
X186010000Y-102490000D02*
X188250000Y-102490000D01*
X183010000Y-102490000D02*
X185250000Y-102490000D01*
X180010000Y-102490000D02*
X182250000Y-102490000D01*
X177010000Y-102490000D02*
X179250000Y-102490000D01*
X174010000Y-102490000D02*
X176250000Y-102490000D01*
X171010000Y-102490000D02*
X173250000Y-102490000D01*
X168010000Y-102490000D02*
X170250000Y-102490000D01*
X165010000Y-102490000D02*
X167250000Y-102490000D01*
X162010000Y-102490000D02*
X164250000Y-102490000D01*
X159010000Y-102490000D02*
X161250000Y-102490000D01*
X156010000Y-102490000D02*
X158250000Y-102490000D01*
X153010000Y-102490000D02*
X155250000Y-102490000D01*
X150010000Y-102490000D02*
X152250000Y-102490000D01*
X147010000Y-102490000D02*
X149250000Y-102490000D01*
X144010000Y-102490000D02*
X146250000Y-102490000D01*
X141010000Y-102490000D02*
X143250000Y-102490000D01*
X138010000Y-102490000D02*
X140250000Y-102490000D01*
X135010000Y-102490000D02*
X137250000Y-102490000D01*
X132010000Y-102490000D02*
X134250000Y-102490000D01*
X129010000Y-102490000D02*
X131250000Y-102490000D01*
X126010000Y-102490000D02*
X128250000Y-102490000D01*
X123010000Y-102490000D02*
X125250000Y-102490000D01*
X120010000Y-102490000D02*
X122250000Y-102490000D01*
X117010000Y-102490000D02*
X119250000Y-102490000D01*
X114010000Y-102490000D02*
X116250000Y-102490000D01*
X111010000Y-102490000D02*
X113250000Y-102490000D01*
X108010000Y-102490000D02*
X110250000Y-102490000D01*
X105010000Y-102490000D02*
X107250000Y-102490000D01*
X102010000Y-102490000D02*
X104250000Y-102490000D01*
X99010000Y-102490000D02*
X101250000Y-102490000D01*
X96010000Y-102490000D02*
X98250000Y-102490000D01*
X93010000Y-102490000D02*
X95250000Y-102490000D01*
X90010000Y-102490000D02*
X92250000Y-102490000D01*
X87010000Y-102490000D02*
X89250000Y-102490000D01*
X84010000Y-102490000D02*
X86250000Y-102490000D01*
X81010000Y-102490000D02*
X83250000Y-102490000D01*
X78010000Y-102490000D02*
X80250000Y-102490000D01*
X75010000Y-102490000D02*
X77250000Y-102490000D01*
X72010000Y-102490000D02*
X74250000Y-102490000D01*
X69010000Y-102490000D02*
X71250000Y-102490000D01*
X66010000Y-102490000D02*
X68250000Y-102490000D01*
X63010000Y-102490000D02*
X65250000Y-102490000D01*
X252010000Y-99490000D02*
X254250000Y-99490000D01*
X249010000Y-99490000D02*
X251250000Y-99490000D01*
X246010000Y-99490000D02*
X248250000Y-99490000D01*
X243010000Y-99490000D02*
X245250000Y-99490000D01*
X240010000Y-99490000D02*
X242250000Y-99490000D01*
X237010000Y-99490000D02*
X239250000Y-99490000D01*
X234010000Y-99490000D02*
X236250000Y-99490000D01*
X231010000Y-99490000D02*
X233250000Y-99490000D01*
X228010000Y-99490000D02*
X230250000Y-99490000D01*
X225010000Y-99490000D02*
X227250000Y-99490000D01*
X222010000Y-99490000D02*
X224250000Y-99490000D01*
X219010000Y-99490000D02*
X221250000Y-99490000D01*
X216010000Y-99490000D02*
X218250000Y-99490000D01*
X213010000Y-99490000D02*
X215250000Y-99490000D01*
X210010000Y-99490000D02*
X212250000Y-99490000D01*
X207010000Y-99490000D02*
X209250000Y-99490000D01*
X204010000Y-99490000D02*
X206250000Y-99490000D01*
X201010000Y-99490000D02*
X203250000Y-99490000D01*
X198010000Y-99490000D02*
X200250000Y-99490000D01*
X195010000Y-99490000D02*
X197250000Y-99490000D01*
X192010000Y-99490000D02*
X194250000Y-99490000D01*
X189010000Y-99490000D02*
X191250000Y-99490000D01*
X186010000Y-99490000D02*
X188250000Y-99490000D01*
X183010000Y-99490000D02*
X185250000Y-99490000D01*
X180010000Y-99490000D02*
X182250000Y-99490000D01*
X177010000Y-99490000D02*
X179250000Y-99490000D01*
X174010000Y-99490000D02*
X176250000Y-99490000D01*
X171010000Y-99490000D02*
X173250000Y-99490000D01*
X168010000Y-99490000D02*
X170250000Y-99490000D01*
X165010000Y-99490000D02*
X167250000Y-99490000D01*
X162010000Y-99490000D02*
X164250000Y-99490000D01*
X159010000Y-99490000D02*
X161250000Y-99490000D01*
X156010000Y-99490000D02*
X158250000Y-99490000D01*
X153010000Y-99490000D02*
X155250000Y-99490000D01*
X150010000Y-99490000D02*
X152250000Y-99490000D01*
X147010000Y-99490000D02*
X149250000Y-99490000D01*
X144010000Y-99490000D02*
X146250000Y-99490000D01*
X141010000Y-99490000D02*
X143250000Y-99490000D01*
X138010000Y-99490000D02*
X140250000Y-99490000D01*
X135010000Y-99490000D02*
X137250000Y-99490000D01*
X132010000Y-99490000D02*
X134250000Y-99490000D01*
X129010000Y-99490000D02*
X131250000Y-99490000D01*
X126010000Y-99490000D02*
X128250000Y-99490000D01*
X123010000Y-99490000D02*
X125250000Y-99490000D01*
X120010000Y-99490000D02*
X122250000Y-99490000D01*
X117010000Y-99490000D02*
X119250000Y-99490000D01*
X114010000Y-99490000D02*
X116250000Y-99490000D01*
X111010000Y-99490000D02*
X113250000Y-99490000D01*
X108010000Y-99490000D02*
X110250000Y-99490000D01*
X105010000Y-99490000D02*
X107250000Y-99490000D01*
X102010000Y-99490000D02*
X104250000Y-99490000D01*
X99010000Y-99490000D02*
X101250000Y-99490000D01*
X96010000Y-99490000D02*
X98250000Y-99490000D01*
X93010000Y-99490000D02*
X95250000Y-99490000D01*
X90010000Y-99490000D02*
X92250000Y-99490000D01*
X87010000Y-99490000D02*
X89250000Y-99490000D01*
X84010000Y-99490000D02*
X86250000Y-99490000D01*
X81010000Y-99490000D02*
X83250000Y-99490000D01*
X78010000Y-99490000D02*
X80250000Y-99490000D01*
X75010000Y-99490000D02*
X77250000Y-99490000D01*
X72010000Y-99490000D02*
X74250000Y-99490000D01*
X69010000Y-99490000D02*
X71250000Y-99490000D01*
X66010000Y-99490000D02*
X68250000Y-99490000D01*
X63010000Y-99490000D02*
X65250000Y-99490000D01*
X252010000Y-96490000D02*
X254250000Y-96490000D01*
X249010000Y-96490000D02*
X251250000Y-96490000D01*
X246010000Y-96490000D02*
X248250000Y-96490000D01*
X243010000Y-96490000D02*
X245250000Y-96490000D01*
X240010000Y-96490000D02*
X242250000Y-96490000D01*
X237010000Y-96490000D02*
X239250000Y-96490000D01*
X234010000Y-96490000D02*
X236250000Y-96490000D01*
X231010000Y-96490000D02*
X233250000Y-96490000D01*
X228010000Y-96490000D02*
X230250000Y-96490000D01*
X225010000Y-96490000D02*
X227250000Y-96490000D01*
X222010000Y-96490000D02*
X224250000Y-96490000D01*
X219010000Y-96490000D02*
X221250000Y-96490000D01*
X216010000Y-96490000D02*
X218250000Y-96490000D01*
X213010000Y-96490000D02*
X215250000Y-96490000D01*
X210010000Y-96490000D02*
X212250000Y-96490000D01*
X207010000Y-96490000D02*
X209250000Y-96490000D01*
X204010000Y-96490000D02*
X206250000Y-96490000D01*
X201010000Y-96490000D02*
X203250000Y-96490000D01*
X198010000Y-96490000D02*
X200250000Y-96490000D01*
X195010000Y-96490000D02*
X197250000Y-96490000D01*
X192010000Y-96490000D02*
X194250000Y-96490000D01*
X189010000Y-96490000D02*
X191250000Y-96490000D01*
X186010000Y-96490000D02*
X188250000Y-96490000D01*
X183010000Y-96490000D02*
X185250000Y-96490000D01*
X180010000Y-96490000D02*
X182250000Y-96490000D01*
X177010000Y-96490000D02*
X179250000Y-96490000D01*
X174010000Y-96490000D02*
X176250000Y-96490000D01*
X171010000Y-96490000D02*
X173250000Y-96490000D01*
X168010000Y-96490000D02*
X170250000Y-96490000D01*
X165010000Y-96490000D02*
X167250000Y-96490000D01*
X162010000Y-96490000D02*
X164250000Y-96490000D01*
X159010000Y-96490000D02*
X161250000Y-96490000D01*
X156010000Y-96490000D02*
X158250000Y-96490000D01*
X153010000Y-96490000D02*
X155250000Y-96490000D01*
X150010000Y-96490000D02*
X152250000Y-96490000D01*
X147010000Y-96490000D02*
X149250000Y-96490000D01*
X144010000Y-96490000D02*
X146250000Y-96490000D01*
X141010000Y-96490000D02*
X143250000Y-96490000D01*
X138010000Y-96490000D02*
X140250000Y-96490000D01*
X135010000Y-96490000D02*
X137250000Y-96490000D01*
X132010000Y-96490000D02*
X134250000Y-96490000D01*
X129010000Y-96490000D02*
X131250000Y-96490000D01*
X126010000Y-96490000D02*
X128250000Y-96490000D01*
X123010000Y-96490000D02*
X125250000Y-96490000D01*
X120010000Y-96490000D02*
X122250000Y-96490000D01*
X117010000Y-96490000D02*
X119250000Y-96490000D01*
X114010000Y-96490000D02*
X116250000Y-96490000D01*
X111010000Y-96490000D02*
X113250000Y-96490000D01*
X108010000Y-96490000D02*
X110250000Y-96490000D01*
X105010000Y-96490000D02*
X107250000Y-96490000D01*
X102010000Y-96490000D02*
X104250000Y-96490000D01*
X99010000Y-96490000D02*
X101250000Y-96490000D01*
X96010000Y-96490000D02*
X98250000Y-96490000D01*
X93010000Y-96490000D02*
X95250000Y-96490000D01*
X90010000Y-96490000D02*
X92250000Y-96490000D01*
X87010000Y-96490000D02*
X89250000Y-96490000D01*
X84010000Y-96490000D02*
X86250000Y-96490000D01*
X81010000Y-96490000D02*
X83250000Y-96490000D01*
X78010000Y-96490000D02*
X80250000Y-96490000D01*
X75010000Y-96490000D02*
X77250000Y-96490000D01*
X72010000Y-96490000D02*
X74250000Y-96490000D01*
X69010000Y-96490000D02*
X71250000Y-96490000D01*
X66010000Y-96490000D02*
X68250000Y-96490000D01*
X63010000Y-96490000D02*
X65250000Y-96490000D01*
X252010000Y-93490000D02*
X254250000Y-93490000D01*
X249010000Y-93490000D02*
X251250000Y-93490000D01*
X246010000Y-93490000D02*
X248250000Y-93490000D01*
X243010000Y-93490000D02*
X245250000Y-93490000D01*
X240010000Y-93490000D02*
X242250000Y-93490000D01*
X237010000Y-93490000D02*
X239250000Y-93490000D01*
X234010000Y-93490000D02*
X236250000Y-93490000D01*
X231010000Y-93490000D02*
X233250000Y-93490000D01*
X228010000Y-93490000D02*
X230250000Y-93490000D01*
X225010000Y-93490000D02*
X227250000Y-93490000D01*
X222010000Y-93490000D02*
X224250000Y-93490000D01*
X219010000Y-93490000D02*
X221250000Y-93490000D01*
X216010000Y-93490000D02*
X218250000Y-93490000D01*
X213010000Y-93490000D02*
X215250000Y-93490000D01*
X210010000Y-93490000D02*
X212250000Y-93490000D01*
X207010000Y-93490000D02*
X209250000Y-93490000D01*
X204010000Y-93490000D02*
X206250000Y-93490000D01*
X201010000Y-93490000D02*
X203250000Y-93490000D01*
X198010000Y-93490000D02*
X200250000Y-93490000D01*
X195010000Y-93490000D02*
X197250000Y-93490000D01*
X192010000Y-93490000D02*
X194250000Y-93490000D01*
X189010000Y-93490000D02*
X191250000Y-93490000D01*
X186010000Y-93490000D02*
X188250000Y-93490000D01*
X183010000Y-93490000D02*
X185250000Y-93490000D01*
X180010000Y-93490000D02*
X182250000Y-93490000D01*
X177010000Y-93490000D02*
X179250000Y-93490000D01*
X174010000Y-93490000D02*
X176250000Y-93490000D01*
X171010000Y-93490000D02*
X173250000Y-93490000D01*
X168010000Y-93490000D02*
X170250000Y-93490000D01*
X165010000Y-93490000D02*
X167250000Y-93490000D01*
X162010000Y-93490000D02*
X164250000Y-93490000D01*
X159010000Y-93490000D02*
X161250000Y-93490000D01*
X156010000Y-93490000D02*
X158250000Y-93490000D01*
X153010000Y-93490000D02*
X155250000Y-93490000D01*
X150010000Y-93490000D02*
X152250000Y-93490000D01*
X147010000Y-93490000D02*
X149250000Y-93490000D01*
X144010000Y-93490000D02*
X146250000Y-93490000D01*
X141010000Y-93490000D02*
X143250000Y-93490000D01*
X138010000Y-93490000D02*
X140250000Y-93490000D01*
X135010000Y-93490000D02*
X137250000Y-93490000D01*
X132010000Y-93490000D02*
X134250000Y-93490000D01*
X129010000Y-93490000D02*
X131250000Y-93490000D01*
X126010000Y-93490000D02*
X128250000Y-93490000D01*
X123010000Y-93490000D02*
X125250000Y-93490000D01*
X120010000Y-93490000D02*
X122250000Y-93490000D01*
X117010000Y-93490000D02*
X119250000Y-93490000D01*
X114010000Y-93490000D02*
X116250000Y-93490000D01*
X111010000Y-93490000D02*
X113250000Y-93490000D01*
X108010000Y-93490000D02*
X110250000Y-93490000D01*
X105010000Y-93490000D02*
X107250000Y-93490000D01*
X102010000Y-93490000D02*
X104250000Y-93490000D01*
X99010000Y-93490000D02*
X101250000Y-93490000D01*
X96010000Y-93490000D02*
X98250000Y-93490000D01*
X93010000Y-93490000D02*
X95250000Y-93490000D01*
X90010000Y-93490000D02*
X92250000Y-93490000D01*
X87010000Y-93490000D02*
X89250000Y-93490000D01*
X84010000Y-93490000D02*
X86250000Y-93490000D01*
X81010000Y-93490000D02*
X83250000Y-93490000D01*
X78010000Y-93490000D02*
X80250000Y-93490000D01*
X75010000Y-93490000D02*
X77250000Y-93490000D01*
X72010000Y-93490000D02*
X74250000Y-93490000D01*
X69010000Y-93490000D02*
X71250000Y-93490000D01*
X66010000Y-93490000D02*
X68250000Y-93490000D01*
X63010000Y-93490000D02*
X65250000Y-93490000D01*
X252010000Y-90490000D02*
X254250000Y-90490000D01*
X249010000Y-90490000D02*
X251250000Y-90490000D01*
X246010000Y-90490000D02*
X248250000Y-90490000D01*
X243010000Y-90490000D02*
X245250000Y-90490000D01*
X240010000Y-90490000D02*
X242250000Y-90490000D01*
X237010000Y-90490000D02*
X239250000Y-90490000D01*
X234010000Y-90490000D02*
X236250000Y-90490000D01*
X231010000Y-90490000D02*
X233250000Y-90490000D01*
X228010000Y-90490000D02*
X230250000Y-90490000D01*
X225010000Y-90490000D02*
X227250000Y-90490000D01*
X222010000Y-90490000D02*
X224250000Y-90490000D01*
X219010000Y-90490000D02*
X221250000Y-90490000D01*
X216010000Y-90490000D02*
X218250000Y-90490000D01*
X213010000Y-90490000D02*
X215250000Y-90490000D01*
X210010000Y-90490000D02*
X212250000Y-90490000D01*
X207010000Y-90490000D02*
X209250000Y-90490000D01*
X204010000Y-90490000D02*
X206250000Y-90490000D01*
X201010000Y-90490000D02*
X203250000Y-90490000D01*
X198010000Y-90490000D02*
X200250000Y-90490000D01*
X195010000Y-90490000D02*
X197250000Y-90490000D01*
X192010000Y-90490000D02*
X194250000Y-90490000D01*
X189010000Y-90490000D02*
X191250000Y-90490000D01*
X186010000Y-90490000D02*
X188250000Y-90490000D01*
X183010000Y-90490000D02*
X185250000Y-90490000D01*
X180010000Y-90490000D02*
X182250000Y-90490000D01*
X177010000Y-90490000D02*
X179250000Y-90490000D01*
X174010000Y-90490000D02*
X176250000Y-90490000D01*
X171010000Y-90490000D02*
X173250000Y-90490000D01*
X168010000Y-90490000D02*
X170250000Y-90490000D01*
X165010000Y-90490000D02*
X167250000Y-90490000D01*
X162010000Y-90490000D02*
X164250000Y-90490000D01*
X159010000Y-90490000D02*
X161250000Y-90490000D01*
X156010000Y-90490000D02*
X158250000Y-90490000D01*
X153010000Y-90490000D02*
X155250000Y-90490000D01*
X150010000Y-90490000D02*
X152250000Y-90490000D01*
X147010000Y-90490000D02*
X149250000Y-90490000D01*
X144010000Y-90490000D02*
X146250000Y-90490000D01*
X141010000Y-90490000D02*
X143250000Y-90490000D01*
X138010000Y-90490000D02*
X140250000Y-90490000D01*
X135010000Y-90490000D02*
X137250000Y-90490000D01*
X132010000Y-90490000D02*
X134250000Y-90490000D01*
X129010000Y-90490000D02*
X131250000Y-90490000D01*
X126010000Y-90490000D02*
X128250000Y-90490000D01*
X123010000Y-90490000D02*
X125250000Y-90490000D01*
X120010000Y-90490000D02*
X122250000Y-90490000D01*
X117010000Y-90490000D02*
X119250000Y-90490000D01*
X114010000Y-90490000D02*
X116250000Y-90490000D01*
X111010000Y-90490000D02*
X113250000Y-90490000D01*
X108010000Y-90490000D02*
X110250000Y-90490000D01*
X105010000Y-90490000D02*
X107250000Y-90490000D01*
X102010000Y-90490000D02*
X104250000Y-90490000D01*
X99010000Y-90490000D02*
X101250000Y-90490000D01*
X96010000Y-90490000D02*
X98250000Y-90490000D01*
X93010000Y-90490000D02*
X95250000Y-90490000D01*
X90010000Y-90490000D02*
X92250000Y-90490000D01*
X87010000Y-90490000D02*
X89250000Y-90490000D01*
X84010000Y-90490000D02*
X86250000Y-90490000D01*
X81010000Y-90490000D02*
X83250000Y-90490000D01*
X78010000Y-90490000D02*
X80250000Y-90490000D01*
X75010000Y-90490000D02*
X77250000Y-90490000D01*
X72010000Y-90490000D02*
X74250000Y-90490000D01*
X69010000Y-90490000D02*
X71250000Y-90490000D01*
X66010000Y-90490000D02*
X68250000Y-90490000D01*
X63010000Y-90490000D02*
X65250000Y-90490000D01*
X252010000Y-87490000D02*
X254250000Y-87490000D01*
X249010000Y-87490000D02*
X251250000Y-87490000D01*
X246010000Y-87490000D02*
X248250000Y-87490000D01*
X243010000Y-87490000D02*
X245250000Y-87490000D01*
X240010000Y-87490000D02*
X242250000Y-87490000D01*
X237010000Y-87490000D02*
X239250000Y-87490000D01*
X234010000Y-87490000D02*
X236250000Y-87490000D01*
X231010000Y-87490000D02*
X233250000Y-87490000D01*
X228010000Y-87490000D02*
X230250000Y-87490000D01*
X225010000Y-87490000D02*
X227250000Y-87490000D01*
X222010000Y-87490000D02*
X224250000Y-87490000D01*
X219010000Y-87490000D02*
X221250000Y-87490000D01*
X216010000Y-87490000D02*
X218250000Y-87490000D01*
X213010000Y-87490000D02*
X215250000Y-87490000D01*
X210010000Y-87490000D02*
X212250000Y-87490000D01*
X207010000Y-87490000D02*
X209250000Y-87490000D01*
X204010000Y-87490000D02*
X206250000Y-87490000D01*
X201010000Y-87490000D02*
X203250000Y-87490000D01*
X198010000Y-87490000D02*
X200250000Y-87490000D01*
X195010000Y-87490000D02*
X197250000Y-87490000D01*
X192010000Y-87490000D02*
X194250000Y-87490000D01*
X189010000Y-87490000D02*
X191250000Y-87490000D01*
X186010000Y-87490000D02*
X188250000Y-87490000D01*
X183010000Y-87490000D02*
X185250000Y-87490000D01*
X180010000Y-87490000D02*
X182250000Y-87490000D01*
X177010000Y-87490000D02*
X179250000Y-87490000D01*
X174010000Y-87490000D02*
X176250000Y-87490000D01*
X171010000Y-87490000D02*
X173250000Y-87490000D01*
X168010000Y-87490000D02*
X170250000Y-87490000D01*
X165010000Y-87490000D02*
X167250000Y-87490000D01*
X162010000Y-87490000D02*
X164250000Y-87490000D01*
X159010000Y-87490000D02*
X161250000Y-87490000D01*
X156010000Y-87490000D02*
X158250000Y-87490000D01*
X153010000Y-87490000D02*
X155250000Y-87490000D01*
X150010000Y-87490000D02*
X152250000Y-87490000D01*
X147010000Y-87490000D02*
X149250000Y-87490000D01*
X144010000Y-87490000D02*
X146250000Y-87490000D01*
X141010000Y-87490000D02*
X143250000Y-87490000D01*
X138010000Y-87490000D02*
X140250000Y-87490000D01*
X135010000Y-87490000D02*
X137250000Y-87490000D01*
X132010000Y-87490000D02*
X134250000Y-87490000D01*
X129010000Y-87490000D02*
X131250000Y-87490000D01*
X126010000Y-87490000D02*
X128250000Y-87490000D01*
X123010000Y-87490000D02*
X125250000Y-87490000D01*
X120010000Y-87490000D02*
X122250000Y-87490000D01*
X117010000Y-87490000D02*
X119250000Y-87490000D01*
X114010000Y-87490000D02*
X116250000Y-87490000D01*
X111010000Y-87490000D02*
X113250000Y-87490000D01*
X108010000Y-87490000D02*
X110250000Y-87490000D01*
X105010000Y-87490000D02*
X107250000Y-87490000D01*
X102010000Y-87490000D02*
X104250000Y-87490000D01*
X99010000Y-87490000D02*
X101250000Y-87490000D01*
X96010000Y-87490000D02*
X98250000Y-87490000D01*
X93010000Y-87490000D02*
X95250000Y-87490000D01*
X90010000Y-87490000D02*
X92250000Y-87490000D01*
X87010000Y-87490000D02*
X89250000Y-87490000D01*
X84010000Y-87490000D02*
X86250000Y-87490000D01*
X81010000Y-87490000D02*
X83250000Y-87490000D01*
X78010000Y-87490000D02*
X80250000Y-87490000D01*
X75010000Y-87490000D02*
X77250000Y-87490000D01*
X72010000Y-87490000D02*
X74250000Y-87490000D01*
X69010000Y-87490000D02*
X71250000Y-87490000D01*
X66010000Y-87490000D02*
X68250000Y-87490000D01*
X63010000Y-87490000D02*
X65250000Y-87490000D01*
X252010000Y-84490000D02*
X254250000Y-84490000D01*
X249010000Y-84490000D02*
X251250000Y-84490000D01*
X246010000Y-84490000D02*
X248250000Y-84490000D01*
X243010000Y-84490000D02*
X245250000Y-84490000D01*
X240010000Y-84490000D02*
X242250000Y-84490000D01*
X237010000Y-84490000D02*
X239250000Y-84490000D01*
X234010000Y-84490000D02*
X236250000Y-84490000D01*
X231010000Y-84490000D02*
X233250000Y-84490000D01*
X228010000Y-84490000D02*
X230250000Y-84490000D01*
X225010000Y-84490000D02*
X227250000Y-84490000D01*
X222010000Y-84490000D02*
X224250000Y-84490000D01*
X219010000Y-84490000D02*
X221250000Y-84490000D01*
X216010000Y-84490000D02*
X218250000Y-84490000D01*
X213010000Y-84490000D02*
X215250000Y-84490000D01*
X210010000Y-84490000D02*
X212250000Y-84490000D01*
X207010000Y-84490000D02*
X209250000Y-84490000D01*
X204010000Y-84490000D02*
X206250000Y-84490000D01*
X201010000Y-84490000D02*
X203250000Y-84490000D01*
X198010000Y-84490000D02*
X200250000Y-84490000D01*
X195010000Y-84490000D02*
X197250000Y-84490000D01*
X192010000Y-84490000D02*
X194250000Y-84490000D01*
X189010000Y-84490000D02*
X191250000Y-84490000D01*
X186010000Y-84490000D02*
X188250000Y-84490000D01*
X183010000Y-84490000D02*
X185250000Y-84490000D01*
X180010000Y-84490000D02*
X182250000Y-84490000D01*
X177010000Y-84490000D02*
X179250000Y-84490000D01*
X174010000Y-84490000D02*
X176250000Y-84490000D01*
X171010000Y-84490000D02*
X173250000Y-84490000D01*
X168010000Y-84490000D02*
X170250000Y-84490000D01*
X165010000Y-84490000D02*
X167250000Y-84490000D01*
X162010000Y-84490000D02*
X164250000Y-84490000D01*
X159010000Y-84490000D02*
X161250000Y-84490000D01*
X156010000Y-84490000D02*
X158250000Y-84490000D01*
X153010000Y-84490000D02*
X155250000Y-84490000D01*
X150010000Y-84490000D02*
X152250000Y-84490000D01*
X147010000Y-84490000D02*
X149250000Y-84490000D01*
X144010000Y-84490000D02*
X146250000Y-84490000D01*
X141010000Y-84490000D02*
X143250000Y-84490000D01*
X138010000Y-84490000D02*
X140250000Y-84490000D01*
X135010000Y-84490000D02*
X137250000Y-84490000D01*
X132010000Y-84490000D02*
X134250000Y-84490000D01*
X129010000Y-84490000D02*
X131250000Y-84490000D01*
X126010000Y-84490000D02*
X128250000Y-84490000D01*
X123010000Y-84490000D02*
X125250000Y-84490000D01*
X120010000Y-84490000D02*
X122250000Y-84490000D01*
X117010000Y-84490000D02*
X119250000Y-84490000D01*
X114010000Y-84490000D02*
X116250000Y-84490000D01*
X111010000Y-84490000D02*
X113250000Y-84490000D01*
X108010000Y-84490000D02*
X110250000Y-84490000D01*
X105010000Y-84490000D02*
X107250000Y-84490000D01*
X102010000Y-84490000D02*
X104250000Y-84490000D01*
X99010000Y-84490000D02*
X101250000Y-84490000D01*
X96010000Y-84490000D02*
X98250000Y-84490000D01*
X93010000Y-84490000D02*
X95250000Y-84490000D01*
X90010000Y-84490000D02*
X92250000Y-84490000D01*
X87010000Y-84490000D02*
X89250000Y-84490000D01*
X84010000Y-84490000D02*
X86250000Y-84490000D01*
X81010000Y-84490000D02*
X83250000Y-84490000D01*
X78010000Y-84490000D02*
X80250000Y-84490000D01*
X75010000Y-84490000D02*
X77250000Y-84490000D01*
X72010000Y-84490000D02*
X74250000Y-84490000D01*
X69010000Y-84490000D02*
X71250000Y-84490000D01*
X66010000Y-84490000D02*
X68250000Y-84490000D01*
X63010000Y-84490000D02*
X65250000Y-84490000D01*
X252010000Y-81490000D02*
X254250000Y-81490000D01*
X249010000Y-81490000D02*
X251250000Y-81490000D01*
X246010000Y-81490000D02*
X248250000Y-81490000D01*
X243010000Y-81490000D02*
X245250000Y-81490000D01*
X240010000Y-81490000D02*
X242250000Y-81490000D01*
X237010000Y-81490000D02*
X239250000Y-81490000D01*
X234010000Y-81490000D02*
X236250000Y-81490000D01*
X231010000Y-81490000D02*
X233250000Y-81490000D01*
X228010000Y-81490000D02*
X230250000Y-81490000D01*
X225010000Y-81490000D02*
X227250000Y-81490000D01*
X222010000Y-81490000D02*
X224250000Y-81490000D01*
X219010000Y-81490000D02*
X221250000Y-81490000D01*
X216010000Y-81490000D02*
X218250000Y-81490000D01*
X213010000Y-81490000D02*
X215250000Y-81490000D01*
X210010000Y-81490000D02*
X212250000Y-81490000D01*
X207010000Y-81490000D02*
X209250000Y-81490000D01*
X204010000Y-81490000D02*
X206250000Y-81490000D01*
X201010000Y-81490000D02*
X203250000Y-81490000D01*
X198010000Y-81490000D02*
X200250000Y-81490000D01*
X195010000Y-81490000D02*
X197250000Y-81490000D01*
X192010000Y-81490000D02*
X194250000Y-81490000D01*
X189010000Y-81490000D02*
X191250000Y-81490000D01*
X186010000Y-81490000D02*
X188250000Y-81490000D01*
X183010000Y-81490000D02*
X185250000Y-81490000D01*
X180010000Y-81490000D02*
X182250000Y-81490000D01*
X177010000Y-81490000D02*
X179250000Y-81490000D01*
X174010000Y-81490000D02*
X176250000Y-81490000D01*
X171010000Y-81490000D02*
X173250000Y-81490000D01*
X168010000Y-81490000D02*
X170250000Y-81490000D01*
X165010000Y-81490000D02*
X167250000Y-81490000D01*
X162010000Y-81490000D02*
X164250000Y-81490000D01*
X159010000Y-81490000D02*
X161250000Y-81490000D01*
X156010000Y-81490000D02*
X158250000Y-81490000D01*
X153010000Y-81490000D02*
X155250000Y-81490000D01*
X150010000Y-81490000D02*
X152250000Y-81490000D01*
X147010000Y-81490000D02*
X149250000Y-81490000D01*
X144010000Y-81490000D02*
X146250000Y-81490000D01*
X141010000Y-81490000D02*
X143250000Y-81490000D01*
X138010000Y-81490000D02*
X140250000Y-81490000D01*
X135010000Y-81490000D02*
X137250000Y-81490000D01*
X132010000Y-81490000D02*
X134250000Y-81490000D01*
X129010000Y-81490000D02*
X131250000Y-81490000D01*
X126010000Y-81490000D02*
X128250000Y-81490000D01*
X123010000Y-81490000D02*
X125250000Y-81490000D01*
X120010000Y-81490000D02*
X122250000Y-81490000D01*
X117010000Y-81490000D02*
X119250000Y-81490000D01*
X114010000Y-81490000D02*
X116250000Y-81490000D01*
X111010000Y-81490000D02*
X113250000Y-81490000D01*
X108010000Y-81490000D02*
X110250000Y-81490000D01*
X105010000Y-81490000D02*
X107250000Y-81490000D01*
X102010000Y-81490000D02*
X104250000Y-81490000D01*
X99010000Y-81490000D02*
X101250000Y-81490000D01*
X96010000Y-81490000D02*
X98250000Y-81490000D01*
X93010000Y-81490000D02*
X95250000Y-81490000D01*
X90010000Y-81490000D02*
X92250000Y-81490000D01*
X87010000Y-81490000D02*
X89250000Y-81490000D01*
X84010000Y-81490000D02*
X86250000Y-81490000D01*
X81010000Y-81490000D02*
X83250000Y-81490000D01*
X78010000Y-81490000D02*
X80250000Y-81490000D01*
X75010000Y-81490000D02*
X77250000Y-81490000D01*
X72010000Y-81490000D02*
X74250000Y-81490000D01*
X69010000Y-81490000D02*
X71250000Y-81490000D01*
X66010000Y-81490000D02*
X68250000Y-81490000D01*
X63010000Y-81490000D02*
X65250000Y-81490000D01*
X252010000Y-78490000D02*
X254250000Y-78490000D01*
X249010000Y-78490000D02*
X251250000Y-78490000D01*
X246010000Y-78490000D02*
X248250000Y-78490000D01*
X243010000Y-78490000D02*
X245250000Y-78490000D01*
X240010000Y-78490000D02*
X242250000Y-78490000D01*
X237010000Y-78490000D02*
X239250000Y-78490000D01*
X234010000Y-78490000D02*
X236250000Y-78490000D01*
X231010000Y-78490000D02*
X233250000Y-78490000D01*
X228010000Y-78490000D02*
X230250000Y-78490000D01*
X225010000Y-78490000D02*
X227250000Y-78490000D01*
X222010000Y-78490000D02*
X224250000Y-78490000D01*
X219010000Y-78490000D02*
X221250000Y-78490000D01*
X216010000Y-78490000D02*
X218250000Y-78490000D01*
X213010000Y-78490000D02*
X215250000Y-78490000D01*
X210010000Y-78490000D02*
X212250000Y-78490000D01*
X207010000Y-78490000D02*
X209250000Y-78490000D01*
X204010000Y-78490000D02*
X206250000Y-78490000D01*
X201010000Y-78490000D02*
X203250000Y-78490000D01*
X198010000Y-78490000D02*
X200250000Y-78490000D01*
X195010000Y-78490000D02*
X197250000Y-78490000D01*
X192010000Y-78490000D02*
X194250000Y-78490000D01*
X189010000Y-78490000D02*
X191250000Y-78490000D01*
X186010000Y-78490000D02*
X188250000Y-78490000D01*
X183010000Y-78490000D02*
X185250000Y-78490000D01*
X180010000Y-78490000D02*
X182250000Y-78490000D01*
X177010000Y-78490000D02*
X179250000Y-78490000D01*
X174010000Y-78490000D02*
X176250000Y-78490000D01*
X171010000Y-78490000D02*
X173250000Y-78490000D01*
X168010000Y-78490000D02*
X170250000Y-78490000D01*
X165010000Y-78490000D02*
X167250000Y-78490000D01*
X162010000Y-78490000D02*
X164250000Y-78490000D01*
X159010000Y-78490000D02*
X161250000Y-78490000D01*
X156010000Y-78490000D02*
X158250000Y-78490000D01*
X153010000Y-78490000D02*
X155250000Y-78490000D01*
X150010000Y-78490000D02*
X152250000Y-78490000D01*
X147010000Y-78490000D02*
X149250000Y-78490000D01*
X144010000Y-78490000D02*
X146250000Y-78490000D01*
X141010000Y-78490000D02*
X143250000Y-78490000D01*
X138010000Y-78490000D02*
X140250000Y-78490000D01*
X135010000Y-78490000D02*
X137250000Y-78490000D01*
X132010000Y-78490000D02*
X134250000Y-78490000D01*
X129010000Y-78490000D02*
X131250000Y-78490000D01*
X126010000Y-78490000D02*
X128250000Y-78490000D01*
X123010000Y-78490000D02*
X125250000Y-78490000D01*
X120010000Y-78490000D02*
X122250000Y-78490000D01*
X117010000Y-78490000D02*
X119250000Y-78490000D01*
X114010000Y-78490000D02*
X116250000Y-78490000D01*
X111010000Y-78490000D02*
X113250000Y-78490000D01*
X108010000Y-78490000D02*
X110250000Y-78490000D01*
X105010000Y-78490000D02*
X107250000Y-78490000D01*
X102010000Y-78490000D02*
X104250000Y-78490000D01*
X99010000Y-78490000D02*
X101250000Y-78490000D01*
X96010000Y-78490000D02*
X98250000Y-78490000D01*
X93010000Y-78490000D02*
X95250000Y-78490000D01*
X90010000Y-78490000D02*
X92250000Y-78490000D01*
X87010000Y-78490000D02*
X89250000Y-78490000D01*
X84010000Y-78490000D02*
X86250000Y-78490000D01*
X81010000Y-78490000D02*
X83250000Y-78490000D01*
X78010000Y-78490000D02*
X80250000Y-78490000D01*
X75010000Y-78490000D02*
X77250000Y-78490000D01*
X72010000Y-78490000D02*
X74250000Y-78490000D01*
X69010000Y-78490000D02*
X71250000Y-78490000D01*
X66010000Y-78490000D02*
X68250000Y-78490000D01*
X63010000Y-78490000D02*
X65250000Y-78490000D01*
X252010000Y-75490000D02*
X254250000Y-75490000D01*
X249010000Y-75490000D02*
X251250000Y-75490000D01*
X246010000Y-75490000D02*
X248250000Y-75490000D01*
X243010000Y-75490000D02*
X245250000Y-75490000D01*
X240010000Y-75490000D02*
X242250000Y-75490000D01*
X237010000Y-75490000D02*
X239250000Y-75490000D01*
X234010000Y-75490000D02*
X236250000Y-75490000D01*
X231010000Y-75490000D02*
X233250000Y-75490000D01*
X228010000Y-75490000D02*
X230250000Y-75490000D01*
X225010000Y-75490000D02*
X227250000Y-75490000D01*
X222010000Y-75490000D02*
X224250000Y-75490000D01*
X219010000Y-75490000D02*
X221250000Y-75490000D01*
X216010000Y-75490000D02*
X218250000Y-75490000D01*
X213010000Y-75490000D02*
X215250000Y-75490000D01*
X210010000Y-75490000D02*
X212250000Y-75490000D01*
X207010000Y-75490000D02*
X209250000Y-75490000D01*
X204010000Y-75490000D02*
X206250000Y-75490000D01*
X201010000Y-75490000D02*
X203250000Y-75490000D01*
X198010000Y-75490000D02*
X200250000Y-75490000D01*
X195010000Y-75490000D02*
X197250000Y-75490000D01*
X192010000Y-75490000D02*
X194250000Y-75490000D01*
X189010000Y-75490000D02*
X191250000Y-75490000D01*
X186010000Y-75490000D02*
X188250000Y-75490000D01*
X183010000Y-75490000D02*
X185250000Y-75490000D01*
X180010000Y-75490000D02*
X182250000Y-75490000D01*
X177010000Y-75490000D02*
X179250000Y-75490000D01*
X174010000Y-75490000D02*
X176250000Y-75490000D01*
X171010000Y-75490000D02*
X173250000Y-75490000D01*
X168010000Y-75490000D02*
X170250000Y-75490000D01*
X165010000Y-75490000D02*
X167250000Y-75490000D01*
X162010000Y-75490000D02*
X164250000Y-75490000D01*
X159010000Y-75490000D02*
X161250000Y-75490000D01*
X156010000Y-75490000D02*
X158250000Y-75490000D01*
X153010000Y-75490000D02*
X155250000Y-75490000D01*
X150010000Y-75490000D02*
X152250000Y-75490000D01*
X147010000Y-75490000D02*
X149250000Y-75490000D01*
X144010000Y-75490000D02*
X146250000Y-75490000D01*
X141010000Y-75490000D02*
X143250000Y-75490000D01*
X138010000Y-75490000D02*
X140250000Y-75490000D01*
X135010000Y-75490000D02*
X137250000Y-75490000D01*
X132010000Y-75490000D02*
X134250000Y-75490000D01*
X129010000Y-75490000D02*
X131250000Y-75490000D01*
X126010000Y-75490000D02*
X128250000Y-75490000D01*
X123010000Y-75490000D02*
X125250000Y-75490000D01*
X120010000Y-75490000D02*
X122250000Y-75490000D01*
X117010000Y-75490000D02*
X119250000Y-75490000D01*
X114010000Y-75490000D02*
X116250000Y-75490000D01*
X111010000Y-75490000D02*
X113250000Y-75490000D01*
X108010000Y-75490000D02*
X110250000Y-75490000D01*
X105010000Y-75490000D02*
X107250000Y-75490000D01*
X102010000Y-75490000D02*
X104250000Y-75490000D01*
X99010000Y-75490000D02*
X101250000Y-75490000D01*
X96010000Y-75490000D02*
X98250000Y-75490000D01*
X93010000Y-75490000D02*
X95250000Y-75490000D01*
X90010000Y-75490000D02*
X92250000Y-75490000D01*
X87010000Y-75490000D02*
X89250000Y-75490000D01*
X84010000Y-75490000D02*
X86250000Y-75490000D01*
X81010000Y-75490000D02*
X83250000Y-75490000D01*
X78010000Y-75490000D02*
X80250000Y-75490000D01*
X75010000Y-75490000D02*
X77250000Y-75490000D01*
X72010000Y-75490000D02*
X74250000Y-75490000D01*
X69010000Y-75490000D02*
X71250000Y-75490000D01*
X66010000Y-75490000D02*
X68250000Y-75490000D01*
X63010000Y-75490000D02*
X65250000Y-75490000D01*
X252010000Y-72490000D02*
X254250000Y-72490000D01*
X249010000Y-72490000D02*
X251250000Y-72490000D01*
X246010000Y-72490000D02*
X248250000Y-72490000D01*
X243010000Y-72490000D02*
X245250000Y-72490000D01*
X240010000Y-72490000D02*
X242250000Y-72490000D01*
X237010000Y-72490000D02*
X239250000Y-72490000D01*
X234010000Y-72490000D02*
X236250000Y-72490000D01*
X231010000Y-72490000D02*
X233250000Y-72490000D01*
X228010000Y-72490000D02*
X230250000Y-72490000D01*
X225010000Y-72490000D02*
X227250000Y-72490000D01*
X222010000Y-72490000D02*
X224250000Y-72490000D01*
X219010000Y-72490000D02*
X221250000Y-72490000D01*
X216010000Y-72490000D02*
X218250000Y-72490000D01*
X213010000Y-72490000D02*
X215250000Y-72490000D01*
X210010000Y-72490000D02*
X212250000Y-72490000D01*
X207010000Y-72490000D02*
X209250000Y-72490000D01*
X204010000Y-72490000D02*
X206250000Y-72490000D01*
X201010000Y-72490000D02*
X203250000Y-72490000D01*
X198010000Y-72490000D02*
X200250000Y-72490000D01*
X195010000Y-72490000D02*
X197250000Y-72490000D01*
X192010000Y-72490000D02*
X194250000Y-72490000D01*
X189010000Y-72490000D02*
X191250000Y-72490000D01*
X186010000Y-72490000D02*
X188250000Y-72490000D01*
X183010000Y-72490000D02*
X185250000Y-72490000D01*
X180010000Y-72490000D02*
X182250000Y-72490000D01*
X177010000Y-72490000D02*
X179250000Y-72490000D01*
X174010000Y-72490000D02*
X176250000Y-72490000D01*
X171010000Y-72490000D02*
X173250000Y-72490000D01*
X168010000Y-72490000D02*
X170250000Y-72490000D01*
X165010000Y-72490000D02*
X167250000Y-72490000D01*
X162010000Y-72490000D02*
X164250000Y-72490000D01*
X159010000Y-72490000D02*
X161250000Y-72490000D01*
X156010000Y-72490000D02*
X158250000Y-72490000D01*
X153010000Y-72490000D02*
X155250000Y-72490000D01*
X150010000Y-72490000D02*
X152250000Y-72490000D01*
X147010000Y-72490000D02*
X149250000Y-72490000D01*
X144010000Y-72490000D02*
X146250000Y-72490000D01*
X141010000Y-72490000D02*
X143250000Y-72490000D01*
X138010000Y-72490000D02*
X140250000Y-72490000D01*
X135010000Y-72490000D02*
X137250000Y-72490000D01*
X132010000Y-72490000D02*
X134250000Y-72490000D01*
X129010000Y-72490000D02*
X131250000Y-72490000D01*
X126010000Y-72490000D02*
X128250000Y-72490000D01*
X123010000Y-72490000D02*
X125250000Y-72490000D01*
X120010000Y-72490000D02*
X122250000Y-72490000D01*
X117010000Y-72490000D02*
X119250000Y-72490000D01*
X114010000Y-72490000D02*
X116250000Y-72490000D01*
X111010000Y-72490000D02*
X113250000Y-72490000D01*
X108010000Y-72490000D02*
X110250000Y-72490000D01*
X105010000Y-72490000D02*
X107250000Y-72490000D01*
X102010000Y-72490000D02*
X104250000Y-72490000D01*
X99010000Y-72490000D02*
X101250000Y-72490000D01*
X96010000Y-72490000D02*
X98250000Y-72490000D01*
X93010000Y-72490000D02*
X95250000Y-72490000D01*
X90010000Y-72490000D02*
X92250000Y-72490000D01*
X87010000Y-72490000D02*
X89250000Y-72490000D01*
X84010000Y-72490000D02*
X86250000Y-72490000D01*
X81010000Y-72490000D02*
X83250000Y-72490000D01*
X78010000Y-72490000D02*
X80250000Y-72490000D01*
X75010000Y-72490000D02*
X77250000Y-72490000D01*
X72010000Y-72490000D02*
X74250000Y-72490000D01*
X69010000Y-72490000D02*
X71250000Y-72490000D01*
X66010000Y-72490000D02*
X68250000Y-72490000D01*
X63010000Y-72490000D02*
X65250000Y-72490000D01*
X252010000Y-69490000D02*
X254250000Y-69490000D01*
X249010000Y-69490000D02*
X251250000Y-69490000D01*
X246010000Y-69490000D02*
X248250000Y-69490000D01*
X243010000Y-69490000D02*
X245250000Y-69490000D01*
X240010000Y-69490000D02*
X242250000Y-69490000D01*
X237010000Y-69490000D02*
X239250000Y-69490000D01*
X234010000Y-69490000D02*
X236250000Y-69490000D01*
X231010000Y-69490000D02*
X233250000Y-69490000D01*
X228010000Y-69490000D02*
X230250000Y-69490000D01*
X225010000Y-69490000D02*
X227250000Y-69490000D01*
X222010000Y-69490000D02*
X224250000Y-69490000D01*
X219010000Y-69490000D02*
X221250000Y-69490000D01*
X216010000Y-69490000D02*
X218250000Y-69490000D01*
X213010000Y-69490000D02*
X215250000Y-69490000D01*
X210010000Y-69490000D02*
X212250000Y-69490000D01*
X207010000Y-69490000D02*
X209250000Y-69490000D01*
X204010000Y-69490000D02*
X206250000Y-69490000D01*
X201010000Y-69490000D02*
X203250000Y-69490000D01*
X198010000Y-69490000D02*
X200250000Y-69490000D01*
X195010000Y-69490000D02*
X197250000Y-69490000D01*
X192010000Y-69490000D02*
X194250000Y-69490000D01*
X189010000Y-69490000D02*
X191250000Y-69490000D01*
X186010000Y-69490000D02*
X188250000Y-69490000D01*
X183010000Y-69490000D02*
X185250000Y-69490000D01*
X180010000Y-69490000D02*
X182250000Y-69490000D01*
X177010000Y-69490000D02*
X179250000Y-69490000D01*
X174010000Y-69490000D02*
X176250000Y-69490000D01*
X171010000Y-69490000D02*
X173250000Y-69490000D01*
X168010000Y-69490000D02*
X170250000Y-69490000D01*
X165010000Y-69490000D02*
X167250000Y-69490000D01*
X162010000Y-69490000D02*
X164250000Y-69490000D01*
X159010000Y-69490000D02*
X161250000Y-69490000D01*
X156010000Y-69490000D02*
X158250000Y-69490000D01*
X153010000Y-69490000D02*
X155250000Y-69490000D01*
X150010000Y-69490000D02*
X152250000Y-69490000D01*
X147010000Y-69490000D02*
X149250000Y-69490000D01*
X144010000Y-69490000D02*
X146250000Y-69490000D01*
X141010000Y-69490000D02*
X143250000Y-69490000D01*
X138010000Y-69490000D02*
X140250000Y-69490000D01*
X135010000Y-69490000D02*
X137250000Y-69490000D01*
X132010000Y-69490000D02*
X134250000Y-69490000D01*
X129010000Y-69490000D02*
X131250000Y-69490000D01*
X126010000Y-69490000D02*
X128250000Y-69490000D01*
X123010000Y-69490000D02*
X125250000Y-69490000D01*
X120010000Y-69490000D02*
X122250000Y-69490000D01*
X117010000Y-69490000D02*
X119250000Y-69490000D01*
X114010000Y-69490000D02*
X116250000Y-69490000D01*
X111010000Y-69490000D02*
X113250000Y-69490000D01*
X108010000Y-69490000D02*
X110250000Y-69490000D01*
X105010000Y-69490000D02*
X107250000Y-69490000D01*
X102010000Y-69490000D02*
X104250000Y-69490000D01*
X99010000Y-69490000D02*
X101250000Y-69490000D01*
X96010000Y-69490000D02*
X98250000Y-69490000D01*
X93010000Y-69490000D02*
X95250000Y-69490000D01*
X90010000Y-69490000D02*
X92250000Y-69490000D01*
X87010000Y-69490000D02*
X89250000Y-69490000D01*
X84010000Y-69490000D02*
X86250000Y-69490000D01*
X81010000Y-69490000D02*
X83250000Y-69490000D01*
X78010000Y-69490000D02*
X80250000Y-69490000D01*
X75010000Y-69490000D02*
X77250000Y-69490000D01*
X72010000Y-69490000D02*
X74250000Y-69490000D01*
X69010000Y-69490000D02*
X71250000Y-69490000D01*
X66010000Y-69490000D02*
X68250000Y-69490000D01*
X63010000Y-69490000D02*
X65250000Y-69490000D01*
X252010000Y-66490000D02*
X254250000Y-66490000D01*
X249010000Y-66490000D02*
X251250000Y-66490000D01*
X246010000Y-66490000D02*
X248250000Y-66490000D01*
X243010000Y-66490000D02*
X245250000Y-66490000D01*
X240010000Y-66490000D02*
X242250000Y-66490000D01*
X237010000Y-66490000D02*
X239250000Y-66490000D01*
X234010000Y-66490000D02*
X236250000Y-66490000D01*
X231010000Y-66490000D02*
X233250000Y-66490000D01*
X228010000Y-66490000D02*
X230250000Y-66490000D01*
X225010000Y-66490000D02*
X227250000Y-66490000D01*
X222010000Y-66490000D02*
X224250000Y-66490000D01*
X219010000Y-66490000D02*
X221250000Y-66490000D01*
X216010000Y-66490000D02*
X218250000Y-66490000D01*
X213010000Y-66490000D02*
X215250000Y-66490000D01*
X210010000Y-66490000D02*
X212250000Y-66490000D01*
X207010000Y-66490000D02*
X209250000Y-66490000D01*
X204010000Y-66490000D02*
X206250000Y-66490000D01*
X201010000Y-66490000D02*
X203250000Y-66490000D01*
X198010000Y-66490000D02*
X200250000Y-66490000D01*
X195010000Y-66490000D02*
X197250000Y-66490000D01*
X192010000Y-66490000D02*
X194250000Y-66490000D01*
X189010000Y-66490000D02*
X191250000Y-66490000D01*
X186010000Y-66490000D02*
X188250000Y-66490000D01*
X183010000Y-66490000D02*
X185250000Y-66490000D01*
X180010000Y-66490000D02*
X182250000Y-66490000D01*
X177010000Y-66490000D02*
X179250000Y-66490000D01*
X174010000Y-66490000D02*
X176250000Y-66490000D01*
X171010000Y-66490000D02*
X173250000Y-66490000D01*
X168010000Y-66490000D02*
X170250000Y-66490000D01*
X165010000Y-66490000D02*
X167250000Y-66490000D01*
X162010000Y-66490000D02*
X164250000Y-66490000D01*
X159010000Y-66490000D02*
X161250000Y-66490000D01*
X156010000Y-66490000D02*
X158250000Y-66490000D01*
X153010000Y-66490000D02*
X155250000Y-66490000D01*
X150010000Y-66490000D02*
X152250000Y-66490000D01*
X147010000Y-66490000D02*
X149250000Y-66490000D01*
X144010000Y-66490000D02*
X146250000Y-66490000D01*
X141010000Y-66490000D02*
X143250000Y-66490000D01*
X138010000Y-66490000D02*
X140250000Y-66490000D01*
X135010000Y-66490000D02*
X137250000Y-66490000D01*
X132010000Y-66490000D02*
X134250000Y-66490000D01*
X129010000Y-66490000D02*
X131250000Y-66490000D01*
X126010000Y-66490000D02*
X128250000Y-66490000D01*
X123010000Y-66490000D02*
X125250000Y-66490000D01*
X120010000Y-66490000D02*
X122250000Y-66490000D01*
X117010000Y-66490000D02*
X119250000Y-66490000D01*
X114010000Y-66490000D02*
X116250000Y-66490000D01*
X111010000Y-66490000D02*
X113250000Y-66490000D01*
X108010000Y-66490000D02*
X110250000Y-66490000D01*
X105010000Y-66490000D02*
X107250000Y-66490000D01*
X102010000Y-66490000D02*
X104250000Y-66490000D01*
X99010000Y-66490000D02*
X101250000Y-66490000D01*
X96010000Y-66490000D02*
X98250000Y-66490000D01*
X93010000Y-66490000D02*
X95250000Y-66490000D01*
X90010000Y-66490000D02*
X92250000Y-66490000D01*
X87010000Y-66490000D02*
X89250000Y-66490000D01*
X84010000Y-66490000D02*
X86250000Y-66490000D01*
X81010000Y-66490000D02*
X83250000Y-66490000D01*
X78010000Y-66490000D02*
X80250000Y-66490000D01*
X75010000Y-66490000D02*
X77250000Y-66490000D01*
X72010000Y-66490000D02*
X74250000Y-66490000D01*
X69010000Y-66490000D02*
X71250000Y-66490000D01*
X66010000Y-66490000D02*
X68250000Y-66490000D01*
X63010000Y-66490000D02*
X65250000Y-66490000D01*
X252010000Y-63490000D02*
X254250000Y-63490000D01*
X249010000Y-63490000D02*
X251250000Y-63490000D01*
X246010000Y-63490000D02*
X248250000Y-63490000D01*
X243010000Y-63490000D02*
X245250000Y-63490000D01*
X240010000Y-63490000D02*
X242250000Y-63490000D01*
X237010000Y-63490000D02*
X239250000Y-63490000D01*
X234010000Y-63490000D02*
X236250000Y-63490000D01*
X231010000Y-63490000D02*
X233250000Y-63490000D01*
X228010000Y-63490000D02*
X230250000Y-63490000D01*
X225010000Y-63490000D02*
X227250000Y-63490000D01*
X222010000Y-63490000D02*
X224250000Y-63490000D01*
X219010000Y-63490000D02*
X221250000Y-63490000D01*
X216010000Y-63490000D02*
X218250000Y-63490000D01*
X213010000Y-63490000D02*
X215250000Y-63490000D01*
X210010000Y-63490000D02*
X212250000Y-63490000D01*
X207010000Y-63490000D02*
X209250000Y-63490000D01*
X204010000Y-63490000D02*
X206250000Y-63490000D01*
X201010000Y-63490000D02*
X203250000Y-63490000D01*
X198010000Y-63490000D02*
X200250000Y-63490000D01*
X195010000Y-63490000D02*
X197250000Y-63490000D01*
X192010000Y-63490000D02*
X194250000Y-63490000D01*
X189010000Y-63490000D02*
X191250000Y-63490000D01*
X186010000Y-63490000D02*
X188250000Y-63490000D01*
X183010000Y-63490000D02*
X185250000Y-63490000D01*
X180010000Y-63490000D02*
X182250000Y-63490000D01*
X177010000Y-63490000D02*
X179250000Y-63490000D01*
X174010000Y-63490000D02*
X176250000Y-63490000D01*
X171010000Y-63490000D02*
X173250000Y-63490000D01*
X168010000Y-63490000D02*
X170250000Y-63490000D01*
X165010000Y-63490000D02*
X167250000Y-63490000D01*
X162010000Y-63490000D02*
X164250000Y-63490000D01*
X159010000Y-63490000D02*
X161250000Y-63490000D01*
X156010000Y-63490000D02*
X158250000Y-63490000D01*
X153010000Y-63490000D02*
X155250000Y-63490000D01*
X150010000Y-63490000D02*
X152250000Y-63490000D01*
X147010000Y-63490000D02*
X149250000Y-63490000D01*
X144010000Y-63490000D02*
X146250000Y-63490000D01*
X141010000Y-63490000D02*
X143250000Y-63490000D01*
X138010000Y-63490000D02*
X140250000Y-63490000D01*
X135010000Y-63490000D02*
X137250000Y-63490000D01*
X132010000Y-63490000D02*
X134250000Y-63490000D01*
X129010000Y-63490000D02*
X131250000Y-63490000D01*
X126010000Y-63490000D02*
X128250000Y-63490000D01*
X123010000Y-63490000D02*
X125250000Y-63490000D01*
X120010000Y-63490000D02*
X122250000Y-63490000D01*
X117010000Y-63490000D02*
X119250000Y-63490000D01*
X114010000Y-63490000D02*
X116250000Y-63490000D01*
X111010000Y-63490000D02*
X113250000Y-63490000D01*
X108010000Y-63490000D02*
X110250000Y-63490000D01*
X105010000Y-63490000D02*
X107250000Y-63490000D01*
X102010000Y-63490000D02*
X104250000Y-63490000D01*
X99010000Y-63490000D02*
X101250000Y-63490000D01*
X96010000Y-63490000D02*
X98250000Y-63490000D01*
X93010000Y-63490000D02*
X95250000Y-63490000D01*
X90010000Y-63490000D02*
X92250000Y-63490000D01*
X87010000Y-63490000D02*
X89250000Y-63490000D01*
X84010000Y-63490000D02*
X86250000Y-63490000D01*
X81010000Y-63490000D02*
X83250000Y-63490000D01*
X78010000Y-63490000D02*
X80250000Y-63490000D01*
X75010000Y-63490000D02*
X77250000Y-63490000D01*
X72010000Y-63490000D02*
X74250000Y-63490000D01*
X69010000Y-63490000D02*
X71250000Y-63490000D01*
X66010000Y-63490000D02*
X68250000Y-63490000D01*
X63010000Y-63490000D02*
X65250000Y-63490000D01*
X252010000Y-60490000D02*
X254250000Y-60490000D01*
X249010000Y-60490000D02*
X251250000Y-60490000D01*
X246010000Y-60490000D02*
X248250000Y-60490000D01*
X243010000Y-60490000D02*
X245250000Y-60490000D01*
X240010000Y-60490000D02*
X242250000Y-60490000D01*
X237010000Y-60490000D02*
X239250000Y-60490000D01*
X234010000Y-60490000D02*
X236250000Y-60490000D01*
X231010000Y-60490000D02*
X233250000Y-60490000D01*
X228010000Y-60490000D02*
X230250000Y-60490000D01*
X225010000Y-60490000D02*
X227250000Y-60490000D01*
X222010000Y-60490000D02*
X224250000Y-60490000D01*
X219010000Y-60490000D02*
X221250000Y-60490000D01*
X216010000Y-60490000D02*
X218250000Y-60490000D01*
X213010000Y-60490000D02*
X215250000Y-60490000D01*
X210010000Y-60490000D02*
X212250000Y-60490000D01*
X207010000Y-60490000D02*
X209250000Y-60490000D01*
X204010000Y-60490000D02*
X206250000Y-60490000D01*
X201010000Y-60490000D02*
X203250000Y-60490000D01*
X198010000Y-60490000D02*
X200250000Y-60490000D01*
X195010000Y-60490000D02*
X197250000Y-60490000D01*
X192010000Y-60490000D02*
X194250000Y-60490000D01*
X189010000Y-60490000D02*
X191250000Y-60490000D01*
X186010000Y-60490000D02*
X188250000Y-60490000D01*
X183010000Y-60490000D02*
X185250000Y-60490000D01*
X180010000Y-60490000D02*
X182250000Y-60490000D01*
X177010000Y-60490000D02*
X179250000Y-60490000D01*
X174010000Y-60490000D02*
X176250000Y-60490000D01*
X171010000Y-60490000D02*
X173250000Y-60490000D01*
X168010000Y-60490000D02*
X170250000Y-60490000D01*
X165010000Y-60490000D02*
X167250000Y-60490000D01*
X162010000Y-60490000D02*
X164250000Y-60490000D01*
X159010000Y-60490000D02*
X161250000Y-60490000D01*
X156010000Y-60490000D02*
X158250000Y-60490000D01*
X153010000Y-60490000D02*
X155250000Y-60490000D01*
X150010000Y-60490000D02*
X152250000Y-60490000D01*
X147010000Y-60490000D02*
X149250000Y-60490000D01*
X144010000Y-60490000D02*
X146250000Y-60490000D01*
X141010000Y-60490000D02*
X143250000Y-60490000D01*
X138010000Y-60490000D02*
X140250000Y-60490000D01*
X135010000Y-60490000D02*
X137250000Y-60490000D01*
X132010000Y-60490000D02*
X134250000Y-60490000D01*
X129010000Y-60490000D02*
X131250000Y-60490000D01*
X126010000Y-60490000D02*
X128250000Y-60490000D01*
X123010000Y-60490000D02*
X125250000Y-60490000D01*
X120010000Y-60490000D02*
X122250000Y-60490000D01*
X117010000Y-60490000D02*
X119250000Y-60490000D01*
X114010000Y-60490000D02*
X116250000Y-60490000D01*
X111010000Y-60490000D02*
X113250000Y-60490000D01*
X108010000Y-60490000D02*
X110250000Y-60490000D01*
X105010000Y-60490000D02*
X107250000Y-60490000D01*
X102010000Y-60490000D02*
X104250000Y-60490000D01*
X99010000Y-60490000D02*
X101250000Y-60490000D01*
X96010000Y-60490000D02*
X98250000Y-60490000D01*
X93010000Y-60490000D02*
X95250000Y-60490000D01*
X90010000Y-60490000D02*
X92250000Y-60490000D01*
X87010000Y-60490000D02*
X89250000Y-60490000D01*
X84010000Y-60490000D02*
X86250000Y-60490000D01*
X81010000Y-60490000D02*
X83250000Y-60490000D01*
X78010000Y-60490000D02*
X80250000Y-60490000D01*
X75010000Y-60490000D02*
X77250000Y-60490000D01*
X72010000Y-60490000D02*
X74250000Y-60490000D01*
X69010000Y-60490000D02*
X71250000Y-60490000D01*
X66010000Y-60490000D02*
X68250000Y-60490000D01*
X63010000Y-60490000D02*
X65250000Y-60490000D01*
X252010000Y-57490000D02*
X254250000Y-57490000D01*
X249010000Y-57490000D02*
X251250000Y-57490000D01*
X246010000Y-57490000D02*
X248250000Y-57490000D01*
X243010000Y-57490000D02*
X245250000Y-57490000D01*
X240010000Y-57490000D02*
X242250000Y-57490000D01*
X237010000Y-57490000D02*
X239250000Y-57490000D01*
X234010000Y-57490000D02*
X236250000Y-57490000D01*
X231010000Y-57490000D02*
X233250000Y-57490000D01*
X228010000Y-57490000D02*
X230250000Y-57490000D01*
X225010000Y-57490000D02*
X227250000Y-57490000D01*
X222010000Y-57490000D02*
X224250000Y-57490000D01*
X219010000Y-57490000D02*
X221250000Y-57490000D01*
X216010000Y-57490000D02*
X218250000Y-57490000D01*
X213010000Y-57490000D02*
X215250000Y-57490000D01*
X210010000Y-57490000D02*
X212250000Y-57490000D01*
X207010000Y-57490000D02*
X209250000Y-57490000D01*
X204010000Y-57490000D02*
X206250000Y-57490000D01*
X201010000Y-57490000D02*
X203250000Y-57490000D01*
X198010000Y-57490000D02*
X200250000Y-57490000D01*
X195010000Y-57490000D02*
X197250000Y-57490000D01*
X192010000Y-57490000D02*
X194250000Y-57490000D01*
X189010000Y-57490000D02*
X191250000Y-57490000D01*
X186010000Y-57490000D02*
X188250000Y-57490000D01*
X183010000Y-57490000D02*
X185250000Y-57490000D01*
X180010000Y-57490000D02*
X182250000Y-57490000D01*
X177010000Y-57490000D02*
X179250000Y-57490000D01*
X174010000Y-57490000D02*
X176250000Y-57490000D01*
X171010000Y-57490000D02*
X173250000Y-57490000D01*
X168010000Y-57490000D02*
X170250000Y-57490000D01*
X165010000Y-57490000D02*
X167250000Y-57490000D01*
X162010000Y-57490000D02*
X164250000Y-57490000D01*
X159010000Y-57490000D02*
X161250000Y-57490000D01*
X156010000Y-57490000D02*
X158250000Y-57490000D01*
X153010000Y-57490000D02*
X155250000Y-57490000D01*
X150010000Y-57490000D02*
X152250000Y-57490000D01*
X147010000Y-57490000D02*
X149250000Y-57490000D01*
X144010000Y-57490000D02*
X146250000Y-57490000D01*
X141010000Y-57490000D02*
X143250000Y-57490000D01*
X138010000Y-57490000D02*
X140250000Y-57490000D01*
X135010000Y-57490000D02*
X137250000Y-57490000D01*
X132010000Y-57490000D02*
X134250000Y-57490000D01*
X129010000Y-57490000D02*
X131250000Y-57490000D01*
X126010000Y-57490000D02*
X128250000Y-57490000D01*
X123010000Y-57490000D02*
X125250000Y-57490000D01*
X120010000Y-57490000D02*
X122250000Y-57490000D01*
X117010000Y-57490000D02*
X119250000Y-57490000D01*
X114010000Y-57490000D02*
X116250000Y-57490000D01*
X111010000Y-57490000D02*
X113250000Y-57490000D01*
X108010000Y-57490000D02*
X110250000Y-57490000D01*
X105010000Y-57490000D02*
X107250000Y-57490000D01*
X102010000Y-57490000D02*
X104250000Y-57490000D01*
X99010000Y-57490000D02*
X101250000Y-57490000D01*
X96010000Y-57490000D02*
X98250000Y-57490000D01*
X93010000Y-57490000D02*
X95250000Y-57490000D01*
X90010000Y-57490000D02*
X92250000Y-57490000D01*
X87010000Y-57490000D02*
X89250000Y-57490000D01*
X84010000Y-57490000D02*
X86250000Y-57490000D01*
X81010000Y-57490000D02*
X83250000Y-57490000D01*
X78010000Y-57490000D02*
X80250000Y-57490000D01*
X75010000Y-57490000D02*
X77250000Y-57490000D01*
X72010000Y-57490000D02*
X74250000Y-57490000D01*
X69010000Y-57490000D02*
X71250000Y-57490000D01*
X66010000Y-57490000D02*
X68250000Y-57490000D01*
X146544000Y-48604000D02*
X150835000Y-52895000D01*
X150835000Y-52895000D02*
X151150000Y-53210000D01*
X151130000Y-56830000D02*
X151130000Y-53190000D01*
X151130000Y-53190000D02*
X150835000Y-52895000D01*
X262990000Y-68890000D02*
X258780000Y-68890000D01*
X257820000Y-59290000D02*
X256850000Y-58320000D01*
X258780000Y-68890000D02*
X257820000Y-67930000D01*
X257820000Y-67930000D02*
X257820000Y-59290000D01*
X256850000Y-58320000D02*
X255080000Y-58320000D01*
X255080000Y-58320000D02*
X254260000Y-57500000D01*
X260090000Y-69390000D02*
X258920790Y-69390000D01*
X258920790Y-69390000D02*
X257566000Y-68035210D01*
X255120000Y-61360000D02*
X254260000Y-60500000D01*
X257566000Y-68035210D02*
X257566000Y-61950000D01*
X257566000Y-61950000D02*
X256976000Y-61360000D01*
X256976000Y-61360000D02*
X255120000Y-61360000D01*
X262990000Y-69890000D02*
X259061580Y-69890000D01*
X259061580Y-69890000D02*
X257190000Y-68018420D01*
X257190000Y-68018420D02*
X257190000Y-64560000D01*
X257190000Y-64560000D02*
X256920000Y-64290000D01*
X256920000Y-64290000D02*
X255050000Y-64290000D01*
X255050000Y-64290000D02*
X254260000Y-63500000D01*
X260090000Y-70390000D02*
X259150000Y-70390000D01*
X256700000Y-67270000D02*
X255030000Y-67270000D01*
X259150000Y-70390000D02*
X256780000Y-68020000D01*
X256780000Y-68020000D02*
X256780000Y-67350000D01*
X256780000Y-67350000D02*
X256700000Y-67270000D01*
X255030000Y-67270000D02*
X254260000Y-66500000D01*
X262990000Y-70890000D02*
X257780000Y-70890000D01*
X257780000Y-70890000D02*
X257160000Y-70270000D01*
X255030000Y-70270000D02*
X254260000Y-69500000D01*
X257160000Y-70270000D02*
X255030000Y-70270000D01*
X260090000Y-71390000D02*
X257560000Y-71390000D01*
X257560000Y-71390000D02*
X256520000Y-72430000D01*
X256520000Y-72430000D02*
X256520000Y-73160000D01*
X256520000Y-73160000D02*
X256300000Y-73380000D01*
X256300000Y-73380000D02*
X255140000Y-73380000D01*
X255140000Y-73380000D02*
X254260000Y-72500000D01*
X262990000Y-71890000D02*
X258920000Y-71890000D01*
X258920000Y-71890000D02*
X256680000Y-74130000D01*
X256680000Y-74130000D02*
X256680000Y-75780000D01*
X256680000Y-75780000D02*
X255990000Y-76470000D01*
X255990000Y-76470000D02*
X255230000Y-76470000D01*
X255230000Y-76470000D02*
X254260000Y-75500000D01*
X260090000Y-72390000D02*
X258779210Y-72390000D01*
X258779210Y-72390000D02*
X256934000Y-74235210D01*
X256934000Y-74235210D02*
X256934000Y-78666000D01*
X256934000Y-78666000D02*
X256170000Y-79430000D01*
X256170000Y-79430000D02*
X255190000Y-79430000D01*
X255190000Y-79430000D02*
X254260000Y-78500000D01*
X263090000Y-81540000D02*
X257410000Y-81540000D01*
X257410000Y-81540000D02*
X256650000Y-82300000D01*
X256650000Y-82300000D02*
X255060000Y-82300000D01*
X255060000Y-82300000D02*
X254260000Y-81500000D01*
X260190000Y-82040000D02*
X257750000Y-82040000D01*
X256560000Y-83230000D02*
X256560000Y-85080000D01*
X257750000Y-82040000D02*
X256560000Y-83230000D01*
X256230000Y-85410000D02*
X255170000Y-85410000D01*
X256560000Y-85080000D02*
X256230000Y-85410000D01*
X255170000Y-85410000D02*
X254260000Y-84500000D01*
X255790000Y-88310000D02*
X255070000Y-88310000D01*
X255070000Y-88310000D02*
X254260000Y-87500000D01*
X260190000Y-83040000D02*
X258720000Y-83040000D01*
X258720000Y-83040000D02*
X257310000Y-84450000D01*
X257310000Y-84450000D02*
X257310000Y-90510000D01*
X257310000Y-90510000D02*
X256520000Y-91300000D01*
X256520000Y-91300000D02*
X255060000Y-91300000D01*
X255060000Y-91300000D02*
X254260000Y-90500000D01*
X255750000Y-94380000D02*
X254870000Y-93500000D01*
X254870000Y-93500000D02*
X254260000Y-93500000D01*
X254260000Y-96500000D02*
X254970000Y-97210000D01*
X254970000Y-97210000D02*
X257030000Y-97210000D01*
X263090000Y-84540000D02*
X258340000Y-84540000D01*
X258078000Y-99282000D02*
X257140000Y-100220000D01*
X258340000Y-84540000D02*
X258078000Y-84802000D01*
X258078000Y-84802000D02*
X258078000Y-99282000D01*
X257140000Y-100220000D02*
X254980000Y-100220000D01*
X254980000Y-100220000D02*
X254260000Y-99500000D01*
X260190000Y-85040000D02*
X258920000Y-85040000D01*
X258920000Y-85040000D02*
X258332000Y-85628000D01*
X258332000Y-85628000D02*
X258332000Y-102078000D01*
X258332000Y-102078000D02*
X257040000Y-103370000D01*
X257040000Y-103370000D02*
X255130000Y-103370000D01*
X255130000Y-103370000D02*
X254260000Y-102500000D01*
X245066000Y-113654000D02*
X251675000Y-107045000D01*
X251675000Y-107045000D02*
X253130000Y-105590000D01*
X253120000Y-104850000D02*
X253120000Y-105600000D01*
X253120000Y-105600000D02*
X251675000Y-107045000D01*
X250120000Y-104850000D02*
X250120000Y-105450000D01*
X52110000Y-100010000D02*
X53460000Y-98660000D01*
X250120000Y-105450000D02*
X242170000Y-113400000D01*
X242170000Y-113400000D02*
X59373700Y-113400000D01*
X59373700Y-113400000D02*
X52110000Y-106136300D01*
X52110000Y-106136300D02*
X52110000Y-100010000D01*
X239614000Y-113146000D02*
X246500000Y-106260000D01*
X246500000Y-106260000D02*
X247150000Y-105610000D01*
X247120000Y-104850000D02*
X247120000Y-105640000D01*
X247120000Y-105640000D02*
X246500000Y-106260000D01*
X244120000Y-104850000D02*
X244120000Y-105810000D01*
X244120000Y-105810000D02*
X237038000Y-112892000D01*
X237038000Y-112892000D02*
X59584120Y-112892000D01*
X59584120Y-112892000D02*
X54638000Y-107945880D01*
X54638000Y-107945880D02*
X54638000Y-97916210D01*
X54638000Y-97916210D02*
X54381790Y-97660000D01*
X54381790Y-97660000D02*
X53460000Y-97660000D01*
X234472000Y-112638000D02*
X240225000Y-106885000D01*
X240225000Y-106885000D02*
X241150000Y-105960000D01*
X241120000Y-104850000D02*
X241120000Y-105990000D01*
X241120000Y-105990000D02*
X240225000Y-106885000D01*
X238120000Y-104850000D02*
X238120000Y-105880000D01*
X55146000Y-107735460D02*
X55146000Y-96980000D01*
X238120000Y-105880000D02*
X231616000Y-112384000D01*
X231616000Y-112384000D02*
X59794540Y-112384000D01*
X59794540Y-112384000D02*
X55146000Y-107735460D01*
X54826000Y-96660000D02*
X53460000Y-96660000D01*
X55146000Y-96980000D02*
X54826000Y-96660000D01*
X228950000Y-112130000D02*
X234465000Y-106615000D01*
X235120000Y-104850000D02*
X235120000Y-105960000D01*
X234465000Y-106615000D02*
X235140000Y-105940000D01*
X235120000Y-105960000D02*
X234465000Y-106615000D01*
X232120000Y-104850000D02*
X232120000Y-105840000D01*
X232120000Y-105840000D02*
X226084000Y-111876000D01*
X55654000Y-95812420D02*
X55501580Y-95660000D01*
X226084000Y-111876000D02*
X60004960Y-111876000D01*
X60004960Y-111876000D02*
X55654000Y-107525040D01*
X55654000Y-107525040D02*
X55654000Y-95812420D01*
X55501580Y-95660000D02*
X53460000Y-95660000D01*
X229120000Y-104850000D02*
X229120000Y-105980000D01*
X229120000Y-105980000D02*
X223478000Y-111622000D01*
X223478000Y-111622000D02*
X60110170Y-111622000D01*
X60110170Y-111622000D02*
X55908000Y-107419830D01*
X55908000Y-107419830D02*
X55908000Y-95707210D01*
X55908000Y-95707210D02*
X55360790Y-95160000D01*
X55360790Y-95160000D02*
X50560000Y-95160000D01*
X220622000Y-111368000D02*
X225395000Y-106595000D01*
X225395000Y-106595000D02*
X226140000Y-105850000D01*
X226120000Y-104850000D02*
X226120000Y-105870000D01*
X226120000Y-105870000D02*
X225395000Y-106595000D01*
X223120000Y-104850000D02*
X223120000Y-106530000D01*
X223120000Y-106530000D02*
X218536000Y-111114000D01*
X218536000Y-111114000D02*
X60320590Y-111114000D01*
X60320590Y-111114000D02*
X56416000Y-107209410D01*
X56416000Y-107209410D02*
X56416000Y-94716000D01*
X56416000Y-94716000D02*
X55860000Y-94160000D01*
X55860000Y-94160000D02*
X50560000Y-94160000D01*
X215080000Y-110860000D02*
X218935000Y-107005000D01*
X218935000Y-107005000D02*
X220140000Y-105800000D01*
X220120000Y-104850000D02*
X220120000Y-105820000D01*
X220120000Y-105820000D02*
X218935000Y-107005000D01*
X212234000Y-110606000D02*
X216265000Y-106575000D01*
X216265000Y-106575000D02*
X217150000Y-105690000D01*
X217120000Y-104850000D02*
X217120000Y-105720000D01*
X217120000Y-105720000D02*
X216265000Y-106575000D01*
X209438000Y-110352000D02*
X213755000Y-106035000D01*
X213755000Y-106035000D02*
X214170000Y-105620000D01*
X214120000Y-104850000D02*
X214120000Y-105670000D01*
X214120000Y-105670000D02*
X213755000Y-106035000D01*
X206672000Y-110098000D02*
X210660000Y-106110000D01*
X210660000Y-106110000D02*
X211130000Y-105640000D01*
X211120000Y-105650000D02*
X210660000Y-106110000D01*
X211120000Y-104850000D02*
X211120000Y-105650000D01*
X204116000Y-109844000D02*
X207835000Y-106125000D01*
X207835000Y-106125000D02*
X208160000Y-105800000D01*
X208120000Y-104850000D02*
X208120000Y-105840000D01*
X208120000Y-105840000D02*
X207835000Y-106125000D01*
X201300000Y-109590000D02*
X204840000Y-106050000D01*
X204840000Y-106050000D02*
X205130000Y-105760000D01*
X205120000Y-104850000D02*
X205120000Y-105770000D01*
X205120000Y-105770000D02*
X204840000Y-106050000D01*
X198614000Y-109336000D02*
X201095000Y-106855000D01*
X201095000Y-106855000D02*
X202150000Y-105800000D01*
X202120000Y-104850000D02*
X202120000Y-105830000D01*
X202120000Y-105830000D02*
X201095000Y-106855000D01*
X195788000Y-109082000D02*
X198315000Y-106555000D01*
X198315000Y-106555000D02*
X199140000Y-105730000D01*
X199120000Y-104850000D02*
X199120000Y-105750000D01*
X199120000Y-105750000D02*
X198315000Y-106555000D01*
X193112000Y-108828000D02*
X195415000Y-106525000D01*
X195415000Y-106525000D02*
X196140000Y-105800000D01*
X196120000Y-104850000D02*
X196120000Y-105820000D01*
X196120000Y-105820000D02*
X195415000Y-106525000D01*
X190326000Y-108574000D02*
X192290000Y-106610000D01*
X192290000Y-106610000D02*
X193140000Y-105760000D01*
X193120000Y-105780000D02*
X192290000Y-106610000D01*
X193120000Y-104850000D02*
X193120000Y-105780000D01*
X190120000Y-104850000D02*
X190120000Y-105580000D01*
X190120000Y-105580000D02*
X187380000Y-108320000D01*
X187380000Y-108320000D02*
X61477900Y-108320000D01*
X61477900Y-108320000D02*
X59210000Y-106052100D01*
X59210000Y-106052100D02*
X59210000Y-89760000D01*
X59210000Y-89760000D02*
X58110000Y-88660000D01*
X58110000Y-88660000D02*
X53460000Y-88660000D01*
X187120000Y-104850000D02*
X187120000Y-105700000D01*
X187120000Y-105700000D02*
X184754000Y-108066000D01*
X59464000Y-105946890D02*
X59464000Y-88486890D01*
X59137110Y-88160000D02*
X50560000Y-88160000D01*
X184754000Y-108066000D02*
X61583110Y-108066000D01*
X61583110Y-108066000D02*
X59464000Y-105946890D01*
X59464000Y-88486890D02*
X59137110Y-88160000D01*
X182058000Y-107812000D02*
X183685000Y-106185000D01*
X183685000Y-106185000D02*
X184140000Y-105730000D01*
X184120000Y-104850000D02*
X184120000Y-105750000D01*
X184120000Y-105750000D02*
X183685000Y-106185000D01*
X179412000Y-107558000D02*
X180605000Y-106365000D01*
X180605000Y-106365000D02*
X181130000Y-105840000D01*
X181120000Y-105850000D02*
X180605000Y-106365000D01*
X181120000Y-104850000D02*
X181120000Y-105850000D01*
X176786000Y-107304000D02*
X177520000Y-106570000D01*
X178120000Y-105970000D02*
X177520000Y-106570000D01*
X177520000Y-106570000D02*
X178140000Y-105950000D01*
X178120000Y-104850000D02*
X178120000Y-105970000D01*
X175120000Y-104850000D02*
X175120000Y-105910000D01*
X175120000Y-105910000D02*
X173980000Y-107050000D01*
X173980000Y-107050000D02*
X62003950Y-107050000D01*
X60480000Y-105526050D02*
X60480000Y-88066050D01*
X62003950Y-107050000D02*
X60480000Y-105526050D01*
X58573950Y-86160000D02*
X50560000Y-86160000D01*
X60480000Y-88066050D02*
X58573950Y-86160000D01*
X171254000Y-106796000D02*
X171945000Y-106105000D01*
X171945000Y-106105000D02*
X172130000Y-105920000D01*
X172120000Y-104850000D02*
X172120000Y-105930000D01*
X172120000Y-105930000D02*
X171945000Y-106105000D01*
X169120000Y-104850000D02*
X169120000Y-105750000D01*
X169120000Y-105750000D02*
X168328000Y-106542000D01*
X168328000Y-106542000D02*
X62214370Y-106542000D01*
X60988000Y-87855630D02*
X58292370Y-85160000D01*
X62214370Y-106542000D02*
X60988000Y-105315630D01*
X60988000Y-105315630D02*
X60988000Y-87855630D01*
X58292370Y-85160000D02*
X50560000Y-85160000D01*
X165512000Y-106288000D02*
X165810000Y-105990000D01*
X165810000Y-105990000D02*
X166130000Y-105670000D01*
X166120000Y-104850000D02*
X166120000Y-105680000D01*
X166120000Y-105680000D02*
X165810000Y-105990000D01*
X163120000Y-104850000D02*
X163120000Y-105650000D01*
X160130000Y-105370000D02*
X160120000Y-105360000D01*
X160120000Y-105360000D02*
X160120000Y-104850000D01*
X157130000Y-56830000D02*
X157130000Y-55700000D01*
X59318490Y-48096000D02*
X49720000Y-57694490D01*
X157130000Y-55700000D02*
X149526000Y-48096000D01*
X149526000Y-48096000D02*
X59318490Y-48096000D01*
X49720000Y-57694490D02*
X49720000Y-62981000D01*
X49720000Y-62981000D02*
X49818500Y-63079500D01*
X49818500Y-63079500D02*
X52180500Y-63079500D01*
X52180500Y-63079500D02*
X53190000Y-62070000D01*
X53190000Y-62070000D02*
X53490000Y-62070000D01*
X154130000Y-56830000D02*
X154130000Y-54970000D01*
X154130000Y-54970000D02*
X147510000Y-48350000D01*
X59423700Y-48350000D02*
X52499500Y-55274200D01*
X147510000Y-48350000D02*
X59423700Y-48350000D01*
X52499500Y-60660500D02*
X50590000Y-62570000D01*
X52499500Y-55274200D02*
X52499500Y-60660500D01*
X151150000Y-53210000D02*
X151150000Y-56350000D01*
X151150000Y-56350000D02*
X151150000Y-56470000D01*
X151130000Y-56830000D02*
X151130000Y-56370000D01*
X151130000Y-56370000D02*
X151150000Y-56350000D01*
X148130000Y-56830000D02*
X148130000Y-56410000D01*
X54658000Y-63132000D02*
X54220000Y-63570000D01*
X148130000Y-56410000D02*
X140578000Y-48858000D01*
X140578000Y-48858000D02*
X59634120Y-48858000D01*
X59634120Y-48858000D02*
X54658000Y-53834120D01*
X54658000Y-53834120D02*
X54658000Y-63132000D01*
X54220000Y-63570000D02*
X50590000Y-63570000D01*
X145130000Y-56830000D02*
X145130000Y-56320000D01*
X145130000Y-56320000D02*
X137922000Y-49112000D01*
X137922000Y-49112000D02*
X59739330Y-49112000D01*
X59739330Y-49112000D02*
X54912000Y-53939330D01*
X54912000Y-63738000D02*
X54580000Y-64070000D01*
X54912000Y-53939330D02*
X54912000Y-63738000D01*
X54580000Y-64070000D02*
X53490000Y-64070000D01*
X142130000Y-56830000D02*
X142130000Y-56390000D01*
X142130000Y-56390000D02*
X135106000Y-49366000D01*
X135106000Y-49366000D02*
X59844540Y-49366000D01*
X54550370Y-64570000D02*
X50590000Y-64570000D01*
X59844540Y-49366000D02*
X55166000Y-54044540D01*
X55166000Y-54044540D02*
X55166000Y-63954370D01*
X55166000Y-63954370D02*
X54550370Y-64570000D01*
X132510000Y-49620000D02*
X138620000Y-55730000D01*
X138620000Y-55730000D02*
X139170000Y-56280000D01*
X139130000Y-56830000D02*
X139130000Y-56240000D01*
X139130000Y-56240000D02*
X138620000Y-55730000D01*
X129904000Y-49874000D02*
X135540000Y-55510000D01*
X135540000Y-55510000D02*
X136230000Y-56200000D01*
X136130000Y-56830000D02*
X136130000Y-56100000D01*
X136130000Y-56100000D02*
X135540000Y-55510000D01*
X133130000Y-56830000D02*
X133130000Y-56340000D01*
X133130000Y-56340000D02*
X126918000Y-50128000D01*
X126918000Y-50128000D02*
X60160170Y-50128000D01*
X60160170Y-50128000D02*
X55928000Y-54360170D01*
X55928000Y-54360170D02*
X55928000Y-64270000D01*
X55928000Y-64270000D02*
X54128000Y-66070000D01*
X54128000Y-66070000D02*
X53490000Y-66070000D01*
X130130000Y-56830000D02*
X130130000Y-56420000D01*
X56182000Y-66528000D02*
X56140000Y-66570000D01*
X130130000Y-56420000D02*
X124092000Y-50382000D01*
X124092000Y-50382000D02*
X60265380Y-50382000D01*
X60265380Y-50382000D02*
X56182000Y-54465380D01*
X56182000Y-54465380D02*
X56182000Y-66528000D01*
X56140000Y-66570000D02*
X50590000Y-66570000D01*
X121476000Y-50636000D02*
X126905000Y-56065000D01*
X126905000Y-56065000D02*
X127140000Y-56300000D01*
X127130000Y-56830000D02*
X127130000Y-56290000D01*
X127130000Y-56290000D02*
X126905000Y-56065000D01*
X118910000Y-50890000D02*
X123720000Y-55700000D01*
X123720000Y-55700000D02*
X124170000Y-56150000D01*
X124130000Y-56830000D02*
X124130000Y-56110000D01*
X124130000Y-56110000D02*
X123720000Y-55700000D01*
X116304000Y-51144000D02*
X120805000Y-55645000D01*
X120805000Y-55645000D02*
X121170000Y-56010000D01*
X121130000Y-56830000D02*
X121130000Y-55970000D01*
X121130000Y-55970000D02*
X120805000Y-55645000D01*
X118130000Y-56830000D02*
X118130000Y-56310000D01*
X118130000Y-56310000D02*
X113218000Y-51398000D01*
X113218000Y-51398000D02*
X60686220Y-51398000D01*
X57198000Y-54886220D02*
X57198000Y-67145160D01*
X60686220Y-51398000D02*
X57198000Y-54886220D01*
X57198000Y-67145160D02*
X55773160Y-68570000D01*
X55773160Y-68570000D02*
X50590000Y-68570000D01*
X110762000Y-51652000D02*
X114905000Y-55795000D01*
X114905000Y-55795000D02*
X115190000Y-56080000D01*
X115130000Y-56830000D02*
X115130000Y-56020000D01*
X115130000Y-56020000D02*
X114905000Y-55795000D01*
X112130000Y-56830000D02*
X112130000Y-56080000D01*
X55491580Y-69570000D02*
X50590000Y-69570000D01*
X112130000Y-56080000D02*
X107956000Y-51906000D01*
X107956000Y-51906000D02*
X60896640Y-51906000D01*
X57706000Y-67355580D02*
X55491580Y-69570000D01*
X60896640Y-51906000D02*
X57706000Y-55096640D01*
X57706000Y-55096640D02*
X57706000Y-67355580D01*
X105150000Y-52160000D02*
X108965000Y-55975000D01*
X108965000Y-55975000D02*
X109160000Y-56170000D01*
X109130000Y-56830000D02*
X109130000Y-56140000D01*
X109130000Y-56140000D02*
X108965000Y-55975000D01*
X102324000Y-52414000D02*
X105970000Y-56060000D01*
X105970000Y-56060000D02*
X106150000Y-56240000D01*
X106130000Y-56830000D02*
X106130000Y-56220000D01*
X106130000Y-56220000D02*
X105970000Y-56060000D01*
X103130000Y-56830000D02*
X103130000Y-56270000D01*
X103130000Y-56270000D02*
X99528000Y-52668000D01*
X61212270Y-52668000D02*
X58468000Y-55412270D01*
X99528000Y-52668000D02*
X61212270Y-52668000D01*
X58468000Y-70782000D02*
X58180000Y-71070000D01*
X58468000Y-55412270D02*
X58468000Y-70782000D01*
X58180000Y-71070000D02*
X53490000Y-71070000D01*
X100130000Y-56830000D02*
X100130000Y-56290000D01*
X100130000Y-56290000D02*
X96762000Y-52922000D01*
X96762000Y-52922000D02*
X61317480Y-52922000D01*
X61317480Y-52922000D02*
X58722000Y-55517480D01*
X58722000Y-55517480D02*
X58722000Y-71180370D01*
X58722000Y-71180370D02*
X58332370Y-71570000D01*
X58332370Y-71570000D02*
X50590000Y-71570000D01*
X97130000Y-56830000D02*
X97130000Y-56130000D01*
X97130000Y-56130000D02*
X94176000Y-53176000D01*
X94176000Y-53176000D02*
X61422690Y-53176000D01*
X61422690Y-53176000D02*
X58976000Y-55622690D01*
X58976000Y-55622690D02*
X58976000Y-71285580D01*
X58191580Y-72070000D02*
X53490000Y-72070000D01*
X58976000Y-71285580D02*
X58191580Y-72070000D01*
X91410000Y-53430000D02*
X94045000Y-56065000D01*
X94045000Y-56065000D02*
X94180000Y-56200000D01*
X94130000Y-56830000D02*
X94130000Y-56150000D01*
X94130000Y-56150000D02*
X94045000Y-56065000D01*
X91130000Y-56830000D02*
X91130000Y-56300000D01*
X91130000Y-56300000D02*
X91160000Y-56270000D01*
X88130000Y-56830000D02*
X88140000Y-56820000D01*
X88140000Y-56820000D02*
X88140000Y-56240000D01*
X85130000Y-56830000D02*
X85130000Y-56160000D01*
X85130000Y-56160000D02*
X83162000Y-54192000D01*
X83162000Y-54192000D02*
X61843530Y-54192000D01*
X61843530Y-54192000D02*
X59992000Y-56043530D01*
X58835530Y-74070000D02*
X53490000Y-74070000D01*
X59992000Y-56043530D02*
X59992000Y-72913530D01*
X59992000Y-72913530D02*
X58835530Y-74070000D01*
X82130000Y-56830000D02*
X82130000Y-56260000D01*
X82130000Y-56260000D02*
X80316000Y-54446000D01*
X60246000Y-73018740D02*
X58694740Y-74570000D01*
X80316000Y-54446000D02*
X61948740Y-54446000D01*
X61948740Y-54446000D02*
X60246000Y-56148740D01*
X60246000Y-56148740D02*
X60246000Y-73018740D01*
X58694740Y-74570000D02*
X50590000Y-74570000D01*
X79130000Y-56830000D02*
X79130000Y-56310000D01*
X79130000Y-56310000D02*
X77520000Y-54700000D01*
X60500000Y-56253950D02*
X60500000Y-73123950D01*
X77520000Y-54700000D02*
X62053950Y-54700000D01*
X62053950Y-54700000D02*
X60500000Y-56253950D01*
X60500000Y-73123950D02*
X58553950Y-75070000D01*
X58553950Y-75070000D02*
X53490000Y-75070000D01*
X76130000Y-56210000D02*
X76130000Y-56830000D01*
X73120000Y-56270000D02*
X73120000Y-56820000D01*
X73120000Y-56820000D02*
X73130000Y-56830000D01*
X50590000Y-76570000D02*
X58131580Y-76570000D01*
X58131580Y-76570000D02*
X61262000Y-73439580D01*
X70130000Y-56400000D02*
X70130000Y-56830000D01*
X61262000Y-73439580D02*
X61262000Y-56569580D01*
X61262000Y-56569580D02*
X62369580Y-55462000D01*
X62369580Y-55462000D02*
X69192000Y-55462000D01*
X69192000Y-55462000D02*
X70130000Y-56400000D01*
X67120000Y-56380000D02*
X67120000Y-56820000D01*
X67120000Y-56820000D02*
X67130000Y-56830000D01*
X64100000Y-56210000D02*
X64100000Y-56800000D01*
X64100000Y-56800000D02*
X64130000Y-56830000D01*
X252010000Y-102490000D02*
X254250000Y-102490000D01*
X249010000Y-102490000D02*
X251250000Y-102490000D01*
X246010000Y-102490000D02*
X248250000Y-102490000D01*
X243010000Y-102490000D02*
X245250000Y-102490000D01*
X240010000Y-102490000D02*
X242250000Y-102490000D01*
X237010000Y-102490000D02*
X239250000Y-102490000D01*
X234010000Y-102490000D02*
X236250000Y-102490000D01*
X231010000Y-102490000D02*
X233250000Y-102490000D01*
X228010000Y-102490000D02*
X230250000Y-102490000D01*
X225010000Y-102490000D02*
X227250000Y-102490000D01*
X222010000Y-102490000D02*
X224250000Y-102490000D01*
X219010000Y-102490000D02*
X221250000Y-102490000D01*
X216010000Y-102490000D02*
X218250000Y-102490000D01*
X213010000Y-102490000D02*
X215250000Y-102490000D01*
X210010000Y-102490000D02*
X212250000Y-102490000D01*
X207010000Y-102490000D02*
X209250000Y-102490000D01*
X204010000Y-102490000D02*
X206250000Y-102490000D01*
X201010000Y-102490000D02*
X203250000Y-102490000D01*
X198010000Y-102490000D02*
X200250000Y-102490000D01*
X195010000Y-102490000D02*
X197250000Y-102490000D01*
X192010000Y-102490000D02*
X194250000Y-102490000D01*
X189010000Y-102490000D02*
X191250000Y-102490000D01*
X186010000Y-102490000D02*
X188250000Y-102490000D01*
X183010000Y-102490000D02*
X185250000Y-102490000D01*
X180010000Y-102490000D02*
X182250000Y-102490000D01*
X177010000Y-102490000D02*
X179250000Y-102490000D01*
X174010000Y-102490000D02*
X176250000Y-102490000D01*
X171010000Y-102490000D02*
X173250000Y-102490000D01*
X168010000Y-102490000D02*
X170250000Y-102490000D01*
X165010000Y-102490000D02*
X167250000Y-102490000D01*
X162010000Y-102490000D02*
X164250000Y-102490000D01*
X159010000Y-102490000D02*
X161250000Y-102490000D01*
X156010000Y-102490000D02*
X158250000Y-102490000D01*
X153010000Y-102490000D02*
X155250000Y-102490000D01*
X150010000Y-102490000D02*
X152250000Y-102490000D01*
X147010000Y-102490000D02*
X149250000Y-102490000D01*
X144010000Y-102490000D02*
X146250000Y-102490000D01*
X141010000Y-102490000D02*
X143250000Y-102490000D01*
X138010000Y-102490000D02*
X140250000Y-102490000D01*
X135010000Y-102490000D02*
X137250000Y-102490000D01*
X132010000Y-102490000D02*
X134250000Y-102490000D01*
X129010000Y-102490000D02*
X131250000Y-102490000D01*
X126010000Y-102490000D02*
X128250000Y-102490000D01*
X123010000Y-102490000D02*
X125250000Y-102490000D01*
X120010000Y-102490000D02*
X122250000Y-102490000D01*
X117010000Y-102490000D02*
X119250000Y-102490000D01*
X114010000Y-102490000D02*
X116250000Y-102490000D01*
X111010000Y-102490000D02*
X113250000Y-102490000D01*
X108010000Y-102490000D02*
X110250000Y-102490000D01*
X105010000Y-102490000D02*
X107250000Y-102490000D01*
X102010000Y-102490000D02*
X104250000Y-102490000D01*
X99010000Y-102490000D02*
X101250000Y-102490000D01*
X96010000Y-102490000D02*
X98250000Y-102490000D01*
X93010000Y-102490000D02*
X95250000Y-102490000D01*
X90010000Y-102490000D02*
X92250000Y-102490000D01*
X87010000Y-102490000D02*
X89250000Y-102490000D01*
X84010000Y-102490000D02*
X86250000Y-102490000D01*
X81010000Y-102490000D02*
X83250000Y-102490000D01*
X78010000Y-102490000D02*
X80250000Y-102490000D01*
X75010000Y-102490000D02*
X77250000Y-102490000D01*
X72010000Y-102490000D02*
X74250000Y-102490000D01*
X69010000Y-102490000D02*
X71250000Y-102490000D01*
X66010000Y-102490000D02*
X68250000Y-102490000D01*
X63010000Y-102490000D02*
X65250000Y-102490000D01*
X252010000Y-99490000D02*
X254250000Y-99490000D01*
X249010000Y-99490000D02*
X251250000Y-99490000D01*
X246010000Y-99490000D02*
X248250000Y-99490000D01*
X243010000Y-99490000D02*
X245250000Y-99490000D01*
X240010000Y-99490000D02*
X242250000Y-99490000D01*
X237010000Y-99490000D02*
X239250000Y-99490000D01*
X234010000Y-99490000D02*
X236250000Y-99490000D01*
X231010000Y-99490000D02*
X233250000Y-99490000D01*
X228010000Y-99490000D02*
X230250000Y-99490000D01*
X225010000Y-99490000D02*
X227250000Y-99490000D01*
X222010000Y-99490000D02*
X224250000Y-99490000D01*
X219010000Y-99490000D02*
X221250000Y-99490000D01*
X216010000Y-99490000D02*
X218250000Y-99490000D01*
X213010000Y-99490000D02*
X215250000Y-99490000D01*
X210010000Y-99490000D02*
X212250000Y-99490000D01*
X207010000Y-99490000D02*
X209250000Y-99490000D01*
X204010000Y-99490000D02*
X206250000Y-99490000D01*
X201010000Y-99490000D02*
X203250000Y-99490000D01*
X198010000Y-99490000D02*
X200250000Y-99490000D01*
X195010000Y-99490000D02*
X197250000Y-99490000D01*
X192010000Y-99490000D02*
X194250000Y-99490000D01*
X189010000Y-99490000D02*
X191250000Y-99490000D01*
X186010000Y-99490000D02*
X188250000Y-99490000D01*
X183010000Y-99490000D02*
X185250000Y-99490000D01*
X180010000Y-99490000D02*
X182250000Y-99490000D01*
X177010000Y-99490000D02*
X179250000Y-99490000D01*
X174010000Y-99490000D02*
X176250000Y-99490000D01*
X171010000Y-99490000D02*
X173250000Y-99490000D01*
X168010000Y-99490000D02*
X170250000Y-99490000D01*
X165010000Y-99490000D02*
X167250000Y-99490000D01*
X162010000Y-99490000D02*
X164250000Y-99490000D01*
X159010000Y-99490000D02*
X161250000Y-99490000D01*
X156010000Y-99490000D02*
X158250000Y-99490000D01*
X153010000Y-99490000D02*
X155250000Y-99490000D01*
X150010000Y-99490000D02*
X152250000Y-99490000D01*
X147010000Y-99490000D02*
X149250000Y-99490000D01*
X144010000Y-99490000D02*
X146250000Y-99490000D01*
X141010000Y-99490000D02*
X143250000Y-99490000D01*
X138010000Y-99490000D02*
X140250000Y-99490000D01*
X135010000Y-99490000D02*
X137250000Y-99490000D01*
X132010000Y-99490000D02*
X134250000Y-99490000D01*
X129010000Y-99490000D02*
X131250000Y-99490000D01*
X126010000Y-99490000D02*
X128250000Y-99490000D01*
X123010000Y-99490000D02*
X125250000Y-99490000D01*
X120010000Y-99490000D02*
X122250000Y-99490000D01*
X117010000Y-99490000D02*
X119250000Y-99490000D01*
X114010000Y-99490000D02*
X116250000Y-99490000D01*
X111010000Y-99490000D02*
X113250000Y-99490000D01*
X108010000Y-99490000D02*
X110250000Y-99490000D01*
X105010000Y-99490000D02*
X107250000Y-99490000D01*
X102010000Y-99490000D02*
X104250000Y-99490000D01*
X99010000Y-99490000D02*
X101250000Y-99490000D01*
X96010000Y-99490000D02*
X98250000Y-99490000D01*
X93010000Y-99490000D02*
X95250000Y-99490000D01*
X90010000Y-99490000D02*
X92250000Y-99490000D01*
X87010000Y-99490000D02*
X89250000Y-99490000D01*
X84010000Y-99490000D02*
X86250000Y-99490000D01*
X81010000Y-99490000D02*
X83250000Y-99490000D01*
X78010000Y-99490000D02*
X80250000Y-99490000D01*
X75010000Y-99490000D02*
X77250000Y-99490000D01*
X72010000Y-99490000D02*
X74250000Y-99490000D01*
X69010000Y-99490000D02*
X71250000Y-99490000D01*
X66010000Y-99490000D02*
X68250000Y-99490000D01*
X63010000Y-99490000D02*
X65250000Y-99490000D01*
X252010000Y-96490000D02*
X254250000Y-96490000D01*
X249010000Y-96490000D02*
X251250000Y-96490000D01*
X246010000Y-96490000D02*
X248250000Y-96490000D01*
X243010000Y-96490000D02*
X245250000Y-96490000D01*
X240010000Y-96490000D02*
X242250000Y-96490000D01*
X237010000Y-96490000D02*
X239250000Y-96490000D01*
X234010000Y-96490000D02*
X236250000Y-96490000D01*
X231010000Y-96490000D02*
X233250000Y-96490000D01*
X228010000Y-96490000D02*
X230250000Y-96490000D01*
X225010000Y-96490000D02*
X227250000Y-96490000D01*
X222010000Y-96490000D02*
X224250000Y-96490000D01*
X219010000Y-96490000D02*
X221250000Y-96490000D01*
X216010000Y-96490000D02*
X218250000Y-96490000D01*
X213010000Y-96490000D02*
X215250000Y-96490000D01*
X210010000Y-96490000D02*
X212250000Y-96490000D01*
X207010000Y-96490000D02*
X209250000Y-96490000D01*
X204010000Y-96490000D02*
X206250000Y-96490000D01*
X201010000Y-96490000D02*
X203250000Y-96490000D01*
X198010000Y-96490000D02*
X200250000Y-96490000D01*
X195010000Y-96490000D02*
X197250000Y-96490000D01*
X192010000Y-96490000D02*
X194250000Y-96490000D01*
X189010000Y-96490000D02*
X191250000Y-96490000D01*
X186010000Y-96490000D02*
X188250000Y-96490000D01*
X183010000Y-96490000D02*
X185250000Y-96490000D01*
X180010000Y-96490000D02*
X182250000Y-96490000D01*
X177010000Y-96490000D02*
X179250000Y-96490000D01*
X174010000Y-96490000D02*
X176250000Y-96490000D01*
X171010000Y-96490000D02*
X173250000Y-96490000D01*
X168010000Y-96490000D02*
X170250000Y-96490000D01*
X165010000Y-96490000D02*
X167250000Y-96490000D01*
X162010000Y-96490000D02*
X164250000Y-96490000D01*
X159010000Y-96490000D02*
X161250000Y-96490000D01*
X156010000Y-96490000D02*
X158250000Y-96490000D01*
X153010000Y-96490000D02*
X155250000Y-96490000D01*
X150010000Y-96490000D02*
X152250000Y-96490000D01*
X147010000Y-96490000D02*
X149250000Y-96490000D01*
X144010000Y-96490000D02*
X146250000Y-96490000D01*
X141010000Y-96490000D02*
X143250000Y-96490000D01*
X138010000Y-96490000D02*
X140250000Y-96490000D01*
X135010000Y-96490000D02*
X137250000Y-96490000D01*
X132010000Y-96490000D02*
X134250000Y-96490000D01*
X129010000Y-96490000D02*
X131250000Y-96490000D01*
X126010000Y-96490000D02*
X128250000Y-96490000D01*
X123010000Y-96490000D02*
X125250000Y-96490000D01*
X120010000Y-96490000D02*
X122250000Y-96490000D01*
X117010000Y-96490000D02*
X119250000Y-96490000D01*
X114010000Y-96490000D02*
X116250000Y-96490000D01*
X111010000Y-96490000D02*
X113250000Y-96490000D01*
X108010000Y-96490000D02*
X110250000Y-96490000D01*
X105010000Y-96490000D02*
X107250000Y-96490000D01*
X102010000Y-96490000D02*
X104250000Y-96490000D01*
X99010000Y-96490000D02*
X101250000Y-96490000D01*
X96010000Y-96490000D02*
X98250000Y-96490000D01*
X93010000Y-96490000D02*
X95250000Y-96490000D01*
X90010000Y-96490000D02*
X92250000Y-96490000D01*
X87010000Y-96490000D02*
X89250000Y-96490000D01*
X84010000Y-96490000D02*
X86250000Y-96490000D01*
X81010000Y-96490000D02*
X83250000Y-96490000D01*
X78010000Y-96490000D02*
X80250000Y-96490000D01*
X75010000Y-96490000D02*
X77250000Y-96490000D01*
X72010000Y-96490000D02*
X74250000Y-96490000D01*
X69010000Y-96490000D02*
X71250000Y-96490000D01*
X66010000Y-96490000D02*
X68250000Y-96490000D01*
X63010000Y-96490000D02*
X65250000Y-96490000D01*
X252010000Y-93490000D02*
X254250000Y-93490000D01*
X249010000Y-93490000D02*
X251250000Y-93490000D01*
X246010000Y-93490000D02*
X248250000Y-93490000D01*
X243010000Y-93490000D02*
X245250000Y-93490000D01*
X240010000Y-93490000D02*
X242250000Y-93490000D01*
X237010000Y-93490000D02*
X239250000Y-93490000D01*
X234010000Y-93490000D02*
X236250000Y-93490000D01*
X231010000Y-93490000D02*
X233250000Y-93490000D01*
X228010000Y-93490000D02*
X230250000Y-93490000D01*
X225010000Y-93490000D02*
X227250000Y-93490000D01*
X222010000Y-93490000D02*
X224250000Y-93490000D01*
X219010000Y-93490000D02*
X221250000Y-93490000D01*
X216010000Y-93490000D02*
X218250000Y-93490000D01*
X213010000Y-93490000D02*
X215250000Y-93490000D01*
X210010000Y-93490000D02*
X212250000Y-93490000D01*
X207010000Y-93490000D02*
X209250000Y-93490000D01*
X204010000Y-93490000D02*
X206250000Y-93490000D01*
X201010000Y-93490000D02*
X203250000Y-93490000D01*
X198010000Y-93490000D02*
X200250000Y-93490000D01*
X195010000Y-93490000D02*
X197250000Y-93490000D01*
X192010000Y-93490000D02*
X194250000Y-93490000D01*
X189010000Y-93490000D02*
X191250000Y-93490000D01*
X186010000Y-93490000D02*
X188250000Y-93490000D01*
X183010000Y-93490000D02*
X185250000Y-93490000D01*
X180010000Y-93490000D02*
X182250000Y-93490000D01*
X177010000Y-93490000D02*
X179250000Y-93490000D01*
X174010000Y-93490000D02*
X176250000Y-93490000D01*
X171010000Y-93490000D02*
X173250000Y-93490000D01*
X168010000Y-93490000D02*
X170250000Y-93490000D01*
X165010000Y-93490000D02*
X167250000Y-93490000D01*
X162010000Y-93490000D02*
X164250000Y-93490000D01*
X159010000Y-93490000D02*
X161250000Y-93490000D01*
X156010000Y-93490000D02*
X158250000Y-93490000D01*
X153010000Y-93490000D02*
X155250000Y-93490000D01*
X150010000Y-93490000D02*
X152250000Y-93490000D01*
X147010000Y-93490000D02*
X149250000Y-93490000D01*
X144010000Y-93490000D02*
X146250000Y-93490000D01*
X141010000Y-93490000D02*
X143250000Y-93490000D01*
X138010000Y-93490000D02*
X140250000Y-93490000D01*
X135010000Y-93490000D02*
X137250000Y-93490000D01*
X132010000Y-93490000D02*
X134250000Y-93490000D01*
X129010000Y-93490000D02*
X131250000Y-93490000D01*
X126010000Y-93490000D02*
X128250000Y-93490000D01*
X123010000Y-93490000D02*
X125250000Y-93490000D01*
X120010000Y-93490000D02*
X122250000Y-93490000D01*
X117010000Y-93490000D02*
X119250000Y-93490000D01*
X114010000Y-93490000D02*
X116250000Y-93490000D01*
X111010000Y-93490000D02*
X113250000Y-93490000D01*
X108010000Y-93490000D02*
X110250000Y-93490000D01*
X105010000Y-93490000D02*
X107250000Y-93490000D01*
X102010000Y-93490000D02*
X104250000Y-93490000D01*
X99010000Y-93490000D02*
X101250000Y-93490000D01*
X96010000Y-93490000D02*
X98250000Y-93490000D01*
X93010000Y-93490000D02*
X95250000Y-93490000D01*
X90010000Y-93490000D02*
X92250000Y-93490000D01*
X87010000Y-93490000D02*
X89250000Y-93490000D01*
X84010000Y-93490000D02*
X86250000Y-93490000D01*
X81010000Y-93490000D02*
X83250000Y-93490000D01*
X78010000Y-93490000D02*
X80250000Y-93490000D01*
X75010000Y-93490000D02*
X77250000Y-93490000D01*
X72010000Y-93490000D02*
X74250000Y-93490000D01*
X69010000Y-93490000D02*
X71250000Y-93490000D01*
X66010000Y-93490000D02*
X68250000Y-93490000D01*
X63010000Y-93490000D02*
X65250000Y-93490000D01*
X252010000Y-90490000D02*
X254250000Y-90490000D01*
X249010000Y-90490000D02*
X251250000Y-90490000D01*
X246010000Y-90490000D02*
X248250000Y-90490000D01*
X243010000Y-90490000D02*
X245250000Y-90490000D01*
X240010000Y-90490000D02*
X242250000Y-90490000D01*
X237010000Y-90490000D02*
X239250000Y-90490000D01*
X234010000Y-90490000D02*
X236250000Y-90490000D01*
X231010000Y-90490000D02*
X233250000Y-90490000D01*
X228010000Y-90490000D02*
X230250000Y-90490000D01*
X225010000Y-90490000D02*
X227250000Y-90490000D01*
X222010000Y-90490000D02*
X224250000Y-90490000D01*
X219010000Y-90490000D02*
X221250000Y-90490000D01*
X216010000Y-90490000D02*
X218250000Y-90490000D01*
X213010000Y-90490000D02*
X215250000Y-90490000D01*
X210010000Y-90490000D02*
X212250000Y-90490000D01*
X207010000Y-90490000D02*
X209250000Y-90490000D01*
X204010000Y-90490000D02*
X206250000Y-90490000D01*
X201010000Y-90490000D02*
X203250000Y-90490000D01*
X198010000Y-90490000D02*
X200250000Y-90490000D01*
X195010000Y-90490000D02*
X197250000Y-90490000D01*
X192010000Y-90490000D02*
X194250000Y-90490000D01*
X189010000Y-90490000D02*
X191250000Y-90490000D01*
X186010000Y-90490000D02*
X188250000Y-90490000D01*
X183010000Y-90490000D02*
X185250000Y-90490000D01*
X180010000Y-90490000D02*
X182250000Y-90490000D01*
X177010000Y-90490000D02*
X179250000Y-90490000D01*
X174010000Y-90490000D02*
X176250000Y-90490000D01*
X171010000Y-90490000D02*
X173250000Y-90490000D01*
X168010000Y-90490000D02*
X170250000Y-90490000D01*
X165010000Y-90490000D02*
X167250000Y-90490000D01*
X162010000Y-90490000D02*
X164250000Y-90490000D01*
X159010000Y-90490000D02*
X161250000Y-90490000D01*
X156010000Y-90490000D02*
X158250000Y-90490000D01*
X153010000Y-90490000D02*
X155250000Y-90490000D01*
X150010000Y-90490000D02*
X152250000Y-90490000D01*
X147010000Y-90490000D02*
X149250000Y-90490000D01*
X144010000Y-90490000D02*
X146250000Y-90490000D01*
X141010000Y-90490000D02*
X143250000Y-90490000D01*
X138010000Y-90490000D02*
X140250000Y-90490000D01*
X135010000Y-90490000D02*
X137250000Y-90490000D01*
X132010000Y-90490000D02*
X134250000Y-90490000D01*
X129010000Y-90490000D02*
X131250000Y-90490000D01*
X126010000Y-90490000D02*
X128250000Y-90490000D01*
X123010000Y-90490000D02*
X125250000Y-90490000D01*
X120010000Y-90490000D02*
X122250000Y-90490000D01*
X117010000Y-90490000D02*
X119250000Y-90490000D01*
X114010000Y-90490000D02*
X116250000Y-90490000D01*
X111010000Y-90490000D02*
X113250000Y-90490000D01*
X108010000Y-90490000D02*
X110250000Y-90490000D01*
X105010000Y-90490000D02*
X107250000Y-90490000D01*
X102010000Y-90490000D02*
X104250000Y-90490000D01*
X99010000Y-90490000D02*
X101250000Y-90490000D01*
X96010000Y-90490000D02*
X98250000Y-90490000D01*
X93010000Y-90490000D02*
X95250000Y-90490000D01*
X90010000Y-90490000D02*
X92250000Y-90490000D01*
X87010000Y-90490000D02*
X89250000Y-90490000D01*
X84010000Y-90490000D02*
X86250000Y-90490000D01*
X81010000Y-90490000D02*
X83250000Y-90490000D01*
X78010000Y-90490000D02*
X80250000Y-90490000D01*
X75010000Y-90490000D02*
X77250000Y-90490000D01*
X72010000Y-90490000D02*
X74250000Y-90490000D01*
X69010000Y-90490000D02*
X71250000Y-90490000D01*
X66010000Y-90490000D02*
X68250000Y-90490000D01*
X63010000Y-90490000D02*
X65250000Y-90490000D01*
X252010000Y-87490000D02*
X254250000Y-87490000D01*
X249010000Y-87490000D02*
X251250000Y-87490000D01*
X246010000Y-87490000D02*
X248250000Y-87490000D01*
X243010000Y-87490000D02*
X245250000Y-87490000D01*
X240010000Y-87490000D02*
X242250000Y-87490000D01*
X237010000Y-87490000D02*
X239250000Y-87490000D01*
X234010000Y-87490000D02*
X236250000Y-87490000D01*
X231010000Y-87490000D02*
X233250000Y-87490000D01*
X228010000Y-87490000D02*
X230250000Y-87490000D01*
X225010000Y-87490000D02*
X227250000Y-87490000D01*
X222010000Y-87490000D02*
X224250000Y-87490000D01*
X219010000Y-87490000D02*
X221250000Y-87490000D01*
X216010000Y-87490000D02*
X218250000Y-87490000D01*
X213010000Y-87490000D02*
X215250000Y-87490000D01*
X210010000Y-87490000D02*
X212250000Y-87490000D01*
X207010000Y-87490000D02*
X209250000Y-87490000D01*
X204010000Y-87490000D02*
X206250000Y-87490000D01*
X201010000Y-87490000D02*
X203250000Y-87490000D01*
X198010000Y-87490000D02*
X200250000Y-87490000D01*
X195010000Y-87490000D02*
X197250000Y-87490000D01*
X192010000Y-87490000D02*
X194250000Y-87490000D01*
X189010000Y-87490000D02*
X191250000Y-87490000D01*
X186010000Y-87490000D02*
X188250000Y-87490000D01*
X183010000Y-87490000D02*
X185250000Y-87490000D01*
X180010000Y-87490000D02*
X182250000Y-87490000D01*
X177010000Y-87490000D02*
X179250000Y-87490000D01*
X174010000Y-87490000D02*
X176250000Y-87490000D01*
X171010000Y-87490000D02*
X173250000Y-87490000D01*
X168010000Y-87490000D02*
X170250000Y-87490000D01*
X165010000Y-87490000D02*
X167250000Y-87490000D01*
X162010000Y-87490000D02*
X164250000Y-87490000D01*
X159010000Y-87490000D02*
X161250000Y-87490000D01*
X156010000Y-87490000D02*
X158250000Y-87490000D01*
X153010000Y-87490000D02*
X155250000Y-87490000D01*
X150010000Y-87490000D02*
X152250000Y-87490000D01*
X147010000Y-87490000D02*
X149250000Y-87490000D01*
X144010000Y-87490000D02*
X146250000Y-87490000D01*
X141010000Y-87490000D02*
X143250000Y-87490000D01*
X138010000Y-87490000D02*
X140250000Y-87490000D01*
X135010000Y-87490000D02*
X137250000Y-87490000D01*
X132010000Y-87490000D02*
X134250000Y-87490000D01*
X129010000Y-87490000D02*
X131250000Y-87490000D01*
X126010000Y-87490000D02*
X128250000Y-87490000D01*
X123010000Y-87490000D02*
X125250000Y-87490000D01*
X120010000Y-87490000D02*
X122250000Y-87490000D01*
X117010000Y-87490000D02*
X119250000Y-87490000D01*
X114010000Y-87490000D02*
X116250000Y-87490000D01*
X111010000Y-87490000D02*
X113250000Y-87490000D01*
X108010000Y-87490000D02*
X110250000Y-87490000D01*
X105010000Y-87490000D02*
X107250000Y-87490000D01*
X102010000Y-87490000D02*
X104250000Y-87490000D01*
X99010000Y-87490000D02*
X101250000Y-87490000D01*
X96010000Y-87490000D02*
X98250000Y-87490000D01*
X93010000Y-87490000D02*
X95250000Y-87490000D01*
X90010000Y-87490000D02*
X92250000Y-87490000D01*
X87010000Y-87490000D02*
X89250000Y-87490000D01*
X84010000Y-87490000D02*
X86250000Y-87490000D01*
X81010000Y-87490000D02*
X83250000Y-87490000D01*
X78010000Y-87490000D02*
X80250000Y-87490000D01*
X75010000Y-87490000D02*
X77250000Y-87490000D01*
X72010000Y-87490000D02*
X74250000Y-87490000D01*
X69010000Y-87490000D02*
X71250000Y-87490000D01*
X66010000Y-87490000D02*
X68250000Y-87490000D01*
X63010000Y-87490000D02*
X65250000Y-87490000D01*
X252010000Y-84490000D02*
X254250000Y-84490000D01*
X249010000Y-84490000D02*
X251250000Y-84490000D01*
X246010000Y-84490000D02*
X248250000Y-84490000D01*
X243010000Y-84490000D02*
X245250000Y-84490000D01*
X240010000Y-84490000D02*
X242250000Y-84490000D01*
X237010000Y-84490000D02*
X239250000Y-84490000D01*
X234010000Y-84490000D02*
X236250000Y-84490000D01*
X231010000Y-84490000D02*
X233250000Y-84490000D01*
X228010000Y-84490000D02*
X230250000Y-84490000D01*
X225010000Y-84490000D02*
X227250000Y-84490000D01*
X222010000Y-84490000D02*
X224250000Y-84490000D01*
X219010000Y-84490000D02*
X221250000Y-84490000D01*
X216010000Y-84490000D02*
X218250000Y-84490000D01*
X213010000Y-84490000D02*
X215250000Y-84490000D01*
X210010000Y-84490000D02*
X212250000Y-84490000D01*
X207010000Y-84490000D02*
X209250000Y-84490000D01*
X204010000Y-84490000D02*
X206250000Y-84490000D01*
X201010000Y-84490000D02*
X203250000Y-84490000D01*
X198010000Y-84490000D02*
X200250000Y-84490000D01*
X195010000Y-84490000D02*
X197250000Y-84490000D01*
X192010000Y-84490000D02*
X194250000Y-84490000D01*
X189010000Y-84490000D02*
X191250000Y-84490000D01*
X186010000Y-84490000D02*
X188250000Y-84490000D01*
X183010000Y-84490000D02*
X185250000Y-84490000D01*
X180010000Y-84490000D02*
X182250000Y-84490000D01*
X177010000Y-84490000D02*
X179250000Y-84490000D01*
X174010000Y-84490000D02*
X176250000Y-84490000D01*
X171010000Y-84490000D02*
X173250000Y-84490000D01*
X168010000Y-84490000D02*
X170250000Y-84490000D01*
X165010000Y-84490000D02*
X167250000Y-84490000D01*
X162010000Y-84490000D02*
X164250000Y-84490000D01*
X159010000Y-84490000D02*
X161250000Y-84490000D01*
X156010000Y-84490000D02*
X158250000Y-84490000D01*
X153010000Y-84490000D02*
X155250000Y-84490000D01*
X150010000Y-84490000D02*
X152250000Y-84490000D01*
X147010000Y-84490000D02*
X149250000Y-84490000D01*
X144010000Y-84490000D02*
X146250000Y-84490000D01*
X141010000Y-84490000D02*
X143250000Y-84490000D01*
X138010000Y-84490000D02*
X140250000Y-84490000D01*
X135010000Y-84490000D02*
X137250000Y-84490000D01*
X132010000Y-84490000D02*
X134250000Y-84490000D01*
X129010000Y-84490000D02*
X131250000Y-84490000D01*
X126010000Y-84490000D02*
X128250000Y-84490000D01*
X123010000Y-84490000D02*
X125250000Y-84490000D01*
X120010000Y-84490000D02*
X122250000Y-84490000D01*
X117010000Y-84490000D02*
X119250000Y-84490000D01*
X114010000Y-84490000D02*
X116250000Y-84490000D01*
X111010000Y-84490000D02*
X113250000Y-84490000D01*
X108010000Y-84490000D02*
X110250000Y-84490000D01*
X105010000Y-84490000D02*
X107250000Y-84490000D01*
X102010000Y-84490000D02*
X104250000Y-84490000D01*
X99010000Y-84490000D02*
X101250000Y-84490000D01*
X96010000Y-84490000D02*
X98250000Y-84490000D01*
X93010000Y-84490000D02*
X95250000Y-84490000D01*
X90010000Y-84490000D02*
X92250000Y-84490000D01*
X87010000Y-84490000D02*
X89250000Y-84490000D01*
X84010000Y-84490000D02*
X86250000Y-84490000D01*
X81010000Y-84490000D02*
X83250000Y-84490000D01*
X78010000Y-84490000D02*
X80250000Y-84490000D01*
X75010000Y-84490000D02*
X77250000Y-84490000D01*
X72010000Y-84490000D02*
X74250000Y-84490000D01*
X69010000Y-84490000D02*
X71250000Y-84490000D01*
X66010000Y-84490000D02*
X68250000Y-84490000D01*
X63010000Y-84490000D02*
X65250000Y-84490000D01*
X252010000Y-81490000D02*
X254250000Y-81490000D01*
X249010000Y-81490000D02*
X251250000Y-81490000D01*
X246010000Y-81490000D02*
X248250000Y-81490000D01*
X243010000Y-81490000D02*
X245250000Y-81490000D01*
X240010000Y-81490000D02*
X242250000Y-81490000D01*
X237010000Y-81490000D02*
X239250000Y-81490000D01*
X234010000Y-81490000D02*
X236250000Y-81490000D01*
X231010000Y-81490000D02*
X233250000Y-81490000D01*
X228010000Y-81490000D02*
X230250000Y-81490000D01*
X225010000Y-81490000D02*
X227250000Y-81490000D01*
X222010000Y-81490000D02*
X224250000Y-81490000D01*
X219010000Y-81490000D02*
X221250000Y-81490000D01*
X216010000Y-81490000D02*
X218250000Y-81490000D01*
X213010000Y-81490000D02*
X215250000Y-81490000D01*
X210010000Y-81490000D02*
X212250000Y-81490000D01*
X207010000Y-81490000D02*
X209250000Y-81490000D01*
X204010000Y-81490000D02*
X206250000Y-81490000D01*
X201010000Y-81490000D02*
X203250000Y-81490000D01*
X198010000Y-81490000D02*
X200250000Y-81490000D01*
X195010000Y-81490000D02*
X197250000Y-81490000D01*
X192010000Y-81490000D02*
X194250000Y-81490000D01*
X189010000Y-81490000D02*
X191250000Y-81490000D01*
X186010000Y-81490000D02*
X188250000Y-81490000D01*
X183010000Y-81490000D02*
X185250000Y-81490000D01*
X180010000Y-81490000D02*
X182250000Y-81490000D01*
X177010000Y-81490000D02*
X179250000Y-81490000D01*
X174010000Y-81490000D02*
X176250000Y-81490000D01*
X171010000Y-81490000D02*
X173250000Y-81490000D01*
X168010000Y-81490000D02*
X170250000Y-81490000D01*
X165010000Y-81490000D02*
X167250000Y-81490000D01*
X162010000Y-81490000D02*
X164250000Y-81490000D01*
X159010000Y-81490000D02*
X161250000Y-81490000D01*
X156010000Y-81490000D02*
X158250000Y-81490000D01*
X153010000Y-81490000D02*
X155250000Y-81490000D01*
X150010000Y-81490000D02*
X152250000Y-81490000D01*
X147010000Y-81490000D02*
X149250000Y-81490000D01*
X144010000Y-81490000D02*
X146250000Y-81490000D01*
X141010000Y-81490000D02*
X143250000Y-81490000D01*
X138010000Y-81490000D02*
X140250000Y-81490000D01*
X135010000Y-81490000D02*
X137250000Y-81490000D01*
X132010000Y-81490000D02*
X134250000Y-81490000D01*
X129010000Y-81490000D02*
X131250000Y-81490000D01*
X126010000Y-81490000D02*
X128250000Y-81490000D01*
X123010000Y-81490000D02*
X125250000Y-81490000D01*
X120010000Y-81490000D02*
X122250000Y-81490000D01*
X117010000Y-81490000D02*
X119250000Y-81490000D01*
X114010000Y-81490000D02*
X116250000Y-81490000D01*
X111010000Y-81490000D02*
X113250000Y-81490000D01*
X108010000Y-81490000D02*
X110250000Y-81490000D01*
X105010000Y-81490000D02*
X107250000Y-81490000D01*
X102010000Y-81490000D02*
X104250000Y-81490000D01*
X99010000Y-81490000D02*
X101250000Y-81490000D01*
X96010000Y-81490000D02*
X98250000Y-81490000D01*
X93010000Y-81490000D02*
X95250000Y-81490000D01*
X90010000Y-81490000D02*
X92250000Y-81490000D01*
X87010000Y-81490000D02*
X89250000Y-81490000D01*
X84010000Y-81490000D02*
X86250000Y-81490000D01*
X81010000Y-81490000D02*
X83250000Y-81490000D01*
X78010000Y-81490000D02*
X80250000Y-81490000D01*
X75010000Y-81490000D02*
X77250000Y-81490000D01*
X72010000Y-81490000D02*
X74250000Y-81490000D01*
X69010000Y-81490000D02*
X71250000Y-81490000D01*
X66010000Y-81490000D02*
X68250000Y-81490000D01*
X63010000Y-81490000D02*
X65250000Y-81490000D01*
X252010000Y-78490000D02*
X254250000Y-78490000D01*
X249010000Y-78490000D02*
X251250000Y-78490000D01*
X246010000Y-78490000D02*
X248250000Y-78490000D01*
X243010000Y-78490000D02*
X245250000Y-78490000D01*
X240010000Y-78490000D02*
X242250000Y-78490000D01*
X237010000Y-78490000D02*
X239250000Y-78490000D01*
X234010000Y-78490000D02*
X236250000Y-78490000D01*
X231010000Y-78490000D02*
X233250000Y-78490000D01*
X228010000Y-78490000D02*
X230250000Y-78490000D01*
X225010000Y-78490000D02*
X227250000Y-78490000D01*
X222010000Y-78490000D02*
X224250000Y-78490000D01*
X219010000Y-78490000D02*
X221250000Y-78490000D01*
X216010000Y-78490000D02*
X218250000Y-78490000D01*
X213010000Y-78490000D02*
X215250000Y-78490000D01*
X210010000Y-78490000D02*
X212250000Y-78490000D01*
X207010000Y-78490000D02*
X209250000Y-78490000D01*
X204010000Y-78490000D02*
X206250000Y-78490000D01*
X201010000Y-78490000D02*
X203250000Y-78490000D01*
X198010000Y-78490000D02*
X200250000Y-78490000D01*
X195010000Y-78490000D02*
X197250000Y-78490000D01*
X192010000Y-78490000D02*
X194250000Y-78490000D01*
X189010000Y-78490000D02*
X191250000Y-78490000D01*
X186010000Y-78490000D02*
X188250000Y-78490000D01*
X183010000Y-78490000D02*
X185250000Y-78490000D01*
X180010000Y-78490000D02*
X182250000Y-78490000D01*
X177010000Y-78490000D02*
X179250000Y-78490000D01*
X174010000Y-78490000D02*
X176250000Y-78490000D01*
X171010000Y-78490000D02*
X173250000Y-78490000D01*
X168010000Y-78490000D02*
X170250000Y-78490000D01*
X165010000Y-78490000D02*
X167250000Y-78490000D01*
X162010000Y-78490000D02*
X164250000Y-78490000D01*
X159010000Y-78490000D02*
X161250000Y-78490000D01*
X156010000Y-78490000D02*
X158250000Y-78490000D01*
X153010000Y-78490000D02*
X155250000Y-78490000D01*
X150010000Y-78490000D02*
X152250000Y-78490000D01*
X147010000Y-78490000D02*
X149250000Y-78490000D01*
X144010000Y-78490000D02*
X146250000Y-78490000D01*
X141010000Y-78490000D02*
X143250000Y-78490000D01*
X138010000Y-78490000D02*
X140250000Y-78490000D01*
X135010000Y-78490000D02*
X137250000Y-78490000D01*
X132010000Y-78490000D02*
X134250000Y-78490000D01*
X129010000Y-78490000D02*
X131250000Y-78490000D01*
X126010000Y-78490000D02*
X128250000Y-78490000D01*
X123010000Y-78490000D02*
X125250000Y-78490000D01*
X120010000Y-78490000D02*
X122250000Y-78490000D01*
X117010000Y-78490000D02*
X119250000Y-78490000D01*
X114010000Y-78490000D02*
X116250000Y-78490000D01*
X111010000Y-78490000D02*
X113250000Y-78490000D01*
X108010000Y-78490000D02*
X110250000Y-78490000D01*
X105010000Y-78490000D02*
X107250000Y-78490000D01*
X102010000Y-78490000D02*
X104250000Y-78490000D01*
X99010000Y-78490000D02*
X101250000Y-78490000D01*
X96010000Y-78490000D02*
X98250000Y-78490000D01*
X93010000Y-78490000D02*
X95250000Y-78490000D01*
X90010000Y-78490000D02*
X92250000Y-78490000D01*
X87010000Y-78490000D02*
X89250000Y-78490000D01*
X84010000Y-78490000D02*
X86250000Y-78490000D01*
X81010000Y-78490000D02*
X83250000Y-78490000D01*
X78010000Y-78490000D02*
X80250000Y-78490000D01*
X75010000Y-78490000D02*
X77250000Y-78490000D01*
X72010000Y-78490000D02*
X74250000Y-78490000D01*
X69010000Y-78490000D02*
X71250000Y-78490000D01*
X66010000Y-78490000D02*
X68250000Y-78490000D01*
X63010000Y-78490000D02*
X65250000Y-78490000D01*
X252010000Y-75490000D02*
X254250000Y-75490000D01*
X249010000Y-75490000D02*
X251250000Y-75490000D01*
X246010000Y-75490000D02*
X248250000Y-75490000D01*
X243010000Y-75490000D02*
X245250000Y-75490000D01*
X240010000Y-75490000D02*
X242250000Y-75490000D01*
X237010000Y-75490000D02*
X239250000Y-75490000D01*
X234010000Y-75490000D02*
X236250000Y-75490000D01*
X231010000Y-75490000D02*
X233250000Y-75490000D01*
X228010000Y-75490000D02*
X230250000Y-75490000D01*
X225010000Y-75490000D02*
X227250000Y-75490000D01*
X222010000Y-75490000D02*
X224250000Y-75490000D01*
X219010000Y-75490000D02*
X221250000Y-75490000D01*
X216010000Y-75490000D02*
X218250000Y-75490000D01*
X213010000Y-75490000D02*
X215250000Y-75490000D01*
X210010000Y-75490000D02*
X212250000Y-75490000D01*
X207010000Y-75490000D02*
X209250000Y-75490000D01*
X204010000Y-75490000D02*
X206250000Y-75490000D01*
X201010000Y-75490000D02*
X203250000Y-75490000D01*
X198010000Y-75490000D02*
X200250000Y-75490000D01*
X195010000Y-75490000D02*
X197250000Y-75490000D01*
X192010000Y-75490000D02*
X194250000Y-75490000D01*
X189010000Y-75490000D02*
X191250000Y-75490000D01*
X186010000Y-75490000D02*
X188250000Y-75490000D01*
X183010000Y-75490000D02*
X185250000Y-75490000D01*
X180010000Y-75490000D02*
X182250000Y-75490000D01*
X177010000Y-75490000D02*
X179250000Y-75490000D01*
X174010000Y-75490000D02*
X176250000Y-75490000D01*
X171010000Y-75490000D02*
X173250000Y-75490000D01*
X168010000Y-75490000D02*
X170250000Y-75490000D01*
X165010000Y-75490000D02*
X167250000Y-75490000D01*
X162010000Y-75490000D02*
X164250000Y-75490000D01*
X159010000Y-75490000D02*
X161250000Y-75490000D01*
X156010000Y-75490000D02*
X158250000Y-75490000D01*
X153010000Y-75490000D02*
X155250000Y-75490000D01*
X150010000Y-75490000D02*
X152250000Y-75490000D01*
X147010000Y-75490000D02*
X149250000Y-75490000D01*
X144010000Y-75490000D02*
X146250000Y-75490000D01*
X141010000Y-75490000D02*
X143250000Y-75490000D01*
X138010000Y-75490000D02*
X140250000Y-75490000D01*
X135010000Y-75490000D02*
X137250000Y-75490000D01*
X132010000Y-75490000D02*
X134250000Y-75490000D01*
X129010000Y-75490000D02*
X131250000Y-75490000D01*
X126010000Y-75490000D02*
X128250000Y-75490000D01*
X123010000Y-75490000D02*
X125250000Y-75490000D01*
X120010000Y-75490000D02*
X122250000Y-75490000D01*
X117010000Y-75490000D02*
X119250000Y-75490000D01*
X114010000Y-75490000D02*
X116250000Y-75490000D01*
X111010000Y-75490000D02*
X113250000Y-75490000D01*
X108010000Y-75490000D02*
X110250000Y-75490000D01*
X105010000Y-75490000D02*
X107250000Y-75490000D01*
X102010000Y-75490000D02*
X104250000Y-75490000D01*
X99010000Y-75490000D02*
X101250000Y-75490000D01*
X96010000Y-75490000D02*
X98250000Y-75490000D01*
X93010000Y-75490000D02*
X95250000Y-75490000D01*
X90010000Y-75490000D02*
X92250000Y-75490000D01*
X87010000Y-75490000D02*
X89250000Y-75490000D01*
X84010000Y-75490000D02*
X86250000Y-75490000D01*
X81010000Y-75490000D02*
X83250000Y-75490000D01*
X78010000Y-75490000D02*
X80250000Y-75490000D01*
X75010000Y-75490000D02*
X77250000Y-75490000D01*
X72010000Y-75490000D02*
X74250000Y-75490000D01*
X69010000Y-75490000D02*
X71250000Y-75490000D01*
X66010000Y-75490000D02*
X68250000Y-75490000D01*
X63010000Y-75490000D02*
X65250000Y-75490000D01*
X252010000Y-72490000D02*
X254250000Y-72490000D01*
X249010000Y-72490000D02*
X251250000Y-72490000D01*
X246010000Y-72490000D02*
X248250000Y-72490000D01*
X243010000Y-72490000D02*
X245250000Y-72490000D01*
X240010000Y-72490000D02*
X242250000Y-72490000D01*
X237010000Y-72490000D02*
X239250000Y-72490000D01*
X234010000Y-72490000D02*
X236250000Y-72490000D01*
X231010000Y-72490000D02*
X233250000Y-72490000D01*
X228010000Y-72490000D02*
X230250000Y-72490000D01*
X225010000Y-72490000D02*
X227250000Y-72490000D01*
X222010000Y-72490000D02*
X224250000Y-72490000D01*
X219010000Y-72490000D02*
X221250000Y-72490000D01*
X216010000Y-72490000D02*
X218250000Y-72490000D01*
X213010000Y-72490000D02*
X215250000Y-72490000D01*
X210010000Y-72490000D02*
X212250000Y-72490000D01*
X207010000Y-72490000D02*
X209250000Y-72490000D01*
X204010000Y-72490000D02*
X206250000Y-72490000D01*
X201010000Y-72490000D02*
X203250000Y-72490000D01*
X198010000Y-72490000D02*
X200250000Y-72490000D01*
X195010000Y-72490000D02*
X197250000Y-72490000D01*
X192010000Y-72490000D02*
X194250000Y-72490000D01*
X189010000Y-72490000D02*
X191250000Y-72490000D01*
X186010000Y-72490000D02*
X188250000Y-72490000D01*
X183010000Y-72490000D02*
X185250000Y-72490000D01*
X180010000Y-72490000D02*
X182250000Y-72490000D01*
X177010000Y-72490000D02*
X179250000Y-72490000D01*
X174010000Y-72490000D02*
X176250000Y-72490000D01*
X171010000Y-72490000D02*
X173250000Y-72490000D01*
X168010000Y-72490000D02*
X170250000Y-72490000D01*
X165010000Y-72490000D02*
X167250000Y-72490000D01*
X162010000Y-72490000D02*
X164250000Y-72490000D01*
X159010000Y-72490000D02*
X161250000Y-72490000D01*
X156010000Y-72490000D02*
X158250000Y-72490000D01*
X153010000Y-72490000D02*
X155250000Y-72490000D01*
X150010000Y-72490000D02*
X152250000Y-72490000D01*
X147010000Y-72490000D02*
X149250000Y-72490000D01*
X144010000Y-72490000D02*
X146250000Y-72490000D01*
X141010000Y-72490000D02*
X143250000Y-72490000D01*
X138010000Y-72490000D02*
X140250000Y-72490000D01*
X135010000Y-72490000D02*
X137250000Y-72490000D01*
X132010000Y-72490000D02*
X134250000Y-72490000D01*
X129010000Y-72490000D02*
X131250000Y-72490000D01*
X126010000Y-72490000D02*
X128250000Y-72490000D01*
X123010000Y-72490000D02*
X125250000Y-72490000D01*
X120010000Y-72490000D02*
X122250000Y-72490000D01*
X117010000Y-72490000D02*
X119250000Y-72490000D01*
X114010000Y-72490000D02*
X116250000Y-72490000D01*
X111010000Y-72490000D02*
X113250000Y-72490000D01*
X108010000Y-72490000D02*
X110250000Y-72490000D01*
X105010000Y-72490000D02*
X107250000Y-72490000D01*
X102010000Y-72490000D02*
X104250000Y-72490000D01*
X99010000Y-72490000D02*
X101250000Y-72490000D01*
X96010000Y-72490000D02*
X98250000Y-72490000D01*
X93010000Y-72490000D02*
X95250000Y-72490000D01*
X90010000Y-72490000D02*
X92250000Y-72490000D01*
X87010000Y-72490000D02*
X89250000Y-72490000D01*
X84010000Y-72490000D02*
X86250000Y-72490000D01*
X81010000Y-72490000D02*
X83250000Y-72490000D01*
X78010000Y-72490000D02*
X80250000Y-72490000D01*
X75010000Y-72490000D02*
X77250000Y-72490000D01*
X72010000Y-72490000D02*
X74250000Y-72490000D01*
X69010000Y-72490000D02*
X71250000Y-72490000D01*
X66010000Y-72490000D02*
X68250000Y-72490000D01*
X63010000Y-72490000D02*
X65250000Y-72490000D01*
X252010000Y-69490000D02*
X254250000Y-69490000D01*
X249010000Y-69490000D02*
X251250000Y-69490000D01*
X246010000Y-69490000D02*
X248250000Y-69490000D01*
X243010000Y-69490000D02*
X245250000Y-69490000D01*
X240010000Y-69490000D02*
X242250000Y-69490000D01*
X237010000Y-69490000D02*
X239250000Y-69490000D01*
X234010000Y-69490000D02*
X236250000Y-69490000D01*
X231010000Y-69490000D02*
X233250000Y-69490000D01*
X228010000Y-69490000D02*
X230250000Y-69490000D01*
X225010000Y-69490000D02*
X227250000Y-69490000D01*
X222010000Y-69490000D02*
X224250000Y-69490000D01*
X219010000Y-69490000D02*
X221250000Y-69490000D01*
X216010000Y-69490000D02*
X218250000Y-69490000D01*
X213010000Y-69490000D02*
X215250000Y-69490000D01*
X210010000Y-69490000D02*
X212250000Y-69490000D01*
X207010000Y-69490000D02*
X209250000Y-69490000D01*
X204010000Y-69490000D02*
X206250000Y-69490000D01*
X201010000Y-69490000D02*
X203250000Y-69490000D01*
X198010000Y-69490000D02*
X200250000Y-69490000D01*
X195010000Y-69490000D02*
X197250000Y-69490000D01*
X192010000Y-69490000D02*
X194250000Y-69490000D01*
X189010000Y-69490000D02*
X191250000Y-69490000D01*
X186010000Y-69490000D02*
X188250000Y-69490000D01*
X183010000Y-69490000D02*
X185250000Y-69490000D01*
X180010000Y-69490000D02*
X182250000Y-69490000D01*
X177010000Y-69490000D02*
X179250000Y-69490000D01*
X174010000Y-69490000D02*
X176250000Y-69490000D01*
X171010000Y-69490000D02*
X173250000Y-69490000D01*
X168010000Y-69490000D02*
X170250000Y-69490000D01*
X165010000Y-69490000D02*
X167250000Y-69490000D01*
X162010000Y-69490000D02*
X164250000Y-69490000D01*
X159010000Y-69490000D02*
X161250000Y-69490000D01*
X156010000Y-69490000D02*
X158250000Y-69490000D01*
X153010000Y-69490000D02*
X155250000Y-69490000D01*
X150010000Y-69490000D02*
X152250000Y-69490000D01*
X147010000Y-69490000D02*
X149250000Y-69490000D01*
X144010000Y-69490000D02*
X146250000Y-69490000D01*
X141010000Y-69490000D02*
X143250000Y-69490000D01*
X138010000Y-69490000D02*
X140250000Y-69490000D01*
X135010000Y-69490000D02*
X137250000Y-69490000D01*
X132010000Y-69490000D02*
X134250000Y-69490000D01*
X129010000Y-69490000D02*
X131250000Y-69490000D01*
X126010000Y-69490000D02*
X128250000Y-69490000D01*
X123010000Y-69490000D02*
X125250000Y-69490000D01*
X120010000Y-69490000D02*
X122250000Y-69490000D01*
X117010000Y-69490000D02*
X119250000Y-69490000D01*
X114010000Y-69490000D02*
X116250000Y-69490000D01*
X111010000Y-69490000D02*
X113250000Y-69490000D01*
X108010000Y-69490000D02*
X110250000Y-69490000D01*
X105010000Y-69490000D02*
X107250000Y-69490000D01*
X102010000Y-69490000D02*
X104250000Y-69490000D01*
X99010000Y-69490000D02*
X101250000Y-69490000D01*
X96010000Y-69490000D02*
X98250000Y-69490000D01*
X93010000Y-69490000D02*
X95250000Y-69490000D01*
X90010000Y-69490000D02*
X92250000Y-69490000D01*
X87010000Y-69490000D02*
X89250000Y-69490000D01*
X84010000Y-69490000D02*
X86250000Y-69490000D01*
X81010000Y-69490000D02*
X83250000Y-69490000D01*
X78010000Y-69490000D02*
X80250000Y-69490000D01*
X75010000Y-69490000D02*
X77250000Y-69490000D01*
X72010000Y-69490000D02*
X74250000Y-69490000D01*
X69010000Y-69490000D02*
X71250000Y-69490000D01*
X66010000Y-69490000D02*
X68250000Y-69490000D01*
X63010000Y-69490000D02*
X65250000Y-69490000D01*
X252010000Y-66490000D02*
X254250000Y-66490000D01*
X249010000Y-66490000D02*
X251250000Y-66490000D01*
X246010000Y-66490000D02*
X248250000Y-66490000D01*
X243010000Y-66490000D02*
X245250000Y-66490000D01*
X240010000Y-66490000D02*
X242250000Y-66490000D01*
X237010000Y-66490000D02*
X239250000Y-66490000D01*
X234010000Y-66490000D02*
X236250000Y-66490000D01*
X231010000Y-66490000D02*
X233250000Y-66490000D01*
X228010000Y-66490000D02*
X230250000Y-66490000D01*
X225010000Y-66490000D02*
X227250000Y-66490000D01*
X222010000Y-66490000D02*
X224250000Y-66490000D01*
X219010000Y-66490000D02*
X221250000Y-66490000D01*
X216010000Y-66490000D02*
X218250000Y-66490000D01*
X213010000Y-66490000D02*
X215250000Y-66490000D01*
X210010000Y-66490000D02*
X212250000Y-66490000D01*
X207010000Y-66490000D02*
X209250000Y-66490000D01*
X204010000Y-66490000D02*
X206250000Y-66490000D01*
X201010000Y-66490000D02*
X203250000Y-66490000D01*
X198010000Y-66490000D02*
X200250000Y-66490000D01*
X195010000Y-66490000D02*
X197250000Y-66490000D01*
X192010000Y-66490000D02*
X194250000Y-66490000D01*
X189010000Y-66490000D02*
X191250000Y-66490000D01*
X186010000Y-66490000D02*
X188250000Y-66490000D01*
X183010000Y-66490000D02*
X185250000Y-66490000D01*
X180010000Y-66490000D02*
X182250000Y-66490000D01*
X177010000Y-66490000D02*
X179250000Y-66490000D01*
X174010000Y-66490000D02*
X176250000Y-66490000D01*
X171010000Y-66490000D02*
X173250000Y-66490000D01*
X168010000Y-66490000D02*
X170250000Y-66490000D01*
X165010000Y-66490000D02*
X167250000Y-66490000D01*
X162010000Y-66490000D02*
X164250000Y-66490000D01*
X159010000Y-66490000D02*
X161250000Y-66490000D01*
X156010000Y-66490000D02*
X158250000Y-66490000D01*
X153010000Y-66490000D02*
X155250000Y-66490000D01*
X150010000Y-66490000D02*
X152250000Y-66490000D01*
X147010000Y-66490000D02*
X149250000Y-66490000D01*
X144010000Y-66490000D02*
X146250000Y-66490000D01*
X141010000Y-66490000D02*
X143250000Y-66490000D01*
X138010000Y-66490000D02*
X140250000Y-66490000D01*
X135010000Y-66490000D02*
X137250000Y-66490000D01*
X132010000Y-66490000D02*
X134250000Y-66490000D01*
X129010000Y-66490000D02*
X131250000Y-66490000D01*
X126010000Y-66490000D02*
X128250000Y-66490000D01*
X123010000Y-66490000D02*
X125250000Y-66490000D01*
X120010000Y-66490000D02*
X122250000Y-66490000D01*
X117010000Y-66490000D02*
X119250000Y-66490000D01*
X114010000Y-66490000D02*
X116250000Y-66490000D01*
X111010000Y-66490000D02*
X113250000Y-66490000D01*
X108010000Y-66490000D02*
X110250000Y-66490000D01*
X105010000Y-66490000D02*
X107250000Y-66490000D01*
X102010000Y-66490000D02*
X104250000Y-66490000D01*
X99010000Y-66490000D02*
X101250000Y-66490000D01*
X96010000Y-66490000D02*
X98250000Y-66490000D01*
X93010000Y-66490000D02*
X95250000Y-66490000D01*
X90010000Y-66490000D02*
X92250000Y-66490000D01*
X87010000Y-66490000D02*
X89250000Y-66490000D01*
X84010000Y-66490000D02*
X86250000Y-66490000D01*
X81010000Y-66490000D02*
X83250000Y-66490000D01*
X78010000Y-66490000D02*
X80250000Y-66490000D01*
X75010000Y-66490000D02*
X77250000Y-66490000D01*
X72010000Y-66490000D02*
X74250000Y-66490000D01*
X69010000Y-66490000D02*
X71250000Y-66490000D01*
X66010000Y-66490000D02*
X68250000Y-66490000D01*
X63010000Y-66490000D02*
X65250000Y-66490000D01*
X252010000Y-63490000D02*
X254250000Y-63490000D01*
X249010000Y-63490000D02*
X251250000Y-63490000D01*
X246010000Y-63490000D02*
X248250000Y-63490000D01*
X243010000Y-63490000D02*
X245250000Y-63490000D01*
X240010000Y-63490000D02*
X242250000Y-63490000D01*
X237010000Y-63490000D02*
X239250000Y-63490000D01*
X234010000Y-63490000D02*
X236250000Y-63490000D01*
X231010000Y-63490000D02*
X233250000Y-63490000D01*
X228010000Y-63490000D02*
X230250000Y-63490000D01*
X225010000Y-63490000D02*
X227250000Y-63490000D01*
X222010000Y-63490000D02*
X224250000Y-63490000D01*
X219010000Y-63490000D02*
X221250000Y-63490000D01*
X216010000Y-63490000D02*
X218250000Y-63490000D01*
X213010000Y-63490000D02*
X215250000Y-63490000D01*
X210010000Y-63490000D02*
X212250000Y-63490000D01*
X207010000Y-63490000D02*
X209250000Y-63490000D01*
X204010000Y-63490000D02*
X206250000Y-63490000D01*
X201010000Y-63490000D02*
X203250000Y-63490000D01*
X198010000Y-63490000D02*
X200250000Y-63490000D01*
X195010000Y-63490000D02*
X197250000Y-63490000D01*
X192010000Y-63490000D02*
X194250000Y-63490000D01*
X189010000Y-63490000D02*
X191250000Y-63490000D01*
X186010000Y-63490000D02*
X188250000Y-63490000D01*
X183010000Y-63490000D02*
X185250000Y-63490000D01*
X180010000Y-63490000D02*
X182250000Y-63490000D01*
X177010000Y-63490000D02*
X179250000Y-63490000D01*
X174010000Y-63490000D02*
X176250000Y-63490000D01*
X171010000Y-63490000D02*
X173250000Y-63490000D01*
X168010000Y-63490000D02*
X170250000Y-63490000D01*
X165010000Y-63490000D02*
X167250000Y-63490000D01*
X162010000Y-63490000D02*
X164250000Y-63490000D01*
X159010000Y-63490000D02*
X161250000Y-63490000D01*
X156010000Y-63490000D02*
X158250000Y-63490000D01*
X153010000Y-63490000D02*
X155250000Y-63490000D01*
X150010000Y-63490000D02*
X152250000Y-63490000D01*
X147010000Y-63490000D02*
X149250000Y-63490000D01*
X144010000Y-63490000D02*
X146250000Y-63490000D01*
X141010000Y-63490000D02*
X143250000Y-63490000D01*
X138010000Y-63490000D02*
X140250000Y-63490000D01*
X135010000Y-63490000D02*
X137250000Y-63490000D01*
X132010000Y-63490000D02*
X134250000Y-63490000D01*
X129010000Y-63490000D02*
X131250000Y-63490000D01*
X126010000Y-63490000D02*
X128250000Y-63490000D01*
X123010000Y-63490000D02*
X125250000Y-63490000D01*
X120010000Y-63490000D02*
X122250000Y-63490000D01*
X117010000Y-63490000D02*
X119250000Y-63490000D01*
X114010000Y-63490000D02*
X116250000Y-63490000D01*
X111010000Y-63490000D02*
X113250000Y-63490000D01*
X108010000Y-63490000D02*
X110250000Y-63490000D01*
X105010000Y-63490000D02*
X107250000Y-63490000D01*
X102010000Y-63490000D02*
X104250000Y-63490000D01*
X99010000Y-63490000D02*
X101250000Y-63490000D01*
X96010000Y-63490000D02*
X98250000Y-63490000D01*
X93010000Y-63490000D02*
X95250000Y-63490000D01*
X90010000Y-63490000D02*
X92250000Y-63490000D01*
X87010000Y-63490000D02*
X89250000Y-63490000D01*
X84010000Y-63490000D02*
X86250000Y-63490000D01*
X81010000Y-63490000D02*
X83250000Y-63490000D01*
X78010000Y-63490000D02*
X80250000Y-63490000D01*
X75010000Y-63490000D02*
X77250000Y-63490000D01*
X72010000Y-63490000D02*
X74250000Y-63490000D01*
X69010000Y-63490000D02*
X71250000Y-63490000D01*
X66010000Y-63490000D02*
X68250000Y-63490000D01*
X63010000Y-63490000D02*
X65250000Y-63490000D01*
X252010000Y-60490000D02*
X254250000Y-60490000D01*
X249010000Y-60490000D02*
X251250000Y-60490000D01*
X246010000Y-60490000D02*
X248250000Y-60490000D01*
X243010000Y-60490000D02*
X245250000Y-60490000D01*
X240010000Y-60490000D02*
X242250000Y-60490000D01*
X237010000Y-60490000D02*
X239250000Y-60490000D01*
X234010000Y-60490000D02*
X236250000Y-60490000D01*
X231010000Y-60490000D02*
X233250000Y-60490000D01*
X228010000Y-60490000D02*
X230250000Y-60490000D01*
X225010000Y-60490000D02*
X227250000Y-60490000D01*
X222010000Y-60490000D02*
X224250000Y-60490000D01*
X219010000Y-60490000D02*
X221250000Y-60490000D01*
X216010000Y-60490000D02*
X218250000Y-60490000D01*
X213010000Y-60490000D02*
X215250000Y-60490000D01*
X210010000Y-60490000D02*
X212250000Y-60490000D01*
X207010000Y-60490000D02*
X209250000Y-60490000D01*
X204010000Y-60490000D02*
X206250000Y-60490000D01*
X201010000Y-60490000D02*
X203250000Y-60490000D01*
X198010000Y-60490000D02*
X200250000Y-60490000D01*
X195010000Y-60490000D02*
X197250000Y-60490000D01*
X192010000Y-60490000D02*
X194250000Y-60490000D01*
X189010000Y-60490000D02*
X191250000Y-60490000D01*
X186010000Y-60490000D02*
X188250000Y-60490000D01*
X183010000Y-60490000D02*
X185250000Y-60490000D01*
X180010000Y-60490000D02*
X182250000Y-60490000D01*
X177010000Y-60490000D02*
X179250000Y-60490000D01*
X174010000Y-60490000D02*
X176250000Y-60490000D01*
X171010000Y-60490000D02*
X173250000Y-60490000D01*
X168010000Y-60490000D02*
X170250000Y-60490000D01*
X165010000Y-60490000D02*
X167250000Y-60490000D01*
X162010000Y-60490000D02*
X164250000Y-60490000D01*
X159010000Y-60490000D02*
X161250000Y-60490000D01*
X156010000Y-60490000D02*
X158250000Y-60490000D01*
X153010000Y-60490000D02*
X155250000Y-60490000D01*
X150010000Y-60490000D02*
X152250000Y-60490000D01*
X147010000Y-60490000D02*
X149250000Y-60490000D01*
X144010000Y-60490000D02*
X146250000Y-60490000D01*
X141010000Y-60490000D02*
X143250000Y-60490000D01*
X138010000Y-60490000D02*
X140250000Y-60490000D01*
X135010000Y-60490000D02*
X137250000Y-60490000D01*
X132010000Y-60490000D02*
X134250000Y-60490000D01*
X129010000Y-60490000D02*
X131250000Y-60490000D01*
X126010000Y-60490000D02*
X128250000Y-60490000D01*
X123010000Y-60490000D02*
X125250000Y-60490000D01*
X120010000Y-60490000D02*
X122250000Y-60490000D01*
X117010000Y-60490000D02*
X119250000Y-60490000D01*
X114010000Y-60490000D02*
X116250000Y-60490000D01*
X111010000Y-60490000D02*
X113250000Y-60490000D01*
X108010000Y-60490000D02*
X110250000Y-60490000D01*
X105010000Y-60490000D02*
X107250000Y-60490000D01*
X102010000Y-60490000D02*
X104250000Y-60490000D01*
X99010000Y-60490000D02*
X101250000Y-60490000D01*
X96010000Y-60490000D02*
X98250000Y-60490000D01*
X93010000Y-60490000D02*
X95250000Y-60490000D01*
X90010000Y-60490000D02*
X92250000Y-60490000D01*
X87010000Y-60490000D02*
X89250000Y-60490000D01*
X84010000Y-60490000D02*
X86250000Y-60490000D01*
X81010000Y-60490000D02*
X83250000Y-60490000D01*
X78010000Y-60490000D02*
X80250000Y-60490000D01*
X75010000Y-60490000D02*
X77250000Y-60490000D01*
X72010000Y-60490000D02*
X74250000Y-60490000D01*
X69010000Y-60490000D02*
X71250000Y-60490000D01*
X66010000Y-60490000D02*
X68250000Y-60490000D01*
X63010000Y-60490000D02*
X65250000Y-60490000D01*
X252010000Y-57490000D02*
X254250000Y-57490000D01*
X249010000Y-57490000D02*
X251250000Y-57490000D01*
X246010000Y-57490000D02*
X248250000Y-57490000D01*
X243010000Y-57490000D02*
X245250000Y-57490000D01*
X240010000Y-57490000D02*
X242250000Y-57490000D01*
X237010000Y-57490000D02*
X239250000Y-57490000D01*
X234010000Y-57490000D02*
X236250000Y-57490000D01*
X231010000Y-57490000D02*
X233250000Y-57490000D01*
X228010000Y-57490000D02*
X230250000Y-57490000D01*
X225010000Y-57490000D02*
X227250000Y-57490000D01*
X222010000Y-57490000D02*
X224250000Y-57490000D01*
X219010000Y-57490000D02*
X221250000Y-57490000D01*
X216010000Y-57490000D02*
X218250000Y-57490000D01*
X213010000Y-57490000D02*
X215250000Y-57490000D01*
X210010000Y-57490000D02*
X212250000Y-57490000D01*
X207010000Y-57490000D02*
X209250000Y-57490000D01*
X204010000Y-57490000D02*
X206250000Y-57490000D01*
X201010000Y-57490000D02*
X203250000Y-57490000D01*
X198010000Y-57490000D02*
X200250000Y-57490000D01*
X195010000Y-57490000D02*
X197250000Y-57490000D01*
X192010000Y-57490000D02*
X194250000Y-57490000D01*
X189010000Y-57490000D02*
X191250000Y-57490000D01*
X186010000Y-57490000D02*
X188250000Y-57490000D01*
X183010000Y-57490000D02*
X185250000Y-57490000D01*
X180010000Y-57490000D02*
X182250000Y-57490000D01*
X177010000Y-57490000D02*
X179250000Y-57490000D01*
X174010000Y-57490000D02*
X176250000Y-57490000D01*
X171010000Y-57490000D02*
X173250000Y-57490000D01*
X168010000Y-57490000D02*
X170250000Y-57490000D01*
X165010000Y-57490000D02*
X167250000Y-57490000D01*
X162010000Y-57490000D02*
X164250000Y-57490000D01*
X159010000Y-57490000D02*
X161250000Y-57490000D01*
X156010000Y-57490000D02*
X158250000Y-57490000D01*
X153010000Y-57490000D02*
X155250000Y-57490000D01*
X150010000Y-57490000D02*
X152250000Y-57490000D01*
X147010000Y-57490000D02*
X149250000Y-57490000D01*
X144010000Y-57490000D02*
X146250000Y-57490000D01*
X141010000Y-57490000D02*
X143250000Y-57490000D01*
X138010000Y-57490000D02*
X140250000Y-57490000D01*
X135010000Y-57490000D02*
X137250000Y-57490000D01*
X132010000Y-57490000D02*
X134250000Y-57490000D01*
X129010000Y-57490000D02*
X131250000Y-57490000D01*
X126010000Y-57490000D02*
X128250000Y-57490000D01*
X123010000Y-57490000D02*
X125250000Y-57490000D01*
X120010000Y-57490000D02*
X122250000Y-57490000D01*
X117010000Y-57490000D02*
X119250000Y-57490000D01*
X114010000Y-57490000D02*
X116250000Y-57490000D01*
X111010000Y-57490000D02*
X113250000Y-57490000D01*
X108010000Y-57490000D02*
X110250000Y-57490000D01*
X105010000Y-57490000D02*
X107250000Y-57490000D01*
X102010000Y-57490000D02*
X104250000Y-57490000D01*
X99010000Y-57490000D02*
X101250000Y-57490000D01*
X96010000Y-57490000D02*
X98250000Y-57490000D01*
X93010000Y-57490000D02*
X95250000Y-57490000D01*
X90010000Y-57490000D02*
X92250000Y-57490000D01*
X87010000Y-57490000D02*
X89250000Y-57490000D01*
X84010000Y-57490000D02*
X86250000Y-57490000D01*
X81010000Y-57490000D02*
X83250000Y-57490000D01*
X78010000Y-57490000D02*
X80250000Y-57490000D01*
X75010000Y-57490000D02*
X77250000Y-57490000D01*
X72010000Y-57490000D02*
X74250000Y-57490000D01*
X69010000Y-57490000D02*
X71250000Y-57490000D01*
X66010000Y-57490000D02*
X68250000Y-57490000D01*
X63010000Y-57490000D02*
X65250000Y-57490000D01*
X65250000Y-57490000D02*
X65260000Y-57500000D01*
X51856000Y-106241510D02*
X59268490Y-113654000D01*
X51287000Y-99160000D02*
X51856000Y-99729000D01*
X51856000Y-99729000D02*
X51856000Y-106241510D01*
X50560000Y-99160000D02*
X51287000Y-99160000D01*
X59268490Y-113654000D02*
X245066000Y-113654000D01*
X59478910Y-113146000D02*
X239614000Y-113146000D01*
X54370000Y-98160000D02*
X54384000Y-98174000D01*
X54384000Y-98174000D02*
X54384000Y-108051090D01*
X54384000Y-108051090D02*
X59478910Y-113146000D01*
X50560000Y-98160000D02*
X54370000Y-98160000D01*
X59689330Y-112638000D02*
X234472000Y-112638000D01*
X54892000Y-107840670D02*
X59689330Y-112638000D01*
X50560000Y-97160000D02*
X54241000Y-97160000D01*
X54241000Y-97160000D02*
X54892000Y-97811000D01*
X54892000Y-97811000D02*
X54892000Y-107840670D01*
X59899750Y-112130000D02*
X228950000Y-112130000D01*
X50560000Y-96160000D02*
X55110000Y-96160000D01*
X55400000Y-96450000D02*
X55400000Y-107630250D01*
X55400000Y-107630250D02*
X59899750Y-112130000D01*
X55110000Y-96160000D02*
X55400000Y-96450000D01*
X263090000Y-82540000D02*
X259409000Y-82540000D01*
X256940000Y-87160000D02*
X255790000Y-88310000D01*
X256940000Y-83890000D02*
X256940000Y-87160000D01*
X259409000Y-82540000D02*
X259309000Y-82640000D01*
X259309000Y-82640000D02*
X258190000Y-82640000D01*
X258190000Y-82640000D02*
X256940000Y-83890000D01*
X259400000Y-83540000D02*
X259380000Y-83520000D01*
X258599210Y-83520000D02*
X257564000Y-84555210D01*
X263090000Y-83540000D02*
X259400000Y-83540000D01*
X257570000Y-90621210D02*
X257570000Y-93060000D01*
X256250000Y-94380000D02*
X255750000Y-94380000D01*
X259380000Y-83520000D02*
X258599210Y-83520000D01*
X257564000Y-90615210D02*
X257570000Y-90621210D01*
X257564000Y-84555210D02*
X257564000Y-90615210D01*
X257570000Y-93060000D02*
X256250000Y-94380000D01*
X257824000Y-96416000D02*
X257030000Y-97210000D01*
X260190000Y-84040000D02*
X258438420Y-84040000D01*
X258438420Y-84040000D02*
X257818000Y-84660420D01*
X257824000Y-84666420D02*
X257824000Y-96416000D01*
X257818000Y-84660420D02*
X257824000Y-84666420D01*
X53460000Y-94660000D02*
X55252000Y-94660000D01*
X55252000Y-94660000D02*
X55252000Y-94692000D01*
X60215380Y-111368000D02*
X220622000Y-111368000D01*
X55252000Y-94692000D02*
X56162000Y-95602000D01*
X56162000Y-107314620D02*
X60215380Y-111368000D01*
X56162000Y-95602000D02*
X56162000Y-107314620D01*
X56670000Y-93790000D02*
X56670000Y-107104200D01*
X56670000Y-107104200D02*
X60425800Y-110860000D01*
X60425800Y-110860000D02*
X215080000Y-110860000D01*
X53460000Y-93660000D02*
X56540000Y-93660000D01*
X56540000Y-93660000D02*
X56670000Y-93790000D01*
X56550790Y-93160000D02*
X56924000Y-93533210D01*
X50560000Y-93160000D02*
X56550790Y-93160000D01*
X56924000Y-93533210D02*
X56924000Y-106998990D01*
X60531010Y-110606000D02*
X212234000Y-110606000D01*
X56924000Y-106998990D02*
X60531010Y-110606000D01*
X53460000Y-92660000D02*
X56410000Y-92660000D01*
X60636220Y-110352000D02*
X209438000Y-110352000D01*
X57178000Y-106893780D02*
X60636220Y-110352000D01*
X56410000Y-92660000D02*
X57178000Y-93428000D01*
X57178000Y-93428000D02*
X57178000Y-106893780D01*
X60741430Y-110098000D02*
X206672000Y-110098000D01*
X57432000Y-106788570D02*
X60741430Y-110098000D01*
X56863160Y-92160000D02*
X57432000Y-92728840D01*
X57432000Y-92728840D02*
X57432000Y-106788570D01*
X50560000Y-92160000D02*
X56863160Y-92160000D01*
X57686000Y-92623630D02*
X57686000Y-106683360D01*
X57686000Y-106683360D02*
X60846640Y-109844000D01*
X53460000Y-91660000D02*
X56722370Y-91660000D01*
X60846640Y-109844000D02*
X204116000Y-109844000D01*
X56722370Y-91660000D02*
X57686000Y-92623630D01*
X60951850Y-109590000D02*
X201300000Y-109590000D01*
X50560000Y-91160000D02*
X56581580Y-91160000D01*
X57940000Y-106578150D02*
X60951850Y-109590000D01*
X56581580Y-91160000D02*
X57940000Y-92518420D01*
X57940000Y-92518420D02*
X57940000Y-106578150D01*
X58194000Y-106472940D02*
X61057060Y-109336000D01*
X61057060Y-109336000D02*
X198614000Y-109336000D01*
X56440790Y-90660000D02*
X58194000Y-92413210D01*
X53460000Y-90660000D02*
X56440790Y-90660000D01*
X58194000Y-92413210D02*
X58194000Y-106472940D01*
X61162270Y-109082000D02*
X195788000Y-109082000D01*
X56300000Y-90160000D02*
X58448000Y-92308000D01*
X58448000Y-106367730D02*
X61162270Y-109082000D01*
X58448000Y-92308000D02*
X58448000Y-106367730D01*
X50560000Y-90160000D02*
X56300000Y-90160000D01*
X53460000Y-89660000D02*
X58391580Y-89660000D01*
X58702000Y-106262520D02*
X61267480Y-108828000D01*
X61267480Y-108828000D02*
X193112000Y-108828000D01*
X58702000Y-89970420D02*
X58702000Y-106262520D01*
X58391580Y-89660000D02*
X58702000Y-89970420D01*
X58250790Y-89160000D02*
X58956000Y-89865210D01*
X58956000Y-106157310D02*
X61372690Y-108574000D01*
X58956000Y-89865210D02*
X58956000Y-106157310D01*
X61372690Y-108574000D02*
X190326000Y-108574000D01*
X50560000Y-89160000D02*
X58250790Y-89160000D01*
X59718000Y-105841680D02*
X61688320Y-107812000D01*
X61688320Y-107812000D02*
X182058000Y-107812000D01*
X58996320Y-87660000D02*
X59718000Y-88381680D01*
X53460000Y-87660000D02*
X58996320Y-87660000D01*
X59718000Y-88381680D02*
X59718000Y-105841680D01*
X59972000Y-105736470D02*
X61793530Y-107558000D01*
X61793530Y-107558000D02*
X179412000Y-107558000D01*
X59972000Y-88276470D02*
X59972000Y-105736470D01*
X50560000Y-87160000D02*
X58855530Y-87160000D01*
X58855530Y-87160000D02*
X59972000Y-88276470D01*
X58714740Y-86660000D02*
X60226000Y-88171260D01*
X60226000Y-88171260D02*
X60226000Y-105631260D01*
X53460000Y-86660000D02*
X58714740Y-86660000D01*
X61898740Y-107304000D02*
X176786000Y-107304000D01*
X60226000Y-105631260D02*
X61898740Y-107304000D01*
X60734000Y-105420840D02*
X62109160Y-106796000D01*
X62109160Y-106796000D02*
X171254000Y-106796000D01*
X58433160Y-85660000D02*
X60734000Y-87960840D01*
X53460000Y-85660000D02*
X58433160Y-85660000D01*
X60734000Y-87960840D02*
X60734000Y-105420840D01*
X58151580Y-84660000D02*
X61242000Y-87750420D01*
X62319580Y-106288000D02*
X165512000Y-106288000D01*
X53460000Y-84660000D02*
X58151580Y-84660000D01*
X61242000Y-87750420D02*
X61242000Y-105210420D01*
X61242000Y-105210420D02*
X62319580Y-106288000D01*
X58010790Y-84160000D02*
X61496000Y-87645210D01*
X61496000Y-87645210D02*
X61496000Y-105105210D01*
X50560000Y-84160000D02*
X58010790Y-84160000D01*
X61496000Y-105105210D02*
X62424790Y-106034000D01*
X162736000Y-106034000D02*
X163120000Y-105650000D01*
X62424790Y-106034000D02*
X162736000Y-106034000D01*
X62530000Y-105780000D02*
X159900000Y-105780000D01*
X53460000Y-83660000D02*
X57870000Y-83660000D01*
X61750000Y-87540000D02*
X61750000Y-105000000D01*
X61750000Y-105000000D02*
X62530000Y-105780000D01*
X159900000Y-105780000D02*
X160130000Y-105550000D01*
X57870000Y-83660000D02*
X61750000Y-87540000D01*
X160130000Y-105550000D02*
X160130000Y-105370000D01*
X59528910Y-48604000D02*
X146544000Y-48604000D01*
X54404000Y-53728910D02*
X59528910Y-48604000D01*
X53490000Y-63070000D02*
X54320000Y-63070000D01*
X54404000Y-62986000D02*
X54404000Y-53728910D01*
X54320000Y-63070000D02*
X54404000Y-62986000D01*
X55420000Y-54149750D02*
X59949750Y-49620000D01*
X55420000Y-64059580D02*
X55420000Y-54149750D01*
X59949750Y-49620000D02*
X132510000Y-49620000D01*
X53490000Y-65070000D02*
X54409580Y-65070000D01*
X54409580Y-65070000D02*
X55420000Y-64059580D01*
X50590000Y-65570000D02*
X54268790Y-65570000D01*
X55674000Y-54254960D02*
X60054960Y-49874000D01*
X54268790Y-65570000D02*
X55674000Y-64164790D01*
X60054960Y-49874000D02*
X129904000Y-49874000D01*
X55674000Y-64164790D02*
X55674000Y-54254960D01*
X56436000Y-66829530D02*
X56436000Y-54570590D01*
X56195530Y-67070000D02*
X56436000Y-66829530D01*
X60370590Y-50636000D02*
X121476000Y-50636000D01*
X56436000Y-54570590D02*
X60370590Y-50636000D01*
X53490000Y-67070000D02*
X56195530Y-67070000D01*
X50590000Y-67570000D02*
X56054740Y-67570000D01*
X60475800Y-50890000D02*
X118910000Y-50890000D01*
X56054740Y-67570000D02*
X56690000Y-66934740D01*
X56690000Y-54675800D02*
X60475800Y-50890000D01*
X56690000Y-66934740D02*
X56690000Y-54675800D01*
X56944000Y-54781010D02*
X60581010Y-51144000D01*
X56944000Y-67039950D02*
X56944000Y-54781010D01*
X60581010Y-51144000D02*
X116304000Y-51144000D01*
X53490000Y-68070000D02*
X55913950Y-68070000D01*
X55913950Y-68070000D02*
X56944000Y-67039950D01*
X55632370Y-69070000D02*
X57452000Y-67250370D01*
X53490000Y-69070000D02*
X55632370Y-69070000D01*
X57452000Y-54991430D02*
X60791430Y-51652000D01*
X60791430Y-51652000D02*
X110762000Y-51652000D01*
X57452000Y-67250370D02*
X57452000Y-54991430D01*
X57960000Y-55201850D02*
X61001850Y-52160000D01*
X55350790Y-70070000D02*
X57960000Y-67460790D01*
X61001850Y-52160000D02*
X105150000Y-52160000D01*
X57960000Y-67460790D02*
X57960000Y-55201850D01*
X53490000Y-70070000D02*
X55350790Y-70070000D01*
X50590000Y-70570000D02*
X55210000Y-70570000D01*
X61107060Y-52414000D02*
X102324000Y-52414000D01*
X55210000Y-70570000D02*
X58214000Y-67566000D01*
X58214000Y-67566000D02*
X58214000Y-55307060D01*
X58214000Y-55307060D02*
X61107060Y-52414000D01*
X59230000Y-71390790D02*
X59230000Y-55727900D01*
X50590000Y-72570000D02*
X58050790Y-72570000D01*
X61527900Y-53430000D02*
X91410000Y-53430000D01*
X58050790Y-72570000D02*
X59230000Y-71390790D01*
X59230000Y-55727900D02*
X61527900Y-53430000D01*
X59484000Y-71496000D02*
X59484000Y-55833110D01*
X88574000Y-53684000D02*
X91160000Y-56270000D01*
X59484000Y-55833110D02*
X61633110Y-53684000D01*
X57910000Y-73070000D02*
X59484000Y-71496000D01*
X61633110Y-53684000D02*
X88574000Y-53684000D01*
X53490000Y-73070000D02*
X57910000Y-73070000D01*
X61738320Y-53938000D02*
X85838000Y-53938000D01*
X59738000Y-72808320D02*
X59738000Y-55938320D01*
X59738000Y-55938320D02*
X61738320Y-53938000D01*
X85838000Y-53938000D02*
X88140000Y-56240000D01*
X58976320Y-73570000D02*
X59738000Y-72808320D01*
X50590000Y-73570000D02*
X58976320Y-73570000D01*
X74874000Y-54954000D02*
X76130000Y-56210000D01*
X60754000Y-73229160D02*
X60754000Y-56359160D01*
X60754000Y-56359160D02*
X62159160Y-54954000D01*
X58413160Y-75570000D02*
X60754000Y-73229160D01*
X50590000Y-75570000D02*
X58413160Y-75570000D01*
X62159160Y-54954000D02*
X74874000Y-54954000D01*
X61008000Y-73334370D02*
X61008000Y-56464370D01*
X62264370Y-55208000D02*
X72058000Y-55208000D01*
X61008000Y-56464370D02*
X62264370Y-55208000D01*
X72058000Y-55208000D02*
X73120000Y-56270000D01*
X53490000Y-76070000D02*
X58272370Y-76070000D01*
X58272370Y-76070000D02*
X61008000Y-73334370D01*
X62474790Y-55716000D02*
X66456000Y-55716000D01*
X66456000Y-55716000D02*
X67120000Y-56380000D01*
X61516000Y-73544790D02*
X61516000Y-56674790D01*
X53490000Y-77070000D02*
X57990790Y-77070000D01*
X57990790Y-77070000D02*
X61516000Y-73544790D01*
X61516000Y-56674790D02*
X62474790Y-55716000D01*
X61770000Y-73650000D02*
X61770000Y-56780000D01*
X62580000Y-55970000D02*
X63860000Y-55970000D01*
X61770000Y-56780000D02*
X62580000Y-55970000D01*
X63860000Y-55970000D02*
X64100000Y-56210000D01*
X50590000Y-77570000D02*
X57850000Y-77570000D01*
X57850000Y-77570000D02*
X61770000Y-73650000D01*
M02*
