M48
; DRILL file {KiCad 6.0.8+dfsg-1~bpo11+1} date Tue 30 May 2023 04:57:45 PM EDT
; FORMAT={-:-/ absolute / metric / decimal}
; #@! TF.CreationDate,2023-05-30T16:57:45-04:00
; #@! TF.GenerationSoftware,Kicad,Pcbnew,6.0.8+dfsg-1~bpo11+1
; #@! TF.FileFunction,Plated,1,2,PTH
FMAT,2
METRIC
; #@! TA.AperFunction,Plated,PTH,ViaDrill
T1C0.200
%
G90
G05
T1
X62.98Y-57.49
X62.98Y-60.49
X62.98Y-63.49
X62.98Y-66.49
X62.98Y-69.49
X62.98Y-72.49
X62.98Y-75.49
X62.98Y-78.49
X62.98Y-81.49
X62.98Y-84.49
X62.98Y-87.49
X62.98Y-90.49
X62.98Y-93.49
X62.98Y-96.49
X62.98Y-99.49
X62.98Y-102.49
X64.13Y-56.83
X65.3Y-57.51
X65.3Y-60.51
X65.3Y-63.51
X65.3Y-66.51
X65.3Y-69.51
X65.3Y-72.51
X65.3Y-75.51
X65.3Y-78.51
X65.3Y-81.51
X65.3Y-84.51
X65.3Y-87.51
X65.3Y-90.51
X65.3Y-93.51
X65.3Y-96.51
X65.3Y-99.51
X65.3Y-102.51
X65.98Y-57.49
X65.98Y-60.49
X65.98Y-63.49
X65.98Y-66.49
X65.98Y-69.49
X65.98Y-72.49
X65.98Y-75.49
X65.98Y-78.49
X65.98Y-81.49
X65.98Y-84.49
X65.98Y-87.49
X65.98Y-90.49
X65.98Y-93.49
X65.98Y-96.49
X65.98Y-99.49
X65.98Y-102.49
X67.13Y-56.83
X68.3Y-57.51
X68.3Y-60.51
X68.3Y-63.51
X68.3Y-66.51
X68.3Y-69.51
X68.3Y-72.51
X68.3Y-75.51
X68.3Y-78.51
X68.3Y-81.51
X68.3Y-84.51
X68.3Y-87.51
X68.3Y-90.51
X68.3Y-93.51
X68.3Y-96.51
X68.3Y-99.51
X68.3Y-102.51
X68.98Y-57.49
X68.98Y-60.49
X68.98Y-63.49
X68.98Y-66.49
X68.98Y-69.49
X68.98Y-72.49
X68.98Y-75.49
X68.98Y-78.49
X68.98Y-81.49
X68.98Y-84.49
X68.98Y-87.49
X68.98Y-90.49
X68.98Y-93.49
X68.98Y-96.49
X68.98Y-99.49
X68.98Y-102.49
X70.13Y-56.83
X71.3Y-57.51
X71.3Y-60.51
X71.3Y-63.51
X71.3Y-66.51
X71.3Y-69.51
X71.3Y-72.51
X71.3Y-75.51
X71.3Y-78.51
X71.3Y-81.51
X71.3Y-84.51
X71.3Y-87.51
X71.3Y-90.51
X71.3Y-93.51
X71.3Y-96.51
X71.3Y-99.51
X71.3Y-102.51
X71.98Y-57.49
X71.98Y-60.49
X71.98Y-63.49
X71.98Y-66.49
X71.98Y-69.49
X71.98Y-72.49
X71.98Y-75.49
X71.98Y-78.49
X71.98Y-81.49
X71.98Y-84.49
X71.98Y-87.49
X71.98Y-90.49
X71.98Y-93.49
X71.98Y-96.49
X71.98Y-99.49
X71.98Y-102.49
X73.13Y-56.83
X74.3Y-57.51
X74.3Y-60.51
X74.3Y-63.51
X74.3Y-66.51
X74.3Y-69.51
X74.3Y-72.51
X74.3Y-75.51
X74.3Y-78.51
X74.3Y-81.51
X74.3Y-84.51
X74.3Y-87.51
X74.3Y-90.51
X74.3Y-93.51
X74.3Y-96.51
X74.3Y-99.51
X74.3Y-102.51
X74.98Y-57.49
X74.98Y-60.49
X74.98Y-63.49
X74.98Y-66.49
X74.98Y-69.49
X74.98Y-72.49
X74.98Y-75.49
X74.98Y-78.49
X74.98Y-81.49
X74.98Y-84.49
X74.98Y-87.49
X74.98Y-90.49
X74.98Y-93.49
X74.98Y-96.49
X74.98Y-99.49
X74.98Y-102.49
X76.13Y-56.83
X77.3Y-57.51
X77.3Y-60.51
X77.3Y-63.51
X77.3Y-66.51
X77.3Y-69.51
X77.3Y-72.51
X77.3Y-75.51
X77.3Y-78.51
X77.3Y-81.51
X77.3Y-84.51
X77.3Y-87.51
X77.3Y-90.51
X77.3Y-93.51
X77.3Y-96.51
X77.3Y-99.51
X77.3Y-102.51
X77.98Y-57.49
X77.98Y-60.49
X77.98Y-63.49
X77.98Y-66.49
X77.98Y-69.49
X77.98Y-72.49
X77.98Y-75.49
X77.98Y-78.49
X77.98Y-81.49
X77.98Y-84.49
X77.98Y-87.49
X77.98Y-90.49
X77.98Y-93.49
X77.98Y-96.49
X77.98Y-99.49
X77.98Y-102.49
X79.13Y-56.83
X80.3Y-57.51
X80.3Y-60.51
X80.3Y-63.51
X80.3Y-66.51
X80.3Y-69.51
X80.3Y-72.51
X80.3Y-75.51
X80.3Y-78.51
X80.3Y-81.51
X80.3Y-84.51
X80.3Y-87.51
X80.3Y-90.51
X80.3Y-93.51
X80.3Y-96.51
X80.3Y-99.51
X80.3Y-102.51
X80.98Y-57.49
X80.98Y-60.49
X80.98Y-63.49
X80.98Y-66.49
X80.98Y-69.49
X80.98Y-72.49
X80.98Y-75.49
X80.98Y-78.49
X80.98Y-81.49
X80.98Y-84.49
X80.98Y-87.49
X80.98Y-90.49
X80.98Y-93.49
X80.98Y-96.49
X80.98Y-99.49
X80.98Y-102.49
X82.13Y-56.83
X83.3Y-57.51
X83.3Y-60.51
X83.3Y-63.51
X83.3Y-66.51
X83.3Y-69.51
X83.3Y-72.51
X83.3Y-75.51
X83.3Y-78.51
X83.3Y-81.51
X83.3Y-84.51
X83.3Y-87.51
X83.3Y-90.51
X83.3Y-93.51
X83.3Y-96.51
X83.3Y-99.51
X83.3Y-102.51
X83.98Y-57.49
X83.98Y-60.49
X83.98Y-63.49
X83.98Y-66.49
X83.98Y-69.49
X83.98Y-72.49
X83.98Y-75.49
X83.98Y-78.49
X83.98Y-81.49
X83.98Y-84.49
X83.98Y-87.49
X83.98Y-90.49
X83.98Y-93.49
X83.98Y-96.49
X83.98Y-99.49
X83.98Y-102.49
X85.13Y-56.83
X86.3Y-57.51
X86.3Y-60.51
X86.3Y-63.51
X86.3Y-66.51
X86.3Y-69.51
X86.3Y-72.51
X86.3Y-75.51
X86.3Y-78.51
X86.3Y-81.51
X86.3Y-84.51
X86.3Y-87.51
X86.3Y-90.51
X86.3Y-93.51
X86.3Y-96.51
X86.3Y-99.51
X86.3Y-102.51
X86.98Y-57.49
X86.98Y-60.49
X86.98Y-63.49
X86.98Y-66.49
X86.98Y-69.49
X86.98Y-72.49
X86.98Y-75.49
X86.98Y-78.49
X86.98Y-81.49
X86.98Y-84.49
X86.98Y-87.49
X86.98Y-90.49
X86.98Y-93.49
X86.98Y-96.49
X86.98Y-99.49
X86.98Y-102.49
X88.13Y-56.83
X89.3Y-57.51
X89.3Y-60.51
X89.3Y-63.51
X89.3Y-66.51
X89.3Y-69.51
X89.3Y-72.51
X89.3Y-75.51
X89.3Y-78.51
X89.3Y-81.51
X89.3Y-84.51
X89.3Y-87.51
X89.3Y-90.51
X89.3Y-93.51
X89.3Y-96.51
X89.3Y-99.51
X89.3Y-102.51
X89.98Y-57.49
X89.98Y-60.49
X89.98Y-63.49
X89.98Y-66.49
X89.98Y-69.49
X89.98Y-72.49
X89.98Y-75.49
X89.98Y-78.49
X89.98Y-81.49
X89.98Y-84.49
X89.98Y-87.49
X89.98Y-90.49
X89.98Y-93.49
X89.98Y-96.49
X89.98Y-99.49
X89.98Y-102.49
X91.13Y-56.83
X92.3Y-57.51
X92.3Y-60.51
X92.3Y-63.51
X92.3Y-66.51
X92.3Y-69.51
X92.3Y-72.51
X92.3Y-75.51
X92.3Y-78.51
X92.3Y-81.51
X92.3Y-84.51
X92.3Y-87.51
X92.3Y-90.51
X92.3Y-93.51
X92.3Y-96.51
X92.3Y-99.51
X92.3Y-102.51
X92.98Y-57.49
X92.98Y-60.49
X92.98Y-63.49
X92.98Y-66.49
X92.98Y-69.49
X92.98Y-72.49
X92.98Y-75.49
X92.98Y-78.49
X92.98Y-81.49
X92.98Y-84.49
X92.98Y-87.49
X92.98Y-90.49
X92.98Y-93.49
X92.98Y-96.49
X92.98Y-99.49
X92.98Y-102.49
X94.13Y-56.83
X95.3Y-57.51
X95.3Y-60.51
X95.3Y-63.51
X95.3Y-66.51
X95.3Y-69.51
X95.3Y-72.51
X95.3Y-75.51
X95.3Y-78.51
X95.3Y-81.51
X95.3Y-84.51
X95.3Y-87.51
X95.3Y-90.51
X95.3Y-93.51
X95.3Y-96.51
X95.3Y-99.51
X95.3Y-102.51
X95.98Y-57.49
X95.98Y-60.49
X95.98Y-63.49
X95.98Y-66.49
X95.98Y-69.49
X95.98Y-72.49
X95.98Y-75.49
X95.98Y-78.49
X95.98Y-81.49
X95.98Y-84.49
X95.98Y-87.49
X95.98Y-90.49
X95.98Y-93.49
X95.98Y-96.49
X95.98Y-99.49
X95.98Y-102.49
X97.13Y-56.83
X98.3Y-57.51
X98.3Y-60.51
X98.3Y-63.51
X98.3Y-66.51
X98.3Y-69.51
X98.3Y-72.51
X98.3Y-75.51
X98.3Y-78.51
X98.3Y-81.51
X98.3Y-84.51
X98.3Y-87.51
X98.3Y-90.51
X98.3Y-93.51
X98.3Y-96.51
X98.3Y-99.51
X98.3Y-102.51
X98.98Y-57.49
X98.98Y-60.49
X98.98Y-63.49
X98.98Y-66.49
X98.98Y-69.49
X98.98Y-72.49
X98.98Y-75.49
X98.98Y-78.49
X98.98Y-81.49
X98.98Y-84.49
X98.98Y-87.49
X98.98Y-90.49
X98.98Y-93.49
X98.98Y-96.49
X98.98Y-99.49
X98.98Y-102.49
X100.13Y-56.83
X101.3Y-57.51
X101.3Y-60.51
X101.3Y-63.51
X101.3Y-66.51
X101.3Y-69.51
X101.3Y-72.51
X101.3Y-75.51
X101.3Y-78.51
X101.3Y-81.51
X101.3Y-84.51
X101.3Y-87.51
X101.3Y-90.51
X101.3Y-93.51
X101.3Y-96.51
X101.3Y-99.51
X101.3Y-102.51
X101.98Y-57.49
X101.98Y-60.49
X101.98Y-63.49
X101.98Y-66.49
X101.98Y-69.49
X101.98Y-72.49
X101.98Y-75.49
X101.98Y-78.49
X101.98Y-81.49
X101.98Y-84.49
X101.98Y-87.49
X101.98Y-90.49
X101.98Y-93.49
X101.98Y-96.49
X101.98Y-99.49
X101.98Y-102.49
X103.13Y-56.83
X104.3Y-57.51
X104.3Y-60.51
X104.3Y-63.51
X104.3Y-66.51
X104.3Y-69.51
X104.3Y-72.51
X104.3Y-75.51
X104.3Y-78.51
X104.3Y-81.51
X104.3Y-84.51
X104.3Y-87.51
X104.3Y-90.51
X104.3Y-93.51
X104.3Y-96.51
X104.3Y-99.51
X104.3Y-102.51
X104.98Y-57.49
X104.98Y-60.49
X104.98Y-63.49
X104.98Y-66.49
X104.98Y-69.49
X104.98Y-72.49
X104.98Y-75.49
X104.98Y-78.49
X104.98Y-81.49
X104.98Y-84.49
X104.98Y-87.49
X104.98Y-90.49
X104.98Y-93.49
X104.98Y-96.49
X104.98Y-99.49
X104.98Y-102.49
X106.13Y-56.83
X107.3Y-57.51
X107.3Y-60.51
X107.3Y-63.51
X107.3Y-66.51
X107.3Y-69.51
X107.3Y-72.51
X107.3Y-75.51
X107.3Y-78.51
X107.3Y-81.51
X107.3Y-84.51
X107.3Y-87.51
X107.3Y-90.51
X107.3Y-93.51
X107.3Y-96.51
X107.3Y-99.51
X107.3Y-102.51
X107.98Y-57.49
X107.98Y-60.49
X107.98Y-63.49
X107.98Y-66.49
X107.98Y-69.49
X107.98Y-72.49
X107.98Y-75.49
X107.98Y-78.49
X107.98Y-81.49
X107.98Y-84.49
X107.98Y-87.49
X107.98Y-90.49
X107.98Y-93.49
X107.98Y-96.49
X107.98Y-99.49
X107.98Y-102.49
X109.13Y-56.83
X110.3Y-57.51
X110.3Y-60.51
X110.3Y-63.51
X110.3Y-66.51
X110.3Y-69.51
X110.3Y-72.51
X110.3Y-75.51
X110.3Y-78.51
X110.3Y-81.51
X110.3Y-84.51
X110.3Y-87.51
X110.3Y-90.51
X110.3Y-93.51
X110.3Y-96.51
X110.3Y-99.51
X110.3Y-102.51
X110.98Y-57.49
X110.98Y-60.49
X110.98Y-63.49
X110.98Y-66.49
X110.98Y-69.49
X110.98Y-72.49
X110.98Y-75.49
X110.98Y-78.49
X110.98Y-81.49
X110.98Y-84.49
X110.98Y-87.49
X110.98Y-90.49
X110.98Y-93.49
X110.98Y-96.49
X110.98Y-99.49
X110.98Y-102.49
X112.13Y-56.83
X113.3Y-57.51
X113.3Y-60.51
X113.3Y-63.51
X113.3Y-66.51
X113.3Y-69.51
X113.3Y-72.51
X113.3Y-75.51
X113.3Y-78.51
X113.3Y-81.51
X113.3Y-84.51
X113.3Y-87.51
X113.3Y-90.51
X113.3Y-93.51
X113.3Y-96.51
X113.3Y-99.51
X113.3Y-102.51
X113.98Y-57.49
X113.98Y-60.49
X113.98Y-63.49
X113.98Y-66.49
X113.98Y-69.49
X113.98Y-72.49
X113.98Y-75.49
X113.98Y-78.49
X113.98Y-81.49
X113.98Y-84.49
X113.98Y-87.49
X113.98Y-90.49
X113.98Y-93.49
X113.98Y-96.49
X113.98Y-99.49
X113.98Y-102.49
X115.13Y-56.83
X116.3Y-57.51
X116.3Y-60.51
X116.3Y-63.51
X116.3Y-66.51
X116.3Y-69.51
X116.3Y-72.51
X116.3Y-75.51
X116.3Y-78.51
X116.3Y-81.51
X116.3Y-84.51
X116.3Y-87.51
X116.3Y-90.51
X116.3Y-93.51
X116.3Y-96.51
X116.3Y-99.51
X116.3Y-102.51
X116.98Y-57.49
X116.98Y-60.49
X116.98Y-63.49
X116.98Y-66.49
X116.98Y-69.49
X116.98Y-72.49
X116.98Y-75.49
X116.98Y-78.49
X116.98Y-81.49
X116.98Y-84.49
X116.98Y-87.49
X116.98Y-90.49
X116.98Y-93.49
X116.98Y-96.49
X116.98Y-99.49
X116.98Y-102.49
X118.13Y-56.83
X119.3Y-57.51
X119.3Y-60.51
X119.3Y-63.51
X119.3Y-66.51
X119.3Y-69.51
X119.3Y-72.51
X119.3Y-75.51
X119.3Y-78.51
X119.3Y-81.51
X119.3Y-84.51
X119.3Y-87.51
X119.3Y-90.51
X119.3Y-93.51
X119.3Y-96.51
X119.3Y-99.51
X119.3Y-102.51
X119.98Y-57.49
X119.98Y-60.49
X119.98Y-63.49
X119.98Y-66.49
X119.98Y-69.49
X119.98Y-72.49
X119.98Y-75.49
X119.98Y-78.49
X119.98Y-81.49
X119.98Y-84.49
X119.98Y-87.49
X119.98Y-90.49
X119.98Y-93.49
X119.98Y-96.49
X119.98Y-99.49
X119.98Y-102.49
X121.13Y-56.83
X122.3Y-57.51
X122.3Y-60.51
X122.3Y-63.51
X122.3Y-66.51
X122.3Y-69.51
X122.3Y-72.51
X122.3Y-75.51
X122.3Y-78.51
X122.3Y-81.51
X122.3Y-84.51
X122.3Y-87.51
X122.3Y-90.51
X122.3Y-93.51
X122.3Y-96.51
X122.3Y-99.51
X122.3Y-102.51
X122.98Y-57.49
X122.98Y-60.49
X122.98Y-63.49
X122.98Y-66.49
X122.98Y-69.49
X122.98Y-72.49
X122.98Y-75.49
X122.98Y-78.49
X122.98Y-81.49
X122.98Y-84.49
X122.98Y-87.49
X122.98Y-90.49
X122.98Y-93.49
X122.98Y-96.49
X122.98Y-99.49
X122.98Y-102.49
X124.13Y-56.83
X125.3Y-57.51
X125.3Y-60.51
X125.3Y-63.51
X125.3Y-66.51
X125.3Y-69.51
X125.3Y-72.51
X125.3Y-75.51
X125.3Y-78.51
X125.3Y-81.51
X125.3Y-84.51
X125.3Y-87.51
X125.3Y-90.51
X125.3Y-93.51
X125.3Y-96.51
X125.3Y-99.51
X125.3Y-102.51
X125.98Y-57.49
X125.98Y-60.49
X125.98Y-63.49
X125.98Y-66.49
X125.98Y-69.49
X125.98Y-72.49
X125.98Y-75.49
X125.98Y-78.49
X125.98Y-81.49
X125.98Y-84.49
X125.98Y-87.49
X125.98Y-90.49
X125.98Y-93.49
X125.98Y-96.49
X125.98Y-99.49
X125.98Y-102.49
X127.13Y-56.83
X128.3Y-57.51
X128.3Y-60.51
X128.3Y-63.51
X128.3Y-66.51
X128.3Y-69.51
X128.3Y-72.51
X128.3Y-75.51
X128.3Y-78.51
X128.3Y-81.51
X128.3Y-84.51
X128.3Y-87.51
X128.3Y-90.51
X128.3Y-93.51
X128.3Y-96.51
X128.3Y-99.51
X128.3Y-102.51
X128.98Y-57.49
X128.98Y-60.49
X128.98Y-63.49
X128.98Y-66.49
X128.98Y-69.49
X128.98Y-72.49
X128.98Y-75.49
X128.98Y-78.49
X128.98Y-81.49
X128.98Y-84.49
X128.98Y-87.49
X128.98Y-90.49
X128.98Y-93.49
X128.98Y-96.49
X128.98Y-99.49
X128.98Y-102.49
X130.13Y-56.83
X131.3Y-57.51
X131.3Y-60.51
X131.3Y-63.51
X131.3Y-66.51
X131.3Y-69.51
X131.3Y-72.51
X131.3Y-75.51
X131.3Y-78.51
X131.3Y-81.51
X131.3Y-84.51
X131.3Y-87.51
X131.3Y-90.51
X131.3Y-93.51
X131.3Y-96.51
X131.3Y-99.51
X131.3Y-102.51
X131.98Y-57.49
X131.98Y-60.49
X131.98Y-63.49
X131.98Y-66.49
X131.98Y-69.49
X131.98Y-72.49
X131.98Y-75.49
X131.98Y-78.49
X131.98Y-81.49
X131.98Y-84.49
X131.98Y-87.49
X131.98Y-90.49
X131.98Y-93.49
X131.98Y-96.49
X131.98Y-99.49
X131.98Y-102.49
X133.13Y-56.83
X134.3Y-57.51
X134.3Y-60.51
X134.3Y-63.51
X134.3Y-66.51
X134.3Y-69.51
X134.3Y-72.51
X134.3Y-75.51
X134.3Y-78.51
X134.3Y-81.51
X134.3Y-84.51
X134.3Y-87.51
X134.3Y-90.51
X134.3Y-93.51
X134.3Y-96.51
X134.3Y-99.51
X134.3Y-102.51
X134.98Y-57.49
X134.98Y-60.49
X134.98Y-63.49
X134.98Y-66.49
X134.98Y-69.49
X134.98Y-72.49
X134.98Y-75.49
X134.98Y-78.49
X134.98Y-81.49
X134.98Y-84.49
X134.98Y-87.49
X134.98Y-90.49
X134.98Y-93.49
X134.98Y-96.49
X134.98Y-99.49
X134.98Y-102.49
X136.13Y-56.83
X137.3Y-57.51
X137.3Y-60.51
X137.3Y-63.51
X137.3Y-66.51
X137.3Y-69.51
X137.3Y-72.51
X137.3Y-75.51
X137.3Y-78.51
X137.3Y-81.51
X137.3Y-84.51
X137.3Y-87.51
X137.3Y-90.51
X137.3Y-93.51
X137.3Y-96.51
X137.3Y-99.51
X137.3Y-102.51
X137.98Y-57.49
X137.98Y-60.49
X137.98Y-63.49
X137.98Y-66.49
X137.98Y-69.49
X137.98Y-72.49
X137.98Y-75.49
X137.98Y-78.49
X137.98Y-81.49
X137.98Y-84.49
X137.98Y-87.49
X137.98Y-90.49
X137.98Y-93.49
X137.98Y-96.49
X137.98Y-99.49
X137.98Y-102.49
X139.13Y-56.83
X140.3Y-57.51
X140.3Y-60.51
X140.3Y-63.51
X140.3Y-66.51
X140.3Y-69.51
X140.3Y-72.51
X140.3Y-75.51
X140.3Y-78.51
X140.3Y-81.51
X140.3Y-84.51
X140.3Y-87.51
X140.3Y-90.51
X140.3Y-93.51
X140.3Y-96.51
X140.3Y-99.51
X140.3Y-102.51
X140.98Y-57.49
X140.98Y-60.49
X140.98Y-63.49
X140.98Y-66.49
X140.98Y-69.49
X140.98Y-72.49
X140.98Y-75.49
X140.98Y-78.49
X140.98Y-81.49
X140.98Y-84.49
X140.98Y-87.49
X140.98Y-90.49
X140.98Y-93.49
X140.98Y-96.49
X140.98Y-99.49
X140.98Y-102.49
X142.13Y-56.83
X143.3Y-57.51
X143.3Y-60.51
X143.3Y-63.51
X143.3Y-66.51
X143.3Y-69.51
X143.3Y-72.51
X143.3Y-75.51
X143.3Y-78.51
X143.3Y-81.51
X143.3Y-84.51
X143.3Y-87.51
X143.3Y-90.51
X143.3Y-93.51
X143.3Y-96.51
X143.3Y-99.51
X143.3Y-102.51
X143.98Y-57.49
X143.98Y-60.49
X143.98Y-63.49
X143.98Y-66.49
X143.98Y-69.49
X143.98Y-72.49
X143.98Y-75.49
X143.98Y-78.49
X143.98Y-81.49
X143.98Y-84.49
X143.98Y-87.49
X143.98Y-90.49
X143.98Y-93.49
X143.98Y-96.49
X143.98Y-99.49
X143.98Y-102.49
X145.13Y-56.83
X146.3Y-57.51
X146.3Y-60.51
X146.3Y-63.51
X146.3Y-66.51
X146.3Y-69.51
X146.3Y-72.51
X146.3Y-75.51
X146.3Y-78.51
X146.3Y-81.51
X146.3Y-84.51
X146.3Y-87.51
X146.3Y-90.51
X146.3Y-93.51
X146.3Y-96.51
X146.3Y-99.51
X146.3Y-102.51
X146.98Y-57.49
X146.98Y-60.49
X146.98Y-63.49
X146.98Y-66.49
X146.98Y-69.49
X146.98Y-72.49
X146.98Y-75.49
X146.98Y-78.49
X146.98Y-81.49
X146.98Y-84.49
X146.98Y-87.49
X146.98Y-90.49
X146.98Y-93.49
X146.98Y-96.49
X146.98Y-99.49
X146.98Y-102.49
X148.13Y-56.83
X149.3Y-57.51
X149.3Y-60.51
X149.3Y-63.51
X149.3Y-66.51
X149.3Y-69.51
X149.3Y-72.51
X149.3Y-75.51
X149.3Y-78.51
X149.3Y-81.51
X149.3Y-84.51
X149.3Y-87.51
X149.3Y-90.51
X149.3Y-93.51
X149.3Y-96.51
X149.3Y-99.51
X149.3Y-102.51
X149.98Y-57.49
X149.98Y-60.49
X149.98Y-63.49
X149.98Y-66.49
X149.98Y-69.49
X149.98Y-72.49
X149.98Y-75.49
X149.98Y-78.49
X149.98Y-81.49
X149.98Y-84.49
X149.98Y-87.49
X149.98Y-90.49
X149.98Y-93.49
X149.98Y-96.49
X149.98Y-99.49
X149.98Y-102.49
X151.13Y-56.83
X152.3Y-57.51
X152.3Y-60.51
X152.3Y-63.51
X152.3Y-66.51
X152.3Y-69.51
X152.3Y-72.51
X152.3Y-75.51
X152.3Y-78.51
X152.3Y-81.51
X152.3Y-84.51
X152.3Y-87.51
X152.3Y-90.51
X152.3Y-93.51
X152.3Y-96.51
X152.3Y-99.51
X152.3Y-102.51
X152.98Y-57.49
X152.98Y-60.49
X152.98Y-63.49
X152.98Y-66.49
X152.98Y-69.49
X152.98Y-72.49
X152.98Y-75.49
X152.98Y-78.49
X152.98Y-81.49
X152.98Y-84.49
X152.98Y-87.49
X152.98Y-90.49
X152.98Y-93.49
X152.98Y-96.49
X152.98Y-99.49
X152.98Y-102.49
X154.13Y-56.83
X155.3Y-57.51
X155.3Y-60.51
X155.3Y-63.51
X155.3Y-66.51
X155.3Y-69.51
X155.3Y-72.51
X155.3Y-75.51
X155.3Y-78.51
X155.3Y-81.51
X155.3Y-84.51
X155.3Y-87.51
X155.3Y-90.51
X155.3Y-93.51
X155.3Y-96.51
X155.3Y-99.51
X155.3Y-102.51
X155.98Y-57.49
X155.98Y-60.49
X155.98Y-63.49
X155.98Y-66.49
X155.98Y-69.49
X155.98Y-72.49
X155.98Y-75.49
X155.98Y-78.49
X155.98Y-81.49
X155.98Y-84.49
X155.98Y-87.49
X155.98Y-90.49
X155.98Y-93.49
X155.98Y-96.49
X155.98Y-99.49
X155.98Y-102.49
X157.13Y-56.83
X158.3Y-57.51
X158.3Y-60.51
X158.3Y-63.51
X158.3Y-66.51
X158.3Y-69.51
X158.3Y-72.51
X158.3Y-75.51
X158.3Y-78.51
X158.3Y-81.51
X158.3Y-84.51
X158.3Y-87.51
X158.3Y-90.51
X158.3Y-93.51
X158.3Y-96.51
X158.3Y-99.51
X158.3Y-102.51
X158.98Y-57.49
X158.98Y-60.49
X158.98Y-63.49
X158.98Y-66.49
X158.98Y-69.49
X158.98Y-72.49
X158.98Y-75.49
X158.98Y-78.49
X158.98Y-81.49
X158.98Y-84.49
X158.98Y-87.49
X158.98Y-90.49
X158.98Y-93.49
X158.98Y-96.49
X158.98Y-99.49
X158.98Y-102.49
X160.12Y-104.85
X161.3Y-57.51
X161.3Y-60.51
X161.3Y-63.51
X161.3Y-66.51
X161.3Y-69.51
X161.3Y-72.51
X161.3Y-75.51
X161.3Y-78.51
X161.3Y-81.51
X161.3Y-84.51
X161.3Y-87.51
X161.3Y-90.51
X161.3Y-93.51
X161.3Y-96.51
X161.3Y-99.51
X161.3Y-102.51
X161.98Y-57.49
X161.98Y-60.49
X161.98Y-63.49
X161.98Y-66.49
X161.98Y-69.49
X161.98Y-72.49
X161.98Y-75.49
X161.98Y-78.49
X161.98Y-81.49
X161.98Y-84.49
X161.98Y-87.49
X161.98Y-90.49
X161.98Y-93.49
X161.98Y-96.49
X161.98Y-99.49
X161.98Y-102.49
X163.12Y-104.85
X164.3Y-57.51
X164.3Y-60.51
X164.3Y-63.51
X164.3Y-66.51
X164.3Y-69.51
X164.3Y-72.51
X164.3Y-75.51
X164.3Y-78.51
X164.3Y-81.51
X164.3Y-84.51
X164.3Y-87.51
X164.3Y-90.51
X164.3Y-93.51
X164.3Y-96.51
X164.3Y-99.51
X164.3Y-102.51
X164.98Y-57.49
X164.98Y-60.49
X164.98Y-63.49
X164.98Y-66.49
X164.98Y-69.49
X164.98Y-72.49
X164.98Y-75.49
X164.98Y-78.49
X164.98Y-81.49
X164.98Y-84.49
X164.98Y-87.49
X164.98Y-90.49
X164.98Y-93.49
X164.98Y-96.49
X164.98Y-99.49
X164.98Y-102.49
X166.12Y-104.85
X167.3Y-57.51
X167.3Y-60.51
X167.3Y-63.51
X167.3Y-66.51
X167.3Y-69.51
X167.3Y-72.51
X167.3Y-75.51
X167.3Y-78.51
X167.3Y-81.51
X167.3Y-84.51
X167.3Y-87.51
X167.3Y-90.51
X167.3Y-93.51
X167.3Y-96.51
X167.3Y-99.51
X167.3Y-102.51
X167.98Y-57.49
X167.98Y-60.49
X167.98Y-63.49
X167.98Y-66.49
X167.98Y-69.49
X167.98Y-72.49
X167.98Y-75.49
X167.98Y-78.49
X167.98Y-81.49
X167.98Y-84.49
X167.98Y-87.49
X167.98Y-90.49
X167.98Y-93.49
X167.98Y-96.49
X167.98Y-99.49
X167.98Y-102.49
X169.12Y-104.85
X170.3Y-57.51
X170.3Y-60.51
X170.3Y-63.51
X170.3Y-66.51
X170.3Y-69.51
X170.3Y-72.51
X170.3Y-75.51
X170.3Y-78.51
X170.3Y-81.51
X170.3Y-84.51
X170.3Y-87.51
X170.3Y-90.51
X170.3Y-93.51
X170.3Y-96.51
X170.3Y-99.51
X170.3Y-102.51
X170.98Y-57.49
X170.98Y-60.49
X170.98Y-63.49
X170.98Y-66.49
X170.98Y-69.49
X170.98Y-72.49
X170.98Y-75.49
X170.98Y-78.49
X170.98Y-81.49
X170.98Y-84.49
X170.98Y-87.49
X170.98Y-90.49
X170.98Y-93.49
X170.98Y-96.49
X170.98Y-99.49
X170.98Y-102.49
X172.12Y-104.85
X173.3Y-57.51
X173.3Y-60.51
X173.3Y-63.51
X173.3Y-66.51
X173.3Y-69.51
X173.3Y-72.51
X173.3Y-75.51
X173.3Y-78.51
X173.3Y-81.51
X173.3Y-84.51
X173.3Y-87.51
X173.3Y-90.51
X173.3Y-93.51
X173.3Y-96.51
X173.3Y-99.51
X173.3Y-102.51
X173.98Y-57.49
X173.98Y-60.49
X173.98Y-63.49
X173.98Y-66.49
X173.98Y-69.49
X173.98Y-72.49
X173.98Y-75.49
X173.98Y-78.49
X173.98Y-81.49
X173.98Y-84.49
X173.98Y-87.49
X173.98Y-90.49
X173.98Y-93.49
X173.98Y-96.49
X173.98Y-99.49
X173.98Y-102.49
X175.12Y-104.85
X176.3Y-57.51
X176.3Y-60.51
X176.3Y-63.51
X176.3Y-66.51
X176.3Y-69.51
X176.3Y-72.51
X176.3Y-75.51
X176.3Y-78.51
X176.3Y-81.51
X176.3Y-84.51
X176.3Y-87.51
X176.3Y-90.51
X176.3Y-93.51
X176.3Y-96.51
X176.3Y-99.51
X176.3Y-102.51
X176.98Y-57.49
X176.98Y-60.49
X176.98Y-63.49
X176.98Y-66.49
X176.98Y-69.49
X176.98Y-72.49
X176.98Y-75.49
X176.98Y-78.49
X176.98Y-81.49
X176.98Y-84.49
X176.98Y-87.49
X176.98Y-90.49
X176.98Y-93.49
X176.98Y-96.49
X176.98Y-99.49
X176.98Y-102.49
X178.12Y-104.85
X179.3Y-57.51
X179.3Y-60.51
X179.3Y-63.51
X179.3Y-66.51
X179.3Y-69.51
X179.3Y-72.51
X179.3Y-75.51
X179.3Y-78.51
X179.3Y-81.51
X179.3Y-84.51
X179.3Y-87.51
X179.3Y-90.51
X179.3Y-93.51
X179.3Y-96.51
X179.3Y-99.51
X179.3Y-102.51
X179.98Y-57.49
X179.98Y-60.49
X179.98Y-63.49
X179.98Y-66.49
X179.98Y-69.49
X179.98Y-72.49
X179.98Y-75.49
X179.98Y-78.49
X179.98Y-81.49
X179.98Y-84.49
X179.98Y-87.49
X179.98Y-90.49
X179.98Y-93.49
X179.98Y-96.49
X179.98Y-99.49
X179.98Y-102.49
X181.12Y-104.85
X182.3Y-57.51
X182.3Y-60.51
X182.3Y-63.51
X182.3Y-66.51
X182.3Y-69.51
X182.3Y-72.51
X182.3Y-75.51
X182.3Y-78.51
X182.3Y-81.51
X182.3Y-84.51
X182.3Y-87.51
X182.3Y-90.51
X182.3Y-93.51
X182.3Y-96.51
X182.3Y-99.51
X182.3Y-102.51
X182.98Y-57.49
X182.98Y-60.49
X182.98Y-63.49
X182.98Y-66.49
X182.98Y-69.49
X182.98Y-72.49
X182.98Y-75.49
X182.98Y-78.49
X182.98Y-81.49
X182.98Y-84.49
X182.98Y-87.49
X182.98Y-90.49
X182.98Y-93.49
X182.98Y-96.49
X182.98Y-99.49
X182.98Y-102.49
X184.12Y-104.85
X185.3Y-57.51
X185.3Y-60.51
X185.3Y-63.51
X185.3Y-66.51
X185.3Y-69.51
X185.3Y-72.51
X185.3Y-75.51
X185.3Y-78.51
X185.3Y-81.51
X185.3Y-84.51
X185.3Y-87.51
X185.3Y-90.51
X185.3Y-93.51
X185.3Y-96.51
X185.3Y-99.51
X185.3Y-102.51
X185.98Y-57.49
X185.98Y-60.49
X185.98Y-63.49
X185.98Y-66.49
X185.98Y-69.49
X185.98Y-72.49
X185.98Y-75.49
X185.98Y-78.49
X185.98Y-81.49
X185.98Y-84.49
X185.98Y-87.49
X185.98Y-90.49
X185.98Y-93.49
X185.98Y-96.49
X185.98Y-99.49
X185.98Y-102.49
X187.12Y-104.85
X188.3Y-57.51
X188.3Y-60.51
X188.3Y-63.51
X188.3Y-66.51
X188.3Y-69.51
X188.3Y-72.51
X188.3Y-75.51
X188.3Y-78.51
X188.3Y-81.51
X188.3Y-84.51
X188.3Y-87.51
X188.3Y-90.51
X188.3Y-93.51
X188.3Y-96.51
X188.3Y-99.51
X188.3Y-102.51
X188.98Y-57.49
X188.98Y-60.49
X188.98Y-63.49
X188.98Y-66.49
X188.98Y-69.49
X188.98Y-72.49
X188.98Y-75.49
X188.98Y-78.49
X188.98Y-81.49
X188.98Y-84.49
X188.98Y-87.49
X188.98Y-90.49
X188.98Y-93.49
X188.98Y-96.49
X188.98Y-99.49
X188.98Y-102.49
X190.12Y-104.85
X191.3Y-57.51
X191.3Y-60.51
X191.3Y-63.51
X191.3Y-66.51
X191.3Y-69.51
X191.3Y-72.51
X191.3Y-75.51
X191.3Y-78.51
X191.3Y-81.51
X191.3Y-84.51
X191.3Y-87.51
X191.3Y-90.51
X191.3Y-93.51
X191.3Y-96.51
X191.3Y-99.51
X191.3Y-102.51
X191.98Y-57.49
X191.98Y-60.49
X191.98Y-63.49
X191.98Y-66.49
X191.98Y-69.49
X191.98Y-72.49
X191.98Y-75.49
X191.98Y-78.49
X191.98Y-81.49
X191.98Y-84.49
X191.98Y-87.49
X191.98Y-90.49
X191.98Y-93.49
X191.98Y-96.49
X191.98Y-99.49
X191.98Y-102.49
X193.12Y-104.85
X194.3Y-57.51
X194.3Y-60.51
X194.3Y-63.51
X194.3Y-66.51
X194.3Y-69.51
X194.3Y-72.51
X194.3Y-75.51
X194.3Y-78.51
X194.3Y-81.51
X194.3Y-84.51
X194.3Y-87.51
X194.3Y-90.51
X194.3Y-93.51
X194.3Y-96.51
X194.3Y-99.51
X194.3Y-102.51
X194.98Y-57.49
X194.98Y-60.49
X194.98Y-63.49
X194.98Y-66.49
X194.98Y-69.49
X194.98Y-72.49
X194.98Y-75.49
X194.98Y-78.49
X194.98Y-81.49
X194.98Y-84.49
X194.98Y-87.49
X194.98Y-90.49
X194.98Y-93.49
X194.98Y-96.49
X194.98Y-99.49
X194.98Y-102.49
X196.12Y-104.85
X197.3Y-57.51
X197.3Y-60.51
X197.3Y-63.51
X197.3Y-66.51
X197.3Y-69.51
X197.3Y-72.51
X197.3Y-75.51
X197.3Y-78.51
X197.3Y-81.51
X197.3Y-84.51
X197.3Y-87.51
X197.3Y-90.51
X197.3Y-93.51
X197.3Y-96.51
X197.3Y-99.51
X197.3Y-102.51
X197.98Y-57.49
X197.98Y-60.49
X197.98Y-63.49
X197.98Y-66.49
X197.98Y-69.49
X197.98Y-72.49
X197.98Y-75.49
X197.98Y-78.49
X197.98Y-81.49
X197.98Y-84.49
X197.98Y-87.49
X197.98Y-90.49
X197.98Y-93.49
X197.98Y-96.49
X197.98Y-99.49
X197.98Y-102.49
X199.12Y-104.85
X200.3Y-57.51
X200.3Y-60.51
X200.3Y-63.51
X200.3Y-66.51
X200.3Y-69.51
X200.3Y-72.51
X200.3Y-75.51
X200.3Y-78.51
X200.3Y-81.51
X200.3Y-84.51
X200.3Y-87.51
X200.3Y-90.51
X200.3Y-93.51
X200.3Y-96.51
X200.3Y-99.51
X200.3Y-102.51
X200.98Y-57.49
X200.98Y-60.49
X200.98Y-63.49
X200.98Y-66.49
X200.98Y-69.49
X200.98Y-72.49
X200.98Y-75.49
X200.98Y-78.49
X200.98Y-81.49
X200.98Y-84.49
X200.98Y-87.49
X200.98Y-90.49
X200.98Y-93.49
X200.98Y-96.49
X200.98Y-99.49
X200.98Y-102.49
X202.12Y-104.85
X203.3Y-57.51
X203.3Y-60.51
X203.3Y-63.51
X203.3Y-66.51
X203.3Y-69.51
X203.3Y-72.51
X203.3Y-75.51
X203.3Y-78.51
X203.3Y-81.51
X203.3Y-84.51
X203.3Y-87.51
X203.3Y-90.51
X203.3Y-93.51
X203.3Y-96.51
X203.3Y-99.51
X203.3Y-102.51
X203.98Y-57.49
X203.98Y-60.49
X203.98Y-63.49
X203.98Y-66.49
X203.98Y-69.49
X203.98Y-72.49
X203.98Y-75.49
X203.98Y-78.49
X203.98Y-81.49
X203.98Y-84.49
X203.98Y-87.49
X203.98Y-90.49
X203.98Y-93.49
X203.98Y-96.49
X203.98Y-99.49
X203.98Y-102.49
X205.12Y-104.85
X206.3Y-57.51
X206.3Y-60.51
X206.3Y-63.51
X206.3Y-66.51
X206.3Y-69.51
X206.3Y-72.51
X206.3Y-75.51
X206.3Y-78.51
X206.3Y-81.51
X206.3Y-84.51
X206.3Y-87.51
X206.3Y-90.51
X206.3Y-93.51
X206.3Y-96.51
X206.3Y-99.51
X206.3Y-102.51
X206.98Y-57.49
X206.98Y-60.49
X206.98Y-63.49
X206.98Y-66.49
X206.98Y-69.49
X206.98Y-72.49
X206.98Y-75.49
X206.98Y-78.49
X206.98Y-81.49
X206.98Y-84.49
X206.98Y-87.49
X206.98Y-90.49
X206.98Y-93.49
X206.98Y-96.49
X206.98Y-99.49
X206.98Y-102.49
X208.12Y-104.85
X209.3Y-57.51
X209.3Y-60.51
X209.3Y-63.51
X209.3Y-66.51
X209.3Y-69.51
X209.3Y-72.51
X209.3Y-75.51
X209.3Y-78.51
X209.3Y-81.51
X209.3Y-84.51
X209.3Y-87.51
X209.3Y-90.51
X209.3Y-93.51
X209.3Y-96.51
X209.3Y-99.51
X209.3Y-102.51
X209.98Y-57.49
X209.98Y-60.49
X209.98Y-63.49
X209.98Y-66.49
X209.98Y-69.49
X209.98Y-72.49
X209.98Y-75.49
X209.98Y-78.49
X209.98Y-81.49
X209.98Y-84.49
X209.98Y-87.49
X209.98Y-90.49
X209.98Y-93.49
X209.98Y-96.49
X209.98Y-99.49
X209.98Y-102.49
X211.12Y-104.85
X212.3Y-57.51
X212.3Y-60.51
X212.3Y-63.51
X212.3Y-66.51
X212.3Y-69.51
X212.3Y-72.51
X212.3Y-75.51
X212.3Y-78.51
X212.3Y-81.51
X212.3Y-84.51
X212.3Y-87.51
X212.3Y-90.51
X212.3Y-93.51
X212.3Y-96.51
X212.3Y-99.51
X212.3Y-102.51
X212.98Y-57.49
X212.98Y-60.49
X212.98Y-63.49
X212.98Y-66.49
X212.98Y-69.49
X212.98Y-72.49
X212.98Y-75.49
X212.98Y-78.49
X212.98Y-81.49
X212.98Y-84.49
X212.98Y-87.49
X212.98Y-90.49
X212.98Y-93.49
X212.98Y-96.49
X212.98Y-99.49
X212.98Y-102.49
X214.12Y-104.85
X215.3Y-57.51
X215.3Y-60.51
X215.3Y-63.51
X215.3Y-66.51
X215.3Y-69.51
X215.3Y-72.51
X215.3Y-75.51
X215.3Y-78.51
X215.3Y-81.51
X215.3Y-84.51
X215.3Y-87.51
X215.3Y-90.51
X215.3Y-93.51
X215.3Y-96.51
X215.3Y-99.51
X215.3Y-102.51
X215.98Y-57.49
X215.98Y-60.49
X215.98Y-63.49
X215.98Y-66.49
X215.98Y-69.49
X215.98Y-72.49
X215.98Y-75.49
X215.98Y-78.49
X215.98Y-81.49
X215.98Y-84.49
X215.98Y-87.49
X215.98Y-90.49
X215.98Y-93.49
X215.98Y-96.49
X215.98Y-99.49
X215.98Y-102.49
X217.12Y-104.85
X218.3Y-57.51
X218.3Y-60.51
X218.3Y-63.51
X218.3Y-66.51
X218.3Y-69.51
X218.3Y-72.51
X218.3Y-75.51
X218.3Y-78.51
X218.3Y-81.51
X218.3Y-84.51
X218.3Y-87.51
X218.3Y-90.51
X218.3Y-93.51
X218.3Y-96.51
X218.3Y-99.51
X218.3Y-102.51
X218.98Y-57.49
X218.98Y-60.49
X218.98Y-63.49
X218.98Y-66.49
X218.98Y-69.49
X218.98Y-72.49
X218.98Y-75.49
X218.98Y-78.49
X218.98Y-81.49
X218.98Y-84.49
X218.98Y-87.49
X218.98Y-90.49
X218.98Y-93.49
X218.98Y-96.49
X218.98Y-99.49
X218.98Y-102.49
X220.12Y-104.85
X221.3Y-57.51
X221.3Y-60.51
X221.3Y-63.51
X221.3Y-66.51
X221.3Y-69.51
X221.3Y-72.51
X221.3Y-75.51
X221.3Y-78.51
X221.3Y-81.51
X221.3Y-84.51
X221.3Y-87.51
X221.3Y-90.51
X221.3Y-93.51
X221.3Y-96.51
X221.3Y-99.51
X221.3Y-102.51
X221.98Y-57.49
X221.98Y-60.49
X221.98Y-63.49
X221.98Y-66.49
X221.98Y-69.49
X221.98Y-72.49
X221.98Y-75.49
X221.98Y-78.49
X221.98Y-81.49
X221.98Y-84.49
X221.98Y-87.49
X221.98Y-90.49
X221.98Y-93.49
X221.98Y-96.49
X221.98Y-99.49
X221.98Y-102.49
X223.12Y-104.85
X224.3Y-57.51
X224.3Y-60.51
X224.3Y-63.51
X224.3Y-66.51
X224.3Y-69.51
X224.3Y-72.51
X224.3Y-75.51
X224.3Y-78.51
X224.3Y-81.51
X224.3Y-84.51
X224.3Y-87.51
X224.3Y-90.51
X224.3Y-93.51
X224.3Y-96.51
X224.3Y-99.51
X224.3Y-102.51
X224.98Y-57.49
X224.98Y-60.49
X224.98Y-63.49
X224.98Y-66.49
X224.98Y-69.49
X224.98Y-72.49
X224.98Y-75.49
X224.98Y-78.49
X224.98Y-81.49
X224.98Y-84.49
X224.98Y-87.49
X224.98Y-90.49
X224.98Y-93.49
X224.98Y-96.49
X224.98Y-99.49
X224.98Y-102.49
X226.12Y-104.85
X227.3Y-57.51
X227.3Y-60.51
X227.3Y-63.51
X227.3Y-66.51
X227.3Y-69.51
X227.3Y-72.51
X227.3Y-75.51
X227.3Y-78.51
X227.3Y-81.51
X227.3Y-84.51
X227.3Y-87.51
X227.3Y-90.51
X227.3Y-93.51
X227.3Y-96.51
X227.3Y-99.51
X227.3Y-102.51
X227.98Y-57.49
X227.98Y-60.49
X227.98Y-63.49
X227.98Y-66.49
X227.98Y-69.49
X227.98Y-72.49
X227.98Y-75.49
X227.98Y-78.49
X227.98Y-81.49
X227.98Y-84.49
X227.98Y-87.49
X227.98Y-90.49
X227.98Y-93.49
X227.98Y-96.49
X227.98Y-99.49
X227.98Y-102.49
X229.12Y-104.85
X230.3Y-57.51
X230.3Y-60.51
X230.3Y-63.51
X230.3Y-66.51
X230.3Y-69.51
X230.3Y-72.51
X230.3Y-75.51
X230.3Y-78.51
X230.3Y-81.51
X230.3Y-84.51
X230.3Y-87.51
X230.3Y-90.51
X230.3Y-93.51
X230.3Y-96.51
X230.3Y-99.51
X230.3Y-102.51
X230.98Y-57.49
X230.98Y-60.49
X230.98Y-63.49
X230.98Y-66.49
X230.98Y-69.49
X230.98Y-72.49
X230.98Y-75.49
X230.98Y-78.49
X230.98Y-81.49
X230.98Y-84.49
X230.98Y-87.49
X230.98Y-90.49
X230.98Y-93.49
X230.98Y-96.49
X230.98Y-99.49
X230.98Y-102.49
X232.12Y-104.85
X233.3Y-57.51
X233.3Y-60.51
X233.3Y-63.51
X233.3Y-66.51
X233.3Y-69.51
X233.3Y-72.51
X233.3Y-75.51
X233.3Y-78.51
X233.3Y-81.51
X233.3Y-84.51
X233.3Y-87.51
X233.3Y-90.51
X233.3Y-93.51
X233.3Y-96.51
X233.3Y-99.51
X233.3Y-102.51
X233.98Y-57.49
X233.98Y-60.49
X233.98Y-63.49
X233.98Y-66.49
X233.98Y-69.49
X233.98Y-72.49
X233.98Y-75.49
X233.98Y-78.49
X233.98Y-81.49
X233.98Y-84.49
X233.98Y-87.49
X233.98Y-90.49
X233.98Y-93.49
X233.98Y-96.49
X233.98Y-99.49
X233.98Y-102.49
X235.12Y-104.85
X236.3Y-57.51
X236.3Y-60.51
X236.3Y-63.51
X236.3Y-66.51
X236.3Y-69.51
X236.3Y-72.51
X236.3Y-75.51
X236.3Y-78.51
X236.3Y-81.51
X236.3Y-84.51
X236.3Y-87.51
X236.3Y-90.51
X236.3Y-93.51
X236.3Y-96.51
X236.3Y-99.51
X236.3Y-102.51
X236.98Y-57.49
X236.98Y-60.49
X236.98Y-63.49
X236.98Y-66.49
X236.98Y-69.49
X236.98Y-72.49
X236.98Y-75.49
X236.98Y-78.49
X236.98Y-81.49
X236.98Y-84.49
X236.98Y-87.49
X236.98Y-90.49
X236.98Y-93.49
X236.98Y-96.49
X236.98Y-99.49
X236.98Y-102.49
X238.12Y-104.85
X239.3Y-57.51
X239.3Y-60.51
X239.3Y-63.51
X239.3Y-66.51
X239.3Y-69.51
X239.3Y-72.51
X239.3Y-75.51
X239.3Y-78.51
X239.3Y-81.51
X239.3Y-84.51
X239.3Y-87.51
X239.3Y-90.51
X239.3Y-93.51
X239.3Y-96.51
X239.3Y-99.51
X239.3Y-102.51
X239.98Y-57.49
X239.98Y-60.49
X239.98Y-63.49
X239.98Y-66.49
X239.98Y-69.49
X239.98Y-72.49
X239.98Y-75.49
X239.98Y-78.49
X239.98Y-81.49
X239.98Y-84.49
X239.98Y-87.49
X239.98Y-90.49
X239.98Y-93.49
X239.98Y-96.49
X239.98Y-99.49
X239.98Y-102.49
X241.12Y-104.85
X242.3Y-57.51
X242.3Y-60.51
X242.3Y-63.51
X242.3Y-66.51
X242.3Y-69.51
X242.3Y-72.51
X242.3Y-75.51
X242.3Y-78.51
X242.3Y-81.51
X242.3Y-84.51
X242.3Y-87.51
X242.3Y-90.51
X242.3Y-93.51
X242.3Y-96.51
X242.3Y-99.51
X242.3Y-102.51
X242.98Y-57.49
X242.98Y-60.49
X242.98Y-63.49
X242.98Y-66.49
X242.98Y-69.49
X242.98Y-72.49
X242.98Y-75.49
X242.98Y-78.49
X242.98Y-81.49
X242.98Y-84.49
X242.98Y-87.49
X242.98Y-90.49
X242.98Y-93.49
X242.98Y-96.49
X242.98Y-99.49
X242.98Y-102.49
X244.12Y-104.85
X245.3Y-57.51
X245.3Y-60.51
X245.3Y-63.51
X245.3Y-66.51
X245.3Y-69.51
X245.3Y-72.51
X245.3Y-75.51
X245.3Y-78.51
X245.3Y-81.51
X245.3Y-84.51
X245.3Y-87.51
X245.3Y-90.51
X245.3Y-93.51
X245.3Y-96.51
X245.3Y-99.51
X245.3Y-102.51
X245.98Y-57.49
X245.98Y-60.49
X245.98Y-63.49
X245.98Y-66.49
X245.98Y-69.49
X245.98Y-72.49
X245.98Y-75.49
X245.98Y-78.49
X245.98Y-81.49
X245.98Y-84.49
X245.98Y-87.49
X245.98Y-90.49
X245.98Y-93.49
X245.98Y-96.49
X245.98Y-99.49
X245.98Y-102.49
X247.12Y-104.85
X248.3Y-57.51
X248.3Y-60.51
X248.3Y-63.51
X248.3Y-66.51
X248.3Y-69.51
X248.3Y-72.51
X248.3Y-75.51
X248.3Y-78.51
X248.3Y-81.51
X248.3Y-84.51
X248.3Y-87.51
X248.3Y-90.51
X248.3Y-93.51
X248.3Y-96.51
X248.3Y-99.51
X248.3Y-102.51
X248.98Y-57.49
X248.98Y-60.49
X248.98Y-63.49
X248.98Y-66.49
X248.98Y-69.49
X248.98Y-72.49
X248.98Y-75.49
X248.98Y-78.49
X248.98Y-81.49
X248.98Y-84.49
X248.98Y-87.49
X248.98Y-90.49
X248.98Y-93.49
X248.98Y-96.49
X248.98Y-99.49
X248.98Y-102.49
X250.12Y-104.85
X251.3Y-57.51
X251.3Y-60.51
X251.3Y-63.51
X251.3Y-66.51
X251.3Y-69.51
X251.3Y-72.51
X251.3Y-75.51
X251.3Y-78.51
X251.3Y-81.51
X251.3Y-84.51
X251.3Y-87.51
X251.3Y-90.51
X251.3Y-93.51
X251.3Y-96.51
X251.3Y-99.51
X251.3Y-102.51
X251.98Y-57.49
X251.98Y-60.49
X251.98Y-63.49
X251.98Y-66.49
X251.98Y-69.49
X251.98Y-72.49
X251.98Y-75.49
X251.98Y-78.49
X251.98Y-81.49
X251.98Y-84.49
X251.98Y-87.49
X251.98Y-90.49
X251.98Y-93.49
X251.98Y-96.49
X251.98Y-99.49
X251.98Y-102.49
X253.12Y-104.85
X254.3Y-57.51
X254.3Y-60.51
X254.3Y-63.51
X254.3Y-66.51
X254.3Y-69.51
X254.3Y-72.51
X254.3Y-75.51
X254.3Y-78.51
X254.3Y-81.51
X254.3Y-84.51
X254.3Y-87.51
X254.3Y-90.51
X254.3Y-93.51
X254.3Y-96.51
X254.3Y-99.51
X254.3Y-102.51
T0
M30
