G04 #@! TF.GenerationSoftware,KiCad,Pcbnew,6.0.8+dfsg-1~bpo11+1*
G04 #@! TF.CreationDate,2023-05-30T16:57:20-04:00*
G04 #@! TF.ProjectId,09_padded_high_res_tight,30395f70-6164-4646-9564-5f686967685f,rev?*
G04 #@! TF.SameCoordinates,Original*
G04 #@! TF.FileFunction,Paste,Bot*
G04 #@! TF.FilePolarity,Positive*
%FSLAX46Y46*%
G04 Gerber Fmt 4.6, Leading zero omitted, Abs format (unit mm)*
G04 Created by KiCad (PCBNEW 6.0.8+dfsg-1~bpo11+1) date 2023-05-30 16:57:20*
%MOMM*%
%LPD*%
G01*
G04 APERTURE LIST*
%ADD10R,1.200000X0.600000*%
%ADD11R,1.400000X0.800000*%
G04 APERTURE END LIST*
D10*
X263090000Y-81540000D03*
X260190000Y-82040000D03*
X263090000Y-82540000D03*
X260190000Y-83040000D03*
X263090000Y-83540000D03*
X260190000Y-84040000D03*
X263090000Y-84540000D03*
X260190000Y-85040000D03*
D11*
X262990000Y-80540000D03*
X260290000Y-80540000D03*
X262990000Y-86040000D03*
X260290000Y-86040000D03*
D10*
X53490000Y-62070000D03*
X50590000Y-62570000D03*
X53490000Y-63070000D03*
X50590000Y-63570000D03*
X53490000Y-64070000D03*
X50590000Y-64570000D03*
X53490000Y-65070000D03*
X50590000Y-65570000D03*
X53490000Y-66070000D03*
X50590000Y-66570000D03*
X53490000Y-67070000D03*
X50590000Y-67570000D03*
X53490000Y-68070000D03*
X50590000Y-68570000D03*
X53490000Y-69070000D03*
X50590000Y-69570000D03*
X53490000Y-70070000D03*
X50590000Y-70570000D03*
X53490000Y-71070000D03*
X50590000Y-71570000D03*
X53490000Y-72070000D03*
X50590000Y-72570000D03*
X53490000Y-73070000D03*
X50590000Y-73570000D03*
X53490000Y-74070000D03*
X50590000Y-74570000D03*
X53490000Y-75070000D03*
X50590000Y-75570000D03*
X53490000Y-76070000D03*
X50590000Y-76570000D03*
X53490000Y-77070000D03*
X50590000Y-77570000D03*
D11*
X53390000Y-61070000D03*
X50690000Y-61070000D03*
X53390000Y-78570000D03*
X50690000Y-78570000D03*
D10*
X50560000Y-99160000D03*
X53460000Y-98660000D03*
X50560000Y-98160000D03*
X53460000Y-97660000D03*
X50560000Y-97160000D03*
X53460000Y-96660000D03*
X50560000Y-96160000D03*
X53460000Y-95660000D03*
X50560000Y-95160000D03*
X53460000Y-94660000D03*
X50560000Y-94160000D03*
X53460000Y-93660000D03*
X50560000Y-93160000D03*
X53460000Y-92660000D03*
X50560000Y-92160000D03*
X53460000Y-91660000D03*
X50560000Y-91160000D03*
X53460000Y-90660000D03*
X50560000Y-90160000D03*
X53460000Y-89660000D03*
X50560000Y-89160000D03*
X53460000Y-88660000D03*
X50560000Y-88160000D03*
X53460000Y-87660000D03*
X50560000Y-87160000D03*
X53460000Y-86660000D03*
X50560000Y-86160000D03*
X53460000Y-85660000D03*
X50560000Y-85160000D03*
X53460000Y-84660000D03*
X50560000Y-84160000D03*
X53460000Y-83660000D03*
D11*
X50660000Y-100160000D03*
X53360000Y-100160000D03*
X50660000Y-82660000D03*
X53360000Y-82660000D03*
D10*
X262990000Y-68890000D03*
X260090000Y-69390000D03*
X262990000Y-69890000D03*
X260090000Y-70390000D03*
X262990000Y-70890000D03*
X260090000Y-71390000D03*
X262990000Y-71890000D03*
X260090000Y-72390000D03*
D11*
X262890000Y-67890000D03*
X260190000Y-67890000D03*
X262890000Y-73390000D03*
X260190000Y-73390000D03*
M02*
