M48
; DRILL file {KiCad 6.0.2+dfsg-1~bpo11+1} date Thu Sep 15 10:16:12 2022
; FORMAT={-:-/ absolute / metric / decimal}
; #@! TF.CreationDate,2022-09-15T10:16:12-04:00
; #@! TF.GenerationSoftware,Kicad,Pcbnew,6.0.2+dfsg-1~bpo11+1
; #@! TF.FileFunction,Plated,1,2,PTH
FMAT,2
METRIC
; #@! TA.AperFunction,Plated,PTH,ViaDrill
T1C0.400
; #@! TA.AperFunction,Plated,PTH,ComponentDrill
T2C1.000
%
G90
G05
T1
X127.975Y-86.025
X129.175Y-85.975
X132.3Y-88.15
X133.325Y-95.9
X133.35Y-86.875
X134.75Y-94.275
X141.075Y-94.15
X141.375Y-98.25
X141.4Y-97.15
X141.45Y-103.35
X141.875Y-99.15
X142.325Y-87.7
X143.85Y-87.0
X143.925Y-97.225
X144.05Y-96.2
X145.237Y-99.237
X145.7Y-86.75
X146.525Y-83.825
X146.65Y-99.125
X147.1Y-95.775
X147.775Y-98.825
X147.975Y-94.3
X148.3Y-96.75
X148.55Y-97.95
X148.625Y-93.175
X150.0Y-107.025
X150.7Y-89.625
X153.275Y-97.95
X153.375Y-99.075
X153.75Y-90.375
X153.9Y-96.75
X154.625Y-99.225
X154.95Y-90.375
X155.575Y-95.975
X156.525Y-90.425
X156.8Y-105.35
X158.438Y-96.962
X158.525Y-102.275
X158.588Y-100.512
X158.65Y-99.3
X159.2Y-94.625
X159.25Y-92.65
X159.275Y-97.8
X159.325Y-95.95
X159.65Y-100.3
X160.675Y-89.1
X160.825Y-91.6
X160.85Y-94.075
X160.95Y-99.275
X160.975Y-96.65
X160.975Y-101.875
X164.2Y-103.425
X166.36Y-104.46
X166.4Y-98.25
X170.45Y-87.25
X171.6Y-95.475
X171.625Y-90.475
X171.65Y-92.85
X175.05Y-105.625
X176.6Y-87.65
T2
X108.7Y-86.645
X108.7Y-89.185
X108.7Y-91.725
X108.7Y-94.265
X108.7Y-96.805
X108.7Y-99.345
X108.7Y-101.885
X108.7Y-104.425
X124.85Y-83.82
X127.39Y-83.82
X129.93Y-83.82
X132.47Y-83.82
X161.28Y-106.68
X163.82Y-106.68
X166.36Y-106.68
X168.9Y-106.68
X179.725Y-89.125
X179.725Y-91.665
X179.725Y-94.205
X179.725Y-96.745
X179.725Y-99.285
X179.725Y-101.825
T0
M30
