%TF.GenerationSoftware,KiCad,Pcbnew,6.0.2+dfsg-1~bpo11+1*%
%TF.CreationDate,2022-09-15T10:13:56-04:00*%
%TF.ProjectId,at42qt148_captouch,61743432-7174-4313-9438-5f636170746f,rev?*%
%TF.SameCoordinates,Original*%
%TF.FileFunction,Legend,Top*%
%TF.FilePolarity,Positive*%
%FSLAX46Y46*%
G04 Gerber Fmt 4.6, Leading zero omitted, Abs format (unit mm)*
G04 Created by KiCad (PCBNEW 6.0.2+dfsg-1~bpo11+1) date 2022-09-15 10:13:56*
%MOMM*%
%LPD*%
G01*
G04 APERTURE LIST*
%ADD10C,0.300000*%
%ADD11C,0.150000*%
%ADD12C,0.250000*%
%ADD13C,0.254000*%
%ADD14C,0.120000*%
%ADD15C,0.200000*%
%ADD16C,0.100000*%
%ADD17C,0.400000*%
G04 APERTURE END LIST*
D10*
X160378571Y-84217500D02*
X161092857Y-84217500D01*
X160235714Y-84646071D02*
X160735714Y-83146071D01*
X161235714Y-84646071D01*
X161521428Y-83146071D02*
X162378571Y-83146071D01*
X161950000Y-84646071D02*
X161950000Y-83146071D01*
X163521428Y-83646071D02*
X163521428Y-84646071D01*
X163164285Y-83074642D02*
X162807142Y-84146071D01*
X163735714Y-84146071D01*
X164235714Y-83288928D02*
X164307142Y-83217500D01*
X164450000Y-83146071D01*
X164807142Y-83146071D01*
X164950000Y-83217500D01*
X165021428Y-83288928D01*
X165092857Y-83431785D01*
X165092857Y-83574642D01*
X165021428Y-83788928D01*
X164164285Y-84646071D01*
X165092857Y-84646071D01*
X166735714Y-84788928D02*
X166592857Y-84717500D01*
X166450000Y-84574642D01*
X166235714Y-84360357D01*
X166092857Y-84288928D01*
X165950000Y-84288928D01*
X166021428Y-84646071D02*
X165878571Y-84574642D01*
X165735714Y-84431785D01*
X165664285Y-84146071D01*
X165664285Y-83646071D01*
X165735714Y-83360357D01*
X165878571Y-83217500D01*
X166021428Y-83146071D01*
X166307142Y-83146071D01*
X166450000Y-83217500D01*
X166592857Y-83360357D01*
X166664285Y-83646071D01*
X166664285Y-84146071D01*
X166592857Y-84431785D01*
X166450000Y-84574642D01*
X166307142Y-84646071D01*
X166021428Y-84646071D01*
X167092857Y-83146071D02*
X167950000Y-83146071D01*
X167521428Y-84646071D02*
X167521428Y-83146071D01*
X169592857Y-84646071D02*
X169592857Y-83146071D01*
X169950000Y-83146071D01*
X170164285Y-83217500D01*
X170307142Y-83360357D01*
X170378571Y-83503214D01*
X170450000Y-83788928D01*
X170450000Y-84003214D01*
X170378571Y-84288928D01*
X170307142Y-84431785D01*
X170164285Y-84574642D01*
X169950000Y-84646071D01*
X169592857Y-84646071D01*
X171664285Y-84574642D02*
X171521428Y-84646071D01*
X171235714Y-84646071D01*
X171092857Y-84574642D01*
X171021428Y-84431785D01*
X171021428Y-83860357D01*
X171092857Y-83717500D01*
X171235714Y-83646071D01*
X171521428Y-83646071D01*
X171664285Y-83717500D01*
X171735714Y-83860357D01*
X171735714Y-84003214D01*
X171021428Y-84146071D01*
X172235714Y-83646071D02*
X172592857Y-84646071D01*
X172950000Y-83646071D01*
X175164285Y-83860357D02*
X175378571Y-83931785D01*
X175450000Y-84003214D01*
X175521428Y-84146071D01*
X175521428Y-84360357D01*
X175450000Y-84503214D01*
X175378571Y-84574642D01*
X175235714Y-84646071D01*
X174664285Y-84646071D01*
X174664285Y-83146071D01*
X175164285Y-83146071D01*
X175307142Y-83217500D01*
X175378571Y-83288928D01*
X175450000Y-83431785D01*
X175450000Y-83574642D01*
X175378571Y-83717500D01*
X175307142Y-83788928D01*
X175164285Y-83860357D01*
X174664285Y-83860357D01*
X176378571Y-84646071D02*
X176235714Y-84574642D01*
X176164285Y-84503214D01*
X176092857Y-84360357D01*
X176092857Y-83931785D01*
X176164285Y-83788928D01*
X176235714Y-83717500D01*
X176378571Y-83646071D01*
X176592857Y-83646071D01*
X176735714Y-83717500D01*
X176807142Y-83788928D01*
X176878571Y-83931785D01*
X176878571Y-84360357D01*
X176807142Y-84503214D01*
X176735714Y-84574642D01*
X176592857Y-84646071D01*
X176378571Y-84646071D01*
X178164285Y-84646071D02*
X178164285Y-83860357D01*
X178092857Y-83717500D01*
X177950000Y-83646071D01*
X177664285Y-83646071D01*
X177521428Y-83717500D01*
X178164285Y-84574642D02*
X178021428Y-84646071D01*
X177664285Y-84646071D01*
X177521428Y-84574642D01*
X177450000Y-84431785D01*
X177450000Y-84288928D01*
X177521428Y-84146071D01*
X177664285Y-84074642D01*
X178021428Y-84074642D01*
X178164285Y-84003214D01*
X178878571Y-84646071D02*
X178878571Y-83646071D01*
X178878571Y-83931785D02*
X178950000Y-83788928D01*
X179021428Y-83717500D01*
X179164285Y-83646071D01*
X179307142Y-83646071D01*
X180450000Y-84646071D02*
X180450000Y-83146071D01*
X180450000Y-84574642D02*
X180307142Y-84646071D01*
X180021428Y-84646071D01*
X179878571Y-84574642D01*
X179807142Y-84503214D01*
X179735714Y-84360357D01*
X179735714Y-83931785D01*
X179807142Y-83788928D01*
X179878571Y-83717500D01*
X180021428Y-83646071D01*
X180307142Y-83646071D01*
X180450000Y-83717500D01*
X169378571Y-86061071D02*
X169735714Y-87061071D01*
X170092857Y-86061071D01*
X171450000Y-87061071D02*
X170592857Y-87061071D01*
X171021428Y-87061071D02*
X171021428Y-85561071D01*
X170878571Y-85775357D01*
X170735714Y-85918214D01*
X170592857Y-85989642D01*
D11*
%TO.C,R15*%
X159732142Y-102427380D02*
X159398809Y-101951190D01*
X159160714Y-102427380D02*
X159160714Y-101427380D01*
X159541666Y-101427380D01*
X159636904Y-101475000D01*
X159684523Y-101522619D01*
X159732142Y-101617857D01*
X159732142Y-101760714D01*
X159684523Y-101855952D01*
X159636904Y-101903571D01*
X159541666Y-101951190D01*
X159160714Y-101951190D01*
X160684523Y-102427380D02*
X160113095Y-102427380D01*
X160398809Y-102427380D02*
X160398809Y-101427380D01*
X160303571Y-101570238D01*
X160208333Y-101665476D01*
X160113095Y-101713095D01*
X161589285Y-101427380D02*
X161113095Y-101427380D01*
X161065476Y-101903571D01*
X161113095Y-101855952D01*
X161208333Y-101808333D01*
X161446428Y-101808333D01*
X161541666Y-101855952D01*
X161589285Y-101903571D01*
X161636904Y-101998809D01*
X161636904Y-102236904D01*
X161589285Y-102332142D01*
X161541666Y-102379761D01*
X161446428Y-102427380D01*
X161208333Y-102427380D01*
X161113095Y-102379761D01*
X161065476Y-102332142D01*
%TO.C,R9*%
X135383333Y-83777380D02*
X135050000Y-83301190D01*
X134811904Y-83777380D02*
X134811904Y-82777380D01*
X135192857Y-82777380D01*
X135288095Y-82825000D01*
X135335714Y-82872619D01*
X135383333Y-82967857D01*
X135383333Y-83110714D01*
X135335714Y-83205952D01*
X135288095Y-83253571D01*
X135192857Y-83301190D01*
X134811904Y-83301190D01*
X135859523Y-83777380D02*
X136050000Y-83777380D01*
X136145238Y-83729761D01*
X136192857Y-83682142D01*
X136288095Y-83539285D01*
X136335714Y-83348809D01*
X136335714Y-82967857D01*
X136288095Y-82872619D01*
X136240476Y-82825000D01*
X136145238Y-82777380D01*
X135954761Y-82777380D01*
X135859523Y-82825000D01*
X135811904Y-82872619D01*
X135764285Y-82967857D01*
X135764285Y-83205952D01*
X135811904Y-83301190D01*
X135859523Y-83348809D01*
X135954761Y-83396428D01*
X136145238Y-83396428D01*
X136240476Y-83348809D01*
X136288095Y-83301190D01*
X136335714Y-83205952D01*
%TO.C,C5*%
X147783333Y-87132142D02*
X147735714Y-87179761D01*
X147592857Y-87227380D01*
X147497619Y-87227380D01*
X147354761Y-87179761D01*
X147259523Y-87084523D01*
X147211904Y-86989285D01*
X147164285Y-86798809D01*
X147164285Y-86655952D01*
X147211904Y-86465476D01*
X147259523Y-86370238D01*
X147354761Y-86275000D01*
X147497619Y-86227380D01*
X147592857Y-86227380D01*
X147735714Y-86275000D01*
X147783333Y-86322619D01*
X148688095Y-86227380D02*
X148211904Y-86227380D01*
X148164285Y-86703571D01*
X148211904Y-86655952D01*
X148307142Y-86608333D01*
X148545238Y-86608333D01*
X148640476Y-86655952D01*
X148688095Y-86703571D01*
X148735714Y-86798809D01*
X148735714Y-87036904D01*
X148688095Y-87132142D01*
X148640476Y-87179761D01*
X148545238Y-87227380D01*
X148307142Y-87227380D01*
X148211904Y-87179761D01*
X148164285Y-87132142D01*
%TO.C,R7*%
X113208333Y-92277380D02*
X112875000Y-91801190D01*
X112636904Y-92277380D02*
X112636904Y-91277380D01*
X113017857Y-91277380D01*
X113113095Y-91325000D01*
X113160714Y-91372619D01*
X113208333Y-91467857D01*
X113208333Y-91610714D01*
X113160714Y-91705952D01*
X113113095Y-91753571D01*
X113017857Y-91801190D01*
X112636904Y-91801190D01*
X113541666Y-91277380D02*
X114208333Y-91277380D01*
X113779761Y-92277380D01*
%TO.C,R8*%
X113208333Y-102502380D02*
X112875000Y-102026190D01*
X112636904Y-102502380D02*
X112636904Y-101502380D01*
X113017857Y-101502380D01*
X113113095Y-101550000D01*
X113160714Y-101597619D01*
X113208333Y-101692857D01*
X113208333Y-101835714D01*
X113160714Y-101930952D01*
X113113095Y-101978571D01*
X113017857Y-102026190D01*
X112636904Y-102026190D01*
X113779761Y-101930952D02*
X113684523Y-101883333D01*
X113636904Y-101835714D01*
X113589285Y-101740476D01*
X113589285Y-101692857D01*
X113636904Y-101597619D01*
X113684523Y-101550000D01*
X113779761Y-101502380D01*
X113970238Y-101502380D01*
X114065476Y-101550000D01*
X114113095Y-101597619D01*
X114160714Y-101692857D01*
X114160714Y-101740476D01*
X114113095Y-101835714D01*
X114065476Y-101883333D01*
X113970238Y-101930952D01*
X113779761Y-101930952D01*
X113684523Y-101978571D01*
X113636904Y-102026190D01*
X113589285Y-102121428D01*
X113589285Y-102311904D01*
X113636904Y-102407142D01*
X113684523Y-102454761D01*
X113779761Y-102502380D01*
X113970238Y-102502380D01*
X114065476Y-102454761D01*
X114113095Y-102407142D01*
X114160714Y-102311904D01*
X114160714Y-102121428D01*
X114113095Y-102026190D01*
X114065476Y-101978571D01*
X113970238Y-101930952D01*
%TO.C,R13*%
X159807142Y-97227380D02*
X159473809Y-96751190D01*
X159235714Y-97227380D02*
X159235714Y-96227380D01*
X159616666Y-96227380D01*
X159711904Y-96275000D01*
X159759523Y-96322619D01*
X159807142Y-96417857D01*
X159807142Y-96560714D01*
X159759523Y-96655952D01*
X159711904Y-96703571D01*
X159616666Y-96751190D01*
X159235714Y-96751190D01*
X160759523Y-97227380D02*
X160188095Y-97227380D01*
X160473809Y-97227380D02*
X160473809Y-96227380D01*
X160378571Y-96370238D01*
X160283333Y-96465476D01*
X160188095Y-96513095D01*
X161092857Y-96227380D02*
X161711904Y-96227380D01*
X161378571Y-96608333D01*
X161521428Y-96608333D01*
X161616666Y-96655952D01*
X161664285Y-96703571D01*
X161711904Y-96798809D01*
X161711904Y-97036904D01*
X161664285Y-97132142D01*
X161616666Y-97179761D01*
X161521428Y-97227380D01*
X161235714Y-97227380D01*
X161140476Y-97179761D01*
X161092857Y-97132142D01*
%TO.C,C10*%
X166107142Y-92107142D02*
X166059523Y-92154761D01*
X165916666Y-92202380D01*
X165821428Y-92202380D01*
X165678571Y-92154761D01*
X165583333Y-92059523D01*
X165535714Y-91964285D01*
X165488095Y-91773809D01*
X165488095Y-91630952D01*
X165535714Y-91440476D01*
X165583333Y-91345238D01*
X165678571Y-91250000D01*
X165821428Y-91202380D01*
X165916666Y-91202380D01*
X166059523Y-91250000D01*
X166107142Y-91297619D01*
X167059523Y-92202380D02*
X166488095Y-92202380D01*
X166773809Y-92202380D02*
X166773809Y-91202380D01*
X166678571Y-91345238D01*
X166583333Y-91440476D01*
X166488095Y-91488095D01*
X167678571Y-91202380D02*
X167773809Y-91202380D01*
X167869047Y-91250000D01*
X167916666Y-91297619D01*
X167964285Y-91392857D01*
X168011904Y-91583333D01*
X168011904Y-91821428D01*
X167964285Y-92011904D01*
X167916666Y-92107142D01*
X167869047Y-92154761D01*
X167773809Y-92202380D01*
X167678571Y-92202380D01*
X167583333Y-92154761D01*
X167535714Y-92107142D01*
X167488095Y-92011904D01*
X167440476Y-91821428D01*
X167440476Y-91583333D01*
X167488095Y-91392857D01*
X167535714Y-91297619D01*
X167583333Y-91250000D01*
X167678571Y-91202380D01*
%TO.C,D1*%
X134786904Y-85677380D02*
X134786904Y-84677380D01*
X135025000Y-84677380D01*
X135167857Y-84725000D01*
X135263095Y-84820238D01*
X135310714Y-84915476D01*
X135358333Y-85105952D01*
X135358333Y-85248809D01*
X135310714Y-85439285D01*
X135263095Y-85534523D01*
X135167857Y-85629761D01*
X135025000Y-85677380D01*
X134786904Y-85677380D01*
X136310714Y-85677380D02*
X135739285Y-85677380D01*
X136025000Y-85677380D02*
X136025000Y-84677380D01*
X135929761Y-84820238D01*
X135834523Y-84915476D01*
X135739285Y-84963095D01*
%TO.C,R14*%
X159757142Y-99802380D02*
X159423809Y-99326190D01*
X159185714Y-99802380D02*
X159185714Y-98802380D01*
X159566666Y-98802380D01*
X159661904Y-98850000D01*
X159709523Y-98897619D01*
X159757142Y-98992857D01*
X159757142Y-99135714D01*
X159709523Y-99230952D01*
X159661904Y-99278571D01*
X159566666Y-99326190D01*
X159185714Y-99326190D01*
X160709523Y-99802380D02*
X160138095Y-99802380D01*
X160423809Y-99802380D02*
X160423809Y-98802380D01*
X160328571Y-98945238D01*
X160233333Y-99040476D01*
X160138095Y-99088095D01*
X161566666Y-99135714D02*
X161566666Y-99802380D01*
X161328571Y-98754761D02*
X161090476Y-99469047D01*
X161709523Y-99469047D01*
%TO.C,R17*%
X175957142Y-92177380D02*
X175623809Y-91701190D01*
X175385714Y-92177380D02*
X175385714Y-91177380D01*
X175766666Y-91177380D01*
X175861904Y-91225000D01*
X175909523Y-91272619D01*
X175957142Y-91367857D01*
X175957142Y-91510714D01*
X175909523Y-91605952D01*
X175861904Y-91653571D01*
X175766666Y-91701190D01*
X175385714Y-91701190D01*
X176909523Y-92177380D02*
X176338095Y-92177380D01*
X176623809Y-92177380D02*
X176623809Y-91177380D01*
X176528571Y-91320238D01*
X176433333Y-91415476D01*
X176338095Y-91463095D01*
X177242857Y-91177380D02*
X177909523Y-91177380D01*
X177480952Y-92177380D01*
%TO.C,C3*%
X130877142Y-97416666D02*
X130924761Y-97464285D01*
X130972380Y-97607142D01*
X130972380Y-97702380D01*
X130924761Y-97845238D01*
X130829523Y-97940476D01*
X130734285Y-97988095D01*
X130543809Y-98035714D01*
X130400952Y-98035714D01*
X130210476Y-97988095D01*
X130115238Y-97940476D01*
X130020000Y-97845238D01*
X129972380Y-97702380D01*
X129972380Y-97607142D01*
X130020000Y-97464285D01*
X130067619Y-97416666D01*
X129972380Y-97083333D02*
X129972380Y-96464285D01*
X130353333Y-96797619D01*
X130353333Y-96654761D01*
X130400952Y-96559523D01*
X130448571Y-96511904D01*
X130543809Y-96464285D01*
X130781904Y-96464285D01*
X130877142Y-96511904D01*
X130924761Y-96559523D01*
X130972380Y-96654761D01*
X130972380Y-96940476D01*
X130924761Y-97035714D01*
X130877142Y-97083333D01*
%TO.C,C8*%
X153258333Y-97037142D02*
X153210714Y-97084761D01*
X153067857Y-97132380D01*
X152972619Y-97132380D01*
X152829761Y-97084761D01*
X152734523Y-96989523D01*
X152686904Y-96894285D01*
X152639285Y-96703809D01*
X152639285Y-96560952D01*
X152686904Y-96370476D01*
X152734523Y-96275238D01*
X152829761Y-96180000D01*
X152972619Y-96132380D01*
X153067857Y-96132380D01*
X153210714Y-96180000D01*
X153258333Y-96227619D01*
X153829761Y-96560952D02*
X153734523Y-96513333D01*
X153686904Y-96465714D01*
X153639285Y-96370476D01*
X153639285Y-96322857D01*
X153686904Y-96227619D01*
X153734523Y-96180000D01*
X153829761Y-96132380D01*
X154020238Y-96132380D01*
X154115476Y-96180000D01*
X154163095Y-96227619D01*
X154210714Y-96322857D01*
X154210714Y-96370476D01*
X154163095Y-96465714D01*
X154115476Y-96513333D01*
X154020238Y-96560952D01*
X153829761Y-96560952D01*
X153734523Y-96608571D01*
X153686904Y-96656190D01*
X153639285Y-96751428D01*
X153639285Y-96941904D01*
X153686904Y-97037142D01*
X153734523Y-97084761D01*
X153829761Y-97132380D01*
X154020238Y-97132380D01*
X154115476Y-97084761D01*
X154163095Y-97037142D01*
X154210714Y-96941904D01*
X154210714Y-96751428D01*
X154163095Y-96656190D01*
X154115476Y-96608571D01*
X154020238Y-96560952D01*
%TO.C,R12*%
X159732142Y-94627380D02*
X159398809Y-94151190D01*
X159160714Y-94627380D02*
X159160714Y-93627380D01*
X159541666Y-93627380D01*
X159636904Y-93675000D01*
X159684523Y-93722619D01*
X159732142Y-93817857D01*
X159732142Y-93960714D01*
X159684523Y-94055952D01*
X159636904Y-94103571D01*
X159541666Y-94151190D01*
X159160714Y-94151190D01*
X160684523Y-94627380D02*
X160113095Y-94627380D01*
X160398809Y-94627380D02*
X160398809Y-93627380D01*
X160303571Y-93770238D01*
X160208333Y-93865476D01*
X160113095Y-93913095D01*
X161065476Y-93722619D02*
X161113095Y-93675000D01*
X161208333Y-93627380D01*
X161446428Y-93627380D01*
X161541666Y-93675000D01*
X161589285Y-93722619D01*
X161636904Y-93817857D01*
X161636904Y-93913095D01*
X161589285Y-94055952D01*
X161017857Y-94627380D01*
X161636904Y-94627380D01*
%TO.C,R2*%
X113133333Y-97402380D02*
X112800000Y-96926190D01*
X112561904Y-97402380D02*
X112561904Y-96402380D01*
X112942857Y-96402380D01*
X113038095Y-96450000D01*
X113085714Y-96497619D01*
X113133333Y-96592857D01*
X113133333Y-96735714D01*
X113085714Y-96830952D01*
X113038095Y-96878571D01*
X112942857Y-96926190D01*
X112561904Y-96926190D01*
X113514285Y-96497619D02*
X113561904Y-96450000D01*
X113657142Y-96402380D01*
X113895238Y-96402380D01*
X113990476Y-96450000D01*
X114038095Y-96497619D01*
X114085714Y-96592857D01*
X114085714Y-96688095D01*
X114038095Y-96830952D01*
X113466666Y-97402380D01*
X114085714Y-97402380D01*
%TO.C,C9*%
X166858333Y-89582142D02*
X166810714Y-89629761D01*
X166667857Y-89677380D01*
X166572619Y-89677380D01*
X166429761Y-89629761D01*
X166334523Y-89534523D01*
X166286904Y-89439285D01*
X166239285Y-89248809D01*
X166239285Y-89105952D01*
X166286904Y-88915476D01*
X166334523Y-88820238D01*
X166429761Y-88725000D01*
X166572619Y-88677380D01*
X166667857Y-88677380D01*
X166810714Y-88725000D01*
X166858333Y-88772619D01*
X167334523Y-89677380D02*
X167525000Y-89677380D01*
X167620238Y-89629761D01*
X167667857Y-89582142D01*
X167763095Y-89439285D01*
X167810714Y-89248809D01*
X167810714Y-88867857D01*
X167763095Y-88772619D01*
X167715476Y-88725000D01*
X167620238Y-88677380D01*
X167429761Y-88677380D01*
X167334523Y-88725000D01*
X167286904Y-88772619D01*
X167239285Y-88867857D01*
X167239285Y-89105952D01*
X167286904Y-89201190D01*
X167334523Y-89248809D01*
X167429761Y-89296428D01*
X167620238Y-89296428D01*
X167715476Y-89248809D01*
X167763095Y-89201190D01*
X167810714Y-89105952D01*
%TO.C,C12*%
X166032142Y-97157142D02*
X165984523Y-97204761D01*
X165841666Y-97252380D01*
X165746428Y-97252380D01*
X165603571Y-97204761D01*
X165508333Y-97109523D01*
X165460714Y-97014285D01*
X165413095Y-96823809D01*
X165413095Y-96680952D01*
X165460714Y-96490476D01*
X165508333Y-96395238D01*
X165603571Y-96300000D01*
X165746428Y-96252380D01*
X165841666Y-96252380D01*
X165984523Y-96300000D01*
X166032142Y-96347619D01*
X166984523Y-97252380D02*
X166413095Y-97252380D01*
X166698809Y-97252380D02*
X166698809Y-96252380D01*
X166603571Y-96395238D01*
X166508333Y-96490476D01*
X166413095Y-96538095D01*
X167365476Y-96347619D02*
X167413095Y-96300000D01*
X167508333Y-96252380D01*
X167746428Y-96252380D01*
X167841666Y-96300000D01*
X167889285Y-96347619D01*
X167936904Y-96442857D01*
X167936904Y-96538095D01*
X167889285Y-96680952D01*
X167317857Y-97252380D01*
X167936904Y-97252380D01*
%TO.C,R5*%
X113183333Y-99877380D02*
X112850000Y-99401190D01*
X112611904Y-99877380D02*
X112611904Y-98877380D01*
X112992857Y-98877380D01*
X113088095Y-98925000D01*
X113135714Y-98972619D01*
X113183333Y-99067857D01*
X113183333Y-99210714D01*
X113135714Y-99305952D01*
X113088095Y-99353571D01*
X112992857Y-99401190D01*
X112611904Y-99401190D01*
X114088095Y-98877380D02*
X113611904Y-98877380D01*
X113564285Y-99353571D01*
X113611904Y-99305952D01*
X113707142Y-99258333D01*
X113945238Y-99258333D01*
X114040476Y-99305952D01*
X114088095Y-99353571D01*
X114135714Y-99448809D01*
X114135714Y-99686904D01*
X114088095Y-99782142D01*
X114040476Y-99829761D01*
X113945238Y-99877380D01*
X113707142Y-99877380D01*
X113611904Y-99829761D01*
X113564285Y-99782142D01*
%TO.C,C1*%
X159037142Y-84541666D02*
X159084761Y-84589285D01*
X159132380Y-84732142D01*
X159132380Y-84827380D01*
X159084761Y-84970238D01*
X158989523Y-85065476D01*
X158894285Y-85113095D01*
X158703809Y-85160714D01*
X158560952Y-85160714D01*
X158370476Y-85113095D01*
X158275238Y-85065476D01*
X158180000Y-84970238D01*
X158132380Y-84827380D01*
X158132380Y-84732142D01*
X158180000Y-84589285D01*
X158227619Y-84541666D01*
X159132380Y-83589285D02*
X159132380Y-84160714D01*
X159132380Y-83875000D02*
X158132380Y-83875000D01*
X158275238Y-83970238D01*
X158370476Y-84065476D01*
X158418095Y-84160714D01*
%TO.C,C7*%
X144758333Y-84102142D02*
X144710714Y-84149761D01*
X144567857Y-84197380D01*
X144472619Y-84197380D01*
X144329761Y-84149761D01*
X144234523Y-84054523D01*
X144186904Y-83959285D01*
X144139285Y-83768809D01*
X144139285Y-83625952D01*
X144186904Y-83435476D01*
X144234523Y-83340238D01*
X144329761Y-83245000D01*
X144472619Y-83197380D01*
X144567857Y-83197380D01*
X144710714Y-83245000D01*
X144758333Y-83292619D01*
X145091666Y-83197380D02*
X145758333Y-83197380D01*
X145329761Y-84197380D01*
%TO.C,C4*%
X136158333Y-97057142D02*
X136110714Y-97104761D01*
X135967857Y-97152380D01*
X135872619Y-97152380D01*
X135729761Y-97104761D01*
X135634523Y-97009523D01*
X135586904Y-96914285D01*
X135539285Y-96723809D01*
X135539285Y-96580952D01*
X135586904Y-96390476D01*
X135634523Y-96295238D01*
X135729761Y-96200000D01*
X135872619Y-96152380D01*
X135967857Y-96152380D01*
X136110714Y-96200000D01*
X136158333Y-96247619D01*
X137015476Y-96485714D02*
X137015476Y-97152380D01*
X136777380Y-96104761D02*
X136539285Y-96819047D01*
X137158333Y-96819047D01*
%TO.C,R21*%
X175982142Y-102377380D02*
X175648809Y-101901190D01*
X175410714Y-102377380D02*
X175410714Y-101377380D01*
X175791666Y-101377380D01*
X175886904Y-101425000D01*
X175934523Y-101472619D01*
X175982142Y-101567857D01*
X175982142Y-101710714D01*
X175934523Y-101805952D01*
X175886904Y-101853571D01*
X175791666Y-101901190D01*
X175410714Y-101901190D01*
X176363095Y-101472619D02*
X176410714Y-101425000D01*
X176505952Y-101377380D01*
X176744047Y-101377380D01*
X176839285Y-101425000D01*
X176886904Y-101472619D01*
X176934523Y-101567857D01*
X176934523Y-101663095D01*
X176886904Y-101805952D01*
X176315476Y-102377380D01*
X176934523Y-102377380D01*
X177886904Y-102377380D02*
X177315476Y-102377380D01*
X177601190Y-102377380D02*
X177601190Y-101377380D01*
X177505952Y-101520238D01*
X177410714Y-101615476D01*
X177315476Y-101663095D01*
%TO.C,R19*%
X175982142Y-97302380D02*
X175648809Y-96826190D01*
X175410714Y-97302380D02*
X175410714Y-96302380D01*
X175791666Y-96302380D01*
X175886904Y-96350000D01*
X175934523Y-96397619D01*
X175982142Y-96492857D01*
X175982142Y-96635714D01*
X175934523Y-96730952D01*
X175886904Y-96778571D01*
X175791666Y-96826190D01*
X175410714Y-96826190D01*
X176934523Y-97302380D02*
X176363095Y-97302380D01*
X176648809Y-97302380D02*
X176648809Y-96302380D01*
X176553571Y-96445238D01*
X176458333Y-96540476D01*
X176363095Y-96588095D01*
X177410714Y-97302380D02*
X177601190Y-97302380D01*
X177696428Y-97254761D01*
X177744047Y-97207142D01*
X177839285Y-97064285D01*
X177886904Y-96873809D01*
X177886904Y-96492857D01*
X177839285Y-96397619D01*
X177791666Y-96350000D01*
X177696428Y-96302380D01*
X177505952Y-96302380D01*
X177410714Y-96350000D01*
X177363095Y-96397619D01*
X177315476Y-96492857D01*
X177315476Y-96730952D01*
X177363095Y-96826190D01*
X177410714Y-96873809D01*
X177505952Y-96921428D01*
X177696428Y-96921428D01*
X177791666Y-96873809D01*
X177839285Y-96826190D01*
X177886904Y-96730952D01*
%TO.C,J3*%
X108366666Y-83327380D02*
X108366666Y-84041666D01*
X108319047Y-84184523D01*
X108223809Y-84279761D01*
X108080952Y-84327380D01*
X107985714Y-84327380D01*
X108747619Y-83327380D02*
X109366666Y-83327380D01*
X109033333Y-83708333D01*
X109176190Y-83708333D01*
X109271428Y-83755952D01*
X109319047Y-83803571D01*
X109366666Y-83898809D01*
X109366666Y-84136904D01*
X109319047Y-84232142D01*
X109271428Y-84279761D01*
X109176190Y-84327380D01*
X108890476Y-84327380D01*
X108795238Y-84279761D01*
X108747619Y-84232142D01*
%TO.C,R16*%
X175907142Y-89652380D02*
X175573809Y-89176190D01*
X175335714Y-89652380D02*
X175335714Y-88652380D01*
X175716666Y-88652380D01*
X175811904Y-88700000D01*
X175859523Y-88747619D01*
X175907142Y-88842857D01*
X175907142Y-88985714D01*
X175859523Y-89080952D01*
X175811904Y-89128571D01*
X175716666Y-89176190D01*
X175335714Y-89176190D01*
X176859523Y-89652380D02*
X176288095Y-89652380D01*
X176573809Y-89652380D02*
X176573809Y-88652380D01*
X176478571Y-88795238D01*
X176383333Y-88890476D01*
X176288095Y-88938095D01*
X177716666Y-88652380D02*
X177526190Y-88652380D01*
X177430952Y-88700000D01*
X177383333Y-88747619D01*
X177288095Y-88890476D01*
X177240476Y-89080952D01*
X177240476Y-89461904D01*
X177288095Y-89557142D01*
X177335714Y-89604761D01*
X177430952Y-89652380D01*
X177621428Y-89652380D01*
X177716666Y-89604761D01*
X177764285Y-89557142D01*
X177811904Y-89461904D01*
X177811904Y-89223809D01*
X177764285Y-89128571D01*
X177716666Y-89080952D01*
X177621428Y-89033333D01*
X177430952Y-89033333D01*
X177335714Y-89080952D01*
X177288095Y-89128571D01*
X177240476Y-89223809D01*
%TO.C,C6*%
X144858333Y-105607142D02*
X144810714Y-105654761D01*
X144667857Y-105702380D01*
X144572619Y-105702380D01*
X144429761Y-105654761D01*
X144334523Y-105559523D01*
X144286904Y-105464285D01*
X144239285Y-105273809D01*
X144239285Y-105130952D01*
X144286904Y-104940476D01*
X144334523Y-104845238D01*
X144429761Y-104750000D01*
X144572619Y-104702380D01*
X144667857Y-104702380D01*
X144810714Y-104750000D01*
X144858333Y-104797619D01*
X145715476Y-104702380D02*
X145525000Y-104702380D01*
X145429761Y-104750000D01*
X145382142Y-104797619D01*
X145286904Y-104940476D01*
X145239285Y-105130952D01*
X145239285Y-105511904D01*
X145286904Y-105607142D01*
X145334523Y-105654761D01*
X145429761Y-105702380D01*
X145620238Y-105702380D01*
X145715476Y-105654761D01*
X145763095Y-105607142D01*
X145810714Y-105511904D01*
X145810714Y-105273809D01*
X145763095Y-105178571D01*
X145715476Y-105130952D01*
X145620238Y-105083333D01*
X145429761Y-105083333D01*
X145334523Y-105130952D01*
X145286904Y-105178571D01*
X145239285Y-105273809D01*
D12*
%TO.C,IC1*%
X151773809Y-87452380D02*
X151773809Y-86452380D01*
X152821428Y-87357142D02*
X152773809Y-87404761D01*
X152630952Y-87452380D01*
X152535714Y-87452380D01*
X152392857Y-87404761D01*
X152297619Y-87309523D01*
X152250000Y-87214285D01*
X152202380Y-87023809D01*
X152202380Y-86880952D01*
X152250000Y-86690476D01*
X152297619Y-86595238D01*
X152392857Y-86500000D01*
X152535714Y-86452380D01*
X152630952Y-86452380D01*
X152773809Y-86500000D01*
X152821428Y-86547619D01*
X153773809Y-87452380D02*
X153202380Y-87452380D01*
X153488095Y-87452380D02*
X153488095Y-86452380D01*
X153392857Y-86595238D01*
X153297619Y-86690476D01*
X153202380Y-86738095D01*
D11*
%TO.C,R3*%
X113183333Y-89802380D02*
X112850000Y-89326190D01*
X112611904Y-89802380D02*
X112611904Y-88802380D01*
X112992857Y-88802380D01*
X113088095Y-88850000D01*
X113135714Y-88897619D01*
X113183333Y-88992857D01*
X113183333Y-89135714D01*
X113135714Y-89230952D01*
X113088095Y-89278571D01*
X112992857Y-89326190D01*
X112611904Y-89326190D01*
X113516666Y-88802380D02*
X114135714Y-88802380D01*
X113802380Y-89183333D01*
X113945238Y-89183333D01*
X114040476Y-89230952D01*
X114088095Y-89278571D01*
X114135714Y-89373809D01*
X114135714Y-89611904D01*
X114088095Y-89707142D01*
X114040476Y-89754761D01*
X113945238Y-89802380D01*
X113659523Y-89802380D01*
X113564285Y-89754761D01*
X113516666Y-89707142D01*
%TO.C,R1*%
X113208333Y-87102380D02*
X112875000Y-86626190D01*
X112636904Y-87102380D02*
X112636904Y-86102380D01*
X113017857Y-86102380D01*
X113113095Y-86150000D01*
X113160714Y-86197619D01*
X113208333Y-86292857D01*
X113208333Y-86435714D01*
X113160714Y-86530952D01*
X113113095Y-86578571D01*
X113017857Y-86626190D01*
X112636904Y-86626190D01*
X114160714Y-87102380D02*
X113589285Y-87102380D01*
X113875000Y-87102380D02*
X113875000Y-86102380D01*
X113779761Y-86245238D01*
X113684523Y-86340476D01*
X113589285Y-86388095D01*
%TO.C,R10*%
X159832142Y-89602380D02*
X159498809Y-89126190D01*
X159260714Y-89602380D02*
X159260714Y-88602380D01*
X159641666Y-88602380D01*
X159736904Y-88650000D01*
X159784523Y-88697619D01*
X159832142Y-88792857D01*
X159832142Y-88935714D01*
X159784523Y-89030952D01*
X159736904Y-89078571D01*
X159641666Y-89126190D01*
X159260714Y-89126190D01*
X160784523Y-89602380D02*
X160213095Y-89602380D01*
X160498809Y-89602380D02*
X160498809Y-88602380D01*
X160403571Y-88745238D01*
X160308333Y-88840476D01*
X160213095Y-88888095D01*
X161403571Y-88602380D02*
X161498809Y-88602380D01*
X161594047Y-88650000D01*
X161641666Y-88697619D01*
X161689285Y-88792857D01*
X161736904Y-88983333D01*
X161736904Y-89221428D01*
X161689285Y-89411904D01*
X161641666Y-89507142D01*
X161594047Y-89554761D01*
X161498809Y-89602380D01*
X161403571Y-89602380D01*
X161308333Y-89554761D01*
X161260714Y-89507142D01*
X161213095Y-89411904D01*
X161165476Y-89221428D01*
X161165476Y-88983333D01*
X161213095Y-88792857D01*
X161260714Y-88697619D01*
X161308333Y-88650000D01*
X161403571Y-88602380D01*
%TO.C,C13*%
X166057142Y-99782142D02*
X166009523Y-99829761D01*
X165866666Y-99877380D01*
X165771428Y-99877380D01*
X165628571Y-99829761D01*
X165533333Y-99734523D01*
X165485714Y-99639285D01*
X165438095Y-99448809D01*
X165438095Y-99305952D01*
X165485714Y-99115476D01*
X165533333Y-99020238D01*
X165628571Y-98925000D01*
X165771428Y-98877380D01*
X165866666Y-98877380D01*
X166009523Y-98925000D01*
X166057142Y-98972619D01*
X167009523Y-99877380D02*
X166438095Y-99877380D01*
X166723809Y-99877380D02*
X166723809Y-98877380D01*
X166628571Y-99020238D01*
X166533333Y-99115476D01*
X166438095Y-99163095D01*
X167342857Y-98877380D02*
X167961904Y-98877380D01*
X167628571Y-99258333D01*
X167771428Y-99258333D01*
X167866666Y-99305952D01*
X167914285Y-99353571D01*
X167961904Y-99448809D01*
X167961904Y-99686904D01*
X167914285Y-99782142D01*
X167866666Y-99829761D01*
X167771428Y-99877380D01*
X167485714Y-99877380D01*
X167390476Y-99829761D01*
X167342857Y-99782142D01*
%TO.C,J4*%
X179391666Y-85807380D02*
X179391666Y-86521666D01*
X179344047Y-86664523D01*
X179248809Y-86759761D01*
X179105952Y-86807380D01*
X179010714Y-86807380D01*
X180296428Y-86140714D02*
X180296428Y-86807380D01*
X180058333Y-85759761D02*
X179820238Y-86474047D01*
X180439285Y-86474047D01*
%TO.C,J1*%
X170682380Y-107013333D02*
X171396666Y-107013333D01*
X171539523Y-107060952D01*
X171634761Y-107156190D01*
X171682380Y-107299047D01*
X171682380Y-107394285D01*
X171682380Y-106013333D02*
X171682380Y-106584761D01*
X171682380Y-106299047D02*
X170682380Y-106299047D01*
X170825238Y-106394285D01*
X170920476Y-106489523D01*
X170968095Y-106584761D01*
%TO.C,J2*%
X121972380Y-84153333D02*
X122686666Y-84153333D01*
X122829523Y-84200952D01*
X122924761Y-84296190D01*
X122972380Y-84439047D01*
X122972380Y-84534285D01*
X122067619Y-83724761D02*
X122020000Y-83677142D01*
X121972380Y-83581904D01*
X121972380Y-83343809D01*
X122020000Y-83248571D01*
X122067619Y-83200952D01*
X122162857Y-83153333D01*
X122258095Y-83153333D01*
X122400952Y-83200952D01*
X122972380Y-83772380D01*
X122972380Y-83153333D01*
%TO.C,R20*%
X176007142Y-99802380D02*
X175673809Y-99326190D01*
X175435714Y-99802380D02*
X175435714Y-98802380D01*
X175816666Y-98802380D01*
X175911904Y-98850000D01*
X175959523Y-98897619D01*
X176007142Y-98992857D01*
X176007142Y-99135714D01*
X175959523Y-99230952D01*
X175911904Y-99278571D01*
X175816666Y-99326190D01*
X175435714Y-99326190D01*
X176388095Y-98897619D02*
X176435714Y-98850000D01*
X176530952Y-98802380D01*
X176769047Y-98802380D01*
X176864285Y-98850000D01*
X176911904Y-98897619D01*
X176959523Y-98992857D01*
X176959523Y-99088095D01*
X176911904Y-99230952D01*
X176340476Y-99802380D01*
X176959523Y-99802380D01*
X177578571Y-98802380D02*
X177673809Y-98802380D01*
X177769047Y-98850000D01*
X177816666Y-98897619D01*
X177864285Y-98992857D01*
X177911904Y-99183333D01*
X177911904Y-99421428D01*
X177864285Y-99611904D01*
X177816666Y-99707142D01*
X177769047Y-99754761D01*
X177673809Y-99802380D01*
X177578571Y-99802380D01*
X177483333Y-99754761D01*
X177435714Y-99707142D01*
X177388095Y-99611904D01*
X177340476Y-99421428D01*
X177340476Y-99183333D01*
X177388095Y-98992857D01*
X177435714Y-98897619D01*
X177483333Y-98850000D01*
X177578571Y-98802380D01*
%TO.C,R6*%
X113283333Y-104927380D02*
X112950000Y-104451190D01*
X112711904Y-104927380D02*
X112711904Y-103927380D01*
X113092857Y-103927380D01*
X113188095Y-103975000D01*
X113235714Y-104022619D01*
X113283333Y-104117857D01*
X113283333Y-104260714D01*
X113235714Y-104355952D01*
X113188095Y-104403571D01*
X113092857Y-104451190D01*
X112711904Y-104451190D01*
X114140476Y-103927380D02*
X113950000Y-103927380D01*
X113854761Y-103975000D01*
X113807142Y-104022619D01*
X113711904Y-104165476D01*
X113664285Y-104355952D01*
X113664285Y-104736904D01*
X113711904Y-104832142D01*
X113759523Y-104879761D01*
X113854761Y-104927380D01*
X114045238Y-104927380D01*
X114140476Y-104879761D01*
X114188095Y-104832142D01*
X114235714Y-104736904D01*
X114235714Y-104498809D01*
X114188095Y-104403571D01*
X114140476Y-104355952D01*
X114045238Y-104308333D01*
X113854761Y-104308333D01*
X113759523Y-104355952D01*
X113711904Y-104403571D01*
X113664285Y-104498809D01*
%TO.C,C14*%
X165932142Y-102257142D02*
X165884523Y-102304761D01*
X165741666Y-102352380D01*
X165646428Y-102352380D01*
X165503571Y-102304761D01*
X165408333Y-102209523D01*
X165360714Y-102114285D01*
X165313095Y-101923809D01*
X165313095Y-101780952D01*
X165360714Y-101590476D01*
X165408333Y-101495238D01*
X165503571Y-101400000D01*
X165646428Y-101352380D01*
X165741666Y-101352380D01*
X165884523Y-101400000D01*
X165932142Y-101447619D01*
X166884523Y-102352380D02*
X166313095Y-102352380D01*
X166598809Y-102352380D02*
X166598809Y-101352380D01*
X166503571Y-101495238D01*
X166408333Y-101590476D01*
X166313095Y-101638095D01*
X167741666Y-101685714D02*
X167741666Y-102352380D01*
X167503571Y-101304761D02*
X167265476Y-102019047D01*
X167884523Y-102019047D01*
%TO.C,C2*%
X133737142Y-94141666D02*
X133784761Y-94189285D01*
X133832380Y-94332142D01*
X133832380Y-94427380D01*
X133784761Y-94570238D01*
X133689523Y-94665476D01*
X133594285Y-94713095D01*
X133403809Y-94760714D01*
X133260952Y-94760714D01*
X133070476Y-94713095D01*
X132975238Y-94665476D01*
X132880000Y-94570238D01*
X132832380Y-94427380D01*
X132832380Y-94332142D01*
X132880000Y-94189285D01*
X132927619Y-94141666D01*
X132927619Y-93760714D02*
X132880000Y-93713095D01*
X132832380Y-93617857D01*
X132832380Y-93379761D01*
X132880000Y-93284523D01*
X132927619Y-93236904D01*
X133022857Y-93189285D01*
X133118095Y-93189285D01*
X133260952Y-93236904D01*
X133832380Y-93808333D01*
X133832380Y-93189285D01*
D13*
%TO.C,Y1*%
X127244761Y-96154761D02*
X127849523Y-96154761D01*
X126579523Y-96578095D02*
X127244761Y-96154761D01*
X126579523Y-95731428D01*
X127849523Y-94642857D02*
X127849523Y-95368571D01*
X127849523Y-95005714D02*
X126579523Y-95005714D01*
X126760952Y-95126666D01*
X126881904Y-95247619D01*
X126942380Y-95368571D01*
D11*
%TO.C,C11*%
X166032142Y-94482142D02*
X165984523Y-94529761D01*
X165841666Y-94577380D01*
X165746428Y-94577380D01*
X165603571Y-94529761D01*
X165508333Y-94434523D01*
X165460714Y-94339285D01*
X165413095Y-94148809D01*
X165413095Y-94005952D01*
X165460714Y-93815476D01*
X165508333Y-93720238D01*
X165603571Y-93625000D01*
X165746428Y-93577380D01*
X165841666Y-93577380D01*
X165984523Y-93625000D01*
X166032142Y-93672619D01*
X166984523Y-94577380D02*
X166413095Y-94577380D01*
X166698809Y-94577380D02*
X166698809Y-93577380D01*
X166603571Y-93720238D01*
X166508333Y-93815476D01*
X166413095Y-93863095D01*
X167936904Y-94577380D02*
X167365476Y-94577380D01*
X167651190Y-94577380D02*
X167651190Y-93577380D01*
X167555952Y-93720238D01*
X167460714Y-93815476D01*
X167365476Y-93863095D01*
%TO.C,R11*%
X159807142Y-92002380D02*
X159473809Y-91526190D01*
X159235714Y-92002380D02*
X159235714Y-91002380D01*
X159616666Y-91002380D01*
X159711904Y-91050000D01*
X159759523Y-91097619D01*
X159807142Y-91192857D01*
X159807142Y-91335714D01*
X159759523Y-91430952D01*
X159711904Y-91478571D01*
X159616666Y-91526190D01*
X159235714Y-91526190D01*
X160759523Y-92002380D02*
X160188095Y-92002380D01*
X160473809Y-92002380D02*
X160473809Y-91002380D01*
X160378571Y-91145238D01*
X160283333Y-91240476D01*
X160188095Y-91288095D01*
X161711904Y-92002380D02*
X161140476Y-92002380D01*
X161426190Y-92002380D02*
X161426190Y-91002380D01*
X161330952Y-91145238D01*
X161235714Y-91240476D01*
X161140476Y-91288095D01*
%TO.C,R18*%
X175932142Y-94702380D02*
X175598809Y-94226190D01*
X175360714Y-94702380D02*
X175360714Y-93702380D01*
X175741666Y-93702380D01*
X175836904Y-93750000D01*
X175884523Y-93797619D01*
X175932142Y-93892857D01*
X175932142Y-94035714D01*
X175884523Y-94130952D01*
X175836904Y-94178571D01*
X175741666Y-94226190D01*
X175360714Y-94226190D01*
X176884523Y-94702380D02*
X176313095Y-94702380D01*
X176598809Y-94702380D02*
X176598809Y-93702380D01*
X176503571Y-93845238D01*
X176408333Y-93940476D01*
X176313095Y-93988095D01*
X177455952Y-94130952D02*
X177360714Y-94083333D01*
X177313095Y-94035714D01*
X177265476Y-93940476D01*
X177265476Y-93892857D01*
X177313095Y-93797619D01*
X177360714Y-93750000D01*
X177455952Y-93702380D01*
X177646428Y-93702380D01*
X177741666Y-93750000D01*
X177789285Y-93797619D01*
X177836904Y-93892857D01*
X177836904Y-93940476D01*
X177789285Y-94035714D01*
X177741666Y-94083333D01*
X177646428Y-94130952D01*
X177455952Y-94130952D01*
X177360714Y-94178571D01*
X177313095Y-94226190D01*
X177265476Y-94321428D01*
X177265476Y-94511904D01*
X177313095Y-94607142D01*
X177360714Y-94654761D01*
X177455952Y-94702380D01*
X177646428Y-94702380D01*
X177741666Y-94654761D01*
X177789285Y-94607142D01*
X177836904Y-94511904D01*
X177836904Y-94321428D01*
X177789285Y-94226190D01*
X177741666Y-94178571D01*
X177646428Y-94130952D01*
D13*
%TO.C,IC2*%
X143585238Y-95824523D02*
X143585238Y-94554523D01*
X144915714Y-95703571D02*
X144855238Y-95764047D01*
X144673809Y-95824523D01*
X144552857Y-95824523D01*
X144371428Y-95764047D01*
X144250476Y-95643095D01*
X144190000Y-95522142D01*
X144129523Y-95280238D01*
X144129523Y-95098809D01*
X144190000Y-94856904D01*
X144250476Y-94735952D01*
X144371428Y-94615000D01*
X144552857Y-94554523D01*
X144673809Y-94554523D01*
X144855238Y-94615000D01*
X144915714Y-94675476D01*
X145399523Y-94675476D02*
X145460000Y-94615000D01*
X145580952Y-94554523D01*
X145883333Y-94554523D01*
X146004285Y-94615000D01*
X146064761Y-94675476D01*
X146125238Y-94796428D01*
X146125238Y-94917380D01*
X146064761Y-95098809D01*
X145339047Y-95824523D01*
X146125238Y-95824523D01*
D11*
%TO.C,R4*%
X113183333Y-94702380D02*
X112850000Y-94226190D01*
X112611904Y-94702380D02*
X112611904Y-93702380D01*
X112992857Y-93702380D01*
X113088095Y-93750000D01*
X113135714Y-93797619D01*
X113183333Y-93892857D01*
X113183333Y-94035714D01*
X113135714Y-94130952D01*
X113088095Y-94178571D01*
X112992857Y-94226190D01*
X112611904Y-94226190D01*
X114040476Y-94035714D02*
X114040476Y-94702380D01*
X113802380Y-93654761D02*
X113564285Y-94369047D01*
X114183333Y-94369047D01*
D14*
%TO.C,R15*%
X163612258Y-101352500D02*
X163137742Y-101352500D01*
X163612258Y-102397500D02*
X163137742Y-102397500D01*
%TO.C,R9*%
X137762742Y-83772500D02*
X138237258Y-83772500D01*
X137762742Y-82727500D02*
X138237258Y-82727500D01*
%TO.C,C5*%
X148460000Y-84765580D02*
X148460000Y-84484420D01*
X147440000Y-84765580D02*
X147440000Y-84484420D01*
%TO.C,R7*%
X116112258Y-91177500D02*
X115637742Y-91177500D01*
X116112258Y-92222500D02*
X115637742Y-92222500D01*
%TO.C,R8*%
X116137258Y-102422500D02*
X115662742Y-102422500D01*
X116137258Y-101377500D02*
X115662742Y-101377500D01*
%TO.C,R13*%
X163662258Y-96127500D02*
X163187742Y-96127500D01*
X163662258Y-97172500D02*
X163187742Y-97172500D01*
%TO.C,C10*%
X169534420Y-92135000D02*
X169815580Y-92135000D01*
X169534420Y-91115000D02*
X169815580Y-91115000D01*
%TO.C,D1*%
X139485000Y-84440000D02*
X137200000Y-84440000D01*
X139485000Y-85910000D02*
X139485000Y-84440000D01*
X137200000Y-85910000D02*
X139485000Y-85910000D01*
%TO.C,R14*%
X163637258Y-99797500D02*
X163162742Y-99797500D01*
X163637258Y-98752500D02*
X163162742Y-98752500D01*
%TO.C,R17*%
X173387742Y-91127500D02*
X173862258Y-91127500D01*
X173387742Y-92172500D02*
X173862258Y-92172500D01*
%TO.C,C3*%
X131440000Y-97390580D02*
X131440000Y-97109420D01*
X132460000Y-97390580D02*
X132460000Y-97109420D01*
%TO.C,C8*%
X153565580Y-94740000D02*
X153284420Y-94740000D01*
X153565580Y-95760000D02*
X153284420Y-95760000D01*
%TO.C,R12*%
X163712258Y-93552500D02*
X163237742Y-93552500D01*
X163712258Y-94597500D02*
X163237742Y-94597500D01*
%TO.C,R2*%
X116112258Y-97372500D02*
X115637742Y-97372500D01*
X116112258Y-96327500D02*
X115637742Y-96327500D01*
%TO.C,C9*%
X169559420Y-89610000D02*
X169840580Y-89610000D01*
X169559420Y-88590000D02*
X169840580Y-88590000D01*
%TO.C,C12*%
X169509420Y-97235000D02*
X169790580Y-97235000D01*
X169509420Y-96215000D02*
X169790580Y-96215000D01*
%TO.C,R5*%
X116137258Y-99872500D02*
X115662742Y-99872500D01*
X116137258Y-98827500D02*
X115662742Y-98827500D01*
%TO.C,C1*%
X157760000Y-84234420D02*
X157760000Y-84515580D01*
X156740000Y-84234420D02*
X156740000Y-84515580D01*
%TO.C,C7*%
X144784420Y-85685000D02*
X145065580Y-85685000D01*
X144784420Y-84665000D02*
X145065580Y-84665000D01*
%TO.C,C4*%
X135965000Y-94284420D02*
X135965000Y-94565580D01*
X136985000Y-94284420D02*
X136985000Y-94565580D01*
%TO.C,R21*%
X173462742Y-102347500D02*
X173937258Y-102347500D01*
X173462742Y-101302500D02*
X173937258Y-101302500D01*
%TO.C,R19*%
X173412742Y-97272500D02*
X173887258Y-97272500D01*
X173412742Y-96227500D02*
X173887258Y-96227500D01*
%TO.C,J3*%
X110030000Y-85315000D02*
X110030000Y-86645000D01*
X107370000Y-105755000D02*
X110030000Y-105755000D01*
X107370000Y-87915000D02*
X107370000Y-105755000D01*
X107370000Y-87915000D02*
X110030000Y-87915000D01*
X110030000Y-87915000D02*
X110030000Y-105755000D01*
X108700000Y-85315000D02*
X110030000Y-85315000D01*
%TO.C,R16*%
X173387742Y-88602500D02*
X173862258Y-88602500D01*
X173387742Y-89647500D02*
X173862258Y-89647500D01*
%TO.C,C6*%
X145009420Y-103290000D02*
X145290580Y-103290000D01*
X145009420Y-104310000D02*
X145290580Y-104310000D01*
D15*
%TO.C,IC1*%
X155100000Y-85575000D02*
X155100000Y-85575000D01*
X155000000Y-85575000D02*
X155000000Y-85575000D01*
X155000000Y-85575000D02*
X155000000Y-85575000D01*
X155000000Y-85575000D02*
G75*
G03*
X155100000Y-85575000I50000J0D01*
G01*
X155100000Y-85575000D02*
G75*
G03*
X155000000Y-85575000I-50000J0D01*
G01*
X155000000Y-85575000D02*
G75*
G03*
X155100000Y-85575000I50000J0D01*
G01*
D14*
%TO.C,R3*%
X116112258Y-88677500D02*
X115637742Y-88677500D01*
X116112258Y-89722500D02*
X115637742Y-89722500D01*
%TO.C,R1*%
X116112258Y-87172500D02*
X115637742Y-87172500D01*
X116112258Y-86127500D02*
X115637742Y-86127500D01*
%TO.C,R10*%
X163762258Y-88577500D02*
X163287742Y-88577500D01*
X163762258Y-89622500D02*
X163287742Y-89622500D01*
%TO.C,C13*%
X169534420Y-98790000D02*
X169815580Y-98790000D01*
X169534420Y-99810000D02*
X169815580Y-99810000D01*
%TO.C,J4*%
X179725000Y-87795000D02*
X181055000Y-87795000D01*
X178395000Y-103155000D02*
X181055000Y-103155000D01*
X181055000Y-90395000D02*
X181055000Y-103155000D01*
X181055000Y-87795000D02*
X181055000Y-89125000D01*
X178395000Y-90395000D02*
X178395000Y-103155000D01*
X178395000Y-90395000D02*
X181055000Y-90395000D01*
%TO.C,J1*%
X167630000Y-105350000D02*
X159950000Y-105350000D01*
X170230000Y-105350000D02*
X170230000Y-106680000D01*
X167630000Y-105350000D02*
X167630000Y-108010000D01*
X159950000Y-105350000D02*
X159950000Y-108010000D01*
X168900000Y-105350000D02*
X170230000Y-105350000D01*
X167630000Y-108010000D02*
X159950000Y-108010000D01*
%TO.C,J2*%
X126120000Y-85150000D02*
X126120000Y-82490000D01*
X133800000Y-85150000D02*
X133800000Y-82490000D01*
X126120000Y-85150000D02*
X133800000Y-85150000D01*
X126120000Y-82490000D02*
X133800000Y-82490000D01*
X123520000Y-85150000D02*
X123520000Y-83820000D01*
X124850000Y-85150000D02*
X123520000Y-85150000D01*
%TO.C,R20*%
X173437742Y-99847500D02*
X173912258Y-99847500D01*
X173437742Y-98802500D02*
X173912258Y-98802500D01*
%TO.C,R6*%
X116137258Y-104947500D02*
X115662742Y-104947500D01*
X116137258Y-103902500D02*
X115662742Y-103902500D01*
%TO.C,C14*%
X169459420Y-102360000D02*
X169740580Y-102360000D01*
X169459420Y-101340000D02*
X169740580Y-101340000D01*
%TO.C,C2*%
X131440000Y-93834420D02*
X131440000Y-94115580D01*
X132460000Y-93834420D02*
X132460000Y-94115580D01*
D16*
%TO.C,Y1*%
X127275000Y-103450000D02*
X127275000Y-103450000D01*
D15*
X129725000Y-89850000D02*
X128775000Y-89850000D01*
X125775000Y-101250000D02*
X124825000Y-101250000D01*
X124825000Y-89850000D02*
X125775000Y-89850000D01*
D16*
X127275000Y-103550000D02*
X127275000Y-103550000D01*
D15*
X128775000Y-101250000D02*
X129725000Y-101250000D01*
X124825000Y-101250000D02*
X124825000Y-89850000D01*
X129725000Y-101250000D02*
X129725000Y-89850000D01*
D16*
X127275000Y-103550000D02*
G75*
G03*
X127275000Y-103450000I0J50000D01*
G01*
X127275000Y-103450000D02*
G75*
G03*
X127275000Y-103550000I0J-50000D01*
G01*
D14*
%TO.C,C11*%
X169509420Y-93615000D02*
X169790580Y-93615000D01*
X169509420Y-94635000D02*
X169790580Y-94635000D01*
%TO.C,R11*%
X163762258Y-91077500D02*
X163287742Y-91077500D01*
X163762258Y-92122500D02*
X163287742Y-92122500D01*
%TO.C,R18*%
X173412742Y-93652500D02*
X173887258Y-93652500D01*
X173412742Y-94697500D02*
X173887258Y-94697500D01*
D15*
%TO.C,IC2*%
X149475000Y-99900000D02*
X140175000Y-99900000D01*
X149475000Y-90600000D02*
X149475000Y-99900000D01*
X140175000Y-99900000D02*
X140175000Y-90600000D01*
X140175000Y-90600000D02*
X149475000Y-90600000D01*
D17*
X138925000Y-90050000D02*
G75*
G03*
X138925000Y-90050000I-200000J0D01*
G01*
D14*
%TO.C,R4*%
X116087258Y-94797500D02*
X115612742Y-94797500D01*
X116087258Y-93752500D02*
X115612742Y-93752500D01*
%TD*%
M02*
