%TF.GenerationSoftware,KiCad,Pcbnew,6.0.2+dfsg-1~bpo11+1*%
%TF.CreationDate,2022-09-15T10:13:56-04:00*%
%TF.ProjectId,at42qt148_captouch,61743432-7174-4313-9438-5f636170746f,rev?*%
%TF.SameCoordinates,Original*%
%TF.FileFunction,Paste,Top*%
%TF.FilePolarity,Positive*%
%FSLAX46Y46*%
G04 Gerber Fmt 4.6, Leading zero omitted, Abs format (unit mm)*
G04 Created by KiCad (PCBNEW 6.0.2+dfsg-1~bpo11+1) date 2022-09-15 10:13:56*
%MOMM*%
%LPD*%
G01*
G04 APERTURE LIST*
G04 Aperture macros list*
%AMRoundRect*
0 Rectangle with rounded corners*
0 $1 Rounding radius*
0 $2 $3 $4 $5 $6 $7 $8 $9 X,Y pos of 4 corners*
0 Add a 4 corners polygon primitive as box body*
4,1,4,$2,$3,$4,$5,$6,$7,$8,$9,$2,$3,0*
0 Add four circle primitives for the rounded corners*
1,1,$1+$1,$2,$3*
1,1,$1+$1,$4,$5*
1,1,$1+$1,$6,$7*
1,1,$1+$1,$8,$9*
0 Add four rect primitives between the rounded corners*
20,1,$1+$1,$2,$3,$4,$5,0*
20,1,$1+$1,$4,$5,$6,$7,0*
20,1,$1+$1,$6,$7,$8,$9,0*
20,1,$1+$1,$8,$9,$2,$3,0*%
G04 Aperture macros list end*
%ADD10RoundRect,0.200000X0.200000X0.275000X-0.200000X0.275000X-0.200000X-0.275000X0.200000X-0.275000X0*%
%ADD11RoundRect,0.200000X-0.200000X-0.275000X0.200000X-0.275000X0.200000X0.275000X-0.200000X0.275000X0*%
%ADD12RoundRect,0.225000X0.250000X-0.225000X0.250000X0.225000X-0.250000X0.225000X-0.250000X-0.225000X0*%
%ADD13RoundRect,0.225000X-0.225000X-0.250000X0.225000X-0.250000X0.225000X0.250000X-0.225000X0.250000X0*%
%ADD14RoundRect,0.218750X0.218750X0.256250X-0.218750X0.256250X-0.218750X-0.256250X0.218750X-0.256250X0*%
%ADD15RoundRect,0.225000X0.225000X0.250000X-0.225000X0.250000X-0.225000X-0.250000X0.225000X-0.250000X0*%
%ADD16RoundRect,0.225000X-0.250000X0.225000X-0.250000X-0.225000X0.250000X-0.225000X0.250000X0.225000X0*%
%ADD17R,1.000000X0.800000*%
%ADD18R,1.000000X0.600000*%
%ADD19R,2.000000X5.500000*%
%ADD20R,1.500000X0.600000*%
%ADD21R,0.600000X1.500000*%
G04 APERTURE END LIST*
D10*
%TO.C,R15*%
X164200000Y-101875000D03*
X162550000Y-101875000D03*
%TD*%
D11*
%TO.C,R9*%
X137175000Y-83250000D03*
X138825000Y-83250000D03*
%TD*%
D12*
%TO.C,C5*%
X147950000Y-85400000D03*
X147950000Y-83850000D03*
%TD*%
D10*
%TO.C,R7*%
X116700000Y-91700000D03*
X115050000Y-91700000D03*
%TD*%
%TO.C,R8*%
X116725000Y-101900000D03*
X115075000Y-101900000D03*
%TD*%
%TO.C,R13*%
X164250000Y-96650000D03*
X162600000Y-96650000D03*
%TD*%
D13*
%TO.C,C10*%
X168900000Y-91625000D03*
X170450000Y-91625000D03*
%TD*%
D14*
%TO.C,D1*%
X138787500Y-85175000D03*
X137212500Y-85175000D03*
%TD*%
D10*
%TO.C,R14*%
X164225000Y-99275000D03*
X162575000Y-99275000D03*
%TD*%
D11*
%TO.C,R17*%
X172800000Y-91650000D03*
X174450000Y-91650000D03*
%TD*%
D12*
%TO.C,C3*%
X131950000Y-98025000D03*
X131950000Y-96475000D03*
%TD*%
D15*
%TO.C,C8*%
X154200000Y-95250000D03*
X152650000Y-95250000D03*
%TD*%
D10*
%TO.C,R12*%
X164300000Y-94075000D03*
X162650000Y-94075000D03*
%TD*%
%TO.C,R2*%
X116700000Y-96850000D03*
X115050000Y-96850000D03*
%TD*%
D13*
%TO.C,C9*%
X168925000Y-89100000D03*
X170475000Y-89100000D03*
%TD*%
%TO.C,C12*%
X168875000Y-96725000D03*
X170425000Y-96725000D03*
%TD*%
D10*
%TO.C,R5*%
X116725000Y-99350000D03*
X115075000Y-99350000D03*
%TD*%
D16*
%TO.C,C1*%
X157250000Y-83600000D03*
X157250000Y-85150000D03*
%TD*%
D13*
%TO.C,C7*%
X144150000Y-85175000D03*
X145700000Y-85175000D03*
%TD*%
D16*
%TO.C,C4*%
X136475000Y-93650000D03*
X136475000Y-95200000D03*
%TD*%
D11*
%TO.C,R21*%
X172875000Y-101825000D03*
X174525000Y-101825000D03*
%TD*%
%TO.C,R19*%
X172825000Y-96750000D03*
X174475000Y-96750000D03*
%TD*%
%TO.C,R16*%
X172800000Y-89125000D03*
X174450000Y-89125000D03*
%TD*%
D13*
%TO.C,C6*%
X144375000Y-103800000D03*
X145925000Y-103800000D03*
%TD*%
D17*
%TO.C,IC1*%
X153800000Y-85575000D03*
D18*
X153800000Y-84625000D03*
D17*
X153800000Y-83675000D03*
X151400000Y-83675000D03*
X151400000Y-85575000D03*
%TD*%
D10*
%TO.C,R3*%
X116700000Y-89200000D03*
X115050000Y-89200000D03*
%TD*%
%TO.C,R1*%
X116700000Y-86650000D03*
X115050000Y-86650000D03*
%TD*%
%TO.C,R10*%
X164350000Y-89100000D03*
X162700000Y-89100000D03*
%TD*%
D13*
%TO.C,C13*%
X168900000Y-99300000D03*
X170450000Y-99300000D03*
%TD*%
D11*
%TO.C,R20*%
X172850000Y-99325000D03*
X174500000Y-99325000D03*
%TD*%
D10*
%TO.C,R6*%
X116725000Y-104425000D03*
X115075000Y-104425000D03*
%TD*%
D13*
%TO.C,C14*%
X168825000Y-101850000D03*
X170375000Y-101850000D03*
%TD*%
D16*
%TO.C,C2*%
X131950000Y-93200000D03*
X131950000Y-94750000D03*
%TD*%
D19*
%TO.C,Y1*%
X127275000Y-100300000D03*
X127275000Y-90800000D03*
%TD*%
D13*
%TO.C,C11*%
X168875000Y-94125000D03*
X170425000Y-94125000D03*
%TD*%
D10*
%TO.C,R11*%
X164350000Y-91600000D03*
X162700000Y-91600000D03*
%TD*%
D11*
%TO.C,R18*%
X172825000Y-94175000D03*
X174475000Y-94175000D03*
%TD*%
D20*
%TO.C,IC2*%
X139075000Y-91250000D03*
X139075000Y-92050000D03*
X139075000Y-92850000D03*
X139075000Y-93650000D03*
X139075000Y-94450000D03*
X139075000Y-95250000D03*
X139075000Y-96050000D03*
X139075000Y-96850000D03*
X139075000Y-97650000D03*
X139075000Y-98450000D03*
X139075000Y-99250000D03*
D21*
X140825000Y-101000000D03*
X141625000Y-101000000D03*
X142425000Y-101000000D03*
X143225000Y-101000000D03*
X144025000Y-101000000D03*
X144825000Y-101000000D03*
X145625000Y-101000000D03*
X146425000Y-101000000D03*
X147225000Y-101000000D03*
X148025000Y-101000000D03*
X148825000Y-101000000D03*
D20*
X150575000Y-99250000D03*
X150575000Y-98450000D03*
X150575000Y-97650000D03*
X150575000Y-96850000D03*
X150575000Y-96050000D03*
X150575000Y-95250000D03*
X150575000Y-94450000D03*
X150575000Y-93650000D03*
X150575000Y-92850000D03*
X150575000Y-92050000D03*
X150575000Y-91250000D03*
D21*
X148825000Y-89500000D03*
X148025000Y-89500000D03*
X147225000Y-89500000D03*
X146425000Y-89500000D03*
X145625000Y-89500000D03*
X144825000Y-89500000D03*
X144025000Y-89500000D03*
X143225000Y-89500000D03*
X142425000Y-89500000D03*
X141625000Y-89500000D03*
X140825000Y-89500000D03*
%TD*%
D10*
%TO.C,R4*%
X116675000Y-94275000D03*
X115025000Y-94275000D03*
%TD*%
M02*
