G04 #@! TF.GenerationSoftware,KiCad,Pcbnew,6.0.2+dfsg-1~bpo11+1*
G04 #@! TF.CreationDate,2022-09-15T10:15:18-04:00*
G04 #@! TF.ProjectId,at42qt148_captouch,61743432-7174-4313-9438-5f636170746f,rev?*
G04 #@! TF.SameCoordinates,Original*
G04 #@! TF.FileFunction,Copper,L1,Top*
G04 #@! TF.FilePolarity,Positive*
%FSLAX46Y46*%
G04 Gerber Fmt 4.6, Leading zero omitted, Abs format (unit mm)*
G04 Created by KiCad (PCBNEW 6.0.2+dfsg-1~bpo11+1) date 2022-09-15 10:15:18*
%MOMM*%
%LPD*%
G01*
G04 APERTURE LIST*
G04 Aperture macros list*
%AMRoundRect*
0 Rectangle with rounded corners*
0 $1 Rounding radius*
0 $2 $3 $4 $5 $6 $7 $8 $9 X,Y pos of 4 corners*
0 Add a 4 corners polygon primitive as box body*
4,1,4,$2,$3,$4,$5,$6,$7,$8,$9,$2,$3,0*
0 Add four circle primitives for the rounded corners*
1,1,$1+$1,$2,$3*
1,1,$1+$1,$4,$5*
1,1,$1+$1,$6,$7*
1,1,$1+$1,$8,$9*
0 Add four rect primitives between the rounded corners*
20,1,$1+$1,$2,$3,$4,$5,0*
20,1,$1+$1,$4,$5,$6,$7,0*
20,1,$1+$1,$6,$7,$8,$9,0*
20,1,$1+$1,$8,$9,$2,$3,0*%
G04 Aperture macros list end*
G04 #@! TA.AperFunction,SMDPad,CuDef*
%ADD10RoundRect,0.200000X0.200000X0.275000X-0.200000X0.275000X-0.200000X-0.275000X0.200000X-0.275000X0*%
G04 #@! TD*
G04 #@! TA.AperFunction,SMDPad,CuDef*
%ADD11RoundRect,0.200000X-0.200000X-0.275000X0.200000X-0.275000X0.200000X0.275000X-0.200000X0.275000X0*%
G04 #@! TD*
G04 #@! TA.AperFunction,SMDPad,CuDef*
%ADD12RoundRect,0.225000X0.250000X-0.225000X0.250000X0.225000X-0.250000X0.225000X-0.250000X-0.225000X0*%
G04 #@! TD*
G04 #@! TA.AperFunction,SMDPad,CuDef*
%ADD13RoundRect,0.225000X-0.225000X-0.250000X0.225000X-0.250000X0.225000X0.250000X-0.225000X0.250000X0*%
G04 #@! TD*
G04 #@! TA.AperFunction,SMDPad,CuDef*
%ADD14RoundRect,0.218750X0.218750X0.256250X-0.218750X0.256250X-0.218750X-0.256250X0.218750X-0.256250X0*%
G04 #@! TD*
G04 #@! TA.AperFunction,SMDPad,CuDef*
%ADD15RoundRect,0.225000X0.225000X0.250000X-0.225000X0.250000X-0.225000X-0.250000X0.225000X-0.250000X0*%
G04 #@! TD*
G04 #@! TA.AperFunction,SMDPad,CuDef*
%ADD16RoundRect,0.225000X-0.250000X0.225000X-0.250000X-0.225000X0.250000X-0.225000X0.250000X0.225000X0*%
G04 #@! TD*
G04 #@! TA.AperFunction,ComponentPad*
%ADD17R,1.700000X1.700000*%
G04 #@! TD*
G04 #@! TA.AperFunction,ComponentPad*
%ADD18O,1.700000X1.700000*%
G04 #@! TD*
G04 #@! TA.AperFunction,SMDPad,CuDef*
%ADD19R,1.000000X0.800000*%
G04 #@! TD*
G04 #@! TA.AperFunction,SMDPad,CuDef*
%ADD20R,1.000000X0.600000*%
G04 #@! TD*
G04 #@! TA.AperFunction,SMDPad,CuDef*
%ADD21R,2.000000X5.500000*%
G04 #@! TD*
G04 #@! TA.AperFunction,SMDPad,CuDef*
%ADD22R,1.500000X0.600000*%
G04 #@! TD*
G04 #@! TA.AperFunction,SMDPad,CuDef*
%ADD23R,0.600000X1.500000*%
G04 #@! TD*
G04 #@! TA.AperFunction,ViaPad*
%ADD24C,0.800000*%
G04 #@! TD*
G04 #@! TA.AperFunction,Conductor*
%ADD25C,0.250000*%
G04 #@! TD*
G04 APERTURE END LIST*
D10*
X164200000Y-101875000D03*
X162550000Y-101875000D03*
D11*
X137175000Y-83250000D03*
X138825000Y-83250000D03*
D12*
X147950000Y-85400000D03*
X147950000Y-83850000D03*
D10*
X116700000Y-91700000D03*
X115050000Y-91700000D03*
X116725000Y-101900000D03*
X115075000Y-101900000D03*
X164250000Y-96650000D03*
X162600000Y-96650000D03*
D13*
X168900000Y-91625000D03*
X170450000Y-91625000D03*
D14*
X138787500Y-85175000D03*
X137212500Y-85175000D03*
D10*
X164225000Y-99275000D03*
X162575000Y-99275000D03*
D11*
X172800000Y-91650000D03*
X174450000Y-91650000D03*
D12*
X131950000Y-98025000D03*
X131950000Y-96475000D03*
D15*
X154200000Y-95250000D03*
X152650000Y-95250000D03*
D10*
X164300000Y-94075000D03*
X162650000Y-94075000D03*
X116700000Y-96850000D03*
X115050000Y-96850000D03*
D13*
X168925000Y-89100000D03*
X170475000Y-89100000D03*
X168875000Y-96725000D03*
X170425000Y-96725000D03*
D10*
X116725000Y-99350000D03*
X115075000Y-99350000D03*
D16*
X157250000Y-83600000D03*
X157250000Y-85150000D03*
D13*
X144150000Y-85175000D03*
X145700000Y-85175000D03*
D16*
X136475000Y-93650000D03*
X136475000Y-95200000D03*
D11*
X172875000Y-101825000D03*
X174525000Y-101825000D03*
X172825000Y-96750000D03*
X174475000Y-96750000D03*
D17*
X108700000Y-86645000D03*
D18*
X108700000Y-89185000D03*
X108700000Y-91725000D03*
X108700000Y-94265000D03*
X108700000Y-96805000D03*
X108700000Y-99345000D03*
X108700000Y-101885000D03*
X108700000Y-104425000D03*
D11*
X172800000Y-89125000D03*
X174450000Y-89125000D03*
D13*
X144375000Y-103800000D03*
X145925000Y-103800000D03*
D19*
X153800000Y-85575000D03*
D20*
X153800000Y-84625000D03*
D19*
X153800000Y-83675000D03*
X151400000Y-83675000D03*
X151400000Y-85575000D03*
D10*
X116700000Y-89200000D03*
X115050000Y-89200000D03*
X116700000Y-86650000D03*
X115050000Y-86650000D03*
X164350000Y-89100000D03*
X162700000Y-89100000D03*
D13*
X168900000Y-99300000D03*
X170450000Y-99300000D03*
D17*
X179725000Y-89125000D03*
D18*
X179725000Y-91665000D03*
X179725000Y-94205000D03*
X179725000Y-96745000D03*
X179725000Y-99285000D03*
X179725000Y-101825000D03*
D17*
X168900000Y-106680000D03*
D18*
X166360000Y-106680000D03*
X163820000Y-106680000D03*
X161280000Y-106680000D03*
D17*
X124850000Y-83820000D03*
D18*
X127390000Y-83820000D03*
X129930000Y-83820000D03*
X132470000Y-83820000D03*
D11*
X172850000Y-99325000D03*
X174500000Y-99325000D03*
D10*
X116725000Y-104425000D03*
X115075000Y-104425000D03*
D13*
X168825000Y-101850000D03*
X170375000Y-101850000D03*
D16*
X131950000Y-93200000D03*
X131950000Y-94750000D03*
D21*
X127275000Y-100300000D03*
X127275000Y-90800000D03*
D13*
X168875000Y-94125000D03*
X170425000Y-94125000D03*
D10*
X164350000Y-91600000D03*
X162700000Y-91600000D03*
D11*
X172825000Y-94175000D03*
X174475000Y-94175000D03*
D22*
X139075000Y-91250000D03*
X139075000Y-92050000D03*
X139075000Y-92850000D03*
X139075000Y-93650000D03*
X139075000Y-94450000D03*
X139075000Y-95250000D03*
X139075000Y-96050000D03*
X139075000Y-96850000D03*
X139075000Y-97650000D03*
X139075000Y-98450000D03*
X139075000Y-99250000D03*
D23*
X140825000Y-101000000D03*
X141625000Y-101000000D03*
X142425000Y-101000000D03*
X143225000Y-101000000D03*
X144025000Y-101000000D03*
X144825000Y-101000000D03*
X145625000Y-101000000D03*
X146425000Y-101000000D03*
X147225000Y-101000000D03*
X148025000Y-101000000D03*
X148825000Y-101000000D03*
D22*
X150575000Y-99250000D03*
X150575000Y-98450000D03*
X150575000Y-97650000D03*
X150575000Y-96850000D03*
X150575000Y-96050000D03*
X150575000Y-95250000D03*
X150575000Y-94450000D03*
X150575000Y-93650000D03*
X150575000Y-92850000D03*
X150575000Y-92050000D03*
X150575000Y-91250000D03*
D23*
X148825000Y-89500000D03*
X148025000Y-89500000D03*
X147225000Y-89500000D03*
X146425000Y-89500000D03*
X145625000Y-89500000D03*
X144825000Y-89500000D03*
X144025000Y-89500000D03*
X143225000Y-89500000D03*
X142425000Y-89500000D03*
X141625000Y-89500000D03*
X140825000Y-89500000D03*
D10*
X116675000Y-94275000D03*
X115025000Y-94275000D03*
D24*
X155575489Y-95974511D03*
X153900000Y-96750000D03*
X158437500Y-96962500D03*
X158650000Y-99300000D03*
X158587693Y-100512307D03*
X153275000Y-97950000D03*
X154625000Y-99225000D03*
X153375000Y-99075000D03*
X147975000Y-94300000D03*
X148625000Y-93175000D03*
X143850000Y-87000000D03*
X141075000Y-94150000D03*
X145700000Y-86750000D03*
X176600000Y-87650000D03*
X175050000Y-105625000D03*
X143925000Y-97225000D03*
X145237500Y-99237500D03*
X141875000Y-99150000D03*
X141375000Y-98250000D03*
X141400000Y-97150000D03*
X146650000Y-99125000D03*
X159250000Y-92650000D03*
X159200000Y-94625000D03*
X159325000Y-95950000D03*
X156525000Y-90425000D03*
X154950000Y-90375000D03*
X153750000Y-90375000D03*
X171600000Y-95475000D03*
X171650000Y-92850000D03*
X166400000Y-98250000D03*
X150700000Y-89625000D03*
X159275000Y-97800000D03*
X164200000Y-103425000D03*
X159650000Y-100300000D03*
X171625000Y-90475000D03*
X170450000Y-87250000D03*
X147100000Y-95775000D03*
X148300000Y-96750000D03*
X148550000Y-97950000D03*
X147775000Y-98825000D03*
X144050000Y-96200000D03*
X142325000Y-87700000D03*
X150000000Y-107025000D03*
X156800000Y-105350000D03*
X158525000Y-102275000D03*
X166360000Y-104460000D03*
X141450000Y-103350000D03*
X160675000Y-89100000D03*
X160825000Y-91600000D03*
X160850000Y-94075000D03*
X160975000Y-96650000D03*
X160950000Y-99275000D03*
X160975000Y-101875000D03*
X134750000Y-94275000D03*
X133350000Y-86875000D03*
X129175000Y-85975000D03*
X127975000Y-86025000D03*
X132300000Y-88150000D03*
X146525000Y-83825000D03*
X133325000Y-95900000D03*
D25*
X155575489Y-95974511D02*
X157449511Y-95974511D01*
X157449511Y-95974511D02*
X158437500Y-96962500D01*
X153900000Y-96750000D02*
X156100000Y-96750000D01*
X156100000Y-96750000D02*
X158650000Y-99300000D01*
X153275000Y-97950000D02*
X156025386Y-97950000D01*
X156025386Y-97950000D02*
X158587693Y-100512307D01*
X153375000Y-99075000D02*
X160875000Y-106575000D01*
X160875000Y-106575000D02*
X161400000Y-106575000D01*
X154625000Y-99225000D02*
X156300000Y-100900000D01*
X156300000Y-100900000D02*
X156300000Y-101074614D01*
X150575000Y-95250000D02*
X148925000Y-95250000D01*
X148925000Y-95250000D02*
X147975000Y-94300000D01*
X150575000Y-94450000D02*
X149575000Y-94450000D01*
X148625000Y-93500000D02*
X148625000Y-93175000D01*
X149575000Y-94450000D02*
X148625000Y-93500000D01*
X144375000Y-103800000D02*
X143800000Y-103800000D01*
X143800000Y-103800000D02*
X143525489Y-104074511D01*
X143525489Y-104074511D02*
X140299511Y-104074511D01*
X140299511Y-104074511D02*
X139075000Y-102850000D01*
X139075000Y-102850000D02*
X139075000Y-99300000D01*
X144825000Y-87975000D02*
X143850000Y-87000000D01*
X144025000Y-89500000D02*
X144025000Y-88225000D01*
X142725000Y-86010718D02*
X141889282Y-85175000D01*
X144025000Y-88225000D02*
X142725000Y-86925000D01*
X142725000Y-86925000D02*
X142725000Y-86010718D01*
X141889282Y-85175000D02*
X138787500Y-85175000D01*
X144825000Y-89500000D02*
X144825000Y-87975000D01*
X141075000Y-94150000D02*
X139925000Y-94150000D01*
X139925000Y-94150000D02*
X139475000Y-93700000D01*
X145700000Y-86750000D02*
X145700000Y-89575000D01*
X176600000Y-87650000D02*
X172500000Y-83550000D01*
X172500000Y-83550000D02*
X157250000Y-83550000D01*
X168900000Y-106680000D02*
X173995000Y-106680000D01*
X173995000Y-106680000D02*
X175050000Y-105625000D01*
X142900000Y-99925489D02*
X143225000Y-100250489D01*
X142900000Y-99150386D02*
X142900000Y-99925489D01*
X143225000Y-100250489D02*
X143225000Y-100850000D01*
X141400000Y-97150000D02*
X141975000Y-97150000D01*
X141975000Y-97150000D02*
X143475480Y-98650480D01*
X143475480Y-98650480D02*
X143475480Y-99236198D01*
X143475480Y-99236198D02*
X144025000Y-99785718D01*
X144025000Y-99785718D02*
X144025000Y-100625000D01*
X141375000Y-98250000D02*
X141999614Y-98250000D01*
X141999614Y-98250000D02*
X142900000Y-99150386D01*
X141875000Y-99150000D02*
X142425000Y-99700000D01*
X142425000Y-99700000D02*
X142425000Y-100850000D01*
X143925000Y-97225000D02*
X143925000Y-99050000D01*
X143925000Y-99050000D02*
X144900000Y-100025000D01*
X144900000Y-100025000D02*
X144900000Y-100775000D01*
X144050000Y-96200000D02*
X141050000Y-96200000D01*
X141050000Y-96200000D02*
X140599031Y-96650969D01*
X140599031Y-96650969D02*
X140599031Y-98999031D01*
X140599031Y-98999031D02*
X141675000Y-100075000D01*
X141675000Y-100075000D02*
X141675000Y-100875000D01*
X145625000Y-99625000D02*
X145237500Y-99237500D01*
X145625000Y-101000000D02*
X145625000Y-99625000D01*
X146650000Y-99125000D02*
X146300000Y-99125000D01*
X141625000Y-93500000D02*
X141625000Y-89500000D01*
X146300000Y-99125000D02*
X144825000Y-97650000D01*
X144825000Y-97650000D02*
X144825000Y-95925000D01*
X144150000Y-95250000D02*
X143375000Y-95250000D01*
X143375000Y-95250000D02*
X141625000Y-93500000D01*
X144825000Y-95925000D02*
X144150000Y-95250000D01*
X160700000Y-106650000D02*
X161250000Y-106650000D01*
X156300000Y-101074614D02*
X159425386Y-104200000D01*
X159425386Y-104200000D02*
X161675000Y-104200000D01*
X161675000Y-104200000D02*
X163900000Y-106425000D01*
X159424520Y-95850480D02*
X163575480Y-95850480D01*
X163575480Y-95850480D02*
X164375000Y-96650000D01*
X159325000Y-95950000D02*
X159424520Y-95850480D01*
X159449520Y-94874520D02*
X163500480Y-94874520D01*
X159200000Y-94625000D02*
X159449520Y-94874520D01*
X163500480Y-94874520D02*
X164350000Y-94025000D01*
X159250000Y-92650000D02*
X163550000Y-92650000D01*
X163550000Y-92650000D02*
X164475000Y-91725000D01*
X157249511Y-90725103D02*
X162849897Y-90725103D01*
X150575000Y-93650000D02*
X154324614Y-93650000D01*
X154324614Y-93650000D02*
X157249511Y-90725103D01*
X162849897Y-90725103D02*
X164400000Y-89175000D01*
X153499614Y-92850000D02*
X155924614Y-90425000D01*
X150575000Y-92850000D02*
X153499614Y-92850000D01*
X155924614Y-90425000D02*
X156525000Y-90425000D01*
X150575000Y-92050000D02*
X153275000Y-92050000D01*
X153275000Y-92050000D02*
X154950000Y-90375000D01*
X150575000Y-91250000D02*
X152350000Y-91250000D01*
X152350000Y-91250000D02*
X153225000Y-90375000D01*
X153225000Y-90375000D02*
X153750000Y-90375000D01*
X166400000Y-98250000D02*
X169525000Y-98250000D01*
X169525000Y-98250000D02*
X170500000Y-99225000D01*
X171600000Y-95475000D02*
X172775000Y-96650000D01*
X172775000Y-96650000D02*
X172775000Y-96750000D01*
X171650000Y-92850000D02*
X172925000Y-94125000D01*
X172925000Y-94125000D02*
X172925000Y-94225000D01*
X148825000Y-89500000D02*
X150575000Y-89500000D01*
X150575000Y-89500000D02*
X150700000Y-89625000D01*
X159275000Y-97800000D02*
X162950000Y-97800000D01*
X162950000Y-97800000D02*
X164300000Y-99150000D01*
X159650000Y-100300000D02*
X169125000Y-100300000D01*
X169125000Y-100300000D02*
X170575000Y-101750000D01*
X164200000Y-103425000D02*
X164200000Y-101875000D01*
X171625000Y-90475000D02*
X171525000Y-90475000D01*
X171525000Y-90475000D02*
X170450000Y-91550000D01*
X170450000Y-87250000D02*
X170450000Y-89050000D01*
X170450000Y-89050000D02*
X170500000Y-89100000D01*
X146798217Y-93923218D02*
X146798217Y-95473217D01*
X148025000Y-89500000D02*
X148025000Y-92696435D01*
X148025000Y-92696435D02*
X146798217Y-93923218D01*
X146798217Y-95473217D02*
X147100000Y-95775000D01*
X146575000Y-96750000D02*
X148300000Y-96750000D01*
X147225000Y-92860717D02*
X146173560Y-93912157D01*
X147225000Y-89500000D02*
X147225000Y-92860717D01*
X146173560Y-93912157D02*
X146173560Y-96348560D01*
X146173560Y-96348560D02*
X146575000Y-96750000D01*
X146675000Y-97575000D02*
X148175000Y-97575000D01*
X148175000Y-97575000D02*
X148550000Y-97950000D01*
X146425000Y-89500000D02*
X146425000Y-93025000D01*
X146425000Y-93025000D02*
X145724040Y-93725960D01*
X145724040Y-93725960D02*
X145724040Y-96624040D01*
X145724040Y-96624040D02*
X146675000Y-97575000D01*
X143225000Y-89500000D02*
X143225000Y-94464282D01*
X143225000Y-94464282D02*
X143560718Y-94800000D01*
X145274520Y-95738803D02*
X145274520Y-97425000D01*
X143560718Y-94800000D02*
X144335717Y-94800000D01*
X145274520Y-97425000D02*
X146049520Y-98200000D01*
X144335717Y-94800000D02*
X145274520Y-95738803D01*
X146049520Y-98200000D02*
X147550000Y-98200000D01*
X147550000Y-98200000D02*
X147775000Y-98425000D01*
X147775000Y-98425000D02*
X147775000Y-98825000D01*
X142425000Y-89500000D02*
X142425000Y-87800000D01*
X142425000Y-87800000D02*
X142325000Y-87700000D01*
X155125000Y-107025000D02*
X150000000Y-107025000D01*
X156800000Y-105350000D02*
X155125000Y-107025000D01*
X158925000Y-101875000D02*
X158525000Y-102275000D01*
X160975000Y-101875000D02*
X158925000Y-101875000D01*
X166360000Y-106680000D02*
X166360000Y-104460000D01*
X140825000Y-102725000D02*
X141450000Y-103350000D01*
X140825000Y-101000000D02*
X140825000Y-102725000D01*
X140149511Y-94625489D02*
X139974022Y-94450000D01*
X140149511Y-97575489D02*
X140149511Y-94625489D01*
X140075000Y-97650000D02*
X140149511Y-97575489D01*
X138175978Y-97650000D02*
X140075000Y-97650000D01*
X139974022Y-94450000D02*
X139125000Y-94450000D01*
X138000489Y-97825489D02*
X138175978Y-97650000D01*
X138000489Y-99175489D02*
X138000489Y-97825489D01*
X138075000Y-99250000D02*
X138000489Y-99175489D01*
X139075000Y-99250000D02*
X138075000Y-99250000D01*
X152548551Y-97924529D02*
X151524022Y-96900000D01*
X152548551Y-102926473D02*
X152548551Y-97924529D01*
X116725000Y-104425000D02*
X119374974Y-104425000D01*
X147626464Y-107848560D02*
X152548551Y-102926473D01*
X119374974Y-104425000D02*
X122798536Y-107848560D01*
X122798536Y-107848560D02*
X147626464Y-107848560D01*
X151524022Y-96900000D02*
X150275000Y-96900000D01*
X116725000Y-101900000D02*
X117485692Y-101900000D01*
X147440266Y-107399040D02*
X152099031Y-102740275D01*
X117485692Y-101900000D02*
X122984733Y-107399040D01*
X122984733Y-107399040D02*
X147440266Y-107399040D01*
X152099031Y-102740275D02*
X152099031Y-98424520D01*
X152099031Y-98424520D02*
X151324511Y-97650000D01*
X151324511Y-97650000D02*
X150600000Y-97650000D01*
X116725000Y-99350000D02*
X117875000Y-99350000D01*
X147254069Y-106949520D02*
X151649511Y-102554078D01*
X117875000Y-99350000D02*
X121102400Y-102577400D01*
X121102400Y-104880990D02*
X123170930Y-106949520D01*
X121102400Y-102577400D02*
X121102400Y-104880990D01*
X123170930Y-106949520D02*
X147254069Y-106949520D01*
X151649511Y-102554078D02*
X151649511Y-98625489D01*
X151649511Y-98625489D02*
X151449022Y-98425000D01*
X151449022Y-98425000D02*
X150525000Y-98425000D01*
X150175000Y-103392871D02*
X150175000Y-99400000D01*
X147067871Y-106500000D02*
X150175000Y-103392871D01*
X123357128Y-106500000D02*
X147067871Y-106500000D01*
X116700000Y-96850000D02*
X121551920Y-101701920D01*
X121551920Y-101701920D02*
X121551920Y-104694792D01*
X121551920Y-104694792D02*
X123357128Y-106500000D01*
X148800000Y-104132153D02*
X148800000Y-100975000D01*
X120625000Y-94275000D02*
X122001440Y-95651440D01*
X116675000Y-94275000D02*
X120625000Y-94275000D01*
X122001440Y-95651440D02*
X122001440Y-104508594D01*
X146983593Y-105948560D02*
X148800000Y-104132153D01*
X122001440Y-104508594D02*
X123441406Y-105948560D01*
X123441406Y-105948560D02*
X146983593Y-105948560D01*
X121125960Y-91700000D02*
X116700000Y-91700000D01*
X122450960Y-104322395D02*
X122450960Y-93025000D01*
X148025000Y-104271436D02*
X146797395Y-105499040D01*
X148025000Y-101000000D02*
X148025000Y-104271436D01*
X123627604Y-105499040D02*
X122450960Y-104322395D01*
X146797395Y-105499040D02*
X123627604Y-105499040D01*
X122450960Y-93025000D02*
X121125960Y-91700000D01*
X147225000Y-104435718D02*
X147225000Y-101025000D01*
X120975000Y-89200000D02*
X122900480Y-91125480D01*
X116700000Y-89200000D02*
X120975000Y-89200000D01*
X122900480Y-104136198D02*
X123813802Y-105049520D01*
X122900480Y-91125480D02*
X122900480Y-104136198D01*
X123813802Y-105049520D02*
X146611198Y-105049520D01*
X146611198Y-105049520D02*
X147225000Y-104435718D01*
X122125000Y-86650000D02*
X116725000Y-86650000D01*
X123350000Y-103950000D02*
X123350000Y-87875000D01*
X124000000Y-104600000D02*
X146425000Y-104600000D01*
X124000000Y-104600000D02*
X123350000Y-103950000D01*
X123350000Y-87875000D02*
X122125000Y-86650000D01*
X146425000Y-101000000D02*
X146425000Y-103047862D01*
X146425000Y-103047862D02*
X146775000Y-103397862D01*
X146775000Y-103397862D02*
X146775000Y-104250000D01*
X146775000Y-104250000D02*
X146425000Y-104600000D01*
X153400000Y-94450000D02*
X150525000Y-94450000D01*
X154200000Y-95250000D02*
X153400000Y-94450000D01*
X153400480Y-96049520D02*
X150599520Y-96049520D01*
X154200000Y-95250000D02*
X153400480Y-96049520D01*
X152650000Y-95250000D02*
X150525000Y-95250000D01*
X162550000Y-101875000D02*
X160975000Y-101875000D01*
X162575000Y-99275000D02*
X160950000Y-99275000D01*
X162600000Y-96650000D02*
X160975000Y-96650000D01*
X162650000Y-94075000D02*
X160850000Y-94075000D01*
X162700000Y-91600000D02*
X160825000Y-91600000D01*
X162700000Y-89100000D02*
X160675000Y-89100000D01*
X164200000Y-101875000D02*
X168850000Y-101875000D01*
X164225000Y-99275000D02*
X168875000Y-99275000D01*
X164250000Y-96650000D02*
X168825000Y-96650000D01*
X164300000Y-94075000D02*
X168875000Y-94075000D01*
X164350000Y-91600000D02*
X168850000Y-91600000D01*
X164350000Y-89100000D02*
X168925000Y-89100000D01*
X174525000Y-101825000D02*
X179675000Y-101825000D01*
X170375000Y-101850000D02*
X172825000Y-101850000D01*
X170450000Y-99300000D02*
X172900000Y-99300000D01*
X174500000Y-99325000D02*
X179525000Y-99325000D01*
X174475000Y-96750000D02*
X179675000Y-96750000D01*
X170425000Y-96725000D02*
X172825000Y-96725000D01*
X170425000Y-94125000D02*
X172825000Y-94125000D01*
X174475000Y-94175000D02*
X179650000Y-94175000D01*
X174450000Y-91650000D02*
X179825000Y-91650000D01*
X170450000Y-91625000D02*
X172775000Y-91625000D01*
X172800000Y-89125000D02*
X170425000Y-89125000D01*
X174450000Y-89125000D02*
X179825000Y-89125000D01*
X144800000Y-103375000D02*
X144800000Y-100825000D01*
X144375000Y-103800000D02*
X144800000Y-103375000D01*
X145600000Y-103475000D02*
X145600000Y-100975000D01*
X145925000Y-103800000D02*
X145600000Y-103475000D01*
X135675000Y-95200000D02*
X134750000Y-94275000D01*
X136475000Y-95200000D02*
X135675000Y-95200000D01*
X139075000Y-94450000D02*
X139075000Y-93725000D01*
X137950000Y-94500000D02*
X138925000Y-94500000D01*
X137100000Y-93650000D02*
X137950000Y-94500000D01*
X136475000Y-93650000D02*
X139125000Y-93650000D01*
X133535717Y-86875000D02*
X133350000Y-86875000D01*
X133535717Y-86875000D02*
X137910718Y-91250000D01*
X137910718Y-91250000D02*
X139075000Y-91250000D01*
X128400489Y-86749511D02*
X129175000Y-85975000D01*
X124875000Y-85475000D02*
X126149511Y-86749511D01*
X126149511Y-86749511D02*
X128400489Y-86749511D01*
X127390000Y-85440000D02*
X127975000Y-86025000D01*
X127390000Y-83820000D02*
X127390000Y-85440000D01*
X135325000Y-89300000D02*
X133075000Y-89300000D01*
X135325000Y-89300000D02*
X138075000Y-92050000D01*
X139075000Y-92050000D02*
X138075000Y-92050000D01*
X133075000Y-89300000D02*
X132300000Y-88525000D01*
X132300000Y-88525000D02*
X132300000Y-88150000D01*
X129950000Y-87400000D02*
X129950000Y-83900000D01*
X132650000Y-90100000D02*
X135325000Y-90100000D01*
X135325000Y-90100000D02*
X138075000Y-92850000D01*
X132650000Y-90100000D02*
X129950000Y-87400000D01*
X139075000Y-92850000D02*
X138075000Y-92850000D01*
X124875000Y-85475000D02*
X124875000Y-83750000D01*
X134750000Y-86175000D02*
X132500000Y-83925000D01*
X140825000Y-88150000D02*
X138850000Y-86175000D01*
X140825000Y-89500000D02*
X140825000Y-88150000D01*
X138850000Y-86175000D02*
X134750000Y-86175000D01*
X137250000Y-83325000D02*
X137250000Y-85175000D01*
X137175000Y-83250000D02*
X137250000Y-83325000D01*
X140600000Y-83250000D02*
X138900000Y-83250000D01*
X140600000Y-83250000D02*
X143324520Y-85974520D01*
X144900480Y-85974520D02*
X143324520Y-85974520D01*
X145700000Y-85175000D02*
X144900480Y-85974520D01*
X146525000Y-83825000D02*
X147875000Y-83825000D01*
X145500000Y-83825000D02*
X146525000Y-83825000D01*
X144150000Y-85175000D02*
X145500000Y-83825000D01*
X158050000Y-84425000D02*
X157225000Y-83600000D01*
X153800000Y-85575000D02*
X154149520Y-85924520D01*
X157727618Y-85924520D02*
X158050000Y-85602138D01*
X154149520Y-85924520D02*
X157727618Y-85924520D01*
X158050000Y-85602138D02*
X158050000Y-84425000D01*
X156775000Y-84625000D02*
X157275000Y-85125000D01*
X153800000Y-84625000D02*
X156775000Y-84625000D01*
X157250000Y-83600000D02*
X153875000Y-83600000D01*
X148750000Y-84625000D02*
X147975000Y-83850000D01*
X153800000Y-84625000D02*
X148750000Y-84625000D01*
X147950000Y-85400000D02*
X151200000Y-85400000D01*
X145700000Y-85175000D02*
X147700000Y-85175000D01*
X145700000Y-85175000D02*
X145700000Y-86750000D01*
X136475000Y-95200000D02*
X138925000Y-95200000D01*
X131950000Y-94750000D02*
X132175000Y-94750000D01*
X132175000Y-94750000D02*
X133325000Y-95900000D01*
X132750000Y-96475000D02*
X133325000Y-95900000D01*
X132725000Y-96475000D02*
X132750000Y-96475000D01*
X131950000Y-96475000D02*
X132725000Y-96475000D01*
X134825000Y-96075000D02*
X138950000Y-96075000D01*
X131950000Y-93200000D02*
X134825000Y-96075000D01*
X133025000Y-96900000D02*
X139100000Y-96900000D01*
X129625000Y-100300000D02*
X131950000Y-97975000D01*
X127275000Y-100300000D02*
X129625000Y-100300000D01*
X131950000Y-97975000D02*
X133025000Y-96900000D01*
X129575000Y-90800000D02*
X131900000Y-93125000D01*
X127275000Y-90800000D02*
X129575000Y-90800000D01*
X115075000Y-104425000D02*
X108725000Y-104425000D01*
X115075000Y-101900000D02*
X108750000Y-101900000D01*
X115075000Y-99350000D02*
X108775000Y-99350000D01*
X108775000Y-99350000D02*
X108750000Y-99375000D01*
X115050000Y-96850000D02*
X108750000Y-96850000D01*
X108750000Y-96850000D02*
X108725000Y-96825000D01*
X115025000Y-94275000D02*
X108850000Y-94275000D01*
X108850000Y-94275000D02*
X108825000Y-94250000D01*
X115050000Y-91700000D02*
X108875000Y-91700000D01*
X108875000Y-91700000D02*
X108850000Y-91675000D01*
X115050000Y-89200000D02*
X108900000Y-89200000D01*
X108900000Y-89200000D02*
X108850000Y-89250000D01*
X115050000Y-86650000D02*
X108725000Y-86650000D01*
M02*
