G04 #@! TF.GenerationSoftware,KiCad,Pcbnew,6.0.8+dfsg-1~bpo11+1*
G04 #@! TF.CreationDate,2023-08-01T09:03:40-04:00*
G04 #@! TF.ProjectId,fpc_1x16_conn_breakout,6670635f-3178-4313-965f-636f6e6e5f62,rev?*
G04 #@! TF.SameCoordinates,Original*
G04 #@! TF.FileFunction,Legend,Top*
G04 #@! TF.FilePolarity,Positive*
%FSLAX46Y46*%
G04 Gerber Fmt 4.6, Leading zero omitted, Abs format (unit mm)*
G04 Created by KiCad (PCBNEW 6.0.8+dfsg-1~bpo11+1) date 2023-08-01 09:03:40*
%MOMM*%
%LPD*%
G01*
G04 APERTURE LIST*
%ADD10C,0.200000*%
%ADD11C,0.100000*%
%ADD12C,0.120000*%
%ADD13R,1.600000X0.400000*%
%ADD14R,2.900000X1.400000*%
%ADD15R,1.700000X1.700000*%
%ADD16O,1.700000X1.700000*%
G04 APERTURE END LIST*
D10*
X175320000Y-92800000D02*
X175320000Y-92800000D01*
D11*
X173920000Y-95750000D02*
X171520000Y-95750000D01*
X173920000Y-95750000D02*
X173920000Y-95750000D01*
X173920000Y-82050000D02*
X173920000Y-82050000D01*
X171520000Y-95750000D02*
X173920000Y-95750000D01*
D10*
X175320000Y-92800000D02*
X175320000Y-92800000D01*
D11*
X173920000Y-82050000D02*
X171470000Y-82050000D01*
X171520000Y-95750000D02*
X171520000Y-95750000D01*
X171470000Y-82050000D02*
X171470000Y-82050000D01*
X171470000Y-82050000D02*
X173920000Y-82050000D01*
D10*
X175320000Y-92700000D02*
X175320000Y-92700000D01*
X175320000Y-92700000D02*
G75*
G03*
X175320000Y-92800000I0J-50000D01*
G01*
X175320000Y-92800000D02*
G75*
G03*
X175320000Y-92700000I0J50000D01*
G01*
X175320000Y-92800000D02*
G75*
G03*
X175320000Y-92700000I0J50000D01*
G01*
D12*
X166430000Y-95250000D02*
X163770000Y-95250000D01*
X166430000Y-77410000D02*
X163770000Y-77410000D01*
X166430000Y-95250000D02*
X166430000Y-77410000D01*
X166430000Y-96520000D02*
X166430000Y-97850000D01*
X163770000Y-95250000D02*
X163770000Y-77410000D01*
X166430000Y-97850000D02*
X165100000Y-97850000D01*
X181670000Y-95250000D02*
X179010000Y-95250000D01*
X181670000Y-77410000D02*
X179010000Y-77410000D01*
X181670000Y-95250000D02*
X181670000Y-77410000D01*
X181670000Y-96520000D02*
X181670000Y-97850000D01*
X179010000Y-95250000D02*
X179010000Y-77410000D01*
X181670000Y-97850000D02*
X180340000Y-97850000D01*
%LPC*%
D13*
X173920000Y-92650000D03*
X171520000Y-92150000D03*
X173920000Y-91650000D03*
X171520000Y-91150000D03*
X173920000Y-90650000D03*
X171520000Y-90150000D03*
X173920000Y-89650000D03*
X171520000Y-89150000D03*
X173920000Y-88650000D03*
X171520000Y-88150000D03*
X173920000Y-87650000D03*
X171520000Y-87150000D03*
X173920000Y-86650000D03*
X171520000Y-86150000D03*
X173920000Y-85650000D03*
X171520000Y-85150000D03*
D14*
X172720000Y-94350000D03*
X172720000Y-83450000D03*
D15*
X165100000Y-96520000D03*
D16*
X165100000Y-93980000D03*
X165100000Y-91440000D03*
X165100000Y-88900000D03*
X165100000Y-86360000D03*
X165100000Y-83820000D03*
X165100000Y-81280000D03*
X165100000Y-78740000D03*
D15*
X180340000Y-96520000D03*
D16*
X180340000Y-93980000D03*
X180340000Y-91440000D03*
X180340000Y-88900000D03*
X180340000Y-86360000D03*
X180340000Y-83820000D03*
X180340000Y-81280000D03*
X180340000Y-78740000D03*
M02*
