%TF.GenerationSoftware,KiCad,Pcbnew,6.0.8+dfsg-1~bpo11+1*%
%TF.CreationDate,2023-08-01T09:03:51-04:00*%
%TF.ProjectId,fpc_1x16_conn_breakout,6670635f-3178-4313-965f-636f6e6e5f62,rev?*%
%TF.SameCoordinates,Original*%
%TF.FileFunction,Drillmap*%
%TF.FilePolarity,Positive*%
%FSLAX45Y45*%
G04 Gerber Fmt 4.5, Leading zero omitted, Abs format (unit mm)*
G04 Created by KiCad (PCBNEW 6.0.8+dfsg-1~bpo11+1) date 2023-08-01 09:03:51*
%MOMM*%
%LPD*%
G01*
G04 APERTURE LIST*
%ADD10C,0.100000*%
%ADD11C,0.200000*%
G04 APERTURE END LIST*
D10*
X16282500Y-9870000D02*
X18252500Y-9870000D01*
X18252500Y-9870000D02*
X18252500Y-7667500D01*
X18252500Y-7667500D02*
X16282500Y-7667500D01*
X16282500Y-7667500D02*
X16282500Y-9870000D01*
D11*
D10*
X16460000Y-7824000D02*
X16560000Y-7924000D01*
X16560000Y-7824000D02*
X16460000Y-7924000D01*
X16460000Y-8078000D02*
X16560000Y-8178000D01*
X16560000Y-8078000D02*
X16460000Y-8178000D01*
X16460000Y-8332000D02*
X16560000Y-8432000D01*
X16560000Y-8332000D02*
X16460000Y-8432000D01*
X16460000Y-8586000D02*
X16560000Y-8686000D01*
X16560000Y-8586000D02*
X16460000Y-8686000D01*
X16460000Y-8840000D02*
X16560000Y-8940000D01*
X16560000Y-8840000D02*
X16460000Y-8940000D01*
X16460000Y-9094000D02*
X16560000Y-9194000D01*
X16560000Y-9094000D02*
X16460000Y-9194000D01*
X16460000Y-9348000D02*
X16560000Y-9448000D01*
X16560000Y-9348000D02*
X16460000Y-9448000D01*
X16460000Y-9602000D02*
X16560000Y-9702000D01*
X16560000Y-9602000D02*
X16460000Y-9702000D01*
X17984000Y-7824000D02*
X18084000Y-7924000D01*
X18084000Y-7824000D02*
X17984000Y-7924000D01*
X17984000Y-8078000D02*
X18084000Y-8178000D01*
X18084000Y-8078000D02*
X17984000Y-8178000D01*
X17984000Y-8332000D02*
X18084000Y-8432000D01*
X18084000Y-8332000D02*
X17984000Y-8432000D01*
X17984000Y-8586000D02*
X18084000Y-8686000D01*
X18084000Y-8586000D02*
X17984000Y-8686000D01*
X17984000Y-8840000D02*
X18084000Y-8940000D01*
X18084000Y-8840000D02*
X17984000Y-8940000D01*
X17984000Y-9094000D02*
X18084000Y-9194000D01*
X18084000Y-9094000D02*
X17984000Y-9194000D01*
X17984000Y-9348000D02*
X18084000Y-9448000D01*
X18084000Y-9348000D02*
X17984000Y-9448000D01*
X17984000Y-9602000D02*
X18084000Y-9702000D01*
X18084000Y-9602000D02*
X17984000Y-9702000D01*
D11*
X16535119Y-10185476D02*
X16535119Y-9985476D01*
X16582738Y-9985476D01*
X16611309Y-9995000D01*
X16630357Y-10014048D01*
X16639881Y-10033095D01*
X16649405Y-10071190D01*
X16649405Y-10099762D01*
X16639881Y-10137857D01*
X16630357Y-10156905D01*
X16611309Y-10175952D01*
X16582738Y-10185476D01*
X16535119Y-10185476D01*
X16735119Y-10185476D02*
X16735119Y-10052143D01*
X16735119Y-10090238D02*
X16744643Y-10071190D01*
X16754167Y-10061667D01*
X16773214Y-10052143D01*
X16792262Y-10052143D01*
X16858929Y-10185476D02*
X16858929Y-10052143D01*
X16858929Y-9985476D02*
X16849405Y-9995000D01*
X16858929Y-10004524D01*
X16868452Y-9995000D01*
X16858929Y-9985476D01*
X16858929Y-10004524D01*
X16982738Y-10185476D02*
X16963690Y-10175952D01*
X16954167Y-10156905D01*
X16954167Y-9985476D01*
X17087500Y-10185476D02*
X17068452Y-10175952D01*
X17058929Y-10156905D01*
X17058929Y-9985476D01*
X17316071Y-10185476D02*
X17316071Y-9985476D01*
X17382738Y-10128333D01*
X17449405Y-9985476D01*
X17449405Y-10185476D01*
X17630357Y-10185476D02*
X17630357Y-10080714D01*
X17620833Y-10061667D01*
X17601786Y-10052143D01*
X17563690Y-10052143D01*
X17544643Y-10061667D01*
X17630357Y-10175952D02*
X17611310Y-10185476D01*
X17563690Y-10185476D01*
X17544643Y-10175952D01*
X17535119Y-10156905D01*
X17535119Y-10137857D01*
X17544643Y-10118810D01*
X17563690Y-10109286D01*
X17611310Y-10109286D01*
X17630357Y-10099762D01*
X17725595Y-10052143D02*
X17725595Y-10252143D01*
X17725595Y-10061667D02*
X17744643Y-10052143D01*
X17782738Y-10052143D01*
X17801786Y-10061667D01*
X17811310Y-10071190D01*
X17820833Y-10090238D01*
X17820833Y-10147381D01*
X17811310Y-10166429D01*
X17801786Y-10175952D01*
X17782738Y-10185476D01*
X17744643Y-10185476D01*
X17725595Y-10175952D01*
X17906548Y-10166429D02*
X17916071Y-10175952D01*
X17906548Y-10185476D01*
X17897024Y-10175952D01*
X17906548Y-10166429D01*
X17906548Y-10185476D01*
X17906548Y-10061667D02*
X17916071Y-10071190D01*
X17906548Y-10080714D01*
X17897024Y-10071190D01*
X17906548Y-10061667D01*
X17906548Y-10080714D01*
D10*
X16177500Y-10465000D02*
X16277500Y-10565000D01*
X16277500Y-10465000D02*
X16177500Y-10565000D01*
D11*
X16639881Y-10605476D02*
X16525595Y-10605476D01*
X16582738Y-10605476D02*
X16582738Y-10405476D01*
X16563690Y-10434048D01*
X16544643Y-10453095D01*
X16525595Y-10462619D01*
X16725595Y-10586429D02*
X16735119Y-10595952D01*
X16725595Y-10605476D01*
X16716071Y-10595952D01*
X16725595Y-10586429D01*
X16725595Y-10605476D01*
X16858929Y-10405476D02*
X16877976Y-10405476D01*
X16897024Y-10415000D01*
X16906548Y-10424524D01*
X16916071Y-10443571D01*
X16925595Y-10481667D01*
X16925595Y-10529286D01*
X16916071Y-10567381D01*
X16906548Y-10586429D01*
X16897024Y-10595952D01*
X16877976Y-10605476D01*
X16858929Y-10605476D01*
X16839881Y-10595952D01*
X16830357Y-10586429D01*
X16820833Y-10567381D01*
X16811310Y-10529286D01*
X16811310Y-10481667D01*
X16820833Y-10443571D01*
X16830357Y-10424524D01*
X16839881Y-10415000D01*
X16858929Y-10405476D01*
X17049405Y-10405476D02*
X17068452Y-10405476D01*
X17087500Y-10415000D01*
X17097024Y-10424524D01*
X17106548Y-10443571D01*
X17116071Y-10481667D01*
X17116071Y-10529286D01*
X17106548Y-10567381D01*
X17097024Y-10586429D01*
X17087500Y-10595952D01*
X17068452Y-10605476D01*
X17049405Y-10605476D01*
X17030357Y-10595952D01*
X17020833Y-10586429D01*
X17011310Y-10567381D01*
X17001786Y-10529286D01*
X17001786Y-10481667D01*
X17011310Y-10443571D01*
X17020833Y-10424524D01*
X17030357Y-10415000D01*
X17049405Y-10405476D01*
X17239881Y-10405476D02*
X17258929Y-10405476D01*
X17277976Y-10415000D01*
X17287500Y-10424524D01*
X17297024Y-10443571D01*
X17306548Y-10481667D01*
X17306548Y-10529286D01*
X17297024Y-10567381D01*
X17287500Y-10586429D01*
X17277976Y-10595952D01*
X17258929Y-10605476D01*
X17239881Y-10605476D01*
X17220833Y-10595952D01*
X17211310Y-10586429D01*
X17201786Y-10567381D01*
X17192262Y-10529286D01*
X17192262Y-10481667D01*
X17201786Y-10443571D01*
X17211310Y-10424524D01*
X17220833Y-10415000D01*
X17239881Y-10405476D01*
X17392262Y-10605476D02*
X17392262Y-10472143D01*
X17392262Y-10491190D02*
X17401786Y-10481667D01*
X17420833Y-10472143D01*
X17449405Y-10472143D01*
X17468452Y-10481667D01*
X17477976Y-10500714D01*
X17477976Y-10605476D01*
X17477976Y-10500714D02*
X17487500Y-10481667D01*
X17506548Y-10472143D01*
X17535119Y-10472143D01*
X17554167Y-10481667D01*
X17563690Y-10500714D01*
X17563690Y-10605476D01*
X17658929Y-10605476D02*
X17658929Y-10472143D01*
X17658929Y-10491190D02*
X17668452Y-10481667D01*
X17687500Y-10472143D01*
X17716071Y-10472143D01*
X17735119Y-10481667D01*
X17744643Y-10500714D01*
X17744643Y-10605476D01*
X17744643Y-10500714D02*
X17754167Y-10481667D01*
X17773214Y-10472143D01*
X17801786Y-10472143D01*
X17820833Y-10481667D01*
X17830357Y-10500714D01*
X17830357Y-10605476D01*
X18220833Y-10395952D02*
X18049405Y-10653095D01*
X18477976Y-10405476D02*
X18497024Y-10405476D01*
X18516071Y-10415000D01*
X18525595Y-10424524D01*
X18535119Y-10443571D01*
X18544643Y-10481667D01*
X18544643Y-10529286D01*
X18535119Y-10567381D01*
X18525595Y-10586429D01*
X18516071Y-10595952D01*
X18497024Y-10605476D01*
X18477976Y-10605476D01*
X18458929Y-10595952D01*
X18449405Y-10586429D01*
X18439881Y-10567381D01*
X18430357Y-10529286D01*
X18430357Y-10481667D01*
X18439881Y-10443571D01*
X18449405Y-10424524D01*
X18458929Y-10415000D01*
X18477976Y-10405476D01*
X18630357Y-10586429D02*
X18639881Y-10595952D01*
X18630357Y-10605476D01*
X18620833Y-10595952D01*
X18630357Y-10586429D01*
X18630357Y-10605476D01*
X18763690Y-10405476D02*
X18782738Y-10405476D01*
X18801786Y-10415000D01*
X18811310Y-10424524D01*
X18820833Y-10443571D01*
X18830357Y-10481667D01*
X18830357Y-10529286D01*
X18820833Y-10567381D01*
X18811310Y-10586429D01*
X18801786Y-10595952D01*
X18782738Y-10605476D01*
X18763690Y-10605476D01*
X18744643Y-10595952D01*
X18735119Y-10586429D01*
X18725595Y-10567381D01*
X18716071Y-10529286D01*
X18716071Y-10481667D01*
X18725595Y-10443571D01*
X18735119Y-10424524D01*
X18744643Y-10415000D01*
X18763690Y-10405476D01*
X18897024Y-10405476D02*
X19020833Y-10405476D01*
X18954167Y-10481667D01*
X18982738Y-10481667D01*
X19001786Y-10491190D01*
X19011310Y-10500714D01*
X19020833Y-10519762D01*
X19020833Y-10567381D01*
X19011310Y-10586429D01*
X19001786Y-10595952D01*
X18982738Y-10605476D01*
X18925595Y-10605476D01*
X18906548Y-10595952D01*
X18897024Y-10586429D01*
X19116071Y-10605476D02*
X19154167Y-10605476D01*
X19173214Y-10595952D01*
X19182738Y-10586429D01*
X19201786Y-10557857D01*
X19211310Y-10519762D01*
X19211310Y-10443571D01*
X19201786Y-10424524D01*
X19192262Y-10415000D01*
X19173214Y-10405476D01*
X19135119Y-10405476D01*
X19116071Y-10415000D01*
X19106548Y-10424524D01*
X19097024Y-10443571D01*
X19097024Y-10491190D01*
X19106548Y-10510238D01*
X19116071Y-10519762D01*
X19135119Y-10529286D01*
X19173214Y-10529286D01*
X19192262Y-10519762D01*
X19201786Y-10510238D01*
X19211310Y-10491190D01*
X19382738Y-10472143D02*
X19382738Y-10605476D01*
X19335119Y-10395952D02*
X19287500Y-10538810D01*
X19411310Y-10538810D01*
X19477976Y-10405476D02*
X19477976Y-10443571D01*
X19554167Y-10405476D02*
X19554167Y-10443571D01*
X19849405Y-10681667D02*
X19839881Y-10672143D01*
X19820833Y-10643571D01*
X19811310Y-10624524D01*
X19801786Y-10595952D01*
X19792262Y-10548333D01*
X19792262Y-10510238D01*
X19801786Y-10462619D01*
X19811310Y-10434048D01*
X19820833Y-10415000D01*
X19839881Y-10386429D01*
X19849405Y-10376905D01*
X20030357Y-10605476D02*
X19916071Y-10605476D01*
X19973214Y-10605476D02*
X19973214Y-10405476D01*
X19954167Y-10434048D01*
X19935119Y-10453095D01*
X19916071Y-10462619D01*
X20201786Y-10405476D02*
X20163690Y-10405476D01*
X20144643Y-10415000D01*
X20135119Y-10424524D01*
X20116071Y-10453095D01*
X20106548Y-10491190D01*
X20106548Y-10567381D01*
X20116071Y-10586429D01*
X20125595Y-10595952D01*
X20144643Y-10605476D01*
X20182738Y-10605476D01*
X20201786Y-10595952D01*
X20211310Y-10586429D01*
X20220833Y-10567381D01*
X20220833Y-10519762D01*
X20211310Y-10500714D01*
X20201786Y-10491190D01*
X20182738Y-10481667D01*
X20144643Y-10481667D01*
X20125595Y-10491190D01*
X20116071Y-10500714D01*
X20106548Y-10519762D01*
X20458929Y-10605476D02*
X20458929Y-10405476D01*
X20544643Y-10605476D02*
X20544643Y-10500714D01*
X20535119Y-10481667D01*
X20516071Y-10472143D01*
X20487500Y-10472143D01*
X20468452Y-10481667D01*
X20458929Y-10491190D01*
X20668452Y-10605476D02*
X20649405Y-10595952D01*
X20639881Y-10586429D01*
X20630357Y-10567381D01*
X20630357Y-10510238D01*
X20639881Y-10491190D01*
X20649405Y-10481667D01*
X20668452Y-10472143D01*
X20697024Y-10472143D01*
X20716071Y-10481667D01*
X20725595Y-10491190D01*
X20735119Y-10510238D01*
X20735119Y-10567381D01*
X20725595Y-10586429D01*
X20716071Y-10595952D01*
X20697024Y-10605476D01*
X20668452Y-10605476D01*
X20849405Y-10605476D02*
X20830357Y-10595952D01*
X20820833Y-10576905D01*
X20820833Y-10405476D01*
X21001786Y-10595952D02*
X20982738Y-10605476D01*
X20944643Y-10605476D01*
X20925595Y-10595952D01*
X20916071Y-10576905D01*
X20916071Y-10500714D01*
X20925595Y-10481667D01*
X20944643Y-10472143D01*
X20982738Y-10472143D01*
X21001786Y-10481667D01*
X21011310Y-10500714D01*
X21011310Y-10519762D01*
X20916071Y-10538810D01*
X21087500Y-10595952D02*
X21106548Y-10605476D01*
X21144643Y-10605476D01*
X21163690Y-10595952D01*
X21173214Y-10576905D01*
X21173214Y-10567381D01*
X21163690Y-10548333D01*
X21144643Y-10538810D01*
X21116071Y-10538810D01*
X21097024Y-10529286D01*
X21087500Y-10510238D01*
X21087500Y-10500714D01*
X21097024Y-10481667D01*
X21116071Y-10472143D01*
X21144643Y-10472143D01*
X21163690Y-10481667D01*
X21239881Y-10681667D02*
X21249405Y-10672143D01*
X21268452Y-10643571D01*
X21277976Y-10624524D01*
X21287500Y-10595952D01*
X21297024Y-10548333D01*
X21297024Y-10510238D01*
X21287500Y-10462619D01*
X21277976Y-10434048D01*
X21268452Y-10415000D01*
X21249405Y-10386429D01*
X21239881Y-10376905D01*
M02*
