M48
; DRILL file {KiCad 6.0.8+dfsg-1~bpo11+1} date Tue 01 Aug 2023 08:48:20 AM EDT
; FORMAT={-:-/ absolute / metric / decimal}
; #@! TF.CreationDate,2023-08-01T08:48:20-04:00
; #@! TF.GenerationSoftware,Kicad,Pcbnew,6.0.8+dfsg-1~bpo11+1
; #@! TF.FileFunction,Plated,1,2,PTH
FMAT,2
METRIC
; #@! TA.AperFunction,Plated,PTH,ViaDrill
T1C0.400
%
G90
G05
T1
X48.8Y-77.4
X51.1Y-77.8
X51.2Y-76.6
X53.5Y-78.2
X54.7Y-109.3
X56.6Y-94.1
X57.0Y-89.1
X57.6Y-69.1
X57.8Y-80.3
X57.9Y-94.2
X58.0Y-90.5
X58.259Y-79.2
X59.3Y-78.3
X59.659Y-115.1
X59.7Y-94.0
X60.0Y-91.9
X60.1Y-71.5
X60.2Y-69.0
X60.2Y-72.7
X60.4Y-67.7
X60.4Y-85.3
X60.5Y-86.5
X60.7Y-76.8
X61.4Y-77.6
X63.55Y-74.95
X63.7Y-87.1
X63.9Y-79.2
X64.4Y-76.9
X65.155Y-72.745
X65.2Y-67.7
X65.2Y-68.9
X65.2Y-70.2
X65.2Y-71.5
X65.3Y-87.8
X65.3Y-90.4
X65.4Y-85.3
X65.6Y-79.0
X66.8Y-78.8
X67.0Y-75.2
X67.1Y-107.0
X67.1Y-116.4
X71.3Y-59.7
X71.3Y-65.7
X71.3Y-71.7
X71.3Y-77.7
X71.3Y-83.7
X71.3Y-89.7
X71.3Y-95.7
X71.3Y-101.7
X73.8Y-54.4
X74.1Y-42.8
X74.7Y-43.9
X74.9Y-40.9
X74.9Y-41.9
X76.496Y-40.704
X77.3Y-59.7
X77.3Y-65.7
X77.3Y-71.7
X77.3Y-77.7
X77.3Y-83.7
X77.3Y-89.7
X77.3Y-95.7
X77.3Y-101.7
X78.5Y-116.5
X78.6Y-107.0
X79.8Y-107.0
X79.8Y-116.4
X81.1Y-107.0
X81.1Y-116.4
X81.2Y-111.1
X81.264Y-52.435
X82.245Y-49.545
X83.3Y-59.7
X83.3Y-65.7
X83.3Y-71.7
X83.3Y-77.7
X83.3Y-83.7
X83.3Y-89.7
X83.3Y-95.7
X83.3Y-101.7
X89.3Y-59.7
X89.3Y-65.7
X89.3Y-71.7
X89.3Y-77.7
X89.3Y-83.7
X89.3Y-89.7
X89.3Y-95.7
X89.3Y-101.7
X91.1Y-107.0
X91.1Y-116.4
X95.3Y-59.7
X95.3Y-65.7
X95.3Y-71.7
X95.3Y-77.7
X95.3Y-83.7
X95.3Y-89.7
X95.3Y-95.7
X95.3Y-101.7
X98.1Y-42.8
X98.7Y-43.9
X98.9Y-40.9
X98.9Y-41.9
X100.496Y-40.704
X101.3Y-59.7
X101.3Y-65.7
X101.3Y-71.7
X101.3Y-77.7
X101.3Y-83.7
X101.3Y-89.7
X101.3Y-95.7
X101.3Y-101.7
X102.5Y-116.5
X102.6Y-107.0
X103.8Y-107.0
X103.8Y-116.4
X105.1Y-107.0
X105.1Y-116.4
X105.2Y-111.1
X105.264Y-52.435
X106.245Y-49.545
X107.3Y-59.7
X107.3Y-65.7
X107.3Y-71.7
X107.3Y-77.7
X107.3Y-83.7
X107.3Y-89.7
X107.3Y-95.7
X107.3Y-101.7
X113.3Y-59.7
X113.3Y-65.7
X113.3Y-71.7
X113.3Y-77.7
X113.3Y-83.7
X113.3Y-89.7
X113.3Y-95.7
X113.3Y-101.7
X115.1Y-107.0
X115.1Y-116.4
X119.3Y-59.7
X119.3Y-65.7
X119.3Y-71.7
X119.3Y-77.7
X119.3Y-83.7
X119.3Y-89.7
X119.3Y-95.7
X119.3Y-101.7
X122.1Y-42.8
X122.7Y-43.9
X122.9Y-40.9
X122.9Y-41.9
X124.496Y-40.704
X125.3Y-59.7
X125.3Y-65.7
X125.3Y-71.7
X125.3Y-77.7
X125.3Y-83.7
X125.3Y-89.7
X125.3Y-95.7
X125.3Y-101.7
X126.5Y-116.5
X126.6Y-107.0
X127.8Y-107.0
X127.8Y-116.4
X129.1Y-107.0
X129.1Y-116.4
X129.2Y-111.1
X129.264Y-52.435
X130.245Y-49.545
X131.3Y-59.7
X131.3Y-65.7
X131.3Y-71.7
X131.3Y-77.7
X131.3Y-83.7
X131.3Y-89.7
X131.3Y-95.7
X131.3Y-101.7
X137.3Y-59.7
X137.3Y-65.7
X137.3Y-71.7
X137.3Y-77.7
X137.3Y-83.7
X137.3Y-89.7
X137.3Y-95.7
X137.3Y-101.7
X139.1Y-107.0
X139.1Y-116.4
X143.3Y-59.7
X143.3Y-65.7
X143.3Y-71.7
X143.3Y-77.7
X143.3Y-83.7
X143.3Y-89.7
X143.3Y-95.7
X143.3Y-101.7
X146.1Y-42.8
X146.7Y-43.9
X146.9Y-40.9
X146.9Y-41.9
X148.496Y-40.704
X149.3Y-59.7
X149.3Y-65.7
X149.3Y-71.7
X149.3Y-77.7
X149.3Y-83.7
X149.3Y-89.7
X149.3Y-95.7
X149.3Y-101.7
X150.5Y-116.5
X150.6Y-107.0
X151.8Y-107.0
X151.8Y-116.4
X153.1Y-107.0
X153.1Y-116.4
X153.2Y-111.1
X153.264Y-52.435
X154.245Y-49.545
X155.3Y-59.7
X155.3Y-65.7
X155.3Y-71.7
X155.3Y-77.7
X155.3Y-83.7
X155.3Y-89.7
X155.3Y-95.7
X155.3Y-101.7
X161.3Y-59.7
X161.3Y-65.7
X161.3Y-71.7
X161.3Y-77.7
X161.3Y-83.7
X161.3Y-89.7
X161.3Y-95.7
X161.3Y-101.7
X163.1Y-107.0
X163.1Y-116.4
X167.3Y-59.7
X167.3Y-65.7
X167.3Y-71.7
X167.3Y-77.7
X167.3Y-83.7
X167.3Y-89.7
X167.3Y-95.7
X167.3Y-101.7
X170.1Y-42.8
X170.7Y-43.9
X170.9Y-40.9
X170.9Y-41.9
X172.496Y-40.704
X173.3Y-59.7
X173.3Y-65.7
X173.3Y-71.7
X173.3Y-77.7
X173.3Y-83.7
X173.3Y-89.7
X173.3Y-95.7
X173.3Y-101.7
X174.5Y-116.5
X174.6Y-107.0
X175.8Y-107.0
X175.8Y-116.4
X177.1Y-107.0
X177.1Y-116.4
X177.2Y-111.1
X177.264Y-52.435
X178.245Y-49.545
X179.3Y-59.7
X179.3Y-65.7
X179.3Y-71.7
X179.3Y-77.7
X179.3Y-83.7
X179.3Y-89.7
X179.3Y-95.7
X179.3Y-101.7
X185.3Y-59.7
X185.3Y-65.7
X185.3Y-71.7
X185.3Y-77.7
X185.3Y-83.7
X185.3Y-89.7
X185.3Y-95.7
X185.3Y-101.7
X187.1Y-116.4
X191.3Y-59.7
X191.3Y-65.7
X191.3Y-71.7
X191.3Y-77.7
X191.3Y-83.7
X191.3Y-89.7
X191.3Y-95.7
X191.3Y-101.7
X194.1Y-42.8
X194.7Y-43.9
X194.9Y-40.9
X194.9Y-41.9
X196.496Y-40.704
X197.3Y-59.7
X197.3Y-65.7
X197.3Y-71.7
X197.3Y-77.7
X197.3Y-83.7
X197.3Y-89.7
X197.3Y-95.7
X197.3Y-101.7
X198.5Y-116.5
X198.6Y-107.0
X199.8Y-107.0
X199.8Y-116.4
X201.1Y-107.0
X201.1Y-116.4
X201.2Y-111.1
X201.264Y-52.435
X202.245Y-49.545
X203.3Y-59.7
X203.3Y-65.7
X203.3Y-71.7
X203.3Y-77.7
X203.3Y-83.7
X203.3Y-89.7
X203.3Y-95.7
X203.3Y-101.7
X209.3Y-59.7
X209.3Y-65.7
X209.3Y-71.7
X209.3Y-77.7
X209.3Y-83.7
X209.3Y-89.7
X209.3Y-95.7
X209.3Y-101.7
X211.1Y-116.4
X215.3Y-59.7
X215.3Y-65.7
X215.3Y-71.7
X215.3Y-77.7
X215.3Y-83.7
X215.3Y-89.7
X215.3Y-95.7
X215.3Y-101.7
X218.1Y-42.8
X218.7Y-43.9
X218.9Y-40.9
X218.9Y-41.9
X220.496Y-40.704
X221.3Y-59.7
X221.3Y-65.7
X221.3Y-71.7
X221.3Y-77.7
X221.3Y-83.7
X221.3Y-89.7
X221.3Y-95.7
X221.3Y-101.7
X222.5Y-116.5
X222.6Y-107.0
X223.8Y-107.0
X223.8Y-116.4
X225.1Y-107.0
X225.1Y-116.4
X225.2Y-111.1
X225.264Y-52.435
X226.245Y-49.545
X227.3Y-59.7
X227.3Y-65.7
X227.3Y-71.7
X227.3Y-77.7
X227.3Y-83.7
X227.3Y-89.7
X227.3Y-95.7
X227.3Y-101.7
X233.3Y-59.7
X233.3Y-65.7
X233.3Y-71.7
X233.3Y-77.7
X233.3Y-83.7
X233.3Y-89.7
X233.3Y-95.7
X233.3Y-101.7
X235.1Y-116.4
X239.3Y-59.7
X239.3Y-65.7
X239.3Y-71.7
X239.3Y-77.7
X239.3Y-83.7
X239.3Y-89.7
X239.3Y-95.7
X239.3Y-101.7
X242.1Y-42.8
X242.7Y-43.9
X242.9Y-40.9
X242.9Y-41.9
X244.496Y-40.704
X245.3Y-59.7
X245.3Y-65.7
X245.3Y-71.7
X245.3Y-77.7
X245.3Y-83.7
X245.3Y-89.7
X245.3Y-95.7
X245.3Y-101.7
X246.5Y-116.4
X246.6Y-107.0
X247.8Y-107.0
X247.8Y-116.4
X249.1Y-107.0
X249.1Y-116.4
X249.2Y-111.1
X249.264Y-52.435
X250.245Y-49.545
X251.3Y-59.7
X251.3Y-65.7
X251.3Y-71.7
X251.3Y-77.7
X251.3Y-83.7
X251.3Y-89.7
X251.3Y-95.7
X251.3Y-101.7
X257.3Y-59.7
X257.3Y-65.7
X257.3Y-71.7
X257.3Y-77.7
X257.3Y-83.7
X257.3Y-89.7
X257.3Y-95.7
X257.3Y-101.7
T0
M30
