G04 #@! TF.GenerationSoftware,KiCad,Pcbnew,6.0.8+dfsg-1~bpo11+1*
G04 #@! TF.CreationDate,2023-08-01T08:47:41-04:00*
G04 #@! TF.ProjectId,14_8x32_self_capacitance,31345f38-7833-4325-9f73-656c665f6361,rev?*
G04 #@! TF.SameCoordinates,Original*
G04 #@! TF.FileFunction,Copper,L1,Top*
G04 #@! TF.FilePolarity,Positive*
%FSLAX46Y46*%
G04 Gerber Fmt 4.6, Leading zero omitted, Abs format (unit mm)*
G04 Created by KiCad (PCBNEW 6.0.8+dfsg-1~bpo11+1) date 2023-08-01 08:47:41*
%MOMM*%
%LPD*%
G01*
G04 APERTURE LIST*
G04 Aperture macros list*
%AMFreePoly0*
4,1,13,2.417426,2.592426,2.435000,2.550000,2.435000,-2.450000,2.417426,-2.492426,2.375000,-2.510000,-2.625000,-2.510000,-2.667426,-2.492426,-2.685000,-2.450000,-2.685000,2.550000,-2.667426,2.592426,-2.625000,2.610000,2.375000,2.610000,2.417426,2.592426,2.417426,2.592426,$1*%
G04 Aperture macros list end*
G04 #@! TA.AperFunction,SMDPad,CuDef*
%ADD10FreePoly0,0.000000*%
G04 #@! TD*
G04 #@! TA.AperFunction,ViaPad*
%ADD11C,0.800000*%
G04 #@! TD*
G04 #@! TA.AperFunction,Conductor*
%ADD12C,0.127000*%
G04 #@! TD*
G04 APERTURE END LIST*
D10*
X71325000Y-59650000D03*
X71325000Y-65650000D03*
X71325000Y-71650000D03*
X71325000Y-77650000D03*
X71325000Y-83650000D03*
X71325000Y-89650000D03*
X71325000Y-95650000D03*
X71325000Y-101650000D03*
X77325000Y-59650000D03*
X77325000Y-65650000D03*
X77325000Y-71650000D03*
X77325000Y-77650000D03*
X77325000Y-83650000D03*
X77325000Y-89650000D03*
X77325000Y-95650000D03*
X77325000Y-101650000D03*
X83325000Y-59650000D03*
X83325000Y-65650000D03*
X83325000Y-71650000D03*
X83325000Y-77650000D03*
X83325000Y-83650000D03*
X83325000Y-89650000D03*
X83325000Y-95650000D03*
X83325000Y-101650000D03*
X89325000Y-59650000D03*
X89325000Y-65650000D03*
X89325000Y-71650000D03*
X89325000Y-77650000D03*
X89325000Y-83650000D03*
X89325000Y-89650000D03*
X89325000Y-95650000D03*
X89325000Y-101650000D03*
X95325000Y-59650000D03*
X95325000Y-65650000D03*
X95325000Y-71650000D03*
X95325000Y-77650000D03*
X95325000Y-83650000D03*
X95325000Y-89650000D03*
X95325000Y-95650000D03*
X95325000Y-101650000D03*
X101325000Y-59650000D03*
X101325000Y-65650000D03*
X101325000Y-71650000D03*
X101325000Y-77650000D03*
X101325000Y-83650000D03*
X101325000Y-89650000D03*
X101325000Y-95650000D03*
X101325000Y-101650000D03*
X107325000Y-59650000D03*
X107325000Y-65650000D03*
X107325000Y-71650000D03*
X107325000Y-77650000D03*
X107325000Y-83650000D03*
X107325000Y-89650000D03*
X107325000Y-95650000D03*
X107325000Y-101650000D03*
X113325000Y-59650000D03*
X113325000Y-65650000D03*
X113325000Y-71650000D03*
X113325000Y-77650000D03*
X113325000Y-83650000D03*
X113325000Y-89650000D03*
X113325000Y-95650000D03*
X113325000Y-101650000D03*
X119325000Y-59650000D03*
X119325000Y-65650000D03*
X119325000Y-71650000D03*
X119325000Y-77650000D03*
X119325000Y-83650000D03*
X119325000Y-89650000D03*
X119325000Y-95650000D03*
X119325000Y-101650000D03*
X125325000Y-59650000D03*
X125325000Y-65650000D03*
X125325000Y-71650000D03*
X125325000Y-77650000D03*
X125325000Y-83650000D03*
X125325000Y-89650000D03*
X125325000Y-95650000D03*
X125325000Y-101650000D03*
X131325000Y-59650000D03*
X131325000Y-65650000D03*
X131325000Y-71650000D03*
X131325000Y-77650000D03*
X131325000Y-83650000D03*
X131325000Y-89650000D03*
X131325000Y-95650000D03*
X131325000Y-101650000D03*
X137325000Y-59650000D03*
X137325000Y-65650000D03*
X137325000Y-71650000D03*
X137325000Y-77650000D03*
X137325000Y-83650000D03*
X137325000Y-89650000D03*
X137325000Y-95650000D03*
X137325000Y-101650000D03*
X143325000Y-59650000D03*
X143325000Y-65650000D03*
X143325000Y-71650000D03*
X143325000Y-77650000D03*
X143325000Y-83650000D03*
X143325000Y-89650000D03*
X143325000Y-95650000D03*
X143325000Y-101650000D03*
X149325000Y-59650000D03*
X149325000Y-65650000D03*
X149325000Y-71650000D03*
X149325000Y-77650000D03*
X149325000Y-83650000D03*
X149325000Y-89650000D03*
X149325000Y-95650000D03*
X149325000Y-101650000D03*
X155325000Y-59650000D03*
X155325000Y-65650000D03*
X155325000Y-71650000D03*
X155325000Y-77650000D03*
X155325000Y-83650000D03*
X155325000Y-89650000D03*
X155325000Y-95650000D03*
X155325000Y-101650000D03*
X161325000Y-59650000D03*
X161325000Y-65650000D03*
X161325000Y-71650000D03*
X161325000Y-77650000D03*
X161325000Y-83650000D03*
X161325000Y-89650000D03*
X161325000Y-95650000D03*
X161325000Y-101650000D03*
X167325000Y-59650000D03*
X167325000Y-65650000D03*
X167325000Y-71650000D03*
X167325000Y-77650000D03*
X167325000Y-83650000D03*
X167325000Y-89650000D03*
X167325000Y-95650000D03*
X167325000Y-101650000D03*
X173325000Y-59650000D03*
X173325000Y-65650000D03*
X173325000Y-71650000D03*
X173325000Y-77650000D03*
X173325000Y-83650000D03*
X173325000Y-89650000D03*
X173325000Y-95650000D03*
X173325000Y-101650000D03*
X179325000Y-59650000D03*
X179325000Y-65650000D03*
X179325000Y-71650000D03*
X179325000Y-77650000D03*
X179325000Y-83650000D03*
X179325000Y-89650000D03*
X179325000Y-95650000D03*
X179325000Y-101650000D03*
X185325000Y-59650000D03*
X185325000Y-65650000D03*
X185325000Y-71650000D03*
X185325000Y-77650000D03*
X185325000Y-83650000D03*
X185325000Y-89650000D03*
X185325000Y-95650000D03*
X185325000Y-101650000D03*
X191325000Y-59650000D03*
X191325000Y-65650000D03*
X191325000Y-71650000D03*
X191325000Y-77650000D03*
X191325000Y-83650000D03*
X191325000Y-89650000D03*
X191325000Y-95650000D03*
X191325000Y-101650000D03*
X197325000Y-59650000D03*
X197325000Y-65650000D03*
X197325000Y-71650000D03*
X197325000Y-77650000D03*
X197325000Y-83650000D03*
X197325000Y-89650000D03*
X197325000Y-95650000D03*
X197325000Y-101650000D03*
X203325000Y-59650000D03*
X203325000Y-65650000D03*
X203325000Y-71650000D03*
X203325000Y-77650000D03*
X203325000Y-83650000D03*
X203325000Y-89650000D03*
X203325000Y-95650000D03*
X203325000Y-101650000D03*
X209325000Y-59650000D03*
X209325000Y-65650000D03*
X209325000Y-71650000D03*
X209325000Y-77650000D03*
X209325000Y-83650000D03*
X209325000Y-89650000D03*
X209325000Y-95650000D03*
X209325000Y-101650000D03*
X215325000Y-59650000D03*
X215325000Y-65650000D03*
X215325000Y-71650000D03*
X215325000Y-77650000D03*
X215325000Y-83650000D03*
X215325000Y-89650000D03*
X215325000Y-95650000D03*
X215325000Y-101650000D03*
X221325000Y-59650000D03*
X221325000Y-65650000D03*
X221325000Y-71650000D03*
X221325000Y-77650000D03*
X221325000Y-83650000D03*
X221325000Y-89650000D03*
X221325000Y-95650000D03*
X221325000Y-101650000D03*
X227325000Y-59650000D03*
X227325000Y-65650000D03*
X227325000Y-71650000D03*
X227325000Y-77650000D03*
X227325000Y-83650000D03*
X227325000Y-89650000D03*
X227325000Y-95650000D03*
X227325000Y-101650000D03*
X233325000Y-59650000D03*
X233325000Y-65650000D03*
X233325000Y-71650000D03*
X233325000Y-77650000D03*
X233325000Y-83650000D03*
X233325000Y-89650000D03*
X233325000Y-95650000D03*
X233325000Y-101650000D03*
X239325000Y-59650000D03*
X239325000Y-65650000D03*
X239325000Y-71650000D03*
X239325000Y-77650000D03*
X239325000Y-83650000D03*
X239325000Y-89650000D03*
X239325000Y-95650000D03*
X239325000Y-101650000D03*
X245325000Y-59650000D03*
X245325000Y-65650000D03*
X245325000Y-71650000D03*
X245325000Y-77650000D03*
X245325000Y-83650000D03*
X245325000Y-89650000D03*
X245325000Y-95650000D03*
X245325000Y-101650000D03*
X251325000Y-59650000D03*
X251325000Y-65650000D03*
X251325000Y-71650000D03*
X251325000Y-77650000D03*
X251325000Y-83650000D03*
X251325000Y-89650000D03*
X251325000Y-95650000D03*
X251325000Y-101650000D03*
X257325000Y-59650000D03*
X257325000Y-65650000D03*
X257325000Y-71650000D03*
X257325000Y-77650000D03*
X257325000Y-83650000D03*
X257325000Y-89650000D03*
X257325000Y-95650000D03*
X257325000Y-101650000D03*
D11*
X196496050Y-40703950D03*
X220496050Y-40703950D03*
X57600000Y-69100000D03*
X59659210Y-115100000D03*
X115100000Y-116400000D03*
X66800000Y-78800000D03*
X235100000Y-116400000D03*
X139100000Y-116400000D03*
X163100000Y-116400000D03*
X187100000Y-116400000D03*
X65300000Y-90400000D03*
X67100000Y-116400000D03*
X124496050Y-40703950D03*
X76496050Y-40703950D03*
X244496050Y-40703950D03*
X148496050Y-40703950D03*
X91100000Y-116400000D03*
X67000000Y-75200000D03*
X211100000Y-116400000D03*
X65155000Y-72745000D03*
X100496050Y-40703950D03*
X172496050Y-40703950D03*
X59300000Y-78300000D03*
X105200000Y-111100000D03*
X153100000Y-107000000D03*
X78500000Y-116500000D03*
X102500000Y-116500000D03*
X81100000Y-107000000D03*
X81200000Y-111100000D03*
X225100000Y-107000000D03*
X201100000Y-107000000D03*
X153264500Y-52435500D03*
X177200000Y-111100000D03*
X150500000Y-116500000D03*
X105264500Y-52435500D03*
X198500000Y-116500000D03*
X126500000Y-116500000D03*
X222500000Y-116500000D03*
X153200000Y-111100000D03*
X174500000Y-116500000D03*
X73800000Y-54400000D03*
X225200000Y-111100000D03*
X129200000Y-111100000D03*
X81264500Y-52435500D03*
X105100000Y-107000000D03*
X129100000Y-107000000D03*
X177264500Y-52435500D03*
X54700000Y-109300000D03*
X249200000Y-111100000D03*
X246500000Y-116400000D03*
X201200000Y-111100000D03*
X249100000Y-107000000D03*
X249264500Y-52435500D03*
X225264500Y-52435500D03*
X129264500Y-52435500D03*
X201264500Y-52435500D03*
X177100000Y-107000000D03*
X170700000Y-43900000D03*
X53500000Y-78200000D03*
X78600000Y-107000000D03*
X146700000Y-43900000D03*
X102600000Y-107000000D03*
X246600000Y-107000000D03*
X98700000Y-43900000D03*
X150600000Y-107000000D03*
X174600000Y-107000000D03*
X126600000Y-107000000D03*
X242700000Y-43900000D03*
X198600000Y-107000000D03*
X122700000Y-43900000D03*
X218700000Y-43900000D03*
X74700000Y-43900000D03*
X194700000Y-43900000D03*
X222600000Y-107000000D03*
X74100000Y-42800000D03*
X98100000Y-42800000D03*
X151800000Y-107000000D03*
X127800000Y-107000000D03*
X247800000Y-107000000D03*
X218100000Y-42800000D03*
X146100000Y-42800000D03*
X223800000Y-107000000D03*
X175800000Y-107000000D03*
X199800000Y-107000000D03*
X122100000Y-42800000D03*
X103800000Y-107000000D03*
X79800000Y-107000000D03*
X170100000Y-42800000D03*
X242100000Y-42800000D03*
X194100000Y-42800000D03*
X51100000Y-77800000D03*
X175800000Y-116400000D03*
X170900000Y-41900000D03*
X103800000Y-116400000D03*
X122900000Y-41900000D03*
X146900000Y-41900000D03*
X151800000Y-116400000D03*
X242900000Y-41900000D03*
X223800000Y-116400000D03*
X48800000Y-77400000D03*
X218900000Y-41900000D03*
X194900000Y-41900000D03*
X74900000Y-41900000D03*
X79800000Y-116400000D03*
X98900000Y-41900000D03*
X199800000Y-116400000D03*
X247800000Y-116400000D03*
X127800000Y-116400000D03*
X218900000Y-40900000D03*
X98900000Y-40900000D03*
X201100000Y-116400000D03*
X122900000Y-40900000D03*
X194900000Y-40900000D03*
X225100000Y-116400000D03*
X170900000Y-40900000D03*
X153100000Y-116400000D03*
X51200000Y-76600000D03*
X74900000Y-40900000D03*
X177100000Y-116400000D03*
X242900000Y-40900000D03*
X105100000Y-116400000D03*
X249100000Y-116400000D03*
X129100000Y-116400000D03*
X146900000Y-40900000D03*
X81100000Y-116400000D03*
X250245500Y-49545500D03*
X60500000Y-86500000D03*
X251300000Y-101700000D03*
X251300000Y-95700000D03*
X251300000Y-89700000D03*
X251300000Y-83700000D03*
X251300000Y-77700000D03*
X251300000Y-71700000D03*
X251300000Y-65700000D03*
X251300000Y-59700000D03*
X257300000Y-101700000D03*
X257300000Y-95700000D03*
X257300000Y-89700000D03*
X257300000Y-83700000D03*
X257300000Y-77700000D03*
X257300000Y-71700000D03*
X257300000Y-65700000D03*
X257300000Y-59700000D03*
X56600000Y-94100000D03*
X57000000Y-89100000D03*
X239300000Y-101700000D03*
X239300000Y-95700000D03*
X239300000Y-89700000D03*
X239300000Y-83700000D03*
X239300000Y-77700000D03*
X239300000Y-71700000D03*
X239300000Y-65700000D03*
X239300000Y-59700000D03*
X245300000Y-101700000D03*
X245300000Y-95700000D03*
X245300000Y-89700000D03*
X245300000Y-83700000D03*
X245300000Y-77700000D03*
X245300000Y-71700000D03*
X245300000Y-65700000D03*
X245300000Y-59700000D03*
X226245500Y-49545500D03*
X60400000Y-85300000D03*
X227300000Y-101700000D03*
X227300000Y-95700000D03*
X227300000Y-89700000D03*
X227300000Y-83700000D03*
X227300000Y-77700000D03*
X227300000Y-71700000D03*
X227300000Y-65700000D03*
X227300000Y-59700000D03*
X233300000Y-101700000D03*
X233300000Y-95700000D03*
X233300000Y-89700000D03*
X233300000Y-83700000D03*
X233300000Y-77700000D03*
X233300000Y-71700000D03*
X233300000Y-65700000D03*
X233300000Y-59700000D03*
X57900000Y-94200000D03*
X58000000Y-90500000D03*
X215300000Y-101700000D03*
X215300000Y-95700000D03*
X215300000Y-89700000D03*
X215300000Y-83700000D03*
X215300000Y-77700000D03*
X215300000Y-71700000D03*
X215300000Y-65700000D03*
X215300000Y-59700000D03*
X221300000Y-101700000D03*
X221300000Y-95700000D03*
X221300000Y-89700000D03*
X221300000Y-83700000D03*
X221300000Y-77700000D03*
X221300000Y-71700000D03*
X221300000Y-65700000D03*
X221300000Y-59700000D03*
X71300000Y-59700000D03*
X71300000Y-65700000D03*
X71300000Y-71700000D03*
X71300000Y-77700000D03*
X71300000Y-83700000D03*
X71300000Y-89700000D03*
X71300000Y-95700000D03*
X71300000Y-101700000D03*
X77300000Y-59700000D03*
X77300000Y-65700000D03*
X77300000Y-71700000D03*
X77300000Y-77700000D03*
X77300000Y-83700000D03*
X77300000Y-89700000D03*
X77300000Y-95700000D03*
X77300000Y-101700000D03*
X83300000Y-59700000D03*
X83300000Y-65700000D03*
X83300000Y-71700000D03*
X83300000Y-77700000D03*
X83300000Y-83700000D03*
X83300000Y-89700000D03*
X83300000Y-95700000D03*
X83300000Y-101700000D03*
X89300000Y-59700000D03*
X89300000Y-65700000D03*
X89300000Y-71700000D03*
X89300000Y-77700000D03*
X89300000Y-83700000D03*
X89300000Y-89700000D03*
X89300000Y-95700000D03*
X89300000Y-101700000D03*
X95300000Y-59700000D03*
X95300000Y-65700000D03*
X95300000Y-71700000D03*
X95300000Y-77700000D03*
X95300000Y-83700000D03*
X95300000Y-89700000D03*
X95300000Y-95700000D03*
X95300000Y-101700000D03*
X101300000Y-59700000D03*
X101300000Y-65700000D03*
X101300000Y-71700000D03*
X101300000Y-77700000D03*
X101300000Y-83700000D03*
X101300000Y-89700000D03*
X101300000Y-95700000D03*
X101300000Y-101700000D03*
X107300000Y-59700000D03*
X107300000Y-65700000D03*
X107300000Y-71700000D03*
X107300000Y-77700000D03*
X107300000Y-83700000D03*
X107300000Y-89700000D03*
X107300000Y-95700000D03*
X107300000Y-101700000D03*
X113300000Y-59700000D03*
X113300000Y-65700000D03*
X113300000Y-71700000D03*
X113300000Y-77700000D03*
X113300000Y-83700000D03*
X113300000Y-89700000D03*
X113300000Y-95700000D03*
X113300000Y-101700000D03*
X119300000Y-59700000D03*
X119300000Y-65700000D03*
X119300000Y-71700000D03*
X119300000Y-77700000D03*
X119300000Y-83700000D03*
X119300000Y-89700000D03*
X119300000Y-95700000D03*
X119300000Y-101700000D03*
X125300000Y-59700000D03*
X125300000Y-65700000D03*
X125300000Y-71700000D03*
X125300000Y-77700000D03*
X125300000Y-83700000D03*
X125300000Y-89700000D03*
X125300000Y-95700000D03*
X125300000Y-101700000D03*
X131300000Y-59700000D03*
X131300000Y-65700000D03*
X131300000Y-71700000D03*
X131300000Y-77700000D03*
X131300000Y-83700000D03*
X131300000Y-89700000D03*
X131300000Y-95700000D03*
X131300000Y-101700000D03*
X137300000Y-59700000D03*
X137300000Y-65700000D03*
X137300000Y-71700000D03*
X137300000Y-77700000D03*
X137300000Y-83700000D03*
X137300000Y-89700000D03*
X137300000Y-95700000D03*
X137300000Y-101700000D03*
X143300000Y-59700000D03*
X143300000Y-65700000D03*
X143300000Y-71700000D03*
X143300000Y-77700000D03*
X143300000Y-83700000D03*
X143300000Y-89700000D03*
X143300000Y-95700000D03*
X143300000Y-101700000D03*
X149300000Y-59700000D03*
X149300000Y-65700000D03*
X149300000Y-71700000D03*
X149300000Y-77700000D03*
X149300000Y-83700000D03*
X149300000Y-89700000D03*
X149300000Y-95700000D03*
X149300000Y-101700000D03*
X155300000Y-59700000D03*
X155300000Y-65700000D03*
X155300000Y-71700000D03*
X155300000Y-77700000D03*
X155300000Y-83700000D03*
X155300000Y-89700000D03*
X155300000Y-95700000D03*
X155300000Y-101700000D03*
X161300000Y-59700000D03*
X161300000Y-65700000D03*
X161300000Y-71700000D03*
X161300000Y-77700000D03*
X161300000Y-83700000D03*
X161300000Y-89700000D03*
X161300000Y-95700000D03*
X161300000Y-101700000D03*
X167300000Y-59700000D03*
X167300000Y-65700000D03*
X167300000Y-71700000D03*
X167300000Y-77700000D03*
X167300000Y-83700000D03*
X167300000Y-89700000D03*
X167300000Y-95700000D03*
X167300000Y-101700000D03*
X173300000Y-59700000D03*
X173300000Y-65700000D03*
X173300000Y-71700000D03*
X173300000Y-77700000D03*
X173300000Y-83700000D03*
X173300000Y-89700000D03*
X173300000Y-95700000D03*
X173300000Y-101700000D03*
X179300000Y-59700000D03*
X179300000Y-65700000D03*
X179300000Y-71700000D03*
X179300000Y-77700000D03*
X179300000Y-83700000D03*
X179300000Y-89700000D03*
X179300000Y-95700000D03*
X179300000Y-101700000D03*
X185300000Y-59700000D03*
X185300000Y-65700000D03*
X185300000Y-71700000D03*
X185300000Y-77700000D03*
X185300000Y-83700000D03*
X185300000Y-89700000D03*
X185300000Y-95700000D03*
X185300000Y-101700000D03*
X191300000Y-59700000D03*
X191300000Y-65700000D03*
X191300000Y-71700000D03*
X191300000Y-77700000D03*
X191300000Y-83700000D03*
X191300000Y-89700000D03*
X191300000Y-95700000D03*
X191300000Y-101700000D03*
X197300000Y-59700000D03*
X197300000Y-65700000D03*
X197300000Y-71700000D03*
X197300000Y-77700000D03*
X197300000Y-83700000D03*
X197300000Y-89700000D03*
X197300000Y-95700000D03*
X197300000Y-101700000D03*
X203300000Y-59700000D03*
X203300000Y-65700000D03*
X203300000Y-71700000D03*
X203300000Y-77700000D03*
X203300000Y-83700000D03*
X203300000Y-89700000D03*
X203300000Y-95700000D03*
X203300000Y-101700000D03*
X209300000Y-59700000D03*
X209300000Y-65700000D03*
X209300000Y-71700000D03*
X209300000Y-77700000D03*
X209300000Y-83700000D03*
X209300000Y-89700000D03*
X209300000Y-95700000D03*
X209300000Y-101700000D03*
X67100000Y-107000000D03*
X65200000Y-68900000D03*
X60700000Y-76800000D03*
X63550000Y-74950000D03*
X65400000Y-85300000D03*
X57800000Y-80300000D03*
X202245500Y-49545500D03*
X63900000Y-79200000D03*
X63700000Y-87100000D03*
X163100000Y-107000000D03*
X65300000Y-87800000D03*
X58259210Y-79200000D03*
X178245500Y-49545500D03*
X65600000Y-79000000D03*
X59700000Y-94000000D03*
X60000000Y-91900000D03*
X65200000Y-70200000D03*
X82245500Y-49545500D03*
X115100000Y-107000000D03*
X60200000Y-72700000D03*
X139100000Y-107000000D03*
X60100000Y-71500000D03*
X154245500Y-49545500D03*
X60200000Y-69000000D03*
X130245500Y-49545500D03*
X60400000Y-67700000D03*
X65200000Y-67700000D03*
X106245500Y-49545500D03*
X65200000Y-71500000D03*
X91100000Y-107000000D03*
X64400000Y-76900000D03*
X61400000Y-77600000D03*
D12*
X100496050Y-40703950D02*
X100092100Y-40300000D01*
X172092100Y-40300000D02*
X148900000Y-40300000D01*
X163100000Y-116400000D02*
X161800000Y-115100000D01*
X164354000Y-117654000D02*
X163100000Y-116400000D01*
X92354000Y-117654000D02*
X91100000Y-116400000D01*
X140354000Y-117654000D02*
X139100000Y-116400000D01*
X67554000Y-79554000D02*
X66800000Y-78800000D01*
X212354000Y-117654000D02*
X211100000Y-116400000D01*
X81105210Y-117654000D02*
X68354000Y-117654000D01*
X148496050Y-40703950D02*
X148092100Y-40300000D01*
X66900000Y-90400000D02*
X67554000Y-89746000D01*
X100092100Y-40300000D02*
X76900000Y-40300000D01*
X57600000Y-69100000D02*
X57600000Y-76600000D01*
X172496050Y-40703950D02*
X172092100Y-40300000D01*
X179659210Y-115100000D02*
X177105210Y-117654000D01*
X91100000Y-116400000D02*
X89800000Y-115100000D01*
X225105210Y-117654000D02*
X212354000Y-117654000D01*
X107659210Y-115100000D02*
X113800000Y-115100000D01*
X67000000Y-74500000D02*
X65200000Y-72700000D01*
X107659210Y-115100000D02*
X105105210Y-117654000D01*
X211100000Y-116400000D02*
X209800000Y-115100000D01*
X131659210Y-115100000D02*
X129105210Y-117654000D01*
X177105210Y-117654000D02*
X164354000Y-117654000D01*
X148092100Y-40300000D02*
X124900000Y-40300000D01*
X59659210Y-115100000D02*
X65800000Y-115100000D01*
X67000000Y-75200000D02*
X67000000Y-74500000D01*
X65300000Y-90400000D02*
X66900000Y-90400000D01*
X196092100Y-40300000D02*
X172900000Y-40300000D01*
X227659210Y-115100000D02*
X225105210Y-117654000D01*
X155659210Y-115100000D02*
X161800000Y-115100000D01*
X124092100Y-40300000D02*
X100900000Y-40300000D01*
X196496050Y-40703950D02*
X196092100Y-40300000D01*
X235100000Y-116400000D02*
X233800000Y-115100000D01*
X129105210Y-117654000D02*
X116354000Y-117654000D01*
X196900000Y-40300000D02*
X196496050Y-40703950D01*
X244092100Y-40300000D02*
X220900000Y-40300000D01*
X179659210Y-115100000D02*
X185800000Y-115100000D01*
X83659210Y-115100000D02*
X89800000Y-115100000D01*
X83659210Y-115100000D02*
X81105210Y-117654000D01*
X201105210Y-117654000D02*
X188354000Y-117654000D01*
X244496050Y-40703950D02*
X244092100Y-40300000D01*
X124496050Y-40703950D02*
X124092100Y-40300000D01*
X116354000Y-117654000D02*
X115100000Y-116400000D01*
X203659210Y-115100000D02*
X209800000Y-115100000D01*
X76900000Y-40300000D02*
X76496050Y-40703950D01*
X153105210Y-117654000D02*
X140354000Y-117654000D01*
X220900000Y-40300000D02*
X220496050Y-40703950D01*
X187100000Y-116400000D02*
X185800000Y-115100000D01*
X155659210Y-115100000D02*
X153105210Y-117654000D01*
X148900000Y-40300000D02*
X148496050Y-40703950D01*
X124900000Y-40300000D02*
X124496050Y-40703950D01*
X67100000Y-116400000D02*
X65800000Y-115100000D01*
X105105210Y-117654000D02*
X92354000Y-117654000D01*
X68354000Y-117654000D02*
X67100000Y-116400000D01*
X172900000Y-40300000D02*
X172496050Y-40703950D01*
X220496050Y-40703950D02*
X220092100Y-40300000D01*
X115100000Y-116400000D02*
X113800000Y-115100000D01*
X131659210Y-115100000D02*
X137800000Y-115100000D01*
X57600000Y-76600000D02*
X59300000Y-78300000D01*
X188354000Y-117654000D02*
X187100000Y-116400000D01*
X220092100Y-40300000D02*
X196900000Y-40300000D01*
X203659210Y-115100000D02*
X201105210Y-117654000D01*
X100900000Y-40300000D02*
X100496050Y-40703950D01*
X233800000Y-115100000D02*
X227659210Y-115100000D01*
X139100000Y-116400000D02*
X137800000Y-115100000D01*
X67554000Y-89746000D02*
X67554000Y-79554000D01*
X131900000Y-114500000D02*
X129000000Y-117400000D01*
X107900000Y-114500000D02*
X105000000Y-117400000D01*
X249690500Y-107590500D02*
X249690500Y-110609500D01*
X155900000Y-114500000D02*
X172600000Y-114500000D01*
X227900000Y-114500000D02*
X225000000Y-117400000D01*
X177690500Y-107590500D02*
X177100000Y-107000000D01*
X249690500Y-107590500D02*
X249100000Y-107000000D01*
X201264500Y-52435500D02*
X177264500Y-52435500D01*
X127100000Y-117400000D02*
X126500000Y-116800000D01*
X105690500Y-107590500D02*
X105100000Y-107000000D01*
X177690500Y-107590500D02*
X177690500Y-110609500D01*
X225000000Y-117400000D02*
X223100000Y-117400000D01*
X244600000Y-114500000D02*
X227900000Y-114500000D01*
X81690500Y-107590500D02*
X81100000Y-107000000D01*
X79100000Y-117400000D02*
X78500000Y-116800000D01*
X59900000Y-114500000D02*
X54700000Y-109300000D01*
X199100000Y-117400000D02*
X198500000Y-116800000D01*
X150500000Y-116400000D02*
X148600000Y-114500000D01*
X150500000Y-116800000D02*
X150500000Y-116500000D01*
X153690500Y-107590500D02*
X153690500Y-110609500D01*
X102500000Y-116800000D02*
X102500000Y-116500000D01*
X222500000Y-116400000D02*
X220600000Y-114500000D01*
X105690500Y-107590500D02*
X105690500Y-110609500D01*
X78500000Y-116800000D02*
X78500000Y-116500000D01*
X201690500Y-110609500D02*
X201200000Y-111100000D01*
X81690500Y-107590500D02*
X81690500Y-110609500D01*
X129264500Y-52435500D02*
X105264500Y-52435500D01*
X81000000Y-117400000D02*
X79100000Y-117400000D01*
X102500000Y-116400000D02*
X100600000Y-114500000D01*
X174500000Y-116800000D02*
X174500000Y-116500000D01*
X105000000Y-117400000D02*
X103100000Y-117400000D01*
X177264500Y-52435500D02*
X153264500Y-52435500D01*
X174500000Y-116400000D02*
X172600000Y-114500000D01*
X201000000Y-117400000D02*
X199100000Y-117400000D01*
X222500000Y-116500000D02*
X222500000Y-116400000D01*
X177000000Y-117400000D02*
X175100000Y-117400000D01*
X81690500Y-110609500D02*
X81200000Y-111100000D01*
X175100000Y-117400000D02*
X174500000Y-116800000D01*
X246500000Y-116400000D02*
X244600000Y-114500000D01*
X129690500Y-110609500D02*
X129200000Y-111100000D01*
X105264500Y-52435500D02*
X81264500Y-52435500D01*
X177690500Y-110609500D02*
X177200000Y-111100000D01*
X126500000Y-116800000D02*
X126500000Y-116500000D01*
X126500000Y-116400000D02*
X124600000Y-114500000D01*
X153000000Y-117400000D02*
X151100000Y-117400000D01*
X153690500Y-110609500D02*
X153200000Y-111100000D01*
X179900000Y-114500000D02*
X196600000Y-114500000D01*
X78500000Y-116400000D02*
X76600000Y-114500000D01*
X222500000Y-116800000D02*
X222500000Y-116500000D01*
X129690500Y-107590500D02*
X129100000Y-107000000D01*
X129690500Y-107590500D02*
X129690500Y-110609500D01*
X131900000Y-114500000D02*
X148600000Y-114500000D01*
X203900000Y-114500000D02*
X220600000Y-114500000D01*
X223100000Y-117400000D02*
X222500000Y-116800000D01*
X107900000Y-114500000D02*
X124600000Y-114500000D01*
X151100000Y-117400000D02*
X150500000Y-116800000D01*
X201690500Y-107590500D02*
X201100000Y-107000000D01*
X249690500Y-110609500D02*
X249200000Y-111100000D01*
X198500000Y-116400000D02*
X196600000Y-114500000D01*
X59900000Y-114500000D02*
X76600000Y-114500000D01*
X225264500Y-52435500D02*
X201264500Y-52435500D01*
X81264500Y-52435500D02*
X79300000Y-54400000D01*
X225690500Y-107590500D02*
X225100000Y-107000000D01*
X105690500Y-110609500D02*
X105200000Y-111100000D01*
X225690500Y-110609500D02*
X225200000Y-111100000D01*
X83900000Y-114500000D02*
X81000000Y-117400000D01*
X153264500Y-52435500D02*
X129264500Y-52435500D01*
X201690500Y-107590500D02*
X201690500Y-110609500D01*
X249264500Y-52435500D02*
X225264500Y-52435500D01*
X203900000Y-114500000D02*
X201000000Y-117400000D01*
X103100000Y-117400000D02*
X102500000Y-116800000D01*
X179900000Y-114500000D02*
X177000000Y-117400000D01*
X129000000Y-117400000D02*
X127100000Y-117400000D01*
X198500000Y-116800000D02*
X198500000Y-116500000D01*
X79300000Y-54400000D02*
X73800000Y-54400000D01*
X225690500Y-107590500D02*
X225690500Y-110609500D01*
X153690500Y-107590500D02*
X153100000Y-107000000D01*
X155900000Y-114500000D02*
X153000000Y-117400000D01*
X83900000Y-114500000D02*
X100600000Y-114500000D01*
X246600000Y-107000000D02*
X242900000Y-110700000D01*
X54900000Y-78200000D02*
X53500000Y-78200000D01*
X242700000Y-43900000D02*
X218700000Y-43900000D01*
X55538000Y-57502790D02*
X55538000Y-77562000D01*
X146900000Y-110700000D02*
X139400000Y-110700000D01*
X110846000Y-106146000D02*
X115400000Y-110700000D01*
X98700000Y-43900000D02*
X74700000Y-43900000D01*
X170700000Y-43900000D02*
X146700000Y-43900000D01*
X67400000Y-110700000D02*
X64000000Y-107300000D01*
X69140790Y-43900000D02*
X55538000Y-57502790D01*
X126600000Y-107000000D02*
X122900000Y-110700000D01*
X74700000Y-43900000D02*
X69140790Y-43900000D01*
X199454000Y-106146000D02*
X206846000Y-106146000D01*
X122900000Y-110700000D02*
X115400000Y-110700000D01*
X222600000Y-107000000D02*
X223454000Y-106146000D01*
X78600000Y-107000000D02*
X74900000Y-110700000D01*
X60500000Y-107300000D02*
X55538000Y-102338000D01*
X127454000Y-106146000D02*
X134846000Y-106146000D01*
X174600000Y-107000000D02*
X170900000Y-110700000D01*
X230846000Y-106146000D02*
X235400000Y-110700000D01*
X150600000Y-107000000D02*
X151454000Y-106146000D01*
X218700000Y-43900000D02*
X194700000Y-43900000D01*
X194900000Y-110700000D02*
X187400000Y-110700000D01*
X170900000Y-110700000D02*
X163400000Y-110700000D01*
X218900000Y-110700000D02*
X211400000Y-110700000D01*
X134846000Y-106146000D02*
X139400000Y-110700000D01*
X64000000Y-107300000D02*
X60500000Y-107300000D01*
X175454000Y-106146000D02*
X182846000Y-106146000D01*
X151454000Y-106146000D02*
X158846000Y-106146000D01*
X122700000Y-43900000D02*
X98700000Y-43900000D01*
X242900000Y-110700000D02*
X235400000Y-110700000D01*
X103454000Y-106146000D02*
X110846000Y-106146000D01*
X198600000Y-107000000D02*
X194900000Y-110700000D01*
X223454000Y-106146000D02*
X230846000Y-106146000D01*
X55538000Y-77562000D02*
X54900000Y-78200000D01*
X146700000Y-43900000D02*
X122700000Y-43900000D01*
X102600000Y-107000000D02*
X98900000Y-110700000D01*
X222600000Y-107000000D02*
X218900000Y-110700000D01*
X206846000Y-106146000D02*
X211400000Y-110700000D01*
X126600000Y-107000000D02*
X127454000Y-106146000D01*
X198600000Y-107000000D02*
X199454000Y-106146000D01*
X182846000Y-106146000D02*
X187400000Y-110700000D01*
X79454000Y-106146000D02*
X86846000Y-106146000D01*
X194700000Y-43900000D02*
X170700000Y-43900000D01*
X74900000Y-110700000D02*
X67400000Y-110700000D01*
X78600000Y-107000000D02*
X79454000Y-106146000D01*
X55538000Y-102338000D02*
X55538000Y-77500000D01*
X150600000Y-107000000D02*
X146900000Y-110700000D01*
X102600000Y-107000000D02*
X103454000Y-106146000D01*
X86846000Y-106146000D02*
X91400000Y-110700000D01*
X98900000Y-110700000D02*
X91400000Y-110700000D01*
X174600000Y-107000000D02*
X175454000Y-106146000D01*
X158846000Y-106146000D02*
X163400000Y-110700000D01*
X133500000Y-106400000D02*
X138300000Y-111200000D01*
X121590500Y-43309500D02*
X98609500Y-43309500D01*
X127800000Y-107000000D02*
X123600000Y-111200000D01*
X52000000Y-77800000D02*
X51100000Y-77800000D01*
X146100000Y-42800000D02*
X145590500Y-43309500D01*
X242100000Y-42800000D02*
X241590500Y-43309500D01*
X194100000Y-42800000D02*
X193590500Y-43309500D01*
X170609500Y-43309500D02*
X170100000Y-42800000D01*
X80400000Y-106400000D02*
X85500000Y-106400000D01*
X52190500Y-77609500D02*
X52000000Y-77800000D01*
X219600000Y-111200000D02*
X210300000Y-111200000D01*
X181500000Y-106400000D02*
X186300000Y-111200000D01*
X99600000Y-111200000D02*
X90300000Y-111200000D01*
X218609500Y-43309500D02*
X218100000Y-42800000D01*
X127800000Y-107000000D02*
X128400000Y-106400000D01*
X122100000Y-42800000D02*
X121590500Y-43309500D01*
X128400000Y-106400000D02*
X133500000Y-106400000D01*
X175800000Y-107000000D02*
X176400000Y-106400000D01*
X48300000Y-78800000D02*
X49300000Y-77800000D01*
X97590500Y-43309500D02*
X74609500Y-43309500D01*
X157500000Y-106400000D02*
X162300000Y-111200000D01*
X55284000Y-57397580D02*
X55284000Y-77456790D01*
X176400000Y-106400000D02*
X181500000Y-106400000D01*
X66300000Y-111200000D02*
X62654000Y-107554000D01*
X152400000Y-106400000D02*
X157500000Y-106400000D01*
X85500000Y-106400000D02*
X90300000Y-111200000D01*
X123600000Y-111200000D02*
X114300000Y-111200000D01*
X199800000Y-107000000D02*
X200400000Y-106400000D01*
X193590500Y-43309500D02*
X170609500Y-43309500D01*
X194609500Y-43309500D02*
X194100000Y-42800000D01*
X55131290Y-77609500D02*
X52190500Y-77609500D01*
X170100000Y-42800000D02*
X169590500Y-43309500D01*
X74100000Y-42800000D02*
X69881580Y-42800000D01*
X74609500Y-43309500D02*
X74100000Y-42800000D01*
X218100000Y-42800000D02*
X217590500Y-43309500D01*
X205500000Y-106400000D02*
X210300000Y-111200000D01*
X217590500Y-43309500D02*
X194609500Y-43309500D01*
X69881580Y-42800000D02*
X55284000Y-57397580D01*
X147600000Y-111200000D02*
X138300000Y-111200000D01*
X55284000Y-77456790D02*
X55131290Y-77609500D01*
X199800000Y-107000000D02*
X195600000Y-111200000D01*
X145590500Y-43309500D02*
X122609500Y-43309500D01*
X169590500Y-43309500D02*
X146609500Y-43309500D01*
X224400000Y-106400000D02*
X229500000Y-106400000D01*
X79800000Y-107000000D02*
X75600000Y-111200000D01*
X60394790Y-107554000D02*
X48300000Y-95459210D01*
X104400000Y-106400000D02*
X109500000Y-106400000D01*
X103800000Y-107000000D02*
X104400000Y-106400000D01*
X223800000Y-107000000D02*
X224400000Y-106400000D01*
X79800000Y-107000000D02*
X80400000Y-106400000D01*
X195600000Y-111200000D02*
X186300000Y-111200000D01*
X247800000Y-107000000D02*
X243600000Y-111200000D01*
X109500000Y-106400000D02*
X114300000Y-111200000D01*
X175800000Y-107000000D02*
X171600000Y-111200000D01*
X241590500Y-43309500D02*
X218609500Y-43309500D01*
X75600000Y-111200000D02*
X66300000Y-111200000D01*
X243600000Y-111200000D02*
X234300000Y-111200000D01*
X48300000Y-95459210D02*
X48300000Y-78800000D01*
X223800000Y-107000000D02*
X219600000Y-111200000D01*
X49300000Y-77800000D02*
X51100000Y-77800000D01*
X122609500Y-43309500D02*
X122100000Y-42800000D01*
X98609500Y-43309500D02*
X98100000Y-42800000D01*
X146609500Y-43309500D02*
X146100000Y-42800000D01*
X200400000Y-106400000D02*
X205500000Y-106400000D01*
X62654000Y-107554000D02*
X60394790Y-107554000D01*
X151800000Y-107000000D02*
X152400000Y-106400000D01*
X98100000Y-42800000D02*
X97590500Y-43309500D01*
X229500000Y-106400000D02*
X234300000Y-111200000D01*
X151800000Y-107000000D02*
X147600000Y-111200000D01*
X171600000Y-111200000D02*
X162300000Y-111200000D01*
X103800000Y-107000000D02*
X99600000Y-111200000D01*
X55030000Y-57292370D02*
X55030000Y-76670000D01*
X98900000Y-41900000D02*
X74900000Y-41900000D01*
X156100000Y-112100000D02*
X171500000Y-112100000D01*
X79800000Y-116400000D02*
X75500000Y-112100000D01*
X247800000Y-116400000D02*
X243500000Y-112100000D01*
X70422370Y-41900000D02*
X55030000Y-57292370D01*
X55030000Y-76670000D02*
X54490500Y-77209500D01*
X122900000Y-41900000D02*
X98900000Y-41900000D01*
X127800000Y-116400000D02*
X132100000Y-112100000D01*
X151800000Y-116400000D02*
X147500000Y-112100000D01*
X48046000Y-78154000D02*
X48800000Y-77400000D01*
X146900000Y-41900000D02*
X122900000Y-41900000D01*
X242900000Y-41900000D02*
X218900000Y-41900000D01*
X75500000Y-112100000D02*
X59500000Y-112100000D01*
X223800000Y-116400000D02*
X228100000Y-112100000D01*
X151800000Y-116400000D02*
X156100000Y-112100000D01*
X218900000Y-41900000D02*
X194900000Y-41900000D01*
X194900000Y-41900000D02*
X170900000Y-41900000D01*
X54490500Y-77209500D02*
X48990500Y-77209500D01*
X199800000Y-116400000D02*
X204100000Y-112100000D01*
X199800000Y-116400000D02*
X195500000Y-112100000D01*
X103800000Y-116400000D02*
X108100000Y-112100000D01*
X103800000Y-116400000D02*
X99500000Y-112100000D01*
X74900000Y-41900000D02*
X70422370Y-41900000D01*
X84100000Y-112100000D02*
X99500000Y-112100000D01*
X59500000Y-112100000D02*
X48046000Y-100646000D01*
X48990500Y-77209500D02*
X48800000Y-77400000D01*
X170900000Y-41900000D02*
X146900000Y-41900000D01*
X79800000Y-116400000D02*
X84100000Y-112100000D01*
X108100000Y-112100000D02*
X123500000Y-112100000D01*
X228100000Y-112100000D02*
X243500000Y-112100000D01*
X127800000Y-116400000D02*
X123500000Y-112100000D01*
X223800000Y-116400000D02*
X219500000Y-112100000D01*
X204100000Y-112100000D02*
X219500000Y-112100000D01*
X48046000Y-100646000D02*
X48046000Y-78154000D01*
X175800000Y-116400000D02*
X171500000Y-112100000D01*
X180100000Y-112100000D02*
X195500000Y-112100000D01*
X132100000Y-112100000D02*
X147500000Y-112100000D01*
X175800000Y-116400000D02*
X180100000Y-112100000D01*
X74900000Y-40900000D02*
X74505550Y-41294450D01*
X228400000Y-113100000D02*
X244035094Y-113100000D01*
X103090500Y-116155406D02*
X100035094Y-113100000D01*
X84400000Y-113100000D02*
X100035094Y-113100000D01*
X99294450Y-41294450D02*
X98900000Y-40900000D01*
X105100000Y-116400000D02*
X108400000Y-113100000D01*
X54776000Y-76300000D02*
X54476000Y-76600000D01*
X223090500Y-116155406D02*
X220035094Y-113100000D01*
X103090500Y-116644594D02*
X103090500Y-116155406D01*
X247090500Y-116155406D02*
X244035094Y-113100000D01*
X79436406Y-116990500D02*
X79090500Y-116644594D01*
X98505550Y-41294450D02*
X75294450Y-41294450D01*
X151090500Y-116155406D02*
X148035094Y-113100000D01*
X98900000Y-40900000D02*
X98505550Y-41294450D01*
X242505550Y-41294450D02*
X219294450Y-41294450D01*
X223436406Y-116990500D02*
X223090500Y-116644594D01*
X201100000Y-116400000D02*
X204400000Y-113100000D01*
X153100000Y-116400000D02*
X152509500Y-116990500D01*
X54776000Y-57187160D02*
X54776000Y-76300000D01*
X47792000Y-100751210D02*
X47792000Y-77572906D01*
X199090500Y-116644594D02*
X199090500Y-116155406D01*
X74505550Y-41294450D02*
X70668710Y-41294450D01*
X105100000Y-116400000D02*
X104509500Y-116990500D01*
X129100000Y-116400000D02*
X132400000Y-113100000D01*
X48764906Y-76600000D02*
X51200000Y-76600000D01*
X122900000Y-40900000D02*
X122505550Y-41294450D01*
X132400000Y-113100000D02*
X148035094Y-113100000D01*
X127436406Y-116990500D02*
X127090500Y-116644594D01*
X170900000Y-40900000D02*
X170505550Y-41294450D01*
X128509500Y-116990500D02*
X127436406Y-116990500D01*
X104509500Y-116990500D02*
X103436406Y-116990500D01*
X70668710Y-41294450D02*
X54776000Y-57187160D01*
X194900000Y-40900000D02*
X194505550Y-41294450D01*
X147294450Y-41294450D02*
X146900000Y-40900000D01*
X156400000Y-113100000D02*
X172035094Y-113100000D01*
X223090500Y-116644594D02*
X223090500Y-116155406D01*
X199436406Y-116990500D02*
X199090500Y-116644594D01*
X127090500Y-116644594D02*
X127090500Y-116155406D01*
X47792000Y-77572906D02*
X48764906Y-76600000D01*
X195294450Y-41294450D02*
X194900000Y-40900000D01*
X200509500Y-116990500D02*
X199436406Y-116990500D01*
X219294450Y-41294450D02*
X218900000Y-40900000D01*
X225100000Y-116400000D02*
X228400000Y-113100000D01*
X152509500Y-116990500D02*
X151436406Y-116990500D01*
X201100000Y-116400000D02*
X200509500Y-116990500D01*
X127090500Y-116155406D02*
X124035094Y-113100000D01*
X122505550Y-41294450D02*
X99294450Y-41294450D01*
X81100000Y-116400000D02*
X84400000Y-113100000D01*
X123294450Y-41294450D02*
X122900000Y-40900000D01*
X218505550Y-41294450D02*
X195294450Y-41294450D01*
X177100000Y-116400000D02*
X176509500Y-116990500D01*
X129100000Y-116400000D02*
X128509500Y-116990500D01*
X218900000Y-40900000D02*
X218505550Y-41294450D01*
X79090500Y-116644594D02*
X79090500Y-116155406D01*
X248509500Y-116990500D02*
X247436406Y-116990500D01*
X151436406Y-116990500D02*
X151090500Y-116644594D01*
X146900000Y-40900000D02*
X146505550Y-41294450D01*
X54476000Y-76600000D02*
X51200000Y-76600000D01*
X175090500Y-116155406D02*
X172035094Y-113100000D01*
X225100000Y-116400000D02*
X224509500Y-116990500D01*
X76035094Y-113100000D02*
X60140790Y-113100000D01*
X75294450Y-41294450D02*
X74900000Y-40900000D01*
X60140790Y-113100000D02*
X47792000Y-100751210D01*
X194505550Y-41294450D02*
X171294450Y-41294450D01*
X247090500Y-116644594D02*
X247090500Y-116155406D01*
X170505550Y-41294450D02*
X147294450Y-41294450D01*
X180400000Y-113100000D02*
X196035094Y-113100000D01*
X175090500Y-116644594D02*
X175090500Y-116155406D01*
X103436406Y-116990500D02*
X103090500Y-116644594D01*
X108400000Y-113100000D02*
X124035094Y-113100000D01*
X249100000Y-116400000D02*
X248509500Y-116990500D01*
X199090500Y-116155406D02*
X196035094Y-113100000D01*
X177100000Y-116400000D02*
X180400000Y-113100000D01*
X146505550Y-41294450D02*
X123294450Y-41294450D01*
X171294450Y-41294450D02*
X170900000Y-40900000D01*
X81100000Y-116400000D02*
X80509500Y-116990500D01*
X80509500Y-116990500D02*
X79436406Y-116990500D01*
X175436406Y-116990500D02*
X175090500Y-116644594D01*
X176509500Y-116990500D02*
X175436406Y-116990500D01*
X224509500Y-116990500D02*
X223436406Y-116990500D01*
X153100000Y-116400000D02*
X156400000Y-113100000D01*
X247436406Y-116990500D02*
X247090500Y-116644594D01*
X151090500Y-116644594D02*
X151090500Y-116155406D01*
X242900000Y-40900000D02*
X242505550Y-41294450D01*
X79090500Y-116155406D02*
X76035094Y-113100000D01*
X204400000Y-113100000D02*
X220035094Y-113100000D01*
X55792000Y-81527094D02*
X58000000Y-83735094D01*
X250245500Y-49545500D02*
X248131000Y-47431000D01*
X58000000Y-83735094D02*
X58000000Y-85000000D01*
X55792000Y-57608000D02*
X55792000Y-81527094D01*
X59500000Y-86500000D02*
X60500000Y-86500000D01*
X248131000Y-47431000D02*
X65969000Y-47431000D01*
X58000000Y-85000000D02*
X59500000Y-86500000D01*
X65969000Y-47431000D02*
X55792000Y-57608000D01*
X56600000Y-89500000D02*
X57000000Y-89100000D01*
X56600000Y-94100000D02*
X56600000Y-89500000D01*
X226245500Y-49545500D02*
X203145500Y-49545500D01*
X203145500Y-49545500D02*
X201285000Y-47685000D01*
X201285000Y-47685000D02*
X68315000Y-47685000D01*
X65500000Y-52140790D02*
X56046000Y-61594790D01*
X65500000Y-50500000D02*
X65500000Y-52140790D01*
X56046000Y-61594790D02*
X56046000Y-80946000D01*
X56046000Y-80946000D02*
X60400000Y-85300000D01*
X68315000Y-47685000D02*
X65500000Y-50500000D01*
X57900000Y-94200000D02*
X57900000Y-90600000D01*
X57900000Y-90600000D02*
X58000000Y-90500000D01*
X59900000Y-105100000D02*
X59900000Y-99640790D01*
X62347500Y-97193290D02*
X62347500Y-81600000D01*
X59900000Y-99640790D02*
X62347500Y-97193290D01*
X64400000Y-68900000D02*
X63600000Y-69700000D01*
X67100000Y-107000000D02*
X61800000Y-107000000D01*
X61800000Y-107000000D02*
X59900000Y-105100000D01*
X62347500Y-81600000D02*
X60700000Y-79952500D01*
X63600000Y-69700000D02*
X63600000Y-74900000D01*
X65200000Y-68900000D02*
X64400000Y-68900000D01*
X60700000Y-79952500D02*
X60700000Y-76800000D01*
X179145500Y-49545500D02*
X177539000Y-47939000D01*
X177539000Y-47939000D02*
X70061000Y-47939000D01*
X56300000Y-61700000D02*
X56300000Y-78800000D01*
X63900000Y-79200000D02*
X64900000Y-79200000D01*
X202245500Y-49545500D02*
X179145500Y-49545500D01*
X67046000Y-81346000D02*
X67046000Y-84754000D01*
X56300000Y-78800000D02*
X57800000Y-80300000D01*
X70061000Y-47939000D02*
X56300000Y-61700000D01*
X66500000Y-85300000D02*
X65400000Y-85300000D01*
X64900000Y-79200000D02*
X67046000Y-81346000D01*
X67046000Y-84754000D02*
X66500000Y-85300000D01*
X108000000Y-105384000D02*
X107654000Y-105038000D01*
X63738000Y-105038000D02*
X63400000Y-104700000D01*
X134000000Y-105638000D02*
X133746000Y-105384000D01*
X133746000Y-105384000D02*
X108000000Y-105384000D01*
X63400000Y-104700000D02*
X63400000Y-87400000D01*
X63400000Y-87400000D02*
X63700000Y-87100000D01*
X138792000Y-105892000D02*
X138538000Y-105638000D01*
X138538000Y-105638000D02*
X134000000Y-105638000D01*
X107654000Y-105038000D02*
X63738000Y-105038000D01*
X161992000Y-105892000D02*
X138792000Y-105892000D01*
X163100000Y-107000000D02*
X161992000Y-105892000D01*
X66600000Y-87800000D02*
X65300000Y-87800000D01*
X67300000Y-87100000D02*
X66600000Y-87800000D01*
X128247000Y-48193000D02*
X71607000Y-48193000D01*
X71607000Y-48193000D02*
X56554000Y-63246000D01*
X178245500Y-49545500D02*
X155080594Y-49545500D01*
X67300000Y-80700000D02*
X67300000Y-87100000D01*
X56554000Y-77494790D02*
X58259210Y-79200000D01*
X65600000Y-79000000D02*
X67300000Y-80700000D01*
X155080594Y-49545500D02*
X153881094Y-48346000D01*
X128400000Y-48346000D02*
X128247000Y-48193000D01*
X56554000Y-63246000D02*
X56554000Y-77494790D01*
X153881094Y-48346000D02*
X128400000Y-48346000D01*
X60000000Y-93700000D02*
X60000000Y-91900000D01*
X59700000Y-94000000D02*
X60000000Y-93700000D01*
X76254500Y-49545500D02*
X82245500Y-49545500D01*
X69700000Y-56100000D02*
X76254500Y-49545500D01*
X67800000Y-56900000D02*
X68600000Y-56100000D01*
X68600000Y-56100000D02*
X69700000Y-56100000D01*
X65200000Y-70200000D02*
X67100000Y-70200000D01*
X67800000Y-69500000D02*
X67800000Y-56900000D01*
X67100000Y-70200000D02*
X67800000Y-69500000D01*
X62400000Y-105546000D02*
X62200000Y-105346000D01*
X115100000Y-107000000D02*
X113992000Y-105892000D01*
X62146000Y-78551116D02*
X62146000Y-76000000D01*
X90005210Y-105546000D02*
X62400000Y-105546000D01*
X62146000Y-76000000D02*
X61946000Y-75800000D01*
X62855500Y-94863500D02*
X62855500Y-79260616D01*
X62855500Y-79260616D02*
X62146000Y-78551116D01*
X61400000Y-75800000D02*
X61400000Y-73900000D01*
X90351210Y-105892000D02*
X90005210Y-105546000D01*
X62200000Y-104000000D02*
X62892000Y-103308000D01*
X62892000Y-94900000D02*
X62855500Y-94863500D01*
X61946000Y-75800000D02*
X61400000Y-75800000D01*
X62892000Y-103308000D02*
X62892000Y-94900000D01*
X113992000Y-105892000D02*
X90351210Y-105892000D01*
X62200000Y-105346000D02*
X62200000Y-104000000D01*
X61400000Y-73900000D02*
X60200000Y-72700000D01*
X90110420Y-105292000D02*
X63000000Y-105292000D01*
X61100000Y-71500000D02*
X60100000Y-71500000D01*
X63146000Y-104454000D02*
X63146000Y-88100000D01*
X62800000Y-104800000D02*
X63146000Y-104454000D01*
X63109500Y-88063500D02*
X63109500Y-79155406D01*
X62400000Y-78445906D02*
X62400000Y-72800000D01*
X63146000Y-88100000D02*
X63109500Y-88063500D01*
X62400000Y-72800000D02*
X61100000Y-71500000D01*
X137992000Y-105892000D02*
X114351210Y-105892000D01*
X114097210Y-105638000D02*
X90456420Y-105638000D01*
X114351210Y-105892000D02*
X114097210Y-105638000D01*
X63109500Y-79155406D02*
X62400000Y-78445906D01*
X90456420Y-105638000D02*
X90110420Y-105292000D01*
X63000000Y-105292000D02*
X62800000Y-105092000D01*
X62800000Y-105092000D02*
X62800000Y-104800000D01*
X139100000Y-107000000D02*
X137992000Y-105892000D01*
X154245500Y-49545500D02*
X131145500Y-49545500D01*
X67038000Y-66594790D02*
X66786790Y-66846000D01*
X60418906Y-66846000D02*
X59800000Y-67464906D01*
X131145500Y-49545500D02*
X130200000Y-48600000D01*
X73053000Y-48447000D02*
X67038000Y-54462000D01*
X59800000Y-67464906D02*
X59800000Y-68600000D01*
X59800000Y-68600000D02*
X60200000Y-69000000D01*
X130200000Y-48600000D02*
X84000000Y-48600000D01*
X66786790Y-66846000D02*
X60418906Y-66846000D01*
X83847000Y-48447000D02*
X73053000Y-48447000D01*
X67038000Y-54462000D02*
X67038000Y-66594790D01*
X84000000Y-48600000D02*
X83847000Y-48447000D01*
X67292000Y-56689580D02*
X67292000Y-66700000D01*
X67292000Y-66700000D02*
X66892000Y-67100000D01*
X108145500Y-49545500D02*
X107555000Y-48955000D01*
X72400000Y-50800000D02*
X72400000Y-51840790D01*
X61900000Y-67700000D02*
X60400000Y-67700000D01*
X74499000Y-48701000D02*
X72400000Y-50800000D01*
X105645000Y-48955000D02*
X105308500Y-49291500D01*
X66892000Y-67100000D02*
X62500000Y-67100000D01*
X83701000Y-48701000D02*
X74499000Y-48701000D01*
X68694790Y-55546000D02*
X68435580Y-55546000D01*
X107555000Y-48955000D02*
X105645000Y-48955000D01*
X68435580Y-55546000D02*
X67292000Y-56689580D01*
X72400000Y-51840790D02*
X68694790Y-55546000D01*
X84291500Y-49291500D02*
X83701000Y-48701000D01*
X105308500Y-49291500D02*
X84291500Y-49291500D01*
X62500000Y-67100000D02*
X61900000Y-67700000D01*
X130245500Y-49545500D02*
X108145500Y-49545500D01*
X67046000Y-67700000D02*
X65200000Y-67700000D01*
X75645000Y-48955000D02*
X68800000Y-55800000D01*
X68540790Y-55800000D02*
X67546000Y-56794790D01*
X83545500Y-49545500D02*
X82955000Y-48955000D01*
X106245500Y-49545500D02*
X83545500Y-49545500D01*
X82955000Y-48955000D02*
X75645000Y-48955000D01*
X67546000Y-67200000D02*
X67046000Y-67700000D01*
X68800000Y-55800000D02*
X68540790Y-55800000D01*
X67546000Y-56794790D02*
X67546000Y-67200000D01*
X64400000Y-76900000D02*
X64400000Y-75000000D01*
X89900000Y-105800000D02*
X61600000Y-105800000D01*
X62601500Y-97298500D02*
X62601500Y-81300000D01*
X64400000Y-75000000D02*
X64500000Y-74900000D01*
X91100000Y-107000000D02*
X89900000Y-105800000D01*
X61100000Y-105300000D02*
X61100000Y-98800000D01*
X62601500Y-81300000D02*
X61400000Y-80098500D01*
X61100000Y-98800000D02*
X62601500Y-97298500D01*
X61400000Y-80098500D02*
X61400000Y-77600000D01*
X65200000Y-71500000D02*
X64500000Y-72200000D01*
X61600000Y-105800000D02*
X61100000Y-105300000D01*
X64500000Y-72200000D02*
X64500000Y-74900000D01*
M02*
