%TF.GenerationSoftware,KiCad,Pcbnew,6.0.8+dfsg-1~bpo11+1*%
%TF.CreationDate,2023-08-01T08:48:22-04:00*%
%TF.ProjectId,14_8x32_self_capacitance,31345f38-7833-4325-9f73-656c665f6361,rev?*%
%TF.SameCoordinates,Original*%
%TF.FileFunction,Drillmap*%
%TF.FilePolarity,Positive*%
%FSLAX45Y45*%
G04 Gerber Fmt 4.5, Leading zero omitted, Abs format (unit mm)*
G04 Created by KiCad (PCBNEW 6.0.8+dfsg-1~bpo11+1) date 2023-08-01 08:48:22*
%MOMM*%
%LPD*%
G01*
G04 APERTURE LIST*
%ADD10C,0.100000*%
%ADD11C,0.200000*%
G04 APERTURE END LIST*
D10*
X4630000Y-3880000D02*
X26520000Y-3880000D01*
X26520000Y-3880000D02*
X26520000Y-11960000D01*
X26520000Y-11960000D02*
X4630000Y-11960000D01*
X4630000Y-11960000D02*
X4630000Y-3880000D01*
D11*
X4882619Y-12275476D02*
X4882619Y-12075476D01*
X4930238Y-12075476D01*
X4958810Y-12085000D01*
X4977857Y-12104048D01*
X4987381Y-12123095D01*
X4996905Y-12161190D01*
X4996905Y-12189762D01*
X4987381Y-12227857D01*
X4977857Y-12246905D01*
X4958810Y-12265952D01*
X4930238Y-12275476D01*
X4882619Y-12275476D01*
X5082619Y-12275476D02*
X5082619Y-12142143D01*
X5082619Y-12180238D02*
X5092143Y-12161190D01*
X5101667Y-12151667D01*
X5120714Y-12142143D01*
X5139762Y-12142143D01*
X5206429Y-12275476D02*
X5206429Y-12142143D01*
X5206429Y-12075476D02*
X5196905Y-12085000D01*
X5206429Y-12094524D01*
X5215952Y-12085000D01*
X5206429Y-12075476D01*
X5206429Y-12094524D01*
X5330238Y-12275476D02*
X5311190Y-12265952D01*
X5301667Y-12246905D01*
X5301667Y-12075476D01*
X5435000Y-12275476D02*
X5415952Y-12265952D01*
X5406429Y-12246905D01*
X5406429Y-12075476D01*
X5663571Y-12275476D02*
X5663571Y-12075476D01*
X5730238Y-12218333D01*
X5796905Y-12075476D01*
X5796905Y-12275476D01*
X5977857Y-12275476D02*
X5977857Y-12170714D01*
X5968333Y-12151667D01*
X5949286Y-12142143D01*
X5911190Y-12142143D01*
X5892143Y-12151667D01*
X5977857Y-12265952D02*
X5958809Y-12275476D01*
X5911190Y-12275476D01*
X5892143Y-12265952D01*
X5882619Y-12246905D01*
X5882619Y-12227857D01*
X5892143Y-12208809D01*
X5911190Y-12199286D01*
X5958809Y-12199286D01*
X5977857Y-12189762D01*
X6073095Y-12142143D02*
X6073095Y-12342143D01*
X6073095Y-12151667D02*
X6092143Y-12142143D01*
X6130238Y-12142143D01*
X6149286Y-12151667D01*
X6158809Y-12161190D01*
X6168333Y-12180238D01*
X6168333Y-12237381D01*
X6158809Y-12256428D01*
X6149286Y-12265952D01*
X6130238Y-12275476D01*
X6092143Y-12275476D01*
X6073095Y-12265952D01*
X6254048Y-12256428D02*
X6263571Y-12265952D01*
X6254048Y-12275476D01*
X6244524Y-12265952D01*
X6254048Y-12256428D01*
X6254048Y-12275476D01*
X6254048Y-12151667D02*
X6263571Y-12161190D01*
X6254048Y-12170714D01*
X6244524Y-12161190D01*
X6254048Y-12151667D01*
X6254048Y-12170714D01*
M02*
