G04 #@! TF.GenerationSoftware,KiCad,Pcbnew,6.0.8+dfsg-1~bpo11+1*
G04 #@! TF.CreationDate,2023-08-01T08:47:41-04:00*
G04 #@! TF.ProjectId,14_8x32_self_capacitance,31345f38-7833-4325-9f73-656c665f6361,rev?*
G04 #@! TF.SameCoordinates,Original*
G04 #@! TF.FileFunction,Legend,Top*
G04 #@! TF.FilePolarity,Positive*
%FSLAX46Y46*%
G04 Gerber Fmt 4.6, Leading zero omitted, Abs format (unit mm)*
G04 Created by KiCad (PCBNEW 6.0.8+dfsg-1~bpo11+1) date 2023-08-01 08:47:41*
%MOMM*%
%LPD*%
G01*
G04 APERTURE LIST*
G04 Aperture macros list*
%AMFreePoly0*
4,1,13,2.417426,2.592426,2.435000,2.550000,2.435000,-2.450000,2.417426,-2.492426,2.375000,-2.510000,-2.625000,-2.510000,-2.667426,-2.492426,-2.685000,-2.450000,-2.685000,2.550000,-2.667426,2.592426,-2.625000,2.610000,2.375000,2.610000,2.417426,2.592426,2.417426,2.592426,$1*%
G04 Aperture macros list end*
%ADD10C,0.150000*%
%ADD11C,0.050000*%
%ADD12FreePoly0,0.000000*%
G04 APERTURE END LIST*
D10*
X62253452Y-108650952D02*
X62158214Y-108603333D01*
X62110595Y-108555714D01*
X62062976Y-108460476D01*
X62062976Y-108412857D01*
X62110595Y-108317619D01*
X62158214Y-108270000D01*
X62253452Y-108222380D01*
X62443928Y-108222380D01*
X62539166Y-108270000D01*
X62586785Y-108317619D01*
X62634404Y-108412857D01*
X62634404Y-108460476D01*
X62586785Y-108555714D01*
X62539166Y-108603333D01*
X62443928Y-108650952D01*
X62253452Y-108650952D01*
X62158214Y-108698571D01*
X62110595Y-108746190D01*
X62062976Y-108841428D01*
X62062976Y-109031904D01*
X62110595Y-109127142D01*
X62158214Y-109174761D01*
X62253452Y-109222380D01*
X62443928Y-109222380D01*
X62539166Y-109174761D01*
X62586785Y-109127142D01*
X62634404Y-109031904D01*
X62634404Y-108841428D01*
X62586785Y-108746190D01*
X62539166Y-108698571D01*
X62443928Y-108650952D01*
X62967738Y-109222380D02*
X63491547Y-108555714D01*
X62967738Y-108555714D02*
X63491547Y-109222380D01*
X63777261Y-108222380D02*
X64396309Y-108222380D01*
X64062976Y-108603333D01*
X64205833Y-108603333D01*
X64301071Y-108650952D01*
X64348690Y-108698571D01*
X64396309Y-108793809D01*
X64396309Y-109031904D01*
X64348690Y-109127142D01*
X64301071Y-109174761D01*
X64205833Y-109222380D01*
X63920119Y-109222380D01*
X63824880Y-109174761D01*
X63777261Y-109127142D01*
X64777261Y-108317619D02*
X64824880Y-108270000D01*
X64920119Y-108222380D01*
X65158214Y-108222380D01*
X65253452Y-108270000D01*
X65301071Y-108317619D01*
X65348690Y-108412857D01*
X65348690Y-108508095D01*
X65301071Y-108650952D01*
X64729642Y-109222380D01*
X65348690Y-109222380D01*
X67110595Y-109127142D02*
X67062976Y-109174761D01*
X66920119Y-109222380D01*
X66824880Y-109222380D01*
X66682023Y-109174761D01*
X66586785Y-109079523D01*
X66539166Y-108984285D01*
X66491547Y-108793809D01*
X66491547Y-108650952D01*
X66539166Y-108460476D01*
X66586785Y-108365238D01*
X66682023Y-108270000D01*
X66824880Y-108222380D01*
X66920119Y-108222380D01*
X67062976Y-108270000D01*
X67110595Y-108317619D01*
X67967738Y-109222380D02*
X67967738Y-108698571D01*
X67920119Y-108603333D01*
X67824880Y-108555714D01*
X67634404Y-108555714D01*
X67539166Y-108603333D01*
X67967738Y-109174761D02*
X67872500Y-109222380D01*
X67634404Y-109222380D01*
X67539166Y-109174761D01*
X67491547Y-109079523D01*
X67491547Y-108984285D01*
X67539166Y-108889047D01*
X67634404Y-108841428D01*
X67872500Y-108841428D01*
X67967738Y-108793809D01*
X68443928Y-108555714D02*
X68443928Y-109555714D01*
X68443928Y-108603333D02*
X68539166Y-108555714D01*
X68729642Y-108555714D01*
X68824880Y-108603333D01*
X68872500Y-108650952D01*
X68920119Y-108746190D01*
X68920119Y-109031904D01*
X68872500Y-109127142D01*
X68824880Y-109174761D01*
X68729642Y-109222380D01*
X68539166Y-109222380D01*
X68443928Y-109174761D01*
X69777261Y-109222380D02*
X69777261Y-108698571D01*
X69729642Y-108603333D01*
X69634404Y-108555714D01*
X69443928Y-108555714D01*
X69348690Y-108603333D01*
X69777261Y-109174761D02*
X69682023Y-109222380D01*
X69443928Y-109222380D01*
X69348690Y-109174761D01*
X69301071Y-109079523D01*
X69301071Y-108984285D01*
X69348690Y-108889047D01*
X69443928Y-108841428D01*
X69682023Y-108841428D01*
X69777261Y-108793809D01*
X70682023Y-109174761D02*
X70586785Y-109222380D01*
X70396309Y-109222380D01*
X70301071Y-109174761D01*
X70253452Y-109127142D01*
X70205833Y-109031904D01*
X70205833Y-108746190D01*
X70253452Y-108650952D01*
X70301071Y-108603333D01*
X70396309Y-108555714D01*
X70586785Y-108555714D01*
X70682023Y-108603333D01*
X71110595Y-109222380D02*
X71110595Y-108555714D01*
X71110595Y-108222380D02*
X71062976Y-108270000D01*
X71110595Y-108317619D01*
X71158214Y-108270000D01*
X71110595Y-108222380D01*
X71110595Y-108317619D01*
X71443928Y-108555714D02*
X71824880Y-108555714D01*
X71586785Y-108222380D02*
X71586785Y-109079523D01*
X71634404Y-109174761D01*
X71729642Y-109222380D01*
X71824880Y-109222380D01*
X72158214Y-109222380D02*
X72158214Y-108555714D01*
X72158214Y-108222380D02*
X72110595Y-108270000D01*
X72158214Y-108317619D01*
X72205833Y-108270000D01*
X72158214Y-108222380D01*
X72158214Y-108317619D01*
X72539166Y-108555714D02*
X72777261Y-109222380D01*
X73015357Y-108555714D01*
X73777261Y-109174761D02*
X73682023Y-109222380D01*
X73491547Y-109222380D01*
X73396309Y-109174761D01*
X73348690Y-109079523D01*
X73348690Y-108698571D01*
X73396309Y-108603333D01*
X73491547Y-108555714D01*
X73682023Y-108555714D01*
X73777261Y-108603333D01*
X73824880Y-108698571D01*
X73824880Y-108793809D01*
X73348690Y-108889047D01*
X74967738Y-109174761D02*
X75110595Y-109222380D01*
X75348690Y-109222380D01*
X75443928Y-109174761D01*
X75491547Y-109127142D01*
X75539166Y-109031904D01*
X75539166Y-108936666D01*
X75491547Y-108841428D01*
X75443928Y-108793809D01*
X75348690Y-108746190D01*
X75158214Y-108698571D01*
X75062976Y-108650952D01*
X75015357Y-108603333D01*
X74967738Y-108508095D01*
X74967738Y-108412857D01*
X75015357Y-108317619D01*
X75062976Y-108270000D01*
X75158214Y-108222380D01*
X75396309Y-108222380D01*
X75539166Y-108270000D01*
X76348690Y-109174761D02*
X76253452Y-109222380D01*
X76062976Y-109222380D01*
X75967738Y-109174761D01*
X75920119Y-109079523D01*
X75920119Y-108698571D01*
X75967738Y-108603333D01*
X76062976Y-108555714D01*
X76253452Y-108555714D01*
X76348690Y-108603333D01*
X76396309Y-108698571D01*
X76396309Y-108793809D01*
X75920119Y-108889047D01*
X76824880Y-108555714D02*
X76824880Y-109222380D01*
X76824880Y-108650952D02*
X76872500Y-108603333D01*
X76967738Y-108555714D01*
X77110595Y-108555714D01*
X77205833Y-108603333D01*
X77253452Y-108698571D01*
X77253452Y-109222380D01*
X77682023Y-109174761D02*
X77777261Y-109222380D01*
X77967738Y-109222380D01*
X78062976Y-109174761D01*
X78110595Y-109079523D01*
X78110595Y-109031904D01*
X78062976Y-108936666D01*
X77967738Y-108889047D01*
X77824880Y-108889047D01*
X77729642Y-108841428D01*
X77682023Y-108746190D01*
X77682023Y-108698571D01*
X77729642Y-108603333D01*
X77824880Y-108555714D01*
X77967738Y-108555714D01*
X78062976Y-108603333D01*
X78682023Y-109222380D02*
X78586785Y-109174761D01*
X78539166Y-109127142D01*
X78491547Y-109031904D01*
X78491547Y-108746190D01*
X78539166Y-108650952D01*
X78586785Y-108603333D01*
X78682023Y-108555714D01*
X78824880Y-108555714D01*
X78920119Y-108603333D01*
X78967738Y-108650952D01*
X79015357Y-108746190D01*
X79015357Y-109031904D01*
X78967738Y-109127142D01*
X78920119Y-109174761D01*
X78824880Y-109222380D01*
X78682023Y-109222380D01*
X79443928Y-109222380D02*
X79443928Y-108555714D01*
X79443928Y-108746190D02*
X79491547Y-108650952D01*
X79539166Y-108603333D01*
X79634404Y-108555714D01*
X79729642Y-108555714D01*
X62062976Y-110784761D02*
X62158214Y-110832380D01*
X62348690Y-110832380D01*
X62443928Y-110784761D01*
X62491547Y-110689523D01*
X62491547Y-110641904D01*
X62443928Y-110546666D01*
X62348690Y-110499047D01*
X62205833Y-110499047D01*
X62110595Y-110451428D01*
X62062976Y-110356190D01*
X62062976Y-110308571D01*
X62110595Y-110213333D01*
X62205833Y-110165714D01*
X62348690Y-110165714D01*
X62443928Y-110213333D01*
X63301071Y-110784761D02*
X63205833Y-110832380D01*
X63015357Y-110832380D01*
X62920119Y-110784761D01*
X62872500Y-110689523D01*
X62872500Y-110308571D01*
X62920119Y-110213333D01*
X63015357Y-110165714D01*
X63205833Y-110165714D01*
X63301071Y-110213333D01*
X63348690Y-110308571D01*
X63348690Y-110403809D01*
X62872500Y-110499047D01*
X63920119Y-110832380D02*
X63824880Y-110784761D01*
X63777261Y-110689523D01*
X63777261Y-109832380D01*
X64158214Y-110165714D02*
X64539166Y-110165714D01*
X64301071Y-110832380D02*
X64301071Y-109975238D01*
X64348690Y-109880000D01*
X64443928Y-109832380D01*
X64539166Y-109832380D01*
X64872500Y-110451428D02*
X65634404Y-110451428D01*
X66110595Y-110832380D02*
X66110595Y-110165714D01*
X66110595Y-110260952D02*
X66158214Y-110213333D01*
X66253452Y-110165714D01*
X66396309Y-110165714D01*
X66491547Y-110213333D01*
X66539166Y-110308571D01*
X66539166Y-110832380D01*
X66539166Y-110308571D02*
X66586785Y-110213333D01*
X66682023Y-110165714D01*
X66824880Y-110165714D01*
X66920119Y-110213333D01*
X66967738Y-110308571D01*
X66967738Y-110832380D01*
X67586785Y-110832380D02*
X67491547Y-110784761D01*
X67443928Y-110737142D01*
X67396309Y-110641904D01*
X67396309Y-110356190D01*
X67443928Y-110260952D01*
X67491547Y-110213333D01*
X67586785Y-110165714D01*
X67729642Y-110165714D01*
X67824880Y-110213333D01*
X67872500Y-110260952D01*
X67920119Y-110356190D01*
X67920119Y-110641904D01*
X67872500Y-110737142D01*
X67824880Y-110784761D01*
X67729642Y-110832380D01*
X67586785Y-110832380D01*
X68777261Y-110832380D02*
X68777261Y-109832380D01*
X68777261Y-110784761D02*
X68682023Y-110832380D01*
X68491547Y-110832380D01*
X68396309Y-110784761D01*
X68348690Y-110737142D01*
X68301071Y-110641904D01*
X68301071Y-110356190D01*
X68348690Y-110260952D01*
X68396309Y-110213333D01*
X68491547Y-110165714D01*
X68682023Y-110165714D01*
X68777261Y-110213333D01*
X69634404Y-110784761D02*
X69539166Y-110832380D01*
X69348690Y-110832380D01*
X69253452Y-110784761D01*
X69205833Y-110689523D01*
X69205833Y-110308571D01*
X69253452Y-110213333D01*
X69348690Y-110165714D01*
X69539166Y-110165714D01*
X69634404Y-110213333D01*
X69682023Y-110308571D01*
X69682023Y-110403809D01*
X69205833Y-110499047D01*
X70777261Y-110165714D02*
X71015357Y-110832380D01*
X71253452Y-110165714D01*
X71586785Y-109927619D02*
X71634404Y-109880000D01*
X71729642Y-109832380D01*
X71967738Y-109832380D01*
X72062976Y-109880000D01*
X72110595Y-109927619D01*
X72158214Y-110022857D01*
X72158214Y-110118095D01*
X72110595Y-110260952D01*
X71539166Y-110832380D01*
X72158214Y-110832380D01*
X73813095Y-52952380D02*
X73813095Y-53761904D01*
X73860714Y-53857142D01*
X73908333Y-53904761D01*
X74003571Y-53952380D01*
X74194047Y-53952380D01*
X74289285Y-53904761D01*
X74336904Y-53857142D01*
X74384523Y-53761904D01*
X74384523Y-52952380D01*
X75336904Y-52952380D02*
X74860714Y-52952380D01*
X74813095Y-53428571D01*
X74860714Y-53380952D01*
X74955952Y-53333333D01*
X75194047Y-53333333D01*
X75289285Y-53380952D01*
X75336904Y-53428571D01*
X75384523Y-53523809D01*
X75384523Y-53761904D01*
X75336904Y-53857142D01*
X75289285Y-53904761D01*
X75194047Y-53952380D01*
X74955952Y-53952380D01*
X74860714Y-53904761D01*
X74813095Y-53857142D01*
%LPC*%
D11*
X68200000Y-56600000D02*
X260200000Y-56600000D01*
X260200000Y-56600000D02*
X260200000Y-104600000D01*
X260200000Y-104600000D02*
X68200000Y-104600000D01*
X68200000Y-104600000D02*
X68200000Y-56600000D01*
G36*
X68200000Y-56600000D02*
G01*
X260200000Y-56600000D01*
X260200000Y-104600000D01*
X68200000Y-104600000D01*
X68200000Y-56600000D01*
G37*
D12*
X71325000Y-59650000D03*
X71325000Y-65650000D03*
X71325000Y-71650000D03*
X71325000Y-77650000D03*
X71325000Y-83650000D03*
X71325000Y-89650000D03*
X71325000Y-95650000D03*
X71325000Y-101650000D03*
X77325000Y-59650000D03*
X77325000Y-65650000D03*
X77325000Y-71650000D03*
X77325000Y-77650000D03*
X77325000Y-83650000D03*
X77325000Y-89650000D03*
X77325000Y-95650000D03*
X77325000Y-101650000D03*
X83325000Y-59650000D03*
X83325000Y-65650000D03*
X83325000Y-71650000D03*
X83325000Y-77650000D03*
X83325000Y-83650000D03*
X83325000Y-89650000D03*
X83325000Y-95650000D03*
X83325000Y-101650000D03*
X89325000Y-59650000D03*
X89325000Y-65650000D03*
X89325000Y-71650000D03*
X89325000Y-77650000D03*
X89325000Y-83650000D03*
X89325000Y-89650000D03*
X89325000Y-95650000D03*
X89325000Y-101650000D03*
X95325000Y-59650000D03*
X95325000Y-65650000D03*
X95325000Y-71650000D03*
X95325000Y-77650000D03*
X95325000Y-83650000D03*
X95325000Y-89650000D03*
X95325000Y-95650000D03*
X95325000Y-101650000D03*
X101325000Y-59650000D03*
X101325000Y-65650000D03*
X101325000Y-71650000D03*
X101325000Y-77650000D03*
X101325000Y-83650000D03*
X101325000Y-89650000D03*
X101325000Y-95650000D03*
X101325000Y-101650000D03*
X107325000Y-59650000D03*
X107325000Y-65650000D03*
X107325000Y-71650000D03*
X107325000Y-77650000D03*
X107325000Y-83650000D03*
X107325000Y-89650000D03*
X107325000Y-95650000D03*
X107325000Y-101650000D03*
X113325000Y-59650000D03*
X113325000Y-65650000D03*
X113325000Y-71650000D03*
X113325000Y-77650000D03*
X113325000Y-83650000D03*
X113325000Y-89650000D03*
X113325000Y-95650000D03*
X113325000Y-101650000D03*
X119325000Y-59650000D03*
X119325000Y-65650000D03*
X119325000Y-71650000D03*
X119325000Y-77650000D03*
X119325000Y-83650000D03*
X119325000Y-89650000D03*
X119325000Y-95650000D03*
X119325000Y-101650000D03*
X125325000Y-59650000D03*
X125325000Y-65650000D03*
X125325000Y-71650000D03*
X125325000Y-77650000D03*
X125325000Y-83650000D03*
X125325000Y-89650000D03*
X125325000Y-95650000D03*
X125325000Y-101650000D03*
X131325000Y-59650000D03*
X131325000Y-65650000D03*
X131325000Y-71650000D03*
X131325000Y-77650000D03*
X131325000Y-83650000D03*
X131325000Y-89650000D03*
X131325000Y-95650000D03*
X131325000Y-101650000D03*
X137325000Y-59650000D03*
X137325000Y-65650000D03*
X137325000Y-71650000D03*
X137325000Y-77650000D03*
X137325000Y-83650000D03*
X137325000Y-89650000D03*
X137325000Y-95650000D03*
X137325000Y-101650000D03*
X143325000Y-59650000D03*
X143325000Y-65650000D03*
X143325000Y-71650000D03*
X143325000Y-77650000D03*
X143325000Y-83650000D03*
X143325000Y-89650000D03*
X143325000Y-95650000D03*
X143325000Y-101650000D03*
X149325000Y-59650000D03*
X149325000Y-65650000D03*
X149325000Y-71650000D03*
X149325000Y-77650000D03*
X149325000Y-83650000D03*
X149325000Y-89650000D03*
X149325000Y-95650000D03*
X149325000Y-101650000D03*
X155325000Y-59650000D03*
X155325000Y-65650000D03*
X155325000Y-71650000D03*
X155325000Y-77650000D03*
X155325000Y-83650000D03*
X155325000Y-89650000D03*
X155325000Y-95650000D03*
X155325000Y-101650000D03*
X161325000Y-59650000D03*
X161325000Y-65650000D03*
X161325000Y-71650000D03*
X161325000Y-77650000D03*
X161325000Y-83650000D03*
X161325000Y-89650000D03*
X161325000Y-95650000D03*
X161325000Y-101650000D03*
X167325000Y-59650000D03*
X167325000Y-65650000D03*
X167325000Y-71650000D03*
X167325000Y-77650000D03*
X167325000Y-83650000D03*
X167325000Y-89650000D03*
X167325000Y-95650000D03*
X167325000Y-101650000D03*
X173325000Y-59650000D03*
X173325000Y-65650000D03*
X173325000Y-71650000D03*
X173325000Y-77650000D03*
X173325000Y-83650000D03*
X173325000Y-89650000D03*
X173325000Y-95650000D03*
X173325000Y-101650000D03*
X179325000Y-59650000D03*
X179325000Y-65650000D03*
X179325000Y-71650000D03*
X179325000Y-77650000D03*
X179325000Y-83650000D03*
X179325000Y-89650000D03*
X179325000Y-95650000D03*
X179325000Y-101650000D03*
X185325000Y-59650000D03*
X185325000Y-65650000D03*
X185325000Y-71650000D03*
X185325000Y-77650000D03*
X185325000Y-83650000D03*
X185325000Y-89650000D03*
X185325000Y-95650000D03*
X185325000Y-101650000D03*
X191325000Y-59650000D03*
X191325000Y-65650000D03*
X191325000Y-71650000D03*
X191325000Y-77650000D03*
X191325000Y-83650000D03*
X191325000Y-89650000D03*
X191325000Y-95650000D03*
X191325000Y-101650000D03*
X197325000Y-59650000D03*
X197325000Y-65650000D03*
X197325000Y-71650000D03*
X197325000Y-77650000D03*
X197325000Y-83650000D03*
X197325000Y-89650000D03*
X197325000Y-95650000D03*
X197325000Y-101650000D03*
X203325000Y-59650000D03*
X203325000Y-65650000D03*
X203325000Y-71650000D03*
X203325000Y-77650000D03*
X203325000Y-83650000D03*
X203325000Y-89650000D03*
X203325000Y-95650000D03*
X203325000Y-101650000D03*
X209325000Y-59650000D03*
X209325000Y-65650000D03*
X209325000Y-71650000D03*
X209325000Y-77650000D03*
X209325000Y-83650000D03*
X209325000Y-89650000D03*
X209325000Y-95650000D03*
X209325000Y-101650000D03*
X215325000Y-59650000D03*
X215325000Y-65650000D03*
X215325000Y-71650000D03*
X215325000Y-77650000D03*
X215325000Y-83650000D03*
X215325000Y-89650000D03*
X215325000Y-95650000D03*
X215325000Y-101650000D03*
X221325000Y-59650000D03*
X221325000Y-65650000D03*
X221325000Y-71650000D03*
X221325000Y-77650000D03*
X221325000Y-83650000D03*
X221325000Y-89650000D03*
X221325000Y-95650000D03*
X221325000Y-101650000D03*
X227325000Y-59650000D03*
X227325000Y-65650000D03*
X227325000Y-71650000D03*
X227325000Y-77650000D03*
X227325000Y-83650000D03*
X227325000Y-89650000D03*
X227325000Y-95650000D03*
X227325000Y-101650000D03*
X233325000Y-59650000D03*
X233325000Y-65650000D03*
X233325000Y-71650000D03*
X233325000Y-77650000D03*
X233325000Y-83650000D03*
X233325000Y-89650000D03*
X233325000Y-95650000D03*
X233325000Y-101650000D03*
X239325000Y-59650000D03*
X239325000Y-65650000D03*
X239325000Y-71650000D03*
X239325000Y-77650000D03*
X239325000Y-83650000D03*
X239325000Y-89650000D03*
X239325000Y-95650000D03*
X239325000Y-101650000D03*
X245325000Y-59650000D03*
X245325000Y-65650000D03*
X245325000Y-71650000D03*
X245325000Y-77650000D03*
X245325000Y-83650000D03*
X245325000Y-89650000D03*
X245325000Y-95650000D03*
X245325000Y-101650000D03*
X251325000Y-59650000D03*
X251325000Y-65650000D03*
X251325000Y-71650000D03*
X251325000Y-77650000D03*
X251325000Y-83650000D03*
X251325000Y-89650000D03*
X251325000Y-95650000D03*
X251325000Y-101650000D03*
X257325000Y-59650000D03*
X257325000Y-65650000D03*
X257325000Y-71650000D03*
X257325000Y-77650000D03*
X257325000Y-83650000D03*
X257325000Y-89650000D03*
X257325000Y-95650000D03*
X257325000Y-101650000D03*
M02*
