%TF.GenerationSoftware,KiCad,Pcbnew,6.0.8+dfsg-1~bpo11+1*%
%TF.CreationDate,2023-08-01T08:48:22-04:00*%
%TF.ProjectId,14_8x32_self_capacitance,31345f38-7833-4325-9f73-656c665f6361,rev?*%
%TF.SameCoordinates,Original*%
%TF.FileFunction,Drillmap*%
%TF.FilePolarity,Positive*%
%FSLAX45Y45*%
G04 Gerber Fmt 4.5, Leading zero omitted, Abs format (unit mm)*
G04 Created by KiCad (PCBNEW 6.0.8+dfsg-1~bpo11+1) date 2023-08-01 08:48:22*
%MOMM*%
%LPD*%
G01*
G04 APERTURE LIST*
%ADD10C,0.100000*%
%ADD11C,0.200000*%
%ADD12C,0.040000*%
G04 APERTURE END LIST*
D10*
X4630000Y-3880000D02*
X26520000Y-3880000D01*
X26520000Y-3880000D02*
X26520000Y-11960000D01*
X26520000Y-11960000D02*
X4630000Y-11960000D01*
X4630000Y-11960000D02*
X4630000Y-3880000D01*
D11*
D12*
X4860000Y-7720000D02*
X4900000Y-7760000D01*
X4900000Y-7720000D02*
X4860000Y-7760000D01*
X5090000Y-7760000D02*
X5130000Y-7800000D01*
X5130000Y-7760000D02*
X5090000Y-7800000D01*
X5100000Y-7640000D02*
X5140000Y-7680000D01*
X5140000Y-7640000D02*
X5100000Y-7680000D01*
X5330000Y-7800000D02*
X5370000Y-7840000D01*
X5370000Y-7800000D02*
X5330000Y-7840000D01*
X5450000Y-10910000D02*
X5490000Y-10950000D01*
X5490000Y-10910000D02*
X5450000Y-10950000D01*
X5640000Y-9390000D02*
X5680000Y-9430000D01*
X5680000Y-9390000D02*
X5640000Y-9430000D01*
X5680000Y-8890000D02*
X5720000Y-8930000D01*
X5720000Y-8890000D02*
X5680000Y-8930000D01*
X5740000Y-6890000D02*
X5780000Y-6930000D01*
X5780000Y-6890000D02*
X5740000Y-6930000D01*
X5760000Y-8010000D02*
X5800000Y-8050000D01*
X5800000Y-8010000D02*
X5760000Y-8050000D01*
X5770000Y-9400000D02*
X5810000Y-9440000D01*
X5810000Y-9400000D02*
X5770000Y-9440000D01*
X5780000Y-9030000D02*
X5820000Y-9070000D01*
X5820000Y-9030000D02*
X5780000Y-9070000D01*
X5805921Y-7900000D02*
X5845921Y-7940000D01*
X5845921Y-7900000D02*
X5805921Y-7940000D01*
X5910000Y-7810000D02*
X5950000Y-7850000D01*
X5950000Y-7810000D02*
X5910000Y-7850000D01*
X5945921Y-11490000D02*
X5985921Y-11530000D01*
X5985921Y-11490000D02*
X5945921Y-11530000D01*
X5950000Y-9380000D02*
X5990000Y-9420000D01*
X5990000Y-9380000D02*
X5950000Y-9420000D01*
X5980000Y-9170000D02*
X6020000Y-9210000D01*
X6020000Y-9170000D02*
X5980000Y-9210000D01*
X5990000Y-7130000D02*
X6030000Y-7170000D01*
X6030000Y-7130000D02*
X5990000Y-7170000D01*
X6000000Y-6880000D02*
X6040000Y-6920000D01*
X6040000Y-6880000D02*
X6000000Y-6920000D01*
X6000000Y-7250000D02*
X6040000Y-7290000D01*
X6040000Y-7250000D02*
X6000000Y-7290000D01*
X6020000Y-6750000D02*
X6060000Y-6790000D01*
X6060000Y-6750000D02*
X6020000Y-6790000D01*
X6020000Y-8510000D02*
X6060000Y-8550000D01*
X6060000Y-8510000D02*
X6020000Y-8550000D01*
X6030000Y-8630000D02*
X6070000Y-8670000D01*
X6070000Y-8630000D02*
X6030000Y-8670000D01*
X6050000Y-7660000D02*
X6090000Y-7700000D01*
X6090000Y-7660000D02*
X6050000Y-7700000D01*
X6120000Y-7740000D02*
X6160000Y-7780000D01*
X6160000Y-7740000D02*
X6120000Y-7780000D01*
X6335000Y-7475000D02*
X6375000Y-7515000D01*
X6375000Y-7475000D02*
X6335000Y-7515000D01*
X6350000Y-8690000D02*
X6390000Y-8730000D01*
X6390000Y-8690000D02*
X6350000Y-8730000D01*
X6370000Y-7900000D02*
X6410000Y-7940000D01*
X6410000Y-7900000D02*
X6370000Y-7940000D01*
X6420000Y-7670000D02*
X6460000Y-7710000D01*
X6460000Y-7670000D02*
X6420000Y-7710000D01*
X6495500Y-7254500D02*
X6535500Y-7294500D01*
X6535500Y-7254500D02*
X6495500Y-7294500D01*
X6500000Y-6750000D02*
X6540000Y-6790000D01*
X6540000Y-6750000D02*
X6500000Y-6790000D01*
X6500000Y-6870000D02*
X6540000Y-6910000D01*
X6540000Y-6870000D02*
X6500000Y-6910000D01*
X6500000Y-7000000D02*
X6540000Y-7040000D01*
X6540000Y-7000000D02*
X6500000Y-7040000D01*
X6500000Y-7130000D02*
X6540000Y-7170000D01*
X6540000Y-7130000D02*
X6500000Y-7170000D01*
X6510000Y-8760000D02*
X6550000Y-8800000D01*
X6550000Y-8760000D02*
X6510000Y-8800000D01*
X6510000Y-9020000D02*
X6550000Y-9060000D01*
X6550000Y-9020000D02*
X6510000Y-9060000D01*
X6520000Y-8510000D02*
X6560000Y-8550000D01*
X6560000Y-8510000D02*
X6520000Y-8550000D01*
X6540000Y-7880000D02*
X6580000Y-7920000D01*
X6580000Y-7880000D02*
X6540000Y-7920000D01*
X6660000Y-7860000D02*
X6700000Y-7900000D01*
X6700000Y-7860000D02*
X6660000Y-7900000D01*
X6680000Y-7500000D02*
X6720000Y-7540000D01*
X6720000Y-7500000D02*
X6680000Y-7540000D01*
X6690000Y-10680000D02*
X6730000Y-10720000D01*
X6730000Y-10680000D02*
X6690000Y-10720000D01*
X6690000Y-11620000D02*
X6730000Y-11660000D01*
X6730000Y-11620000D02*
X6690000Y-11660000D01*
X7110000Y-5950000D02*
X7150000Y-5990000D01*
X7150000Y-5950000D02*
X7110000Y-5990000D01*
X7110000Y-6550000D02*
X7150000Y-6590000D01*
X7150000Y-6550000D02*
X7110000Y-6590000D01*
X7110000Y-7150000D02*
X7150000Y-7190000D01*
X7150000Y-7150000D02*
X7110000Y-7190000D01*
X7110000Y-7750000D02*
X7150000Y-7790000D01*
X7150000Y-7750000D02*
X7110000Y-7790000D01*
X7110000Y-8350000D02*
X7150000Y-8390000D01*
X7150000Y-8350000D02*
X7110000Y-8390000D01*
X7110000Y-8950000D02*
X7150000Y-8990000D01*
X7150000Y-8950000D02*
X7110000Y-8990000D01*
X7110000Y-9550000D02*
X7150000Y-9590000D01*
X7150000Y-9550000D02*
X7110000Y-9590000D01*
X7110000Y-10150000D02*
X7150000Y-10190000D01*
X7150000Y-10150000D02*
X7110000Y-10190000D01*
X7360000Y-5420000D02*
X7400000Y-5460000D01*
X7400000Y-5420000D02*
X7360000Y-5460000D01*
X7390000Y-4260000D02*
X7430000Y-4300000D01*
X7430000Y-4260000D02*
X7390000Y-4300000D01*
X7450000Y-4370000D02*
X7490000Y-4410000D01*
X7490000Y-4370000D02*
X7450000Y-4410000D01*
X7470000Y-4070000D02*
X7510000Y-4110000D01*
X7510000Y-4070000D02*
X7470000Y-4110000D01*
X7470000Y-4170000D02*
X7510000Y-4210000D01*
X7510000Y-4170000D02*
X7470000Y-4210000D01*
X7629605Y-4050395D02*
X7669605Y-4090395D01*
X7669605Y-4050395D02*
X7629605Y-4090395D01*
X7710000Y-5950000D02*
X7750000Y-5990000D01*
X7750000Y-5950000D02*
X7710000Y-5990000D01*
X7710000Y-6550000D02*
X7750000Y-6590000D01*
X7750000Y-6550000D02*
X7710000Y-6590000D01*
X7710000Y-7150000D02*
X7750000Y-7190000D01*
X7750000Y-7150000D02*
X7710000Y-7190000D01*
X7710000Y-7750000D02*
X7750000Y-7790000D01*
X7750000Y-7750000D02*
X7710000Y-7790000D01*
X7710000Y-8350000D02*
X7750000Y-8390000D01*
X7750000Y-8350000D02*
X7710000Y-8390000D01*
X7710000Y-8950000D02*
X7750000Y-8990000D01*
X7750000Y-8950000D02*
X7710000Y-8990000D01*
X7710000Y-9550000D02*
X7750000Y-9590000D01*
X7750000Y-9550000D02*
X7710000Y-9590000D01*
X7710000Y-10150000D02*
X7750000Y-10190000D01*
X7750000Y-10150000D02*
X7710000Y-10190000D01*
X7830000Y-11630000D02*
X7870000Y-11670000D01*
X7870000Y-11630000D02*
X7830000Y-11670000D01*
X7840000Y-10680000D02*
X7880000Y-10720000D01*
X7880000Y-10680000D02*
X7840000Y-10720000D01*
X7960000Y-10680000D02*
X8000000Y-10720000D01*
X8000000Y-10680000D02*
X7960000Y-10720000D01*
X7960000Y-11620000D02*
X8000000Y-11660000D01*
X8000000Y-11620000D02*
X7960000Y-11660000D01*
X8090000Y-10680000D02*
X8130000Y-10720000D01*
X8130000Y-10680000D02*
X8090000Y-10720000D01*
X8090000Y-11620000D02*
X8130000Y-11660000D01*
X8130000Y-11620000D02*
X8090000Y-11660000D01*
X8100000Y-11090000D02*
X8140000Y-11130000D01*
X8140000Y-11090000D02*
X8100000Y-11130000D01*
X8106450Y-5223550D02*
X8146450Y-5263550D01*
X8146450Y-5223550D02*
X8106450Y-5263550D01*
X8204550Y-4934550D02*
X8244550Y-4974550D01*
X8244550Y-4934550D02*
X8204550Y-4974550D01*
X8310000Y-5950000D02*
X8350000Y-5990000D01*
X8350000Y-5950000D02*
X8310000Y-5990000D01*
X8310000Y-6550000D02*
X8350000Y-6590000D01*
X8350000Y-6550000D02*
X8310000Y-6590000D01*
X8310000Y-7150000D02*
X8350000Y-7190000D01*
X8350000Y-7150000D02*
X8310000Y-7190000D01*
X8310000Y-7750000D02*
X8350000Y-7790000D01*
X8350000Y-7750000D02*
X8310000Y-7790000D01*
X8310000Y-8350000D02*
X8350000Y-8390000D01*
X8350000Y-8350000D02*
X8310000Y-8390000D01*
X8310000Y-8950000D02*
X8350000Y-8990000D01*
X8350000Y-8950000D02*
X8310000Y-8990000D01*
X8310000Y-9550000D02*
X8350000Y-9590000D01*
X8350000Y-9550000D02*
X8310000Y-9590000D01*
X8310000Y-10150000D02*
X8350000Y-10190000D01*
X8350000Y-10150000D02*
X8310000Y-10190000D01*
X8910000Y-5950000D02*
X8950000Y-5990000D01*
X8950000Y-5950000D02*
X8910000Y-5990000D01*
X8910000Y-6550000D02*
X8950000Y-6590000D01*
X8950000Y-6550000D02*
X8910000Y-6590000D01*
X8910000Y-7150000D02*
X8950000Y-7190000D01*
X8950000Y-7150000D02*
X8910000Y-7190000D01*
X8910000Y-7750000D02*
X8950000Y-7790000D01*
X8950000Y-7750000D02*
X8910000Y-7790000D01*
X8910000Y-8350000D02*
X8950000Y-8390000D01*
X8950000Y-8350000D02*
X8910000Y-8390000D01*
X8910000Y-8950000D02*
X8950000Y-8990000D01*
X8950000Y-8950000D02*
X8910000Y-8990000D01*
X8910000Y-9550000D02*
X8950000Y-9590000D01*
X8950000Y-9550000D02*
X8910000Y-9590000D01*
X8910000Y-10150000D02*
X8950000Y-10190000D01*
X8950000Y-10150000D02*
X8910000Y-10190000D01*
X9090000Y-10680000D02*
X9130000Y-10720000D01*
X9130000Y-10680000D02*
X9090000Y-10720000D01*
X9090000Y-11620000D02*
X9130000Y-11660000D01*
X9130000Y-11620000D02*
X9090000Y-11660000D01*
X9510000Y-5950000D02*
X9550000Y-5990000D01*
X9550000Y-5950000D02*
X9510000Y-5990000D01*
X9510000Y-6550000D02*
X9550000Y-6590000D01*
X9550000Y-6550000D02*
X9510000Y-6590000D01*
X9510000Y-7150000D02*
X9550000Y-7190000D01*
X9550000Y-7150000D02*
X9510000Y-7190000D01*
X9510000Y-7750000D02*
X9550000Y-7790000D01*
X9550000Y-7750000D02*
X9510000Y-7790000D01*
X9510000Y-8350000D02*
X9550000Y-8390000D01*
X9550000Y-8350000D02*
X9510000Y-8390000D01*
X9510000Y-8950000D02*
X9550000Y-8990000D01*
X9550000Y-8950000D02*
X9510000Y-8990000D01*
X9510000Y-9550000D02*
X9550000Y-9590000D01*
X9550000Y-9550000D02*
X9510000Y-9590000D01*
X9510000Y-10150000D02*
X9550000Y-10190000D01*
X9550000Y-10150000D02*
X9510000Y-10190000D01*
X9790000Y-4260000D02*
X9830000Y-4300000D01*
X9830000Y-4260000D02*
X9790000Y-4300000D01*
X9850000Y-4370000D02*
X9890000Y-4410000D01*
X9890000Y-4370000D02*
X9850000Y-4410000D01*
X9870000Y-4070000D02*
X9910000Y-4110000D01*
X9910000Y-4070000D02*
X9870000Y-4110000D01*
X9870000Y-4170000D02*
X9910000Y-4210000D01*
X9910000Y-4170000D02*
X9870000Y-4210000D01*
X10029605Y-4050395D02*
X10069605Y-4090395D01*
X10069605Y-4050395D02*
X10029605Y-4090395D01*
X10110000Y-5950000D02*
X10150000Y-5990000D01*
X10150000Y-5950000D02*
X10110000Y-5990000D01*
X10110000Y-6550000D02*
X10150000Y-6590000D01*
X10150000Y-6550000D02*
X10110000Y-6590000D01*
X10110000Y-7150000D02*
X10150000Y-7190000D01*
X10150000Y-7150000D02*
X10110000Y-7190000D01*
X10110000Y-7750000D02*
X10150000Y-7790000D01*
X10150000Y-7750000D02*
X10110000Y-7790000D01*
X10110000Y-8350000D02*
X10150000Y-8390000D01*
X10150000Y-8350000D02*
X10110000Y-8390000D01*
X10110000Y-8950000D02*
X10150000Y-8990000D01*
X10150000Y-8950000D02*
X10110000Y-8990000D01*
X10110000Y-9550000D02*
X10150000Y-9590000D01*
X10150000Y-9550000D02*
X10110000Y-9590000D01*
X10110000Y-10150000D02*
X10150000Y-10190000D01*
X10150000Y-10150000D02*
X10110000Y-10190000D01*
X10230000Y-11630000D02*
X10270000Y-11670000D01*
X10270000Y-11630000D02*
X10230000Y-11670000D01*
X10240000Y-10680000D02*
X10280000Y-10720000D01*
X10280000Y-10680000D02*
X10240000Y-10720000D01*
X10360000Y-10680000D02*
X10400000Y-10720000D01*
X10400000Y-10680000D02*
X10360000Y-10720000D01*
X10360000Y-11620000D02*
X10400000Y-11660000D01*
X10400000Y-11620000D02*
X10360000Y-11660000D01*
X10490000Y-10680000D02*
X10530000Y-10720000D01*
X10530000Y-10680000D02*
X10490000Y-10720000D01*
X10490000Y-11620000D02*
X10530000Y-11660000D01*
X10530000Y-11620000D02*
X10490000Y-11660000D01*
X10500000Y-11090000D02*
X10540000Y-11130000D01*
X10540000Y-11090000D02*
X10500000Y-11130000D01*
X10506450Y-5223550D02*
X10546450Y-5263550D01*
X10546450Y-5223550D02*
X10506450Y-5263550D01*
X10604550Y-4934550D02*
X10644550Y-4974550D01*
X10644550Y-4934550D02*
X10604550Y-4974550D01*
X10710000Y-5950000D02*
X10750000Y-5990000D01*
X10750000Y-5950000D02*
X10710000Y-5990000D01*
X10710000Y-6550000D02*
X10750000Y-6590000D01*
X10750000Y-6550000D02*
X10710000Y-6590000D01*
X10710000Y-7150000D02*
X10750000Y-7190000D01*
X10750000Y-7150000D02*
X10710000Y-7190000D01*
X10710000Y-7750000D02*
X10750000Y-7790000D01*
X10750000Y-7750000D02*
X10710000Y-7790000D01*
X10710000Y-8350000D02*
X10750000Y-8390000D01*
X10750000Y-8350000D02*
X10710000Y-8390000D01*
X10710000Y-8950000D02*
X10750000Y-8990000D01*
X10750000Y-8950000D02*
X10710000Y-8990000D01*
X10710000Y-9550000D02*
X10750000Y-9590000D01*
X10750000Y-9550000D02*
X10710000Y-9590000D01*
X10710000Y-10150000D02*
X10750000Y-10190000D01*
X10750000Y-10150000D02*
X10710000Y-10190000D01*
X11310000Y-5950000D02*
X11350000Y-5990000D01*
X11350000Y-5950000D02*
X11310000Y-5990000D01*
X11310000Y-6550000D02*
X11350000Y-6590000D01*
X11350000Y-6550000D02*
X11310000Y-6590000D01*
X11310000Y-7150000D02*
X11350000Y-7190000D01*
X11350000Y-7150000D02*
X11310000Y-7190000D01*
X11310000Y-7750000D02*
X11350000Y-7790000D01*
X11350000Y-7750000D02*
X11310000Y-7790000D01*
X11310000Y-8350000D02*
X11350000Y-8390000D01*
X11350000Y-8350000D02*
X11310000Y-8390000D01*
X11310000Y-8950000D02*
X11350000Y-8990000D01*
X11350000Y-8950000D02*
X11310000Y-8990000D01*
X11310000Y-9550000D02*
X11350000Y-9590000D01*
X11350000Y-9550000D02*
X11310000Y-9590000D01*
X11310000Y-10150000D02*
X11350000Y-10190000D01*
X11350000Y-10150000D02*
X11310000Y-10190000D01*
X11490000Y-10680000D02*
X11530000Y-10720000D01*
X11530000Y-10680000D02*
X11490000Y-10720000D01*
X11490000Y-11620000D02*
X11530000Y-11660000D01*
X11530000Y-11620000D02*
X11490000Y-11660000D01*
X11910000Y-5950000D02*
X11950000Y-5990000D01*
X11950000Y-5950000D02*
X11910000Y-5990000D01*
X11910000Y-6550000D02*
X11950000Y-6590000D01*
X11950000Y-6550000D02*
X11910000Y-6590000D01*
X11910000Y-7150000D02*
X11950000Y-7190000D01*
X11950000Y-7150000D02*
X11910000Y-7190000D01*
X11910000Y-7750000D02*
X11950000Y-7790000D01*
X11950000Y-7750000D02*
X11910000Y-7790000D01*
X11910000Y-8350000D02*
X11950000Y-8390000D01*
X11950000Y-8350000D02*
X11910000Y-8390000D01*
X11910000Y-8950000D02*
X11950000Y-8990000D01*
X11950000Y-8950000D02*
X11910000Y-8990000D01*
X11910000Y-9550000D02*
X11950000Y-9590000D01*
X11950000Y-9550000D02*
X11910000Y-9590000D01*
X11910000Y-10150000D02*
X11950000Y-10190000D01*
X11950000Y-10150000D02*
X11910000Y-10190000D01*
X12190000Y-4260000D02*
X12230000Y-4300000D01*
X12230000Y-4260000D02*
X12190000Y-4300000D01*
X12250000Y-4370000D02*
X12290000Y-4410000D01*
X12290000Y-4370000D02*
X12250000Y-4410000D01*
X12270000Y-4070000D02*
X12310000Y-4110000D01*
X12310000Y-4070000D02*
X12270000Y-4110000D01*
X12270000Y-4170000D02*
X12310000Y-4210000D01*
X12310000Y-4170000D02*
X12270000Y-4210000D01*
X12429605Y-4050395D02*
X12469605Y-4090395D01*
X12469605Y-4050395D02*
X12429605Y-4090395D01*
X12510000Y-5950000D02*
X12550000Y-5990000D01*
X12550000Y-5950000D02*
X12510000Y-5990000D01*
X12510000Y-6550000D02*
X12550000Y-6590000D01*
X12550000Y-6550000D02*
X12510000Y-6590000D01*
X12510000Y-7150000D02*
X12550000Y-7190000D01*
X12550000Y-7150000D02*
X12510000Y-7190000D01*
X12510000Y-7750000D02*
X12550000Y-7790000D01*
X12550000Y-7750000D02*
X12510000Y-7790000D01*
X12510000Y-8350000D02*
X12550000Y-8390000D01*
X12550000Y-8350000D02*
X12510000Y-8390000D01*
X12510000Y-8950000D02*
X12550000Y-8990000D01*
X12550000Y-8950000D02*
X12510000Y-8990000D01*
X12510000Y-9550000D02*
X12550000Y-9590000D01*
X12550000Y-9550000D02*
X12510000Y-9590000D01*
X12510000Y-10150000D02*
X12550000Y-10190000D01*
X12550000Y-10150000D02*
X12510000Y-10190000D01*
X12630000Y-11630000D02*
X12670000Y-11670000D01*
X12670000Y-11630000D02*
X12630000Y-11670000D01*
X12640000Y-10680000D02*
X12680000Y-10720000D01*
X12680000Y-10680000D02*
X12640000Y-10720000D01*
X12760000Y-10680000D02*
X12800000Y-10720000D01*
X12800000Y-10680000D02*
X12760000Y-10720000D01*
X12760000Y-11620000D02*
X12800000Y-11660000D01*
X12800000Y-11620000D02*
X12760000Y-11660000D01*
X12890000Y-10680000D02*
X12930000Y-10720000D01*
X12930000Y-10680000D02*
X12890000Y-10720000D01*
X12890000Y-11620000D02*
X12930000Y-11660000D01*
X12930000Y-11620000D02*
X12890000Y-11660000D01*
X12900000Y-11090000D02*
X12940000Y-11130000D01*
X12940000Y-11090000D02*
X12900000Y-11130000D01*
X12906450Y-5223550D02*
X12946450Y-5263550D01*
X12946450Y-5223550D02*
X12906450Y-5263550D01*
X13004550Y-4934550D02*
X13044550Y-4974550D01*
X13044550Y-4934550D02*
X13004550Y-4974550D01*
X13110000Y-5950000D02*
X13150000Y-5990000D01*
X13150000Y-5950000D02*
X13110000Y-5990000D01*
X13110000Y-6550000D02*
X13150000Y-6590000D01*
X13150000Y-6550000D02*
X13110000Y-6590000D01*
X13110000Y-7150000D02*
X13150000Y-7190000D01*
X13150000Y-7150000D02*
X13110000Y-7190000D01*
X13110000Y-7750000D02*
X13150000Y-7790000D01*
X13150000Y-7750000D02*
X13110000Y-7790000D01*
X13110000Y-8350000D02*
X13150000Y-8390000D01*
X13150000Y-8350000D02*
X13110000Y-8390000D01*
X13110000Y-8950000D02*
X13150000Y-8990000D01*
X13150000Y-8950000D02*
X13110000Y-8990000D01*
X13110000Y-9550000D02*
X13150000Y-9590000D01*
X13150000Y-9550000D02*
X13110000Y-9590000D01*
X13110000Y-10150000D02*
X13150000Y-10190000D01*
X13150000Y-10150000D02*
X13110000Y-10190000D01*
X13710000Y-5950000D02*
X13750000Y-5990000D01*
X13750000Y-5950000D02*
X13710000Y-5990000D01*
X13710000Y-6550000D02*
X13750000Y-6590000D01*
X13750000Y-6550000D02*
X13710000Y-6590000D01*
X13710000Y-7150000D02*
X13750000Y-7190000D01*
X13750000Y-7150000D02*
X13710000Y-7190000D01*
X13710000Y-7750000D02*
X13750000Y-7790000D01*
X13750000Y-7750000D02*
X13710000Y-7790000D01*
X13710000Y-8350000D02*
X13750000Y-8390000D01*
X13750000Y-8350000D02*
X13710000Y-8390000D01*
X13710000Y-8950000D02*
X13750000Y-8990000D01*
X13750000Y-8950000D02*
X13710000Y-8990000D01*
X13710000Y-9550000D02*
X13750000Y-9590000D01*
X13750000Y-9550000D02*
X13710000Y-9590000D01*
X13710000Y-10150000D02*
X13750000Y-10190000D01*
X13750000Y-10150000D02*
X13710000Y-10190000D01*
X13890000Y-10680000D02*
X13930000Y-10720000D01*
X13930000Y-10680000D02*
X13890000Y-10720000D01*
X13890000Y-11620000D02*
X13930000Y-11660000D01*
X13930000Y-11620000D02*
X13890000Y-11660000D01*
X14310000Y-5950000D02*
X14350000Y-5990000D01*
X14350000Y-5950000D02*
X14310000Y-5990000D01*
X14310000Y-6550000D02*
X14350000Y-6590000D01*
X14350000Y-6550000D02*
X14310000Y-6590000D01*
X14310000Y-7150000D02*
X14350000Y-7190000D01*
X14350000Y-7150000D02*
X14310000Y-7190000D01*
X14310000Y-7750000D02*
X14350000Y-7790000D01*
X14350000Y-7750000D02*
X14310000Y-7790000D01*
X14310000Y-8350000D02*
X14350000Y-8390000D01*
X14350000Y-8350000D02*
X14310000Y-8390000D01*
X14310000Y-8950000D02*
X14350000Y-8990000D01*
X14350000Y-8950000D02*
X14310000Y-8990000D01*
X14310000Y-9550000D02*
X14350000Y-9590000D01*
X14350000Y-9550000D02*
X14310000Y-9590000D01*
X14310000Y-10150000D02*
X14350000Y-10190000D01*
X14350000Y-10150000D02*
X14310000Y-10190000D01*
X14590000Y-4260000D02*
X14630000Y-4300000D01*
X14630000Y-4260000D02*
X14590000Y-4300000D01*
X14650000Y-4370000D02*
X14690000Y-4410000D01*
X14690000Y-4370000D02*
X14650000Y-4410000D01*
X14670000Y-4070000D02*
X14710000Y-4110000D01*
X14710000Y-4070000D02*
X14670000Y-4110000D01*
X14670000Y-4170000D02*
X14710000Y-4210000D01*
X14710000Y-4170000D02*
X14670000Y-4210000D01*
X14829605Y-4050395D02*
X14869605Y-4090395D01*
X14869605Y-4050395D02*
X14829605Y-4090395D01*
X14910000Y-5950000D02*
X14950000Y-5990000D01*
X14950000Y-5950000D02*
X14910000Y-5990000D01*
X14910000Y-6550000D02*
X14950000Y-6590000D01*
X14950000Y-6550000D02*
X14910000Y-6590000D01*
X14910000Y-7150000D02*
X14950000Y-7190000D01*
X14950000Y-7150000D02*
X14910000Y-7190000D01*
X14910000Y-7750000D02*
X14950000Y-7790000D01*
X14950000Y-7750000D02*
X14910000Y-7790000D01*
X14910000Y-8350000D02*
X14950000Y-8390000D01*
X14950000Y-8350000D02*
X14910000Y-8390000D01*
X14910000Y-8950000D02*
X14950000Y-8990000D01*
X14950000Y-8950000D02*
X14910000Y-8990000D01*
X14910000Y-9550000D02*
X14950000Y-9590000D01*
X14950000Y-9550000D02*
X14910000Y-9590000D01*
X14910000Y-10150000D02*
X14950000Y-10190000D01*
X14950000Y-10150000D02*
X14910000Y-10190000D01*
X15030000Y-11630000D02*
X15070000Y-11670000D01*
X15070000Y-11630000D02*
X15030000Y-11670000D01*
X15040000Y-10680000D02*
X15080000Y-10720000D01*
X15080000Y-10680000D02*
X15040000Y-10720000D01*
X15160000Y-10680000D02*
X15200000Y-10720000D01*
X15200000Y-10680000D02*
X15160000Y-10720000D01*
X15160000Y-11620000D02*
X15200000Y-11660000D01*
X15200000Y-11620000D02*
X15160000Y-11660000D01*
X15290000Y-10680000D02*
X15330000Y-10720000D01*
X15330000Y-10680000D02*
X15290000Y-10720000D01*
X15290000Y-11620000D02*
X15330000Y-11660000D01*
X15330000Y-11620000D02*
X15290000Y-11660000D01*
X15300000Y-11090000D02*
X15340000Y-11130000D01*
X15340000Y-11090000D02*
X15300000Y-11130000D01*
X15306450Y-5223550D02*
X15346450Y-5263550D01*
X15346450Y-5223550D02*
X15306450Y-5263550D01*
X15404550Y-4934550D02*
X15444550Y-4974550D01*
X15444550Y-4934550D02*
X15404550Y-4974550D01*
X15510000Y-5950000D02*
X15550000Y-5990000D01*
X15550000Y-5950000D02*
X15510000Y-5990000D01*
X15510000Y-6550000D02*
X15550000Y-6590000D01*
X15550000Y-6550000D02*
X15510000Y-6590000D01*
X15510000Y-7150000D02*
X15550000Y-7190000D01*
X15550000Y-7150000D02*
X15510000Y-7190000D01*
X15510000Y-7750000D02*
X15550000Y-7790000D01*
X15550000Y-7750000D02*
X15510000Y-7790000D01*
X15510000Y-8350000D02*
X15550000Y-8390000D01*
X15550000Y-8350000D02*
X15510000Y-8390000D01*
X15510000Y-8950000D02*
X15550000Y-8990000D01*
X15550000Y-8950000D02*
X15510000Y-8990000D01*
X15510000Y-9550000D02*
X15550000Y-9590000D01*
X15550000Y-9550000D02*
X15510000Y-9590000D01*
X15510000Y-10150000D02*
X15550000Y-10190000D01*
X15550000Y-10150000D02*
X15510000Y-10190000D01*
X16110000Y-5950000D02*
X16150000Y-5990000D01*
X16150000Y-5950000D02*
X16110000Y-5990000D01*
X16110000Y-6550000D02*
X16150000Y-6590000D01*
X16150000Y-6550000D02*
X16110000Y-6590000D01*
X16110000Y-7150000D02*
X16150000Y-7190000D01*
X16150000Y-7150000D02*
X16110000Y-7190000D01*
X16110000Y-7750000D02*
X16150000Y-7790000D01*
X16150000Y-7750000D02*
X16110000Y-7790000D01*
X16110000Y-8350000D02*
X16150000Y-8390000D01*
X16150000Y-8350000D02*
X16110000Y-8390000D01*
X16110000Y-8950000D02*
X16150000Y-8990000D01*
X16150000Y-8950000D02*
X16110000Y-8990000D01*
X16110000Y-9550000D02*
X16150000Y-9590000D01*
X16150000Y-9550000D02*
X16110000Y-9590000D01*
X16110000Y-10150000D02*
X16150000Y-10190000D01*
X16150000Y-10150000D02*
X16110000Y-10190000D01*
X16290000Y-10680000D02*
X16330000Y-10720000D01*
X16330000Y-10680000D02*
X16290000Y-10720000D01*
X16290000Y-11620000D02*
X16330000Y-11660000D01*
X16330000Y-11620000D02*
X16290000Y-11660000D01*
X16710000Y-5950000D02*
X16750000Y-5990000D01*
X16750000Y-5950000D02*
X16710000Y-5990000D01*
X16710000Y-6550000D02*
X16750000Y-6590000D01*
X16750000Y-6550000D02*
X16710000Y-6590000D01*
X16710000Y-7150000D02*
X16750000Y-7190000D01*
X16750000Y-7150000D02*
X16710000Y-7190000D01*
X16710000Y-7750000D02*
X16750000Y-7790000D01*
X16750000Y-7750000D02*
X16710000Y-7790000D01*
X16710000Y-8350000D02*
X16750000Y-8390000D01*
X16750000Y-8350000D02*
X16710000Y-8390000D01*
X16710000Y-8950000D02*
X16750000Y-8990000D01*
X16750000Y-8950000D02*
X16710000Y-8990000D01*
X16710000Y-9550000D02*
X16750000Y-9590000D01*
X16750000Y-9550000D02*
X16710000Y-9590000D01*
X16710000Y-10150000D02*
X16750000Y-10190000D01*
X16750000Y-10150000D02*
X16710000Y-10190000D01*
X16990000Y-4260000D02*
X17030000Y-4300000D01*
X17030000Y-4260000D02*
X16990000Y-4300000D01*
X17050000Y-4370000D02*
X17090000Y-4410000D01*
X17090000Y-4370000D02*
X17050000Y-4410000D01*
X17070000Y-4070000D02*
X17110000Y-4110000D01*
X17110000Y-4070000D02*
X17070000Y-4110000D01*
X17070000Y-4170000D02*
X17110000Y-4210000D01*
X17110000Y-4170000D02*
X17070000Y-4210000D01*
X17229605Y-4050395D02*
X17269605Y-4090395D01*
X17269605Y-4050395D02*
X17229605Y-4090395D01*
X17310000Y-5950000D02*
X17350000Y-5990000D01*
X17350000Y-5950000D02*
X17310000Y-5990000D01*
X17310000Y-6550000D02*
X17350000Y-6590000D01*
X17350000Y-6550000D02*
X17310000Y-6590000D01*
X17310000Y-7150000D02*
X17350000Y-7190000D01*
X17350000Y-7150000D02*
X17310000Y-7190000D01*
X17310000Y-7750000D02*
X17350000Y-7790000D01*
X17350000Y-7750000D02*
X17310000Y-7790000D01*
X17310000Y-8350000D02*
X17350000Y-8390000D01*
X17350000Y-8350000D02*
X17310000Y-8390000D01*
X17310000Y-8950000D02*
X17350000Y-8990000D01*
X17350000Y-8950000D02*
X17310000Y-8990000D01*
X17310000Y-9550000D02*
X17350000Y-9590000D01*
X17350000Y-9550000D02*
X17310000Y-9590000D01*
X17310000Y-10150000D02*
X17350000Y-10190000D01*
X17350000Y-10150000D02*
X17310000Y-10190000D01*
X17430000Y-11630000D02*
X17470000Y-11670000D01*
X17470000Y-11630000D02*
X17430000Y-11670000D01*
X17440000Y-10680000D02*
X17480000Y-10720000D01*
X17480000Y-10680000D02*
X17440000Y-10720000D01*
X17560000Y-10680000D02*
X17600000Y-10720000D01*
X17600000Y-10680000D02*
X17560000Y-10720000D01*
X17560000Y-11620000D02*
X17600000Y-11660000D01*
X17600000Y-11620000D02*
X17560000Y-11660000D01*
X17690000Y-10680000D02*
X17730000Y-10720000D01*
X17730000Y-10680000D02*
X17690000Y-10720000D01*
X17690000Y-11620000D02*
X17730000Y-11660000D01*
X17730000Y-11620000D02*
X17690000Y-11660000D01*
X17700000Y-11090000D02*
X17740000Y-11130000D01*
X17740000Y-11090000D02*
X17700000Y-11130000D01*
X17706450Y-5223550D02*
X17746450Y-5263550D01*
X17746450Y-5223550D02*
X17706450Y-5263550D01*
X17804550Y-4934550D02*
X17844550Y-4974550D01*
X17844550Y-4934550D02*
X17804550Y-4974550D01*
X17910000Y-5950000D02*
X17950000Y-5990000D01*
X17950000Y-5950000D02*
X17910000Y-5990000D01*
X17910000Y-6550000D02*
X17950000Y-6590000D01*
X17950000Y-6550000D02*
X17910000Y-6590000D01*
X17910000Y-7150000D02*
X17950000Y-7190000D01*
X17950000Y-7150000D02*
X17910000Y-7190000D01*
X17910000Y-7750000D02*
X17950000Y-7790000D01*
X17950000Y-7750000D02*
X17910000Y-7790000D01*
X17910000Y-8350000D02*
X17950000Y-8390000D01*
X17950000Y-8350000D02*
X17910000Y-8390000D01*
X17910000Y-8950000D02*
X17950000Y-8990000D01*
X17950000Y-8950000D02*
X17910000Y-8990000D01*
X17910000Y-9550000D02*
X17950000Y-9590000D01*
X17950000Y-9550000D02*
X17910000Y-9590000D01*
X17910000Y-10150000D02*
X17950000Y-10190000D01*
X17950000Y-10150000D02*
X17910000Y-10190000D01*
X18510000Y-5950000D02*
X18550000Y-5990000D01*
X18550000Y-5950000D02*
X18510000Y-5990000D01*
X18510000Y-6550000D02*
X18550000Y-6590000D01*
X18550000Y-6550000D02*
X18510000Y-6590000D01*
X18510000Y-7150000D02*
X18550000Y-7190000D01*
X18550000Y-7150000D02*
X18510000Y-7190000D01*
X18510000Y-7750000D02*
X18550000Y-7790000D01*
X18550000Y-7750000D02*
X18510000Y-7790000D01*
X18510000Y-8350000D02*
X18550000Y-8390000D01*
X18550000Y-8350000D02*
X18510000Y-8390000D01*
X18510000Y-8950000D02*
X18550000Y-8990000D01*
X18550000Y-8950000D02*
X18510000Y-8990000D01*
X18510000Y-9550000D02*
X18550000Y-9590000D01*
X18550000Y-9550000D02*
X18510000Y-9590000D01*
X18510000Y-10150000D02*
X18550000Y-10190000D01*
X18550000Y-10150000D02*
X18510000Y-10190000D01*
X18690000Y-11620000D02*
X18730000Y-11660000D01*
X18730000Y-11620000D02*
X18690000Y-11660000D01*
X19110000Y-5950000D02*
X19150000Y-5990000D01*
X19150000Y-5950000D02*
X19110000Y-5990000D01*
X19110000Y-6550000D02*
X19150000Y-6590000D01*
X19150000Y-6550000D02*
X19110000Y-6590000D01*
X19110000Y-7150000D02*
X19150000Y-7190000D01*
X19150000Y-7150000D02*
X19110000Y-7190000D01*
X19110000Y-7750000D02*
X19150000Y-7790000D01*
X19150000Y-7750000D02*
X19110000Y-7790000D01*
X19110000Y-8350000D02*
X19150000Y-8390000D01*
X19150000Y-8350000D02*
X19110000Y-8390000D01*
X19110000Y-8950000D02*
X19150000Y-8990000D01*
X19150000Y-8950000D02*
X19110000Y-8990000D01*
X19110000Y-9550000D02*
X19150000Y-9590000D01*
X19150000Y-9550000D02*
X19110000Y-9590000D01*
X19110000Y-10150000D02*
X19150000Y-10190000D01*
X19150000Y-10150000D02*
X19110000Y-10190000D01*
X19390000Y-4260000D02*
X19430000Y-4300000D01*
X19430000Y-4260000D02*
X19390000Y-4300000D01*
X19450000Y-4370000D02*
X19490000Y-4410000D01*
X19490000Y-4370000D02*
X19450000Y-4410000D01*
X19470000Y-4070000D02*
X19510000Y-4110000D01*
X19510000Y-4070000D02*
X19470000Y-4110000D01*
X19470000Y-4170000D02*
X19510000Y-4210000D01*
X19510000Y-4170000D02*
X19470000Y-4210000D01*
X19629605Y-4050395D02*
X19669605Y-4090395D01*
X19669605Y-4050395D02*
X19629605Y-4090395D01*
X19710000Y-5950000D02*
X19750000Y-5990000D01*
X19750000Y-5950000D02*
X19710000Y-5990000D01*
X19710000Y-6550000D02*
X19750000Y-6590000D01*
X19750000Y-6550000D02*
X19710000Y-6590000D01*
X19710000Y-7150000D02*
X19750000Y-7190000D01*
X19750000Y-7150000D02*
X19710000Y-7190000D01*
X19710000Y-7750000D02*
X19750000Y-7790000D01*
X19750000Y-7750000D02*
X19710000Y-7790000D01*
X19710000Y-8350000D02*
X19750000Y-8390000D01*
X19750000Y-8350000D02*
X19710000Y-8390000D01*
X19710000Y-8950000D02*
X19750000Y-8990000D01*
X19750000Y-8950000D02*
X19710000Y-8990000D01*
X19710000Y-9550000D02*
X19750000Y-9590000D01*
X19750000Y-9550000D02*
X19710000Y-9590000D01*
X19710000Y-10150000D02*
X19750000Y-10190000D01*
X19750000Y-10150000D02*
X19710000Y-10190000D01*
X19830000Y-11630000D02*
X19870000Y-11670000D01*
X19870000Y-11630000D02*
X19830000Y-11670000D01*
X19840000Y-10680000D02*
X19880000Y-10720000D01*
X19880000Y-10680000D02*
X19840000Y-10720000D01*
X19960000Y-10680000D02*
X20000000Y-10720000D01*
X20000000Y-10680000D02*
X19960000Y-10720000D01*
X19960000Y-11620000D02*
X20000000Y-11660000D01*
X20000000Y-11620000D02*
X19960000Y-11660000D01*
X20090000Y-10680000D02*
X20130000Y-10720000D01*
X20130000Y-10680000D02*
X20090000Y-10720000D01*
X20090000Y-11620000D02*
X20130000Y-11660000D01*
X20130000Y-11620000D02*
X20090000Y-11660000D01*
X20100000Y-11090000D02*
X20140000Y-11130000D01*
X20140000Y-11090000D02*
X20100000Y-11130000D01*
X20106450Y-5223550D02*
X20146450Y-5263550D01*
X20146450Y-5223550D02*
X20106450Y-5263550D01*
X20204550Y-4934550D02*
X20244550Y-4974550D01*
X20244550Y-4934550D02*
X20204550Y-4974550D01*
X20310000Y-5950000D02*
X20350000Y-5990000D01*
X20350000Y-5950000D02*
X20310000Y-5990000D01*
X20310000Y-6550000D02*
X20350000Y-6590000D01*
X20350000Y-6550000D02*
X20310000Y-6590000D01*
X20310000Y-7150000D02*
X20350000Y-7190000D01*
X20350000Y-7150000D02*
X20310000Y-7190000D01*
X20310000Y-7750000D02*
X20350000Y-7790000D01*
X20350000Y-7750000D02*
X20310000Y-7790000D01*
X20310000Y-8350000D02*
X20350000Y-8390000D01*
X20350000Y-8350000D02*
X20310000Y-8390000D01*
X20310000Y-8950000D02*
X20350000Y-8990000D01*
X20350000Y-8950000D02*
X20310000Y-8990000D01*
X20310000Y-9550000D02*
X20350000Y-9590000D01*
X20350000Y-9550000D02*
X20310000Y-9590000D01*
X20310000Y-10150000D02*
X20350000Y-10190000D01*
X20350000Y-10150000D02*
X20310000Y-10190000D01*
X20910000Y-5950000D02*
X20950000Y-5990000D01*
X20950000Y-5950000D02*
X20910000Y-5990000D01*
X20910000Y-6550000D02*
X20950000Y-6590000D01*
X20950000Y-6550000D02*
X20910000Y-6590000D01*
X20910000Y-7150000D02*
X20950000Y-7190000D01*
X20950000Y-7150000D02*
X20910000Y-7190000D01*
X20910000Y-7750000D02*
X20950000Y-7790000D01*
X20950000Y-7750000D02*
X20910000Y-7790000D01*
X20910000Y-8350000D02*
X20950000Y-8390000D01*
X20950000Y-8350000D02*
X20910000Y-8390000D01*
X20910000Y-8950000D02*
X20950000Y-8990000D01*
X20950000Y-8950000D02*
X20910000Y-8990000D01*
X20910000Y-9550000D02*
X20950000Y-9590000D01*
X20950000Y-9550000D02*
X20910000Y-9590000D01*
X20910000Y-10150000D02*
X20950000Y-10190000D01*
X20950000Y-10150000D02*
X20910000Y-10190000D01*
X21090000Y-11620000D02*
X21130000Y-11660000D01*
X21130000Y-11620000D02*
X21090000Y-11660000D01*
X21510000Y-5950000D02*
X21550000Y-5990000D01*
X21550000Y-5950000D02*
X21510000Y-5990000D01*
X21510000Y-6550000D02*
X21550000Y-6590000D01*
X21550000Y-6550000D02*
X21510000Y-6590000D01*
X21510000Y-7150000D02*
X21550000Y-7190000D01*
X21550000Y-7150000D02*
X21510000Y-7190000D01*
X21510000Y-7750000D02*
X21550000Y-7790000D01*
X21550000Y-7750000D02*
X21510000Y-7790000D01*
X21510000Y-8350000D02*
X21550000Y-8390000D01*
X21550000Y-8350000D02*
X21510000Y-8390000D01*
X21510000Y-8950000D02*
X21550000Y-8990000D01*
X21550000Y-8950000D02*
X21510000Y-8990000D01*
X21510000Y-9550000D02*
X21550000Y-9590000D01*
X21550000Y-9550000D02*
X21510000Y-9590000D01*
X21510000Y-10150000D02*
X21550000Y-10190000D01*
X21550000Y-10150000D02*
X21510000Y-10190000D01*
X21790000Y-4260000D02*
X21830000Y-4300000D01*
X21830000Y-4260000D02*
X21790000Y-4300000D01*
X21850000Y-4370000D02*
X21890000Y-4410000D01*
X21890000Y-4370000D02*
X21850000Y-4410000D01*
X21870000Y-4070000D02*
X21910000Y-4110000D01*
X21910000Y-4070000D02*
X21870000Y-4110000D01*
X21870000Y-4170000D02*
X21910000Y-4210000D01*
X21910000Y-4170000D02*
X21870000Y-4210000D01*
X22029605Y-4050395D02*
X22069605Y-4090395D01*
X22069605Y-4050395D02*
X22029605Y-4090395D01*
X22110000Y-5950000D02*
X22150000Y-5990000D01*
X22150000Y-5950000D02*
X22110000Y-5990000D01*
X22110000Y-6550000D02*
X22150000Y-6590000D01*
X22150000Y-6550000D02*
X22110000Y-6590000D01*
X22110000Y-7150000D02*
X22150000Y-7190000D01*
X22150000Y-7150000D02*
X22110000Y-7190000D01*
X22110000Y-7750000D02*
X22150000Y-7790000D01*
X22150000Y-7750000D02*
X22110000Y-7790000D01*
X22110000Y-8350000D02*
X22150000Y-8390000D01*
X22150000Y-8350000D02*
X22110000Y-8390000D01*
X22110000Y-8950000D02*
X22150000Y-8990000D01*
X22150000Y-8950000D02*
X22110000Y-8990000D01*
X22110000Y-9550000D02*
X22150000Y-9590000D01*
X22150000Y-9550000D02*
X22110000Y-9590000D01*
X22110000Y-10150000D02*
X22150000Y-10190000D01*
X22150000Y-10150000D02*
X22110000Y-10190000D01*
X22230000Y-11630000D02*
X22270000Y-11670000D01*
X22270000Y-11630000D02*
X22230000Y-11670000D01*
X22240000Y-10680000D02*
X22280000Y-10720000D01*
X22280000Y-10680000D02*
X22240000Y-10720000D01*
X22360000Y-10680000D02*
X22400000Y-10720000D01*
X22400000Y-10680000D02*
X22360000Y-10720000D01*
X22360000Y-11620000D02*
X22400000Y-11660000D01*
X22400000Y-11620000D02*
X22360000Y-11660000D01*
X22490000Y-10680000D02*
X22530000Y-10720000D01*
X22530000Y-10680000D02*
X22490000Y-10720000D01*
X22490000Y-11620000D02*
X22530000Y-11660000D01*
X22530000Y-11620000D02*
X22490000Y-11660000D01*
X22500000Y-11090000D02*
X22540000Y-11130000D01*
X22540000Y-11090000D02*
X22500000Y-11130000D01*
X22506450Y-5223550D02*
X22546450Y-5263550D01*
X22546450Y-5223550D02*
X22506450Y-5263550D01*
X22604550Y-4934550D02*
X22644550Y-4974550D01*
X22644550Y-4934550D02*
X22604550Y-4974550D01*
X22710000Y-5950000D02*
X22750000Y-5990000D01*
X22750000Y-5950000D02*
X22710000Y-5990000D01*
X22710000Y-6550000D02*
X22750000Y-6590000D01*
X22750000Y-6550000D02*
X22710000Y-6590000D01*
X22710000Y-7150000D02*
X22750000Y-7190000D01*
X22750000Y-7150000D02*
X22710000Y-7190000D01*
X22710000Y-7750000D02*
X22750000Y-7790000D01*
X22750000Y-7750000D02*
X22710000Y-7790000D01*
X22710000Y-8350000D02*
X22750000Y-8390000D01*
X22750000Y-8350000D02*
X22710000Y-8390000D01*
X22710000Y-8950000D02*
X22750000Y-8990000D01*
X22750000Y-8950000D02*
X22710000Y-8990000D01*
X22710000Y-9550000D02*
X22750000Y-9590000D01*
X22750000Y-9550000D02*
X22710000Y-9590000D01*
X22710000Y-10150000D02*
X22750000Y-10190000D01*
X22750000Y-10150000D02*
X22710000Y-10190000D01*
X23310000Y-5950000D02*
X23350000Y-5990000D01*
X23350000Y-5950000D02*
X23310000Y-5990000D01*
X23310000Y-6550000D02*
X23350000Y-6590000D01*
X23350000Y-6550000D02*
X23310000Y-6590000D01*
X23310000Y-7150000D02*
X23350000Y-7190000D01*
X23350000Y-7150000D02*
X23310000Y-7190000D01*
X23310000Y-7750000D02*
X23350000Y-7790000D01*
X23350000Y-7750000D02*
X23310000Y-7790000D01*
X23310000Y-8350000D02*
X23350000Y-8390000D01*
X23350000Y-8350000D02*
X23310000Y-8390000D01*
X23310000Y-8950000D02*
X23350000Y-8990000D01*
X23350000Y-8950000D02*
X23310000Y-8990000D01*
X23310000Y-9550000D02*
X23350000Y-9590000D01*
X23350000Y-9550000D02*
X23310000Y-9590000D01*
X23310000Y-10150000D02*
X23350000Y-10190000D01*
X23350000Y-10150000D02*
X23310000Y-10190000D01*
X23490000Y-11620000D02*
X23530000Y-11660000D01*
X23530000Y-11620000D02*
X23490000Y-11660000D01*
X23910000Y-5950000D02*
X23950000Y-5990000D01*
X23950000Y-5950000D02*
X23910000Y-5990000D01*
X23910000Y-6550000D02*
X23950000Y-6590000D01*
X23950000Y-6550000D02*
X23910000Y-6590000D01*
X23910000Y-7150000D02*
X23950000Y-7190000D01*
X23950000Y-7150000D02*
X23910000Y-7190000D01*
X23910000Y-7750000D02*
X23950000Y-7790000D01*
X23950000Y-7750000D02*
X23910000Y-7790000D01*
X23910000Y-8350000D02*
X23950000Y-8390000D01*
X23950000Y-8350000D02*
X23910000Y-8390000D01*
X23910000Y-8950000D02*
X23950000Y-8990000D01*
X23950000Y-8950000D02*
X23910000Y-8990000D01*
X23910000Y-9550000D02*
X23950000Y-9590000D01*
X23950000Y-9550000D02*
X23910000Y-9590000D01*
X23910000Y-10150000D02*
X23950000Y-10190000D01*
X23950000Y-10150000D02*
X23910000Y-10190000D01*
X24190000Y-4260000D02*
X24230000Y-4300000D01*
X24230000Y-4260000D02*
X24190000Y-4300000D01*
X24250000Y-4370000D02*
X24290000Y-4410000D01*
X24290000Y-4370000D02*
X24250000Y-4410000D01*
X24270000Y-4070000D02*
X24310000Y-4110000D01*
X24310000Y-4070000D02*
X24270000Y-4110000D01*
X24270000Y-4170000D02*
X24310000Y-4210000D01*
X24310000Y-4170000D02*
X24270000Y-4210000D01*
X24429605Y-4050395D02*
X24469605Y-4090395D01*
X24469605Y-4050395D02*
X24429605Y-4090395D01*
X24510000Y-5950000D02*
X24550000Y-5990000D01*
X24550000Y-5950000D02*
X24510000Y-5990000D01*
X24510000Y-6550000D02*
X24550000Y-6590000D01*
X24550000Y-6550000D02*
X24510000Y-6590000D01*
X24510000Y-7150000D02*
X24550000Y-7190000D01*
X24550000Y-7150000D02*
X24510000Y-7190000D01*
X24510000Y-7750000D02*
X24550000Y-7790000D01*
X24550000Y-7750000D02*
X24510000Y-7790000D01*
X24510000Y-8350000D02*
X24550000Y-8390000D01*
X24550000Y-8350000D02*
X24510000Y-8390000D01*
X24510000Y-8950000D02*
X24550000Y-8990000D01*
X24550000Y-8950000D02*
X24510000Y-8990000D01*
X24510000Y-9550000D02*
X24550000Y-9590000D01*
X24550000Y-9550000D02*
X24510000Y-9590000D01*
X24510000Y-10150000D02*
X24550000Y-10190000D01*
X24550000Y-10150000D02*
X24510000Y-10190000D01*
X24630000Y-11620000D02*
X24670000Y-11660000D01*
X24670000Y-11620000D02*
X24630000Y-11660000D01*
X24640000Y-10680000D02*
X24680000Y-10720000D01*
X24680000Y-10680000D02*
X24640000Y-10720000D01*
X24760000Y-10680000D02*
X24800000Y-10720000D01*
X24800000Y-10680000D02*
X24760000Y-10720000D01*
X24760000Y-11620000D02*
X24800000Y-11660000D01*
X24800000Y-11620000D02*
X24760000Y-11660000D01*
X24890000Y-10680000D02*
X24930000Y-10720000D01*
X24930000Y-10680000D02*
X24890000Y-10720000D01*
X24890000Y-11620000D02*
X24930000Y-11660000D01*
X24930000Y-11620000D02*
X24890000Y-11660000D01*
X24900000Y-11090000D02*
X24940000Y-11130000D01*
X24940000Y-11090000D02*
X24900000Y-11130000D01*
X24906450Y-5223550D02*
X24946450Y-5263550D01*
X24946450Y-5223550D02*
X24906450Y-5263550D01*
X25004550Y-4934550D02*
X25044550Y-4974550D01*
X25044550Y-4934550D02*
X25004550Y-4974550D01*
X25110000Y-5950000D02*
X25150000Y-5990000D01*
X25150000Y-5950000D02*
X25110000Y-5990000D01*
X25110000Y-6550000D02*
X25150000Y-6590000D01*
X25150000Y-6550000D02*
X25110000Y-6590000D01*
X25110000Y-7150000D02*
X25150000Y-7190000D01*
X25150000Y-7150000D02*
X25110000Y-7190000D01*
X25110000Y-7750000D02*
X25150000Y-7790000D01*
X25150000Y-7750000D02*
X25110000Y-7790000D01*
X25110000Y-8350000D02*
X25150000Y-8390000D01*
X25150000Y-8350000D02*
X25110000Y-8390000D01*
X25110000Y-8950000D02*
X25150000Y-8990000D01*
X25150000Y-8950000D02*
X25110000Y-8990000D01*
X25110000Y-9550000D02*
X25150000Y-9590000D01*
X25150000Y-9550000D02*
X25110000Y-9590000D01*
X25110000Y-10150000D02*
X25150000Y-10190000D01*
X25150000Y-10150000D02*
X25110000Y-10190000D01*
X25710000Y-5950000D02*
X25750000Y-5990000D01*
X25750000Y-5950000D02*
X25710000Y-5990000D01*
X25710000Y-6550000D02*
X25750000Y-6590000D01*
X25750000Y-6550000D02*
X25710000Y-6590000D01*
X25710000Y-7150000D02*
X25750000Y-7190000D01*
X25750000Y-7150000D02*
X25710000Y-7190000D01*
X25710000Y-7750000D02*
X25750000Y-7790000D01*
X25750000Y-7750000D02*
X25710000Y-7790000D01*
X25710000Y-8350000D02*
X25750000Y-8390000D01*
X25750000Y-8350000D02*
X25710000Y-8390000D01*
X25710000Y-8950000D02*
X25750000Y-8990000D01*
X25750000Y-8950000D02*
X25710000Y-8990000D01*
X25710000Y-9550000D02*
X25750000Y-9590000D01*
X25750000Y-9550000D02*
X25710000Y-9590000D01*
X25710000Y-10150000D02*
X25750000Y-10190000D01*
X25750000Y-10150000D02*
X25710000Y-10190000D01*
D11*
X4882619Y-12275476D02*
X4882619Y-12075476D01*
X4930238Y-12075476D01*
X4958810Y-12085000D01*
X4977857Y-12104048D01*
X4987381Y-12123095D01*
X4996905Y-12161190D01*
X4996905Y-12189762D01*
X4987381Y-12227857D01*
X4977857Y-12246905D01*
X4958810Y-12265952D01*
X4930238Y-12275476D01*
X4882619Y-12275476D01*
X5082619Y-12275476D02*
X5082619Y-12142143D01*
X5082619Y-12180238D02*
X5092143Y-12161190D01*
X5101667Y-12151667D01*
X5120714Y-12142143D01*
X5139762Y-12142143D01*
X5206429Y-12275476D02*
X5206429Y-12142143D01*
X5206429Y-12075476D02*
X5196905Y-12085000D01*
X5206429Y-12094524D01*
X5215952Y-12085000D01*
X5206429Y-12075476D01*
X5206429Y-12094524D01*
X5330238Y-12275476D02*
X5311190Y-12265952D01*
X5301667Y-12246905D01*
X5301667Y-12075476D01*
X5435000Y-12275476D02*
X5415952Y-12265952D01*
X5406429Y-12246905D01*
X5406429Y-12075476D01*
X5663571Y-12275476D02*
X5663571Y-12075476D01*
X5730238Y-12218333D01*
X5796905Y-12075476D01*
X5796905Y-12275476D01*
X5977857Y-12275476D02*
X5977857Y-12170714D01*
X5968333Y-12151667D01*
X5949286Y-12142143D01*
X5911190Y-12142143D01*
X5892143Y-12151667D01*
X5977857Y-12265952D02*
X5958809Y-12275476D01*
X5911190Y-12275476D01*
X5892143Y-12265952D01*
X5882619Y-12246905D01*
X5882619Y-12227857D01*
X5892143Y-12208809D01*
X5911190Y-12199286D01*
X5958809Y-12199286D01*
X5977857Y-12189762D01*
X6073095Y-12142143D02*
X6073095Y-12342143D01*
X6073095Y-12151667D02*
X6092143Y-12142143D01*
X6130238Y-12142143D01*
X6149286Y-12151667D01*
X6158809Y-12161190D01*
X6168333Y-12180238D01*
X6168333Y-12237381D01*
X6158809Y-12256428D01*
X6149286Y-12265952D01*
X6130238Y-12275476D01*
X6092143Y-12275476D01*
X6073095Y-12265952D01*
X6254048Y-12256428D02*
X6263571Y-12265952D01*
X6254048Y-12275476D01*
X6244524Y-12265952D01*
X6254048Y-12256428D01*
X6254048Y-12275476D01*
X6254048Y-12151667D02*
X6263571Y-12161190D01*
X6254048Y-12170714D01*
X6244524Y-12161190D01*
X6254048Y-12151667D01*
X6254048Y-12170714D01*
D12*
X4585000Y-12585000D02*
X4625000Y-12625000D01*
X4625000Y-12585000D02*
X4585000Y-12625000D01*
D11*
X4920714Y-12495476D02*
X4939762Y-12495476D01*
X4958810Y-12505000D01*
X4968333Y-12514524D01*
X4977857Y-12533571D01*
X4987381Y-12571667D01*
X4987381Y-12619286D01*
X4977857Y-12657381D01*
X4968333Y-12676428D01*
X4958810Y-12685952D01*
X4939762Y-12695476D01*
X4920714Y-12695476D01*
X4901667Y-12685952D01*
X4892143Y-12676428D01*
X4882619Y-12657381D01*
X4873095Y-12619286D01*
X4873095Y-12571667D01*
X4882619Y-12533571D01*
X4892143Y-12514524D01*
X4901667Y-12505000D01*
X4920714Y-12495476D01*
X5073095Y-12676428D02*
X5082619Y-12685952D01*
X5073095Y-12695476D01*
X5063571Y-12685952D01*
X5073095Y-12676428D01*
X5073095Y-12695476D01*
X5254048Y-12562143D02*
X5254048Y-12695476D01*
X5206429Y-12485952D02*
X5158810Y-12628809D01*
X5282619Y-12628809D01*
X5396905Y-12495476D02*
X5415952Y-12495476D01*
X5435000Y-12505000D01*
X5444524Y-12514524D01*
X5454048Y-12533571D01*
X5463571Y-12571667D01*
X5463571Y-12619286D01*
X5454048Y-12657381D01*
X5444524Y-12676428D01*
X5435000Y-12685952D01*
X5415952Y-12695476D01*
X5396905Y-12695476D01*
X5377857Y-12685952D01*
X5368333Y-12676428D01*
X5358810Y-12657381D01*
X5349286Y-12619286D01*
X5349286Y-12571667D01*
X5358810Y-12533571D01*
X5368333Y-12514524D01*
X5377857Y-12505000D01*
X5396905Y-12495476D01*
X5587381Y-12495476D02*
X5606428Y-12495476D01*
X5625476Y-12505000D01*
X5635000Y-12514524D01*
X5644524Y-12533571D01*
X5654048Y-12571667D01*
X5654048Y-12619286D01*
X5644524Y-12657381D01*
X5635000Y-12676428D01*
X5625476Y-12685952D01*
X5606428Y-12695476D01*
X5587381Y-12695476D01*
X5568333Y-12685952D01*
X5558810Y-12676428D01*
X5549286Y-12657381D01*
X5539762Y-12619286D01*
X5539762Y-12571667D01*
X5549286Y-12533571D01*
X5558810Y-12514524D01*
X5568333Y-12505000D01*
X5587381Y-12495476D01*
X5739762Y-12695476D02*
X5739762Y-12562143D01*
X5739762Y-12581190D02*
X5749286Y-12571667D01*
X5768333Y-12562143D01*
X5796905Y-12562143D01*
X5815952Y-12571667D01*
X5825476Y-12590714D01*
X5825476Y-12695476D01*
X5825476Y-12590714D02*
X5835000Y-12571667D01*
X5854048Y-12562143D01*
X5882619Y-12562143D01*
X5901667Y-12571667D01*
X5911190Y-12590714D01*
X5911190Y-12695476D01*
X6006428Y-12695476D02*
X6006428Y-12562143D01*
X6006428Y-12581190D02*
X6015952Y-12571667D01*
X6035000Y-12562143D01*
X6063571Y-12562143D01*
X6082619Y-12571667D01*
X6092143Y-12590714D01*
X6092143Y-12695476D01*
X6092143Y-12590714D02*
X6101667Y-12571667D01*
X6120714Y-12562143D01*
X6149286Y-12562143D01*
X6168333Y-12571667D01*
X6177857Y-12590714D01*
X6177857Y-12695476D01*
X6568333Y-12485952D02*
X6396905Y-12743095D01*
X6825476Y-12495476D02*
X6844524Y-12495476D01*
X6863571Y-12505000D01*
X6873095Y-12514524D01*
X6882619Y-12533571D01*
X6892143Y-12571667D01*
X6892143Y-12619286D01*
X6882619Y-12657381D01*
X6873095Y-12676428D01*
X6863571Y-12685952D01*
X6844524Y-12695476D01*
X6825476Y-12695476D01*
X6806428Y-12685952D01*
X6796905Y-12676428D01*
X6787381Y-12657381D01*
X6777857Y-12619286D01*
X6777857Y-12571667D01*
X6787381Y-12533571D01*
X6796905Y-12514524D01*
X6806428Y-12505000D01*
X6825476Y-12495476D01*
X6977857Y-12676428D02*
X6987381Y-12685952D01*
X6977857Y-12695476D01*
X6968333Y-12685952D01*
X6977857Y-12676428D01*
X6977857Y-12695476D01*
X7111190Y-12495476D02*
X7130238Y-12495476D01*
X7149286Y-12505000D01*
X7158809Y-12514524D01*
X7168333Y-12533571D01*
X7177857Y-12571667D01*
X7177857Y-12619286D01*
X7168333Y-12657381D01*
X7158809Y-12676428D01*
X7149286Y-12685952D01*
X7130238Y-12695476D01*
X7111190Y-12695476D01*
X7092143Y-12685952D01*
X7082619Y-12676428D01*
X7073095Y-12657381D01*
X7063571Y-12619286D01*
X7063571Y-12571667D01*
X7073095Y-12533571D01*
X7082619Y-12514524D01*
X7092143Y-12505000D01*
X7111190Y-12495476D01*
X7368333Y-12695476D02*
X7254048Y-12695476D01*
X7311190Y-12695476D02*
X7311190Y-12495476D01*
X7292143Y-12524048D01*
X7273095Y-12543095D01*
X7254048Y-12552619D01*
X7549286Y-12495476D02*
X7454048Y-12495476D01*
X7444524Y-12590714D01*
X7454048Y-12581190D01*
X7473095Y-12571667D01*
X7520714Y-12571667D01*
X7539762Y-12581190D01*
X7549286Y-12590714D01*
X7558809Y-12609762D01*
X7558809Y-12657381D01*
X7549286Y-12676428D01*
X7539762Y-12685952D01*
X7520714Y-12695476D01*
X7473095Y-12695476D01*
X7454048Y-12685952D01*
X7444524Y-12676428D01*
X7625476Y-12495476D02*
X7758809Y-12495476D01*
X7673095Y-12695476D01*
X7825476Y-12495476D02*
X7825476Y-12533571D01*
X7901667Y-12495476D02*
X7901667Y-12533571D01*
X8196905Y-12771667D02*
X8187381Y-12762143D01*
X8168333Y-12733571D01*
X8158809Y-12714524D01*
X8149286Y-12685952D01*
X8139762Y-12638333D01*
X8139762Y-12600238D01*
X8149286Y-12552619D01*
X8158809Y-12524048D01*
X8168333Y-12505000D01*
X8187381Y-12476428D01*
X8196905Y-12466905D01*
X8358809Y-12562143D02*
X8358809Y-12695476D01*
X8311190Y-12485952D02*
X8263571Y-12628809D01*
X8387381Y-12628809D01*
X8454048Y-12514524D02*
X8463571Y-12505000D01*
X8482619Y-12495476D01*
X8530238Y-12495476D01*
X8549286Y-12505000D01*
X8558810Y-12514524D01*
X8568333Y-12533571D01*
X8568333Y-12552619D01*
X8558810Y-12581190D01*
X8444524Y-12695476D01*
X8568333Y-12695476D01*
X8758810Y-12695476D02*
X8644524Y-12695476D01*
X8701667Y-12695476D02*
X8701667Y-12495476D01*
X8682619Y-12524048D01*
X8663571Y-12543095D01*
X8644524Y-12552619D01*
X8996905Y-12695476D02*
X8996905Y-12495476D01*
X9082619Y-12695476D02*
X9082619Y-12590714D01*
X9073095Y-12571667D01*
X9054048Y-12562143D01*
X9025476Y-12562143D01*
X9006429Y-12571667D01*
X8996905Y-12581190D01*
X9206429Y-12695476D02*
X9187381Y-12685952D01*
X9177857Y-12676428D01*
X9168333Y-12657381D01*
X9168333Y-12600238D01*
X9177857Y-12581190D01*
X9187381Y-12571667D01*
X9206429Y-12562143D01*
X9235000Y-12562143D01*
X9254048Y-12571667D01*
X9263571Y-12581190D01*
X9273095Y-12600238D01*
X9273095Y-12657381D01*
X9263571Y-12676428D01*
X9254048Y-12685952D01*
X9235000Y-12695476D01*
X9206429Y-12695476D01*
X9387381Y-12695476D02*
X9368333Y-12685952D01*
X9358810Y-12666905D01*
X9358810Y-12495476D01*
X9539762Y-12685952D02*
X9520714Y-12695476D01*
X9482619Y-12695476D01*
X9463571Y-12685952D01*
X9454048Y-12666905D01*
X9454048Y-12590714D01*
X9463571Y-12571667D01*
X9482619Y-12562143D01*
X9520714Y-12562143D01*
X9539762Y-12571667D01*
X9549286Y-12590714D01*
X9549286Y-12609762D01*
X9454048Y-12628809D01*
X9625476Y-12685952D02*
X9644524Y-12695476D01*
X9682619Y-12695476D01*
X9701667Y-12685952D01*
X9711190Y-12666905D01*
X9711190Y-12657381D01*
X9701667Y-12638333D01*
X9682619Y-12628809D01*
X9654048Y-12628809D01*
X9635000Y-12619286D01*
X9625476Y-12600238D01*
X9625476Y-12590714D01*
X9635000Y-12571667D01*
X9654048Y-12562143D01*
X9682619Y-12562143D01*
X9701667Y-12571667D01*
X9777857Y-12771667D02*
X9787381Y-12762143D01*
X9806429Y-12733571D01*
X9815952Y-12714524D01*
X9825476Y-12685952D01*
X9835000Y-12638333D01*
X9835000Y-12600238D01*
X9825476Y-12552619D01*
X9815952Y-12524048D01*
X9806429Y-12505000D01*
X9787381Y-12476428D01*
X9777857Y-12466905D01*
M02*
