G04 #@! TF.GenerationSoftware,KiCad,Pcbnew,6.0.8+dfsg-1~bpo11+1*
G04 #@! TF.CreationDate,2023-08-01T08:47:41-04:00*
G04 #@! TF.ProjectId,14_8x32_self_capacitance,31345f38-7833-4325-9f73-656c665f6361,rev?*
G04 #@! TF.SameCoordinates,Original*
G04 #@! TF.FileFunction,Soldermask,Top*
G04 #@! TF.FilePolarity,Negative*
%FSLAX46Y46*%
G04 Gerber Fmt 4.6, Leading zero omitted, Abs format (unit mm)*
G04 Created by KiCad (PCBNEW 6.0.8+dfsg-1~bpo11+1) date 2023-08-01 08:47:41*
%MOMM*%
%LPD*%
G01*
G04 APERTURE LIST*
G04 Aperture macros list*
%AMFreePoly0*
4,1,13,2.417426,2.592426,2.435000,2.550000,2.435000,-2.450000,2.417426,-2.492426,2.375000,-2.510000,-2.625000,-2.510000,-2.667426,-2.492426,-2.685000,-2.450000,-2.685000,2.550000,-2.667426,2.592426,-2.625000,2.610000,2.375000,2.610000,2.417426,2.592426,2.417426,2.592426,$1*%
G04 Aperture macros list end*
%ADD10C,0.050000*%
%ADD11FreePoly0,0.000000*%
G04 APERTURE END LIST*
D10*
X68200000Y-56600000D02*
X260200000Y-56600000D01*
X260200000Y-56600000D02*
X260200000Y-104600000D01*
X260200000Y-104600000D02*
X68200000Y-104600000D01*
X68200000Y-104600000D02*
X68200000Y-56600000D01*
G36*
X68200000Y-56600000D02*
G01*
X260200000Y-56600000D01*
X260200000Y-104600000D01*
X68200000Y-104600000D01*
X68200000Y-56600000D01*
G37*
D11*
X71325000Y-59650000D03*
X71325000Y-65650000D03*
X71325000Y-71650000D03*
X71325000Y-77650000D03*
X71325000Y-83650000D03*
X71325000Y-89650000D03*
X71325000Y-95650000D03*
X71325000Y-101650000D03*
X77325000Y-59650000D03*
X77325000Y-65650000D03*
X77325000Y-71650000D03*
X77325000Y-77650000D03*
X77325000Y-83650000D03*
X77325000Y-89650000D03*
X77325000Y-95650000D03*
X77325000Y-101650000D03*
X83325000Y-59650000D03*
X83325000Y-65650000D03*
X83325000Y-71650000D03*
X83325000Y-77650000D03*
X83325000Y-83650000D03*
X83325000Y-89650000D03*
X83325000Y-95650000D03*
X83325000Y-101650000D03*
X89325000Y-59650000D03*
X89325000Y-65650000D03*
X89325000Y-71650000D03*
X89325000Y-77650000D03*
X89325000Y-83650000D03*
X89325000Y-89650000D03*
X89325000Y-95650000D03*
X89325000Y-101650000D03*
X95325000Y-59650000D03*
X95325000Y-65650000D03*
X95325000Y-71650000D03*
X95325000Y-77650000D03*
X95325000Y-83650000D03*
X95325000Y-89650000D03*
X95325000Y-95650000D03*
X95325000Y-101650000D03*
X101325000Y-59650000D03*
X101325000Y-65650000D03*
X101325000Y-71650000D03*
X101325000Y-77650000D03*
X101325000Y-83650000D03*
X101325000Y-89650000D03*
X101325000Y-95650000D03*
X101325000Y-101650000D03*
X107325000Y-59650000D03*
X107325000Y-65650000D03*
X107325000Y-71650000D03*
X107325000Y-77650000D03*
X107325000Y-83650000D03*
X107325000Y-89650000D03*
X107325000Y-95650000D03*
X107325000Y-101650000D03*
X113325000Y-59650000D03*
X113325000Y-65650000D03*
X113325000Y-71650000D03*
X113325000Y-77650000D03*
X113325000Y-83650000D03*
X113325000Y-89650000D03*
X113325000Y-95650000D03*
X113325000Y-101650000D03*
X119325000Y-59650000D03*
X119325000Y-65650000D03*
X119325000Y-71650000D03*
X119325000Y-77650000D03*
X119325000Y-83650000D03*
X119325000Y-89650000D03*
X119325000Y-95650000D03*
X119325000Y-101650000D03*
X125325000Y-59650000D03*
X125325000Y-65650000D03*
X125325000Y-71650000D03*
X125325000Y-77650000D03*
X125325000Y-83650000D03*
X125325000Y-89650000D03*
X125325000Y-95650000D03*
X125325000Y-101650000D03*
X131325000Y-59650000D03*
X131325000Y-65650000D03*
X131325000Y-71650000D03*
X131325000Y-77650000D03*
X131325000Y-83650000D03*
X131325000Y-89650000D03*
X131325000Y-95650000D03*
X131325000Y-101650000D03*
X137325000Y-59650000D03*
X137325000Y-65650000D03*
X137325000Y-71650000D03*
X137325000Y-77650000D03*
X137325000Y-83650000D03*
X137325000Y-89650000D03*
X137325000Y-95650000D03*
X137325000Y-101650000D03*
X143325000Y-59650000D03*
X143325000Y-65650000D03*
X143325000Y-71650000D03*
X143325000Y-77650000D03*
X143325000Y-83650000D03*
X143325000Y-89650000D03*
X143325000Y-95650000D03*
X143325000Y-101650000D03*
X149325000Y-59650000D03*
X149325000Y-65650000D03*
X149325000Y-71650000D03*
X149325000Y-77650000D03*
X149325000Y-83650000D03*
X149325000Y-89650000D03*
X149325000Y-95650000D03*
X149325000Y-101650000D03*
X155325000Y-59650000D03*
X155325000Y-65650000D03*
X155325000Y-71650000D03*
X155325000Y-77650000D03*
X155325000Y-83650000D03*
X155325000Y-89650000D03*
X155325000Y-95650000D03*
X155325000Y-101650000D03*
X161325000Y-59650000D03*
X161325000Y-65650000D03*
X161325000Y-71650000D03*
X161325000Y-77650000D03*
X161325000Y-83650000D03*
X161325000Y-89650000D03*
X161325000Y-95650000D03*
X161325000Y-101650000D03*
X167325000Y-59650000D03*
X167325000Y-65650000D03*
X167325000Y-71650000D03*
X167325000Y-77650000D03*
X167325000Y-83650000D03*
X167325000Y-89650000D03*
X167325000Y-95650000D03*
X167325000Y-101650000D03*
X173325000Y-59650000D03*
X173325000Y-65650000D03*
X173325000Y-71650000D03*
X173325000Y-77650000D03*
X173325000Y-83650000D03*
X173325000Y-89650000D03*
X173325000Y-95650000D03*
X173325000Y-101650000D03*
X179325000Y-59650000D03*
X179325000Y-65650000D03*
X179325000Y-71650000D03*
X179325000Y-77650000D03*
X179325000Y-83650000D03*
X179325000Y-89650000D03*
X179325000Y-95650000D03*
X179325000Y-101650000D03*
X185325000Y-59650000D03*
X185325000Y-65650000D03*
X185325000Y-71650000D03*
X185325000Y-77650000D03*
X185325000Y-83650000D03*
X185325000Y-89650000D03*
X185325000Y-95650000D03*
X185325000Y-101650000D03*
X191325000Y-59650000D03*
X191325000Y-65650000D03*
X191325000Y-71650000D03*
X191325000Y-77650000D03*
X191325000Y-83650000D03*
X191325000Y-89650000D03*
X191325000Y-95650000D03*
X191325000Y-101650000D03*
X197325000Y-59650000D03*
X197325000Y-65650000D03*
X197325000Y-71650000D03*
X197325000Y-77650000D03*
X197325000Y-83650000D03*
X197325000Y-89650000D03*
X197325000Y-95650000D03*
X197325000Y-101650000D03*
X203325000Y-59650000D03*
X203325000Y-65650000D03*
X203325000Y-71650000D03*
X203325000Y-77650000D03*
X203325000Y-83650000D03*
X203325000Y-89650000D03*
X203325000Y-95650000D03*
X203325000Y-101650000D03*
X209325000Y-59650000D03*
X209325000Y-65650000D03*
X209325000Y-71650000D03*
X209325000Y-77650000D03*
X209325000Y-83650000D03*
X209325000Y-89650000D03*
X209325000Y-95650000D03*
X209325000Y-101650000D03*
X215325000Y-59650000D03*
X215325000Y-65650000D03*
X215325000Y-71650000D03*
X215325000Y-77650000D03*
X215325000Y-83650000D03*
X215325000Y-89650000D03*
X215325000Y-95650000D03*
X215325000Y-101650000D03*
X221325000Y-59650000D03*
X221325000Y-65650000D03*
X221325000Y-71650000D03*
X221325000Y-77650000D03*
X221325000Y-83650000D03*
X221325000Y-89650000D03*
X221325000Y-95650000D03*
X221325000Y-101650000D03*
X227325000Y-59650000D03*
X227325000Y-65650000D03*
X227325000Y-71650000D03*
X227325000Y-77650000D03*
X227325000Y-83650000D03*
X227325000Y-89650000D03*
X227325000Y-95650000D03*
X227325000Y-101650000D03*
X233325000Y-59650000D03*
X233325000Y-65650000D03*
X233325000Y-71650000D03*
X233325000Y-77650000D03*
X233325000Y-83650000D03*
X233325000Y-89650000D03*
X233325000Y-95650000D03*
X233325000Y-101650000D03*
X239325000Y-59650000D03*
X239325000Y-65650000D03*
X239325000Y-71650000D03*
X239325000Y-77650000D03*
X239325000Y-83650000D03*
X239325000Y-89650000D03*
X239325000Y-95650000D03*
X239325000Y-101650000D03*
X245325000Y-59650000D03*
X245325000Y-65650000D03*
X245325000Y-71650000D03*
X245325000Y-77650000D03*
X245325000Y-83650000D03*
X245325000Y-89650000D03*
X245325000Y-95650000D03*
X245325000Y-101650000D03*
X251325000Y-59650000D03*
X251325000Y-65650000D03*
X251325000Y-71650000D03*
X251325000Y-77650000D03*
X251325000Y-83650000D03*
X251325000Y-89650000D03*
X251325000Y-95650000D03*
X251325000Y-101650000D03*
X257325000Y-59650000D03*
X257325000Y-65650000D03*
X257325000Y-71650000D03*
X257325000Y-77650000D03*
X257325000Y-83650000D03*
X257325000Y-89650000D03*
X257325000Y-95650000D03*
X257325000Y-101650000D03*
M02*
