G04 #@! TF.GenerationSoftware,KiCad,Pcbnew,6.0.8+dfsg-1~bpo11+1*
G04 #@! TF.CreationDate,2023-08-01T08:47:41-04:00*
G04 #@! TF.ProjectId,14_8x32_self_capacitance,31345f38-7833-4325-9f73-656c665f6361,rev?*
G04 #@! TF.SameCoordinates,Original*
G04 #@! TF.FileFunction,Paste,Bot*
G04 #@! TF.FilePolarity,Positive*
%FSLAX46Y46*%
G04 Gerber Fmt 4.6, Leading zero omitted, Abs format (unit mm)*
G04 Created by KiCad (PCBNEW 6.0.8+dfsg-1~bpo11+1) date 2023-08-01 08:47:41*
%MOMM*%
%LPD*%
G01*
G04 APERTURE LIST*
G04 Aperture macros list*
%AMRoundRect*
0 Rectangle with rounded corners*
0 $1 Rounding radius*
0 $2 $3 $4 $5 $6 $7 $8 $9 X,Y pos of 4 corners*
0 Add a 4 corners polygon primitive as box body*
4,1,4,$2,$3,$4,$5,$6,$7,$8,$9,$2,$3,0*
0 Add four circle primitives for the rounded corners*
1,1,$1+$1,$2,$3*
1,1,$1+$1,$4,$5*
1,1,$1+$1,$6,$7*
1,1,$1+$1,$8,$9*
0 Add four rect primitives between the rounded corners*
20,1,$1+$1,$2,$3,$4,$5,0*
20,1,$1+$1,$4,$5,$6,$7,0*
20,1,$1+$1,$6,$7,$8,$9,0*
20,1,$1+$1,$8,$9,$2,$3,0*%
G04 Aperture macros list end*
%ADD10RoundRect,0.150000X-0.825000X-0.150000X0.825000X-0.150000X0.825000X0.150000X-0.825000X0.150000X0*%
%ADD11RoundRect,0.150000X0.150000X-0.875000X0.150000X0.875000X-0.150000X0.875000X-0.150000X-0.875000X0*%
%ADD12R,1.600000X0.400000*%
%ADD13R,2.900000X1.400000*%
%ADD14RoundRect,0.150000X-0.150000X0.875000X-0.150000X-0.875000X0.150000X-0.875000X0.150000X0.875000X0*%
G04 APERTURE END LIST*
D10*
X60225000Y-72745000D03*
X60225000Y-71475000D03*
X60225000Y-70205000D03*
X60225000Y-68935000D03*
X60225000Y-67665000D03*
X60225000Y-66395000D03*
X60225000Y-65125000D03*
X60225000Y-63855000D03*
X65175000Y-63855000D03*
X65175000Y-65125000D03*
X65175000Y-66395000D03*
X65175000Y-67665000D03*
X65175000Y-68935000D03*
X65175000Y-70205000D03*
X65175000Y-71475000D03*
X65175000Y-72745000D03*
D11*
X165185000Y-54250000D03*
X163915000Y-54250000D03*
X162645000Y-54250000D03*
X161375000Y-54250000D03*
X160105000Y-54250000D03*
X158835000Y-54250000D03*
X157565000Y-54250000D03*
X156295000Y-54250000D03*
X155025000Y-54250000D03*
X153755000Y-54250000D03*
X152485000Y-54250000D03*
X151215000Y-54250000D03*
X151215000Y-44950000D03*
X152485000Y-44950000D03*
X153755000Y-44950000D03*
X155025000Y-44950000D03*
X156295000Y-44950000D03*
X157565000Y-44950000D03*
X158835000Y-44950000D03*
X160105000Y-44950000D03*
X161375000Y-44950000D03*
X162645000Y-44950000D03*
X163915000Y-44950000D03*
X165185000Y-44950000D03*
D10*
X60425000Y-90245000D03*
X60425000Y-88975000D03*
X60425000Y-87705000D03*
X60425000Y-86435000D03*
X60425000Y-85165000D03*
X60425000Y-83895000D03*
X60425000Y-82625000D03*
X60425000Y-81355000D03*
X65375000Y-81355000D03*
X65375000Y-82625000D03*
X65375000Y-83895000D03*
X65375000Y-85165000D03*
X65375000Y-86435000D03*
X65375000Y-87705000D03*
X65375000Y-88975000D03*
X65375000Y-90245000D03*
D11*
X237185000Y-54250000D03*
X235915000Y-54250000D03*
X234645000Y-54250000D03*
X233375000Y-54250000D03*
X232105000Y-54250000D03*
X230835000Y-54250000D03*
X229565000Y-54250000D03*
X228295000Y-54250000D03*
X227025000Y-54250000D03*
X225755000Y-54250000D03*
X224485000Y-54250000D03*
X223215000Y-54250000D03*
X223215000Y-44950000D03*
X224485000Y-44950000D03*
X225755000Y-44950000D03*
X227025000Y-44950000D03*
X228295000Y-44950000D03*
X229565000Y-44950000D03*
X230835000Y-44950000D03*
X232105000Y-44950000D03*
X233375000Y-44950000D03*
X234645000Y-44950000D03*
X235915000Y-44950000D03*
X237185000Y-44950000D03*
X261185000Y-54250000D03*
X259915000Y-54250000D03*
X258645000Y-54250000D03*
X257375000Y-54250000D03*
X256105000Y-54250000D03*
X254835000Y-54250000D03*
X253565000Y-54250000D03*
X252295000Y-54250000D03*
X251025000Y-54250000D03*
X249755000Y-54250000D03*
X248485000Y-54250000D03*
X247215000Y-54250000D03*
X247215000Y-44950000D03*
X248485000Y-44950000D03*
X249755000Y-44950000D03*
X251025000Y-44950000D03*
X252295000Y-44950000D03*
X253565000Y-44950000D03*
X254835000Y-44950000D03*
X256105000Y-44950000D03*
X257375000Y-44950000D03*
X258645000Y-44950000D03*
X259915000Y-44950000D03*
X261185000Y-44950000D03*
X189185000Y-54250000D03*
X187915000Y-54250000D03*
X186645000Y-54250000D03*
X185375000Y-54250000D03*
X184105000Y-54250000D03*
X182835000Y-54250000D03*
X181565000Y-54250000D03*
X180295000Y-54250000D03*
X179025000Y-54250000D03*
X177755000Y-54250000D03*
X176485000Y-54250000D03*
X175215000Y-54250000D03*
X175215000Y-44950000D03*
X176485000Y-44950000D03*
X177755000Y-44950000D03*
X179025000Y-44950000D03*
X180295000Y-44950000D03*
X181565000Y-44950000D03*
X182835000Y-44950000D03*
X184105000Y-44950000D03*
X185375000Y-44950000D03*
X186645000Y-44950000D03*
X187915000Y-44950000D03*
X189185000Y-44950000D03*
D12*
X51100000Y-80750000D03*
X53500000Y-80250000D03*
X51100000Y-79750000D03*
X53500000Y-79250000D03*
X51100000Y-78750000D03*
X53500000Y-78250000D03*
X51100000Y-77750000D03*
X53500000Y-77250000D03*
X51100000Y-76750000D03*
X53500000Y-76250000D03*
X51100000Y-75750000D03*
X53500000Y-75250000D03*
X51100000Y-74750000D03*
X53500000Y-74250000D03*
X51100000Y-73750000D03*
X53500000Y-73250000D03*
D13*
X52300000Y-82450000D03*
X52300000Y-71550000D03*
D11*
X141185000Y-54250000D03*
X139915000Y-54250000D03*
X138645000Y-54250000D03*
X137375000Y-54250000D03*
X136105000Y-54250000D03*
X134835000Y-54250000D03*
X133565000Y-54250000D03*
X132295000Y-54250000D03*
X131025000Y-54250000D03*
X129755000Y-54250000D03*
X128485000Y-54250000D03*
X127215000Y-54250000D03*
X127215000Y-44950000D03*
X128485000Y-44950000D03*
X129755000Y-44950000D03*
X131025000Y-44950000D03*
X132295000Y-44950000D03*
X133565000Y-44950000D03*
X134835000Y-44950000D03*
X136105000Y-44950000D03*
X137375000Y-44950000D03*
X138645000Y-44950000D03*
X139915000Y-44950000D03*
X141185000Y-44950000D03*
D14*
X91115000Y-107050000D03*
X92385000Y-107050000D03*
X93655000Y-107050000D03*
X94925000Y-107050000D03*
X96195000Y-107050000D03*
X97465000Y-107050000D03*
X98735000Y-107050000D03*
X100005000Y-107050000D03*
X101275000Y-107050000D03*
X102545000Y-107050000D03*
X103815000Y-107050000D03*
X105085000Y-107050000D03*
X105085000Y-116350000D03*
X103815000Y-116350000D03*
X102545000Y-116350000D03*
X101275000Y-116350000D03*
X100005000Y-116350000D03*
X98735000Y-116350000D03*
X97465000Y-116350000D03*
X96195000Y-116350000D03*
X94925000Y-116350000D03*
X93655000Y-116350000D03*
X92385000Y-116350000D03*
X91115000Y-116350000D03*
X115115000Y-107050000D03*
X116385000Y-107050000D03*
X117655000Y-107050000D03*
X118925000Y-107050000D03*
X120195000Y-107050000D03*
X121465000Y-107050000D03*
X122735000Y-107050000D03*
X124005000Y-107050000D03*
X125275000Y-107050000D03*
X126545000Y-107050000D03*
X127815000Y-107050000D03*
X129085000Y-107050000D03*
X129085000Y-116350000D03*
X127815000Y-116350000D03*
X126545000Y-116350000D03*
X125275000Y-116350000D03*
X124005000Y-116350000D03*
X122735000Y-116350000D03*
X121465000Y-116350000D03*
X120195000Y-116350000D03*
X118925000Y-116350000D03*
X117655000Y-116350000D03*
X116385000Y-116350000D03*
X115115000Y-116350000D03*
X139115000Y-107050000D03*
X140385000Y-107050000D03*
X141655000Y-107050000D03*
X142925000Y-107050000D03*
X144195000Y-107050000D03*
X145465000Y-107050000D03*
X146735000Y-107050000D03*
X148005000Y-107050000D03*
X149275000Y-107050000D03*
X150545000Y-107050000D03*
X151815000Y-107050000D03*
X153085000Y-107050000D03*
X153085000Y-116350000D03*
X151815000Y-116350000D03*
X150545000Y-116350000D03*
X149275000Y-116350000D03*
X148005000Y-116350000D03*
X146735000Y-116350000D03*
X145465000Y-116350000D03*
X144195000Y-116350000D03*
X142925000Y-116350000D03*
X141655000Y-116350000D03*
X140385000Y-116350000D03*
X139115000Y-116350000D03*
X187115000Y-107050000D03*
X188385000Y-107050000D03*
X189655000Y-107050000D03*
X190925000Y-107050000D03*
X192195000Y-107050000D03*
X193465000Y-107050000D03*
X194735000Y-107050000D03*
X196005000Y-107050000D03*
X197275000Y-107050000D03*
X198545000Y-107050000D03*
X199815000Y-107050000D03*
X201085000Y-107050000D03*
X201085000Y-116350000D03*
X199815000Y-116350000D03*
X198545000Y-116350000D03*
X197275000Y-116350000D03*
X196005000Y-116350000D03*
X194735000Y-116350000D03*
X193465000Y-116350000D03*
X192195000Y-116350000D03*
X190925000Y-116350000D03*
X189655000Y-116350000D03*
X188385000Y-116350000D03*
X187115000Y-116350000D03*
D11*
X117185000Y-54250000D03*
X115915000Y-54250000D03*
X114645000Y-54250000D03*
X113375000Y-54250000D03*
X112105000Y-54250000D03*
X110835000Y-54250000D03*
X109565000Y-54250000D03*
X108295000Y-54250000D03*
X107025000Y-54250000D03*
X105755000Y-54250000D03*
X104485000Y-54250000D03*
X103215000Y-54250000D03*
X103215000Y-44950000D03*
X104485000Y-44950000D03*
X105755000Y-44950000D03*
X107025000Y-44950000D03*
X108295000Y-44950000D03*
X109565000Y-44950000D03*
X110835000Y-44950000D03*
X112105000Y-44950000D03*
X113375000Y-44950000D03*
X114645000Y-44950000D03*
X115915000Y-44950000D03*
X117185000Y-44950000D03*
D14*
X67215000Y-107050000D03*
X68485000Y-107050000D03*
X69755000Y-107050000D03*
X71025000Y-107050000D03*
X72295000Y-107050000D03*
X73565000Y-107050000D03*
X74835000Y-107050000D03*
X76105000Y-107050000D03*
X77375000Y-107050000D03*
X78645000Y-107050000D03*
X79915000Y-107050000D03*
X81185000Y-107050000D03*
X81185000Y-116350000D03*
X79915000Y-116350000D03*
X78645000Y-116350000D03*
X77375000Y-116350000D03*
X76105000Y-116350000D03*
X74835000Y-116350000D03*
X73565000Y-116350000D03*
X72295000Y-116350000D03*
X71025000Y-116350000D03*
X69755000Y-116350000D03*
X68485000Y-116350000D03*
X67215000Y-116350000D03*
D11*
X213185000Y-54250000D03*
X211915000Y-54250000D03*
X210645000Y-54250000D03*
X209375000Y-54250000D03*
X208105000Y-54250000D03*
X206835000Y-54250000D03*
X205565000Y-54250000D03*
X204295000Y-54250000D03*
X203025000Y-54250000D03*
X201755000Y-54250000D03*
X200485000Y-54250000D03*
X199215000Y-54250000D03*
X199215000Y-44950000D03*
X200485000Y-44950000D03*
X201755000Y-44950000D03*
X203025000Y-44950000D03*
X204295000Y-44950000D03*
X205565000Y-44950000D03*
X206835000Y-44950000D03*
X208105000Y-44950000D03*
X209375000Y-44950000D03*
X210645000Y-44950000D03*
X211915000Y-44950000D03*
X213185000Y-44950000D03*
D14*
X235115000Y-107050000D03*
X236385000Y-107050000D03*
X237655000Y-107050000D03*
X238925000Y-107050000D03*
X240195000Y-107050000D03*
X241465000Y-107050000D03*
X242735000Y-107050000D03*
X244005000Y-107050000D03*
X245275000Y-107050000D03*
X246545000Y-107050000D03*
X247815000Y-107050000D03*
X249085000Y-107050000D03*
X249085000Y-116350000D03*
X247815000Y-116350000D03*
X246545000Y-116350000D03*
X245275000Y-116350000D03*
X244005000Y-116350000D03*
X242735000Y-116350000D03*
X241465000Y-116350000D03*
X240195000Y-116350000D03*
X238925000Y-116350000D03*
X237655000Y-116350000D03*
X236385000Y-116350000D03*
X235115000Y-116350000D03*
D11*
X93185000Y-54250000D03*
X91915000Y-54250000D03*
X90645000Y-54250000D03*
X89375000Y-54250000D03*
X88105000Y-54250000D03*
X86835000Y-54250000D03*
X85565000Y-54250000D03*
X84295000Y-54250000D03*
X83025000Y-54250000D03*
X81755000Y-54250000D03*
X80485000Y-54250000D03*
X79215000Y-54250000D03*
X79215000Y-44950000D03*
X80485000Y-44950000D03*
X81755000Y-44950000D03*
X83025000Y-44950000D03*
X84295000Y-44950000D03*
X85565000Y-44950000D03*
X86835000Y-44950000D03*
X88105000Y-44950000D03*
X89375000Y-44950000D03*
X90645000Y-44950000D03*
X91915000Y-44950000D03*
X93185000Y-44950000D03*
D14*
X211115000Y-107050000D03*
X212385000Y-107050000D03*
X213655000Y-107050000D03*
X214925000Y-107050000D03*
X216195000Y-107050000D03*
X217465000Y-107050000D03*
X218735000Y-107050000D03*
X220005000Y-107050000D03*
X221275000Y-107050000D03*
X222545000Y-107050000D03*
X223815000Y-107050000D03*
X225085000Y-107050000D03*
X225085000Y-116350000D03*
X223815000Y-116350000D03*
X222545000Y-116350000D03*
X221275000Y-116350000D03*
X220005000Y-116350000D03*
X218735000Y-116350000D03*
X217465000Y-116350000D03*
X216195000Y-116350000D03*
X214925000Y-116350000D03*
X213655000Y-116350000D03*
X212385000Y-116350000D03*
X211115000Y-116350000D03*
X163015000Y-107050000D03*
X164285000Y-107050000D03*
X165555000Y-107050000D03*
X166825000Y-107050000D03*
X168095000Y-107050000D03*
X169365000Y-107050000D03*
X170635000Y-107050000D03*
X171905000Y-107050000D03*
X173175000Y-107050000D03*
X174445000Y-107050000D03*
X175715000Y-107050000D03*
X176985000Y-107050000D03*
X176985000Y-116350000D03*
X175715000Y-116350000D03*
X174445000Y-116350000D03*
X173175000Y-116350000D03*
X171905000Y-116350000D03*
X170635000Y-116350000D03*
X169365000Y-116350000D03*
X168095000Y-116350000D03*
X166825000Y-116350000D03*
X165555000Y-116350000D03*
X164285000Y-116350000D03*
X163015000Y-116350000D03*
M02*
