%TF.GenerationSoftware,KiCad,Pcbnew,5.1.9+dfsg1-1*%
%TF.CreationDate,2022-01-14T18:58:44-05:00*%
%TF.ProjectId,samd51j18a,73616d64-3531-46a3-9138-612e6b696361,rev?*%
%TF.SameCoordinates,Original*%
%TF.FileFunction,Copper,L2,Bot*%
%TF.FilePolarity,Positive*%
%FSLAX46Y46*%
G04 Gerber Fmt 4.6, Leading zero omitted, Abs format (unit mm)*
G04 Created by KiCad (PCBNEW 5.1.9+dfsg1-1) date 2022-01-14 18:58:44*
%MOMM*%
%LPD*%
G01*
G04 APERTURE LIST*
%TA.AperFunction,ComponentPad*%
%ADD10O,1.700000X1.700000*%
%TD*%
%TA.AperFunction,ComponentPad*%
%ADD11R,1.700000X1.700000*%
%TD*%
%TA.AperFunction,ComponentPad*%
%ADD12O,1.800000X1.000000*%
%TD*%
%TA.AperFunction,ComponentPad*%
%ADD13O,2.100000X1.000000*%
%TD*%
%TA.AperFunction,ComponentPad*%
%ADD14O,1.000000X1.000000*%
%TD*%
%TA.AperFunction,ComponentPad*%
%ADD15R,1.000000X1.000000*%
%TD*%
%TA.AperFunction,SMDPad,CuDef*%
%ADD16R,1.900000X1.400000*%
%TD*%
%TA.AperFunction,SMDPad,CuDef*%
%ADD17R,2.000000X0.800000*%
%TD*%
%TA.AperFunction,SMDPad,CuDef*%
%ADD18R,1.400000X1.800000*%
%TD*%
%TA.AperFunction,ViaPad*%
%ADD19C,0.800000*%
%TD*%
%TA.AperFunction,Conductor*%
%ADD20C,0.250000*%
%TD*%
%TA.AperFunction,Conductor*%
%ADD21C,0.254000*%
%TD*%
%TA.AperFunction,Conductor*%
%ADD22C,0.100000*%
%TD*%
G04 APERTURE END LIST*
D10*
%TO.P,J4,20*%
%TO.N,PA19*%
X165100000Y-63500000D03*
%TO.P,J4,19*%
%TO.N,PB16*%
X162560000Y-63500000D03*
%TO.P,J4,18*%
%TO.N,PB17*%
X160020000Y-63500000D03*
%TO.P,J4,17*%
%TO.N,PA20*%
X157480000Y-63500000D03*
%TO.P,J4,16*%
%TO.N,PA21*%
X154940000Y-63500000D03*
%TO.P,J4,15*%
%TO.N,PA22*%
X152400000Y-63500000D03*
%TO.P,J4,14*%
%TO.N,PA23*%
X149860000Y-63500000D03*
%TO.P,J4,13*%
%TO.N,PB22*%
X147320000Y-63500000D03*
%TO.P,J4,12*%
%TO.N,PB23*%
X144780000Y-63500000D03*
%TO.P,J4,11*%
%TO.N,PA27*%
X142240000Y-63500000D03*
%TO.P,J4,10*%
%TO.N,PB30*%
X139700000Y-63500000D03*
%TO.P,J4,9*%
%TO.N,PB31*%
X137160000Y-63500000D03*
%TO.P,J4,8*%
%TO.N,PB00*%
X134620000Y-63500000D03*
%TO.P,J4,7*%
%TO.N,PB01*%
X132080000Y-63500000D03*
%TO.P,J4,6*%
%TO.N,PB02*%
X129540000Y-63500000D03*
%TO.P,J4,5*%
%TO.N,PB03*%
X127000000Y-63500000D03*
%TO.P,J4,4*%
%TO.N,PA02*%
X124460000Y-63500000D03*
%TO.P,J4,3*%
%TO.N,PA03*%
X121920000Y-63500000D03*
%TO.P,J4,2*%
%TO.N,PB04*%
X119380000Y-63500000D03*
D11*
%TO.P,J4,1*%
%TO.N,PB05*%
X116840000Y-63500000D03*
%TD*%
D10*
%TO.P,J1,20*%
%TO.N,+3V3*%
X165100000Y-86360000D03*
%TO.P,J1,19*%
%TO.N,GND*%
X162560000Y-86360000D03*
%TO.P,J1,18*%
%TO.N,PA18*%
X160020000Y-86360000D03*
%TO.P,J1,17*%
%TO.N,PA17*%
X157480000Y-86360000D03*
%TO.P,J1,16*%
%TO.N,PA16*%
X154940000Y-86360000D03*
%TO.P,J1,15*%
%TO.N,PA15*%
X152400000Y-86360000D03*
%TO.P,J1,14*%
%TO.N,PA14*%
X149860000Y-86360000D03*
%TO.P,J1,13*%
%TO.N,PA13*%
X147320000Y-86360000D03*
%TO.P,J1,12*%
%TO.N,PA12*%
X144780000Y-86360000D03*
%TO.P,J1,11*%
%TO.N,PB15*%
X142240000Y-86360000D03*
%TO.P,J1,10*%
%TO.N,PB14*%
X139700000Y-86360000D03*
%TO.P,J1,9*%
%TO.N,PB13*%
X137160000Y-86360000D03*
%TO.P,J1,8*%
%TO.N,PB12*%
X134620000Y-86360000D03*
%TO.P,J1,7*%
%TO.N,PA07*%
X132080000Y-86360000D03*
%TO.P,J1,6*%
%TO.N,PA05*%
X129540000Y-86360000D03*
%TO.P,J1,5*%
%TO.N,PA04*%
X127000000Y-86360000D03*
%TO.P,J1,4*%
%TO.N,PB09*%
X124460000Y-86360000D03*
%TO.P,J1,3*%
%TO.N,PB08*%
X121920000Y-86360000D03*
%TO.P,J1,2*%
%TO.N,PB07*%
X119380000Y-86360000D03*
D11*
%TO.P,J1,1*%
%TO.N,PB06*%
X116840000Y-86360000D03*
%TD*%
D12*
%TO.P,USB C,S1*%
%TO.N,GND*%
X102385000Y-79059500D03*
X102385000Y-70419500D03*
D13*
X106565000Y-70419500D03*
X106565000Y-79059500D03*
%TD*%
D14*
%TO.P,DEBUG,10*%
%TO.N,RESET*%
X155130500Y-77216000D03*
%TO.P,DEBUG,9*%
%TO.N,Net-(J5-Pad9)*%
X153860500Y-77216000D03*
%TO.P,DEBUG,8*%
%TO.N,Net-(J5-Pad8)*%
X155130500Y-75946000D03*
%TO.P,DEBUG,7*%
%TO.N,Net-(J5-Pad7)*%
X153860500Y-75946000D03*
%TO.P,DEBUG,6*%
%TO.N,Net-(J5-Pad6)*%
X155130500Y-74676000D03*
%TO.P,DEBUG,5*%
%TO.N,GND*%
X153860500Y-74676000D03*
%TO.P,DEBUG,4*%
%TO.N,SWCLK*%
X155130500Y-73406000D03*
%TO.P,DEBUG,3*%
%TO.N,GND*%
X153860500Y-73406000D03*
%TO.P,DEBUG,2*%
%TO.N,SWDIO*%
X155130500Y-72136000D03*
D15*
%TO.P,DEBUG,1*%
%TO.N,+3V3*%
X153860500Y-72136000D03*
%TD*%
D16*
%TO.P,MICRO SD,11*%
%TO.N,GND*%
X172020000Y-82180000D03*
X171020000Y-69030000D03*
D17*
%TO.P,MICRO SD,1*%
%TO.N,SDDAT[2]*%
X168420000Y-77680000D03*
%TO.P,MICRO SD,2*%
%TO.N,SDDAT[3]*%
X168020000Y-76580000D03*
%TO.P,MICRO SD,3*%
%TO.N,SDCMD*%
X168420000Y-75480000D03*
%TO.P,MICRO SD,4*%
%TO.N,+3V3*%
X168620000Y-74380000D03*
%TO.P,MICRO SD,5*%
%TO.N,SDCK*%
X168420000Y-73280000D03*
%TO.P,MICRO SD,6*%
%TO.N,GND*%
X168620000Y-72180000D03*
%TO.P,MICRO SD,7*%
%TO.N,SDDAT[0]*%
X168420000Y-71080000D03*
%TO.P,MICRO SD,8*%
%TO.N,SDDAT[1]*%
X168420000Y-69980000D03*
D18*
%TO.P,MICRO SD,9*%
%TO.N,SDCD*%
X157870000Y-76330000D03*
%TO.P,MICRO SD,10*%
X157870000Y-70630000D03*
%TD*%
D19*
%TO.N,GND*%
X152781000Y-73406000D03*
X141541500Y-67818000D03*
X147891500Y-66167000D03*
X147574000Y-71818500D03*
X127028000Y-70012500D03*
X118719500Y-80480000D03*
X122705501Y-75731999D03*
X102374500Y-69100500D03*
X102425500Y-74485500D03*
X136715500Y-74803000D03*
X153352500Y-78676500D03*
X144526000Y-78867000D03*
X157543500Y-78613000D03*
%TO.N,+3V3*%
X152781000Y-72136000D03*
X108331000Y-67310000D03*
X140271500Y-72199500D03*
X140490000Y-67790000D03*
X147447000Y-70802500D03*
X134239000Y-83185000D03*
X124587000Y-76327000D03*
X170942000Y-74422000D03*
X123698000Y-66548000D03*
X117919510Y-67309990D03*
X151130000Y-76517500D03*
%TO.N,RESET*%
X142684500Y-70612000D03*
X153162000Y-67754500D03*
X126545500Y-77480000D03*
%TO.N,VCC*%
X144970500Y-67564000D03*
X141605000Y-70612000D03*
%TO.N,D+*%
X108648500Y-74993500D03*
X140462000Y-73215500D03*
%TO.N,D-*%
X105854500Y-74422000D03*
X140462000Y-74231500D03*
%TO.N,SDDAT[2]*%
X138239500Y-78930500D03*
%TO.N,SDDAT[3]*%
X140779500Y-78740000D03*
%TO.N,SDCMD*%
X167068500Y-79692500D03*
X166306500Y-75438000D03*
X135763000Y-82042000D03*
%TO.N,SDCK*%
X142113000Y-78994000D03*
%TO.N,SDDAT[0]*%
X165862000Y-79692500D03*
X165354000Y-71056500D03*
X136969500Y-82169000D03*
%TO.N,SDDAT[1]*%
X164719000Y-79692500D03*
X164147500Y-70040500D03*
X136779000Y-78930500D03*
%TO.N,SDCD*%
X135890000Y-78105000D03*
%TO.N,SWCLK*%
X153162000Y-68897500D03*
X148145500Y-69088000D03*
%TO.N,SWDIO*%
X153162000Y-70104000D03*
X147066000Y-69850000D03*
%TD*%
D20*
%TO.N,GND*%
X170070000Y-68330000D02*
X170184000Y-68330000D01*
X170184000Y-68330000D02*
X171005500Y-69151500D01*
X171005500Y-69151500D02*
X171005500Y-70479502D01*
X171005500Y-70479502D02*
X171005500Y-72136000D01*
X171005500Y-72136000D02*
X168846500Y-72136000D01*
X168846500Y-72136000D02*
X170815000Y-72136000D01*
X170815000Y-72136000D02*
X172275500Y-73596500D01*
X172275500Y-73596500D02*
X172275500Y-79565500D01*
X172275500Y-79565500D02*
X172021500Y-79819500D01*
X172021500Y-79819500D02*
X172021500Y-82232500D01*
X172021500Y-82232500D02*
X166878000Y-82232500D01*
X166878000Y-82232500D02*
X164719000Y-84391500D01*
X164719000Y-84391500D02*
X162560000Y-84391500D01*
X162560000Y-84391500D02*
X162560000Y-86233000D01*
%TO.N,+3V3*%
X140490000Y-67790000D02*
X140490000Y-72108000D01*
X140490000Y-72108000D02*
X140462000Y-72136000D01*
X147447000Y-70802500D02*
X151892000Y-70802500D01*
X152654000Y-71564500D02*
X152654000Y-72136000D01*
X151892000Y-70802500D02*
X152654000Y-71564500D01*
X130879315Y-83185000D02*
X134239000Y-83185000D01*
X124587000Y-76892685D02*
X130879315Y-83185000D01*
X124587000Y-76327000D02*
X124587000Y-76892685D01*
X170942000Y-74422000D02*
X168592500Y-74422000D01*
X122936010Y-67309990D02*
X123698000Y-66548000D01*
X117919510Y-67309990D02*
X122936010Y-67309990D01*
X151130000Y-73660000D02*
X152654000Y-72136000D01*
X151130000Y-76517500D02*
X151130000Y-73660000D01*
%TO.N,RESET*%
X147843497Y-68317001D02*
X144288224Y-68317001D01*
X148405998Y-67754500D02*
X147843497Y-68317001D01*
X153162000Y-67754500D02*
X148405998Y-67754500D01*
X142621000Y-69984225D02*
X142621000Y-70675500D01*
X144288224Y-68317001D02*
X142621000Y-69984225D01*
X126645501Y-77379999D02*
X141314001Y-77379999D01*
X126545500Y-77480000D02*
X126645501Y-77379999D01*
X142621000Y-76073000D02*
X142621000Y-70675500D01*
X141314001Y-77379999D02*
X142621000Y-76073000D01*
%TO.N,VCC*%
X144404815Y-67564000D02*
X141922500Y-70046315D01*
X144970500Y-67564000D02*
X144404815Y-67564000D01*
X141922500Y-70421500D02*
X141668500Y-70675500D01*
X141922500Y-70046315D02*
X141922500Y-70421500D01*
%TO.N,D+*%
X110363000Y-73279000D02*
X140462000Y-73279000D01*
X108648500Y-74993500D02*
X110363000Y-73279000D01*
%TO.N,D-*%
X108996501Y-75718501D02*
X110985992Y-73729010D01*
X107151001Y-75718501D02*
X108996501Y-75718501D01*
X105854500Y-74422000D02*
X107151001Y-75718501D01*
X139839008Y-73729010D02*
X140341498Y-74231500D01*
X140341498Y-74231500D02*
X140462000Y-74231500D01*
X110985992Y-73729010D02*
X139839008Y-73729010D01*
%TO.N,SDDAT[2]*%
X140600020Y-81291020D02*
X138239500Y-78930500D01*
X161726300Y-81291020D02*
X140600020Y-81291020D01*
X164158520Y-78858800D02*
X161726300Y-81291020D01*
X164158520Y-78220980D02*
X164158520Y-78858800D01*
X164719000Y-77660500D02*
X164158520Y-78220980D01*
X168338500Y-77660500D02*
X164719000Y-77660500D01*
%TO.N,SDDAT[3]*%
X140779500Y-79312910D02*
X142307600Y-80841010D01*
X140779500Y-78740000D02*
X140779500Y-79312910D01*
X142307600Y-80841010D02*
X158305500Y-80841010D01*
X161539901Y-80841009D02*
X163708510Y-78672400D01*
X158305500Y-80841010D02*
X161539901Y-80841009D01*
X163708510Y-78672400D02*
X163708510Y-77470000D01*
X163708510Y-77470000D02*
X163708510Y-77210490D01*
X163708510Y-77210490D02*
X164338000Y-76581000D01*
X164338000Y-76581000D02*
X168021000Y-76581000D01*
%TO.N,SDCMD*%
X164119950Y-82641050D02*
X167068500Y-79692500D01*
X139926450Y-82641050D02*
X164119950Y-82641050D01*
X139440490Y-83127010D02*
X139926450Y-82641050D01*
X136848010Y-83127010D02*
X139440490Y-83127010D01*
X135763000Y-82042000D02*
X136848010Y-83127010D01*
X166306500Y-75438000D02*
X168402000Y-75438000D01*
%TO.N,SDCK*%
X142113000Y-78994000D02*
X142113000Y-80010000D01*
X142113000Y-80010000D02*
X142494000Y-80391000D01*
X142494000Y-80391000D02*
X158305500Y-80391000D01*
X158305500Y-80391000D02*
X161353500Y-80391000D01*
X161353500Y-80391000D02*
X163258500Y-78486000D01*
X163258500Y-78486000D02*
X163258500Y-75247500D01*
X163258500Y-75247500D02*
X165227000Y-73279000D01*
X165227000Y-73279000D02*
X168402000Y-73279000D01*
%TO.N,SDDAT[0]*%
X163293462Y-82191040D02*
X165792002Y-79692500D01*
X165792002Y-79692500D02*
X165862000Y-79692500D01*
X139169960Y-82191040D02*
X163293462Y-82191040D01*
X138684000Y-82677000D02*
X139169960Y-82191040D01*
X137477500Y-82677000D02*
X138684000Y-82677000D01*
X136969500Y-82169000D02*
X137477500Y-82677000D01*
X165354000Y-71056500D02*
X168338500Y-71056500D01*
%TO.N,SDDAT[1]*%
X164147500Y-70040500D02*
X168338500Y-70040500D01*
X139589530Y-81741030D02*
X136779000Y-78930500D01*
X161912701Y-81741029D02*
X139589530Y-81741030D01*
X163961230Y-79692500D02*
X161912701Y-81741029D01*
X164719000Y-79692500D02*
X163961230Y-79692500D01*
%TO.N,SDCD*%
X158570000Y-75430000D02*
X158570000Y-71321000D01*
X158570000Y-71321000D02*
X157988000Y-70739000D01*
X158570000Y-75430000D02*
X158570000Y-75681500D01*
X158570000Y-75681500D02*
X157861000Y-76390500D01*
X135890000Y-78105000D02*
X135890000Y-78105000D01*
X155958999Y-78041001D02*
X158570000Y-75430000D01*
X144132992Y-79940990D02*
X154059010Y-79940990D01*
X142207001Y-78014999D02*
X144132992Y-79940990D01*
X140431499Y-78014999D02*
X142207001Y-78014999D01*
X154059010Y-79940990D02*
X155958999Y-78041001D01*
X140405497Y-78041001D02*
X140431499Y-78014999D01*
X135953999Y-78041001D02*
X140405497Y-78041001D01*
X135890000Y-78105000D02*
X135953999Y-78041001D01*
%TO.N,SWCLK*%
X152971500Y-69088000D02*
X153162000Y-68897500D01*
X148145500Y-69088000D02*
X152971500Y-69088000D01*
%TO.N,SWDIO*%
X152908000Y-69850000D02*
X153162000Y-70104000D01*
X147066000Y-69850000D02*
X152908000Y-69850000D01*
%TD*%
D21*
%TO.N,GND*%
X115459463Y-62295506D02*
X115400498Y-62405820D01*
X115364188Y-62525518D01*
X115351928Y-62650000D01*
X115351928Y-64350000D01*
X115364188Y-64474482D01*
X115400498Y-64594180D01*
X115459463Y-64704494D01*
X115538815Y-64801185D01*
X115635506Y-64880537D01*
X115745820Y-64939502D01*
X115865518Y-64975812D01*
X115990000Y-64988072D01*
X117690000Y-64988072D01*
X117814482Y-64975812D01*
X117934180Y-64939502D01*
X118044494Y-64880537D01*
X118141185Y-64801185D01*
X118220537Y-64704494D01*
X118279502Y-64594180D01*
X118301513Y-64521620D01*
X118433368Y-64653475D01*
X118676589Y-64815990D01*
X118946842Y-64927932D01*
X119233740Y-64985000D01*
X119526260Y-64985000D01*
X119813158Y-64927932D01*
X120083411Y-64815990D01*
X120326632Y-64653475D01*
X120533475Y-64446632D01*
X120650000Y-64272240D01*
X120766525Y-64446632D01*
X120973368Y-64653475D01*
X121216589Y-64815990D01*
X121486842Y-64927932D01*
X121773740Y-64985000D01*
X122066260Y-64985000D01*
X122353158Y-64927932D01*
X122623411Y-64815990D01*
X122866632Y-64653475D01*
X123073475Y-64446632D01*
X123190000Y-64272240D01*
X123306525Y-64446632D01*
X123513368Y-64653475D01*
X123756589Y-64815990D01*
X124026842Y-64927932D01*
X124313740Y-64985000D01*
X124606260Y-64985000D01*
X124893158Y-64927932D01*
X125163411Y-64815990D01*
X125406632Y-64653475D01*
X125613475Y-64446632D01*
X125730000Y-64272240D01*
X125846525Y-64446632D01*
X126053368Y-64653475D01*
X126296589Y-64815990D01*
X126566842Y-64927932D01*
X126853740Y-64985000D01*
X127146260Y-64985000D01*
X127433158Y-64927932D01*
X127703411Y-64815990D01*
X127946632Y-64653475D01*
X128153475Y-64446632D01*
X128270000Y-64272240D01*
X128386525Y-64446632D01*
X128593368Y-64653475D01*
X128836589Y-64815990D01*
X129106842Y-64927932D01*
X129393740Y-64985000D01*
X129686260Y-64985000D01*
X129973158Y-64927932D01*
X130243411Y-64815990D01*
X130486632Y-64653475D01*
X130693475Y-64446632D01*
X130810000Y-64272240D01*
X130926525Y-64446632D01*
X131133368Y-64653475D01*
X131376589Y-64815990D01*
X131646842Y-64927932D01*
X131933740Y-64985000D01*
X132226260Y-64985000D01*
X132513158Y-64927932D01*
X132783411Y-64815990D01*
X133026632Y-64653475D01*
X133233475Y-64446632D01*
X133350000Y-64272240D01*
X133466525Y-64446632D01*
X133673368Y-64653475D01*
X133916589Y-64815990D01*
X134186842Y-64927932D01*
X134473740Y-64985000D01*
X134766260Y-64985000D01*
X135053158Y-64927932D01*
X135323411Y-64815990D01*
X135566632Y-64653475D01*
X135773475Y-64446632D01*
X135890000Y-64272240D01*
X136006525Y-64446632D01*
X136213368Y-64653475D01*
X136456589Y-64815990D01*
X136726842Y-64927932D01*
X137013740Y-64985000D01*
X137306260Y-64985000D01*
X137593158Y-64927932D01*
X137863411Y-64815990D01*
X138106632Y-64653475D01*
X138313475Y-64446632D01*
X138430000Y-64272240D01*
X138546525Y-64446632D01*
X138753368Y-64653475D01*
X138996589Y-64815990D01*
X139266842Y-64927932D01*
X139553740Y-64985000D01*
X139846260Y-64985000D01*
X140133158Y-64927932D01*
X140403411Y-64815990D01*
X140646632Y-64653475D01*
X140853475Y-64446632D01*
X140970000Y-64272240D01*
X141086525Y-64446632D01*
X141293368Y-64653475D01*
X141536589Y-64815990D01*
X141806842Y-64927932D01*
X142093740Y-64985000D01*
X142386260Y-64985000D01*
X142673158Y-64927932D01*
X142943411Y-64815990D01*
X143186632Y-64653475D01*
X143393475Y-64446632D01*
X143510000Y-64272240D01*
X143626525Y-64446632D01*
X143833368Y-64653475D01*
X144076589Y-64815990D01*
X144346842Y-64927932D01*
X144633740Y-64985000D01*
X144926260Y-64985000D01*
X145213158Y-64927932D01*
X145483411Y-64815990D01*
X145726632Y-64653475D01*
X145933475Y-64446632D01*
X146050000Y-64272240D01*
X146166525Y-64446632D01*
X146373368Y-64653475D01*
X146616589Y-64815990D01*
X146886842Y-64927932D01*
X147173740Y-64985000D01*
X147466260Y-64985000D01*
X147753158Y-64927932D01*
X148023411Y-64815990D01*
X148266632Y-64653475D01*
X148473475Y-64446632D01*
X148590000Y-64272240D01*
X148706525Y-64446632D01*
X148913368Y-64653475D01*
X149156589Y-64815990D01*
X149426842Y-64927932D01*
X149713740Y-64985000D01*
X150006260Y-64985000D01*
X150293158Y-64927932D01*
X150563411Y-64815990D01*
X150806632Y-64653475D01*
X151013475Y-64446632D01*
X151130000Y-64272240D01*
X151246525Y-64446632D01*
X151453368Y-64653475D01*
X151696589Y-64815990D01*
X151966842Y-64927932D01*
X152253740Y-64985000D01*
X152546260Y-64985000D01*
X152833158Y-64927932D01*
X153103411Y-64815990D01*
X153346632Y-64653475D01*
X153553475Y-64446632D01*
X153670000Y-64272240D01*
X153786525Y-64446632D01*
X153993368Y-64653475D01*
X154236589Y-64815990D01*
X154506842Y-64927932D01*
X154793740Y-64985000D01*
X155086260Y-64985000D01*
X155373158Y-64927932D01*
X155643411Y-64815990D01*
X155886632Y-64653475D01*
X156093475Y-64446632D01*
X156210000Y-64272240D01*
X156326525Y-64446632D01*
X156533368Y-64653475D01*
X156776589Y-64815990D01*
X157046842Y-64927932D01*
X157333740Y-64985000D01*
X157626260Y-64985000D01*
X157913158Y-64927932D01*
X158183411Y-64815990D01*
X158426632Y-64653475D01*
X158633475Y-64446632D01*
X158750000Y-64272240D01*
X158866525Y-64446632D01*
X159073368Y-64653475D01*
X159316589Y-64815990D01*
X159586842Y-64927932D01*
X159873740Y-64985000D01*
X160166260Y-64985000D01*
X160453158Y-64927932D01*
X160723411Y-64815990D01*
X160966632Y-64653475D01*
X161173475Y-64446632D01*
X161290000Y-64272240D01*
X161406525Y-64446632D01*
X161613368Y-64653475D01*
X161856589Y-64815990D01*
X162126842Y-64927932D01*
X162413740Y-64985000D01*
X162706260Y-64985000D01*
X162993158Y-64927932D01*
X163263411Y-64815990D01*
X163506632Y-64653475D01*
X163713475Y-64446632D01*
X163830000Y-64272240D01*
X163946525Y-64446632D01*
X164153368Y-64653475D01*
X164396589Y-64815990D01*
X164666842Y-64927932D01*
X164953740Y-64985000D01*
X165246260Y-64985000D01*
X165533158Y-64927932D01*
X165803411Y-64815990D01*
X166046632Y-64653475D01*
X166253475Y-64446632D01*
X166415990Y-64203411D01*
X166527932Y-63933158D01*
X166585000Y-63646260D01*
X166585000Y-63353740D01*
X166527932Y-63066842D01*
X166415990Y-62796589D01*
X166253475Y-62553368D01*
X166046632Y-62346525D01*
X165909655Y-62255000D01*
X172695001Y-62255000D01*
X172695000Y-80843200D01*
X172305750Y-80845000D01*
X172147000Y-81003750D01*
X172147000Y-82053000D01*
X172167000Y-82053000D01*
X172167000Y-82307000D01*
X172147000Y-82307000D01*
X172147000Y-83356250D01*
X172305750Y-83515000D01*
X172695000Y-83516800D01*
X172695000Y-87605000D01*
X165909655Y-87605000D01*
X166046632Y-87513475D01*
X166253475Y-87306632D01*
X166415990Y-87063411D01*
X166527932Y-86793158D01*
X166585000Y-86506260D01*
X166585000Y-86213740D01*
X166527932Y-85926842D01*
X166415990Y-85656589D01*
X166253475Y-85413368D01*
X166046632Y-85206525D01*
X165803411Y-85044010D01*
X165533158Y-84932068D01*
X165246260Y-84875000D01*
X164953740Y-84875000D01*
X164666842Y-84932068D01*
X164396589Y-85044010D01*
X164153368Y-85206525D01*
X163946525Y-85413368D01*
X163824805Y-85595534D01*
X163755178Y-85478645D01*
X163560269Y-85262412D01*
X163326920Y-85088359D01*
X163064099Y-84963175D01*
X162916890Y-84918524D01*
X162687000Y-85039845D01*
X162687000Y-86233000D01*
X162707000Y-86233000D01*
X162707000Y-86487000D01*
X162687000Y-86487000D01*
X162687000Y-86507000D01*
X162433000Y-86507000D01*
X162433000Y-86487000D01*
X162413000Y-86487000D01*
X162413000Y-86233000D01*
X162433000Y-86233000D01*
X162433000Y-85039845D01*
X162203110Y-84918524D01*
X162055901Y-84963175D01*
X161793080Y-85088359D01*
X161559731Y-85262412D01*
X161364822Y-85478645D01*
X161295195Y-85595534D01*
X161173475Y-85413368D01*
X160966632Y-85206525D01*
X160723411Y-85044010D01*
X160453158Y-84932068D01*
X160166260Y-84875000D01*
X159873740Y-84875000D01*
X159586842Y-84932068D01*
X159316589Y-85044010D01*
X159073368Y-85206525D01*
X158866525Y-85413368D01*
X158750000Y-85587760D01*
X158633475Y-85413368D01*
X158426632Y-85206525D01*
X158183411Y-85044010D01*
X157913158Y-84932068D01*
X157626260Y-84875000D01*
X157333740Y-84875000D01*
X157046842Y-84932068D01*
X156776589Y-85044010D01*
X156533368Y-85206525D01*
X156326525Y-85413368D01*
X156210000Y-85587760D01*
X156093475Y-85413368D01*
X155886632Y-85206525D01*
X155643411Y-85044010D01*
X155373158Y-84932068D01*
X155086260Y-84875000D01*
X154793740Y-84875000D01*
X154506842Y-84932068D01*
X154236589Y-85044010D01*
X153993368Y-85206525D01*
X153786525Y-85413368D01*
X153670000Y-85587760D01*
X153553475Y-85413368D01*
X153346632Y-85206525D01*
X153103411Y-85044010D01*
X152833158Y-84932068D01*
X152546260Y-84875000D01*
X152253740Y-84875000D01*
X151966842Y-84932068D01*
X151696589Y-85044010D01*
X151453368Y-85206525D01*
X151246525Y-85413368D01*
X151130000Y-85587760D01*
X151013475Y-85413368D01*
X150806632Y-85206525D01*
X150563411Y-85044010D01*
X150293158Y-84932068D01*
X150006260Y-84875000D01*
X149713740Y-84875000D01*
X149426842Y-84932068D01*
X149156589Y-85044010D01*
X148913368Y-85206525D01*
X148706525Y-85413368D01*
X148590000Y-85587760D01*
X148473475Y-85413368D01*
X148266632Y-85206525D01*
X148023411Y-85044010D01*
X147753158Y-84932068D01*
X147466260Y-84875000D01*
X147173740Y-84875000D01*
X146886842Y-84932068D01*
X146616589Y-85044010D01*
X146373368Y-85206525D01*
X146166525Y-85413368D01*
X146050000Y-85587760D01*
X145933475Y-85413368D01*
X145726632Y-85206525D01*
X145483411Y-85044010D01*
X145213158Y-84932068D01*
X144926260Y-84875000D01*
X144633740Y-84875000D01*
X144346842Y-84932068D01*
X144076589Y-85044010D01*
X143833368Y-85206525D01*
X143626525Y-85413368D01*
X143510000Y-85587760D01*
X143393475Y-85413368D01*
X143186632Y-85206525D01*
X142943411Y-85044010D01*
X142673158Y-84932068D01*
X142386260Y-84875000D01*
X142093740Y-84875000D01*
X141806842Y-84932068D01*
X141536589Y-85044010D01*
X141293368Y-85206525D01*
X141086525Y-85413368D01*
X140970000Y-85587760D01*
X140853475Y-85413368D01*
X140646632Y-85206525D01*
X140403411Y-85044010D01*
X140133158Y-84932068D01*
X139846260Y-84875000D01*
X139553740Y-84875000D01*
X139266842Y-84932068D01*
X138996589Y-85044010D01*
X138753368Y-85206525D01*
X138546525Y-85413368D01*
X138430000Y-85587760D01*
X138313475Y-85413368D01*
X138106632Y-85206525D01*
X137863411Y-85044010D01*
X137593158Y-84932068D01*
X137306260Y-84875000D01*
X137013740Y-84875000D01*
X136726842Y-84932068D01*
X136456589Y-85044010D01*
X136213368Y-85206525D01*
X136006525Y-85413368D01*
X135890000Y-85587760D01*
X135773475Y-85413368D01*
X135566632Y-85206525D01*
X135323411Y-85044010D01*
X135053158Y-84932068D01*
X134766260Y-84875000D01*
X134473740Y-84875000D01*
X134186842Y-84932068D01*
X133916589Y-85044010D01*
X133673368Y-85206525D01*
X133466525Y-85413368D01*
X133350000Y-85587760D01*
X133233475Y-85413368D01*
X133026632Y-85206525D01*
X132783411Y-85044010D01*
X132513158Y-84932068D01*
X132226260Y-84875000D01*
X131933740Y-84875000D01*
X131646842Y-84932068D01*
X131376589Y-85044010D01*
X131133368Y-85206525D01*
X130926525Y-85413368D01*
X130810000Y-85587760D01*
X130693475Y-85413368D01*
X130486632Y-85206525D01*
X130243411Y-85044010D01*
X129973158Y-84932068D01*
X129686260Y-84875000D01*
X129393740Y-84875000D01*
X129106842Y-84932068D01*
X128836589Y-85044010D01*
X128593368Y-85206525D01*
X128386525Y-85413368D01*
X128270000Y-85587760D01*
X128153475Y-85413368D01*
X127946632Y-85206525D01*
X127703411Y-85044010D01*
X127433158Y-84932068D01*
X127146260Y-84875000D01*
X126853740Y-84875000D01*
X126566842Y-84932068D01*
X126296589Y-85044010D01*
X126053368Y-85206525D01*
X125846525Y-85413368D01*
X125730000Y-85587760D01*
X125613475Y-85413368D01*
X125406632Y-85206525D01*
X125163411Y-85044010D01*
X124893158Y-84932068D01*
X124606260Y-84875000D01*
X124313740Y-84875000D01*
X124026842Y-84932068D01*
X123756589Y-85044010D01*
X123513368Y-85206525D01*
X123306525Y-85413368D01*
X123190000Y-85587760D01*
X123073475Y-85413368D01*
X122866632Y-85206525D01*
X122623411Y-85044010D01*
X122353158Y-84932068D01*
X122066260Y-84875000D01*
X121773740Y-84875000D01*
X121486842Y-84932068D01*
X121216589Y-85044010D01*
X120973368Y-85206525D01*
X120766525Y-85413368D01*
X120650000Y-85587760D01*
X120533475Y-85413368D01*
X120326632Y-85206525D01*
X120083411Y-85044010D01*
X119813158Y-84932068D01*
X119526260Y-84875000D01*
X119233740Y-84875000D01*
X118946842Y-84932068D01*
X118676589Y-85044010D01*
X118433368Y-85206525D01*
X118301513Y-85338380D01*
X118279502Y-85265820D01*
X118220537Y-85155506D01*
X118141185Y-85058815D01*
X118044494Y-84979463D01*
X117934180Y-84920498D01*
X117814482Y-84884188D01*
X117690000Y-84871928D01*
X115990000Y-84871928D01*
X115865518Y-84884188D01*
X115745820Y-84920498D01*
X115635506Y-84979463D01*
X115538815Y-85058815D01*
X115459463Y-85155506D01*
X115400498Y-85265820D01*
X115364188Y-85385518D01*
X115351928Y-85510000D01*
X115351928Y-87210000D01*
X115364188Y-87334482D01*
X115400498Y-87454180D01*
X115459463Y-87564494D01*
X115492705Y-87605000D01*
X101625000Y-87605000D01*
X101625000Y-80141892D01*
X101639013Y-80147915D01*
X101858000Y-80194500D01*
X102258000Y-80194500D01*
X102258000Y-79186500D01*
X102512000Y-79186500D01*
X102512000Y-80194500D01*
X102912000Y-80194500D01*
X103130987Y-80147915D01*
X103336678Y-80059503D01*
X103521169Y-79932661D01*
X103677369Y-79772264D01*
X103799276Y-79584476D01*
X103879119Y-79361374D01*
X104920881Y-79361374D01*
X105000724Y-79584476D01*
X105122631Y-79772264D01*
X105278831Y-79932661D01*
X105463322Y-80059503D01*
X105669013Y-80147915D01*
X105888000Y-80194500D01*
X106438000Y-80194500D01*
X106438000Y-79186500D01*
X106692000Y-79186500D01*
X106692000Y-80194500D01*
X107242000Y-80194500D01*
X107460987Y-80147915D01*
X107666678Y-80059503D01*
X107851169Y-79932661D01*
X108007369Y-79772264D01*
X108129276Y-79584476D01*
X108209119Y-79361374D01*
X108082954Y-79186500D01*
X106692000Y-79186500D01*
X106438000Y-79186500D01*
X105047046Y-79186500D01*
X104920881Y-79361374D01*
X103879119Y-79361374D01*
X103752954Y-79186500D01*
X102512000Y-79186500D01*
X102258000Y-79186500D01*
X102238000Y-79186500D01*
X102238000Y-78932500D01*
X102258000Y-78932500D01*
X102258000Y-77924500D01*
X102512000Y-77924500D01*
X102512000Y-78932500D01*
X103752954Y-78932500D01*
X103879119Y-78757626D01*
X104920881Y-78757626D01*
X105047046Y-78932500D01*
X106438000Y-78932500D01*
X106438000Y-78912500D01*
X106692000Y-78912500D01*
X106692000Y-78932500D01*
X108082954Y-78932500D01*
X108209119Y-78757626D01*
X108129276Y-78534524D01*
X108007369Y-78346736D01*
X107851169Y-78186339D01*
X107666678Y-78059497D01*
X107460987Y-77971085D01*
X107242000Y-77924500D01*
X106981904Y-77924500D01*
X106988108Y-77909522D01*
X107025000Y-77724052D01*
X107025000Y-77534948D01*
X106988108Y-77349478D01*
X106915741Y-77174769D01*
X106810681Y-77017536D01*
X106676964Y-76883819D01*
X106519731Y-76778759D01*
X106345022Y-76706392D01*
X106159552Y-76669500D01*
X105970448Y-76669500D01*
X105784978Y-76706392D01*
X105610269Y-76778759D01*
X105453036Y-76883819D01*
X105319319Y-77017536D01*
X105214259Y-77174769D01*
X105141892Y-77349478D01*
X105105000Y-77534948D01*
X105105000Y-77724052D01*
X105141892Y-77909522D01*
X105214259Y-78084231D01*
X105281335Y-78184617D01*
X105278831Y-78186339D01*
X105122631Y-78346736D01*
X105000724Y-78534524D01*
X104920881Y-78757626D01*
X103879119Y-78757626D01*
X103799276Y-78534524D01*
X103677369Y-78346736D01*
X103521169Y-78186339D01*
X103336678Y-78059497D01*
X103130987Y-77971085D01*
X102912000Y-77924500D01*
X102512000Y-77924500D01*
X102258000Y-77924500D01*
X101858000Y-77924500D01*
X101639013Y-77971085D01*
X101625000Y-77977108D01*
X101625000Y-74320061D01*
X104819500Y-74320061D01*
X104819500Y-74523939D01*
X104859274Y-74723898D01*
X104937295Y-74912256D01*
X105050563Y-75081774D01*
X105194726Y-75225937D01*
X105364244Y-75339205D01*
X105552602Y-75417226D01*
X105752561Y-75457000D01*
X105814699Y-75457000D01*
X106587202Y-76229504D01*
X106611000Y-76258502D01*
X106726725Y-76353475D01*
X106858754Y-76424047D01*
X107002015Y-76467504D01*
X107113668Y-76478501D01*
X107113677Y-76478501D01*
X107151000Y-76482177D01*
X107188323Y-76478501D01*
X108959179Y-76478501D01*
X108996501Y-76482177D01*
X109033823Y-76478501D01*
X109033834Y-76478501D01*
X109145487Y-76467504D01*
X109288748Y-76424047D01*
X109420777Y-76353475D01*
X109536502Y-76258502D01*
X109560305Y-76229498D01*
X111300794Y-74489010D01*
X139457945Y-74489010D01*
X139466774Y-74533398D01*
X139544795Y-74721756D01*
X139658063Y-74891274D01*
X139802226Y-75035437D01*
X139971744Y-75148705D01*
X140160102Y-75226726D01*
X140360061Y-75266500D01*
X140563939Y-75266500D01*
X140763898Y-75226726D01*
X140952256Y-75148705D01*
X141121774Y-75035437D01*
X141265937Y-74891274D01*
X141379205Y-74721756D01*
X141457226Y-74533398D01*
X141497000Y-74333439D01*
X141497000Y-74129561D01*
X141457226Y-73929602D01*
X141379205Y-73741244D01*
X141367349Y-73723500D01*
X141379205Y-73705756D01*
X141457226Y-73517398D01*
X141497000Y-73317439D01*
X141497000Y-73113561D01*
X141457226Y-72913602D01*
X141379205Y-72725244D01*
X141265937Y-72555726D01*
X141250583Y-72540372D01*
X141266726Y-72501398D01*
X141306500Y-72301439D01*
X141306500Y-72097561D01*
X141266726Y-71897602D01*
X141250000Y-71857222D01*
X141250000Y-71585230D01*
X141303102Y-71607226D01*
X141503061Y-71647000D01*
X141706939Y-71647000D01*
X141861001Y-71616355D01*
X141861000Y-75758198D01*
X140999200Y-76619999D01*
X127121368Y-76619999D01*
X127035756Y-76562795D01*
X126847398Y-76484774D01*
X126647439Y-76445000D01*
X126443561Y-76445000D01*
X126243602Y-76484774D01*
X126055244Y-76562795D01*
X125885726Y-76676063D01*
X125741563Y-76820226D01*
X125680592Y-76911476D01*
X125528271Y-76759155D01*
X125582226Y-76628898D01*
X125622000Y-76428939D01*
X125622000Y-76225061D01*
X125582226Y-76025102D01*
X125504205Y-75836744D01*
X125390937Y-75667226D01*
X125246774Y-75523063D01*
X125077256Y-75409795D01*
X124888898Y-75331774D01*
X124688939Y-75292000D01*
X124485061Y-75292000D01*
X124285102Y-75331774D01*
X124096744Y-75409795D01*
X123927226Y-75523063D01*
X123783063Y-75667226D01*
X123669795Y-75836744D01*
X123591774Y-76025102D01*
X123552000Y-76225061D01*
X123552000Y-76428939D01*
X123591774Y-76628898D01*
X123669795Y-76817256D01*
X123783063Y-76986774D01*
X123838013Y-77041724D01*
X123881454Y-77184932D01*
X123898047Y-77215974D01*
X123952026Y-77316961D01*
X123994121Y-77368253D01*
X124047000Y-77432686D01*
X124075998Y-77456484D01*
X130315516Y-83696003D01*
X130339314Y-83725001D01*
X130455039Y-83819974D01*
X130587068Y-83890546D01*
X130730329Y-83934003D01*
X130841982Y-83945000D01*
X130841991Y-83945000D01*
X130879314Y-83948676D01*
X130916637Y-83945000D01*
X133535289Y-83945000D01*
X133579226Y-83988937D01*
X133748744Y-84102205D01*
X133937102Y-84180226D01*
X134137061Y-84220000D01*
X134340939Y-84220000D01*
X134540898Y-84180226D01*
X134729256Y-84102205D01*
X134898774Y-83988937D01*
X135042937Y-83844774D01*
X135156205Y-83675256D01*
X135234226Y-83486898D01*
X135274000Y-83286939D01*
X135274000Y-83083061D01*
X135245780Y-82941188D01*
X135272744Y-82959205D01*
X135461102Y-83037226D01*
X135661061Y-83077000D01*
X135723199Y-83077000D01*
X136284211Y-83638013D01*
X136308009Y-83667011D01*
X136423734Y-83761984D01*
X136555763Y-83832556D01*
X136699024Y-83876013D01*
X136810677Y-83887010D01*
X136810687Y-83887010D01*
X136848010Y-83890686D01*
X136885333Y-83887010D01*
X139403168Y-83887010D01*
X139440490Y-83890686D01*
X139477812Y-83887010D01*
X139477823Y-83887010D01*
X139589476Y-83876013D01*
X139732737Y-83832556D01*
X139864766Y-83761984D01*
X139980491Y-83667011D01*
X140004294Y-83638007D01*
X140241251Y-83401050D01*
X164082628Y-83401050D01*
X164119950Y-83404726D01*
X164157272Y-83401050D01*
X164157283Y-83401050D01*
X164268936Y-83390053D01*
X164412197Y-83346596D01*
X164544226Y-83276024D01*
X164659951Y-83181051D01*
X164683754Y-83152047D01*
X164955801Y-82880000D01*
X170431928Y-82880000D01*
X170444188Y-83004482D01*
X170480498Y-83124180D01*
X170539463Y-83234494D01*
X170618815Y-83331185D01*
X170715506Y-83410537D01*
X170825820Y-83469502D01*
X170945518Y-83505812D01*
X171070000Y-83518072D01*
X171734250Y-83515000D01*
X171893000Y-83356250D01*
X171893000Y-82307000D01*
X170593750Y-82307000D01*
X170435000Y-82465750D01*
X170431928Y-82880000D01*
X164955801Y-82880000D01*
X166355802Y-81480000D01*
X170431928Y-81480000D01*
X170435000Y-81894250D01*
X170593750Y-82053000D01*
X171893000Y-82053000D01*
X171893000Y-81003750D01*
X171734250Y-80845000D01*
X171070000Y-80841928D01*
X170945518Y-80854188D01*
X170825820Y-80890498D01*
X170715506Y-80949463D01*
X170618815Y-81028815D01*
X170539463Y-81125506D01*
X170480498Y-81235820D01*
X170444188Y-81355518D01*
X170431928Y-81480000D01*
X166355802Y-81480000D01*
X167108303Y-80727500D01*
X167170439Y-80727500D01*
X167370398Y-80687726D01*
X167558756Y-80609705D01*
X167728274Y-80496437D01*
X167872437Y-80352274D01*
X167985705Y-80182756D01*
X168063726Y-79994398D01*
X168103500Y-79794439D01*
X168103500Y-79590561D01*
X168063726Y-79390602D01*
X167985705Y-79202244D01*
X167872437Y-79032726D01*
X167728274Y-78888563D01*
X167558756Y-78775295D01*
X167420608Y-78718072D01*
X169420000Y-78718072D01*
X169544482Y-78705812D01*
X169664180Y-78669502D01*
X169774494Y-78610537D01*
X169871185Y-78531185D01*
X169950537Y-78434494D01*
X170009502Y-78324180D01*
X170045812Y-78204482D01*
X170058072Y-78080000D01*
X170058072Y-77280000D01*
X170045812Y-77155518D01*
X170009502Y-77035820D01*
X169950537Y-76925506D01*
X169871185Y-76828815D01*
X169774494Y-76749463D01*
X169664180Y-76690498D01*
X169658072Y-76688645D01*
X169658072Y-76471355D01*
X169664180Y-76469502D01*
X169774494Y-76410537D01*
X169871185Y-76331185D01*
X169950537Y-76234494D01*
X170009502Y-76124180D01*
X170045812Y-76004482D01*
X170058072Y-75880000D01*
X170058072Y-75241947D01*
X170071185Y-75231185D01*
X170111550Y-75182000D01*
X170238289Y-75182000D01*
X170282226Y-75225937D01*
X170451744Y-75339205D01*
X170640102Y-75417226D01*
X170840061Y-75457000D01*
X171043939Y-75457000D01*
X171243898Y-75417226D01*
X171432256Y-75339205D01*
X171601774Y-75225937D01*
X171745937Y-75081774D01*
X171859205Y-74912256D01*
X171937226Y-74723898D01*
X171977000Y-74523939D01*
X171977000Y-74320061D01*
X171937226Y-74120102D01*
X171859205Y-73931744D01*
X171745937Y-73762226D01*
X171601774Y-73618063D01*
X171432256Y-73504795D01*
X171243898Y-73426774D01*
X171043939Y-73387000D01*
X170840061Y-73387000D01*
X170640102Y-73426774D01*
X170451744Y-73504795D01*
X170282226Y-73618063D01*
X170238289Y-73662000D01*
X170170044Y-73662000D01*
X170150537Y-73625506D01*
X170071185Y-73528815D01*
X170058072Y-73518053D01*
X170058072Y-73041947D01*
X170071185Y-73031185D01*
X170150537Y-72934494D01*
X170209502Y-72824180D01*
X170245812Y-72704482D01*
X170258072Y-72580000D01*
X170255000Y-72465750D01*
X170096250Y-72307000D01*
X169695053Y-72307000D01*
X169664180Y-72290498D01*
X169544482Y-72254188D01*
X169420000Y-72241928D01*
X167420000Y-72241928D01*
X167295518Y-72254188D01*
X167175820Y-72290498D01*
X167144947Y-72307000D01*
X167143750Y-72307000D01*
X167142375Y-72308375D01*
X167065506Y-72349463D01*
X166968815Y-72428815D01*
X166894802Y-72519000D01*
X165264322Y-72519000D01*
X165226999Y-72515324D01*
X165189676Y-72519000D01*
X165189667Y-72519000D01*
X165078014Y-72529997D01*
X164934753Y-72573454D01*
X164802724Y-72644026D01*
X164786685Y-72657189D01*
X164715996Y-72715201D01*
X164715992Y-72715205D01*
X164686999Y-72738999D01*
X164663205Y-72767992D01*
X162747498Y-74683701D01*
X162718500Y-74707499D01*
X162694702Y-74736497D01*
X162694701Y-74736498D01*
X162623526Y-74823224D01*
X162552954Y-74955254D01*
X162509498Y-75098515D01*
X162494824Y-75247500D01*
X162498501Y-75284832D01*
X162498500Y-78171198D01*
X162242500Y-78427198D01*
X162242500Y-69938561D01*
X163112500Y-69938561D01*
X163112500Y-70142439D01*
X163152274Y-70342398D01*
X163230295Y-70530756D01*
X163343563Y-70700274D01*
X163487726Y-70844437D01*
X163657244Y-70957705D01*
X163845602Y-71035726D01*
X164045561Y-71075500D01*
X164249439Y-71075500D01*
X164319000Y-71061664D01*
X164319000Y-71158439D01*
X164358774Y-71358398D01*
X164436795Y-71546756D01*
X164550063Y-71716274D01*
X164694226Y-71860437D01*
X164863744Y-71973705D01*
X165052102Y-72051726D01*
X165252061Y-72091500D01*
X165455939Y-72091500D01*
X165655898Y-72051726D01*
X165844256Y-71973705D01*
X166013774Y-71860437D01*
X166057711Y-71816500D01*
X166879845Y-71816500D01*
X166889463Y-71834494D01*
X166968815Y-71931185D01*
X167065506Y-72010537D01*
X167142375Y-72051625D01*
X167143750Y-72053000D01*
X167144947Y-72053000D01*
X167175820Y-72069502D01*
X167295518Y-72105812D01*
X167420000Y-72118072D01*
X169420000Y-72118072D01*
X169544482Y-72105812D01*
X169664180Y-72069502D01*
X169695053Y-72053000D01*
X170096250Y-72053000D01*
X170255000Y-71894250D01*
X170258072Y-71780000D01*
X170245812Y-71655518D01*
X170209502Y-71535820D01*
X170150537Y-71425506D01*
X170071185Y-71328815D01*
X170058072Y-71318053D01*
X170058072Y-70680000D01*
X170045812Y-70555518D01*
X170038071Y-70530000D01*
X170045812Y-70504482D01*
X170058072Y-70380000D01*
X170058072Y-70366897D01*
X170070000Y-70368072D01*
X170734250Y-70365000D01*
X170893000Y-70206250D01*
X170893000Y-69157000D01*
X171147000Y-69157000D01*
X171147000Y-70206250D01*
X171305750Y-70365000D01*
X171970000Y-70368072D01*
X172094482Y-70355812D01*
X172214180Y-70319502D01*
X172324494Y-70260537D01*
X172421185Y-70181185D01*
X172500537Y-70084494D01*
X172559502Y-69974180D01*
X172595812Y-69854482D01*
X172608072Y-69730000D01*
X172605000Y-69315750D01*
X172446250Y-69157000D01*
X171147000Y-69157000D01*
X170893000Y-69157000D01*
X170873000Y-69157000D01*
X170873000Y-68903000D01*
X170893000Y-68903000D01*
X170893000Y-67853750D01*
X171147000Y-67853750D01*
X171147000Y-68903000D01*
X172446250Y-68903000D01*
X172605000Y-68744250D01*
X172608072Y-68330000D01*
X172595812Y-68205518D01*
X172559502Y-68085820D01*
X172500537Y-67975506D01*
X172421185Y-67878815D01*
X172324494Y-67799463D01*
X172214180Y-67740498D01*
X172094482Y-67704188D01*
X171970000Y-67691928D01*
X171305750Y-67695000D01*
X171147000Y-67853750D01*
X170893000Y-67853750D01*
X170734250Y-67695000D01*
X170070000Y-67691928D01*
X169945518Y-67704188D01*
X169825820Y-67740498D01*
X169715506Y-67799463D01*
X169618815Y-67878815D01*
X169539463Y-67975506D01*
X169480498Y-68085820D01*
X169444188Y-68205518D01*
X169431928Y-68330000D01*
X169435000Y-68744250D01*
X169593748Y-68902998D01*
X169435000Y-68902998D01*
X169435000Y-68943405D01*
X169420000Y-68941928D01*
X167420000Y-68941928D01*
X167295518Y-68954188D01*
X167175820Y-68990498D01*
X167065506Y-69049463D01*
X166968815Y-69128815D01*
X166889463Y-69225506D01*
X166860068Y-69280500D01*
X164851211Y-69280500D01*
X164807274Y-69236563D01*
X164637756Y-69123295D01*
X164449398Y-69045274D01*
X164249439Y-69005500D01*
X164045561Y-69005500D01*
X163845602Y-69045274D01*
X163657244Y-69123295D01*
X163487726Y-69236563D01*
X163343563Y-69380726D01*
X163230295Y-69550244D01*
X163152274Y-69738602D01*
X163112500Y-69938561D01*
X162242500Y-69938561D01*
X162242500Y-68516500D01*
X162240060Y-68491724D01*
X162232833Y-68467899D01*
X162221097Y-68445943D01*
X162205303Y-68426697D01*
X162186057Y-68410903D01*
X162164101Y-68399167D01*
X162140276Y-68391940D01*
X162115500Y-68389500D01*
X160020000Y-68389500D01*
X159995224Y-68391940D01*
X159971399Y-68399167D01*
X159949443Y-68410903D01*
X159930197Y-68426697D01*
X159914403Y-68445943D01*
X159902667Y-68467899D01*
X159895440Y-68491724D01*
X159893000Y-68516500D01*
X159893000Y-78994000D01*
X159895440Y-79018776D01*
X159902667Y-79042601D01*
X159914403Y-79064557D01*
X159930197Y-79083803D01*
X159949443Y-79099597D01*
X159971399Y-79111333D01*
X159995224Y-79118560D01*
X160020000Y-79121000D01*
X161548699Y-79121000D01*
X161038699Y-79631000D01*
X155443801Y-79631000D01*
X156522798Y-78552004D01*
X156522802Y-78551999D01*
X157206729Y-77868072D01*
X158570000Y-77868072D01*
X158694482Y-77855812D01*
X158814180Y-77819502D01*
X158924494Y-77760537D01*
X159021185Y-77681185D01*
X159100537Y-77584494D01*
X159159502Y-77474180D01*
X159195812Y-77354482D01*
X159208072Y-77230000D01*
X159208072Y-76099980D01*
X159275546Y-75973747D01*
X159319003Y-75830485D01*
X159330000Y-75718832D01*
X159330000Y-75718824D01*
X159333676Y-75681501D01*
X159330000Y-75644178D01*
X159330000Y-75467324D01*
X159333676Y-75430001D01*
X159330000Y-75392678D01*
X159330000Y-71358322D01*
X159333676Y-71320999D01*
X159330000Y-71283676D01*
X159330000Y-71283667D01*
X159319003Y-71172014D01*
X159275546Y-71028753D01*
X159208072Y-70902520D01*
X159208072Y-69730000D01*
X159195812Y-69605518D01*
X159159502Y-69485820D01*
X159100537Y-69375506D01*
X159021185Y-69278815D01*
X158924494Y-69199463D01*
X158814180Y-69140498D01*
X158694482Y-69104188D01*
X158570000Y-69091928D01*
X157170000Y-69091928D01*
X157045518Y-69104188D01*
X156925820Y-69140498D01*
X156815506Y-69199463D01*
X156718815Y-69278815D01*
X156639463Y-69375506D01*
X156580498Y-69485820D01*
X156544188Y-69605518D01*
X156531928Y-69730000D01*
X156531928Y-71530000D01*
X156544188Y-71654482D01*
X156580498Y-71774180D01*
X156639463Y-71884494D01*
X156718815Y-71981185D01*
X156815506Y-72060537D01*
X156925820Y-72119502D01*
X157045518Y-72155812D01*
X157170000Y-72168072D01*
X157810001Y-72168072D01*
X157810000Y-74791928D01*
X157170000Y-74791928D01*
X157045518Y-74804188D01*
X156925820Y-74840498D01*
X156815506Y-74899463D01*
X156718815Y-74978815D01*
X156639463Y-75075506D01*
X156580498Y-75185820D01*
X156544188Y-75305518D01*
X156531928Y-75430000D01*
X156531928Y-76393271D01*
X156168688Y-76756510D01*
X156136324Y-76678376D01*
X156071259Y-76581000D01*
X156136324Y-76483624D01*
X156221883Y-76277067D01*
X156265500Y-76057788D01*
X156265500Y-75834212D01*
X156221883Y-75614933D01*
X156136324Y-75408376D01*
X156071259Y-75311000D01*
X156136324Y-75213624D01*
X156221883Y-75007067D01*
X156265500Y-74787788D01*
X156265500Y-74564212D01*
X156221883Y-74344933D01*
X156136324Y-74138376D01*
X156071259Y-74041000D01*
X156136324Y-73943624D01*
X156221883Y-73737067D01*
X156265500Y-73517788D01*
X156265500Y-73294212D01*
X156221883Y-73074933D01*
X156136324Y-72868376D01*
X156071259Y-72771000D01*
X156136324Y-72673624D01*
X156221883Y-72467067D01*
X156265500Y-72247788D01*
X156265500Y-72024212D01*
X156221883Y-71804933D01*
X156136324Y-71598376D01*
X156012112Y-71412480D01*
X155854020Y-71254388D01*
X155668124Y-71130176D01*
X155461567Y-71044617D01*
X155242288Y-71001000D01*
X155018712Y-71001000D01*
X154799433Y-71044617D01*
X154687726Y-71090888D01*
X154604680Y-71046498D01*
X154484982Y-71010188D01*
X154360500Y-70997928D01*
X153687093Y-70997928D01*
X153821774Y-70907937D01*
X153965937Y-70763774D01*
X154079205Y-70594256D01*
X154157226Y-70405898D01*
X154197000Y-70205939D01*
X154197000Y-70002061D01*
X154157226Y-69802102D01*
X154079205Y-69613744D01*
X154003705Y-69500750D01*
X154079205Y-69387756D01*
X154157226Y-69199398D01*
X154197000Y-68999439D01*
X154197000Y-68795561D01*
X154157226Y-68595602D01*
X154079205Y-68407244D01*
X154024920Y-68326000D01*
X154079205Y-68244756D01*
X154157226Y-68056398D01*
X154197000Y-67856439D01*
X154197000Y-67652561D01*
X154157226Y-67452602D01*
X154079205Y-67264244D01*
X153965937Y-67094726D01*
X153821774Y-66950563D01*
X153652256Y-66837295D01*
X153463898Y-66759274D01*
X153263939Y-66719500D01*
X153060061Y-66719500D01*
X152860102Y-66759274D01*
X152671744Y-66837295D01*
X152502226Y-66950563D01*
X152458289Y-66994500D01*
X148443331Y-66994500D01*
X148405998Y-66990823D01*
X148368665Y-66994500D01*
X148257012Y-67005497D01*
X148113751Y-67048954D01*
X147981722Y-67119526D01*
X147865997Y-67214499D01*
X147842198Y-67243498D01*
X147528696Y-67557001D01*
X146005500Y-67557001D01*
X146005500Y-67462061D01*
X145965726Y-67262102D01*
X145887705Y-67073744D01*
X145774437Y-66904226D01*
X145630274Y-66760063D01*
X145460756Y-66646795D01*
X145272398Y-66568774D01*
X145072439Y-66529000D01*
X144868561Y-66529000D01*
X144668602Y-66568774D01*
X144480244Y-66646795D01*
X144310726Y-66760063D01*
X144255776Y-66815013D01*
X144112568Y-66858454D01*
X143980539Y-66929026D01*
X143864814Y-67023999D01*
X143841016Y-67052997D01*
X141411503Y-69482511D01*
X141382499Y-69506314D01*
X141327371Y-69573489D01*
X141287526Y-69622039D01*
X141286711Y-69623563D01*
X141250000Y-69638770D01*
X141250000Y-68493711D01*
X141293937Y-68449774D01*
X141407205Y-68280256D01*
X141485226Y-68091898D01*
X141525000Y-67891939D01*
X141525000Y-67688061D01*
X141485226Y-67488102D01*
X141407205Y-67299744D01*
X141293937Y-67130226D01*
X141149774Y-66986063D01*
X140980256Y-66872795D01*
X140791898Y-66794774D01*
X140591939Y-66755000D01*
X140388061Y-66755000D01*
X140188102Y-66794774D01*
X139999744Y-66872795D01*
X139830226Y-66986063D01*
X139686063Y-67130226D01*
X139572795Y-67299744D01*
X139494774Y-67488102D01*
X139455000Y-67688061D01*
X139455000Y-67891939D01*
X139494774Y-68091898D01*
X139572795Y-68280256D01*
X139686063Y-68449774D01*
X139730000Y-68493711D01*
X139730001Y-71316535D01*
X139611726Y-71395563D01*
X139467563Y-71539726D01*
X139354295Y-71709244D01*
X139276274Y-71897602D01*
X139236500Y-72097561D01*
X139236500Y-72301439D01*
X139276274Y-72501398D01*
X139283565Y-72519000D01*
X110400322Y-72519000D01*
X110362999Y-72515324D01*
X110325676Y-72519000D01*
X110325667Y-72519000D01*
X110214014Y-72529997D01*
X110070753Y-72573454D01*
X109938723Y-72644026D01*
X109870764Y-72699799D01*
X109822999Y-72738999D01*
X109799201Y-72767997D01*
X108608699Y-73958500D01*
X108546561Y-73958500D01*
X108346602Y-73998274D01*
X108158244Y-74076295D01*
X107988726Y-74189563D01*
X107844563Y-74333726D01*
X107731295Y-74503244D01*
X107653274Y-74691602D01*
X107613500Y-74891561D01*
X107613500Y-74958501D01*
X107465803Y-74958501D01*
X106889500Y-74382199D01*
X106889500Y-74320061D01*
X106849726Y-74120102D01*
X106771705Y-73931744D01*
X106658437Y-73762226D01*
X106514274Y-73618063D01*
X106344756Y-73504795D01*
X106156398Y-73426774D01*
X105956439Y-73387000D01*
X105752561Y-73387000D01*
X105552602Y-73426774D01*
X105364244Y-73504795D01*
X105194726Y-73618063D01*
X105050563Y-73762226D01*
X104937295Y-73931744D01*
X104859274Y-74120102D01*
X104819500Y-74320061D01*
X101625000Y-74320061D01*
X101625000Y-71501892D01*
X101639013Y-71507915D01*
X101858000Y-71554500D01*
X102258000Y-71554500D01*
X102258000Y-70546500D01*
X102512000Y-70546500D01*
X102512000Y-71554500D01*
X102912000Y-71554500D01*
X103130987Y-71507915D01*
X103336678Y-71419503D01*
X103521169Y-71292661D01*
X103677369Y-71132264D01*
X103799276Y-70944476D01*
X103879119Y-70721374D01*
X104920881Y-70721374D01*
X105000724Y-70944476D01*
X105122631Y-71132264D01*
X105278831Y-71292661D01*
X105281335Y-71294383D01*
X105214259Y-71394769D01*
X105141892Y-71569478D01*
X105105000Y-71754948D01*
X105105000Y-71944052D01*
X105141892Y-72129522D01*
X105214259Y-72304231D01*
X105319319Y-72461464D01*
X105453036Y-72595181D01*
X105610269Y-72700241D01*
X105784978Y-72772608D01*
X105970448Y-72809500D01*
X106159552Y-72809500D01*
X106345022Y-72772608D01*
X106519731Y-72700241D01*
X106676964Y-72595181D01*
X106810681Y-72461464D01*
X106915741Y-72304231D01*
X106988108Y-72129522D01*
X107025000Y-71944052D01*
X107025000Y-71754948D01*
X106988108Y-71569478D01*
X106981904Y-71554500D01*
X107242000Y-71554500D01*
X107460987Y-71507915D01*
X107666678Y-71419503D01*
X107851169Y-71292661D01*
X108007369Y-71132264D01*
X108129276Y-70944476D01*
X108209119Y-70721374D01*
X108082954Y-70546500D01*
X106692000Y-70546500D01*
X106692000Y-70566500D01*
X106438000Y-70566500D01*
X106438000Y-70546500D01*
X105047046Y-70546500D01*
X104920881Y-70721374D01*
X103879119Y-70721374D01*
X103752954Y-70546500D01*
X102512000Y-70546500D01*
X102258000Y-70546500D01*
X102238000Y-70546500D01*
X102238000Y-70292500D01*
X102258000Y-70292500D01*
X102258000Y-69284500D01*
X102512000Y-69284500D01*
X102512000Y-70292500D01*
X103752954Y-70292500D01*
X103879119Y-70117626D01*
X104920881Y-70117626D01*
X105047046Y-70292500D01*
X106438000Y-70292500D01*
X106438000Y-69284500D01*
X106692000Y-69284500D01*
X106692000Y-70292500D01*
X108082954Y-70292500D01*
X108209119Y-70117626D01*
X108129276Y-69894524D01*
X108007369Y-69706736D01*
X107851169Y-69546339D01*
X107666678Y-69419497D01*
X107460987Y-69331085D01*
X107242000Y-69284500D01*
X106692000Y-69284500D01*
X106438000Y-69284500D01*
X105888000Y-69284500D01*
X105669013Y-69331085D01*
X105463322Y-69419497D01*
X105278831Y-69546339D01*
X105122631Y-69706736D01*
X105000724Y-69894524D01*
X104920881Y-70117626D01*
X103879119Y-70117626D01*
X103799276Y-69894524D01*
X103677369Y-69706736D01*
X103521169Y-69546339D01*
X103336678Y-69419497D01*
X103130987Y-69331085D01*
X102912000Y-69284500D01*
X102512000Y-69284500D01*
X102258000Y-69284500D01*
X101858000Y-69284500D01*
X101639013Y-69331085D01*
X101625000Y-69337108D01*
X101625000Y-67208061D01*
X107296000Y-67208061D01*
X107296000Y-67411939D01*
X107335774Y-67611898D01*
X107413795Y-67800256D01*
X107527063Y-67969774D01*
X107671226Y-68113937D01*
X107840744Y-68227205D01*
X108029102Y-68305226D01*
X108229061Y-68345000D01*
X108432939Y-68345000D01*
X108632898Y-68305226D01*
X108821256Y-68227205D01*
X108990774Y-68113937D01*
X109134937Y-67969774D01*
X109248205Y-67800256D01*
X109326226Y-67611898D01*
X109366000Y-67411939D01*
X109366000Y-67208061D01*
X109365999Y-67208051D01*
X116884510Y-67208051D01*
X116884510Y-67411929D01*
X116924284Y-67611888D01*
X117002305Y-67800246D01*
X117115573Y-67969764D01*
X117259736Y-68113927D01*
X117429254Y-68227195D01*
X117617612Y-68305216D01*
X117817571Y-68344990D01*
X118021449Y-68344990D01*
X118221408Y-68305216D01*
X118409766Y-68227195D01*
X118579284Y-68113927D01*
X118623221Y-68069990D01*
X122898688Y-68069990D01*
X122936010Y-68073666D01*
X122973332Y-68069990D01*
X122973343Y-68069990D01*
X123084996Y-68058993D01*
X123228257Y-68015536D01*
X123360286Y-67944964D01*
X123476011Y-67849991D01*
X123499813Y-67820988D01*
X123737801Y-67583000D01*
X123799939Y-67583000D01*
X123999898Y-67543226D01*
X124188256Y-67465205D01*
X124357774Y-67351937D01*
X124501937Y-67207774D01*
X124615205Y-67038256D01*
X124693226Y-66849898D01*
X124733000Y-66649939D01*
X124733000Y-66446061D01*
X124693226Y-66246102D01*
X124615205Y-66057744D01*
X124501937Y-65888226D01*
X124357774Y-65744063D01*
X124188256Y-65630795D01*
X123999898Y-65552774D01*
X123799939Y-65513000D01*
X123596061Y-65513000D01*
X123396102Y-65552774D01*
X123207744Y-65630795D01*
X123038226Y-65744063D01*
X122894063Y-65888226D01*
X122780795Y-66057744D01*
X122702774Y-66246102D01*
X122663000Y-66446061D01*
X122663000Y-66508199D01*
X122621209Y-66549990D01*
X118623221Y-66549990D01*
X118579284Y-66506053D01*
X118409766Y-66392785D01*
X118221408Y-66314764D01*
X118021449Y-66274990D01*
X117817571Y-66274990D01*
X117617612Y-66314764D01*
X117429254Y-66392785D01*
X117259736Y-66506053D01*
X117115573Y-66650216D01*
X117002305Y-66819734D01*
X116924284Y-67008092D01*
X116884510Y-67208051D01*
X109365999Y-67208051D01*
X109326226Y-67008102D01*
X109248205Y-66819744D01*
X109134937Y-66650226D01*
X108990774Y-66506063D01*
X108821256Y-66392795D01*
X108632898Y-66314774D01*
X108432939Y-66275000D01*
X108229061Y-66275000D01*
X108029102Y-66314774D01*
X107840744Y-66392795D01*
X107671226Y-66506063D01*
X107527063Y-66650226D01*
X107413795Y-66819744D01*
X107335774Y-67008102D01*
X107296000Y-67208061D01*
X101625000Y-67208061D01*
X101625000Y-62255000D01*
X115492705Y-62255000D01*
X115459463Y-62295506D01*
%TA.AperFunction,Conductor*%
D22*
G36*
X115459463Y-62295506D02*
G01*
X115400498Y-62405820D01*
X115364188Y-62525518D01*
X115351928Y-62650000D01*
X115351928Y-64350000D01*
X115364188Y-64474482D01*
X115400498Y-64594180D01*
X115459463Y-64704494D01*
X115538815Y-64801185D01*
X115635506Y-64880537D01*
X115745820Y-64939502D01*
X115865518Y-64975812D01*
X115990000Y-64988072D01*
X117690000Y-64988072D01*
X117814482Y-64975812D01*
X117934180Y-64939502D01*
X118044494Y-64880537D01*
X118141185Y-64801185D01*
X118220537Y-64704494D01*
X118279502Y-64594180D01*
X118301513Y-64521620D01*
X118433368Y-64653475D01*
X118676589Y-64815990D01*
X118946842Y-64927932D01*
X119233740Y-64985000D01*
X119526260Y-64985000D01*
X119813158Y-64927932D01*
X120083411Y-64815990D01*
X120326632Y-64653475D01*
X120533475Y-64446632D01*
X120650000Y-64272240D01*
X120766525Y-64446632D01*
X120973368Y-64653475D01*
X121216589Y-64815990D01*
X121486842Y-64927932D01*
X121773740Y-64985000D01*
X122066260Y-64985000D01*
X122353158Y-64927932D01*
X122623411Y-64815990D01*
X122866632Y-64653475D01*
X123073475Y-64446632D01*
X123190000Y-64272240D01*
X123306525Y-64446632D01*
X123513368Y-64653475D01*
X123756589Y-64815990D01*
X124026842Y-64927932D01*
X124313740Y-64985000D01*
X124606260Y-64985000D01*
X124893158Y-64927932D01*
X125163411Y-64815990D01*
X125406632Y-64653475D01*
X125613475Y-64446632D01*
X125730000Y-64272240D01*
X125846525Y-64446632D01*
X126053368Y-64653475D01*
X126296589Y-64815990D01*
X126566842Y-64927932D01*
X126853740Y-64985000D01*
X127146260Y-64985000D01*
X127433158Y-64927932D01*
X127703411Y-64815990D01*
X127946632Y-64653475D01*
X128153475Y-64446632D01*
X128270000Y-64272240D01*
X128386525Y-64446632D01*
X128593368Y-64653475D01*
X128836589Y-64815990D01*
X129106842Y-64927932D01*
X129393740Y-64985000D01*
X129686260Y-64985000D01*
X129973158Y-64927932D01*
X130243411Y-64815990D01*
X130486632Y-64653475D01*
X130693475Y-64446632D01*
X130810000Y-64272240D01*
X130926525Y-64446632D01*
X131133368Y-64653475D01*
X131376589Y-64815990D01*
X131646842Y-64927932D01*
X131933740Y-64985000D01*
X132226260Y-64985000D01*
X132513158Y-64927932D01*
X132783411Y-64815990D01*
X133026632Y-64653475D01*
X133233475Y-64446632D01*
X133350000Y-64272240D01*
X133466525Y-64446632D01*
X133673368Y-64653475D01*
X133916589Y-64815990D01*
X134186842Y-64927932D01*
X134473740Y-64985000D01*
X134766260Y-64985000D01*
X135053158Y-64927932D01*
X135323411Y-64815990D01*
X135566632Y-64653475D01*
X135773475Y-64446632D01*
X135890000Y-64272240D01*
X136006525Y-64446632D01*
X136213368Y-64653475D01*
X136456589Y-64815990D01*
X136726842Y-64927932D01*
X137013740Y-64985000D01*
X137306260Y-64985000D01*
X137593158Y-64927932D01*
X137863411Y-64815990D01*
X138106632Y-64653475D01*
X138313475Y-64446632D01*
X138430000Y-64272240D01*
X138546525Y-64446632D01*
X138753368Y-64653475D01*
X138996589Y-64815990D01*
X139266842Y-64927932D01*
X139553740Y-64985000D01*
X139846260Y-64985000D01*
X140133158Y-64927932D01*
X140403411Y-64815990D01*
X140646632Y-64653475D01*
X140853475Y-64446632D01*
X140970000Y-64272240D01*
X141086525Y-64446632D01*
X141293368Y-64653475D01*
X141536589Y-64815990D01*
X141806842Y-64927932D01*
X142093740Y-64985000D01*
X142386260Y-64985000D01*
X142673158Y-64927932D01*
X142943411Y-64815990D01*
X143186632Y-64653475D01*
X143393475Y-64446632D01*
X143510000Y-64272240D01*
X143626525Y-64446632D01*
X143833368Y-64653475D01*
X144076589Y-64815990D01*
X144346842Y-64927932D01*
X144633740Y-64985000D01*
X144926260Y-64985000D01*
X145213158Y-64927932D01*
X145483411Y-64815990D01*
X145726632Y-64653475D01*
X145933475Y-64446632D01*
X146050000Y-64272240D01*
X146166525Y-64446632D01*
X146373368Y-64653475D01*
X146616589Y-64815990D01*
X146886842Y-64927932D01*
X147173740Y-64985000D01*
X147466260Y-64985000D01*
X147753158Y-64927932D01*
X148023411Y-64815990D01*
X148266632Y-64653475D01*
X148473475Y-64446632D01*
X148590000Y-64272240D01*
X148706525Y-64446632D01*
X148913368Y-64653475D01*
X149156589Y-64815990D01*
X149426842Y-64927932D01*
X149713740Y-64985000D01*
X150006260Y-64985000D01*
X150293158Y-64927932D01*
X150563411Y-64815990D01*
X150806632Y-64653475D01*
X151013475Y-64446632D01*
X151130000Y-64272240D01*
X151246525Y-64446632D01*
X151453368Y-64653475D01*
X151696589Y-64815990D01*
X151966842Y-64927932D01*
X152253740Y-64985000D01*
X152546260Y-64985000D01*
X152833158Y-64927932D01*
X153103411Y-64815990D01*
X153346632Y-64653475D01*
X153553475Y-64446632D01*
X153670000Y-64272240D01*
X153786525Y-64446632D01*
X153993368Y-64653475D01*
X154236589Y-64815990D01*
X154506842Y-64927932D01*
X154793740Y-64985000D01*
X155086260Y-64985000D01*
X155373158Y-64927932D01*
X155643411Y-64815990D01*
X155886632Y-64653475D01*
X156093475Y-64446632D01*
X156210000Y-64272240D01*
X156326525Y-64446632D01*
X156533368Y-64653475D01*
X156776589Y-64815990D01*
X157046842Y-64927932D01*
X157333740Y-64985000D01*
X157626260Y-64985000D01*
X157913158Y-64927932D01*
X158183411Y-64815990D01*
X158426632Y-64653475D01*
X158633475Y-64446632D01*
X158750000Y-64272240D01*
X158866525Y-64446632D01*
X159073368Y-64653475D01*
X159316589Y-64815990D01*
X159586842Y-64927932D01*
X159873740Y-64985000D01*
X160166260Y-64985000D01*
X160453158Y-64927932D01*
X160723411Y-64815990D01*
X160966632Y-64653475D01*
X161173475Y-64446632D01*
X161290000Y-64272240D01*
X161406525Y-64446632D01*
X161613368Y-64653475D01*
X161856589Y-64815990D01*
X162126842Y-64927932D01*
X162413740Y-64985000D01*
X162706260Y-64985000D01*
X162993158Y-64927932D01*
X163263411Y-64815990D01*
X163506632Y-64653475D01*
X163713475Y-64446632D01*
X163830000Y-64272240D01*
X163946525Y-64446632D01*
X164153368Y-64653475D01*
X164396589Y-64815990D01*
X164666842Y-64927932D01*
X164953740Y-64985000D01*
X165246260Y-64985000D01*
X165533158Y-64927932D01*
X165803411Y-64815990D01*
X166046632Y-64653475D01*
X166253475Y-64446632D01*
X166415990Y-64203411D01*
X166527932Y-63933158D01*
X166585000Y-63646260D01*
X166585000Y-63353740D01*
X166527932Y-63066842D01*
X166415990Y-62796589D01*
X166253475Y-62553368D01*
X166046632Y-62346525D01*
X165909655Y-62255000D01*
X172695001Y-62255000D01*
X172695000Y-80843200D01*
X172305750Y-80845000D01*
X172147000Y-81003750D01*
X172147000Y-82053000D01*
X172167000Y-82053000D01*
X172167000Y-82307000D01*
X172147000Y-82307000D01*
X172147000Y-83356250D01*
X172305750Y-83515000D01*
X172695000Y-83516800D01*
X172695000Y-87605000D01*
X165909655Y-87605000D01*
X166046632Y-87513475D01*
X166253475Y-87306632D01*
X166415990Y-87063411D01*
X166527932Y-86793158D01*
X166585000Y-86506260D01*
X166585000Y-86213740D01*
X166527932Y-85926842D01*
X166415990Y-85656589D01*
X166253475Y-85413368D01*
X166046632Y-85206525D01*
X165803411Y-85044010D01*
X165533158Y-84932068D01*
X165246260Y-84875000D01*
X164953740Y-84875000D01*
X164666842Y-84932068D01*
X164396589Y-85044010D01*
X164153368Y-85206525D01*
X163946525Y-85413368D01*
X163824805Y-85595534D01*
X163755178Y-85478645D01*
X163560269Y-85262412D01*
X163326920Y-85088359D01*
X163064099Y-84963175D01*
X162916890Y-84918524D01*
X162687000Y-85039845D01*
X162687000Y-86233000D01*
X162707000Y-86233000D01*
X162707000Y-86487000D01*
X162687000Y-86487000D01*
X162687000Y-86507000D01*
X162433000Y-86507000D01*
X162433000Y-86487000D01*
X162413000Y-86487000D01*
X162413000Y-86233000D01*
X162433000Y-86233000D01*
X162433000Y-85039845D01*
X162203110Y-84918524D01*
X162055901Y-84963175D01*
X161793080Y-85088359D01*
X161559731Y-85262412D01*
X161364822Y-85478645D01*
X161295195Y-85595534D01*
X161173475Y-85413368D01*
X160966632Y-85206525D01*
X160723411Y-85044010D01*
X160453158Y-84932068D01*
X160166260Y-84875000D01*
X159873740Y-84875000D01*
X159586842Y-84932068D01*
X159316589Y-85044010D01*
X159073368Y-85206525D01*
X158866525Y-85413368D01*
X158750000Y-85587760D01*
X158633475Y-85413368D01*
X158426632Y-85206525D01*
X158183411Y-85044010D01*
X157913158Y-84932068D01*
X157626260Y-84875000D01*
X157333740Y-84875000D01*
X157046842Y-84932068D01*
X156776589Y-85044010D01*
X156533368Y-85206525D01*
X156326525Y-85413368D01*
X156210000Y-85587760D01*
X156093475Y-85413368D01*
X155886632Y-85206525D01*
X155643411Y-85044010D01*
X155373158Y-84932068D01*
X155086260Y-84875000D01*
X154793740Y-84875000D01*
X154506842Y-84932068D01*
X154236589Y-85044010D01*
X153993368Y-85206525D01*
X153786525Y-85413368D01*
X153670000Y-85587760D01*
X153553475Y-85413368D01*
X153346632Y-85206525D01*
X153103411Y-85044010D01*
X152833158Y-84932068D01*
X152546260Y-84875000D01*
X152253740Y-84875000D01*
X151966842Y-84932068D01*
X151696589Y-85044010D01*
X151453368Y-85206525D01*
X151246525Y-85413368D01*
X151130000Y-85587760D01*
X151013475Y-85413368D01*
X150806632Y-85206525D01*
X150563411Y-85044010D01*
X150293158Y-84932068D01*
X150006260Y-84875000D01*
X149713740Y-84875000D01*
X149426842Y-84932068D01*
X149156589Y-85044010D01*
X148913368Y-85206525D01*
X148706525Y-85413368D01*
X148590000Y-85587760D01*
X148473475Y-85413368D01*
X148266632Y-85206525D01*
X148023411Y-85044010D01*
X147753158Y-84932068D01*
X147466260Y-84875000D01*
X147173740Y-84875000D01*
X146886842Y-84932068D01*
X146616589Y-85044010D01*
X146373368Y-85206525D01*
X146166525Y-85413368D01*
X146050000Y-85587760D01*
X145933475Y-85413368D01*
X145726632Y-85206525D01*
X145483411Y-85044010D01*
X145213158Y-84932068D01*
X144926260Y-84875000D01*
X144633740Y-84875000D01*
X144346842Y-84932068D01*
X144076589Y-85044010D01*
X143833368Y-85206525D01*
X143626525Y-85413368D01*
X143510000Y-85587760D01*
X143393475Y-85413368D01*
X143186632Y-85206525D01*
X142943411Y-85044010D01*
X142673158Y-84932068D01*
X142386260Y-84875000D01*
X142093740Y-84875000D01*
X141806842Y-84932068D01*
X141536589Y-85044010D01*
X141293368Y-85206525D01*
X141086525Y-85413368D01*
X140970000Y-85587760D01*
X140853475Y-85413368D01*
X140646632Y-85206525D01*
X140403411Y-85044010D01*
X140133158Y-84932068D01*
X139846260Y-84875000D01*
X139553740Y-84875000D01*
X139266842Y-84932068D01*
X138996589Y-85044010D01*
X138753368Y-85206525D01*
X138546525Y-85413368D01*
X138430000Y-85587760D01*
X138313475Y-85413368D01*
X138106632Y-85206525D01*
X137863411Y-85044010D01*
X137593158Y-84932068D01*
X137306260Y-84875000D01*
X137013740Y-84875000D01*
X136726842Y-84932068D01*
X136456589Y-85044010D01*
X136213368Y-85206525D01*
X136006525Y-85413368D01*
X135890000Y-85587760D01*
X135773475Y-85413368D01*
X135566632Y-85206525D01*
X135323411Y-85044010D01*
X135053158Y-84932068D01*
X134766260Y-84875000D01*
X134473740Y-84875000D01*
X134186842Y-84932068D01*
X133916589Y-85044010D01*
X133673368Y-85206525D01*
X133466525Y-85413368D01*
X133350000Y-85587760D01*
X133233475Y-85413368D01*
X133026632Y-85206525D01*
X132783411Y-85044010D01*
X132513158Y-84932068D01*
X132226260Y-84875000D01*
X131933740Y-84875000D01*
X131646842Y-84932068D01*
X131376589Y-85044010D01*
X131133368Y-85206525D01*
X130926525Y-85413368D01*
X130810000Y-85587760D01*
X130693475Y-85413368D01*
X130486632Y-85206525D01*
X130243411Y-85044010D01*
X129973158Y-84932068D01*
X129686260Y-84875000D01*
X129393740Y-84875000D01*
X129106842Y-84932068D01*
X128836589Y-85044010D01*
X128593368Y-85206525D01*
X128386525Y-85413368D01*
X128270000Y-85587760D01*
X128153475Y-85413368D01*
X127946632Y-85206525D01*
X127703411Y-85044010D01*
X127433158Y-84932068D01*
X127146260Y-84875000D01*
X126853740Y-84875000D01*
X126566842Y-84932068D01*
X126296589Y-85044010D01*
X126053368Y-85206525D01*
X125846525Y-85413368D01*
X125730000Y-85587760D01*
X125613475Y-85413368D01*
X125406632Y-85206525D01*
X125163411Y-85044010D01*
X124893158Y-84932068D01*
X124606260Y-84875000D01*
X124313740Y-84875000D01*
X124026842Y-84932068D01*
X123756589Y-85044010D01*
X123513368Y-85206525D01*
X123306525Y-85413368D01*
X123190000Y-85587760D01*
X123073475Y-85413368D01*
X122866632Y-85206525D01*
X122623411Y-85044010D01*
X122353158Y-84932068D01*
X122066260Y-84875000D01*
X121773740Y-84875000D01*
X121486842Y-84932068D01*
X121216589Y-85044010D01*
X120973368Y-85206525D01*
X120766525Y-85413368D01*
X120650000Y-85587760D01*
X120533475Y-85413368D01*
X120326632Y-85206525D01*
X120083411Y-85044010D01*
X119813158Y-84932068D01*
X119526260Y-84875000D01*
X119233740Y-84875000D01*
X118946842Y-84932068D01*
X118676589Y-85044010D01*
X118433368Y-85206525D01*
X118301513Y-85338380D01*
X118279502Y-85265820D01*
X118220537Y-85155506D01*
X118141185Y-85058815D01*
X118044494Y-84979463D01*
X117934180Y-84920498D01*
X117814482Y-84884188D01*
X117690000Y-84871928D01*
X115990000Y-84871928D01*
X115865518Y-84884188D01*
X115745820Y-84920498D01*
X115635506Y-84979463D01*
X115538815Y-85058815D01*
X115459463Y-85155506D01*
X115400498Y-85265820D01*
X115364188Y-85385518D01*
X115351928Y-85510000D01*
X115351928Y-87210000D01*
X115364188Y-87334482D01*
X115400498Y-87454180D01*
X115459463Y-87564494D01*
X115492705Y-87605000D01*
X101625000Y-87605000D01*
X101625000Y-80141892D01*
X101639013Y-80147915D01*
X101858000Y-80194500D01*
X102258000Y-80194500D01*
X102258000Y-79186500D01*
X102512000Y-79186500D01*
X102512000Y-80194500D01*
X102912000Y-80194500D01*
X103130987Y-80147915D01*
X103336678Y-80059503D01*
X103521169Y-79932661D01*
X103677369Y-79772264D01*
X103799276Y-79584476D01*
X103879119Y-79361374D01*
X104920881Y-79361374D01*
X105000724Y-79584476D01*
X105122631Y-79772264D01*
X105278831Y-79932661D01*
X105463322Y-80059503D01*
X105669013Y-80147915D01*
X105888000Y-80194500D01*
X106438000Y-80194500D01*
X106438000Y-79186500D01*
X106692000Y-79186500D01*
X106692000Y-80194500D01*
X107242000Y-80194500D01*
X107460987Y-80147915D01*
X107666678Y-80059503D01*
X107851169Y-79932661D01*
X108007369Y-79772264D01*
X108129276Y-79584476D01*
X108209119Y-79361374D01*
X108082954Y-79186500D01*
X106692000Y-79186500D01*
X106438000Y-79186500D01*
X105047046Y-79186500D01*
X104920881Y-79361374D01*
X103879119Y-79361374D01*
X103752954Y-79186500D01*
X102512000Y-79186500D01*
X102258000Y-79186500D01*
X102238000Y-79186500D01*
X102238000Y-78932500D01*
X102258000Y-78932500D01*
X102258000Y-77924500D01*
X102512000Y-77924500D01*
X102512000Y-78932500D01*
X103752954Y-78932500D01*
X103879119Y-78757626D01*
X104920881Y-78757626D01*
X105047046Y-78932500D01*
X106438000Y-78932500D01*
X106438000Y-78912500D01*
X106692000Y-78912500D01*
X106692000Y-78932500D01*
X108082954Y-78932500D01*
X108209119Y-78757626D01*
X108129276Y-78534524D01*
X108007369Y-78346736D01*
X107851169Y-78186339D01*
X107666678Y-78059497D01*
X107460987Y-77971085D01*
X107242000Y-77924500D01*
X106981904Y-77924500D01*
X106988108Y-77909522D01*
X107025000Y-77724052D01*
X107025000Y-77534948D01*
X106988108Y-77349478D01*
X106915741Y-77174769D01*
X106810681Y-77017536D01*
X106676964Y-76883819D01*
X106519731Y-76778759D01*
X106345022Y-76706392D01*
X106159552Y-76669500D01*
X105970448Y-76669500D01*
X105784978Y-76706392D01*
X105610269Y-76778759D01*
X105453036Y-76883819D01*
X105319319Y-77017536D01*
X105214259Y-77174769D01*
X105141892Y-77349478D01*
X105105000Y-77534948D01*
X105105000Y-77724052D01*
X105141892Y-77909522D01*
X105214259Y-78084231D01*
X105281335Y-78184617D01*
X105278831Y-78186339D01*
X105122631Y-78346736D01*
X105000724Y-78534524D01*
X104920881Y-78757626D01*
X103879119Y-78757626D01*
X103799276Y-78534524D01*
X103677369Y-78346736D01*
X103521169Y-78186339D01*
X103336678Y-78059497D01*
X103130987Y-77971085D01*
X102912000Y-77924500D01*
X102512000Y-77924500D01*
X102258000Y-77924500D01*
X101858000Y-77924500D01*
X101639013Y-77971085D01*
X101625000Y-77977108D01*
X101625000Y-74320061D01*
X104819500Y-74320061D01*
X104819500Y-74523939D01*
X104859274Y-74723898D01*
X104937295Y-74912256D01*
X105050563Y-75081774D01*
X105194726Y-75225937D01*
X105364244Y-75339205D01*
X105552602Y-75417226D01*
X105752561Y-75457000D01*
X105814699Y-75457000D01*
X106587202Y-76229504D01*
X106611000Y-76258502D01*
X106726725Y-76353475D01*
X106858754Y-76424047D01*
X107002015Y-76467504D01*
X107113668Y-76478501D01*
X107113677Y-76478501D01*
X107151000Y-76482177D01*
X107188323Y-76478501D01*
X108959179Y-76478501D01*
X108996501Y-76482177D01*
X109033823Y-76478501D01*
X109033834Y-76478501D01*
X109145487Y-76467504D01*
X109288748Y-76424047D01*
X109420777Y-76353475D01*
X109536502Y-76258502D01*
X109560305Y-76229498D01*
X111300794Y-74489010D01*
X139457945Y-74489010D01*
X139466774Y-74533398D01*
X139544795Y-74721756D01*
X139658063Y-74891274D01*
X139802226Y-75035437D01*
X139971744Y-75148705D01*
X140160102Y-75226726D01*
X140360061Y-75266500D01*
X140563939Y-75266500D01*
X140763898Y-75226726D01*
X140952256Y-75148705D01*
X141121774Y-75035437D01*
X141265937Y-74891274D01*
X141379205Y-74721756D01*
X141457226Y-74533398D01*
X141497000Y-74333439D01*
X141497000Y-74129561D01*
X141457226Y-73929602D01*
X141379205Y-73741244D01*
X141367349Y-73723500D01*
X141379205Y-73705756D01*
X141457226Y-73517398D01*
X141497000Y-73317439D01*
X141497000Y-73113561D01*
X141457226Y-72913602D01*
X141379205Y-72725244D01*
X141265937Y-72555726D01*
X141250583Y-72540372D01*
X141266726Y-72501398D01*
X141306500Y-72301439D01*
X141306500Y-72097561D01*
X141266726Y-71897602D01*
X141250000Y-71857222D01*
X141250000Y-71585230D01*
X141303102Y-71607226D01*
X141503061Y-71647000D01*
X141706939Y-71647000D01*
X141861001Y-71616355D01*
X141861000Y-75758198D01*
X140999200Y-76619999D01*
X127121368Y-76619999D01*
X127035756Y-76562795D01*
X126847398Y-76484774D01*
X126647439Y-76445000D01*
X126443561Y-76445000D01*
X126243602Y-76484774D01*
X126055244Y-76562795D01*
X125885726Y-76676063D01*
X125741563Y-76820226D01*
X125680592Y-76911476D01*
X125528271Y-76759155D01*
X125582226Y-76628898D01*
X125622000Y-76428939D01*
X125622000Y-76225061D01*
X125582226Y-76025102D01*
X125504205Y-75836744D01*
X125390937Y-75667226D01*
X125246774Y-75523063D01*
X125077256Y-75409795D01*
X124888898Y-75331774D01*
X124688939Y-75292000D01*
X124485061Y-75292000D01*
X124285102Y-75331774D01*
X124096744Y-75409795D01*
X123927226Y-75523063D01*
X123783063Y-75667226D01*
X123669795Y-75836744D01*
X123591774Y-76025102D01*
X123552000Y-76225061D01*
X123552000Y-76428939D01*
X123591774Y-76628898D01*
X123669795Y-76817256D01*
X123783063Y-76986774D01*
X123838013Y-77041724D01*
X123881454Y-77184932D01*
X123898047Y-77215974D01*
X123952026Y-77316961D01*
X123994121Y-77368253D01*
X124047000Y-77432686D01*
X124075998Y-77456484D01*
X130315516Y-83696003D01*
X130339314Y-83725001D01*
X130455039Y-83819974D01*
X130587068Y-83890546D01*
X130730329Y-83934003D01*
X130841982Y-83945000D01*
X130841991Y-83945000D01*
X130879314Y-83948676D01*
X130916637Y-83945000D01*
X133535289Y-83945000D01*
X133579226Y-83988937D01*
X133748744Y-84102205D01*
X133937102Y-84180226D01*
X134137061Y-84220000D01*
X134340939Y-84220000D01*
X134540898Y-84180226D01*
X134729256Y-84102205D01*
X134898774Y-83988937D01*
X135042937Y-83844774D01*
X135156205Y-83675256D01*
X135234226Y-83486898D01*
X135274000Y-83286939D01*
X135274000Y-83083061D01*
X135245780Y-82941188D01*
X135272744Y-82959205D01*
X135461102Y-83037226D01*
X135661061Y-83077000D01*
X135723199Y-83077000D01*
X136284211Y-83638013D01*
X136308009Y-83667011D01*
X136423734Y-83761984D01*
X136555763Y-83832556D01*
X136699024Y-83876013D01*
X136810677Y-83887010D01*
X136810687Y-83887010D01*
X136848010Y-83890686D01*
X136885333Y-83887010D01*
X139403168Y-83887010D01*
X139440490Y-83890686D01*
X139477812Y-83887010D01*
X139477823Y-83887010D01*
X139589476Y-83876013D01*
X139732737Y-83832556D01*
X139864766Y-83761984D01*
X139980491Y-83667011D01*
X140004294Y-83638007D01*
X140241251Y-83401050D01*
X164082628Y-83401050D01*
X164119950Y-83404726D01*
X164157272Y-83401050D01*
X164157283Y-83401050D01*
X164268936Y-83390053D01*
X164412197Y-83346596D01*
X164544226Y-83276024D01*
X164659951Y-83181051D01*
X164683754Y-83152047D01*
X164955801Y-82880000D01*
X170431928Y-82880000D01*
X170444188Y-83004482D01*
X170480498Y-83124180D01*
X170539463Y-83234494D01*
X170618815Y-83331185D01*
X170715506Y-83410537D01*
X170825820Y-83469502D01*
X170945518Y-83505812D01*
X171070000Y-83518072D01*
X171734250Y-83515000D01*
X171893000Y-83356250D01*
X171893000Y-82307000D01*
X170593750Y-82307000D01*
X170435000Y-82465750D01*
X170431928Y-82880000D01*
X164955801Y-82880000D01*
X166355802Y-81480000D01*
X170431928Y-81480000D01*
X170435000Y-81894250D01*
X170593750Y-82053000D01*
X171893000Y-82053000D01*
X171893000Y-81003750D01*
X171734250Y-80845000D01*
X171070000Y-80841928D01*
X170945518Y-80854188D01*
X170825820Y-80890498D01*
X170715506Y-80949463D01*
X170618815Y-81028815D01*
X170539463Y-81125506D01*
X170480498Y-81235820D01*
X170444188Y-81355518D01*
X170431928Y-81480000D01*
X166355802Y-81480000D01*
X167108303Y-80727500D01*
X167170439Y-80727500D01*
X167370398Y-80687726D01*
X167558756Y-80609705D01*
X167728274Y-80496437D01*
X167872437Y-80352274D01*
X167985705Y-80182756D01*
X168063726Y-79994398D01*
X168103500Y-79794439D01*
X168103500Y-79590561D01*
X168063726Y-79390602D01*
X167985705Y-79202244D01*
X167872437Y-79032726D01*
X167728274Y-78888563D01*
X167558756Y-78775295D01*
X167420608Y-78718072D01*
X169420000Y-78718072D01*
X169544482Y-78705812D01*
X169664180Y-78669502D01*
X169774494Y-78610537D01*
X169871185Y-78531185D01*
X169950537Y-78434494D01*
X170009502Y-78324180D01*
X170045812Y-78204482D01*
X170058072Y-78080000D01*
X170058072Y-77280000D01*
X170045812Y-77155518D01*
X170009502Y-77035820D01*
X169950537Y-76925506D01*
X169871185Y-76828815D01*
X169774494Y-76749463D01*
X169664180Y-76690498D01*
X169658072Y-76688645D01*
X169658072Y-76471355D01*
X169664180Y-76469502D01*
X169774494Y-76410537D01*
X169871185Y-76331185D01*
X169950537Y-76234494D01*
X170009502Y-76124180D01*
X170045812Y-76004482D01*
X170058072Y-75880000D01*
X170058072Y-75241947D01*
X170071185Y-75231185D01*
X170111550Y-75182000D01*
X170238289Y-75182000D01*
X170282226Y-75225937D01*
X170451744Y-75339205D01*
X170640102Y-75417226D01*
X170840061Y-75457000D01*
X171043939Y-75457000D01*
X171243898Y-75417226D01*
X171432256Y-75339205D01*
X171601774Y-75225937D01*
X171745937Y-75081774D01*
X171859205Y-74912256D01*
X171937226Y-74723898D01*
X171977000Y-74523939D01*
X171977000Y-74320061D01*
X171937226Y-74120102D01*
X171859205Y-73931744D01*
X171745937Y-73762226D01*
X171601774Y-73618063D01*
X171432256Y-73504795D01*
X171243898Y-73426774D01*
X171043939Y-73387000D01*
X170840061Y-73387000D01*
X170640102Y-73426774D01*
X170451744Y-73504795D01*
X170282226Y-73618063D01*
X170238289Y-73662000D01*
X170170044Y-73662000D01*
X170150537Y-73625506D01*
X170071185Y-73528815D01*
X170058072Y-73518053D01*
X170058072Y-73041947D01*
X170071185Y-73031185D01*
X170150537Y-72934494D01*
X170209502Y-72824180D01*
X170245812Y-72704482D01*
X170258072Y-72580000D01*
X170255000Y-72465750D01*
X170096250Y-72307000D01*
X169695053Y-72307000D01*
X169664180Y-72290498D01*
X169544482Y-72254188D01*
X169420000Y-72241928D01*
X167420000Y-72241928D01*
X167295518Y-72254188D01*
X167175820Y-72290498D01*
X167144947Y-72307000D01*
X167143750Y-72307000D01*
X167142375Y-72308375D01*
X167065506Y-72349463D01*
X166968815Y-72428815D01*
X166894802Y-72519000D01*
X165264322Y-72519000D01*
X165226999Y-72515324D01*
X165189676Y-72519000D01*
X165189667Y-72519000D01*
X165078014Y-72529997D01*
X164934753Y-72573454D01*
X164802724Y-72644026D01*
X164786685Y-72657189D01*
X164715996Y-72715201D01*
X164715992Y-72715205D01*
X164686999Y-72738999D01*
X164663205Y-72767992D01*
X162747498Y-74683701D01*
X162718500Y-74707499D01*
X162694702Y-74736497D01*
X162694701Y-74736498D01*
X162623526Y-74823224D01*
X162552954Y-74955254D01*
X162509498Y-75098515D01*
X162494824Y-75247500D01*
X162498501Y-75284832D01*
X162498500Y-78171198D01*
X162242500Y-78427198D01*
X162242500Y-69938561D01*
X163112500Y-69938561D01*
X163112500Y-70142439D01*
X163152274Y-70342398D01*
X163230295Y-70530756D01*
X163343563Y-70700274D01*
X163487726Y-70844437D01*
X163657244Y-70957705D01*
X163845602Y-71035726D01*
X164045561Y-71075500D01*
X164249439Y-71075500D01*
X164319000Y-71061664D01*
X164319000Y-71158439D01*
X164358774Y-71358398D01*
X164436795Y-71546756D01*
X164550063Y-71716274D01*
X164694226Y-71860437D01*
X164863744Y-71973705D01*
X165052102Y-72051726D01*
X165252061Y-72091500D01*
X165455939Y-72091500D01*
X165655898Y-72051726D01*
X165844256Y-71973705D01*
X166013774Y-71860437D01*
X166057711Y-71816500D01*
X166879845Y-71816500D01*
X166889463Y-71834494D01*
X166968815Y-71931185D01*
X167065506Y-72010537D01*
X167142375Y-72051625D01*
X167143750Y-72053000D01*
X167144947Y-72053000D01*
X167175820Y-72069502D01*
X167295518Y-72105812D01*
X167420000Y-72118072D01*
X169420000Y-72118072D01*
X169544482Y-72105812D01*
X169664180Y-72069502D01*
X169695053Y-72053000D01*
X170096250Y-72053000D01*
X170255000Y-71894250D01*
X170258072Y-71780000D01*
X170245812Y-71655518D01*
X170209502Y-71535820D01*
X170150537Y-71425506D01*
X170071185Y-71328815D01*
X170058072Y-71318053D01*
X170058072Y-70680000D01*
X170045812Y-70555518D01*
X170038071Y-70530000D01*
X170045812Y-70504482D01*
X170058072Y-70380000D01*
X170058072Y-70366897D01*
X170070000Y-70368072D01*
X170734250Y-70365000D01*
X170893000Y-70206250D01*
X170893000Y-69157000D01*
X171147000Y-69157000D01*
X171147000Y-70206250D01*
X171305750Y-70365000D01*
X171970000Y-70368072D01*
X172094482Y-70355812D01*
X172214180Y-70319502D01*
X172324494Y-70260537D01*
X172421185Y-70181185D01*
X172500537Y-70084494D01*
X172559502Y-69974180D01*
X172595812Y-69854482D01*
X172608072Y-69730000D01*
X172605000Y-69315750D01*
X172446250Y-69157000D01*
X171147000Y-69157000D01*
X170893000Y-69157000D01*
X170873000Y-69157000D01*
X170873000Y-68903000D01*
X170893000Y-68903000D01*
X170893000Y-67853750D01*
X171147000Y-67853750D01*
X171147000Y-68903000D01*
X172446250Y-68903000D01*
X172605000Y-68744250D01*
X172608072Y-68330000D01*
X172595812Y-68205518D01*
X172559502Y-68085820D01*
X172500537Y-67975506D01*
X172421185Y-67878815D01*
X172324494Y-67799463D01*
X172214180Y-67740498D01*
X172094482Y-67704188D01*
X171970000Y-67691928D01*
X171305750Y-67695000D01*
X171147000Y-67853750D01*
X170893000Y-67853750D01*
X170734250Y-67695000D01*
X170070000Y-67691928D01*
X169945518Y-67704188D01*
X169825820Y-67740498D01*
X169715506Y-67799463D01*
X169618815Y-67878815D01*
X169539463Y-67975506D01*
X169480498Y-68085820D01*
X169444188Y-68205518D01*
X169431928Y-68330000D01*
X169435000Y-68744250D01*
X169593748Y-68902998D01*
X169435000Y-68902998D01*
X169435000Y-68943405D01*
X169420000Y-68941928D01*
X167420000Y-68941928D01*
X167295518Y-68954188D01*
X167175820Y-68990498D01*
X167065506Y-69049463D01*
X166968815Y-69128815D01*
X166889463Y-69225506D01*
X166860068Y-69280500D01*
X164851211Y-69280500D01*
X164807274Y-69236563D01*
X164637756Y-69123295D01*
X164449398Y-69045274D01*
X164249439Y-69005500D01*
X164045561Y-69005500D01*
X163845602Y-69045274D01*
X163657244Y-69123295D01*
X163487726Y-69236563D01*
X163343563Y-69380726D01*
X163230295Y-69550244D01*
X163152274Y-69738602D01*
X163112500Y-69938561D01*
X162242500Y-69938561D01*
X162242500Y-68516500D01*
X162240060Y-68491724D01*
X162232833Y-68467899D01*
X162221097Y-68445943D01*
X162205303Y-68426697D01*
X162186057Y-68410903D01*
X162164101Y-68399167D01*
X162140276Y-68391940D01*
X162115500Y-68389500D01*
X160020000Y-68389500D01*
X159995224Y-68391940D01*
X159971399Y-68399167D01*
X159949443Y-68410903D01*
X159930197Y-68426697D01*
X159914403Y-68445943D01*
X159902667Y-68467899D01*
X159895440Y-68491724D01*
X159893000Y-68516500D01*
X159893000Y-78994000D01*
X159895440Y-79018776D01*
X159902667Y-79042601D01*
X159914403Y-79064557D01*
X159930197Y-79083803D01*
X159949443Y-79099597D01*
X159971399Y-79111333D01*
X159995224Y-79118560D01*
X160020000Y-79121000D01*
X161548699Y-79121000D01*
X161038699Y-79631000D01*
X155443801Y-79631000D01*
X156522798Y-78552004D01*
X156522802Y-78551999D01*
X157206729Y-77868072D01*
X158570000Y-77868072D01*
X158694482Y-77855812D01*
X158814180Y-77819502D01*
X158924494Y-77760537D01*
X159021185Y-77681185D01*
X159100537Y-77584494D01*
X159159502Y-77474180D01*
X159195812Y-77354482D01*
X159208072Y-77230000D01*
X159208072Y-76099980D01*
X159275546Y-75973747D01*
X159319003Y-75830485D01*
X159330000Y-75718832D01*
X159330000Y-75718824D01*
X159333676Y-75681501D01*
X159330000Y-75644178D01*
X159330000Y-75467324D01*
X159333676Y-75430001D01*
X159330000Y-75392678D01*
X159330000Y-71358322D01*
X159333676Y-71320999D01*
X159330000Y-71283676D01*
X159330000Y-71283667D01*
X159319003Y-71172014D01*
X159275546Y-71028753D01*
X159208072Y-70902520D01*
X159208072Y-69730000D01*
X159195812Y-69605518D01*
X159159502Y-69485820D01*
X159100537Y-69375506D01*
X159021185Y-69278815D01*
X158924494Y-69199463D01*
X158814180Y-69140498D01*
X158694482Y-69104188D01*
X158570000Y-69091928D01*
X157170000Y-69091928D01*
X157045518Y-69104188D01*
X156925820Y-69140498D01*
X156815506Y-69199463D01*
X156718815Y-69278815D01*
X156639463Y-69375506D01*
X156580498Y-69485820D01*
X156544188Y-69605518D01*
X156531928Y-69730000D01*
X156531928Y-71530000D01*
X156544188Y-71654482D01*
X156580498Y-71774180D01*
X156639463Y-71884494D01*
X156718815Y-71981185D01*
X156815506Y-72060537D01*
X156925820Y-72119502D01*
X157045518Y-72155812D01*
X157170000Y-72168072D01*
X157810001Y-72168072D01*
X157810000Y-74791928D01*
X157170000Y-74791928D01*
X157045518Y-74804188D01*
X156925820Y-74840498D01*
X156815506Y-74899463D01*
X156718815Y-74978815D01*
X156639463Y-75075506D01*
X156580498Y-75185820D01*
X156544188Y-75305518D01*
X156531928Y-75430000D01*
X156531928Y-76393271D01*
X156168688Y-76756510D01*
X156136324Y-76678376D01*
X156071259Y-76581000D01*
X156136324Y-76483624D01*
X156221883Y-76277067D01*
X156265500Y-76057788D01*
X156265500Y-75834212D01*
X156221883Y-75614933D01*
X156136324Y-75408376D01*
X156071259Y-75311000D01*
X156136324Y-75213624D01*
X156221883Y-75007067D01*
X156265500Y-74787788D01*
X156265500Y-74564212D01*
X156221883Y-74344933D01*
X156136324Y-74138376D01*
X156071259Y-74041000D01*
X156136324Y-73943624D01*
X156221883Y-73737067D01*
X156265500Y-73517788D01*
X156265500Y-73294212D01*
X156221883Y-73074933D01*
X156136324Y-72868376D01*
X156071259Y-72771000D01*
X156136324Y-72673624D01*
X156221883Y-72467067D01*
X156265500Y-72247788D01*
X156265500Y-72024212D01*
X156221883Y-71804933D01*
X156136324Y-71598376D01*
X156012112Y-71412480D01*
X155854020Y-71254388D01*
X155668124Y-71130176D01*
X155461567Y-71044617D01*
X155242288Y-71001000D01*
X155018712Y-71001000D01*
X154799433Y-71044617D01*
X154687726Y-71090888D01*
X154604680Y-71046498D01*
X154484982Y-71010188D01*
X154360500Y-70997928D01*
X153687093Y-70997928D01*
X153821774Y-70907937D01*
X153965937Y-70763774D01*
X154079205Y-70594256D01*
X154157226Y-70405898D01*
X154197000Y-70205939D01*
X154197000Y-70002061D01*
X154157226Y-69802102D01*
X154079205Y-69613744D01*
X154003705Y-69500750D01*
X154079205Y-69387756D01*
X154157226Y-69199398D01*
X154197000Y-68999439D01*
X154197000Y-68795561D01*
X154157226Y-68595602D01*
X154079205Y-68407244D01*
X154024920Y-68326000D01*
X154079205Y-68244756D01*
X154157226Y-68056398D01*
X154197000Y-67856439D01*
X154197000Y-67652561D01*
X154157226Y-67452602D01*
X154079205Y-67264244D01*
X153965937Y-67094726D01*
X153821774Y-66950563D01*
X153652256Y-66837295D01*
X153463898Y-66759274D01*
X153263939Y-66719500D01*
X153060061Y-66719500D01*
X152860102Y-66759274D01*
X152671744Y-66837295D01*
X152502226Y-66950563D01*
X152458289Y-66994500D01*
X148443331Y-66994500D01*
X148405998Y-66990823D01*
X148368665Y-66994500D01*
X148257012Y-67005497D01*
X148113751Y-67048954D01*
X147981722Y-67119526D01*
X147865997Y-67214499D01*
X147842198Y-67243498D01*
X147528696Y-67557001D01*
X146005500Y-67557001D01*
X146005500Y-67462061D01*
X145965726Y-67262102D01*
X145887705Y-67073744D01*
X145774437Y-66904226D01*
X145630274Y-66760063D01*
X145460756Y-66646795D01*
X145272398Y-66568774D01*
X145072439Y-66529000D01*
X144868561Y-66529000D01*
X144668602Y-66568774D01*
X144480244Y-66646795D01*
X144310726Y-66760063D01*
X144255776Y-66815013D01*
X144112568Y-66858454D01*
X143980539Y-66929026D01*
X143864814Y-67023999D01*
X143841016Y-67052997D01*
X141411503Y-69482511D01*
X141382499Y-69506314D01*
X141327371Y-69573489D01*
X141287526Y-69622039D01*
X141286711Y-69623563D01*
X141250000Y-69638770D01*
X141250000Y-68493711D01*
X141293937Y-68449774D01*
X141407205Y-68280256D01*
X141485226Y-68091898D01*
X141525000Y-67891939D01*
X141525000Y-67688061D01*
X141485226Y-67488102D01*
X141407205Y-67299744D01*
X141293937Y-67130226D01*
X141149774Y-66986063D01*
X140980256Y-66872795D01*
X140791898Y-66794774D01*
X140591939Y-66755000D01*
X140388061Y-66755000D01*
X140188102Y-66794774D01*
X139999744Y-66872795D01*
X139830226Y-66986063D01*
X139686063Y-67130226D01*
X139572795Y-67299744D01*
X139494774Y-67488102D01*
X139455000Y-67688061D01*
X139455000Y-67891939D01*
X139494774Y-68091898D01*
X139572795Y-68280256D01*
X139686063Y-68449774D01*
X139730000Y-68493711D01*
X139730001Y-71316535D01*
X139611726Y-71395563D01*
X139467563Y-71539726D01*
X139354295Y-71709244D01*
X139276274Y-71897602D01*
X139236500Y-72097561D01*
X139236500Y-72301439D01*
X139276274Y-72501398D01*
X139283565Y-72519000D01*
X110400322Y-72519000D01*
X110362999Y-72515324D01*
X110325676Y-72519000D01*
X110325667Y-72519000D01*
X110214014Y-72529997D01*
X110070753Y-72573454D01*
X109938723Y-72644026D01*
X109870764Y-72699799D01*
X109822999Y-72738999D01*
X109799201Y-72767997D01*
X108608699Y-73958500D01*
X108546561Y-73958500D01*
X108346602Y-73998274D01*
X108158244Y-74076295D01*
X107988726Y-74189563D01*
X107844563Y-74333726D01*
X107731295Y-74503244D01*
X107653274Y-74691602D01*
X107613500Y-74891561D01*
X107613500Y-74958501D01*
X107465803Y-74958501D01*
X106889500Y-74382199D01*
X106889500Y-74320061D01*
X106849726Y-74120102D01*
X106771705Y-73931744D01*
X106658437Y-73762226D01*
X106514274Y-73618063D01*
X106344756Y-73504795D01*
X106156398Y-73426774D01*
X105956439Y-73387000D01*
X105752561Y-73387000D01*
X105552602Y-73426774D01*
X105364244Y-73504795D01*
X105194726Y-73618063D01*
X105050563Y-73762226D01*
X104937295Y-73931744D01*
X104859274Y-74120102D01*
X104819500Y-74320061D01*
X101625000Y-74320061D01*
X101625000Y-71501892D01*
X101639013Y-71507915D01*
X101858000Y-71554500D01*
X102258000Y-71554500D01*
X102258000Y-70546500D01*
X102512000Y-70546500D01*
X102512000Y-71554500D01*
X102912000Y-71554500D01*
X103130987Y-71507915D01*
X103336678Y-71419503D01*
X103521169Y-71292661D01*
X103677369Y-71132264D01*
X103799276Y-70944476D01*
X103879119Y-70721374D01*
X104920881Y-70721374D01*
X105000724Y-70944476D01*
X105122631Y-71132264D01*
X105278831Y-71292661D01*
X105281335Y-71294383D01*
X105214259Y-71394769D01*
X105141892Y-71569478D01*
X105105000Y-71754948D01*
X105105000Y-71944052D01*
X105141892Y-72129522D01*
X105214259Y-72304231D01*
X105319319Y-72461464D01*
X105453036Y-72595181D01*
X105610269Y-72700241D01*
X105784978Y-72772608D01*
X105970448Y-72809500D01*
X106159552Y-72809500D01*
X106345022Y-72772608D01*
X106519731Y-72700241D01*
X106676964Y-72595181D01*
X106810681Y-72461464D01*
X106915741Y-72304231D01*
X106988108Y-72129522D01*
X107025000Y-71944052D01*
X107025000Y-71754948D01*
X106988108Y-71569478D01*
X106981904Y-71554500D01*
X107242000Y-71554500D01*
X107460987Y-71507915D01*
X107666678Y-71419503D01*
X107851169Y-71292661D01*
X108007369Y-71132264D01*
X108129276Y-70944476D01*
X108209119Y-70721374D01*
X108082954Y-70546500D01*
X106692000Y-70546500D01*
X106692000Y-70566500D01*
X106438000Y-70566500D01*
X106438000Y-70546500D01*
X105047046Y-70546500D01*
X104920881Y-70721374D01*
X103879119Y-70721374D01*
X103752954Y-70546500D01*
X102512000Y-70546500D01*
X102258000Y-70546500D01*
X102238000Y-70546500D01*
X102238000Y-70292500D01*
X102258000Y-70292500D01*
X102258000Y-69284500D01*
X102512000Y-69284500D01*
X102512000Y-70292500D01*
X103752954Y-70292500D01*
X103879119Y-70117626D01*
X104920881Y-70117626D01*
X105047046Y-70292500D01*
X106438000Y-70292500D01*
X106438000Y-69284500D01*
X106692000Y-69284500D01*
X106692000Y-70292500D01*
X108082954Y-70292500D01*
X108209119Y-70117626D01*
X108129276Y-69894524D01*
X108007369Y-69706736D01*
X107851169Y-69546339D01*
X107666678Y-69419497D01*
X107460987Y-69331085D01*
X107242000Y-69284500D01*
X106692000Y-69284500D01*
X106438000Y-69284500D01*
X105888000Y-69284500D01*
X105669013Y-69331085D01*
X105463322Y-69419497D01*
X105278831Y-69546339D01*
X105122631Y-69706736D01*
X105000724Y-69894524D01*
X104920881Y-70117626D01*
X103879119Y-70117626D01*
X103799276Y-69894524D01*
X103677369Y-69706736D01*
X103521169Y-69546339D01*
X103336678Y-69419497D01*
X103130987Y-69331085D01*
X102912000Y-69284500D01*
X102512000Y-69284500D01*
X102258000Y-69284500D01*
X101858000Y-69284500D01*
X101639013Y-69331085D01*
X101625000Y-69337108D01*
X101625000Y-67208061D01*
X107296000Y-67208061D01*
X107296000Y-67411939D01*
X107335774Y-67611898D01*
X107413795Y-67800256D01*
X107527063Y-67969774D01*
X107671226Y-68113937D01*
X107840744Y-68227205D01*
X108029102Y-68305226D01*
X108229061Y-68345000D01*
X108432939Y-68345000D01*
X108632898Y-68305226D01*
X108821256Y-68227205D01*
X108990774Y-68113937D01*
X109134937Y-67969774D01*
X109248205Y-67800256D01*
X109326226Y-67611898D01*
X109366000Y-67411939D01*
X109366000Y-67208061D01*
X109365999Y-67208051D01*
X116884510Y-67208051D01*
X116884510Y-67411929D01*
X116924284Y-67611888D01*
X117002305Y-67800246D01*
X117115573Y-67969764D01*
X117259736Y-68113927D01*
X117429254Y-68227195D01*
X117617612Y-68305216D01*
X117817571Y-68344990D01*
X118021449Y-68344990D01*
X118221408Y-68305216D01*
X118409766Y-68227195D01*
X118579284Y-68113927D01*
X118623221Y-68069990D01*
X122898688Y-68069990D01*
X122936010Y-68073666D01*
X122973332Y-68069990D01*
X122973343Y-68069990D01*
X123084996Y-68058993D01*
X123228257Y-68015536D01*
X123360286Y-67944964D01*
X123476011Y-67849991D01*
X123499813Y-67820988D01*
X123737801Y-67583000D01*
X123799939Y-67583000D01*
X123999898Y-67543226D01*
X124188256Y-67465205D01*
X124357774Y-67351937D01*
X124501937Y-67207774D01*
X124615205Y-67038256D01*
X124693226Y-66849898D01*
X124733000Y-66649939D01*
X124733000Y-66446061D01*
X124693226Y-66246102D01*
X124615205Y-66057744D01*
X124501937Y-65888226D01*
X124357774Y-65744063D01*
X124188256Y-65630795D01*
X123999898Y-65552774D01*
X123799939Y-65513000D01*
X123596061Y-65513000D01*
X123396102Y-65552774D01*
X123207744Y-65630795D01*
X123038226Y-65744063D01*
X122894063Y-65888226D01*
X122780795Y-66057744D01*
X122702774Y-66246102D01*
X122663000Y-66446061D01*
X122663000Y-66508199D01*
X122621209Y-66549990D01*
X118623221Y-66549990D01*
X118579284Y-66506053D01*
X118409766Y-66392785D01*
X118221408Y-66314764D01*
X118021449Y-66274990D01*
X117817571Y-66274990D01*
X117617612Y-66314764D01*
X117429254Y-66392785D01*
X117259736Y-66506053D01*
X117115573Y-66650216D01*
X117002305Y-66819734D01*
X116924284Y-67008092D01*
X116884510Y-67208051D01*
X109365999Y-67208051D01*
X109326226Y-67008102D01*
X109248205Y-66819744D01*
X109134937Y-66650226D01*
X108990774Y-66506063D01*
X108821256Y-66392795D01*
X108632898Y-66314774D01*
X108432939Y-66275000D01*
X108229061Y-66275000D01*
X108029102Y-66314774D01*
X107840744Y-66392795D01*
X107671226Y-66506063D01*
X107527063Y-66650226D01*
X107413795Y-66819744D01*
X107335774Y-67008102D01*
X107296000Y-67208061D01*
X101625000Y-67208061D01*
X101625000Y-62255000D01*
X115492705Y-62255000D01*
X115459463Y-62295506D01*
G37*
%TD.AperFunction*%
D21*
X146262063Y-69190226D02*
X146148795Y-69359744D01*
X146070774Y-69548102D01*
X146031000Y-69748061D01*
X146031000Y-69951939D01*
X146070774Y-70151898D01*
X146148795Y-70340256D01*
X146262063Y-70509774D01*
X146406226Y-70653937D01*
X146419509Y-70662812D01*
X146412000Y-70700561D01*
X146412000Y-70904439D01*
X146451774Y-71104398D01*
X146529795Y-71292756D01*
X146643063Y-71462274D01*
X146787226Y-71606437D01*
X146956744Y-71719705D01*
X147145102Y-71797726D01*
X147345061Y-71837500D01*
X147548939Y-71837500D01*
X147748898Y-71797726D01*
X147937256Y-71719705D01*
X148106774Y-71606437D01*
X148150711Y-71562500D01*
X151577199Y-71562500D01*
X151804234Y-71789536D01*
X151785774Y-71834102D01*
X151762106Y-71953092D01*
X150618998Y-73096201D01*
X150590000Y-73119999D01*
X150566202Y-73148997D01*
X150566201Y-73148998D01*
X150495026Y-73235724D01*
X150424454Y-73367754D01*
X150403521Y-73436763D01*
X150380998Y-73511014D01*
X150370001Y-73622667D01*
X150366324Y-73660000D01*
X150370001Y-73697332D01*
X150370000Y-75813789D01*
X150326063Y-75857726D01*
X150212795Y-76027244D01*
X150134774Y-76215602D01*
X150095000Y-76415561D01*
X150095000Y-76619439D01*
X150134774Y-76819398D01*
X150212795Y-77007756D01*
X150326063Y-77177274D01*
X150470226Y-77321437D01*
X150639744Y-77434705D01*
X150828102Y-77512726D01*
X151028061Y-77552500D01*
X151231939Y-77552500D01*
X151431898Y-77512726D01*
X151620256Y-77434705D01*
X151789774Y-77321437D01*
X151933937Y-77177274D01*
X152047205Y-77007756D01*
X152125226Y-76819398D01*
X152165000Y-76619439D01*
X152165000Y-76415561D01*
X152125226Y-76215602D01*
X152047205Y-76027244D01*
X151933937Y-75857726D01*
X151890000Y-75813789D01*
X151890000Y-73974801D01*
X152156927Y-73707874D01*
X152766381Y-73707874D01*
X152783054Y-73762864D01*
X152873377Y-73966206D01*
X152926139Y-74041000D01*
X152873377Y-74115794D01*
X152783054Y-74319136D01*
X152766381Y-74374126D01*
X152892546Y-74549000D01*
X153733500Y-74549000D01*
X153733500Y-73533000D01*
X152892546Y-73533000D01*
X152766381Y-73707874D01*
X152156927Y-73707874D01*
X152693802Y-73171000D01*
X152814628Y-73171000D01*
X152892546Y-73279000D01*
X153733500Y-73279000D01*
X153733500Y-73274072D01*
X153987500Y-73274072D01*
X153987500Y-73279000D01*
X153998526Y-73279000D01*
X153995500Y-73294212D01*
X153995500Y-73517788D01*
X153998526Y-73533000D01*
X153987500Y-73533000D01*
X153987500Y-74549000D01*
X153998526Y-74549000D01*
X153995500Y-74564212D01*
X153995500Y-74787788D01*
X153998526Y-74803000D01*
X153987500Y-74803000D01*
X153987500Y-74814026D01*
X153972288Y-74811000D01*
X153748712Y-74811000D01*
X153733500Y-74814026D01*
X153733500Y-74803000D01*
X152892546Y-74803000D01*
X152766381Y-74977874D01*
X152783054Y-75032864D01*
X152873377Y-75236206D01*
X152922853Y-75306342D01*
X152854676Y-75408376D01*
X152769117Y-75614933D01*
X152725500Y-75834212D01*
X152725500Y-76057788D01*
X152769117Y-76277067D01*
X152854676Y-76483624D01*
X152919741Y-76581000D01*
X152854676Y-76678376D01*
X152769117Y-76884933D01*
X152725500Y-77104212D01*
X152725500Y-77327788D01*
X152769117Y-77547067D01*
X152854676Y-77753624D01*
X152978888Y-77939520D01*
X153136980Y-78097612D01*
X153322876Y-78221824D01*
X153529433Y-78307383D01*
X153748712Y-78351000D01*
X153972288Y-78351000D01*
X154191567Y-78307383D01*
X154398124Y-78221824D01*
X154495500Y-78156759D01*
X154592876Y-78221824D01*
X154671010Y-78254188D01*
X153744209Y-79180990D01*
X144447794Y-79180990D01*
X142770805Y-77504002D01*
X142747002Y-77474998D01*
X142631277Y-77380025D01*
X142499248Y-77309453D01*
X142468635Y-77300167D01*
X143132004Y-76636798D01*
X143161001Y-76613001D01*
X143255974Y-76497276D01*
X143326546Y-76365247D01*
X143370003Y-76221986D01*
X143381000Y-76110333D01*
X143381000Y-76110325D01*
X143384676Y-76073000D01*
X143381000Y-76035675D01*
X143381000Y-71379211D01*
X143488437Y-71271774D01*
X143601705Y-71102256D01*
X143679726Y-70913898D01*
X143719500Y-70713939D01*
X143719500Y-70510061D01*
X143679726Y-70310102D01*
X143601705Y-70121744D01*
X143584312Y-70095714D01*
X144603026Y-69077001D01*
X146375288Y-69077001D01*
X146262063Y-69190226D01*
%TA.AperFunction,Conductor*%
D22*
G36*
X146262063Y-69190226D02*
G01*
X146148795Y-69359744D01*
X146070774Y-69548102D01*
X146031000Y-69748061D01*
X146031000Y-69951939D01*
X146070774Y-70151898D01*
X146148795Y-70340256D01*
X146262063Y-70509774D01*
X146406226Y-70653937D01*
X146419509Y-70662812D01*
X146412000Y-70700561D01*
X146412000Y-70904439D01*
X146451774Y-71104398D01*
X146529795Y-71292756D01*
X146643063Y-71462274D01*
X146787226Y-71606437D01*
X146956744Y-71719705D01*
X147145102Y-71797726D01*
X147345061Y-71837500D01*
X147548939Y-71837500D01*
X147748898Y-71797726D01*
X147937256Y-71719705D01*
X148106774Y-71606437D01*
X148150711Y-71562500D01*
X151577199Y-71562500D01*
X151804234Y-71789536D01*
X151785774Y-71834102D01*
X151762106Y-71953092D01*
X150618998Y-73096201D01*
X150590000Y-73119999D01*
X150566202Y-73148997D01*
X150566201Y-73148998D01*
X150495026Y-73235724D01*
X150424454Y-73367754D01*
X150403521Y-73436763D01*
X150380998Y-73511014D01*
X150370001Y-73622667D01*
X150366324Y-73660000D01*
X150370001Y-73697332D01*
X150370000Y-75813789D01*
X150326063Y-75857726D01*
X150212795Y-76027244D01*
X150134774Y-76215602D01*
X150095000Y-76415561D01*
X150095000Y-76619439D01*
X150134774Y-76819398D01*
X150212795Y-77007756D01*
X150326063Y-77177274D01*
X150470226Y-77321437D01*
X150639744Y-77434705D01*
X150828102Y-77512726D01*
X151028061Y-77552500D01*
X151231939Y-77552500D01*
X151431898Y-77512726D01*
X151620256Y-77434705D01*
X151789774Y-77321437D01*
X151933937Y-77177274D01*
X152047205Y-77007756D01*
X152125226Y-76819398D01*
X152165000Y-76619439D01*
X152165000Y-76415561D01*
X152125226Y-76215602D01*
X152047205Y-76027244D01*
X151933937Y-75857726D01*
X151890000Y-75813789D01*
X151890000Y-73974801D01*
X152156927Y-73707874D01*
X152766381Y-73707874D01*
X152783054Y-73762864D01*
X152873377Y-73966206D01*
X152926139Y-74041000D01*
X152873377Y-74115794D01*
X152783054Y-74319136D01*
X152766381Y-74374126D01*
X152892546Y-74549000D01*
X153733500Y-74549000D01*
X153733500Y-73533000D01*
X152892546Y-73533000D01*
X152766381Y-73707874D01*
X152156927Y-73707874D01*
X152693802Y-73171000D01*
X152814628Y-73171000D01*
X152892546Y-73279000D01*
X153733500Y-73279000D01*
X153733500Y-73274072D01*
X153987500Y-73274072D01*
X153987500Y-73279000D01*
X153998526Y-73279000D01*
X153995500Y-73294212D01*
X153995500Y-73517788D01*
X153998526Y-73533000D01*
X153987500Y-73533000D01*
X153987500Y-74549000D01*
X153998526Y-74549000D01*
X153995500Y-74564212D01*
X153995500Y-74787788D01*
X153998526Y-74803000D01*
X153987500Y-74803000D01*
X153987500Y-74814026D01*
X153972288Y-74811000D01*
X153748712Y-74811000D01*
X153733500Y-74814026D01*
X153733500Y-74803000D01*
X152892546Y-74803000D01*
X152766381Y-74977874D01*
X152783054Y-75032864D01*
X152873377Y-75236206D01*
X152922853Y-75306342D01*
X152854676Y-75408376D01*
X152769117Y-75614933D01*
X152725500Y-75834212D01*
X152725500Y-76057788D01*
X152769117Y-76277067D01*
X152854676Y-76483624D01*
X152919741Y-76581000D01*
X152854676Y-76678376D01*
X152769117Y-76884933D01*
X152725500Y-77104212D01*
X152725500Y-77327788D01*
X152769117Y-77547067D01*
X152854676Y-77753624D01*
X152978888Y-77939520D01*
X153136980Y-78097612D01*
X153322876Y-78221824D01*
X153529433Y-78307383D01*
X153748712Y-78351000D01*
X153972288Y-78351000D01*
X154191567Y-78307383D01*
X154398124Y-78221824D01*
X154495500Y-78156759D01*
X154592876Y-78221824D01*
X154671010Y-78254188D01*
X153744209Y-79180990D01*
X144447794Y-79180990D01*
X142770805Y-77504002D01*
X142747002Y-77474998D01*
X142631277Y-77380025D01*
X142499248Y-77309453D01*
X142468635Y-77300167D01*
X143132004Y-76636798D01*
X143161001Y-76613001D01*
X143255974Y-76497276D01*
X143326546Y-76365247D01*
X143370003Y-76221986D01*
X143381000Y-76110333D01*
X143381000Y-76110325D01*
X143384676Y-76073000D01*
X143381000Y-76035675D01*
X143381000Y-71379211D01*
X143488437Y-71271774D01*
X143601705Y-71102256D01*
X143679726Y-70913898D01*
X143719500Y-70713939D01*
X143719500Y-70510061D01*
X143679726Y-70310102D01*
X143601705Y-70121744D01*
X143584312Y-70095714D01*
X144603026Y-69077001D01*
X146375288Y-69077001D01*
X146262063Y-69190226D01*
G37*
%TD.AperFunction*%
%TD*%
M02*
