%TF.GenerationSoftware,KiCad,Pcbnew,5.1.9+dfsg1-1*%
%TF.CreationDate,2022-01-14T18:58:44-05:00*%
%TF.ProjectId,samd51j18a,73616d64-3531-46a3-9138-612e6b696361,rev?*%
%TF.SameCoordinates,Original*%
%TF.FileFunction,Soldermask,Top*%
%TF.FilePolarity,Negative*%
%FSLAX46Y46*%
G04 Gerber Fmt 4.6, Leading zero omitted, Abs format (unit mm)*
G04 Created by KiCad (PCBNEW 5.1.9+dfsg1-1) date 2022-01-14 18:58:44*
%MOMM*%
%LPD*%
G01*
G04 APERTURE LIST*
%ADD10O,1.700000X1.700000*%
%ADD11R,1.700000X1.700000*%
%ADD12R,1.150000X0.300000*%
%ADD13O,0.650000X0.650000*%
%ADD14O,1.800000X1.000000*%
%ADD15O,2.100000X1.000000*%
%ADD16R,1.086500X0.300000*%
%ADD17O,1.000000X1.000000*%
%ADD18R,1.000000X1.000000*%
%ADD19R,1.800000X1.000000*%
%ADD20R,1.060000X0.650000*%
%ADD21R,1.600000X1.400000*%
G04 APERTURE END LIST*
D10*
%TO.C,J4*%
X165100000Y-63500000D03*
X162560000Y-63500000D03*
X160020000Y-63500000D03*
X157480000Y-63500000D03*
X154940000Y-63500000D03*
X152400000Y-63500000D03*
X149860000Y-63500000D03*
X147320000Y-63500000D03*
X144780000Y-63500000D03*
X142240000Y-63500000D03*
X139700000Y-63500000D03*
X137160000Y-63500000D03*
X134620000Y-63500000D03*
X132080000Y-63500000D03*
X129540000Y-63500000D03*
X127000000Y-63500000D03*
X124460000Y-63500000D03*
X121920000Y-63500000D03*
X119380000Y-63500000D03*
D11*
X116840000Y-63500000D03*
%TD*%
D10*
%TO.C,J1*%
X165100000Y-86360000D03*
X162560000Y-86360000D03*
X160020000Y-86360000D03*
X157480000Y-86360000D03*
X154940000Y-86360000D03*
X152400000Y-86360000D03*
X149860000Y-86360000D03*
X147320000Y-86360000D03*
X144780000Y-86360000D03*
X142240000Y-86360000D03*
X139700000Y-86360000D03*
X137160000Y-86360000D03*
X134620000Y-86360000D03*
X132080000Y-86360000D03*
X129540000Y-86360000D03*
X127000000Y-86360000D03*
X124460000Y-86360000D03*
X121920000Y-86360000D03*
X119380000Y-86360000D03*
D11*
X116840000Y-86360000D03*
%TD*%
D12*
%TO.C,USB C*%
X107140000Y-78089500D03*
X107140000Y-77289500D03*
D13*
X106065000Y-77629500D03*
X106065000Y-71849500D03*
D14*
X102385000Y-79059500D03*
X102385000Y-70419500D03*
D15*
X106565000Y-70419500D03*
X106565000Y-79059500D03*
D12*
X107140000Y-76489500D03*
X107140000Y-75989500D03*
X107140000Y-75489500D03*
X107140000Y-74989500D03*
X107140000Y-74489500D03*
X107140000Y-73989500D03*
X107140000Y-73489500D03*
X107140000Y-72989500D03*
D16*
X107171750Y-77789500D03*
D12*
X107140000Y-76989500D03*
X107140000Y-72189500D03*
X107140000Y-71389500D03*
%TD*%
D17*
%TO.C,DEBUG*%
X155130500Y-77216000D03*
X153860500Y-77216000D03*
X155130500Y-75946000D03*
X153860500Y-75946000D03*
X155130500Y-74676000D03*
X153860500Y-74676000D03*
X155130500Y-73406000D03*
X153860500Y-73406000D03*
X155130500Y-72136000D03*
D18*
X153860500Y-72136000D03*
%TD*%
D19*
%TO.C,Y1*%
X131127500Y-70719000D03*
X131127500Y-68219000D03*
%TD*%
D20*
%TO.C,U2*%
X120289500Y-69598500D03*
X120289500Y-71498500D03*
X118089500Y-71498500D03*
X118089500Y-70548500D03*
X118089500Y-69598500D03*
%TD*%
%TO.C,U1*%
G36*
G01*
X136308000Y-69866500D02*
X136308000Y-68541500D01*
G75*
G02*
X136383000Y-68466500I75000J0D01*
G01*
X136533000Y-68466500D01*
G75*
G02*
X136608000Y-68541500I0J-75000D01*
G01*
X136608000Y-69866500D01*
G75*
G02*
X136533000Y-69941500I-75000J0D01*
G01*
X136383000Y-69941500D01*
G75*
G02*
X136308000Y-69866500I0J75000D01*
G01*
G37*
G36*
G01*
X136808000Y-69866500D02*
X136808000Y-68541500D01*
G75*
G02*
X136883000Y-68466500I75000J0D01*
G01*
X137033000Y-68466500D01*
G75*
G02*
X137108000Y-68541500I0J-75000D01*
G01*
X137108000Y-69866500D01*
G75*
G02*
X137033000Y-69941500I-75000J0D01*
G01*
X136883000Y-69941500D01*
G75*
G02*
X136808000Y-69866500I0J75000D01*
G01*
G37*
G36*
G01*
X137308000Y-69866500D02*
X137308000Y-68541500D01*
G75*
G02*
X137383000Y-68466500I75000J0D01*
G01*
X137533000Y-68466500D01*
G75*
G02*
X137608000Y-68541500I0J-75000D01*
G01*
X137608000Y-69866500D01*
G75*
G02*
X137533000Y-69941500I-75000J0D01*
G01*
X137383000Y-69941500D01*
G75*
G02*
X137308000Y-69866500I0J75000D01*
G01*
G37*
G36*
G01*
X137808000Y-69866500D02*
X137808000Y-68541500D01*
G75*
G02*
X137883000Y-68466500I75000J0D01*
G01*
X138033000Y-68466500D01*
G75*
G02*
X138108000Y-68541500I0J-75000D01*
G01*
X138108000Y-69866500D01*
G75*
G02*
X138033000Y-69941500I-75000J0D01*
G01*
X137883000Y-69941500D01*
G75*
G02*
X137808000Y-69866500I0J75000D01*
G01*
G37*
G36*
G01*
X138308000Y-69866500D02*
X138308000Y-68541500D01*
G75*
G02*
X138383000Y-68466500I75000J0D01*
G01*
X138533000Y-68466500D01*
G75*
G02*
X138608000Y-68541500I0J-75000D01*
G01*
X138608000Y-69866500D01*
G75*
G02*
X138533000Y-69941500I-75000J0D01*
G01*
X138383000Y-69941500D01*
G75*
G02*
X138308000Y-69866500I0J75000D01*
G01*
G37*
G36*
G01*
X138808000Y-69866500D02*
X138808000Y-68541500D01*
G75*
G02*
X138883000Y-68466500I75000J0D01*
G01*
X139033000Y-68466500D01*
G75*
G02*
X139108000Y-68541500I0J-75000D01*
G01*
X139108000Y-69866500D01*
G75*
G02*
X139033000Y-69941500I-75000J0D01*
G01*
X138883000Y-69941500D01*
G75*
G02*
X138808000Y-69866500I0J75000D01*
G01*
G37*
G36*
G01*
X139308000Y-69866500D02*
X139308000Y-68541500D01*
G75*
G02*
X139383000Y-68466500I75000J0D01*
G01*
X139533000Y-68466500D01*
G75*
G02*
X139608000Y-68541500I0J-75000D01*
G01*
X139608000Y-69866500D01*
G75*
G02*
X139533000Y-69941500I-75000J0D01*
G01*
X139383000Y-69941500D01*
G75*
G02*
X139308000Y-69866500I0J75000D01*
G01*
G37*
G36*
G01*
X139808000Y-69866500D02*
X139808000Y-68541500D01*
G75*
G02*
X139883000Y-68466500I75000J0D01*
G01*
X140033000Y-68466500D01*
G75*
G02*
X140108000Y-68541500I0J-75000D01*
G01*
X140108000Y-69866500D01*
G75*
G02*
X140033000Y-69941500I-75000J0D01*
G01*
X139883000Y-69941500D01*
G75*
G02*
X139808000Y-69866500I0J75000D01*
G01*
G37*
G36*
G01*
X140308000Y-69866500D02*
X140308000Y-68541500D01*
G75*
G02*
X140383000Y-68466500I75000J0D01*
G01*
X140533000Y-68466500D01*
G75*
G02*
X140608000Y-68541500I0J-75000D01*
G01*
X140608000Y-69866500D01*
G75*
G02*
X140533000Y-69941500I-75000J0D01*
G01*
X140383000Y-69941500D01*
G75*
G02*
X140308000Y-69866500I0J75000D01*
G01*
G37*
G36*
G01*
X140808000Y-69866500D02*
X140808000Y-68541500D01*
G75*
G02*
X140883000Y-68466500I75000J0D01*
G01*
X141033000Y-68466500D01*
G75*
G02*
X141108000Y-68541500I0J-75000D01*
G01*
X141108000Y-69866500D01*
G75*
G02*
X141033000Y-69941500I-75000J0D01*
G01*
X140883000Y-69941500D01*
G75*
G02*
X140808000Y-69866500I0J75000D01*
G01*
G37*
G36*
G01*
X141308000Y-69866500D02*
X141308000Y-68541500D01*
G75*
G02*
X141383000Y-68466500I75000J0D01*
G01*
X141533000Y-68466500D01*
G75*
G02*
X141608000Y-68541500I0J-75000D01*
G01*
X141608000Y-69866500D01*
G75*
G02*
X141533000Y-69941500I-75000J0D01*
G01*
X141383000Y-69941500D01*
G75*
G02*
X141308000Y-69866500I0J75000D01*
G01*
G37*
G36*
G01*
X141808000Y-69866500D02*
X141808000Y-68541500D01*
G75*
G02*
X141883000Y-68466500I75000J0D01*
G01*
X142033000Y-68466500D01*
G75*
G02*
X142108000Y-68541500I0J-75000D01*
G01*
X142108000Y-69866500D01*
G75*
G02*
X142033000Y-69941500I-75000J0D01*
G01*
X141883000Y-69941500D01*
G75*
G02*
X141808000Y-69866500I0J75000D01*
G01*
G37*
G36*
G01*
X142308000Y-69866500D02*
X142308000Y-68541500D01*
G75*
G02*
X142383000Y-68466500I75000J0D01*
G01*
X142533000Y-68466500D01*
G75*
G02*
X142608000Y-68541500I0J-75000D01*
G01*
X142608000Y-69866500D01*
G75*
G02*
X142533000Y-69941500I-75000J0D01*
G01*
X142383000Y-69941500D01*
G75*
G02*
X142308000Y-69866500I0J75000D01*
G01*
G37*
G36*
G01*
X142808000Y-69866500D02*
X142808000Y-68541500D01*
G75*
G02*
X142883000Y-68466500I75000J0D01*
G01*
X143033000Y-68466500D01*
G75*
G02*
X143108000Y-68541500I0J-75000D01*
G01*
X143108000Y-69866500D01*
G75*
G02*
X143033000Y-69941500I-75000J0D01*
G01*
X142883000Y-69941500D01*
G75*
G02*
X142808000Y-69866500I0J75000D01*
G01*
G37*
G36*
G01*
X143308000Y-69866500D02*
X143308000Y-68541500D01*
G75*
G02*
X143383000Y-68466500I75000J0D01*
G01*
X143533000Y-68466500D01*
G75*
G02*
X143608000Y-68541500I0J-75000D01*
G01*
X143608000Y-69866500D01*
G75*
G02*
X143533000Y-69941500I-75000J0D01*
G01*
X143383000Y-69941500D01*
G75*
G02*
X143308000Y-69866500I0J75000D01*
G01*
G37*
G36*
G01*
X143808000Y-69866500D02*
X143808000Y-68541500D01*
G75*
G02*
X143883000Y-68466500I75000J0D01*
G01*
X144033000Y-68466500D01*
G75*
G02*
X144108000Y-68541500I0J-75000D01*
G01*
X144108000Y-69866500D01*
G75*
G02*
X144033000Y-69941500I-75000J0D01*
G01*
X143883000Y-69941500D01*
G75*
G02*
X143808000Y-69866500I0J75000D01*
G01*
G37*
G36*
G01*
X145133000Y-71191500D02*
X145133000Y-71041500D01*
G75*
G02*
X145208000Y-70966500I75000J0D01*
G01*
X146533000Y-70966500D01*
G75*
G02*
X146608000Y-71041500I0J-75000D01*
G01*
X146608000Y-71191500D01*
G75*
G02*
X146533000Y-71266500I-75000J0D01*
G01*
X145208000Y-71266500D01*
G75*
G02*
X145133000Y-71191500I0J75000D01*
G01*
G37*
G36*
G01*
X145133000Y-71691500D02*
X145133000Y-71541500D01*
G75*
G02*
X145208000Y-71466500I75000J0D01*
G01*
X146533000Y-71466500D01*
G75*
G02*
X146608000Y-71541500I0J-75000D01*
G01*
X146608000Y-71691500D01*
G75*
G02*
X146533000Y-71766500I-75000J0D01*
G01*
X145208000Y-71766500D01*
G75*
G02*
X145133000Y-71691500I0J75000D01*
G01*
G37*
G36*
G01*
X145133000Y-72191500D02*
X145133000Y-72041500D01*
G75*
G02*
X145208000Y-71966500I75000J0D01*
G01*
X146533000Y-71966500D01*
G75*
G02*
X146608000Y-72041500I0J-75000D01*
G01*
X146608000Y-72191500D01*
G75*
G02*
X146533000Y-72266500I-75000J0D01*
G01*
X145208000Y-72266500D01*
G75*
G02*
X145133000Y-72191500I0J75000D01*
G01*
G37*
G36*
G01*
X145133000Y-72691500D02*
X145133000Y-72541500D01*
G75*
G02*
X145208000Y-72466500I75000J0D01*
G01*
X146533000Y-72466500D01*
G75*
G02*
X146608000Y-72541500I0J-75000D01*
G01*
X146608000Y-72691500D01*
G75*
G02*
X146533000Y-72766500I-75000J0D01*
G01*
X145208000Y-72766500D01*
G75*
G02*
X145133000Y-72691500I0J75000D01*
G01*
G37*
G36*
G01*
X145133000Y-73191500D02*
X145133000Y-73041500D01*
G75*
G02*
X145208000Y-72966500I75000J0D01*
G01*
X146533000Y-72966500D01*
G75*
G02*
X146608000Y-73041500I0J-75000D01*
G01*
X146608000Y-73191500D01*
G75*
G02*
X146533000Y-73266500I-75000J0D01*
G01*
X145208000Y-73266500D01*
G75*
G02*
X145133000Y-73191500I0J75000D01*
G01*
G37*
G36*
G01*
X145133000Y-73691500D02*
X145133000Y-73541500D01*
G75*
G02*
X145208000Y-73466500I75000J0D01*
G01*
X146533000Y-73466500D01*
G75*
G02*
X146608000Y-73541500I0J-75000D01*
G01*
X146608000Y-73691500D01*
G75*
G02*
X146533000Y-73766500I-75000J0D01*
G01*
X145208000Y-73766500D01*
G75*
G02*
X145133000Y-73691500I0J75000D01*
G01*
G37*
G36*
G01*
X145133000Y-74191500D02*
X145133000Y-74041500D01*
G75*
G02*
X145208000Y-73966500I75000J0D01*
G01*
X146533000Y-73966500D01*
G75*
G02*
X146608000Y-74041500I0J-75000D01*
G01*
X146608000Y-74191500D01*
G75*
G02*
X146533000Y-74266500I-75000J0D01*
G01*
X145208000Y-74266500D01*
G75*
G02*
X145133000Y-74191500I0J75000D01*
G01*
G37*
G36*
G01*
X145133000Y-74691500D02*
X145133000Y-74541500D01*
G75*
G02*
X145208000Y-74466500I75000J0D01*
G01*
X146533000Y-74466500D01*
G75*
G02*
X146608000Y-74541500I0J-75000D01*
G01*
X146608000Y-74691500D01*
G75*
G02*
X146533000Y-74766500I-75000J0D01*
G01*
X145208000Y-74766500D01*
G75*
G02*
X145133000Y-74691500I0J75000D01*
G01*
G37*
G36*
G01*
X145133000Y-75191500D02*
X145133000Y-75041500D01*
G75*
G02*
X145208000Y-74966500I75000J0D01*
G01*
X146533000Y-74966500D01*
G75*
G02*
X146608000Y-75041500I0J-75000D01*
G01*
X146608000Y-75191500D01*
G75*
G02*
X146533000Y-75266500I-75000J0D01*
G01*
X145208000Y-75266500D01*
G75*
G02*
X145133000Y-75191500I0J75000D01*
G01*
G37*
G36*
G01*
X145133000Y-75691500D02*
X145133000Y-75541500D01*
G75*
G02*
X145208000Y-75466500I75000J0D01*
G01*
X146533000Y-75466500D01*
G75*
G02*
X146608000Y-75541500I0J-75000D01*
G01*
X146608000Y-75691500D01*
G75*
G02*
X146533000Y-75766500I-75000J0D01*
G01*
X145208000Y-75766500D01*
G75*
G02*
X145133000Y-75691500I0J75000D01*
G01*
G37*
G36*
G01*
X145133000Y-76191500D02*
X145133000Y-76041500D01*
G75*
G02*
X145208000Y-75966500I75000J0D01*
G01*
X146533000Y-75966500D01*
G75*
G02*
X146608000Y-76041500I0J-75000D01*
G01*
X146608000Y-76191500D01*
G75*
G02*
X146533000Y-76266500I-75000J0D01*
G01*
X145208000Y-76266500D01*
G75*
G02*
X145133000Y-76191500I0J75000D01*
G01*
G37*
G36*
G01*
X145133000Y-76691500D02*
X145133000Y-76541500D01*
G75*
G02*
X145208000Y-76466500I75000J0D01*
G01*
X146533000Y-76466500D01*
G75*
G02*
X146608000Y-76541500I0J-75000D01*
G01*
X146608000Y-76691500D01*
G75*
G02*
X146533000Y-76766500I-75000J0D01*
G01*
X145208000Y-76766500D01*
G75*
G02*
X145133000Y-76691500I0J75000D01*
G01*
G37*
G36*
G01*
X145133000Y-77191500D02*
X145133000Y-77041500D01*
G75*
G02*
X145208000Y-76966500I75000J0D01*
G01*
X146533000Y-76966500D01*
G75*
G02*
X146608000Y-77041500I0J-75000D01*
G01*
X146608000Y-77191500D01*
G75*
G02*
X146533000Y-77266500I-75000J0D01*
G01*
X145208000Y-77266500D01*
G75*
G02*
X145133000Y-77191500I0J75000D01*
G01*
G37*
G36*
G01*
X145133000Y-77691500D02*
X145133000Y-77541500D01*
G75*
G02*
X145208000Y-77466500I75000J0D01*
G01*
X146533000Y-77466500D01*
G75*
G02*
X146608000Y-77541500I0J-75000D01*
G01*
X146608000Y-77691500D01*
G75*
G02*
X146533000Y-77766500I-75000J0D01*
G01*
X145208000Y-77766500D01*
G75*
G02*
X145133000Y-77691500I0J75000D01*
G01*
G37*
G36*
G01*
X145133000Y-78191500D02*
X145133000Y-78041500D01*
G75*
G02*
X145208000Y-77966500I75000J0D01*
G01*
X146533000Y-77966500D01*
G75*
G02*
X146608000Y-78041500I0J-75000D01*
G01*
X146608000Y-78191500D01*
G75*
G02*
X146533000Y-78266500I-75000J0D01*
G01*
X145208000Y-78266500D01*
G75*
G02*
X145133000Y-78191500I0J75000D01*
G01*
G37*
G36*
G01*
X145133000Y-78691500D02*
X145133000Y-78541500D01*
G75*
G02*
X145208000Y-78466500I75000J0D01*
G01*
X146533000Y-78466500D01*
G75*
G02*
X146608000Y-78541500I0J-75000D01*
G01*
X146608000Y-78691500D01*
G75*
G02*
X146533000Y-78766500I-75000J0D01*
G01*
X145208000Y-78766500D01*
G75*
G02*
X145133000Y-78691500I0J75000D01*
G01*
G37*
G36*
G01*
X143808000Y-81191500D02*
X143808000Y-79866500D01*
G75*
G02*
X143883000Y-79791500I75000J0D01*
G01*
X144033000Y-79791500D01*
G75*
G02*
X144108000Y-79866500I0J-75000D01*
G01*
X144108000Y-81191500D01*
G75*
G02*
X144033000Y-81266500I-75000J0D01*
G01*
X143883000Y-81266500D01*
G75*
G02*
X143808000Y-81191500I0J75000D01*
G01*
G37*
G36*
G01*
X143308000Y-81191500D02*
X143308000Y-79866500D01*
G75*
G02*
X143383000Y-79791500I75000J0D01*
G01*
X143533000Y-79791500D01*
G75*
G02*
X143608000Y-79866500I0J-75000D01*
G01*
X143608000Y-81191500D01*
G75*
G02*
X143533000Y-81266500I-75000J0D01*
G01*
X143383000Y-81266500D01*
G75*
G02*
X143308000Y-81191500I0J75000D01*
G01*
G37*
G36*
G01*
X142808000Y-81191500D02*
X142808000Y-79866500D01*
G75*
G02*
X142883000Y-79791500I75000J0D01*
G01*
X143033000Y-79791500D01*
G75*
G02*
X143108000Y-79866500I0J-75000D01*
G01*
X143108000Y-81191500D01*
G75*
G02*
X143033000Y-81266500I-75000J0D01*
G01*
X142883000Y-81266500D01*
G75*
G02*
X142808000Y-81191500I0J75000D01*
G01*
G37*
G36*
G01*
X142308000Y-81191500D02*
X142308000Y-79866500D01*
G75*
G02*
X142383000Y-79791500I75000J0D01*
G01*
X142533000Y-79791500D01*
G75*
G02*
X142608000Y-79866500I0J-75000D01*
G01*
X142608000Y-81191500D01*
G75*
G02*
X142533000Y-81266500I-75000J0D01*
G01*
X142383000Y-81266500D01*
G75*
G02*
X142308000Y-81191500I0J75000D01*
G01*
G37*
G36*
G01*
X141808000Y-81191500D02*
X141808000Y-79866500D01*
G75*
G02*
X141883000Y-79791500I75000J0D01*
G01*
X142033000Y-79791500D01*
G75*
G02*
X142108000Y-79866500I0J-75000D01*
G01*
X142108000Y-81191500D01*
G75*
G02*
X142033000Y-81266500I-75000J0D01*
G01*
X141883000Y-81266500D01*
G75*
G02*
X141808000Y-81191500I0J75000D01*
G01*
G37*
G36*
G01*
X141308000Y-81191500D02*
X141308000Y-79866500D01*
G75*
G02*
X141383000Y-79791500I75000J0D01*
G01*
X141533000Y-79791500D01*
G75*
G02*
X141608000Y-79866500I0J-75000D01*
G01*
X141608000Y-81191500D01*
G75*
G02*
X141533000Y-81266500I-75000J0D01*
G01*
X141383000Y-81266500D01*
G75*
G02*
X141308000Y-81191500I0J75000D01*
G01*
G37*
G36*
G01*
X140808000Y-81191500D02*
X140808000Y-79866500D01*
G75*
G02*
X140883000Y-79791500I75000J0D01*
G01*
X141033000Y-79791500D01*
G75*
G02*
X141108000Y-79866500I0J-75000D01*
G01*
X141108000Y-81191500D01*
G75*
G02*
X141033000Y-81266500I-75000J0D01*
G01*
X140883000Y-81266500D01*
G75*
G02*
X140808000Y-81191500I0J75000D01*
G01*
G37*
G36*
G01*
X140308000Y-81191500D02*
X140308000Y-79866500D01*
G75*
G02*
X140383000Y-79791500I75000J0D01*
G01*
X140533000Y-79791500D01*
G75*
G02*
X140608000Y-79866500I0J-75000D01*
G01*
X140608000Y-81191500D01*
G75*
G02*
X140533000Y-81266500I-75000J0D01*
G01*
X140383000Y-81266500D01*
G75*
G02*
X140308000Y-81191500I0J75000D01*
G01*
G37*
G36*
G01*
X139808000Y-81191500D02*
X139808000Y-79866500D01*
G75*
G02*
X139883000Y-79791500I75000J0D01*
G01*
X140033000Y-79791500D01*
G75*
G02*
X140108000Y-79866500I0J-75000D01*
G01*
X140108000Y-81191500D01*
G75*
G02*
X140033000Y-81266500I-75000J0D01*
G01*
X139883000Y-81266500D01*
G75*
G02*
X139808000Y-81191500I0J75000D01*
G01*
G37*
G36*
G01*
X139308000Y-81191500D02*
X139308000Y-79866500D01*
G75*
G02*
X139383000Y-79791500I75000J0D01*
G01*
X139533000Y-79791500D01*
G75*
G02*
X139608000Y-79866500I0J-75000D01*
G01*
X139608000Y-81191500D01*
G75*
G02*
X139533000Y-81266500I-75000J0D01*
G01*
X139383000Y-81266500D01*
G75*
G02*
X139308000Y-81191500I0J75000D01*
G01*
G37*
G36*
G01*
X138808000Y-81191500D02*
X138808000Y-79866500D01*
G75*
G02*
X138883000Y-79791500I75000J0D01*
G01*
X139033000Y-79791500D01*
G75*
G02*
X139108000Y-79866500I0J-75000D01*
G01*
X139108000Y-81191500D01*
G75*
G02*
X139033000Y-81266500I-75000J0D01*
G01*
X138883000Y-81266500D01*
G75*
G02*
X138808000Y-81191500I0J75000D01*
G01*
G37*
G36*
G01*
X138308000Y-81191500D02*
X138308000Y-79866500D01*
G75*
G02*
X138383000Y-79791500I75000J0D01*
G01*
X138533000Y-79791500D01*
G75*
G02*
X138608000Y-79866500I0J-75000D01*
G01*
X138608000Y-81191500D01*
G75*
G02*
X138533000Y-81266500I-75000J0D01*
G01*
X138383000Y-81266500D01*
G75*
G02*
X138308000Y-81191500I0J75000D01*
G01*
G37*
G36*
G01*
X137808000Y-81191500D02*
X137808000Y-79866500D01*
G75*
G02*
X137883000Y-79791500I75000J0D01*
G01*
X138033000Y-79791500D01*
G75*
G02*
X138108000Y-79866500I0J-75000D01*
G01*
X138108000Y-81191500D01*
G75*
G02*
X138033000Y-81266500I-75000J0D01*
G01*
X137883000Y-81266500D01*
G75*
G02*
X137808000Y-81191500I0J75000D01*
G01*
G37*
G36*
G01*
X137308000Y-81191500D02*
X137308000Y-79866500D01*
G75*
G02*
X137383000Y-79791500I75000J0D01*
G01*
X137533000Y-79791500D01*
G75*
G02*
X137608000Y-79866500I0J-75000D01*
G01*
X137608000Y-81191500D01*
G75*
G02*
X137533000Y-81266500I-75000J0D01*
G01*
X137383000Y-81266500D01*
G75*
G02*
X137308000Y-81191500I0J75000D01*
G01*
G37*
G36*
G01*
X136808000Y-81191500D02*
X136808000Y-79866500D01*
G75*
G02*
X136883000Y-79791500I75000J0D01*
G01*
X137033000Y-79791500D01*
G75*
G02*
X137108000Y-79866500I0J-75000D01*
G01*
X137108000Y-81191500D01*
G75*
G02*
X137033000Y-81266500I-75000J0D01*
G01*
X136883000Y-81266500D01*
G75*
G02*
X136808000Y-81191500I0J75000D01*
G01*
G37*
G36*
G01*
X136308000Y-81191500D02*
X136308000Y-79866500D01*
G75*
G02*
X136383000Y-79791500I75000J0D01*
G01*
X136533000Y-79791500D01*
G75*
G02*
X136608000Y-79866500I0J-75000D01*
G01*
X136608000Y-81191500D01*
G75*
G02*
X136533000Y-81266500I-75000J0D01*
G01*
X136383000Y-81266500D01*
G75*
G02*
X136308000Y-81191500I0J75000D01*
G01*
G37*
G36*
G01*
X133808000Y-78691500D02*
X133808000Y-78541500D01*
G75*
G02*
X133883000Y-78466500I75000J0D01*
G01*
X135208000Y-78466500D01*
G75*
G02*
X135283000Y-78541500I0J-75000D01*
G01*
X135283000Y-78691500D01*
G75*
G02*
X135208000Y-78766500I-75000J0D01*
G01*
X133883000Y-78766500D01*
G75*
G02*
X133808000Y-78691500I0J75000D01*
G01*
G37*
G36*
G01*
X133808000Y-78191500D02*
X133808000Y-78041500D01*
G75*
G02*
X133883000Y-77966500I75000J0D01*
G01*
X135208000Y-77966500D01*
G75*
G02*
X135283000Y-78041500I0J-75000D01*
G01*
X135283000Y-78191500D01*
G75*
G02*
X135208000Y-78266500I-75000J0D01*
G01*
X133883000Y-78266500D01*
G75*
G02*
X133808000Y-78191500I0J75000D01*
G01*
G37*
G36*
G01*
X133808000Y-77691500D02*
X133808000Y-77541500D01*
G75*
G02*
X133883000Y-77466500I75000J0D01*
G01*
X135208000Y-77466500D01*
G75*
G02*
X135283000Y-77541500I0J-75000D01*
G01*
X135283000Y-77691500D01*
G75*
G02*
X135208000Y-77766500I-75000J0D01*
G01*
X133883000Y-77766500D01*
G75*
G02*
X133808000Y-77691500I0J75000D01*
G01*
G37*
G36*
G01*
X133808000Y-77191500D02*
X133808000Y-77041500D01*
G75*
G02*
X133883000Y-76966500I75000J0D01*
G01*
X135208000Y-76966500D01*
G75*
G02*
X135283000Y-77041500I0J-75000D01*
G01*
X135283000Y-77191500D01*
G75*
G02*
X135208000Y-77266500I-75000J0D01*
G01*
X133883000Y-77266500D01*
G75*
G02*
X133808000Y-77191500I0J75000D01*
G01*
G37*
G36*
G01*
X133808000Y-76691500D02*
X133808000Y-76541500D01*
G75*
G02*
X133883000Y-76466500I75000J0D01*
G01*
X135208000Y-76466500D01*
G75*
G02*
X135283000Y-76541500I0J-75000D01*
G01*
X135283000Y-76691500D01*
G75*
G02*
X135208000Y-76766500I-75000J0D01*
G01*
X133883000Y-76766500D01*
G75*
G02*
X133808000Y-76691500I0J75000D01*
G01*
G37*
G36*
G01*
X133808000Y-76191500D02*
X133808000Y-76041500D01*
G75*
G02*
X133883000Y-75966500I75000J0D01*
G01*
X135208000Y-75966500D01*
G75*
G02*
X135283000Y-76041500I0J-75000D01*
G01*
X135283000Y-76191500D01*
G75*
G02*
X135208000Y-76266500I-75000J0D01*
G01*
X133883000Y-76266500D01*
G75*
G02*
X133808000Y-76191500I0J75000D01*
G01*
G37*
G36*
G01*
X133808000Y-75691500D02*
X133808000Y-75541500D01*
G75*
G02*
X133883000Y-75466500I75000J0D01*
G01*
X135208000Y-75466500D01*
G75*
G02*
X135283000Y-75541500I0J-75000D01*
G01*
X135283000Y-75691500D01*
G75*
G02*
X135208000Y-75766500I-75000J0D01*
G01*
X133883000Y-75766500D01*
G75*
G02*
X133808000Y-75691500I0J75000D01*
G01*
G37*
G36*
G01*
X133808000Y-75191500D02*
X133808000Y-75041500D01*
G75*
G02*
X133883000Y-74966500I75000J0D01*
G01*
X135208000Y-74966500D01*
G75*
G02*
X135283000Y-75041500I0J-75000D01*
G01*
X135283000Y-75191500D01*
G75*
G02*
X135208000Y-75266500I-75000J0D01*
G01*
X133883000Y-75266500D01*
G75*
G02*
X133808000Y-75191500I0J75000D01*
G01*
G37*
G36*
G01*
X133808000Y-74691500D02*
X133808000Y-74541500D01*
G75*
G02*
X133883000Y-74466500I75000J0D01*
G01*
X135208000Y-74466500D01*
G75*
G02*
X135283000Y-74541500I0J-75000D01*
G01*
X135283000Y-74691500D01*
G75*
G02*
X135208000Y-74766500I-75000J0D01*
G01*
X133883000Y-74766500D01*
G75*
G02*
X133808000Y-74691500I0J75000D01*
G01*
G37*
G36*
G01*
X133808000Y-74191500D02*
X133808000Y-74041500D01*
G75*
G02*
X133883000Y-73966500I75000J0D01*
G01*
X135208000Y-73966500D01*
G75*
G02*
X135283000Y-74041500I0J-75000D01*
G01*
X135283000Y-74191500D01*
G75*
G02*
X135208000Y-74266500I-75000J0D01*
G01*
X133883000Y-74266500D01*
G75*
G02*
X133808000Y-74191500I0J75000D01*
G01*
G37*
G36*
G01*
X133808000Y-73691500D02*
X133808000Y-73541500D01*
G75*
G02*
X133883000Y-73466500I75000J0D01*
G01*
X135208000Y-73466500D01*
G75*
G02*
X135283000Y-73541500I0J-75000D01*
G01*
X135283000Y-73691500D01*
G75*
G02*
X135208000Y-73766500I-75000J0D01*
G01*
X133883000Y-73766500D01*
G75*
G02*
X133808000Y-73691500I0J75000D01*
G01*
G37*
G36*
G01*
X133808000Y-73191500D02*
X133808000Y-73041500D01*
G75*
G02*
X133883000Y-72966500I75000J0D01*
G01*
X135208000Y-72966500D01*
G75*
G02*
X135283000Y-73041500I0J-75000D01*
G01*
X135283000Y-73191500D01*
G75*
G02*
X135208000Y-73266500I-75000J0D01*
G01*
X133883000Y-73266500D01*
G75*
G02*
X133808000Y-73191500I0J75000D01*
G01*
G37*
G36*
G01*
X133808000Y-72691500D02*
X133808000Y-72541500D01*
G75*
G02*
X133883000Y-72466500I75000J0D01*
G01*
X135208000Y-72466500D01*
G75*
G02*
X135283000Y-72541500I0J-75000D01*
G01*
X135283000Y-72691500D01*
G75*
G02*
X135208000Y-72766500I-75000J0D01*
G01*
X133883000Y-72766500D01*
G75*
G02*
X133808000Y-72691500I0J75000D01*
G01*
G37*
G36*
G01*
X133808000Y-72191500D02*
X133808000Y-72041500D01*
G75*
G02*
X133883000Y-71966500I75000J0D01*
G01*
X135208000Y-71966500D01*
G75*
G02*
X135283000Y-72041500I0J-75000D01*
G01*
X135283000Y-72191500D01*
G75*
G02*
X135208000Y-72266500I-75000J0D01*
G01*
X133883000Y-72266500D01*
G75*
G02*
X133808000Y-72191500I0J75000D01*
G01*
G37*
G36*
G01*
X133808000Y-71691500D02*
X133808000Y-71541500D01*
G75*
G02*
X133883000Y-71466500I75000J0D01*
G01*
X135208000Y-71466500D01*
G75*
G02*
X135283000Y-71541500I0J-75000D01*
G01*
X135283000Y-71691500D01*
G75*
G02*
X135208000Y-71766500I-75000J0D01*
G01*
X133883000Y-71766500D01*
G75*
G02*
X133808000Y-71691500I0J75000D01*
G01*
G37*
G36*
G01*
X133808000Y-71191500D02*
X133808000Y-71041500D01*
G75*
G02*
X133883000Y-70966500I75000J0D01*
G01*
X135208000Y-70966500D01*
G75*
G02*
X135283000Y-71041500I0J-75000D01*
G01*
X135283000Y-71191500D01*
G75*
G02*
X135208000Y-71266500I-75000J0D01*
G01*
X133883000Y-71266500D01*
G75*
G02*
X133808000Y-71191500I0J75000D01*
G01*
G37*
%TD*%
D21*
%TO.C,RESET*%
X122368500Y-80480000D03*
X115168500Y-80480000D03*
X122368500Y-77480000D03*
X115168500Y-77480000D03*
%TD*%
%TO.C,R5*%
G36*
G01*
X117905500Y-75051500D02*
X117905500Y-74681500D01*
G75*
G02*
X118040500Y-74546500I135000J0D01*
G01*
X118310500Y-74546500D01*
G75*
G02*
X118445500Y-74681500I0J-135000D01*
G01*
X118445500Y-75051500D01*
G75*
G02*
X118310500Y-75186500I-135000J0D01*
G01*
X118040500Y-75186500D01*
G75*
G02*
X117905500Y-75051500I0J135000D01*
G01*
G37*
G36*
G01*
X116885500Y-75051500D02*
X116885500Y-74681500D01*
G75*
G02*
X117020500Y-74546500I135000J0D01*
G01*
X117290500Y-74546500D01*
G75*
G02*
X117425500Y-74681500I0J-135000D01*
G01*
X117425500Y-75051500D01*
G75*
G02*
X117290500Y-75186500I-135000J0D01*
G01*
X117020500Y-75186500D01*
G75*
G02*
X116885500Y-75051500I0J135000D01*
G01*
G37*
%TD*%
%TO.C,R4*%
G36*
G01*
X105868500Y-67442500D02*
X105868500Y-67812500D01*
G75*
G02*
X105733500Y-67947500I-135000J0D01*
G01*
X105463500Y-67947500D01*
G75*
G02*
X105328500Y-67812500I0J135000D01*
G01*
X105328500Y-67442500D01*
G75*
G02*
X105463500Y-67307500I135000J0D01*
G01*
X105733500Y-67307500D01*
G75*
G02*
X105868500Y-67442500I0J-135000D01*
G01*
G37*
G36*
G01*
X106888500Y-67442500D02*
X106888500Y-67812500D01*
G75*
G02*
X106753500Y-67947500I-135000J0D01*
G01*
X106483500Y-67947500D01*
G75*
G02*
X106348500Y-67812500I0J135000D01*
G01*
X106348500Y-67442500D01*
G75*
G02*
X106483500Y-67307500I135000J0D01*
G01*
X106753500Y-67307500D01*
G75*
G02*
X106888500Y-67442500I0J-135000D01*
G01*
G37*
%TD*%
%TO.C,R3*%
G36*
G01*
X114758500Y-71316000D02*
X114758500Y-71686000D01*
G75*
G02*
X114623500Y-71821000I-135000J0D01*
G01*
X114353500Y-71821000D01*
G75*
G02*
X114218500Y-71686000I0J135000D01*
G01*
X114218500Y-71316000D01*
G75*
G02*
X114353500Y-71181000I135000J0D01*
G01*
X114623500Y-71181000D01*
G75*
G02*
X114758500Y-71316000I0J-135000D01*
G01*
G37*
G36*
G01*
X115778500Y-71316000D02*
X115778500Y-71686000D01*
G75*
G02*
X115643500Y-71821000I-135000J0D01*
G01*
X115373500Y-71821000D01*
G75*
G02*
X115238500Y-71686000I0J135000D01*
G01*
X115238500Y-71316000D01*
G75*
G02*
X115373500Y-71181000I135000J0D01*
G01*
X115643500Y-71181000D01*
G75*
G02*
X115778500Y-71316000I0J-135000D01*
G01*
G37*
%TD*%
%TO.C,R2*%
G36*
G01*
X111964500Y-73538500D02*
X111964500Y-73908500D01*
G75*
G02*
X111829500Y-74043500I-135000J0D01*
G01*
X111559500Y-74043500D01*
G75*
G02*
X111424500Y-73908500I0J135000D01*
G01*
X111424500Y-73538500D01*
G75*
G02*
X111559500Y-73403500I135000J0D01*
G01*
X111829500Y-73403500D01*
G75*
G02*
X111964500Y-73538500I0J-135000D01*
G01*
G37*
G36*
G01*
X112984500Y-73538500D02*
X112984500Y-73908500D01*
G75*
G02*
X112849500Y-74043500I-135000J0D01*
G01*
X112579500Y-74043500D01*
G75*
G02*
X112444500Y-73908500I0J135000D01*
G01*
X112444500Y-73538500D01*
G75*
G02*
X112579500Y-73403500I135000J0D01*
G01*
X112849500Y-73403500D01*
G75*
G02*
X112984500Y-73538500I0J-135000D01*
G01*
G37*
%TD*%
%TO.C,R1*%
G36*
G01*
X111964500Y-76078500D02*
X111964500Y-76448500D01*
G75*
G02*
X111829500Y-76583500I-135000J0D01*
G01*
X111559500Y-76583500D01*
G75*
G02*
X111424500Y-76448500I0J135000D01*
G01*
X111424500Y-76078500D01*
G75*
G02*
X111559500Y-75943500I135000J0D01*
G01*
X111829500Y-75943500D01*
G75*
G02*
X111964500Y-76078500I0J-135000D01*
G01*
G37*
G36*
G01*
X112984500Y-76078500D02*
X112984500Y-76448500D01*
G75*
G02*
X112849500Y-76583500I-135000J0D01*
G01*
X112579500Y-76583500D01*
G75*
G02*
X112444500Y-76448500I0J135000D01*
G01*
X112444500Y-76078500D01*
G75*
G02*
X112579500Y-75943500I135000J0D01*
G01*
X112849500Y-75943500D01*
G75*
G02*
X112984500Y-76078500I0J-135000D01*
G01*
G37*
%TD*%
%TO.C,L1*%
G36*
G01*
X126334000Y-74741750D02*
X126334000Y-74229250D01*
G75*
G02*
X126552750Y-74010500I218750J0D01*
G01*
X126990250Y-74010500D01*
G75*
G02*
X127209000Y-74229250I0J-218750D01*
G01*
X127209000Y-74741750D01*
G75*
G02*
X126990250Y-74960500I-218750J0D01*
G01*
X126552750Y-74960500D01*
G75*
G02*
X126334000Y-74741750I0J218750D01*
G01*
G37*
G36*
G01*
X124759000Y-74741750D02*
X124759000Y-74229250D01*
G75*
G02*
X124977750Y-74010500I218750J0D01*
G01*
X125415250Y-74010500D01*
G75*
G02*
X125634000Y-74229250I0J-218750D01*
G01*
X125634000Y-74741750D01*
G75*
G02*
X125415250Y-74960500I-218750J0D01*
G01*
X124977750Y-74960500D01*
G75*
G02*
X124759000Y-74741750I0J218750D01*
G01*
G37*
%TD*%
%TO.C,D1*%
G36*
G01*
X103512000Y-67883750D02*
X103512000Y-67371250D01*
G75*
G02*
X103730750Y-67152500I218750J0D01*
G01*
X104168250Y-67152500D01*
G75*
G02*
X104387000Y-67371250I0J-218750D01*
G01*
X104387000Y-67883750D01*
G75*
G02*
X104168250Y-68102500I-218750J0D01*
G01*
X103730750Y-68102500D01*
G75*
G02*
X103512000Y-67883750I0J218750D01*
G01*
G37*
G36*
G01*
X101937000Y-67883750D02*
X101937000Y-67371250D01*
G75*
G02*
X102155750Y-67152500I218750J0D01*
G01*
X102593250Y-67152500D01*
G75*
G02*
X102812000Y-67371250I0J-218750D01*
G01*
X102812000Y-67883750D01*
G75*
G02*
X102593250Y-68102500I-218750J0D01*
G01*
X102155750Y-68102500D01*
G75*
G02*
X101937000Y-67883750I0J218750D01*
G01*
G37*
%TD*%
%TO.C,C13*%
G36*
G01*
X146694500Y-66972000D02*
X146694500Y-66632000D01*
G75*
G02*
X146834500Y-66492000I140000J0D01*
G01*
X147114500Y-66492000D01*
G75*
G02*
X147254500Y-66632000I0J-140000D01*
G01*
X147254500Y-66972000D01*
G75*
G02*
X147114500Y-67112000I-140000J0D01*
G01*
X146834500Y-67112000D01*
G75*
G02*
X146694500Y-66972000I0J140000D01*
G01*
G37*
G36*
G01*
X145734500Y-66972000D02*
X145734500Y-66632000D01*
G75*
G02*
X145874500Y-66492000I140000J0D01*
G01*
X146154500Y-66492000D01*
G75*
G02*
X146294500Y-66632000I0J-140000D01*
G01*
X146294500Y-66972000D01*
G75*
G02*
X146154500Y-67112000I-140000J0D01*
G01*
X145874500Y-67112000D01*
G75*
G02*
X145734500Y-66972000I0J140000D01*
G01*
G37*
%TD*%
%TO.C,C12*%
G36*
G01*
X146694500Y-68496000D02*
X146694500Y-68156000D01*
G75*
G02*
X146834500Y-68016000I140000J0D01*
G01*
X147114500Y-68016000D01*
G75*
G02*
X147254500Y-68156000I0J-140000D01*
G01*
X147254500Y-68496000D01*
G75*
G02*
X147114500Y-68636000I-140000J0D01*
G01*
X146834500Y-68636000D01*
G75*
G02*
X146694500Y-68496000I0J140000D01*
G01*
G37*
G36*
G01*
X145734500Y-68496000D02*
X145734500Y-68156000D01*
G75*
G02*
X145874500Y-68016000I140000J0D01*
G01*
X146154500Y-68016000D01*
G75*
G02*
X146294500Y-68156000I0J-140000D01*
G01*
X146294500Y-68496000D01*
G75*
G02*
X146154500Y-68636000I-140000J0D01*
G01*
X145874500Y-68636000D01*
G75*
G02*
X145734500Y-68496000I0J140000D01*
G01*
G37*
%TD*%
%TO.C,C11*%
G36*
G01*
X131932500Y-74285500D02*
X131592500Y-74285500D01*
G75*
G02*
X131452500Y-74145500I0J140000D01*
G01*
X131452500Y-73865500D01*
G75*
G02*
X131592500Y-73725500I140000J0D01*
G01*
X131932500Y-73725500D01*
G75*
G02*
X132072500Y-73865500I0J-140000D01*
G01*
X132072500Y-74145500D01*
G75*
G02*
X131932500Y-74285500I-140000J0D01*
G01*
G37*
G36*
G01*
X131932500Y-75245500D02*
X131592500Y-75245500D01*
G75*
G02*
X131452500Y-75105500I0J140000D01*
G01*
X131452500Y-74825500D01*
G75*
G02*
X131592500Y-74685500I140000J0D01*
G01*
X131932500Y-74685500D01*
G75*
G02*
X132072500Y-74825500I0J-140000D01*
G01*
X132072500Y-75105500D01*
G75*
G02*
X131932500Y-75245500I-140000J0D01*
G01*
G37*
%TD*%
%TO.C,C10*%
G36*
G01*
X129329000Y-74285500D02*
X128989000Y-74285500D01*
G75*
G02*
X128849000Y-74145500I0J140000D01*
G01*
X128849000Y-73865500D01*
G75*
G02*
X128989000Y-73725500I140000J0D01*
G01*
X129329000Y-73725500D01*
G75*
G02*
X129469000Y-73865500I0J-140000D01*
G01*
X129469000Y-74145500D01*
G75*
G02*
X129329000Y-74285500I-140000J0D01*
G01*
G37*
G36*
G01*
X129329000Y-75245500D02*
X128989000Y-75245500D01*
G75*
G02*
X128849000Y-75105500I0J140000D01*
G01*
X128849000Y-74825500D01*
G75*
G02*
X128989000Y-74685500I140000J0D01*
G01*
X129329000Y-74685500D01*
G75*
G02*
X129469000Y-74825500I0J-140000D01*
G01*
X129469000Y-75105500D01*
G75*
G02*
X129329000Y-75245500I-140000J0D01*
G01*
G37*
%TD*%
%TO.C,C9*%
G36*
G01*
X138820500Y-82783500D02*
X138820500Y-82443500D01*
G75*
G02*
X138960500Y-82303500I140000J0D01*
G01*
X139240500Y-82303500D01*
G75*
G02*
X139380500Y-82443500I0J-140000D01*
G01*
X139380500Y-82783500D01*
G75*
G02*
X139240500Y-82923500I-140000J0D01*
G01*
X138960500Y-82923500D01*
G75*
G02*
X138820500Y-82783500I0J140000D01*
G01*
G37*
G36*
G01*
X137860500Y-82783500D02*
X137860500Y-82443500D01*
G75*
G02*
X138000500Y-82303500I140000J0D01*
G01*
X138280500Y-82303500D01*
G75*
G02*
X138420500Y-82443500I0J-140000D01*
G01*
X138420500Y-82783500D01*
G75*
G02*
X138280500Y-82923500I-140000J0D01*
G01*
X138000500Y-82923500D01*
G75*
G02*
X137860500Y-82783500I0J140000D01*
G01*
G37*
%TD*%
%TO.C,C8*%
G36*
G01*
X148039000Y-79257500D02*
X148379000Y-79257500D01*
G75*
G02*
X148519000Y-79397500I0J-140000D01*
G01*
X148519000Y-79677500D01*
G75*
G02*
X148379000Y-79817500I-140000J0D01*
G01*
X148039000Y-79817500D01*
G75*
G02*
X147899000Y-79677500I0J140000D01*
G01*
X147899000Y-79397500D01*
G75*
G02*
X148039000Y-79257500I140000J0D01*
G01*
G37*
G36*
G01*
X148039000Y-78297500D02*
X148379000Y-78297500D01*
G75*
G02*
X148519000Y-78437500I0J-140000D01*
G01*
X148519000Y-78717500D01*
G75*
G02*
X148379000Y-78857500I-140000J0D01*
G01*
X148039000Y-78857500D01*
G75*
G02*
X147899000Y-78717500I0J140000D01*
G01*
X147899000Y-78437500D01*
G75*
G02*
X148039000Y-78297500I140000J0D01*
G01*
G37*
%TD*%
%TO.C,C7*%
G36*
G01*
X148229500Y-71320000D02*
X148569500Y-71320000D01*
G75*
G02*
X148709500Y-71460000I0J-140000D01*
G01*
X148709500Y-71740000D01*
G75*
G02*
X148569500Y-71880000I-140000J0D01*
G01*
X148229500Y-71880000D01*
G75*
G02*
X148089500Y-71740000I0J140000D01*
G01*
X148089500Y-71460000D01*
G75*
G02*
X148229500Y-71320000I140000J0D01*
G01*
G37*
G36*
G01*
X148229500Y-70360000D02*
X148569500Y-70360000D01*
G75*
G02*
X148709500Y-70500000I0J-140000D01*
G01*
X148709500Y-70780000D01*
G75*
G02*
X148569500Y-70920000I-140000J0D01*
G01*
X148229500Y-70920000D01*
G75*
G02*
X148089500Y-70780000I0J140000D01*
G01*
X148089500Y-70500000D01*
G75*
G02*
X148229500Y-70360000I140000J0D01*
G01*
G37*
%TD*%
%TO.C,C6*%
G36*
G01*
X141170000Y-67099000D02*
X141170000Y-66759000D01*
G75*
G02*
X141310000Y-66619000I140000J0D01*
G01*
X141590000Y-66619000D01*
G75*
G02*
X141730000Y-66759000I0J-140000D01*
G01*
X141730000Y-67099000D01*
G75*
G02*
X141590000Y-67239000I-140000J0D01*
G01*
X141310000Y-67239000D01*
G75*
G02*
X141170000Y-67099000I0J140000D01*
G01*
G37*
G36*
G01*
X140210000Y-67099000D02*
X140210000Y-66759000D01*
G75*
G02*
X140350000Y-66619000I140000J0D01*
G01*
X140630000Y-66619000D01*
G75*
G02*
X140770000Y-66759000I0J-140000D01*
G01*
X140770000Y-67099000D01*
G75*
G02*
X140630000Y-67239000I-140000J0D01*
G01*
X140350000Y-67239000D01*
G75*
G02*
X140210000Y-67099000I0J140000D01*
G01*
G37*
%TD*%
%TO.C,C5*%
G36*
G01*
X120659500Y-75036500D02*
X120659500Y-74696500D01*
G75*
G02*
X120799500Y-74556500I140000J0D01*
G01*
X121079500Y-74556500D01*
G75*
G02*
X121219500Y-74696500I0J-140000D01*
G01*
X121219500Y-75036500D01*
G75*
G02*
X121079500Y-75176500I-140000J0D01*
G01*
X120799500Y-75176500D01*
G75*
G02*
X120659500Y-75036500I0J140000D01*
G01*
G37*
G36*
G01*
X119699500Y-75036500D02*
X119699500Y-74696500D01*
G75*
G02*
X119839500Y-74556500I140000J0D01*
G01*
X120119500Y-74556500D01*
G75*
G02*
X120259500Y-74696500I0J-140000D01*
G01*
X120259500Y-75036500D01*
G75*
G02*
X120119500Y-75176500I-140000J0D01*
G01*
X119839500Y-75176500D01*
G75*
G02*
X119699500Y-75036500I0J140000D01*
G01*
G37*
%TD*%
%TO.C,C4*%
G36*
G01*
X119434000Y-67775000D02*
X119434000Y-68115000D01*
G75*
G02*
X119294000Y-68255000I-140000J0D01*
G01*
X119014000Y-68255000D01*
G75*
G02*
X118874000Y-68115000I0J140000D01*
G01*
X118874000Y-67775000D01*
G75*
G02*
X119014000Y-67635000I140000J0D01*
G01*
X119294000Y-67635000D01*
G75*
G02*
X119434000Y-67775000I0J-140000D01*
G01*
G37*
G36*
G01*
X120394000Y-67775000D02*
X120394000Y-68115000D01*
G75*
G02*
X120254000Y-68255000I-140000J0D01*
G01*
X119974000Y-68255000D01*
G75*
G02*
X119834000Y-68115000I0J140000D01*
G01*
X119834000Y-67775000D01*
G75*
G02*
X119974000Y-67635000I140000J0D01*
G01*
X120254000Y-67635000D01*
G75*
G02*
X120394000Y-67775000I0J-140000D01*
G01*
G37*
%TD*%
%TO.C,C3*%
G36*
G01*
X127973000Y-69732500D02*
X128313000Y-69732500D01*
G75*
G02*
X128453000Y-69872500I0J-140000D01*
G01*
X128453000Y-70152500D01*
G75*
G02*
X128313000Y-70292500I-140000J0D01*
G01*
X127973000Y-70292500D01*
G75*
G02*
X127833000Y-70152500I0J140000D01*
G01*
X127833000Y-69872500D01*
G75*
G02*
X127973000Y-69732500I140000J0D01*
G01*
G37*
G36*
G01*
X127973000Y-68772500D02*
X128313000Y-68772500D01*
G75*
G02*
X128453000Y-68912500I0J-140000D01*
G01*
X128453000Y-69192500D01*
G75*
G02*
X128313000Y-69332500I-140000J0D01*
G01*
X127973000Y-69332500D01*
G75*
G02*
X127833000Y-69192500I0J140000D01*
G01*
X127833000Y-68912500D01*
G75*
G02*
X127973000Y-68772500I140000J0D01*
G01*
G37*
%TD*%
%TO.C,C2*%
G36*
G01*
X115198500Y-70210500D02*
X115198500Y-69870500D01*
G75*
G02*
X115338500Y-69730500I140000J0D01*
G01*
X115618500Y-69730500D01*
G75*
G02*
X115758500Y-69870500I0J-140000D01*
G01*
X115758500Y-70210500D01*
G75*
G02*
X115618500Y-70350500I-140000J0D01*
G01*
X115338500Y-70350500D01*
G75*
G02*
X115198500Y-70210500I0J140000D01*
G01*
G37*
G36*
G01*
X114238500Y-70210500D02*
X114238500Y-69870500D01*
G75*
G02*
X114378500Y-69730500I140000J0D01*
G01*
X114658500Y-69730500D01*
G75*
G02*
X114798500Y-69870500I0J-140000D01*
G01*
X114798500Y-70210500D01*
G75*
G02*
X114658500Y-70350500I-140000J0D01*
G01*
X114378500Y-70350500D01*
G75*
G02*
X114238500Y-70210500I0J140000D01*
G01*
G37*
%TD*%
%TO.C,C1*%
G36*
G01*
X125560000Y-69732500D02*
X125900000Y-69732500D01*
G75*
G02*
X126040000Y-69872500I0J-140000D01*
G01*
X126040000Y-70152500D01*
G75*
G02*
X125900000Y-70292500I-140000J0D01*
G01*
X125560000Y-70292500D01*
G75*
G02*
X125420000Y-70152500I0J140000D01*
G01*
X125420000Y-69872500D01*
G75*
G02*
X125560000Y-69732500I140000J0D01*
G01*
G37*
G36*
G01*
X125560000Y-68772500D02*
X125900000Y-68772500D01*
G75*
G02*
X126040000Y-68912500I0J-140000D01*
G01*
X126040000Y-69192500D01*
G75*
G02*
X125900000Y-69332500I-140000J0D01*
G01*
X125560000Y-69332500D01*
G75*
G02*
X125420000Y-69192500I0J140000D01*
G01*
X125420000Y-68912500D01*
G75*
G02*
X125560000Y-68772500I140000J0D01*
G01*
G37*
%TD*%
M02*
