M48
; DRILL file {KiCad 5.1.9+dfsg1-1} date Fri Jan 14 18:58:46 2022
; FORMAT={-:-/ absolute / metric / decimal}
; #@! TF.CreationDate,2022-01-14T18:58:46-05:00
; #@! TF.GenerationSoftware,Kicad,Pcbnew,5.1.9+dfsg1-1
; #@! TF.FileFunction,Plated,1,2,PTH
FMAT,2
METRIC
T1C0.400
T2C0.600
T3C0.650
T4C1.000
%
G90
G05
T1
X102.374Y-69.1
X102.425Y-74.486
X105.855Y-74.422
X108.331Y-67.31
X108.648Y-74.993
X117.92Y-67.31
X118.719Y-80.48
X122.706Y-75.732
X123.698Y-66.548
X124.587Y-76.327
X126.545Y-77.48
X127.028Y-70.013
X134.239Y-83.185
X135.763Y-82.042
X135.89Y-78.105
X136.715Y-74.803
X136.779Y-78.93
X136.969Y-82.169
X138.239Y-78.93
X140.272Y-72.2
X140.462Y-73.215
X140.462Y-74.231
X140.49Y-67.79
X140.779Y-78.74
X141.541Y-67.818
X141.605Y-70.612
X142.113Y-78.994
X142.684Y-70.612
X144.526Y-78.867
X144.97Y-67.564
X147.066Y-69.85
X147.447Y-70.802
X147.574Y-71.819
X147.891Y-66.167
X148.145Y-69.088
X151.13Y-76.517
X152.781Y-72.136
X152.781Y-73.406
X153.162Y-67.754
X153.162Y-68.897
X153.162Y-70.104
X153.352Y-78.676
X157.543Y-78.613
X164.147Y-70.04
X164.719Y-79.692
X165.354Y-71.056
X165.862Y-79.692
X166.306Y-75.438
X167.069Y-79.692
X170.942Y-74.422
T3
X153.861Y-72.136
X153.861Y-73.406
X153.861Y-74.676
X153.861Y-75.946
X153.861Y-77.216
X155.13Y-72.136
X155.13Y-73.406
X155.13Y-74.676
X155.13Y-75.946
X155.13Y-77.216
T4
X116.84Y-63.5
X116.84Y-86.36
X119.38Y-63.5
X119.38Y-86.36
X121.92Y-63.5
X121.92Y-86.36
X124.46Y-63.5
X124.46Y-86.36
X127.0Y-63.5
X127.0Y-86.36
X129.54Y-63.5
X129.54Y-86.36
X132.08Y-63.5
X132.08Y-86.36
X134.62Y-63.5
X134.62Y-86.36
X137.16Y-63.5
X137.16Y-86.36
X139.7Y-63.5
X139.7Y-86.36
X142.24Y-63.5
X142.24Y-86.36
X144.78Y-63.5
X144.78Y-86.36
X147.32Y-63.5
X147.32Y-86.36
X149.86Y-63.5
X149.86Y-86.36
X152.4Y-63.5
X152.4Y-86.36
X154.94Y-63.5
X154.94Y-86.36
X157.48Y-63.5
X157.48Y-86.36
X160.02Y-63.5
X160.02Y-86.36
X162.56Y-63.5
X162.56Y-86.36
X165.1Y-63.5
X165.1Y-86.36
T2
X102.785Y-70.419G85X101.985Y-70.419
G05
X102.785Y-79.059G85X101.985Y-79.059
G05
X107.115Y-70.419G85X106.015Y-70.419
G05
X107.115Y-79.059G85X106.015Y-79.059
G05
T0
M30
