%FSLAX45Y45*%
G04 Gerber Fmt 4.5, Leading zero omitted, Abs format (unit mm)*
G04 Created by KiCad (PCBNEW 5.1.9+dfsg1-1) date 2022-01-14 18:58:47*
%MOMM*%
%LPD*%
G01*
G04 APERTURE LIST*
%TA.AperFunction,Profile*%
%ADD10C,0.050000*%
%TD*%
%ADD11C,0.200000*%
%ADD12C,0.300000*%
G04 APERTURE END LIST*
D10*
X10096500Y-8826500D02*
X10096500Y-6159500D01*
X10096500Y-8826500D02*
X17335500Y-8826500D01*
X17335500Y-8826500D02*
X17335500Y-6159500D01*
X10096500Y-6159500D02*
X17335500Y-6159500D01*
D11*
X10217450Y-6890050D02*
X10257450Y-6930050D01*
X10257450Y-6890050D02*
X10217450Y-6930050D01*
X10222550Y-7428550D02*
X10262550Y-7468550D01*
X10262550Y-7428550D02*
X10222550Y-7468550D01*
X10565450Y-7422200D02*
X10605450Y-7462200D01*
X10605450Y-7422200D02*
X10565450Y-7462200D01*
X10813100Y-6711000D02*
X10853100Y-6751000D01*
X10853100Y-6711000D02*
X10813100Y-6751000D01*
X10844850Y-7479350D02*
X10884850Y-7519350D01*
X10884850Y-7479350D02*
X10844850Y-7519350D01*
X11771951Y-6710999D02*
X11811951Y-6750999D01*
X11811951Y-6710999D02*
X11771951Y-6750999D01*
X11851950Y-8028000D02*
X11891950Y-8068000D01*
X11891950Y-8028000D02*
X11851950Y-8068000D01*
X12250550Y-7553200D02*
X12290550Y-7593200D01*
X12290550Y-7553200D02*
X12250550Y-7593200D01*
X12349800Y-6634800D02*
X12389800Y-6674800D01*
X12389800Y-6634800D02*
X12349800Y-6674800D01*
X12438700Y-7612700D02*
X12478700Y-7652700D01*
X12478700Y-7612700D02*
X12438700Y-7652700D01*
X12634550Y-7728000D02*
X12674550Y-7768000D01*
X12674550Y-7728000D02*
X12634550Y-7768000D01*
X12682800Y-6981250D02*
X12722800Y-7021250D01*
X12722800Y-6981250D02*
X12682800Y-7021250D01*
X13403900Y-8298500D02*
X13443900Y-8338500D01*
X13443900Y-8298500D02*
X13403900Y-8338500D01*
X13556300Y-8184200D02*
X13596300Y-8224200D01*
X13596300Y-8184200D02*
X13556300Y-8224200D01*
X13569000Y-7790500D02*
X13609000Y-7830500D01*
X13609000Y-7790500D02*
X13569000Y-7830500D01*
X13651550Y-7460300D02*
X13691550Y-7500300D01*
X13691550Y-7460300D02*
X13651550Y-7500300D01*
X13657900Y-7873050D02*
X13697900Y-7913050D01*
X13697900Y-7873050D02*
X13657900Y-7913050D01*
X13676950Y-8196900D02*
X13716950Y-8236900D01*
X13716950Y-8196900D02*
X13676950Y-8236900D01*
X13803950Y-7873050D02*
X13843950Y-7913050D01*
X13843950Y-7873050D02*
X13803950Y-7913050D01*
X14007150Y-7199950D02*
X14047150Y-7239950D01*
X14047150Y-7199950D02*
X14007150Y-7239950D01*
X14026200Y-7301550D02*
X14066200Y-7341550D01*
X14066200Y-7301550D02*
X14026200Y-7341550D01*
X14026200Y-7403150D02*
X14066200Y-7443150D01*
X14066200Y-7403150D02*
X14026200Y-7443150D01*
X14029000Y-6759000D02*
X14069000Y-6799000D01*
X14069000Y-6759000D02*
X14029000Y-6799000D01*
X14057950Y-7854000D02*
X14097950Y-7894000D01*
X14097950Y-7854000D02*
X14057950Y-7894000D01*
X14134150Y-6761800D02*
X14174150Y-6801800D01*
X14174150Y-6761800D02*
X14134150Y-6801800D01*
X14140500Y-7041200D02*
X14180500Y-7081200D01*
X14180500Y-7041200D02*
X14140500Y-7081200D01*
X14191300Y-7879400D02*
X14231300Y-7919400D01*
X14231300Y-7879400D02*
X14191300Y-7919400D01*
X14248450Y-7041200D02*
X14288450Y-7081200D01*
X14288450Y-7041200D02*
X14248450Y-7081200D01*
X14432600Y-7866700D02*
X14472600Y-7906700D01*
X14472600Y-7866700D02*
X14432600Y-7906700D01*
X14477050Y-6736400D02*
X14517050Y-6776400D01*
X14517050Y-6736400D02*
X14477050Y-6776400D01*
X14686600Y-6965000D02*
X14726600Y-7005000D01*
X14726600Y-6965000D02*
X14686600Y-7005000D01*
X14724700Y-7060250D02*
X14764700Y-7100250D01*
X14764700Y-7060250D02*
X14724700Y-7100250D01*
X14737400Y-7161850D02*
X14777400Y-7201850D01*
X14777400Y-7161850D02*
X14737400Y-7201850D01*
X14769150Y-6596700D02*
X14809150Y-6636700D01*
X14809150Y-6596700D02*
X14769150Y-6636700D01*
X14794550Y-6888800D02*
X14834550Y-6928800D01*
X14834550Y-6888800D02*
X14794550Y-6928800D01*
X15093000Y-7631750D02*
X15133000Y-7671750D01*
X15133000Y-7631750D02*
X15093000Y-7671750D01*
X15258100Y-7193600D02*
X15298100Y-7233600D01*
X15298100Y-7193600D02*
X15258100Y-7233600D01*
X15258100Y-7320600D02*
X15298100Y-7360600D01*
X15298100Y-7320600D02*
X15258100Y-7360600D01*
X15296200Y-6755450D02*
X15336200Y-6795450D01*
X15336200Y-6755450D02*
X15296200Y-6795450D01*
X15296200Y-6869750D02*
X15336200Y-6909750D01*
X15336200Y-6869750D02*
X15296200Y-6909750D01*
X15296200Y-6990400D02*
X15336200Y-7030400D01*
X15336200Y-6990400D02*
X15296200Y-7030400D01*
X15315250Y-7847650D02*
X15355250Y-7887650D01*
X15355250Y-7847650D02*
X15315250Y-7887650D01*
X15734350Y-7841300D02*
X15774350Y-7881300D01*
X15774350Y-7841300D02*
X15734350Y-7881300D01*
X16394750Y-6984050D02*
X16434750Y-7024050D01*
X16434750Y-6984050D02*
X16394750Y-7024050D01*
X16451900Y-7949250D02*
X16491900Y-7989250D01*
X16491900Y-7949250D02*
X16451900Y-7989250D01*
X16515400Y-7085650D02*
X16555400Y-7125650D01*
X16555400Y-7085650D02*
X16515400Y-7125650D01*
X16566200Y-7949250D02*
X16606200Y-7989250D01*
X16606200Y-7949250D02*
X16566200Y-7989250D01*
X16610650Y-7523800D02*
X16650650Y-7563800D01*
X16650650Y-7523800D02*
X16610650Y-7563800D01*
X16686850Y-7949250D02*
X16726850Y-7989250D01*
X16726850Y-7949250D02*
X16686850Y-7989250D01*
X17074200Y-7422200D02*
X17114200Y-7462200D01*
X17114200Y-7422200D02*
X17074200Y-7462200D01*
X10268500Y-7041950D02*
G75*
G03*
X10268500Y-7041950I-30000J0D01*
G01*
X10278500Y-7021950D02*
X10198500Y-7021950D01*
X10278500Y-7061950D02*
X10198500Y-7061950D01*
X10198500Y-7021950D02*
G75*
G03*
X10198500Y-7061950I0J-20000D01*
G01*
X10278500Y-7061950D02*
G75*
G03*
X10278500Y-7021950I0J20000D01*
G01*
X10268500Y-7905950D02*
G75*
G03*
X10268500Y-7905950I-30000J0D01*
G01*
X10278500Y-7885950D02*
X10198500Y-7885950D01*
X10278500Y-7925950D02*
X10198500Y-7925950D01*
X10198500Y-7885950D02*
G75*
G03*
X10198500Y-7925950I0J-20000D01*
G01*
X10278500Y-7925950D02*
G75*
G03*
X10278500Y-7885950I0J20000D01*
G01*
X10686500Y-7041950D02*
G75*
G03*
X10686500Y-7041950I-30000J0D01*
G01*
X10711500Y-7021950D02*
X10601500Y-7021950D01*
X10711500Y-7061950D02*
X10601500Y-7061950D01*
X10601500Y-7021950D02*
G75*
G03*
X10601500Y-7061950I0J-20000D01*
G01*
X10711500Y-7061950D02*
G75*
G03*
X10711500Y-7021950I0J20000D01*
G01*
X10686500Y-7905950D02*
G75*
G03*
X10686500Y-7905950I-30000J0D01*
G01*
X10711500Y-7885950D02*
X10601500Y-7885950D01*
X10711500Y-7925950D02*
X10601500Y-7925950D01*
X10601500Y-7885950D02*
G75*
G03*
X10601500Y-7925950I0J-20000D01*
G01*
X10711500Y-7925950D02*
G75*
G03*
X10711500Y-7885950I0J20000D01*
G01*
X15386050Y-7181100D02*
X15386050Y-7246100D01*
X15353550Y-7213600D02*
X15418550Y-7213600D01*
X15386050Y-7308100D02*
X15386050Y-7373100D01*
X15353550Y-7340600D02*
X15418550Y-7340600D01*
X15386050Y-7435100D02*
X15386050Y-7500100D01*
X15353550Y-7467600D02*
X15418550Y-7467600D01*
X15386050Y-7562100D02*
X15386050Y-7627100D01*
X15353550Y-7594600D02*
X15418550Y-7594600D01*
X15386050Y-7689100D02*
X15386050Y-7754100D01*
X15353550Y-7721600D02*
X15418550Y-7721600D01*
X15513050Y-7181100D02*
X15513050Y-7246100D01*
X15480550Y-7213600D02*
X15545550Y-7213600D01*
X15513050Y-7308100D02*
X15513050Y-7373100D01*
X15480550Y-7340600D02*
X15545550Y-7340600D01*
X15513050Y-7435100D02*
X15513050Y-7500100D01*
X15480550Y-7467600D02*
X15545550Y-7467600D01*
X15513050Y-7562100D02*
X15513050Y-7627100D01*
X15480550Y-7594600D02*
X15545550Y-7594600D01*
X15513050Y-7689100D02*
X15513050Y-7754100D01*
X15480550Y-7721600D02*
X15545550Y-7721600D01*
X11719356Y-6385356D02*
X11719356Y-6314644D01*
X11648644Y-6314644D01*
X11648644Y-6385356D01*
X11719356Y-6385356D01*
X11719356Y-8671356D02*
X11719356Y-8600644D01*
X11648644Y-8600644D01*
X11648644Y-8671356D01*
X11719356Y-8671356D01*
X11973356Y-6385356D02*
X11973356Y-6314644D01*
X11902644Y-6314644D01*
X11902644Y-6385356D01*
X11973356Y-6385356D01*
X11973356Y-8671356D02*
X11973356Y-8600644D01*
X11902644Y-8600644D01*
X11902644Y-8671356D01*
X11973356Y-8671356D01*
X12227356Y-6385356D02*
X12227356Y-6314644D01*
X12156644Y-6314644D01*
X12156644Y-6385356D01*
X12227356Y-6385356D01*
X12227356Y-8671356D02*
X12227356Y-8600644D01*
X12156644Y-8600644D01*
X12156644Y-8671356D01*
X12227356Y-8671356D01*
X12481356Y-6385356D02*
X12481356Y-6314644D01*
X12410644Y-6314644D01*
X12410644Y-6385356D01*
X12481356Y-6385356D01*
X12481356Y-8671356D02*
X12481356Y-8600644D01*
X12410644Y-8600644D01*
X12410644Y-8671356D01*
X12481356Y-8671356D01*
X12735356Y-6385356D02*
X12735356Y-6314644D01*
X12664644Y-6314644D01*
X12664644Y-6385356D01*
X12735356Y-6385356D01*
X12735356Y-8671356D02*
X12735356Y-8600644D01*
X12664644Y-8600644D01*
X12664644Y-8671356D01*
X12735356Y-8671356D01*
X12989356Y-6385356D02*
X12989356Y-6314644D01*
X12918644Y-6314644D01*
X12918644Y-6385356D01*
X12989356Y-6385356D01*
X12989356Y-8671356D02*
X12989356Y-8600644D01*
X12918644Y-8600644D01*
X12918644Y-8671356D01*
X12989356Y-8671356D01*
X13243356Y-6385356D02*
X13243356Y-6314644D01*
X13172644Y-6314644D01*
X13172644Y-6385356D01*
X13243356Y-6385356D01*
X13243356Y-8671356D02*
X13243356Y-8600644D01*
X13172644Y-8600644D01*
X13172644Y-8671356D01*
X13243356Y-8671356D01*
X13497356Y-6385356D02*
X13497356Y-6314644D01*
X13426644Y-6314644D01*
X13426644Y-6385356D01*
X13497356Y-6385356D01*
X13497356Y-8671356D02*
X13497356Y-8600644D01*
X13426644Y-8600644D01*
X13426644Y-8671356D01*
X13497356Y-8671356D01*
X13751356Y-6385356D02*
X13751356Y-6314644D01*
X13680644Y-6314644D01*
X13680644Y-6385356D01*
X13751356Y-6385356D01*
X13751356Y-8671356D02*
X13751356Y-8600644D01*
X13680644Y-8600644D01*
X13680644Y-8671356D01*
X13751356Y-8671356D01*
X14005356Y-6385356D02*
X14005356Y-6314644D01*
X13934644Y-6314644D01*
X13934644Y-6385356D01*
X14005356Y-6385356D01*
X14005356Y-8671356D02*
X14005356Y-8600644D01*
X13934644Y-8600644D01*
X13934644Y-8671356D01*
X14005356Y-8671356D01*
X14259356Y-6385356D02*
X14259356Y-6314644D01*
X14188644Y-6314644D01*
X14188644Y-6385356D01*
X14259356Y-6385356D01*
X14259356Y-8671356D02*
X14259356Y-8600644D01*
X14188644Y-8600644D01*
X14188644Y-8671356D01*
X14259356Y-8671356D01*
X14513356Y-6385356D02*
X14513356Y-6314644D01*
X14442644Y-6314644D01*
X14442644Y-6385356D01*
X14513356Y-6385356D01*
X14513356Y-8671356D02*
X14513356Y-8600644D01*
X14442644Y-8600644D01*
X14442644Y-8671356D01*
X14513356Y-8671356D01*
X14767356Y-6385356D02*
X14767356Y-6314644D01*
X14696644Y-6314644D01*
X14696644Y-6385356D01*
X14767356Y-6385356D01*
X14767356Y-8671356D02*
X14767356Y-8600644D01*
X14696644Y-8600644D01*
X14696644Y-8671356D01*
X14767356Y-8671356D01*
X15021356Y-6385356D02*
X15021356Y-6314644D01*
X14950644Y-6314644D01*
X14950644Y-6385356D01*
X15021356Y-6385356D01*
X15021356Y-8671356D02*
X15021356Y-8600644D01*
X14950644Y-8600644D01*
X14950644Y-8671356D01*
X15021356Y-8671356D01*
X15275356Y-6385356D02*
X15275356Y-6314644D01*
X15204644Y-6314644D01*
X15204644Y-6385356D01*
X15275356Y-6385356D01*
X15275356Y-8671356D02*
X15275356Y-8600644D01*
X15204644Y-8600644D01*
X15204644Y-8671356D01*
X15275356Y-8671356D01*
X15529356Y-6385356D02*
X15529356Y-6314644D01*
X15458644Y-6314644D01*
X15458644Y-6385356D01*
X15529356Y-6385356D01*
X15529356Y-8671356D02*
X15529356Y-8600644D01*
X15458644Y-8600644D01*
X15458644Y-8671356D01*
X15529356Y-8671356D01*
X15783356Y-6385356D02*
X15783356Y-6314644D01*
X15712644Y-6314644D01*
X15712644Y-6385356D01*
X15783356Y-6385356D01*
X15783356Y-8671356D02*
X15783356Y-8600644D01*
X15712644Y-8600644D01*
X15712644Y-8671356D01*
X15783356Y-8671356D01*
X16037356Y-6385356D02*
X16037356Y-6314644D01*
X15966644Y-6314644D01*
X15966644Y-6385356D01*
X16037356Y-6385356D01*
X16037356Y-8671356D02*
X16037356Y-8600644D01*
X15966644Y-8600644D01*
X15966644Y-8671356D01*
X16037356Y-8671356D01*
X16291356Y-6385356D02*
X16291356Y-6314644D01*
X16220644Y-6314644D01*
X16220644Y-6385356D01*
X16291356Y-6385356D01*
X16291356Y-8671356D02*
X16291356Y-8600644D01*
X16220644Y-8600644D01*
X16220644Y-8671356D01*
X16291356Y-8671356D01*
X16545356Y-6385356D02*
X16545356Y-6314644D01*
X16474644Y-6314644D01*
X16474644Y-6385356D01*
X16545356Y-6385356D01*
X16545356Y-8671356D02*
X16545356Y-8600644D01*
X16474644Y-8600644D01*
X16474644Y-8671356D01*
X16545356Y-8671356D01*
D12*
X10380428Y-9294714D02*
X10380428Y-8994714D01*
X10451857Y-8994714D01*
X10494714Y-9009000D01*
X10523286Y-9037572D01*
X10537571Y-9066143D01*
X10551857Y-9123286D01*
X10551857Y-9166143D01*
X10537571Y-9223286D01*
X10523286Y-9251857D01*
X10494714Y-9280429D01*
X10451857Y-9294714D01*
X10380428Y-9294714D01*
X10680428Y-9294714D02*
X10680428Y-9094714D01*
X10680428Y-9151857D02*
X10694714Y-9123286D01*
X10709000Y-9109000D01*
X10737571Y-9094714D01*
X10766143Y-9094714D01*
X10866143Y-9294714D02*
X10866143Y-9094714D01*
X10866143Y-8994714D02*
X10851857Y-9009000D01*
X10866143Y-9023286D01*
X10880428Y-9009000D01*
X10866143Y-8994714D01*
X10866143Y-9023286D01*
X11051857Y-9294714D02*
X11023286Y-9280429D01*
X11009000Y-9251857D01*
X11009000Y-8994714D01*
X11209000Y-9294714D02*
X11180428Y-9280429D01*
X11166143Y-9251857D01*
X11166143Y-8994714D01*
X11551857Y-9294714D02*
X11551857Y-8994714D01*
X11651857Y-9209000D01*
X11751857Y-8994714D01*
X11751857Y-9294714D01*
X12023286Y-9294714D02*
X12023286Y-9137572D01*
X12009000Y-9109000D01*
X11980428Y-9094714D01*
X11923286Y-9094714D01*
X11894714Y-9109000D01*
X12023286Y-9280429D02*
X11994714Y-9294714D01*
X11923286Y-9294714D01*
X11894714Y-9280429D01*
X11880428Y-9251857D01*
X11880428Y-9223286D01*
X11894714Y-9194714D01*
X11923286Y-9180429D01*
X11994714Y-9180429D01*
X12023286Y-9166143D01*
X12166143Y-9094714D02*
X12166143Y-9394714D01*
X12166143Y-9109000D02*
X12194714Y-9094714D01*
X12251857Y-9094714D01*
X12280428Y-9109000D01*
X12294714Y-9123286D01*
X12309000Y-9151857D01*
X12309000Y-9237572D01*
X12294714Y-9266143D01*
X12280428Y-9280429D01*
X12251857Y-9294714D01*
X12194714Y-9294714D01*
X12166143Y-9280429D01*
X12437571Y-9266143D02*
X12451857Y-9280429D01*
X12437571Y-9294714D01*
X12423286Y-9280429D01*
X12437571Y-9266143D01*
X12437571Y-9294714D01*
X12437571Y-9109000D02*
X12451857Y-9123286D01*
X12437571Y-9137572D01*
X12423286Y-9123286D01*
X12437571Y-9109000D01*
X12437571Y-9137572D01*
X10054000Y-9769000D02*
X10094000Y-9809000D01*
X10094000Y-9769000D02*
X10054000Y-9809000D01*
X10437571Y-9624714D02*
X10466143Y-9624714D01*
X10494714Y-9639000D01*
X10509000Y-9653286D01*
X10523286Y-9681857D01*
X10537571Y-9739000D01*
X10537571Y-9810429D01*
X10523286Y-9867572D01*
X10509000Y-9896143D01*
X10494714Y-9910429D01*
X10466143Y-9924714D01*
X10437571Y-9924714D01*
X10409000Y-9910429D01*
X10394714Y-9896143D01*
X10380428Y-9867572D01*
X10366143Y-9810429D01*
X10366143Y-9739000D01*
X10380428Y-9681857D01*
X10394714Y-9653286D01*
X10409000Y-9639000D01*
X10437571Y-9624714D01*
X10666143Y-9896143D02*
X10680428Y-9910429D01*
X10666143Y-9924714D01*
X10651857Y-9910429D01*
X10666143Y-9896143D01*
X10666143Y-9924714D01*
X10937571Y-9724714D02*
X10937571Y-9924714D01*
X10866143Y-9610429D02*
X10794714Y-9824714D01*
X10980428Y-9824714D01*
X11151857Y-9624714D02*
X11180428Y-9624714D01*
X11209000Y-9639000D01*
X11223286Y-9653286D01*
X11237571Y-9681857D01*
X11251857Y-9739000D01*
X11251857Y-9810429D01*
X11237571Y-9867572D01*
X11223286Y-9896143D01*
X11209000Y-9910429D01*
X11180428Y-9924714D01*
X11151857Y-9924714D01*
X11123286Y-9910429D01*
X11109000Y-9896143D01*
X11094714Y-9867572D01*
X11080428Y-9810429D01*
X11080428Y-9739000D01*
X11094714Y-9681857D01*
X11109000Y-9653286D01*
X11123286Y-9639000D01*
X11151857Y-9624714D01*
X11380428Y-9924714D02*
X11380428Y-9724714D01*
X11380428Y-9753286D02*
X11394714Y-9739000D01*
X11423286Y-9724714D01*
X11466143Y-9724714D01*
X11494714Y-9739000D01*
X11509000Y-9767572D01*
X11509000Y-9924714D01*
X11509000Y-9767572D02*
X11523286Y-9739000D01*
X11551857Y-9724714D01*
X11594714Y-9724714D01*
X11623286Y-9739000D01*
X11637571Y-9767572D01*
X11637571Y-9924714D01*
X11780428Y-9924714D02*
X11780428Y-9724714D01*
X11780428Y-9753286D02*
X11794714Y-9739000D01*
X11823286Y-9724714D01*
X11866143Y-9724714D01*
X11894714Y-9739000D01*
X11909000Y-9767572D01*
X11909000Y-9924714D01*
X11909000Y-9767572D02*
X11923286Y-9739000D01*
X11951857Y-9724714D01*
X11994714Y-9724714D01*
X12023286Y-9739000D01*
X12037571Y-9767572D01*
X12037571Y-9924714D01*
X12623286Y-9610429D02*
X12366143Y-9996143D01*
X13009000Y-9624714D02*
X13037571Y-9624714D01*
X13066143Y-9639000D01*
X13080428Y-9653286D01*
X13094714Y-9681857D01*
X13109000Y-9739000D01*
X13109000Y-9810429D01*
X13094714Y-9867572D01*
X13080428Y-9896143D01*
X13066143Y-9910429D01*
X13037571Y-9924714D01*
X13009000Y-9924714D01*
X12980428Y-9910429D01*
X12966143Y-9896143D01*
X12951857Y-9867572D01*
X12937571Y-9810429D01*
X12937571Y-9739000D01*
X12951857Y-9681857D01*
X12966143Y-9653286D01*
X12980428Y-9639000D01*
X13009000Y-9624714D01*
X13237571Y-9896143D02*
X13251857Y-9910429D01*
X13237571Y-9924714D01*
X13223286Y-9910429D01*
X13237571Y-9896143D01*
X13237571Y-9924714D01*
X13437571Y-9624714D02*
X13466143Y-9624714D01*
X13494714Y-9639000D01*
X13509000Y-9653286D01*
X13523286Y-9681857D01*
X13537571Y-9739000D01*
X13537571Y-9810429D01*
X13523286Y-9867572D01*
X13509000Y-9896143D01*
X13494714Y-9910429D01*
X13466143Y-9924714D01*
X13437571Y-9924714D01*
X13409000Y-9910429D01*
X13394714Y-9896143D01*
X13380428Y-9867572D01*
X13366143Y-9810429D01*
X13366143Y-9739000D01*
X13380428Y-9681857D01*
X13394714Y-9653286D01*
X13409000Y-9639000D01*
X13437571Y-9624714D01*
X13823286Y-9924714D02*
X13651857Y-9924714D01*
X13737571Y-9924714D02*
X13737571Y-9624714D01*
X13709000Y-9667572D01*
X13680428Y-9696143D01*
X13651857Y-9710429D01*
X14080428Y-9624714D02*
X14023286Y-9624714D01*
X13994714Y-9639000D01*
X13980428Y-9653286D01*
X13951857Y-9696143D01*
X13937571Y-9753286D01*
X13937571Y-9867572D01*
X13951857Y-9896143D01*
X13966143Y-9910429D01*
X13994714Y-9924714D01*
X14051857Y-9924714D01*
X14080428Y-9910429D01*
X14094714Y-9896143D01*
X14109000Y-9867572D01*
X14109000Y-9796143D01*
X14094714Y-9767572D01*
X14080428Y-9753286D01*
X14051857Y-9739000D01*
X13994714Y-9739000D01*
X13966143Y-9753286D01*
X13951857Y-9767572D01*
X13937571Y-9796143D01*
X14223286Y-9624714D02*
X14223286Y-9681857D01*
X14337571Y-9624714D02*
X14337571Y-9681857D01*
X14780428Y-10039000D02*
X14766143Y-10024714D01*
X14737571Y-9981857D01*
X14723286Y-9953286D01*
X14709000Y-9910429D01*
X14694714Y-9839000D01*
X14694714Y-9781857D01*
X14709000Y-9710429D01*
X14723286Y-9667572D01*
X14737571Y-9639000D01*
X14766143Y-9596143D01*
X14780428Y-9581857D01*
X15037571Y-9624714D02*
X14894714Y-9624714D01*
X14880428Y-9767572D01*
X14894714Y-9753286D01*
X14923286Y-9739000D01*
X14994714Y-9739000D01*
X15023286Y-9753286D01*
X15037571Y-9767572D01*
X15051857Y-9796143D01*
X15051857Y-9867572D01*
X15037571Y-9896143D01*
X15023286Y-9910429D01*
X14994714Y-9924714D01*
X14923286Y-9924714D01*
X14894714Y-9910429D01*
X14880428Y-9896143D01*
X15237571Y-9624714D02*
X15266143Y-9624714D01*
X15294714Y-9639000D01*
X15309000Y-9653286D01*
X15323286Y-9681857D01*
X15337571Y-9739000D01*
X15337571Y-9810429D01*
X15323286Y-9867572D01*
X15309000Y-9896143D01*
X15294714Y-9910429D01*
X15266143Y-9924714D01*
X15237571Y-9924714D01*
X15209000Y-9910429D01*
X15194714Y-9896143D01*
X15180428Y-9867572D01*
X15166143Y-9810429D01*
X15166143Y-9739000D01*
X15180428Y-9681857D01*
X15194714Y-9653286D01*
X15209000Y-9639000D01*
X15237571Y-9624714D01*
X15694714Y-9924714D02*
X15694714Y-9624714D01*
X15823286Y-9924714D02*
X15823286Y-9767572D01*
X15809000Y-9739000D01*
X15780428Y-9724714D01*
X15737571Y-9724714D01*
X15709000Y-9739000D01*
X15694714Y-9753286D01*
X16009000Y-9924714D02*
X15980428Y-9910429D01*
X15966143Y-9896143D01*
X15951857Y-9867572D01*
X15951857Y-9781857D01*
X15966143Y-9753286D01*
X15980428Y-9739000D01*
X16009000Y-9724714D01*
X16051857Y-9724714D01*
X16080428Y-9739000D01*
X16094714Y-9753286D01*
X16109000Y-9781857D01*
X16109000Y-9867572D01*
X16094714Y-9896143D01*
X16080428Y-9910429D01*
X16051857Y-9924714D01*
X16009000Y-9924714D01*
X16280428Y-9924714D02*
X16251857Y-9910429D01*
X16237571Y-9881857D01*
X16237571Y-9624714D01*
X16509000Y-9910429D02*
X16480428Y-9924714D01*
X16423286Y-9924714D01*
X16394714Y-9910429D01*
X16380428Y-9881857D01*
X16380428Y-9767572D01*
X16394714Y-9739000D01*
X16423286Y-9724714D01*
X16480428Y-9724714D01*
X16509000Y-9739000D01*
X16523286Y-9767572D01*
X16523286Y-9796143D01*
X16380428Y-9824714D01*
X16637571Y-9910429D02*
X16666143Y-9924714D01*
X16723286Y-9924714D01*
X16751857Y-9910429D01*
X16766143Y-9881857D01*
X16766143Y-9867572D01*
X16751857Y-9839000D01*
X16723286Y-9824714D01*
X16680428Y-9824714D01*
X16651857Y-9810429D01*
X16637571Y-9781857D01*
X16637571Y-9767572D01*
X16651857Y-9739000D01*
X16680428Y-9724714D01*
X16723286Y-9724714D01*
X16751857Y-9739000D01*
X16866143Y-10039000D02*
X16880428Y-10024714D01*
X16909000Y-9981857D01*
X16923286Y-9953286D01*
X16937571Y-9910429D01*
X16951857Y-9839000D01*
X16951857Y-9781857D01*
X16937571Y-9710429D01*
X16923286Y-9667572D01*
X16909000Y-9639000D01*
X16880428Y-9596143D01*
X16866143Y-9581857D01*
X10094000Y-10185000D02*
G75*
G03*
X10094000Y-10185000I-30000J0D01*
G01*
X10437571Y-10020714D02*
X10466143Y-10020714D01*
X10494714Y-10035000D01*
X10509000Y-10049286D01*
X10523286Y-10077857D01*
X10537571Y-10135000D01*
X10537571Y-10206429D01*
X10523286Y-10263572D01*
X10509000Y-10292143D01*
X10494714Y-10306429D01*
X10466143Y-10320714D01*
X10437571Y-10320714D01*
X10409000Y-10306429D01*
X10394714Y-10292143D01*
X10380428Y-10263572D01*
X10366143Y-10206429D01*
X10366143Y-10135000D01*
X10380428Y-10077857D01*
X10394714Y-10049286D01*
X10409000Y-10035000D01*
X10437571Y-10020714D01*
X10666143Y-10292143D02*
X10680428Y-10306429D01*
X10666143Y-10320714D01*
X10651857Y-10306429D01*
X10666143Y-10292143D01*
X10666143Y-10320714D01*
X10937571Y-10020714D02*
X10880428Y-10020714D01*
X10851857Y-10035000D01*
X10837571Y-10049286D01*
X10809000Y-10092143D01*
X10794714Y-10149286D01*
X10794714Y-10263572D01*
X10809000Y-10292143D01*
X10823286Y-10306429D01*
X10851857Y-10320714D01*
X10909000Y-10320714D01*
X10937571Y-10306429D01*
X10951857Y-10292143D01*
X10966143Y-10263572D01*
X10966143Y-10192143D01*
X10951857Y-10163572D01*
X10937571Y-10149286D01*
X10909000Y-10135000D01*
X10851857Y-10135000D01*
X10823286Y-10149286D01*
X10809000Y-10163572D01*
X10794714Y-10192143D01*
X11151857Y-10020714D02*
X11180428Y-10020714D01*
X11209000Y-10035000D01*
X11223286Y-10049286D01*
X11237571Y-10077857D01*
X11251857Y-10135000D01*
X11251857Y-10206429D01*
X11237571Y-10263572D01*
X11223286Y-10292143D01*
X11209000Y-10306429D01*
X11180428Y-10320714D01*
X11151857Y-10320714D01*
X11123286Y-10306429D01*
X11109000Y-10292143D01*
X11094714Y-10263572D01*
X11080428Y-10206429D01*
X11080428Y-10135000D01*
X11094714Y-10077857D01*
X11109000Y-10049286D01*
X11123286Y-10035000D01*
X11151857Y-10020714D01*
X11380428Y-10320714D02*
X11380428Y-10120714D01*
X11380428Y-10149286D02*
X11394714Y-10135000D01*
X11423286Y-10120714D01*
X11466143Y-10120714D01*
X11494714Y-10135000D01*
X11509000Y-10163572D01*
X11509000Y-10320714D01*
X11509000Y-10163572D02*
X11523286Y-10135000D01*
X11551857Y-10120714D01*
X11594714Y-10120714D01*
X11623286Y-10135000D01*
X11637571Y-10163572D01*
X11637571Y-10320714D01*
X11780428Y-10320714D02*
X11780428Y-10120714D01*
X11780428Y-10149286D02*
X11794714Y-10135000D01*
X11823286Y-10120714D01*
X11866143Y-10120714D01*
X11894714Y-10135000D01*
X11909000Y-10163572D01*
X11909000Y-10320714D01*
X11909000Y-10163572D02*
X11923286Y-10135000D01*
X11951857Y-10120714D01*
X11994714Y-10120714D01*
X12023286Y-10135000D01*
X12037571Y-10163572D01*
X12037571Y-10320714D01*
X12623286Y-10006429D02*
X12366143Y-10392143D01*
X13009000Y-10020714D02*
X13037571Y-10020714D01*
X13066143Y-10035000D01*
X13080428Y-10049286D01*
X13094714Y-10077857D01*
X13109000Y-10135000D01*
X13109000Y-10206429D01*
X13094714Y-10263572D01*
X13080428Y-10292143D01*
X13066143Y-10306429D01*
X13037571Y-10320714D01*
X13009000Y-10320714D01*
X12980428Y-10306429D01*
X12966143Y-10292143D01*
X12951857Y-10263572D01*
X12937571Y-10206429D01*
X12937571Y-10135000D01*
X12951857Y-10077857D01*
X12966143Y-10049286D01*
X12980428Y-10035000D01*
X13009000Y-10020714D01*
X13237571Y-10292143D02*
X13251857Y-10306429D01*
X13237571Y-10320714D01*
X13223286Y-10306429D01*
X13237571Y-10292143D01*
X13237571Y-10320714D01*
X13437571Y-10020714D02*
X13466143Y-10020714D01*
X13494714Y-10035000D01*
X13509000Y-10049286D01*
X13523286Y-10077857D01*
X13537571Y-10135000D01*
X13537571Y-10206429D01*
X13523286Y-10263572D01*
X13509000Y-10292143D01*
X13494714Y-10306429D01*
X13466143Y-10320714D01*
X13437571Y-10320714D01*
X13409000Y-10306429D01*
X13394714Y-10292143D01*
X13380428Y-10263572D01*
X13366143Y-10206429D01*
X13366143Y-10135000D01*
X13380428Y-10077857D01*
X13394714Y-10049286D01*
X13409000Y-10035000D01*
X13437571Y-10020714D01*
X13651857Y-10049286D02*
X13666143Y-10035000D01*
X13694714Y-10020714D01*
X13766143Y-10020714D01*
X13794714Y-10035000D01*
X13809000Y-10049286D01*
X13823286Y-10077857D01*
X13823286Y-10106429D01*
X13809000Y-10149286D01*
X13637571Y-10320714D01*
X13823286Y-10320714D01*
X14080428Y-10120714D02*
X14080428Y-10320714D01*
X14009000Y-10006429D02*
X13937571Y-10220714D01*
X14123286Y-10220714D01*
X14223286Y-10020714D02*
X14223286Y-10077857D01*
X14337571Y-10020714D02*
X14337571Y-10077857D01*
X14780428Y-10435000D02*
X14766143Y-10420714D01*
X14737571Y-10377857D01*
X14723286Y-10349286D01*
X14709000Y-10306429D01*
X14694714Y-10235000D01*
X14694714Y-10177857D01*
X14709000Y-10106429D01*
X14723286Y-10063572D01*
X14737571Y-10035000D01*
X14766143Y-9992143D01*
X14780428Y-9977857D01*
X14951857Y-10020714D02*
X14980428Y-10020714D01*
X15009000Y-10035000D01*
X15023286Y-10049286D01*
X15037571Y-10077857D01*
X15051857Y-10135000D01*
X15051857Y-10206429D01*
X15037571Y-10263572D01*
X15023286Y-10292143D01*
X15009000Y-10306429D01*
X14980428Y-10320714D01*
X14951857Y-10320714D01*
X14923286Y-10306429D01*
X14909000Y-10292143D01*
X14894714Y-10263572D01*
X14880428Y-10206429D01*
X14880428Y-10135000D01*
X14894714Y-10077857D01*
X14909000Y-10049286D01*
X14923286Y-10035000D01*
X14951857Y-10020714D01*
X15409000Y-10320714D02*
X15409000Y-10020714D01*
X15537571Y-10320714D02*
X15537571Y-10163572D01*
X15523286Y-10135000D01*
X15494714Y-10120714D01*
X15451857Y-10120714D01*
X15423286Y-10135000D01*
X15409000Y-10149286D01*
X15723286Y-10320714D02*
X15694714Y-10306429D01*
X15680428Y-10292143D01*
X15666143Y-10263572D01*
X15666143Y-10177857D01*
X15680428Y-10149286D01*
X15694714Y-10135000D01*
X15723286Y-10120714D01*
X15766143Y-10120714D01*
X15794714Y-10135000D01*
X15809000Y-10149286D01*
X15823286Y-10177857D01*
X15823286Y-10263572D01*
X15809000Y-10292143D01*
X15794714Y-10306429D01*
X15766143Y-10320714D01*
X15723286Y-10320714D01*
X15994714Y-10320714D02*
X15966143Y-10306429D01*
X15951857Y-10277857D01*
X15951857Y-10020714D01*
X16223286Y-10306429D02*
X16194714Y-10320714D01*
X16137571Y-10320714D01*
X16109000Y-10306429D01*
X16094714Y-10277857D01*
X16094714Y-10163572D01*
X16109000Y-10135000D01*
X16137571Y-10120714D01*
X16194714Y-10120714D01*
X16223286Y-10135000D01*
X16237571Y-10163572D01*
X16237571Y-10192143D01*
X16094714Y-10220714D01*
X16351857Y-10306429D02*
X16380428Y-10320714D01*
X16437571Y-10320714D01*
X16466143Y-10306429D01*
X16480428Y-10277857D01*
X16480428Y-10263572D01*
X16466143Y-10235000D01*
X16437571Y-10220714D01*
X16394714Y-10220714D01*
X16366143Y-10206429D01*
X16351857Y-10177857D01*
X16351857Y-10163572D01*
X16366143Y-10135000D01*
X16394714Y-10120714D01*
X16437571Y-10120714D01*
X16466143Y-10135000D01*
X16837571Y-10206429D02*
X17066143Y-10206429D01*
X16951857Y-10320714D02*
X16951857Y-10092143D01*
X17566143Y-10120714D02*
X17566143Y-10320714D01*
X17494714Y-10006429D02*
X17423286Y-10220714D01*
X17609000Y-10220714D01*
X17937571Y-10306429D02*
X17966143Y-10320714D01*
X18023286Y-10320714D01*
X18051857Y-10306429D01*
X18066143Y-10277857D01*
X18066143Y-10263572D01*
X18051857Y-10235000D01*
X18023286Y-10220714D01*
X17980428Y-10220714D01*
X17951857Y-10206429D01*
X17937571Y-10177857D01*
X17937571Y-10163572D01*
X17951857Y-10135000D01*
X17980428Y-10120714D01*
X18023286Y-10120714D01*
X18051857Y-10135000D01*
X18237571Y-10320714D02*
X18209000Y-10306429D01*
X18194714Y-10277857D01*
X18194714Y-10020714D01*
X18394714Y-10320714D02*
X18366143Y-10306429D01*
X18351857Y-10292143D01*
X18337571Y-10263572D01*
X18337571Y-10177857D01*
X18351857Y-10149286D01*
X18366143Y-10135000D01*
X18394714Y-10120714D01*
X18437571Y-10120714D01*
X18466143Y-10135000D01*
X18480428Y-10149286D01*
X18494714Y-10177857D01*
X18494714Y-10263572D01*
X18480428Y-10292143D01*
X18466143Y-10306429D01*
X18437571Y-10320714D01*
X18394714Y-10320714D01*
X18580428Y-10120714D02*
X18694714Y-10120714D01*
X18623286Y-10020714D02*
X18623286Y-10277857D01*
X18637571Y-10306429D01*
X18666143Y-10320714D01*
X18694714Y-10320714D01*
X18780428Y-10306429D02*
X18809000Y-10320714D01*
X18866143Y-10320714D01*
X18894714Y-10306429D01*
X18909000Y-10277857D01*
X18909000Y-10263572D01*
X18894714Y-10235000D01*
X18866143Y-10220714D01*
X18823286Y-10220714D01*
X18794714Y-10206429D01*
X18780428Y-10177857D01*
X18780428Y-10163572D01*
X18794714Y-10135000D01*
X18823286Y-10120714D01*
X18866143Y-10120714D01*
X18894714Y-10135000D01*
X19009000Y-10435000D02*
X19023286Y-10420714D01*
X19051857Y-10377857D01*
X19066143Y-10349286D01*
X19080428Y-10306429D01*
X19094714Y-10235000D01*
X19094714Y-10177857D01*
X19080428Y-10106429D01*
X19066143Y-10063572D01*
X19051857Y-10035000D01*
X19023286Y-9992143D01*
X19009000Y-9977857D01*
X10061500Y-10548500D02*
X10061500Y-10613500D01*
X10029000Y-10581000D02*
X10094000Y-10581000D01*
X10437571Y-10416714D02*
X10466143Y-10416714D01*
X10494714Y-10431000D01*
X10509000Y-10445286D01*
X10523286Y-10473857D01*
X10537571Y-10531000D01*
X10537571Y-10602429D01*
X10523286Y-10659572D01*
X10509000Y-10688143D01*
X10494714Y-10702429D01*
X10466143Y-10716714D01*
X10437571Y-10716714D01*
X10409000Y-10702429D01*
X10394714Y-10688143D01*
X10380428Y-10659572D01*
X10366143Y-10602429D01*
X10366143Y-10531000D01*
X10380428Y-10473857D01*
X10394714Y-10445286D01*
X10409000Y-10431000D01*
X10437571Y-10416714D01*
X10666143Y-10688143D02*
X10680428Y-10702429D01*
X10666143Y-10716714D01*
X10651857Y-10702429D01*
X10666143Y-10688143D01*
X10666143Y-10716714D01*
X10937571Y-10416714D02*
X10880428Y-10416714D01*
X10851857Y-10431000D01*
X10837571Y-10445286D01*
X10809000Y-10488143D01*
X10794714Y-10545286D01*
X10794714Y-10659572D01*
X10809000Y-10688143D01*
X10823286Y-10702429D01*
X10851857Y-10716714D01*
X10909000Y-10716714D01*
X10937571Y-10702429D01*
X10951857Y-10688143D01*
X10966143Y-10659572D01*
X10966143Y-10588143D01*
X10951857Y-10559572D01*
X10937571Y-10545286D01*
X10909000Y-10531000D01*
X10851857Y-10531000D01*
X10823286Y-10545286D01*
X10809000Y-10559572D01*
X10794714Y-10588143D01*
X11237571Y-10416714D02*
X11094714Y-10416714D01*
X11080428Y-10559572D01*
X11094714Y-10545286D01*
X11123286Y-10531000D01*
X11194714Y-10531000D01*
X11223286Y-10545286D01*
X11237571Y-10559572D01*
X11251857Y-10588143D01*
X11251857Y-10659572D01*
X11237571Y-10688143D01*
X11223286Y-10702429D01*
X11194714Y-10716714D01*
X11123286Y-10716714D01*
X11094714Y-10702429D01*
X11080428Y-10688143D01*
X11380428Y-10716714D02*
X11380428Y-10516714D01*
X11380428Y-10545286D02*
X11394714Y-10531000D01*
X11423286Y-10516714D01*
X11466143Y-10516714D01*
X11494714Y-10531000D01*
X11509000Y-10559572D01*
X11509000Y-10716714D01*
X11509000Y-10559572D02*
X11523286Y-10531000D01*
X11551857Y-10516714D01*
X11594714Y-10516714D01*
X11623286Y-10531000D01*
X11637571Y-10559572D01*
X11637571Y-10716714D01*
X11780428Y-10716714D02*
X11780428Y-10516714D01*
X11780428Y-10545286D02*
X11794714Y-10531000D01*
X11823286Y-10516714D01*
X11866143Y-10516714D01*
X11894714Y-10531000D01*
X11909000Y-10559572D01*
X11909000Y-10716714D01*
X11909000Y-10559572D02*
X11923286Y-10531000D01*
X11951857Y-10516714D01*
X11994714Y-10516714D01*
X12023286Y-10531000D01*
X12037571Y-10559572D01*
X12037571Y-10716714D01*
X12623286Y-10402429D02*
X12366143Y-10788143D01*
X13009000Y-10416714D02*
X13037571Y-10416714D01*
X13066143Y-10431000D01*
X13080428Y-10445286D01*
X13094714Y-10473857D01*
X13109000Y-10531000D01*
X13109000Y-10602429D01*
X13094714Y-10659572D01*
X13080428Y-10688143D01*
X13066143Y-10702429D01*
X13037571Y-10716714D01*
X13009000Y-10716714D01*
X12980428Y-10702429D01*
X12966143Y-10688143D01*
X12951857Y-10659572D01*
X12937571Y-10602429D01*
X12937571Y-10531000D01*
X12951857Y-10473857D01*
X12966143Y-10445286D01*
X12980428Y-10431000D01*
X13009000Y-10416714D01*
X13237571Y-10688143D02*
X13251857Y-10702429D01*
X13237571Y-10716714D01*
X13223286Y-10702429D01*
X13237571Y-10688143D01*
X13237571Y-10716714D01*
X13437571Y-10416714D02*
X13466143Y-10416714D01*
X13494714Y-10431000D01*
X13509000Y-10445286D01*
X13523286Y-10473857D01*
X13537571Y-10531000D01*
X13537571Y-10602429D01*
X13523286Y-10659572D01*
X13509000Y-10688143D01*
X13494714Y-10702429D01*
X13466143Y-10716714D01*
X13437571Y-10716714D01*
X13409000Y-10702429D01*
X13394714Y-10688143D01*
X13380428Y-10659572D01*
X13366143Y-10602429D01*
X13366143Y-10531000D01*
X13380428Y-10473857D01*
X13394714Y-10445286D01*
X13409000Y-10431000D01*
X13437571Y-10416714D01*
X13651857Y-10445286D02*
X13666143Y-10431000D01*
X13694714Y-10416714D01*
X13766143Y-10416714D01*
X13794714Y-10431000D01*
X13809000Y-10445286D01*
X13823286Y-10473857D01*
X13823286Y-10502429D01*
X13809000Y-10545286D01*
X13637571Y-10716714D01*
X13823286Y-10716714D01*
X14080428Y-10416714D02*
X14023286Y-10416714D01*
X13994714Y-10431000D01*
X13980428Y-10445286D01*
X13951857Y-10488143D01*
X13937571Y-10545286D01*
X13937571Y-10659572D01*
X13951857Y-10688143D01*
X13966143Y-10702429D01*
X13994714Y-10716714D01*
X14051857Y-10716714D01*
X14080428Y-10702429D01*
X14094714Y-10688143D01*
X14109000Y-10659572D01*
X14109000Y-10588143D01*
X14094714Y-10559572D01*
X14080428Y-10545286D01*
X14051857Y-10531000D01*
X13994714Y-10531000D01*
X13966143Y-10545286D01*
X13951857Y-10559572D01*
X13937571Y-10588143D01*
X14223286Y-10416714D02*
X14223286Y-10473857D01*
X14337571Y-10416714D02*
X14337571Y-10473857D01*
X14780428Y-10831000D02*
X14766143Y-10816714D01*
X14737571Y-10773857D01*
X14723286Y-10745286D01*
X14709000Y-10702429D01*
X14694714Y-10631000D01*
X14694714Y-10573857D01*
X14709000Y-10502429D01*
X14723286Y-10459572D01*
X14737571Y-10431000D01*
X14766143Y-10388143D01*
X14780428Y-10373857D01*
X15051857Y-10716714D02*
X14880428Y-10716714D01*
X14966143Y-10716714D02*
X14966143Y-10416714D01*
X14937571Y-10459572D01*
X14909000Y-10488143D01*
X14880428Y-10502429D01*
X15237571Y-10416714D02*
X15266143Y-10416714D01*
X15294714Y-10431000D01*
X15309000Y-10445286D01*
X15323286Y-10473857D01*
X15337571Y-10531000D01*
X15337571Y-10602429D01*
X15323286Y-10659572D01*
X15309000Y-10688143D01*
X15294714Y-10702429D01*
X15266143Y-10716714D01*
X15237571Y-10716714D01*
X15209000Y-10702429D01*
X15194714Y-10688143D01*
X15180428Y-10659572D01*
X15166143Y-10602429D01*
X15166143Y-10531000D01*
X15180428Y-10473857D01*
X15194714Y-10445286D01*
X15209000Y-10431000D01*
X15237571Y-10416714D01*
X15694714Y-10716714D02*
X15694714Y-10416714D01*
X15823286Y-10716714D02*
X15823286Y-10559572D01*
X15809000Y-10531000D01*
X15780428Y-10516714D01*
X15737571Y-10516714D01*
X15709000Y-10531000D01*
X15694714Y-10545286D01*
X16009000Y-10716714D02*
X15980428Y-10702429D01*
X15966143Y-10688143D01*
X15951857Y-10659572D01*
X15951857Y-10573857D01*
X15966143Y-10545286D01*
X15980428Y-10531000D01*
X16009000Y-10516714D01*
X16051857Y-10516714D01*
X16080428Y-10531000D01*
X16094714Y-10545286D01*
X16109000Y-10573857D01*
X16109000Y-10659572D01*
X16094714Y-10688143D01*
X16080428Y-10702429D01*
X16051857Y-10716714D01*
X16009000Y-10716714D01*
X16280428Y-10716714D02*
X16251857Y-10702429D01*
X16237571Y-10673857D01*
X16237571Y-10416714D01*
X16509000Y-10702429D02*
X16480428Y-10716714D01*
X16423286Y-10716714D01*
X16394714Y-10702429D01*
X16380428Y-10673857D01*
X16380428Y-10559572D01*
X16394714Y-10531000D01*
X16423286Y-10516714D01*
X16480428Y-10516714D01*
X16509000Y-10531000D01*
X16523286Y-10559572D01*
X16523286Y-10588143D01*
X16380428Y-10616714D01*
X16637571Y-10702429D02*
X16666143Y-10716714D01*
X16723286Y-10716714D01*
X16751857Y-10702429D01*
X16766143Y-10673857D01*
X16766143Y-10659572D01*
X16751857Y-10631000D01*
X16723286Y-10616714D01*
X16680428Y-10616714D01*
X16651857Y-10602429D01*
X16637571Y-10573857D01*
X16637571Y-10559572D01*
X16651857Y-10531000D01*
X16680428Y-10516714D01*
X16723286Y-10516714D01*
X16751857Y-10531000D01*
X16866143Y-10831000D02*
X16880428Y-10816714D01*
X16909000Y-10773857D01*
X16923286Y-10745286D01*
X16937571Y-10702429D01*
X16951857Y-10631000D01*
X16951857Y-10573857D01*
X16937571Y-10502429D01*
X16923286Y-10459572D01*
X16909000Y-10431000D01*
X16880428Y-10388143D01*
X16866143Y-10373857D01*
X10079356Y-11012356D02*
X10079356Y-10941644D01*
X10008644Y-10941644D01*
X10008644Y-11012356D01*
X10079356Y-11012356D01*
X10537571Y-11112714D02*
X10366143Y-11112714D01*
X10451857Y-11112714D02*
X10451857Y-10812714D01*
X10423286Y-10855572D01*
X10394714Y-10884143D01*
X10366143Y-10898429D01*
X10666143Y-11084143D02*
X10680428Y-11098429D01*
X10666143Y-11112714D01*
X10651857Y-11098429D01*
X10666143Y-11084143D01*
X10666143Y-11112714D01*
X10866143Y-10812714D02*
X10894714Y-10812714D01*
X10923286Y-10827000D01*
X10937571Y-10841286D01*
X10951857Y-10869857D01*
X10966143Y-10927000D01*
X10966143Y-10998429D01*
X10951857Y-11055572D01*
X10937571Y-11084143D01*
X10923286Y-11098429D01*
X10894714Y-11112714D01*
X10866143Y-11112714D01*
X10837571Y-11098429D01*
X10823286Y-11084143D01*
X10809000Y-11055572D01*
X10794714Y-10998429D01*
X10794714Y-10927000D01*
X10809000Y-10869857D01*
X10823286Y-10841286D01*
X10837571Y-10827000D01*
X10866143Y-10812714D01*
X11151857Y-10812714D02*
X11180428Y-10812714D01*
X11209000Y-10827000D01*
X11223286Y-10841286D01*
X11237571Y-10869857D01*
X11251857Y-10927000D01*
X11251857Y-10998429D01*
X11237571Y-11055572D01*
X11223286Y-11084143D01*
X11209000Y-11098429D01*
X11180428Y-11112714D01*
X11151857Y-11112714D01*
X11123286Y-11098429D01*
X11109000Y-11084143D01*
X11094714Y-11055572D01*
X11080428Y-10998429D01*
X11080428Y-10927000D01*
X11094714Y-10869857D01*
X11109000Y-10841286D01*
X11123286Y-10827000D01*
X11151857Y-10812714D01*
X11380428Y-11112714D02*
X11380428Y-10912714D01*
X11380428Y-10941286D02*
X11394714Y-10927000D01*
X11423286Y-10912714D01*
X11466143Y-10912714D01*
X11494714Y-10927000D01*
X11509000Y-10955572D01*
X11509000Y-11112714D01*
X11509000Y-10955572D02*
X11523286Y-10927000D01*
X11551857Y-10912714D01*
X11594714Y-10912714D01*
X11623286Y-10927000D01*
X11637571Y-10955572D01*
X11637571Y-11112714D01*
X11780428Y-11112714D02*
X11780428Y-10912714D01*
X11780428Y-10941286D02*
X11794714Y-10927000D01*
X11823286Y-10912714D01*
X11866143Y-10912714D01*
X11894714Y-10927000D01*
X11909000Y-10955572D01*
X11909000Y-11112714D01*
X11909000Y-10955572D02*
X11923286Y-10927000D01*
X11951857Y-10912714D01*
X11994714Y-10912714D01*
X12023286Y-10927000D01*
X12037571Y-10955572D01*
X12037571Y-11112714D01*
X12623286Y-10798429D02*
X12366143Y-11184143D01*
X13009000Y-10812714D02*
X13037571Y-10812714D01*
X13066143Y-10827000D01*
X13080428Y-10841286D01*
X13094714Y-10869857D01*
X13109000Y-10927000D01*
X13109000Y-10998429D01*
X13094714Y-11055572D01*
X13080428Y-11084143D01*
X13066143Y-11098429D01*
X13037571Y-11112714D01*
X13009000Y-11112714D01*
X12980428Y-11098429D01*
X12966143Y-11084143D01*
X12951857Y-11055572D01*
X12937571Y-10998429D01*
X12937571Y-10927000D01*
X12951857Y-10869857D01*
X12966143Y-10841286D01*
X12980428Y-10827000D01*
X13009000Y-10812714D01*
X13237571Y-11084143D02*
X13251857Y-11098429D01*
X13237571Y-11112714D01*
X13223286Y-11098429D01*
X13237571Y-11084143D01*
X13237571Y-11112714D01*
X13437571Y-10812714D02*
X13466143Y-10812714D01*
X13494714Y-10827000D01*
X13509000Y-10841286D01*
X13523286Y-10869857D01*
X13537571Y-10927000D01*
X13537571Y-10998429D01*
X13523286Y-11055572D01*
X13509000Y-11084143D01*
X13494714Y-11098429D01*
X13466143Y-11112714D01*
X13437571Y-11112714D01*
X13409000Y-11098429D01*
X13394714Y-11084143D01*
X13380428Y-11055572D01*
X13366143Y-10998429D01*
X13366143Y-10927000D01*
X13380428Y-10869857D01*
X13394714Y-10841286D01*
X13409000Y-10827000D01*
X13437571Y-10812714D01*
X13637571Y-10812714D02*
X13823286Y-10812714D01*
X13723286Y-10927000D01*
X13766143Y-10927000D01*
X13794714Y-10941286D01*
X13809000Y-10955572D01*
X13823286Y-10984143D01*
X13823286Y-11055572D01*
X13809000Y-11084143D01*
X13794714Y-11098429D01*
X13766143Y-11112714D01*
X13680428Y-11112714D01*
X13651857Y-11098429D01*
X13637571Y-11084143D01*
X13966143Y-11112714D02*
X14023286Y-11112714D01*
X14051857Y-11098429D01*
X14066143Y-11084143D01*
X14094714Y-11041286D01*
X14109000Y-10984143D01*
X14109000Y-10869857D01*
X14094714Y-10841286D01*
X14080428Y-10827000D01*
X14051857Y-10812714D01*
X13994714Y-10812714D01*
X13966143Y-10827000D01*
X13951857Y-10841286D01*
X13937571Y-10869857D01*
X13937571Y-10941286D01*
X13951857Y-10969857D01*
X13966143Y-10984143D01*
X13994714Y-10998429D01*
X14051857Y-10998429D01*
X14080428Y-10984143D01*
X14094714Y-10969857D01*
X14109000Y-10941286D01*
X14223286Y-10812714D02*
X14223286Y-10869857D01*
X14337571Y-10812714D02*
X14337571Y-10869857D01*
X14780428Y-11227000D02*
X14766143Y-11212714D01*
X14737571Y-11169857D01*
X14723286Y-11141286D01*
X14709000Y-11098429D01*
X14694714Y-11027000D01*
X14694714Y-10969857D01*
X14709000Y-10898429D01*
X14723286Y-10855572D01*
X14737571Y-10827000D01*
X14766143Y-10784143D01*
X14780428Y-10769857D01*
X15023286Y-10912714D02*
X15023286Y-11112714D01*
X14951857Y-10798429D02*
X14880428Y-11012714D01*
X15066143Y-11012714D01*
X15237571Y-10812714D02*
X15266143Y-10812714D01*
X15294714Y-10827000D01*
X15309000Y-10841286D01*
X15323286Y-10869857D01*
X15337571Y-10927000D01*
X15337571Y-10998429D01*
X15323286Y-11055572D01*
X15309000Y-11084143D01*
X15294714Y-11098429D01*
X15266143Y-11112714D01*
X15237571Y-11112714D01*
X15209000Y-11098429D01*
X15194714Y-11084143D01*
X15180428Y-11055572D01*
X15166143Y-10998429D01*
X15166143Y-10927000D01*
X15180428Y-10869857D01*
X15194714Y-10841286D01*
X15209000Y-10827000D01*
X15237571Y-10812714D01*
X15694714Y-11112714D02*
X15694714Y-10812714D01*
X15823286Y-11112714D02*
X15823286Y-10955572D01*
X15809000Y-10927000D01*
X15780428Y-10912714D01*
X15737571Y-10912714D01*
X15709000Y-10927000D01*
X15694714Y-10941286D01*
X16009000Y-11112714D02*
X15980428Y-11098429D01*
X15966143Y-11084143D01*
X15951857Y-11055572D01*
X15951857Y-10969857D01*
X15966143Y-10941286D01*
X15980428Y-10927000D01*
X16009000Y-10912714D01*
X16051857Y-10912714D01*
X16080428Y-10927000D01*
X16094714Y-10941286D01*
X16109000Y-10969857D01*
X16109000Y-11055572D01*
X16094714Y-11084143D01*
X16080428Y-11098429D01*
X16051857Y-11112714D01*
X16009000Y-11112714D01*
X16280428Y-11112714D02*
X16251857Y-11098429D01*
X16237571Y-11069857D01*
X16237571Y-10812714D01*
X16509000Y-11098429D02*
X16480428Y-11112714D01*
X16423286Y-11112714D01*
X16394714Y-11098429D01*
X16380428Y-11069857D01*
X16380428Y-10955572D01*
X16394714Y-10927000D01*
X16423286Y-10912714D01*
X16480428Y-10912714D01*
X16509000Y-10927000D01*
X16523286Y-10955572D01*
X16523286Y-10984143D01*
X16380428Y-11012714D01*
X16637571Y-11098429D02*
X16666143Y-11112714D01*
X16723286Y-11112714D01*
X16751857Y-11098429D01*
X16766143Y-11069857D01*
X16766143Y-11055572D01*
X16751857Y-11027000D01*
X16723286Y-11012714D01*
X16680428Y-11012714D01*
X16651857Y-10998429D01*
X16637571Y-10969857D01*
X16637571Y-10955572D01*
X16651857Y-10927000D01*
X16680428Y-10912714D01*
X16723286Y-10912714D01*
X16751857Y-10927000D01*
X16866143Y-11227000D02*
X16880428Y-11212714D01*
X16909000Y-11169857D01*
X16923286Y-11141286D01*
X16937571Y-11098429D01*
X16951857Y-11027000D01*
X16951857Y-10969857D01*
X16937571Y-10898429D01*
X16923286Y-10855572D01*
X16909000Y-10827000D01*
X16880428Y-10784143D01*
X16866143Y-10769857D01*
M02*
