%TF.GenerationSoftware,KiCad,Pcbnew,5.1.9+dfsg1-1*%
%TF.CreationDate,2022-01-14T18:54:08-05:00*%
%TF.ProjectId,samd51j18a,73616d64-3531-46a3-9138-612e6b696361,rev?*%
%TF.SameCoordinates,Original*%
%TF.FileFunction,Copper,L1,Top*%
%TF.FilePolarity,Positive*%
%FSLAX46Y46*%
G04 Gerber Fmt 4.6, Leading zero omitted, Abs format (unit mm)*
G04 Created by KiCad (PCBNEW 5.1.9+dfsg1-1) date 2022-01-14 18:54:08*
%MOMM*%
%LPD*%
G01*
G04 APERTURE LIST*
%TA.AperFunction,ComponentPad*%
%ADD10O,1.700000X1.700000*%
%TD*%
%TA.AperFunction,ComponentPad*%
%ADD11R,1.700000X1.700000*%
%TD*%
%TA.AperFunction,SMDPad,CuDef*%
%ADD12R,1.150000X0.300000*%
%TD*%
%TA.AperFunction,SMDPad,CuDef*%
%ADD13R,1.086500X0.300000*%
%TD*%
%TA.AperFunction,ComponentPad*%
%ADD14O,1.800000X1.000000*%
%TD*%
%TA.AperFunction,ComponentPad*%
%ADD15O,2.100000X1.000000*%
%TD*%
%TA.AperFunction,ComponentPad*%
%ADD16O,1.000000X1.000000*%
%TD*%
%TA.AperFunction,ComponentPad*%
%ADD17R,1.000000X1.000000*%
%TD*%
%TA.AperFunction,SMDPad,CuDef*%
%ADD18R,1.800000X1.000000*%
%TD*%
%TA.AperFunction,SMDPad,CuDef*%
%ADD19R,1.060000X0.650000*%
%TD*%
%TA.AperFunction,SMDPad,CuDef*%
%ADD20R,1.600000X1.400000*%
%TD*%
%TA.AperFunction,ViaPad*%
%ADD21C,0.800000*%
%TD*%
%TA.AperFunction,Conductor*%
%ADD22C,0.250000*%
%TD*%
G04 APERTURE END LIST*
D10*
%TO.P,J4,20*%
%TO.N,PA19*%
X165100000Y-63500000D03*
%TO.P,J4,19*%
%TO.N,PB16*%
X162560000Y-63500000D03*
%TO.P,J4,18*%
%TO.N,PB17*%
X160020000Y-63500000D03*
%TO.P,J4,17*%
%TO.N,PA20*%
X157480000Y-63500000D03*
%TO.P,J4,16*%
%TO.N,PA21*%
X154940000Y-63500000D03*
%TO.P,J4,15*%
%TO.N,PA22*%
X152400000Y-63500000D03*
%TO.P,J4,14*%
%TO.N,PA23*%
X149860000Y-63500000D03*
%TO.P,J4,13*%
%TO.N,PB22*%
X147320000Y-63500000D03*
%TO.P,J4,12*%
%TO.N,PB23*%
X144780000Y-63500000D03*
%TO.P,J4,11*%
%TO.N,PA27*%
X142240000Y-63500000D03*
%TO.P,J4,10*%
%TO.N,PB30*%
X139700000Y-63500000D03*
%TO.P,J4,9*%
%TO.N,PB31*%
X137160000Y-63500000D03*
%TO.P,J4,8*%
%TO.N,PB00*%
X134620000Y-63500000D03*
%TO.P,J4,7*%
%TO.N,PB01*%
X132080000Y-63500000D03*
%TO.P,J4,6*%
%TO.N,PB02*%
X129540000Y-63500000D03*
%TO.P,J4,5*%
%TO.N,PB03*%
X127000000Y-63500000D03*
%TO.P,J4,4*%
%TO.N,PA02*%
X124460000Y-63500000D03*
%TO.P,J4,3*%
%TO.N,PA03*%
X121920000Y-63500000D03*
%TO.P,J4,2*%
%TO.N,PB04*%
X119380000Y-63500000D03*
D11*
%TO.P,J4,1*%
%TO.N,PB05*%
X116840000Y-63500000D03*
%TD*%
D10*
%TO.P,J1,20*%
%TO.N,+3V3*%
X165100000Y-86360000D03*
%TO.P,J1,19*%
%TO.N,GND*%
X162560000Y-86360000D03*
%TO.P,J1,18*%
%TO.N,PA18*%
X160020000Y-86360000D03*
%TO.P,J1,17*%
%TO.N,PA17*%
X157480000Y-86360000D03*
%TO.P,J1,16*%
%TO.N,PA16*%
X154940000Y-86360000D03*
%TO.P,J1,15*%
%TO.N,PA15*%
X152400000Y-86360000D03*
%TO.P,J1,14*%
%TO.N,PA14*%
X149860000Y-86360000D03*
%TO.P,J1,13*%
%TO.N,PA13*%
X147320000Y-86360000D03*
%TO.P,J1,12*%
%TO.N,PA12*%
X144780000Y-86360000D03*
%TO.P,J1,11*%
%TO.N,PB15*%
X142240000Y-86360000D03*
%TO.P,J1,10*%
%TO.N,PB14*%
X139700000Y-86360000D03*
%TO.P,J1,9*%
%TO.N,PB13*%
X137160000Y-86360000D03*
%TO.P,J1,8*%
%TO.N,PB12*%
X134620000Y-86360000D03*
%TO.P,J1,7*%
%TO.N,PA07*%
X132080000Y-86360000D03*
%TO.P,J1,6*%
%TO.N,PA05*%
X129540000Y-86360000D03*
%TO.P,J1,5*%
%TO.N,PA04*%
X127000000Y-86360000D03*
%TO.P,J1,4*%
%TO.N,PB09*%
X124460000Y-86360000D03*
%TO.P,J1,3*%
%TO.N,PB08*%
X121920000Y-86360000D03*
%TO.P,J1,2*%
%TO.N,PB07*%
X119380000Y-86360000D03*
D11*
%TO.P,J1,1*%
%TO.N,PB06*%
X116840000Y-86360000D03*
%TD*%
D12*
%TO.P,USB C,B1*%
%TO.N,GND*%
X107140000Y-78089500D03*
%TO.P,USB C,B4*%
%TO.N,VDD*%
X107140000Y-77289500D03*
D13*
%TO.P,USB C,B12*%
%TO.N,GND*%
X107171750Y-71689500D03*
D12*
%TO.P,USB C,B9*%
%TO.N,VDD*%
X107140000Y-72489500D03*
D14*
%TO.P,USB C,S1*%
%TO.N,GND*%
X102385000Y-79059500D03*
X102385000Y-70419500D03*
D15*
X106565000Y-70419500D03*
X106565000Y-79059500D03*
D12*
%TO.P,USB C,B5*%
%TO.N,Net-(J2-PadB5)*%
X107140000Y-76489500D03*
%TO.P,USB C,A8*%
%TO.N,Net-(J2-PadA8)*%
X107140000Y-75989500D03*
%TO.P,USB C,B6*%
%TO.N,D+*%
X107140000Y-75489500D03*
%TO.P,USB C,A7*%
%TO.N,D-*%
X107140000Y-74989500D03*
%TO.P,USB C,A6*%
%TO.N,D+*%
X107140000Y-74489500D03*
%TO.P,USB C,B7*%
%TO.N,D-*%
X107140000Y-73989500D03*
%TO.P,USB C,A5*%
%TO.N,Net-(J2-PadA5)*%
X107140000Y-73489500D03*
%TO.P,USB C,B8*%
%TO.N,Net-(J2-PadB8)*%
X107140000Y-72989500D03*
D13*
%TO.P,USB C,A12*%
%TO.N,GND*%
X107171750Y-77789500D03*
D12*
%TO.P,USB C,A9*%
%TO.N,VDD*%
X107140000Y-76989500D03*
%TO.P,USB C,A4*%
X107140000Y-72189500D03*
%TO.P,USB C,A1*%
%TO.N,GND*%
X107140000Y-71389500D03*
%TD*%
D16*
%TO.P,DEBUG,10*%
%TO.N,RESET*%
X155130500Y-77216000D03*
%TO.P,DEBUG,9*%
%TO.N,Net-(J5-Pad9)*%
X153860500Y-77216000D03*
%TO.P,DEBUG,8*%
%TO.N,Net-(J5-Pad8)*%
X155130500Y-75946000D03*
%TO.P,DEBUG,7*%
%TO.N,Net-(J5-Pad7)*%
X153860500Y-75946000D03*
%TO.P,DEBUG,6*%
%TO.N,Net-(J5-Pad6)*%
X155130500Y-74676000D03*
%TO.P,DEBUG,5*%
%TO.N,GND*%
X153860500Y-74676000D03*
%TO.P,DEBUG,4*%
%TO.N,SWCLK*%
X155130500Y-73406000D03*
%TO.P,DEBUG,3*%
%TO.N,GND*%
X153860500Y-73406000D03*
%TO.P,DEBUG,2*%
%TO.N,SWDIO*%
X155130500Y-72136000D03*
D17*
%TO.P,DEBUG,1*%
%TO.N,+3V3*%
X153860500Y-72136000D03*
%TD*%
D18*
%TO.P,Y1,2*%
%TO.N,XOUT32*%
X131127500Y-70719000D03*
%TO.P,Y1,1*%
%TO.N,XIN32*%
X131127500Y-68219000D03*
%TD*%
D19*
%TO.P,U2,5*%
%TO.N,+3V3*%
X120289500Y-69598500D03*
%TO.P,U2,4*%
%TO.N,Net-(U2-Pad4)*%
X120289500Y-71498500D03*
%TO.P,U2,3*%
%TO.N,Net-(R3-Pad1)*%
X118089500Y-71498500D03*
%TO.P,U2,2*%
%TO.N,GND*%
X118089500Y-70548500D03*
%TO.P,U2,1*%
%TO.N,VDD*%
X118089500Y-69598500D03*
%TD*%
%TO.P,U1,64*%
%TO.N,PB03*%
%TA.AperFunction,SMDPad,CuDef*%
G36*
G01*
X136308000Y-69866500D02*
X136308000Y-68541500D01*
G75*
G02*
X136383000Y-68466500I75000J0D01*
G01*
X136533000Y-68466500D01*
G75*
G02*
X136608000Y-68541500I0J-75000D01*
G01*
X136608000Y-69866500D01*
G75*
G02*
X136533000Y-69941500I-75000J0D01*
G01*
X136383000Y-69941500D01*
G75*
G02*
X136308000Y-69866500I0J75000D01*
G01*
G37*
%TD.AperFunction*%
%TO.P,U1,63*%
%TO.N,PB02*%
%TA.AperFunction,SMDPad,CuDef*%
G36*
G01*
X136808000Y-69866500D02*
X136808000Y-68541500D01*
G75*
G02*
X136883000Y-68466500I75000J0D01*
G01*
X137033000Y-68466500D01*
G75*
G02*
X137108000Y-68541500I0J-75000D01*
G01*
X137108000Y-69866500D01*
G75*
G02*
X137033000Y-69941500I-75000J0D01*
G01*
X136883000Y-69941500D01*
G75*
G02*
X136808000Y-69866500I0J75000D01*
G01*
G37*
%TD.AperFunction*%
%TO.P,U1,62*%
%TO.N,PB01*%
%TA.AperFunction,SMDPad,CuDef*%
G36*
G01*
X137308000Y-69866500D02*
X137308000Y-68541500D01*
G75*
G02*
X137383000Y-68466500I75000J0D01*
G01*
X137533000Y-68466500D01*
G75*
G02*
X137608000Y-68541500I0J-75000D01*
G01*
X137608000Y-69866500D01*
G75*
G02*
X137533000Y-69941500I-75000J0D01*
G01*
X137383000Y-69941500D01*
G75*
G02*
X137308000Y-69866500I0J75000D01*
G01*
G37*
%TD.AperFunction*%
%TO.P,U1,61*%
%TO.N,PB00*%
%TA.AperFunction,SMDPad,CuDef*%
G36*
G01*
X137808000Y-69866500D02*
X137808000Y-68541500D01*
G75*
G02*
X137883000Y-68466500I75000J0D01*
G01*
X138033000Y-68466500D01*
G75*
G02*
X138108000Y-68541500I0J-75000D01*
G01*
X138108000Y-69866500D01*
G75*
G02*
X138033000Y-69941500I-75000J0D01*
G01*
X137883000Y-69941500D01*
G75*
G02*
X137808000Y-69866500I0J75000D01*
G01*
G37*
%TD.AperFunction*%
%TO.P,U1,60*%
%TO.N,PB31*%
%TA.AperFunction,SMDPad,CuDef*%
G36*
G01*
X138308000Y-69866500D02*
X138308000Y-68541500D01*
G75*
G02*
X138383000Y-68466500I75000J0D01*
G01*
X138533000Y-68466500D01*
G75*
G02*
X138608000Y-68541500I0J-75000D01*
G01*
X138608000Y-69866500D01*
G75*
G02*
X138533000Y-69941500I-75000J0D01*
G01*
X138383000Y-69941500D01*
G75*
G02*
X138308000Y-69866500I0J75000D01*
G01*
G37*
%TD.AperFunction*%
%TO.P,U1,59*%
%TO.N,PB30*%
%TA.AperFunction,SMDPad,CuDef*%
G36*
G01*
X138808000Y-69866500D02*
X138808000Y-68541500D01*
G75*
G02*
X138883000Y-68466500I75000J0D01*
G01*
X139033000Y-68466500D01*
G75*
G02*
X139108000Y-68541500I0J-75000D01*
G01*
X139108000Y-69866500D01*
G75*
G02*
X139033000Y-69941500I-75000J0D01*
G01*
X138883000Y-69941500D01*
G75*
G02*
X138808000Y-69866500I0J75000D01*
G01*
G37*
%TD.AperFunction*%
%TO.P,U1,58*%
%TO.N,SWDIO*%
%TA.AperFunction,SMDPad,CuDef*%
G36*
G01*
X139308000Y-69866500D02*
X139308000Y-68541500D01*
G75*
G02*
X139383000Y-68466500I75000J0D01*
G01*
X139533000Y-68466500D01*
G75*
G02*
X139608000Y-68541500I0J-75000D01*
G01*
X139608000Y-69866500D01*
G75*
G02*
X139533000Y-69941500I-75000J0D01*
G01*
X139383000Y-69941500D01*
G75*
G02*
X139308000Y-69866500I0J75000D01*
G01*
G37*
%TD.AperFunction*%
%TO.P,U1,57*%
%TO.N,SWCLK*%
%TA.AperFunction,SMDPad,CuDef*%
G36*
G01*
X139808000Y-69866500D02*
X139808000Y-68541500D01*
G75*
G02*
X139883000Y-68466500I75000J0D01*
G01*
X140033000Y-68466500D01*
G75*
G02*
X140108000Y-68541500I0J-75000D01*
G01*
X140108000Y-69866500D01*
G75*
G02*
X140033000Y-69941500I-75000J0D01*
G01*
X139883000Y-69941500D01*
G75*
G02*
X139808000Y-69866500I0J75000D01*
G01*
G37*
%TD.AperFunction*%
%TO.P,U1,56*%
%TO.N,+3V3*%
%TA.AperFunction,SMDPad,CuDef*%
G36*
G01*
X140308000Y-69866500D02*
X140308000Y-68541500D01*
G75*
G02*
X140383000Y-68466500I75000J0D01*
G01*
X140533000Y-68466500D01*
G75*
G02*
X140608000Y-68541500I0J-75000D01*
G01*
X140608000Y-69866500D01*
G75*
G02*
X140533000Y-69941500I-75000J0D01*
G01*
X140383000Y-69941500D01*
G75*
G02*
X140308000Y-69866500I0J75000D01*
G01*
G37*
%TD.AperFunction*%
%TO.P,U1,55*%
%TO.N,Net-(U1-Pad55)*%
%TA.AperFunction,SMDPad,CuDef*%
G36*
G01*
X140808000Y-69866500D02*
X140808000Y-68541500D01*
G75*
G02*
X140883000Y-68466500I75000J0D01*
G01*
X141033000Y-68466500D01*
G75*
G02*
X141108000Y-68541500I0J-75000D01*
G01*
X141108000Y-69866500D01*
G75*
G02*
X141033000Y-69941500I-75000J0D01*
G01*
X140883000Y-69941500D01*
G75*
G02*
X140808000Y-69866500I0J75000D01*
G01*
G37*
%TD.AperFunction*%
%TO.P,U1,54*%
%TO.N,GND*%
%TA.AperFunction,SMDPad,CuDef*%
G36*
G01*
X141308000Y-69866500D02*
X141308000Y-68541500D01*
G75*
G02*
X141383000Y-68466500I75000J0D01*
G01*
X141533000Y-68466500D01*
G75*
G02*
X141608000Y-68541500I0J-75000D01*
G01*
X141608000Y-69866500D01*
G75*
G02*
X141533000Y-69941500I-75000J0D01*
G01*
X141383000Y-69941500D01*
G75*
G02*
X141308000Y-69866500I0J75000D01*
G01*
G37*
%TD.AperFunction*%
%TO.P,U1,53*%
%TO.N,VCC*%
%TA.AperFunction,SMDPad,CuDef*%
G36*
G01*
X141808000Y-69866500D02*
X141808000Y-68541500D01*
G75*
G02*
X141883000Y-68466500I75000J0D01*
G01*
X142033000Y-68466500D01*
G75*
G02*
X142108000Y-68541500I0J-75000D01*
G01*
X142108000Y-69866500D01*
G75*
G02*
X142033000Y-69941500I-75000J0D01*
G01*
X141883000Y-69941500D01*
G75*
G02*
X141808000Y-69866500I0J75000D01*
G01*
G37*
%TD.AperFunction*%
%TO.P,U1,52*%
%TO.N,RESET*%
%TA.AperFunction,SMDPad,CuDef*%
G36*
G01*
X142308000Y-69866500D02*
X142308000Y-68541500D01*
G75*
G02*
X142383000Y-68466500I75000J0D01*
G01*
X142533000Y-68466500D01*
G75*
G02*
X142608000Y-68541500I0J-75000D01*
G01*
X142608000Y-69866500D01*
G75*
G02*
X142533000Y-69941500I-75000J0D01*
G01*
X142383000Y-69941500D01*
G75*
G02*
X142308000Y-69866500I0J75000D01*
G01*
G37*
%TD.AperFunction*%
%TO.P,U1,51*%
%TO.N,PA27*%
%TA.AperFunction,SMDPad,CuDef*%
G36*
G01*
X142808000Y-69866500D02*
X142808000Y-68541500D01*
G75*
G02*
X142883000Y-68466500I75000J0D01*
G01*
X143033000Y-68466500D01*
G75*
G02*
X143108000Y-68541500I0J-75000D01*
G01*
X143108000Y-69866500D01*
G75*
G02*
X143033000Y-69941500I-75000J0D01*
G01*
X142883000Y-69941500D01*
G75*
G02*
X142808000Y-69866500I0J75000D01*
G01*
G37*
%TD.AperFunction*%
%TO.P,U1,50*%
%TO.N,PB23*%
%TA.AperFunction,SMDPad,CuDef*%
G36*
G01*
X143308000Y-69866500D02*
X143308000Y-68541500D01*
G75*
G02*
X143383000Y-68466500I75000J0D01*
G01*
X143533000Y-68466500D01*
G75*
G02*
X143608000Y-68541500I0J-75000D01*
G01*
X143608000Y-69866500D01*
G75*
G02*
X143533000Y-69941500I-75000J0D01*
G01*
X143383000Y-69941500D01*
G75*
G02*
X143308000Y-69866500I0J75000D01*
G01*
G37*
%TD.AperFunction*%
%TO.P,U1,49*%
%TO.N,PB22*%
%TA.AperFunction,SMDPad,CuDef*%
G36*
G01*
X143808000Y-69866500D02*
X143808000Y-68541500D01*
G75*
G02*
X143883000Y-68466500I75000J0D01*
G01*
X144033000Y-68466500D01*
G75*
G02*
X144108000Y-68541500I0J-75000D01*
G01*
X144108000Y-69866500D01*
G75*
G02*
X144033000Y-69941500I-75000J0D01*
G01*
X143883000Y-69941500D01*
G75*
G02*
X143808000Y-69866500I0J75000D01*
G01*
G37*
%TD.AperFunction*%
%TO.P,U1,48*%
%TO.N,+3V3*%
%TA.AperFunction,SMDPad,CuDef*%
G36*
G01*
X145133000Y-71191500D02*
X145133000Y-71041500D01*
G75*
G02*
X145208000Y-70966500I75000J0D01*
G01*
X146533000Y-70966500D01*
G75*
G02*
X146608000Y-71041500I0J-75000D01*
G01*
X146608000Y-71191500D01*
G75*
G02*
X146533000Y-71266500I-75000J0D01*
G01*
X145208000Y-71266500D01*
G75*
G02*
X145133000Y-71191500I0J75000D01*
G01*
G37*
%TD.AperFunction*%
%TO.P,U1,47*%
%TO.N,GND*%
%TA.AperFunction,SMDPad,CuDef*%
G36*
G01*
X145133000Y-71691500D02*
X145133000Y-71541500D01*
G75*
G02*
X145208000Y-71466500I75000J0D01*
G01*
X146533000Y-71466500D01*
G75*
G02*
X146608000Y-71541500I0J-75000D01*
G01*
X146608000Y-71691500D01*
G75*
G02*
X146533000Y-71766500I-75000J0D01*
G01*
X145208000Y-71766500D01*
G75*
G02*
X145133000Y-71691500I0J75000D01*
G01*
G37*
%TD.AperFunction*%
%TO.P,U1,46*%
%TO.N,D+*%
%TA.AperFunction,SMDPad,CuDef*%
G36*
G01*
X145133000Y-72191500D02*
X145133000Y-72041500D01*
G75*
G02*
X145208000Y-71966500I75000J0D01*
G01*
X146533000Y-71966500D01*
G75*
G02*
X146608000Y-72041500I0J-75000D01*
G01*
X146608000Y-72191500D01*
G75*
G02*
X146533000Y-72266500I-75000J0D01*
G01*
X145208000Y-72266500D01*
G75*
G02*
X145133000Y-72191500I0J75000D01*
G01*
G37*
%TD.AperFunction*%
%TO.P,U1,45*%
%TO.N,D-*%
%TA.AperFunction,SMDPad,CuDef*%
G36*
G01*
X145133000Y-72691500D02*
X145133000Y-72541500D01*
G75*
G02*
X145208000Y-72466500I75000J0D01*
G01*
X146533000Y-72466500D01*
G75*
G02*
X146608000Y-72541500I0J-75000D01*
G01*
X146608000Y-72691500D01*
G75*
G02*
X146533000Y-72766500I-75000J0D01*
G01*
X145208000Y-72766500D01*
G75*
G02*
X145133000Y-72691500I0J75000D01*
G01*
G37*
%TD.AperFunction*%
%TO.P,U1,44*%
%TO.N,PA23*%
%TA.AperFunction,SMDPad,CuDef*%
G36*
G01*
X145133000Y-73191500D02*
X145133000Y-73041500D01*
G75*
G02*
X145208000Y-72966500I75000J0D01*
G01*
X146533000Y-72966500D01*
G75*
G02*
X146608000Y-73041500I0J-75000D01*
G01*
X146608000Y-73191500D01*
G75*
G02*
X146533000Y-73266500I-75000J0D01*
G01*
X145208000Y-73266500D01*
G75*
G02*
X145133000Y-73191500I0J75000D01*
G01*
G37*
%TD.AperFunction*%
%TO.P,U1,43*%
%TO.N,PA22*%
%TA.AperFunction,SMDPad,CuDef*%
G36*
G01*
X145133000Y-73691500D02*
X145133000Y-73541500D01*
G75*
G02*
X145208000Y-73466500I75000J0D01*
G01*
X146533000Y-73466500D01*
G75*
G02*
X146608000Y-73541500I0J-75000D01*
G01*
X146608000Y-73691500D01*
G75*
G02*
X146533000Y-73766500I-75000J0D01*
G01*
X145208000Y-73766500D01*
G75*
G02*
X145133000Y-73691500I0J75000D01*
G01*
G37*
%TD.AperFunction*%
%TO.P,U1,42*%
%TO.N,PA21*%
%TA.AperFunction,SMDPad,CuDef*%
G36*
G01*
X145133000Y-74191500D02*
X145133000Y-74041500D01*
G75*
G02*
X145208000Y-73966500I75000J0D01*
G01*
X146533000Y-73966500D01*
G75*
G02*
X146608000Y-74041500I0J-75000D01*
G01*
X146608000Y-74191500D01*
G75*
G02*
X146533000Y-74266500I-75000J0D01*
G01*
X145208000Y-74266500D01*
G75*
G02*
X145133000Y-74191500I0J75000D01*
G01*
G37*
%TD.AperFunction*%
%TO.P,U1,41*%
%TO.N,PA20*%
%TA.AperFunction,SMDPad,CuDef*%
G36*
G01*
X145133000Y-74691500D02*
X145133000Y-74541500D01*
G75*
G02*
X145208000Y-74466500I75000J0D01*
G01*
X146533000Y-74466500D01*
G75*
G02*
X146608000Y-74541500I0J-75000D01*
G01*
X146608000Y-74691500D01*
G75*
G02*
X146533000Y-74766500I-75000J0D01*
G01*
X145208000Y-74766500D01*
G75*
G02*
X145133000Y-74691500I0J75000D01*
G01*
G37*
%TD.AperFunction*%
%TO.P,U1,40*%
%TO.N,PB17*%
%TA.AperFunction,SMDPad,CuDef*%
G36*
G01*
X145133000Y-75191500D02*
X145133000Y-75041500D01*
G75*
G02*
X145208000Y-74966500I75000J0D01*
G01*
X146533000Y-74966500D01*
G75*
G02*
X146608000Y-75041500I0J-75000D01*
G01*
X146608000Y-75191500D01*
G75*
G02*
X146533000Y-75266500I-75000J0D01*
G01*
X145208000Y-75266500D01*
G75*
G02*
X145133000Y-75191500I0J75000D01*
G01*
G37*
%TD.AperFunction*%
%TO.P,U1,39*%
%TO.N,PB16*%
%TA.AperFunction,SMDPad,CuDef*%
G36*
G01*
X145133000Y-75691500D02*
X145133000Y-75541500D01*
G75*
G02*
X145208000Y-75466500I75000J0D01*
G01*
X146533000Y-75466500D01*
G75*
G02*
X146608000Y-75541500I0J-75000D01*
G01*
X146608000Y-75691500D01*
G75*
G02*
X146533000Y-75766500I-75000J0D01*
G01*
X145208000Y-75766500D01*
G75*
G02*
X145133000Y-75691500I0J75000D01*
G01*
G37*
%TD.AperFunction*%
%TO.P,U1,38*%
%TO.N,PA19*%
%TA.AperFunction,SMDPad,CuDef*%
G36*
G01*
X145133000Y-76191500D02*
X145133000Y-76041500D01*
G75*
G02*
X145208000Y-75966500I75000J0D01*
G01*
X146533000Y-75966500D01*
G75*
G02*
X146608000Y-76041500I0J-75000D01*
G01*
X146608000Y-76191500D01*
G75*
G02*
X146533000Y-76266500I-75000J0D01*
G01*
X145208000Y-76266500D01*
G75*
G02*
X145133000Y-76191500I0J75000D01*
G01*
G37*
%TD.AperFunction*%
%TO.P,U1,37*%
%TO.N,PA18*%
%TA.AperFunction,SMDPad,CuDef*%
G36*
G01*
X145133000Y-76691500D02*
X145133000Y-76541500D01*
G75*
G02*
X145208000Y-76466500I75000J0D01*
G01*
X146533000Y-76466500D01*
G75*
G02*
X146608000Y-76541500I0J-75000D01*
G01*
X146608000Y-76691500D01*
G75*
G02*
X146533000Y-76766500I-75000J0D01*
G01*
X145208000Y-76766500D01*
G75*
G02*
X145133000Y-76691500I0J75000D01*
G01*
G37*
%TD.AperFunction*%
%TO.P,U1,36*%
%TO.N,PA17*%
%TA.AperFunction,SMDPad,CuDef*%
G36*
G01*
X145133000Y-77191500D02*
X145133000Y-77041500D01*
G75*
G02*
X145208000Y-76966500I75000J0D01*
G01*
X146533000Y-76966500D01*
G75*
G02*
X146608000Y-77041500I0J-75000D01*
G01*
X146608000Y-77191500D01*
G75*
G02*
X146533000Y-77266500I-75000J0D01*
G01*
X145208000Y-77266500D01*
G75*
G02*
X145133000Y-77191500I0J75000D01*
G01*
G37*
%TD.AperFunction*%
%TO.P,U1,35*%
%TO.N,PA16*%
%TA.AperFunction,SMDPad,CuDef*%
G36*
G01*
X145133000Y-77691500D02*
X145133000Y-77541500D01*
G75*
G02*
X145208000Y-77466500I75000J0D01*
G01*
X146533000Y-77466500D01*
G75*
G02*
X146608000Y-77541500I0J-75000D01*
G01*
X146608000Y-77691500D01*
G75*
G02*
X146533000Y-77766500I-75000J0D01*
G01*
X145208000Y-77766500D01*
G75*
G02*
X145133000Y-77691500I0J75000D01*
G01*
G37*
%TD.AperFunction*%
%TO.P,U1,34*%
%TO.N,+3V3*%
%TA.AperFunction,SMDPad,CuDef*%
G36*
G01*
X145133000Y-78191500D02*
X145133000Y-78041500D01*
G75*
G02*
X145208000Y-77966500I75000J0D01*
G01*
X146533000Y-77966500D01*
G75*
G02*
X146608000Y-78041500I0J-75000D01*
G01*
X146608000Y-78191500D01*
G75*
G02*
X146533000Y-78266500I-75000J0D01*
G01*
X145208000Y-78266500D01*
G75*
G02*
X145133000Y-78191500I0J75000D01*
G01*
G37*
%TD.AperFunction*%
%TO.P,U1,33*%
%TO.N,GND*%
%TA.AperFunction,SMDPad,CuDef*%
G36*
G01*
X145133000Y-78691500D02*
X145133000Y-78541500D01*
G75*
G02*
X145208000Y-78466500I75000J0D01*
G01*
X146533000Y-78466500D01*
G75*
G02*
X146608000Y-78541500I0J-75000D01*
G01*
X146608000Y-78691500D01*
G75*
G02*
X146533000Y-78766500I-75000J0D01*
G01*
X145208000Y-78766500D01*
G75*
G02*
X145133000Y-78691500I0J75000D01*
G01*
G37*
%TD.AperFunction*%
%TO.P,U1,32*%
%TO.N,PA15*%
%TA.AperFunction,SMDPad,CuDef*%
G36*
G01*
X143808000Y-81191500D02*
X143808000Y-79866500D01*
G75*
G02*
X143883000Y-79791500I75000J0D01*
G01*
X144033000Y-79791500D01*
G75*
G02*
X144108000Y-79866500I0J-75000D01*
G01*
X144108000Y-81191500D01*
G75*
G02*
X144033000Y-81266500I-75000J0D01*
G01*
X143883000Y-81266500D01*
G75*
G02*
X143808000Y-81191500I0J75000D01*
G01*
G37*
%TD.AperFunction*%
%TO.P,U1,31*%
%TO.N,PA14*%
%TA.AperFunction,SMDPad,CuDef*%
G36*
G01*
X143308000Y-81191500D02*
X143308000Y-79866500D01*
G75*
G02*
X143383000Y-79791500I75000J0D01*
G01*
X143533000Y-79791500D01*
G75*
G02*
X143608000Y-79866500I0J-75000D01*
G01*
X143608000Y-81191500D01*
G75*
G02*
X143533000Y-81266500I-75000J0D01*
G01*
X143383000Y-81266500D01*
G75*
G02*
X143308000Y-81191500I0J75000D01*
G01*
G37*
%TD.AperFunction*%
%TO.P,U1,30*%
%TO.N,PA13*%
%TA.AperFunction,SMDPad,CuDef*%
G36*
G01*
X142808000Y-81191500D02*
X142808000Y-79866500D01*
G75*
G02*
X142883000Y-79791500I75000J0D01*
G01*
X143033000Y-79791500D01*
G75*
G02*
X143108000Y-79866500I0J-75000D01*
G01*
X143108000Y-81191500D01*
G75*
G02*
X143033000Y-81266500I-75000J0D01*
G01*
X142883000Y-81266500D01*
G75*
G02*
X142808000Y-81191500I0J75000D01*
G01*
G37*
%TD.AperFunction*%
%TO.P,U1,29*%
%TO.N,PA12*%
%TA.AperFunction,SMDPad,CuDef*%
G36*
G01*
X142308000Y-81191500D02*
X142308000Y-79866500D01*
G75*
G02*
X142383000Y-79791500I75000J0D01*
G01*
X142533000Y-79791500D01*
G75*
G02*
X142608000Y-79866500I0J-75000D01*
G01*
X142608000Y-81191500D01*
G75*
G02*
X142533000Y-81266500I-75000J0D01*
G01*
X142383000Y-81266500D01*
G75*
G02*
X142308000Y-81191500I0J75000D01*
G01*
G37*
%TD.AperFunction*%
%TO.P,U1,28*%
%TO.N,PB15*%
%TA.AperFunction,SMDPad,CuDef*%
G36*
G01*
X141808000Y-81191500D02*
X141808000Y-79866500D01*
G75*
G02*
X141883000Y-79791500I75000J0D01*
G01*
X142033000Y-79791500D01*
G75*
G02*
X142108000Y-79866500I0J-75000D01*
G01*
X142108000Y-81191500D01*
G75*
G02*
X142033000Y-81266500I-75000J0D01*
G01*
X141883000Y-81266500D01*
G75*
G02*
X141808000Y-81191500I0J75000D01*
G01*
G37*
%TD.AperFunction*%
%TO.P,U1,27*%
%TO.N,PB14*%
%TA.AperFunction,SMDPad,CuDef*%
G36*
G01*
X141308000Y-81191500D02*
X141308000Y-79866500D01*
G75*
G02*
X141383000Y-79791500I75000J0D01*
G01*
X141533000Y-79791500D01*
G75*
G02*
X141608000Y-79866500I0J-75000D01*
G01*
X141608000Y-81191500D01*
G75*
G02*
X141533000Y-81266500I-75000J0D01*
G01*
X141383000Y-81266500D01*
G75*
G02*
X141308000Y-81191500I0J75000D01*
G01*
G37*
%TD.AperFunction*%
%TO.P,U1,26*%
%TO.N,PB13*%
%TA.AperFunction,SMDPad,CuDef*%
G36*
G01*
X140808000Y-81191500D02*
X140808000Y-79866500D01*
G75*
G02*
X140883000Y-79791500I75000J0D01*
G01*
X141033000Y-79791500D01*
G75*
G02*
X141108000Y-79866500I0J-75000D01*
G01*
X141108000Y-81191500D01*
G75*
G02*
X141033000Y-81266500I-75000J0D01*
G01*
X140883000Y-81266500D01*
G75*
G02*
X140808000Y-81191500I0J75000D01*
G01*
G37*
%TD.AperFunction*%
%TO.P,U1,25*%
%TO.N,PB12*%
%TA.AperFunction,SMDPad,CuDef*%
G36*
G01*
X140308000Y-81191500D02*
X140308000Y-79866500D01*
G75*
G02*
X140383000Y-79791500I75000J0D01*
G01*
X140533000Y-79791500D01*
G75*
G02*
X140608000Y-79866500I0J-75000D01*
G01*
X140608000Y-81191500D01*
G75*
G02*
X140533000Y-81266500I-75000J0D01*
G01*
X140383000Y-81266500D01*
G75*
G02*
X140308000Y-81191500I0J75000D01*
G01*
G37*
%TD.AperFunction*%
%TO.P,U1,24*%
%TO.N,SDCK*%
%TA.AperFunction,SMDPad,CuDef*%
G36*
G01*
X139808000Y-81191500D02*
X139808000Y-79866500D01*
G75*
G02*
X139883000Y-79791500I75000J0D01*
G01*
X140033000Y-79791500D01*
G75*
G02*
X140108000Y-79866500I0J-75000D01*
G01*
X140108000Y-81191500D01*
G75*
G02*
X140033000Y-81266500I-75000J0D01*
G01*
X139883000Y-81266500D01*
G75*
G02*
X139808000Y-81191500I0J75000D01*
G01*
G37*
%TD.AperFunction*%
%TO.P,U1,23*%
%TO.N,SDDAT[3]*%
%TA.AperFunction,SMDPad,CuDef*%
G36*
G01*
X139308000Y-81191500D02*
X139308000Y-79866500D01*
G75*
G02*
X139383000Y-79791500I75000J0D01*
G01*
X139533000Y-79791500D01*
G75*
G02*
X139608000Y-79866500I0J-75000D01*
G01*
X139608000Y-81191500D01*
G75*
G02*
X139533000Y-81266500I-75000J0D01*
G01*
X139383000Y-81266500D01*
G75*
G02*
X139308000Y-81191500I0J75000D01*
G01*
G37*
%TD.AperFunction*%
%TO.P,U1,22*%
%TO.N,GND*%
%TA.AperFunction,SMDPad,CuDef*%
G36*
G01*
X138808000Y-81191500D02*
X138808000Y-79866500D01*
G75*
G02*
X138883000Y-79791500I75000J0D01*
G01*
X139033000Y-79791500D01*
G75*
G02*
X139108000Y-79866500I0J-75000D01*
G01*
X139108000Y-81191500D01*
G75*
G02*
X139033000Y-81266500I-75000J0D01*
G01*
X138883000Y-81266500D01*
G75*
G02*
X138808000Y-81191500I0J75000D01*
G01*
G37*
%TD.AperFunction*%
%TO.P,U1,21*%
%TO.N,+3V3*%
%TA.AperFunction,SMDPad,CuDef*%
G36*
G01*
X138308000Y-81191500D02*
X138308000Y-79866500D01*
G75*
G02*
X138383000Y-79791500I75000J0D01*
G01*
X138533000Y-79791500D01*
G75*
G02*
X138608000Y-79866500I0J-75000D01*
G01*
X138608000Y-81191500D01*
G75*
G02*
X138533000Y-81266500I-75000J0D01*
G01*
X138383000Y-81266500D01*
G75*
G02*
X138308000Y-81191500I0J75000D01*
G01*
G37*
%TD.AperFunction*%
%TO.P,U1,20*%
%TO.N,SDDAT[2]*%
%TA.AperFunction,SMDPad,CuDef*%
G36*
G01*
X137808000Y-81191500D02*
X137808000Y-79866500D01*
G75*
G02*
X137883000Y-79791500I75000J0D01*
G01*
X138033000Y-79791500D01*
G75*
G02*
X138108000Y-79866500I0J-75000D01*
G01*
X138108000Y-81191500D01*
G75*
G02*
X138033000Y-81266500I-75000J0D01*
G01*
X137883000Y-81266500D01*
G75*
G02*
X137808000Y-81191500I0J75000D01*
G01*
G37*
%TD.AperFunction*%
%TO.P,U1,19*%
%TO.N,SDDAT[1]*%
%TA.AperFunction,SMDPad,CuDef*%
G36*
G01*
X137308000Y-81191500D02*
X137308000Y-79866500D01*
G75*
G02*
X137383000Y-79791500I75000J0D01*
G01*
X137533000Y-79791500D01*
G75*
G02*
X137608000Y-79866500I0J-75000D01*
G01*
X137608000Y-81191500D01*
G75*
G02*
X137533000Y-81266500I-75000J0D01*
G01*
X137383000Y-81266500D01*
G75*
G02*
X137308000Y-81191500I0J75000D01*
G01*
G37*
%TD.AperFunction*%
%TO.P,U1,18*%
%TO.N,SDDAT[0]*%
%TA.AperFunction,SMDPad,CuDef*%
G36*
G01*
X136808000Y-81191500D02*
X136808000Y-79866500D01*
G75*
G02*
X136883000Y-79791500I75000J0D01*
G01*
X137033000Y-79791500D01*
G75*
G02*
X137108000Y-79866500I0J-75000D01*
G01*
X137108000Y-81191500D01*
G75*
G02*
X137033000Y-81266500I-75000J0D01*
G01*
X136883000Y-81266500D01*
G75*
G02*
X136808000Y-81191500I0J75000D01*
G01*
G37*
%TD.AperFunction*%
%TO.P,U1,17*%
%TO.N,SDCMD*%
%TA.AperFunction,SMDPad,CuDef*%
G36*
G01*
X136308000Y-81191500D02*
X136308000Y-79866500D01*
G75*
G02*
X136383000Y-79791500I75000J0D01*
G01*
X136533000Y-79791500D01*
G75*
G02*
X136608000Y-79866500I0J-75000D01*
G01*
X136608000Y-81191500D01*
G75*
G02*
X136533000Y-81266500I-75000J0D01*
G01*
X136383000Y-81266500D01*
G75*
G02*
X136308000Y-81191500I0J75000D01*
G01*
G37*
%TD.AperFunction*%
%TO.P,U1,16*%
%TO.N,PA07*%
%TA.AperFunction,SMDPad,CuDef*%
G36*
G01*
X133808000Y-78691500D02*
X133808000Y-78541500D01*
G75*
G02*
X133883000Y-78466500I75000J0D01*
G01*
X135208000Y-78466500D01*
G75*
G02*
X135283000Y-78541500I0J-75000D01*
G01*
X135283000Y-78691500D01*
G75*
G02*
X135208000Y-78766500I-75000J0D01*
G01*
X133883000Y-78766500D01*
G75*
G02*
X133808000Y-78691500I0J75000D01*
G01*
G37*
%TD.AperFunction*%
%TO.P,U1,15*%
%TO.N,SDCD*%
%TA.AperFunction,SMDPad,CuDef*%
G36*
G01*
X133808000Y-78191500D02*
X133808000Y-78041500D01*
G75*
G02*
X133883000Y-77966500I75000J0D01*
G01*
X135208000Y-77966500D01*
G75*
G02*
X135283000Y-78041500I0J-75000D01*
G01*
X135283000Y-78191500D01*
G75*
G02*
X135208000Y-78266500I-75000J0D01*
G01*
X133883000Y-78266500D01*
G75*
G02*
X133808000Y-78191500I0J75000D01*
G01*
G37*
%TD.AperFunction*%
%TO.P,U1,14*%
%TO.N,PA05*%
%TA.AperFunction,SMDPad,CuDef*%
G36*
G01*
X133808000Y-77691500D02*
X133808000Y-77541500D01*
G75*
G02*
X133883000Y-77466500I75000J0D01*
G01*
X135208000Y-77466500D01*
G75*
G02*
X135283000Y-77541500I0J-75000D01*
G01*
X135283000Y-77691500D01*
G75*
G02*
X135208000Y-77766500I-75000J0D01*
G01*
X133883000Y-77766500D01*
G75*
G02*
X133808000Y-77691500I0J75000D01*
G01*
G37*
%TD.AperFunction*%
%TO.P,U1,13*%
%TO.N,PA04*%
%TA.AperFunction,SMDPad,CuDef*%
G36*
G01*
X133808000Y-77191500D02*
X133808000Y-77041500D01*
G75*
G02*
X133883000Y-76966500I75000J0D01*
G01*
X135208000Y-76966500D01*
G75*
G02*
X135283000Y-77041500I0J-75000D01*
G01*
X135283000Y-77191500D01*
G75*
G02*
X135208000Y-77266500I-75000J0D01*
G01*
X133883000Y-77266500D01*
G75*
G02*
X133808000Y-77191500I0J75000D01*
G01*
G37*
%TD.AperFunction*%
%TO.P,U1,12*%
%TO.N,PB09*%
%TA.AperFunction,SMDPad,CuDef*%
G36*
G01*
X133808000Y-76691500D02*
X133808000Y-76541500D01*
G75*
G02*
X133883000Y-76466500I75000J0D01*
G01*
X135208000Y-76466500D01*
G75*
G02*
X135283000Y-76541500I0J-75000D01*
G01*
X135283000Y-76691500D01*
G75*
G02*
X135208000Y-76766500I-75000J0D01*
G01*
X133883000Y-76766500D01*
G75*
G02*
X133808000Y-76691500I0J75000D01*
G01*
G37*
%TD.AperFunction*%
%TO.P,U1,11*%
%TO.N,PB08*%
%TA.AperFunction,SMDPad,CuDef*%
G36*
G01*
X133808000Y-76191500D02*
X133808000Y-76041500D01*
G75*
G02*
X133883000Y-75966500I75000J0D01*
G01*
X135208000Y-75966500D01*
G75*
G02*
X135283000Y-76041500I0J-75000D01*
G01*
X135283000Y-76191500D01*
G75*
G02*
X135208000Y-76266500I-75000J0D01*
G01*
X133883000Y-76266500D01*
G75*
G02*
X133808000Y-76191500I0J75000D01*
G01*
G37*
%TD.AperFunction*%
%TO.P,U1,10*%
%TO.N,PB07*%
%TA.AperFunction,SMDPad,CuDef*%
G36*
G01*
X133808000Y-75691500D02*
X133808000Y-75541500D01*
G75*
G02*
X133883000Y-75466500I75000J0D01*
G01*
X135208000Y-75466500D01*
G75*
G02*
X135283000Y-75541500I0J-75000D01*
G01*
X135283000Y-75691500D01*
G75*
G02*
X135208000Y-75766500I-75000J0D01*
G01*
X133883000Y-75766500D01*
G75*
G02*
X133808000Y-75691500I0J75000D01*
G01*
G37*
%TD.AperFunction*%
%TO.P,U1,9*%
%TO.N,PB06*%
%TA.AperFunction,SMDPad,CuDef*%
G36*
G01*
X133808000Y-75191500D02*
X133808000Y-75041500D01*
G75*
G02*
X133883000Y-74966500I75000J0D01*
G01*
X135208000Y-74966500D01*
G75*
G02*
X135283000Y-75041500I0J-75000D01*
G01*
X135283000Y-75191500D01*
G75*
G02*
X135208000Y-75266500I-75000J0D01*
G01*
X133883000Y-75266500D01*
G75*
G02*
X133808000Y-75191500I0J75000D01*
G01*
G37*
%TD.AperFunction*%
%TO.P,U1,8*%
%TO.N,VDDA*%
%TA.AperFunction,SMDPad,CuDef*%
G36*
G01*
X133808000Y-74691500D02*
X133808000Y-74541500D01*
G75*
G02*
X133883000Y-74466500I75000J0D01*
G01*
X135208000Y-74466500D01*
G75*
G02*
X135283000Y-74541500I0J-75000D01*
G01*
X135283000Y-74691500D01*
G75*
G02*
X135208000Y-74766500I-75000J0D01*
G01*
X133883000Y-74766500D01*
G75*
G02*
X133808000Y-74691500I0J75000D01*
G01*
G37*
%TD.AperFunction*%
%TO.P,U1,7*%
%TO.N,GND*%
%TA.AperFunction,SMDPad,CuDef*%
G36*
G01*
X133808000Y-74191500D02*
X133808000Y-74041500D01*
G75*
G02*
X133883000Y-73966500I75000J0D01*
G01*
X135208000Y-73966500D01*
G75*
G02*
X135283000Y-74041500I0J-75000D01*
G01*
X135283000Y-74191500D01*
G75*
G02*
X135208000Y-74266500I-75000J0D01*
G01*
X133883000Y-74266500D01*
G75*
G02*
X133808000Y-74191500I0J75000D01*
G01*
G37*
%TD.AperFunction*%
%TO.P,U1,6*%
%TO.N,PB05*%
%TA.AperFunction,SMDPad,CuDef*%
G36*
G01*
X133808000Y-73691500D02*
X133808000Y-73541500D01*
G75*
G02*
X133883000Y-73466500I75000J0D01*
G01*
X135208000Y-73466500D01*
G75*
G02*
X135283000Y-73541500I0J-75000D01*
G01*
X135283000Y-73691500D01*
G75*
G02*
X135208000Y-73766500I-75000J0D01*
G01*
X133883000Y-73766500D01*
G75*
G02*
X133808000Y-73691500I0J75000D01*
G01*
G37*
%TD.AperFunction*%
%TO.P,U1,5*%
%TO.N,PB04*%
%TA.AperFunction,SMDPad,CuDef*%
G36*
G01*
X133808000Y-73191500D02*
X133808000Y-73041500D01*
G75*
G02*
X133883000Y-72966500I75000J0D01*
G01*
X135208000Y-72966500D01*
G75*
G02*
X135283000Y-73041500I0J-75000D01*
G01*
X135283000Y-73191500D01*
G75*
G02*
X135208000Y-73266500I-75000J0D01*
G01*
X133883000Y-73266500D01*
G75*
G02*
X133808000Y-73191500I0J75000D01*
G01*
G37*
%TD.AperFunction*%
%TO.P,U1,4*%
%TO.N,PA03*%
%TA.AperFunction,SMDPad,CuDef*%
G36*
G01*
X133808000Y-72691500D02*
X133808000Y-72541500D01*
G75*
G02*
X133883000Y-72466500I75000J0D01*
G01*
X135208000Y-72466500D01*
G75*
G02*
X135283000Y-72541500I0J-75000D01*
G01*
X135283000Y-72691500D01*
G75*
G02*
X135208000Y-72766500I-75000J0D01*
G01*
X133883000Y-72766500D01*
G75*
G02*
X133808000Y-72691500I0J75000D01*
G01*
G37*
%TD.AperFunction*%
%TO.P,U1,3*%
%TO.N,PA02*%
%TA.AperFunction,SMDPad,CuDef*%
G36*
G01*
X133808000Y-72191500D02*
X133808000Y-72041500D01*
G75*
G02*
X133883000Y-71966500I75000J0D01*
G01*
X135208000Y-71966500D01*
G75*
G02*
X135283000Y-72041500I0J-75000D01*
G01*
X135283000Y-72191500D01*
G75*
G02*
X135208000Y-72266500I-75000J0D01*
G01*
X133883000Y-72266500D01*
G75*
G02*
X133808000Y-72191500I0J75000D01*
G01*
G37*
%TD.AperFunction*%
%TO.P,U1,2*%
%TO.N,XOUT32*%
%TA.AperFunction,SMDPad,CuDef*%
G36*
G01*
X133808000Y-71691500D02*
X133808000Y-71541500D01*
G75*
G02*
X133883000Y-71466500I75000J0D01*
G01*
X135208000Y-71466500D01*
G75*
G02*
X135283000Y-71541500I0J-75000D01*
G01*
X135283000Y-71691500D01*
G75*
G02*
X135208000Y-71766500I-75000J0D01*
G01*
X133883000Y-71766500D01*
G75*
G02*
X133808000Y-71691500I0J75000D01*
G01*
G37*
%TD.AperFunction*%
%TO.P,U1,1*%
%TO.N,XIN32*%
%TA.AperFunction,SMDPad,CuDef*%
G36*
G01*
X133808000Y-71191500D02*
X133808000Y-71041500D01*
G75*
G02*
X133883000Y-70966500I75000J0D01*
G01*
X135208000Y-70966500D01*
G75*
G02*
X135283000Y-71041500I0J-75000D01*
G01*
X135283000Y-71191500D01*
G75*
G02*
X135208000Y-71266500I-75000J0D01*
G01*
X133883000Y-71266500D01*
G75*
G02*
X133808000Y-71191500I0J75000D01*
G01*
G37*
%TD.AperFunction*%
%TD*%
D20*
%TO.P,RESET,2*%
%TO.N,GND*%
X122368500Y-80480000D03*
X115168500Y-80480000D03*
%TO.P,RESET,1*%
%TO.N,RESET*%
X122368500Y-77480000D03*
X115168500Y-77480000D03*
%TD*%
%TO.P,R5,2*%
%TO.N,RESET*%
%TA.AperFunction,SMDPad,CuDef*%
G36*
G01*
X117905500Y-75051500D02*
X117905500Y-74681500D01*
G75*
G02*
X118040500Y-74546500I135000J0D01*
G01*
X118310500Y-74546500D01*
G75*
G02*
X118445500Y-74681500I0J-135000D01*
G01*
X118445500Y-75051500D01*
G75*
G02*
X118310500Y-75186500I-135000J0D01*
G01*
X118040500Y-75186500D01*
G75*
G02*
X117905500Y-75051500I0J135000D01*
G01*
G37*
%TD.AperFunction*%
%TO.P,R5,1*%
%TO.N,+3V3*%
%TA.AperFunction,SMDPad,CuDef*%
G36*
G01*
X116885500Y-75051500D02*
X116885500Y-74681500D01*
G75*
G02*
X117020500Y-74546500I135000J0D01*
G01*
X117290500Y-74546500D01*
G75*
G02*
X117425500Y-74681500I0J-135000D01*
G01*
X117425500Y-75051500D01*
G75*
G02*
X117290500Y-75186500I-135000J0D01*
G01*
X117020500Y-75186500D01*
G75*
G02*
X116885500Y-75051500I0J135000D01*
G01*
G37*
%TD.AperFunction*%
%TD*%
%TO.P,R4,2*%
%TO.N,Net-(D1-Pad2)*%
%TA.AperFunction,SMDPad,CuDef*%
G36*
G01*
X105868500Y-67442500D02*
X105868500Y-67812500D01*
G75*
G02*
X105733500Y-67947500I-135000J0D01*
G01*
X105463500Y-67947500D01*
G75*
G02*
X105328500Y-67812500I0J135000D01*
G01*
X105328500Y-67442500D01*
G75*
G02*
X105463500Y-67307500I135000J0D01*
G01*
X105733500Y-67307500D01*
G75*
G02*
X105868500Y-67442500I0J-135000D01*
G01*
G37*
%TD.AperFunction*%
%TO.P,R4,1*%
%TO.N,+3V3*%
%TA.AperFunction,SMDPad,CuDef*%
G36*
G01*
X106888500Y-67442500D02*
X106888500Y-67812500D01*
G75*
G02*
X106753500Y-67947500I-135000J0D01*
G01*
X106483500Y-67947500D01*
G75*
G02*
X106348500Y-67812500I0J135000D01*
G01*
X106348500Y-67442500D01*
G75*
G02*
X106483500Y-67307500I135000J0D01*
G01*
X106753500Y-67307500D01*
G75*
G02*
X106888500Y-67442500I0J-135000D01*
G01*
G37*
%TD.AperFunction*%
%TD*%
%TO.P,R3,2*%
%TO.N,VDD*%
%TA.AperFunction,SMDPad,CuDef*%
G36*
G01*
X114758500Y-71316000D02*
X114758500Y-71686000D01*
G75*
G02*
X114623500Y-71821000I-135000J0D01*
G01*
X114353500Y-71821000D01*
G75*
G02*
X114218500Y-71686000I0J135000D01*
G01*
X114218500Y-71316000D01*
G75*
G02*
X114353500Y-71181000I135000J0D01*
G01*
X114623500Y-71181000D01*
G75*
G02*
X114758500Y-71316000I0J-135000D01*
G01*
G37*
%TD.AperFunction*%
%TO.P,R3,1*%
%TO.N,Net-(R3-Pad1)*%
%TA.AperFunction,SMDPad,CuDef*%
G36*
G01*
X115778500Y-71316000D02*
X115778500Y-71686000D01*
G75*
G02*
X115643500Y-71821000I-135000J0D01*
G01*
X115373500Y-71821000D01*
G75*
G02*
X115238500Y-71686000I0J135000D01*
G01*
X115238500Y-71316000D01*
G75*
G02*
X115373500Y-71181000I135000J0D01*
G01*
X115643500Y-71181000D01*
G75*
G02*
X115778500Y-71316000I0J-135000D01*
G01*
G37*
%TD.AperFunction*%
%TD*%
%TO.P,R2,2*%
%TO.N,Net-(J2-PadA5)*%
%TA.AperFunction,SMDPad,CuDef*%
G36*
G01*
X111964500Y-73538500D02*
X111964500Y-73908500D01*
G75*
G02*
X111829500Y-74043500I-135000J0D01*
G01*
X111559500Y-74043500D01*
G75*
G02*
X111424500Y-73908500I0J135000D01*
G01*
X111424500Y-73538500D01*
G75*
G02*
X111559500Y-73403500I135000J0D01*
G01*
X111829500Y-73403500D01*
G75*
G02*
X111964500Y-73538500I0J-135000D01*
G01*
G37*
%TD.AperFunction*%
%TO.P,R2,1*%
%TO.N,GND*%
%TA.AperFunction,SMDPad,CuDef*%
G36*
G01*
X112984500Y-73538500D02*
X112984500Y-73908500D01*
G75*
G02*
X112849500Y-74043500I-135000J0D01*
G01*
X112579500Y-74043500D01*
G75*
G02*
X112444500Y-73908500I0J135000D01*
G01*
X112444500Y-73538500D01*
G75*
G02*
X112579500Y-73403500I135000J0D01*
G01*
X112849500Y-73403500D01*
G75*
G02*
X112984500Y-73538500I0J-135000D01*
G01*
G37*
%TD.AperFunction*%
%TD*%
%TO.P,R1,2*%
%TO.N,Net-(J2-PadB5)*%
%TA.AperFunction,SMDPad,CuDef*%
G36*
G01*
X111964500Y-76078500D02*
X111964500Y-76448500D01*
G75*
G02*
X111829500Y-76583500I-135000J0D01*
G01*
X111559500Y-76583500D01*
G75*
G02*
X111424500Y-76448500I0J135000D01*
G01*
X111424500Y-76078500D01*
G75*
G02*
X111559500Y-75943500I135000J0D01*
G01*
X111829500Y-75943500D01*
G75*
G02*
X111964500Y-76078500I0J-135000D01*
G01*
G37*
%TD.AperFunction*%
%TO.P,R1,1*%
%TO.N,GND*%
%TA.AperFunction,SMDPad,CuDef*%
G36*
G01*
X112984500Y-76078500D02*
X112984500Y-76448500D01*
G75*
G02*
X112849500Y-76583500I-135000J0D01*
G01*
X112579500Y-76583500D01*
G75*
G02*
X112444500Y-76448500I0J135000D01*
G01*
X112444500Y-76078500D01*
G75*
G02*
X112579500Y-75943500I135000J0D01*
G01*
X112849500Y-75943500D01*
G75*
G02*
X112984500Y-76078500I0J-135000D01*
G01*
G37*
%TD.AperFunction*%
%TD*%
%TO.P,L1,2*%
%TO.N,VDDA*%
%TA.AperFunction,SMDPad,CuDef*%
G36*
G01*
X126334000Y-74741750D02*
X126334000Y-74229250D01*
G75*
G02*
X126552750Y-74010500I218750J0D01*
G01*
X126990250Y-74010500D01*
G75*
G02*
X127209000Y-74229250I0J-218750D01*
G01*
X127209000Y-74741750D01*
G75*
G02*
X126990250Y-74960500I-218750J0D01*
G01*
X126552750Y-74960500D01*
G75*
G02*
X126334000Y-74741750I0J218750D01*
G01*
G37*
%TD.AperFunction*%
%TO.P,L1,1*%
%TO.N,+3V3*%
%TA.AperFunction,SMDPad,CuDef*%
G36*
G01*
X124759000Y-74741750D02*
X124759000Y-74229250D01*
G75*
G02*
X124977750Y-74010500I218750J0D01*
G01*
X125415250Y-74010500D01*
G75*
G02*
X125634000Y-74229250I0J-218750D01*
G01*
X125634000Y-74741750D01*
G75*
G02*
X125415250Y-74960500I-218750J0D01*
G01*
X124977750Y-74960500D01*
G75*
G02*
X124759000Y-74741750I0J218750D01*
G01*
G37*
%TD.AperFunction*%
%TD*%
%TO.P,D1,2*%
%TO.N,Net-(D1-Pad2)*%
%TA.AperFunction,SMDPad,CuDef*%
G36*
G01*
X103512000Y-67883750D02*
X103512000Y-67371250D01*
G75*
G02*
X103730750Y-67152500I218750J0D01*
G01*
X104168250Y-67152500D01*
G75*
G02*
X104387000Y-67371250I0J-218750D01*
G01*
X104387000Y-67883750D01*
G75*
G02*
X104168250Y-68102500I-218750J0D01*
G01*
X103730750Y-68102500D01*
G75*
G02*
X103512000Y-67883750I0J218750D01*
G01*
G37*
%TD.AperFunction*%
%TO.P,D1,1*%
%TO.N,GND*%
%TA.AperFunction,SMDPad,CuDef*%
G36*
G01*
X101937000Y-67883750D02*
X101937000Y-67371250D01*
G75*
G02*
X102155750Y-67152500I218750J0D01*
G01*
X102593250Y-67152500D01*
G75*
G02*
X102812000Y-67371250I0J-218750D01*
G01*
X102812000Y-67883750D01*
G75*
G02*
X102593250Y-68102500I-218750J0D01*
G01*
X102155750Y-68102500D01*
G75*
G02*
X101937000Y-67883750I0J218750D01*
G01*
G37*
%TD.AperFunction*%
%TD*%
%TO.P,C13,2*%
%TO.N,GND*%
%TA.AperFunction,SMDPad,CuDef*%
G36*
G01*
X146694500Y-66972000D02*
X146694500Y-66632000D01*
G75*
G02*
X146834500Y-66492000I140000J0D01*
G01*
X147114500Y-66492000D01*
G75*
G02*
X147254500Y-66632000I0J-140000D01*
G01*
X147254500Y-66972000D01*
G75*
G02*
X147114500Y-67112000I-140000J0D01*
G01*
X146834500Y-67112000D01*
G75*
G02*
X146694500Y-66972000I0J140000D01*
G01*
G37*
%TD.AperFunction*%
%TO.P,C13,1*%
%TO.N,VCC*%
%TA.AperFunction,SMDPad,CuDef*%
G36*
G01*
X145734500Y-66972000D02*
X145734500Y-66632000D01*
G75*
G02*
X145874500Y-66492000I140000J0D01*
G01*
X146154500Y-66492000D01*
G75*
G02*
X146294500Y-66632000I0J-140000D01*
G01*
X146294500Y-66972000D01*
G75*
G02*
X146154500Y-67112000I-140000J0D01*
G01*
X145874500Y-67112000D01*
G75*
G02*
X145734500Y-66972000I0J140000D01*
G01*
G37*
%TD.AperFunction*%
%TD*%
%TO.P,C12,2*%
%TO.N,GND*%
%TA.AperFunction,SMDPad,CuDef*%
G36*
G01*
X146694500Y-68496000D02*
X146694500Y-68156000D01*
G75*
G02*
X146834500Y-68016000I140000J0D01*
G01*
X147114500Y-68016000D01*
G75*
G02*
X147254500Y-68156000I0J-140000D01*
G01*
X147254500Y-68496000D01*
G75*
G02*
X147114500Y-68636000I-140000J0D01*
G01*
X146834500Y-68636000D01*
G75*
G02*
X146694500Y-68496000I0J140000D01*
G01*
G37*
%TD.AperFunction*%
%TO.P,C12,1*%
%TO.N,VCC*%
%TA.AperFunction,SMDPad,CuDef*%
G36*
G01*
X145734500Y-68496000D02*
X145734500Y-68156000D01*
G75*
G02*
X145874500Y-68016000I140000J0D01*
G01*
X146154500Y-68016000D01*
G75*
G02*
X146294500Y-68156000I0J-140000D01*
G01*
X146294500Y-68496000D01*
G75*
G02*
X146154500Y-68636000I-140000J0D01*
G01*
X145874500Y-68636000D01*
G75*
G02*
X145734500Y-68496000I0J140000D01*
G01*
G37*
%TD.AperFunction*%
%TD*%
%TO.P,C11,2*%
%TO.N,GND*%
%TA.AperFunction,SMDPad,CuDef*%
G36*
G01*
X131932500Y-74285500D02*
X131592500Y-74285500D01*
G75*
G02*
X131452500Y-74145500I0J140000D01*
G01*
X131452500Y-73865500D01*
G75*
G02*
X131592500Y-73725500I140000J0D01*
G01*
X131932500Y-73725500D01*
G75*
G02*
X132072500Y-73865500I0J-140000D01*
G01*
X132072500Y-74145500D01*
G75*
G02*
X131932500Y-74285500I-140000J0D01*
G01*
G37*
%TD.AperFunction*%
%TO.P,C11,1*%
%TO.N,VDDA*%
%TA.AperFunction,SMDPad,CuDef*%
G36*
G01*
X131932500Y-75245500D02*
X131592500Y-75245500D01*
G75*
G02*
X131452500Y-75105500I0J140000D01*
G01*
X131452500Y-74825500D01*
G75*
G02*
X131592500Y-74685500I140000J0D01*
G01*
X131932500Y-74685500D01*
G75*
G02*
X132072500Y-74825500I0J-140000D01*
G01*
X132072500Y-75105500D01*
G75*
G02*
X131932500Y-75245500I-140000J0D01*
G01*
G37*
%TD.AperFunction*%
%TD*%
%TO.P,C10,2*%
%TO.N,GND*%
%TA.AperFunction,SMDPad,CuDef*%
G36*
G01*
X129329000Y-74285500D02*
X128989000Y-74285500D01*
G75*
G02*
X128849000Y-74145500I0J140000D01*
G01*
X128849000Y-73865500D01*
G75*
G02*
X128989000Y-73725500I140000J0D01*
G01*
X129329000Y-73725500D01*
G75*
G02*
X129469000Y-73865500I0J-140000D01*
G01*
X129469000Y-74145500D01*
G75*
G02*
X129329000Y-74285500I-140000J0D01*
G01*
G37*
%TD.AperFunction*%
%TO.P,C10,1*%
%TO.N,VDDA*%
%TA.AperFunction,SMDPad,CuDef*%
G36*
G01*
X129329000Y-75245500D02*
X128989000Y-75245500D01*
G75*
G02*
X128849000Y-75105500I0J140000D01*
G01*
X128849000Y-74825500D01*
G75*
G02*
X128989000Y-74685500I140000J0D01*
G01*
X129329000Y-74685500D01*
G75*
G02*
X129469000Y-74825500I0J-140000D01*
G01*
X129469000Y-75105500D01*
G75*
G02*
X129329000Y-75245500I-140000J0D01*
G01*
G37*
%TD.AperFunction*%
%TD*%
%TO.P,C9,2*%
%TO.N,GND*%
%TA.AperFunction,SMDPad,CuDef*%
G36*
G01*
X138820500Y-82783500D02*
X138820500Y-82443500D01*
G75*
G02*
X138960500Y-82303500I140000J0D01*
G01*
X139240500Y-82303500D01*
G75*
G02*
X139380500Y-82443500I0J-140000D01*
G01*
X139380500Y-82783500D01*
G75*
G02*
X139240500Y-82923500I-140000J0D01*
G01*
X138960500Y-82923500D01*
G75*
G02*
X138820500Y-82783500I0J140000D01*
G01*
G37*
%TD.AperFunction*%
%TO.P,C9,1*%
%TO.N,+3V3*%
%TA.AperFunction,SMDPad,CuDef*%
G36*
G01*
X137860500Y-82783500D02*
X137860500Y-82443500D01*
G75*
G02*
X138000500Y-82303500I140000J0D01*
G01*
X138280500Y-82303500D01*
G75*
G02*
X138420500Y-82443500I0J-140000D01*
G01*
X138420500Y-82783500D01*
G75*
G02*
X138280500Y-82923500I-140000J0D01*
G01*
X138000500Y-82923500D01*
G75*
G02*
X137860500Y-82783500I0J140000D01*
G01*
G37*
%TD.AperFunction*%
%TD*%
%TO.P,C8,2*%
%TO.N,GND*%
%TA.AperFunction,SMDPad,CuDef*%
G36*
G01*
X148039000Y-79257500D02*
X148379000Y-79257500D01*
G75*
G02*
X148519000Y-79397500I0J-140000D01*
G01*
X148519000Y-79677500D01*
G75*
G02*
X148379000Y-79817500I-140000J0D01*
G01*
X148039000Y-79817500D01*
G75*
G02*
X147899000Y-79677500I0J140000D01*
G01*
X147899000Y-79397500D01*
G75*
G02*
X148039000Y-79257500I140000J0D01*
G01*
G37*
%TD.AperFunction*%
%TO.P,C8,1*%
%TO.N,+3V3*%
%TA.AperFunction,SMDPad,CuDef*%
G36*
G01*
X148039000Y-78297500D02*
X148379000Y-78297500D01*
G75*
G02*
X148519000Y-78437500I0J-140000D01*
G01*
X148519000Y-78717500D01*
G75*
G02*
X148379000Y-78857500I-140000J0D01*
G01*
X148039000Y-78857500D01*
G75*
G02*
X147899000Y-78717500I0J140000D01*
G01*
X147899000Y-78437500D01*
G75*
G02*
X148039000Y-78297500I140000J0D01*
G01*
G37*
%TD.AperFunction*%
%TD*%
%TO.P,C7,2*%
%TO.N,GND*%
%TA.AperFunction,SMDPad,CuDef*%
G36*
G01*
X148229500Y-71320000D02*
X148569500Y-71320000D01*
G75*
G02*
X148709500Y-71460000I0J-140000D01*
G01*
X148709500Y-71740000D01*
G75*
G02*
X148569500Y-71880000I-140000J0D01*
G01*
X148229500Y-71880000D01*
G75*
G02*
X148089500Y-71740000I0J140000D01*
G01*
X148089500Y-71460000D01*
G75*
G02*
X148229500Y-71320000I140000J0D01*
G01*
G37*
%TD.AperFunction*%
%TO.P,C7,1*%
%TO.N,+3V3*%
%TA.AperFunction,SMDPad,CuDef*%
G36*
G01*
X148229500Y-70360000D02*
X148569500Y-70360000D01*
G75*
G02*
X148709500Y-70500000I0J-140000D01*
G01*
X148709500Y-70780000D01*
G75*
G02*
X148569500Y-70920000I-140000J0D01*
G01*
X148229500Y-70920000D01*
G75*
G02*
X148089500Y-70780000I0J140000D01*
G01*
X148089500Y-70500000D01*
G75*
G02*
X148229500Y-70360000I140000J0D01*
G01*
G37*
%TD.AperFunction*%
%TD*%
%TO.P,C6,2*%
%TO.N,GND*%
%TA.AperFunction,SMDPad,CuDef*%
G36*
G01*
X141170000Y-67099000D02*
X141170000Y-66759000D01*
G75*
G02*
X141310000Y-66619000I140000J0D01*
G01*
X141590000Y-66619000D01*
G75*
G02*
X141730000Y-66759000I0J-140000D01*
G01*
X141730000Y-67099000D01*
G75*
G02*
X141590000Y-67239000I-140000J0D01*
G01*
X141310000Y-67239000D01*
G75*
G02*
X141170000Y-67099000I0J140000D01*
G01*
G37*
%TD.AperFunction*%
%TO.P,C6,1*%
%TO.N,+3V3*%
%TA.AperFunction,SMDPad,CuDef*%
G36*
G01*
X140210000Y-67099000D02*
X140210000Y-66759000D01*
G75*
G02*
X140350000Y-66619000I140000J0D01*
G01*
X140630000Y-66619000D01*
G75*
G02*
X140770000Y-66759000I0J-140000D01*
G01*
X140770000Y-67099000D01*
G75*
G02*
X140630000Y-67239000I-140000J0D01*
G01*
X140350000Y-67239000D01*
G75*
G02*
X140210000Y-67099000I0J140000D01*
G01*
G37*
%TD.AperFunction*%
%TD*%
%TO.P,C5,2*%
%TO.N,GND*%
%TA.AperFunction,SMDPad,CuDef*%
G36*
G01*
X120659500Y-75036500D02*
X120659500Y-74696500D01*
G75*
G02*
X120799500Y-74556500I140000J0D01*
G01*
X121079500Y-74556500D01*
G75*
G02*
X121219500Y-74696500I0J-140000D01*
G01*
X121219500Y-75036500D01*
G75*
G02*
X121079500Y-75176500I-140000J0D01*
G01*
X120799500Y-75176500D01*
G75*
G02*
X120659500Y-75036500I0J140000D01*
G01*
G37*
%TD.AperFunction*%
%TO.P,C5,1*%
%TO.N,RESET*%
%TA.AperFunction,SMDPad,CuDef*%
G36*
G01*
X119699500Y-75036500D02*
X119699500Y-74696500D01*
G75*
G02*
X119839500Y-74556500I140000J0D01*
G01*
X120119500Y-74556500D01*
G75*
G02*
X120259500Y-74696500I0J-140000D01*
G01*
X120259500Y-75036500D01*
G75*
G02*
X120119500Y-75176500I-140000J0D01*
G01*
X119839500Y-75176500D01*
G75*
G02*
X119699500Y-75036500I0J140000D01*
G01*
G37*
%TD.AperFunction*%
%TD*%
%TO.P,C4,2*%
%TO.N,GND*%
%TA.AperFunction,SMDPad,CuDef*%
G36*
G01*
X119434000Y-67775000D02*
X119434000Y-68115000D01*
G75*
G02*
X119294000Y-68255000I-140000J0D01*
G01*
X119014000Y-68255000D01*
G75*
G02*
X118874000Y-68115000I0J140000D01*
G01*
X118874000Y-67775000D01*
G75*
G02*
X119014000Y-67635000I140000J0D01*
G01*
X119294000Y-67635000D01*
G75*
G02*
X119434000Y-67775000I0J-140000D01*
G01*
G37*
%TD.AperFunction*%
%TO.P,C4,1*%
%TO.N,+3V3*%
%TA.AperFunction,SMDPad,CuDef*%
G36*
G01*
X120394000Y-67775000D02*
X120394000Y-68115000D01*
G75*
G02*
X120254000Y-68255000I-140000J0D01*
G01*
X119974000Y-68255000D01*
G75*
G02*
X119834000Y-68115000I0J140000D01*
G01*
X119834000Y-67775000D01*
G75*
G02*
X119974000Y-67635000I140000J0D01*
G01*
X120254000Y-67635000D01*
G75*
G02*
X120394000Y-67775000I0J-140000D01*
G01*
G37*
%TD.AperFunction*%
%TD*%
%TO.P,C3,2*%
%TO.N,GND*%
%TA.AperFunction,SMDPad,CuDef*%
G36*
G01*
X127973000Y-69732500D02*
X128313000Y-69732500D01*
G75*
G02*
X128453000Y-69872500I0J-140000D01*
G01*
X128453000Y-70152500D01*
G75*
G02*
X128313000Y-70292500I-140000J0D01*
G01*
X127973000Y-70292500D01*
G75*
G02*
X127833000Y-70152500I0J140000D01*
G01*
X127833000Y-69872500D01*
G75*
G02*
X127973000Y-69732500I140000J0D01*
G01*
G37*
%TD.AperFunction*%
%TO.P,C3,1*%
%TO.N,XOUT32*%
%TA.AperFunction,SMDPad,CuDef*%
G36*
G01*
X127973000Y-68772500D02*
X128313000Y-68772500D01*
G75*
G02*
X128453000Y-68912500I0J-140000D01*
G01*
X128453000Y-69192500D01*
G75*
G02*
X128313000Y-69332500I-140000J0D01*
G01*
X127973000Y-69332500D01*
G75*
G02*
X127833000Y-69192500I0J140000D01*
G01*
X127833000Y-68912500D01*
G75*
G02*
X127973000Y-68772500I140000J0D01*
G01*
G37*
%TD.AperFunction*%
%TD*%
%TO.P,C2,2*%
%TO.N,GND*%
%TA.AperFunction,SMDPad,CuDef*%
G36*
G01*
X115198500Y-70210500D02*
X115198500Y-69870500D01*
G75*
G02*
X115338500Y-69730500I140000J0D01*
G01*
X115618500Y-69730500D01*
G75*
G02*
X115758500Y-69870500I0J-140000D01*
G01*
X115758500Y-70210500D01*
G75*
G02*
X115618500Y-70350500I-140000J0D01*
G01*
X115338500Y-70350500D01*
G75*
G02*
X115198500Y-70210500I0J140000D01*
G01*
G37*
%TD.AperFunction*%
%TO.P,C2,1*%
%TO.N,VDD*%
%TA.AperFunction,SMDPad,CuDef*%
G36*
G01*
X114238500Y-70210500D02*
X114238500Y-69870500D01*
G75*
G02*
X114378500Y-69730500I140000J0D01*
G01*
X114658500Y-69730500D01*
G75*
G02*
X114798500Y-69870500I0J-140000D01*
G01*
X114798500Y-70210500D01*
G75*
G02*
X114658500Y-70350500I-140000J0D01*
G01*
X114378500Y-70350500D01*
G75*
G02*
X114238500Y-70210500I0J140000D01*
G01*
G37*
%TD.AperFunction*%
%TD*%
%TO.P,C1,2*%
%TO.N,GND*%
%TA.AperFunction,SMDPad,CuDef*%
G36*
G01*
X125560000Y-69732500D02*
X125900000Y-69732500D01*
G75*
G02*
X126040000Y-69872500I0J-140000D01*
G01*
X126040000Y-70152500D01*
G75*
G02*
X125900000Y-70292500I-140000J0D01*
G01*
X125560000Y-70292500D01*
G75*
G02*
X125420000Y-70152500I0J140000D01*
G01*
X125420000Y-69872500D01*
G75*
G02*
X125560000Y-69732500I140000J0D01*
G01*
G37*
%TD.AperFunction*%
%TO.P,C1,1*%
%TO.N,XIN32*%
%TA.AperFunction,SMDPad,CuDef*%
G36*
G01*
X125560000Y-68772500D02*
X125900000Y-68772500D01*
G75*
G02*
X126040000Y-68912500I0J-140000D01*
G01*
X126040000Y-69192500D01*
G75*
G02*
X125900000Y-69332500I-140000J0D01*
G01*
X125560000Y-69332500D01*
G75*
G02*
X125420000Y-69192500I0J140000D01*
G01*
X125420000Y-68912500D01*
G75*
G02*
X125560000Y-68772500I140000J0D01*
G01*
G37*
%TD.AperFunction*%
%TD*%
D21*
%TO.N,GND*%
X152781000Y-73406000D03*
X141541500Y-67818000D03*
X147891500Y-66167000D03*
X147574000Y-71818500D03*
X127028000Y-70012500D03*
X118719500Y-80480000D03*
X122705501Y-75731999D03*
X102374500Y-69100500D03*
X102425500Y-74485500D03*
X136715500Y-74803000D03*
X153352500Y-78676500D03*
X144526000Y-78867000D03*
X157543500Y-78613000D03*
%TO.N,+3V3*%
X152781000Y-72136000D03*
X108331000Y-67310000D03*
X140271500Y-72199500D03*
X140490000Y-67790000D03*
X147447000Y-70802500D03*
X134239000Y-83185000D03*
X124587000Y-76327000D03*
X170942000Y-74422000D03*
X123698000Y-66548000D03*
X117919510Y-67309990D03*
X151130000Y-76517500D03*
%TO.N,RESET*%
X142684500Y-70612000D03*
X153162000Y-67754500D03*
X126545500Y-77480000D03*
%TO.N,VCC*%
X144970500Y-67564000D03*
X141605000Y-70612000D03*
%TO.N,D+*%
X108648500Y-74993500D03*
X140462000Y-73215500D03*
%TO.N,D-*%
X105854500Y-74422000D03*
X140462000Y-74231500D03*
%TO.N,SDDAT[2]*%
X138239500Y-78930500D03*
%TO.N,SDDAT[3]*%
X140779500Y-78740000D03*
%TO.N,SDCMD*%
X167068500Y-79692500D03*
X166306500Y-75438000D03*
X135763000Y-82042000D03*
%TO.N,SDCK*%
X142113000Y-78994000D03*
%TO.N,SDDAT[0]*%
X165862000Y-79692500D03*
X165354000Y-71056500D03*
X136969500Y-82169000D03*
%TO.N,SDDAT[1]*%
X164719000Y-79692500D03*
X164147500Y-70040500D03*
X136779000Y-78930500D03*
%TO.N,SDCD*%
X135890000Y-78105000D03*
%TO.N,SWCLK*%
X153162000Y-68897500D03*
X148145500Y-69088000D03*
%TO.N,SWDIO*%
X153162000Y-70104000D03*
X147066000Y-69850000D03*
%TD*%
D22*
%TO.N,GND*%
X125730000Y-70012500D02*
X127028000Y-70012500D01*
X128115000Y-70012500D02*
X128143000Y-70040500D01*
X115478500Y-70040500D02*
X116050000Y-70612000D01*
X116050000Y-70612000D02*
X118110000Y-70612000D01*
X107140000Y-71689500D02*
X107140000Y-71008500D01*
X107140000Y-71008500D02*
X106616500Y-70485000D01*
X102425500Y-70485000D02*
X102425500Y-74485500D01*
X102425500Y-78740000D02*
X102489000Y-78803500D01*
X102489000Y-78803500D02*
X106553000Y-78803500D01*
X106553000Y-78803500D02*
X107124500Y-78232000D01*
X107124500Y-78232000D02*
X107124500Y-77978000D01*
X107140000Y-78089500D02*
X110886500Y-78089500D01*
X110886500Y-78089500D02*
X112289510Y-76686490D01*
X112289510Y-76686490D02*
X112712500Y-76263500D01*
X112714500Y-73723500D02*
X112714500Y-76261500D01*
X119154000Y-69974002D02*
X118579502Y-70548500D01*
X119154000Y-67945000D02*
X119154000Y-69974002D01*
X118579502Y-70548500D02*
X118237000Y-70548500D01*
X118869500Y-70548500D02*
X118089500Y-70548500D01*
X118944501Y-70623501D02*
X118869500Y-70548500D01*
X118944501Y-72083501D02*
X118944501Y-70623501D01*
X113478490Y-72639510D02*
X118388492Y-72639510D01*
X118388492Y-72639510D02*
X118944501Y-72083501D01*
X112714500Y-73403500D02*
X113478490Y-72639510D01*
X112714500Y-73723500D02*
X112714500Y-73403500D01*
X115168500Y-80480000D02*
X118719500Y-80480000D01*
X115168500Y-80480000D02*
X112712500Y-78024000D01*
X112712500Y-78024000D02*
X112712500Y-76200000D01*
X121840002Y-74866500D02*
X122705501Y-75731999D01*
X120939500Y-74866500D02*
X121840002Y-74866500D01*
X131790500Y-73942000D02*
X131953000Y-74104500D01*
X131953000Y-74104500D02*
X134429500Y-74104500D01*
X139100500Y-81474702D02*
X138938000Y-81312202D01*
X139100500Y-82613500D02*
X139100500Y-81474702D01*
X138938000Y-81312202D02*
X138938000Y-80645000D01*
X131762500Y-74005500D02*
X129187000Y-74005500D01*
X141450000Y-66929000D02*
X141450000Y-67782500D01*
X154114500Y-74676000D02*
X154114500Y-73406000D01*
X146974500Y-66802000D02*
X146974500Y-67592000D01*
X141450000Y-67782500D02*
X141450000Y-69134510D01*
X146974500Y-67592000D02*
X146974500Y-68298000D01*
X145870500Y-78616500D02*
X147133000Y-78616500D01*
X147133000Y-78616500D02*
X148082000Y-79565500D01*
X153860500Y-73406000D02*
X152654000Y-73406000D01*
X146038500Y-71616500D02*
X146063490Y-71641490D01*
X146063490Y-71641490D02*
X146761990Y-71641490D01*
X145870500Y-71616500D02*
X146038500Y-71616500D01*
X146761990Y-71641490D02*
X146875500Y-71755000D01*
X146875500Y-71755000D02*
X147574000Y-71755000D01*
X148209000Y-71755000D02*
X148336000Y-71628000D01*
X147574000Y-71755000D02*
X148209000Y-71755000D01*
X127028000Y-70012500D02*
X128115000Y-70012500D01*
X118719500Y-80480000D02*
X122275500Y-80480000D01*
X107171750Y-77789500D02*
X107171750Y-77930750D01*
X102374500Y-69100500D02*
X102374500Y-69100500D01*
X102374500Y-67627500D02*
X102374500Y-69100500D01*
X103759000Y-70485000D02*
X102425500Y-70485000D01*
X106616500Y-70485000D02*
X103759000Y-70485000D01*
X102374500Y-69100500D02*
X103759000Y-70485000D01*
X102425500Y-74485500D02*
X102425500Y-78740000D01*
X134545500Y-74116500D02*
X136029000Y-74116500D01*
X136029000Y-74116500D02*
X136715500Y-74803000D01*
X136715500Y-74803000D02*
X136715500Y-74803000D01*
X138964501Y-77052001D02*
X136715500Y-74803000D01*
X138964501Y-79446477D02*
X138964501Y-77052001D01*
X138958000Y-79452978D02*
X138964501Y-79446477D01*
X138958000Y-80529000D02*
X138958000Y-79452978D01*
X144713000Y-78616500D02*
X144526000Y-78803500D01*
X145870500Y-78616500D02*
X144713000Y-78616500D01*
X157480000Y-78676500D02*
X157543500Y-78613000D01*
X153352500Y-78676500D02*
X157480000Y-78676500D01*
X147256500Y-66802000D02*
X147891500Y-66167000D01*
X146974500Y-66802000D02*
X147256500Y-66802000D01*
%TO.N,XIN32*%
X125730000Y-69052500D02*
X126520000Y-68262500D01*
X126520000Y-68262500D02*
X131191000Y-68262500D01*
X132277500Y-68219000D02*
X134366000Y-70307500D01*
X131127500Y-68219000D02*
X132277500Y-68219000D01*
X134366000Y-70307500D02*
X134366000Y-71141490D01*
%TO.N,VDD*%
X114843510Y-69405490D02*
X117792490Y-69405490D01*
X114518500Y-69730500D02*
X114843510Y-69405490D01*
X114518500Y-70040500D02*
X114518500Y-69730500D01*
X117792490Y-69405490D02*
X118046500Y-69659500D01*
X114488500Y-71501000D02*
X114488500Y-70106000D01*
X106429498Y-72390000D02*
X107315000Y-72390000D01*
X105092500Y-73723500D02*
X106429498Y-72390000D01*
X105092500Y-75628500D02*
X105092500Y-73723500D01*
X106315000Y-76989500D02*
X105092500Y-75628500D01*
X107140000Y-76989500D02*
X106315000Y-76989500D01*
X107140000Y-72189500D02*
X112151054Y-72189500D01*
X112151054Y-72189500D02*
X113738500Y-72189500D01*
X113738500Y-72189500D02*
X114427000Y-71501000D01*
X107140000Y-72489500D02*
X107140000Y-72215000D01*
X107140000Y-76989500D02*
X107140000Y-77314499D01*
%TO.N,XOUT32*%
X128453000Y-69052500D02*
X130076000Y-70675500D01*
X128143000Y-69052500D02*
X128453000Y-69052500D01*
X130076000Y-70675500D02*
X131127500Y-70675500D01*
X131127500Y-70719000D02*
X131869500Y-70719000D01*
X131869500Y-70719000D02*
X132123500Y-70719000D01*
X132123500Y-70719000D02*
X133032500Y-71628000D01*
X133032500Y-71628000D02*
X133068990Y-71591510D01*
X133068990Y-71591510D02*
X133717308Y-71591510D01*
X133717308Y-71591510D02*
X134683500Y-71591510D01*
%TO.N,+3V3*%
X120114000Y-67945000D02*
X120114000Y-69568000D01*
X119486616Y-67309990D02*
X117919510Y-67309990D01*
X120114000Y-67937374D02*
X119486616Y-67309990D01*
X120114000Y-67945000D02*
X120114000Y-67937374D01*
X106997510Y-67309990D02*
X106680000Y-67627500D01*
X121144501Y-72083501D02*
X121144501Y-70471501D01*
X121079501Y-72148501D02*
X121144501Y-72083501D01*
X119553499Y-72148501D02*
X121079501Y-72148501D01*
X117155500Y-74546500D02*
X119553499Y-72148501D01*
X117155500Y-74866500D02*
X117155500Y-74546500D01*
X121144501Y-70471501D02*
X120269000Y-69596000D01*
X140490000Y-68361500D02*
X140462000Y-68389500D01*
X140490000Y-66929000D02*
X140490000Y-67790000D01*
X140462000Y-68389500D02*
X140462000Y-69405500D01*
X138140500Y-82613500D02*
X138482990Y-82271010D01*
X138482990Y-82271010D02*
X138482990Y-81357192D01*
X138482990Y-81357192D02*
X138482990Y-80581500D01*
X120289500Y-69598500D02*
X120289500Y-69616500D01*
X120289500Y-69616500D02*
X125158500Y-74485500D01*
X145870500Y-78116500D02*
X147649000Y-78116500D01*
X147649000Y-78116500D02*
X148145500Y-78613000D01*
X153860500Y-72136000D02*
X152654000Y-72136000D01*
X140490000Y-67790000D02*
X140490000Y-68361500D01*
X140783178Y-72136000D02*
X140947699Y-72300521D01*
X140462000Y-72136000D02*
X140783178Y-72136000D01*
X140947699Y-72300521D02*
X143475300Y-72300520D01*
X143475300Y-72300520D02*
X144654410Y-71121410D01*
X144654410Y-71121410D02*
X144655820Y-71120000D01*
X144655820Y-71120000D02*
X145478500Y-71120000D01*
X145870500Y-71116500D02*
X147133000Y-71116500D01*
X147133000Y-71116500D02*
X147447000Y-70802500D01*
X147637500Y-70612000D02*
X148336000Y-70612000D01*
X147447000Y-70802500D02*
X147637500Y-70612000D01*
X137354599Y-82798491D02*
X136968090Y-83185000D01*
X137955510Y-82798490D02*
X137354599Y-82798491D01*
X138140500Y-82613500D02*
X137955510Y-82798490D01*
X136968090Y-83185000D02*
X134239000Y-83185000D01*
X134239000Y-83185000D02*
X134239000Y-83185000D01*
X139736999Y-74579501D02*
X139736999Y-72861001D01*
X143249008Y-78091510D02*
X139736999Y-74579501D01*
X145846010Y-78091510D02*
X143249008Y-78091510D01*
X145870500Y-78116000D02*
X145846010Y-78091510D01*
X139736999Y-72861001D02*
X140462000Y-72136000D01*
X145870500Y-78116500D02*
X145870500Y-78116000D01*
X125196500Y-74485500D02*
X125196500Y-75717500D01*
X125196500Y-75717500D02*
X124587000Y-76327000D01*
X124587000Y-76327000D02*
X124587000Y-76327000D01*
X165100000Y-83883500D02*
X170942000Y-78041500D01*
X170942000Y-78041500D02*
X170942000Y-74422000D01*
X170942000Y-74422000D02*
X170942000Y-74422000D01*
X140462000Y-72136000D02*
X137604500Y-72136000D01*
X137604500Y-72136000D02*
X132016500Y-66548000D01*
X132016500Y-66548000D02*
X123698000Y-66548000D01*
X123698000Y-66548000D02*
X123698000Y-66548000D01*
X117919510Y-67309990D02*
X106997510Y-67309990D01*
X156845000Y-84074000D02*
X151130000Y-78359000D01*
X165100000Y-86360000D02*
X165100000Y-84074000D01*
X165100000Y-84074000D02*
X156845000Y-84074000D01*
X165100000Y-84074000D02*
X165100000Y-83883500D01*
X151130000Y-78359000D02*
X151130000Y-76517500D01*
X151130000Y-76517500D02*
X151130000Y-76517500D01*
%TO.N,RESET*%
X118175500Y-74866500D02*
X120015000Y-74866500D01*
X120015000Y-74909626D02*
X122428000Y-77322626D01*
X120015000Y-74866500D02*
X120015000Y-74909626D01*
X115168500Y-77480000D02*
X122291000Y-77480000D01*
X156405511Y-75940989D02*
X156405511Y-70490011D01*
X155130500Y-77216000D02*
X156405511Y-75940989D01*
X156405511Y-70490011D02*
X153670000Y-67754500D01*
X153670000Y-67754500D02*
X153162000Y-67754500D01*
X153162000Y-67754500D02*
X153162000Y-67754500D01*
X142458000Y-70512500D02*
X142621000Y-70675500D01*
X142458000Y-69204000D02*
X142458000Y-70512500D01*
X122368500Y-77480000D02*
X126545500Y-77480000D01*
X126545500Y-77480000D02*
X126545500Y-77480000D01*
X142557500Y-70612000D02*
X142458000Y-70512500D01*
X142684500Y-70612000D02*
X142557500Y-70612000D01*
%TO.N,VDDA*%
X132397500Y-74866500D02*
X132622510Y-74641490D01*
X132622510Y-74641490D02*
X133717308Y-74641490D01*
X133717308Y-74641490D02*
X134556500Y-74641490D01*
X132397500Y-74866500D02*
X131826000Y-74866500D01*
X131762500Y-74965500D02*
X129187000Y-74965500D01*
X129159000Y-74965500D02*
X127353000Y-74965500D01*
X127353000Y-74965500D02*
X126873000Y-74485500D01*
%TO.N,VCC*%
X146014500Y-66802000D02*
X146014500Y-68290500D01*
X145732500Y-68326000D02*
X144970500Y-67564000D01*
X146014500Y-68326000D02*
X145732500Y-68326000D01*
X145732500Y-66802000D02*
X144970500Y-67564000D01*
X146014500Y-66802000D02*
X145732500Y-66802000D01*
X141668500Y-70675500D02*
X141933010Y-70410990D01*
X141933010Y-70410990D02*
X141933010Y-70032192D01*
X141933010Y-70032192D02*
X141933010Y-69469000D01*
X141732000Y-70612000D02*
X141933010Y-70410990D01*
X141605000Y-70612000D02*
X141732000Y-70612000D01*
%TO.N,Net-(D1-Pad2)*%
X103949500Y-67627500D02*
X105537000Y-67627500D01*
%TO.N,PA27*%
X142958000Y-69204000D02*
X142958000Y-64154500D01*
X142958000Y-64154500D02*
X142303500Y-63500000D01*
%TO.N,PA23*%
X149161500Y-72763500D02*
X149161500Y-64198500D01*
X149161500Y-64198500D02*
X149669500Y-63690500D01*
X148808500Y-73116500D02*
X149161500Y-72763500D01*
X145870500Y-73116500D02*
X148808500Y-73116500D01*
%TO.N,PA22*%
X148944910Y-73616500D02*
X149611510Y-72949900D01*
X145870500Y-73616500D02*
X148944910Y-73616500D01*
X149611510Y-72949900D02*
X149611510Y-65907490D01*
X149611510Y-65907490D02*
X151955500Y-63563500D01*
%TO.N,PA21*%
X150061520Y-73136300D02*
X150061520Y-66093890D01*
X149081320Y-74116500D02*
X150061520Y-73136300D01*
X145870500Y-74116500D02*
X149081320Y-74116500D01*
X150061520Y-66093890D02*
X151003705Y-65151705D01*
X152487297Y-65151705D02*
X153948502Y-63690500D01*
X151003705Y-65151705D02*
X152487297Y-65151705D01*
X153948502Y-63690500D02*
X154813000Y-63690500D01*
%TO.N,PA20*%
X149217730Y-74616500D02*
X150511530Y-73322700D01*
X145870500Y-74616500D02*
X149217730Y-74616500D01*
X150511530Y-73322700D02*
X150511530Y-66357500D01*
X151250785Y-65601715D02*
X155441785Y-65601715D01*
X150511530Y-66340970D02*
X151250785Y-65601715D01*
X150511530Y-66357500D02*
X150511530Y-66340970D01*
X155441785Y-65601715D02*
X157353000Y-63690500D01*
%TO.N,PA19*%
X149626960Y-76116500D02*
X151955500Y-73787960D01*
X145870500Y-76116500D02*
X149626960Y-76116500D01*
X151955500Y-73787960D02*
X151955500Y-67119500D01*
X152059758Y-66951742D02*
X156000988Y-66951742D01*
X151955500Y-67056000D02*
X152059758Y-66951742D01*
X151955500Y-67119500D02*
X151955500Y-67056000D01*
X156000988Y-66951742D02*
X157377709Y-65575021D01*
X157377709Y-65575021D02*
X159216390Y-65575020D01*
X159666399Y-65125011D02*
X161063400Y-65125010D01*
X159216390Y-65575020D02*
X159666399Y-65125011D01*
X161513409Y-64675001D02*
X163289999Y-64675001D01*
X161063400Y-65125010D02*
X161513409Y-64675001D01*
X163289999Y-64675001D02*
X164465000Y-63500000D01*
%TO.N,PA18*%
X145870500Y-76616500D02*
X148562000Y-76616500D01*
X157130499Y-85184999D02*
X159162499Y-85184999D01*
X148562000Y-76616500D02*
X157130499Y-85184999D01*
X159162499Y-85184999D02*
X159829500Y-85852000D01*
%TO.N,PA17*%
X148352036Y-77116500D02*
X157405036Y-86169500D01*
X145870500Y-77116500D02*
X148352036Y-77116500D01*
%TO.N,PA16*%
X148215626Y-77616500D02*
X149479000Y-78879874D01*
X145870500Y-77616500D02*
X148215626Y-77616500D01*
X149479000Y-78879874D02*
X149479000Y-80645000D01*
X149479000Y-80645000D02*
X155003500Y-86169500D01*
%TO.N,PA15*%
X143958000Y-80529000D02*
X143958000Y-82168270D01*
X143958000Y-82168270D02*
X146110810Y-84321080D01*
X146110810Y-84321080D02*
X150615080Y-84321080D01*
X150615080Y-84321080D02*
X152400000Y-86106000D01*
%TO.N,PA14*%
X145923000Y-84769680D02*
X145923000Y-84771090D01*
X143458000Y-82304680D02*
X145923000Y-84769680D01*
X143458000Y-80529000D02*
X143458000Y-82304680D01*
X145923000Y-84771090D02*
X148207590Y-84771090D01*
X148207590Y-84771090D02*
X149606000Y-86169500D01*
%TO.N,PA13*%
X142958000Y-82441090D02*
X145293509Y-84776599D01*
X142958000Y-80529000D02*
X142958000Y-82441090D01*
X145293509Y-84776599D02*
X145293509Y-84778009D01*
X145293509Y-84778009D02*
X146875500Y-86360000D01*
%TO.N,PA12*%
X142458000Y-80529000D02*
X142458000Y-82577500D01*
X142458000Y-82577500D02*
X144843500Y-84963000D01*
X144843500Y-84963000D02*
X144843500Y-85852000D01*
%TO.N,PA07*%
X134545500Y-78616500D02*
X133537000Y-78616500D01*
X133537000Y-78616500D02*
X132143500Y-80010000D01*
X132143500Y-80010000D02*
X132143500Y-86487000D01*
%TO.N,PA05*%
X133465960Y-77616500D02*
X133140410Y-77942050D01*
X133140410Y-77942050D02*
X130535500Y-77942050D01*
X134545500Y-77616500D02*
X133465960Y-77616500D01*
X130535500Y-77942050D02*
X129603500Y-78874050D01*
X129603500Y-78874050D02*
X129603500Y-86487000D01*
%TO.N,PA04*%
X132954010Y-77492040D02*
X130349100Y-77492040D01*
X133329550Y-77116500D02*
X132954010Y-77492040D01*
X134545500Y-77116500D02*
X133329550Y-77116500D01*
X130349100Y-77492040D02*
X127000000Y-80841140D01*
X127000000Y-80841140D02*
X127000000Y-86296500D01*
%TO.N,PA03*%
X132450946Y-72453500D02*
X125035730Y-72453500D01*
X132613946Y-72616500D02*
X132450946Y-72453500D01*
X134545500Y-72616500D02*
X132613946Y-72616500D01*
X125035730Y-72453500D02*
X122312018Y-69729788D01*
X122312018Y-69729788D02*
X122312018Y-64082518D01*
X122312018Y-64082518D02*
X121920000Y-63690500D01*
%TO.N,PA02*%
X132637346Y-72003490D02*
X125222130Y-72003490D01*
X132750356Y-72116500D02*
X132637346Y-72003490D01*
X134545500Y-72116500D02*
X132750356Y-72116500D01*
X125222130Y-72003490D02*
X122762028Y-69543388D01*
X122762028Y-69543388D02*
X122762028Y-65578972D01*
X122762028Y-65578972D02*
X124587000Y-63754000D01*
%TO.N,Net-(J2-PadB5)*%
X107140000Y-76489500D02*
X111470500Y-76489500D01*
X111470500Y-76489500D02*
X111633000Y-76327000D01*
%TO.N,D+*%
X144295730Y-72116500D02*
X143323730Y-73088500D01*
X145870500Y-72116500D02*
X144295730Y-72116500D01*
X143323730Y-73088500D02*
X143323730Y-73088500D01*
X140652500Y-73088500D02*
X140462000Y-73279000D01*
X143323730Y-73088500D02*
X140652500Y-73088500D01*
X108040001Y-75399501D02*
X107925003Y-75514499D01*
X107950002Y-74489500D02*
X108040001Y-74579499D01*
X107140000Y-74489500D02*
X107950002Y-74489500D01*
X107925003Y-75514499D02*
X107061000Y-75514499D01*
X108040001Y-75030499D02*
X108611501Y-75030499D01*
X108040001Y-74579499D02*
X108040001Y-75030499D01*
X108611501Y-75030499D02*
X108648500Y-74993500D01*
X108040001Y-75030499D02*
X108040001Y-75399501D01*
%TO.N,D-*%
X144432140Y-72616500D02*
X143510130Y-73538510D01*
X145870500Y-72616500D02*
X144432140Y-72616500D01*
X143510130Y-73538510D02*
X141662990Y-73538510D01*
X140970000Y-74231500D02*
X140462000Y-74231500D01*
X141662990Y-73538510D02*
X140970000Y-74231500D01*
X106239999Y-74870999D02*
X106383499Y-75014499D01*
X106315000Y-73989500D02*
X106239999Y-74064501D01*
X107140000Y-73989500D02*
X106315000Y-73989500D01*
X106383499Y-75014499D02*
X106743500Y-75014499D01*
X105854500Y-74422000D02*
X106172000Y-74422000D01*
X106172000Y-74422000D02*
X106239999Y-74354001D01*
X106239999Y-74354001D02*
X106239999Y-74870999D01*
X106239999Y-74064501D02*
X106239999Y-74354001D01*
%TO.N,Net-(J2-PadA5)*%
X107140000Y-73489500D02*
X111399000Y-73489500D01*
X111399000Y-73489500D02*
X111633000Y-73723500D01*
%TO.N,SDDAT[2]*%
X137958000Y-79212000D02*
X138239500Y-78930500D01*
X137958000Y-80529000D02*
X137958000Y-79212000D01*
%TO.N,SDDAT[3]*%
X140307388Y-78740000D02*
X140779500Y-78740000D01*
X139458000Y-79589388D02*
X140307388Y-78740000D01*
X139458000Y-80529000D02*
X139458000Y-79589388D01*
%TO.N,SDCMD*%
X136458000Y-81347000D02*
X135763000Y-82042000D01*
X136458000Y-80529000D02*
X136458000Y-81347000D01*
X167068500Y-79692500D02*
X167068500Y-78930500D01*
X166306500Y-78168500D02*
X166306500Y-75438000D01*
X167068500Y-78930500D02*
X166306500Y-78168500D01*
%TO.N,SDCK*%
X139958000Y-79725798D02*
X140217308Y-79466490D01*
X139958000Y-80529000D02*
X139958000Y-79725798D01*
X140217308Y-79466490D02*
X141640510Y-79466490D01*
X141640510Y-79466490D02*
X142113000Y-78994000D01*
X142113000Y-78994000D02*
X142113000Y-78994000D01*
%TO.N,SDDAT[0]*%
X136958000Y-82157500D02*
X136969500Y-82169000D01*
X136958000Y-80529000D02*
X136958000Y-82157500D01*
X165862000Y-79692500D02*
X165862000Y-78803500D01*
X165354000Y-78295500D02*
X165354000Y-71056500D01*
X165862000Y-78803500D02*
X165354000Y-78295500D01*
%TO.N,SDDAT[1]*%
X164719000Y-79692500D02*
X164719000Y-72136000D01*
X164147500Y-71564500D02*
X164147500Y-70040500D01*
X164719000Y-72136000D02*
X164147500Y-71564500D01*
X137458000Y-79609500D02*
X136779000Y-78930500D01*
X137458000Y-80529000D02*
X137458000Y-79609500D01*
%TO.N,SDCD*%
X135878500Y-78116500D02*
X135890000Y-78105000D01*
X134545500Y-78116500D02*
X135878500Y-78116500D01*
%TO.N,PB31*%
X138458000Y-69204000D02*
X138458000Y-64988500D01*
X138458000Y-64988500D02*
X137160000Y-63690500D01*
%TO.N,PB30*%
X138958000Y-69204000D02*
X138958000Y-64305500D01*
X138958000Y-64305500D02*
X139763500Y-63500000D01*
%TO.N,PB23*%
X143458000Y-69204000D02*
X143458000Y-64885500D01*
X143458000Y-64885500D02*
X144589500Y-63754000D01*
%TO.N,PB22*%
X143958000Y-69204000D02*
X143958000Y-66925500D01*
X143958000Y-66925500D02*
X147256500Y-63627000D01*
%TO.N,PB17*%
X149354140Y-75116500D02*
X150961540Y-73509100D01*
X145870500Y-75116500D02*
X149354140Y-75116500D01*
X150961540Y-73509100D02*
X150961540Y-67351460D01*
X151499275Y-66051725D02*
X155628186Y-66051724D01*
X150961540Y-66589460D02*
X151499275Y-66051725D01*
X150961540Y-67351460D02*
X150961540Y-66589460D01*
X155628186Y-66051724D02*
X156909205Y-64770705D01*
X157004909Y-64675001D02*
X158781499Y-64675001D01*
X156909205Y-64770705D02*
X157004909Y-64675001D01*
X158781499Y-64675001D02*
X159639000Y-63817500D01*
%TO.N,PB16*%
X151411550Y-73695500D02*
X151411550Y-67537860D01*
X149490550Y-75616500D02*
X151411550Y-73695500D01*
X145870500Y-75616500D02*
X149490550Y-75616500D01*
X151411550Y-66775860D02*
X151685677Y-66501733D01*
X151411550Y-67537860D02*
X151411550Y-66775860D01*
X157191309Y-65125011D02*
X159029989Y-65125011D01*
X155814587Y-66501733D02*
X157191309Y-65125011D01*
X151685677Y-66501733D02*
X155814587Y-66501733D01*
X159479999Y-64675001D02*
X160876999Y-64675001D01*
X159029989Y-65125011D02*
X159479999Y-64675001D01*
X160876999Y-64675001D02*
X162115500Y-63436500D01*
%TO.N,PB15*%
X141933010Y-80529490D02*
X141933010Y-86116510D01*
X141933500Y-80529000D02*
X141933010Y-80529490D01*
X141958000Y-80529000D02*
X141933500Y-80529000D01*
X141933010Y-86116510D02*
X142113000Y-86296500D01*
%TO.N,PB14*%
X141458000Y-82496446D02*
X139763500Y-84190946D01*
X141458000Y-80529000D02*
X141458000Y-82496446D01*
X139763500Y-84190946D02*
X139763500Y-86106000D01*
%TO.N,PB13*%
X140958000Y-82360036D02*
X139619526Y-83698510D01*
X140958000Y-80529000D02*
X140958000Y-82360036D01*
X139619526Y-83698510D02*
X139376990Y-83698510D01*
X139376990Y-83698510D02*
X137160000Y-85915500D01*
%TO.N,PB12*%
X140433010Y-80800990D02*
X140433010Y-81626490D01*
X140458000Y-80776000D02*
X140433010Y-80800990D01*
X140458000Y-80529000D02*
X140458000Y-80776000D01*
X140433010Y-82248616D02*
X139433126Y-83248500D01*
X140433010Y-81626490D02*
X140433010Y-82248616D01*
X139433126Y-83248500D02*
X137541000Y-83248500D01*
X137541000Y-83248500D02*
X134683500Y-86106000D01*
%TO.N,PB09*%
X132767610Y-77042030D02*
X130162700Y-77042030D01*
X133193140Y-76616500D02*
X132767610Y-77042030D01*
X134545500Y-76616500D02*
X133193140Y-76616500D01*
X130162700Y-77042030D02*
X124523500Y-82681230D01*
X124523500Y-82681230D02*
X124523500Y-86360000D01*
%TO.N,PB08*%
X133056730Y-76116500D02*
X132581210Y-76592020D01*
X134545500Y-76116500D02*
X133056730Y-76116500D01*
X132581210Y-76592020D02*
X129976300Y-76592020D01*
X129976300Y-76592020D02*
X121983500Y-84584820D01*
X121983500Y-84584820D02*
X121983500Y-86296500D01*
%TO.N,PB07*%
X132394810Y-76142010D02*
X129789900Y-76142010D01*
X132920320Y-75616500D02*
X132394810Y-76142010D01*
X134545500Y-75616500D02*
X132920320Y-75616500D01*
X129789900Y-76142010D02*
X123122400Y-82809510D01*
X123122400Y-82809510D02*
X120771490Y-82809510D01*
X120771490Y-82809510D02*
X120326990Y-82809510D01*
X120326990Y-82809510D02*
X119443500Y-83693000D01*
X119443500Y-83693000D02*
X119443500Y-85979000D01*
%TO.N,PB06*%
X132783910Y-75116500D02*
X132208410Y-75692000D01*
X134545500Y-75116500D02*
X132783910Y-75116500D01*
X132208410Y-75692000D02*
X129603500Y-75692000D01*
X129603500Y-75692000D02*
X122936000Y-82359500D01*
X122936000Y-82359500D02*
X118745000Y-82359500D01*
X118745000Y-82359500D02*
X118618000Y-82359500D01*
X118618000Y-82359500D02*
X116967000Y-84010500D01*
X116967000Y-84010500D02*
X116967000Y-86296500D01*
%TO.N,PB05*%
X132125116Y-73400490D02*
X124709900Y-73400490D01*
X132341126Y-73616500D02*
X132125116Y-73400490D01*
X134545500Y-73616500D02*
X132341126Y-73616500D01*
X124709900Y-73400490D02*
X121412000Y-70102590D01*
X121412000Y-70102590D02*
X121412000Y-67818000D01*
X121412000Y-67818000D02*
X117411500Y-63817500D01*
X117411500Y-63817500D02*
X116840000Y-63817500D01*
%TO.N,PB04*%
X132477536Y-73116500D02*
X132311516Y-72950480D01*
X134545500Y-73116500D02*
X132477536Y-73116500D01*
X132311516Y-72950480D02*
X124896300Y-72950480D01*
X121862010Y-69916190D02*
X121862009Y-67631599D01*
X124896300Y-72950480D02*
X121862010Y-69916190D01*
X121862009Y-67631599D02*
X119189500Y-64959090D01*
X119189500Y-64959090D02*
X119189500Y-63627000D01*
%TO.N,PB03*%
X136458000Y-69204000D02*
X136458000Y-67372820D01*
X132850199Y-65606519D02*
X132368691Y-65125011D01*
X134691700Y-65606520D02*
X132850199Y-65606519D01*
X136458000Y-67372820D02*
X134691700Y-65606520D01*
X129381501Y-64675001D02*
X127921001Y-64675001D01*
X129831511Y-65125011D02*
X129381501Y-64675001D01*
X132368691Y-65125011D02*
X129831511Y-65125011D01*
X127921001Y-64675001D02*
X127063500Y-63817500D01*
%TO.N,PB02*%
X136958000Y-69204000D02*
X136958000Y-67236410D01*
X136958000Y-67236410D02*
X134878100Y-65156510D01*
X132555091Y-64675001D02*
X130524501Y-64675001D01*
X133036600Y-65156510D02*
X132555091Y-64675001D01*
X134878100Y-65156510D02*
X133036600Y-65156510D01*
X130524501Y-64675001D02*
X129540000Y-63690500D01*
%TO.N,PB01*%
X137458000Y-69204000D02*
X137458000Y-67100000D01*
X137458000Y-67100000D02*
X135064500Y-64706500D01*
X135064500Y-64706500D02*
X133223000Y-64706500D01*
X133223000Y-64706500D02*
X132143500Y-63627000D01*
%TO.N,PB00*%
X137982990Y-69195510D02*
X137982990Y-66926490D01*
X137974500Y-69204000D02*
X137982990Y-69195510D01*
X137958000Y-69204000D02*
X137974500Y-69204000D01*
X137982990Y-66926490D02*
X134556500Y-63500000D01*
%TO.N,SWCLK*%
X155955501Y-72580999D02*
X155955501Y-71310001D01*
X155130500Y-73406000D02*
X155955501Y-72580999D01*
X155955501Y-71310001D02*
X153543000Y-68897500D01*
X153543000Y-68897500D02*
X153162000Y-68897500D01*
X153162000Y-68897500D02*
X153162000Y-68897500D01*
X139958000Y-70038002D02*
X141320499Y-71400501D01*
X141320499Y-71400501D02*
X142975499Y-71400501D01*
X139958000Y-69204000D02*
X139958000Y-70038002D01*
X144198692Y-70266510D02*
X144653000Y-69812202D01*
X144109490Y-70266510D02*
X144198692Y-70266510D01*
X142975499Y-71400501D02*
X144109490Y-70266510D01*
X144653000Y-69812202D02*
X144690798Y-69812202D01*
X144690798Y-69812202D02*
X145415000Y-69088000D01*
X145415000Y-69088000D02*
X148145500Y-69088000D01*
X148145500Y-69088000D02*
X148145500Y-69088000D01*
%TO.N,SWDIO*%
X155130500Y-71428894D02*
X153805606Y-70104000D01*
X155130500Y-72136000D02*
X155130500Y-71428894D01*
X153805606Y-70104000D02*
X153162000Y-70104000D01*
X153162000Y-70104000D02*
X153162000Y-70104000D01*
X141134099Y-71850511D02*
X143288899Y-71850511D01*
X139458000Y-70174412D02*
X141134099Y-71850511D01*
X139458000Y-69204000D02*
X139458000Y-70174412D01*
X143288899Y-71850511D02*
X145289410Y-69850000D01*
X145289410Y-69850000D02*
X147066000Y-69850000D01*
X147066000Y-69850000D02*
X147066000Y-69850000D01*
%TO.N,Net-(R3-Pad1)*%
X115508500Y-71501000D02*
X118110000Y-71501000D01*
%TD*%
M02*
