%FSLAX45Y45*%
G04 Gerber Fmt 4.5, Leading zero omitted, Abs format (unit mm)*
G04 Created by KiCad (PCBNEW 5.1.9+dfsg1-1) date 2022-01-14 18:58:47*
%MOMM*%
%LPD*%
G01*
G04 APERTURE LIST*
%TA.AperFunction,Profile*%
%ADD10C,0.050000*%
%TD*%
%ADD11C,0.200000*%
%ADD12C,0.300000*%
G04 APERTURE END LIST*
D10*
X10096500Y-8826500D02*
X10096500Y-6159500D01*
X10096500Y-8826500D02*
X17335500Y-8826500D01*
X17335500Y-8826500D02*
X17335500Y-6159500D01*
X10096500Y-6159500D02*
X17335500Y-6159500D01*
D11*
X10574000Y-7152450D02*
X10639000Y-7217450D01*
X10639000Y-7152450D02*
X10574000Y-7217450D01*
X10606500Y-7162450D02*
X10606500Y-7162450D01*
X10606500Y-7207450D02*
X10606500Y-7207450D01*
X10606500Y-7162450D02*
G75*
G03*
X10606500Y-7207450I0J-22500D01*
G01*
X10606500Y-7207450D02*
G75*
G03*
X10606500Y-7162450I0J22500D01*
G01*
X10574000Y-7730450D02*
X10639000Y-7795450D01*
X10639000Y-7730450D02*
X10574000Y-7795450D01*
X10606500Y-7740450D02*
X10606500Y-7740450D01*
X10606500Y-7785450D02*
X10606500Y-7785450D01*
X10606500Y-7740450D02*
G75*
G03*
X10606500Y-7785450I0J-22500D01*
G01*
X10606500Y-7785450D02*
G75*
G03*
X10606500Y-7740450I0J22500D01*
G01*
D12*
X10380428Y-9294714D02*
X10380428Y-8994714D01*
X10451857Y-8994714D01*
X10494714Y-9009000D01*
X10523286Y-9037572D01*
X10537571Y-9066143D01*
X10551857Y-9123286D01*
X10551857Y-9166143D01*
X10537571Y-9223286D01*
X10523286Y-9251857D01*
X10494714Y-9280429D01*
X10451857Y-9294714D01*
X10380428Y-9294714D01*
X10680428Y-9294714D02*
X10680428Y-9094714D01*
X10680428Y-9151857D02*
X10694714Y-9123286D01*
X10709000Y-9109000D01*
X10737571Y-9094714D01*
X10766143Y-9094714D01*
X10866143Y-9294714D02*
X10866143Y-9094714D01*
X10866143Y-8994714D02*
X10851857Y-9009000D01*
X10866143Y-9023286D01*
X10880428Y-9009000D01*
X10866143Y-8994714D01*
X10866143Y-9023286D01*
X11051857Y-9294714D02*
X11023286Y-9280429D01*
X11009000Y-9251857D01*
X11009000Y-8994714D01*
X11209000Y-9294714D02*
X11180428Y-9280429D01*
X11166143Y-9251857D01*
X11166143Y-8994714D01*
X11551857Y-9294714D02*
X11551857Y-8994714D01*
X11651857Y-9209000D01*
X11751857Y-8994714D01*
X11751857Y-9294714D01*
X12023286Y-9294714D02*
X12023286Y-9137572D01*
X12009000Y-9109000D01*
X11980428Y-9094714D01*
X11923286Y-9094714D01*
X11894714Y-9109000D01*
X12023286Y-9280429D02*
X11994714Y-9294714D01*
X11923286Y-9294714D01*
X11894714Y-9280429D01*
X11880428Y-9251857D01*
X11880428Y-9223286D01*
X11894714Y-9194714D01*
X11923286Y-9180429D01*
X11994714Y-9180429D01*
X12023286Y-9166143D01*
X12166143Y-9094714D02*
X12166143Y-9394714D01*
X12166143Y-9109000D02*
X12194714Y-9094714D01*
X12251857Y-9094714D01*
X12280428Y-9109000D01*
X12294714Y-9123286D01*
X12309000Y-9151857D01*
X12309000Y-9237572D01*
X12294714Y-9266143D01*
X12280428Y-9280429D01*
X12251857Y-9294714D01*
X12194714Y-9294714D01*
X12166143Y-9280429D01*
X12437571Y-9266143D02*
X12451857Y-9280429D01*
X12437571Y-9294714D01*
X12423286Y-9280429D01*
X12437571Y-9266143D01*
X12437571Y-9294714D01*
X12437571Y-9109000D02*
X12451857Y-9123286D01*
X12437571Y-9137572D01*
X12423286Y-9123286D01*
X12437571Y-9109000D01*
X12437571Y-9137572D01*
X10029000Y-9756500D02*
X10094000Y-9821500D01*
X10094000Y-9756500D02*
X10029000Y-9821500D01*
X10437571Y-9624714D02*
X10466143Y-9624714D01*
X10494714Y-9639000D01*
X10509000Y-9653286D01*
X10523286Y-9681857D01*
X10537571Y-9739000D01*
X10537571Y-9810429D01*
X10523286Y-9867572D01*
X10509000Y-9896143D01*
X10494714Y-9910429D01*
X10466143Y-9924714D01*
X10437571Y-9924714D01*
X10409000Y-9910429D01*
X10394714Y-9896143D01*
X10380428Y-9867572D01*
X10366143Y-9810429D01*
X10366143Y-9739000D01*
X10380428Y-9681857D01*
X10394714Y-9653286D01*
X10409000Y-9639000D01*
X10437571Y-9624714D01*
X10666143Y-9896143D02*
X10680428Y-9910429D01*
X10666143Y-9924714D01*
X10651857Y-9910429D01*
X10666143Y-9896143D01*
X10666143Y-9924714D01*
X10937571Y-9624714D02*
X10880428Y-9624714D01*
X10851857Y-9639000D01*
X10837571Y-9653286D01*
X10809000Y-9696143D01*
X10794714Y-9753286D01*
X10794714Y-9867572D01*
X10809000Y-9896143D01*
X10823286Y-9910429D01*
X10851857Y-9924714D01*
X10909000Y-9924714D01*
X10937571Y-9910429D01*
X10951857Y-9896143D01*
X10966143Y-9867572D01*
X10966143Y-9796143D01*
X10951857Y-9767572D01*
X10937571Y-9753286D01*
X10909000Y-9739000D01*
X10851857Y-9739000D01*
X10823286Y-9753286D01*
X10809000Y-9767572D01*
X10794714Y-9796143D01*
X11237571Y-9624714D02*
X11094714Y-9624714D01*
X11080428Y-9767572D01*
X11094714Y-9753286D01*
X11123286Y-9739000D01*
X11194714Y-9739000D01*
X11223286Y-9753286D01*
X11237571Y-9767572D01*
X11251857Y-9796143D01*
X11251857Y-9867572D01*
X11237571Y-9896143D01*
X11223286Y-9910429D01*
X11194714Y-9924714D01*
X11123286Y-9924714D01*
X11094714Y-9910429D01*
X11080428Y-9896143D01*
X11380428Y-9924714D02*
X11380428Y-9724714D01*
X11380428Y-9753286D02*
X11394714Y-9739000D01*
X11423286Y-9724714D01*
X11466143Y-9724714D01*
X11494714Y-9739000D01*
X11509000Y-9767572D01*
X11509000Y-9924714D01*
X11509000Y-9767572D02*
X11523286Y-9739000D01*
X11551857Y-9724714D01*
X11594714Y-9724714D01*
X11623286Y-9739000D01*
X11637571Y-9767572D01*
X11637571Y-9924714D01*
X11780428Y-9924714D02*
X11780428Y-9724714D01*
X11780428Y-9753286D02*
X11794714Y-9739000D01*
X11823286Y-9724714D01*
X11866143Y-9724714D01*
X11894714Y-9739000D01*
X11909000Y-9767572D01*
X11909000Y-9924714D01*
X11909000Y-9767572D02*
X11923286Y-9739000D01*
X11951857Y-9724714D01*
X11994714Y-9724714D01*
X12023286Y-9739000D01*
X12037571Y-9767572D01*
X12037571Y-9924714D01*
X12623286Y-9610429D02*
X12366143Y-9996143D01*
X13009000Y-9624714D02*
X13037571Y-9624714D01*
X13066143Y-9639000D01*
X13080428Y-9653286D01*
X13094714Y-9681857D01*
X13109000Y-9739000D01*
X13109000Y-9810429D01*
X13094714Y-9867572D01*
X13080428Y-9896143D01*
X13066143Y-9910429D01*
X13037571Y-9924714D01*
X13009000Y-9924714D01*
X12980428Y-9910429D01*
X12966143Y-9896143D01*
X12951857Y-9867572D01*
X12937571Y-9810429D01*
X12937571Y-9739000D01*
X12951857Y-9681857D01*
X12966143Y-9653286D01*
X12980428Y-9639000D01*
X13009000Y-9624714D01*
X13237571Y-9896143D02*
X13251857Y-9910429D01*
X13237571Y-9924714D01*
X13223286Y-9910429D01*
X13237571Y-9896143D01*
X13237571Y-9924714D01*
X13437571Y-9624714D02*
X13466143Y-9624714D01*
X13494714Y-9639000D01*
X13509000Y-9653286D01*
X13523286Y-9681857D01*
X13537571Y-9739000D01*
X13537571Y-9810429D01*
X13523286Y-9867572D01*
X13509000Y-9896143D01*
X13494714Y-9910429D01*
X13466143Y-9924714D01*
X13437571Y-9924714D01*
X13409000Y-9910429D01*
X13394714Y-9896143D01*
X13380428Y-9867572D01*
X13366143Y-9810429D01*
X13366143Y-9739000D01*
X13380428Y-9681857D01*
X13394714Y-9653286D01*
X13409000Y-9639000D01*
X13437571Y-9624714D01*
X13651857Y-9653286D02*
X13666143Y-9639000D01*
X13694714Y-9624714D01*
X13766143Y-9624714D01*
X13794714Y-9639000D01*
X13809000Y-9653286D01*
X13823286Y-9681857D01*
X13823286Y-9710429D01*
X13809000Y-9753286D01*
X13637571Y-9924714D01*
X13823286Y-9924714D01*
X14080428Y-9624714D02*
X14023286Y-9624714D01*
X13994714Y-9639000D01*
X13980428Y-9653286D01*
X13951857Y-9696143D01*
X13937571Y-9753286D01*
X13937571Y-9867572D01*
X13951857Y-9896143D01*
X13966143Y-9910429D01*
X13994714Y-9924714D01*
X14051857Y-9924714D01*
X14080428Y-9910429D01*
X14094714Y-9896143D01*
X14109000Y-9867572D01*
X14109000Y-9796143D01*
X14094714Y-9767572D01*
X14080428Y-9753286D01*
X14051857Y-9739000D01*
X13994714Y-9739000D01*
X13966143Y-9753286D01*
X13951857Y-9767572D01*
X13937571Y-9796143D01*
X14223286Y-9624714D02*
X14223286Y-9681857D01*
X14337571Y-9624714D02*
X14337571Y-9681857D01*
X14780428Y-10039000D02*
X14766143Y-10024714D01*
X14737571Y-9981857D01*
X14723286Y-9953286D01*
X14709000Y-9910429D01*
X14694714Y-9839000D01*
X14694714Y-9781857D01*
X14709000Y-9710429D01*
X14723286Y-9667572D01*
X14737571Y-9639000D01*
X14766143Y-9596143D01*
X14780428Y-9581857D01*
X14951857Y-9624714D02*
X14980428Y-9624714D01*
X15009000Y-9639000D01*
X15023286Y-9653286D01*
X15037571Y-9681857D01*
X15051857Y-9739000D01*
X15051857Y-9810429D01*
X15037571Y-9867572D01*
X15023286Y-9896143D01*
X15009000Y-9910429D01*
X14980428Y-9924714D01*
X14951857Y-9924714D01*
X14923286Y-9910429D01*
X14909000Y-9896143D01*
X14894714Y-9867572D01*
X14880428Y-9810429D01*
X14880428Y-9739000D01*
X14894714Y-9681857D01*
X14909000Y-9653286D01*
X14923286Y-9639000D01*
X14951857Y-9624714D01*
X15409000Y-9924714D02*
X15409000Y-9624714D01*
X15537571Y-9924714D02*
X15537571Y-9767572D01*
X15523286Y-9739000D01*
X15494714Y-9724714D01*
X15451857Y-9724714D01*
X15423286Y-9739000D01*
X15409000Y-9753286D01*
X15723286Y-9924714D02*
X15694714Y-9910429D01*
X15680428Y-9896143D01*
X15666143Y-9867572D01*
X15666143Y-9781857D01*
X15680428Y-9753286D01*
X15694714Y-9739000D01*
X15723286Y-9724714D01*
X15766143Y-9724714D01*
X15794714Y-9739000D01*
X15809000Y-9753286D01*
X15823286Y-9781857D01*
X15823286Y-9867572D01*
X15809000Y-9896143D01*
X15794714Y-9910429D01*
X15766143Y-9924714D01*
X15723286Y-9924714D01*
X15994714Y-9924714D02*
X15966143Y-9910429D01*
X15951857Y-9881857D01*
X15951857Y-9624714D01*
X16223286Y-9910429D02*
X16194714Y-9924714D01*
X16137571Y-9924714D01*
X16109000Y-9910429D01*
X16094714Y-9881857D01*
X16094714Y-9767572D01*
X16109000Y-9739000D01*
X16137571Y-9724714D01*
X16194714Y-9724714D01*
X16223286Y-9739000D01*
X16237571Y-9767572D01*
X16237571Y-9796143D01*
X16094714Y-9824714D01*
X16351857Y-9910429D02*
X16380428Y-9924714D01*
X16437571Y-9924714D01*
X16466143Y-9910429D01*
X16480428Y-9881857D01*
X16480428Y-9867572D01*
X16466143Y-9839000D01*
X16437571Y-9824714D01*
X16394714Y-9824714D01*
X16366143Y-9810429D01*
X16351857Y-9781857D01*
X16351857Y-9767572D01*
X16366143Y-9739000D01*
X16394714Y-9724714D01*
X16437571Y-9724714D01*
X16466143Y-9739000D01*
X16837571Y-9810429D02*
X17066143Y-9810429D01*
X16951857Y-9924714D02*
X16951857Y-9696143D01*
X17423286Y-9653286D02*
X17437571Y-9639000D01*
X17466143Y-9624714D01*
X17537571Y-9624714D01*
X17566143Y-9639000D01*
X17580428Y-9653286D01*
X17594714Y-9681857D01*
X17594714Y-9710429D01*
X17580428Y-9753286D01*
X17409000Y-9924714D01*
X17594714Y-9924714D01*
X17937571Y-9910429D02*
X17966143Y-9924714D01*
X18023286Y-9924714D01*
X18051857Y-9910429D01*
X18066143Y-9881857D01*
X18066143Y-9867572D01*
X18051857Y-9839000D01*
X18023286Y-9824714D01*
X17980428Y-9824714D01*
X17951857Y-9810429D01*
X17937571Y-9781857D01*
X17937571Y-9767572D01*
X17951857Y-9739000D01*
X17980428Y-9724714D01*
X18023286Y-9724714D01*
X18051857Y-9739000D01*
X18237571Y-9924714D02*
X18209000Y-9910429D01*
X18194714Y-9881857D01*
X18194714Y-9624714D01*
X18394714Y-9924714D02*
X18366143Y-9910429D01*
X18351857Y-9896143D01*
X18337571Y-9867572D01*
X18337571Y-9781857D01*
X18351857Y-9753286D01*
X18366143Y-9739000D01*
X18394714Y-9724714D01*
X18437571Y-9724714D01*
X18466143Y-9739000D01*
X18480428Y-9753286D01*
X18494714Y-9781857D01*
X18494714Y-9867572D01*
X18480428Y-9896143D01*
X18466143Y-9910429D01*
X18437571Y-9924714D01*
X18394714Y-9924714D01*
X18580428Y-9724714D02*
X18694714Y-9724714D01*
X18623286Y-9624714D02*
X18623286Y-9881857D01*
X18637571Y-9910429D01*
X18666143Y-9924714D01*
X18694714Y-9924714D01*
X18780428Y-9910429D02*
X18809000Y-9924714D01*
X18866143Y-9924714D01*
X18894714Y-9910429D01*
X18909000Y-9881857D01*
X18909000Y-9867572D01*
X18894714Y-9839000D01*
X18866143Y-9824714D01*
X18823286Y-9824714D01*
X18794714Y-9810429D01*
X18780428Y-9781857D01*
X18780428Y-9767572D01*
X18794714Y-9739000D01*
X18823286Y-9724714D01*
X18866143Y-9724714D01*
X18894714Y-9739000D01*
X19009000Y-10039000D02*
X19023286Y-10024714D01*
X19051857Y-9981857D01*
X19066143Y-9953286D01*
X19080428Y-9910429D01*
X19094714Y-9839000D01*
X19094714Y-9781857D01*
X19080428Y-9710429D01*
X19066143Y-9667572D01*
X19051857Y-9639000D01*
X19023286Y-9596143D01*
X19009000Y-9581857D01*
X19551857Y-10039000D02*
X19537571Y-10024714D01*
X19509000Y-9981857D01*
X19494714Y-9953286D01*
X19480428Y-9910429D01*
X19466143Y-9839000D01*
X19466143Y-9781857D01*
X19480428Y-9710429D01*
X19494714Y-9667572D01*
X19509000Y-9639000D01*
X19537571Y-9596143D01*
X19551857Y-9581857D01*
X19666143Y-9724714D02*
X19666143Y-9924714D01*
X19666143Y-9753286D02*
X19680428Y-9739000D01*
X19709000Y-9724714D01*
X19751857Y-9724714D01*
X19780428Y-9739000D01*
X19794714Y-9767572D01*
X19794714Y-9924714D01*
X19980428Y-9924714D02*
X19951857Y-9910429D01*
X19937571Y-9896143D01*
X19923286Y-9867572D01*
X19923286Y-9781857D01*
X19937571Y-9753286D01*
X19951857Y-9739000D01*
X19980428Y-9724714D01*
X20023286Y-9724714D01*
X20051857Y-9739000D01*
X20066143Y-9753286D01*
X20080428Y-9781857D01*
X20080428Y-9867572D01*
X20066143Y-9896143D01*
X20051857Y-9910429D01*
X20023286Y-9924714D01*
X19980428Y-9924714D01*
X20166143Y-9724714D02*
X20280428Y-9724714D01*
X20209000Y-9624714D02*
X20209000Y-9881857D01*
X20223286Y-9910429D01*
X20251857Y-9924714D01*
X20280428Y-9924714D01*
X20609000Y-9724714D02*
X20609000Y-10024714D01*
X20609000Y-9739000D02*
X20637571Y-9724714D01*
X20694714Y-9724714D01*
X20723286Y-9739000D01*
X20737571Y-9753286D01*
X20751857Y-9781857D01*
X20751857Y-9867572D01*
X20737571Y-9896143D01*
X20723286Y-9910429D01*
X20694714Y-9924714D01*
X20637571Y-9924714D01*
X20609000Y-9910429D01*
X20923286Y-9924714D02*
X20894714Y-9910429D01*
X20880428Y-9881857D01*
X20880428Y-9624714D01*
X21166143Y-9924714D02*
X21166143Y-9767572D01*
X21151857Y-9739000D01*
X21123286Y-9724714D01*
X21066143Y-9724714D01*
X21037571Y-9739000D01*
X21166143Y-9910429D02*
X21137571Y-9924714D01*
X21066143Y-9924714D01*
X21037571Y-9910429D01*
X21023286Y-9881857D01*
X21023286Y-9853286D01*
X21037571Y-9824714D01*
X21066143Y-9810429D01*
X21137571Y-9810429D01*
X21166143Y-9796143D01*
X21266143Y-9724714D02*
X21380428Y-9724714D01*
X21309000Y-9624714D02*
X21309000Y-9881857D01*
X21323286Y-9910429D01*
X21351857Y-9924714D01*
X21380428Y-9924714D01*
X21594714Y-9910429D02*
X21566143Y-9924714D01*
X21509000Y-9924714D01*
X21480428Y-9910429D01*
X21466143Y-9881857D01*
X21466143Y-9767572D01*
X21480428Y-9739000D01*
X21509000Y-9724714D01*
X21566143Y-9724714D01*
X21594714Y-9739000D01*
X21609000Y-9767572D01*
X21609000Y-9796143D01*
X21466143Y-9824714D01*
X21866143Y-9924714D02*
X21866143Y-9624714D01*
X21866143Y-9910429D02*
X21837571Y-9924714D01*
X21780428Y-9924714D01*
X21751857Y-9910429D01*
X21737571Y-9896143D01*
X21723286Y-9867572D01*
X21723286Y-9781857D01*
X21737571Y-9753286D01*
X21751857Y-9739000D01*
X21780428Y-9724714D01*
X21837571Y-9724714D01*
X21866143Y-9739000D01*
X21980428Y-10039000D02*
X21994714Y-10024714D01*
X22023286Y-9981857D01*
X22037571Y-9953286D01*
X22051857Y-9910429D01*
X22066143Y-9839000D01*
X22066143Y-9781857D01*
X22051857Y-9710429D01*
X22037571Y-9667572D01*
X22023286Y-9639000D01*
X21994714Y-9596143D01*
X21980428Y-9581857D01*
M02*
