M48
; DRILL file {KiCad 6.0.8+dfsg-1~bpo11+1} date Mon 15 May 2023 03:28:45 PM EDT
; FORMAT={-:-/ absolute / metric / decimal}
; #@! TF.CreationDate,2023-05-15T15:28:45-04:00
; #@! TF.GenerationSoftware,Kicad,Pcbnew,6.0.8+dfsg-1~bpo11+1
; #@! TF.FileFunction,Plated,1,2,PTH
FMAT,2
METRIC
; #@! TA.AperFunction,Plated,PTH,ViaDrill
T1C0.200
%
G90
G05
T1
X63.92Y-57.12
X63.92Y-63.12
X63.92Y-69.12
X63.92Y-75.12
X63.92Y-81.12
X63.92Y-87.12
X63.92Y-93.12
X63.92Y-99.12
X65.91Y-55.62
X67.88Y-57.13
X67.88Y-63.13
X67.88Y-69.13
X67.88Y-75.13
X67.88Y-81.13
X67.88Y-87.13
X67.88Y-93.13
X67.88Y-99.13
X69.92Y-57.12
X69.92Y-63.12
X69.92Y-69.12
X69.92Y-75.12
X69.92Y-81.12
X69.92Y-87.12
X69.92Y-93.12
X69.92Y-99.12
X71.91Y-55.62
X73.88Y-57.13
X73.88Y-63.13
X73.88Y-69.13
X73.88Y-75.13
X73.88Y-81.13
X73.88Y-87.13
X73.88Y-93.13
X73.88Y-99.13
X75.92Y-57.12
X75.92Y-63.12
X75.92Y-69.12
X75.92Y-75.12
X75.92Y-81.12
X75.92Y-87.12
X75.92Y-93.12
X75.92Y-99.12
X77.91Y-55.62
X79.88Y-57.13
X79.88Y-63.13
X79.88Y-69.13
X79.88Y-75.13
X79.88Y-81.13
X79.88Y-87.13
X79.88Y-93.13
X79.88Y-99.13
X81.92Y-57.12
X81.92Y-63.12
X81.92Y-69.12
X81.92Y-75.12
X81.92Y-81.12
X81.92Y-87.12
X81.92Y-93.12
X81.92Y-99.12
X83.91Y-55.62
X85.88Y-57.13
X85.88Y-63.13
X85.88Y-69.13
X85.88Y-75.13
X85.88Y-81.13
X85.88Y-87.13
X85.88Y-93.13
X85.88Y-99.13
X87.92Y-57.12
X87.92Y-63.12
X87.92Y-69.12
X87.92Y-75.12
X87.92Y-81.12
X87.92Y-87.12
X87.92Y-93.12
X87.92Y-99.12
X89.91Y-55.62
X91.88Y-57.13
X91.88Y-63.13
X91.88Y-69.13
X91.88Y-75.13
X91.88Y-81.13
X91.88Y-87.13
X91.88Y-93.13
X91.88Y-99.13
X93.92Y-57.12
X93.92Y-63.12
X93.92Y-69.12
X93.92Y-75.12
X93.92Y-81.12
X93.92Y-87.12
X93.92Y-93.12
X93.92Y-99.12
X95.91Y-55.62
X97.88Y-57.13
X97.88Y-63.13
X97.88Y-69.13
X97.88Y-75.13
X97.88Y-81.13
X97.88Y-87.13
X97.88Y-93.13
X97.88Y-99.13
X99.92Y-57.12
X99.92Y-63.12
X99.92Y-69.12
X99.92Y-75.12
X99.92Y-81.12
X99.92Y-87.12
X99.92Y-93.12
X99.92Y-99.12
X101.91Y-55.62
X103.88Y-57.13
X103.88Y-63.13
X103.88Y-69.13
X103.88Y-75.13
X103.88Y-81.13
X103.88Y-87.13
X103.88Y-93.13
X103.88Y-99.13
X105.92Y-57.12
X105.92Y-63.12
X105.92Y-69.12
X105.92Y-75.12
X105.92Y-81.12
X105.92Y-87.12
X105.92Y-93.12
X105.92Y-99.12
X107.91Y-55.62
X109.88Y-57.13
X109.88Y-63.13
X109.88Y-69.13
X109.88Y-75.13
X109.88Y-81.13
X109.88Y-87.13
X109.88Y-93.13
X109.88Y-99.13
X111.92Y-57.12
X111.92Y-63.12
X111.92Y-69.12
X111.92Y-75.12
X111.92Y-81.12
X111.92Y-87.12
X111.92Y-93.12
X111.92Y-99.12
X113.91Y-55.62
X115.88Y-57.13
X115.88Y-63.13
X115.88Y-69.13
X115.88Y-75.13
X115.88Y-81.13
X115.88Y-87.13
X115.88Y-93.13
X115.88Y-99.13
X117.92Y-57.12
X117.92Y-63.12
X117.92Y-69.12
X117.92Y-75.12
X117.92Y-81.12
X117.92Y-87.12
X117.92Y-93.12
X117.92Y-99.12
X119.91Y-55.62
X121.88Y-57.13
X121.88Y-63.13
X121.88Y-69.13
X121.88Y-75.13
X121.88Y-81.13
X121.88Y-87.13
X121.88Y-93.13
X121.88Y-99.13
X123.92Y-57.12
X123.92Y-63.12
X123.92Y-69.12
X123.92Y-75.12
X123.92Y-81.12
X123.92Y-87.12
X123.92Y-93.12
X123.92Y-99.12
X125.91Y-55.62
X127.88Y-57.13
X127.88Y-63.13
X127.88Y-69.13
X127.88Y-75.13
X127.88Y-81.13
X127.88Y-87.13
X127.88Y-93.13
X127.88Y-99.13
X129.92Y-57.12
X129.92Y-63.12
X129.92Y-69.12
X129.92Y-75.12
X129.92Y-81.12
X129.92Y-87.12
X129.92Y-93.12
X129.92Y-99.12
X131.91Y-55.62
X133.88Y-57.13
X133.88Y-63.13
X133.88Y-69.13
X133.88Y-75.13
X133.88Y-81.13
X133.88Y-87.13
X133.88Y-93.13
X133.88Y-99.13
X135.92Y-57.12
X135.92Y-63.12
X135.92Y-69.12
X135.92Y-75.12
X135.92Y-81.12
X135.92Y-87.12
X135.92Y-93.12
X135.92Y-99.12
X137.91Y-55.62
X139.88Y-57.13
X139.88Y-63.13
X139.88Y-69.13
X139.88Y-75.13
X139.88Y-81.13
X139.88Y-87.13
X139.88Y-93.13
X139.88Y-99.13
X141.92Y-57.12
X141.92Y-63.12
X141.92Y-69.12
X141.92Y-75.12
X141.92Y-81.12
X141.92Y-87.12
X141.92Y-93.12
X141.92Y-99.12
X143.91Y-55.62
X145.88Y-57.13
X145.88Y-63.13
X145.88Y-69.13
X145.88Y-75.13
X145.88Y-81.13
X145.88Y-87.13
X145.88Y-93.13
X145.88Y-99.13
X147.92Y-57.12
X147.92Y-63.12
X147.92Y-69.12
X147.92Y-75.12
X147.92Y-81.12
X147.92Y-87.12
X147.92Y-93.12
X147.92Y-99.12
X149.91Y-55.62
X151.88Y-57.13
X151.88Y-63.13
X151.88Y-69.13
X151.88Y-75.13
X151.88Y-81.13
X151.88Y-87.13
X151.88Y-93.13
X151.88Y-99.13
X153.92Y-57.12
X153.92Y-63.12
X153.92Y-69.12
X153.92Y-75.12
X153.92Y-81.12
X153.92Y-87.12
X153.92Y-93.12
X153.92Y-99.12
X155.91Y-55.62
X157.88Y-57.13
X157.88Y-63.13
X157.88Y-69.13
X157.88Y-75.13
X157.88Y-81.13
X157.88Y-87.13
X157.88Y-93.13
X157.88Y-99.13
X159.92Y-57.12
X159.92Y-63.12
X159.92Y-69.12
X159.92Y-75.12
X159.92Y-81.12
X159.92Y-87.12
X159.92Y-93.12
X159.92Y-99.12
X161.92Y-103.59
X163.88Y-57.13
X163.88Y-63.13
X163.88Y-69.13
X163.88Y-75.13
X163.88Y-81.13
X163.88Y-87.13
X163.88Y-93.13
X163.88Y-99.13
X165.92Y-57.12
X165.92Y-63.12
X165.92Y-69.12
X165.92Y-75.12
X165.92Y-81.12
X165.92Y-87.12
X165.92Y-93.12
X165.92Y-99.12
X167.92Y-103.59
X169.88Y-57.13
X169.88Y-63.13
X169.88Y-69.13
X169.88Y-75.13
X169.88Y-81.13
X169.88Y-87.13
X169.88Y-93.13
X169.88Y-99.13
X171.92Y-57.12
X171.92Y-63.12
X171.92Y-69.12
X171.92Y-75.12
X171.92Y-81.12
X171.92Y-87.12
X171.92Y-93.12
X171.92Y-99.12
X173.92Y-103.59
X175.88Y-57.13
X175.88Y-63.13
X175.88Y-69.13
X175.88Y-75.13
X175.88Y-81.13
X175.88Y-87.13
X175.88Y-93.13
X175.88Y-99.13
X177.92Y-57.12
X177.92Y-63.12
X177.92Y-69.12
X177.92Y-75.12
X177.92Y-81.12
X177.92Y-87.12
X177.92Y-93.12
X177.92Y-99.12
X179.92Y-103.59
X181.88Y-57.13
X181.88Y-63.13
X181.88Y-69.13
X181.88Y-75.13
X181.88Y-81.13
X181.88Y-87.13
X181.88Y-93.13
X181.88Y-99.13
X183.92Y-57.12
X183.92Y-63.12
X183.92Y-69.12
X183.92Y-75.12
X183.92Y-81.12
X183.92Y-87.12
X183.92Y-93.12
X183.92Y-99.12
X185.92Y-103.59
X187.88Y-57.13
X187.88Y-63.13
X187.88Y-69.13
X187.88Y-75.13
X187.88Y-81.13
X187.88Y-87.13
X187.88Y-93.13
X187.88Y-99.13
X189.92Y-57.12
X189.92Y-63.12
X189.92Y-69.12
X189.92Y-75.12
X189.92Y-81.12
X189.92Y-87.12
X189.92Y-93.12
X189.92Y-99.12
X191.92Y-103.59
X193.88Y-57.13
X193.88Y-63.13
X193.88Y-69.13
X193.88Y-75.13
X193.88Y-81.13
X193.88Y-87.13
X193.88Y-93.13
X193.88Y-99.13
X195.92Y-57.12
X195.92Y-63.12
X195.92Y-69.12
X195.92Y-75.12
X195.92Y-81.12
X195.92Y-87.12
X195.92Y-93.12
X195.92Y-99.12
X197.92Y-103.59
X199.88Y-57.13
X199.88Y-63.13
X199.88Y-69.13
X199.88Y-75.13
X199.88Y-81.13
X199.88Y-87.13
X199.88Y-93.13
X199.88Y-99.13
X201.92Y-57.12
X201.92Y-63.12
X201.92Y-69.12
X201.92Y-75.12
X201.92Y-81.12
X201.92Y-87.12
X201.92Y-93.12
X201.92Y-99.12
X203.92Y-103.59
X205.88Y-57.13
X205.88Y-63.13
X205.88Y-69.13
X205.88Y-75.13
X205.88Y-81.13
X205.88Y-87.13
X205.88Y-93.13
X205.88Y-99.13
X207.92Y-57.12
X207.92Y-63.12
X207.92Y-69.12
X207.92Y-75.12
X207.92Y-81.12
X207.92Y-87.12
X207.92Y-93.12
X207.92Y-99.12
X209.92Y-103.59
X211.88Y-57.13
X211.88Y-63.13
X211.88Y-69.13
X211.88Y-75.13
X211.88Y-81.13
X211.88Y-87.13
X211.88Y-93.13
X211.88Y-99.13
X213.92Y-57.12
X213.92Y-63.12
X213.92Y-69.12
X213.92Y-75.12
X213.92Y-81.12
X213.92Y-87.12
X213.92Y-93.12
X213.92Y-99.12
X215.92Y-103.59
X217.88Y-57.13
X217.88Y-63.13
X217.88Y-69.13
X217.88Y-75.13
X217.88Y-81.13
X217.88Y-87.13
X217.88Y-93.13
X217.88Y-99.13
X219.92Y-57.12
X219.92Y-63.12
X219.92Y-69.12
X219.92Y-75.12
X219.92Y-81.12
X219.92Y-87.12
X219.92Y-93.12
X219.92Y-99.12
X221.92Y-103.59
X223.88Y-57.13
X223.88Y-63.13
X223.88Y-69.13
X223.88Y-75.13
X223.88Y-81.13
X223.88Y-87.13
X223.88Y-93.13
X223.88Y-99.13
X225.92Y-57.12
X225.92Y-63.12
X225.92Y-69.12
X225.92Y-75.12
X225.92Y-81.12
X225.92Y-87.12
X225.92Y-93.12
X225.92Y-99.12
X227.92Y-103.59
X229.88Y-57.13
X229.88Y-63.13
X229.88Y-69.13
X229.88Y-75.13
X229.88Y-81.13
X229.88Y-87.13
X229.88Y-93.13
X229.88Y-99.13
X231.92Y-57.12
X231.92Y-63.12
X231.92Y-69.12
X231.92Y-75.12
X231.92Y-81.12
X231.92Y-87.12
X231.92Y-93.12
X231.92Y-99.12
X233.92Y-103.59
X235.88Y-57.13
X235.88Y-63.13
X235.88Y-69.13
X235.88Y-75.13
X235.88Y-81.13
X235.88Y-87.13
X235.88Y-93.13
X235.88Y-99.13
X237.92Y-57.12
X237.92Y-63.12
X237.92Y-69.12
X237.92Y-75.12
X237.92Y-81.12
X237.92Y-87.12
X237.92Y-93.12
X237.92Y-99.12
X239.92Y-103.59
X241.88Y-57.13
X241.88Y-63.13
X241.88Y-69.13
X241.88Y-75.13
X241.88Y-81.13
X241.88Y-87.13
X241.88Y-93.13
X241.88Y-99.13
X243.92Y-57.12
X243.92Y-63.12
X243.92Y-69.12
X243.92Y-75.12
X243.92Y-81.12
X243.92Y-87.12
X243.92Y-93.12
X243.92Y-99.12
X245.92Y-103.59
X247.88Y-57.13
X247.88Y-63.13
X247.88Y-69.13
X247.88Y-75.13
X247.88Y-81.13
X247.88Y-87.13
X247.88Y-93.13
X247.88Y-99.13
X249.92Y-57.12
X249.92Y-63.12
X249.92Y-69.12
X249.92Y-75.12
X249.92Y-81.12
X249.92Y-87.12
X249.92Y-93.12
X249.92Y-99.12
X251.92Y-103.59
X253.88Y-57.13
X253.88Y-63.13
X253.88Y-69.13
X253.88Y-75.13
X253.88Y-81.13
X253.88Y-87.13
X253.88Y-93.13
X253.88Y-99.13
T0
M30
