G04 #@! TF.GenerationSoftware,KiCad,Pcbnew,6.0.8+dfsg-1~bpo11+1*
G04 #@! TF.CreationDate,2023-05-15T15:28:38-04:00*
G04 #@! TF.ProjectId,07_padded_interleaved_tight,30375f70-6164-4646-9564-5f696e746572,rev?*
G04 #@! TF.SameCoordinates,Original*
G04 #@! TF.FileFunction,Soldermask,Top*
G04 #@! TF.FilePolarity,Negative*
%FSLAX46Y46*%
G04 Gerber Fmt 4.6, Leading zero omitted, Abs format (unit mm)*
G04 Created by KiCad (PCBNEW 6.0.8+dfsg-1~bpo11+1) date 2023-05-15 15:28:38*
%MOMM*%
%LPD*%
G01*
G04 APERTURE LIST*
G04 APERTURE END LIST*
G36*
X63040000Y-73730000D02*
G01*
X68790000Y-73730000D01*
X68790000Y-79480000D01*
X63040000Y-79480000D01*
X63040000Y-73730000D01*
G37*
G36*
X141040000Y-61730000D02*
G01*
X146790000Y-61730000D01*
X146790000Y-67480000D01*
X141040000Y-67480000D01*
X141040000Y-61730000D01*
G37*
G36*
X129040000Y-55730000D02*
G01*
X134790000Y-55730000D01*
X134790000Y-61480000D01*
X129040000Y-61480000D01*
X129040000Y-55730000D01*
G37*
G36*
X189040000Y-73730000D02*
G01*
X194790000Y-73730000D01*
X194790000Y-79480000D01*
X189040000Y-79480000D01*
X189040000Y-73730000D01*
G37*
G36*
X201040000Y-91730000D02*
G01*
X206790000Y-91730000D01*
X206790000Y-97480000D01*
X201040000Y-97480000D01*
X201040000Y-91730000D01*
G37*
G36*
X81040000Y-79730000D02*
G01*
X86790000Y-79730000D01*
X86790000Y-85480000D01*
X81040000Y-85480000D01*
X81040000Y-79730000D01*
G37*
G36*
X111040000Y-85730000D02*
G01*
X116790000Y-85730000D01*
X116790000Y-91480000D01*
X111040000Y-91480000D01*
X111040000Y-85730000D01*
G37*
G36*
X147040000Y-79730000D02*
G01*
X152790000Y-79730000D01*
X152790000Y-85480000D01*
X147040000Y-85480000D01*
X147040000Y-79730000D01*
G37*
G36*
X69040000Y-67730000D02*
G01*
X74790000Y-67730000D01*
X74790000Y-73480000D01*
X69040000Y-73480000D01*
X69040000Y-67730000D01*
G37*
G36*
X231040000Y-67730000D02*
G01*
X236790000Y-67730000D01*
X236790000Y-73480000D01*
X231040000Y-73480000D01*
X231040000Y-67730000D01*
G37*
G36*
X105040000Y-79730000D02*
G01*
X110790000Y-79730000D01*
X110790000Y-85480000D01*
X105040000Y-85480000D01*
X105040000Y-79730000D01*
G37*
G36*
X249040000Y-73730000D02*
G01*
X254790000Y-73730000D01*
X254790000Y-79480000D01*
X249040000Y-79480000D01*
X249040000Y-73730000D01*
G37*
G36*
X105040000Y-91730000D02*
G01*
X110790000Y-91730000D01*
X110790000Y-97480000D01*
X105040000Y-97480000D01*
X105040000Y-91730000D01*
G37*
G36*
X111040000Y-79730000D02*
G01*
X116790000Y-79730000D01*
X116790000Y-85480000D01*
X111040000Y-85480000D01*
X111040000Y-79730000D01*
G37*
G36*
X141040000Y-73730000D02*
G01*
X146790000Y-73730000D01*
X146790000Y-79480000D01*
X141040000Y-79480000D01*
X141040000Y-73730000D01*
G37*
G36*
X195040000Y-61730000D02*
G01*
X200790000Y-61730000D01*
X200790000Y-67480000D01*
X195040000Y-67480000D01*
X195040000Y-61730000D01*
G37*
G36*
X123040000Y-55730000D02*
G01*
X128790000Y-55730000D01*
X128790000Y-61480000D01*
X123040000Y-61480000D01*
X123040000Y-55730000D01*
G37*
G36*
X219040000Y-91730000D02*
G01*
X224790000Y-91730000D01*
X224790000Y-97480000D01*
X219040000Y-97480000D01*
X219040000Y-91730000D01*
G37*
G36*
X153040000Y-73730000D02*
G01*
X158790000Y-73730000D01*
X158790000Y-79480000D01*
X153040000Y-79480000D01*
X153040000Y-73730000D01*
G37*
G36*
X135040000Y-97730000D02*
G01*
X140790000Y-97730000D01*
X140790000Y-103480000D01*
X135040000Y-103480000D01*
X135040000Y-97730000D01*
G37*
G36*
X105040000Y-73730000D02*
G01*
X110790000Y-73730000D01*
X110790000Y-79480000D01*
X105040000Y-79480000D01*
X105040000Y-73730000D01*
G37*
G36*
X207040000Y-91730000D02*
G01*
X212790000Y-91730000D01*
X212790000Y-97480000D01*
X207040000Y-97480000D01*
X207040000Y-91730000D01*
G37*
G36*
X117040000Y-67730000D02*
G01*
X122790000Y-67730000D01*
X122790000Y-73480000D01*
X117040000Y-73480000D01*
X117040000Y-67730000D01*
G37*
G36*
X249040000Y-67730000D02*
G01*
X254790000Y-67730000D01*
X254790000Y-73480000D01*
X249040000Y-73480000D01*
X249040000Y-67730000D01*
G37*
G36*
X117040000Y-73730000D02*
G01*
X122790000Y-73730000D01*
X122790000Y-79480000D01*
X117040000Y-79480000D01*
X117040000Y-73730000D01*
G37*
G36*
X147040000Y-55730000D02*
G01*
X152790000Y-55730000D01*
X152790000Y-61480000D01*
X147040000Y-61480000D01*
X147040000Y-55730000D01*
G37*
G36*
X99040000Y-85730000D02*
G01*
X104790000Y-85730000D01*
X104790000Y-91480000D01*
X99040000Y-91480000D01*
X99040000Y-85730000D01*
G37*
G36*
X177040000Y-67730000D02*
G01*
X182790000Y-67730000D01*
X182790000Y-73480000D01*
X177040000Y-73480000D01*
X177040000Y-67730000D01*
G37*
G36*
X153040000Y-67730000D02*
G01*
X158790000Y-67730000D01*
X158790000Y-73480000D01*
X153040000Y-73480000D01*
X153040000Y-67730000D01*
G37*
G36*
X243040000Y-73730000D02*
G01*
X248790000Y-73730000D01*
X248790000Y-79480000D01*
X243040000Y-79480000D01*
X243040000Y-73730000D01*
G37*
G36*
X93040000Y-97730000D02*
G01*
X98790000Y-97730000D01*
X98790000Y-103480000D01*
X93040000Y-103480000D01*
X93040000Y-97730000D01*
G37*
G36*
X171040000Y-97730000D02*
G01*
X176790000Y-97730000D01*
X176790000Y-103480000D01*
X171040000Y-103480000D01*
X171040000Y-97730000D01*
G37*
G36*
X159040000Y-97730000D02*
G01*
X164790000Y-97730000D01*
X164790000Y-103480000D01*
X159040000Y-103480000D01*
X159040000Y-97730000D01*
G37*
G36*
X177040000Y-85730000D02*
G01*
X182790000Y-85730000D01*
X182790000Y-91480000D01*
X177040000Y-91480000D01*
X177040000Y-85730000D01*
G37*
G36*
X63040000Y-61730000D02*
G01*
X68790000Y-61730000D01*
X68790000Y-67480000D01*
X63040000Y-67480000D01*
X63040000Y-61730000D01*
G37*
G36*
X123040000Y-73730000D02*
G01*
X128790000Y-73730000D01*
X128790000Y-79480000D01*
X123040000Y-79480000D01*
X123040000Y-73730000D01*
G37*
G36*
X195040000Y-73730000D02*
G01*
X200790000Y-73730000D01*
X200790000Y-79480000D01*
X195040000Y-79480000D01*
X195040000Y-73730000D01*
G37*
G36*
X195040000Y-79730000D02*
G01*
X200790000Y-79730000D01*
X200790000Y-85480000D01*
X195040000Y-85480000D01*
X195040000Y-79730000D01*
G37*
G36*
X249040000Y-61730000D02*
G01*
X254790000Y-61730000D01*
X254790000Y-67480000D01*
X249040000Y-67480000D01*
X249040000Y-61730000D01*
G37*
G36*
X213040000Y-79730000D02*
G01*
X218790000Y-79730000D01*
X218790000Y-85480000D01*
X213040000Y-85480000D01*
X213040000Y-79730000D01*
G37*
G36*
X135040000Y-79730000D02*
G01*
X140790000Y-79730000D01*
X140790000Y-85480000D01*
X135040000Y-85480000D01*
X135040000Y-79730000D01*
G37*
G36*
X237040000Y-85730000D02*
G01*
X242790000Y-85730000D01*
X242790000Y-91480000D01*
X237040000Y-91480000D01*
X237040000Y-85730000D01*
G37*
G36*
X69040000Y-91730000D02*
G01*
X74790000Y-91730000D01*
X74790000Y-97480000D01*
X69040000Y-97480000D01*
X69040000Y-91730000D01*
G37*
G36*
X63040000Y-79730000D02*
G01*
X68790000Y-79730000D01*
X68790000Y-85480000D01*
X63040000Y-85480000D01*
X63040000Y-79730000D01*
G37*
G36*
X87040000Y-97730000D02*
G01*
X92790000Y-97730000D01*
X92790000Y-103480000D01*
X87040000Y-103480000D01*
X87040000Y-97730000D01*
G37*
G36*
X201040000Y-79730000D02*
G01*
X206790000Y-79730000D01*
X206790000Y-85480000D01*
X201040000Y-85480000D01*
X201040000Y-79730000D01*
G37*
G36*
X153040000Y-55730000D02*
G01*
X158790000Y-55730000D01*
X158790000Y-61480000D01*
X153040000Y-61480000D01*
X153040000Y-55730000D01*
G37*
G36*
X69040000Y-55730000D02*
G01*
X74790000Y-55730000D01*
X74790000Y-61480000D01*
X69040000Y-61480000D01*
X69040000Y-55730000D01*
G37*
G36*
X225040000Y-97730000D02*
G01*
X230790000Y-97730000D01*
X230790000Y-103480000D01*
X225040000Y-103480000D01*
X225040000Y-97730000D01*
G37*
G36*
X123040000Y-67730000D02*
G01*
X128790000Y-67730000D01*
X128790000Y-73480000D01*
X123040000Y-73480000D01*
X123040000Y-67730000D01*
G37*
G36*
X225040000Y-67730000D02*
G01*
X230790000Y-67730000D01*
X230790000Y-73480000D01*
X225040000Y-73480000D01*
X225040000Y-67730000D01*
G37*
G36*
X99040000Y-97730000D02*
G01*
X104790000Y-97730000D01*
X104790000Y-103480000D01*
X99040000Y-103480000D01*
X99040000Y-97730000D01*
G37*
G36*
X93040000Y-55730000D02*
G01*
X98790000Y-55730000D01*
X98790000Y-61480000D01*
X93040000Y-61480000D01*
X93040000Y-55730000D01*
G37*
G36*
X93040000Y-85730000D02*
G01*
X98790000Y-85730000D01*
X98790000Y-91480000D01*
X93040000Y-91480000D01*
X93040000Y-85730000D01*
G37*
G36*
X123040000Y-91730000D02*
G01*
X128790000Y-91730000D01*
X128790000Y-97480000D01*
X123040000Y-97480000D01*
X123040000Y-91730000D01*
G37*
G36*
X63040000Y-85730000D02*
G01*
X68790000Y-85730000D01*
X68790000Y-91480000D01*
X63040000Y-91480000D01*
X63040000Y-85730000D01*
G37*
G36*
X147040000Y-91730000D02*
G01*
X152790000Y-91730000D01*
X152790000Y-97480000D01*
X147040000Y-97480000D01*
X147040000Y-91730000D01*
G37*
G36*
X231040000Y-55730000D02*
G01*
X236790000Y-55730000D01*
X236790000Y-61480000D01*
X231040000Y-61480000D01*
X231040000Y-55730000D01*
G37*
G36*
X99040000Y-67730000D02*
G01*
X104790000Y-67730000D01*
X104790000Y-73480000D01*
X99040000Y-73480000D01*
X99040000Y-67730000D01*
G37*
G36*
X171040000Y-61730000D02*
G01*
X176790000Y-61730000D01*
X176790000Y-67480000D01*
X171040000Y-67480000D01*
X171040000Y-61730000D01*
G37*
G36*
X87040000Y-79730000D02*
G01*
X92790000Y-79730000D01*
X92790000Y-85480000D01*
X87040000Y-85480000D01*
X87040000Y-79730000D01*
G37*
G36*
X183040000Y-73730000D02*
G01*
X188790000Y-73730000D01*
X188790000Y-79480000D01*
X183040000Y-79480000D01*
X183040000Y-73730000D01*
G37*
G36*
X87040000Y-85730000D02*
G01*
X92790000Y-85730000D01*
X92790000Y-91480000D01*
X87040000Y-91480000D01*
X87040000Y-85730000D01*
G37*
G36*
X213040000Y-61730000D02*
G01*
X218790000Y-61730000D01*
X218790000Y-67480000D01*
X213040000Y-67480000D01*
X213040000Y-61730000D01*
G37*
G36*
X243040000Y-97730000D02*
G01*
X248790000Y-97730000D01*
X248790000Y-103480000D01*
X243040000Y-103480000D01*
X243040000Y-97730000D01*
G37*
G36*
X81040000Y-91730000D02*
G01*
X86790000Y-91730000D01*
X86790000Y-97480000D01*
X81040000Y-97480000D01*
X81040000Y-91730000D01*
G37*
G36*
X63040000Y-91730000D02*
G01*
X68790000Y-91730000D01*
X68790000Y-97480000D01*
X63040000Y-97480000D01*
X63040000Y-91730000D01*
G37*
G36*
X207040000Y-85730000D02*
G01*
X212790000Y-85730000D01*
X212790000Y-91480000D01*
X207040000Y-91480000D01*
X207040000Y-85730000D01*
G37*
G36*
X189040000Y-79730000D02*
G01*
X194790000Y-79730000D01*
X194790000Y-85480000D01*
X189040000Y-85480000D01*
X189040000Y-79730000D01*
G37*
G36*
X153040000Y-85730000D02*
G01*
X158790000Y-85730000D01*
X158790000Y-91480000D01*
X153040000Y-91480000D01*
X153040000Y-85730000D01*
G37*
G36*
X249040000Y-55730000D02*
G01*
X254790000Y-55730000D01*
X254790000Y-61480000D01*
X249040000Y-61480000D01*
X249040000Y-55730000D01*
G37*
G36*
X219040000Y-85730000D02*
G01*
X224790000Y-85730000D01*
X224790000Y-91480000D01*
X219040000Y-91480000D01*
X219040000Y-85730000D01*
G37*
G36*
X81040000Y-55730000D02*
G01*
X86790000Y-55730000D01*
X86790000Y-61480000D01*
X81040000Y-61480000D01*
X81040000Y-55730000D01*
G37*
G36*
X225040000Y-73730000D02*
G01*
X230790000Y-73730000D01*
X230790000Y-79480000D01*
X225040000Y-79480000D01*
X225040000Y-73730000D01*
G37*
G36*
X171040000Y-79730000D02*
G01*
X176790000Y-79730000D01*
X176790000Y-85480000D01*
X171040000Y-85480000D01*
X171040000Y-79730000D01*
G37*
G36*
X243040000Y-85730000D02*
G01*
X248790000Y-85730000D01*
X248790000Y-91480000D01*
X243040000Y-91480000D01*
X243040000Y-85730000D01*
G37*
G36*
X99040000Y-79730000D02*
G01*
X104790000Y-79730000D01*
X104790000Y-85480000D01*
X99040000Y-85480000D01*
X99040000Y-79730000D01*
G37*
G36*
X219040000Y-97730000D02*
G01*
X224790000Y-97730000D01*
X224790000Y-103480000D01*
X219040000Y-103480000D01*
X219040000Y-97730000D01*
G37*
G36*
X249040000Y-91730000D02*
G01*
X254790000Y-91730000D01*
X254790000Y-97480000D01*
X249040000Y-97480000D01*
X249040000Y-91730000D01*
G37*
G36*
X123040000Y-85730000D02*
G01*
X128790000Y-85730000D01*
X128790000Y-91480000D01*
X123040000Y-91480000D01*
X123040000Y-85730000D01*
G37*
G36*
X111040000Y-61730000D02*
G01*
X116790000Y-61730000D01*
X116790000Y-67480000D01*
X111040000Y-67480000D01*
X111040000Y-61730000D01*
G37*
G36*
X81040000Y-61730000D02*
G01*
X86790000Y-61730000D01*
X86790000Y-67480000D01*
X81040000Y-67480000D01*
X81040000Y-61730000D01*
G37*
G36*
X129040000Y-61730000D02*
G01*
X134790000Y-61730000D01*
X134790000Y-67480000D01*
X129040000Y-67480000D01*
X129040000Y-61730000D01*
G37*
G36*
X99040000Y-73730000D02*
G01*
X104790000Y-73730000D01*
X104790000Y-79480000D01*
X99040000Y-79480000D01*
X99040000Y-73730000D01*
G37*
G36*
X141040000Y-97730000D02*
G01*
X146790000Y-97730000D01*
X146790000Y-103480000D01*
X141040000Y-103480000D01*
X141040000Y-97730000D01*
G37*
G36*
X75040000Y-55730000D02*
G01*
X80790000Y-55730000D01*
X80790000Y-61480000D01*
X75040000Y-61480000D01*
X75040000Y-55730000D01*
G37*
G36*
X117040000Y-61730000D02*
G01*
X122790000Y-61730000D01*
X122790000Y-67480000D01*
X117040000Y-67480000D01*
X117040000Y-61730000D01*
G37*
G36*
X135040000Y-67730000D02*
G01*
X140790000Y-67730000D01*
X140790000Y-73480000D01*
X135040000Y-73480000D01*
X135040000Y-67730000D01*
G37*
G36*
X87040000Y-73730000D02*
G01*
X92790000Y-73730000D01*
X92790000Y-79480000D01*
X87040000Y-79480000D01*
X87040000Y-73730000D01*
G37*
G36*
X225040000Y-85730000D02*
G01*
X230790000Y-85730000D01*
X230790000Y-91480000D01*
X225040000Y-91480000D01*
X225040000Y-85730000D01*
G37*
G36*
X123040000Y-97730000D02*
G01*
X128790000Y-97730000D01*
X128790000Y-103480000D01*
X123040000Y-103480000D01*
X123040000Y-97730000D01*
G37*
G36*
X243040000Y-61730000D02*
G01*
X248790000Y-61730000D01*
X248790000Y-67480000D01*
X243040000Y-67480000D01*
X243040000Y-61730000D01*
G37*
G36*
X213040000Y-67730000D02*
G01*
X218790000Y-67730000D01*
X218790000Y-73480000D01*
X213040000Y-73480000D01*
X213040000Y-67730000D01*
G37*
G36*
X111040000Y-55730000D02*
G01*
X116790000Y-55730000D01*
X116790000Y-61480000D01*
X111040000Y-61480000D01*
X111040000Y-55730000D01*
G37*
G36*
X141040000Y-67730000D02*
G01*
X146790000Y-67730000D01*
X146790000Y-73480000D01*
X141040000Y-73480000D01*
X141040000Y-67730000D01*
G37*
G36*
X69040000Y-85730000D02*
G01*
X74790000Y-85730000D01*
X74790000Y-91480000D01*
X69040000Y-91480000D01*
X69040000Y-85730000D01*
G37*
G36*
X237040000Y-55730000D02*
G01*
X242790000Y-55730000D01*
X242790000Y-61480000D01*
X237040000Y-61480000D01*
X237040000Y-55730000D01*
G37*
G36*
X177040000Y-97730000D02*
G01*
X182790000Y-97730000D01*
X182790000Y-103480000D01*
X177040000Y-103480000D01*
X177040000Y-97730000D01*
G37*
G36*
X219040000Y-61730000D02*
G01*
X224790000Y-61730000D01*
X224790000Y-67480000D01*
X219040000Y-67480000D01*
X219040000Y-61730000D01*
G37*
G36*
X213040000Y-91730000D02*
G01*
X218790000Y-91730000D01*
X218790000Y-97480000D01*
X213040000Y-97480000D01*
X213040000Y-91730000D01*
G37*
G36*
X147040000Y-97730000D02*
G01*
X152790000Y-97730000D01*
X152790000Y-103480000D01*
X147040000Y-103480000D01*
X147040000Y-97730000D01*
G37*
G36*
X237040000Y-73730000D02*
G01*
X242790000Y-73730000D01*
X242790000Y-79480000D01*
X237040000Y-79480000D01*
X237040000Y-73730000D01*
G37*
G36*
X207040000Y-79730000D02*
G01*
X212790000Y-79730000D01*
X212790000Y-85480000D01*
X207040000Y-85480000D01*
X207040000Y-79730000D01*
G37*
G36*
X171040000Y-85730000D02*
G01*
X176790000Y-85730000D01*
X176790000Y-91480000D01*
X171040000Y-91480000D01*
X171040000Y-85730000D01*
G37*
G36*
X159040000Y-79730000D02*
G01*
X164790000Y-79730000D01*
X164790000Y-85480000D01*
X159040000Y-85480000D01*
X159040000Y-79730000D01*
G37*
G36*
X81040000Y-73730000D02*
G01*
X86790000Y-73730000D01*
X86790000Y-79480000D01*
X81040000Y-79480000D01*
X81040000Y-73730000D01*
G37*
G36*
X195040000Y-97730000D02*
G01*
X200790000Y-97730000D01*
X200790000Y-103480000D01*
X195040000Y-103480000D01*
X195040000Y-97730000D01*
G37*
G36*
X141040000Y-79730000D02*
G01*
X146790000Y-79730000D01*
X146790000Y-85480000D01*
X141040000Y-85480000D01*
X141040000Y-79730000D01*
G37*
G36*
X225040000Y-55730000D02*
G01*
X230790000Y-55730000D01*
X230790000Y-61480000D01*
X225040000Y-61480000D01*
X225040000Y-55730000D01*
G37*
G36*
X165040000Y-61730000D02*
G01*
X170790000Y-61730000D01*
X170790000Y-67480000D01*
X165040000Y-67480000D01*
X165040000Y-61730000D01*
G37*
G36*
X219040000Y-67730000D02*
G01*
X224790000Y-67730000D01*
X224790000Y-73480000D01*
X219040000Y-73480000D01*
X219040000Y-67730000D01*
G37*
G36*
X177040000Y-79730000D02*
G01*
X182790000Y-79730000D01*
X182790000Y-85480000D01*
X177040000Y-85480000D01*
X177040000Y-79730000D01*
G37*
G36*
X105040000Y-61730000D02*
G01*
X110790000Y-61730000D01*
X110790000Y-67480000D01*
X105040000Y-67480000D01*
X105040000Y-61730000D01*
G37*
G36*
X153040000Y-97730000D02*
G01*
X158790000Y-97730000D01*
X158790000Y-103480000D01*
X153040000Y-103480000D01*
X153040000Y-97730000D01*
G37*
G36*
X123040000Y-79730000D02*
G01*
X128790000Y-79730000D01*
X128790000Y-85480000D01*
X123040000Y-85480000D01*
X123040000Y-79730000D01*
G37*
G36*
X69040000Y-97730000D02*
G01*
X74790000Y-97730000D01*
X74790000Y-103480000D01*
X69040000Y-103480000D01*
X69040000Y-97730000D01*
G37*
G36*
X159040000Y-91730000D02*
G01*
X164790000Y-91730000D01*
X164790000Y-97480000D01*
X159040000Y-97480000D01*
X159040000Y-91730000D01*
G37*
G36*
X165040000Y-73730000D02*
G01*
X170790000Y-73730000D01*
X170790000Y-79480000D01*
X165040000Y-79480000D01*
X165040000Y-73730000D01*
G37*
G36*
X117040000Y-85730000D02*
G01*
X122790000Y-85730000D01*
X122790000Y-91480000D01*
X117040000Y-91480000D01*
X117040000Y-85730000D01*
G37*
G36*
X117040000Y-97730000D02*
G01*
X122790000Y-97730000D01*
X122790000Y-103480000D01*
X117040000Y-103480000D01*
X117040000Y-97730000D01*
G37*
G36*
X63040000Y-67730000D02*
G01*
X68790000Y-67730000D01*
X68790000Y-73480000D01*
X63040000Y-73480000D01*
X63040000Y-67730000D01*
G37*
G36*
X225040000Y-61730000D02*
G01*
X230790000Y-61730000D01*
X230790000Y-67480000D01*
X225040000Y-67480000D01*
X225040000Y-61730000D01*
G37*
G36*
X213040000Y-85730000D02*
G01*
X218790000Y-85730000D01*
X218790000Y-91480000D01*
X213040000Y-91480000D01*
X213040000Y-85730000D01*
G37*
G36*
X159040000Y-67730000D02*
G01*
X164790000Y-67730000D01*
X164790000Y-73480000D01*
X159040000Y-73480000D01*
X159040000Y-67730000D01*
G37*
G36*
X183040000Y-61730000D02*
G01*
X188790000Y-61730000D01*
X188790000Y-67480000D01*
X183040000Y-67480000D01*
X183040000Y-61730000D01*
G37*
G36*
X69040000Y-79730000D02*
G01*
X74790000Y-79730000D01*
X74790000Y-85480000D01*
X69040000Y-85480000D01*
X69040000Y-79730000D01*
G37*
G36*
X81040000Y-97730000D02*
G01*
X86790000Y-97730000D01*
X86790000Y-103480000D01*
X81040000Y-103480000D01*
X81040000Y-97730000D01*
G37*
G36*
X183040000Y-91730000D02*
G01*
X188790000Y-91730000D01*
X188790000Y-97480000D01*
X183040000Y-97480000D01*
X183040000Y-91730000D01*
G37*
G36*
X213040000Y-73730000D02*
G01*
X218790000Y-73730000D01*
X218790000Y-79480000D01*
X213040000Y-79480000D01*
X213040000Y-73730000D01*
G37*
G36*
X99040000Y-55730000D02*
G01*
X104790000Y-55730000D01*
X104790000Y-61480000D01*
X99040000Y-61480000D01*
X99040000Y-55730000D01*
G37*
G36*
X177040000Y-55730000D02*
G01*
X182790000Y-55730000D01*
X182790000Y-61480000D01*
X177040000Y-61480000D01*
X177040000Y-55730000D01*
G37*
G36*
X189040000Y-91730000D02*
G01*
X194790000Y-91730000D01*
X194790000Y-97480000D01*
X189040000Y-97480000D01*
X189040000Y-91730000D01*
G37*
G36*
X147040000Y-85730000D02*
G01*
X152790000Y-85730000D01*
X152790000Y-91480000D01*
X147040000Y-91480000D01*
X147040000Y-85730000D01*
G37*
G36*
X231040000Y-73730000D02*
G01*
X236790000Y-73730000D01*
X236790000Y-79480000D01*
X231040000Y-79480000D01*
X231040000Y-73730000D01*
G37*
G36*
X129040000Y-91730000D02*
G01*
X134790000Y-91730000D01*
X134790000Y-97480000D01*
X129040000Y-97480000D01*
X129040000Y-91730000D01*
G37*
G36*
X75040000Y-97730000D02*
G01*
X80790000Y-97730000D01*
X80790000Y-103480000D01*
X75040000Y-103480000D01*
X75040000Y-97730000D01*
G37*
G36*
X99040000Y-91730000D02*
G01*
X104790000Y-91730000D01*
X104790000Y-97480000D01*
X99040000Y-97480000D01*
X99040000Y-91730000D01*
G37*
G36*
X237040000Y-67730000D02*
G01*
X242790000Y-67730000D01*
X242790000Y-73480000D01*
X237040000Y-73480000D01*
X237040000Y-67730000D01*
G37*
G36*
X189040000Y-67730000D02*
G01*
X194790000Y-67730000D01*
X194790000Y-73480000D01*
X189040000Y-73480000D01*
X189040000Y-67730000D01*
G37*
G36*
X63040000Y-97730000D02*
G01*
X68790000Y-97730000D01*
X68790000Y-103480000D01*
X63040000Y-103480000D01*
X63040000Y-97730000D01*
G37*
G36*
X177040000Y-91730000D02*
G01*
X182790000Y-91730000D01*
X182790000Y-97480000D01*
X177040000Y-97480000D01*
X177040000Y-91730000D01*
G37*
G36*
X159040000Y-61730000D02*
G01*
X164790000Y-61730000D01*
X164790000Y-67480000D01*
X159040000Y-67480000D01*
X159040000Y-61730000D01*
G37*
G36*
X129040000Y-73730000D02*
G01*
X134790000Y-73730000D01*
X134790000Y-79480000D01*
X129040000Y-79480000D01*
X129040000Y-73730000D01*
G37*
G36*
X207040000Y-97730000D02*
G01*
X212790000Y-97730000D01*
X212790000Y-103480000D01*
X207040000Y-103480000D01*
X207040000Y-97730000D01*
G37*
G36*
X87040000Y-61730000D02*
G01*
X92790000Y-61730000D01*
X92790000Y-67480000D01*
X87040000Y-67480000D01*
X87040000Y-61730000D01*
G37*
G36*
X249040000Y-79730000D02*
G01*
X254790000Y-79730000D01*
X254790000Y-85480000D01*
X249040000Y-85480000D01*
X249040000Y-79730000D01*
G37*
G36*
X111040000Y-91730000D02*
G01*
X116790000Y-91730000D01*
X116790000Y-97480000D01*
X111040000Y-97480000D01*
X111040000Y-91730000D01*
G37*
G36*
X243040000Y-79730000D02*
G01*
X248790000Y-79730000D01*
X248790000Y-85480000D01*
X243040000Y-85480000D01*
X243040000Y-79730000D01*
G37*
G36*
X105040000Y-85730000D02*
G01*
X110790000Y-85730000D01*
X110790000Y-91480000D01*
X105040000Y-91480000D01*
X105040000Y-85730000D01*
G37*
G36*
X195040000Y-85730000D02*
G01*
X200790000Y-85730000D01*
X200790000Y-91480000D01*
X195040000Y-91480000D01*
X195040000Y-85730000D01*
G37*
G36*
X87040000Y-55730000D02*
G01*
X92790000Y-55730000D01*
X92790000Y-61480000D01*
X87040000Y-61480000D01*
X87040000Y-55730000D01*
G37*
G36*
X117040000Y-55730000D02*
G01*
X122790000Y-55730000D01*
X122790000Y-61480000D01*
X117040000Y-61480000D01*
X117040000Y-55730000D01*
G37*
G36*
X183040000Y-55730000D02*
G01*
X188790000Y-55730000D01*
X188790000Y-61480000D01*
X183040000Y-61480000D01*
X183040000Y-55730000D01*
G37*
G36*
X147040000Y-67730000D02*
G01*
X152790000Y-67730000D01*
X152790000Y-73480000D01*
X147040000Y-73480000D01*
X147040000Y-67730000D01*
G37*
G36*
X183040000Y-79730000D02*
G01*
X188790000Y-79730000D01*
X188790000Y-85480000D01*
X183040000Y-85480000D01*
X183040000Y-79730000D01*
G37*
G36*
X189040000Y-55730000D02*
G01*
X194790000Y-55730000D01*
X194790000Y-61480000D01*
X189040000Y-61480000D01*
X189040000Y-55730000D01*
G37*
G36*
X111040000Y-73730000D02*
G01*
X116790000Y-73730000D01*
X116790000Y-79480000D01*
X111040000Y-79480000D01*
X111040000Y-73730000D01*
G37*
G36*
X237040000Y-97730000D02*
G01*
X242790000Y-97730000D01*
X242790000Y-103480000D01*
X237040000Y-103480000D01*
X237040000Y-97730000D01*
G37*
G36*
X237040000Y-61730000D02*
G01*
X242790000Y-61730000D01*
X242790000Y-67480000D01*
X237040000Y-67480000D01*
X237040000Y-61730000D01*
G37*
G36*
X231040000Y-85730000D02*
G01*
X236790000Y-85730000D01*
X236790000Y-91480000D01*
X231040000Y-91480000D01*
X231040000Y-85730000D01*
G37*
G36*
X189040000Y-97730000D02*
G01*
X194790000Y-97730000D01*
X194790000Y-103480000D01*
X189040000Y-103480000D01*
X189040000Y-97730000D01*
G37*
G36*
X141040000Y-85730000D02*
G01*
X146790000Y-85730000D01*
X146790000Y-91480000D01*
X141040000Y-91480000D01*
X141040000Y-85730000D01*
G37*
G36*
X165040000Y-55730000D02*
G01*
X170790000Y-55730000D01*
X170790000Y-61480000D01*
X165040000Y-61480000D01*
X165040000Y-55730000D01*
G37*
G36*
X249040000Y-97730000D02*
G01*
X254790000Y-97730000D01*
X254790000Y-103480000D01*
X249040000Y-103480000D01*
X249040000Y-97730000D01*
G37*
G36*
X81040000Y-85730000D02*
G01*
X86790000Y-85730000D01*
X86790000Y-91480000D01*
X81040000Y-91480000D01*
X81040000Y-85730000D01*
G37*
G36*
X171040000Y-55730000D02*
G01*
X176790000Y-55730000D01*
X176790000Y-61480000D01*
X171040000Y-61480000D01*
X171040000Y-55730000D01*
G37*
G36*
X231040000Y-61730000D02*
G01*
X236790000Y-61730000D01*
X236790000Y-67480000D01*
X231040000Y-67480000D01*
X231040000Y-61730000D01*
G37*
G36*
X69040000Y-73730000D02*
G01*
X74790000Y-73730000D01*
X74790000Y-79480000D01*
X69040000Y-79480000D01*
X69040000Y-73730000D01*
G37*
G36*
X219040000Y-55730000D02*
G01*
X224790000Y-55730000D01*
X224790000Y-61480000D01*
X219040000Y-61480000D01*
X219040000Y-55730000D01*
G37*
G36*
X183040000Y-85730000D02*
G01*
X188790000Y-85730000D01*
X188790000Y-91480000D01*
X183040000Y-91480000D01*
X183040000Y-85730000D01*
G37*
G36*
X75040000Y-61730000D02*
G01*
X80790000Y-61730000D01*
X80790000Y-67480000D01*
X75040000Y-67480000D01*
X75040000Y-61730000D01*
G37*
G36*
X243040000Y-55730000D02*
G01*
X248790000Y-55730000D01*
X248790000Y-61480000D01*
X243040000Y-61480000D01*
X243040000Y-55730000D01*
G37*
G36*
X69040000Y-61730000D02*
G01*
X74790000Y-61730000D01*
X74790000Y-67480000D01*
X69040000Y-67480000D01*
X69040000Y-61730000D01*
G37*
G36*
X105040000Y-55730000D02*
G01*
X110790000Y-55730000D01*
X110790000Y-61480000D01*
X105040000Y-61480000D01*
X105040000Y-55730000D01*
G37*
G36*
X213040000Y-97730000D02*
G01*
X218790000Y-97730000D01*
X218790000Y-103480000D01*
X213040000Y-103480000D01*
X213040000Y-97730000D01*
G37*
G36*
X165040000Y-79730000D02*
G01*
X170790000Y-79730000D01*
X170790000Y-85480000D01*
X165040000Y-85480000D01*
X165040000Y-79730000D01*
G37*
G36*
X75040000Y-73730000D02*
G01*
X80790000Y-73730000D01*
X80790000Y-79480000D01*
X75040000Y-79480000D01*
X75040000Y-73730000D01*
G37*
G36*
X75040000Y-91730000D02*
G01*
X80790000Y-91730000D01*
X80790000Y-97480000D01*
X75040000Y-97480000D01*
X75040000Y-91730000D01*
G37*
G36*
X177040000Y-61730000D02*
G01*
X182790000Y-61730000D01*
X182790000Y-67480000D01*
X177040000Y-67480000D01*
X177040000Y-61730000D01*
G37*
G36*
X165040000Y-85730000D02*
G01*
X170790000Y-85730000D01*
X170790000Y-91480000D01*
X165040000Y-91480000D01*
X165040000Y-85730000D01*
G37*
G36*
X153040000Y-91730000D02*
G01*
X158790000Y-91730000D01*
X158790000Y-97480000D01*
X153040000Y-97480000D01*
X153040000Y-91730000D01*
G37*
G36*
X159040000Y-55730000D02*
G01*
X164790000Y-55730000D01*
X164790000Y-61480000D01*
X159040000Y-61480000D01*
X159040000Y-55730000D01*
G37*
G36*
X147040000Y-61730000D02*
G01*
X152790000Y-61730000D01*
X152790000Y-67480000D01*
X147040000Y-67480000D01*
X147040000Y-61730000D01*
G37*
G36*
X195040000Y-91730000D02*
G01*
X200790000Y-91730000D01*
X200790000Y-97480000D01*
X195040000Y-97480000D01*
X195040000Y-91730000D01*
G37*
G36*
X189040000Y-61730000D02*
G01*
X194790000Y-61730000D01*
X194790000Y-67480000D01*
X189040000Y-67480000D01*
X189040000Y-61730000D01*
G37*
G36*
X129040000Y-67730000D02*
G01*
X134790000Y-67730000D01*
X134790000Y-73480000D01*
X129040000Y-73480000D01*
X129040000Y-67730000D01*
G37*
G36*
X201040000Y-73730000D02*
G01*
X206790000Y-73730000D01*
X206790000Y-79480000D01*
X201040000Y-79480000D01*
X201040000Y-73730000D01*
G37*
G36*
X135040000Y-55730000D02*
G01*
X140790000Y-55730000D01*
X140790000Y-61480000D01*
X135040000Y-61480000D01*
X135040000Y-55730000D01*
G37*
G36*
X129040000Y-97730000D02*
G01*
X134790000Y-97730000D01*
X134790000Y-103480000D01*
X129040000Y-103480000D01*
X129040000Y-97730000D01*
G37*
G36*
X237040000Y-79730000D02*
G01*
X242790000Y-79730000D01*
X242790000Y-85480000D01*
X237040000Y-85480000D01*
X237040000Y-79730000D01*
G37*
G36*
X189040000Y-85730000D02*
G01*
X194790000Y-85730000D01*
X194790000Y-91480000D01*
X189040000Y-91480000D01*
X189040000Y-85730000D01*
G37*
G36*
X243040000Y-67730000D02*
G01*
X248790000Y-67730000D01*
X248790000Y-73480000D01*
X243040000Y-73480000D01*
X243040000Y-67730000D01*
G37*
G36*
X63040000Y-55730000D02*
G01*
X68790000Y-55730000D01*
X68790000Y-61480000D01*
X63040000Y-61480000D01*
X63040000Y-55730000D01*
G37*
G36*
X207040000Y-73730000D02*
G01*
X212790000Y-73730000D01*
X212790000Y-79480000D01*
X207040000Y-79480000D01*
X207040000Y-73730000D01*
G37*
G36*
X105040000Y-67730000D02*
G01*
X110790000Y-67730000D01*
X110790000Y-73480000D01*
X105040000Y-73480000D01*
X105040000Y-67730000D01*
G37*
G36*
X213040000Y-55730000D02*
G01*
X218790000Y-55730000D01*
X218790000Y-61480000D01*
X213040000Y-61480000D01*
X213040000Y-55730000D01*
G37*
G36*
X207040000Y-61730000D02*
G01*
X212790000Y-61730000D01*
X212790000Y-67480000D01*
X207040000Y-67480000D01*
X207040000Y-61730000D01*
G37*
G36*
X243040000Y-91730000D02*
G01*
X248790000Y-91730000D01*
X248790000Y-97480000D01*
X243040000Y-97480000D01*
X243040000Y-91730000D01*
G37*
G36*
X75040000Y-85730000D02*
G01*
X80790000Y-85730000D01*
X80790000Y-91480000D01*
X75040000Y-91480000D01*
X75040000Y-85730000D01*
G37*
G36*
X135040000Y-91730000D02*
G01*
X140790000Y-91730000D01*
X140790000Y-97480000D01*
X135040000Y-97480000D01*
X135040000Y-91730000D01*
G37*
G36*
X159040000Y-73730000D02*
G01*
X164790000Y-73730000D01*
X164790000Y-79480000D01*
X159040000Y-79480000D01*
X159040000Y-73730000D01*
G37*
G36*
X81040000Y-67730000D02*
G01*
X86790000Y-67730000D01*
X86790000Y-73480000D01*
X81040000Y-73480000D01*
X81040000Y-67730000D01*
G37*
G36*
X207040000Y-67730000D02*
G01*
X212790000Y-67730000D01*
X212790000Y-73480000D01*
X207040000Y-73480000D01*
X207040000Y-67730000D01*
G37*
G36*
X117040000Y-79730000D02*
G01*
X122790000Y-79730000D01*
X122790000Y-85480000D01*
X117040000Y-85480000D01*
X117040000Y-79730000D01*
G37*
G36*
X231040000Y-91730000D02*
G01*
X236790000Y-91730000D01*
X236790000Y-97480000D01*
X231040000Y-97480000D01*
X231040000Y-91730000D01*
G37*
G36*
X147040000Y-73730000D02*
G01*
X152790000Y-73730000D01*
X152790000Y-79480000D01*
X147040000Y-79480000D01*
X147040000Y-73730000D01*
G37*
G36*
X153040000Y-61730000D02*
G01*
X158790000Y-61730000D01*
X158790000Y-67480000D01*
X153040000Y-67480000D01*
X153040000Y-61730000D01*
G37*
G36*
X93040000Y-79730000D02*
G01*
X98790000Y-79730000D01*
X98790000Y-85480000D01*
X93040000Y-85480000D01*
X93040000Y-79730000D01*
G37*
G36*
X249040000Y-85730000D02*
G01*
X254790000Y-85730000D01*
X254790000Y-91480000D01*
X249040000Y-91480000D01*
X249040000Y-85730000D01*
G37*
G36*
X183040000Y-97730000D02*
G01*
X188790000Y-97730000D01*
X188790000Y-103480000D01*
X183040000Y-103480000D01*
X183040000Y-97730000D01*
G37*
G36*
X165040000Y-97730000D02*
G01*
X170790000Y-97730000D01*
X170790000Y-103480000D01*
X165040000Y-103480000D01*
X165040000Y-97730000D01*
G37*
G36*
X225040000Y-91730000D02*
G01*
X230790000Y-91730000D01*
X230790000Y-97480000D01*
X225040000Y-97480000D01*
X225040000Y-91730000D01*
G37*
G36*
X135040000Y-85730000D02*
G01*
X140790000Y-85730000D01*
X140790000Y-91480000D01*
X135040000Y-91480000D01*
X135040000Y-85730000D01*
G37*
G36*
X201040000Y-67730000D02*
G01*
X206790000Y-67730000D01*
X206790000Y-73480000D01*
X201040000Y-73480000D01*
X201040000Y-67730000D01*
G37*
G36*
X123040000Y-61730000D02*
G01*
X128790000Y-61730000D01*
X128790000Y-67480000D01*
X123040000Y-67480000D01*
X123040000Y-61730000D01*
G37*
G36*
X195040000Y-67730000D02*
G01*
X200790000Y-67730000D01*
X200790000Y-73480000D01*
X195040000Y-73480000D01*
X195040000Y-67730000D01*
G37*
G36*
X99040000Y-61730000D02*
G01*
X104790000Y-61730000D01*
X104790000Y-67480000D01*
X99040000Y-67480000D01*
X99040000Y-61730000D01*
G37*
G36*
X183040000Y-67730000D02*
G01*
X188790000Y-67730000D01*
X188790000Y-73480000D01*
X183040000Y-73480000D01*
X183040000Y-67730000D01*
G37*
G36*
X177040000Y-73730000D02*
G01*
X182790000Y-73730000D01*
X182790000Y-79480000D01*
X177040000Y-79480000D01*
X177040000Y-73730000D01*
G37*
G36*
X165040000Y-91730000D02*
G01*
X170790000Y-91730000D01*
X170790000Y-97480000D01*
X165040000Y-97480000D01*
X165040000Y-91730000D01*
G37*
G36*
X165040000Y-67730000D02*
G01*
X170790000Y-67730000D01*
X170790000Y-73480000D01*
X165040000Y-73480000D01*
X165040000Y-67730000D01*
G37*
G36*
X141040000Y-55730000D02*
G01*
X146790000Y-55730000D01*
X146790000Y-61480000D01*
X141040000Y-61480000D01*
X141040000Y-55730000D01*
G37*
G36*
X195040000Y-55730000D02*
G01*
X200790000Y-55730000D01*
X200790000Y-61480000D01*
X195040000Y-61480000D01*
X195040000Y-55730000D01*
G37*
G36*
X93040000Y-73730000D02*
G01*
X98790000Y-73730000D01*
X98790000Y-79480000D01*
X93040000Y-79480000D01*
X93040000Y-73730000D01*
G37*
G36*
X207040000Y-55730000D02*
G01*
X212790000Y-55730000D01*
X212790000Y-61480000D01*
X207040000Y-61480000D01*
X207040000Y-55730000D01*
G37*
G36*
X135040000Y-73730000D02*
G01*
X140790000Y-73730000D01*
X140790000Y-79480000D01*
X135040000Y-79480000D01*
X135040000Y-73730000D01*
G37*
G36*
X171040000Y-67730000D02*
G01*
X176790000Y-67730000D01*
X176790000Y-73480000D01*
X171040000Y-73480000D01*
X171040000Y-67730000D01*
G37*
G36*
X153040000Y-79730000D02*
G01*
X158790000Y-79730000D01*
X158790000Y-85480000D01*
X153040000Y-85480000D01*
X153040000Y-79730000D01*
G37*
G36*
X93040000Y-67730000D02*
G01*
X98790000Y-67730000D01*
X98790000Y-73480000D01*
X93040000Y-73480000D01*
X93040000Y-67730000D01*
G37*
G36*
X93040000Y-61730000D02*
G01*
X98790000Y-61730000D01*
X98790000Y-67480000D01*
X93040000Y-67480000D01*
X93040000Y-61730000D01*
G37*
G36*
X159040000Y-85730000D02*
G01*
X164790000Y-85730000D01*
X164790000Y-91480000D01*
X159040000Y-91480000D01*
X159040000Y-85730000D01*
G37*
G36*
X87040000Y-91730000D02*
G01*
X92790000Y-91730000D01*
X92790000Y-97480000D01*
X87040000Y-97480000D01*
X87040000Y-91730000D01*
G37*
G36*
X141040000Y-91730000D02*
G01*
X146790000Y-91730000D01*
X146790000Y-97480000D01*
X141040000Y-97480000D01*
X141040000Y-91730000D01*
G37*
G36*
X111040000Y-97730000D02*
G01*
X116790000Y-97730000D01*
X116790000Y-103480000D01*
X111040000Y-103480000D01*
X111040000Y-97730000D01*
G37*
G36*
X225040000Y-79730000D02*
G01*
X230790000Y-79730000D01*
X230790000Y-85480000D01*
X225040000Y-85480000D01*
X225040000Y-79730000D01*
G37*
G36*
X105040000Y-97730000D02*
G01*
X110790000Y-97730000D01*
X110790000Y-103480000D01*
X105040000Y-103480000D01*
X105040000Y-97730000D01*
G37*
G36*
X231040000Y-79730000D02*
G01*
X236790000Y-79730000D01*
X236790000Y-85480000D01*
X231040000Y-85480000D01*
X231040000Y-79730000D01*
G37*
G36*
X75040000Y-67730000D02*
G01*
X80790000Y-67730000D01*
X80790000Y-73480000D01*
X75040000Y-73480000D01*
X75040000Y-67730000D01*
G37*
G36*
X237040000Y-91730000D02*
G01*
X242790000Y-91730000D01*
X242790000Y-97480000D01*
X237040000Y-97480000D01*
X237040000Y-91730000D01*
G37*
G36*
X171040000Y-91730000D02*
G01*
X176790000Y-91730000D01*
X176790000Y-97480000D01*
X171040000Y-97480000D01*
X171040000Y-91730000D01*
G37*
G36*
X117040000Y-91730000D02*
G01*
X122790000Y-91730000D01*
X122790000Y-97480000D01*
X117040000Y-97480000D01*
X117040000Y-91730000D01*
G37*
G36*
X201040000Y-85730000D02*
G01*
X206790000Y-85730000D01*
X206790000Y-91480000D01*
X201040000Y-91480000D01*
X201040000Y-85730000D01*
G37*
G36*
X201040000Y-97730000D02*
G01*
X206790000Y-97730000D01*
X206790000Y-103480000D01*
X201040000Y-103480000D01*
X201040000Y-97730000D01*
G37*
G36*
X135040000Y-61730000D02*
G01*
X140790000Y-61730000D01*
X140790000Y-67480000D01*
X135040000Y-67480000D01*
X135040000Y-61730000D01*
G37*
G36*
X201040000Y-61730000D02*
G01*
X206790000Y-61730000D01*
X206790000Y-67480000D01*
X201040000Y-67480000D01*
X201040000Y-61730000D01*
G37*
G36*
X129040000Y-79730000D02*
G01*
X134790000Y-79730000D01*
X134790000Y-85480000D01*
X129040000Y-85480000D01*
X129040000Y-79730000D01*
G37*
G36*
X171040000Y-73730000D02*
G01*
X176790000Y-73730000D01*
X176790000Y-79480000D01*
X171040000Y-79480000D01*
X171040000Y-73730000D01*
G37*
G36*
X219040000Y-73730000D02*
G01*
X224790000Y-73730000D01*
X224790000Y-79480000D01*
X219040000Y-79480000D01*
X219040000Y-73730000D01*
G37*
G36*
X231040000Y-97730000D02*
G01*
X236790000Y-97730000D01*
X236790000Y-103480000D01*
X231040000Y-103480000D01*
X231040000Y-97730000D01*
G37*
G36*
X201040000Y-55730000D02*
G01*
X206790000Y-55730000D01*
X206790000Y-61480000D01*
X201040000Y-61480000D01*
X201040000Y-55730000D01*
G37*
G36*
X75040000Y-79730000D02*
G01*
X80790000Y-79730000D01*
X80790000Y-85480000D01*
X75040000Y-85480000D01*
X75040000Y-79730000D01*
G37*
G36*
X87040000Y-67730000D02*
G01*
X92790000Y-67730000D01*
X92790000Y-73480000D01*
X87040000Y-73480000D01*
X87040000Y-67730000D01*
G37*
G36*
X219040000Y-79730000D02*
G01*
X224790000Y-79730000D01*
X224790000Y-85480000D01*
X219040000Y-85480000D01*
X219040000Y-79730000D01*
G37*
G36*
X129040000Y-85730000D02*
G01*
X134790000Y-85730000D01*
X134790000Y-91480000D01*
X129040000Y-91480000D01*
X129040000Y-85730000D01*
G37*
G36*
X93040000Y-91730000D02*
G01*
X98790000Y-91730000D01*
X98790000Y-97480000D01*
X93040000Y-97480000D01*
X93040000Y-91730000D01*
G37*
G36*
X111040000Y-67730000D02*
G01*
X116790000Y-67730000D01*
X116790000Y-73480000D01*
X111040000Y-73480000D01*
X111040000Y-67730000D01*
G37*
M02*
