G04 #@! TF.GenerationSoftware,KiCad,Pcbnew,6.0.8+dfsg-1~bpo11+1*
G04 #@! TF.CreationDate,2023-05-15T15:28:37-04:00*
G04 #@! TF.ProjectId,07_padded_interleaved_tight,30375f70-6164-4646-9564-5f696e746572,rev?*
G04 #@! TF.SameCoordinates,Original*
G04 #@! TF.FileFunction,Copper,L1,Top*
G04 #@! TF.FilePolarity,Positive*
%FSLAX46Y46*%
G04 Gerber Fmt 4.6, Leading zero omitted, Abs format (unit mm)*
G04 Created by KiCad (PCBNEW 6.0.8+dfsg-1~bpo11+1) date 2023-05-15 15:28:37*
%MOMM*%
%LPD*%
G01*
G04 APERTURE LIST*
G04 Aperture macros list*
%AMFreePoly0*
4,1,121,70.035502,0.119852,70.043091,0.114952,70.052035,0.113655,70.072199,0.096157,70.094624,0.081678,70.098364,0.073453,70.105189,0.067530,70.112704,0.041914,70.123753,0.017613,70.122456,0.008670,70.125000,0.000000,70.125000,-1.375000,71.875000,-1.375000,71.875000,0.000000,71.880148,0.035502,71.885048,0.043091,71.886345,0.052035,71.903843,0.072199,71.918322,0.094624,71.926547,0.098364,
71.932470,0.105189,71.958086,0.112704,71.982387,0.123753,71.991330,0.122456,72.000000,0.125000,73.500000,0.125000,73.535502,0.119852,73.594624,0.081678,73.623753,0.017613,73.613655,-0.052035,73.567530,-0.105189,73.500000,-0.125000,72.125000,-0.125000,72.125000,-0.875000,73.500000,-0.875000,73.535502,-0.880148,73.594624,-0.918322,73.623753,-0.982387,73.613655,-1.052035,73.567530,-1.105189,
73.500000,-1.125000,72.125000,-1.125000,72.125000,-1.875000,73.500000,-1.875000,73.535502,-1.880148,73.594624,-1.918322,73.623753,-1.982387,73.613655,-2.052035,73.567530,-2.105189,73.500000,-2.125000,72.125000,-2.125000,72.125000,-2.875000,73.500000,-2.875000,73.535502,-2.880148,73.594624,-2.918322,73.623753,-2.982387,73.613655,-3.052035,73.567530,-3.105189,73.500000,-3.125000,72.000000,-3.125000,
71.964498,-3.119852,71.956909,-3.114952,71.947965,-3.113655,71.927801,-3.096157,71.905376,-3.081678,71.901636,-3.073453,71.894811,-3.067530,71.887296,-3.041914,71.876247,-3.017613,71.877544,-3.008670,71.875000,-3.000000,71.875000,-1.625000,70.125000,-1.625000,70.125000,-3.000000,70.119852,-3.035502,70.114952,-3.043091,70.113655,-3.052035,70.096157,-3.072199,70.081678,-3.094624,70.073453,-3.098364,
70.067530,-3.105189,70.041914,-3.112704,70.017613,-3.123753,70.008670,-3.122456,70.000000,-3.125000,68.500000,-3.125000,68.464498,-3.119852,68.405376,-3.081678,68.376247,-3.017613,68.386345,-2.947965,68.432470,-2.894811,68.500000,-2.875000,69.875000,-2.875000,69.875000,-2.125000,68.500000,-2.125000,68.464498,-2.119852,68.405376,-2.081678,68.376247,-2.017613,68.386345,-1.947965,68.432470,-1.894811,
68.500000,-1.875000,69.875000,-1.875000,69.875000,-1.125000,68.500000,-1.125000,68.464498,-1.119852,68.405376,-1.081678,68.376247,-1.017613,68.386345,-0.947965,68.432470,-0.894811,68.500000,-0.875000,69.875000,-0.875000,69.875000,-0.125000,68.500000,-0.125000,68.464498,-0.119852,68.405376,-0.081678,68.376247,-0.017613,68.386345,0.052035,68.432470,0.105189,68.500000,0.125000,70.000000,0.125000,
70.035502,0.119852,70.035502,0.119852,$1*%
%AMFreePoly1*
4,1,121,46.035502,0.119852,46.043091,0.114952,46.052035,0.113655,46.072199,0.096157,46.094624,0.081678,46.098364,0.073453,46.105189,0.067530,46.112704,0.041914,46.123753,0.017613,46.122456,0.008670,46.125000,0.000000,46.125000,-1.375000,47.875000,-1.375000,47.875000,0.000000,47.880148,0.035502,47.885048,0.043091,47.886345,0.052035,47.903843,0.072199,47.918322,0.094624,47.926547,0.098364,
47.932470,0.105189,47.958086,0.112704,47.982387,0.123753,47.991330,0.122456,48.000000,0.125000,49.500000,0.125000,49.535502,0.119852,49.594624,0.081678,49.623753,0.017613,49.613655,-0.052035,49.567530,-0.105189,49.500000,-0.125000,48.125000,-0.125000,48.125000,-0.875000,49.500000,-0.875000,49.535502,-0.880148,49.594624,-0.918322,49.623753,-0.982387,49.613655,-1.052035,49.567530,-1.105189,
49.500000,-1.125000,48.125000,-1.125000,48.125000,-1.875000,49.500000,-1.875000,49.535502,-1.880148,49.594624,-1.918322,49.623753,-1.982387,49.613655,-2.052035,49.567530,-2.105189,49.500000,-2.125000,48.125000,-2.125000,48.125000,-2.875000,49.500000,-2.875000,49.535502,-2.880148,49.594624,-2.918322,49.623753,-2.982387,49.613655,-3.052035,49.567530,-3.105189,49.500000,-3.125000,48.000000,-3.125000,
47.964498,-3.119852,47.956909,-3.114952,47.947965,-3.113655,47.927801,-3.096157,47.905376,-3.081678,47.901636,-3.073453,47.894811,-3.067530,47.887296,-3.041914,47.876247,-3.017613,47.877544,-3.008670,47.875000,-3.000000,47.875000,-1.625000,46.125000,-1.625000,46.125000,-3.000000,46.119852,-3.035502,46.114952,-3.043091,46.113655,-3.052035,46.096157,-3.072199,46.081678,-3.094624,46.073453,-3.098364,
46.067530,-3.105189,46.041914,-3.112704,46.017613,-3.123753,46.008670,-3.122456,46.000000,-3.125000,44.500000,-3.125000,44.464498,-3.119852,44.405376,-3.081678,44.376247,-3.017613,44.386345,-2.947965,44.432470,-2.894811,44.500000,-2.875000,45.875000,-2.875000,45.875000,-2.125000,44.500000,-2.125000,44.464498,-2.119852,44.405376,-2.081678,44.376247,-2.017613,44.386345,-1.947965,44.432470,-1.894811,
44.500000,-1.875000,45.875000,-1.875000,45.875000,-1.125000,44.500000,-1.125000,44.464498,-1.119852,44.405376,-1.081678,44.376247,-1.017613,44.386345,-0.947965,44.432470,-0.894811,44.500000,-0.875000,45.875000,-0.875000,45.875000,-0.125000,44.500000,-0.125000,44.464498,-0.119852,44.405376,-0.081678,44.376247,-0.017613,44.386345,0.052035,44.432470,0.105189,44.500000,0.125000,46.000000,0.125000,
46.035502,0.119852,46.035502,0.119852,$1*%
%AMFreePoly2*
4,1,121,82.035502,0.119852,82.043091,0.114952,82.052035,0.113655,82.072199,0.096157,82.094624,0.081678,82.098364,0.073453,82.105189,0.067530,82.112704,0.041914,82.123753,0.017613,82.122456,0.008670,82.125000,0.000000,82.125000,-1.375000,83.875000,-1.375000,83.875000,0.000000,83.880148,0.035502,83.885048,0.043091,83.886345,0.052035,83.903843,0.072199,83.918322,0.094624,83.926547,0.098364,
83.932470,0.105189,83.958086,0.112704,83.982387,0.123753,83.991330,0.122456,84.000000,0.125000,85.500000,0.125000,85.535502,0.119852,85.594624,0.081678,85.623753,0.017613,85.613655,-0.052035,85.567530,-0.105189,85.500000,-0.125000,84.125000,-0.125000,84.125000,-0.875000,85.500000,-0.875000,85.535502,-0.880148,85.594624,-0.918322,85.623753,-0.982387,85.613655,-1.052035,85.567530,-1.105189,
85.500000,-1.125000,84.125000,-1.125000,84.125000,-1.875000,85.500000,-1.875000,85.535502,-1.880148,85.594624,-1.918322,85.623753,-1.982387,85.613655,-2.052035,85.567530,-2.105189,85.500000,-2.125000,84.125000,-2.125000,84.125000,-2.875000,85.500000,-2.875000,85.535502,-2.880148,85.594624,-2.918322,85.623753,-2.982387,85.613655,-3.052035,85.567530,-3.105189,85.500000,-3.125000,84.000000,-3.125000,
83.964498,-3.119852,83.956909,-3.114952,83.947965,-3.113655,83.927801,-3.096157,83.905376,-3.081678,83.901636,-3.073453,83.894811,-3.067530,83.887296,-3.041914,83.876247,-3.017613,83.877544,-3.008670,83.875000,-3.000000,83.875000,-1.625000,82.125000,-1.625000,82.125000,-3.000000,82.119852,-3.035502,82.114952,-3.043091,82.113655,-3.052035,82.096157,-3.072199,82.081678,-3.094624,82.073453,-3.098364,
82.067530,-3.105189,82.041914,-3.112704,82.017613,-3.123753,82.008670,-3.122456,82.000000,-3.125000,80.500000,-3.125000,80.464498,-3.119852,80.405376,-3.081678,80.376247,-3.017613,80.386345,-2.947965,80.432470,-2.894811,80.500000,-2.875000,81.875000,-2.875000,81.875000,-2.125000,80.500000,-2.125000,80.464498,-2.119852,80.405376,-2.081678,80.376247,-2.017613,80.386345,-1.947965,80.432470,-1.894811,
80.500000,-1.875000,81.875000,-1.875000,81.875000,-1.125000,80.500000,-1.125000,80.464498,-1.119852,80.405376,-1.081678,80.376247,-1.017613,80.386345,-0.947965,80.432470,-0.894811,80.500000,-0.875000,81.875000,-0.875000,81.875000,-0.125000,80.500000,-0.125000,80.464498,-0.119852,80.405376,-0.081678,80.376247,-0.017613,80.386345,0.052035,80.432470,0.105189,80.500000,0.125000,82.000000,0.125000,
82.035502,0.119852,82.035502,0.119852,$1*%
%AMFreePoly3*
4,1,59,190.035502,0.119852,190.043091,0.114952,190.052035,0.113655,190.072199,0.096157,190.094624,0.081678,190.098364,0.073453,190.105189,0.067530,190.112704,0.041914,190.123753,0.017613,190.122456,0.008670,190.125000,0.000000,190.125000,-3.000000,190.119852,-3.035502,190.114952,-3.043091,190.113655,-3.052035,190.096157,-3.072199,190.081678,-3.094624,190.073453,-3.098364,190.067530,-3.105189,190.041914,-3.112704,
190.017613,-3.123753,190.008670,-3.122456,190.000000,-3.125000,188.500000,-3.125000,188.464498,-3.119852,188.405376,-3.081678,188.376247,-3.017613,188.386345,-2.947965,188.432470,-2.894811,188.500000,-2.875000,189.875000,-2.875000,189.875000,-2.125000,188.500000,-2.125000,188.464498,-2.119852,188.405376,-2.081678,188.376247,-2.017613,188.386345,-1.947965,188.432470,-1.894811,188.500000,-1.875000,189.875000,-1.875000,
189.875000,-1.125000,188.500000,-1.125000,188.464498,-1.119852,188.405376,-1.081678,188.376247,-1.017613,188.386345,-0.947965,188.432470,-0.894811,188.500000,-0.875000,189.875000,-0.875000,189.875000,-0.125000,188.500000,-0.125000,188.464498,-0.119852,188.405376,-0.081678,188.376247,-0.017613,188.386345,0.052035,188.432470,0.105189,188.500000,0.125000,190.000000,0.125000,190.035502,0.119852,190.035502,0.119852,
$1*%
%AMFreePoly4*
4,1,121,100.035502,0.119852,100.043091,0.114952,100.052035,0.113655,100.072199,0.096157,100.094624,0.081678,100.098364,0.073453,100.105189,0.067530,100.112704,0.041914,100.123753,0.017613,100.122456,0.008670,100.125000,0.000000,100.125000,-1.375000,101.875000,-1.375000,101.875000,0.000000,101.880148,0.035502,101.885048,0.043091,101.886345,0.052035,101.903843,0.072199,101.918322,0.094624,101.926547,0.098364,
101.932470,0.105189,101.958086,0.112704,101.982387,0.123753,101.991330,0.122456,102.000000,0.125000,103.500000,0.125000,103.535502,0.119852,103.594624,0.081678,103.623753,0.017613,103.613655,-0.052035,103.567530,-0.105189,103.500000,-0.125000,102.125000,-0.125000,102.125000,-0.875000,103.500000,-0.875000,103.535502,-0.880148,103.594624,-0.918322,103.623753,-0.982387,103.613655,-1.052035,103.567530,-1.105189,
103.500000,-1.125000,102.125000,-1.125000,102.125000,-1.875000,103.500000,-1.875000,103.535502,-1.880148,103.594624,-1.918322,103.623753,-1.982387,103.613655,-2.052035,103.567530,-2.105189,103.500000,-2.125000,102.125000,-2.125000,102.125000,-2.875000,103.500000,-2.875000,103.535502,-2.880148,103.594624,-2.918322,103.623753,-2.982387,103.613655,-3.052035,103.567530,-3.105189,103.500000,-3.125000,102.000000,-3.125000,
101.964498,-3.119852,101.956909,-3.114952,101.947965,-3.113655,101.927801,-3.096157,101.905376,-3.081678,101.901636,-3.073453,101.894811,-3.067530,101.887296,-3.041914,101.876247,-3.017613,101.877544,-3.008670,101.875000,-3.000000,101.875000,-1.625000,100.125000,-1.625000,100.125000,-3.000000,100.119852,-3.035502,100.114952,-3.043091,100.113655,-3.052035,100.096157,-3.072199,100.081678,-3.094624,100.073453,-3.098364,
100.067530,-3.105189,100.041914,-3.112704,100.017613,-3.123753,100.008670,-3.122456,100.000000,-3.125000,98.500000,-3.125000,98.464498,-3.119852,98.405376,-3.081678,98.376247,-3.017613,98.386345,-2.947965,98.432470,-2.894811,98.500000,-2.875000,99.875000,-2.875000,99.875000,-2.125000,98.500000,-2.125000,98.464498,-2.119852,98.405376,-2.081678,98.376247,-2.017613,98.386345,-1.947965,98.432470,-1.894811,
98.500000,-1.875000,99.875000,-1.875000,99.875000,-1.125000,98.500000,-1.125000,98.464498,-1.119852,98.405376,-1.081678,98.376247,-1.017613,98.386345,-0.947965,98.432470,-0.894811,98.500000,-0.875000,99.875000,-0.875000,99.875000,-0.125000,98.500000,-0.125000,98.464498,-0.119852,98.405376,-0.081678,98.376247,-0.017613,98.386345,0.052035,98.432470,0.105189,98.500000,0.125000,100.000000,0.125000,
100.035502,0.119852,100.035502,0.119852,$1*%
%AMFreePoly5*
4,1,121,178.035502,0.119852,178.043091,0.114952,178.052035,0.113655,178.072199,0.096157,178.094624,0.081678,178.098364,0.073453,178.105189,0.067530,178.112704,0.041914,178.123753,0.017613,178.122456,0.008670,178.125000,0.000000,178.125000,-1.375000,179.875000,-1.375000,179.875000,0.000000,179.880148,0.035502,179.885048,0.043091,179.886345,0.052035,179.903843,0.072199,179.918322,0.094624,179.926547,0.098364,
179.932470,0.105189,179.958086,0.112704,179.982387,0.123753,179.991330,0.122456,180.000000,0.125000,181.500000,0.125000,181.535502,0.119852,181.594624,0.081678,181.623753,0.017613,181.613655,-0.052035,181.567530,-0.105189,181.500000,-0.125000,180.125000,-0.125000,180.125000,-0.875000,181.500000,-0.875000,181.535502,-0.880148,181.594624,-0.918322,181.623753,-0.982387,181.613655,-1.052035,181.567530,-1.105189,
181.500000,-1.125000,180.125000,-1.125000,180.125000,-1.875000,181.500000,-1.875000,181.535502,-1.880148,181.594624,-1.918322,181.623753,-1.982387,181.613655,-2.052035,181.567530,-2.105189,181.500000,-2.125000,180.125000,-2.125000,180.125000,-2.875000,181.500000,-2.875000,181.535502,-2.880148,181.594624,-2.918322,181.623753,-2.982387,181.613655,-3.052035,181.567530,-3.105189,181.500000,-3.125000,180.000000,-3.125000,
179.964498,-3.119852,179.956909,-3.114952,179.947965,-3.113655,179.927801,-3.096157,179.905376,-3.081678,179.901636,-3.073453,179.894811,-3.067530,179.887296,-3.041914,179.876247,-3.017613,179.877544,-3.008670,179.875000,-3.000000,179.875000,-1.625000,178.125000,-1.625000,178.125000,-3.000000,178.119852,-3.035502,178.114952,-3.043091,178.113655,-3.052035,178.096157,-3.072199,178.081678,-3.094624,178.073453,-3.098364,
178.067530,-3.105189,178.041914,-3.112704,178.017613,-3.123753,178.008670,-3.122456,178.000000,-3.125000,176.500000,-3.125000,176.464498,-3.119852,176.405376,-3.081678,176.376247,-3.017613,176.386345,-2.947965,176.432470,-2.894811,176.500000,-2.875000,177.875000,-2.875000,177.875000,-2.125000,176.500000,-2.125000,176.464498,-2.119852,176.405376,-2.081678,176.376247,-2.017613,176.386345,-1.947965,176.432470,-1.894811,
176.500000,-1.875000,177.875000,-1.875000,177.875000,-1.125000,176.500000,-1.125000,176.464498,-1.119852,176.405376,-1.081678,176.376247,-1.017613,176.386345,-0.947965,176.432470,-0.894811,176.500000,-0.875000,177.875000,-0.875000,177.875000,-0.125000,176.500000,-0.125000,176.464498,-0.119852,176.405376,-0.081678,176.376247,-0.017613,176.386345,0.052035,176.432470,0.105189,176.500000,0.125000,178.000000,0.125000,
178.035502,0.119852,178.035502,0.119852,$1*%
%AMFreePoly6*
4,1,121,88.035502,0.119852,88.043091,0.114952,88.052035,0.113655,88.072199,0.096157,88.094624,0.081678,88.098364,0.073453,88.105189,0.067530,88.112704,0.041914,88.123753,0.017613,88.122456,0.008670,88.125000,0.000000,88.125000,-1.375000,89.875000,-1.375000,89.875000,0.000000,89.880148,0.035502,89.885048,0.043091,89.886345,0.052035,89.903843,0.072199,89.918322,0.094624,89.926547,0.098364,
89.932470,0.105189,89.958086,0.112704,89.982387,0.123753,89.991330,0.122456,90.000000,0.125000,91.500000,0.125000,91.535502,0.119852,91.594624,0.081678,91.623753,0.017613,91.613655,-0.052035,91.567530,-0.105189,91.500000,-0.125000,90.125000,-0.125000,90.125000,-0.875000,91.500000,-0.875000,91.535502,-0.880148,91.594624,-0.918322,91.623753,-0.982387,91.613655,-1.052035,91.567530,-1.105189,
91.500000,-1.125000,90.125000,-1.125000,90.125000,-1.875000,91.500000,-1.875000,91.535502,-1.880148,91.594624,-1.918322,91.623753,-1.982387,91.613655,-2.052035,91.567530,-2.105189,91.500000,-2.125000,90.125000,-2.125000,90.125000,-2.875000,91.500000,-2.875000,91.535502,-2.880148,91.594624,-2.918322,91.623753,-2.982387,91.613655,-3.052035,91.567530,-3.105189,91.500000,-3.125000,90.000000,-3.125000,
89.964498,-3.119852,89.956909,-3.114952,89.947965,-3.113655,89.927801,-3.096157,89.905376,-3.081678,89.901636,-3.073453,89.894811,-3.067530,89.887296,-3.041914,89.876247,-3.017613,89.877544,-3.008670,89.875000,-3.000000,89.875000,-1.625000,88.125000,-1.625000,88.125000,-3.000000,88.119852,-3.035502,88.114952,-3.043091,88.113655,-3.052035,88.096157,-3.072199,88.081678,-3.094624,88.073453,-3.098364,
88.067530,-3.105189,88.041914,-3.112704,88.017613,-3.123753,88.008670,-3.122456,88.000000,-3.125000,86.500000,-3.125000,86.464498,-3.119852,86.405376,-3.081678,86.376247,-3.017613,86.386345,-2.947965,86.432470,-2.894811,86.500000,-2.875000,87.875000,-2.875000,87.875000,-2.125000,86.500000,-2.125000,86.464498,-2.119852,86.405376,-2.081678,86.376247,-2.017613,86.386345,-1.947965,86.432470,-1.894811,
86.500000,-1.875000,87.875000,-1.875000,87.875000,-1.125000,86.500000,-1.125000,86.464498,-1.119852,86.405376,-1.081678,86.376247,-1.017613,86.386345,-0.947965,86.432470,-0.894811,86.500000,-0.875000,87.875000,-0.875000,87.875000,-0.125000,86.500000,-0.125000,86.464498,-0.119852,86.405376,-0.081678,86.376247,-0.017613,86.386345,0.052035,86.432470,0.105189,86.500000,0.125000,88.000000,0.125000,
88.035502,0.119852,88.035502,0.119852,$1*%
%AMFreePoly7*
4,1,121,28.035502,0.119852,28.043091,0.114952,28.052035,0.113655,28.072199,0.096157,28.094624,0.081678,28.098364,0.073453,28.105189,0.067530,28.112704,0.041914,28.123753,0.017613,28.122456,0.008670,28.125000,0.000000,28.125000,-1.375000,29.875000,-1.375000,29.875000,0.000000,29.880148,0.035502,29.885048,0.043091,29.886345,0.052035,29.903843,0.072199,29.918322,0.094624,29.926547,0.098364,
29.932470,0.105189,29.958086,0.112704,29.982387,0.123753,29.991330,0.122456,30.000000,0.125000,31.500000,0.125000,31.535502,0.119852,31.594624,0.081678,31.623753,0.017613,31.613655,-0.052035,31.567530,-0.105189,31.500000,-0.125000,30.125000,-0.125000,30.125000,-0.875000,31.500000,-0.875000,31.535502,-0.880148,31.594624,-0.918322,31.623753,-0.982387,31.613655,-1.052035,31.567530,-1.105189,
31.500000,-1.125000,30.125000,-1.125000,30.125000,-1.875000,31.500000,-1.875000,31.535502,-1.880148,31.594624,-1.918322,31.623753,-1.982387,31.613655,-2.052035,31.567530,-2.105189,31.500000,-2.125000,30.125000,-2.125000,30.125000,-2.875000,31.500000,-2.875000,31.535502,-2.880148,31.594624,-2.918322,31.623753,-2.982387,31.613655,-3.052035,31.567530,-3.105189,31.500000,-3.125000,30.000000,-3.125000,
29.964498,-3.119852,29.956909,-3.114952,29.947965,-3.113655,29.927801,-3.096157,29.905376,-3.081678,29.901636,-3.073453,29.894811,-3.067530,29.887296,-3.041914,29.876247,-3.017613,29.877544,-3.008670,29.875000,-3.000000,29.875000,-1.625000,28.125000,-1.625000,28.125000,-3.000000,28.119852,-3.035502,28.114952,-3.043091,28.113655,-3.052035,28.096157,-3.072199,28.081678,-3.094624,28.073453,-3.098364,
28.067530,-3.105189,28.041914,-3.112704,28.017613,-3.123753,28.008670,-3.122456,28.000000,-3.125000,26.500000,-3.125000,26.464498,-3.119852,26.405376,-3.081678,26.376247,-3.017613,26.386345,-2.947965,26.432470,-2.894811,26.500000,-2.875000,27.875000,-2.875000,27.875000,-2.125000,26.500000,-2.125000,26.464498,-2.119852,26.405376,-2.081678,26.376247,-2.017613,26.386345,-1.947965,26.432470,-1.894811,
26.500000,-1.875000,27.875000,-1.875000,27.875000,-1.125000,26.500000,-1.125000,26.464498,-1.119852,26.405376,-1.081678,26.376247,-1.017613,26.386345,-0.947965,26.432470,-0.894811,26.500000,-0.875000,27.875000,-0.875000,27.875000,-0.125000,26.500000,-0.125000,26.464498,-0.119852,26.405376,-0.081678,26.376247,-0.017613,26.386345,0.052035,26.432470,0.105189,26.500000,0.125000,28.000000,0.125000,
28.035502,0.119852,28.035502,0.119852,$1*%
%AMFreePoly8*
4,1,121,112.035502,0.119852,112.043091,0.114952,112.052035,0.113655,112.072199,0.096157,112.094624,0.081678,112.098364,0.073453,112.105189,0.067530,112.112704,0.041914,112.123753,0.017613,112.122456,0.008670,112.125000,0.000000,112.125000,-1.375000,113.875000,-1.375000,113.875000,0.000000,113.880148,0.035502,113.885048,0.043091,113.886345,0.052035,113.903843,0.072199,113.918322,0.094624,113.926547,0.098364,
113.932470,0.105189,113.958086,0.112704,113.982387,0.123753,113.991330,0.122456,114.000000,0.125000,115.500000,0.125000,115.535502,0.119852,115.594624,0.081678,115.623753,0.017613,115.613655,-0.052035,115.567530,-0.105189,115.500000,-0.125000,114.125000,-0.125000,114.125000,-0.875000,115.500000,-0.875000,115.535502,-0.880148,115.594624,-0.918322,115.623753,-0.982387,115.613655,-1.052035,115.567530,-1.105189,
115.500000,-1.125000,114.125000,-1.125000,114.125000,-1.875000,115.500000,-1.875000,115.535502,-1.880148,115.594624,-1.918322,115.623753,-1.982387,115.613655,-2.052035,115.567530,-2.105189,115.500000,-2.125000,114.125000,-2.125000,114.125000,-2.875000,115.500000,-2.875000,115.535502,-2.880148,115.594624,-2.918322,115.623753,-2.982387,115.613655,-3.052035,115.567530,-3.105189,115.500000,-3.125000,114.000000,-3.125000,
113.964498,-3.119852,113.956909,-3.114952,113.947965,-3.113655,113.927801,-3.096157,113.905376,-3.081678,113.901636,-3.073453,113.894811,-3.067530,113.887296,-3.041914,113.876247,-3.017613,113.877544,-3.008670,113.875000,-3.000000,113.875000,-1.625000,112.125000,-1.625000,112.125000,-3.000000,112.119852,-3.035502,112.114952,-3.043091,112.113655,-3.052035,112.096157,-3.072199,112.081678,-3.094624,112.073453,-3.098364,
112.067530,-3.105189,112.041914,-3.112704,112.017613,-3.123753,112.008670,-3.122456,112.000000,-3.125000,110.500000,-3.125000,110.464498,-3.119852,110.405376,-3.081678,110.376247,-3.017613,110.386345,-2.947965,110.432470,-2.894811,110.500000,-2.875000,111.875000,-2.875000,111.875000,-2.125000,110.500000,-2.125000,110.464498,-2.119852,110.405376,-2.081678,110.376247,-2.017613,110.386345,-1.947965,110.432470,-1.894811,
110.500000,-1.875000,111.875000,-1.875000,111.875000,-1.125000,110.500000,-1.125000,110.464498,-1.119852,110.405376,-1.081678,110.376247,-1.017613,110.386345,-0.947965,110.432470,-0.894811,110.500000,-0.875000,111.875000,-0.875000,111.875000,-0.125000,110.500000,-0.125000,110.464498,-0.119852,110.405376,-0.081678,110.376247,-0.017613,110.386345,0.052035,110.432470,0.105189,110.500000,0.125000,112.000000,0.125000,
112.035502,0.119852,112.035502,0.119852,$1*%
%AMFreePoly9*
4,1,121,52.035502,0.119852,52.043091,0.114952,52.052035,0.113655,52.072199,0.096157,52.094624,0.081678,52.098364,0.073453,52.105189,0.067530,52.112704,0.041914,52.123753,0.017613,52.122456,0.008670,52.125000,0.000000,52.125000,-1.375000,53.875000,-1.375000,53.875000,0.000000,53.880148,0.035502,53.885048,0.043091,53.886345,0.052035,53.903843,0.072199,53.918322,0.094624,53.926547,0.098364,
53.932470,0.105189,53.958086,0.112704,53.982387,0.123753,53.991330,0.122456,54.000000,0.125000,55.500000,0.125000,55.535502,0.119852,55.594624,0.081678,55.623753,0.017613,55.613655,-0.052035,55.567530,-0.105189,55.500000,-0.125000,54.125000,-0.125000,54.125000,-0.875000,55.500000,-0.875000,55.535502,-0.880148,55.594624,-0.918322,55.623753,-0.982387,55.613655,-1.052035,55.567530,-1.105189,
55.500000,-1.125000,54.125000,-1.125000,54.125000,-1.875000,55.500000,-1.875000,55.535502,-1.880148,55.594624,-1.918322,55.623753,-1.982387,55.613655,-2.052035,55.567530,-2.105189,55.500000,-2.125000,54.125000,-2.125000,54.125000,-2.875000,55.500000,-2.875000,55.535502,-2.880148,55.594624,-2.918322,55.623753,-2.982387,55.613655,-3.052035,55.567530,-3.105189,55.500000,-3.125000,54.000000,-3.125000,
53.964498,-3.119852,53.956909,-3.114952,53.947965,-3.113655,53.927801,-3.096157,53.905376,-3.081678,53.901636,-3.073453,53.894811,-3.067530,53.887296,-3.041914,53.876247,-3.017613,53.877544,-3.008670,53.875000,-3.000000,53.875000,-1.625000,52.125000,-1.625000,52.125000,-3.000000,52.119852,-3.035502,52.114952,-3.043091,52.113655,-3.052035,52.096157,-3.072199,52.081678,-3.094624,52.073453,-3.098364,
52.067530,-3.105189,52.041914,-3.112704,52.017613,-3.123753,52.008670,-3.122456,52.000000,-3.125000,50.500000,-3.125000,50.464498,-3.119852,50.405376,-3.081678,50.376247,-3.017613,50.386345,-2.947965,50.432470,-2.894811,50.500000,-2.875000,51.875000,-2.875000,51.875000,-2.125000,50.500000,-2.125000,50.464498,-2.119852,50.405376,-2.081678,50.376247,-2.017613,50.386345,-1.947965,50.432470,-1.894811,
50.500000,-1.875000,51.875000,-1.875000,51.875000,-1.125000,50.500000,-1.125000,50.464498,-1.119852,50.405376,-1.081678,50.376247,-1.017613,50.386345,-0.947965,50.432470,-0.894811,50.500000,-0.875000,51.875000,-0.875000,51.875000,-0.125000,50.500000,-0.125000,50.464498,-0.119852,50.405376,-0.081678,50.376247,-0.017613,50.386345,0.052035,50.432470,0.105189,50.500000,0.125000,52.000000,0.125000,
52.035502,0.119852,52.035502,0.119852,$1*%
%AMFreePoly10*
4,1,121,124.035502,0.119852,124.043091,0.114952,124.052035,0.113655,124.072199,0.096157,124.094624,0.081678,124.098364,0.073453,124.105189,0.067530,124.112704,0.041914,124.123753,0.017613,124.122456,0.008670,124.125000,0.000000,124.125000,-1.375000,125.875000,-1.375000,125.875000,0.000000,125.880148,0.035502,125.885048,0.043091,125.886345,0.052035,125.903843,0.072199,125.918322,0.094624,125.926547,0.098364,
125.932470,0.105189,125.958086,0.112704,125.982387,0.123753,125.991330,0.122456,126.000000,0.125000,127.500000,0.125000,127.535502,0.119852,127.594624,0.081678,127.623753,0.017613,127.613655,-0.052035,127.567530,-0.105189,127.500000,-0.125000,126.125000,-0.125000,126.125000,-0.875000,127.500000,-0.875000,127.535502,-0.880148,127.594624,-0.918322,127.623753,-0.982387,127.613655,-1.052035,127.567530,-1.105189,
127.500000,-1.125000,126.125000,-1.125000,126.125000,-1.875000,127.500000,-1.875000,127.535502,-1.880148,127.594624,-1.918322,127.623753,-1.982387,127.613655,-2.052035,127.567530,-2.105189,127.500000,-2.125000,126.125000,-2.125000,126.125000,-2.875000,127.500000,-2.875000,127.535502,-2.880148,127.594624,-2.918322,127.623753,-2.982387,127.613655,-3.052035,127.567530,-3.105189,127.500000,-3.125000,126.000000,-3.125000,
125.964498,-3.119852,125.956909,-3.114952,125.947965,-3.113655,125.927801,-3.096157,125.905376,-3.081678,125.901636,-3.073453,125.894811,-3.067530,125.887296,-3.041914,125.876247,-3.017613,125.877544,-3.008670,125.875000,-3.000000,125.875000,-1.625000,124.125000,-1.625000,124.125000,-3.000000,124.119852,-3.035502,124.114952,-3.043091,124.113655,-3.052035,124.096157,-3.072199,124.081678,-3.094624,124.073453,-3.098364,
124.067530,-3.105189,124.041914,-3.112704,124.017613,-3.123753,124.008670,-3.122456,124.000000,-3.125000,122.500000,-3.125000,122.464498,-3.119852,122.405376,-3.081678,122.376247,-3.017613,122.386345,-2.947965,122.432470,-2.894811,122.500000,-2.875000,123.875000,-2.875000,123.875000,-2.125000,122.500000,-2.125000,122.464498,-2.119852,122.405376,-2.081678,122.376247,-2.017613,122.386345,-1.947965,122.432470,-1.894811,
122.500000,-1.875000,123.875000,-1.875000,123.875000,-1.125000,122.500000,-1.125000,122.464498,-1.119852,122.405376,-1.081678,122.376247,-1.017613,122.386345,-0.947965,122.432470,-0.894811,122.500000,-0.875000,123.875000,-0.875000,123.875000,-0.125000,122.500000,-0.125000,122.464498,-0.119852,122.405376,-0.081678,122.376247,-0.017613,122.386345,0.052035,122.432470,0.105189,122.500000,0.125000,124.000000,0.125000,
124.035502,0.119852,124.035502,0.119852,$1*%
%AMFreePoly11*
4,1,121,22.035502,0.119852,22.043091,0.114952,22.052035,0.113655,22.072199,0.096157,22.094624,0.081678,22.098364,0.073453,22.105189,0.067530,22.112704,0.041914,22.123753,0.017613,22.122456,0.008670,22.125000,0.000000,22.125000,-1.375000,23.875000,-1.375000,23.875000,0.000000,23.880148,0.035502,23.885048,0.043091,23.886345,0.052035,23.903843,0.072199,23.918322,0.094624,23.926547,0.098364,
23.932470,0.105189,23.958086,0.112704,23.982387,0.123753,23.991330,0.122456,24.000000,0.125000,25.500000,0.125000,25.535502,0.119852,25.594624,0.081678,25.623753,0.017613,25.613655,-0.052035,25.567530,-0.105189,25.500000,-0.125000,24.125000,-0.125000,24.125000,-0.875000,25.500000,-0.875000,25.535502,-0.880148,25.594624,-0.918322,25.623753,-0.982387,25.613655,-1.052035,25.567530,-1.105189,
25.500000,-1.125000,24.125000,-1.125000,24.125000,-1.875000,25.500000,-1.875000,25.535502,-1.880148,25.594624,-1.918322,25.623753,-1.982387,25.613655,-2.052035,25.567530,-2.105189,25.500000,-2.125000,24.125000,-2.125000,24.125000,-2.875000,25.500000,-2.875000,25.535502,-2.880148,25.594624,-2.918322,25.623753,-2.982387,25.613655,-3.052035,25.567530,-3.105189,25.500000,-3.125000,24.000000,-3.125000,
23.964498,-3.119852,23.956909,-3.114952,23.947965,-3.113655,23.927801,-3.096157,23.905376,-3.081678,23.901636,-3.073453,23.894811,-3.067530,23.887296,-3.041914,23.876247,-3.017613,23.877544,-3.008670,23.875000,-3.000000,23.875000,-1.625000,22.125000,-1.625000,22.125000,-3.000000,22.119852,-3.035502,22.114952,-3.043091,22.113655,-3.052035,22.096157,-3.072199,22.081678,-3.094624,22.073453,-3.098364,
22.067530,-3.105189,22.041914,-3.112704,22.017613,-3.123753,22.008670,-3.122456,22.000000,-3.125000,20.500000,-3.125000,20.464498,-3.119852,20.405376,-3.081678,20.376247,-3.017613,20.386345,-2.947965,20.432470,-2.894811,20.500000,-2.875000,21.875000,-2.875000,21.875000,-2.125000,20.500000,-2.125000,20.464498,-2.119852,20.405376,-2.081678,20.376247,-2.017613,20.386345,-1.947965,20.432470,-1.894811,
20.500000,-1.875000,21.875000,-1.875000,21.875000,-1.125000,20.500000,-1.125000,20.464498,-1.119852,20.405376,-1.081678,20.376247,-1.017613,20.386345,-0.947965,20.432470,-0.894811,20.500000,-0.875000,21.875000,-0.875000,21.875000,-0.125000,20.500000,-0.125000,20.464498,-0.119852,20.405376,-0.081678,20.376247,-0.017613,20.386345,0.052035,20.432470,0.105189,20.500000,0.125000,22.000000,0.125000,
22.035502,0.119852,22.035502,0.119852,$1*%
%AMFreePoly12*
4,1,121,94.035502,0.119852,94.043091,0.114952,94.052035,0.113655,94.072199,0.096157,94.094624,0.081678,94.098364,0.073453,94.105189,0.067530,94.112704,0.041914,94.123753,0.017613,94.122456,0.008670,94.125000,0.000000,94.125000,-1.375000,95.875000,-1.375000,95.875000,0.000000,95.880148,0.035502,95.885048,0.043091,95.886345,0.052035,95.903843,0.072199,95.918322,0.094624,95.926547,0.098364,
95.932470,0.105189,95.958086,0.112704,95.982387,0.123753,95.991330,0.122456,96.000000,0.125000,97.500000,0.125000,97.535502,0.119852,97.594624,0.081678,97.623753,0.017613,97.613655,-0.052035,97.567530,-0.105189,97.500000,-0.125000,96.125000,-0.125000,96.125000,-0.875000,97.500000,-0.875000,97.535502,-0.880148,97.594624,-0.918322,97.623753,-0.982387,97.613655,-1.052035,97.567530,-1.105189,
97.500000,-1.125000,96.125000,-1.125000,96.125000,-1.875000,97.500000,-1.875000,97.535502,-1.880148,97.594624,-1.918322,97.623753,-1.982387,97.613655,-2.052035,97.567530,-2.105189,97.500000,-2.125000,96.125000,-2.125000,96.125000,-2.875000,97.500000,-2.875000,97.535502,-2.880148,97.594624,-2.918322,97.623753,-2.982387,97.613655,-3.052035,97.567530,-3.105189,97.500000,-3.125000,96.000000,-3.125000,
95.964498,-3.119852,95.956909,-3.114952,95.947965,-3.113655,95.927801,-3.096157,95.905376,-3.081678,95.901636,-3.073453,95.894811,-3.067530,95.887296,-3.041914,95.876247,-3.017613,95.877544,-3.008670,95.875000,-3.000000,95.875000,-1.625000,94.125000,-1.625000,94.125000,-3.000000,94.119852,-3.035502,94.114952,-3.043091,94.113655,-3.052035,94.096157,-3.072199,94.081678,-3.094624,94.073453,-3.098364,
94.067530,-3.105189,94.041914,-3.112704,94.017613,-3.123753,94.008670,-3.122456,94.000000,-3.125000,92.500000,-3.125000,92.464498,-3.119852,92.405376,-3.081678,92.376247,-3.017613,92.386345,-2.947965,92.432470,-2.894811,92.500000,-2.875000,93.875000,-2.875000,93.875000,-2.125000,92.500000,-2.125000,92.464498,-2.119852,92.405376,-2.081678,92.376247,-2.017613,92.386345,-1.947965,92.432470,-1.894811,
92.500000,-1.875000,93.875000,-1.875000,93.875000,-1.125000,92.500000,-1.125000,92.464498,-1.119852,92.405376,-1.081678,92.376247,-1.017613,92.386345,-0.947965,92.432470,-0.894811,92.500000,-0.875000,93.875000,-0.875000,93.875000,-0.125000,92.500000,-0.125000,92.464498,-0.119852,92.405376,-0.081678,92.376247,-0.017613,92.386345,0.052035,92.432470,0.105189,92.500000,0.125000,94.000000,0.125000,
94.035502,0.119852,94.035502,0.119852,$1*%
%AMFreePoly13*
4,1,121,106.035502,0.119852,106.043091,0.114952,106.052035,0.113655,106.072199,0.096157,106.094624,0.081678,106.098364,0.073453,106.105189,0.067530,106.112704,0.041914,106.123753,0.017613,106.122456,0.008670,106.125000,0.000000,106.125000,-1.375000,107.875000,-1.375000,107.875000,0.000000,107.880148,0.035502,107.885048,0.043091,107.886345,0.052035,107.903843,0.072199,107.918322,0.094624,107.926547,0.098364,
107.932470,0.105189,107.958086,0.112704,107.982387,0.123753,107.991330,0.122456,108.000000,0.125000,109.500000,0.125000,109.535502,0.119852,109.594624,0.081678,109.623753,0.017613,109.613655,-0.052035,109.567530,-0.105189,109.500000,-0.125000,108.125000,-0.125000,108.125000,-0.875000,109.500000,-0.875000,109.535502,-0.880148,109.594624,-0.918322,109.623753,-0.982387,109.613655,-1.052035,109.567530,-1.105189,
109.500000,-1.125000,108.125000,-1.125000,108.125000,-1.875000,109.500000,-1.875000,109.535502,-1.880148,109.594624,-1.918322,109.623753,-1.982387,109.613655,-2.052035,109.567530,-2.105189,109.500000,-2.125000,108.125000,-2.125000,108.125000,-2.875000,109.500000,-2.875000,109.535502,-2.880148,109.594624,-2.918322,109.623753,-2.982387,109.613655,-3.052035,109.567530,-3.105189,109.500000,-3.125000,108.000000,-3.125000,
107.964498,-3.119852,107.956909,-3.114952,107.947965,-3.113655,107.927801,-3.096157,107.905376,-3.081678,107.901636,-3.073453,107.894811,-3.067530,107.887296,-3.041914,107.876247,-3.017613,107.877544,-3.008670,107.875000,-3.000000,107.875000,-1.625000,106.125000,-1.625000,106.125000,-3.000000,106.119852,-3.035502,106.114952,-3.043091,106.113655,-3.052035,106.096157,-3.072199,106.081678,-3.094624,106.073453,-3.098364,
106.067530,-3.105189,106.041914,-3.112704,106.017613,-3.123753,106.008670,-3.122456,106.000000,-3.125000,104.500000,-3.125000,104.464498,-3.119852,104.405376,-3.081678,104.376247,-3.017613,104.386345,-2.947965,104.432470,-2.894811,104.500000,-2.875000,105.875000,-2.875000,105.875000,-2.125000,104.500000,-2.125000,104.464498,-2.119852,104.405376,-2.081678,104.376247,-2.017613,104.386345,-1.947965,104.432470,-1.894811,
104.500000,-1.875000,105.875000,-1.875000,105.875000,-1.125000,104.500000,-1.125000,104.464498,-1.119852,104.405376,-1.081678,104.376247,-1.017613,104.386345,-0.947965,104.432470,-0.894811,104.500000,-0.875000,105.875000,-0.875000,105.875000,-0.125000,104.500000,-0.125000,104.464498,-0.119852,104.405376,-0.081678,104.376247,-0.017613,104.386345,0.052035,104.432470,0.105189,104.500000,0.125000,106.000000,0.125000,
106.035502,0.119852,106.035502,0.119852,$1*%
%AMFreePoly14*
4,1,121,166.035502,0.119852,166.043091,0.114952,166.052035,0.113655,166.072199,0.096157,166.094624,0.081678,166.098364,0.073453,166.105189,0.067530,166.112704,0.041914,166.123753,0.017613,166.122456,0.008670,166.125000,0.000000,166.125000,-1.375000,167.875000,-1.375000,167.875000,0.000000,167.880148,0.035502,167.885048,0.043091,167.886345,0.052035,167.903843,0.072199,167.918322,0.094624,167.926547,0.098364,
167.932470,0.105189,167.958086,0.112704,167.982387,0.123753,167.991330,0.122456,168.000000,0.125000,169.500000,0.125000,169.535502,0.119852,169.594624,0.081678,169.623753,0.017613,169.613655,-0.052035,169.567530,-0.105189,169.500000,-0.125000,168.125000,-0.125000,168.125000,-0.875000,169.500000,-0.875000,169.535502,-0.880148,169.594624,-0.918322,169.623753,-0.982387,169.613655,-1.052035,169.567530,-1.105189,
169.500000,-1.125000,168.125000,-1.125000,168.125000,-1.875000,169.500000,-1.875000,169.535502,-1.880148,169.594624,-1.918322,169.623753,-1.982387,169.613655,-2.052035,169.567530,-2.105189,169.500000,-2.125000,168.125000,-2.125000,168.125000,-2.875000,169.500000,-2.875000,169.535502,-2.880148,169.594624,-2.918322,169.623753,-2.982387,169.613655,-3.052035,169.567530,-3.105189,169.500000,-3.125000,168.000000,-3.125000,
167.964498,-3.119852,167.956909,-3.114952,167.947965,-3.113655,167.927801,-3.096157,167.905376,-3.081678,167.901636,-3.073453,167.894811,-3.067530,167.887296,-3.041914,167.876247,-3.017613,167.877544,-3.008670,167.875000,-3.000000,167.875000,-1.625000,166.125000,-1.625000,166.125000,-3.000000,166.119852,-3.035502,166.114952,-3.043091,166.113655,-3.052035,166.096157,-3.072199,166.081678,-3.094624,166.073453,-3.098364,
166.067530,-3.105189,166.041914,-3.112704,166.017613,-3.123753,166.008670,-3.122456,166.000000,-3.125000,164.500000,-3.125000,164.464498,-3.119852,164.405376,-3.081678,164.376247,-3.017613,164.386345,-2.947965,164.432470,-2.894811,164.500000,-2.875000,165.875000,-2.875000,165.875000,-2.125000,164.500000,-2.125000,164.464498,-2.119852,164.405376,-2.081678,164.376247,-2.017613,164.386345,-1.947965,164.432470,-1.894811,
164.500000,-1.875000,165.875000,-1.875000,165.875000,-1.125000,164.500000,-1.125000,164.464498,-1.119852,164.405376,-1.081678,164.376247,-1.017613,164.386345,-0.947965,164.432470,-0.894811,164.500000,-0.875000,165.875000,-0.875000,165.875000,-0.125000,164.500000,-0.125000,164.464498,-0.119852,164.405376,-0.081678,164.376247,-0.017613,164.386345,0.052035,164.432470,0.105189,164.500000,0.125000,166.000000,0.125000,
166.035502,0.119852,166.035502,0.119852,$1*%
%AMFreePoly15*
4,1,121,16.035502,0.119852,16.043091,0.114952,16.052035,0.113655,16.072199,0.096157,16.094624,0.081678,16.098364,0.073453,16.105189,0.067530,16.112704,0.041914,16.123753,0.017613,16.122456,0.008670,16.125000,0.000000,16.125000,-1.375000,17.875000,-1.375000,17.875000,0.000000,17.880148,0.035502,17.885048,0.043091,17.886345,0.052035,17.903843,0.072199,17.918322,0.094624,17.926547,0.098364,
17.932470,0.105189,17.958086,0.112704,17.982387,0.123753,17.991330,0.122456,18.000000,0.125000,19.500000,0.125000,19.535502,0.119852,19.594624,0.081678,19.623753,0.017613,19.613655,-0.052035,19.567530,-0.105189,19.500000,-0.125000,18.125000,-0.125000,18.125000,-0.875000,19.500000,-0.875000,19.535502,-0.880148,19.594624,-0.918322,19.623753,-0.982387,19.613655,-1.052035,19.567530,-1.105189,
19.500000,-1.125000,18.125000,-1.125000,18.125000,-1.875000,19.500000,-1.875000,19.535502,-1.880148,19.594624,-1.918322,19.623753,-1.982387,19.613655,-2.052035,19.567530,-2.105189,19.500000,-2.125000,18.125000,-2.125000,18.125000,-2.875000,19.500000,-2.875000,19.535502,-2.880148,19.594624,-2.918322,19.623753,-2.982387,19.613655,-3.052035,19.567530,-3.105189,19.500000,-3.125000,18.000000,-3.125000,
17.964498,-3.119852,17.956909,-3.114952,17.947965,-3.113655,17.927801,-3.096157,17.905376,-3.081678,17.901636,-3.073453,17.894811,-3.067530,17.887296,-3.041914,17.876247,-3.017613,17.877544,-3.008670,17.875000,-3.000000,17.875000,-1.625000,16.125000,-1.625000,16.125000,-3.000000,16.119852,-3.035502,16.114952,-3.043091,16.113655,-3.052035,16.096157,-3.072199,16.081678,-3.094624,16.073453,-3.098364,
16.067530,-3.105189,16.041914,-3.112704,16.017613,-3.123753,16.008670,-3.122456,16.000000,-3.125000,14.500000,-3.125000,14.464498,-3.119852,14.405376,-3.081678,14.376247,-3.017613,14.386345,-2.947965,14.432470,-2.894811,14.500000,-2.875000,15.875000,-2.875000,15.875000,-2.125000,14.500000,-2.125000,14.464498,-2.119852,14.405376,-2.081678,14.376247,-2.017613,14.386345,-1.947965,14.432470,-1.894811,
14.500000,-1.875000,15.875000,-1.875000,15.875000,-1.125000,14.500000,-1.125000,14.464498,-1.119852,14.405376,-1.081678,14.376247,-1.017613,14.386345,-0.947965,14.432470,-0.894811,14.500000,-0.875000,15.875000,-0.875000,15.875000,-0.125000,14.500000,-0.125000,14.464498,-0.119852,14.405376,-0.081678,14.376247,-0.017613,14.386345,0.052035,14.432470,0.105189,14.500000,0.125000,16.000000,0.125000,
16.035502,0.119852,16.035502,0.119852,$1*%
%AMFreePoly16*
4,1,121,40.035502,0.119852,40.043091,0.114952,40.052035,0.113655,40.072199,0.096157,40.094624,0.081678,40.098364,0.073453,40.105189,0.067530,40.112704,0.041914,40.123753,0.017613,40.122456,0.008670,40.125000,0.000000,40.125000,-1.375000,41.875000,-1.375000,41.875000,0.000000,41.880148,0.035502,41.885048,0.043091,41.886345,0.052035,41.903843,0.072199,41.918322,0.094624,41.926547,0.098364,
41.932470,0.105189,41.958086,0.112704,41.982387,0.123753,41.991330,0.122456,42.000000,0.125000,43.500000,0.125000,43.535502,0.119852,43.594624,0.081678,43.623753,0.017613,43.613655,-0.052035,43.567530,-0.105189,43.500000,-0.125000,42.125000,-0.125000,42.125000,-0.875000,43.500000,-0.875000,43.535502,-0.880148,43.594624,-0.918322,43.623753,-0.982387,43.613655,-1.052035,43.567530,-1.105189,
43.500000,-1.125000,42.125000,-1.125000,42.125000,-1.875000,43.500000,-1.875000,43.535502,-1.880148,43.594624,-1.918322,43.623753,-1.982387,43.613655,-2.052035,43.567530,-2.105189,43.500000,-2.125000,42.125000,-2.125000,42.125000,-2.875000,43.500000,-2.875000,43.535502,-2.880148,43.594624,-2.918322,43.623753,-2.982387,43.613655,-3.052035,43.567530,-3.105189,43.500000,-3.125000,42.000000,-3.125000,
41.964498,-3.119852,41.956909,-3.114952,41.947965,-3.113655,41.927801,-3.096157,41.905376,-3.081678,41.901636,-3.073453,41.894811,-3.067530,41.887296,-3.041914,41.876247,-3.017613,41.877544,-3.008670,41.875000,-3.000000,41.875000,-1.625000,40.125000,-1.625000,40.125000,-3.000000,40.119852,-3.035502,40.114952,-3.043091,40.113655,-3.052035,40.096157,-3.072199,40.081678,-3.094624,40.073453,-3.098364,
40.067530,-3.105189,40.041914,-3.112704,40.017613,-3.123753,40.008670,-3.122456,40.000000,-3.125000,38.500000,-3.125000,38.464498,-3.119852,38.405376,-3.081678,38.376247,-3.017613,38.386345,-2.947965,38.432470,-2.894811,38.500000,-2.875000,39.875000,-2.875000,39.875000,-2.125000,38.500000,-2.125000,38.464498,-2.119852,38.405376,-2.081678,38.376247,-2.017613,38.386345,-1.947965,38.432470,-1.894811,
38.500000,-1.875000,39.875000,-1.875000,39.875000,-1.125000,38.500000,-1.125000,38.464498,-1.119852,38.405376,-1.081678,38.376247,-1.017613,38.386345,-0.947965,38.432470,-0.894811,38.500000,-0.875000,39.875000,-0.875000,39.875000,-0.125000,38.500000,-0.125000,38.464498,-0.119852,38.405376,-0.081678,38.376247,-0.017613,38.386345,0.052035,38.432470,0.105189,38.500000,0.125000,40.000000,0.125000,
40.035502,0.119852,40.035502,0.119852,$1*%
%AMFreePoly17*
4,1,121,34.035502,0.119852,34.043091,0.114952,34.052035,0.113655,34.072199,0.096157,34.094624,0.081678,34.098364,0.073453,34.105189,0.067530,34.112704,0.041914,34.123753,0.017613,34.122456,0.008670,34.125000,0.000000,34.125000,-1.375000,35.875000,-1.375000,35.875000,0.000000,35.880148,0.035502,35.885048,0.043091,35.886345,0.052035,35.903843,0.072199,35.918322,0.094624,35.926547,0.098364,
35.932470,0.105189,35.958086,0.112704,35.982387,0.123753,35.991330,0.122456,36.000000,0.125000,37.500000,0.125000,37.535502,0.119852,37.594624,0.081678,37.623753,0.017613,37.613655,-0.052035,37.567530,-0.105189,37.500000,-0.125000,36.125000,-0.125000,36.125000,-0.875000,37.500000,-0.875000,37.535502,-0.880148,37.594624,-0.918322,37.623753,-0.982387,37.613655,-1.052035,37.567530,-1.105189,
37.500000,-1.125000,36.125000,-1.125000,36.125000,-1.875000,37.500000,-1.875000,37.535502,-1.880148,37.594624,-1.918322,37.623753,-1.982387,37.613655,-2.052035,37.567530,-2.105189,37.500000,-2.125000,36.125000,-2.125000,36.125000,-2.875000,37.500000,-2.875000,37.535502,-2.880148,37.594624,-2.918322,37.623753,-2.982387,37.613655,-3.052035,37.567530,-3.105189,37.500000,-3.125000,36.000000,-3.125000,
35.964498,-3.119852,35.956909,-3.114952,35.947965,-3.113655,35.927801,-3.096157,35.905376,-3.081678,35.901636,-3.073453,35.894811,-3.067530,35.887296,-3.041914,35.876247,-3.017613,35.877544,-3.008670,35.875000,-3.000000,35.875000,-1.625000,34.125000,-1.625000,34.125000,-3.000000,34.119852,-3.035502,34.114952,-3.043091,34.113655,-3.052035,34.096157,-3.072199,34.081678,-3.094624,34.073453,-3.098364,
34.067530,-3.105189,34.041914,-3.112704,34.017613,-3.123753,34.008670,-3.122456,34.000000,-3.125000,32.500000,-3.125000,32.464498,-3.119852,32.405376,-3.081678,32.376247,-3.017613,32.386345,-2.947965,32.432470,-2.894811,32.500000,-2.875000,33.875000,-2.875000,33.875000,-2.125000,32.500000,-2.125000,32.464498,-2.119852,32.405376,-2.081678,32.376247,-2.017613,32.386345,-1.947965,32.432470,-1.894811,
32.500000,-1.875000,33.875000,-1.875000,33.875000,-1.125000,32.500000,-1.125000,32.464498,-1.119852,32.405376,-1.081678,32.376247,-1.017613,32.386345,-0.947965,32.432470,-0.894811,32.500000,-0.875000,33.875000,-0.875000,33.875000,-0.125000,32.500000,-0.125000,32.464498,-0.119852,32.405376,-0.081678,32.376247,-0.017613,32.386345,0.052035,32.432470,0.105189,32.500000,0.125000,34.000000,0.125000,
34.035502,0.119852,34.035502,0.119852,$1*%
%AMFreePoly18*
4,1,121,160.035502,0.119852,160.043091,0.114952,160.052035,0.113655,160.072199,0.096157,160.094624,0.081678,160.098364,0.073453,160.105189,0.067530,160.112704,0.041914,160.123753,0.017613,160.122456,0.008670,160.125000,0.000000,160.125000,-1.375000,161.875000,-1.375000,161.875000,0.000000,161.880148,0.035502,161.885048,0.043091,161.886345,0.052035,161.903843,0.072199,161.918322,0.094624,161.926547,0.098364,
161.932470,0.105189,161.958086,0.112704,161.982387,0.123753,161.991330,0.122456,162.000000,0.125000,163.500000,0.125000,163.535502,0.119852,163.594624,0.081678,163.623753,0.017613,163.613655,-0.052035,163.567530,-0.105189,163.500000,-0.125000,162.125000,-0.125000,162.125000,-0.875000,163.500000,-0.875000,163.535502,-0.880148,163.594624,-0.918322,163.623753,-0.982387,163.613655,-1.052035,163.567530,-1.105189,
163.500000,-1.125000,162.125000,-1.125000,162.125000,-1.875000,163.500000,-1.875000,163.535502,-1.880148,163.594624,-1.918322,163.623753,-1.982387,163.613655,-2.052035,163.567530,-2.105189,163.500000,-2.125000,162.125000,-2.125000,162.125000,-2.875000,163.500000,-2.875000,163.535502,-2.880148,163.594624,-2.918322,163.623753,-2.982387,163.613655,-3.052035,163.567530,-3.105189,163.500000,-3.125000,162.000000,-3.125000,
161.964498,-3.119852,161.956909,-3.114952,161.947965,-3.113655,161.927801,-3.096157,161.905376,-3.081678,161.901636,-3.073453,161.894811,-3.067530,161.887296,-3.041914,161.876247,-3.017613,161.877544,-3.008670,161.875000,-3.000000,161.875000,-1.625000,160.125000,-1.625000,160.125000,-3.000000,160.119852,-3.035502,160.114952,-3.043091,160.113655,-3.052035,160.096157,-3.072199,160.081678,-3.094624,160.073453,-3.098364,
160.067530,-3.105189,160.041914,-3.112704,160.017613,-3.123753,160.008670,-3.122456,160.000000,-3.125000,158.500000,-3.125000,158.464498,-3.119852,158.405376,-3.081678,158.376247,-3.017613,158.386345,-2.947965,158.432470,-2.894811,158.500000,-2.875000,159.875000,-2.875000,159.875000,-2.125000,158.500000,-2.125000,158.464498,-2.119852,158.405376,-2.081678,158.376247,-2.017613,158.386345,-1.947965,158.432470,-1.894811,
158.500000,-1.875000,159.875000,-1.875000,159.875000,-1.125000,158.500000,-1.125000,158.464498,-1.119852,158.405376,-1.081678,158.376247,-1.017613,158.386345,-0.947965,158.432470,-0.894811,158.500000,-0.875000,159.875000,-0.875000,159.875000,-0.125000,158.500000,-0.125000,158.464498,-0.119852,158.405376,-0.081678,158.376247,-0.017613,158.386345,0.052035,158.432470,0.105189,158.500000,0.125000,160.000000,0.125000,
160.035502,0.119852,160.035502,0.119852,$1*%
%AMFreePoly19*
4,1,121,154.035502,0.119852,154.043091,0.114952,154.052035,0.113655,154.072199,0.096157,154.094624,0.081678,154.098364,0.073453,154.105189,0.067530,154.112704,0.041914,154.123753,0.017613,154.122456,0.008670,154.125000,0.000000,154.125000,-1.375000,155.875000,-1.375000,155.875000,0.000000,155.880148,0.035502,155.885048,0.043091,155.886345,0.052035,155.903843,0.072199,155.918322,0.094624,155.926547,0.098364,
155.932470,0.105189,155.958086,0.112704,155.982387,0.123753,155.991330,0.122456,156.000000,0.125000,157.500000,0.125000,157.535502,0.119852,157.594624,0.081678,157.623753,0.017613,157.613655,-0.052035,157.567530,-0.105189,157.500000,-0.125000,156.125000,-0.125000,156.125000,-0.875000,157.500000,-0.875000,157.535502,-0.880148,157.594624,-0.918322,157.623753,-0.982387,157.613655,-1.052035,157.567530,-1.105189,
157.500000,-1.125000,156.125000,-1.125000,156.125000,-1.875000,157.500000,-1.875000,157.535502,-1.880148,157.594624,-1.918322,157.623753,-1.982387,157.613655,-2.052035,157.567530,-2.105189,157.500000,-2.125000,156.125000,-2.125000,156.125000,-2.875000,157.500000,-2.875000,157.535502,-2.880148,157.594624,-2.918322,157.623753,-2.982387,157.613655,-3.052035,157.567530,-3.105189,157.500000,-3.125000,156.000000,-3.125000,
155.964498,-3.119852,155.956909,-3.114952,155.947965,-3.113655,155.927801,-3.096157,155.905376,-3.081678,155.901636,-3.073453,155.894811,-3.067530,155.887296,-3.041914,155.876247,-3.017613,155.877544,-3.008670,155.875000,-3.000000,155.875000,-1.625000,154.125000,-1.625000,154.125000,-3.000000,154.119852,-3.035502,154.114952,-3.043091,154.113655,-3.052035,154.096157,-3.072199,154.081678,-3.094624,154.073453,-3.098364,
154.067530,-3.105189,154.041914,-3.112704,154.017613,-3.123753,154.008670,-3.122456,154.000000,-3.125000,152.500000,-3.125000,152.464498,-3.119852,152.405376,-3.081678,152.376247,-3.017613,152.386345,-2.947965,152.432470,-2.894811,152.500000,-2.875000,153.875000,-2.875000,153.875000,-2.125000,152.500000,-2.125000,152.464498,-2.119852,152.405376,-2.081678,152.376247,-2.017613,152.386345,-1.947965,152.432470,-1.894811,
152.500000,-1.875000,153.875000,-1.875000,153.875000,-1.125000,152.500000,-1.125000,152.464498,-1.119852,152.405376,-1.081678,152.376247,-1.017613,152.386345,-0.947965,152.432470,-0.894811,152.500000,-0.875000,153.875000,-0.875000,153.875000,-0.125000,152.500000,-0.125000,152.464498,-0.119852,152.405376,-0.081678,152.376247,-0.017613,152.386345,0.052035,152.432470,0.105189,152.500000,0.125000,154.000000,0.125000,
154.035502,0.119852,154.035502,0.119852,$1*%
%AMFreePoly20*
4,1,121,148.035502,0.119852,148.043091,0.114952,148.052035,0.113655,148.072199,0.096157,148.094624,0.081678,148.098364,0.073453,148.105189,0.067530,148.112704,0.041914,148.123753,0.017613,148.122456,0.008670,148.125000,0.000000,148.125000,-1.375000,149.875000,-1.375000,149.875000,0.000000,149.880148,0.035502,149.885048,0.043091,149.886345,0.052035,149.903843,0.072199,149.918322,0.094624,149.926547,0.098364,
149.932470,0.105189,149.958086,0.112704,149.982387,0.123753,149.991330,0.122456,150.000000,0.125000,151.500000,0.125000,151.535502,0.119852,151.594624,0.081678,151.623753,0.017613,151.613655,-0.052035,151.567530,-0.105189,151.500000,-0.125000,150.125000,-0.125000,150.125000,-0.875000,151.500000,-0.875000,151.535502,-0.880148,151.594624,-0.918322,151.623753,-0.982387,151.613655,-1.052035,151.567530,-1.105189,
151.500000,-1.125000,150.125000,-1.125000,150.125000,-1.875000,151.500000,-1.875000,151.535502,-1.880148,151.594624,-1.918322,151.623753,-1.982387,151.613655,-2.052035,151.567530,-2.105189,151.500000,-2.125000,150.125000,-2.125000,150.125000,-2.875000,151.500000,-2.875000,151.535502,-2.880148,151.594624,-2.918322,151.623753,-2.982387,151.613655,-3.052035,151.567530,-3.105189,151.500000,-3.125000,150.000000,-3.125000,
149.964498,-3.119852,149.956909,-3.114952,149.947965,-3.113655,149.927801,-3.096157,149.905376,-3.081678,149.901636,-3.073453,149.894811,-3.067530,149.887296,-3.041914,149.876247,-3.017613,149.877544,-3.008670,149.875000,-3.000000,149.875000,-1.625000,148.125000,-1.625000,148.125000,-3.000000,148.119852,-3.035502,148.114952,-3.043091,148.113655,-3.052035,148.096157,-3.072199,148.081678,-3.094624,148.073453,-3.098364,
148.067530,-3.105189,148.041914,-3.112704,148.017613,-3.123753,148.008670,-3.122456,148.000000,-3.125000,146.500000,-3.125000,146.464498,-3.119852,146.405376,-3.081678,146.376247,-3.017613,146.386345,-2.947965,146.432470,-2.894811,146.500000,-2.875000,147.875000,-2.875000,147.875000,-2.125000,146.500000,-2.125000,146.464498,-2.119852,146.405376,-2.081678,146.376247,-2.017613,146.386345,-1.947965,146.432470,-1.894811,
146.500000,-1.875000,147.875000,-1.875000,147.875000,-1.125000,146.500000,-1.125000,146.464498,-1.119852,146.405376,-1.081678,146.376247,-1.017613,146.386345,-0.947965,146.432470,-0.894811,146.500000,-0.875000,147.875000,-0.875000,147.875000,-0.125000,146.500000,-0.125000,146.464498,-0.119852,146.405376,-0.081678,146.376247,-0.017613,146.386345,0.052035,146.432470,0.105189,146.500000,0.125000,148.000000,0.125000,
148.035502,0.119852,148.035502,0.119852,$1*%
%AMFreePoly21*
4,1,59,1.535502,0.119852,1.594624,0.081678,1.623753,0.017613,1.613655,-0.052035,1.567530,-0.105189,1.500000,-0.125000,0.125000,-0.125000,0.125000,-0.875000,1.500000,-0.875000,1.535502,-0.880148,1.594624,-0.918322,1.623753,-0.982387,1.613655,-1.052035,1.567530,-1.105189,1.500000,-1.125000,0.125000,-1.125000,0.125000,-1.875000,1.500000,-1.875000,1.535502,-1.880148,1.594624,-1.918322,
1.623753,-1.982387,1.613655,-2.052035,1.567530,-2.105189,1.500000,-2.125000,0.125000,-2.125000,0.125000,-2.875000,1.500000,-2.875000,1.535502,-2.880148,1.594624,-2.918322,1.623753,-2.982387,1.613655,-3.052035,1.567530,-3.105189,1.500000,-3.125000,0.000000,-3.125000,-0.035502,-3.119852,-0.043091,-3.114952,-0.052035,-3.113655,-0.072199,-3.096157,-0.094624,-3.081678,-0.098364,-3.073453,
-0.105189,-3.067530,-0.112704,-3.041914,-0.123753,-3.017613,-0.122456,-3.008670,-0.125000,-3.000000,-0.125000,0.000000,-0.119852,0.035502,-0.114952,0.043091,-0.113655,0.052035,-0.096157,0.072199,-0.081678,0.094624,-0.073453,0.098364,-0.067530,0.105189,-0.041914,0.112704,-0.017613,0.123753,-0.008670,0.122456,0.000000,0.125000,1.500000,0.125000,1.535502,0.119852,1.535502,0.119852,
$1*%
%AMFreePoly22*
4,1,121,184.035502,0.119852,184.043091,0.114952,184.052035,0.113655,184.072199,0.096157,184.094624,0.081678,184.098364,0.073453,184.105189,0.067530,184.112704,0.041914,184.123753,0.017613,184.122456,0.008670,184.125000,0.000000,184.125000,-1.375000,185.875000,-1.375000,185.875000,0.000000,185.880148,0.035502,185.885048,0.043091,185.886345,0.052035,185.903843,0.072199,185.918322,0.094624,185.926547,0.098364,
185.932470,0.105189,185.958086,0.112704,185.982387,0.123753,185.991330,0.122456,186.000000,0.125000,187.500000,0.125000,187.535502,0.119852,187.594624,0.081678,187.623753,0.017613,187.613655,-0.052035,187.567530,-0.105189,187.500000,-0.125000,186.125000,-0.125000,186.125000,-0.875000,187.500000,-0.875000,187.535502,-0.880148,187.594624,-0.918322,187.623753,-0.982387,187.613655,-1.052035,187.567530,-1.105189,
187.500000,-1.125000,186.125000,-1.125000,186.125000,-1.875000,187.500000,-1.875000,187.535502,-1.880148,187.594624,-1.918322,187.623753,-1.982387,187.613655,-2.052035,187.567530,-2.105189,187.500000,-2.125000,186.125000,-2.125000,186.125000,-2.875000,187.500000,-2.875000,187.535502,-2.880148,187.594624,-2.918322,187.623753,-2.982387,187.613655,-3.052035,187.567530,-3.105189,187.500000,-3.125000,186.000000,-3.125000,
185.964498,-3.119852,185.956909,-3.114952,185.947965,-3.113655,185.927801,-3.096157,185.905376,-3.081678,185.901636,-3.073453,185.894811,-3.067530,185.887296,-3.041914,185.876247,-3.017613,185.877544,-3.008670,185.875000,-3.000000,185.875000,-1.625000,184.125000,-1.625000,184.125000,-3.000000,184.119852,-3.035502,184.114952,-3.043091,184.113655,-3.052035,184.096157,-3.072199,184.081678,-3.094624,184.073453,-3.098364,
184.067530,-3.105189,184.041914,-3.112704,184.017613,-3.123753,184.008670,-3.122456,184.000000,-3.125000,182.500000,-3.125000,182.464498,-3.119852,182.405376,-3.081678,182.376247,-3.017613,182.386345,-2.947965,182.432470,-2.894811,182.500000,-2.875000,183.875000,-2.875000,183.875000,-2.125000,182.500000,-2.125000,182.464498,-2.119852,182.405376,-2.081678,182.376247,-2.017613,182.386345,-1.947965,182.432470,-1.894811,
182.500000,-1.875000,183.875000,-1.875000,183.875000,-1.125000,182.500000,-1.125000,182.464498,-1.119852,182.405376,-1.081678,182.376247,-1.017613,182.386345,-0.947965,182.432470,-0.894811,182.500000,-0.875000,183.875000,-0.875000,183.875000,-0.125000,182.500000,-0.125000,182.464498,-0.119852,182.405376,-0.081678,182.376247,-0.017613,182.386345,0.052035,182.432470,0.105189,182.500000,0.125000,184.000000,0.125000,
184.035502,0.119852,184.035502,0.119852,$1*%
%AMFreePoly23*
4,1,121,172.035502,0.119852,172.043091,0.114952,172.052035,0.113655,172.072199,0.096157,172.094624,0.081678,172.098364,0.073453,172.105189,0.067530,172.112704,0.041914,172.123753,0.017613,172.122456,0.008670,172.125000,0.000000,172.125000,-1.375000,173.875000,-1.375000,173.875000,0.000000,173.880148,0.035502,173.885048,0.043091,173.886345,0.052035,173.903843,0.072199,173.918322,0.094624,173.926547,0.098364,
173.932470,0.105189,173.958086,0.112704,173.982387,0.123753,173.991330,0.122456,174.000000,0.125000,175.500000,0.125000,175.535502,0.119852,175.594624,0.081678,175.623753,0.017613,175.613655,-0.052035,175.567530,-0.105189,175.500000,-0.125000,174.125000,-0.125000,174.125000,-0.875000,175.500000,-0.875000,175.535502,-0.880148,175.594624,-0.918322,175.623753,-0.982387,175.613655,-1.052035,175.567530,-1.105189,
175.500000,-1.125000,174.125000,-1.125000,174.125000,-1.875000,175.500000,-1.875000,175.535502,-1.880148,175.594624,-1.918322,175.623753,-1.982387,175.613655,-2.052035,175.567530,-2.105189,175.500000,-2.125000,174.125000,-2.125000,174.125000,-2.875000,175.500000,-2.875000,175.535502,-2.880148,175.594624,-2.918322,175.623753,-2.982387,175.613655,-3.052035,175.567530,-3.105189,175.500000,-3.125000,174.000000,-3.125000,
173.964498,-3.119852,173.956909,-3.114952,173.947965,-3.113655,173.927801,-3.096157,173.905376,-3.081678,173.901636,-3.073453,173.894811,-3.067530,173.887296,-3.041914,173.876247,-3.017613,173.877544,-3.008670,173.875000,-3.000000,173.875000,-1.625000,172.125000,-1.625000,172.125000,-3.000000,172.119852,-3.035502,172.114952,-3.043091,172.113655,-3.052035,172.096157,-3.072199,172.081678,-3.094624,172.073453,-3.098364,
172.067530,-3.105189,172.041914,-3.112704,172.017613,-3.123753,172.008670,-3.122456,172.000000,-3.125000,170.500000,-3.125000,170.464498,-3.119852,170.405376,-3.081678,170.376247,-3.017613,170.386345,-2.947965,170.432470,-2.894811,170.500000,-2.875000,171.875000,-2.875000,171.875000,-2.125000,170.500000,-2.125000,170.464498,-2.119852,170.405376,-2.081678,170.376247,-2.017613,170.386345,-1.947965,170.432470,-1.894811,
170.500000,-1.875000,171.875000,-1.875000,171.875000,-1.125000,170.500000,-1.125000,170.464498,-1.119852,170.405376,-1.081678,170.376247,-1.017613,170.386345,-0.947965,170.432470,-0.894811,170.500000,-0.875000,171.875000,-0.875000,171.875000,-0.125000,170.500000,-0.125000,170.464498,-0.119852,170.405376,-0.081678,170.376247,-0.017613,170.386345,0.052035,170.432470,0.105189,170.500000,0.125000,172.000000,0.125000,
172.035502,0.119852,172.035502,0.119852,$1*%
%AMFreePoly24*
4,1,121,64.035502,0.119852,64.043091,0.114952,64.052035,0.113655,64.072199,0.096157,64.094624,0.081678,64.098364,0.073453,64.105189,0.067530,64.112704,0.041914,64.123753,0.017613,64.122456,0.008670,64.125000,0.000000,64.125000,-1.375000,65.875000,-1.375000,65.875000,0.000000,65.880148,0.035502,65.885048,0.043091,65.886345,0.052035,65.903843,0.072199,65.918322,0.094624,65.926547,0.098364,
65.932470,0.105189,65.958086,0.112704,65.982387,0.123753,65.991330,0.122456,66.000000,0.125000,67.500000,0.125000,67.535502,0.119852,67.594624,0.081678,67.623753,0.017613,67.613655,-0.052035,67.567530,-0.105189,67.500000,-0.125000,66.125000,-0.125000,66.125000,-0.875000,67.500000,-0.875000,67.535502,-0.880148,67.594624,-0.918322,67.623753,-0.982387,67.613655,-1.052035,67.567530,-1.105189,
67.500000,-1.125000,66.125000,-1.125000,66.125000,-1.875000,67.500000,-1.875000,67.535502,-1.880148,67.594624,-1.918322,67.623753,-1.982387,67.613655,-2.052035,67.567530,-2.105189,67.500000,-2.125000,66.125000,-2.125000,66.125000,-2.875000,67.500000,-2.875000,67.535502,-2.880148,67.594624,-2.918322,67.623753,-2.982387,67.613655,-3.052035,67.567530,-3.105189,67.500000,-3.125000,66.000000,-3.125000,
65.964498,-3.119852,65.956909,-3.114952,65.947965,-3.113655,65.927801,-3.096157,65.905376,-3.081678,65.901636,-3.073453,65.894811,-3.067530,65.887296,-3.041914,65.876247,-3.017613,65.877544,-3.008670,65.875000,-3.000000,65.875000,-1.625000,64.125000,-1.625000,64.125000,-3.000000,64.119852,-3.035502,64.114952,-3.043091,64.113655,-3.052035,64.096157,-3.072199,64.081678,-3.094624,64.073453,-3.098364,
64.067530,-3.105189,64.041914,-3.112704,64.017613,-3.123753,64.008670,-3.122456,64.000000,-3.125000,62.500000,-3.125000,62.464498,-3.119852,62.405376,-3.081678,62.376247,-3.017613,62.386345,-2.947965,62.432470,-2.894811,62.500000,-2.875000,63.875000,-2.875000,63.875000,-2.125000,62.500000,-2.125000,62.464498,-2.119852,62.405376,-2.081678,62.376247,-2.017613,62.386345,-1.947965,62.432470,-1.894811,
62.500000,-1.875000,63.875000,-1.875000,63.875000,-1.125000,62.500000,-1.125000,62.464498,-1.119852,62.405376,-1.081678,62.376247,-1.017613,62.386345,-0.947965,62.432470,-0.894811,62.500000,-0.875000,63.875000,-0.875000,63.875000,-0.125000,62.500000,-0.125000,62.464498,-0.119852,62.405376,-0.081678,62.376247,-0.017613,62.386345,0.052035,62.432470,0.105189,62.500000,0.125000,64.000000,0.125000,
64.035502,0.119852,64.035502,0.119852,$1*%
%AMFreePoly25*
4,1,121,4.035502,0.119852,4.043091,0.114952,4.052035,0.113655,4.072199,0.096157,4.094624,0.081678,4.098364,0.073453,4.105189,0.067530,4.112704,0.041914,4.123753,0.017613,4.122456,0.008670,4.125000,0.000000,4.125000,-1.375000,5.875000,-1.375000,5.875000,0.000000,5.880148,0.035502,5.885048,0.043091,5.886345,0.052035,5.903843,0.072199,5.918322,0.094624,5.926547,0.098364,
5.932470,0.105189,5.958086,0.112704,5.982387,0.123753,5.991330,0.122456,6.000000,0.125000,7.500000,0.125000,7.535502,0.119852,7.594624,0.081678,7.623753,0.017613,7.613655,-0.052035,7.567530,-0.105189,7.500000,-0.125000,6.125000,-0.125000,6.125000,-0.875000,7.500000,-0.875000,7.535502,-0.880148,7.594624,-0.918322,7.623753,-0.982387,7.613655,-1.052035,7.567530,-1.105189,
7.500000,-1.125000,6.125000,-1.125000,6.125000,-1.875000,7.500000,-1.875000,7.535502,-1.880148,7.594624,-1.918322,7.623753,-1.982387,7.613655,-2.052035,7.567530,-2.105189,7.500000,-2.125000,6.125000,-2.125000,6.125000,-2.875000,7.500000,-2.875000,7.535502,-2.880148,7.594624,-2.918322,7.623753,-2.982387,7.613655,-3.052035,7.567530,-3.105189,7.500000,-3.125000,6.000000,-3.125000,
5.964498,-3.119852,5.956909,-3.114952,5.947965,-3.113655,5.927801,-3.096157,5.905376,-3.081678,5.901636,-3.073453,5.894811,-3.067530,5.887296,-3.041914,5.876247,-3.017613,5.877544,-3.008670,5.875000,-3.000000,5.875000,-1.625000,4.125000,-1.625000,4.125000,-3.000000,4.119852,-3.035502,4.114952,-3.043091,4.113655,-3.052035,4.096157,-3.072199,4.081678,-3.094624,4.073453,-3.098364,
4.067530,-3.105189,4.041914,-3.112704,4.017613,-3.123753,4.008670,-3.122456,4.000000,-3.125000,2.500000,-3.125000,2.464498,-3.119852,2.405376,-3.081678,2.376247,-3.017613,2.386345,-2.947965,2.432470,-2.894811,2.500000,-2.875000,3.875000,-2.875000,3.875000,-2.125000,2.500000,-2.125000,2.464498,-2.119852,2.405376,-2.081678,2.376247,-2.017613,2.386345,-1.947965,2.432470,-1.894811,
2.500000,-1.875000,3.875000,-1.875000,3.875000,-1.125000,2.500000,-1.125000,2.464498,-1.119852,2.405376,-1.081678,2.376247,-1.017613,2.386345,-0.947965,2.432470,-0.894811,2.500000,-0.875000,3.875000,-0.875000,3.875000,-0.125000,2.500000,-0.125000,2.464498,-0.119852,2.405376,-0.081678,2.376247,-0.017613,2.386345,0.052035,2.432470,0.105189,2.500000,0.125000,4.000000,0.125000,
4.035502,0.119852,4.035502,0.119852,$1*%
%AMFreePoly26*
4,1,121,142.035502,0.119852,142.043091,0.114952,142.052035,0.113655,142.072199,0.096157,142.094624,0.081678,142.098364,0.073453,142.105189,0.067530,142.112704,0.041914,142.123753,0.017613,142.122456,0.008670,142.125000,0.000000,142.125000,-1.375000,143.875000,-1.375000,143.875000,0.000000,143.880148,0.035502,143.885048,0.043091,143.886345,0.052035,143.903843,0.072199,143.918322,0.094624,143.926547,0.098364,
143.932470,0.105189,143.958086,0.112704,143.982387,0.123753,143.991330,0.122456,144.000000,0.125000,145.500000,0.125000,145.535502,0.119852,145.594624,0.081678,145.623753,0.017613,145.613655,-0.052035,145.567530,-0.105189,145.500000,-0.125000,144.125000,-0.125000,144.125000,-0.875000,145.500000,-0.875000,145.535502,-0.880148,145.594624,-0.918322,145.623753,-0.982387,145.613655,-1.052035,145.567530,-1.105189,
145.500000,-1.125000,144.125000,-1.125000,144.125000,-1.875000,145.500000,-1.875000,145.535502,-1.880148,145.594624,-1.918322,145.623753,-1.982387,145.613655,-2.052035,145.567530,-2.105189,145.500000,-2.125000,144.125000,-2.125000,144.125000,-2.875000,145.500000,-2.875000,145.535502,-2.880148,145.594624,-2.918322,145.623753,-2.982387,145.613655,-3.052035,145.567530,-3.105189,145.500000,-3.125000,144.000000,-3.125000,
143.964498,-3.119852,143.956909,-3.114952,143.947965,-3.113655,143.927801,-3.096157,143.905376,-3.081678,143.901636,-3.073453,143.894811,-3.067530,143.887296,-3.041914,143.876247,-3.017613,143.877544,-3.008670,143.875000,-3.000000,143.875000,-1.625000,142.125000,-1.625000,142.125000,-3.000000,142.119852,-3.035502,142.114952,-3.043091,142.113655,-3.052035,142.096157,-3.072199,142.081678,-3.094624,142.073453,-3.098364,
142.067530,-3.105189,142.041914,-3.112704,142.017613,-3.123753,142.008670,-3.122456,142.000000,-3.125000,140.500000,-3.125000,140.464498,-3.119852,140.405376,-3.081678,140.376247,-3.017613,140.386345,-2.947965,140.432470,-2.894811,140.500000,-2.875000,141.875000,-2.875000,141.875000,-2.125000,140.500000,-2.125000,140.464498,-2.119852,140.405376,-2.081678,140.376247,-2.017613,140.386345,-1.947965,140.432470,-1.894811,
140.500000,-1.875000,141.875000,-1.875000,141.875000,-1.125000,140.500000,-1.125000,140.464498,-1.119852,140.405376,-1.081678,140.376247,-1.017613,140.386345,-0.947965,140.432470,-0.894811,140.500000,-0.875000,141.875000,-0.875000,141.875000,-0.125000,140.500000,-0.125000,140.464498,-0.119852,140.405376,-0.081678,140.376247,-0.017613,140.386345,0.052035,140.432470,0.105189,140.500000,0.125000,142.000000,0.125000,
142.035502,0.119852,142.035502,0.119852,$1*%
%AMFreePoly27*
4,1,121,76.035502,0.119852,76.043091,0.114952,76.052035,0.113655,76.072199,0.096157,76.094624,0.081678,76.098364,0.073453,76.105189,0.067530,76.112704,0.041914,76.123753,0.017613,76.122456,0.008670,76.125000,0.000000,76.125000,-1.375000,77.875000,-1.375000,77.875000,0.000000,77.880148,0.035502,77.885048,0.043091,77.886345,0.052035,77.903843,0.072199,77.918322,0.094624,77.926547,0.098364,
77.932470,0.105189,77.958086,0.112704,77.982387,0.123753,77.991330,0.122456,78.000000,0.125000,79.500000,0.125000,79.535502,0.119852,79.594624,0.081678,79.623753,0.017613,79.613655,-0.052035,79.567530,-0.105189,79.500000,-0.125000,78.125000,-0.125000,78.125000,-0.875000,79.500000,-0.875000,79.535502,-0.880148,79.594624,-0.918322,79.623753,-0.982387,79.613655,-1.052035,79.567530,-1.105189,
79.500000,-1.125000,78.125000,-1.125000,78.125000,-1.875000,79.500000,-1.875000,79.535502,-1.880148,79.594624,-1.918322,79.623753,-1.982387,79.613655,-2.052035,79.567530,-2.105189,79.500000,-2.125000,78.125000,-2.125000,78.125000,-2.875000,79.500000,-2.875000,79.535502,-2.880148,79.594624,-2.918322,79.623753,-2.982387,79.613655,-3.052035,79.567530,-3.105189,79.500000,-3.125000,78.000000,-3.125000,
77.964498,-3.119852,77.956909,-3.114952,77.947965,-3.113655,77.927801,-3.096157,77.905376,-3.081678,77.901636,-3.073453,77.894811,-3.067530,77.887296,-3.041914,77.876247,-3.017613,77.877544,-3.008670,77.875000,-3.000000,77.875000,-1.625000,76.125000,-1.625000,76.125000,-3.000000,76.119852,-3.035502,76.114952,-3.043091,76.113655,-3.052035,76.096157,-3.072199,76.081678,-3.094624,76.073453,-3.098364,
76.067530,-3.105189,76.041914,-3.112704,76.017613,-3.123753,76.008670,-3.122456,76.000000,-3.125000,74.500000,-3.125000,74.464498,-3.119852,74.405376,-3.081678,74.376247,-3.017613,74.386345,-2.947965,74.432470,-2.894811,74.500000,-2.875000,75.875000,-2.875000,75.875000,-2.125000,74.500000,-2.125000,74.464498,-2.119852,74.405376,-2.081678,74.376247,-2.017613,74.386345,-1.947965,74.432470,-1.894811,
74.500000,-1.875000,75.875000,-1.875000,75.875000,-1.125000,74.500000,-1.125000,74.464498,-1.119852,74.405376,-1.081678,74.376247,-1.017613,74.386345,-0.947965,74.432470,-0.894811,74.500000,-0.875000,75.875000,-0.875000,75.875000,-0.125000,74.500000,-0.125000,74.464498,-0.119852,74.405376,-0.081678,74.376247,-0.017613,74.386345,0.052035,74.432470,0.105189,74.500000,0.125000,76.000000,0.125000,
76.035502,0.119852,76.035502,0.119852,$1*%
%AMFreePoly28*
4,1,121,58.035502,0.119852,58.043091,0.114952,58.052035,0.113655,58.072199,0.096157,58.094624,0.081678,58.098364,0.073453,58.105189,0.067530,58.112704,0.041914,58.123753,0.017613,58.122456,0.008670,58.125000,0.000000,58.125000,-1.375000,59.875000,-1.375000,59.875000,0.000000,59.880148,0.035502,59.885048,0.043091,59.886345,0.052035,59.903843,0.072199,59.918322,0.094624,59.926547,0.098364,
59.932470,0.105189,59.958086,0.112704,59.982387,0.123753,59.991330,0.122456,60.000000,0.125000,61.500000,0.125000,61.535502,0.119852,61.594624,0.081678,61.623753,0.017613,61.613655,-0.052035,61.567530,-0.105189,61.500000,-0.125000,60.125000,-0.125000,60.125000,-0.875000,61.500000,-0.875000,61.535502,-0.880148,61.594624,-0.918322,61.623753,-0.982387,61.613655,-1.052035,61.567530,-1.105189,
61.500000,-1.125000,60.125000,-1.125000,60.125000,-1.875000,61.500000,-1.875000,61.535502,-1.880148,61.594624,-1.918322,61.623753,-1.982387,61.613655,-2.052035,61.567530,-2.105189,61.500000,-2.125000,60.125000,-2.125000,60.125000,-2.875000,61.500000,-2.875000,61.535502,-2.880148,61.594624,-2.918322,61.623753,-2.982387,61.613655,-3.052035,61.567530,-3.105189,61.500000,-3.125000,60.000000,-3.125000,
59.964498,-3.119852,59.956909,-3.114952,59.947965,-3.113655,59.927801,-3.096157,59.905376,-3.081678,59.901636,-3.073453,59.894811,-3.067530,59.887296,-3.041914,59.876247,-3.017613,59.877544,-3.008670,59.875000,-3.000000,59.875000,-1.625000,58.125000,-1.625000,58.125000,-3.000000,58.119852,-3.035502,58.114952,-3.043091,58.113655,-3.052035,58.096157,-3.072199,58.081678,-3.094624,58.073453,-3.098364,
58.067530,-3.105189,58.041914,-3.112704,58.017613,-3.123753,58.008670,-3.122456,58.000000,-3.125000,56.500000,-3.125000,56.464498,-3.119852,56.405376,-3.081678,56.376247,-3.017613,56.386345,-2.947965,56.432470,-2.894811,56.500000,-2.875000,57.875000,-2.875000,57.875000,-2.125000,56.500000,-2.125000,56.464498,-2.119852,56.405376,-2.081678,56.376247,-2.017613,56.386345,-1.947965,56.432470,-1.894811,
56.500000,-1.875000,57.875000,-1.875000,57.875000,-1.125000,56.500000,-1.125000,56.464498,-1.119852,56.405376,-1.081678,56.376247,-1.017613,56.386345,-0.947965,56.432470,-0.894811,56.500000,-0.875000,57.875000,-0.875000,57.875000,-0.125000,56.500000,-0.125000,56.464498,-0.119852,56.405376,-0.081678,56.376247,-0.017613,56.386345,0.052035,56.432470,0.105189,56.500000,0.125000,58.000000,0.125000,
58.035502,0.119852,58.035502,0.119852,$1*%
%AMFreePoly29*
4,1,121,130.035502,0.119852,130.043091,0.114952,130.052035,0.113655,130.072199,0.096157,130.094624,0.081678,130.098364,0.073453,130.105189,0.067530,130.112704,0.041914,130.123753,0.017613,130.122456,0.008670,130.125000,0.000000,130.125000,-1.375000,131.875000,-1.375000,131.875000,0.000000,131.880148,0.035502,131.885048,0.043091,131.886345,0.052035,131.903843,0.072199,131.918322,0.094624,131.926547,0.098364,
131.932470,0.105189,131.958086,0.112704,131.982387,0.123753,131.991330,0.122456,132.000000,0.125000,133.500000,0.125000,133.535502,0.119852,133.594624,0.081678,133.623753,0.017613,133.613655,-0.052035,133.567530,-0.105189,133.500000,-0.125000,132.125000,-0.125000,132.125000,-0.875000,133.500000,-0.875000,133.535502,-0.880148,133.594624,-0.918322,133.623753,-0.982387,133.613655,-1.052035,133.567530,-1.105189,
133.500000,-1.125000,132.125000,-1.125000,132.125000,-1.875000,133.500000,-1.875000,133.535502,-1.880148,133.594624,-1.918322,133.623753,-1.982387,133.613655,-2.052035,133.567530,-2.105189,133.500000,-2.125000,132.125000,-2.125000,132.125000,-2.875000,133.500000,-2.875000,133.535502,-2.880148,133.594624,-2.918322,133.623753,-2.982387,133.613655,-3.052035,133.567530,-3.105189,133.500000,-3.125000,132.000000,-3.125000,
131.964498,-3.119852,131.956909,-3.114952,131.947965,-3.113655,131.927801,-3.096157,131.905376,-3.081678,131.901636,-3.073453,131.894811,-3.067530,131.887296,-3.041914,131.876247,-3.017613,131.877544,-3.008670,131.875000,-3.000000,131.875000,-1.625000,130.125000,-1.625000,130.125000,-3.000000,130.119852,-3.035502,130.114952,-3.043091,130.113655,-3.052035,130.096157,-3.072199,130.081678,-3.094624,130.073453,-3.098364,
130.067530,-3.105189,130.041914,-3.112704,130.017613,-3.123753,130.008670,-3.122456,130.000000,-3.125000,128.500000,-3.125000,128.464498,-3.119852,128.405376,-3.081678,128.376247,-3.017613,128.386345,-2.947965,128.432470,-2.894811,128.500000,-2.875000,129.875000,-2.875000,129.875000,-2.125000,128.500000,-2.125000,128.464498,-2.119852,128.405376,-2.081678,128.376247,-2.017613,128.386345,-1.947965,128.432470,-1.894811,
128.500000,-1.875000,129.875000,-1.875000,129.875000,-1.125000,128.500000,-1.125000,128.464498,-1.119852,128.405376,-1.081678,128.376247,-1.017613,128.386345,-0.947965,128.432470,-0.894811,128.500000,-0.875000,129.875000,-0.875000,129.875000,-0.125000,128.500000,-0.125000,128.464498,-0.119852,128.405376,-0.081678,128.376247,-0.017613,128.386345,0.052035,128.432470,0.105189,128.500000,0.125000,130.000000,0.125000,
130.035502,0.119852,130.035502,0.119852,$1*%
%AMFreePoly30*
4,1,121,118.035502,0.119852,118.043091,0.114952,118.052035,0.113655,118.072199,0.096157,118.094624,0.081678,118.098364,0.073453,118.105189,0.067530,118.112704,0.041914,118.123753,0.017613,118.122456,0.008670,118.125000,0.000000,118.125000,-1.375000,119.875000,-1.375000,119.875000,0.000000,119.880148,0.035502,119.885048,0.043091,119.886345,0.052035,119.903843,0.072199,119.918322,0.094624,119.926547,0.098364,
119.932470,0.105189,119.958086,0.112704,119.982387,0.123753,119.991330,0.122456,120.000000,0.125000,121.500000,0.125000,121.535502,0.119852,121.594624,0.081678,121.623753,0.017613,121.613655,-0.052035,121.567530,-0.105189,121.500000,-0.125000,120.125000,-0.125000,120.125000,-0.875000,121.500000,-0.875000,121.535502,-0.880148,121.594624,-0.918322,121.623753,-0.982387,121.613655,-1.052035,121.567530,-1.105189,
121.500000,-1.125000,120.125000,-1.125000,120.125000,-1.875000,121.500000,-1.875000,121.535502,-1.880148,121.594624,-1.918322,121.623753,-1.982387,121.613655,-2.052035,121.567530,-2.105189,121.500000,-2.125000,120.125000,-2.125000,120.125000,-2.875000,121.500000,-2.875000,121.535502,-2.880148,121.594624,-2.918322,121.623753,-2.982387,121.613655,-3.052035,121.567530,-3.105189,121.500000,-3.125000,120.000000,-3.125000,
119.964498,-3.119852,119.956909,-3.114952,119.947965,-3.113655,119.927801,-3.096157,119.905376,-3.081678,119.901636,-3.073453,119.894811,-3.067530,119.887296,-3.041914,119.876247,-3.017613,119.877544,-3.008670,119.875000,-3.000000,119.875000,-1.625000,118.125000,-1.625000,118.125000,-3.000000,118.119852,-3.035502,118.114952,-3.043091,118.113655,-3.052035,118.096157,-3.072199,118.081678,-3.094624,118.073453,-3.098364,
118.067530,-3.105189,118.041914,-3.112704,118.017613,-3.123753,118.008670,-3.122456,118.000000,-3.125000,116.500000,-3.125000,116.464498,-3.119852,116.405376,-3.081678,116.376247,-3.017613,116.386345,-2.947965,116.432470,-2.894811,116.500000,-2.875000,117.875000,-2.875000,117.875000,-2.125000,116.500000,-2.125000,116.464498,-2.119852,116.405376,-2.081678,116.376247,-2.017613,116.386345,-1.947965,116.432470,-1.894811,
116.500000,-1.875000,117.875000,-1.875000,117.875000,-1.125000,116.500000,-1.125000,116.464498,-1.119852,116.405376,-1.081678,116.376247,-1.017613,116.386345,-0.947965,116.432470,-0.894811,116.500000,-0.875000,117.875000,-0.875000,117.875000,-0.125000,116.500000,-0.125000,116.464498,-0.119852,116.405376,-0.081678,116.376247,-0.017613,116.386345,0.052035,116.432470,0.105189,116.500000,0.125000,118.000000,0.125000,
118.035502,0.119852,118.035502,0.119852,$1*%
%AMFreePoly31*
4,1,121,10.035502,0.119852,10.043091,0.114952,10.052035,0.113655,10.072199,0.096157,10.094624,0.081678,10.098364,0.073453,10.105189,0.067530,10.112704,0.041914,10.123753,0.017613,10.122456,0.008670,10.125000,0.000000,10.125000,-1.375000,11.875000,-1.375000,11.875000,0.000000,11.880148,0.035502,11.885048,0.043091,11.886345,0.052035,11.903843,0.072199,11.918322,0.094624,11.926547,0.098364,
11.932470,0.105189,11.958086,0.112704,11.982387,0.123753,11.991330,0.122456,12.000000,0.125000,13.500000,0.125000,13.535502,0.119852,13.594624,0.081678,13.623753,0.017613,13.613655,-0.052035,13.567530,-0.105189,13.500000,-0.125000,12.125000,-0.125000,12.125000,-0.875000,13.500000,-0.875000,13.535502,-0.880148,13.594624,-0.918322,13.623753,-0.982387,13.613655,-1.052035,13.567530,-1.105189,
13.500000,-1.125000,12.125000,-1.125000,12.125000,-1.875000,13.500000,-1.875000,13.535502,-1.880148,13.594624,-1.918322,13.623753,-1.982387,13.613655,-2.052035,13.567530,-2.105189,13.500000,-2.125000,12.125000,-2.125000,12.125000,-2.875000,13.500000,-2.875000,13.535502,-2.880148,13.594624,-2.918322,13.623753,-2.982387,13.613655,-3.052035,13.567530,-3.105189,13.500000,-3.125000,12.000000,-3.125000,
11.964498,-3.119852,11.956909,-3.114952,11.947965,-3.113655,11.927801,-3.096157,11.905376,-3.081678,11.901636,-3.073453,11.894811,-3.067530,11.887296,-3.041914,11.876247,-3.017613,11.877544,-3.008670,11.875000,-3.000000,11.875000,-1.625000,10.125000,-1.625000,10.125000,-3.000000,10.119852,-3.035502,10.114952,-3.043091,10.113655,-3.052035,10.096157,-3.072199,10.081678,-3.094624,10.073453,-3.098364,
10.067530,-3.105189,10.041914,-3.112704,10.017613,-3.123753,10.008670,-3.122456,10.000000,-3.125000,8.500000,-3.125000,8.464498,-3.119852,8.405376,-3.081678,8.376247,-3.017613,8.386345,-2.947965,8.432470,-2.894811,8.500000,-2.875000,9.875000,-2.875000,9.875000,-2.125000,8.500000,-2.125000,8.464498,-2.119852,8.405376,-2.081678,8.376247,-2.017613,8.386345,-1.947965,8.432470,-1.894811,
8.500000,-1.875000,9.875000,-1.875000,9.875000,-1.125000,8.500000,-1.125000,8.464498,-1.119852,8.405376,-1.081678,8.376247,-1.017613,8.386345,-0.947965,8.432470,-0.894811,8.500000,-0.875000,9.875000,-0.875000,9.875000,-0.125000,8.500000,-0.125000,8.464498,-0.119852,8.405376,-0.081678,8.376247,-0.017613,8.386345,0.052035,8.432470,0.105189,8.500000,0.125000,10.000000,0.125000,
10.035502,0.119852,10.035502,0.119852,$1*%
%AMFreePoly32*
4,1,121,136.035502,0.119852,136.043091,0.114952,136.052035,0.113655,136.072199,0.096157,136.094624,0.081678,136.098364,0.073453,136.105189,0.067530,136.112704,0.041914,136.123753,0.017613,136.122456,0.008670,136.125000,0.000000,136.125000,-1.375000,137.875000,-1.375000,137.875000,0.000000,137.880148,0.035502,137.885048,0.043091,137.886345,0.052035,137.903843,0.072199,137.918322,0.094624,137.926547,0.098364,
137.932470,0.105189,137.958086,0.112704,137.982387,0.123753,137.991330,0.122456,138.000000,0.125000,139.500000,0.125000,139.535502,0.119852,139.594624,0.081678,139.623753,0.017613,139.613655,-0.052035,139.567530,-0.105189,139.500000,-0.125000,138.125000,-0.125000,138.125000,-0.875000,139.500000,-0.875000,139.535502,-0.880148,139.594624,-0.918322,139.623753,-0.982387,139.613655,-1.052035,139.567530,-1.105189,
139.500000,-1.125000,138.125000,-1.125000,138.125000,-1.875000,139.500000,-1.875000,139.535502,-1.880148,139.594624,-1.918322,139.623753,-1.982387,139.613655,-2.052035,139.567530,-2.105189,139.500000,-2.125000,138.125000,-2.125000,138.125000,-2.875000,139.500000,-2.875000,139.535502,-2.880148,139.594624,-2.918322,139.623753,-2.982387,139.613655,-3.052035,139.567530,-3.105189,139.500000,-3.125000,138.000000,-3.125000,
137.964498,-3.119852,137.956909,-3.114952,137.947965,-3.113655,137.927801,-3.096157,137.905376,-3.081678,137.901636,-3.073453,137.894811,-3.067530,137.887296,-3.041914,137.876247,-3.017613,137.877544,-3.008670,137.875000,-3.000000,137.875000,-1.625000,136.125000,-1.625000,136.125000,-3.000000,136.119852,-3.035502,136.114952,-3.043091,136.113655,-3.052035,136.096157,-3.072199,136.081678,-3.094624,136.073453,-3.098364,
136.067530,-3.105189,136.041914,-3.112704,136.017613,-3.123753,136.008670,-3.122456,136.000000,-3.125000,134.500000,-3.125000,134.464498,-3.119852,134.405376,-3.081678,134.376247,-3.017613,134.386345,-2.947965,134.432470,-2.894811,134.500000,-2.875000,135.875000,-2.875000,135.875000,-2.125000,134.500000,-2.125000,134.464498,-2.119852,134.405376,-2.081678,134.376247,-2.017613,134.386345,-1.947965,134.432470,-1.894811,
134.500000,-1.875000,135.875000,-1.875000,135.875000,-1.125000,134.500000,-1.125000,134.464498,-1.119852,134.405376,-1.081678,134.376247,-1.017613,134.386345,-0.947965,134.432470,-0.894811,134.500000,-0.875000,135.875000,-0.875000,135.875000,-0.125000,134.500000,-0.125000,134.464498,-0.119852,134.405376,-0.081678,134.376247,-0.017613,134.386345,0.052035,134.432470,0.105189,134.500000,0.125000,136.000000,0.125000,
136.035502,0.119852,136.035502,0.119852,$1*%
%AMFreePoly33*
4,1,735,0.052035,0.113655,0.105189,0.067530,0.125000,0.000000,0.125000,-0.875000,1.500000,-0.875000,1.535502,-0.880148,1.594624,-0.918322,1.623753,-0.982387,1.613655,-1.052035,1.567530,-1.105189,1.500000,-1.125000,0.125000,-1.125000,0.125000,-1.875000,1.500000,-1.875000,1.535502,-1.880148,1.594624,-1.918322,1.623753,-1.982387,1.613655,-2.052035,1.567530,-2.105189,1.500000,-2.125000,
0.125000,-2.125000,0.125000,-2.875000,1.500000,-2.875000,1.535502,-2.880148,1.594624,-2.918322,1.623753,-2.982387,1.613655,-3.052035,1.567530,-3.105189,1.500000,-3.125000,0.125000,-3.125000,0.125000,-3.875000,1.500000,-3.875000,1.535502,-3.880148,1.594624,-3.918322,1.623753,-3.982387,1.613655,-4.052035,1.567530,-4.105189,1.500000,-4.125000,0.125000,-4.125000,0.125000,-4.875000,
1.500000,-4.875000,1.535502,-4.880148,1.594624,-4.918322,1.623753,-4.982387,1.613655,-5.052035,1.567530,-5.105189,1.500000,-5.125000,0.125000,-5.125000,0.125000,-6.875000,1.500000,-6.875000,1.535502,-6.880148,1.594624,-6.918322,1.623753,-6.982387,1.613655,-7.052035,1.567530,-7.105189,1.500000,-7.125000,0.125000,-7.125000,0.125000,-7.875000,1.500000,-7.875000,1.535502,-7.880148,
1.594624,-7.918322,1.623753,-7.982387,1.613655,-8.052035,1.567530,-8.105189,1.500000,-8.125000,0.125000,-8.125000,0.125000,-8.875000,1.500000,-8.875000,1.535502,-8.880148,1.594624,-8.918322,1.623753,-8.982387,1.613655,-9.052035,1.567530,-9.105189,1.500000,-9.125000,0.125000,-9.125000,0.125000,-9.875000,1.500000,-9.875000,1.535502,-9.880148,1.594624,-9.918322,1.623753,-9.982387,
1.613655,-10.052035,1.567530,-10.105189,1.500000,-10.125000,0.125000,-10.125000,0.125000,-10.875000,1.500000,-10.875000,1.535502,-10.880148,1.594624,-10.918322,1.623753,-10.982387,1.613655,-11.052035,1.567530,-11.105189,1.500000,-11.125000,0.125000,-11.125000,0.125000,-12.875000,1.500000,-12.875000,1.535502,-12.880148,1.594624,-12.918322,1.623753,-12.982387,1.613655,-13.052035,1.567530,-13.105189,
1.500000,-13.125000,0.125000,-13.125000,0.125000,-13.875000,1.500000,-13.875000,1.535502,-13.880148,1.594624,-13.918322,1.623753,-13.982387,1.613655,-14.052035,1.567530,-14.105189,1.500000,-14.125000,0.125000,-14.125000,0.125000,-14.875000,1.500000,-14.875000,1.535502,-14.880148,1.594624,-14.918322,1.623753,-14.982387,1.613655,-15.052035,1.567530,-15.105189,1.500000,-15.125000,0.125000,-15.125000,
0.125000,-15.875000,1.500000,-15.875000,1.535502,-15.880148,1.594624,-15.918322,1.623753,-15.982387,1.613655,-16.052035,1.567530,-16.105189,1.500000,-16.125000,0.125000,-16.125000,0.125000,-16.875000,1.500000,-16.875000,1.535502,-16.880148,1.594624,-16.918322,1.623753,-16.982387,1.613655,-17.052035,1.567530,-17.105189,1.500000,-17.125000,0.125000,-17.125000,0.125000,-18.875000,1.500000,-18.875000,
1.535502,-18.880148,1.594624,-18.918322,1.623753,-18.982387,1.613655,-19.052035,1.567530,-19.105189,1.500000,-19.125000,0.125000,-19.125000,0.125000,-19.875000,1.500000,-19.875000,1.535502,-19.880148,1.594624,-19.918322,1.623753,-19.982387,1.613655,-20.052035,1.567530,-20.105189,1.500000,-20.125000,0.125000,-20.125000,0.125000,-20.875000,1.500000,-20.875000,1.535502,-20.880148,1.594624,-20.918322,
1.623753,-20.982387,1.613655,-21.052035,1.567530,-21.105189,1.500000,-21.125000,0.125000,-21.125000,0.125000,-21.875000,1.500000,-21.875000,1.535502,-21.880148,1.594624,-21.918322,1.623753,-21.982387,1.613655,-22.052035,1.567530,-22.105189,1.500000,-22.125000,0.125000,-22.125000,0.125000,-22.875000,1.500000,-22.875000,1.535502,-22.880148,1.594624,-22.918322,1.623753,-22.982387,1.613655,-23.052035,
1.567530,-23.105189,1.500000,-23.125000,0.125000,-23.125000,0.125000,-24.875000,1.500000,-24.875000,1.535502,-24.880148,1.594624,-24.918322,1.623753,-24.982387,1.613655,-25.052035,1.567530,-25.105189,1.500000,-25.125000,0.125000,-25.125000,0.125000,-25.875000,1.500000,-25.875000,1.535502,-25.880148,1.594624,-25.918322,1.623753,-25.982387,1.613655,-26.052035,1.567530,-26.105189,1.500000,-26.125000,
0.125000,-26.125000,0.125000,-26.875000,1.500000,-26.875000,1.535502,-26.880148,1.594624,-26.918322,1.623753,-26.982387,1.613655,-27.052035,1.567530,-27.105189,1.500000,-27.125000,0.125000,-27.125000,0.125000,-27.875000,1.500000,-27.875000,1.535502,-27.880148,1.594624,-27.918322,1.623753,-27.982387,1.613655,-28.052035,1.567530,-28.105189,1.500000,-28.125000,0.125000,-28.125000,0.125000,-28.875000,
1.500000,-28.875000,1.535502,-28.880148,1.594624,-28.918322,1.623753,-28.982387,1.613655,-29.052035,1.567530,-29.105189,1.500000,-29.125000,0.125000,-29.125000,0.125000,-30.875000,1.500000,-30.875000,1.535502,-30.880148,1.594624,-30.918322,1.623753,-30.982387,1.613655,-31.052035,1.567530,-31.105189,1.500000,-31.125000,0.125000,-31.125000,0.125000,-31.875000,1.500000,-31.875000,1.535502,-31.880148,
1.594624,-31.918322,1.623753,-31.982387,1.613655,-32.052035,1.567530,-32.105189,1.500000,-32.125000,0.125000,-32.125000,0.125000,-32.875000,1.500000,-32.875000,1.535502,-32.880148,1.594624,-32.918322,1.623753,-32.982387,1.613655,-33.052035,1.567530,-33.105189,1.500000,-33.125000,0.125000,-33.125000,0.125000,-33.875000,1.500000,-33.875000,1.535502,-33.880148,1.594624,-33.918322,1.623753,-33.982387,
1.613655,-34.052035,1.567530,-34.105189,1.500000,-34.125000,0.125000,-34.125000,0.125000,-34.875000,1.500000,-34.875000,1.535502,-34.880148,1.594624,-34.918322,1.623753,-34.982387,1.613655,-35.052035,1.567530,-35.105189,1.500000,-35.125000,0.125000,-35.125000,0.125000,-36.875000,1.500000,-36.875000,1.535502,-36.880148,1.594624,-36.918322,1.623753,-36.982387,1.613655,-37.052035,1.567530,-37.105189,
1.500000,-37.125000,0.125000,-37.125000,0.125000,-37.875000,1.500000,-37.875000,1.535502,-37.880148,1.594624,-37.918322,1.623753,-37.982387,1.613655,-38.052035,1.567530,-38.105189,1.500000,-38.125000,0.125000,-38.125000,0.125000,-38.875000,1.500000,-38.875000,1.535502,-38.880148,1.594624,-38.918322,1.623753,-38.982387,1.613655,-39.052035,1.567530,-39.105189,1.500000,-39.125000,0.125000,-39.125000,
0.125000,-39.875000,1.500000,-39.875000,1.535502,-39.880148,1.594624,-39.918322,1.623753,-39.982387,1.613655,-40.052035,1.567530,-40.105189,1.500000,-40.125000,0.125000,-40.125000,0.125000,-40.875000,1.500000,-40.875000,1.535502,-40.880148,1.594624,-40.918322,1.623753,-40.982387,1.613655,-41.052035,1.567530,-41.105189,1.500000,-41.125000,0.125000,-41.125000,0.125000,-42.875000,1.500000,-42.875000,
1.535502,-42.880148,1.594624,-42.918322,1.623753,-42.982387,1.613655,-43.052035,1.567530,-43.105189,1.500000,-43.125000,0.125000,-43.125000,0.125000,-43.875000,1.500000,-43.875000,1.535502,-43.880148,1.594624,-43.918322,1.623753,-43.982387,1.613655,-44.052035,1.567530,-44.105189,1.500000,-44.125000,0.125000,-44.125000,0.125000,-44.875000,1.500000,-44.875000,1.535502,-44.880148,1.594624,-44.918322,
1.623753,-44.982387,1.613655,-45.052035,1.567530,-45.105189,1.500000,-45.125000,0.125000,-45.125000,0.125000,-45.875000,1.500000,-45.875000,1.535502,-45.880148,1.594624,-45.918322,1.623753,-45.982387,1.613655,-46.052035,1.567530,-46.105189,1.500000,-46.125000,0.125000,-46.125000,0.125000,-46.875000,1.500000,-46.875000,1.535502,-46.880148,1.594624,-46.918322,1.623753,-46.982387,1.613655,-47.052035,
1.567530,-47.105189,1.500000,-47.125000,0.125000,-47.125000,0.125000,-48.000000,0.119852,-48.035502,0.081678,-48.094624,0.017613,-48.123753,-0.052035,-48.113655,-0.105189,-48.067530,-0.125000,-48.000000,-0.125000,-47.125000,-1.500000,-47.125000,-1.535502,-47.119852,-1.594624,-47.081678,-1.623753,-47.017613,-1.613655,-46.947965,-1.567530,-46.894811,-1.500000,-46.875000,-0.125000,-46.875000,-0.125000,-46.125000,
-1.500000,-46.125000,-1.535502,-46.119852,-1.594624,-46.081678,-1.623753,-46.017613,-1.613655,-45.947965,-1.567530,-45.894811,-1.500000,-45.875000,-0.125000,-45.875000,-0.125000,-45.125000,-1.500000,-45.125000,-1.535502,-45.119852,-1.594624,-45.081678,-1.623753,-45.017613,-1.613655,-44.947965,-1.567530,-44.894811,-1.500000,-44.875000,-0.125000,-44.875000,-0.125000,-44.125000,-1.500000,-44.125000,-1.535502,-44.119852,
-1.594624,-44.081678,-1.623753,-44.017613,-1.613655,-43.947965,-1.567530,-43.894811,-1.500000,-43.875000,-0.125000,-43.875000,-0.125000,-43.125000,-1.500000,-43.125000,-1.535502,-43.119852,-1.594624,-43.081678,-1.623753,-43.017613,-1.613655,-42.947965,-1.567530,-42.894811,-1.500000,-42.875000,-0.125000,-42.875000,-0.125000,-41.125000,-1.500000,-41.125000,-1.535502,-41.119852,-1.594624,-41.081678,-1.623753,-41.017613,
-1.613655,-40.947965,-1.567530,-40.894811,-1.500000,-40.875000,-0.125000,-40.875000,-0.125000,-40.125000,-1.500000,-40.125000,-1.535502,-40.119852,-1.594624,-40.081678,-1.623753,-40.017613,-1.613655,-39.947965,-1.567530,-39.894811,-1.500000,-39.875000,-0.125000,-39.875000,-0.125000,-39.125000,-1.500000,-39.125000,-1.535502,-39.119852,-1.594624,-39.081678,-1.623753,-39.017613,-1.613655,-38.947965,-1.567530,-38.894811,
-1.500000,-38.875000,-0.125000,-38.875000,-0.125000,-38.125000,-1.500000,-38.125000,-1.535502,-38.119852,-1.594624,-38.081678,-1.623753,-38.017613,-1.613655,-37.947965,-1.567530,-37.894811,-1.500000,-37.875000,-0.125000,-37.875000,-0.125000,-37.125000,-1.500000,-37.125000,-1.535502,-37.119852,-1.594624,-37.081678,-1.623753,-37.017613,-1.613655,-36.947965,-1.567530,-36.894811,-1.500000,-36.875000,-0.125000,-36.875000,
-0.125000,-35.125000,-1.500000,-35.125000,-1.535502,-35.119852,-1.594624,-35.081678,-1.623753,-35.017613,-1.613655,-34.947965,-1.567530,-34.894811,-1.500000,-34.875000,-0.125000,-34.875000,-0.125000,-34.125000,-1.500000,-34.125000,-1.535502,-34.119852,-1.594624,-34.081678,-1.623753,-34.017613,-1.613655,-33.947965,-1.567530,-33.894811,-1.500000,-33.875000,-0.125000,-33.875000,-0.125000,-33.125000,-1.500000,-33.125000,
-1.535502,-33.119852,-1.594624,-33.081678,-1.623753,-33.017613,-1.613655,-32.947965,-1.567530,-32.894811,-1.500000,-32.875000,-0.125000,-32.875000,-0.125000,-32.125000,-1.500000,-32.125000,-1.535502,-32.119852,-1.594624,-32.081678,-1.623753,-32.017613,-1.613655,-31.947965,-1.567530,-31.894811,-1.500000,-31.875000,-0.125000,-31.875000,-0.125000,-31.125000,-1.500000,-31.125000,-1.535502,-31.119852,-1.594624,-31.081678,
-1.623753,-31.017613,-1.613655,-30.947965,-1.567530,-30.894811,-1.500000,-30.875000,-0.125000,-30.875000,-0.125000,-29.125000,-1.500000,-29.125000,-1.535502,-29.119852,-1.594624,-29.081678,-1.623753,-29.017613,-1.613655,-28.947965,-1.567530,-28.894811,-1.500000,-28.875000,-0.125000,-28.875000,-0.125000,-28.125000,-1.500000,-28.125000,-1.535502,-28.119852,-1.594624,-28.081678,-1.623753,-28.017613,-1.613655,-27.947965,
-1.567530,-27.894811,-1.500000,-27.875000,-0.125000,-27.875000,-0.125000,-27.125000,-1.500000,-27.125000,-1.535502,-27.119852,-1.594624,-27.081678,-1.623753,-27.017613,-1.613655,-26.947965,-1.567530,-26.894811,-1.500000,-26.875000,-0.125000,-26.875000,-0.125000,-26.125000,-1.500000,-26.125000,-1.535502,-26.119852,-1.594624,-26.081678,-1.623753,-26.017613,-1.613655,-25.947965,-1.567530,-25.894811,-1.500000,-25.875000,
-0.125000,-25.875000,-0.125000,-25.125000,-1.500000,-25.125000,-1.535502,-25.119852,-1.594624,-25.081678,-1.623753,-25.017613,-1.613655,-24.947965,-1.567530,-24.894811,-1.500000,-24.875000,-0.125000,-24.875000,-0.125000,-23.125000,-1.500000,-23.125000,-1.535502,-23.119852,-1.594624,-23.081678,-1.623753,-23.017613,-1.613655,-22.947965,-1.567530,-22.894811,-1.500000,-22.875000,-0.125000,-22.875000,-0.125000,-22.125000,
-1.500000,-22.125000,-1.535502,-22.119852,-1.594624,-22.081678,-1.623753,-22.017613,-1.613655,-21.947965,-1.567530,-21.894811,-1.500000,-21.875000,-0.125000,-21.875000,-0.125000,-21.125000,-1.500000,-21.125000,-1.535502,-21.119852,-1.594624,-21.081678,-1.623753,-21.017613,-1.613655,-20.947965,-1.567530,-20.894811,-1.500000,-20.875000,-0.125000,-20.875000,-0.125000,-20.125000,-1.500000,-20.125000,-1.535502,-20.119852,
-1.594624,-20.081678,-1.623753,-20.017613,-1.613655,-19.947965,-1.567530,-19.894811,-1.500000,-19.875000,-0.125000,-19.875000,-0.125000,-19.125000,-1.500000,-19.125000,-1.535502,-19.119852,-1.594624,-19.081678,-1.623753,-19.017613,-1.613655,-18.947965,-1.567530,-18.894811,-1.500000,-18.875000,-0.125000,-18.875000,-0.125000,-17.125000,-1.500000,-17.125000,-1.535502,-17.119852,-1.594624,-17.081678,-1.623753,-17.017613,
-1.613655,-16.947965,-1.567530,-16.894811,-1.500000,-16.875000,-0.125000,-16.875000,-0.125000,-16.125000,-1.500000,-16.125000,-1.535502,-16.119852,-1.594624,-16.081678,-1.623753,-16.017613,-1.613655,-15.947965,-1.567530,-15.894811,-1.500000,-15.875000,-0.125000,-15.875000,-0.125000,-15.125000,-1.500000,-15.125000,-1.535502,-15.119852,-1.594624,-15.081678,-1.623753,-15.017613,-1.613655,-14.947965,-1.567530,-14.894811,
-1.500000,-14.875000,-0.125000,-14.875000,-0.125000,-14.125000,-1.500000,-14.125000,-1.535502,-14.119852,-1.594624,-14.081678,-1.623753,-14.017613,-1.613655,-13.947965,-1.567530,-13.894811,-1.500000,-13.875000,-0.125000,-13.875000,-0.125000,-13.125000,-1.500000,-13.125000,-1.535502,-13.119852,-1.594624,-13.081678,-1.623753,-13.017613,-1.613655,-12.947965,-1.567530,-12.894811,-1.500000,-12.875000,-0.125000,-12.875000,
-0.125000,-11.125000,-1.500000,-11.125000,-1.535502,-11.119852,-1.594624,-11.081678,-1.623753,-11.017613,-1.613655,-10.947965,-1.567530,-10.894811,-1.500000,-10.875000,-0.125000,-10.875000,-0.125000,-10.125000,-1.500000,-10.125000,-1.535502,-10.119852,-1.594624,-10.081678,-1.623753,-10.017613,-1.613655,-9.947965,-1.567530,-9.894811,-1.500000,-9.875000,-0.125000,-9.875000,-0.125000,-9.125000,-1.500000,-9.125000,
-1.535502,-9.119852,-1.594624,-9.081678,-1.623753,-9.017613,-1.613655,-8.947965,-1.567530,-8.894811,-1.500000,-8.875000,-0.125000,-8.875000,-0.125000,-8.125000,-1.500000,-8.125000,-1.535502,-8.119852,-1.594624,-8.081678,-1.623753,-8.017613,-1.613655,-7.947965,-1.567530,-7.894811,-1.500000,-7.875000,-0.125000,-7.875000,-0.125000,-7.125000,-1.500000,-7.125000,-1.535502,-7.119852,-1.594624,-7.081678,
-1.623753,-7.017613,-1.613655,-6.947965,-1.567530,-6.894811,-1.500000,-6.875000,-0.125000,-6.875000,-0.125000,-5.125000,-1.500000,-5.125000,-1.535502,-5.119852,-1.594624,-5.081678,-1.623753,-5.017613,-1.613655,-4.947965,-1.567530,-4.894811,-1.500000,-4.875000,-0.125000,-4.875000,-0.125000,-4.125000,-1.500000,-4.125000,-1.535502,-4.119852,-1.594624,-4.081678,-1.623753,-4.017613,-1.613655,-3.947965,
-1.567530,-3.894811,-1.500000,-3.875000,-0.125000,-3.875000,-0.125000,-3.125000,-1.500000,-3.125000,-1.535502,-3.119852,-1.594624,-3.081678,-1.623753,-3.017613,-1.613655,-2.947965,-1.567530,-2.894811,-1.500000,-2.875000,-0.125000,-2.875000,-0.125000,-2.125000,-1.500000,-2.125000,-1.535502,-2.119852,-1.594624,-2.081678,-1.623753,-2.017613,-1.613655,-1.947965,-1.567530,-1.894811,-1.500000,-1.875000,
-0.125000,-1.875000,-0.125000,-1.125000,-1.500000,-1.125000,-1.535502,-1.119852,-1.594624,-1.081678,-1.623753,-1.017613,-1.613655,-0.947965,-1.567530,-0.894811,-1.500000,-0.875000,-0.125000,-0.875000,-0.125000,0.000000,-0.119852,0.035502,-0.081678,0.094624,-0.017613,0.123753,0.052035,0.113655,0.052035,0.113655,$1*%
G04 Aperture macros list end*
G04 #@! TA.AperFunction,SMDPad,CuDef*
%ADD10FreePoly0,0.000000*%
G04 #@! TD*
G04 #@! TA.AperFunction,SMDPad,CuDef*
%ADD11FreePoly1,0.000000*%
G04 #@! TD*
G04 #@! TA.AperFunction,SMDPad,CuDef*
%ADD12FreePoly2,0.000000*%
G04 #@! TD*
G04 #@! TA.AperFunction,SMDPad,CuDef*
%ADD13FreePoly3,0.000000*%
G04 #@! TD*
G04 #@! TA.AperFunction,SMDPad,CuDef*
%ADD14FreePoly4,0.000000*%
G04 #@! TD*
G04 #@! TA.AperFunction,SMDPad,CuDef*
%ADD15FreePoly5,0.000000*%
G04 #@! TD*
G04 #@! TA.AperFunction,SMDPad,CuDef*
%ADD16FreePoly6,0.000000*%
G04 #@! TD*
G04 #@! TA.AperFunction,SMDPad,CuDef*
%ADD17FreePoly7,0.000000*%
G04 #@! TD*
G04 #@! TA.AperFunction,SMDPad,CuDef*
%ADD18FreePoly8,0.000000*%
G04 #@! TD*
G04 #@! TA.AperFunction,SMDPad,CuDef*
%ADD19FreePoly9,0.000000*%
G04 #@! TD*
G04 #@! TA.AperFunction,SMDPad,CuDef*
%ADD20FreePoly10,0.000000*%
G04 #@! TD*
G04 #@! TA.AperFunction,SMDPad,CuDef*
%ADD21FreePoly11,0.000000*%
G04 #@! TD*
G04 #@! TA.AperFunction,SMDPad,CuDef*
%ADD22FreePoly12,0.000000*%
G04 #@! TD*
G04 #@! TA.AperFunction,SMDPad,CuDef*
%ADD23FreePoly13,0.000000*%
G04 #@! TD*
G04 #@! TA.AperFunction,SMDPad,CuDef*
%ADD24FreePoly14,0.000000*%
G04 #@! TD*
G04 #@! TA.AperFunction,SMDPad,CuDef*
%ADD25FreePoly15,0.000000*%
G04 #@! TD*
G04 #@! TA.AperFunction,SMDPad,CuDef*
%ADD26FreePoly16,0.000000*%
G04 #@! TD*
G04 #@! TA.AperFunction,SMDPad,CuDef*
%ADD27FreePoly17,0.000000*%
G04 #@! TD*
G04 #@! TA.AperFunction,SMDPad,CuDef*
%ADD28FreePoly18,0.000000*%
G04 #@! TD*
G04 #@! TA.AperFunction,SMDPad,CuDef*
%ADD29FreePoly19,0.000000*%
G04 #@! TD*
G04 #@! TA.AperFunction,SMDPad,CuDef*
%ADD30FreePoly20,0.000000*%
G04 #@! TD*
G04 #@! TA.AperFunction,SMDPad,CuDef*
%ADD31FreePoly21,0.000000*%
G04 #@! TD*
G04 #@! TA.AperFunction,SMDPad,CuDef*
%ADD32FreePoly22,0.000000*%
G04 #@! TD*
G04 #@! TA.AperFunction,SMDPad,CuDef*
%ADD33FreePoly23,0.000000*%
G04 #@! TD*
G04 #@! TA.AperFunction,SMDPad,CuDef*
%ADD34FreePoly24,0.000000*%
G04 #@! TD*
G04 #@! TA.AperFunction,SMDPad,CuDef*
%ADD35FreePoly25,0.000000*%
G04 #@! TD*
G04 #@! TA.AperFunction,SMDPad,CuDef*
%ADD36FreePoly26,0.000000*%
G04 #@! TD*
G04 #@! TA.AperFunction,SMDPad,CuDef*
%ADD37FreePoly27,0.000000*%
G04 #@! TD*
G04 #@! TA.AperFunction,SMDPad,CuDef*
%ADD38FreePoly28,0.000000*%
G04 #@! TD*
G04 #@! TA.AperFunction,SMDPad,CuDef*
%ADD39FreePoly29,0.000000*%
G04 #@! TD*
G04 #@! TA.AperFunction,SMDPad,CuDef*
%ADD40FreePoly30,0.000000*%
G04 #@! TD*
G04 #@! TA.AperFunction,SMDPad,CuDef*
%ADD41FreePoly31,0.000000*%
G04 #@! TD*
G04 #@! TA.AperFunction,SMDPad,CuDef*
%ADD42FreePoly32,0.000000*%
G04 #@! TD*
G04 #@! TA.AperFunction,SMDPad,CuDef*
%ADD43FreePoly33,0.000000*%
G04 #@! TD*
G04 #@! TA.AperFunction,ViaPad*
%ADD44C,0.400000*%
G04 #@! TD*
G04 APERTURE END LIST*
D10*
X63915000Y-57105000D03*
D11*
X63915000Y-57105000D03*
D12*
X63915000Y-57105000D03*
D13*
X63915000Y-57105000D03*
D14*
X63915000Y-57105000D03*
D15*
X63915000Y-57105000D03*
D16*
X63915000Y-57105000D03*
D17*
X63915000Y-57105000D03*
D18*
X63915000Y-57105000D03*
D19*
X63915000Y-57105000D03*
D20*
X63915000Y-57105000D03*
D21*
X63915000Y-57105000D03*
D22*
X63915000Y-57105000D03*
D23*
X63915000Y-57105000D03*
D24*
X63915000Y-57105000D03*
D25*
X63915000Y-57105000D03*
D26*
X63915000Y-57105000D03*
D27*
X63915000Y-57105000D03*
D28*
X63915000Y-57105000D03*
D29*
X63915000Y-57105000D03*
D30*
X63915000Y-57105000D03*
D31*
X63915000Y-57105000D03*
D32*
X63915000Y-57105000D03*
D33*
X63915000Y-57105000D03*
D34*
X63915000Y-57105000D03*
D35*
X63915000Y-57105000D03*
D36*
X63915000Y-57105000D03*
D37*
X63915000Y-57105000D03*
D38*
X63915000Y-57105000D03*
D39*
X63915000Y-57105000D03*
D40*
X63915000Y-57105000D03*
D41*
X63915000Y-57105000D03*
D42*
X63915000Y-57105000D03*
D10*
X63915000Y-63105000D03*
D11*
X63915000Y-63105000D03*
D12*
X63915000Y-63105000D03*
D13*
X63915000Y-63105000D03*
D14*
X63915000Y-63105000D03*
D15*
X63915000Y-63105000D03*
D16*
X63915000Y-63105000D03*
D17*
X63915000Y-63105000D03*
D18*
X63915000Y-63105000D03*
D19*
X63915000Y-63105000D03*
D20*
X63915000Y-63105000D03*
D21*
X63915000Y-63105000D03*
D22*
X63915000Y-63105000D03*
D23*
X63915000Y-63105000D03*
D24*
X63915000Y-63105000D03*
D25*
X63915000Y-63105000D03*
D26*
X63915000Y-63105000D03*
D27*
X63915000Y-63105000D03*
D28*
X63915000Y-63105000D03*
D29*
X63915000Y-63105000D03*
D30*
X63915000Y-63105000D03*
D31*
X63915000Y-63105000D03*
D32*
X63915000Y-63105000D03*
D33*
X63915000Y-63105000D03*
D34*
X63915000Y-63105000D03*
D35*
X63915000Y-63105000D03*
D36*
X63915000Y-63105000D03*
D37*
X63915000Y-63105000D03*
D38*
X63915000Y-63105000D03*
D39*
X63915000Y-63105000D03*
D40*
X63915000Y-63105000D03*
D41*
X63915000Y-63105000D03*
D42*
X63915000Y-63105000D03*
D10*
X63915000Y-69105000D03*
D11*
X63915000Y-69105000D03*
D12*
X63915000Y-69105000D03*
D13*
X63915000Y-69105000D03*
D14*
X63915000Y-69105000D03*
D15*
X63915000Y-69105000D03*
D16*
X63915000Y-69105000D03*
D17*
X63915000Y-69105000D03*
D18*
X63915000Y-69105000D03*
D19*
X63915000Y-69105000D03*
D20*
X63915000Y-69105000D03*
D21*
X63915000Y-69105000D03*
D22*
X63915000Y-69105000D03*
D23*
X63915000Y-69105000D03*
D24*
X63915000Y-69105000D03*
D25*
X63915000Y-69105000D03*
D26*
X63915000Y-69105000D03*
D27*
X63915000Y-69105000D03*
D28*
X63915000Y-69105000D03*
D29*
X63915000Y-69105000D03*
D30*
X63915000Y-69105000D03*
D31*
X63915000Y-69105000D03*
D32*
X63915000Y-69105000D03*
D33*
X63915000Y-69105000D03*
D34*
X63915000Y-69105000D03*
D35*
X63915000Y-69105000D03*
D36*
X63915000Y-69105000D03*
D37*
X63915000Y-69105000D03*
D38*
X63915000Y-69105000D03*
D39*
X63915000Y-69105000D03*
D40*
X63915000Y-69105000D03*
D41*
X63915000Y-69105000D03*
D42*
X63915000Y-69105000D03*
D10*
X63915000Y-75105000D03*
D11*
X63915000Y-75105000D03*
D12*
X63915000Y-75105000D03*
D13*
X63915000Y-75105000D03*
D14*
X63915000Y-75105000D03*
D15*
X63915000Y-75105000D03*
D16*
X63915000Y-75105000D03*
D17*
X63915000Y-75105000D03*
D18*
X63915000Y-75105000D03*
D19*
X63915000Y-75105000D03*
D20*
X63915000Y-75105000D03*
D21*
X63915000Y-75105000D03*
D22*
X63915000Y-75105000D03*
D23*
X63915000Y-75105000D03*
D24*
X63915000Y-75105000D03*
D25*
X63915000Y-75105000D03*
D26*
X63915000Y-75105000D03*
D27*
X63915000Y-75105000D03*
D28*
X63915000Y-75105000D03*
D29*
X63915000Y-75105000D03*
D30*
X63915000Y-75105000D03*
D31*
X63915000Y-75105000D03*
D32*
X63915000Y-75105000D03*
D33*
X63915000Y-75105000D03*
D34*
X63915000Y-75105000D03*
D35*
X63915000Y-75105000D03*
D36*
X63915000Y-75105000D03*
D37*
X63915000Y-75105000D03*
D38*
X63915000Y-75105000D03*
D39*
X63915000Y-75105000D03*
D40*
X63915000Y-75105000D03*
D41*
X63915000Y-75105000D03*
D42*
X63915000Y-75105000D03*
D10*
X63915000Y-81105000D03*
D11*
X63915000Y-81105000D03*
D12*
X63915000Y-81105000D03*
D13*
X63915000Y-81105000D03*
D14*
X63915000Y-81105000D03*
D15*
X63915000Y-81105000D03*
D16*
X63915000Y-81105000D03*
D17*
X63915000Y-81105000D03*
D18*
X63915000Y-81105000D03*
D19*
X63915000Y-81105000D03*
D20*
X63915000Y-81105000D03*
D21*
X63915000Y-81105000D03*
D22*
X63915000Y-81105000D03*
D23*
X63915000Y-81105000D03*
D24*
X63915000Y-81105000D03*
D25*
X63915000Y-81105000D03*
D26*
X63915000Y-81105000D03*
D27*
X63915000Y-81105000D03*
D28*
X63915000Y-81105000D03*
D29*
X63915000Y-81105000D03*
D30*
X63915000Y-81105000D03*
D31*
X63915000Y-81105000D03*
D32*
X63915000Y-81105000D03*
D33*
X63915000Y-81105000D03*
D34*
X63915000Y-81105000D03*
D35*
X63915000Y-81105000D03*
D36*
X63915000Y-81105000D03*
D37*
X63915000Y-81105000D03*
D38*
X63915000Y-81105000D03*
D39*
X63915000Y-81105000D03*
D40*
X63915000Y-81105000D03*
D41*
X63915000Y-81105000D03*
D42*
X63915000Y-81105000D03*
D10*
X63915000Y-87105000D03*
D11*
X63915000Y-87105000D03*
D12*
X63915000Y-87105000D03*
D13*
X63915000Y-87105000D03*
D14*
X63915000Y-87105000D03*
D15*
X63915000Y-87105000D03*
D16*
X63915000Y-87105000D03*
D17*
X63915000Y-87105000D03*
D18*
X63915000Y-87105000D03*
D19*
X63915000Y-87105000D03*
D20*
X63915000Y-87105000D03*
D21*
X63915000Y-87105000D03*
D22*
X63915000Y-87105000D03*
D23*
X63915000Y-87105000D03*
D24*
X63915000Y-87105000D03*
D25*
X63915000Y-87105000D03*
D26*
X63915000Y-87105000D03*
D27*
X63915000Y-87105000D03*
D28*
X63915000Y-87105000D03*
D29*
X63915000Y-87105000D03*
D30*
X63915000Y-87105000D03*
D31*
X63915000Y-87105000D03*
D32*
X63915000Y-87105000D03*
D33*
X63915000Y-87105000D03*
D34*
X63915000Y-87105000D03*
D35*
X63915000Y-87105000D03*
D36*
X63915000Y-87105000D03*
D37*
X63915000Y-87105000D03*
D38*
X63915000Y-87105000D03*
D39*
X63915000Y-87105000D03*
D40*
X63915000Y-87105000D03*
D41*
X63915000Y-87105000D03*
D42*
X63915000Y-87105000D03*
D10*
X63915000Y-93105000D03*
D11*
X63915000Y-93105000D03*
D12*
X63915000Y-93105000D03*
D13*
X63915000Y-93105000D03*
D14*
X63915000Y-93105000D03*
D15*
X63915000Y-93105000D03*
D16*
X63915000Y-93105000D03*
D17*
X63915000Y-93105000D03*
D18*
X63915000Y-93105000D03*
D19*
X63915000Y-93105000D03*
D20*
X63915000Y-93105000D03*
D21*
X63915000Y-93105000D03*
D22*
X63915000Y-93105000D03*
D23*
X63915000Y-93105000D03*
D24*
X63915000Y-93105000D03*
D25*
X63915000Y-93105000D03*
D26*
X63915000Y-93105000D03*
D27*
X63915000Y-93105000D03*
D28*
X63915000Y-93105000D03*
D29*
X63915000Y-93105000D03*
D30*
X63915000Y-93105000D03*
D31*
X63915000Y-93105000D03*
D32*
X63915000Y-93105000D03*
D33*
X63915000Y-93105000D03*
D34*
X63915000Y-93105000D03*
D35*
X63915000Y-93105000D03*
D36*
X63915000Y-93105000D03*
D37*
X63915000Y-93105000D03*
D38*
X63915000Y-93105000D03*
D39*
X63915000Y-93105000D03*
D40*
X63915000Y-93105000D03*
D41*
X63915000Y-93105000D03*
D42*
X63915000Y-93105000D03*
D10*
X63915000Y-99105000D03*
D11*
X63915000Y-99105000D03*
D12*
X63915000Y-99105000D03*
D13*
X63915000Y-99105000D03*
D14*
X63915000Y-99105000D03*
D15*
X63915000Y-99105000D03*
D16*
X63915000Y-99105000D03*
D17*
X63915000Y-99105000D03*
D18*
X63915000Y-99105000D03*
D19*
X63915000Y-99105000D03*
D20*
X63915000Y-99105000D03*
D21*
X63915000Y-99105000D03*
D22*
X63915000Y-99105000D03*
D23*
X63915000Y-99105000D03*
D24*
X63915000Y-99105000D03*
D25*
X63915000Y-99105000D03*
D26*
X63915000Y-99105000D03*
D27*
X63915000Y-99105000D03*
D28*
X63915000Y-99105000D03*
D29*
X63915000Y-99105000D03*
D30*
X63915000Y-99105000D03*
D31*
X63915000Y-99105000D03*
D32*
X63915000Y-99105000D03*
D33*
X63915000Y-99105000D03*
D34*
X63915000Y-99105000D03*
D35*
X63915000Y-99105000D03*
D36*
X63915000Y-99105000D03*
D37*
X63915000Y-99105000D03*
D38*
X63915000Y-99105000D03*
D39*
X63915000Y-99105000D03*
D40*
X63915000Y-99105000D03*
D41*
X63915000Y-99105000D03*
D42*
X63915000Y-99105000D03*
D43*
X65915000Y-55605000D03*
X71915000Y-55605000D03*
X77915000Y-55605000D03*
X83915000Y-55605000D03*
X89915000Y-55605000D03*
X95915000Y-55605000D03*
X101915000Y-55605000D03*
X107915000Y-55605000D03*
X113915000Y-55605000D03*
X119915000Y-55605000D03*
X125915000Y-55605000D03*
X131915000Y-55605000D03*
X137915000Y-55605000D03*
X143915000Y-55605000D03*
X149915000Y-55605000D03*
X155915000Y-55605000D03*
X161915000Y-55605000D03*
X167915000Y-55605000D03*
X173915000Y-55605000D03*
X179915000Y-55605000D03*
X185915000Y-55605000D03*
X191915000Y-55605000D03*
X197915000Y-55605000D03*
X203915000Y-55605000D03*
X209915000Y-55605000D03*
X215915000Y-55605000D03*
X221915000Y-55605000D03*
X227915000Y-55605000D03*
X233915000Y-55605000D03*
X239915000Y-55605000D03*
X245915000Y-55605000D03*
X251915000Y-55605000D03*
D44*
X249920000Y-99120000D03*
X253880000Y-99130000D03*
X243920000Y-99120000D03*
X247880000Y-99130000D03*
X237920000Y-99120000D03*
X241880000Y-99130000D03*
X231920000Y-99120000D03*
X235880000Y-99130000D03*
X225920000Y-99120000D03*
X229880000Y-99130000D03*
X219920000Y-99120000D03*
X223880000Y-99130000D03*
X213920000Y-99120000D03*
X217880000Y-99130000D03*
X207920000Y-99120000D03*
X211880000Y-99130000D03*
X201920000Y-99120000D03*
X205880000Y-99130000D03*
X195920000Y-99120000D03*
X199880000Y-99130000D03*
X189920000Y-99120000D03*
X193880000Y-99130000D03*
X183920000Y-99120000D03*
X187880000Y-99130000D03*
X177920000Y-99120000D03*
X181880000Y-99130000D03*
X171920000Y-99120000D03*
X175880000Y-99130000D03*
X165920000Y-99120000D03*
X169880000Y-99130000D03*
X159920000Y-99120000D03*
X163880000Y-99130000D03*
X153920000Y-99120000D03*
X157880000Y-99130000D03*
X147920000Y-99120000D03*
X151880000Y-99130000D03*
X141920000Y-99120000D03*
X145880000Y-99130000D03*
X135920000Y-99120000D03*
X139880000Y-99130000D03*
X129920000Y-99120000D03*
X133880000Y-99130000D03*
X123920000Y-99120000D03*
X127880000Y-99130000D03*
X117920000Y-99120000D03*
X121880000Y-99130000D03*
X111920000Y-99120000D03*
X115880000Y-99130000D03*
X105920000Y-99120000D03*
X109880000Y-99130000D03*
X99920000Y-99120000D03*
X103880000Y-99130000D03*
X93920000Y-99120000D03*
X97880000Y-99130000D03*
X87920000Y-99120000D03*
X91880000Y-99130000D03*
X81920000Y-99120000D03*
X85880000Y-99130000D03*
X75920000Y-99120000D03*
X79880000Y-99130000D03*
X69920000Y-99120000D03*
X73880000Y-99130000D03*
X63920000Y-99120000D03*
X67880000Y-99130000D03*
X249920000Y-93120000D03*
X253880000Y-93130000D03*
X243920000Y-93120000D03*
X247880000Y-93130000D03*
X237920000Y-93120000D03*
X241880000Y-93130000D03*
X231920000Y-93120000D03*
X235880000Y-93130000D03*
X225920000Y-93120000D03*
X229880000Y-93130000D03*
X219920000Y-93120000D03*
X223880000Y-93130000D03*
X213920000Y-93120000D03*
X217880000Y-93130000D03*
X207920000Y-93120000D03*
X211880000Y-93130000D03*
X201920000Y-93120000D03*
X205880000Y-93130000D03*
X195920000Y-93120000D03*
X199880000Y-93130000D03*
X189920000Y-93120000D03*
X193880000Y-93130000D03*
X183920000Y-93120000D03*
X187880000Y-93130000D03*
X177920000Y-93120000D03*
X181880000Y-93130000D03*
X171920000Y-93120000D03*
X175880000Y-93130000D03*
X165920000Y-93120000D03*
X169880000Y-93130000D03*
X159920000Y-93120000D03*
X163880000Y-93130000D03*
X153920000Y-93120000D03*
X157880000Y-93130000D03*
X147920000Y-93120000D03*
X151880000Y-93130000D03*
X141920000Y-93120000D03*
X145880000Y-93130000D03*
X135920000Y-93120000D03*
X139880000Y-93130000D03*
X129920000Y-93120000D03*
X133880000Y-93130000D03*
X123920000Y-93120000D03*
X127880000Y-93130000D03*
X117920000Y-93120000D03*
X121880000Y-93130000D03*
X111920000Y-93120000D03*
X115880000Y-93130000D03*
X105920000Y-93120000D03*
X109880000Y-93130000D03*
X99920000Y-93120000D03*
X103880000Y-93130000D03*
X93920000Y-93120000D03*
X97880000Y-93130000D03*
X87920000Y-93120000D03*
X91880000Y-93130000D03*
X81920000Y-93120000D03*
X85880000Y-93130000D03*
X75920000Y-93120000D03*
X79880000Y-93130000D03*
X69920000Y-93120000D03*
X73880000Y-93130000D03*
X63920000Y-93120000D03*
X67880000Y-93130000D03*
X249920000Y-87120000D03*
X253880000Y-87130000D03*
X243920000Y-87120000D03*
X247880000Y-87130000D03*
X237920000Y-87120000D03*
X241880000Y-87130000D03*
X231920000Y-87120000D03*
X235880000Y-87130000D03*
X225920000Y-87120000D03*
X229880000Y-87130000D03*
X219920000Y-87120000D03*
X223880000Y-87130000D03*
X213920000Y-87120000D03*
X217880000Y-87130000D03*
X207920000Y-87120000D03*
X211880000Y-87130000D03*
X201920000Y-87120000D03*
X205880000Y-87130000D03*
X195920000Y-87120000D03*
X199880000Y-87130000D03*
X189920000Y-87120000D03*
X193880000Y-87130000D03*
X183920000Y-87120000D03*
X187880000Y-87130000D03*
X177920000Y-87120000D03*
X181880000Y-87130000D03*
X171920000Y-87120000D03*
X175880000Y-87130000D03*
X165920000Y-87120000D03*
X169880000Y-87130000D03*
X159920000Y-87120000D03*
X163880000Y-87130000D03*
X153920000Y-87120000D03*
X157880000Y-87130000D03*
X147920000Y-87120000D03*
X151880000Y-87130000D03*
X141920000Y-87120000D03*
X145880000Y-87130000D03*
X135920000Y-87120000D03*
X139880000Y-87130000D03*
X129920000Y-87120000D03*
X133880000Y-87130000D03*
X123920000Y-87120000D03*
X127880000Y-87130000D03*
X117920000Y-87120000D03*
X121880000Y-87130000D03*
X111920000Y-87120000D03*
X115880000Y-87130000D03*
X105920000Y-87120000D03*
X109880000Y-87130000D03*
X99920000Y-87120000D03*
X103880000Y-87130000D03*
X93920000Y-87120000D03*
X97880000Y-87130000D03*
X87920000Y-87120000D03*
X91880000Y-87130000D03*
X81920000Y-87120000D03*
X85880000Y-87130000D03*
X75920000Y-87120000D03*
X79880000Y-87130000D03*
X69920000Y-87120000D03*
X73880000Y-87130000D03*
X63920000Y-87120000D03*
X67880000Y-87130000D03*
X249920000Y-81120000D03*
X253880000Y-81130000D03*
X243920000Y-81120000D03*
X247880000Y-81130000D03*
X237920000Y-81120000D03*
X241880000Y-81130000D03*
X231920000Y-81120000D03*
X235880000Y-81130000D03*
X225920000Y-81120000D03*
X229880000Y-81130000D03*
X219920000Y-81120000D03*
X223880000Y-81130000D03*
X213920000Y-81120000D03*
X217880000Y-81130000D03*
X207920000Y-81120000D03*
X211880000Y-81130000D03*
X201920000Y-81120000D03*
X205880000Y-81130000D03*
X195920000Y-81120000D03*
X199880000Y-81130000D03*
X189920000Y-81120000D03*
X193880000Y-81130000D03*
X183920000Y-81120000D03*
X187880000Y-81130000D03*
X177920000Y-81120000D03*
X181880000Y-81130000D03*
X171920000Y-81120000D03*
X175880000Y-81130000D03*
X165920000Y-81120000D03*
X169880000Y-81130000D03*
X159920000Y-81120000D03*
X163880000Y-81130000D03*
X153920000Y-81120000D03*
X157880000Y-81130000D03*
X147920000Y-81120000D03*
X151880000Y-81130000D03*
X141920000Y-81120000D03*
X145880000Y-81130000D03*
X135920000Y-81120000D03*
X139880000Y-81130000D03*
X129920000Y-81120000D03*
X133880000Y-81130000D03*
X123920000Y-81120000D03*
X127880000Y-81130000D03*
X117920000Y-81120000D03*
X121880000Y-81130000D03*
X111920000Y-81120000D03*
X115880000Y-81130000D03*
X105920000Y-81120000D03*
X109880000Y-81130000D03*
X99920000Y-81120000D03*
X103880000Y-81130000D03*
X93920000Y-81120000D03*
X97880000Y-81130000D03*
X87920000Y-81120000D03*
X91880000Y-81130000D03*
X81920000Y-81120000D03*
X85880000Y-81130000D03*
X75920000Y-81120000D03*
X79880000Y-81130000D03*
X69920000Y-81120000D03*
X73880000Y-81130000D03*
X63920000Y-81120000D03*
X67880000Y-81130000D03*
X249920000Y-75120000D03*
X253880000Y-75130000D03*
X243920000Y-75120000D03*
X247880000Y-75130000D03*
X237920000Y-75120000D03*
X241880000Y-75130000D03*
X231920000Y-75120000D03*
X235880000Y-75130000D03*
X225920000Y-75120000D03*
X229880000Y-75130000D03*
X219920000Y-75120000D03*
X223880000Y-75130000D03*
X213920000Y-75120000D03*
X217880000Y-75130000D03*
X207920000Y-75120000D03*
X211880000Y-75130000D03*
X201920000Y-75120000D03*
X205880000Y-75130000D03*
X195920000Y-75120000D03*
X199880000Y-75130000D03*
X189920000Y-75120000D03*
X193880000Y-75130000D03*
X183920000Y-75120000D03*
X187880000Y-75130000D03*
X177920000Y-75120000D03*
X181880000Y-75130000D03*
X171920000Y-75120000D03*
X175880000Y-75130000D03*
X165920000Y-75120000D03*
X169880000Y-75130000D03*
X159920000Y-75120000D03*
X163880000Y-75130000D03*
X153920000Y-75120000D03*
X157880000Y-75130000D03*
X147920000Y-75120000D03*
X151880000Y-75130000D03*
X141920000Y-75120000D03*
X145880000Y-75130000D03*
X135920000Y-75120000D03*
X139880000Y-75130000D03*
X129920000Y-75120000D03*
X133880000Y-75130000D03*
X123920000Y-75120000D03*
X127880000Y-75130000D03*
X117920000Y-75120000D03*
X121880000Y-75130000D03*
X111920000Y-75120000D03*
X115880000Y-75130000D03*
X105920000Y-75120000D03*
X109880000Y-75130000D03*
X99920000Y-75120000D03*
X103880000Y-75130000D03*
X93920000Y-75120000D03*
X97880000Y-75130000D03*
X87920000Y-75120000D03*
X91880000Y-75130000D03*
X81920000Y-75120000D03*
X85880000Y-75130000D03*
X75920000Y-75120000D03*
X79880000Y-75130000D03*
X69920000Y-75120000D03*
X73880000Y-75130000D03*
X63920000Y-75120000D03*
X67880000Y-75130000D03*
X249920000Y-69120000D03*
X253880000Y-69130000D03*
X243920000Y-69120000D03*
X247880000Y-69130000D03*
X237920000Y-69120000D03*
X241880000Y-69130000D03*
X231920000Y-69120000D03*
X235880000Y-69130000D03*
X225920000Y-69120000D03*
X229880000Y-69130000D03*
X219920000Y-69120000D03*
X223880000Y-69130000D03*
X213920000Y-69120000D03*
X217880000Y-69130000D03*
X207920000Y-69120000D03*
X211880000Y-69130000D03*
X201920000Y-69120000D03*
X205880000Y-69130000D03*
X195920000Y-69120000D03*
X199880000Y-69130000D03*
X189920000Y-69120000D03*
X193880000Y-69130000D03*
X183920000Y-69120000D03*
X187880000Y-69130000D03*
X177920000Y-69120000D03*
X181880000Y-69130000D03*
X171920000Y-69120000D03*
X175880000Y-69130000D03*
X165920000Y-69120000D03*
X169880000Y-69130000D03*
X159920000Y-69120000D03*
X163880000Y-69130000D03*
X153920000Y-69120000D03*
X157880000Y-69130000D03*
X147920000Y-69120000D03*
X151880000Y-69130000D03*
X141920000Y-69120000D03*
X145880000Y-69130000D03*
X135920000Y-69120000D03*
X139880000Y-69130000D03*
X129920000Y-69120000D03*
X133880000Y-69130000D03*
X123920000Y-69120000D03*
X127880000Y-69130000D03*
X117920000Y-69120000D03*
X121880000Y-69130000D03*
X111920000Y-69120000D03*
X115880000Y-69130000D03*
X105920000Y-69120000D03*
X109880000Y-69130000D03*
X99920000Y-69120000D03*
X103880000Y-69130000D03*
X93920000Y-69120000D03*
X97880000Y-69130000D03*
X87920000Y-69120000D03*
X91880000Y-69130000D03*
X81920000Y-69120000D03*
X85880000Y-69130000D03*
X75920000Y-69120000D03*
X79880000Y-69130000D03*
X69920000Y-69120000D03*
X73880000Y-69130000D03*
X63920000Y-69120000D03*
X67880000Y-69130000D03*
X249920000Y-63120000D03*
X253880000Y-63130000D03*
X243920000Y-63120000D03*
X247880000Y-63130000D03*
X237920000Y-63120000D03*
X241880000Y-63130000D03*
X231920000Y-63120000D03*
X235880000Y-63130000D03*
X225920000Y-63120000D03*
X229880000Y-63130000D03*
X219920000Y-63120000D03*
X223880000Y-63130000D03*
X213920000Y-63120000D03*
X217880000Y-63130000D03*
X207920000Y-63120000D03*
X211880000Y-63130000D03*
X201920000Y-63120000D03*
X205880000Y-63130000D03*
X195920000Y-63120000D03*
X199880000Y-63130000D03*
X189920000Y-63120000D03*
X193880000Y-63130000D03*
X183920000Y-63120000D03*
X187880000Y-63130000D03*
X177920000Y-63120000D03*
X181880000Y-63130000D03*
X171920000Y-63120000D03*
X175880000Y-63130000D03*
X165920000Y-63120000D03*
X169880000Y-63130000D03*
X159920000Y-63120000D03*
X163880000Y-63130000D03*
X153920000Y-63120000D03*
X157880000Y-63130000D03*
X147920000Y-63120000D03*
X151880000Y-63130000D03*
X141920000Y-63120000D03*
X145880000Y-63130000D03*
X135920000Y-63120000D03*
X139880000Y-63130000D03*
X129920000Y-63120000D03*
X133880000Y-63130000D03*
X123920000Y-63120000D03*
X127880000Y-63130000D03*
X117920000Y-63120000D03*
X121880000Y-63130000D03*
X111920000Y-63120000D03*
X115880000Y-63130000D03*
X105920000Y-63120000D03*
X109880000Y-63130000D03*
X99920000Y-63120000D03*
X103880000Y-63130000D03*
X93920000Y-63120000D03*
X97880000Y-63130000D03*
X87920000Y-63120000D03*
X91880000Y-63130000D03*
X81920000Y-63120000D03*
X85880000Y-63130000D03*
X75920000Y-63120000D03*
X79880000Y-63130000D03*
X69920000Y-63120000D03*
X73880000Y-63130000D03*
X63920000Y-63120000D03*
X67880000Y-63130000D03*
X249920000Y-57120000D03*
X253880000Y-57130000D03*
X243920000Y-57120000D03*
X247880000Y-57130000D03*
X237920000Y-57120000D03*
X241880000Y-57130000D03*
X231920000Y-57120000D03*
X235880000Y-57130000D03*
X225920000Y-57120000D03*
X229880000Y-57130000D03*
X219920000Y-57120000D03*
X223880000Y-57130000D03*
X213920000Y-57120000D03*
X217880000Y-57130000D03*
X207920000Y-57120000D03*
X211880000Y-57130000D03*
X201920000Y-57120000D03*
X205880000Y-57130000D03*
X195920000Y-57120000D03*
X199880000Y-57130000D03*
X189920000Y-57120000D03*
X193880000Y-57130000D03*
X183920000Y-57120000D03*
X187880000Y-57130000D03*
X177920000Y-57120000D03*
X181880000Y-57130000D03*
X171920000Y-57120000D03*
X175880000Y-57130000D03*
X165920000Y-57120000D03*
X169880000Y-57130000D03*
X159920000Y-57120000D03*
X163880000Y-57130000D03*
X153920000Y-57120000D03*
X157880000Y-57130000D03*
X147920000Y-57120000D03*
X151880000Y-57130000D03*
X141920000Y-57120000D03*
X145880000Y-57130000D03*
X135920000Y-57120000D03*
X139880000Y-57130000D03*
X129920000Y-57120000D03*
X133880000Y-57130000D03*
X123920000Y-57120000D03*
X127880000Y-57130000D03*
X117920000Y-57120000D03*
X121880000Y-57130000D03*
X111920000Y-57120000D03*
X115880000Y-57130000D03*
X105920000Y-57120000D03*
X109880000Y-57130000D03*
X99920000Y-57120000D03*
X103880000Y-57130000D03*
X93920000Y-57120000D03*
X97880000Y-57130000D03*
X87920000Y-57120000D03*
X91880000Y-57130000D03*
X81920000Y-57120000D03*
X85880000Y-57130000D03*
X75920000Y-57120000D03*
X79880000Y-57130000D03*
X69920000Y-57120000D03*
X73880000Y-57130000D03*
X67880000Y-57130000D03*
X63920000Y-57120000D03*
X251920000Y-103590000D03*
X245920000Y-103590000D03*
X239920000Y-103590000D03*
X233920000Y-103590000D03*
X227920000Y-103590000D03*
X221920000Y-103590000D03*
X215920000Y-103590000D03*
X209920000Y-103590000D03*
X203920000Y-103590000D03*
X197920000Y-103590000D03*
X191920000Y-103590000D03*
X185920000Y-103590000D03*
X179920000Y-103590000D03*
X173920000Y-103590000D03*
X167920000Y-103590000D03*
X161920000Y-103590000D03*
X155910000Y-55620000D03*
X149910000Y-55620000D03*
X143910000Y-55620000D03*
X137910000Y-55620000D03*
X131910000Y-55620000D03*
X125910000Y-55620000D03*
X119910000Y-55620000D03*
X113910000Y-55620000D03*
X107910000Y-55620000D03*
X101910000Y-55620000D03*
X95910000Y-55620000D03*
X89910000Y-55620000D03*
X83910000Y-55620000D03*
X77910000Y-55620000D03*
X71910000Y-55620000D03*
X65910000Y-55620000D03*
M02*
