G04 #@! TF.GenerationSoftware,KiCad,Pcbnew,6.0.8+dfsg-1~bpo11+1*
G04 #@! TF.CreationDate,2023-05-15T15:28:38-04:00*
G04 #@! TF.ProjectId,07_padded_interleaved_tight,30375f70-6164-4646-9564-5f696e746572,rev?*
G04 #@! TF.SameCoordinates,Original*
G04 #@! TF.FileFunction,Copper,L2,Bot*
G04 #@! TF.FilePolarity,Positive*
%FSLAX46Y46*%
G04 Gerber Fmt 4.6, Leading zero omitted, Abs format (unit mm)*
G04 Created by KiCad (PCBNEW 6.0.8+dfsg-1~bpo11+1) date 2023-05-15 15:28:38*
%MOMM*%
%LPD*%
G01*
G04 APERTURE LIST*
G04 #@! TA.AperFunction,SMDPad,CuDef*
%ADD10R,1.200000X0.600000*%
G04 #@! TD*
G04 #@! TA.AperFunction,SMDPad,CuDef*
%ADD11R,1.400000X0.800000*%
G04 #@! TD*
G04 #@! TA.AperFunction,ViaPad*
%ADD12C,0.400000*%
G04 #@! TD*
G04 #@! TA.AperFunction,Conductor*
%ADD13C,0.127000*%
G04 #@! TD*
G04 APERTURE END LIST*
D10*
X52125000Y-72625000D03*
X49225000Y-73125000D03*
X52125000Y-73625000D03*
X49225000Y-74125000D03*
X52125000Y-74625000D03*
X49225000Y-75125000D03*
X52125000Y-75625000D03*
X49225000Y-76125000D03*
X52125000Y-76625000D03*
X49225000Y-77125000D03*
X52125000Y-77625000D03*
X49225000Y-78125000D03*
X52125000Y-78625000D03*
X49225000Y-79125000D03*
X52125000Y-79625000D03*
X49225000Y-80125000D03*
X52125000Y-80625000D03*
X49225000Y-81125000D03*
X52125000Y-81625000D03*
X49225000Y-82125000D03*
X52125000Y-82625000D03*
X49225000Y-83125000D03*
X52125000Y-83625000D03*
X49225000Y-84125000D03*
X52125000Y-84625000D03*
X49225000Y-85125000D03*
X52125000Y-85625000D03*
X49225000Y-86125000D03*
X52125000Y-86625000D03*
X49225000Y-87125000D03*
X52125000Y-87625000D03*
X49225000Y-88125000D03*
D11*
X52025000Y-71625000D03*
X49325000Y-71625000D03*
X52025000Y-89125000D03*
X49325000Y-89125000D03*
D10*
X265775000Y-76750000D03*
X262875000Y-77250000D03*
X265775000Y-77750000D03*
X262875000Y-78250000D03*
X265775000Y-78750000D03*
X262875000Y-79250000D03*
X265775000Y-79750000D03*
X262875000Y-80250000D03*
D11*
X265675000Y-75750000D03*
X262975000Y-75750000D03*
X265675000Y-81250000D03*
X262975000Y-81250000D03*
D12*
X249920000Y-99120000D03*
X253880000Y-99130000D03*
X243920000Y-99120000D03*
X247880000Y-99130000D03*
X237920000Y-99120000D03*
X241880000Y-99130000D03*
X231920000Y-99120000D03*
X235880000Y-99130000D03*
X225920000Y-99120000D03*
X229880000Y-99130000D03*
X219920000Y-99120000D03*
X223880000Y-99130000D03*
X213920000Y-99120000D03*
X217880000Y-99130000D03*
X207920000Y-99120000D03*
X211880000Y-99130000D03*
X201920000Y-99120000D03*
X205880000Y-99130000D03*
X195920000Y-99120000D03*
X199880000Y-99130000D03*
X189920000Y-99120000D03*
X193880000Y-99130000D03*
X183920000Y-99120000D03*
X187880000Y-99130000D03*
X177920000Y-99120000D03*
X181880000Y-99130000D03*
X171920000Y-99120000D03*
X175880000Y-99130000D03*
X165920000Y-99120000D03*
X169880000Y-99130000D03*
X159920000Y-99120000D03*
X163880000Y-99130000D03*
X153920000Y-99120000D03*
X157880000Y-99130000D03*
X147920000Y-99120000D03*
X151880000Y-99130000D03*
X141920000Y-99120000D03*
X145880000Y-99130000D03*
X135920000Y-99120000D03*
X139880000Y-99130000D03*
X129920000Y-99120000D03*
X133880000Y-99130000D03*
X123920000Y-99120000D03*
X127880000Y-99130000D03*
X117920000Y-99120000D03*
X121880000Y-99130000D03*
X111920000Y-99120000D03*
X115880000Y-99130000D03*
X105920000Y-99120000D03*
X109880000Y-99130000D03*
X99920000Y-99120000D03*
X103880000Y-99130000D03*
X93920000Y-99120000D03*
X97880000Y-99130000D03*
X87920000Y-99120000D03*
X91880000Y-99130000D03*
X81920000Y-99120000D03*
X85880000Y-99130000D03*
X75920000Y-99120000D03*
X79880000Y-99130000D03*
X69920000Y-99120000D03*
X73880000Y-99130000D03*
X63920000Y-99120000D03*
X67880000Y-99130000D03*
X249920000Y-93120000D03*
X253880000Y-93130000D03*
X243920000Y-93120000D03*
X247880000Y-93130000D03*
X237920000Y-93120000D03*
X241880000Y-93130000D03*
X231920000Y-93120000D03*
X235880000Y-93130000D03*
X225920000Y-93120000D03*
X229880000Y-93130000D03*
X219920000Y-93120000D03*
X223880000Y-93130000D03*
X213920000Y-93120000D03*
X217880000Y-93130000D03*
X207920000Y-93120000D03*
X211880000Y-93130000D03*
X201920000Y-93120000D03*
X205880000Y-93130000D03*
X195920000Y-93120000D03*
X199880000Y-93130000D03*
X189920000Y-93120000D03*
X193880000Y-93130000D03*
X183920000Y-93120000D03*
X187880000Y-93130000D03*
X177920000Y-93120000D03*
X181880000Y-93130000D03*
X171920000Y-93120000D03*
X175880000Y-93130000D03*
X165920000Y-93120000D03*
X169880000Y-93130000D03*
X159920000Y-93120000D03*
X163880000Y-93130000D03*
X153920000Y-93120000D03*
X157880000Y-93130000D03*
X147920000Y-93120000D03*
X151880000Y-93130000D03*
X141920000Y-93120000D03*
X145880000Y-93130000D03*
X135920000Y-93120000D03*
X139880000Y-93130000D03*
X129920000Y-93120000D03*
X133880000Y-93130000D03*
X123920000Y-93120000D03*
X127880000Y-93130000D03*
X117920000Y-93120000D03*
X121880000Y-93130000D03*
X111920000Y-93120000D03*
X115880000Y-93130000D03*
X105920000Y-93120000D03*
X109880000Y-93130000D03*
X99920000Y-93120000D03*
X103880000Y-93130000D03*
X93920000Y-93120000D03*
X97880000Y-93130000D03*
X87920000Y-93120000D03*
X91880000Y-93130000D03*
X81920000Y-93120000D03*
X85880000Y-93130000D03*
X75920000Y-93120000D03*
X79880000Y-93130000D03*
X69920000Y-93120000D03*
X73880000Y-93130000D03*
X63920000Y-93120000D03*
X67880000Y-93130000D03*
X249920000Y-87120000D03*
X253880000Y-87130000D03*
X243920000Y-87120000D03*
X247880000Y-87130000D03*
X237920000Y-87120000D03*
X241880000Y-87130000D03*
X231920000Y-87120000D03*
X235880000Y-87130000D03*
X225920000Y-87120000D03*
X229880000Y-87130000D03*
X219920000Y-87120000D03*
X223880000Y-87130000D03*
X213920000Y-87120000D03*
X217880000Y-87130000D03*
X207920000Y-87120000D03*
X211880000Y-87130000D03*
X201920000Y-87120000D03*
X205880000Y-87130000D03*
X195920000Y-87120000D03*
X199880000Y-87130000D03*
X189920000Y-87120000D03*
X193880000Y-87130000D03*
X183920000Y-87120000D03*
X187880000Y-87130000D03*
X177920000Y-87120000D03*
X181880000Y-87130000D03*
X171920000Y-87120000D03*
X175880000Y-87130000D03*
X165920000Y-87120000D03*
X169880000Y-87130000D03*
X159920000Y-87120000D03*
X163880000Y-87130000D03*
X153920000Y-87120000D03*
X157880000Y-87130000D03*
X147920000Y-87120000D03*
X151880000Y-87130000D03*
X141920000Y-87120000D03*
X145880000Y-87130000D03*
X135920000Y-87120000D03*
X139880000Y-87130000D03*
X129920000Y-87120000D03*
X133880000Y-87130000D03*
X123920000Y-87120000D03*
X127880000Y-87130000D03*
X117920000Y-87120000D03*
X121880000Y-87130000D03*
X111920000Y-87120000D03*
X115880000Y-87130000D03*
X105920000Y-87120000D03*
X109880000Y-87130000D03*
X99920000Y-87120000D03*
X103880000Y-87130000D03*
X93920000Y-87120000D03*
X97880000Y-87130000D03*
X87920000Y-87120000D03*
X91880000Y-87130000D03*
X81920000Y-87120000D03*
X85880000Y-87130000D03*
X75920000Y-87120000D03*
X79880000Y-87130000D03*
X69920000Y-87120000D03*
X73880000Y-87130000D03*
X63920000Y-87120000D03*
X67880000Y-87130000D03*
X249920000Y-81120000D03*
X253880000Y-81130000D03*
X243920000Y-81120000D03*
X247880000Y-81130000D03*
X237920000Y-81120000D03*
X241880000Y-81130000D03*
X231920000Y-81120000D03*
X235880000Y-81130000D03*
X225920000Y-81120000D03*
X229880000Y-81130000D03*
X219920000Y-81120000D03*
X223880000Y-81130000D03*
X213920000Y-81120000D03*
X217880000Y-81130000D03*
X207920000Y-81120000D03*
X211880000Y-81130000D03*
X201920000Y-81120000D03*
X205880000Y-81130000D03*
X195920000Y-81120000D03*
X199880000Y-81130000D03*
X189920000Y-81120000D03*
X193880000Y-81130000D03*
X183920000Y-81120000D03*
X187880000Y-81130000D03*
X177920000Y-81120000D03*
X181880000Y-81130000D03*
X171920000Y-81120000D03*
X175880000Y-81130000D03*
X165920000Y-81120000D03*
X169880000Y-81130000D03*
X159920000Y-81120000D03*
X163880000Y-81130000D03*
X153920000Y-81120000D03*
X157880000Y-81130000D03*
X147920000Y-81120000D03*
X151880000Y-81130000D03*
X141920000Y-81120000D03*
X145880000Y-81130000D03*
X135920000Y-81120000D03*
X139880000Y-81130000D03*
X129920000Y-81120000D03*
X133880000Y-81130000D03*
X123920000Y-81120000D03*
X127880000Y-81130000D03*
X117920000Y-81120000D03*
X121880000Y-81130000D03*
X111920000Y-81120000D03*
X115880000Y-81130000D03*
X105920000Y-81120000D03*
X109880000Y-81130000D03*
X99920000Y-81120000D03*
X103880000Y-81130000D03*
X93920000Y-81120000D03*
X97880000Y-81130000D03*
X87920000Y-81120000D03*
X91880000Y-81130000D03*
X81920000Y-81120000D03*
X85880000Y-81130000D03*
X75920000Y-81120000D03*
X79880000Y-81130000D03*
X69920000Y-81120000D03*
X73880000Y-81130000D03*
X63920000Y-81120000D03*
X67880000Y-81130000D03*
X249920000Y-75120000D03*
X253880000Y-75130000D03*
X243920000Y-75120000D03*
X247880000Y-75130000D03*
X237920000Y-75120000D03*
X241880000Y-75130000D03*
X231920000Y-75120000D03*
X235880000Y-75130000D03*
X225920000Y-75120000D03*
X229880000Y-75130000D03*
X219920000Y-75120000D03*
X223880000Y-75130000D03*
X213920000Y-75120000D03*
X217880000Y-75130000D03*
X207920000Y-75120000D03*
X211880000Y-75130000D03*
X201920000Y-75120000D03*
X205880000Y-75130000D03*
X195920000Y-75120000D03*
X199880000Y-75130000D03*
X189920000Y-75120000D03*
X193880000Y-75130000D03*
X183920000Y-75120000D03*
X187880000Y-75130000D03*
X177920000Y-75120000D03*
X181880000Y-75130000D03*
X171920000Y-75120000D03*
X175880000Y-75130000D03*
X165920000Y-75120000D03*
X169880000Y-75130000D03*
X159920000Y-75120000D03*
X163880000Y-75130000D03*
X153920000Y-75120000D03*
X157880000Y-75130000D03*
X147920000Y-75120000D03*
X151880000Y-75130000D03*
X141920000Y-75120000D03*
X145880000Y-75130000D03*
X135920000Y-75120000D03*
X139880000Y-75130000D03*
X129920000Y-75120000D03*
X133880000Y-75130000D03*
X123920000Y-75120000D03*
X127880000Y-75130000D03*
X117920000Y-75120000D03*
X121880000Y-75130000D03*
X111920000Y-75120000D03*
X115880000Y-75130000D03*
X105920000Y-75120000D03*
X109880000Y-75130000D03*
X99920000Y-75120000D03*
X103880000Y-75130000D03*
X93920000Y-75120000D03*
X97880000Y-75130000D03*
X87920000Y-75120000D03*
X91880000Y-75130000D03*
X81920000Y-75120000D03*
X85880000Y-75130000D03*
X75920000Y-75120000D03*
X79880000Y-75130000D03*
X69920000Y-75120000D03*
X73880000Y-75130000D03*
X63920000Y-75120000D03*
X67880000Y-75130000D03*
X249920000Y-69120000D03*
X253880000Y-69130000D03*
X243920000Y-69120000D03*
X247880000Y-69130000D03*
X237920000Y-69120000D03*
X241880000Y-69130000D03*
X231920000Y-69120000D03*
X235880000Y-69130000D03*
X225920000Y-69120000D03*
X229880000Y-69130000D03*
X219920000Y-69120000D03*
X223880000Y-69130000D03*
X213920000Y-69120000D03*
X217880000Y-69130000D03*
X207920000Y-69120000D03*
X211880000Y-69130000D03*
X201920000Y-69120000D03*
X205880000Y-69130000D03*
X195920000Y-69120000D03*
X199880000Y-69130000D03*
X189920000Y-69120000D03*
X193880000Y-69130000D03*
X183920000Y-69120000D03*
X187880000Y-69130000D03*
X177920000Y-69120000D03*
X181880000Y-69130000D03*
X171920000Y-69120000D03*
X175880000Y-69130000D03*
X165920000Y-69120000D03*
X169880000Y-69130000D03*
X159920000Y-69120000D03*
X163880000Y-69130000D03*
X153920000Y-69120000D03*
X157880000Y-69130000D03*
X147920000Y-69120000D03*
X151880000Y-69130000D03*
X141920000Y-69120000D03*
X145880000Y-69130000D03*
X135920000Y-69120000D03*
X139880000Y-69130000D03*
X129920000Y-69120000D03*
X133880000Y-69130000D03*
X123920000Y-69120000D03*
X127880000Y-69130000D03*
X117920000Y-69120000D03*
X121880000Y-69130000D03*
X111920000Y-69120000D03*
X115880000Y-69130000D03*
X105920000Y-69120000D03*
X109880000Y-69130000D03*
X99920000Y-69120000D03*
X103880000Y-69130000D03*
X93920000Y-69120000D03*
X97880000Y-69130000D03*
X87920000Y-69120000D03*
X91880000Y-69130000D03*
X81920000Y-69120000D03*
X85880000Y-69130000D03*
X75920000Y-69120000D03*
X79880000Y-69130000D03*
X69920000Y-69120000D03*
X73880000Y-69130000D03*
X63920000Y-69120000D03*
X67880000Y-69130000D03*
X249920000Y-63120000D03*
X253880000Y-63130000D03*
X243920000Y-63120000D03*
X247880000Y-63130000D03*
X237920000Y-63120000D03*
X241880000Y-63130000D03*
X231920000Y-63120000D03*
X235880000Y-63130000D03*
X225920000Y-63120000D03*
X229880000Y-63130000D03*
X219920000Y-63120000D03*
X223880000Y-63130000D03*
X213920000Y-63120000D03*
X217880000Y-63130000D03*
X207920000Y-63120000D03*
X211880000Y-63130000D03*
X201920000Y-63120000D03*
X205880000Y-63130000D03*
X195920000Y-63120000D03*
X199880000Y-63130000D03*
X189920000Y-63120000D03*
X193880000Y-63130000D03*
X183920000Y-63120000D03*
X187880000Y-63130000D03*
X177920000Y-63120000D03*
X181880000Y-63130000D03*
X171920000Y-63120000D03*
X175880000Y-63130000D03*
X165920000Y-63120000D03*
X169880000Y-63130000D03*
X159920000Y-63120000D03*
X163880000Y-63130000D03*
X153920000Y-63120000D03*
X157880000Y-63130000D03*
X147920000Y-63120000D03*
X151880000Y-63130000D03*
X141920000Y-63120000D03*
X145880000Y-63130000D03*
X135920000Y-63120000D03*
X139880000Y-63130000D03*
X129920000Y-63120000D03*
X133880000Y-63130000D03*
X123920000Y-63120000D03*
X127880000Y-63130000D03*
X117920000Y-63120000D03*
X121880000Y-63130000D03*
X111920000Y-63120000D03*
X115880000Y-63130000D03*
X105920000Y-63120000D03*
X109880000Y-63130000D03*
X99920000Y-63120000D03*
X103880000Y-63130000D03*
X93920000Y-63120000D03*
X97880000Y-63130000D03*
X87920000Y-63120000D03*
X91880000Y-63130000D03*
X81920000Y-63120000D03*
X85880000Y-63130000D03*
X75920000Y-63120000D03*
X79880000Y-63130000D03*
X69920000Y-63120000D03*
X73880000Y-63130000D03*
X63920000Y-63120000D03*
X67880000Y-63130000D03*
X249920000Y-57120000D03*
X253880000Y-57130000D03*
X243920000Y-57120000D03*
X247880000Y-57130000D03*
X237920000Y-57120000D03*
X241880000Y-57130000D03*
X231920000Y-57120000D03*
X235880000Y-57130000D03*
X225920000Y-57120000D03*
X229880000Y-57130000D03*
X219920000Y-57120000D03*
X223880000Y-57130000D03*
X213920000Y-57120000D03*
X217880000Y-57130000D03*
X207920000Y-57120000D03*
X211880000Y-57130000D03*
X201920000Y-57120000D03*
X205880000Y-57130000D03*
X195920000Y-57120000D03*
X199880000Y-57130000D03*
X189920000Y-57120000D03*
X193880000Y-57130000D03*
X183920000Y-57120000D03*
X187880000Y-57130000D03*
X177920000Y-57120000D03*
X181880000Y-57130000D03*
X171920000Y-57120000D03*
X175880000Y-57130000D03*
X165920000Y-57120000D03*
X169880000Y-57130000D03*
X159920000Y-57120000D03*
X163880000Y-57130000D03*
X153920000Y-57120000D03*
X157880000Y-57130000D03*
X147920000Y-57120000D03*
X151880000Y-57130000D03*
X141920000Y-57120000D03*
X145880000Y-57130000D03*
X135920000Y-57120000D03*
X139880000Y-57130000D03*
X129920000Y-57120000D03*
X133880000Y-57130000D03*
X123920000Y-57120000D03*
X127880000Y-57130000D03*
X117920000Y-57120000D03*
X121880000Y-57130000D03*
X111920000Y-57120000D03*
X115880000Y-57130000D03*
X105920000Y-57120000D03*
X109880000Y-57130000D03*
X99920000Y-57120000D03*
X103880000Y-57130000D03*
X93920000Y-57120000D03*
X97880000Y-57130000D03*
X87920000Y-57120000D03*
X91880000Y-57130000D03*
X81920000Y-57120000D03*
X85880000Y-57130000D03*
X75920000Y-57120000D03*
X79880000Y-57130000D03*
X69920000Y-57120000D03*
X73880000Y-57130000D03*
X67880000Y-57130000D03*
X63920000Y-57120000D03*
X251920000Y-103590000D03*
X245920000Y-103590000D03*
X239920000Y-103590000D03*
X233920000Y-103590000D03*
X227920000Y-103590000D03*
X221920000Y-103590000D03*
X215920000Y-103590000D03*
X209920000Y-103590000D03*
X203920000Y-103590000D03*
X197920000Y-103590000D03*
X191920000Y-103590000D03*
X185920000Y-103590000D03*
X179920000Y-103590000D03*
X173920000Y-103590000D03*
X167920000Y-103590000D03*
X161920000Y-103590000D03*
X155910000Y-55620000D03*
X149910000Y-55620000D03*
X143910000Y-55620000D03*
X137910000Y-55620000D03*
X131910000Y-55620000D03*
X125910000Y-55620000D03*
X119910000Y-55620000D03*
X113910000Y-55620000D03*
X107910000Y-55620000D03*
X101910000Y-55620000D03*
X95910000Y-55620000D03*
X89910000Y-55620000D03*
X83910000Y-55620000D03*
X77910000Y-55620000D03*
X71910000Y-55620000D03*
X65910000Y-55620000D03*
D13*
X253880000Y-99130000D02*
X255525000Y-100775000D01*
X255525000Y-100775000D02*
X260200000Y-100775000D01*
X253880000Y-93130000D02*
X256170000Y-93130000D01*
X256170000Y-93130000D02*
X257960000Y-94920000D01*
X260950000Y-80894000D02*
X262094000Y-79750000D01*
X257960000Y-94920000D02*
X259180000Y-94920000D01*
X259180000Y-94920000D02*
X260950000Y-93150000D01*
X260950000Y-93150000D02*
X260950000Y-80894000D01*
X262094000Y-79750000D02*
X265775000Y-79750000D01*
X253880000Y-87130000D02*
X255440000Y-87130000D01*
X262025000Y-79250000D02*
X262875000Y-79250000D01*
X255440000Y-87130000D02*
X257135000Y-88825000D01*
X257135000Y-88825000D02*
X258975000Y-88825000D01*
X258975000Y-88825000D02*
X259500000Y-88300000D01*
X259500000Y-88300000D02*
X259500000Y-81775000D01*
X259500000Y-81775000D02*
X262025000Y-79250000D01*
X253880000Y-81130000D02*
X254730000Y-81130000D01*
X254730000Y-81130000D02*
X256425000Y-82825000D01*
X256425000Y-82825000D02*
X258450000Y-82825000D01*
X258450000Y-82825000D02*
X258700000Y-82575000D01*
X258700000Y-82575000D02*
X258700000Y-81475000D01*
X258700000Y-81475000D02*
X261425000Y-78750000D01*
X261425000Y-78750000D02*
X265775000Y-78750000D01*
X253880000Y-75130000D02*
X257180000Y-75130000D01*
X257180000Y-75130000D02*
X258900000Y-76850000D01*
X253880000Y-69130000D02*
X258105000Y-69130000D01*
X258105000Y-69130000D02*
X259950000Y-70975000D01*
X253880000Y-63130000D02*
X255900000Y-65150000D01*
X255900000Y-65150000D02*
X263400000Y-65150000D01*
X263400000Y-65150000D02*
X264300000Y-66050000D01*
X264300000Y-66050000D02*
X264300000Y-76325000D01*
X264300000Y-76325000D02*
X263375000Y-77250000D01*
X263375000Y-77250000D02*
X262875000Y-77250000D01*
X253880000Y-57130000D02*
X258030000Y-57130000D01*
X258030000Y-57130000D02*
X259675000Y-58775000D01*
X249920000Y-99120000D02*
X253870000Y-99120000D01*
X243920000Y-99120000D02*
X247870000Y-99120000D01*
X237920000Y-99120000D02*
X241870000Y-99120000D01*
X231920000Y-99120000D02*
X235870000Y-99120000D01*
X225920000Y-99120000D02*
X229870000Y-99120000D01*
X219920000Y-99120000D02*
X223870000Y-99120000D01*
X213920000Y-99120000D02*
X217870000Y-99120000D01*
X207920000Y-99120000D02*
X211870000Y-99120000D01*
X201920000Y-99120000D02*
X205870000Y-99120000D01*
X195920000Y-99120000D02*
X199870000Y-99120000D01*
X189920000Y-99120000D02*
X193870000Y-99120000D01*
X183920000Y-99120000D02*
X187870000Y-99120000D01*
X177920000Y-99120000D02*
X181870000Y-99120000D01*
X171920000Y-99120000D02*
X175870000Y-99120000D01*
X165920000Y-99120000D02*
X169870000Y-99120000D01*
X159920000Y-99120000D02*
X163870000Y-99120000D01*
X153920000Y-99120000D02*
X157870000Y-99120000D01*
X147920000Y-99120000D02*
X151870000Y-99120000D01*
X141920000Y-99120000D02*
X145870000Y-99120000D01*
X135920000Y-99120000D02*
X139870000Y-99120000D01*
X129920000Y-99120000D02*
X133870000Y-99120000D01*
X123920000Y-99120000D02*
X127870000Y-99120000D01*
X117920000Y-99120000D02*
X121870000Y-99120000D01*
X111920000Y-99120000D02*
X115870000Y-99120000D01*
X105920000Y-99120000D02*
X109870000Y-99120000D01*
X99920000Y-99120000D02*
X103870000Y-99120000D01*
X93920000Y-99120000D02*
X97870000Y-99120000D01*
X87920000Y-99120000D02*
X91870000Y-99120000D01*
X81920000Y-99120000D02*
X85870000Y-99120000D01*
X75920000Y-99120000D02*
X79870000Y-99120000D01*
X69920000Y-99120000D02*
X73870000Y-99120000D01*
X63920000Y-99120000D02*
X67870000Y-99120000D01*
X249920000Y-93120000D02*
X253870000Y-93120000D01*
X243920000Y-93120000D02*
X247870000Y-93120000D01*
X237920000Y-93120000D02*
X241870000Y-93120000D01*
X231920000Y-93120000D02*
X235870000Y-93120000D01*
X225920000Y-93120000D02*
X229870000Y-93120000D01*
X219920000Y-93120000D02*
X223870000Y-93120000D01*
X213920000Y-93120000D02*
X217870000Y-93120000D01*
X207920000Y-93120000D02*
X211870000Y-93120000D01*
X201920000Y-93120000D02*
X205870000Y-93120000D01*
X195920000Y-93120000D02*
X199870000Y-93120000D01*
X189920000Y-93120000D02*
X193870000Y-93120000D01*
X183920000Y-93120000D02*
X187870000Y-93120000D01*
X177920000Y-93120000D02*
X181870000Y-93120000D01*
X171920000Y-93120000D02*
X175870000Y-93120000D01*
X165920000Y-93120000D02*
X169870000Y-93120000D01*
X159920000Y-93120000D02*
X163870000Y-93120000D01*
X153920000Y-93120000D02*
X157870000Y-93120000D01*
X147920000Y-93120000D02*
X151870000Y-93120000D01*
X141920000Y-93120000D02*
X145870000Y-93120000D01*
X135920000Y-93120000D02*
X139870000Y-93120000D01*
X129920000Y-93120000D02*
X133870000Y-93120000D01*
X123920000Y-93120000D02*
X127870000Y-93120000D01*
X117920000Y-93120000D02*
X121870000Y-93120000D01*
X111920000Y-93120000D02*
X115870000Y-93120000D01*
X105920000Y-93120000D02*
X109870000Y-93120000D01*
X99920000Y-93120000D02*
X103870000Y-93120000D01*
X93920000Y-93120000D02*
X97870000Y-93120000D01*
X87920000Y-93120000D02*
X91870000Y-93120000D01*
X81920000Y-93120000D02*
X85870000Y-93120000D01*
X75920000Y-93120000D02*
X79870000Y-93120000D01*
X69920000Y-93120000D02*
X73870000Y-93120000D01*
X63920000Y-93120000D02*
X67870000Y-93120000D01*
X249920000Y-87120000D02*
X253870000Y-87120000D01*
X243920000Y-87120000D02*
X247870000Y-87120000D01*
X237920000Y-87120000D02*
X241870000Y-87120000D01*
X231920000Y-87120000D02*
X235870000Y-87120000D01*
X225920000Y-87120000D02*
X229870000Y-87120000D01*
X219920000Y-87120000D02*
X223870000Y-87120000D01*
X213920000Y-87120000D02*
X217870000Y-87120000D01*
X207920000Y-87120000D02*
X211870000Y-87120000D01*
X201920000Y-87120000D02*
X205870000Y-87120000D01*
X195920000Y-87120000D02*
X199870000Y-87120000D01*
X189920000Y-87120000D02*
X193870000Y-87120000D01*
X183920000Y-87120000D02*
X187870000Y-87120000D01*
X177920000Y-87120000D02*
X181870000Y-87120000D01*
X171920000Y-87120000D02*
X175870000Y-87120000D01*
X165920000Y-87120000D02*
X169870000Y-87120000D01*
X159920000Y-87120000D02*
X163870000Y-87120000D01*
X153920000Y-87120000D02*
X157870000Y-87120000D01*
X147920000Y-87120000D02*
X151870000Y-87120000D01*
X141920000Y-87120000D02*
X145870000Y-87120000D01*
X135920000Y-87120000D02*
X139870000Y-87120000D01*
X129920000Y-87120000D02*
X133870000Y-87120000D01*
X123920000Y-87120000D02*
X127870000Y-87120000D01*
X117920000Y-87120000D02*
X121870000Y-87120000D01*
X111920000Y-87120000D02*
X115870000Y-87120000D01*
X105920000Y-87120000D02*
X109870000Y-87120000D01*
X99920000Y-87120000D02*
X103870000Y-87120000D01*
X93920000Y-87120000D02*
X97870000Y-87120000D01*
X87920000Y-87120000D02*
X91870000Y-87120000D01*
X81920000Y-87120000D02*
X85870000Y-87120000D01*
X75920000Y-87120000D02*
X79870000Y-87120000D01*
X69920000Y-87120000D02*
X73870000Y-87120000D01*
X63920000Y-87120000D02*
X67870000Y-87120000D01*
X249920000Y-81120000D02*
X253870000Y-81120000D01*
X243920000Y-81120000D02*
X247870000Y-81120000D01*
X237920000Y-81120000D02*
X241870000Y-81120000D01*
X231920000Y-81120000D02*
X235870000Y-81120000D01*
X225920000Y-81120000D02*
X229870000Y-81120000D01*
X219920000Y-81120000D02*
X223870000Y-81120000D01*
X213920000Y-81120000D02*
X217870000Y-81120000D01*
X207920000Y-81120000D02*
X211870000Y-81120000D01*
X201920000Y-81120000D02*
X205870000Y-81120000D01*
X195920000Y-81120000D02*
X199870000Y-81120000D01*
X189920000Y-81120000D02*
X193870000Y-81120000D01*
X183920000Y-81120000D02*
X187870000Y-81120000D01*
X177920000Y-81120000D02*
X181870000Y-81120000D01*
X171920000Y-81120000D02*
X175870000Y-81120000D01*
X165920000Y-81120000D02*
X169870000Y-81120000D01*
X159920000Y-81120000D02*
X163870000Y-81120000D01*
X153920000Y-81120000D02*
X157870000Y-81120000D01*
X147920000Y-81120000D02*
X151870000Y-81120000D01*
X141920000Y-81120000D02*
X145870000Y-81120000D01*
X135920000Y-81120000D02*
X139870000Y-81120000D01*
X129920000Y-81120000D02*
X133870000Y-81120000D01*
X123920000Y-81120000D02*
X127870000Y-81120000D01*
X117920000Y-81120000D02*
X121870000Y-81120000D01*
X111920000Y-81120000D02*
X115870000Y-81120000D01*
X105920000Y-81120000D02*
X109870000Y-81120000D01*
X99920000Y-81120000D02*
X103870000Y-81120000D01*
X93920000Y-81120000D02*
X97870000Y-81120000D01*
X87920000Y-81120000D02*
X91870000Y-81120000D01*
X81920000Y-81120000D02*
X85870000Y-81120000D01*
X75920000Y-81120000D02*
X79870000Y-81120000D01*
X69920000Y-81120000D02*
X73870000Y-81120000D01*
X63920000Y-81120000D02*
X67870000Y-81120000D01*
X249920000Y-75120000D02*
X253870000Y-75120000D01*
X243920000Y-75120000D02*
X247870000Y-75120000D01*
X237920000Y-75120000D02*
X241870000Y-75120000D01*
X231920000Y-75120000D02*
X235870000Y-75120000D01*
X225920000Y-75120000D02*
X229870000Y-75120000D01*
X219920000Y-75120000D02*
X223870000Y-75120000D01*
X213920000Y-75120000D02*
X217870000Y-75120000D01*
X207920000Y-75120000D02*
X211870000Y-75120000D01*
X201920000Y-75120000D02*
X205870000Y-75120000D01*
X195920000Y-75120000D02*
X199870000Y-75120000D01*
X189920000Y-75120000D02*
X193870000Y-75120000D01*
X183920000Y-75120000D02*
X187870000Y-75120000D01*
X177920000Y-75120000D02*
X181870000Y-75120000D01*
X171920000Y-75120000D02*
X175870000Y-75120000D01*
X165920000Y-75120000D02*
X169870000Y-75120000D01*
X159920000Y-75120000D02*
X163870000Y-75120000D01*
X153920000Y-75120000D02*
X157870000Y-75120000D01*
X147920000Y-75120000D02*
X151870000Y-75120000D01*
X141920000Y-75120000D02*
X145870000Y-75120000D01*
X135920000Y-75120000D02*
X139870000Y-75120000D01*
X129920000Y-75120000D02*
X133870000Y-75120000D01*
X123920000Y-75120000D02*
X127870000Y-75120000D01*
X117920000Y-75120000D02*
X121870000Y-75120000D01*
X111920000Y-75120000D02*
X115870000Y-75120000D01*
X105920000Y-75120000D02*
X109870000Y-75120000D01*
X99920000Y-75120000D02*
X103870000Y-75120000D01*
X93920000Y-75120000D02*
X97870000Y-75120000D01*
X87920000Y-75120000D02*
X91870000Y-75120000D01*
X81920000Y-75120000D02*
X85870000Y-75120000D01*
X75920000Y-75120000D02*
X79870000Y-75120000D01*
X69920000Y-75120000D02*
X73870000Y-75120000D01*
X63920000Y-75120000D02*
X67870000Y-75120000D01*
X249920000Y-69120000D02*
X253870000Y-69120000D01*
X243920000Y-69120000D02*
X247870000Y-69120000D01*
X237920000Y-69120000D02*
X241870000Y-69120000D01*
X231920000Y-69120000D02*
X235870000Y-69120000D01*
X225920000Y-69120000D02*
X229870000Y-69120000D01*
X219920000Y-69120000D02*
X223870000Y-69120000D01*
X213920000Y-69120000D02*
X217870000Y-69120000D01*
X207920000Y-69120000D02*
X211870000Y-69120000D01*
X201920000Y-69120000D02*
X205870000Y-69120000D01*
X195920000Y-69120000D02*
X199870000Y-69120000D01*
X189920000Y-69120000D02*
X193870000Y-69120000D01*
X183920000Y-69120000D02*
X187870000Y-69120000D01*
X177920000Y-69120000D02*
X181870000Y-69120000D01*
X171920000Y-69120000D02*
X175870000Y-69120000D01*
X165920000Y-69120000D02*
X169870000Y-69120000D01*
X159920000Y-69120000D02*
X163870000Y-69120000D01*
X153920000Y-69120000D02*
X157870000Y-69120000D01*
X147920000Y-69120000D02*
X151870000Y-69120000D01*
X141920000Y-69120000D02*
X145870000Y-69120000D01*
X135920000Y-69120000D02*
X139870000Y-69120000D01*
X129920000Y-69120000D02*
X133870000Y-69120000D01*
X123920000Y-69120000D02*
X127870000Y-69120000D01*
X117920000Y-69120000D02*
X121870000Y-69120000D01*
X111920000Y-69120000D02*
X115870000Y-69120000D01*
X105920000Y-69120000D02*
X109870000Y-69120000D01*
X99920000Y-69120000D02*
X103870000Y-69120000D01*
X93920000Y-69120000D02*
X97870000Y-69120000D01*
X87920000Y-69120000D02*
X91870000Y-69120000D01*
X81920000Y-69120000D02*
X85870000Y-69120000D01*
X75920000Y-69120000D02*
X79870000Y-69120000D01*
X69920000Y-69120000D02*
X73870000Y-69120000D01*
X63920000Y-69120000D02*
X67870000Y-69120000D01*
X249920000Y-63120000D02*
X253870000Y-63120000D01*
X243920000Y-63120000D02*
X247870000Y-63120000D01*
X237920000Y-63120000D02*
X241870000Y-63120000D01*
X231920000Y-63120000D02*
X235870000Y-63120000D01*
X225920000Y-63120000D02*
X229870000Y-63120000D01*
X219920000Y-63120000D02*
X223870000Y-63120000D01*
X213920000Y-63120000D02*
X217870000Y-63120000D01*
X207920000Y-63120000D02*
X211870000Y-63120000D01*
X201920000Y-63120000D02*
X205870000Y-63120000D01*
X195920000Y-63120000D02*
X199870000Y-63120000D01*
X189920000Y-63120000D02*
X193870000Y-63120000D01*
X183920000Y-63120000D02*
X187870000Y-63120000D01*
X177920000Y-63120000D02*
X181870000Y-63120000D01*
X171920000Y-63120000D02*
X175870000Y-63120000D01*
X165920000Y-63120000D02*
X169870000Y-63120000D01*
X159920000Y-63120000D02*
X163870000Y-63120000D01*
X153920000Y-63120000D02*
X157870000Y-63120000D01*
X147920000Y-63120000D02*
X151870000Y-63120000D01*
X141920000Y-63120000D02*
X145870000Y-63120000D01*
X135920000Y-63120000D02*
X139870000Y-63120000D01*
X129920000Y-63120000D02*
X133870000Y-63120000D01*
X123920000Y-63120000D02*
X127870000Y-63120000D01*
X117920000Y-63120000D02*
X121870000Y-63120000D01*
X111920000Y-63120000D02*
X115870000Y-63120000D01*
X105920000Y-63120000D02*
X109870000Y-63120000D01*
X99920000Y-63120000D02*
X103870000Y-63120000D01*
X93920000Y-63120000D02*
X97870000Y-63120000D01*
X87920000Y-63120000D02*
X91870000Y-63120000D01*
X81920000Y-63120000D02*
X85870000Y-63120000D01*
X75920000Y-63120000D02*
X79870000Y-63120000D01*
X69920000Y-63120000D02*
X73870000Y-63120000D01*
X63920000Y-63120000D02*
X67870000Y-63120000D01*
X249920000Y-57120000D02*
X253870000Y-57120000D01*
X243920000Y-57120000D02*
X247870000Y-57120000D01*
X237920000Y-57120000D02*
X241870000Y-57120000D01*
X231920000Y-57120000D02*
X235870000Y-57120000D01*
X225920000Y-57120000D02*
X229870000Y-57120000D01*
X219920000Y-57120000D02*
X223870000Y-57120000D01*
X213920000Y-57120000D02*
X217870000Y-57120000D01*
X207920000Y-57120000D02*
X211870000Y-57120000D01*
X201920000Y-57120000D02*
X205870000Y-57120000D01*
X195920000Y-57120000D02*
X199870000Y-57120000D01*
X189920000Y-57120000D02*
X193870000Y-57120000D01*
X183920000Y-57120000D02*
X187870000Y-57120000D01*
X177920000Y-57120000D02*
X181870000Y-57120000D01*
X171920000Y-57120000D02*
X175870000Y-57120000D01*
X165920000Y-57120000D02*
X169870000Y-57120000D01*
X159920000Y-57120000D02*
X163870000Y-57120000D01*
X153920000Y-57120000D02*
X157870000Y-57120000D01*
X147920000Y-57120000D02*
X151870000Y-57120000D01*
X141920000Y-57120000D02*
X145870000Y-57120000D01*
X135920000Y-57120000D02*
X139870000Y-57120000D01*
X129920000Y-57120000D02*
X133870000Y-57120000D01*
X123920000Y-57120000D02*
X127870000Y-57120000D01*
X117920000Y-57120000D02*
X121870000Y-57120000D01*
X111920000Y-57120000D02*
X115870000Y-57120000D01*
X105920000Y-57120000D02*
X109870000Y-57120000D01*
X99920000Y-57120000D02*
X103870000Y-57120000D01*
X93920000Y-57120000D02*
X97870000Y-57120000D01*
X87920000Y-57120000D02*
X91870000Y-57120000D01*
X81920000Y-57120000D02*
X85870000Y-57120000D01*
X75920000Y-57120000D02*
X79870000Y-57120000D01*
X69920000Y-57120000D02*
X73870000Y-57120000D01*
X63920000Y-57120000D02*
X67870000Y-57120000D01*
X67870000Y-57120000D02*
X67880000Y-57130000D01*
X251920000Y-103590000D02*
X251920000Y-108730000D01*
X248940000Y-111710000D02*
X251920000Y-108730000D01*
X245920000Y-103590000D02*
X245920000Y-108980000D01*
X243344000Y-111456000D02*
X245600000Y-109200000D01*
X245700000Y-109200000D02*
X245600000Y-109200000D01*
X245920000Y-108980000D02*
X245700000Y-109200000D01*
X239920000Y-103590000D02*
X239920000Y-108955000D01*
X237673000Y-111202000D02*
X239920000Y-108955000D01*
X233920000Y-103590000D02*
X233920000Y-109205000D01*
X232177000Y-110948000D02*
X233920000Y-109205000D01*
X227920000Y-103590000D02*
X227920000Y-109605000D01*
X226831000Y-110694000D02*
X227920000Y-109605000D01*
X220185000Y-110440000D02*
X221920000Y-108705000D01*
X221920000Y-103590000D02*
X221920000Y-108705000D01*
X215920000Y-103590000D02*
X215920000Y-108155000D01*
X213889000Y-110186000D02*
X215920000Y-108155000D01*
X209920000Y-103590000D02*
X209920000Y-107855000D01*
X207843000Y-109932000D02*
X209920000Y-107855000D01*
X203920000Y-103590000D02*
X203920000Y-105900000D01*
X204570000Y-107180000D02*
X202072000Y-109678000D01*
X57497000Y-105986470D02*
X57497000Y-84865420D01*
X203920000Y-105900000D02*
X204570000Y-106550000D01*
X202072000Y-109678000D02*
X61188530Y-109678000D01*
X204570000Y-106550000D02*
X204570000Y-107180000D01*
X61188530Y-109678000D02*
X57497000Y-105986470D01*
X57497000Y-84865420D02*
X56756580Y-84125000D01*
X56756580Y-84125000D02*
X49225000Y-84125000D01*
X197920000Y-103590000D02*
X198330000Y-104000000D01*
X198330000Y-104000000D02*
X198330000Y-107720000D01*
X198330000Y-107720000D02*
X196626000Y-109424000D01*
X196626000Y-109424000D02*
X61293740Y-109424000D01*
X57751000Y-84760210D02*
X56615790Y-83625000D01*
X61293740Y-109424000D02*
X57751000Y-105881260D01*
X57751000Y-105881260D02*
X57751000Y-84760210D01*
X56615790Y-83625000D02*
X52125000Y-83625000D01*
X191920000Y-103590000D02*
X192125000Y-103795000D01*
X192125000Y-103795000D02*
X192125000Y-107750000D01*
X185920000Y-103590000D02*
X186050000Y-103720000D01*
X186050000Y-103720000D02*
X186050000Y-107800000D01*
X179920000Y-103590000D02*
X180110000Y-103780000D01*
X61609370Y-108662000D02*
X58513000Y-105565630D01*
X180110000Y-103780000D02*
X180110000Y-106840000D01*
X180110000Y-106840000D02*
X178288000Y-108662000D01*
X178288000Y-108662000D02*
X61609370Y-108662000D01*
X58513000Y-105565630D02*
X58513000Y-83165630D01*
X58513000Y-83165630D02*
X57472370Y-82125000D01*
X57472370Y-82125000D02*
X49225000Y-82125000D01*
X173920000Y-103590000D02*
X174790000Y-104460000D01*
X174790000Y-104460000D02*
X174790000Y-106835000D01*
X58767000Y-105460420D02*
X58767000Y-83060420D01*
X174790000Y-106835000D02*
X173217000Y-108408000D01*
X173217000Y-108408000D02*
X61714580Y-108408000D01*
X61714580Y-108408000D02*
X58767000Y-105460420D01*
X58767000Y-83060420D02*
X57331580Y-81625000D01*
X57331580Y-81625000D02*
X52125000Y-81625000D01*
X167920000Y-103590000D02*
X167920000Y-106970000D01*
X167920000Y-106970000D02*
X168170000Y-107220000D01*
X168170000Y-107530000D02*
X167546000Y-108154000D01*
X168170000Y-107220000D02*
X168170000Y-107530000D01*
X59021000Y-105355210D02*
X59021000Y-82955210D01*
X57190790Y-81125000D02*
X49225000Y-81125000D01*
X167546000Y-108154000D02*
X61819790Y-108154000D01*
X61819790Y-108154000D02*
X59021000Y-105355210D01*
X59021000Y-82955210D02*
X57190790Y-81125000D01*
X161920000Y-103590000D02*
X161920000Y-107195000D01*
X161920000Y-107195000D02*
X162050000Y-107325000D01*
X65910000Y-55620000D02*
X66350000Y-55180000D01*
X66350000Y-55180000D02*
X66350000Y-53075000D01*
X66350000Y-53075000D02*
X65975000Y-52700000D01*
X71910000Y-55620000D02*
X71910000Y-52835000D01*
X71910000Y-52835000D02*
X71500000Y-52425000D01*
X71500000Y-52425000D02*
X61465790Y-52425000D01*
X61465790Y-52425000D02*
X59621000Y-54269790D01*
X59621000Y-54269790D02*
X59621000Y-62079000D01*
X59621000Y-62079000D02*
X50725000Y-70975000D01*
X50725000Y-70975000D02*
X50725000Y-71625000D01*
X50725000Y-71625000D02*
X49225000Y-73125000D01*
X77910000Y-55620000D02*
X78000000Y-55530000D01*
X78000000Y-55530000D02*
X78000000Y-52425000D01*
X83910000Y-55620000D02*
X83910000Y-52065000D01*
X83910000Y-52065000D02*
X83975000Y-52000000D01*
X89910000Y-55620000D02*
X90075000Y-55455000D01*
X90075000Y-55455000D02*
X90075000Y-52175000D01*
X95910000Y-55620000D02*
X96080000Y-55450000D01*
X58605000Y-61658160D02*
X52450160Y-67813000D01*
X50009370Y-67813000D02*
X46800000Y-71022370D01*
X48440790Y-75125000D02*
X49225000Y-75125000D01*
X96080000Y-55450000D02*
X96080000Y-52255000D01*
X96080000Y-52255000D02*
X95234000Y-51409000D01*
X95234000Y-51409000D02*
X61044950Y-51409000D01*
X58605000Y-53848950D02*
X58605000Y-61658160D01*
X61044950Y-51409000D02*
X58605000Y-53848950D01*
X52450160Y-67813000D02*
X50009370Y-67813000D01*
X46800000Y-71022370D02*
X46800000Y-73484210D01*
X46800000Y-73484210D02*
X48440790Y-75125000D01*
X101910000Y-55620000D02*
X102050000Y-55480000D01*
X102050000Y-55480000D02*
X102050000Y-52125000D01*
X107910000Y-55620000D02*
X107910000Y-51590000D01*
X107910000Y-51590000D02*
X108000000Y-51500000D01*
X113910000Y-55620000D02*
X113910000Y-51715000D01*
X113910000Y-51715000D02*
X114025000Y-51600000D01*
X119910000Y-55620000D02*
X119910000Y-51365000D01*
X119910000Y-51365000D02*
X120025000Y-51250000D01*
X125910000Y-55620000D02*
X125910000Y-51715000D01*
X125910000Y-51715000D02*
X125975000Y-51650000D01*
X131910000Y-55620000D02*
X132075000Y-55455000D01*
X132075000Y-55455000D02*
X132075000Y-51675000D01*
X137910000Y-55620000D02*
X137950000Y-55580000D01*
X137950000Y-55580000D02*
X137950000Y-50375000D01*
X143910000Y-55620000D02*
X144025000Y-55505000D01*
X144025000Y-55505000D02*
X144025000Y-50950000D01*
X149910000Y-55620000D02*
X149910000Y-51140000D01*
X149910000Y-51140000D02*
X150050000Y-51000000D01*
X155910000Y-55620000D02*
X155910000Y-51290000D01*
X155910000Y-51290000D02*
X156075000Y-51125000D01*
X263500000Y-58775000D02*
X259675000Y-58775000D01*
X266075000Y-76750000D02*
X267025000Y-75800000D01*
X267025000Y-62300000D02*
X263500000Y-58775000D01*
X265775000Y-76750000D02*
X266075000Y-76750000D01*
X267025000Y-75800000D02*
X267025000Y-62300000D01*
X265775000Y-77750000D02*
X261850000Y-77750000D01*
X261325000Y-71600000D02*
X260700000Y-70975000D01*
X261850000Y-77750000D02*
X261325000Y-77225000D01*
X261325000Y-77225000D02*
X261325000Y-71600000D01*
X260700000Y-70975000D02*
X259950000Y-70975000D01*
X262875000Y-78250000D02*
X260450000Y-78250000D01*
X260450000Y-78250000D02*
X259050000Y-76850000D01*
X259050000Y-76850000D02*
X258900000Y-76850000D01*
X263602000Y-80250000D02*
X264325000Y-80973000D01*
X264325000Y-96650000D02*
X260200000Y-100775000D01*
X262875000Y-80250000D02*
X263602000Y-80250000D01*
X264325000Y-80973000D02*
X264325000Y-96650000D01*
X59875000Y-65175000D02*
X59875000Y-54375000D01*
X61550000Y-52700000D02*
X65975000Y-52700000D01*
X59875000Y-54375000D02*
X61550000Y-52700000D01*
X52425000Y-72625000D02*
X59875000Y-65175000D01*
X52125000Y-72625000D02*
X52425000Y-72625000D01*
X52765790Y-68575000D02*
X59367000Y-61973790D01*
X59367000Y-61973790D02*
X59367000Y-54164580D01*
X48100000Y-73625000D02*
X47700000Y-73225000D01*
X59367000Y-54164580D02*
X61360580Y-52171000D01*
X77746000Y-52171000D02*
X78000000Y-52425000D01*
X52125000Y-73625000D02*
X48100000Y-73625000D01*
X50325000Y-68575000D02*
X52765790Y-68575000D01*
X47700000Y-73225000D02*
X47700000Y-71200000D01*
X47700000Y-71200000D02*
X50325000Y-68575000D01*
X61360580Y-52171000D02*
X77746000Y-52171000D01*
X52660580Y-68321000D02*
X59113000Y-61868580D01*
X59113000Y-54059370D02*
X61255370Y-51917000D01*
X61255370Y-51917000D02*
X83892000Y-51917000D01*
X59113000Y-61868580D02*
X59113000Y-54059370D01*
X48200000Y-74125000D02*
X47446000Y-73371000D01*
X83892000Y-51917000D02*
X83975000Y-52000000D01*
X50219790Y-68321000D02*
X52660580Y-68321000D01*
X47446000Y-73371000D02*
X47446000Y-71094790D01*
X47446000Y-71094790D02*
X50219790Y-68321000D01*
X49225000Y-74125000D02*
X48200000Y-74125000D01*
X47192000Y-70989580D02*
X50114580Y-68067000D01*
X52555370Y-68067000D02*
X58859000Y-61763370D01*
X48300000Y-74625000D02*
X47192000Y-73517000D01*
X61150160Y-51663000D02*
X89563000Y-51663000D01*
X58859000Y-61763370D02*
X58859000Y-53954160D01*
X52125000Y-74625000D02*
X48300000Y-74625000D01*
X89563000Y-51663000D02*
X90075000Y-52175000D01*
X58859000Y-53954160D02*
X61150160Y-51663000D01*
X47192000Y-73517000D02*
X47192000Y-70989580D01*
X50114580Y-68067000D02*
X52555370Y-68067000D01*
X58351000Y-53743740D02*
X60939740Y-51155000D01*
X46546000Y-70917160D02*
X49904160Y-67559000D01*
X58351000Y-61552950D02*
X58351000Y-53743740D01*
X49904160Y-67559000D02*
X52344950Y-67559000D01*
X101080000Y-51155000D02*
X102050000Y-52125000D01*
X52344950Y-67559000D02*
X58351000Y-61552950D01*
X46546000Y-73727000D02*
X46546000Y-70917160D01*
X52125000Y-75625000D02*
X48444000Y-75625000D01*
X48444000Y-75625000D02*
X46546000Y-73727000D01*
X60939740Y-51155000D02*
X101080000Y-51155000D01*
X52239740Y-67305000D02*
X58097000Y-61447740D01*
X49225000Y-76125000D02*
X48584790Y-76125000D01*
X48584790Y-76125000D02*
X46292000Y-73832210D01*
X107401000Y-50901000D02*
X108000000Y-51500000D01*
X46292000Y-70811950D02*
X49798950Y-67305000D01*
X60834530Y-50901000D02*
X107401000Y-50901000D01*
X58097000Y-53638530D02*
X60834530Y-50901000D01*
X58097000Y-61447740D02*
X58097000Y-53638530D01*
X49798950Y-67305000D02*
X52239740Y-67305000D01*
X46292000Y-73832210D02*
X46292000Y-70811950D01*
X52125000Y-76625000D02*
X48444000Y-76625000D01*
X57843000Y-53533320D02*
X60729320Y-50647000D01*
X48444000Y-76625000D02*
X46038000Y-74219000D01*
X46038000Y-74219000D02*
X46038000Y-70706740D01*
X46038000Y-70706740D02*
X49693740Y-67051000D01*
X60729320Y-50647000D02*
X113072000Y-50647000D01*
X52134530Y-67051000D02*
X57843000Y-61342530D01*
X57843000Y-61342530D02*
X57843000Y-53533320D01*
X113072000Y-50647000D02*
X114025000Y-51600000D01*
X49693740Y-67051000D02*
X52134530Y-67051000D01*
X119168000Y-50393000D02*
X120025000Y-51250000D01*
X48584790Y-77125000D02*
X45784000Y-74324210D01*
X57589000Y-61237320D02*
X57589000Y-53428110D01*
X49588530Y-66797000D02*
X52029320Y-66797000D01*
X45784000Y-74324210D02*
X45784000Y-70601530D01*
X52029320Y-66797000D02*
X57589000Y-61237320D01*
X45784000Y-70601530D02*
X49588530Y-66797000D01*
X49225000Y-77125000D02*
X48584790Y-77125000D01*
X60624110Y-50393000D02*
X119168000Y-50393000D01*
X57589000Y-53428110D02*
X60624110Y-50393000D01*
X57335000Y-53322900D02*
X60518900Y-50139000D01*
X45530000Y-70496320D02*
X49483320Y-66543000D01*
X60518900Y-50139000D02*
X124464000Y-50139000D01*
X124464000Y-50139000D02*
X125975000Y-51650000D01*
X51924110Y-66543000D02*
X57335000Y-61132110D01*
X49483320Y-66543000D02*
X51924110Y-66543000D01*
X48444000Y-77625000D02*
X45530000Y-74711000D01*
X52125000Y-77625000D02*
X48444000Y-77625000D01*
X57335000Y-61132110D02*
X57335000Y-53322900D01*
X45530000Y-74711000D02*
X45530000Y-70496320D01*
X130285000Y-49885000D02*
X132075000Y-51675000D01*
X51818900Y-66289000D02*
X57081000Y-61026900D01*
X57081000Y-61026900D02*
X57081000Y-53217690D01*
X45276000Y-74816210D02*
X45276000Y-70391110D01*
X48584790Y-78125000D02*
X45276000Y-74816210D01*
X60413690Y-49885000D02*
X130285000Y-49885000D01*
X49225000Y-78125000D02*
X48584790Y-78125000D01*
X49378110Y-66289000D02*
X51818900Y-66289000D01*
X57081000Y-53217690D02*
X60413690Y-49885000D01*
X45276000Y-70391110D02*
X49378110Y-66289000D01*
X48444000Y-78625000D02*
X45022000Y-75203000D01*
X49272900Y-66035000D02*
X51713690Y-66035000D01*
X52125000Y-78625000D02*
X48444000Y-78625000D01*
X137206000Y-49631000D02*
X137950000Y-50375000D01*
X51713690Y-66035000D02*
X56827000Y-60921690D01*
X45022000Y-75203000D02*
X45022000Y-70285900D01*
X60308480Y-49631000D02*
X137206000Y-49631000D01*
X56827000Y-60921690D02*
X56827000Y-53112480D01*
X56827000Y-53112480D02*
X60308480Y-49631000D01*
X45022000Y-70285900D02*
X49272900Y-66035000D01*
X44768000Y-75308210D02*
X44768000Y-70180690D01*
X56573000Y-53007270D02*
X60203270Y-49377000D01*
X48584790Y-79125000D02*
X44768000Y-75308210D01*
X60203270Y-49377000D02*
X142452000Y-49377000D01*
X44768000Y-70180690D02*
X49167690Y-65781000D01*
X142452000Y-49377000D02*
X144025000Y-50950000D01*
X51608480Y-65781000D02*
X56573000Y-60816480D01*
X49225000Y-79125000D02*
X48584790Y-79125000D01*
X56573000Y-60816480D02*
X56573000Y-53007270D01*
X49167690Y-65781000D02*
X51608480Y-65781000D01*
X48444000Y-79625000D02*
X44514000Y-75695000D01*
X51503270Y-65527000D02*
X56319000Y-60711270D01*
X44514000Y-70075480D02*
X49062480Y-65527000D01*
X49062480Y-65527000D02*
X51503270Y-65527000D01*
X56319000Y-60711270D02*
X56319000Y-52902060D01*
X60098060Y-49123000D02*
X148173000Y-49123000D01*
X56319000Y-52902060D02*
X60098060Y-49123000D01*
X44514000Y-75695000D02*
X44514000Y-70075480D01*
X52125000Y-79625000D02*
X48444000Y-79625000D01*
X148173000Y-49123000D02*
X150050000Y-51000000D01*
X153819000Y-48869000D02*
X156075000Y-51125000D01*
X44260000Y-75887000D02*
X44260000Y-69970270D01*
X49225000Y-80125000D02*
X48498000Y-80125000D01*
X48957270Y-65273000D02*
X51398060Y-65273000D01*
X48498000Y-80125000D02*
X44260000Y-75887000D01*
X56065000Y-60606060D02*
X56065000Y-52796850D01*
X44260000Y-69970270D02*
X48957270Y-65273000D01*
X59992850Y-48869000D02*
X153819000Y-48869000D01*
X56065000Y-52796850D02*
X59992850Y-48869000D01*
X51398060Y-65273000D02*
X56065000Y-60606060D01*
X59275000Y-105250000D02*
X61925000Y-107900000D01*
X61925000Y-107900000D02*
X161475000Y-107900000D01*
X59275000Y-82850000D02*
X59275000Y-105250000D01*
X57050000Y-80625000D02*
X59275000Y-82850000D01*
X52125000Y-80625000D02*
X57050000Y-80625000D01*
X161475000Y-107900000D02*
X162050000Y-107325000D01*
X58259000Y-83270840D02*
X58259000Y-105670840D01*
X57613160Y-82625000D02*
X58259000Y-83270840D01*
X184934000Y-108916000D02*
X186050000Y-107800000D01*
X61504160Y-108916000D02*
X184934000Y-108916000D01*
X58259000Y-105670840D02*
X61504160Y-108916000D01*
X52125000Y-82625000D02*
X57613160Y-82625000D01*
X58005000Y-84655000D02*
X58005000Y-105776050D01*
X190705000Y-109170000D02*
X192125000Y-107750000D01*
X56475000Y-83125000D02*
X58005000Y-84655000D01*
X61398950Y-109170000D02*
X190705000Y-109170000D01*
X58005000Y-105776050D02*
X61398950Y-109170000D01*
X49225000Y-83125000D02*
X56475000Y-83125000D01*
X57243000Y-84970630D02*
X57243000Y-106091680D01*
X61083320Y-109932000D02*
X207843000Y-109932000D01*
X52125000Y-84625000D02*
X56897370Y-84625000D01*
X57243000Y-106091680D02*
X61083320Y-109932000D01*
X56897370Y-84625000D02*
X57243000Y-84970630D01*
X49225000Y-85125000D02*
X55975000Y-85125000D01*
X56989000Y-86139000D02*
X56989000Y-106196890D01*
X56989000Y-106196890D02*
X60978110Y-110186000D01*
X55975000Y-85125000D02*
X56989000Y-86139000D01*
X60978110Y-110186000D02*
X213889000Y-110186000D01*
X56735000Y-106302100D02*
X60872900Y-110440000D01*
X60872900Y-110440000D02*
X220185000Y-110440000D01*
X56115790Y-85625000D02*
X56735000Y-86244210D01*
X52125000Y-85625000D02*
X56115790Y-85625000D01*
X56735000Y-86244210D02*
X56735000Y-106302100D01*
X56256580Y-86125000D02*
X56481000Y-86349420D01*
X60767690Y-110694000D02*
X226831000Y-110694000D01*
X49225000Y-86125000D02*
X56256580Y-86125000D01*
X56481000Y-106407310D02*
X60767690Y-110694000D01*
X56481000Y-86349420D02*
X56481000Y-106407310D01*
X54700000Y-86625000D02*
X56227000Y-88152000D01*
X56227000Y-106512520D02*
X60662480Y-110948000D01*
X52125000Y-86625000D02*
X54700000Y-86625000D01*
X56227000Y-88152000D02*
X56227000Y-106512520D01*
X60662480Y-110948000D02*
X232177000Y-110948000D01*
X55973000Y-106617730D02*
X60557270Y-111202000D01*
X54840790Y-87125000D02*
X55973000Y-88257210D01*
X55973000Y-88257210D02*
X55973000Y-106617730D01*
X49225000Y-87125000D02*
X54840790Y-87125000D01*
X60557270Y-111202000D02*
X237673000Y-111202000D01*
X55719000Y-88362420D02*
X55719000Y-106722940D01*
X60452060Y-111456000D02*
X243344000Y-111456000D01*
X54981580Y-87625000D02*
X55719000Y-88362420D01*
X55719000Y-106722940D02*
X60452060Y-111456000D01*
X52125000Y-87625000D02*
X54981580Y-87625000D01*
X60346850Y-111710000D02*
X248940000Y-111710000D01*
X49225000Y-88125000D02*
X53600000Y-88125000D01*
X53600000Y-88125000D02*
X55465000Y-89990000D01*
X55465000Y-106828150D02*
X60346850Y-111710000D01*
X55465000Y-89990000D02*
X55465000Y-106828150D01*
M02*
