M48
; DRILL file {KiCad 6.0.8+dfsg-1~bpo11+1} date Fri 24 Mar 2023 06:57:14 PM EDT
; FORMAT={-:-/ absolute / metric / decimal}
; #@! TF.CreationDate,2023-03-24T18:57:14-04:00
; #@! TF.GenerationSoftware,Kicad,Pcbnew,6.0.8+dfsg-1~bpo11+1
; #@! TF.FileFunction,Plated,1,2,PTH
FMAT,2
METRIC
; #@! TA.AperFunction,Plated,PTH,ViaDrill
T1C0.200
%
G90
G05
T1
X66.075Y-58.275
X66.075Y-64.275
X66.075Y-70.275
X66.075Y-76.275
X66.075Y-82.275
X66.075Y-88.275
X66.075Y-94.275
X66.075Y-100.275
X66.075Y-101.9
X72.075Y-58.275
X72.075Y-64.275
X72.075Y-70.275
X72.075Y-76.275
X72.075Y-82.275
X72.075Y-88.275
X72.075Y-94.275
X72.075Y-100.275
X72.075Y-101.9
X78.075Y-58.275
X78.075Y-64.275
X78.075Y-70.275
X78.075Y-76.275
X78.075Y-82.275
X78.075Y-88.275
X78.075Y-94.275
X78.075Y-100.275
X78.075Y-101.9
X84.075Y-58.275
X84.075Y-64.275
X84.075Y-70.275
X84.075Y-76.275
X84.075Y-82.275
X84.075Y-88.275
X84.075Y-94.275
X84.075Y-100.275
X84.075Y-101.9
X90.075Y-58.275
X90.075Y-64.275
X90.075Y-70.275
X90.075Y-76.275
X90.075Y-82.275
X90.075Y-88.275
X90.075Y-94.275
X90.075Y-100.275
X90.075Y-101.9
X96.075Y-58.275
X96.075Y-64.275
X96.075Y-70.275
X96.075Y-76.275
X96.075Y-82.275
X96.075Y-88.275
X96.075Y-94.275
X96.075Y-100.275
X96.075Y-101.9
X102.075Y-58.275
X102.075Y-64.275
X102.075Y-70.275
X102.075Y-76.275
X102.075Y-82.275
X102.075Y-88.275
X102.075Y-94.275
X102.075Y-100.275
X102.075Y-101.9
X108.075Y-58.275
X108.075Y-64.275
X108.075Y-70.275
X108.075Y-76.275
X108.075Y-82.275
X108.075Y-88.275
X108.075Y-94.275
X108.075Y-100.275
X108.075Y-101.9
X114.075Y-58.275
X114.075Y-64.275
X114.075Y-70.275
X114.075Y-76.275
X114.075Y-82.275
X114.075Y-88.275
X114.075Y-94.275
X114.075Y-100.275
X114.075Y-101.9
X120.075Y-58.275
X120.075Y-64.275
X120.075Y-70.275
X120.075Y-76.275
X120.075Y-82.275
X120.075Y-88.275
X120.075Y-94.275
X120.075Y-100.275
X120.075Y-101.9
X126.075Y-58.275
X126.075Y-64.275
X126.075Y-70.275
X126.075Y-76.275
X126.075Y-82.275
X126.075Y-88.275
X126.075Y-94.275
X126.075Y-100.275
X126.075Y-101.9
X132.075Y-58.275
X132.075Y-64.275
X132.075Y-70.275
X132.075Y-76.275
X132.075Y-82.275
X132.075Y-88.275
X132.075Y-94.275
X132.075Y-100.275
X132.075Y-101.9
X138.075Y-58.275
X138.075Y-64.275
X138.075Y-70.275
X138.075Y-76.275
X138.075Y-82.275
X138.075Y-88.275
X138.075Y-94.275
X138.075Y-100.275
X138.075Y-101.9
X144.075Y-58.275
X144.075Y-64.275
X144.075Y-70.275
X144.075Y-76.275
X144.075Y-82.275
X144.075Y-88.275
X144.075Y-94.275
X144.075Y-100.275
X144.075Y-101.9
X150.075Y-58.275
X150.075Y-64.275
X150.075Y-70.275
X150.075Y-76.275
X150.075Y-82.275
X150.075Y-88.275
X150.075Y-94.275
X150.075Y-100.275
X150.075Y-101.9
X156.075Y-58.275
X156.075Y-64.275
X156.075Y-70.275
X156.075Y-76.275
X156.075Y-82.275
X156.075Y-88.275
X156.075Y-94.275
X156.075Y-100.275
X156.075Y-101.9
X162.075Y-58.275
X162.075Y-64.275
X162.075Y-70.275
X162.075Y-76.275
X162.075Y-82.275
X162.075Y-88.275
X162.075Y-94.275
X162.075Y-100.275
X162.075Y-101.9
X168.075Y-58.275
X168.075Y-64.275
X168.075Y-70.275
X168.075Y-76.275
X168.075Y-82.275
X168.075Y-88.275
X168.075Y-94.275
X168.075Y-100.275
X168.075Y-101.9
X174.075Y-58.275
X174.075Y-64.275
X174.075Y-70.275
X174.075Y-76.275
X174.075Y-82.275
X174.075Y-88.275
X174.075Y-94.275
X174.075Y-100.275
X174.075Y-101.9
X180.075Y-58.275
X180.075Y-64.275
X180.075Y-70.275
X180.075Y-76.275
X180.075Y-82.275
X180.075Y-88.275
X180.075Y-94.275
X180.075Y-100.275
X180.075Y-101.9
X186.075Y-58.275
X186.075Y-64.275
X186.075Y-70.275
X186.075Y-76.275
X186.075Y-82.275
X186.075Y-88.275
X186.075Y-94.275
X186.075Y-100.275
X186.075Y-101.9
X192.075Y-58.275
X192.075Y-64.275
X192.075Y-70.275
X192.075Y-76.275
X192.075Y-82.275
X192.075Y-88.275
X192.075Y-94.275
X192.075Y-100.275
X192.075Y-101.9
X198.075Y-58.275
X198.075Y-64.275
X198.075Y-70.275
X198.075Y-76.275
X198.075Y-82.275
X198.075Y-88.275
X198.075Y-94.275
X198.075Y-100.275
X198.075Y-101.9
X204.075Y-58.275
X204.075Y-64.275
X204.075Y-70.275
X204.075Y-76.275
X204.075Y-82.275
X204.075Y-88.275
X204.075Y-94.275
X204.075Y-100.275
X204.075Y-101.9
X210.075Y-58.275
X210.075Y-64.275
X210.075Y-70.275
X210.075Y-76.275
X210.075Y-82.275
X210.075Y-88.275
X210.075Y-94.275
X210.075Y-100.275
X210.075Y-101.9
X216.075Y-58.275
X216.075Y-64.275
X216.075Y-70.275
X216.075Y-76.275
X216.075Y-82.275
X216.075Y-88.275
X216.075Y-94.275
X216.075Y-100.275
X216.075Y-101.9
X222.075Y-58.275
X222.075Y-64.275
X222.075Y-70.275
X222.075Y-76.275
X222.075Y-82.275
X222.075Y-88.275
X222.075Y-94.275
X222.075Y-100.275
X222.075Y-101.9
X228.075Y-58.275
X228.075Y-64.275
X228.075Y-70.275
X228.075Y-76.275
X228.075Y-82.275
X228.075Y-88.275
X228.075Y-94.275
X228.075Y-100.275
X228.075Y-101.9
X234.075Y-58.275
X234.075Y-64.275
X234.075Y-70.275
X234.075Y-76.275
X234.075Y-82.275
X234.075Y-88.275
X234.075Y-94.275
X234.075Y-100.275
X234.075Y-101.9
X240.075Y-58.275
X240.075Y-64.275
X240.075Y-70.275
X240.075Y-76.275
X240.075Y-82.275
X240.075Y-88.275
X240.075Y-94.275
X240.075Y-100.275
X240.075Y-101.9
X246.075Y-58.275
X246.075Y-64.275
X246.075Y-70.275
X246.075Y-76.275
X246.075Y-82.275
X246.075Y-88.275
X246.075Y-94.275
X246.075Y-100.275
X246.075Y-101.9
X252.075Y-58.275
X252.075Y-64.275
X252.075Y-70.275
X252.075Y-76.275
X252.075Y-82.275
X252.075Y-88.275
X252.075Y-94.275
X252.075Y-100.275
X252.075Y-101.9
X255.075Y-59.075
X255.075Y-65.075
X255.075Y-71.075
X255.075Y-77.075
X255.075Y-83.075
X255.075Y-89.075
X255.075Y-95.075
X255.075Y-101.075
T0
M30
