G04 #@! TF.GenerationSoftware,KiCad,Pcbnew,6.0.8+dfsg-1~bpo11+1*
G04 #@! TF.CreationDate,2023-03-24T18:55:58-04:00*
G04 #@! TF.ProjectId,captouch_sensor_diamond_alt_fill,63617074-6f75-4636-985f-73656e736f72,rev?*
G04 #@! TF.SameCoordinates,Original*
G04 #@! TF.FileFunction,Soldermask,Top*
G04 #@! TF.FilePolarity,Negative*
%FSLAX46Y46*%
G04 Gerber Fmt 4.6, Leading zero omitted, Abs format (unit mm)*
G04 Created by KiCad (PCBNEW 6.0.8+dfsg-1~bpo11+1) date 2023-03-24 18:55:58*
%MOMM*%
%LPD*%
G01*
G04 APERTURE LIST*
G04 APERTURE END LIST*
G36*
X93250000Y-74025000D02*
G01*
X98750000Y-74025000D01*
X98750000Y-79525000D01*
X93250000Y-79525000D01*
X93250000Y-74025000D01*
G37*
G36*
X141250000Y-80025000D02*
G01*
X146750000Y-80025000D01*
X146750000Y-85525000D01*
X141250000Y-85525000D01*
X141250000Y-80025000D01*
G37*
G36*
X87250000Y-56025000D02*
G01*
X92750000Y-56025000D01*
X92750000Y-61525000D01*
X87250000Y-61525000D01*
X87250000Y-56025000D01*
G37*
G36*
X117250000Y-92025000D02*
G01*
X122750000Y-92025000D01*
X122750000Y-97525000D01*
X117250000Y-97525000D01*
X117250000Y-92025000D01*
G37*
G36*
X135250000Y-68025000D02*
G01*
X140750000Y-68025000D01*
X140750000Y-73525000D01*
X135250000Y-73525000D01*
X135250000Y-68025000D01*
G37*
G36*
X75250000Y-56025000D02*
G01*
X80750000Y-56025000D01*
X80750000Y-61525000D01*
X75250000Y-61525000D01*
X75250000Y-56025000D01*
G37*
G36*
X231250000Y-80025000D02*
G01*
X236750000Y-80025000D01*
X236750000Y-85525000D01*
X231250000Y-85525000D01*
X231250000Y-80025000D01*
G37*
G36*
X207250000Y-68025000D02*
G01*
X212750000Y-68025000D01*
X212750000Y-73525000D01*
X207250000Y-73525000D01*
X207250000Y-68025000D01*
G37*
G36*
X201250000Y-56025000D02*
G01*
X206750000Y-56025000D01*
X206750000Y-61525000D01*
X201250000Y-61525000D01*
X201250000Y-56025000D01*
G37*
G36*
X207250000Y-92025000D02*
G01*
X212750000Y-92025000D01*
X212750000Y-97525000D01*
X207250000Y-97525000D01*
X207250000Y-92025000D01*
G37*
G36*
X117250000Y-80025000D02*
G01*
X122750000Y-80025000D01*
X122750000Y-85525000D01*
X117250000Y-85525000D01*
X117250000Y-80025000D01*
G37*
G36*
X69250000Y-98025000D02*
G01*
X74750000Y-98025000D01*
X74750000Y-103525000D01*
X69250000Y-103525000D01*
X69250000Y-98025000D01*
G37*
G36*
X171250000Y-86025000D02*
G01*
X176750000Y-86025000D01*
X176750000Y-91525000D01*
X171250000Y-91525000D01*
X171250000Y-86025000D01*
G37*
G36*
X237250000Y-56025000D02*
G01*
X242750000Y-56025000D01*
X242750000Y-61525000D01*
X237250000Y-61525000D01*
X237250000Y-56025000D01*
G37*
G36*
X63250000Y-86025000D02*
G01*
X68750000Y-86025000D01*
X68750000Y-91525000D01*
X63250000Y-91525000D01*
X63250000Y-86025000D01*
G37*
G36*
X231250000Y-92025000D02*
G01*
X236750000Y-92025000D01*
X236750000Y-97525000D01*
X231250000Y-97525000D01*
X231250000Y-92025000D01*
G37*
G36*
X153250000Y-92025000D02*
G01*
X158750000Y-92025000D01*
X158750000Y-97525000D01*
X153250000Y-97525000D01*
X153250000Y-92025000D01*
G37*
G36*
X63250000Y-98025000D02*
G01*
X68750000Y-98025000D01*
X68750000Y-103525000D01*
X63250000Y-103525000D01*
X63250000Y-98025000D01*
G37*
G36*
X219250000Y-56025000D02*
G01*
X224750000Y-56025000D01*
X224750000Y-61525000D01*
X219250000Y-61525000D01*
X219250000Y-56025000D01*
G37*
G36*
X147250000Y-98025000D02*
G01*
X152750000Y-98025000D01*
X152750000Y-103525000D01*
X147250000Y-103525000D01*
X147250000Y-98025000D01*
G37*
G36*
X189250000Y-62025000D02*
G01*
X194750000Y-62025000D01*
X194750000Y-67525000D01*
X189250000Y-67525000D01*
X189250000Y-62025000D01*
G37*
G36*
X213250000Y-74025000D02*
G01*
X218750000Y-74025000D01*
X218750000Y-79525000D01*
X213250000Y-79525000D01*
X213250000Y-74025000D01*
G37*
G36*
X207250000Y-86025000D02*
G01*
X212750000Y-86025000D01*
X212750000Y-91525000D01*
X207250000Y-91525000D01*
X207250000Y-86025000D01*
G37*
G36*
X81250000Y-80025000D02*
G01*
X86750000Y-80025000D01*
X86750000Y-85525000D01*
X81250000Y-85525000D01*
X81250000Y-80025000D01*
G37*
G36*
X249250000Y-56025000D02*
G01*
X254750000Y-56025000D01*
X254750000Y-61525000D01*
X249250000Y-61525000D01*
X249250000Y-56025000D01*
G37*
G36*
X153250000Y-74025000D02*
G01*
X158750000Y-74025000D01*
X158750000Y-79525000D01*
X153250000Y-79525000D01*
X153250000Y-74025000D01*
G37*
G36*
X195250000Y-80025000D02*
G01*
X200750000Y-80025000D01*
X200750000Y-85525000D01*
X195250000Y-85525000D01*
X195250000Y-80025000D01*
G37*
G36*
X135250000Y-92025000D02*
G01*
X140750000Y-92025000D01*
X140750000Y-97525000D01*
X135250000Y-97525000D01*
X135250000Y-92025000D01*
G37*
G36*
X69250000Y-92025000D02*
G01*
X74750000Y-92025000D01*
X74750000Y-97525000D01*
X69250000Y-97525000D01*
X69250000Y-92025000D01*
G37*
G36*
X81250000Y-92025000D02*
G01*
X86750000Y-92025000D01*
X86750000Y-97525000D01*
X81250000Y-97525000D01*
X81250000Y-92025000D01*
G37*
G36*
X165250000Y-86025000D02*
G01*
X170750000Y-86025000D01*
X170750000Y-91525000D01*
X165250000Y-91525000D01*
X165250000Y-86025000D01*
G37*
G36*
X141250000Y-74025000D02*
G01*
X146750000Y-74025000D01*
X146750000Y-79525000D01*
X141250000Y-79525000D01*
X141250000Y-74025000D01*
G37*
G36*
X153250000Y-98025000D02*
G01*
X158750000Y-98025000D01*
X158750000Y-103525000D01*
X153250000Y-103525000D01*
X153250000Y-98025000D01*
G37*
G36*
X105250000Y-74025000D02*
G01*
X110750000Y-74025000D01*
X110750000Y-79525000D01*
X105250000Y-79525000D01*
X105250000Y-74025000D01*
G37*
G36*
X249250000Y-68025000D02*
G01*
X254750000Y-68025000D01*
X254750000Y-73525000D01*
X249250000Y-73525000D01*
X249250000Y-68025000D01*
G37*
G36*
X243250000Y-68025000D02*
G01*
X248750000Y-68025000D01*
X248750000Y-73525000D01*
X243250000Y-73525000D01*
X243250000Y-68025000D01*
G37*
G36*
X177250000Y-98025000D02*
G01*
X182750000Y-98025000D01*
X182750000Y-103525000D01*
X177250000Y-103525000D01*
X177250000Y-98025000D01*
G37*
G36*
X123250000Y-80025000D02*
G01*
X128750000Y-80025000D01*
X128750000Y-85525000D01*
X123250000Y-85525000D01*
X123250000Y-80025000D01*
G37*
G36*
X117250000Y-86025000D02*
G01*
X122750000Y-86025000D01*
X122750000Y-91525000D01*
X117250000Y-91525000D01*
X117250000Y-86025000D01*
G37*
G36*
X243250000Y-80025000D02*
G01*
X248750000Y-80025000D01*
X248750000Y-85525000D01*
X243250000Y-85525000D01*
X243250000Y-80025000D01*
G37*
G36*
X153250000Y-62025000D02*
G01*
X158750000Y-62025000D01*
X158750000Y-67525000D01*
X153250000Y-67525000D01*
X153250000Y-62025000D01*
G37*
G36*
X123250000Y-98025000D02*
G01*
X128750000Y-98025000D01*
X128750000Y-103525000D01*
X123250000Y-103525000D01*
X123250000Y-98025000D01*
G37*
G36*
X87250000Y-74025000D02*
G01*
X92750000Y-74025000D01*
X92750000Y-79525000D01*
X87250000Y-79525000D01*
X87250000Y-74025000D01*
G37*
G36*
X237250000Y-80025000D02*
G01*
X242750000Y-80025000D01*
X242750000Y-85525000D01*
X237250000Y-85525000D01*
X237250000Y-80025000D01*
G37*
G36*
X171250000Y-62025000D02*
G01*
X176750000Y-62025000D01*
X176750000Y-67525000D01*
X171250000Y-67525000D01*
X171250000Y-62025000D01*
G37*
G36*
X231250000Y-74025000D02*
G01*
X236750000Y-74025000D01*
X236750000Y-79525000D01*
X231250000Y-79525000D01*
X231250000Y-74025000D01*
G37*
G36*
X99250000Y-98025000D02*
G01*
X104750000Y-98025000D01*
X104750000Y-103525000D01*
X99250000Y-103525000D01*
X99250000Y-98025000D01*
G37*
G36*
X225250000Y-62025000D02*
G01*
X230750000Y-62025000D01*
X230750000Y-67525000D01*
X225250000Y-67525000D01*
X225250000Y-62025000D01*
G37*
G36*
X237250000Y-62025000D02*
G01*
X242750000Y-62025000D01*
X242750000Y-67525000D01*
X237250000Y-67525000D01*
X237250000Y-62025000D01*
G37*
G36*
X117250000Y-74025000D02*
G01*
X122750000Y-74025000D01*
X122750000Y-79525000D01*
X117250000Y-79525000D01*
X117250000Y-74025000D01*
G37*
G36*
X105250000Y-62025000D02*
G01*
X110750000Y-62025000D01*
X110750000Y-67525000D01*
X105250000Y-67525000D01*
X105250000Y-62025000D01*
G37*
G36*
X171250000Y-68025000D02*
G01*
X176750000Y-68025000D01*
X176750000Y-73525000D01*
X171250000Y-73525000D01*
X171250000Y-68025000D01*
G37*
G36*
X111250000Y-68025000D02*
G01*
X116750000Y-68025000D01*
X116750000Y-73525000D01*
X111250000Y-73525000D01*
X111250000Y-68025000D01*
G37*
G36*
X213250000Y-80025000D02*
G01*
X218750000Y-80025000D01*
X218750000Y-85525000D01*
X213250000Y-85525000D01*
X213250000Y-80025000D01*
G37*
G36*
X177250000Y-62025000D02*
G01*
X182750000Y-62025000D01*
X182750000Y-67525000D01*
X177250000Y-67525000D01*
X177250000Y-62025000D01*
G37*
G36*
X87250000Y-68025000D02*
G01*
X92750000Y-68025000D01*
X92750000Y-73525000D01*
X87250000Y-73525000D01*
X87250000Y-68025000D01*
G37*
G36*
X189250000Y-98025000D02*
G01*
X194750000Y-98025000D01*
X194750000Y-103525000D01*
X189250000Y-103525000D01*
X189250000Y-98025000D01*
G37*
G36*
X177250000Y-56025000D02*
G01*
X182750000Y-56025000D01*
X182750000Y-61525000D01*
X177250000Y-61525000D01*
X177250000Y-56025000D01*
G37*
G36*
X189250000Y-74025000D02*
G01*
X194750000Y-74025000D01*
X194750000Y-79525000D01*
X189250000Y-79525000D01*
X189250000Y-74025000D01*
G37*
G36*
X237250000Y-98025000D02*
G01*
X242750000Y-98025000D01*
X242750000Y-103525000D01*
X237250000Y-103525000D01*
X237250000Y-98025000D01*
G37*
G36*
X249250000Y-62025000D02*
G01*
X254750000Y-62025000D01*
X254750000Y-67525000D01*
X249250000Y-67525000D01*
X249250000Y-62025000D01*
G37*
G36*
X159250000Y-68025000D02*
G01*
X164750000Y-68025000D01*
X164750000Y-73525000D01*
X159250000Y-73525000D01*
X159250000Y-68025000D01*
G37*
G36*
X87250000Y-62025000D02*
G01*
X92750000Y-62025000D01*
X92750000Y-67525000D01*
X87250000Y-67525000D01*
X87250000Y-62025000D01*
G37*
G36*
X195250000Y-92025000D02*
G01*
X200750000Y-92025000D01*
X200750000Y-97525000D01*
X195250000Y-97525000D01*
X195250000Y-92025000D01*
G37*
G36*
X135250000Y-56025000D02*
G01*
X140750000Y-56025000D01*
X140750000Y-61525000D01*
X135250000Y-61525000D01*
X135250000Y-56025000D01*
G37*
G36*
X141250000Y-68025000D02*
G01*
X146750000Y-68025000D01*
X146750000Y-73525000D01*
X141250000Y-73525000D01*
X141250000Y-68025000D01*
G37*
G36*
X75250000Y-62025000D02*
G01*
X80750000Y-62025000D01*
X80750000Y-67525000D01*
X75250000Y-67525000D01*
X75250000Y-62025000D01*
G37*
G36*
X195250000Y-56025000D02*
G01*
X200750000Y-56025000D01*
X200750000Y-61525000D01*
X195250000Y-61525000D01*
X195250000Y-56025000D01*
G37*
G36*
X129250000Y-56025000D02*
G01*
X134750000Y-56025000D01*
X134750000Y-61525000D01*
X129250000Y-61525000D01*
X129250000Y-56025000D01*
G37*
G36*
X159250000Y-62025000D02*
G01*
X164750000Y-62025000D01*
X164750000Y-67525000D01*
X159250000Y-67525000D01*
X159250000Y-62025000D01*
G37*
G36*
X135250000Y-74025000D02*
G01*
X140750000Y-74025000D01*
X140750000Y-79525000D01*
X135250000Y-79525000D01*
X135250000Y-74025000D01*
G37*
G36*
X93250000Y-56025000D02*
G01*
X98750000Y-56025000D01*
X98750000Y-61525000D01*
X93250000Y-61525000D01*
X93250000Y-56025000D01*
G37*
G36*
X99250000Y-86025000D02*
G01*
X104750000Y-86025000D01*
X104750000Y-91525000D01*
X99250000Y-91525000D01*
X99250000Y-86025000D01*
G37*
G36*
X87250000Y-98025000D02*
G01*
X92750000Y-98025000D01*
X92750000Y-103525000D01*
X87250000Y-103525000D01*
X87250000Y-98025000D01*
G37*
G36*
X63250000Y-80025000D02*
G01*
X68750000Y-80025000D01*
X68750000Y-85525000D01*
X63250000Y-85525000D01*
X63250000Y-80025000D01*
G37*
G36*
X63250000Y-74025000D02*
G01*
X68750000Y-74025000D01*
X68750000Y-79525000D01*
X63250000Y-79525000D01*
X63250000Y-74025000D01*
G37*
G36*
X117250000Y-98025000D02*
G01*
X122750000Y-98025000D01*
X122750000Y-103525000D01*
X117250000Y-103525000D01*
X117250000Y-98025000D01*
G37*
G36*
X93250000Y-86025000D02*
G01*
X98750000Y-86025000D01*
X98750000Y-91525000D01*
X93250000Y-91525000D01*
X93250000Y-86025000D01*
G37*
G36*
X87250000Y-80025000D02*
G01*
X92750000Y-80025000D01*
X92750000Y-85525000D01*
X87250000Y-85525000D01*
X87250000Y-80025000D01*
G37*
G36*
X195250000Y-68025000D02*
G01*
X200750000Y-68025000D01*
X200750000Y-73525000D01*
X195250000Y-73525000D01*
X195250000Y-68025000D01*
G37*
G36*
X111250000Y-62025000D02*
G01*
X116750000Y-62025000D01*
X116750000Y-67525000D01*
X111250000Y-67525000D01*
X111250000Y-62025000D01*
G37*
G36*
X141250000Y-98025000D02*
G01*
X146750000Y-98025000D01*
X146750000Y-103525000D01*
X141250000Y-103525000D01*
X141250000Y-98025000D01*
G37*
G36*
X171250000Y-98025000D02*
G01*
X176750000Y-98025000D01*
X176750000Y-103525000D01*
X171250000Y-103525000D01*
X171250000Y-98025000D01*
G37*
G36*
X87250000Y-86025000D02*
G01*
X92750000Y-86025000D01*
X92750000Y-91525000D01*
X87250000Y-91525000D01*
X87250000Y-86025000D01*
G37*
G36*
X159250000Y-92025000D02*
G01*
X164750000Y-92025000D01*
X164750000Y-97525000D01*
X159250000Y-97525000D01*
X159250000Y-92025000D01*
G37*
G36*
X75250000Y-68025000D02*
G01*
X80750000Y-68025000D01*
X80750000Y-73525000D01*
X75250000Y-73525000D01*
X75250000Y-68025000D01*
G37*
G36*
X111250000Y-80025000D02*
G01*
X116750000Y-80025000D01*
X116750000Y-85525000D01*
X111250000Y-85525000D01*
X111250000Y-80025000D01*
G37*
G36*
X123250000Y-62025000D02*
G01*
X128750000Y-62025000D01*
X128750000Y-67525000D01*
X123250000Y-67525000D01*
X123250000Y-62025000D01*
G37*
G36*
X147250000Y-68025000D02*
G01*
X152750000Y-68025000D01*
X152750000Y-73525000D01*
X147250000Y-73525000D01*
X147250000Y-68025000D01*
G37*
G36*
X147250000Y-56025000D02*
G01*
X152750000Y-56025000D01*
X152750000Y-61525000D01*
X147250000Y-61525000D01*
X147250000Y-56025000D01*
G37*
G36*
X231250000Y-86025000D02*
G01*
X236750000Y-86025000D01*
X236750000Y-91525000D01*
X231250000Y-91525000D01*
X231250000Y-86025000D01*
G37*
G36*
X171250000Y-56025000D02*
G01*
X176750000Y-56025000D01*
X176750000Y-61525000D01*
X171250000Y-61525000D01*
X171250000Y-56025000D01*
G37*
G36*
X81250000Y-74025000D02*
G01*
X86750000Y-74025000D01*
X86750000Y-79525000D01*
X81250000Y-79525000D01*
X81250000Y-74025000D01*
G37*
G36*
X183250000Y-92025000D02*
G01*
X188750000Y-92025000D01*
X188750000Y-97525000D01*
X183250000Y-97525000D01*
X183250000Y-92025000D01*
G37*
G36*
X99250000Y-56025000D02*
G01*
X104750000Y-56025000D01*
X104750000Y-61525000D01*
X99250000Y-61525000D01*
X99250000Y-56025000D01*
G37*
G36*
X63250000Y-62025000D02*
G01*
X68750000Y-62025000D01*
X68750000Y-67525000D01*
X63250000Y-67525000D01*
X63250000Y-62025000D01*
G37*
G36*
X207250000Y-98025000D02*
G01*
X212750000Y-98025000D01*
X212750000Y-103525000D01*
X207250000Y-103525000D01*
X207250000Y-98025000D01*
G37*
G36*
X219250000Y-86025000D02*
G01*
X224750000Y-86025000D01*
X224750000Y-91525000D01*
X219250000Y-91525000D01*
X219250000Y-86025000D01*
G37*
G36*
X159250000Y-80025000D02*
G01*
X164750000Y-80025000D01*
X164750000Y-85525000D01*
X159250000Y-85525000D01*
X159250000Y-80025000D01*
G37*
G36*
X159250000Y-86025000D02*
G01*
X164750000Y-86025000D01*
X164750000Y-91525000D01*
X159250000Y-91525000D01*
X159250000Y-86025000D01*
G37*
G36*
X231250000Y-62025000D02*
G01*
X236750000Y-62025000D01*
X236750000Y-67525000D01*
X231250000Y-67525000D01*
X231250000Y-62025000D01*
G37*
G36*
X165250000Y-92025000D02*
G01*
X170750000Y-92025000D01*
X170750000Y-97525000D01*
X165250000Y-97525000D01*
X165250000Y-92025000D01*
G37*
G36*
X69250000Y-80025000D02*
G01*
X74750000Y-80025000D01*
X74750000Y-85525000D01*
X69250000Y-85525000D01*
X69250000Y-80025000D01*
G37*
G36*
X249250000Y-86025000D02*
G01*
X254750000Y-86025000D01*
X254750000Y-91525000D01*
X249250000Y-91525000D01*
X249250000Y-86025000D01*
G37*
G36*
X147250000Y-62025000D02*
G01*
X152750000Y-62025000D01*
X152750000Y-67525000D01*
X147250000Y-67525000D01*
X147250000Y-62025000D01*
G37*
G36*
X219250000Y-98025000D02*
G01*
X224750000Y-98025000D01*
X224750000Y-103525000D01*
X219250000Y-103525000D01*
X219250000Y-98025000D01*
G37*
G36*
X93250000Y-92025000D02*
G01*
X98750000Y-92025000D01*
X98750000Y-97525000D01*
X93250000Y-97525000D01*
X93250000Y-92025000D01*
G37*
G36*
X201250000Y-62025000D02*
G01*
X206750000Y-62025000D01*
X206750000Y-67525000D01*
X201250000Y-67525000D01*
X201250000Y-62025000D01*
G37*
G36*
X75250000Y-92025000D02*
G01*
X80750000Y-92025000D01*
X80750000Y-97525000D01*
X75250000Y-97525000D01*
X75250000Y-92025000D01*
G37*
G36*
X129250000Y-98025000D02*
G01*
X134750000Y-98025000D01*
X134750000Y-103525000D01*
X129250000Y-103525000D01*
X129250000Y-98025000D01*
G37*
G36*
X207250000Y-56025000D02*
G01*
X212750000Y-56025000D01*
X212750000Y-61525000D01*
X207250000Y-61525000D01*
X207250000Y-56025000D01*
G37*
G36*
X195250000Y-62025000D02*
G01*
X200750000Y-62025000D01*
X200750000Y-67525000D01*
X195250000Y-67525000D01*
X195250000Y-62025000D01*
G37*
G36*
X189250000Y-92025000D02*
G01*
X194750000Y-92025000D01*
X194750000Y-97525000D01*
X189250000Y-97525000D01*
X189250000Y-92025000D01*
G37*
G36*
X225250000Y-80025000D02*
G01*
X230750000Y-80025000D01*
X230750000Y-85525000D01*
X225250000Y-85525000D01*
X225250000Y-80025000D01*
G37*
G36*
X111250000Y-92025000D02*
G01*
X116750000Y-92025000D01*
X116750000Y-97525000D01*
X111250000Y-97525000D01*
X111250000Y-92025000D01*
G37*
G36*
X135250000Y-86025000D02*
G01*
X140750000Y-86025000D01*
X140750000Y-91525000D01*
X135250000Y-91525000D01*
X135250000Y-86025000D01*
G37*
G36*
X111250000Y-56025000D02*
G01*
X116750000Y-56025000D01*
X116750000Y-61525000D01*
X111250000Y-61525000D01*
X111250000Y-56025000D01*
G37*
G36*
X159250000Y-74025000D02*
G01*
X164750000Y-74025000D01*
X164750000Y-79525000D01*
X159250000Y-79525000D01*
X159250000Y-74025000D01*
G37*
G36*
X147250000Y-74025000D02*
G01*
X152750000Y-74025000D01*
X152750000Y-79525000D01*
X147250000Y-79525000D01*
X147250000Y-74025000D01*
G37*
G36*
X105250000Y-92025000D02*
G01*
X110750000Y-92025000D01*
X110750000Y-97525000D01*
X105250000Y-97525000D01*
X105250000Y-92025000D01*
G37*
G36*
X105250000Y-80025000D02*
G01*
X110750000Y-80025000D01*
X110750000Y-85525000D01*
X105250000Y-85525000D01*
X105250000Y-80025000D01*
G37*
G36*
X81250000Y-56025000D02*
G01*
X86750000Y-56025000D01*
X86750000Y-61525000D01*
X81250000Y-61525000D01*
X81250000Y-56025000D01*
G37*
G36*
X153250000Y-86025000D02*
G01*
X158750000Y-86025000D01*
X158750000Y-91525000D01*
X153250000Y-91525000D01*
X153250000Y-86025000D01*
G37*
G36*
X123250000Y-68025000D02*
G01*
X128750000Y-68025000D01*
X128750000Y-73525000D01*
X123250000Y-73525000D01*
X123250000Y-68025000D01*
G37*
G36*
X153250000Y-56025000D02*
G01*
X158750000Y-56025000D01*
X158750000Y-61525000D01*
X153250000Y-61525000D01*
X153250000Y-56025000D01*
G37*
G36*
X99250000Y-74025000D02*
G01*
X104750000Y-74025000D01*
X104750000Y-79525000D01*
X99250000Y-79525000D01*
X99250000Y-74025000D01*
G37*
G36*
X141250000Y-56025000D02*
G01*
X146750000Y-56025000D01*
X146750000Y-61525000D01*
X141250000Y-61525000D01*
X141250000Y-56025000D01*
G37*
G36*
X93250000Y-98025000D02*
G01*
X98750000Y-98025000D01*
X98750000Y-103525000D01*
X93250000Y-103525000D01*
X93250000Y-98025000D01*
G37*
G36*
X213250000Y-92025000D02*
G01*
X218750000Y-92025000D01*
X218750000Y-97525000D01*
X213250000Y-97525000D01*
X213250000Y-92025000D01*
G37*
G36*
X147250000Y-80025000D02*
G01*
X152750000Y-80025000D01*
X152750000Y-85525000D01*
X147250000Y-85525000D01*
X147250000Y-80025000D01*
G37*
G36*
X105250000Y-68025000D02*
G01*
X110750000Y-68025000D01*
X110750000Y-73525000D01*
X105250000Y-73525000D01*
X105250000Y-68025000D01*
G37*
G36*
X189250000Y-56025000D02*
G01*
X194750000Y-56025000D01*
X194750000Y-61525000D01*
X189250000Y-61525000D01*
X189250000Y-56025000D01*
G37*
G36*
X165250000Y-62025000D02*
G01*
X170750000Y-62025000D01*
X170750000Y-67525000D01*
X165250000Y-67525000D01*
X165250000Y-62025000D01*
G37*
G36*
X171250000Y-80025000D02*
G01*
X176750000Y-80025000D01*
X176750000Y-85525000D01*
X171250000Y-85525000D01*
X171250000Y-80025000D01*
G37*
G36*
X231250000Y-68025000D02*
G01*
X236750000Y-68025000D01*
X236750000Y-73525000D01*
X231250000Y-73525000D01*
X231250000Y-68025000D01*
G37*
G36*
X81250000Y-68025000D02*
G01*
X86750000Y-68025000D01*
X86750000Y-73525000D01*
X81250000Y-73525000D01*
X81250000Y-68025000D01*
G37*
G36*
X93250000Y-62025000D02*
G01*
X98750000Y-62025000D01*
X98750000Y-67525000D01*
X93250000Y-67525000D01*
X93250000Y-62025000D01*
G37*
G36*
X75250000Y-86025000D02*
G01*
X80750000Y-86025000D01*
X80750000Y-91525000D01*
X75250000Y-91525000D01*
X75250000Y-86025000D01*
G37*
G36*
X207250000Y-80025000D02*
G01*
X212750000Y-80025000D01*
X212750000Y-85525000D01*
X207250000Y-85525000D01*
X207250000Y-80025000D01*
G37*
G36*
X219250000Y-80025000D02*
G01*
X224750000Y-80025000D01*
X224750000Y-85525000D01*
X219250000Y-85525000D01*
X219250000Y-80025000D01*
G37*
G36*
X243250000Y-86025000D02*
G01*
X248750000Y-86025000D01*
X248750000Y-91525000D01*
X243250000Y-91525000D01*
X243250000Y-86025000D01*
G37*
G36*
X99250000Y-92025000D02*
G01*
X104750000Y-92025000D01*
X104750000Y-97525000D01*
X99250000Y-97525000D01*
X99250000Y-92025000D01*
G37*
G36*
X183250000Y-68025000D02*
G01*
X188750000Y-68025000D01*
X188750000Y-73525000D01*
X183250000Y-73525000D01*
X183250000Y-68025000D01*
G37*
G36*
X183250000Y-98025000D02*
G01*
X188750000Y-98025000D01*
X188750000Y-103525000D01*
X183250000Y-103525000D01*
X183250000Y-98025000D01*
G37*
G36*
X159250000Y-56025000D02*
G01*
X164750000Y-56025000D01*
X164750000Y-61525000D01*
X159250000Y-61525000D01*
X159250000Y-56025000D01*
G37*
G36*
X129250000Y-92025000D02*
G01*
X134750000Y-92025000D01*
X134750000Y-97525000D01*
X129250000Y-97525000D01*
X129250000Y-92025000D01*
G37*
G36*
X63250000Y-92025000D02*
G01*
X68750000Y-92025000D01*
X68750000Y-97525000D01*
X63250000Y-97525000D01*
X63250000Y-92025000D01*
G37*
G36*
X195250000Y-74025000D02*
G01*
X200750000Y-74025000D01*
X200750000Y-79525000D01*
X195250000Y-79525000D01*
X195250000Y-74025000D01*
G37*
G36*
X129250000Y-86025000D02*
G01*
X134750000Y-86025000D01*
X134750000Y-91525000D01*
X129250000Y-91525000D01*
X129250000Y-86025000D01*
G37*
G36*
X123250000Y-86025000D02*
G01*
X128750000Y-86025000D01*
X128750000Y-91525000D01*
X123250000Y-91525000D01*
X123250000Y-86025000D01*
G37*
G36*
X237250000Y-92025000D02*
G01*
X242750000Y-92025000D01*
X242750000Y-97525000D01*
X237250000Y-97525000D01*
X237250000Y-92025000D01*
G37*
G36*
X69250000Y-62025000D02*
G01*
X74750000Y-62025000D01*
X74750000Y-67525000D01*
X69250000Y-67525000D01*
X69250000Y-62025000D01*
G37*
G36*
X165250000Y-74025000D02*
G01*
X170750000Y-74025000D01*
X170750000Y-79525000D01*
X165250000Y-79525000D01*
X165250000Y-74025000D01*
G37*
G36*
X111250000Y-98025000D02*
G01*
X116750000Y-98025000D01*
X116750000Y-103525000D01*
X111250000Y-103525000D01*
X111250000Y-98025000D01*
G37*
G36*
X75250000Y-98025000D02*
G01*
X80750000Y-98025000D01*
X80750000Y-103525000D01*
X75250000Y-103525000D01*
X75250000Y-98025000D01*
G37*
G36*
X177250000Y-80025000D02*
G01*
X182750000Y-80025000D01*
X182750000Y-85525000D01*
X177250000Y-85525000D01*
X177250000Y-80025000D01*
G37*
G36*
X243250000Y-56025000D02*
G01*
X248750000Y-56025000D01*
X248750000Y-61525000D01*
X243250000Y-61525000D01*
X243250000Y-56025000D01*
G37*
G36*
X183250000Y-74025000D02*
G01*
X188750000Y-74025000D01*
X188750000Y-79525000D01*
X183250000Y-79525000D01*
X183250000Y-74025000D01*
G37*
G36*
X69250000Y-56025000D02*
G01*
X74750000Y-56025000D01*
X74750000Y-61525000D01*
X69250000Y-61525000D01*
X69250000Y-56025000D01*
G37*
G36*
X171250000Y-92025000D02*
G01*
X176750000Y-92025000D01*
X176750000Y-97525000D01*
X171250000Y-97525000D01*
X171250000Y-92025000D01*
G37*
G36*
X99250000Y-68025000D02*
G01*
X104750000Y-68025000D01*
X104750000Y-73525000D01*
X99250000Y-73525000D01*
X99250000Y-68025000D01*
G37*
G36*
X165250000Y-98025000D02*
G01*
X170750000Y-98025000D01*
X170750000Y-103525000D01*
X165250000Y-103525000D01*
X165250000Y-98025000D01*
G37*
G36*
X93250000Y-80025000D02*
G01*
X98750000Y-80025000D01*
X98750000Y-85525000D01*
X93250000Y-85525000D01*
X93250000Y-80025000D01*
G37*
G36*
X213250000Y-98025000D02*
G01*
X218750000Y-98025000D01*
X218750000Y-103525000D01*
X213250000Y-103525000D01*
X213250000Y-98025000D01*
G37*
G36*
X81250000Y-86025000D02*
G01*
X86750000Y-86025000D01*
X86750000Y-91525000D01*
X81250000Y-91525000D01*
X81250000Y-86025000D01*
G37*
G36*
X123250000Y-92025000D02*
G01*
X128750000Y-92025000D01*
X128750000Y-97525000D01*
X123250000Y-97525000D01*
X123250000Y-92025000D01*
G37*
G36*
X81250000Y-62025000D02*
G01*
X86750000Y-62025000D01*
X86750000Y-67525000D01*
X81250000Y-67525000D01*
X81250000Y-62025000D01*
G37*
G36*
X165250000Y-80025000D02*
G01*
X170750000Y-80025000D01*
X170750000Y-85525000D01*
X165250000Y-85525000D01*
X165250000Y-80025000D01*
G37*
G36*
X249250000Y-92025000D02*
G01*
X254750000Y-92025000D01*
X254750000Y-97525000D01*
X249250000Y-97525000D01*
X249250000Y-92025000D01*
G37*
G36*
X201250000Y-92025000D02*
G01*
X206750000Y-92025000D01*
X206750000Y-97525000D01*
X201250000Y-97525000D01*
X201250000Y-92025000D01*
G37*
G36*
X141250000Y-86025000D02*
G01*
X146750000Y-86025000D01*
X146750000Y-91525000D01*
X141250000Y-91525000D01*
X141250000Y-86025000D01*
G37*
G36*
X225250000Y-98025000D02*
G01*
X230750000Y-98025000D01*
X230750000Y-103525000D01*
X225250000Y-103525000D01*
X225250000Y-98025000D01*
G37*
G36*
X213250000Y-56025000D02*
G01*
X218750000Y-56025000D01*
X218750000Y-61525000D01*
X213250000Y-61525000D01*
X213250000Y-56025000D01*
G37*
G36*
X147250000Y-92025000D02*
G01*
X152750000Y-92025000D01*
X152750000Y-97525000D01*
X147250000Y-97525000D01*
X147250000Y-92025000D01*
G37*
G36*
X213250000Y-86025000D02*
G01*
X218750000Y-86025000D01*
X218750000Y-91525000D01*
X213250000Y-91525000D01*
X213250000Y-86025000D01*
G37*
G36*
X81250000Y-98025000D02*
G01*
X86750000Y-98025000D01*
X86750000Y-103525000D01*
X81250000Y-103525000D01*
X81250000Y-98025000D01*
G37*
G36*
X189250000Y-68025000D02*
G01*
X194750000Y-68025000D01*
X194750000Y-73525000D01*
X189250000Y-73525000D01*
X189250000Y-68025000D01*
G37*
G36*
X213250000Y-68025000D02*
G01*
X218750000Y-68025000D01*
X218750000Y-73525000D01*
X213250000Y-73525000D01*
X213250000Y-68025000D01*
G37*
G36*
X129250000Y-74025000D02*
G01*
X134750000Y-74025000D01*
X134750000Y-79525000D01*
X129250000Y-79525000D01*
X129250000Y-74025000D01*
G37*
G36*
X159250000Y-98025000D02*
G01*
X164750000Y-98025000D01*
X164750000Y-103525000D01*
X159250000Y-103525000D01*
X159250000Y-98025000D01*
G37*
G36*
X117250000Y-68025000D02*
G01*
X122750000Y-68025000D01*
X122750000Y-73525000D01*
X117250000Y-73525000D01*
X117250000Y-68025000D01*
G37*
G36*
X219250000Y-68025000D02*
G01*
X224750000Y-68025000D01*
X224750000Y-73525000D01*
X219250000Y-73525000D01*
X219250000Y-68025000D01*
G37*
G36*
X99250000Y-62025000D02*
G01*
X104750000Y-62025000D01*
X104750000Y-67525000D01*
X99250000Y-67525000D01*
X99250000Y-62025000D01*
G37*
G36*
X231250000Y-56025000D02*
G01*
X236750000Y-56025000D01*
X236750000Y-61525000D01*
X231250000Y-61525000D01*
X231250000Y-56025000D01*
G37*
G36*
X87250000Y-92025000D02*
G01*
X92750000Y-92025000D01*
X92750000Y-97525000D01*
X87250000Y-97525000D01*
X87250000Y-92025000D01*
G37*
G36*
X183250000Y-62025000D02*
G01*
X188750000Y-62025000D01*
X188750000Y-67525000D01*
X183250000Y-67525000D01*
X183250000Y-62025000D01*
G37*
G36*
X225250000Y-68025000D02*
G01*
X230750000Y-68025000D01*
X230750000Y-73525000D01*
X225250000Y-73525000D01*
X225250000Y-68025000D01*
G37*
G36*
X249250000Y-80025000D02*
G01*
X254750000Y-80025000D01*
X254750000Y-85525000D01*
X249250000Y-85525000D01*
X249250000Y-80025000D01*
G37*
G36*
X195250000Y-86025000D02*
G01*
X200750000Y-86025000D01*
X200750000Y-91525000D01*
X195250000Y-91525000D01*
X195250000Y-86025000D01*
G37*
G36*
X141250000Y-62025000D02*
G01*
X146750000Y-62025000D01*
X146750000Y-67525000D01*
X141250000Y-67525000D01*
X141250000Y-62025000D01*
G37*
G36*
X201250000Y-86025000D02*
G01*
X206750000Y-86025000D01*
X206750000Y-91525000D01*
X201250000Y-91525000D01*
X201250000Y-86025000D01*
G37*
G36*
X117250000Y-56025000D02*
G01*
X122750000Y-56025000D01*
X122750000Y-61525000D01*
X117250000Y-61525000D01*
X117250000Y-56025000D01*
G37*
G36*
X165250000Y-56025000D02*
G01*
X170750000Y-56025000D01*
X170750000Y-61525000D01*
X165250000Y-61525000D01*
X165250000Y-56025000D01*
G37*
G36*
X69250000Y-86025000D02*
G01*
X74750000Y-86025000D01*
X74750000Y-91525000D01*
X69250000Y-91525000D01*
X69250000Y-86025000D01*
G37*
G36*
X201250000Y-98025000D02*
G01*
X206750000Y-98025000D01*
X206750000Y-103525000D01*
X201250000Y-103525000D01*
X201250000Y-98025000D01*
G37*
G36*
X189250000Y-80025000D02*
G01*
X194750000Y-80025000D01*
X194750000Y-85525000D01*
X189250000Y-85525000D01*
X189250000Y-80025000D01*
G37*
G36*
X225250000Y-74025000D02*
G01*
X230750000Y-74025000D01*
X230750000Y-79525000D01*
X225250000Y-79525000D01*
X225250000Y-74025000D01*
G37*
G36*
X153250000Y-68025000D02*
G01*
X158750000Y-68025000D01*
X158750000Y-73525000D01*
X153250000Y-73525000D01*
X153250000Y-68025000D01*
G37*
G36*
X225250000Y-56025000D02*
G01*
X230750000Y-56025000D01*
X230750000Y-61525000D01*
X225250000Y-61525000D01*
X225250000Y-56025000D01*
G37*
G36*
X237250000Y-68025000D02*
G01*
X242750000Y-68025000D01*
X242750000Y-73525000D01*
X237250000Y-73525000D01*
X237250000Y-68025000D01*
G37*
G36*
X111250000Y-86025000D02*
G01*
X116750000Y-86025000D01*
X116750000Y-91525000D01*
X111250000Y-91525000D01*
X111250000Y-86025000D01*
G37*
G36*
X129250000Y-62025000D02*
G01*
X134750000Y-62025000D01*
X134750000Y-67525000D01*
X129250000Y-67525000D01*
X129250000Y-62025000D01*
G37*
G36*
X213250000Y-62025000D02*
G01*
X218750000Y-62025000D01*
X218750000Y-67525000D01*
X213250000Y-67525000D01*
X213250000Y-62025000D01*
G37*
G36*
X243250000Y-74025000D02*
G01*
X248750000Y-74025000D01*
X248750000Y-79525000D01*
X243250000Y-79525000D01*
X243250000Y-74025000D01*
G37*
G36*
X135250000Y-98025000D02*
G01*
X140750000Y-98025000D01*
X140750000Y-103525000D01*
X135250000Y-103525000D01*
X135250000Y-98025000D01*
G37*
G36*
X189250000Y-86025000D02*
G01*
X194750000Y-86025000D01*
X194750000Y-91525000D01*
X189250000Y-91525000D01*
X189250000Y-86025000D01*
G37*
G36*
X207250000Y-74025000D02*
G01*
X212750000Y-74025000D01*
X212750000Y-79525000D01*
X207250000Y-79525000D01*
X207250000Y-74025000D01*
G37*
G36*
X201250000Y-74025000D02*
G01*
X206750000Y-74025000D01*
X206750000Y-79525000D01*
X201250000Y-79525000D01*
X201250000Y-74025000D01*
G37*
G36*
X225250000Y-92025000D02*
G01*
X230750000Y-92025000D01*
X230750000Y-97525000D01*
X225250000Y-97525000D01*
X225250000Y-92025000D01*
G37*
G36*
X243250000Y-98025000D02*
G01*
X248750000Y-98025000D01*
X248750000Y-103525000D01*
X243250000Y-103525000D01*
X243250000Y-98025000D01*
G37*
G36*
X201250000Y-80025000D02*
G01*
X206750000Y-80025000D01*
X206750000Y-85525000D01*
X201250000Y-85525000D01*
X201250000Y-80025000D01*
G37*
G36*
X237250000Y-74025000D02*
G01*
X242750000Y-74025000D01*
X242750000Y-79525000D01*
X237250000Y-79525000D01*
X237250000Y-74025000D01*
G37*
G36*
X105250000Y-98025000D02*
G01*
X110750000Y-98025000D01*
X110750000Y-103525000D01*
X105250000Y-103525000D01*
X105250000Y-98025000D01*
G37*
G36*
X117250000Y-62025000D02*
G01*
X122750000Y-62025000D01*
X122750000Y-67525000D01*
X117250000Y-67525000D01*
X117250000Y-62025000D01*
G37*
G36*
X123250000Y-56025000D02*
G01*
X128750000Y-56025000D01*
X128750000Y-61525000D01*
X123250000Y-61525000D01*
X123250000Y-56025000D01*
G37*
G36*
X135250000Y-62025000D02*
G01*
X140750000Y-62025000D01*
X140750000Y-67525000D01*
X135250000Y-67525000D01*
X135250000Y-62025000D01*
G37*
G36*
X249250000Y-98025000D02*
G01*
X254750000Y-98025000D01*
X254750000Y-103525000D01*
X249250000Y-103525000D01*
X249250000Y-98025000D01*
G37*
G36*
X177250000Y-74025000D02*
G01*
X182750000Y-74025000D01*
X182750000Y-79525000D01*
X177250000Y-79525000D01*
X177250000Y-74025000D01*
G37*
G36*
X243250000Y-62025000D02*
G01*
X248750000Y-62025000D01*
X248750000Y-67525000D01*
X243250000Y-67525000D01*
X243250000Y-62025000D01*
G37*
G36*
X93250000Y-68025000D02*
G01*
X98750000Y-68025000D01*
X98750000Y-73525000D01*
X93250000Y-73525000D01*
X93250000Y-68025000D01*
G37*
G36*
X237250000Y-86025000D02*
G01*
X242750000Y-86025000D01*
X242750000Y-91525000D01*
X237250000Y-91525000D01*
X237250000Y-86025000D01*
G37*
G36*
X177250000Y-86025000D02*
G01*
X182750000Y-86025000D01*
X182750000Y-91525000D01*
X177250000Y-91525000D01*
X177250000Y-86025000D01*
G37*
G36*
X219250000Y-92025000D02*
G01*
X224750000Y-92025000D01*
X224750000Y-97525000D01*
X219250000Y-97525000D01*
X219250000Y-92025000D01*
G37*
G36*
X69250000Y-74025000D02*
G01*
X74750000Y-74025000D01*
X74750000Y-79525000D01*
X69250000Y-79525000D01*
X69250000Y-74025000D01*
G37*
G36*
X123250000Y-74025000D02*
G01*
X128750000Y-74025000D01*
X128750000Y-79525000D01*
X123250000Y-79525000D01*
X123250000Y-74025000D01*
G37*
G36*
X201250000Y-68025000D02*
G01*
X206750000Y-68025000D01*
X206750000Y-73525000D01*
X201250000Y-73525000D01*
X201250000Y-68025000D01*
G37*
G36*
X183250000Y-80025000D02*
G01*
X188750000Y-80025000D01*
X188750000Y-85525000D01*
X183250000Y-85525000D01*
X183250000Y-80025000D01*
G37*
G36*
X195250000Y-98025000D02*
G01*
X200750000Y-98025000D01*
X200750000Y-103525000D01*
X195250000Y-103525000D01*
X195250000Y-98025000D01*
G37*
G36*
X183250000Y-56025000D02*
G01*
X188750000Y-56025000D01*
X188750000Y-61525000D01*
X183250000Y-61525000D01*
X183250000Y-56025000D01*
G37*
G36*
X147250000Y-86025000D02*
G01*
X152750000Y-86025000D01*
X152750000Y-91525000D01*
X147250000Y-91525000D01*
X147250000Y-86025000D01*
G37*
G36*
X75250000Y-80025000D02*
G01*
X80750000Y-80025000D01*
X80750000Y-85525000D01*
X75250000Y-85525000D01*
X75250000Y-80025000D01*
G37*
G36*
X219250000Y-74025000D02*
G01*
X224750000Y-74025000D01*
X224750000Y-79525000D01*
X219250000Y-79525000D01*
X219250000Y-74025000D01*
G37*
G36*
X111250000Y-74025000D02*
G01*
X116750000Y-74025000D01*
X116750000Y-79525000D01*
X111250000Y-79525000D01*
X111250000Y-74025000D01*
G37*
G36*
X63250000Y-68025000D02*
G01*
X68750000Y-68025000D01*
X68750000Y-73525000D01*
X63250000Y-73525000D01*
X63250000Y-68025000D01*
G37*
G36*
X153250000Y-80025000D02*
G01*
X158750000Y-80025000D01*
X158750000Y-85525000D01*
X153250000Y-85525000D01*
X153250000Y-80025000D01*
G37*
G36*
X141250000Y-92025000D02*
G01*
X146750000Y-92025000D01*
X146750000Y-97525000D01*
X141250000Y-97525000D01*
X141250000Y-92025000D01*
G37*
G36*
X105250000Y-56025000D02*
G01*
X110750000Y-56025000D01*
X110750000Y-61525000D01*
X105250000Y-61525000D01*
X105250000Y-56025000D01*
G37*
G36*
X129250000Y-68025000D02*
G01*
X134750000Y-68025000D01*
X134750000Y-73525000D01*
X129250000Y-73525000D01*
X129250000Y-68025000D01*
G37*
G36*
X63250000Y-56025000D02*
G01*
X68750000Y-56025000D01*
X68750000Y-61525000D01*
X63250000Y-61525000D01*
X63250000Y-56025000D01*
G37*
G36*
X135250000Y-80025000D02*
G01*
X140750000Y-80025000D01*
X140750000Y-85525000D01*
X135250000Y-85525000D01*
X135250000Y-80025000D01*
G37*
G36*
X129250000Y-80025000D02*
G01*
X134750000Y-80025000D01*
X134750000Y-85525000D01*
X129250000Y-85525000D01*
X129250000Y-80025000D01*
G37*
G36*
X177250000Y-92025000D02*
G01*
X182750000Y-92025000D01*
X182750000Y-97525000D01*
X177250000Y-97525000D01*
X177250000Y-92025000D01*
G37*
G36*
X69250000Y-68025000D02*
G01*
X74750000Y-68025000D01*
X74750000Y-73525000D01*
X69250000Y-73525000D01*
X69250000Y-68025000D01*
G37*
G36*
X207250000Y-62025000D02*
G01*
X212750000Y-62025000D01*
X212750000Y-67525000D01*
X207250000Y-67525000D01*
X207250000Y-62025000D01*
G37*
G36*
X177250000Y-68025000D02*
G01*
X182750000Y-68025000D01*
X182750000Y-73525000D01*
X177250000Y-73525000D01*
X177250000Y-68025000D01*
G37*
G36*
X75250000Y-74025000D02*
G01*
X80750000Y-74025000D01*
X80750000Y-79525000D01*
X75250000Y-79525000D01*
X75250000Y-74025000D01*
G37*
G36*
X243250000Y-92025000D02*
G01*
X248750000Y-92025000D01*
X248750000Y-97525000D01*
X243250000Y-97525000D01*
X243250000Y-92025000D01*
G37*
G36*
X105250000Y-86025000D02*
G01*
X110750000Y-86025000D01*
X110750000Y-91525000D01*
X105250000Y-91525000D01*
X105250000Y-86025000D01*
G37*
G36*
X171250000Y-74025000D02*
G01*
X176750000Y-74025000D01*
X176750000Y-79525000D01*
X171250000Y-79525000D01*
X171250000Y-74025000D01*
G37*
G36*
X249250000Y-74025000D02*
G01*
X254750000Y-74025000D01*
X254750000Y-79525000D01*
X249250000Y-79525000D01*
X249250000Y-74025000D01*
G37*
G36*
X183250000Y-86025000D02*
G01*
X188750000Y-86025000D01*
X188750000Y-91525000D01*
X183250000Y-91525000D01*
X183250000Y-86025000D01*
G37*
G36*
X219250000Y-62025000D02*
G01*
X224750000Y-62025000D01*
X224750000Y-67525000D01*
X219250000Y-67525000D01*
X219250000Y-62025000D01*
G37*
G36*
X165250000Y-68025000D02*
G01*
X170750000Y-68025000D01*
X170750000Y-73525000D01*
X165250000Y-73525000D01*
X165250000Y-68025000D01*
G37*
G36*
X225250000Y-86025000D02*
G01*
X230750000Y-86025000D01*
X230750000Y-91525000D01*
X225250000Y-91525000D01*
X225250000Y-86025000D01*
G37*
G36*
X99250000Y-80025000D02*
G01*
X104750000Y-80025000D01*
X104750000Y-85525000D01*
X99250000Y-85525000D01*
X99250000Y-80025000D01*
G37*
G36*
X231250000Y-98025000D02*
G01*
X236750000Y-98025000D01*
X236750000Y-103525000D01*
X231250000Y-103525000D01*
X231250000Y-98025000D01*
G37*
M02*
