G04 #@! TF.GenerationSoftware,KiCad,Pcbnew,6.0.8+dfsg-1~bpo11+1*
G04 #@! TF.CreationDate,2023-03-24T18:55:57-04:00*
G04 #@! TF.ProjectId,captouch_sensor_diamond_alt_fill,63617074-6f75-4636-985f-73656e736f72,rev?*
G04 #@! TF.SameCoordinates,Original*
G04 #@! TF.FileFunction,Copper,L1,Top*
G04 #@! TF.FilePolarity,Positive*
%FSLAX46Y46*%
G04 Gerber Fmt 4.6, Leading zero omitted, Abs format (unit mm)*
G04 Created by KiCad (PCBNEW 6.0.8+dfsg-1~bpo11+1) date 2023-03-24 18:55:57*
%MOMM*%
%LPD*%
G01*
G04 APERTURE LIST*
G04 Aperture macros list*
%AMFreePoly0*
4,1,1473,192.095671,0.230970,192.176777,0.176777,192.230970,0.095671,192.250001,0.000000,192.250001,-4.500000,192.230970,-4.595671,192.176777,-4.676777,192.095671,-4.730970,192.000000,-4.750001,191.904329,-4.730970,191.823221,-4.676774,190.521446,-3.375000,191.228554,-3.375000,191.437500,-3.583946,191.750000,-3.271446,191.750000,-2.853554,191.228554,-3.375000,190.521446,-3.375000,189.958946,-2.812500,190.666054,-2.812500,
190.875000,-3.021446,191.750000,-2.146446,191.750000,-1.728553,190.666054,-2.812500,189.958946,-2.812500,189.573223,-2.426777,189.538627,-2.375000,188.461373,-2.375000,188.426774,-2.426779,186.176777,-4.676777,186.095671,-4.730970,186.000000,-4.750001,185.904329,-4.730970,185.823221,-4.676774,185.083946,-3.937500,185.791054,-3.937500,186.000000,-4.146446,187.896447,-2.250000,190.103554,-2.250000,190.312500,-2.458946,
191.750000,-1.021447,191.750000,-0.603553,190.103554,-2.250000,187.896447,-2.250000,187.687500,-2.041053,185.791054,-3.937500,185.083946,-3.937500,184.521446,-3.375000,185.228554,-3.375000,185.437500,-3.583946,187.333947,-1.687500,187.125000,-1.478553,185.228554,-3.375000,184.521446,-3.375000,183.958946,-2.812500,184.666054,-2.812500,184.875000,-3.021446,186.771447,-1.125000,186.562500,-0.916053,184.666054,-2.812500,
183.958946,-2.812500,183.573223,-2.426777,183.538627,-2.375000,182.461373,-2.375000,182.426774,-2.426779,180.176777,-4.676777,180.095671,-4.730970,180.000000,-4.750001,179.904329,-4.730970,179.823221,-4.676774,179.083946,-3.937500,179.791054,-3.937500,180.000000,-4.146446,181.896447,-2.250000,184.103554,-2.250000,184.312500,-2.458946,186.208947,-0.562500,186.000000,-0.353554,184.103554,-2.250000,181.896447,-2.250000,
181.687500,-2.041053,179.791054,-3.937500,179.083946,-3.937500,178.521446,-3.375000,179.228554,-3.375000,179.437500,-3.583946,181.333947,-1.687500,181.125000,-1.478553,179.228554,-3.375000,178.521446,-3.375000,177.958946,-2.812500,178.666054,-2.812500,178.875000,-3.021446,180.771447,-1.125000,180.562500,-0.916053,178.666054,-2.812500,177.958946,-2.812500,177.573223,-2.426777,177.538627,-2.375000,176.461373,-2.375000,
176.426774,-2.426779,174.176777,-4.676777,174.095671,-4.730970,174.000000,-4.750001,173.904329,-4.730970,173.823221,-4.676774,173.083946,-3.937500,173.791054,-3.937500,174.000000,-4.146446,175.896447,-2.250000,178.103554,-2.250000,178.312500,-2.458946,180.208947,-0.562500,180.000000,-0.353554,178.103554,-2.250000,175.896447,-2.250000,175.687500,-2.041053,173.791054,-3.937500,173.083946,-3.937500,172.521446,-3.375000,
173.228554,-3.375000,173.437500,-3.583946,175.333947,-1.687500,175.125000,-1.478553,173.228554,-3.375000,172.521446,-3.375000,171.958946,-2.812500,172.666054,-2.812500,172.875000,-3.021446,174.771447,-1.125000,174.562500,-0.916053,172.666054,-2.812500,171.958946,-2.812500,171.573223,-2.426777,171.538627,-2.375000,170.461373,-2.375000,170.426774,-2.426779,168.176777,-4.676777,168.095671,-4.730970,168.000000,-4.750001,
167.904329,-4.730970,167.823221,-4.676774,167.083946,-3.937500,167.791054,-3.937500,168.000000,-4.146446,169.896447,-2.250000,172.103554,-2.250000,172.312500,-2.458946,174.208947,-0.562500,174.000000,-0.353554,172.103554,-2.250000,169.896447,-2.250000,169.687500,-2.041053,167.791054,-3.937500,167.083946,-3.937500,166.521446,-3.375000,167.228554,-3.375000,167.437500,-3.583946,169.333947,-1.687500,169.125000,-1.478553,
167.228554,-3.375000,166.521446,-3.375000,165.958946,-2.812500,166.666054,-2.812500,166.875000,-3.021446,168.771447,-1.125000,168.562500,-0.916053,166.666054,-2.812500,165.958946,-2.812500,165.573223,-2.426777,165.538627,-2.375000,164.461373,-2.375000,164.426774,-2.426779,162.176777,-4.676777,162.095671,-4.730970,162.000000,-4.750001,161.904329,-4.730970,161.823221,-4.676774,161.083946,-3.937500,161.791054,-3.937500,
162.000000,-4.146446,163.896447,-2.250000,166.103554,-2.250000,166.312500,-2.458946,168.208947,-0.562500,168.000000,-0.353554,166.103554,-2.250000,163.896447,-2.250000,163.687500,-2.041053,161.791054,-3.937500,161.083946,-3.937500,160.521446,-3.375000,161.228554,-3.375000,161.437500,-3.583946,163.333947,-1.687500,163.125000,-1.478553,161.228554,-3.375000,160.521446,-3.375000,159.958946,-2.812500,160.666054,-2.812500,
160.875000,-3.021446,162.771447,-1.125000,162.562500,-0.916053,160.666054,-2.812500,159.958946,-2.812500,159.573223,-2.426777,159.538627,-2.375000,158.461373,-2.375000,158.426774,-2.426779,156.176777,-4.676777,156.095671,-4.730970,156.000000,-4.750001,155.904329,-4.730970,155.823221,-4.676774,155.083946,-3.937500,155.791054,-3.937500,156.000000,-4.146446,157.896447,-2.250000,160.103554,-2.250000,160.312500,-2.458946,
162.208947,-0.562500,162.000000,-0.353554,160.103554,-2.250000,157.896447,-2.250000,157.687500,-2.041053,155.791054,-3.937500,155.083946,-3.937500,154.521446,-3.375000,155.228554,-3.375000,155.437500,-3.583946,157.333947,-1.687500,157.125000,-1.478553,155.228554,-3.375000,154.521446,-3.375000,153.958946,-2.812500,154.666054,-2.812500,154.875000,-3.021446,156.771447,-1.125000,156.562500,-0.916053,154.666054,-2.812500,
153.958946,-2.812500,153.573223,-2.426777,153.538627,-2.375000,152.461373,-2.375000,152.426774,-2.426779,150.176777,-4.676777,150.095671,-4.730970,150.000000,-4.750001,149.904329,-4.730970,149.823221,-4.676774,149.083946,-3.937500,149.791054,-3.937500,150.000000,-4.146446,151.896447,-2.250000,154.103554,-2.250000,154.312500,-2.458946,156.208947,-0.562500,156.000000,-0.353554,154.103554,-2.250000,151.896447,-2.250000,
151.687500,-2.041053,149.791054,-3.937500,149.083946,-3.937500,148.521446,-3.375000,149.228554,-3.375000,149.437500,-3.583946,151.333947,-1.687500,151.125000,-1.478553,149.228554,-3.375000,148.521446,-3.375000,147.958946,-2.812500,148.666054,-2.812500,148.875000,-3.021446,150.771447,-1.125000,150.562500,-0.916053,148.666054,-2.812500,147.958946,-2.812500,147.573223,-2.426777,147.538627,-2.375000,146.461373,-2.375000,
146.426774,-2.426779,144.176777,-4.676777,144.095671,-4.730970,144.000000,-4.750001,143.904329,-4.730970,143.823221,-4.676774,143.083946,-3.937500,143.791054,-3.937500,144.000000,-4.146446,145.896447,-2.250000,148.103554,-2.250000,148.312500,-2.458946,150.208947,-0.562500,150.000000,-0.353554,148.103554,-2.250000,145.896447,-2.250000,145.687500,-2.041053,143.791054,-3.937500,143.083946,-3.937500,142.521446,-3.375000,
143.228554,-3.375000,143.437500,-3.583946,145.333947,-1.687500,145.125000,-1.478553,143.228554,-3.375000,142.521446,-3.375000,141.958946,-2.812500,142.666054,-2.812500,142.875000,-3.021446,144.771447,-1.125000,144.562500,-0.916053,142.666054,-2.812500,141.958946,-2.812500,141.573223,-2.426777,141.538627,-2.375000,140.461373,-2.375000,140.426774,-2.426779,138.176777,-4.676777,138.095671,-4.730970,138.000000,-4.750001,
137.904329,-4.730970,137.823221,-4.676774,137.083946,-3.937500,137.791054,-3.937500,138.000000,-4.146446,139.896447,-2.250000,142.103554,-2.250000,142.312500,-2.458946,144.208947,-0.562500,144.000000,-0.353554,142.103554,-2.250000,139.896447,-2.250000,139.687500,-2.041053,137.791054,-3.937500,137.083946,-3.937500,136.521446,-3.375000,137.228554,-3.375000,137.437500,-3.583946,139.333947,-1.687500,139.125000,-1.478553,
137.228554,-3.375000,136.521446,-3.375000,135.958946,-2.812500,136.666054,-2.812500,136.875000,-3.021446,138.771447,-1.125000,138.562500,-0.916053,136.666054,-2.812500,135.958946,-2.812500,135.573223,-2.426777,135.538627,-2.375000,134.461373,-2.375000,134.426774,-2.426779,132.176777,-4.676777,132.095671,-4.730970,132.000000,-4.750001,131.904329,-4.730970,131.823221,-4.676774,131.083946,-3.937500,131.791054,-3.937500,
132.000000,-4.146446,133.896447,-2.250000,136.103554,-2.250000,136.312500,-2.458946,138.208947,-0.562500,138.000000,-0.353554,136.103554,-2.250000,133.896447,-2.250000,133.687500,-2.041053,131.791054,-3.937500,131.083946,-3.937500,130.521446,-3.375000,131.228554,-3.375000,131.437500,-3.583946,133.333947,-1.687500,133.125000,-1.478553,131.228554,-3.375000,130.521446,-3.375000,129.958946,-2.812500,130.666054,-2.812500,
130.875000,-3.021446,132.771447,-1.125000,132.562500,-0.916053,130.666054,-2.812500,129.958946,-2.812500,129.573223,-2.426777,129.538627,-2.375000,128.461373,-2.375000,128.426774,-2.426779,126.176777,-4.676777,126.095671,-4.730970,126.000000,-4.750001,125.904329,-4.730970,125.823221,-4.676774,125.083946,-3.937500,125.791054,-3.937500,126.000000,-4.146446,127.896447,-2.250000,130.103554,-2.250000,130.312500,-2.458946,
132.208947,-0.562500,132.000000,-0.353554,130.103554,-2.250000,127.896447,-2.250000,127.687500,-2.041053,125.791054,-3.937500,125.083946,-3.937500,124.521446,-3.375000,125.228554,-3.375000,125.437500,-3.583946,127.333947,-1.687500,127.125000,-1.478553,125.228554,-3.375000,124.521446,-3.375000,123.958946,-2.812500,124.666054,-2.812500,124.875000,-3.021446,126.771447,-1.125000,126.562500,-0.916053,124.666054,-2.812500,
123.958946,-2.812500,123.573223,-2.426777,123.538627,-2.375000,122.461373,-2.375000,122.426774,-2.426779,120.176777,-4.676777,120.095671,-4.730970,120.000000,-4.750001,119.904329,-4.730970,119.823221,-4.676774,119.083946,-3.937500,119.791054,-3.937500,120.000000,-4.146446,121.896447,-2.250000,124.103554,-2.250000,124.312500,-2.458946,126.208947,-0.562500,126.000000,-0.353554,124.103554,-2.250000,121.896447,-2.250000,
121.687500,-2.041053,119.791054,-3.937500,119.083946,-3.937500,118.521446,-3.375000,119.228554,-3.375000,119.437500,-3.583946,121.333947,-1.687500,121.125000,-1.478553,119.228554,-3.375000,118.521446,-3.375000,117.958946,-2.812500,118.666054,-2.812500,118.875000,-3.021446,120.771447,-1.125000,120.562500,-0.916053,118.666054,-2.812500,117.958946,-2.812500,117.573223,-2.426777,117.538627,-2.375000,116.461373,-2.375000,
116.426774,-2.426779,114.176777,-4.676777,114.095671,-4.730970,114.000000,-4.750001,113.904329,-4.730970,113.823221,-4.676774,113.083946,-3.937500,113.791054,-3.937500,114.000000,-4.146446,115.896447,-2.250000,118.103554,-2.250000,118.312500,-2.458946,120.208947,-0.562500,120.000000,-0.353554,118.103554,-2.250000,115.896447,-2.250000,115.687500,-2.041053,113.791054,-3.937500,113.083946,-3.937500,112.521446,-3.375000,
113.228554,-3.375000,113.437500,-3.583946,115.333947,-1.687500,115.125000,-1.478553,113.228554,-3.375000,112.521446,-3.375000,111.958946,-2.812500,112.666054,-2.812500,112.875000,-3.021446,114.771447,-1.125000,114.562500,-0.916053,112.666054,-2.812500,111.958946,-2.812500,111.573223,-2.426777,111.538627,-2.375000,110.461373,-2.375000,110.426774,-2.426779,108.176777,-4.676777,108.095671,-4.730970,108.000000,-4.750001,
107.904329,-4.730970,107.823221,-4.676774,107.083946,-3.937500,107.791054,-3.937500,108.000000,-4.146446,109.896447,-2.250000,112.103554,-2.250000,112.312500,-2.458946,114.208947,-0.562500,114.000000,-0.353554,112.103554,-2.250000,109.896447,-2.250000,109.687500,-2.041053,107.791054,-3.937500,107.083946,-3.937500,106.521446,-3.375000,107.228554,-3.375000,107.437500,-3.583946,109.333947,-1.687500,109.125000,-1.478553,
107.228554,-3.375000,106.521446,-3.375000,105.958946,-2.812500,106.666054,-2.812500,106.875000,-3.021446,108.771447,-1.125000,108.562500,-0.916053,106.666054,-2.812500,105.958946,-2.812500,105.573223,-2.426777,105.538627,-2.375000,104.461373,-2.375000,104.426774,-2.426779,102.176777,-4.676777,102.095671,-4.730970,102.000000,-4.750001,101.904329,-4.730970,101.823221,-4.676774,101.083946,-3.937500,101.791054,-3.937500,
102.000000,-4.146446,103.896447,-2.250000,106.103554,-2.250000,106.312500,-2.458946,108.208947,-0.562500,108.000000,-0.353554,106.103554,-2.250000,103.896447,-2.250000,103.687500,-2.041053,101.791054,-3.937500,101.083946,-3.937500,100.521446,-3.375000,101.228554,-3.375000,101.437500,-3.583946,103.333947,-1.687500,103.125000,-1.478553,101.228554,-3.375000,100.521446,-3.375000,99.958946,-2.812500,100.666054,-2.812500,
100.875000,-3.021446,102.771447,-1.125000,102.562500,-0.916053,100.666054,-2.812500,99.958946,-2.812500,99.573223,-2.426777,99.538627,-2.375000,98.461373,-2.375000,98.426774,-2.426779,96.176777,-4.676777,96.095671,-4.730970,96.000000,-4.750001,95.904329,-4.730970,95.823221,-4.676774,95.083946,-3.937500,95.791054,-3.937500,96.000000,-4.146446,97.896447,-2.250000,100.103554,-2.250000,100.312500,-2.458946,
102.208947,-0.562500,102.000000,-0.353554,100.103554,-2.250000,97.896447,-2.250000,97.687500,-2.041053,95.791054,-3.937500,95.083946,-3.937500,94.521446,-3.375000,95.228554,-3.375000,95.437500,-3.583946,97.333947,-1.687500,97.125000,-1.478553,95.228554,-3.375000,94.521446,-3.375000,93.958946,-2.812500,94.666054,-2.812500,94.875000,-3.021446,96.771447,-1.125000,96.562500,-0.916053,94.666054,-2.812500,
93.958946,-2.812500,93.573223,-2.426777,93.538627,-2.375000,92.461373,-2.375000,92.426774,-2.426779,90.176777,-4.676777,90.095671,-4.730970,90.000000,-4.750001,89.904329,-4.730970,89.823221,-4.676774,89.083946,-3.937500,89.791054,-3.937500,90.000000,-4.146446,91.896447,-2.250000,94.103554,-2.250000,94.312500,-2.458946,96.208947,-0.562500,96.000000,-0.353554,94.103554,-2.250000,91.896447,-2.250000,
91.687500,-2.041053,89.791054,-3.937500,89.083946,-3.937500,88.521446,-3.375000,89.228554,-3.375000,89.437500,-3.583946,91.333947,-1.687500,91.125000,-1.478553,89.228554,-3.375000,88.521446,-3.375000,87.958946,-2.812500,88.666054,-2.812500,88.875000,-3.021446,90.771447,-1.125000,90.562500,-0.916053,88.666054,-2.812500,87.958946,-2.812500,87.573223,-2.426777,87.538627,-2.375000,86.461373,-2.375000,
86.426774,-2.426779,84.176777,-4.676777,84.095671,-4.730970,84.000000,-4.750001,83.904329,-4.730970,83.823221,-4.676774,83.083946,-3.937500,83.791054,-3.937500,84.000000,-4.146446,85.896447,-2.250000,88.103554,-2.250000,88.312500,-2.458946,90.208947,-0.562500,90.000000,-0.353554,88.103554,-2.250000,85.896447,-2.250000,85.687500,-2.041053,83.791054,-3.937500,83.083946,-3.937500,82.521446,-3.375000,
83.228554,-3.375000,83.437500,-3.583946,85.333947,-1.687500,85.125000,-1.478553,83.228554,-3.375000,82.521446,-3.375000,81.958946,-2.812500,82.666054,-2.812500,82.875000,-3.021446,84.771447,-1.125000,84.562500,-0.916053,82.666054,-2.812500,81.958946,-2.812500,81.573223,-2.426777,81.538627,-2.375000,80.461373,-2.375000,80.426774,-2.426779,78.176777,-4.676777,78.095671,-4.730970,78.000000,-4.750001,
77.904329,-4.730970,77.823221,-4.676774,77.083946,-3.937500,77.791054,-3.937500,78.000000,-4.146446,79.896447,-2.250000,82.103554,-2.250000,82.312500,-2.458946,84.208947,-0.562500,84.000000,-0.353554,82.103554,-2.250000,79.896447,-2.250000,79.687500,-2.041053,77.791054,-3.937500,77.083946,-3.937500,76.521446,-3.375000,77.228554,-3.375000,77.437500,-3.583946,79.333947,-1.687500,79.125000,-1.478553,
77.228554,-3.375000,76.521446,-3.375000,75.958946,-2.812500,76.666054,-2.812500,76.875000,-3.021446,78.771447,-1.125000,78.562500,-0.916053,76.666054,-2.812500,75.958946,-2.812500,75.573223,-2.426777,75.538627,-2.375000,74.461373,-2.375000,74.426774,-2.426779,72.176777,-4.676777,72.095671,-4.730970,72.000000,-4.750001,71.904329,-4.730970,71.823221,-4.676774,71.083946,-3.937500,71.791054,-3.937500,
72.000000,-4.146446,73.896447,-2.250000,76.103554,-2.250000,76.312500,-2.458946,78.208947,-0.562500,78.000000,-0.353554,76.103554,-2.250000,73.896447,-2.250000,73.687500,-2.041053,71.791054,-3.937500,71.083946,-3.937500,70.521446,-3.375000,71.228554,-3.375000,71.437500,-3.583946,73.333947,-1.687500,73.125000,-1.478553,71.228554,-3.375000,70.521446,-3.375000,69.958946,-2.812500,70.666054,-2.812500,
70.875000,-3.021446,72.771447,-1.125000,72.562500,-0.916053,70.666054,-2.812500,69.958946,-2.812500,69.573223,-2.426777,69.538627,-2.375000,68.461373,-2.375000,68.426774,-2.426779,66.176777,-4.676777,66.095671,-4.730970,66.000000,-4.750001,65.904329,-4.730970,65.823221,-4.676774,65.083946,-3.937500,65.791054,-3.937500,66.000000,-4.146446,67.896447,-2.250000,70.103554,-2.250000,70.312500,-2.458946,
72.208947,-0.562500,72.000000,-0.353554,70.103554,-2.250000,67.896447,-2.250000,67.687500,-2.041053,65.791054,-3.937500,65.083946,-3.937500,64.521446,-3.375000,65.228554,-3.375000,65.437500,-3.583946,67.333947,-1.687500,67.125000,-1.478553,65.228554,-3.375000,64.521446,-3.375000,63.958946,-2.812500,64.666054,-2.812500,64.875000,-3.021446,66.771447,-1.125000,66.562500,-0.916053,64.666054,-2.812500,
63.958946,-2.812500,63.573223,-2.426777,63.538627,-2.375000,62.461373,-2.375000,62.426774,-2.426779,60.176777,-4.676777,60.095671,-4.730970,60.000000,-4.750001,59.904329,-4.730970,59.823221,-4.676774,59.083946,-3.937500,59.791054,-3.937500,60.000000,-4.146446,61.896447,-2.250000,64.103554,-2.250000,64.312500,-2.458946,66.208947,-0.562500,66.000000,-0.353554,64.103554,-2.250000,61.896447,-2.250000,
61.687500,-2.041053,59.791054,-3.937500,59.083946,-3.937500,58.521446,-3.375000,59.228554,-3.375000,59.437500,-3.583946,61.333947,-1.687500,61.125000,-1.478553,59.228554,-3.375000,58.521446,-3.375000,57.958946,-2.812500,58.666054,-2.812500,58.875000,-3.021446,60.771447,-1.125000,60.562500,-0.916053,58.666054,-2.812500,57.958946,-2.812500,57.573223,-2.426777,57.538627,-2.375000,56.461373,-2.375000,
56.426774,-2.426779,54.176777,-4.676777,54.095671,-4.730970,54.000000,-4.750001,53.904329,-4.730970,53.823221,-4.676774,53.083946,-3.937500,53.791054,-3.937500,54.000000,-4.146446,55.896447,-2.250000,58.103554,-2.250000,58.312500,-2.458946,60.208947,-0.562500,60.000000,-0.353554,58.103554,-2.250000,55.896447,-2.250000,55.687500,-2.041053,53.791054,-3.937500,53.083946,-3.937500,52.521446,-3.375000,
53.228554,-3.375000,53.437500,-3.583946,55.333947,-1.687500,55.125000,-1.478553,53.228554,-3.375000,52.521446,-3.375000,51.958946,-2.812500,52.666054,-2.812500,52.875000,-3.021446,54.771447,-1.125000,54.562500,-0.916053,52.666054,-2.812500,51.958946,-2.812500,51.573223,-2.426777,51.538627,-2.375000,50.461373,-2.375000,50.426774,-2.426779,48.176777,-4.676777,48.095671,-4.730970,48.000000,-4.750001,
47.904329,-4.730970,47.823221,-4.676774,47.083946,-3.937500,47.791054,-3.937500,48.000000,-4.146446,49.896447,-2.250000,52.103554,-2.250000,52.312500,-2.458946,54.208947,-0.562500,54.000000,-0.353554,52.103554,-2.250000,49.896447,-2.250000,49.687500,-2.041053,47.791054,-3.937500,47.083946,-3.937500,46.521446,-3.375000,47.228554,-3.375000,47.437500,-3.583946,49.333947,-1.687500,49.125000,-1.478553,
47.228554,-3.375000,46.521446,-3.375000,45.958946,-2.812500,46.666054,-2.812500,46.875000,-3.021446,48.771447,-1.125000,48.562500,-0.916053,46.666054,-2.812500,45.958946,-2.812500,45.573223,-2.426777,45.538627,-2.375000,44.461373,-2.375000,44.426774,-2.426779,42.176777,-4.676777,42.095671,-4.730970,42.000000,-4.750001,41.904329,-4.730970,41.823221,-4.676774,41.083946,-3.937500,41.791054,-3.937500,
42.000000,-4.146446,43.896447,-2.250000,46.103554,-2.250000,46.312500,-2.458946,48.208947,-0.562500,48.000000,-0.353554,46.103554,-2.250000,43.896447,-2.250000,43.687500,-2.041053,41.791054,-3.937500,41.083946,-3.937500,40.521446,-3.375000,41.228554,-3.375000,41.437500,-3.583946,43.333947,-1.687500,43.125000,-1.478553,41.228554,-3.375000,40.521446,-3.375000,39.958946,-2.812500,40.666054,-2.812500,
40.875000,-3.021446,42.771447,-1.125000,42.562500,-0.916053,40.666054,-2.812500,39.958946,-2.812500,39.573223,-2.426777,39.538627,-2.375000,38.461373,-2.375000,38.426774,-2.426779,36.176777,-4.676777,36.095671,-4.730970,36.000000,-4.750001,35.904329,-4.730970,35.823221,-4.676774,35.083946,-3.937500,35.791054,-3.937500,36.000000,-4.146446,37.896447,-2.250000,40.103554,-2.250000,40.312500,-2.458946,
42.208947,-0.562500,42.000000,-0.353554,40.103554,-2.250000,37.896447,-2.250000,37.687500,-2.041053,35.791054,-3.937500,35.083946,-3.937500,34.521446,-3.375000,35.228554,-3.375000,35.437500,-3.583946,37.333947,-1.687500,37.125000,-1.478553,35.228554,-3.375000,34.521446,-3.375000,33.958946,-2.812500,34.666054,-2.812500,34.875000,-3.021446,36.771447,-1.125000,36.562500,-0.916053,34.666054,-2.812500,
33.958946,-2.812500,33.573223,-2.426777,33.538627,-2.375000,32.461373,-2.375000,32.426774,-2.426779,30.176777,-4.676777,30.095671,-4.730970,30.000000,-4.750001,29.904329,-4.730970,29.823221,-4.676774,29.083946,-3.937500,29.791054,-3.937500,30.000000,-4.146446,31.896447,-2.250000,34.103554,-2.250000,34.312500,-2.458946,36.208947,-0.562500,36.000000,-0.353554,34.103554,-2.250000,31.896447,-2.250000,
31.687500,-2.041053,29.791054,-3.937500,29.083946,-3.937500,28.521446,-3.375000,29.228554,-3.375000,29.437500,-3.583946,31.333947,-1.687500,31.125000,-1.478553,29.228554,-3.375000,28.521446,-3.375000,27.958946,-2.812500,28.666054,-2.812500,28.875000,-3.021446,30.771447,-1.125000,30.562500,-0.916053,28.666054,-2.812500,27.958946,-2.812500,27.573223,-2.426777,27.538627,-2.375000,26.461373,-2.375000,
26.426774,-2.426779,24.176777,-4.676777,24.095671,-4.730970,24.000000,-4.750001,23.904329,-4.730970,23.823221,-4.676774,23.083946,-3.937500,23.791054,-3.937500,24.000000,-4.146446,25.896447,-2.250000,28.103554,-2.250000,28.312500,-2.458946,30.208947,-0.562500,30.000000,-0.353554,28.103554,-2.250000,25.896447,-2.250000,25.687500,-2.041053,23.791054,-3.937500,23.083946,-3.937500,22.521446,-3.375000,
23.228554,-3.375000,23.437500,-3.583946,25.333947,-1.687500,25.125000,-1.478553,23.228554,-3.375000,22.521446,-3.375000,21.958946,-2.812500,22.666054,-2.812500,22.875000,-3.021446,24.771447,-1.125000,24.562500,-0.916053,22.666054,-2.812500,21.958946,-2.812500,21.573223,-2.426777,21.538627,-2.375000,20.461373,-2.375000,20.426774,-2.426779,18.176777,-4.676777,18.095671,-4.730970,18.000000,-4.750001,
17.904329,-4.730970,17.823221,-4.676774,17.083946,-3.937500,17.791054,-3.937500,18.000000,-4.146446,19.896447,-2.250000,22.103554,-2.250000,22.312500,-2.458946,24.208947,-0.562500,24.000000,-0.353554,22.103554,-2.250000,19.896447,-2.250000,19.687500,-2.041053,17.791054,-3.937500,17.083946,-3.937500,16.521446,-3.375000,17.228554,-3.375000,17.437500,-3.583946,19.333947,-1.687500,19.125000,-1.478553,
17.228554,-3.375000,16.521446,-3.375000,15.958946,-2.812500,16.666054,-2.812500,16.875000,-3.021446,18.771447,-1.125000,18.562500,-0.916053,16.666054,-2.812500,15.958946,-2.812500,15.573223,-2.426777,15.538627,-2.375000,14.461373,-2.375000,14.426774,-2.426779,12.176777,-4.676777,12.095671,-4.730970,12.000000,-4.750001,11.904329,-4.730970,11.823221,-4.676774,11.083946,-3.937500,11.791054,-3.937500,
12.000000,-4.146446,13.896447,-2.250000,16.103554,-2.250000,16.312500,-2.458946,18.208947,-0.562500,18.000000,-0.353554,16.103554,-2.250000,13.896447,-2.250000,13.687500,-2.041053,11.791054,-3.937500,11.083946,-3.937500,10.521446,-3.375000,11.228554,-3.375000,11.437500,-3.583946,13.333947,-1.687500,13.125000,-1.478553,11.228554,-3.375000,10.521446,-3.375000,9.958946,-2.812500,10.666054,-2.812500,
10.875000,-3.021446,12.771447,-1.125000,12.562500,-0.916053,10.666054,-2.812500,9.958946,-2.812500,9.573223,-2.426777,9.538627,-2.375000,8.461373,-2.375000,8.426774,-2.426779,6.176777,-4.676777,6.095671,-4.730970,6.000000,-4.750001,5.904329,-4.730970,5.823221,-4.676774,5.083946,-3.937500,5.791054,-3.937500,6.000000,-4.146446,7.896447,-2.250000,10.103554,-2.250000,10.312500,-2.458946,
12.208947,-0.562500,12.000000,-0.353554,10.103554,-2.250000,7.896447,-2.250000,7.687500,-2.041053,5.791054,-3.937500,5.083946,-3.937500,4.521446,-3.375000,5.228554,-3.375000,5.437500,-3.583946,7.333947,-1.687500,7.125000,-1.478553,5.228554,-3.375000,4.521446,-3.375000,3.958946,-2.812500,4.666054,-2.812500,4.875000,-3.021446,6.771447,-1.125000,6.562500,-0.916053,4.666054,-2.812500,
3.958946,-2.812500,3.573223,-2.426777,3.538627,-2.375000,2.461373,-2.375000,2.426774,-2.426779,0.176777,-4.676777,0.095671,-4.730970,0.000000,-4.750000,-0.095671,-4.730970,-0.176777,-4.676777,-0.230970,-4.595671,-0.250000,-4.500000,-0.250000,-3.896446,0.250000,-3.896446,1.896447,-2.250000,4.103554,-2.250000,4.312500,-2.458946,6.208947,-0.562500,6.000000,-0.353554,4.103554,-2.250000,
1.896447,-2.250000,1.687500,-2.041053,0.250000,-3.478554,0.250000,-3.896446,-0.250000,-3.896446,-0.250000,-2.771446,0.250000,-2.771446,1.333947,-1.687500,1.125000,-1.478554,0.250000,-2.353554,0.250000,-2.771446,-0.250000,-2.771446,-0.250000,-1.646446,0.250000,-1.646446,0.771446,-1.125000,0.562500,-0.916054,0.250000,-1.228554,0.250000,-1.646446,-0.250000,-1.646446,-0.250000,0.000000,
-0.230970,0.095671,-0.176777,0.176777,-0.095671,0.230970,0.000000,0.250000,0.095671,0.230970,0.176777,0.176777,2.426777,-2.073223,2.461373,-2.125000,3.538627,-2.125000,3.573223,-2.073223,5.823223,0.176777,5.904329,0.230970,6.000000,0.250001,6.095671,0.230970,6.176777,0.176777,8.426777,-2.073223,8.461373,-2.125000,9.538627,-2.125000,9.573223,-2.073223,11.823223,0.176777,
11.904329,0.230970,12.000000,0.250001,12.095671,0.230970,12.176777,0.176777,14.426777,-2.073223,14.461373,-2.125000,15.538627,-2.125000,15.573223,-2.073223,17.823223,0.176777,17.904329,0.230970,18.000000,0.250001,18.095671,0.230970,18.176777,0.176777,20.426777,-2.073223,20.461373,-2.125000,21.538627,-2.125000,21.573223,-2.073223,23.823223,0.176777,23.904329,0.230970,24.000000,0.250001,
24.095671,0.230970,24.176777,0.176777,26.426777,-2.073223,26.461373,-2.125000,27.538627,-2.125000,27.573223,-2.073223,29.823223,0.176777,29.904329,0.230970,30.000000,0.250001,30.095671,0.230970,30.176777,0.176777,32.426777,-2.073223,32.461373,-2.125000,33.538627,-2.125000,33.573223,-2.073223,35.823223,0.176777,35.904329,0.230970,36.000000,0.250001,36.095671,0.230970,36.176777,0.176777,
38.426777,-2.073223,38.461373,-2.125000,39.538627,-2.125000,39.573223,-2.073223,41.823223,0.176777,41.904329,0.230970,42.000000,0.250001,42.095671,0.230970,42.176777,0.176777,44.426777,-2.073223,44.461373,-2.125000,45.538627,-2.125000,45.573223,-2.073223,47.823223,0.176777,47.904329,0.230970,48.000000,0.250001,48.095671,0.230970,48.176777,0.176777,50.426777,-2.073223,50.461373,-2.125000,
51.538627,-2.125000,51.573223,-2.073223,53.823223,0.176777,53.904329,0.230970,54.000000,0.250001,54.095671,0.230970,54.176777,0.176777,56.426777,-2.073223,56.461373,-2.125000,57.538627,-2.125000,57.573223,-2.073223,59.823223,0.176777,59.904329,0.230970,60.000000,0.250001,60.095671,0.230970,60.176777,0.176777,62.426777,-2.073223,62.461373,-2.125000,63.538627,-2.125000,63.573223,-2.073223,
65.823223,0.176777,65.904329,0.230970,66.000000,0.250001,66.095671,0.230970,66.176777,0.176777,68.426777,-2.073223,68.461373,-2.125000,69.538627,-2.125000,69.573223,-2.073223,71.823223,0.176777,71.904329,0.230970,72.000000,0.250001,72.095671,0.230970,72.176777,0.176777,74.426777,-2.073223,74.461373,-2.125000,75.538627,-2.125000,75.573223,-2.073223,77.823223,0.176777,77.904329,0.230970,
78.000000,0.250001,78.095671,0.230970,78.176777,0.176777,80.426777,-2.073223,80.461373,-2.125000,81.538627,-2.125000,81.573223,-2.073223,83.823223,0.176777,83.904329,0.230970,84.000000,0.250001,84.095671,0.230970,84.176777,0.176777,86.426777,-2.073223,86.461373,-2.125000,87.538627,-2.125000,87.573223,-2.073223,89.823223,0.176777,89.904329,0.230970,90.000000,0.250001,90.095671,0.230970,
90.176777,0.176777,92.426777,-2.073223,92.461373,-2.125000,93.538627,-2.125000,93.573223,-2.073223,95.823223,0.176777,95.904329,0.230970,96.000000,0.250001,96.095671,0.230970,96.176777,0.176777,98.426777,-2.073223,98.461373,-2.125000,99.538627,-2.125000,99.573223,-2.073223,101.823223,0.176777,101.904329,0.230970,102.000000,0.250001,102.095671,0.230970,102.176777,0.176777,104.426777,-2.073223,
104.461373,-2.125000,105.538627,-2.125000,105.573223,-2.073223,107.823223,0.176777,107.904329,0.230970,108.000000,0.250001,108.095671,0.230970,108.176777,0.176777,110.426777,-2.073223,110.461373,-2.125000,111.538627,-2.125000,111.573223,-2.073223,113.823223,0.176777,113.904329,0.230970,114.000000,0.250001,114.095671,0.230970,114.176777,0.176777,116.426777,-2.073223,116.461373,-2.125000,117.538627,-2.125000,
117.573223,-2.073223,119.823223,0.176777,119.904329,0.230970,120.000000,0.250001,120.095671,0.230970,120.176777,0.176777,122.426777,-2.073223,122.461373,-2.125000,123.538627,-2.125000,123.573223,-2.073223,125.823223,0.176777,125.904329,0.230970,126.000000,0.250001,126.095671,0.230970,126.176777,0.176777,128.426777,-2.073223,128.461373,-2.125000,129.538627,-2.125000,129.573223,-2.073223,131.823223,0.176777,
131.904329,0.230970,132.000000,0.250001,132.095671,0.230970,132.176777,0.176777,134.426777,-2.073223,134.461373,-2.125000,135.538627,-2.125000,135.573223,-2.073223,137.823223,0.176777,137.904329,0.230970,138.000000,0.250001,138.095671,0.230970,138.176777,0.176777,140.426777,-2.073223,140.461373,-2.125000,141.538627,-2.125000,141.573223,-2.073223,143.823223,0.176777,143.904329,0.230970,144.000000,0.250001,
144.095671,0.230970,144.176777,0.176777,146.426777,-2.073223,146.461373,-2.125000,147.538627,-2.125000,147.573223,-2.073223,149.823223,0.176777,149.904329,0.230970,150.000000,0.250001,150.095671,0.230970,150.176777,0.176777,152.426777,-2.073223,152.461373,-2.125000,153.538627,-2.125000,153.573223,-2.073223,155.823223,0.176777,155.904329,0.230970,156.000000,0.250001,156.095671,0.230970,156.176777,0.176777,
158.426777,-2.073223,158.461373,-2.125000,159.538627,-2.125000,159.573223,-2.073223,161.823223,0.176777,161.904329,0.230970,162.000000,0.250001,162.095671,0.230970,162.176777,0.176777,164.426777,-2.073223,164.461373,-2.125000,165.538627,-2.125000,165.573223,-2.073223,167.823223,0.176777,167.904329,0.230970,168.000000,0.250001,168.095671,0.230970,168.176777,0.176777,170.426777,-2.073223,170.461373,-2.125000,
171.538627,-2.125000,171.573223,-2.073223,173.823223,0.176777,173.904329,0.230970,174.000000,0.250001,174.095671,0.230970,174.176777,0.176777,176.426777,-2.073223,176.461373,-2.125000,177.538627,-2.125000,177.573223,-2.073223,179.823223,0.176777,179.904329,0.230970,180.000000,0.250001,180.095671,0.230970,180.176777,0.176777,182.426777,-2.073223,182.461373,-2.125000,183.538627,-2.125000,183.573223,-2.073223,
185.823223,0.176777,185.904329,0.230970,186.000000,0.250001,186.095671,0.230970,186.176777,0.176777,188.426777,-2.073223,188.461373,-2.125000,189.538627,-2.125000,189.573223,-2.073223,191.823223,0.176777,191.904329,0.230970,192.000000,0.250001,192.095671,0.230970,192.095671,0.230970,$1*%
%AMFreePoly1*
4,1,41,-2.154329,-45.519030,-2.073223,-45.573223,0.176777,-47.823223,0.230970,-47.904330,0.250001,-48.000000,0.230970,-48.095671,0.176777,-48.176777,0.095671,-48.230970,0.000000,-48.250001,-4.500000,-48.250000,-4.595671,-48.230970,-4.676777,-48.176777,-4.730970,-48.095671,-4.750000,-48.000000,-4.730970,-47.904329,-4.676777,-47.823223,-4.291054,-47.437500,-3.583946,-47.437500,-3.271446,-47.750000,-2.853554,-47.750000,
-3.375000,-47.228554,-3.583946,-47.437500,-4.291054,-47.437500,-3.728553,-46.875000,-3.021446,-46.875000,-2.146446,-47.750000,-1.728553,-47.750000,-2.812500,-46.666054,-3.021446,-46.875000,-3.728553,-46.875000,-3.166054,-46.312500,-2.458946,-46.312500,-1.021447,-47.750000,-0.603553,-47.750000,-2.250000,-46.103554,-2.458946,-46.312500,-3.166054,-46.312500,-2.426777,-45.573223,-2.345671,-45.519030,-2.250000,-45.499999,
-2.154329,-45.519030,-2.154329,-45.519030,$1*%
%AMFreePoly2*
4,1,48,-2.154329,-39.519030,-2.073223,-39.573223,0.176777,-41.823223,0.230970,-41.904330,0.250001,-42.000000,0.230970,-42.095671,0.176774,-42.176779,-2.073223,-44.426777,-2.154329,-44.480970,-2.250000,-44.500001,-2.345671,-44.480970,-2.426779,-44.426774,-4.676777,-42.176777,-4.730970,-42.095671,-4.750000,-42.000000,-4.146446,-42.000000,-2.250000,-43.896446,-2.041053,-43.687500,-3.937500,-41.791054,-4.146446,-42.000000,
-4.750000,-42.000000,-4.730970,-41.904329,-4.676777,-41.823223,-4.291054,-41.437500,-3.583946,-41.437500,-1.687500,-43.333947,-1.478553,-43.125000,-3.375000,-41.228554,-3.583946,-41.437500,-4.291054,-41.437500,-3.728553,-40.875000,-3.021446,-40.875000,-1.125000,-42.771447,-0.916053,-42.562500,-2.812500,-40.666054,-3.021446,-40.875000,-3.728553,-40.875000,-3.166054,-40.312500,-2.458946,-40.312500,-0.562500,-42.208947,
-0.353553,-42.000000,-2.250000,-40.103554,-2.458946,-40.312500,-3.166054,-40.312500,-2.426777,-39.573223,-2.345671,-39.519030,-2.250000,-39.499999,-2.154329,-39.519030,-2.154329,-39.519030,$1*%
%AMFreePoly3*
4,1,48,-2.154329,-33.519030,-2.073223,-33.573223,0.176777,-35.823223,0.230970,-35.904330,0.250001,-36.000000,0.230970,-36.095671,0.176774,-36.176779,-2.073223,-38.426777,-2.154329,-38.480970,-2.250000,-38.500001,-2.345671,-38.480970,-2.426779,-38.426774,-4.676777,-36.176777,-4.730970,-36.095671,-4.750000,-36.000000,-4.146446,-36.000000,-2.250000,-37.896446,-2.041053,-37.687500,-3.937500,-35.791054,-4.146446,-36.000000,
-4.750000,-36.000000,-4.730970,-35.904329,-4.676777,-35.823223,-4.291054,-35.437500,-3.583946,-35.437500,-1.687500,-37.333947,-1.478553,-37.125000,-3.375000,-35.228554,-3.583946,-35.437500,-4.291054,-35.437500,-3.728553,-34.875000,-3.021446,-34.875000,-1.125000,-36.771447,-0.916053,-36.562500,-2.812500,-34.666054,-3.021446,-34.875000,-3.728553,-34.875000,-3.166054,-34.312500,-2.458946,-34.312500,-0.562500,-36.208947,
-0.353553,-36.000000,-2.250000,-34.103554,-2.458946,-34.312500,-3.166054,-34.312500,-2.426777,-33.573223,-2.345671,-33.519030,-2.250000,-33.499999,-2.154329,-33.519030,-2.154329,-33.519030,$1*%
%AMFreePoly4*
4,1,48,-2.154329,-27.519030,-2.073223,-27.573223,0.176777,-29.823223,0.230970,-29.904330,0.250001,-30.000000,0.230970,-30.095671,0.176774,-30.176779,-2.073223,-32.426777,-2.154329,-32.480970,-2.250000,-32.500001,-2.345671,-32.480970,-2.426779,-32.426774,-4.676777,-30.176777,-4.730970,-30.095671,-4.750000,-30.000000,-4.146446,-30.000000,-2.250000,-31.896446,-2.041053,-31.687500,-3.937500,-29.791054,-4.146446,-30.000000,
-4.750000,-30.000000,-4.730970,-29.904329,-4.676777,-29.823223,-4.291054,-29.437500,-3.583946,-29.437500,-1.687500,-31.333947,-1.478553,-31.125000,-3.375000,-29.228554,-3.583946,-29.437500,-4.291054,-29.437500,-3.728553,-28.875000,-3.021446,-28.875000,-1.125000,-30.771447,-0.916053,-30.562500,-2.812500,-28.666054,-3.021446,-28.875000,-3.728553,-28.875000,-3.166054,-28.312500,-2.458946,-28.312500,-0.562500,-30.208947,
-0.353553,-30.000000,-2.250000,-28.103554,-2.458946,-28.312500,-3.166054,-28.312500,-2.426777,-27.573223,-2.345671,-27.519030,-2.250000,-27.499999,-2.154329,-27.519030,-2.154329,-27.519030,$1*%
%AMFreePoly5*
4,1,48,-2.154329,-21.519030,-2.073223,-21.573223,0.176777,-23.823223,0.230970,-23.904330,0.250001,-24.000000,0.230970,-24.095671,0.176774,-24.176779,-2.073223,-26.426777,-2.154329,-26.480970,-2.250000,-26.500001,-2.345671,-26.480970,-2.426779,-26.426774,-4.676777,-24.176777,-4.730970,-24.095671,-4.750000,-24.000000,-4.146446,-24.000000,-2.250000,-25.896446,-2.041053,-25.687500,-3.937500,-23.791054,-4.146446,-24.000000,
-4.750000,-24.000000,-4.730970,-23.904329,-4.676777,-23.823223,-4.291054,-23.437500,-3.583946,-23.437500,-1.687500,-25.333947,-1.478553,-25.125000,-3.375000,-23.228554,-3.583946,-23.437500,-4.291054,-23.437500,-3.728553,-22.875000,-3.021446,-22.875000,-1.125000,-24.771447,-0.916053,-24.562500,-2.812500,-22.666054,-3.021446,-22.875000,-3.728553,-22.875000,-3.166054,-22.312500,-2.458946,-22.312500,-0.562500,-24.208947,
-0.353553,-24.000000,-2.250000,-22.103554,-2.458946,-22.312500,-3.166054,-22.312500,-2.426777,-21.573223,-2.345671,-21.519030,-2.250000,-21.499999,-2.154329,-21.519030,-2.154329,-21.519030,$1*%
%AMFreePoly6*
4,1,48,-2.154329,-15.519030,-2.073223,-15.573223,0.176777,-17.823223,0.230970,-17.904330,0.250001,-18.000000,0.230970,-18.095671,0.176774,-18.176779,-2.073223,-20.426777,-2.154329,-20.480970,-2.250000,-20.500001,-2.345671,-20.480970,-2.426779,-20.426774,-4.676777,-18.176777,-4.730970,-18.095671,-4.750000,-18.000000,-4.146446,-18.000000,-2.250000,-19.896446,-2.041053,-19.687500,-3.937500,-17.791054,-4.146446,-18.000000,
-4.750000,-18.000000,-4.730970,-17.904329,-4.676777,-17.823223,-4.291054,-17.437500,-3.583946,-17.437500,-1.687500,-19.333947,-1.478553,-19.125000,-3.375000,-17.228554,-3.583946,-17.437500,-4.291054,-17.437500,-3.728553,-16.875000,-3.021446,-16.875000,-1.125000,-18.771447,-0.916053,-18.562500,-2.812500,-16.666054,-3.021446,-16.875000,-3.728553,-16.875000,-3.166054,-16.312500,-2.458946,-16.312500,-0.562500,-18.208947,
-0.353553,-18.000000,-2.250000,-16.103554,-2.458946,-16.312500,-3.166054,-16.312500,-2.426777,-15.573223,-2.345671,-15.519030,-2.250000,-15.499999,-2.154329,-15.519030,-2.154329,-15.519030,$1*%
%AMFreePoly7*
4,1,48,-2.154329,-9.519030,-2.073223,-9.573223,0.176777,-11.823223,0.230970,-11.904330,0.250001,-12.000000,0.230970,-12.095671,0.176774,-12.176779,-2.073223,-14.426777,-2.154329,-14.480970,-2.250000,-14.500001,-2.345671,-14.480970,-2.426779,-14.426774,-4.676777,-12.176777,-4.730970,-12.095671,-4.750000,-12.000000,-4.146446,-12.000000,-2.250000,-13.896446,-2.041053,-13.687500,-3.937500,-11.791054,-4.146446,-12.000000,
-4.750000,-12.000000,-4.730970,-11.904329,-4.676777,-11.823223,-4.291054,-11.437500,-3.583946,-11.437500,-1.687500,-13.333947,-1.478553,-13.125000,-3.375000,-11.228554,-3.583946,-11.437500,-4.291054,-11.437500,-3.728553,-10.875000,-3.021446,-10.875000,-1.125000,-12.771447,-0.916053,-12.562500,-2.812500,-10.666054,-3.021446,-10.875000,-3.728553,-10.875000,-3.166054,-10.312500,-2.458946,-10.312500,-0.562500,-12.208947,
-0.353553,-12.000000,-2.250000,-10.103554,-2.458946,-10.312500,-3.166054,-10.312500,-2.426777,-9.573223,-2.345671,-9.519030,-2.250000,-9.499999,-2.154329,-9.519030,-2.154329,-9.519030,$1*%
%AMFreePoly8*
4,1,48,-2.154329,-3.519030,-2.073223,-3.573223,0.176777,-5.823223,0.230970,-5.904330,0.250001,-6.000000,0.230970,-6.095671,0.176774,-6.176779,-2.073223,-8.426777,-2.154329,-8.480970,-2.250000,-8.500001,-2.345671,-8.480970,-2.426779,-8.426774,-4.676777,-6.176777,-4.730970,-6.095671,-4.750000,-6.000000,-4.146446,-6.000000,-2.250000,-7.896446,-2.041053,-7.687500,-3.937500,-5.791054,-4.146446,-6.000000,
-4.750000,-6.000000,-4.730970,-5.904329,-4.676777,-5.823223,-4.291054,-5.437500,-3.583946,-5.437500,-1.687500,-7.333947,-1.478553,-7.125000,-3.375000,-5.228554,-3.583946,-5.437500,-4.291054,-5.437500,-3.728553,-4.875000,-3.021446,-4.875000,-1.125000,-6.771447,-0.916053,-6.562500,-2.812500,-4.666054,-3.021446,-4.875000,-3.728553,-4.875000,-3.166054,-4.312500,-2.458946,-4.312500,-0.562500,-6.208947,
-0.353553,-6.000000,-2.250000,-4.103554,-2.458946,-4.312500,-3.166054,-4.312500,-2.426777,-3.573223,-2.345671,-3.519030,-2.250000,-3.499999,-2.154329,-3.519030,-2.154329,-3.519030,$1*%
%AMFreePoly9*
4,1,39,0.095671,0.230970,0.176777,0.176777,0.230970,0.095671,0.250001,0.000000,0.230970,-0.095671,0.176774,-0.176779,-2.073223,-2.426777,-2.154329,-2.480970,-2.250000,-2.500001,-2.345671,-2.480970,-2.426779,-2.426774,-4.603554,-0.250000,-3.896446,-0.250000,-2.250000,-1.896446,-2.041053,-1.687500,-3.478554,-0.250000,-2.771446,-0.250000,-1.687500,-1.333947,-1.478554,-1.125000,-2.353554,-0.250000,
-1.646446,-0.250000,-1.125000,-0.771446,-0.916054,-0.562500,-1.228554,-0.250000,-1.646446,-0.250000,-2.353554,-0.250000,-2.771446,-0.250000,-3.478554,-0.250000,-3.896446,-0.250000,-4.603554,-0.250000,-4.676777,-0.176777,-4.730970,-0.095671,-4.750000,0.000000,-4.730970,0.095671,-4.676777,0.176777,-4.595671,0.230970,-4.500000,0.250000,0.000000,0.250001,0.095671,0.230970,0.095671,0.230970,
$1*%
G04 Aperture macros list end*
G04 #@! TA.AperFunction,SMDPad,CuDef*
%ADD10FreePoly0,0.000000*%
G04 #@! TD*
G04 #@! TA.AperFunction,SMDPad,CuDef*
%ADD11FreePoly1,0.000000*%
G04 #@! TD*
G04 #@! TA.AperFunction,SMDPad,CuDef*
%ADD12FreePoly2,0.000000*%
G04 #@! TD*
G04 #@! TA.AperFunction,SMDPad,CuDef*
%ADD13FreePoly3,0.000000*%
G04 #@! TD*
G04 #@! TA.AperFunction,SMDPad,CuDef*
%ADD14FreePoly4,0.000000*%
G04 #@! TD*
G04 #@! TA.AperFunction,SMDPad,CuDef*
%ADD15FreePoly5,0.000000*%
G04 #@! TD*
G04 #@! TA.AperFunction,SMDPad,CuDef*
%ADD16FreePoly6,0.000000*%
G04 #@! TD*
G04 #@! TA.AperFunction,SMDPad,CuDef*
%ADD17FreePoly7,0.000000*%
G04 #@! TD*
G04 #@! TA.AperFunction,SMDPad,CuDef*
%ADD18FreePoly8,0.000000*%
G04 #@! TD*
G04 #@! TA.AperFunction,SMDPad,CuDef*
%ADD19FreePoly9,0.000000*%
G04 #@! TD*
G04 #@! TA.AperFunction,ViaPad*
%ADD20C,0.400000*%
G04 #@! TD*
G04 APERTURE END LIST*
D10*
X63000000Y-56525000D03*
X63000000Y-62525000D03*
X63000000Y-68525000D03*
X63000000Y-74525000D03*
X63000000Y-80525000D03*
X63000000Y-86525000D03*
X63000000Y-92525000D03*
X63000000Y-98525000D03*
D11*
X68250000Y-55775000D03*
D12*
X68250000Y-55775000D03*
D13*
X68250000Y-55775000D03*
D14*
X68250000Y-55775000D03*
D15*
X68250000Y-55775000D03*
D16*
X68250000Y-55775000D03*
D17*
X68250000Y-55775000D03*
D18*
X68250000Y-55775000D03*
D19*
X68250000Y-55775000D03*
D11*
X74250000Y-55775000D03*
D12*
X74250000Y-55775000D03*
D13*
X74250000Y-55775000D03*
D14*
X74250000Y-55775000D03*
D15*
X74250000Y-55775000D03*
D16*
X74250000Y-55775000D03*
D17*
X74250000Y-55775000D03*
D18*
X74250000Y-55775000D03*
D19*
X74250000Y-55775000D03*
D11*
X80250000Y-55775000D03*
D12*
X80250000Y-55775000D03*
D13*
X80250000Y-55775000D03*
D14*
X80250000Y-55775000D03*
D15*
X80250000Y-55775000D03*
D16*
X80250000Y-55775000D03*
D17*
X80250000Y-55775000D03*
D18*
X80250000Y-55775000D03*
D19*
X80250000Y-55775000D03*
D11*
X86250000Y-55775000D03*
D12*
X86250000Y-55775000D03*
D13*
X86250000Y-55775000D03*
D14*
X86250000Y-55775000D03*
D15*
X86250000Y-55775000D03*
D16*
X86250000Y-55775000D03*
D17*
X86250000Y-55775000D03*
D18*
X86250000Y-55775000D03*
D19*
X86250000Y-55775000D03*
D11*
X92250000Y-55775000D03*
D12*
X92250000Y-55775000D03*
D13*
X92250000Y-55775000D03*
D14*
X92250000Y-55775000D03*
D15*
X92250000Y-55775000D03*
D16*
X92250000Y-55775000D03*
D17*
X92250000Y-55775000D03*
D18*
X92250000Y-55775000D03*
D19*
X92250000Y-55775000D03*
D11*
X98250000Y-55775000D03*
D12*
X98250000Y-55775000D03*
D13*
X98250000Y-55775000D03*
D14*
X98250000Y-55775000D03*
D15*
X98250000Y-55775000D03*
D16*
X98250000Y-55775000D03*
D17*
X98250000Y-55775000D03*
D18*
X98250000Y-55775000D03*
D19*
X98250000Y-55775000D03*
D11*
X104250000Y-55775000D03*
D12*
X104250000Y-55775000D03*
D13*
X104250000Y-55775000D03*
D14*
X104250000Y-55775000D03*
D15*
X104250000Y-55775000D03*
D16*
X104250000Y-55775000D03*
D17*
X104250000Y-55775000D03*
D18*
X104250000Y-55775000D03*
D19*
X104250000Y-55775000D03*
D11*
X110250000Y-55775000D03*
D12*
X110250000Y-55775000D03*
D13*
X110250000Y-55775000D03*
D14*
X110250000Y-55775000D03*
D15*
X110250000Y-55775000D03*
D16*
X110250000Y-55775000D03*
D17*
X110250000Y-55775000D03*
D18*
X110250000Y-55775000D03*
D19*
X110250000Y-55775000D03*
D11*
X116250000Y-55775000D03*
D12*
X116250000Y-55775000D03*
D13*
X116250000Y-55775000D03*
D14*
X116250000Y-55775000D03*
D15*
X116250000Y-55775000D03*
D16*
X116250000Y-55775000D03*
D17*
X116250000Y-55775000D03*
D18*
X116250000Y-55775000D03*
D19*
X116250000Y-55775000D03*
D11*
X122250000Y-55775000D03*
D12*
X122250000Y-55775000D03*
D13*
X122250000Y-55775000D03*
D14*
X122250000Y-55775000D03*
D15*
X122250000Y-55775000D03*
D16*
X122250000Y-55775000D03*
D17*
X122250000Y-55775000D03*
D18*
X122250000Y-55775000D03*
D19*
X122250000Y-55775000D03*
D11*
X128250000Y-55775000D03*
D12*
X128250000Y-55775000D03*
D13*
X128250000Y-55775000D03*
D14*
X128250000Y-55775000D03*
D15*
X128250000Y-55775000D03*
D16*
X128250000Y-55775000D03*
D17*
X128250000Y-55775000D03*
D18*
X128250000Y-55775000D03*
D19*
X128250000Y-55775000D03*
D11*
X134250000Y-55775000D03*
D12*
X134250000Y-55775000D03*
D13*
X134250000Y-55775000D03*
D14*
X134250000Y-55775000D03*
D15*
X134250000Y-55775000D03*
D16*
X134250000Y-55775000D03*
D17*
X134250000Y-55775000D03*
D18*
X134250000Y-55775000D03*
D19*
X134250000Y-55775000D03*
D11*
X140250000Y-55775000D03*
D12*
X140250000Y-55775000D03*
D13*
X140250000Y-55775000D03*
D14*
X140250000Y-55775000D03*
D15*
X140250000Y-55775000D03*
D16*
X140250000Y-55775000D03*
D17*
X140250000Y-55775000D03*
D18*
X140250000Y-55775000D03*
D19*
X140250000Y-55775000D03*
D11*
X146250000Y-55775000D03*
D12*
X146250000Y-55775000D03*
D13*
X146250000Y-55775000D03*
D14*
X146250000Y-55775000D03*
D15*
X146250000Y-55775000D03*
D16*
X146250000Y-55775000D03*
D17*
X146250000Y-55775000D03*
D18*
X146250000Y-55775000D03*
D19*
X146250000Y-55775000D03*
D11*
X152250000Y-55775000D03*
D12*
X152250000Y-55775000D03*
D13*
X152250000Y-55775000D03*
D14*
X152250000Y-55775000D03*
D15*
X152250000Y-55775000D03*
D16*
X152250000Y-55775000D03*
D17*
X152250000Y-55775000D03*
D18*
X152250000Y-55775000D03*
D19*
X152250000Y-55775000D03*
D11*
X158250000Y-55775000D03*
D12*
X158250000Y-55775000D03*
D13*
X158250000Y-55775000D03*
D14*
X158250000Y-55775000D03*
D15*
X158250000Y-55775000D03*
D16*
X158250000Y-55775000D03*
D17*
X158250000Y-55775000D03*
D18*
X158250000Y-55775000D03*
D19*
X158250000Y-55775000D03*
D11*
X164250000Y-55775000D03*
D12*
X164250000Y-55775000D03*
D13*
X164250000Y-55775000D03*
D14*
X164250000Y-55775000D03*
D15*
X164250000Y-55775000D03*
D16*
X164250000Y-55775000D03*
D17*
X164250000Y-55775000D03*
D18*
X164250000Y-55775000D03*
D19*
X164250000Y-55775000D03*
D11*
X170250000Y-55775000D03*
D12*
X170250000Y-55775000D03*
D13*
X170250000Y-55775000D03*
D14*
X170250000Y-55775000D03*
D15*
X170250000Y-55775000D03*
D16*
X170250000Y-55775000D03*
D17*
X170250000Y-55775000D03*
D18*
X170250000Y-55775000D03*
D19*
X170250000Y-55775000D03*
D11*
X176250000Y-55775000D03*
D12*
X176250000Y-55775000D03*
D13*
X176250000Y-55775000D03*
D14*
X176250000Y-55775000D03*
D15*
X176250000Y-55775000D03*
D16*
X176250000Y-55775000D03*
D17*
X176250000Y-55775000D03*
D18*
X176250000Y-55775000D03*
D19*
X176250000Y-55775000D03*
D11*
X182250000Y-55775000D03*
D12*
X182250000Y-55775000D03*
D13*
X182250000Y-55775000D03*
D14*
X182250000Y-55775000D03*
D15*
X182250000Y-55775000D03*
D16*
X182250000Y-55775000D03*
D17*
X182250000Y-55775000D03*
D18*
X182250000Y-55775000D03*
D19*
X182250000Y-55775000D03*
D11*
X188250000Y-55775000D03*
D12*
X188250000Y-55775000D03*
D13*
X188250000Y-55775000D03*
D14*
X188250000Y-55775000D03*
D15*
X188250000Y-55775000D03*
D16*
X188250000Y-55775000D03*
D17*
X188250000Y-55775000D03*
D18*
X188250000Y-55775000D03*
D19*
X188250000Y-55775000D03*
D11*
X194250000Y-55775000D03*
D12*
X194250000Y-55775000D03*
D13*
X194250000Y-55775000D03*
D14*
X194250000Y-55775000D03*
D15*
X194250000Y-55775000D03*
D16*
X194250000Y-55775000D03*
D17*
X194250000Y-55775000D03*
D18*
X194250000Y-55775000D03*
D19*
X194250000Y-55775000D03*
D11*
X200250000Y-55775000D03*
D12*
X200250000Y-55775000D03*
D13*
X200250000Y-55775000D03*
D14*
X200250000Y-55775000D03*
D15*
X200250000Y-55775000D03*
D16*
X200250000Y-55775000D03*
D17*
X200250000Y-55775000D03*
D18*
X200250000Y-55775000D03*
D19*
X200250000Y-55775000D03*
D11*
X206250000Y-55775000D03*
D12*
X206250000Y-55775000D03*
D13*
X206250000Y-55775000D03*
D14*
X206250000Y-55775000D03*
D15*
X206250000Y-55775000D03*
D16*
X206250000Y-55775000D03*
D17*
X206250000Y-55775000D03*
D18*
X206250000Y-55775000D03*
D19*
X206250000Y-55775000D03*
D11*
X212250000Y-55775000D03*
D12*
X212250000Y-55775000D03*
D13*
X212250000Y-55775000D03*
D14*
X212250000Y-55775000D03*
D15*
X212250000Y-55775000D03*
D16*
X212250000Y-55775000D03*
D17*
X212250000Y-55775000D03*
D18*
X212250000Y-55775000D03*
D19*
X212250000Y-55775000D03*
D11*
X218250000Y-55775000D03*
D12*
X218250000Y-55775000D03*
D13*
X218250000Y-55775000D03*
D14*
X218250000Y-55775000D03*
D15*
X218250000Y-55775000D03*
D16*
X218250000Y-55775000D03*
D17*
X218250000Y-55775000D03*
D18*
X218250000Y-55775000D03*
D19*
X218250000Y-55775000D03*
D11*
X224250000Y-55775000D03*
D12*
X224250000Y-55775000D03*
D13*
X224250000Y-55775000D03*
D14*
X224250000Y-55775000D03*
D15*
X224250000Y-55775000D03*
D16*
X224250000Y-55775000D03*
D17*
X224250000Y-55775000D03*
D18*
X224250000Y-55775000D03*
D19*
X224250000Y-55775000D03*
D11*
X230250000Y-55775000D03*
D12*
X230250000Y-55775000D03*
D13*
X230250000Y-55775000D03*
D14*
X230250000Y-55775000D03*
D15*
X230250000Y-55775000D03*
D16*
X230250000Y-55775000D03*
D17*
X230250000Y-55775000D03*
D18*
X230250000Y-55775000D03*
D19*
X230250000Y-55775000D03*
D11*
X236250000Y-55775000D03*
D12*
X236250000Y-55775000D03*
D13*
X236250000Y-55775000D03*
D14*
X236250000Y-55775000D03*
D15*
X236250000Y-55775000D03*
D16*
X236250000Y-55775000D03*
D17*
X236250000Y-55775000D03*
D18*
X236250000Y-55775000D03*
D19*
X236250000Y-55775000D03*
D11*
X242250000Y-55775000D03*
D12*
X242250000Y-55775000D03*
D13*
X242250000Y-55775000D03*
D14*
X242250000Y-55775000D03*
D15*
X242250000Y-55775000D03*
D16*
X242250000Y-55775000D03*
D17*
X242250000Y-55775000D03*
D18*
X242250000Y-55775000D03*
D19*
X242250000Y-55775000D03*
D11*
X248250000Y-55775000D03*
D12*
X248250000Y-55775000D03*
D13*
X248250000Y-55775000D03*
D14*
X248250000Y-55775000D03*
D15*
X248250000Y-55775000D03*
D16*
X248250000Y-55775000D03*
D17*
X248250000Y-55775000D03*
D18*
X248250000Y-55775000D03*
D19*
X248250000Y-55775000D03*
D11*
X254250000Y-55775000D03*
D12*
X254250000Y-55775000D03*
D13*
X254250000Y-55775000D03*
D14*
X254250000Y-55775000D03*
D15*
X254250000Y-55775000D03*
D16*
X254250000Y-55775000D03*
D17*
X254250000Y-55775000D03*
D18*
X254250000Y-55775000D03*
D19*
X254250000Y-55775000D03*
D20*
X255000000Y-58725000D03*
X255000000Y-64725000D03*
X255000000Y-70725000D03*
X255000000Y-76725000D03*
X255000000Y-82725000D03*
X255000000Y-88725000D03*
X255000000Y-94725000D03*
X255000000Y-100725000D03*
X66000000Y-99950000D03*
X66000000Y-101575000D03*
X66000000Y-63950000D03*
X66000000Y-75950000D03*
X66000000Y-93950000D03*
X66000000Y-87950000D03*
X66000000Y-57950000D03*
X66000000Y-69950000D03*
X66000000Y-81950000D03*
X72000000Y-57950000D03*
X72000000Y-63950000D03*
X72000000Y-93950000D03*
X72000000Y-69950000D03*
X72000000Y-87950000D03*
X72000000Y-101575000D03*
X72000000Y-81950000D03*
X72000000Y-99950000D03*
X72000000Y-75950000D03*
X78000000Y-63950000D03*
X78000000Y-93950000D03*
X78000000Y-87950000D03*
X78000000Y-69950000D03*
X78000000Y-99950000D03*
X78000000Y-57950000D03*
X78000000Y-81950000D03*
X78000000Y-75950000D03*
X78000000Y-101575000D03*
X84000000Y-99950000D03*
X84000000Y-75950000D03*
X84000000Y-87950000D03*
X84000000Y-81950000D03*
X84000000Y-93950000D03*
X84000000Y-57950000D03*
X84000000Y-69950000D03*
X84000000Y-63950000D03*
X84000000Y-101575000D03*
X90000000Y-57950000D03*
X90000000Y-93950000D03*
X90000000Y-99950000D03*
X90000000Y-75950000D03*
X90000000Y-81950000D03*
X90000000Y-69950000D03*
X90000000Y-87950000D03*
X90000000Y-63950000D03*
X90000000Y-101575000D03*
X96000000Y-101575000D03*
X96000000Y-75950000D03*
X96000000Y-81950000D03*
X96000000Y-99950000D03*
X96000000Y-57950000D03*
X96000000Y-63950000D03*
X96000000Y-69950000D03*
X96000000Y-93950000D03*
X96000000Y-87950000D03*
X102000000Y-81950000D03*
X102000000Y-99950000D03*
X102000000Y-63950000D03*
X102000000Y-75950000D03*
X102000000Y-87950000D03*
X102000000Y-69950000D03*
X102000000Y-57950000D03*
X102000000Y-101575000D03*
X102000000Y-93950000D03*
X108000000Y-75950000D03*
X108000000Y-57950000D03*
X108000000Y-69950000D03*
X108000000Y-63950000D03*
X108000000Y-81950000D03*
X108000000Y-99950000D03*
X108000000Y-101575000D03*
X108000000Y-87950000D03*
X108000000Y-93950000D03*
X114000000Y-99950000D03*
X114000000Y-101575000D03*
X114000000Y-69950000D03*
X114000000Y-87950000D03*
X114000000Y-93950000D03*
X114000000Y-75950000D03*
X114000000Y-81950000D03*
X114000000Y-57950000D03*
X114000000Y-63950000D03*
X120000000Y-87950000D03*
X120000000Y-81950000D03*
X120000000Y-63950000D03*
X120000000Y-57950000D03*
X120000000Y-101575000D03*
X120000000Y-75950000D03*
X120000000Y-69950000D03*
X120000000Y-99950000D03*
X120000000Y-93950000D03*
X126000000Y-101575000D03*
X126000000Y-57950000D03*
X126000000Y-93950000D03*
X126000000Y-63950000D03*
X126000000Y-99950000D03*
X126000000Y-69950000D03*
X126000000Y-81950000D03*
X126000000Y-75950000D03*
X126000000Y-87950000D03*
X132000000Y-69950000D03*
X132000000Y-63950000D03*
X132000000Y-93950000D03*
X132000000Y-75950000D03*
X132000000Y-99950000D03*
X132000000Y-81950000D03*
X132000000Y-101575000D03*
X132000000Y-87950000D03*
X132000000Y-57950000D03*
X138000000Y-75950000D03*
X138000000Y-63950000D03*
X138000000Y-93950000D03*
X138000000Y-101575000D03*
X138000000Y-87950000D03*
X138000000Y-81950000D03*
X138000000Y-69950000D03*
X138000000Y-99950000D03*
X138000000Y-57950000D03*
X144000000Y-69950000D03*
X144000000Y-63950000D03*
X144000000Y-87950000D03*
X144000000Y-101575000D03*
X144000000Y-75950000D03*
X144000000Y-57950000D03*
X144000000Y-81950000D03*
X144000000Y-99950000D03*
X144000000Y-93950000D03*
X150000000Y-75950000D03*
X150000000Y-63950000D03*
X150000000Y-87950000D03*
X150000000Y-93950000D03*
X150000000Y-101575000D03*
X150000000Y-81950000D03*
X150000000Y-57950000D03*
X150000000Y-99950000D03*
X150000000Y-69950000D03*
X156000000Y-87950000D03*
X156000000Y-57950000D03*
X156000000Y-69950000D03*
X156000000Y-99950000D03*
X156000000Y-63950000D03*
X156000000Y-101575000D03*
X156000000Y-93950000D03*
X156000000Y-75950000D03*
X156000000Y-81950000D03*
X162000000Y-75950000D03*
X162000000Y-57950000D03*
X162000000Y-81950000D03*
X162000000Y-99950000D03*
X162000000Y-101575000D03*
X162000000Y-69950000D03*
X162000000Y-87950000D03*
X162000000Y-93950000D03*
X162000000Y-63950000D03*
X168000000Y-63950000D03*
X168000000Y-99950000D03*
X168000000Y-93950000D03*
X168000000Y-101575000D03*
X168000000Y-87950000D03*
X168000000Y-75950000D03*
X168000000Y-57950000D03*
X168000000Y-81950000D03*
X168000000Y-69950000D03*
X174000000Y-81950000D03*
X174000000Y-87950000D03*
X174000000Y-57950000D03*
X174000000Y-93950000D03*
X174000000Y-99950000D03*
X174000000Y-63950000D03*
X174000000Y-101575000D03*
X174000000Y-75950000D03*
X174000000Y-69950000D03*
X180000000Y-99950000D03*
X180000000Y-75950000D03*
X180000000Y-69950000D03*
X180000000Y-57950000D03*
X180000000Y-63950000D03*
X180000000Y-101575000D03*
X180000000Y-87950000D03*
X180000000Y-81950000D03*
X180000000Y-93950000D03*
X186000000Y-101575000D03*
X186000000Y-93950000D03*
X186000000Y-63950000D03*
X186000000Y-99950000D03*
X186000000Y-69950000D03*
X186000000Y-87950000D03*
X186000000Y-57950000D03*
X186000000Y-81950000D03*
X186000000Y-75950000D03*
X192000000Y-69950000D03*
X192000000Y-63950000D03*
X192000000Y-57950000D03*
X192000000Y-87950000D03*
X192000000Y-101575000D03*
X192000000Y-99950000D03*
X192000000Y-75950000D03*
X192000000Y-81950000D03*
X192000000Y-93950000D03*
X198000000Y-69950000D03*
X198000000Y-93950000D03*
X198000000Y-101575000D03*
X198000000Y-99950000D03*
X198000000Y-57950000D03*
X198000000Y-81950000D03*
X198000000Y-87950000D03*
X198000000Y-75950000D03*
X198000000Y-63950000D03*
X204000000Y-81950000D03*
X204000000Y-99950000D03*
X204000000Y-93950000D03*
X204000000Y-87950000D03*
X204000000Y-57950000D03*
X204000000Y-101575000D03*
X204000000Y-75950000D03*
X204000000Y-63950000D03*
X204000000Y-69950000D03*
X210000000Y-81950000D03*
X210000000Y-99950000D03*
X210000000Y-57950000D03*
X210000000Y-93950000D03*
X210000000Y-87950000D03*
X210000000Y-69950000D03*
X210000000Y-63950000D03*
X210000000Y-75950000D03*
X210000000Y-101575000D03*
X216000000Y-87950000D03*
X216000000Y-69950000D03*
X216000000Y-57950000D03*
X216000000Y-81950000D03*
X216000000Y-75950000D03*
X216000000Y-93950000D03*
X216000000Y-101575000D03*
X216000000Y-99950000D03*
X216000000Y-63950000D03*
X222000000Y-81950000D03*
X222000000Y-63950000D03*
X222000000Y-93950000D03*
X222000000Y-69950000D03*
X222000000Y-57950000D03*
X222000000Y-101575000D03*
X222000000Y-99950000D03*
X222000000Y-75950000D03*
X222000000Y-87950000D03*
X228000000Y-57950000D03*
X228000000Y-69950000D03*
X228000000Y-63950000D03*
X228000000Y-93950000D03*
X228000000Y-99950000D03*
X228000000Y-75950000D03*
X228000000Y-101575000D03*
X228000000Y-81950000D03*
X228000000Y-87950000D03*
X234000000Y-101575000D03*
X234000000Y-93950000D03*
X234000000Y-63950000D03*
X234000000Y-57950000D03*
X234000000Y-69950000D03*
X234000000Y-87950000D03*
X234000000Y-99950000D03*
X234000000Y-81950000D03*
X234000000Y-75950000D03*
X240000000Y-99950000D03*
X240000000Y-101575000D03*
X240000000Y-81950000D03*
X240000000Y-75950000D03*
X240000000Y-63950000D03*
X240000000Y-57950000D03*
X240000000Y-87950000D03*
X240000000Y-93950000D03*
X240000000Y-69950000D03*
X246000000Y-101575000D03*
X246000000Y-75950000D03*
X246000000Y-87950000D03*
X246000000Y-99950000D03*
X246000000Y-93950000D03*
X246000000Y-63950000D03*
X246000000Y-57950000D03*
X246000000Y-81950000D03*
X246000000Y-69950000D03*
X252000000Y-87950000D03*
X252000000Y-57950000D03*
X252000000Y-75950000D03*
X252000000Y-99950000D03*
X252000000Y-101575000D03*
X252000000Y-63950000D03*
X252000000Y-93950000D03*
X252000000Y-69950000D03*
X252000000Y-81950000D03*
M02*
