M48
; DRILL file {KiCad 6.0.8+dfsg-1~bpo11+1} date Fri 24 Mar 2023 06:56:04 PM EDT
; FORMAT={-:-/ absolute / metric / decimal}
; #@! TF.CreationDate,2023-03-24T18:56:04-04:00
; #@! TF.GenerationSoftware,Kicad,Pcbnew,6.0.8+dfsg-1~bpo11+1
; #@! TF.FileFunction,Plated,1,2,PTH
FMAT,2
METRIC
; #@! TA.AperFunction,Plated,PTH,ViaDrill
T1C0.200
%
G90
G05
T1
X66.0Y-57.95
X66.0Y-63.95
X66.0Y-69.95
X66.0Y-75.95
X66.0Y-81.95
X66.0Y-87.95
X66.0Y-93.95
X66.0Y-99.95
X66.0Y-101.575
X72.0Y-57.95
X72.0Y-63.95
X72.0Y-69.95
X72.0Y-75.95
X72.0Y-81.95
X72.0Y-87.95
X72.0Y-93.95
X72.0Y-99.95
X72.0Y-101.575
X78.0Y-57.95
X78.0Y-63.95
X78.0Y-69.95
X78.0Y-75.95
X78.0Y-81.95
X78.0Y-87.95
X78.0Y-93.95
X78.0Y-99.95
X78.0Y-101.575
X84.0Y-57.95
X84.0Y-63.95
X84.0Y-69.95
X84.0Y-75.95
X84.0Y-81.95
X84.0Y-87.95
X84.0Y-93.95
X84.0Y-99.95
X84.0Y-101.575
X90.0Y-57.95
X90.0Y-63.95
X90.0Y-69.95
X90.0Y-75.95
X90.0Y-81.95
X90.0Y-87.95
X90.0Y-93.95
X90.0Y-99.95
X90.0Y-101.575
X96.0Y-57.95
X96.0Y-63.95
X96.0Y-69.95
X96.0Y-75.95
X96.0Y-81.95
X96.0Y-87.95
X96.0Y-93.95
X96.0Y-99.95
X96.0Y-101.575
X102.0Y-57.95
X102.0Y-63.95
X102.0Y-69.95
X102.0Y-75.95
X102.0Y-81.95
X102.0Y-87.95
X102.0Y-93.95
X102.0Y-99.95
X102.0Y-101.575
X108.0Y-57.95
X108.0Y-63.95
X108.0Y-69.95
X108.0Y-75.95
X108.0Y-81.95
X108.0Y-87.95
X108.0Y-93.95
X108.0Y-99.95
X108.0Y-101.575
X114.0Y-57.95
X114.0Y-63.95
X114.0Y-69.95
X114.0Y-75.95
X114.0Y-81.95
X114.0Y-87.95
X114.0Y-93.95
X114.0Y-99.95
X114.0Y-101.575
X120.0Y-57.95
X120.0Y-63.95
X120.0Y-69.95
X120.0Y-75.95
X120.0Y-81.95
X120.0Y-87.95
X120.0Y-93.95
X120.0Y-99.95
X120.0Y-101.575
X126.0Y-57.95
X126.0Y-63.95
X126.0Y-69.95
X126.0Y-75.95
X126.0Y-81.95
X126.0Y-87.95
X126.0Y-93.95
X126.0Y-99.95
X126.0Y-101.575
X132.0Y-57.95
X132.0Y-63.95
X132.0Y-69.95
X132.0Y-75.95
X132.0Y-81.95
X132.0Y-87.95
X132.0Y-93.95
X132.0Y-99.95
X132.0Y-101.575
X138.0Y-57.95
X138.0Y-63.95
X138.0Y-69.95
X138.0Y-75.95
X138.0Y-81.95
X138.0Y-87.95
X138.0Y-93.95
X138.0Y-99.95
X138.0Y-101.575
X144.0Y-57.95
X144.0Y-63.95
X144.0Y-69.95
X144.0Y-75.95
X144.0Y-81.95
X144.0Y-87.95
X144.0Y-93.95
X144.0Y-99.95
X144.0Y-101.575
X150.0Y-57.95
X150.0Y-63.95
X150.0Y-69.95
X150.0Y-75.95
X150.0Y-81.95
X150.0Y-87.95
X150.0Y-93.95
X150.0Y-99.95
X150.0Y-101.575
X156.0Y-57.95
X156.0Y-63.95
X156.0Y-69.95
X156.0Y-75.95
X156.0Y-81.95
X156.0Y-87.95
X156.0Y-93.95
X156.0Y-99.95
X156.0Y-101.575
X162.0Y-57.95
X162.0Y-63.95
X162.0Y-69.95
X162.0Y-75.95
X162.0Y-81.95
X162.0Y-87.95
X162.0Y-93.95
X162.0Y-99.95
X162.0Y-101.575
X168.0Y-57.95
X168.0Y-63.95
X168.0Y-69.95
X168.0Y-75.95
X168.0Y-81.95
X168.0Y-87.95
X168.0Y-93.95
X168.0Y-99.95
X168.0Y-101.575
X174.0Y-57.95
X174.0Y-63.95
X174.0Y-69.95
X174.0Y-75.95
X174.0Y-81.95
X174.0Y-87.95
X174.0Y-93.95
X174.0Y-99.95
X174.0Y-101.575
X180.0Y-57.95
X180.0Y-63.95
X180.0Y-69.95
X180.0Y-75.95
X180.0Y-81.95
X180.0Y-87.95
X180.0Y-93.95
X180.0Y-99.95
X180.0Y-101.575
X186.0Y-57.95
X186.0Y-63.95
X186.0Y-69.95
X186.0Y-75.95
X186.0Y-81.95
X186.0Y-87.95
X186.0Y-93.95
X186.0Y-99.95
X186.0Y-101.575
X192.0Y-57.95
X192.0Y-63.95
X192.0Y-69.95
X192.0Y-75.95
X192.0Y-81.95
X192.0Y-87.95
X192.0Y-93.95
X192.0Y-99.95
X192.0Y-101.575
X198.0Y-57.95
X198.0Y-63.95
X198.0Y-69.95
X198.0Y-75.95
X198.0Y-81.95
X198.0Y-87.95
X198.0Y-93.95
X198.0Y-99.95
X198.0Y-101.575
X204.0Y-57.95
X204.0Y-63.95
X204.0Y-69.95
X204.0Y-75.95
X204.0Y-81.95
X204.0Y-87.95
X204.0Y-93.95
X204.0Y-99.95
X204.0Y-101.575
X210.0Y-57.95
X210.0Y-63.95
X210.0Y-69.95
X210.0Y-75.95
X210.0Y-81.95
X210.0Y-87.95
X210.0Y-93.95
X210.0Y-99.95
X210.0Y-101.575
X216.0Y-57.95
X216.0Y-63.95
X216.0Y-69.95
X216.0Y-75.95
X216.0Y-81.95
X216.0Y-87.95
X216.0Y-93.95
X216.0Y-99.95
X216.0Y-101.575
X222.0Y-57.95
X222.0Y-63.95
X222.0Y-69.95
X222.0Y-75.95
X222.0Y-81.95
X222.0Y-87.95
X222.0Y-93.95
X222.0Y-99.95
X222.0Y-101.575
X228.0Y-57.95
X228.0Y-63.95
X228.0Y-69.95
X228.0Y-75.95
X228.0Y-81.95
X228.0Y-87.95
X228.0Y-93.95
X228.0Y-99.95
X228.0Y-101.575
X234.0Y-57.95
X234.0Y-63.95
X234.0Y-69.95
X234.0Y-75.95
X234.0Y-81.95
X234.0Y-87.95
X234.0Y-93.95
X234.0Y-99.95
X234.0Y-101.575
X240.0Y-57.95
X240.0Y-63.95
X240.0Y-69.95
X240.0Y-75.95
X240.0Y-81.95
X240.0Y-87.95
X240.0Y-93.95
X240.0Y-99.95
X240.0Y-101.575
X246.0Y-57.95
X246.0Y-63.95
X246.0Y-69.95
X246.0Y-75.95
X246.0Y-81.95
X246.0Y-87.95
X246.0Y-93.95
X246.0Y-99.95
X246.0Y-101.575
X252.0Y-57.95
X252.0Y-63.95
X252.0Y-69.95
X252.0Y-75.95
X252.0Y-81.95
X252.0Y-87.95
X252.0Y-93.95
X252.0Y-99.95
X252.0Y-101.575
X255.0Y-58.725
X255.0Y-64.725
X255.0Y-70.725
X255.0Y-76.725
X255.0Y-82.725
X255.0Y-88.725
X255.0Y-94.725
X255.0Y-100.725
T0
M30
