%TF.GenerationSoftware,KiCad,Pcbnew,6.0.8+dfsg-1~bpo11+1*%
%TF.CreationDate,2023-03-31T17:36:49-04:00*%
%TF.ProjectId,IQS550_captouch_breakout,49515335-3530-45f6-9361-70746f756368,rev?*%
%TF.SameCoordinates,Original*%
%TF.FileFunction,Drillmap*%
%TF.FilePolarity,Positive*%
%FSLAX45Y45*%
G04 Gerber Fmt 4.5, Leading zero omitted, Abs format (unit mm)*
G04 Created by KiCad (PCBNEW 6.0.8+dfsg-1~bpo11+1) date 2023-03-31 17:36:49*
%MOMM*%
%LPD*%
G01*
G04 APERTURE LIST*
%ADD10C,0.100000*%
%ADD11C,0.200000*%
%ADD12C,0.020000*%
%ADD13C,0.040000*%
G04 APERTURE END LIST*
D10*
X12727500Y-10642500D02*
X15872500Y-10642500D01*
X15872500Y-10642500D02*
X15872500Y-8420000D01*
X15872500Y-8420000D02*
X12727500Y-8420000D01*
X12727500Y-8420000D02*
X12727500Y-10642500D01*
D11*
D12*
X12927500Y-10172500D02*
X12947500Y-10192500D01*
X12947500Y-10172500D02*
X12927500Y-10192500D01*
X13217500Y-9627500D02*
X13237500Y-9647500D01*
X13237500Y-9627500D02*
X13217500Y-9647500D01*
X14002500Y-8860000D02*
X14022500Y-8880000D01*
X14022500Y-8860000D02*
X14002500Y-8880000D01*
X14227500Y-9327500D02*
X14247500Y-9347500D01*
X14247500Y-9327500D02*
X14227500Y-9347500D01*
X14232500Y-8872500D02*
X14252500Y-8892500D01*
X14252500Y-8872500D02*
X14232500Y-8892500D01*
X14457500Y-9077500D02*
X14477500Y-9097500D01*
X14477500Y-9077500D02*
X14457500Y-9097500D01*
X14480000Y-9615000D02*
X14500000Y-9635000D01*
X14500000Y-9615000D02*
X14480000Y-9635000D01*
X14502500Y-10162500D02*
X14522500Y-10182500D01*
X14522500Y-10162500D02*
X14502500Y-10182500D01*
X14665000Y-8882500D02*
X14685000Y-8902500D01*
X14685000Y-8882500D02*
X14665000Y-8902500D01*
X14677500Y-9332500D02*
X14697500Y-9352500D01*
X14697500Y-9332500D02*
X14677500Y-9352500D01*
D13*
X14025000Y-9892500D02*
G75*
G03*
X14025000Y-9892500I-20000J0D01*
G01*
D10*
X13872500Y-10390000D02*
X13872500Y-10490000D01*
X13822500Y-10440000D02*
X13922500Y-10440000D01*
X14126500Y-10390000D02*
X14126500Y-10490000D01*
X14076500Y-10440000D02*
X14176500Y-10440000D01*
X14380500Y-10390000D02*
X14380500Y-10490000D01*
X14330500Y-10440000D02*
X14430500Y-10440000D01*
X14634500Y-10390000D02*
X14634500Y-10490000D01*
X14584500Y-10440000D02*
X14684500Y-10440000D01*
X14888500Y-10390000D02*
X14888500Y-10490000D01*
X14838500Y-10440000D02*
X14938500Y-10440000D01*
D11*
X12980119Y-10957976D02*
X12980119Y-10757976D01*
X13027738Y-10757976D01*
X13056309Y-10767500D01*
X13075357Y-10786548D01*
X13084881Y-10805595D01*
X13094405Y-10843690D01*
X13094405Y-10872262D01*
X13084881Y-10910357D01*
X13075357Y-10929405D01*
X13056309Y-10948452D01*
X13027738Y-10957976D01*
X12980119Y-10957976D01*
X13180119Y-10957976D02*
X13180119Y-10824643D01*
X13180119Y-10862738D02*
X13189643Y-10843690D01*
X13199167Y-10834167D01*
X13218214Y-10824643D01*
X13237262Y-10824643D01*
X13303928Y-10957976D02*
X13303928Y-10824643D01*
X13303928Y-10757976D02*
X13294405Y-10767500D01*
X13303928Y-10777024D01*
X13313452Y-10767500D01*
X13303928Y-10757976D01*
X13303928Y-10777024D01*
X13427738Y-10957976D02*
X13408690Y-10948452D01*
X13399167Y-10929405D01*
X13399167Y-10757976D01*
X13532500Y-10957976D02*
X13513452Y-10948452D01*
X13503928Y-10929405D01*
X13503928Y-10757976D01*
X13761071Y-10957976D02*
X13761071Y-10757976D01*
X13827738Y-10900833D01*
X13894405Y-10757976D01*
X13894405Y-10957976D01*
X14075357Y-10957976D02*
X14075357Y-10853214D01*
X14065833Y-10834167D01*
X14046786Y-10824643D01*
X14008690Y-10824643D01*
X13989643Y-10834167D01*
X14075357Y-10948452D02*
X14056309Y-10957976D01*
X14008690Y-10957976D01*
X13989643Y-10948452D01*
X13980119Y-10929405D01*
X13980119Y-10910357D01*
X13989643Y-10891310D01*
X14008690Y-10881786D01*
X14056309Y-10881786D01*
X14075357Y-10872262D01*
X14170595Y-10824643D02*
X14170595Y-11024643D01*
X14170595Y-10834167D02*
X14189643Y-10824643D01*
X14227738Y-10824643D01*
X14246786Y-10834167D01*
X14256309Y-10843690D01*
X14265833Y-10862738D01*
X14265833Y-10919881D01*
X14256309Y-10938929D01*
X14246786Y-10948452D01*
X14227738Y-10957976D01*
X14189643Y-10957976D01*
X14170595Y-10948452D01*
X14351548Y-10938929D02*
X14361071Y-10948452D01*
X14351548Y-10957976D01*
X14342024Y-10948452D01*
X14351548Y-10938929D01*
X14351548Y-10957976D01*
X14351548Y-10834167D02*
X14361071Y-10843690D01*
X14351548Y-10853214D01*
X14342024Y-10843690D01*
X14351548Y-10834167D01*
X14351548Y-10853214D01*
D12*
X12702500Y-11277500D02*
X12722500Y-11297500D01*
X12722500Y-11277500D02*
X12702500Y-11297500D01*
D11*
X13018214Y-11177976D02*
X13037262Y-11177976D01*
X13056309Y-11187500D01*
X13065833Y-11197024D01*
X13075357Y-11216071D01*
X13084881Y-11254167D01*
X13084881Y-11301786D01*
X13075357Y-11339881D01*
X13065833Y-11358928D01*
X13056309Y-11368452D01*
X13037262Y-11377976D01*
X13018214Y-11377976D01*
X12999167Y-11368452D01*
X12989643Y-11358928D01*
X12980119Y-11339881D01*
X12970595Y-11301786D01*
X12970595Y-11254167D01*
X12980119Y-11216071D01*
X12989643Y-11197024D01*
X12999167Y-11187500D01*
X13018214Y-11177976D01*
X13170595Y-11358928D02*
X13180119Y-11368452D01*
X13170595Y-11377976D01*
X13161071Y-11368452D01*
X13170595Y-11358928D01*
X13170595Y-11377976D01*
X13256309Y-11197024D02*
X13265833Y-11187500D01*
X13284881Y-11177976D01*
X13332500Y-11177976D01*
X13351548Y-11187500D01*
X13361071Y-11197024D01*
X13370595Y-11216071D01*
X13370595Y-11235119D01*
X13361071Y-11263690D01*
X13246786Y-11377976D01*
X13370595Y-11377976D01*
X13494405Y-11177976D02*
X13513452Y-11177976D01*
X13532500Y-11187500D01*
X13542024Y-11197024D01*
X13551548Y-11216071D01*
X13561071Y-11254167D01*
X13561071Y-11301786D01*
X13551548Y-11339881D01*
X13542024Y-11358928D01*
X13532500Y-11368452D01*
X13513452Y-11377976D01*
X13494405Y-11377976D01*
X13475357Y-11368452D01*
X13465833Y-11358928D01*
X13456309Y-11339881D01*
X13446786Y-11301786D01*
X13446786Y-11254167D01*
X13456309Y-11216071D01*
X13465833Y-11197024D01*
X13475357Y-11187500D01*
X13494405Y-11177976D01*
X13684881Y-11177976D02*
X13703928Y-11177976D01*
X13722976Y-11187500D01*
X13732500Y-11197024D01*
X13742024Y-11216071D01*
X13751548Y-11254167D01*
X13751548Y-11301786D01*
X13742024Y-11339881D01*
X13732500Y-11358928D01*
X13722976Y-11368452D01*
X13703928Y-11377976D01*
X13684881Y-11377976D01*
X13665833Y-11368452D01*
X13656309Y-11358928D01*
X13646786Y-11339881D01*
X13637262Y-11301786D01*
X13637262Y-11254167D01*
X13646786Y-11216071D01*
X13656309Y-11197024D01*
X13665833Y-11187500D01*
X13684881Y-11177976D01*
X13837262Y-11377976D02*
X13837262Y-11244643D01*
X13837262Y-11263690D02*
X13846786Y-11254167D01*
X13865833Y-11244643D01*
X13894405Y-11244643D01*
X13913452Y-11254167D01*
X13922976Y-11273214D01*
X13922976Y-11377976D01*
X13922976Y-11273214D02*
X13932500Y-11254167D01*
X13951548Y-11244643D01*
X13980119Y-11244643D01*
X13999167Y-11254167D01*
X14008690Y-11273214D01*
X14008690Y-11377976D01*
X14103928Y-11377976D02*
X14103928Y-11244643D01*
X14103928Y-11263690D02*
X14113452Y-11254167D01*
X14132500Y-11244643D01*
X14161071Y-11244643D01*
X14180119Y-11254167D01*
X14189643Y-11273214D01*
X14189643Y-11377976D01*
X14189643Y-11273214D02*
X14199167Y-11254167D01*
X14218214Y-11244643D01*
X14246786Y-11244643D01*
X14265833Y-11254167D01*
X14275357Y-11273214D01*
X14275357Y-11377976D01*
X14665833Y-11168452D02*
X14494405Y-11425595D01*
X14922976Y-11177976D02*
X14942024Y-11177976D01*
X14961071Y-11187500D01*
X14970595Y-11197024D01*
X14980119Y-11216071D01*
X14989643Y-11254167D01*
X14989643Y-11301786D01*
X14980119Y-11339881D01*
X14970595Y-11358928D01*
X14961071Y-11368452D01*
X14942024Y-11377976D01*
X14922976Y-11377976D01*
X14903928Y-11368452D01*
X14894405Y-11358928D01*
X14884881Y-11339881D01*
X14875357Y-11301786D01*
X14875357Y-11254167D01*
X14884881Y-11216071D01*
X14894405Y-11197024D01*
X14903928Y-11187500D01*
X14922976Y-11177976D01*
X15075357Y-11358928D02*
X15084881Y-11368452D01*
X15075357Y-11377976D01*
X15065833Y-11368452D01*
X15075357Y-11358928D01*
X15075357Y-11377976D01*
X15208690Y-11177976D02*
X15227738Y-11177976D01*
X15246786Y-11187500D01*
X15256309Y-11197024D01*
X15265833Y-11216071D01*
X15275357Y-11254167D01*
X15275357Y-11301786D01*
X15265833Y-11339881D01*
X15256309Y-11358928D01*
X15246786Y-11368452D01*
X15227738Y-11377976D01*
X15208690Y-11377976D01*
X15189643Y-11368452D01*
X15180119Y-11358928D01*
X15170595Y-11339881D01*
X15161071Y-11301786D01*
X15161071Y-11254167D01*
X15170595Y-11216071D01*
X15180119Y-11197024D01*
X15189643Y-11187500D01*
X15208690Y-11177976D01*
X15399167Y-11177976D02*
X15418214Y-11177976D01*
X15437262Y-11187500D01*
X15446786Y-11197024D01*
X15456309Y-11216071D01*
X15465833Y-11254167D01*
X15465833Y-11301786D01*
X15456309Y-11339881D01*
X15446786Y-11358928D01*
X15437262Y-11368452D01*
X15418214Y-11377976D01*
X15399167Y-11377976D01*
X15380119Y-11368452D01*
X15370595Y-11358928D01*
X15361071Y-11339881D01*
X15351548Y-11301786D01*
X15351548Y-11254167D01*
X15361071Y-11216071D01*
X15370595Y-11197024D01*
X15380119Y-11187500D01*
X15399167Y-11177976D01*
X15532500Y-11177976D02*
X15665833Y-11177976D01*
X15580119Y-11377976D01*
X15751548Y-11377976D02*
X15789643Y-11377976D01*
X15808690Y-11368452D01*
X15818214Y-11358928D01*
X15837262Y-11330357D01*
X15846786Y-11292262D01*
X15846786Y-11216071D01*
X15837262Y-11197024D01*
X15827738Y-11187500D01*
X15808690Y-11177976D01*
X15770595Y-11177976D01*
X15751548Y-11187500D01*
X15742024Y-11197024D01*
X15732500Y-11216071D01*
X15732500Y-11263690D01*
X15742024Y-11282738D01*
X15751548Y-11292262D01*
X15770595Y-11301786D01*
X15808690Y-11301786D01*
X15827738Y-11292262D01*
X15837262Y-11282738D01*
X15846786Y-11263690D01*
X15922976Y-11177976D02*
X15922976Y-11216071D01*
X15999167Y-11177976D02*
X15999167Y-11216071D01*
X16294405Y-11454167D02*
X16284881Y-11444643D01*
X16265833Y-11416071D01*
X16256309Y-11397024D01*
X16246786Y-11368452D01*
X16237262Y-11320833D01*
X16237262Y-11282738D01*
X16246786Y-11235119D01*
X16256309Y-11206548D01*
X16265833Y-11187500D01*
X16284881Y-11158929D01*
X16294405Y-11149405D01*
X16475357Y-11377976D02*
X16361071Y-11377976D01*
X16418214Y-11377976D02*
X16418214Y-11177976D01*
X16399167Y-11206548D01*
X16380119Y-11225595D01*
X16361071Y-11235119D01*
X16599167Y-11177976D02*
X16618214Y-11177976D01*
X16637262Y-11187500D01*
X16646786Y-11197024D01*
X16656309Y-11216071D01*
X16665833Y-11254167D01*
X16665833Y-11301786D01*
X16656309Y-11339881D01*
X16646786Y-11358928D01*
X16637262Y-11368452D01*
X16618214Y-11377976D01*
X16599167Y-11377976D01*
X16580119Y-11368452D01*
X16570595Y-11358928D01*
X16561071Y-11339881D01*
X16551548Y-11301786D01*
X16551548Y-11254167D01*
X16561071Y-11216071D01*
X16570595Y-11197024D01*
X16580119Y-11187500D01*
X16599167Y-11177976D01*
X16903929Y-11377976D02*
X16903929Y-11177976D01*
X16989643Y-11377976D02*
X16989643Y-11273214D01*
X16980119Y-11254167D01*
X16961071Y-11244643D01*
X16932500Y-11244643D01*
X16913452Y-11254167D01*
X16903929Y-11263690D01*
X17113452Y-11377976D02*
X17094405Y-11368452D01*
X17084881Y-11358928D01*
X17075357Y-11339881D01*
X17075357Y-11282738D01*
X17084881Y-11263690D01*
X17094405Y-11254167D01*
X17113452Y-11244643D01*
X17142024Y-11244643D01*
X17161071Y-11254167D01*
X17170595Y-11263690D01*
X17180119Y-11282738D01*
X17180119Y-11339881D01*
X17170595Y-11358928D01*
X17161071Y-11368452D01*
X17142024Y-11377976D01*
X17113452Y-11377976D01*
X17294405Y-11377976D02*
X17275357Y-11368452D01*
X17265833Y-11349405D01*
X17265833Y-11177976D01*
X17446786Y-11368452D02*
X17427738Y-11377976D01*
X17389643Y-11377976D01*
X17370595Y-11368452D01*
X17361071Y-11349405D01*
X17361071Y-11273214D01*
X17370595Y-11254167D01*
X17389643Y-11244643D01*
X17427738Y-11244643D01*
X17446786Y-11254167D01*
X17456310Y-11273214D01*
X17456310Y-11292262D01*
X17361071Y-11311309D01*
X17532500Y-11368452D02*
X17551548Y-11377976D01*
X17589643Y-11377976D01*
X17608690Y-11368452D01*
X17618214Y-11349405D01*
X17618214Y-11339881D01*
X17608690Y-11320833D01*
X17589643Y-11311309D01*
X17561071Y-11311309D01*
X17542024Y-11301786D01*
X17532500Y-11282738D01*
X17532500Y-11273214D01*
X17542024Y-11254167D01*
X17561071Y-11244643D01*
X17589643Y-11244643D01*
X17608690Y-11254167D01*
X17684881Y-11454167D02*
X17694405Y-11444643D01*
X17713452Y-11416071D01*
X17722976Y-11397024D01*
X17732500Y-11368452D01*
X17742024Y-11320833D01*
X17742024Y-11282738D01*
X17732500Y-11235119D01*
X17722976Y-11206548D01*
X17713452Y-11187500D01*
X17694405Y-11158929D01*
X17684881Y-11149405D01*
D13*
X12722500Y-11551500D02*
G75*
G03*
X12722500Y-11551500I-20000J0D01*
G01*
D11*
X13018214Y-11441976D02*
X13037262Y-11441976D01*
X13056309Y-11451500D01*
X13065833Y-11461024D01*
X13075357Y-11480071D01*
X13084881Y-11518167D01*
X13084881Y-11565786D01*
X13075357Y-11603881D01*
X13065833Y-11622928D01*
X13056309Y-11632452D01*
X13037262Y-11641976D01*
X13018214Y-11641976D01*
X12999167Y-11632452D01*
X12989643Y-11622928D01*
X12980119Y-11603881D01*
X12970595Y-11565786D01*
X12970595Y-11518167D01*
X12980119Y-11480071D01*
X12989643Y-11461024D01*
X12999167Y-11451500D01*
X13018214Y-11441976D01*
X13170595Y-11622928D02*
X13180119Y-11632452D01*
X13170595Y-11641976D01*
X13161071Y-11632452D01*
X13170595Y-11622928D01*
X13170595Y-11641976D01*
X13351548Y-11508643D02*
X13351548Y-11641976D01*
X13303928Y-11432452D02*
X13256309Y-11575309D01*
X13380119Y-11575309D01*
X13494405Y-11441976D02*
X13513452Y-11441976D01*
X13532500Y-11451500D01*
X13542024Y-11461024D01*
X13551548Y-11480071D01*
X13561071Y-11518167D01*
X13561071Y-11565786D01*
X13551548Y-11603881D01*
X13542024Y-11622928D01*
X13532500Y-11632452D01*
X13513452Y-11641976D01*
X13494405Y-11641976D01*
X13475357Y-11632452D01*
X13465833Y-11622928D01*
X13456309Y-11603881D01*
X13446786Y-11565786D01*
X13446786Y-11518167D01*
X13456309Y-11480071D01*
X13465833Y-11461024D01*
X13475357Y-11451500D01*
X13494405Y-11441976D01*
X13684881Y-11441976D02*
X13703928Y-11441976D01*
X13722976Y-11451500D01*
X13732500Y-11461024D01*
X13742024Y-11480071D01*
X13751548Y-11518167D01*
X13751548Y-11565786D01*
X13742024Y-11603881D01*
X13732500Y-11622928D01*
X13722976Y-11632452D01*
X13703928Y-11641976D01*
X13684881Y-11641976D01*
X13665833Y-11632452D01*
X13656309Y-11622928D01*
X13646786Y-11603881D01*
X13637262Y-11565786D01*
X13637262Y-11518167D01*
X13646786Y-11480071D01*
X13656309Y-11461024D01*
X13665833Y-11451500D01*
X13684881Y-11441976D01*
X13837262Y-11641976D02*
X13837262Y-11508643D01*
X13837262Y-11527690D02*
X13846786Y-11518167D01*
X13865833Y-11508643D01*
X13894405Y-11508643D01*
X13913452Y-11518167D01*
X13922976Y-11537214D01*
X13922976Y-11641976D01*
X13922976Y-11537214D02*
X13932500Y-11518167D01*
X13951548Y-11508643D01*
X13980119Y-11508643D01*
X13999167Y-11518167D01*
X14008690Y-11537214D01*
X14008690Y-11641976D01*
X14103928Y-11641976D02*
X14103928Y-11508643D01*
X14103928Y-11527690D02*
X14113452Y-11518167D01*
X14132500Y-11508643D01*
X14161071Y-11508643D01*
X14180119Y-11518167D01*
X14189643Y-11537214D01*
X14189643Y-11641976D01*
X14189643Y-11537214D02*
X14199167Y-11518167D01*
X14218214Y-11508643D01*
X14246786Y-11508643D01*
X14265833Y-11518167D01*
X14275357Y-11537214D01*
X14275357Y-11641976D01*
X14665833Y-11432452D02*
X14494405Y-11689595D01*
X14922976Y-11441976D02*
X14942024Y-11441976D01*
X14961071Y-11451500D01*
X14970595Y-11461024D01*
X14980119Y-11480071D01*
X14989643Y-11518167D01*
X14989643Y-11565786D01*
X14980119Y-11603881D01*
X14970595Y-11622928D01*
X14961071Y-11632452D01*
X14942024Y-11641976D01*
X14922976Y-11641976D01*
X14903928Y-11632452D01*
X14894405Y-11622928D01*
X14884881Y-11603881D01*
X14875357Y-11565786D01*
X14875357Y-11518167D01*
X14884881Y-11480071D01*
X14894405Y-11461024D01*
X14903928Y-11451500D01*
X14922976Y-11441976D01*
X15075357Y-11622928D02*
X15084881Y-11632452D01*
X15075357Y-11641976D01*
X15065833Y-11632452D01*
X15075357Y-11622928D01*
X15075357Y-11641976D01*
X15208690Y-11441976D02*
X15227738Y-11441976D01*
X15246786Y-11451500D01*
X15256309Y-11461024D01*
X15265833Y-11480071D01*
X15275357Y-11518167D01*
X15275357Y-11565786D01*
X15265833Y-11603881D01*
X15256309Y-11622928D01*
X15246786Y-11632452D01*
X15227738Y-11641976D01*
X15208690Y-11641976D01*
X15189643Y-11632452D01*
X15180119Y-11622928D01*
X15170595Y-11603881D01*
X15161071Y-11565786D01*
X15161071Y-11518167D01*
X15170595Y-11480071D01*
X15180119Y-11461024D01*
X15189643Y-11451500D01*
X15208690Y-11441976D01*
X15465833Y-11641976D02*
X15351548Y-11641976D01*
X15408690Y-11641976D02*
X15408690Y-11441976D01*
X15389643Y-11470548D01*
X15370595Y-11489595D01*
X15351548Y-11499119D01*
X15646786Y-11441976D02*
X15551548Y-11441976D01*
X15542024Y-11537214D01*
X15551548Y-11527690D01*
X15570595Y-11518167D01*
X15618214Y-11518167D01*
X15637262Y-11527690D01*
X15646786Y-11537214D01*
X15656309Y-11556262D01*
X15656309Y-11603881D01*
X15646786Y-11622928D01*
X15637262Y-11632452D01*
X15618214Y-11641976D01*
X15570595Y-11641976D01*
X15551548Y-11632452D01*
X15542024Y-11622928D01*
X15722976Y-11441976D02*
X15856309Y-11441976D01*
X15770595Y-11641976D01*
X15922976Y-11441976D02*
X15922976Y-11480071D01*
X15999167Y-11441976D02*
X15999167Y-11480071D01*
X16294405Y-11718167D02*
X16284881Y-11708643D01*
X16265833Y-11680071D01*
X16256309Y-11661024D01*
X16246786Y-11632452D01*
X16237262Y-11584833D01*
X16237262Y-11546738D01*
X16246786Y-11499119D01*
X16256309Y-11470548D01*
X16265833Y-11451500D01*
X16284881Y-11422928D01*
X16294405Y-11413405D01*
X16475357Y-11641976D02*
X16361071Y-11641976D01*
X16418214Y-11641976D02*
X16418214Y-11441976D01*
X16399167Y-11470548D01*
X16380119Y-11489595D01*
X16361071Y-11499119D01*
X16713452Y-11641976D02*
X16713452Y-11441976D01*
X16799167Y-11641976D02*
X16799167Y-11537214D01*
X16789643Y-11518167D01*
X16770595Y-11508643D01*
X16742024Y-11508643D01*
X16722976Y-11518167D01*
X16713452Y-11527690D01*
X16922976Y-11641976D02*
X16903929Y-11632452D01*
X16894405Y-11622928D01*
X16884881Y-11603881D01*
X16884881Y-11546738D01*
X16894405Y-11527690D01*
X16903929Y-11518167D01*
X16922976Y-11508643D01*
X16951548Y-11508643D01*
X16970595Y-11518167D01*
X16980119Y-11527690D01*
X16989643Y-11546738D01*
X16989643Y-11603881D01*
X16980119Y-11622928D01*
X16970595Y-11632452D01*
X16951548Y-11641976D01*
X16922976Y-11641976D01*
X17103929Y-11641976D02*
X17084881Y-11632452D01*
X17075357Y-11613405D01*
X17075357Y-11441976D01*
X17256310Y-11632452D02*
X17237262Y-11641976D01*
X17199167Y-11641976D01*
X17180119Y-11632452D01*
X17170595Y-11613405D01*
X17170595Y-11537214D01*
X17180119Y-11518167D01*
X17199167Y-11508643D01*
X17237262Y-11508643D01*
X17256310Y-11518167D01*
X17265833Y-11537214D01*
X17265833Y-11556262D01*
X17170595Y-11575309D01*
X17332500Y-11718167D02*
X17342024Y-11708643D01*
X17361071Y-11680071D01*
X17370595Y-11661024D01*
X17380119Y-11632452D01*
X17389643Y-11584833D01*
X17389643Y-11546738D01*
X17380119Y-11499119D01*
X17370595Y-11470548D01*
X17361071Y-11451500D01*
X17342024Y-11422928D01*
X17332500Y-11413405D01*
D10*
X12672500Y-11765500D02*
X12672500Y-11865500D01*
X12622500Y-11815500D02*
X12722500Y-11815500D01*
D11*
X13084881Y-11905976D02*
X12970595Y-11905976D01*
X13027738Y-11905976D02*
X13027738Y-11705976D01*
X13008690Y-11734548D01*
X12989643Y-11753595D01*
X12970595Y-11763119D01*
X13170595Y-11886928D02*
X13180119Y-11896452D01*
X13170595Y-11905976D01*
X13161071Y-11896452D01*
X13170595Y-11886928D01*
X13170595Y-11905976D01*
X13303928Y-11705976D02*
X13322976Y-11705976D01*
X13342024Y-11715500D01*
X13351548Y-11725024D01*
X13361071Y-11744071D01*
X13370595Y-11782167D01*
X13370595Y-11829786D01*
X13361071Y-11867881D01*
X13351548Y-11886928D01*
X13342024Y-11896452D01*
X13322976Y-11905976D01*
X13303928Y-11905976D01*
X13284881Y-11896452D01*
X13275357Y-11886928D01*
X13265833Y-11867881D01*
X13256309Y-11829786D01*
X13256309Y-11782167D01*
X13265833Y-11744071D01*
X13275357Y-11725024D01*
X13284881Y-11715500D01*
X13303928Y-11705976D01*
X13494405Y-11705976D02*
X13513452Y-11705976D01*
X13532500Y-11715500D01*
X13542024Y-11725024D01*
X13551548Y-11744071D01*
X13561071Y-11782167D01*
X13561071Y-11829786D01*
X13551548Y-11867881D01*
X13542024Y-11886928D01*
X13532500Y-11896452D01*
X13513452Y-11905976D01*
X13494405Y-11905976D01*
X13475357Y-11896452D01*
X13465833Y-11886928D01*
X13456309Y-11867881D01*
X13446786Y-11829786D01*
X13446786Y-11782167D01*
X13456309Y-11744071D01*
X13465833Y-11725024D01*
X13475357Y-11715500D01*
X13494405Y-11705976D01*
X13684881Y-11705976D02*
X13703928Y-11705976D01*
X13722976Y-11715500D01*
X13732500Y-11725024D01*
X13742024Y-11744071D01*
X13751548Y-11782167D01*
X13751548Y-11829786D01*
X13742024Y-11867881D01*
X13732500Y-11886928D01*
X13722976Y-11896452D01*
X13703928Y-11905976D01*
X13684881Y-11905976D01*
X13665833Y-11896452D01*
X13656309Y-11886928D01*
X13646786Y-11867881D01*
X13637262Y-11829786D01*
X13637262Y-11782167D01*
X13646786Y-11744071D01*
X13656309Y-11725024D01*
X13665833Y-11715500D01*
X13684881Y-11705976D01*
X13837262Y-11905976D02*
X13837262Y-11772643D01*
X13837262Y-11791690D02*
X13846786Y-11782167D01*
X13865833Y-11772643D01*
X13894405Y-11772643D01*
X13913452Y-11782167D01*
X13922976Y-11801214D01*
X13922976Y-11905976D01*
X13922976Y-11801214D02*
X13932500Y-11782167D01*
X13951548Y-11772643D01*
X13980119Y-11772643D01*
X13999167Y-11782167D01*
X14008690Y-11801214D01*
X14008690Y-11905976D01*
X14103928Y-11905976D02*
X14103928Y-11772643D01*
X14103928Y-11791690D02*
X14113452Y-11782167D01*
X14132500Y-11772643D01*
X14161071Y-11772643D01*
X14180119Y-11782167D01*
X14189643Y-11801214D01*
X14189643Y-11905976D01*
X14189643Y-11801214D02*
X14199167Y-11782167D01*
X14218214Y-11772643D01*
X14246786Y-11772643D01*
X14265833Y-11782167D01*
X14275357Y-11801214D01*
X14275357Y-11905976D01*
X14665833Y-11696452D02*
X14494405Y-11953595D01*
X14922976Y-11705976D02*
X14942024Y-11705976D01*
X14961071Y-11715500D01*
X14970595Y-11725024D01*
X14980119Y-11744071D01*
X14989643Y-11782167D01*
X14989643Y-11829786D01*
X14980119Y-11867881D01*
X14970595Y-11886928D01*
X14961071Y-11896452D01*
X14942024Y-11905976D01*
X14922976Y-11905976D01*
X14903928Y-11896452D01*
X14894405Y-11886928D01*
X14884881Y-11867881D01*
X14875357Y-11829786D01*
X14875357Y-11782167D01*
X14884881Y-11744071D01*
X14894405Y-11725024D01*
X14903928Y-11715500D01*
X14922976Y-11705976D01*
X15075357Y-11886928D02*
X15084881Y-11896452D01*
X15075357Y-11905976D01*
X15065833Y-11896452D01*
X15075357Y-11886928D01*
X15075357Y-11905976D01*
X15208690Y-11705976D02*
X15227738Y-11705976D01*
X15246786Y-11715500D01*
X15256309Y-11725024D01*
X15265833Y-11744071D01*
X15275357Y-11782167D01*
X15275357Y-11829786D01*
X15265833Y-11867881D01*
X15256309Y-11886928D01*
X15246786Y-11896452D01*
X15227738Y-11905976D01*
X15208690Y-11905976D01*
X15189643Y-11896452D01*
X15180119Y-11886928D01*
X15170595Y-11867881D01*
X15161071Y-11829786D01*
X15161071Y-11782167D01*
X15170595Y-11744071D01*
X15180119Y-11725024D01*
X15189643Y-11715500D01*
X15208690Y-11705976D01*
X15342024Y-11705976D02*
X15465833Y-11705976D01*
X15399167Y-11782167D01*
X15427738Y-11782167D01*
X15446786Y-11791690D01*
X15456309Y-11801214D01*
X15465833Y-11820262D01*
X15465833Y-11867881D01*
X15456309Y-11886928D01*
X15446786Y-11896452D01*
X15427738Y-11905976D01*
X15370595Y-11905976D01*
X15351548Y-11896452D01*
X15342024Y-11886928D01*
X15561071Y-11905976D02*
X15599167Y-11905976D01*
X15618214Y-11896452D01*
X15627738Y-11886928D01*
X15646786Y-11858357D01*
X15656309Y-11820262D01*
X15656309Y-11744071D01*
X15646786Y-11725024D01*
X15637262Y-11715500D01*
X15618214Y-11705976D01*
X15580119Y-11705976D01*
X15561071Y-11715500D01*
X15551548Y-11725024D01*
X15542024Y-11744071D01*
X15542024Y-11791690D01*
X15551548Y-11810738D01*
X15561071Y-11820262D01*
X15580119Y-11829786D01*
X15618214Y-11829786D01*
X15637262Y-11820262D01*
X15646786Y-11810738D01*
X15656309Y-11791690D01*
X15827738Y-11772643D02*
X15827738Y-11905976D01*
X15780119Y-11696452D02*
X15732500Y-11839309D01*
X15856309Y-11839309D01*
X15922976Y-11705976D02*
X15922976Y-11744071D01*
X15999167Y-11705976D02*
X15999167Y-11744071D01*
X16294405Y-11982167D02*
X16284881Y-11972643D01*
X16265833Y-11944071D01*
X16256309Y-11925024D01*
X16246786Y-11896452D01*
X16237262Y-11848833D01*
X16237262Y-11810738D01*
X16246786Y-11763119D01*
X16256309Y-11734548D01*
X16265833Y-11715500D01*
X16284881Y-11686928D01*
X16294405Y-11677405D01*
X16465833Y-11705976D02*
X16370595Y-11705976D01*
X16361071Y-11801214D01*
X16370595Y-11791690D01*
X16389643Y-11782167D01*
X16437262Y-11782167D01*
X16456309Y-11791690D01*
X16465833Y-11801214D01*
X16475357Y-11820262D01*
X16475357Y-11867881D01*
X16465833Y-11886928D01*
X16456309Y-11896452D01*
X16437262Y-11905976D01*
X16389643Y-11905976D01*
X16370595Y-11896452D01*
X16361071Y-11886928D01*
X16713452Y-11905976D02*
X16713452Y-11705976D01*
X16799167Y-11905976D02*
X16799167Y-11801214D01*
X16789643Y-11782167D01*
X16770595Y-11772643D01*
X16742024Y-11772643D01*
X16722976Y-11782167D01*
X16713452Y-11791690D01*
X16922976Y-11905976D02*
X16903929Y-11896452D01*
X16894405Y-11886928D01*
X16884881Y-11867881D01*
X16884881Y-11810738D01*
X16894405Y-11791690D01*
X16903929Y-11782167D01*
X16922976Y-11772643D01*
X16951548Y-11772643D01*
X16970595Y-11782167D01*
X16980119Y-11791690D01*
X16989643Y-11810738D01*
X16989643Y-11867881D01*
X16980119Y-11886928D01*
X16970595Y-11896452D01*
X16951548Y-11905976D01*
X16922976Y-11905976D01*
X17103929Y-11905976D02*
X17084881Y-11896452D01*
X17075357Y-11877405D01*
X17075357Y-11705976D01*
X17256310Y-11896452D02*
X17237262Y-11905976D01*
X17199167Y-11905976D01*
X17180119Y-11896452D01*
X17170595Y-11877405D01*
X17170595Y-11801214D01*
X17180119Y-11782167D01*
X17199167Y-11772643D01*
X17237262Y-11772643D01*
X17256310Y-11782167D01*
X17265833Y-11801214D01*
X17265833Y-11820262D01*
X17170595Y-11839309D01*
X17342024Y-11896452D02*
X17361071Y-11905976D01*
X17399167Y-11905976D01*
X17418214Y-11896452D01*
X17427738Y-11877405D01*
X17427738Y-11867881D01*
X17418214Y-11848833D01*
X17399167Y-11839309D01*
X17370595Y-11839309D01*
X17351548Y-11829786D01*
X17342024Y-11810738D01*
X17342024Y-11801214D01*
X17351548Y-11782167D01*
X17370595Y-11772643D01*
X17399167Y-11772643D01*
X17418214Y-11782167D01*
X17494405Y-11982167D02*
X17503929Y-11972643D01*
X17522976Y-11944071D01*
X17532500Y-11925024D01*
X17542024Y-11896452D01*
X17551548Y-11848833D01*
X17551548Y-11810738D01*
X17542024Y-11763119D01*
X17532500Y-11734548D01*
X17522976Y-11715500D01*
X17503929Y-11686928D01*
X17494405Y-11677405D01*
M02*
