M48
; DRILL file {KiCad 6.0.8+dfsg-1~bpo11+1} date Mon 19 Jun 2023 10:01:33 AM EDT
; FORMAT={-:-/ absolute / metric / decimal}
; #@! TF.CreationDate,2023-06-19T10:01:33-04:00
; #@! TF.GenerationSoftware,Kicad,Pcbnew,6.0.8+dfsg-1~bpo11+1
; #@! TF.FileFunction,Plated,1,2,PTH
FMAT,2
METRIC
; #@! TA.AperFunction,Plated,PTH,ViaDrill
T1C0.200
%
G90
G05
T1
X64.1Y-58.99
X64.1Y-64.99
X64.1Y-70.99
X64.1Y-76.99
X64.1Y-82.99
X64.1Y-88.99
X64.1Y-94.99
X64.1Y-100.99
X66.075Y-56.05
X68.08Y-59.0
X68.08Y-65.0
X68.08Y-71.0
X68.08Y-77.0
X68.08Y-83.0
X68.08Y-89.0
X68.08Y-95.0
X68.08Y-101.0
X70.1Y-58.99
X70.1Y-64.99
X70.1Y-70.99
X70.1Y-76.99
X70.1Y-82.99
X70.1Y-88.99
X70.1Y-94.99
X70.1Y-100.99
X72.075Y-56.05
X74.08Y-59.0
X74.08Y-65.0
X74.08Y-71.0
X74.08Y-77.0
X74.08Y-83.0
X74.08Y-89.0
X74.08Y-95.0
X74.08Y-101.0
X76.1Y-58.99
X76.1Y-64.99
X76.1Y-70.99
X76.1Y-76.99
X76.1Y-82.99
X76.1Y-88.99
X76.1Y-94.99
X76.1Y-100.99
X78.075Y-56.05
X80.08Y-59.0
X80.08Y-65.0
X80.08Y-71.0
X80.08Y-77.0
X80.08Y-83.0
X80.08Y-89.0
X80.08Y-95.0
X80.08Y-101.0
X82.1Y-58.99
X82.1Y-64.99
X82.1Y-70.99
X82.1Y-76.99
X82.1Y-82.99
X82.1Y-88.99
X82.1Y-94.99
X82.1Y-100.99
X84.075Y-56.05
X86.08Y-59.0
X86.08Y-65.0
X86.08Y-71.0
X86.08Y-77.0
X86.08Y-83.0
X86.08Y-89.0
X86.08Y-95.0
X86.08Y-101.0
X88.1Y-58.99
X88.1Y-64.99
X88.1Y-70.99
X88.1Y-76.99
X88.1Y-82.99
X88.1Y-88.99
X88.1Y-94.99
X88.1Y-100.99
X90.075Y-56.05
X92.08Y-59.0
X92.08Y-65.0
X92.08Y-71.0
X92.08Y-77.0
X92.08Y-83.0
X92.08Y-89.0
X92.08Y-95.0
X92.08Y-101.0
X94.1Y-58.99
X94.1Y-64.99
X94.1Y-70.99
X94.1Y-76.99
X94.1Y-82.99
X94.1Y-88.99
X94.1Y-94.99
X94.1Y-100.99
X96.075Y-56.05
X98.08Y-59.0
X98.08Y-65.0
X98.08Y-71.0
X98.08Y-77.0
X98.08Y-83.0
X98.08Y-89.0
X98.08Y-95.0
X98.08Y-101.0
X100.1Y-58.99
X100.1Y-64.99
X100.1Y-70.99
X100.1Y-76.99
X100.1Y-82.99
X100.1Y-88.99
X100.1Y-94.99
X100.1Y-100.99
X102.075Y-56.05
X104.08Y-59.0
X104.08Y-65.0
X104.08Y-71.0
X104.08Y-77.0
X104.08Y-83.0
X104.08Y-89.0
X104.08Y-95.0
X104.08Y-101.0
X106.1Y-58.99
X106.1Y-64.99
X106.1Y-70.99
X106.1Y-76.99
X106.1Y-82.99
X106.1Y-88.99
X106.1Y-94.99
X106.1Y-100.99
X108.075Y-56.05
X110.08Y-59.0
X110.08Y-65.0
X110.08Y-71.0
X110.08Y-77.0
X110.08Y-83.0
X110.08Y-89.0
X110.08Y-95.0
X110.08Y-101.0
X112.1Y-58.99
X112.1Y-64.99
X112.1Y-70.99
X112.1Y-76.99
X112.1Y-82.99
X112.1Y-88.99
X112.1Y-94.99
X112.1Y-100.99
X114.075Y-56.05
X116.08Y-59.0
X116.08Y-65.0
X116.08Y-71.0
X116.08Y-77.0
X116.08Y-83.0
X116.08Y-89.0
X116.08Y-95.0
X116.08Y-101.0
X118.1Y-58.99
X118.1Y-64.99
X118.1Y-70.99
X118.1Y-76.99
X118.1Y-82.99
X118.1Y-88.99
X118.1Y-94.99
X118.1Y-100.99
X120.075Y-56.05
X122.08Y-59.0
X122.08Y-65.0
X122.08Y-71.0
X122.08Y-77.0
X122.08Y-83.0
X122.08Y-89.0
X122.08Y-95.0
X122.08Y-101.0
X124.1Y-58.99
X124.1Y-64.99
X124.1Y-70.99
X124.1Y-76.99
X124.1Y-82.99
X124.1Y-88.99
X124.1Y-94.99
X124.1Y-100.99
X126.075Y-56.05
X128.08Y-59.0
X128.08Y-65.0
X128.08Y-71.0
X128.08Y-77.0
X128.08Y-83.0
X128.08Y-89.0
X128.08Y-95.0
X128.08Y-101.0
X130.1Y-58.99
X130.1Y-64.99
X130.1Y-70.99
X130.1Y-76.99
X130.1Y-82.99
X130.1Y-88.99
X130.1Y-94.99
X130.1Y-100.99
X132.075Y-56.05
X134.08Y-59.0
X134.08Y-65.0
X134.08Y-71.0
X134.08Y-77.0
X134.08Y-83.0
X134.08Y-89.0
X134.08Y-95.0
X134.08Y-101.0
X136.1Y-58.99
X136.1Y-64.99
X136.1Y-70.99
X136.1Y-76.99
X136.1Y-82.99
X136.1Y-88.99
X136.1Y-94.99
X136.1Y-100.99
X138.075Y-56.05
X140.08Y-59.0
X140.08Y-65.0
X140.08Y-71.0
X140.08Y-77.0
X140.08Y-83.0
X140.08Y-89.0
X140.08Y-95.0
X140.08Y-101.0
X142.1Y-58.99
X142.1Y-64.99
X142.1Y-70.99
X142.1Y-76.99
X142.1Y-82.99
X142.1Y-88.99
X142.1Y-94.99
X142.1Y-100.99
X144.075Y-56.05
X146.08Y-59.0
X146.08Y-65.0
X146.08Y-71.0
X146.08Y-77.0
X146.08Y-83.0
X146.08Y-89.0
X146.08Y-95.0
X146.08Y-101.0
X148.1Y-58.99
X148.1Y-64.99
X148.1Y-70.99
X148.1Y-76.99
X148.1Y-82.99
X148.1Y-88.99
X148.1Y-94.99
X148.1Y-100.99
X150.075Y-56.05
X152.08Y-59.0
X152.08Y-65.0
X152.08Y-71.0
X152.08Y-77.0
X152.08Y-83.0
X152.08Y-89.0
X152.08Y-95.0
X152.08Y-101.0
X154.1Y-58.99
X154.1Y-64.99
X154.1Y-70.99
X154.1Y-76.99
X154.1Y-82.99
X154.1Y-88.99
X154.1Y-94.99
X154.1Y-100.99
X156.075Y-56.05
X158.08Y-59.0
X158.08Y-65.0
X158.08Y-71.0
X158.08Y-77.0
X158.08Y-83.0
X158.08Y-89.0
X158.08Y-95.0
X158.08Y-101.0
X160.1Y-58.99
X160.1Y-64.99
X160.1Y-70.99
X160.1Y-76.99
X160.1Y-82.99
X160.1Y-88.99
X160.1Y-94.99
X160.1Y-100.99
X162.05Y-104.0
X164.08Y-59.0
X164.08Y-65.0
X164.08Y-71.0
X164.08Y-77.0
X164.08Y-83.0
X164.08Y-89.0
X164.08Y-95.0
X164.08Y-101.0
X166.1Y-58.99
X166.1Y-64.99
X166.1Y-70.99
X166.1Y-76.99
X166.1Y-82.99
X166.1Y-88.99
X166.1Y-94.99
X166.1Y-100.99
X168.05Y-104.0
X170.08Y-59.0
X170.08Y-65.0
X170.08Y-71.0
X170.08Y-77.0
X170.08Y-83.0
X170.08Y-89.0
X170.08Y-95.0
X170.08Y-101.0
X172.1Y-58.99
X172.1Y-64.99
X172.1Y-70.99
X172.1Y-76.99
X172.1Y-82.99
X172.1Y-88.99
X172.1Y-94.99
X172.1Y-100.99
X174.05Y-104.0
X176.08Y-59.0
X176.08Y-65.0
X176.08Y-71.0
X176.08Y-77.0
X176.08Y-83.0
X176.08Y-89.0
X176.08Y-95.0
X176.08Y-101.0
X178.1Y-58.99
X178.1Y-64.99
X178.1Y-70.99
X178.1Y-76.99
X178.1Y-82.99
X178.1Y-88.99
X178.1Y-94.99
X178.1Y-100.99
X180.05Y-104.0
X182.08Y-59.0
X182.08Y-65.0
X182.08Y-71.0
X182.08Y-77.0
X182.08Y-83.0
X182.08Y-89.0
X182.08Y-95.0
X182.08Y-101.0
X184.1Y-58.99
X184.1Y-64.99
X184.1Y-70.99
X184.1Y-76.99
X184.1Y-82.99
X184.1Y-88.99
X184.1Y-94.99
X184.1Y-100.99
X186.05Y-104.0
X188.08Y-59.0
X188.08Y-65.0
X188.08Y-71.0
X188.08Y-77.0
X188.08Y-83.0
X188.08Y-89.0
X188.08Y-95.0
X188.08Y-101.0
X190.1Y-58.99
X190.1Y-64.99
X190.1Y-70.99
X190.1Y-76.99
X190.1Y-82.99
X190.1Y-88.99
X190.1Y-94.99
X190.1Y-100.99
X192.05Y-104.0
X194.08Y-59.0
X194.08Y-65.0
X194.08Y-71.0
X194.08Y-77.0
X194.08Y-83.0
X194.08Y-89.0
X194.08Y-95.0
X194.08Y-101.0
X196.1Y-58.99
X196.1Y-64.99
X196.1Y-70.99
X196.1Y-76.99
X196.1Y-82.99
X196.1Y-88.99
X196.1Y-94.99
X196.1Y-100.99
X198.05Y-104.0
X200.08Y-59.0
X200.08Y-65.0
X200.08Y-71.0
X200.08Y-77.0
X200.08Y-83.0
X200.08Y-89.0
X200.08Y-95.0
X200.08Y-101.0
X202.1Y-58.99
X202.1Y-64.99
X202.1Y-70.99
X202.1Y-76.99
X202.1Y-82.99
X202.1Y-88.99
X202.1Y-94.99
X202.1Y-100.99
X204.05Y-104.0
X206.08Y-59.0
X206.08Y-65.0
X206.08Y-71.0
X206.08Y-77.0
X206.08Y-83.0
X206.08Y-89.0
X206.08Y-95.0
X206.08Y-101.0
X208.1Y-58.99
X208.1Y-64.99
X208.1Y-70.99
X208.1Y-76.99
X208.1Y-82.99
X208.1Y-88.99
X208.1Y-94.99
X208.1Y-100.99
X210.05Y-104.0
X212.08Y-59.0
X212.08Y-65.0
X212.08Y-71.0
X212.08Y-77.0
X212.08Y-83.0
X212.08Y-89.0
X212.08Y-95.0
X212.08Y-101.0
X214.1Y-58.99
X214.1Y-64.99
X214.1Y-70.99
X214.1Y-76.99
X214.1Y-82.99
X214.1Y-88.99
X214.1Y-94.99
X214.1Y-100.99
X216.05Y-104.0
X218.08Y-59.0
X218.08Y-65.0
X218.08Y-71.0
X218.08Y-77.0
X218.08Y-83.0
X218.08Y-89.0
X218.08Y-95.0
X218.08Y-101.0
X220.1Y-58.99
X220.1Y-64.99
X220.1Y-70.99
X220.1Y-76.99
X220.1Y-82.99
X220.1Y-88.99
X220.1Y-94.99
X220.1Y-100.99
X222.05Y-104.0
X224.08Y-59.0
X224.08Y-65.0
X224.08Y-71.0
X224.08Y-77.0
X224.08Y-83.0
X224.08Y-89.0
X224.08Y-95.0
X224.08Y-101.0
X226.1Y-58.99
X226.1Y-64.99
X226.1Y-70.99
X226.1Y-76.99
X226.1Y-82.99
X226.1Y-88.99
X226.1Y-94.99
X226.1Y-100.99
X228.05Y-104.0
X230.08Y-59.0
X230.08Y-65.0
X230.08Y-71.0
X230.08Y-77.0
X230.08Y-83.0
X230.08Y-89.0
X230.08Y-95.0
X230.08Y-101.0
X232.1Y-58.99
X232.1Y-64.99
X232.1Y-70.99
X232.1Y-76.99
X232.1Y-82.99
X232.1Y-88.99
X232.1Y-94.99
X232.1Y-100.99
X234.05Y-104.0
X236.08Y-59.0
X236.08Y-65.0
X236.08Y-71.0
X236.08Y-77.0
X236.08Y-83.0
X236.08Y-89.0
X236.08Y-95.0
X236.08Y-101.0
X238.1Y-58.99
X238.1Y-64.99
X238.1Y-70.99
X238.1Y-76.99
X238.1Y-82.99
X238.1Y-88.99
X238.1Y-94.99
X238.1Y-100.99
X240.05Y-104.0
X242.08Y-59.0
X242.08Y-65.0
X242.08Y-71.0
X242.08Y-77.0
X242.08Y-83.0
X242.08Y-89.0
X242.08Y-95.0
X242.08Y-101.0
X244.1Y-58.99
X244.1Y-64.99
X244.1Y-70.99
X244.1Y-76.99
X244.1Y-82.99
X244.1Y-88.99
X244.1Y-94.99
X244.1Y-100.99
X246.05Y-104.0
X248.08Y-59.0
X248.08Y-65.0
X248.08Y-71.0
X248.08Y-77.0
X248.08Y-83.0
X248.08Y-89.0
X248.08Y-95.0
X248.08Y-101.0
X250.1Y-58.99
X250.1Y-64.99
X250.1Y-70.99
X250.1Y-76.99
X250.1Y-82.99
X250.1Y-88.99
X250.1Y-94.99
X250.1Y-100.99
X252.05Y-104.0
X254.08Y-59.0
X254.08Y-65.0
X254.08Y-71.0
X254.08Y-77.0
X254.08Y-83.0
X254.08Y-89.0
X254.08Y-95.0
X254.08Y-101.0
T0
M30
