G04 #@! TF.GenerationSoftware,KiCad,Pcbnew,6.0.8+dfsg-1~bpo11+1*
G04 #@! TF.CreationDate,2023-05-15T15:14:37-04:00*
G04 #@! TF.ProjectId,08_padded_interleaved_loose,30385f70-6164-4646-9564-5f696e746572,rev?*
G04 #@! TF.SameCoordinates,Original*
G04 #@! TF.FileFunction,Legend,Top*
G04 #@! TF.FilePolarity,Positive*
%FSLAX46Y46*%
G04 Gerber Fmt 4.6, Leading zero omitted, Abs format (unit mm)*
G04 Created by KiCad (PCBNEW 6.0.8+dfsg-1~bpo11+1) date 2023-05-15 15:14:37*
%MOMM*%
%LPD*%
G01*
G04 APERTURE LIST*
%ADD10C,0.150000*%
%ADD11C,0.300000*%
G04 APERTURE END LIST*
D10*
X62253452Y-108650952D02*
X62158214Y-108603333D01*
X62110595Y-108555714D01*
X62062976Y-108460476D01*
X62062976Y-108412857D01*
X62110595Y-108317619D01*
X62158214Y-108270000D01*
X62253452Y-108222380D01*
X62443928Y-108222380D01*
X62539166Y-108270000D01*
X62586785Y-108317619D01*
X62634404Y-108412857D01*
X62634404Y-108460476D01*
X62586785Y-108555714D01*
X62539166Y-108603333D01*
X62443928Y-108650952D01*
X62253452Y-108650952D01*
X62158214Y-108698571D01*
X62110595Y-108746190D01*
X62062976Y-108841428D01*
X62062976Y-109031904D01*
X62110595Y-109127142D01*
X62158214Y-109174761D01*
X62253452Y-109222380D01*
X62443928Y-109222380D01*
X62539166Y-109174761D01*
X62586785Y-109127142D01*
X62634404Y-109031904D01*
X62634404Y-108841428D01*
X62586785Y-108746190D01*
X62539166Y-108698571D01*
X62443928Y-108650952D01*
X62967738Y-109222380D02*
X63491547Y-108555714D01*
X62967738Y-108555714D02*
X63491547Y-109222380D01*
X63777261Y-108222380D02*
X64396309Y-108222380D01*
X64062976Y-108603333D01*
X64205833Y-108603333D01*
X64301071Y-108650952D01*
X64348690Y-108698571D01*
X64396309Y-108793809D01*
X64396309Y-109031904D01*
X64348690Y-109127142D01*
X64301071Y-109174761D01*
X64205833Y-109222380D01*
X63920119Y-109222380D01*
X63824880Y-109174761D01*
X63777261Y-109127142D01*
X64777261Y-108317619D02*
X64824880Y-108270000D01*
X64920119Y-108222380D01*
X65158214Y-108222380D01*
X65253452Y-108270000D01*
X65301071Y-108317619D01*
X65348690Y-108412857D01*
X65348690Y-108508095D01*
X65301071Y-108650952D01*
X64729642Y-109222380D01*
X65348690Y-109222380D01*
X67110595Y-109127142D02*
X67062976Y-109174761D01*
X66920119Y-109222380D01*
X66824880Y-109222380D01*
X66682023Y-109174761D01*
X66586785Y-109079523D01*
X66539166Y-108984285D01*
X66491547Y-108793809D01*
X66491547Y-108650952D01*
X66539166Y-108460476D01*
X66586785Y-108365238D01*
X66682023Y-108270000D01*
X66824880Y-108222380D01*
X66920119Y-108222380D01*
X67062976Y-108270000D01*
X67110595Y-108317619D01*
X67967738Y-109222380D02*
X67967738Y-108698571D01*
X67920119Y-108603333D01*
X67824880Y-108555714D01*
X67634404Y-108555714D01*
X67539166Y-108603333D01*
X67967738Y-109174761D02*
X67872500Y-109222380D01*
X67634404Y-109222380D01*
X67539166Y-109174761D01*
X67491547Y-109079523D01*
X67491547Y-108984285D01*
X67539166Y-108889047D01*
X67634404Y-108841428D01*
X67872500Y-108841428D01*
X67967738Y-108793809D01*
X68443928Y-108555714D02*
X68443928Y-109555714D01*
X68443928Y-108603333D02*
X68539166Y-108555714D01*
X68729642Y-108555714D01*
X68824880Y-108603333D01*
X68872500Y-108650952D01*
X68920119Y-108746190D01*
X68920119Y-109031904D01*
X68872500Y-109127142D01*
X68824880Y-109174761D01*
X68729642Y-109222380D01*
X68539166Y-109222380D01*
X68443928Y-109174761D01*
X69777261Y-109222380D02*
X69777261Y-108698571D01*
X69729642Y-108603333D01*
X69634404Y-108555714D01*
X69443928Y-108555714D01*
X69348690Y-108603333D01*
X69777261Y-109174761D02*
X69682023Y-109222380D01*
X69443928Y-109222380D01*
X69348690Y-109174761D01*
X69301071Y-109079523D01*
X69301071Y-108984285D01*
X69348690Y-108889047D01*
X69443928Y-108841428D01*
X69682023Y-108841428D01*
X69777261Y-108793809D01*
X70682023Y-109174761D02*
X70586785Y-109222380D01*
X70396309Y-109222380D01*
X70301071Y-109174761D01*
X70253452Y-109127142D01*
X70205833Y-109031904D01*
X70205833Y-108746190D01*
X70253452Y-108650952D01*
X70301071Y-108603333D01*
X70396309Y-108555714D01*
X70586785Y-108555714D01*
X70682023Y-108603333D01*
X71110595Y-109222380D02*
X71110595Y-108555714D01*
X71110595Y-108222380D02*
X71062976Y-108270000D01*
X71110595Y-108317619D01*
X71158214Y-108270000D01*
X71110595Y-108222380D01*
X71110595Y-108317619D01*
X71443928Y-108555714D02*
X71824880Y-108555714D01*
X71586785Y-108222380D02*
X71586785Y-109079523D01*
X71634404Y-109174761D01*
X71729642Y-109222380D01*
X71824880Y-109222380D01*
X72158214Y-109222380D02*
X72158214Y-108555714D01*
X72158214Y-108222380D02*
X72110595Y-108270000D01*
X72158214Y-108317619D01*
X72205833Y-108270000D01*
X72158214Y-108222380D01*
X72158214Y-108317619D01*
X72539166Y-108555714D02*
X72777261Y-109222380D01*
X73015357Y-108555714D01*
X73777261Y-109174761D02*
X73682023Y-109222380D01*
X73491547Y-109222380D01*
X73396309Y-109174761D01*
X73348690Y-109079523D01*
X73348690Y-108698571D01*
X73396309Y-108603333D01*
X73491547Y-108555714D01*
X73682023Y-108555714D01*
X73777261Y-108603333D01*
X73824880Y-108698571D01*
X73824880Y-108793809D01*
X73348690Y-108889047D01*
X74967738Y-109174761D02*
X75110595Y-109222380D01*
X75348690Y-109222380D01*
X75443928Y-109174761D01*
X75491547Y-109127142D01*
X75539166Y-109031904D01*
X75539166Y-108936666D01*
X75491547Y-108841428D01*
X75443928Y-108793809D01*
X75348690Y-108746190D01*
X75158214Y-108698571D01*
X75062976Y-108650952D01*
X75015357Y-108603333D01*
X74967738Y-108508095D01*
X74967738Y-108412857D01*
X75015357Y-108317619D01*
X75062976Y-108270000D01*
X75158214Y-108222380D01*
X75396309Y-108222380D01*
X75539166Y-108270000D01*
X76348690Y-109174761D02*
X76253452Y-109222380D01*
X76062976Y-109222380D01*
X75967738Y-109174761D01*
X75920119Y-109079523D01*
X75920119Y-108698571D01*
X75967738Y-108603333D01*
X76062976Y-108555714D01*
X76253452Y-108555714D01*
X76348690Y-108603333D01*
X76396309Y-108698571D01*
X76396309Y-108793809D01*
X75920119Y-108889047D01*
X76824880Y-108555714D02*
X76824880Y-109222380D01*
X76824880Y-108650952D02*
X76872500Y-108603333D01*
X76967738Y-108555714D01*
X77110595Y-108555714D01*
X77205833Y-108603333D01*
X77253452Y-108698571D01*
X77253452Y-109222380D01*
X77682023Y-109174761D02*
X77777261Y-109222380D01*
X77967738Y-109222380D01*
X78062976Y-109174761D01*
X78110595Y-109079523D01*
X78110595Y-109031904D01*
X78062976Y-108936666D01*
X77967738Y-108889047D01*
X77824880Y-108889047D01*
X77729642Y-108841428D01*
X77682023Y-108746190D01*
X77682023Y-108698571D01*
X77729642Y-108603333D01*
X77824880Y-108555714D01*
X77967738Y-108555714D01*
X78062976Y-108603333D01*
X78682023Y-109222380D02*
X78586785Y-109174761D01*
X78539166Y-109127142D01*
X78491547Y-109031904D01*
X78491547Y-108746190D01*
X78539166Y-108650952D01*
X78586785Y-108603333D01*
X78682023Y-108555714D01*
X78824880Y-108555714D01*
X78920119Y-108603333D01*
X78967738Y-108650952D01*
X79015357Y-108746190D01*
X79015357Y-109031904D01*
X78967738Y-109127142D01*
X78920119Y-109174761D01*
X78824880Y-109222380D01*
X78682023Y-109222380D01*
X79443928Y-109222380D02*
X79443928Y-108555714D01*
X79443928Y-108746190D02*
X79491547Y-108650952D01*
X79539166Y-108603333D01*
X79634404Y-108555714D01*
X79729642Y-108555714D01*
X62110595Y-110832380D02*
X62110595Y-109832380D01*
X62491547Y-109832380D01*
X62586785Y-109880000D01*
X62634404Y-109927619D01*
X62682023Y-110022857D01*
X62682023Y-110165714D01*
X62634404Y-110260952D01*
X62586785Y-110308571D01*
X62491547Y-110356190D01*
X62110595Y-110356190D01*
X63539166Y-110832380D02*
X63539166Y-110308571D01*
X63491547Y-110213333D01*
X63396309Y-110165714D01*
X63205833Y-110165714D01*
X63110595Y-110213333D01*
X63539166Y-110784761D02*
X63443928Y-110832380D01*
X63205833Y-110832380D01*
X63110595Y-110784761D01*
X63062976Y-110689523D01*
X63062976Y-110594285D01*
X63110595Y-110499047D01*
X63205833Y-110451428D01*
X63443928Y-110451428D01*
X63539166Y-110403809D01*
X64443928Y-110832380D02*
X64443928Y-109832380D01*
X64443928Y-110784761D02*
X64348690Y-110832380D01*
X64158214Y-110832380D01*
X64062976Y-110784761D01*
X64015357Y-110737142D01*
X63967738Y-110641904D01*
X63967738Y-110356190D01*
X64015357Y-110260952D01*
X64062976Y-110213333D01*
X64158214Y-110165714D01*
X64348690Y-110165714D01*
X64443928Y-110213333D01*
X65348690Y-110832380D02*
X65348690Y-109832380D01*
X65348690Y-110784761D02*
X65253452Y-110832380D01*
X65062976Y-110832380D01*
X64967738Y-110784761D01*
X64920119Y-110737142D01*
X64872500Y-110641904D01*
X64872500Y-110356190D01*
X64920119Y-110260952D01*
X64967738Y-110213333D01*
X65062976Y-110165714D01*
X65253452Y-110165714D01*
X65348690Y-110213333D01*
X66205833Y-110784761D02*
X66110595Y-110832380D01*
X65920119Y-110832380D01*
X65824880Y-110784761D01*
X65777261Y-110689523D01*
X65777261Y-110308571D01*
X65824880Y-110213333D01*
X65920119Y-110165714D01*
X66110595Y-110165714D01*
X66205833Y-110213333D01*
X66253452Y-110308571D01*
X66253452Y-110403809D01*
X65777261Y-110499047D01*
X67110595Y-110832380D02*
X67110595Y-109832380D01*
X67110595Y-110784761D02*
X67015357Y-110832380D01*
X66824880Y-110832380D01*
X66729642Y-110784761D01*
X66682023Y-110737142D01*
X66634404Y-110641904D01*
X66634404Y-110356190D01*
X66682023Y-110260952D01*
X66729642Y-110213333D01*
X66824880Y-110165714D01*
X67015357Y-110165714D01*
X67110595Y-110213333D01*
X68824880Y-110832380D02*
X68348690Y-110832380D01*
X68348690Y-109832380D01*
X69301071Y-110832380D02*
X69205833Y-110784761D01*
X69158214Y-110737142D01*
X69110595Y-110641904D01*
X69110595Y-110356190D01*
X69158214Y-110260952D01*
X69205833Y-110213333D01*
X69301071Y-110165714D01*
X69443928Y-110165714D01*
X69539166Y-110213333D01*
X69586785Y-110260952D01*
X69634404Y-110356190D01*
X69634404Y-110641904D01*
X69586785Y-110737142D01*
X69539166Y-110784761D01*
X69443928Y-110832380D01*
X69301071Y-110832380D01*
X70205833Y-110832380D02*
X70110595Y-110784761D01*
X70062976Y-110737142D01*
X70015357Y-110641904D01*
X70015357Y-110356190D01*
X70062976Y-110260952D01*
X70110595Y-110213333D01*
X70205833Y-110165714D01*
X70348690Y-110165714D01*
X70443928Y-110213333D01*
X70491547Y-110260952D01*
X70539166Y-110356190D01*
X70539166Y-110641904D01*
X70491547Y-110737142D01*
X70443928Y-110784761D01*
X70348690Y-110832380D01*
X70205833Y-110832380D01*
X70920119Y-110784761D02*
X71015357Y-110832380D01*
X71205833Y-110832380D01*
X71301071Y-110784761D01*
X71348690Y-110689523D01*
X71348690Y-110641904D01*
X71301071Y-110546666D01*
X71205833Y-110499047D01*
X71062976Y-110499047D01*
X70967738Y-110451428D01*
X70920119Y-110356190D01*
X70920119Y-110308571D01*
X70967738Y-110213333D01*
X71062976Y-110165714D01*
X71205833Y-110165714D01*
X71301071Y-110213333D01*
X72158214Y-110784761D02*
X72062976Y-110832380D01*
X71872500Y-110832380D01*
X71777261Y-110784761D01*
X71729642Y-110689523D01*
X71729642Y-110308571D01*
X71777261Y-110213333D01*
X71872500Y-110165714D01*
X72062976Y-110165714D01*
X72158214Y-110213333D01*
X72205833Y-110308571D01*
X72205833Y-110403809D01*
X71729642Y-110499047D01*
X73396309Y-110832380D02*
X73396309Y-109832380D01*
X73872500Y-110165714D02*
X73872500Y-110832380D01*
X73872500Y-110260952D02*
X73920119Y-110213333D01*
X74015357Y-110165714D01*
X74158214Y-110165714D01*
X74253452Y-110213333D01*
X74301071Y-110308571D01*
X74301071Y-110832380D01*
X74634404Y-110165714D02*
X75015357Y-110165714D01*
X74777261Y-109832380D02*
X74777261Y-110689523D01*
X74824880Y-110784761D01*
X74920119Y-110832380D01*
X75015357Y-110832380D01*
X75729642Y-110784761D02*
X75634404Y-110832380D01*
X75443928Y-110832380D01*
X75348690Y-110784761D01*
X75301071Y-110689523D01*
X75301071Y-110308571D01*
X75348690Y-110213333D01*
X75443928Y-110165714D01*
X75634404Y-110165714D01*
X75729642Y-110213333D01*
X75777261Y-110308571D01*
X75777261Y-110403809D01*
X75301071Y-110499047D01*
X76205833Y-110832380D02*
X76205833Y-110165714D01*
X76205833Y-110356190D02*
X76253452Y-110260952D01*
X76301071Y-110213333D01*
X76396309Y-110165714D01*
X76491547Y-110165714D01*
X76967738Y-110832380D02*
X76872500Y-110784761D01*
X76824880Y-110689523D01*
X76824880Y-109832380D01*
X77729642Y-110784761D02*
X77634404Y-110832380D01*
X77443928Y-110832380D01*
X77348690Y-110784761D01*
X77301071Y-110689523D01*
X77301071Y-110308571D01*
X77348690Y-110213333D01*
X77443928Y-110165714D01*
X77634404Y-110165714D01*
X77729642Y-110213333D01*
X77777261Y-110308571D01*
X77777261Y-110403809D01*
X77301071Y-110499047D01*
X78634404Y-110832380D02*
X78634404Y-110308571D01*
X78586785Y-110213333D01*
X78491547Y-110165714D01*
X78301071Y-110165714D01*
X78205833Y-110213333D01*
X78634404Y-110784761D02*
X78539166Y-110832380D01*
X78301071Y-110832380D01*
X78205833Y-110784761D01*
X78158214Y-110689523D01*
X78158214Y-110594285D01*
X78205833Y-110499047D01*
X78301071Y-110451428D01*
X78539166Y-110451428D01*
X78634404Y-110403809D01*
X79015357Y-110165714D02*
X79253452Y-110832380D01*
X79491547Y-110165714D01*
X80253452Y-110784761D02*
X80158214Y-110832380D01*
X79967738Y-110832380D01*
X79872500Y-110784761D01*
X79824880Y-110689523D01*
X79824880Y-110308571D01*
X79872500Y-110213333D01*
X79967738Y-110165714D01*
X80158214Y-110165714D01*
X80253452Y-110213333D01*
X80301071Y-110308571D01*
X80301071Y-110403809D01*
X79824880Y-110499047D01*
X81158214Y-110832380D02*
X81158214Y-109832380D01*
X81158214Y-110784761D02*
X81062976Y-110832380D01*
X80872500Y-110832380D01*
X80777261Y-110784761D01*
X80729642Y-110737142D01*
X80682023Y-110641904D01*
X80682023Y-110356190D01*
X80729642Y-110260952D01*
X80777261Y-110213333D01*
X80872500Y-110165714D01*
X81062976Y-110165714D01*
X81158214Y-110213333D01*
X82301071Y-110165714D02*
X82539166Y-110832380D01*
X82777261Y-110165714D01*
X83682023Y-110832380D02*
X83110595Y-110832380D01*
X83396309Y-110832380D02*
X83396309Y-109832380D01*
X83301071Y-109975238D01*
X83205833Y-110070476D01*
X83110595Y-110118095D01*
D11*
X63085000Y-55855000D02*
X63085000Y-104155000D01*
X69085000Y-55855000D02*
X69085000Y-104155000D01*
X75085000Y-55855000D02*
X75085000Y-104155000D01*
X81085000Y-55855000D02*
X81085000Y-104155000D01*
X87085000Y-55855000D02*
X87085000Y-104155000D01*
X93085000Y-55855000D02*
X93085000Y-104155000D01*
X99085000Y-55855000D02*
X99085000Y-104155000D01*
X105085000Y-55855000D02*
X105085000Y-104155000D01*
X111085000Y-55855000D02*
X111085000Y-104155000D01*
X117085000Y-55855000D02*
X117085000Y-104155000D01*
X123085000Y-55855000D02*
X123085000Y-104155000D01*
X129085000Y-55855000D02*
X129085000Y-104155000D01*
X135085000Y-55855000D02*
X135085000Y-104155000D01*
X141085000Y-55855000D02*
X141085000Y-104155000D01*
X147085000Y-55855000D02*
X147085000Y-104155000D01*
X153085000Y-55855000D02*
X153085000Y-104155000D01*
X159085000Y-55855000D02*
X159085000Y-104155000D01*
X165085000Y-55855000D02*
X165085000Y-104155000D01*
X171085000Y-55855000D02*
X171085000Y-104155000D01*
X177085000Y-55855000D02*
X177085000Y-104155000D01*
X183085000Y-55855000D02*
X183085000Y-104155000D01*
X189085000Y-55855000D02*
X189085000Y-104155000D01*
X195085000Y-55855000D02*
X195085000Y-104155000D01*
X201085000Y-55855000D02*
X201085000Y-104155000D01*
X207085000Y-55855000D02*
X207085000Y-104155000D01*
X213085000Y-55855000D02*
X213085000Y-104155000D01*
X219085000Y-55855000D02*
X219085000Y-104155000D01*
X225085000Y-55855000D02*
X225085000Y-104155000D01*
X231085000Y-55855000D02*
X231085000Y-104155000D01*
X237085000Y-55855000D02*
X237085000Y-104155000D01*
X243085000Y-55855000D02*
X243085000Y-104155000D01*
X249085000Y-55855000D02*
X249085000Y-104155000D01*
X255085000Y-55855000D02*
X255085000Y-104155000D01*
X62935000Y-56005000D02*
X255235000Y-56005000D01*
X62935000Y-62005000D02*
X255235000Y-62005000D01*
X62935000Y-68005000D02*
X255235000Y-68005000D01*
X62935000Y-74005000D02*
X255235000Y-74005000D01*
X62935000Y-80005000D02*
X255235000Y-80005000D01*
X62935000Y-86005000D02*
X255235000Y-86005000D01*
X62935000Y-92005000D02*
X255235000Y-92005000D01*
X62935000Y-98005000D02*
X255235000Y-98005000D01*
X62935000Y-104005000D02*
X255235000Y-104005000D01*
%LPC*%
G36*
X63235000Y-56155000D02*
G01*
X68935000Y-56155000D01*
X68935000Y-61855000D01*
X63235000Y-61855000D01*
X63235000Y-56155000D01*
G37*
G36*
X63235000Y-62155000D02*
G01*
X68935000Y-62155000D01*
X68935000Y-67855000D01*
X63235000Y-67855000D01*
X63235000Y-62155000D01*
G37*
G36*
X63235000Y-68155000D02*
G01*
X68935000Y-68155000D01*
X68935000Y-73855000D01*
X63235000Y-73855000D01*
X63235000Y-68155000D01*
G37*
G36*
X63235000Y-74155000D02*
G01*
X68935000Y-74155000D01*
X68935000Y-79855000D01*
X63235000Y-79855000D01*
X63235000Y-74155000D01*
G37*
G36*
X63235000Y-80155000D02*
G01*
X68935000Y-80155000D01*
X68935000Y-85855000D01*
X63235000Y-85855000D01*
X63235000Y-80155000D01*
G37*
G36*
X63235000Y-86155000D02*
G01*
X68935000Y-86155000D01*
X68935000Y-91855000D01*
X63235000Y-91855000D01*
X63235000Y-86155000D01*
G37*
G36*
X63235000Y-92155000D02*
G01*
X68935000Y-92155000D01*
X68935000Y-97855000D01*
X63235000Y-97855000D01*
X63235000Y-92155000D01*
G37*
G36*
X63235000Y-98155000D02*
G01*
X68935000Y-98155000D01*
X68935000Y-103855000D01*
X63235000Y-103855000D01*
X63235000Y-98155000D01*
G37*
G36*
X69235000Y-56155000D02*
G01*
X74935000Y-56155000D01*
X74935000Y-61855000D01*
X69235000Y-61855000D01*
X69235000Y-56155000D01*
G37*
G36*
X69235000Y-62155000D02*
G01*
X74935000Y-62155000D01*
X74935000Y-67855000D01*
X69235000Y-67855000D01*
X69235000Y-62155000D01*
G37*
G36*
X69235000Y-68155000D02*
G01*
X74935000Y-68155000D01*
X74935000Y-73855000D01*
X69235000Y-73855000D01*
X69235000Y-68155000D01*
G37*
G36*
X69235000Y-74155000D02*
G01*
X74935000Y-74155000D01*
X74935000Y-79855000D01*
X69235000Y-79855000D01*
X69235000Y-74155000D01*
G37*
G36*
X69235000Y-80155000D02*
G01*
X74935000Y-80155000D01*
X74935000Y-85855000D01*
X69235000Y-85855000D01*
X69235000Y-80155000D01*
G37*
G36*
X69235000Y-86155000D02*
G01*
X74935000Y-86155000D01*
X74935000Y-91855000D01*
X69235000Y-91855000D01*
X69235000Y-86155000D01*
G37*
G36*
X69235000Y-92155000D02*
G01*
X74935000Y-92155000D01*
X74935000Y-97855000D01*
X69235000Y-97855000D01*
X69235000Y-92155000D01*
G37*
G36*
X69235000Y-98155000D02*
G01*
X74935000Y-98155000D01*
X74935000Y-103855000D01*
X69235000Y-103855000D01*
X69235000Y-98155000D01*
G37*
G36*
X75235000Y-56155000D02*
G01*
X80935000Y-56155000D01*
X80935000Y-61855000D01*
X75235000Y-61855000D01*
X75235000Y-56155000D01*
G37*
G36*
X75235000Y-62155000D02*
G01*
X80935000Y-62155000D01*
X80935000Y-67855000D01*
X75235000Y-67855000D01*
X75235000Y-62155000D01*
G37*
G36*
X75235000Y-68155000D02*
G01*
X80935000Y-68155000D01*
X80935000Y-73855000D01*
X75235000Y-73855000D01*
X75235000Y-68155000D01*
G37*
G36*
X75235000Y-74155000D02*
G01*
X80935000Y-74155000D01*
X80935000Y-79855000D01*
X75235000Y-79855000D01*
X75235000Y-74155000D01*
G37*
G36*
X75235000Y-80155000D02*
G01*
X80935000Y-80155000D01*
X80935000Y-85855000D01*
X75235000Y-85855000D01*
X75235000Y-80155000D01*
G37*
G36*
X75235000Y-86155000D02*
G01*
X80935000Y-86155000D01*
X80935000Y-91855000D01*
X75235000Y-91855000D01*
X75235000Y-86155000D01*
G37*
G36*
X75235000Y-92155000D02*
G01*
X80935000Y-92155000D01*
X80935000Y-97855000D01*
X75235000Y-97855000D01*
X75235000Y-92155000D01*
G37*
G36*
X75235000Y-98155000D02*
G01*
X80935000Y-98155000D01*
X80935000Y-103855000D01*
X75235000Y-103855000D01*
X75235000Y-98155000D01*
G37*
G36*
X81235000Y-56155000D02*
G01*
X86935000Y-56155000D01*
X86935000Y-61855000D01*
X81235000Y-61855000D01*
X81235000Y-56155000D01*
G37*
G36*
X81235000Y-62155000D02*
G01*
X86935000Y-62155000D01*
X86935000Y-67855000D01*
X81235000Y-67855000D01*
X81235000Y-62155000D01*
G37*
G36*
X81235000Y-68155000D02*
G01*
X86935000Y-68155000D01*
X86935000Y-73855000D01*
X81235000Y-73855000D01*
X81235000Y-68155000D01*
G37*
G36*
X81235000Y-74155000D02*
G01*
X86935000Y-74155000D01*
X86935000Y-79855000D01*
X81235000Y-79855000D01*
X81235000Y-74155000D01*
G37*
G36*
X81235000Y-80155000D02*
G01*
X86935000Y-80155000D01*
X86935000Y-85855000D01*
X81235000Y-85855000D01*
X81235000Y-80155000D01*
G37*
G36*
X81235000Y-86155000D02*
G01*
X86935000Y-86155000D01*
X86935000Y-91855000D01*
X81235000Y-91855000D01*
X81235000Y-86155000D01*
G37*
G36*
X81235000Y-92155000D02*
G01*
X86935000Y-92155000D01*
X86935000Y-97855000D01*
X81235000Y-97855000D01*
X81235000Y-92155000D01*
G37*
G36*
X81235000Y-98155000D02*
G01*
X86935000Y-98155000D01*
X86935000Y-103855000D01*
X81235000Y-103855000D01*
X81235000Y-98155000D01*
G37*
G36*
X87235000Y-56155000D02*
G01*
X92935000Y-56155000D01*
X92935000Y-61855000D01*
X87235000Y-61855000D01*
X87235000Y-56155000D01*
G37*
G36*
X87235000Y-62155000D02*
G01*
X92935000Y-62155000D01*
X92935000Y-67855000D01*
X87235000Y-67855000D01*
X87235000Y-62155000D01*
G37*
G36*
X87235000Y-68155000D02*
G01*
X92935000Y-68155000D01*
X92935000Y-73855000D01*
X87235000Y-73855000D01*
X87235000Y-68155000D01*
G37*
G36*
X87235000Y-74155000D02*
G01*
X92935000Y-74155000D01*
X92935000Y-79855000D01*
X87235000Y-79855000D01*
X87235000Y-74155000D01*
G37*
G36*
X87235000Y-80155000D02*
G01*
X92935000Y-80155000D01*
X92935000Y-85855000D01*
X87235000Y-85855000D01*
X87235000Y-80155000D01*
G37*
G36*
X87235000Y-86155000D02*
G01*
X92935000Y-86155000D01*
X92935000Y-91855000D01*
X87235000Y-91855000D01*
X87235000Y-86155000D01*
G37*
G36*
X87235000Y-92155000D02*
G01*
X92935000Y-92155000D01*
X92935000Y-97855000D01*
X87235000Y-97855000D01*
X87235000Y-92155000D01*
G37*
G36*
X87235000Y-98155000D02*
G01*
X92935000Y-98155000D01*
X92935000Y-103855000D01*
X87235000Y-103855000D01*
X87235000Y-98155000D01*
G37*
G36*
X93235000Y-56155000D02*
G01*
X98935000Y-56155000D01*
X98935000Y-61855000D01*
X93235000Y-61855000D01*
X93235000Y-56155000D01*
G37*
G36*
X93235000Y-62155000D02*
G01*
X98935000Y-62155000D01*
X98935000Y-67855000D01*
X93235000Y-67855000D01*
X93235000Y-62155000D01*
G37*
G36*
X93235000Y-68155000D02*
G01*
X98935000Y-68155000D01*
X98935000Y-73855000D01*
X93235000Y-73855000D01*
X93235000Y-68155000D01*
G37*
G36*
X93235000Y-74155000D02*
G01*
X98935000Y-74155000D01*
X98935000Y-79855000D01*
X93235000Y-79855000D01*
X93235000Y-74155000D01*
G37*
G36*
X93235000Y-80155000D02*
G01*
X98935000Y-80155000D01*
X98935000Y-85855000D01*
X93235000Y-85855000D01*
X93235000Y-80155000D01*
G37*
G36*
X93235000Y-86155000D02*
G01*
X98935000Y-86155000D01*
X98935000Y-91855000D01*
X93235000Y-91855000D01*
X93235000Y-86155000D01*
G37*
G36*
X93235000Y-92155000D02*
G01*
X98935000Y-92155000D01*
X98935000Y-97855000D01*
X93235000Y-97855000D01*
X93235000Y-92155000D01*
G37*
G36*
X93235000Y-98155000D02*
G01*
X98935000Y-98155000D01*
X98935000Y-103855000D01*
X93235000Y-103855000D01*
X93235000Y-98155000D01*
G37*
G36*
X99235000Y-56155000D02*
G01*
X104935000Y-56155000D01*
X104935000Y-61855000D01*
X99235000Y-61855000D01*
X99235000Y-56155000D01*
G37*
G36*
X99235000Y-62155000D02*
G01*
X104935000Y-62155000D01*
X104935000Y-67855000D01*
X99235000Y-67855000D01*
X99235000Y-62155000D01*
G37*
G36*
X99235000Y-68155000D02*
G01*
X104935000Y-68155000D01*
X104935000Y-73855000D01*
X99235000Y-73855000D01*
X99235000Y-68155000D01*
G37*
G36*
X99235000Y-74155000D02*
G01*
X104935000Y-74155000D01*
X104935000Y-79855000D01*
X99235000Y-79855000D01*
X99235000Y-74155000D01*
G37*
G36*
X99235000Y-80155000D02*
G01*
X104935000Y-80155000D01*
X104935000Y-85855000D01*
X99235000Y-85855000D01*
X99235000Y-80155000D01*
G37*
G36*
X99235000Y-86155000D02*
G01*
X104935000Y-86155000D01*
X104935000Y-91855000D01*
X99235000Y-91855000D01*
X99235000Y-86155000D01*
G37*
G36*
X99235000Y-92155000D02*
G01*
X104935000Y-92155000D01*
X104935000Y-97855000D01*
X99235000Y-97855000D01*
X99235000Y-92155000D01*
G37*
G36*
X99235000Y-98155000D02*
G01*
X104935000Y-98155000D01*
X104935000Y-103855000D01*
X99235000Y-103855000D01*
X99235000Y-98155000D01*
G37*
G36*
X105235000Y-56155000D02*
G01*
X110935000Y-56155000D01*
X110935000Y-61855000D01*
X105235000Y-61855000D01*
X105235000Y-56155000D01*
G37*
G36*
X105235000Y-62155000D02*
G01*
X110935000Y-62155000D01*
X110935000Y-67855000D01*
X105235000Y-67855000D01*
X105235000Y-62155000D01*
G37*
G36*
X105235000Y-68155000D02*
G01*
X110935000Y-68155000D01*
X110935000Y-73855000D01*
X105235000Y-73855000D01*
X105235000Y-68155000D01*
G37*
G36*
X105235000Y-74155000D02*
G01*
X110935000Y-74155000D01*
X110935000Y-79855000D01*
X105235000Y-79855000D01*
X105235000Y-74155000D01*
G37*
G36*
X105235000Y-80155000D02*
G01*
X110935000Y-80155000D01*
X110935000Y-85855000D01*
X105235000Y-85855000D01*
X105235000Y-80155000D01*
G37*
G36*
X105235000Y-86155000D02*
G01*
X110935000Y-86155000D01*
X110935000Y-91855000D01*
X105235000Y-91855000D01*
X105235000Y-86155000D01*
G37*
G36*
X105235000Y-92155000D02*
G01*
X110935000Y-92155000D01*
X110935000Y-97855000D01*
X105235000Y-97855000D01*
X105235000Y-92155000D01*
G37*
G36*
X105235000Y-98155000D02*
G01*
X110935000Y-98155000D01*
X110935000Y-103855000D01*
X105235000Y-103855000D01*
X105235000Y-98155000D01*
G37*
G36*
X111235000Y-56155000D02*
G01*
X116935000Y-56155000D01*
X116935000Y-61855000D01*
X111235000Y-61855000D01*
X111235000Y-56155000D01*
G37*
G36*
X111235000Y-62155000D02*
G01*
X116935000Y-62155000D01*
X116935000Y-67855000D01*
X111235000Y-67855000D01*
X111235000Y-62155000D01*
G37*
G36*
X111235000Y-68155000D02*
G01*
X116935000Y-68155000D01*
X116935000Y-73855000D01*
X111235000Y-73855000D01*
X111235000Y-68155000D01*
G37*
G36*
X111235000Y-74155000D02*
G01*
X116935000Y-74155000D01*
X116935000Y-79855000D01*
X111235000Y-79855000D01*
X111235000Y-74155000D01*
G37*
G36*
X111235000Y-80155000D02*
G01*
X116935000Y-80155000D01*
X116935000Y-85855000D01*
X111235000Y-85855000D01*
X111235000Y-80155000D01*
G37*
G36*
X111235000Y-86155000D02*
G01*
X116935000Y-86155000D01*
X116935000Y-91855000D01*
X111235000Y-91855000D01*
X111235000Y-86155000D01*
G37*
G36*
X111235000Y-92155000D02*
G01*
X116935000Y-92155000D01*
X116935000Y-97855000D01*
X111235000Y-97855000D01*
X111235000Y-92155000D01*
G37*
G36*
X111235000Y-98155000D02*
G01*
X116935000Y-98155000D01*
X116935000Y-103855000D01*
X111235000Y-103855000D01*
X111235000Y-98155000D01*
G37*
G36*
X117235000Y-56155000D02*
G01*
X122935000Y-56155000D01*
X122935000Y-61855000D01*
X117235000Y-61855000D01*
X117235000Y-56155000D01*
G37*
G36*
X117235000Y-62155000D02*
G01*
X122935000Y-62155000D01*
X122935000Y-67855000D01*
X117235000Y-67855000D01*
X117235000Y-62155000D01*
G37*
G36*
X117235000Y-68155000D02*
G01*
X122935000Y-68155000D01*
X122935000Y-73855000D01*
X117235000Y-73855000D01*
X117235000Y-68155000D01*
G37*
G36*
X117235000Y-74155000D02*
G01*
X122935000Y-74155000D01*
X122935000Y-79855000D01*
X117235000Y-79855000D01*
X117235000Y-74155000D01*
G37*
G36*
X117235000Y-80155000D02*
G01*
X122935000Y-80155000D01*
X122935000Y-85855000D01*
X117235000Y-85855000D01*
X117235000Y-80155000D01*
G37*
G36*
X117235000Y-86155000D02*
G01*
X122935000Y-86155000D01*
X122935000Y-91855000D01*
X117235000Y-91855000D01*
X117235000Y-86155000D01*
G37*
G36*
X117235000Y-92155000D02*
G01*
X122935000Y-92155000D01*
X122935000Y-97855000D01*
X117235000Y-97855000D01*
X117235000Y-92155000D01*
G37*
G36*
X117235000Y-98155000D02*
G01*
X122935000Y-98155000D01*
X122935000Y-103855000D01*
X117235000Y-103855000D01*
X117235000Y-98155000D01*
G37*
G36*
X123235000Y-56155000D02*
G01*
X128935000Y-56155000D01*
X128935000Y-61855000D01*
X123235000Y-61855000D01*
X123235000Y-56155000D01*
G37*
G36*
X123235000Y-62155000D02*
G01*
X128935000Y-62155000D01*
X128935000Y-67855000D01*
X123235000Y-67855000D01*
X123235000Y-62155000D01*
G37*
G36*
X123235000Y-68155000D02*
G01*
X128935000Y-68155000D01*
X128935000Y-73855000D01*
X123235000Y-73855000D01*
X123235000Y-68155000D01*
G37*
G36*
X123235000Y-74155000D02*
G01*
X128935000Y-74155000D01*
X128935000Y-79855000D01*
X123235000Y-79855000D01*
X123235000Y-74155000D01*
G37*
G36*
X123235000Y-80155000D02*
G01*
X128935000Y-80155000D01*
X128935000Y-85855000D01*
X123235000Y-85855000D01*
X123235000Y-80155000D01*
G37*
G36*
X123235000Y-86155000D02*
G01*
X128935000Y-86155000D01*
X128935000Y-91855000D01*
X123235000Y-91855000D01*
X123235000Y-86155000D01*
G37*
G36*
X123235000Y-92155000D02*
G01*
X128935000Y-92155000D01*
X128935000Y-97855000D01*
X123235000Y-97855000D01*
X123235000Y-92155000D01*
G37*
G36*
X123235000Y-98155000D02*
G01*
X128935000Y-98155000D01*
X128935000Y-103855000D01*
X123235000Y-103855000D01*
X123235000Y-98155000D01*
G37*
G36*
X129235000Y-56155000D02*
G01*
X134935000Y-56155000D01*
X134935000Y-61855000D01*
X129235000Y-61855000D01*
X129235000Y-56155000D01*
G37*
G36*
X129235000Y-62155000D02*
G01*
X134935000Y-62155000D01*
X134935000Y-67855000D01*
X129235000Y-67855000D01*
X129235000Y-62155000D01*
G37*
G36*
X129235000Y-68155000D02*
G01*
X134935000Y-68155000D01*
X134935000Y-73855000D01*
X129235000Y-73855000D01*
X129235000Y-68155000D01*
G37*
G36*
X129235000Y-74155000D02*
G01*
X134935000Y-74155000D01*
X134935000Y-79855000D01*
X129235000Y-79855000D01*
X129235000Y-74155000D01*
G37*
G36*
X129235000Y-80155000D02*
G01*
X134935000Y-80155000D01*
X134935000Y-85855000D01*
X129235000Y-85855000D01*
X129235000Y-80155000D01*
G37*
G36*
X129235000Y-86155000D02*
G01*
X134935000Y-86155000D01*
X134935000Y-91855000D01*
X129235000Y-91855000D01*
X129235000Y-86155000D01*
G37*
G36*
X129235000Y-92155000D02*
G01*
X134935000Y-92155000D01*
X134935000Y-97855000D01*
X129235000Y-97855000D01*
X129235000Y-92155000D01*
G37*
G36*
X129235000Y-98155000D02*
G01*
X134935000Y-98155000D01*
X134935000Y-103855000D01*
X129235000Y-103855000D01*
X129235000Y-98155000D01*
G37*
G36*
X135235000Y-56155000D02*
G01*
X140935000Y-56155000D01*
X140935000Y-61855000D01*
X135235000Y-61855000D01*
X135235000Y-56155000D01*
G37*
G36*
X135235000Y-62155000D02*
G01*
X140935000Y-62155000D01*
X140935000Y-67855000D01*
X135235000Y-67855000D01*
X135235000Y-62155000D01*
G37*
G36*
X135235000Y-68155000D02*
G01*
X140935000Y-68155000D01*
X140935000Y-73855000D01*
X135235000Y-73855000D01*
X135235000Y-68155000D01*
G37*
G36*
X135235000Y-74155000D02*
G01*
X140935000Y-74155000D01*
X140935000Y-79855000D01*
X135235000Y-79855000D01*
X135235000Y-74155000D01*
G37*
G36*
X135235000Y-80155000D02*
G01*
X140935000Y-80155000D01*
X140935000Y-85855000D01*
X135235000Y-85855000D01*
X135235000Y-80155000D01*
G37*
G36*
X135235000Y-86155000D02*
G01*
X140935000Y-86155000D01*
X140935000Y-91855000D01*
X135235000Y-91855000D01*
X135235000Y-86155000D01*
G37*
G36*
X135235000Y-92155000D02*
G01*
X140935000Y-92155000D01*
X140935000Y-97855000D01*
X135235000Y-97855000D01*
X135235000Y-92155000D01*
G37*
G36*
X135235000Y-98155000D02*
G01*
X140935000Y-98155000D01*
X140935000Y-103855000D01*
X135235000Y-103855000D01*
X135235000Y-98155000D01*
G37*
G36*
X141235000Y-56155000D02*
G01*
X146935000Y-56155000D01*
X146935000Y-61855000D01*
X141235000Y-61855000D01*
X141235000Y-56155000D01*
G37*
G36*
X141235000Y-62155000D02*
G01*
X146935000Y-62155000D01*
X146935000Y-67855000D01*
X141235000Y-67855000D01*
X141235000Y-62155000D01*
G37*
G36*
X141235000Y-68155000D02*
G01*
X146935000Y-68155000D01*
X146935000Y-73855000D01*
X141235000Y-73855000D01*
X141235000Y-68155000D01*
G37*
G36*
X141235000Y-74155000D02*
G01*
X146935000Y-74155000D01*
X146935000Y-79855000D01*
X141235000Y-79855000D01*
X141235000Y-74155000D01*
G37*
G36*
X141235000Y-80155000D02*
G01*
X146935000Y-80155000D01*
X146935000Y-85855000D01*
X141235000Y-85855000D01*
X141235000Y-80155000D01*
G37*
G36*
X141235000Y-86155000D02*
G01*
X146935000Y-86155000D01*
X146935000Y-91855000D01*
X141235000Y-91855000D01*
X141235000Y-86155000D01*
G37*
G36*
X141235000Y-92155000D02*
G01*
X146935000Y-92155000D01*
X146935000Y-97855000D01*
X141235000Y-97855000D01*
X141235000Y-92155000D01*
G37*
G36*
X141235000Y-98155000D02*
G01*
X146935000Y-98155000D01*
X146935000Y-103855000D01*
X141235000Y-103855000D01*
X141235000Y-98155000D01*
G37*
G36*
X147235000Y-56155000D02*
G01*
X152935000Y-56155000D01*
X152935000Y-61855000D01*
X147235000Y-61855000D01*
X147235000Y-56155000D01*
G37*
G36*
X147235000Y-62155000D02*
G01*
X152935000Y-62155000D01*
X152935000Y-67855000D01*
X147235000Y-67855000D01*
X147235000Y-62155000D01*
G37*
G36*
X147235000Y-68155000D02*
G01*
X152935000Y-68155000D01*
X152935000Y-73855000D01*
X147235000Y-73855000D01*
X147235000Y-68155000D01*
G37*
G36*
X147235000Y-74155000D02*
G01*
X152935000Y-74155000D01*
X152935000Y-79855000D01*
X147235000Y-79855000D01*
X147235000Y-74155000D01*
G37*
G36*
X147235000Y-80155000D02*
G01*
X152935000Y-80155000D01*
X152935000Y-85855000D01*
X147235000Y-85855000D01*
X147235000Y-80155000D01*
G37*
G36*
X147235000Y-86155000D02*
G01*
X152935000Y-86155000D01*
X152935000Y-91855000D01*
X147235000Y-91855000D01*
X147235000Y-86155000D01*
G37*
G36*
X147235000Y-92155000D02*
G01*
X152935000Y-92155000D01*
X152935000Y-97855000D01*
X147235000Y-97855000D01*
X147235000Y-92155000D01*
G37*
G36*
X147235000Y-98155000D02*
G01*
X152935000Y-98155000D01*
X152935000Y-103855000D01*
X147235000Y-103855000D01*
X147235000Y-98155000D01*
G37*
G36*
X153235000Y-56155000D02*
G01*
X158935000Y-56155000D01*
X158935000Y-61855000D01*
X153235000Y-61855000D01*
X153235000Y-56155000D01*
G37*
G36*
X153235000Y-62155000D02*
G01*
X158935000Y-62155000D01*
X158935000Y-67855000D01*
X153235000Y-67855000D01*
X153235000Y-62155000D01*
G37*
G36*
X153235000Y-68155000D02*
G01*
X158935000Y-68155000D01*
X158935000Y-73855000D01*
X153235000Y-73855000D01*
X153235000Y-68155000D01*
G37*
G36*
X153235000Y-74155000D02*
G01*
X158935000Y-74155000D01*
X158935000Y-79855000D01*
X153235000Y-79855000D01*
X153235000Y-74155000D01*
G37*
G36*
X153235000Y-80155000D02*
G01*
X158935000Y-80155000D01*
X158935000Y-85855000D01*
X153235000Y-85855000D01*
X153235000Y-80155000D01*
G37*
G36*
X153235000Y-86155000D02*
G01*
X158935000Y-86155000D01*
X158935000Y-91855000D01*
X153235000Y-91855000D01*
X153235000Y-86155000D01*
G37*
G36*
X153235000Y-92155000D02*
G01*
X158935000Y-92155000D01*
X158935000Y-97855000D01*
X153235000Y-97855000D01*
X153235000Y-92155000D01*
G37*
G36*
X153235000Y-98155000D02*
G01*
X158935000Y-98155000D01*
X158935000Y-103855000D01*
X153235000Y-103855000D01*
X153235000Y-98155000D01*
G37*
G36*
X159235000Y-56155000D02*
G01*
X164935000Y-56155000D01*
X164935000Y-61855000D01*
X159235000Y-61855000D01*
X159235000Y-56155000D01*
G37*
G36*
X159235000Y-62155000D02*
G01*
X164935000Y-62155000D01*
X164935000Y-67855000D01*
X159235000Y-67855000D01*
X159235000Y-62155000D01*
G37*
G36*
X159235000Y-68155000D02*
G01*
X164935000Y-68155000D01*
X164935000Y-73855000D01*
X159235000Y-73855000D01*
X159235000Y-68155000D01*
G37*
G36*
X159235000Y-74155000D02*
G01*
X164935000Y-74155000D01*
X164935000Y-79855000D01*
X159235000Y-79855000D01*
X159235000Y-74155000D01*
G37*
G36*
X159235000Y-80155000D02*
G01*
X164935000Y-80155000D01*
X164935000Y-85855000D01*
X159235000Y-85855000D01*
X159235000Y-80155000D01*
G37*
G36*
X159235000Y-86155000D02*
G01*
X164935000Y-86155000D01*
X164935000Y-91855000D01*
X159235000Y-91855000D01*
X159235000Y-86155000D01*
G37*
G36*
X159235000Y-92155000D02*
G01*
X164935000Y-92155000D01*
X164935000Y-97855000D01*
X159235000Y-97855000D01*
X159235000Y-92155000D01*
G37*
G36*
X159235000Y-98155000D02*
G01*
X164935000Y-98155000D01*
X164935000Y-103855000D01*
X159235000Y-103855000D01*
X159235000Y-98155000D01*
G37*
G36*
X165235000Y-56155000D02*
G01*
X170935000Y-56155000D01*
X170935000Y-61855000D01*
X165235000Y-61855000D01*
X165235000Y-56155000D01*
G37*
G36*
X165235000Y-62155000D02*
G01*
X170935000Y-62155000D01*
X170935000Y-67855000D01*
X165235000Y-67855000D01*
X165235000Y-62155000D01*
G37*
G36*
X165235000Y-68155000D02*
G01*
X170935000Y-68155000D01*
X170935000Y-73855000D01*
X165235000Y-73855000D01*
X165235000Y-68155000D01*
G37*
G36*
X165235000Y-74155000D02*
G01*
X170935000Y-74155000D01*
X170935000Y-79855000D01*
X165235000Y-79855000D01*
X165235000Y-74155000D01*
G37*
G36*
X165235000Y-80155000D02*
G01*
X170935000Y-80155000D01*
X170935000Y-85855000D01*
X165235000Y-85855000D01*
X165235000Y-80155000D01*
G37*
G36*
X165235000Y-86155000D02*
G01*
X170935000Y-86155000D01*
X170935000Y-91855000D01*
X165235000Y-91855000D01*
X165235000Y-86155000D01*
G37*
G36*
X165235000Y-92155000D02*
G01*
X170935000Y-92155000D01*
X170935000Y-97855000D01*
X165235000Y-97855000D01*
X165235000Y-92155000D01*
G37*
G36*
X165235000Y-98155000D02*
G01*
X170935000Y-98155000D01*
X170935000Y-103855000D01*
X165235000Y-103855000D01*
X165235000Y-98155000D01*
G37*
G36*
X171235000Y-56155000D02*
G01*
X176935000Y-56155000D01*
X176935000Y-61855000D01*
X171235000Y-61855000D01*
X171235000Y-56155000D01*
G37*
G36*
X171235000Y-62155000D02*
G01*
X176935000Y-62155000D01*
X176935000Y-67855000D01*
X171235000Y-67855000D01*
X171235000Y-62155000D01*
G37*
G36*
X171235000Y-68155000D02*
G01*
X176935000Y-68155000D01*
X176935000Y-73855000D01*
X171235000Y-73855000D01*
X171235000Y-68155000D01*
G37*
G36*
X171235000Y-74155000D02*
G01*
X176935000Y-74155000D01*
X176935000Y-79855000D01*
X171235000Y-79855000D01*
X171235000Y-74155000D01*
G37*
G36*
X171235000Y-80155000D02*
G01*
X176935000Y-80155000D01*
X176935000Y-85855000D01*
X171235000Y-85855000D01*
X171235000Y-80155000D01*
G37*
G36*
X171235000Y-86155000D02*
G01*
X176935000Y-86155000D01*
X176935000Y-91855000D01*
X171235000Y-91855000D01*
X171235000Y-86155000D01*
G37*
G36*
X171235000Y-92155000D02*
G01*
X176935000Y-92155000D01*
X176935000Y-97855000D01*
X171235000Y-97855000D01*
X171235000Y-92155000D01*
G37*
G36*
X171235000Y-98155000D02*
G01*
X176935000Y-98155000D01*
X176935000Y-103855000D01*
X171235000Y-103855000D01*
X171235000Y-98155000D01*
G37*
G36*
X177235000Y-56155000D02*
G01*
X182935000Y-56155000D01*
X182935000Y-61855000D01*
X177235000Y-61855000D01*
X177235000Y-56155000D01*
G37*
G36*
X177235000Y-62155000D02*
G01*
X182935000Y-62155000D01*
X182935000Y-67855000D01*
X177235000Y-67855000D01*
X177235000Y-62155000D01*
G37*
G36*
X177235000Y-68155000D02*
G01*
X182935000Y-68155000D01*
X182935000Y-73855000D01*
X177235000Y-73855000D01*
X177235000Y-68155000D01*
G37*
G36*
X177235000Y-74155000D02*
G01*
X182935000Y-74155000D01*
X182935000Y-79855000D01*
X177235000Y-79855000D01*
X177235000Y-74155000D01*
G37*
G36*
X177235000Y-80155000D02*
G01*
X182935000Y-80155000D01*
X182935000Y-85855000D01*
X177235000Y-85855000D01*
X177235000Y-80155000D01*
G37*
G36*
X177235000Y-86155000D02*
G01*
X182935000Y-86155000D01*
X182935000Y-91855000D01*
X177235000Y-91855000D01*
X177235000Y-86155000D01*
G37*
G36*
X177235000Y-92155000D02*
G01*
X182935000Y-92155000D01*
X182935000Y-97855000D01*
X177235000Y-97855000D01*
X177235000Y-92155000D01*
G37*
G36*
X177235000Y-98155000D02*
G01*
X182935000Y-98155000D01*
X182935000Y-103855000D01*
X177235000Y-103855000D01*
X177235000Y-98155000D01*
G37*
G36*
X183235000Y-56155000D02*
G01*
X188935000Y-56155000D01*
X188935000Y-61855000D01*
X183235000Y-61855000D01*
X183235000Y-56155000D01*
G37*
G36*
X183235000Y-62155000D02*
G01*
X188935000Y-62155000D01*
X188935000Y-67855000D01*
X183235000Y-67855000D01*
X183235000Y-62155000D01*
G37*
G36*
X183235000Y-68155000D02*
G01*
X188935000Y-68155000D01*
X188935000Y-73855000D01*
X183235000Y-73855000D01*
X183235000Y-68155000D01*
G37*
G36*
X183235000Y-74155000D02*
G01*
X188935000Y-74155000D01*
X188935000Y-79855000D01*
X183235000Y-79855000D01*
X183235000Y-74155000D01*
G37*
G36*
X183235000Y-80155000D02*
G01*
X188935000Y-80155000D01*
X188935000Y-85855000D01*
X183235000Y-85855000D01*
X183235000Y-80155000D01*
G37*
G36*
X183235000Y-86155000D02*
G01*
X188935000Y-86155000D01*
X188935000Y-91855000D01*
X183235000Y-91855000D01*
X183235000Y-86155000D01*
G37*
G36*
X183235000Y-92155000D02*
G01*
X188935000Y-92155000D01*
X188935000Y-97855000D01*
X183235000Y-97855000D01*
X183235000Y-92155000D01*
G37*
G36*
X183235000Y-98155000D02*
G01*
X188935000Y-98155000D01*
X188935000Y-103855000D01*
X183235000Y-103855000D01*
X183235000Y-98155000D01*
G37*
G36*
X189235000Y-56155000D02*
G01*
X194935000Y-56155000D01*
X194935000Y-61855000D01*
X189235000Y-61855000D01*
X189235000Y-56155000D01*
G37*
G36*
X189235000Y-62155000D02*
G01*
X194935000Y-62155000D01*
X194935000Y-67855000D01*
X189235000Y-67855000D01*
X189235000Y-62155000D01*
G37*
G36*
X189235000Y-68155000D02*
G01*
X194935000Y-68155000D01*
X194935000Y-73855000D01*
X189235000Y-73855000D01*
X189235000Y-68155000D01*
G37*
G36*
X189235000Y-74155000D02*
G01*
X194935000Y-74155000D01*
X194935000Y-79855000D01*
X189235000Y-79855000D01*
X189235000Y-74155000D01*
G37*
G36*
X189235000Y-80155000D02*
G01*
X194935000Y-80155000D01*
X194935000Y-85855000D01*
X189235000Y-85855000D01*
X189235000Y-80155000D01*
G37*
G36*
X189235000Y-86155000D02*
G01*
X194935000Y-86155000D01*
X194935000Y-91855000D01*
X189235000Y-91855000D01*
X189235000Y-86155000D01*
G37*
G36*
X189235000Y-92155000D02*
G01*
X194935000Y-92155000D01*
X194935000Y-97855000D01*
X189235000Y-97855000D01*
X189235000Y-92155000D01*
G37*
G36*
X189235000Y-98155000D02*
G01*
X194935000Y-98155000D01*
X194935000Y-103855000D01*
X189235000Y-103855000D01*
X189235000Y-98155000D01*
G37*
G36*
X195235000Y-56155000D02*
G01*
X200935000Y-56155000D01*
X200935000Y-61855000D01*
X195235000Y-61855000D01*
X195235000Y-56155000D01*
G37*
G36*
X195235000Y-62155000D02*
G01*
X200935000Y-62155000D01*
X200935000Y-67855000D01*
X195235000Y-67855000D01*
X195235000Y-62155000D01*
G37*
G36*
X195235000Y-68155000D02*
G01*
X200935000Y-68155000D01*
X200935000Y-73855000D01*
X195235000Y-73855000D01*
X195235000Y-68155000D01*
G37*
G36*
X195235000Y-74155000D02*
G01*
X200935000Y-74155000D01*
X200935000Y-79855000D01*
X195235000Y-79855000D01*
X195235000Y-74155000D01*
G37*
G36*
X195235000Y-80155000D02*
G01*
X200935000Y-80155000D01*
X200935000Y-85855000D01*
X195235000Y-85855000D01*
X195235000Y-80155000D01*
G37*
G36*
X195235000Y-86155000D02*
G01*
X200935000Y-86155000D01*
X200935000Y-91855000D01*
X195235000Y-91855000D01*
X195235000Y-86155000D01*
G37*
G36*
X195235000Y-92155000D02*
G01*
X200935000Y-92155000D01*
X200935000Y-97855000D01*
X195235000Y-97855000D01*
X195235000Y-92155000D01*
G37*
G36*
X195235000Y-98155000D02*
G01*
X200935000Y-98155000D01*
X200935000Y-103855000D01*
X195235000Y-103855000D01*
X195235000Y-98155000D01*
G37*
G36*
X201235000Y-56155000D02*
G01*
X206935000Y-56155000D01*
X206935000Y-61855000D01*
X201235000Y-61855000D01*
X201235000Y-56155000D01*
G37*
G36*
X201235000Y-62155000D02*
G01*
X206935000Y-62155000D01*
X206935000Y-67855000D01*
X201235000Y-67855000D01*
X201235000Y-62155000D01*
G37*
G36*
X201235000Y-68155000D02*
G01*
X206935000Y-68155000D01*
X206935000Y-73855000D01*
X201235000Y-73855000D01*
X201235000Y-68155000D01*
G37*
G36*
X201235000Y-74155000D02*
G01*
X206935000Y-74155000D01*
X206935000Y-79855000D01*
X201235000Y-79855000D01*
X201235000Y-74155000D01*
G37*
G36*
X201235000Y-80155000D02*
G01*
X206935000Y-80155000D01*
X206935000Y-85855000D01*
X201235000Y-85855000D01*
X201235000Y-80155000D01*
G37*
G36*
X201235000Y-86155000D02*
G01*
X206935000Y-86155000D01*
X206935000Y-91855000D01*
X201235000Y-91855000D01*
X201235000Y-86155000D01*
G37*
G36*
X201235000Y-92155000D02*
G01*
X206935000Y-92155000D01*
X206935000Y-97855000D01*
X201235000Y-97855000D01*
X201235000Y-92155000D01*
G37*
G36*
X201235000Y-98155000D02*
G01*
X206935000Y-98155000D01*
X206935000Y-103855000D01*
X201235000Y-103855000D01*
X201235000Y-98155000D01*
G37*
G36*
X207235000Y-56155000D02*
G01*
X212935000Y-56155000D01*
X212935000Y-61855000D01*
X207235000Y-61855000D01*
X207235000Y-56155000D01*
G37*
G36*
X207235000Y-62155000D02*
G01*
X212935000Y-62155000D01*
X212935000Y-67855000D01*
X207235000Y-67855000D01*
X207235000Y-62155000D01*
G37*
G36*
X207235000Y-68155000D02*
G01*
X212935000Y-68155000D01*
X212935000Y-73855000D01*
X207235000Y-73855000D01*
X207235000Y-68155000D01*
G37*
G36*
X207235000Y-74155000D02*
G01*
X212935000Y-74155000D01*
X212935000Y-79855000D01*
X207235000Y-79855000D01*
X207235000Y-74155000D01*
G37*
G36*
X207235000Y-80155000D02*
G01*
X212935000Y-80155000D01*
X212935000Y-85855000D01*
X207235000Y-85855000D01*
X207235000Y-80155000D01*
G37*
G36*
X207235000Y-86155000D02*
G01*
X212935000Y-86155000D01*
X212935000Y-91855000D01*
X207235000Y-91855000D01*
X207235000Y-86155000D01*
G37*
G36*
X207235000Y-92155000D02*
G01*
X212935000Y-92155000D01*
X212935000Y-97855000D01*
X207235000Y-97855000D01*
X207235000Y-92155000D01*
G37*
G36*
X207235000Y-98155000D02*
G01*
X212935000Y-98155000D01*
X212935000Y-103855000D01*
X207235000Y-103855000D01*
X207235000Y-98155000D01*
G37*
G36*
X213235000Y-56155000D02*
G01*
X218935000Y-56155000D01*
X218935000Y-61855000D01*
X213235000Y-61855000D01*
X213235000Y-56155000D01*
G37*
G36*
X213235000Y-62155000D02*
G01*
X218935000Y-62155000D01*
X218935000Y-67855000D01*
X213235000Y-67855000D01*
X213235000Y-62155000D01*
G37*
G36*
X213235000Y-68155000D02*
G01*
X218935000Y-68155000D01*
X218935000Y-73855000D01*
X213235000Y-73855000D01*
X213235000Y-68155000D01*
G37*
G36*
X213235000Y-74155000D02*
G01*
X218935000Y-74155000D01*
X218935000Y-79855000D01*
X213235000Y-79855000D01*
X213235000Y-74155000D01*
G37*
G36*
X213235000Y-80155000D02*
G01*
X218935000Y-80155000D01*
X218935000Y-85855000D01*
X213235000Y-85855000D01*
X213235000Y-80155000D01*
G37*
G36*
X213235000Y-86155000D02*
G01*
X218935000Y-86155000D01*
X218935000Y-91855000D01*
X213235000Y-91855000D01*
X213235000Y-86155000D01*
G37*
G36*
X213235000Y-92155000D02*
G01*
X218935000Y-92155000D01*
X218935000Y-97855000D01*
X213235000Y-97855000D01*
X213235000Y-92155000D01*
G37*
G36*
X213235000Y-98155000D02*
G01*
X218935000Y-98155000D01*
X218935000Y-103855000D01*
X213235000Y-103855000D01*
X213235000Y-98155000D01*
G37*
G36*
X219235000Y-56155000D02*
G01*
X224935000Y-56155000D01*
X224935000Y-61855000D01*
X219235000Y-61855000D01*
X219235000Y-56155000D01*
G37*
G36*
X219235000Y-62155000D02*
G01*
X224935000Y-62155000D01*
X224935000Y-67855000D01*
X219235000Y-67855000D01*
X219235000Y-62155000D01*
G37*
G36*
X219235000Y-68155000D02*
G01*
X224935000Y-68155000D01*
X224935000Y-73855000D01*
X219235000Y-73855000D01*
X219235000Y-68155000D01*
G37*
G36*
X219235000Y-74155000D02*
G01*
X224935000Y-74155000D01*
X224935000Y-79855000D01*
X219235000Y-79855000D01*
X219235000Y-74155000D01*
G37*
G36*
X219235000Y-80155000D02*
G01*
X224935000Y-80155000D01*
X224935000Y-85855000D01*
X219235000Y-85855000D01*
X219235000Y-80155000D01*
G37*
G36*
X219235000Y-86155000D02*
G01*
X224935000Y-86155000D01*
X224935000Y-91855000D01*
X219235000Y-91855000D01*
X219235000Y-86155000D01*
G37*
G36*
X219235000Y-92155000D02*
G01*
X224935000Y-92155000D01*
X224935000Y-97855000D01*
X219235000Y-97855000D01*
X219235000Y-92155000D01*
G37*
G36*
X219235000Y-98155000D02*
G01*
X224935000Y-98155000D01*
X224935000Y-103855000D01*
X219235000Y-103855000D01*
X219235000Y-98155000D01*
G37*
G36*
X225235000Y-56155000D02*
G01*
X230935000Y-56155000D01*
X230935000Y-61855000D01*
X225235000Y-61855000D01*
X225235000Y-56155000D01*
G37*
G36*
X225235000Y-62155000D02*
G01*
X230935000Y-62155000D01*
X230935000Y-67855000D01*
X225235000Y-67855000D01*
X225235000Y-62155000D01*
G37*
G36*
X225235000Y-68155000D02*
G01*
X230935000Y-68155000D01*
X230935000Y-73855000D01*
X225235000Y-73855000D01*
X225235000Y-68155000D01*
G37*
G36*
X225235000Y-74155000D02*
G01*
X230935000Y-74155000D01*
X230935000Y-79855000D01*
X225235000Y-79855000D01*
X225235000Y-74155000D01*
G37*
G36*
X225235000Y-80155000D02*
G01*
X230935000Y-80155000D01*
X230935000Y-85855000D01*
X225235000Y-85855000D01*
X225235000Y-80155000D01*
G37*
G36*
X225235000Y-86155000D02*
G01*
X230935000Y-86155000D01*
X230935000Y-91855000D01*
X225235000Y-91855000D01*
X225235000Y-86155000D01*
G37*
G36*
X225235000Y-92155000D02*
G01*
X230935000Y-92155000D01*
X230935000Y-97855000D01*
X225235000Y-97855000D01*
X225235000Y-92155000D01*
G37*
G36*
X225235000Y-98155000D02*
G01*
X230935000Y-98155000D01*
X230935000Y-103855000D01*
X225235000Y-103855000D01*
X225235000Y-98155000D01*
G37*
G36*
X231235000Y-56155000D02*
G01*
X236935000Y-56155000D01*
X236935000Y-61855000D01*
X231235000Y-61855000D01*
X231235000Y-56155000D01*
G37*
G36*
X231235000Y-62155000D02*
G01*
X236935000Y-62155000D01*
X236935000Y-67855000D01*
X231235000Y-67855000D01*
X231235000Y-62155000D01*
G37*
G36*
X231235000Y-68155000D02*
G01*
X236935000Y-68155000D01*
X236935000Y-73855000D01*
X231235000Y-73855000D01*
X231235000Y-68155000D01*
G37*
G36*
X231235000Y-74155000D02*
G01*
X236935000Y-74155000D01*
X236935000Y-79855000D01*
X231235000Y-79855000D01*
X231235000Y-74155000D01*
G37*
G36*
X231235000Y-80155000D02*
G01*
X236935000Y-80155000D01*
X236935000Y-85855000D01*
X231235000Y-85855000D01*
X231235000Y-80155000D01*
G37*
G36*
X231235000Y-86155000D02*
G01*
X236935000Y-86155000D01*
X236935000Y-91855000D01*
X231235000Y-91855000D01*
X231235000Y-86155000D01*
G37*
G36*
X231235000Y-92155000D02*
G01*
X236935000Y-92155000D01*
X236935000Y-97855000D01*
X231235000Y-97855000D01*
X231235000Y-92155000D01*
G37*
G36*
X231235000Y-98155000D02*
G01*
X236935000Y-98155000D01*
X236935000Y-103855000D01*
X231235000Y-103855000D01*
X231235000Y-98155000D01*
G37*
G36*
X237235000Y-56155000D02*
G01*
X242935000Y-56155000D01*
X242935000Y-61855000D01*
X237235000Y-61855000D01*
X237235000Y-56155000D01*
G37*
G36*
X237235000Y-62155000D02*
G01*
X242935000Y-62155000D01*
X242935000Y-67855000D01*
X237235000Y-67855000D01*
X237235000Y-62155000D01*
G37*
G36*
X237235000Y-68155000D02*
G01*
X242935000Y-68155000D01*
X242935000Y-73855000D01*
X237235000Y-73855000D01*
X237235000Y-68155000D01*
G37*
G36*
X237235000Y-74155000D02*
G01*
X242935000Y-74155000D01*
X242935000Y-79855000D01*
X237235000Y-79855000D01*
X237235000Y-74155000D01*
G37*
G36*
X237235000Y-80155000D02*
G01*
X242935000Y-80155000D01*
X242935000Y-85855000D01*
X237235000Y-85855000D01*
X237235000Y-80155000D01*
G37*
G36*
X237235000Y-86155000D02*
G01*
X242935000Y-86155000D01*
X242935000Y-91855000D01*
X237235000Y-91855000D01*
X237235000Y-86155000D01*
G37*
G36*
X237235000Y-92155000D02*
G01*
X242935000Y-92155000D01*
X242935000Y-97855000D01*
X237235000Y-97855000D01*
X237235000Y-92155000D01*
G37*
G36*
X237235000Y-98155000D02*
G01*
X242935000Y-98155000D01*
X242935000Y-103855000D01*
X237235000Y-103855000D01*
X237235000Y-98155000D01*
G37*
G36*
X243235000Y-56155000D02*
G01*
X248935000Y-56155000D01*
X248935000Y-61855000D01*
X243235000Y-61855000D01*
X243235000Y-56155000D01*
G37*
G36*
X243235000Y-62155000D02*
G01*
X248935000Y-62155000D01*
X248935000Y-67855000D01*
X243235000Y-67855000D01*
X243235000Y-62155000D01*
G37*
G36*
X243235000Y-68155000D02*
G01*
X248935000Y-68155000D01*
X248935000Y-73855000D01*
X243235000Y-73855000D01*
X243235000Y-68155000D01*
G37*
G36*
X243235000Y-74155000D02*
G01*
X248935000Y-74155000D01*
X248935000Y-79855000D01*
X243235000Y-79855000D01*
X243235000Y-74155000D01*
G37*
G36*
X243235000Y-80155000D02*
G01*
X248935000Y-80155000D01*
X248935000Y-85855000D01*
X243235000Y-85855000D01*
X243235000Y-80155000D01*
G37*
G36*
X243235000Y-86155000D02*
G01*
X248935000Y-86155000D01*
X248935000Y-91855000D01*
X243235000Y-91855000D01*
X243235000Y-86155000D01*
G37*
G36*
X243235000Y-92155000D02*
G01*
X248935000Y-92155000D01*
X248935000Y-97855000D01*
X243235000Y-97855000D01*
X243235000Y-92155000D01*
G37*
G36*
X243235000Y-98155000D02*
G01*
X248935000Y-98155000D01*
X248935000Y-103855000D01*
X243235000Y-103855000D01*
X243235000Y-98155000D01*
G37*
G36*
X249235000Y-56155000D02*
G01*
X254935000Y-56155000D01*
X254935000Y-61855000D01*
X249235000Y-61855000D01*
X249235000Y-56155000D01*
G37*
G36*
X249235000Y-62155000D02*
G01*
X254935000Y-62155000D01*
X254935000Y-67855000D01*
X249235000Y-67855000D01*
X249235000Y-62155000D01*
G37*
G36*
X249235000Y-68155000D02*
G01*
X254935000Y-68155000D01*
X254935000Y-73855000D01*
X249235000Y-73855000D01*
X249235000Y-68155000D01*
G37*
G36*
X249235000Y-74155000D02*
G01*
X254935000Y-74155000D01*
X254935000Y-79855000D01*
X249235000Y-79855000D01*
X249235000Y-74155000D01*
G37*
G36*
X249235000Y-80155000D02*
G01*
X254935000Y-80155000D01*
X254935000Y-85855000D01*
X249235000Y-85855000D01*
X249235000Y-80155000D01*
G37*
G36*
X249235000Y-86155000D02*
G01*
X254935000Y-86155000D01*
X254935000Y-91855000D01*
X249235000Y-91855000D01*
X249235000Y-86155000D01*
G37*
G36*
X249235000Y-92155000D02*
G01*
X254935000Y-92155000D01*
X254935000Y-97855000D01*
X249235000Y-97855000D01*
X249235000Y-92155000D01*
G37*
G36*
X249235000Y-98155000D02*
G01*
X254935000Y-98155000D01*
X254935000Y-103855000D01*
X249235000Y-103855000D01*
X249235000Y-98155000D01*
G37*
M02*
