%TF.GenerationSoftware,KiCad,Pcbnew,6.0.8+dfsg-1~bpo11+1*%
%TF.CreationDate,2023-05-15T15:14:59-04:00*%
%TF.ProjectId,08_padded_interleaved_loose,30385f70-6164-4646-9564-5f696e746572,rev?*%
%TF.SameCoordinates,Original*%
%TF.FileFunction,Drillmap*%
%TF.FilePolarity,Positive*%
%FSLAX45Y45*%
G04 Gerber Fmt 4.5, Leading zero omitted, Abs format (unit mm)*
G04 Created by KiCad (PCBNEW 6.0.8+dfsg-1~bpo11+1) date 2023-05-15 15:14:59*
%MOMM*%
%LPD*%
G01*
G04 APERTURE LIST*
%ADD10C,0.100000*%
%ADD11C,0.200000*%
%ADD12C,0.020000*%
G04 APERTURE END LIST*
D10*
X4217500Y-4700000D02*
X27005000Y-4700000D01*
X27005000Y-4700000D02*
X27005000Y-11355000D01*
X27005000Y-11355000D02*
X4217500Y-11355000D01*
X4217500Y-11355000D02*
X4217500Y-4700000D01*
D11*
D12*
X6400000Y-5889000D02*
X6420000Y-5909000D01*
X6420000Y-5889000D02*
X6400000Y-5909000D01*
X6400000Y-6489000D02*
X6420000Y-6509000D01*
X6420000Y-6489000D02*
X6400000Y-6509000D01*
X6400000Y-7089000D02*
X6420000Y-7109000D01*
X6420000Y-7089000D02*
X6400000Y-7109000D01*
X6400000Y-7689000D02*
X6420000Y-7709000D01*
X6420000Y-7689000D02*
X6400000Y-7709000D01*
X6400000Y-8289000D02*
X6420000Y-8309000D01*
X6420000Y-8289000D02*
X6400000Y-8309000D01*
X6400000Y-8889000D02*
X6420000Y-8909000D01*
X6420000Y-8889000D02*
X6400000Y-8909000D01*
X6400000Y-9489000D02*
X6420000Y-9509000D01*
X6420000Y-9489000D02*
X6400000Y-9509000D01*
X6400000Y-10089000D02*
X6420000Y-10109000D01*
X6420000Y-10089000D02*
X6400000Y-10109000D01*
X6597500Y-5595000D02*
X6617500Y-5615000D01*
X6617500Y-5595000D02*
X6597500Y-5615000D01*
X6798000Y-5890000D02*
X6818000Y-5910000D01*
X6818000Y-5890000D02*
X6798000Y-5910000D01*
X6798000Y-6490000D02*
X6818000Y-6510000D01*
X6818000Y-6490000D02*
X6798000Y-6510000D01*
X6798000Y-7090000D02*
X6818000Y-7110000D01*
X6818000Y-7090000D02*
X6798000Y-7110000D01*
X6798000Y-7690000D02*
X6818000Y-7710000D01*
X6818000Y-7690000D02*
X6798000Y-7710000D01*
X6798000Y-8290000D02*
X6818000Y-8310000D01*
X6818000Y-8290000D02*
X6798000Y-8310000D01*
X6798000Y-8890000D02*
X6818000Y-8910000D01*
X6818000Y-8890000D02*
X6798000Y-8910000D01*
X6798000Y-9490000D02*
X6818000Y-9510000D01*
X6818000Y-9490000D02*
X6798000Y-9510000D01*
X6798000Y-10090000D02*
X6818000Y-10110000D01*
X6818000Y-10090000D02*
X6798000Y-10110000D01*
X7000000Y-5889000D02*
X7020000Y-5909000D01*
X7020000Y-5889000D02*
X7000000Y-5909000D01*
X7000000Y-6489000D02*
X7020000Y-6509000D01*
X7020000Y-6489000D02*
X7000000Y-6509000D01*
X7000000Y-7089000D02*
X7020000Y-7109000D01*
X7020000Y-7089000D02*
X7000000Y-7109000D01*
X7000000Y-7689000D02*
X7020000Y-7709000D01*
X7020000Y-7689000D02*
X7000000Y-7709000D01*
X7000000Y-8289000D02*
X7020000Y-8309000D01*
X7020000Y-8289000D02*
X7000000Y-8309000D01*
X7000000Y-8889000D02*
X7020000Y-8909000D01*
X7020000Y-8889000D02*
X7000000Y-8909000D01*
X7000000Y-9489000D02*
X7020000Y-9509000D01*
X7020000Y-9489000D02*
X7000000Y-9509000D01*
X7000000Y-10089000D02*
X7020000Y-10109000D01*
X7020000Y-10089000D02*
X7000000Y-10109000D01*
X7197500Y-5595000D02*
X7217500Y-5615000D01*
X7217500Y-5595000D02*
X7197500Y-5615000D01*
X7398000Y-5890000D02*
X7418000Y-5910000D01*
X7418000Y-5890000D02*
X7398000Y-5910000D01*
X7398000Y-6490000D02*
X7418000Y-6510000D01*
X7418000Y-6490000D02*
X7398000Y-6510000D01*
X7398000Y-7090000D02*
X7418000Y-7110000D01*
X7418000Y-7090000D02*
X7398000Y-7110000D01*
X7398000Y-7690000D02*
X7418000Y-7710000D01*
X7418000Y-7690000D02*
X7398000Y-7710000D01*
X7398000Y-8290000D02*
X7418000Y-8310000D01*
X7418000Y-8290000D02*
X7398000Y-8310000D01*
X7398000Y-8890000D02*
X7418000Y-8910000D01*
X7418000Y-8890000D02*
X7398000Y-8910000D01*
X7398000Y-9490000D02*
X7418000Y-9510000D01*
X7418000Y-9490000D02*
X7398000Y-9510000D01*
X7398000Y-10090000D02*
X7418000Y-10110000D01*
X7418000Y-10090000D02*
X7398000Y-10110000D01*
X7600000Y-5889000D02*
X7620000Y-5909000D01*
X7620000Y-5889000D02*
X7600000Y-5909000D01*
X7600000Y-6489000D02*
X7620000Y-6509000D01*
X7620000Y-6489000D02*
X7600000Y-6509000D01*
X7600000Y-7089000D02*
X7620000Y-7109000D01*
X7620000Y-7089000D02*
X7600000Y-7109000D01*
X7600000Y-7689000D02*
X7620000Y-7709000D01*
X7620000Y-7689000D02*
X7600000Y-7709000D01*
X7600000Y-8289000D02*
X7620000Y-8309000D01*
X7620000Y-8289000D02*
X7600000Y-8309000D01*
X7600000Y-8889000D02*
X7620000Y-8909000D01*
X7620000Y-8889000D02*
X7600000Y-8909000D01*
X7600000Y-9489000D02*
X7620000Y-9509000D01*
X7620000Y-9489000D02*
X7600000Y-9509000D01*
X7600000Y-10089000D02*
X7620000Y-10109000D01*
X7620000Y-10089000D02*
X7600000Y-10109000D01*
X7797500Y-5595000D02*
X7817500Y-5615000D01*
X7817500Y-5595000D02*
X7797500Y-5615000D01*
X7998000Y-5890000D02*
X8018000Y-5910000D01*
X8018000Y-5890000D02*
X7998000Y-5910000D01*
X7998000Y-6490000D02*
X8018000Y-6510000D01*
X8018000Y-6490000D02*
X7998000Y-6510000D01*
X7998000Y-7090000D02*
X8018000Y-7110000D01*
X8018000Y-7090000D02*
X7998000Y-7110000D01*
X7998000Y-7690000D02*
X8018000Y-7710000D01*
X8018000Y-7690000D02*
X7998000Y-7710000D01*
X7998000Y-8290000D02*
X8018000Y-8310000D01*
X8018000Y-8290000D02*
X7998000Y-8310000D01*
X7998000Y-8890000D02*
X8018000Y-8910000D01*
X8018000Y-8890000D02*
X7998000Y-8910000D01*
X7998000Y-9490000D02*
X8018000Y-9510000D01*
X8018000Y-9490000D02*
X7998000Y-9510000D01*
X7998000Y-10090000D02*
X8018000Y-10110000D01*
X8018000Y-10090000D02*
X7998000Y-10110000D01*
X8200000Y-5889000D02*
X8220000Y-5909000D01*
X8220000Y-5889000D02*
X8200000Y-5909000D01*
X8200000Y-6489000D02*
X8220000Y-6509000D01*
X8220000Y-6489000D02*
X8200000Y-6509000D01*
X8200000Y-7089000D02*
X8220000Y-7109000D01*
X8220000Y-7089000D02*
X8200000Y-7109000D01*
X8200000Y-7689000D02*
X8220000Y-7709000D01*
X8220000Y-7689000D02*
X8200000Y-7709000D01*
X8200000Y-8289000D02*
X8220000Y-8309000D01*
X8220000Y-8289000D02*
X8200000Y-8309000D01*
X8200000Y-8889000D02*
X8220000Y-8909000D01*
X8220000Y-8889000D02*
X8200000Y-8909000D01*
X8200000Y-9489000D02*
X8220000Y-9509000D01*
X8220000Y-9489000D02*
X8200000Y-9509000D01*
X8200000Y-10089000D02*
X8220000Y-10109000D01*
X8220000Y-10089000D02*
X8200000Y-10109000D01*
X8397500Y-5595000D02*
X8417500Y-5615000D01*
X8417500Y-5595000D02*
X8397500Y-5615000D01*
X8598000Y-5890000D02*
X8618000Y-5910000D01*
X8618000Y-5890000D02*
X8598000Y-5910000D01*
X8598000Y-6490000D02*
X8618000Y-6510000D01*
X8618000Y-6490000D02*
X8598000Y-6510000D01*
X8598000Y-7090000D02*
X8618000Y-7110000D01*
X8618000Y-7090000D02*
X8598000Y-7110000D01*
X8598000Y-7690000D02*
X8618000Y-7710000D01*
X8618000Y-7690000D02*
X8598000Y-7710000D01*
X8598000Y-8290000D02*
X8618000Y-8310000D01*
X8618000Y-8290000D02*
X8598000Y-8310000D01*
X8598000Y-8890000D02*
X8618000Y-8910000D01*
X8618000Y-8890000D02*
X8598000Y-8910000D01*
X8598000Y-9490000D02*
X8618000Y-9510000D01*
X8618000Y-9490000D02*
X8598000Y-9510000D01*
X8598000Y-10090000D02*
X8618000Y-10110000D01*
X8618000Y-10090000D02*
X8598000Y-10110000D01*
X8800000Y-5889000D02*
X8820000Y-5909000D01*
X8820000Y-5889000D02*
X8800000Y-5909000D01*
X8800000Y-6489000D02*
X8820000Y-6509000D01*
X8820000Y-6489000D02*
X8800000Y-6509000D01*
X8800000Y-7089000D02*
X8820000Y-7109000D01*
X8820000Y-7089000D02*
X8800000Y-7109000D01*
X8800000Y-7689000D02*
X8820000Y-7709000D01*
X8820000Y-7689000D02*
X8800000Y-7709000D01*
X8800000Y-8289000D02*
X8820000Y-8309000D01*
X8820000Y-8289000D02*
X8800000Y-8309000D01*
X8800000Y-8889000D02*
X8820000Y-8909000D01*
X8820000Y-8889000D02*
X8800000Y-8909000D01*
X8800000Y-9489000D02*
X8820000Y-9509000D01*
X8820000Y-9489000D02*
X8800000Y-9509000D01*
X8800000Y-10089000D02*
X8820000Y-10109000D01*
X8820000Y-10089000D02*
X8800000Y-10109000D01*
X8997500Y-5595000D02*
X9017500Y-5615000D01*
X9017500Y-5595000D02*
X8997500Y-5615000D01*
X9198000Y-5890000D02*
X9218000Y-5910000D01*
X9218000Y-5890000D02*
X9198000Y-5910000D01*
X9198000Y-6490000D02*
X9218000Y-6510000D01*
X9218000Y-6490000D02*
X9198000Y-6510000D01*
X9198000Y-7090000D02*
X9218000Y-7110000D01*
X9218000Y-7090000D02*
X9198000Y-7110000D01*
X9198000Y-7690000D02*
X9218000Y-7710000D01*
X9218000Y-7690000D02*
X9198000Y-7710000D01*
X9198000Y-8290000D02*
X9218000Y-8310000D01*
X9218000Y-8290000D02*
X9198000Y-8310000D01*
X9198000Y-8890000D02*
X9218000Y-8910000D01*
X9218000Y-8890000D02*
X9198000Y-8910000D01*
X9198000Y-9490000D02*
X9218000Y-9510000D01*
X9218000Y-9490000D02*
X9198000Y-9510000D01*
X9198000Y-10090000D02*
X9218000Y-10110000D01*
X9218000Y-10090000D02*
X9198000Y-10110000D01*
X9400000Y-5889000D02*
X9420000Y-5909000D01*
X9420000Y-5889000D02*
X9400000Y-5909000D01*
X9400000Y-6489000D02*
X9420000Y-6509000D01*
X9420000Y-6489000D02*
X9400000Y-6509000D01*
X9400000Y-7089000D02*
X9420000Y-7109000D01*
X9420000Y-7089000D02*
X9400000Y-7109000D01*
X9400000Y-7689000D02*
X9420000Y-7709000D01*
X9420000Y-7689000D02*
X9400000Y-7709000D01*
X9400000Y-8289000D02*
X9420000Y-8309000D01*
X9420000Y-8289000D02*
X9400000Y-8309000D01*
X9400000Y-8889000D02*
X9420000Y-8909000D01*
X9420000Y-8889000D02*
X9400000Y-8909000D01*
X9400000Y-9489000D02*
X9420000Y-9509000D01*
X9420000Y-9489000D02*
X9400000Y-9509000D01*
X9400000Y-10089000D02*
X9420000Y-10109000D01*
X9420000Y-10089000D02*
X9400000Y-10109000D01*
X9597500Y-5595000D02*
X9617500Y-5615000D01*
X9617500Y-5595000D02*
X9597500Y-5615000D01*
X9798000Y-5890000D02*
X9818000Y-5910000D01*
X9818000Y-5890000D02*
X9798000Y-5910000D01*
X9798000Y-6490000D02*
X9818000Y-6510000D01*
X9818000Y-6490000D02*
X9798000Y-6510000D01*
X9798000Y-7090000D02*
X9818000Y-7110000D01*
X9818000Y-7090000D02*
X9798000Y-7110000D01*
X9798000Y-7690000D02*
X9818000Y-7710000D01*
X9818000Y-7690000D02*
X9798000Y-7710000D01*
X9798000Y-8290000D02*
X9818000Y-8310000D01*
X9818000Y-8290000D02*
X9798000Y-8310000D01*
X9798000Y-8890000D02*
X9818000Y-8910000D01*
X9818000Y-8890000D02*
X9798000Y-8910000D01*
X9798000Y-9490000D02*
X9818000Y-9510000D01*
X9818000Y-9490000D02*
X9798000Y-9510000D01*
X9798000Y-10090000D02*
X9818000Y-10110000D01*
X9818000Y-10090000D02*
X9798000Y-10110000D01*
X10000000Y-5889000D02*
X10020000Y-5909000D01*
X10020000Y-5889000D02*
X10000000Y-5909000D01*
X10000000Y-6489000D02*
X10020000Y-6509000D01*
X10020000Y-6489000D02*
X10000000Y-6509000D01*
X10000000Y-7089000D02*
X10020000Y-7109000D01*
X10020000Y-7089000D02*
X10000000Y-7109000D01*
X10000000Y-7689000D02*
X10020000Y-7709000D01*
X10020000Y-7689000D02*
X10000000Y-7709000D01*
X10000000Y-8289000D02*
X10020000Y-8309000D01*
X10020000Y-8289000D02*
X10000000Y-8309000D01*
X10000000Y-8889000D02*
X10020000Y-8909000D01*
X10020000Y-8889000D02*
X10000000Y-8909000D01*
X10000000Y-9489000D02*
X10020000Y-9509000D01*
X10020000Y-9489000D02*
X10000000Y-9509000D01*
X10000000Y-10089000D02*
X10020000Y-10109000D01*
X10020000Y-10089000D02*
X10000000Y-10109000D01*
X10197500Y-5595000D02*
X10217500Y-5615000D01*
X10217500Y-5595000D02*
X10197500Y-5615000D01*
X10398000Y-5890000D02*
X10418000Y-5910000D01*
X10418000Y-5890000D02*
X10398000Y-5910000D01*
X10398000Y-6490000D02*
X10418000Y-6510000D01*
X10418000Y-6490000D02*
X10398000Y-6510000D01*
X10398000Y-7090000D02*
X10418000Y-7110000D01*
X10418000Y-7090000D02*
X10398000Y-7110000D01*
X10398000Y-7690000D02*
X10418000Y-7710000D01*
X10418000Y-7690000D02*
X10398000Y-7710000D01*
X10398000Y-8290000D02*
X10418000Y-8310000D01*
X10418000Y-8290000D02*
X10398000Y-8310000D01*
X10398000Y-8890000D02*
X10418000Y-8910000D01*
X10418000Y-8890000D02*
X10398000Y-8910000D01*
X10398000Y-9490000D02*
X10418000Y-9510000D01*
X10418000Y-9490000D02*
X10398000Y-9510000D01*
X10398000Y-10090000D02*
X10418000Y-10110000D01*
X10418000Y-10090000D02*
X10398000Y-10110000D01*
X10600000Y-5889000D02*
X10620000Y-5909000D01*
X10620000Y-5889000D02*
X10600000Y-5909000D01*
X10600000Y-6489000D02*
X10620000Y-6509000D01*
X10620000Y-6489000D02*
X10600000Y-6509000D01*
X10600000Y-7089000D02*
X10620000Y-7109000D01*
X10620000Y-7089000D02*
X10600000Y-7109000D01*
X10600000Y-7689000D02*
X10620000Y-7709000D01*
X10620000Y-7689000D02*
X10600000Y-7709000D01*
X10600000Y-8289000D02*
X10620000Y-8309000D01*
X10620000Y-8289000D02*
X10600000Y-8309000D01*
X10600000Y-8889000D02*
X10620000Y-8909000D01*
X10620000Y-8889000D02*
X10600000Y-8909000D01*
X10600000Y-9489000D02*
X10620000Y-9509000D01*
X10620000Y-9489000D02*
X10600000Y-9509000D01*
X10600000Y-10089000D02*
X10620000Y-10109000D01*
X10620000Y-10089000D02*
X10600000Y-10109000D01*
X10797500Y-5595000D02*
X10817500Y-5615000D01*
X10817500Y-5595000D02*
X10797500Y-5615000D01*
X10998000Y-5890000D02*
X11018000Y-5910000D01*
X11018000Y-5890000D02*
X10998000Y-5910000D01*
X10998000Y-6490000D02*
X11018000Y-6510000D01*
X11018000Y-6490000D02*
X10998000Y-6510000D01*
X10998000Y-7090000D02*
X11018000Y-7110000D01*
X11018000Y-7090000D02*
X10998000Y-7110000D01*
X10998000Y-7690000D02*
X11018000Y-7710000D01*
X11018000Y-7690000D02*
X10998000Y-7710000D01*
X10998000Y-8290000D02*
X11018000Y-8310000D01*
X11018000Y-8290000D02*
X10998000Y-8310000D01*
X10998000Y-8890000D02*
X11018000Y-8910000D01*
X11018000Y-8890000D02*
X10998000Y-8910000D01*
X10998000Y-9490000D02*
X11018000Y-9510000D01*
X11018000Y-9490000D02*
X10998000Y-9510000D01*
X10998000Y-10090000D02*
X11018000Y-10110000D01*
X11018000Y-10090000D02*
X10998000Y-10110000D01*
X11200000Y-5889000D02*
X11220000Y-5909000D01*
X11220000Y-5889000D02*
X11200000Y-5909000D01*
X11200000Y-6489000D02*
X11220000Y-6509000D01*
X11220000Y-6489000D02*
X11200000Y-6509000D01*
X11200000Y-7089000D02*
X11220000Y-7109000D01*
X11220000Y-7089000D02*
X11200000Y-7109000D01*
X11200000Y-7689000D02*
X11220000Y-7709000D01*
X11220000Y-7689000D02*
X11200000Y-7709000D01*
X11200000Y-8289000D02*
X11220000Y-8309000D01*
X11220000Y-8289000D02*
X11200000Y-8309000D01*
X11200000Y-8889000D02*
X11220000Y-8909000D01*
X11220000Y-8889000D02*
X11200000Y-8909000D01*
X11200000Y-9489000D02*
X11220000Y-9509000D01*
X11220000Y-9489000D02*
X11200000Y-9509000D01*
X11200000Y-10089000D02*
X11220000Y-10109000D01*
X11220000Y-10089000D02*
X11200000Y-10109000D01*
X11397500Y-5595000D02*
X11417500Y-5615000D01*
X11417500Y-5595000D02*
X11397500Y-5615000D01*
X11598000Y-5890000D02*
X11618000Y-5910000D01*
X11618000Y-5890000D02*
X11598000Y-5910000D01*
X11598000Y-6490000D02*
X11618000Y-6510000D01*
X11618000Y-6490000D02*
X11598000Y-6510000D01*
X11598000Y-7090000D02*
X11618000Y-7110000D01*
X11618000Y-7090000D02*
X11598000Y-7110000D01*
X11598000Y-7690000D02*
X11618000Y-7710000D01*
X11618000Y-7690000D02*
X11598000Y-7710000D01*
X11598000Y-8290000D02*
X11618000Y-8310000D01*
X11618000Y-8290000D02*
X11598000Y-8310000D01*
X11598000Y-8890000D02*
X11618000Y-8910000D01*
X11618000Y-8890000D02*
X11598000Y-8910000D01*
X11598000Y-9490000D02*
X11618000Y-9510000D01*
X11618000Y-9490000D02*
X11598000Y-9510000D01*
X11598000Y-10090000D02*
X11618000Y-10110000D01*
X11618000Y-10090000D02*
X11598000Y-10110000D01*
X11800000Y-5889000D02*
X11820000Y-5909000D01*
X11820000Y-5889000D02*
X11800000Y-5909000D01*
X11800000Y-6489000D02*
X11820000Y-6509000D01*
X11820000Y-6489000D02*
X11800000Y-6509000D01*
X11800000Y-7089000D02*
X11820000Y-7109000D01*
X11820000Y-7089000D02*
X11800000Y-7109000D01*
X11800000Y-7689000D02*
X11820000Y-7709000D01*
X11820000Y-7689000D02*
X11800000Y-7709000D01*
X11800000Y-8289000D02*
X11820000Y-8309000D01*
X11820000Y-8289000D02*
X11800000Y-8309000D01*
X11800000Y-8889000D02*
X11820000Y-8909000D01*
X11820000Y-8889000D02*
X11800000Y-8909000D01*
X11800000Y-9489000D02*
X11820000Y-9509000D01*
X11820000Y-9489000D02*
X11800000Y-9509000D01*
X11800000Y-10089000D02*
X11820000Y-10109000D01*
X11820000Y-10089000D02*
X11800000Y-10109000D01*
X11997500Y-5595000D02*
X12017500Y-5615000D01*
X12017500Y-5595000D02*
X11997500Y-5615000D01*
X12198000Y-5890000D02*
X12218000Y-5910000D01*
X12218000Y-5890000D02*
X12198000Y-5910000D01*
X12198000Y-6490000D02*
X12218000Y-6510000D01*
X12218000Y-6490000D02*
X12198000Y-6510000D01*
X12198000Y-7090000D02*
X12218000Y-7110000D01*
X12218000Y-7090000D02*
X12198000Y-7110000D01*
X12198000Y-7690000D02*
X12218000Y-7710000D01*
X12218000Y-7690000D02*
X12198000Y-7710000D01*
X12198000Y-8290000D02*
X12218000Y-8310000D01*
X12218000Y-8290000D02*
X12198000Y-8310000D01*
X12198000Y-8890000D02*
X12218000Y-8910000D01*
X12218000Y-8890000D02*
X12198000Y-8910000D01*
X12198000Y-9490000D02*
X12218000Y-9510000D01*
X12218000Y-9490000D02*
X12198000Y-9510000D01*
X12198000Y-10090000D02*
X12218000Y-10110000D01*
X12218000Y-10090000D02*
X12198000Y-10110000D01*
X12400000Y-5889000D02*
X12420000Y-5909000D01*
X12420000Y-5889000D02*
X12400000Y-5909000D01*
X12400000Y-6489000D02*
X12420000Y-6509000D01*
X12420000Y-6489000D02*
X12400000Y-6509000D01*
X12400000Y-7089000D02*
X12420000Y-7109000D01*
X12420000Y-7089000D02*
X12400000Y-7109000D01*
X12400000Y-7689000D02*
X12420000Y-7709000D01*
X12420000Y-7689000D02*
X12400000Y-7709000D01*
X12400000Y-8289000D02*
X12420000Y-8309000D01*
X12420000Y-8289000D02*
X12400000Y-8309000D01*
X12400000Y-8889000D02*
X12420000Y-8909000D01*
X12420000Y-8889000D02*
X12400000Y-8909000D01*
X12400000Y-9489000D02*
X12420000Y-9509000D01*
X12420000Y-9489000D02*
X12400000Y-9509000D01*
X12400000Y-10089000D02*
X12420000Y-10109000D01*
X12420000Y-10089000D02*
X12400000Y-10109000D01*
X12597500Y-5595000D02*
X12617500Y-5615000D01*
X12617500Y-5595000D02*
X12597500Y-5615000D01*
X12798000Y-5890000D02*
X12818000Y-5910000D01*
X12818000Y-5890000D02*
X12798000Y-5910000D01*
X12798000Y-6490000D02*
X12818000Y-6510000D01*
X12818000Y-6490000D02*
X12798000Y-6510000D01*
X12798000Y-7090000D02*
X12818000Y-7110000D01*
X12818000Y-7090000D02*
X12798000Y-7110000D01*
X12798000Y-7690000D02*
X12818000Y-7710000D01*
X12818000Y-7690000D02*
X12798000Y-7710000D01*
X12798000Y-8290000D02*
X12818000Y-8310000D01*
X12818000Y-8290000D02*
X12798000Y-8310000D01*
X12798000Y-8890000D02*
X12818000Y-8910000D01*
X12818000Y-8890000D02*
X12798000Y-8910000D01*
X12798000Y-9490000D02*
X12818000Y-9510000D01*
X12818000Y-9490000D02*
X12798000Y-9510000D01*
X12798000Y-10090000D02*
X12818000Y-10110000D01*
X12818000Y-10090000D02*
X12798000Y-10110000D01*
X13000000Y-5889000D02*
X13020000Y-5909000D01*
X13020000Y-5889000D02*
X13000000Y-5909000D01*
X13000000Y-6489000D02*
X13020000Y-6509000D01*
X13020000Y-6489000D02*
X13000000Y-6509000D01*
X13000000Y-7089000D02*
X13020000Y-7109000D01*
X13020000Y-7089000D02*
X13000000Y-7109000D01*
X13000000Y-7689000D02*
X13020000Y-7709000D01*
X13020000Y-7689000D02*
X13000000Y-7709000D01*
X13000000Y-8289000D02*
X13020000Y-8309000D01*
X13020000Y-8289000D02*
X13000000Y-8309000D01*
X13000000Y-8889000D02*
X13020000Y-8909000D01*
X13020000Y-8889000D02*
X13000000Y-8909000D01*
X13000000Y-9489000D02*
X13020000Y-9509000D01*
X13020000Y-9489000D02*
X13000000Y-9509000D01*
X13000000Y-10089000D02*
X13020000Y-10109000D01*
X13020000Y-10089000D02*
X13000000Y-10109000D01*
X13197500Y-5595000D02*
X13217500Y-5615000D01*
X13217500Y-5595000D02*
X13197500Y-5615000D01*
X13398000Y-5890000D02*
X13418000Y-5910000D01*
X13418000Y-5890000D02*
X13398000Y-5910000D01*
X13398000Y-6490000D02*
X13418000Y-6510000D01*
X13418000Y-6490000D02*
X13398000Y-6510000D01*
X13398000Y-7090000D02*
X13418000Y-7110000D01*
X13418000Y-7090000D02*
X13398000Y-7110000D01*
X13398000Y-7690000D02*
X13418000Y-7710000D01*
X13418000Y-7690000D02*
X13398000Y-7710000D01*
X13398000Y-8290000D02*
X13418000Y-8310000D01*
X13418000Y-8290000D02*
X13398000Y-8310000D01*
X13398000Y-8890000D02*
X13418000Y-8910000D01*
X13418000Y-8890000D02*
X13398000Y-8910000D01*
X13398000Y-9490000D02*
X13418000Y-9510000D01*
X13418000Y-9490000D02*
X13398000Y-9510000D01*
X13398000Y-10090000D02*
X13418000Y-10110000D01*
X13418000Y-10090000D02*
X13398000Y-10110000D01*
X13600000Y-5889000D02*
X13620000Y-5909000D01*
X13620000Y-5889000D02*
X13600000Y-5909000D01*
X13600000Y-6489000D02*
X13620000Y-6509000D01*
X13620000Y-6489000D02*
X13600000Y-6509000D01*
X13600000Y-7089000D02*
X13620000Y-7109000D01*
X13620000Y-7089000D02*
X13600000Y-7109000D01*
X13600000Y-7689000D02*
X13620000Y-7709000D01*
X13620000Y-7689000D02*
X13600000Y-7709000D01*
X13600000Y-8289000D02*
X13620000Y-8309000D01*
X13620000Y-8289000D02*
X13600000Y-8309000D01*
X13600000Y-8889000D02*
X13620000Y-8909000D01*
X13620000Y-8889000D02*
X13600000Y-8909000D01*
X13600000Y-9489000D02*
X13620000Y-9509000D01*
X13620000Y-9489000D02*
X13600000Y-9509000D01*
X13600000Y-10089000D02*
X13620000Y-10109000D01*
X13620000Y-10089000D02*
X13600000Y-10109000D01*
X13797500Y-5595000D02*
X13817500Y-5615000D01*
X13817500Y-5595000D02*
X13797500Y-5615000D01*
X13998000Y-5890000D02*
X14018000Y-5910000D01*
X14018000Y-5890000D02*
X13998000Y-5910000D01*
X13998000Y-6490000D02*
X14018000Y-6510000D01*
X14018000Y-6490000D02*
X13998000Y-6510000D01*
X13998000Y-7090000D02*
X14018000Y-7110000D01*
X14018000Y-7090000D02*
X13998000Y-7110000D01*
X13998000Y-7690000D02*
X14018000Y-7710000D01*
X14018000Y-7690000D02*
X13998000Y-7710000D01*
X13998000Y-8290000D02*
X14018000Y-8310000D01*
X14018000Y-8290000D02*
X13998000Y-8310000D01*
X13998000Y-8890000D02*
X14018000Y-8910000D01*
X14018000Y-8890000D02*
X13998000Y-8910000D01*
X13998000Y-9490000D02*
X14018000Y-9510000D01*
X14018000Y-9490000D02*
X13998000Y-9510000D01*
X13998000Y-10090000D02*
X14018000Y-10110000D01*
X14018000Y-10090000D02*
X13998000Y-10110000D01*
X14200000Y-5889000D02*
X14220000Y-5909000D01*
X14220000Y-5889000D02*
X14200000Y-5909000D01*
X14200000Y-6489000D02*
X14220000Y-6509000D01*
X14220000Y-6489000D02*
X14200000Y-6509000D01*
X14200000Y-7089000D02*
X14220000Y-7109000D01*
X14220000Y-7089000D02*
X14200000Y-7109000D01*
X14200000Y-7689000D02*
X14220000Y-7709000D01*
X14220000Y-7689000D02*
X14200000Y-7709000D01*
X14200000Y-8289000D02*
X14220000Y-8309000D01*
X14220000Y-8289000D02*
X14200000Y-8309000D01*
X14200000Y-8889000D02*
X14220000Y-8909000D01*
X14220000Y-8889000D02*
X14200000Y-8909000D01*
X14200000Y-9489000D02*
X14220000Y-9509000D01*
X14220000Y-9489000D02*
X14200000Y-9509000D01*
X14200000Y-10089000D02*
X14220000Y-10109000D01*
X14220000Y-10089000D02*
X14200000Y-10109000D01*
X14397500Y-5595000D02*
X14417500Y-5615000D01*
X14417500Y-5595000D02*
X14397500Y-5615000D01*
X14598000Y-5890000D02*
X14618000Y-5910000D01*
X14618000Y-5890000D02*
X14598000Y-5910000D01*
X14598000Y-6490000D02*
X14618000Y-6510000D01*
X14618000Y-6490000D02*
X14598000Y-6510000D01*
X14598000Y-7090000D02*
X14618000Y-7110000D01*
X14618000Y-7090000D02*
X14598000Y-7110000D01*
X14598000Y-7690000D02*
X14618000Y-7710000D01*
X14618000Y-7690000D02*
X14598000Y-7710000D01*
X14598000Y-8290000D02*
X14618000Y-8310000D01*
X14618000Y-8290000D02*
X14598000Y-8310000D01*
X14598000Y-8890000D02*
X14618000Y-8910000D01*
X14618000Y-8890000D02*
X14598000Y-8910000D01*
X14598000Y-9490000D02*
X14618000Y-9510000D01*
X14618000Y-9490000D02*
X14598000Y-9510000D01*
X14598000Y-10090000D02*
X14618000Y-10110000D01*
X14618000Y-10090000D02*
X14598000Y-10110000D01*
X14800000Y-5889000D02*
X14820000Y-5909000D01*
X14820000Y-5889000D02*
X14800000Y-5909000D01*
X14800000Y-6489000D02*
X14820000Y-6509000D01*
X14820000Y-6489000D02*
X14800000Y-6509000D01*
X14800000Y-7089000D02*
X14820000Y-7109000D01*
X14820000Y-7089000D02*
X14800000Y-7109000D01*
X14800000Y-7689000D02*
X14820000Y-7709000D01*
X14820000Y-7689000D02*
X14800000Y-7709000D01*
X14800000Y-8289000D02*
X14820000Y-8309000D01*
X14820000Y-8289000D02*
X14800000Y-8309000D01*
X14800000Y-8889000D02*
X14820000Y-8909000D01*
X14820000Y-8889000D02*
X14800000Y-8909000D01*
X14800000Y-9489000D02*
X14820000Y-9509000D01*
X14820000Y-9489000D02*
X14800000Y-9509000D01*
X14800000Y-10089000D02*
X14820000Y-10109000D01*
X14820000Y-10089000D02*
X14800000Y-10109000D01*
X14997500Y-5595000D02*
X15017500Y-5615000D01*
X15017500Y-5595000D02*
X14997500Y-5615000D01*
X15198000Y-5890000D02*
X15218000Y-5910000D01*
X15218000Y-5890000D02*
X15198000Y-5910000D01*
X15198000Y-6490000D02*
X15218000Y-6510000D01*
X15218000Y-6490000D02*
X15198000Y-6510000D01*
X15198000Y-7090000D02*
X15218000Y-7110000D01*
X15218000Y-7090000D02*
X15198000Y-7110000D01*
X15198000Y-7690000D02*
X15218000Y-7710000D01*
X15218000Y-7690000D02*
X15198000Y-7710000D01*
X15198000Y-8290000D02*
X15218000Y-8310000D01*
X15218000Y-8290000D02*
X15198000Y-8310000D01*
X15198000Y-8890000D02*
X15218000Y-8910000D01*
X15218000Y-8890000D02*
X15198000Y-8910000D01*
X15198000Y-9490000D02*
X15218000Y-9510000D01*
X15218000Y-9490000D02*
X15198000Y-9510000D01*
X15198000Y-10090000D02*
X15218000Y-10110000D01*
X15218000Y-10090000D02*
X15198000Y-10110000D01*
X15400000Y-5889000D02*
X15420000Y-5909000D01*
X15420000Y-5889000D02*
X15400000Y-5909000D01*
X15400000Y-6489000D02*
X15420000Y-6509000D01*
X15420000Y-6489000D02*
X15400000Y-6509000D01*
X15400000Y-7089000D02*
X15420000Y-7109000D01*
X15420000Y-7089000D02*
X15400000Y-7109000D01*
X15400000Y-7689000D02*
X15420000Y-7709000D01*
X15420000Y-7689000D02*
X15400000Y-7709000D01*
X15400000Y-8289000D02*
X15420000Y-8309000D01*
X15420000Y-8289000D02*
X15400000Y-8309000D01*
X15400000Y-8889000D02*
X15420000Y-8909000D01*
X15420000Y-8889000D02*
X15400000Y-8909000D01*
X15400000Y-9489000D02*
X15420000Y-9509000D01*
X15420000Y-9489000D02*
X15400000Y-9509000D01*
X15400000Y-10089000D02*
X15420000Y-10109000D01*
X15420000Y-10089000D02*
X15400000Y-10109000D01*
X15597500Y-5595000D02*
X15617500Y-5615000D01*
X15617500Y-5595000D02*
X15597500Y-5615000D01*
X15798000Y-5890000D02*
X15818000Y-5910000D01*
X15818000Y-5890000D02*
X15798000Y-5910000D01*
X15798000Y-6490000D02*
X15818000Y-6510000D01*
X15818000Y-6490000D02*
X15798000Y-6510000D01*
X15798000Y-7090000D02*
X15818000Y-7110000D01*
X15818000Y-7090000D02*
X15798000Y-7110000D01*
X15798000Y-7690000D02*
X15818000Y-7710000D01*
X15818000Y-7690000D02*
X15798000Y-7710000D01*
X15798000Y-8290000D02*
X15818000Y-8310000D01*
X15818000Y-8290000D02*
X15798000Y-8310000D01*
X15798000Y-8890000D02*
X15818000Y-8910000D01*
X15818000Y-8890000D02*
X15798000Y-8910000D01*
X15798000Y-9490000D02*
X15818000Y-9510000D01*
X15818000Y-9490000D02*
X15798000Y-9510000D01*
X15798000Y-10090000D02*
X15818000Y-10110000D01*
X15818000Y-10090000D02*
X15798000Y-10110000D01*
X16000000Y-5889000D02*
X16020000Y-5909000D01*
X16020000Y-5889000D02*
X16000000Y-5909000D01*
X16000000Y-6489000D02*
X16020000Y-6509000D01*
X16020000Y-6489000D02*
X16000000Y-6509000D01*
X16000000Y-7089000D02*
X16020000Y-7109000D01*
X16020000Y-7089000D02*
X16000000Y-7109000D01*
X16000000Y-7689000D02*
X16020000Y-7709000D01*
X16020000Y-7689000D02*
X16000000Y-7709000D01*
X16000000Y-8289000D02*
X16020000Y-8309000D01*
X16020000Y-8289000D02*
X16000000Y-8309000D01*
X16000000Y-8889000D02*
X16020000Y-8909000D01*
X16020000Y-8889000D02*
X16000000Y-8909000D01*
X16000000Y-9489000D02*
X16020000Y-9509000D01*
X16020000Y-9489000D02*
X16000000Y-9509000D01*
X16000000Y-10089000D02*
X16020000Y-10109000D01*
X16020000Y-10089000D02*
X16000000Y-10109000D01*
X16195000Y-10390000D02*
X16215000Y-10410000D01*
X16215000Y-10390000D02*
X16195000Y-10410000D01*
X16398000Y-5890000D02*
X16418000Y-5910000D01*
X16418000Y-5890000D02*
X16398000Y-5910000D01*
X16398000Y-6490000D02*
X16418000Y-6510000D01*
X16418000Y-6490000D02*
X16398000Y-6510000D01*
X16398000Y-7090000D02*
X16418000Y-7110000D01*
X16418000Y-7090000D02*
X16398000Y-7110000D01*
X16398000Y-7690000D02*
X16418000Y-7710000D01*
X16418000Y-7690000D02*
X16398000Y-7710000D01*
X16398000Y-8290000D02*
X16418000Y-8310000D01*
X16418000Y-8290000D02*
X16398000Y-8310000D01*
X16398000Y-8890000D02*
X16418000Y-8910000D01*
X16418000Y-8890000D02*
X16398000Y-8910000D01*
X16398000Y-9490000D02*
X16418000Y-9510000D01*
X16418000Y-9490000D02*
X16398000Y-9510000D01*
X16398000Y-10090000D02*
X16418000Y-10110000D01*
X16418000Y-10090000D02*
X16398000Y-10110000D01*
X16600000Y-5889000D02*
X16620000Y-5909000D01*
X16620000Y-5889000D02*
X16600000Y-5909000D01*
X16600000Y-6489000D02*
X16620000Y-6509000D01*
X16620000Y-6489000D02*
X16600000Y-6509000D01*
X16600000Y-7089000D02*
X16620000Y-7109000D01*
X16620000Y-7089000D02*
X16600000Y-7109000D01*
X16600000Y-7689000D02*
X16620000Y-7709000D01*
X16620000Y-7689000D02*
X16600000Y-7709000D01*
X16600000Y-8289000D02*
X16620000Y-8309000D01*
X16620000Y-8289000D02*
X16600000Y-8309000D01*
X16600000Y-8889000D02*
X16620000Y-8909000D01*
X16620000Y-8889000D02*
X16600000Y-8909000D01*
X16600000Y-9489000D02*
X16620000Y-9509000D01*
X16620000Y-9489000D02*
X16600000Y-9509000D01*
X16600000Y-10089000D02*
X16620000Y-10109000D01*
X16620000Y-10089000D02*
X16600000Y-10109000D01*
X16795000Y-10390000D02*
X16815000Y-10410000D01*
X16815000Y-10390000D02*
X16795000Y-10410000D01*
X16998000Y-5890000D02*
X17018000Y-5910000D01*
X17018000Y-5890000D02*
X16998000Y-5910000D01*
X16998000Y-6490000D02*
X17018000Y-6510000D01*
X17018000Y-6490000D02*
X16998000Y-6510000D01*
X16998000Y-7090000D02*
X17018000Y-7110000D01*
X17018000Y-7090000D02*
X16998000Y-7110000D01*
X16998000Y-7690000D02*
X17018000Y-7710000D01*
X17018000Y-7690000D02*
X16998000Y-7710000D01*
X16998000Y-8290000D02*
X17018000Y-8310000D01*
X17018000Y-8290000D02*
X16998000Y-8310000D01*
X16998000Y-8890000D02*
X17018000Y-8910000D01*
X17018000Y-8890000D02*
X16998000Y-8910000D01*
X16998000Y-9490000D02*
X17018000Y-9510000D01*
X17018000Y-9490000D02*
X16998000Y-9510000D01*
X16998000Y-10090000D02*
X17018000Y-10110000D01*
X17018000Y-10090000D02*
X16998000Y-10110000D01*
X17200000Y-5889000D02*
X17220000Y-5909000D01*
X17220000Y-5889000D02*
X17200000Y-5909000D01*
X17200000Y-6489000D02*
X17220000Y-6509000D01*
X17220000Y-6489000D02*
X17200000Y-6509000D01*
X17200000Y-7089000D02*
X17220000Y-7109000D01*
X17220000Y-7089000D02*
X17200000Y-7109000D01*
X17200000Y-7689000D02*
X17220000Y-7709000D01*
X17220000Y-7689000D02*
X17200000Y-7709000D01*
X17200000Y-8289000D02*
X17220000Y-8309000D01*
X17220000Y-8289000D02*
X17200000Y-8309000D01*
X17200000Y-8889000D02*
X17220000Y-8909000D01*
X17220000Y-8889000D02*
X17200000Y-8909000D01*
X17200000Y-9489000D02*
X17220000Y-9509000D01*
X17220000Y-9489000D02*
X17200000Y-9509000D01*
X17200000Y-10089000D02*
X17220000Y-10109000D01*
X17220000Y-10089000D02*
X17200000Y-10109000D01*
X17395000Y-10390000D02*
X17415000Y-10410000D01*
X17415000Y-10390000D02*
X17395000Y-10410000D01*
X17598000Y-5890000D02*
X17618000Y-5910000D01*
X17618000Y-5890000D02*
X17598000Y-5910000D01*
X17598000Y-6490000D02*
X17618000Y-6510000D01*
X17618000Y-6490000D02*
X17598000Y-6510000D01*
X17598000Y-7090000D02*
X17618000Y-7110000D01*
X17618000Y-7090000D02*
X17598000Y-7110000D01*
X17598000Y-7690000D02*
X17618000Y-7710000D01*
X17618000Y-7690000D02*
X17598000Y-7710000D01*
X17598000Y-8290000D02*
X17618000Y-8310000D01*
X17618000Y-8290000D02*
X17598000Y-8310000D01*
X17598000Y-8890000D02*
X17618000Y-8910000D01*
X17618000Y-8890000D02*
X17598000Y-8910000D01*
X17598000Y-9490000D02*
X17618000Y-9510000D01*
X17618000Y-9490000D02*
X17598000Y-9510000D01*
X17598000Y-10090000D02*
X17618000Y-10110000D01*
X17618000Y-10090000D02*
X17598000Y-10110000D01*
X17800000Y-5889000D02*
X17820000Y-5909000D01*
X17820000Y-5889000D02*
X17800000Y-5909000D01*
X17800000Y-6489000D02*
X17820000Y-6509000D01*
X17820000Y-6489000D02*
X17800000Y-6509000D01*
X17800000Y-7089000D02*
X17820000Y-7109000D01*
X17820000Y-7089000D02*
X17800000Y-7109000D01*
X17800000Y-7689000D02*
X17820000Y-7709000D01*
X17820000Y-7689000D02*
X17800000Y-7709000D01*
X17800000Y-8289000D02*
X17820000Y-8309000D01*
X17820000Y-8289000D02*
X17800000Y-8309000D01*
X17800000Y-8889000D02*
X17820000Y-8909000D01*
X17820000Y-8889000D02*
X17800000Y-8909000D01*
X17800000Y-9489000D02*
X17820000Y-9509000D01*
X17820000Y-9489000D02*
X17800000Y-9509000D01*
X17800000Y-10089000D02*
X17820000Y-10109000D01*
X17820000Y-10089000D02*
X17800000Y-10109000D01*
X17995000Y-10390000D02*
X18015000Y-10410000D01*
X18015000Y-10390000D02*
X17995000Y-10410000D01*
X18198000Y-5890000D02*
X18218000Y-5910000D01*
X18218000Y-5890000D02*
X18198000Y-5910000D01*
X18198000Y-6490000D02*
X18218000Y-6510000D01*
X18218000Y-6490000D02*
X18198000Y-6510000D01*
X18198000Y-7090000D02*
X18218000Y-7110000D01*
X18218000Y-7090000D02*
X18198000Y-7110000D01*
X18198000Y-7690000D02*
X18218000Y-7710000D01*
X18218000Y-7690000D02*
X18198000Y-7710000D01*
X18198000Y-8290000D02*
X18218000Y-8310000D01*
X18218000Y-8290000D02*
X18198000Y-8310000D01*
X18198000Y-8890000D02*
X18218000Y-8910000D01*
X18218000Y-8890000D02*
X18198000Y-8910000D01*
X18198000Y-9490000D02*
X18218000Y-9510000D01*
X18218000Y-9490000D02*
X18198000Y-9510000D01*
X18198000Y-10090000D02*
X18218000Y-10110000D01*
X18218000Y-10090000D02*
X18198000Y-10110000D01*
X18400000Y-5889000D02*
X18420000Y-5909000D01*
X18420000Y-5889000D02*
X18400000Y-5909000D01*
X18400000Y-6489000D02*
X18420000Y-6509000D01*
X18420000Y-6489000D02*
X18400000Y-6509000D01*
X18400000Y-7089000D02*
X18420000Y-7109000D01*
X18420000Y-7089000D02*
X18400000Y-7109000D01*
X18400000Y-7689000D02*
X18420000Y-7709000D01*
X18420000Y-7689000D02*
X18400000Y-7709000D01*
X18400000Y-8289000D02*
X18420000Y-8309000D01*
X18420000Y-8289000D02*
X18400000Y-8309000D01*
X18400000Y-8889000D02*
X18420000Y-8909000D01*
X18420000Y-8889000D02*
X18400000Y-8909000D01*
X18400000Y-9489000D02*
X18420000Y-9509000D01*
X18420000Y-9489000D02*
X18400000Y-9509000D01*
X18400000Y-10089000D02*
X18420000Y-10109000D01*
X18420000Y-10089000D02*
X18400000Y-10109000D01*
X18595000Y-10390000D02*
X18615000Y-10410000D01*
X18615000Y-10390000D02*
X18595000Y-10410000D01*
X18798000Y-5890000D02*
X18818000Y-5910000D01*
X18818000Y-5890000D02*
X18798000Y-5910000D01*
X18798000Y-6490000D02*
X18818000Y-6510000D01*
X18818000Y-6490000D02*
X18798000Y-6510000D01*
X18798000Y-7090000D02*
X18818000Y-7110000D01*
X18818000Y-7090000D02*
X18798000Y-7110000D01*
X18798000Y-7690000D02*
X18818000Y-7710000D01*
X18818000Y-7690000D02*
X18798000Y-7710000D01*
X18798000Y-8290000D02*
X18818000Y-8310000D01*
X18818000Y-8290000D02*
X18798000Y-8310000D01*
X18798000Y-8890000D02*
X18818000Y-8910000D01*
X18818000Y-8890000D02*
X18798000Y-8910000D01*
X18798000Y-9490000D02*
X18818000Y-9510000D01*
X18818000Y-9490000D02*
X18798000Y-9510000D01*
X18798000Y-10090000D02*
X18818000Y-10110000D01*
X18818000Y-10090000D02*
X18798000Y-10110000D01*
X19000000Y-5889000D02*
X19020000Y-5909000D01*
X19020000Y-5889000D02*
X19000000Y-5909000D01*
X19000000Y-6489000D02*
X19020000Y-6509000D01*
X19020000Y-6489000D02*
X19000000Y-6509000D01*
X19000000Y-7089000D02*
X19020000Y-7109000D01*
X19020000Y-7089000D02*
X19000000Y-7109000D01*
X19000000Y-7689000D02*
X19020000Y-7709000D01*
X19020000Y-7689000D02*
X19000000Y-7709000D01*
X19000000Y-8289000D02*
X19020000Y-8309000D01*
X19020000Y-8289000D02*
X19000000Y-8309000D01*
X19000000Y-8889000D02*
X19020000Y-8909000D01*
X19020000Y-8889000D02*
X19000000Y-8909000D01*
X19000000Y-9489000D02*
X19020000Y-9509000D01*
X19020000Y-9489000D02*
X19000000Y-9509000D01*
X19000000Y-10089000D02*
X19020000Y-10109000D01*
X19020000Y-10089000D02*
X19000000Y-10109000D01*
X19195000Y-10390000D02*
X19215000Y-10410000D01*
X19215000Y-10390000D02*
X19195000Y-10410000D01*
X19398000Y-5890000D02*
X19418000Y-5910000D01*
X19418000Y-5890000D02*
X19398000Y-5910000D01*
X19398000Y-6490000D02*
X19418000Y-6510000D01*
X19418000Y-6490000D02*
X19398000Y-6510000D01*
X19398000Y-7090000D02*
X19418000Y-7110000D01*
X19418000Y-7090000D02*
X19398000Y-7110000D01*
X19398000Y-7690000D02*
X19418000Y-7710000D01*
X19418000Y-7690000D02*
X19398000Y-7710000D01*
X19398000Y-8290000D02*
X19418000Y-8310000D01*
X19418000Y-8290000D02*
X19398000Y-8310000D01*
X19398000Y-8890000D02*
X19418000Y-8910000D01*
X19418000Y-8890000D02*
X19398000Y-8910000D01*
X19398000Y-9490000D02*
X19418000Y-9510000D01*
X19418000Y-9490000D02*
X19398000Y-9510000D01*
X19398000Y-10090000D02*
X19418000Y-10110000D01*
X19418000Y-10090000D02*
X19398000Y-10110000D01*
X19600000Y-5889000D02*
X19620000Y-5909000D01*
X19620000Y-5889000D02*
X19600000Y-5909000D01*
X19600000Y-6489000D02*
X19620000Y-6509000D01*
X19620000Y-6489000D02*
X19600000Y-6509000D01*
X19600000Y-7089000D02*
X19620000Y-7109000D01*
X19620000Y-7089000D02*
X19600000Y-7109000D01*
X19600000Y-7689000D02*
X19620000Y-7709000D01*
X19620000Y-7689000D02*
X19600000Y-7709000D01*
X19600000Y-8289000D02*
X19620000Y-8309000D01*
X19620000Y-8289000D02*
X19600000Y-8309000D01*
X19600000Y-8889000D02*
X19620000Y-8909000D01*
X19620000Y-8889000D02*
X19600000Y-8909000D01*
X19600000Y-9489000D02*
X19620000Y-9509000D01*
X19620000Y-9489000D02*
X19600000Y-9509000D01*
X19600000Y-10089000D02*
X19620000Y-10109000D01*
X19620000Y-10089000D02*
X19600000Y-10109000D01*
X19795000Y-10390000D02*
X19815000Y-10410000D01*
X19815000Y-10390000D02*
X19795000Y-10410000D01*
X19998000Y-5890000D02*
X20018000Y-5910000D01*
X20018000Y-5890000D02*
X19998000Y-5910000D01*
X19998000Y-6490000D02*
X20018000Y-6510000D01*
X20018000Y-6490000D02*
X19998000Y-6510000D01*
X19998000Y-7090000D02*
X20018000Y-7110000D01*
X20018000Y-7090000D02*
X19998000Y-7110000D01*
X19998000Y-7690000D02*
X20018000Y-7710000D01*
X20018000Y-7690000D02*
X19998000Y-7710000D01*
X19998000Y-8290000D02*
X20018000Y-8310000D01*
X20018000Y-8290000D02*
X19998000Y-8310000D01*
X19998000Y-8890000D02*
X20018000Y-8910000D01*
X20018000Y-8890000D02*
X19998000Y-8910000D01*
X19998000Y-9490000D02*
X20018000Y-9510000D01*
X20018000Y-9490000D02*
X19998000Y-9510000D01*
X19998000Y-10090000D02*
X20018000Y-10110000D01*
X20018000Y-10090000D02*
X19998000Y-10110000D01*
X20200000Y-5889000D02*
X20220000Y-5909000D01*
X20220000Y-5889000D02*
X20200000Y-5909000D01*
X20200000Y-6489000D02*
X20220000Y-6509000D01*
X20220000Y-6489000D02*
X20200000Y-6509000D01*
X20200000Y-7089000D02*
X20220000Y-7109000D01*
X20220000Y-7089000D02*
X20200000Y-7109000D01*
X20200000Y-7689000D02*
X20220000Y-7709000D01*
X20220000Y-7689000D02*
X20200000Y-7709000D01*
X20200000Y-8289000D02*
X20220000Y-8309000D01*
X20220000Y-8289000D02*
X20200000Y-8309000D01*
X20200000Y-8889000D02*
X20220000Y-8909000D01*
X20220000Y-8889000D02*
X20200000Y-8909000D01*
X20200000Y-9489000D02*
X20220000Y-9509000D01*
X20220000Y-9489000D02*
X20200000Y-9509000D01*
X20200000Y-10089000D02*
X20220000Y-10109000D01*
X20220000Y-10089000D02*
X20200000Y-10109000D01*
X20395000Y-10390000D02*
X20415000Y-10410000D01*
X20415000Y-10390000D02*
X20395000Y-10410000D01*
X20598000Y-5890000D02*
X20618000Y-5910000D01*
X20618000Y-5890000D02*
X20598000Y-5910000D01*
X20598000Y-6490000D02*
X20618000Y-6510000D01*
X20618000Y-6490000D02*
X20598000Y-6510000D01*
X20598000Y-7090000D02*
X20618000Y-7110000D01*
X20618000Y-7090000D02*
X20598000Y-7110000D01*
X20598000Y-7690000D02*
X20618000Y-7710000D01*
X20618000Y-7690000D02*
X20598000Y-7710000D01*
X20598000Y-8290000D02*
X20618000Y-8310000D01*
X20618000Y-8290000D02*
X20598000Y-8310000D01*
X20598000Y-8890000D02*
X20618000Y-8910000D01*
X20618000Y-8890000D02*
X20598000Y-8910000D01*
X20598000Y-9490000D02*
X20618000Y-9510000D01*
X20618000Y-9490000D02*
X20598000Y-9510000D01*
X20598000Y-10090000D02*
X20618000Y-10110000D01*
X20618000Y-10090000D02*
X20598000Y-10110000D01*
X20800000Y-5889000D02*
X20820000Y-5909000D01*
X20820000Y-5889000D02*
X20800000Y-5909000D01*
X20800000Y-6489000D02*
X20820000Y-6509000D01*
X20820000Y-6489000D02*
X20800000Y-6509000D01*
X20800000Y-7089000D02*
X20820000Y-7109000D01*
X20820000Y-7089000D02*
X20800000Y-7109000D01*
X20800000Y-7689000D02*
X20820000Y-7709000D01*
X20820000Y-7689000D02*
X20800000Y-7709000D01*
X20800000Y-8289000D02*
X20820000Y-8309000D01*
X20820000Y-8289000D02*
X20800000Y-8309000D01*
X20800000Y-8889000D02*
X20820000Y-8909000D01*
X20820000Y-8889000D02*
X20800000Y-8909000D01*
X20800000Y-9489000D02*
X20820000Y-9509000D01*
X20820000Y-9489000D02*
X20800000Y-9509000D01*
X20800000Y-10089000D02*
X20820000Y-10109000D01*
X20820000Y-10089000D02*
X20800000Y-10109000D01*
X20995000Y-10390000D02*
X21015000Y-10410000D01*
X21015000Y-10390000D02*
X20995000Y-10410000D01*
X21198000Y-5890000D02*
X21218000Y-5910000D01*
X21218000Y-5890000D02*
X21198000Y-5910000D01*
X21198000Y-6490000D02*
X21218000Y-6510000D01*
X21218000Y-6490000D02*
X21198000Y-6510000D01*
X21198000Y-7090000D02*
X21218000Y-7110000D01*
X21218000Y-7090000D02*
X21198000Y-7110000D01*
X21198000Y-7690000D02*
X21218000Y-7710000D01*
X21218000Y-7690000D02*
X21198000Y-7710000D01*
X21198000Y-8290000D02*
X21218000Y-8310000D01*
X21218000Y-8290000D02*
X21198000Y-8310000D01*
X21198000Y-8890000D02*
X21218000Y-8910000D01*
X21218000Y-8890000D02*
X21198000Y-8910000D01*
X21198000Y-9490000D02*
X21218000Y-9510000D01*
X21218000Y-9490000D02*
X21198000Y-9510000D01*
X21198000Y-10090000D02*
X21218000Y-10110000D01*
X21218000Y-10090000D02*
X21198000Y-10110000D01*
X21400000Y-5889000D02*
X21420000Y-5909000D01*
X21420000Y-5889000D02*
X21400000Y-5909000D01*
X21400000Y-6489000D02*
X21420000Y-6509000D01*
X21420000Y-6489000D02*
X21400000Y-6509000D01*
X21400000Y-7089000D02*
X21420000Y-7109000D01*
X21420000Y-7089000D02*
X21400000Y-7109000D01*
X21400000Y-7689000D02*
X21420000Y-7709000D01*
X21420000Y-7689000D02*
X21400000Y-7709000D01*
X21400000Y-8289000D02*
X21420000Y-8309000D01*
X21420000Y-8289000D02*
X21400000Y-8309000D01*
X21400000Y-8889000D02*
X21420000Y-8909000D01*
X21420000Y-8889000D02*
X21400000Y-8909000D01*
X21400000Y-9489000D02*
X21420000Y-9509000D01*
X21420000Y-9489000D02*
X21400000Y-9509000D01*
X21400000Y-10089000D02*
X21420000Y-10109000D01*
X21420000Y-10089000D02*
X21400000Y-10109000D01*
X21595000Y-10390000D02*
X21615000Y-10410000D01*
X21615000Y-10390000D02*
X21595000Y-10410000D01*
X21798000Y-5890000D02*
X21818000Y-5910000D01*
X21818000Y-5890000D02*
X21798000Y-5910000D01*
X21798000Y-6490000D02*
X21818000Y-6510000D01*
X21818000Y-6490000D02*
X21798000Y-6510000D01*
X21798000Y-7090000D02*
X21818000Y-7110000D01*
X21818000Y-7090000D02*
X21798000Y-7110000D01*
X21798000Y-7690000D02*
X21818000Y-7710000D01*
X21818000Y-7690000D02*
X21798000Y-7710000D01*
X21798000Y-8290000D02*
X21818000Y-8310000D01*
X21818000Y-8290000D02*
X21798000Y-8310000D01*
X21798000Y-8890000D02*
X21818000Y-8910000D01*
X21818000Y-8890000D02*
X21798000Y-8910000D01*
X21798000Y-9490000D02*
X21818000Y-9510000D01*
X21818000Y-9490000D02*
X21798000Y-9510000D01*
X21798000Y-10090000D02*
X21818000Y-10110000D01*
X21818000Y-10090000D02*
X21798000Y-10110000D01*
X22000000Y-5889000D02*
X22020000Y-5909000D01*
X22020000Y-5889000D02*
X22000000Y-5909000D01*
X22000000Y-6489000D02*
X22020000Y-6509000D01*
X22020000Y-6489000D02*
X22000000Y-6509000D01*
X22000000Y-7089000D02*
X22020000Y-7109000D01*
X22020000Y-7089000D02*
X22000000Y-7109000D01*
X22000000Y-7689000D02*
X22020000Y-7709000D01*
X22020000Y-7689000D02*
X22000000Y-7709000D01*
X22000000Y-8289000D02*
X22020000Y-8309000D01*
X22020000Y-8289000D02*
X22000000Y-8309000D01*
X22000000Y-8889000D02*
X22020000Y-8909000D01*
X22020000Y-8889000D02*
X22000000Y-8909000D01*
X22000000Y-9489000D02*
X22020000Y-9509000D01*
X22020000Y-9489000D02*
X22000000Y-9509000D01*
X22000000Y-10089000D02*
X22020000Y-10109000D01*
X22020000Y-10089000D02*
X22000000Y-10109000D01*
X22195000Y-10390000D02*
X22215000Y-10410000D01*
X22215000Y-10390000D02*
X22195000Y-10410000D01*
X22398000Y-5890000D02*
X22418000Y-5910000D01*
X22418000Y-5890000D02*
X22398000Y-5910000D01*
X22398000Y-6490000D02*
X22418000Y-6510000D01*
X22418000Y-6490000D02*
X22398000Y-6510000D01*
X22398000Y-7090000D02*
X22418000Y-7110000D01*
X22418000Y-7090000D02*
X22398000Y-7110000D01*
X22398000Y-7690000D02*
X22418000Y-7710000D01*
X22418000Y-7690000D02*
X22398000Y-7710000D01*
X22398000Y-8290000D02*
X22418000Y-8310000D01*
X22418000Y-8290000D02*
X22398000Y-8310000D01*
X22398000Y-8890000D02*
X22418000Y-8910000D01*
X22418000Y-8890000D02*
X22398000Y-8910000D01*
X22398000Y-9490000D02*
X22418000Y-9510000D01*
X22418000Y-9490000D02*
X22398000Y-9510000D01*
X22398000Y-10090000D02*
X22418000Y-10110000D01*
X22418000Y-10090000D02*
X22398000Y-10110000D01*
X22600000Y-5889000D02*
X22620000Y-5909000D01*
X22620000Y-5889000D02*
X22600000Y-5909000D01*
X22600000Y-6489000D02*
X22620000Y-6509000D01*
X22620000Y-6489000D02*
X22600000Y-6509000D01*
X22600000Y-7089000D02*
X22620000Y-7109000D01*
X22620000Y-7089000D02*
X22600000Y-7109000D01*
X22600000Y-7689000D02*
X22620000Y-7709000D01*
X22620000Y-7689000D02*
X22600000Y-7709000D01*
X22600000Y-8289000D02*
X22620000Y-8309000D01*
X22620000Y-8289000D02*
X22600000Y-8309000D01*
X22600000Y-8889000D02*
X22620000Y-8909000D01*
X22620000Y-8889000D02*
X22600000Y-8909000D01*
X22600000Y-9489000D02*
X22620000Y-9509000D01*
X22620000Y-9489000D02*
X22600000Y-9509000D01*
X22600000Y-10089000D02*
X22620000Y-10109000D01*
X22620000Y-10089000D02*
X22600000Y-10109000D01*
X22795000Y-10390000D02*
X22815000Y-10410000D01*
X22815000Y-10390000D02*
X22795000Y-10410000D01*
X22998000Y-5890000D02*
X23018000Y-5910000D01*
X23018000Y-5890000D02*
X22998000Y-5910000D01*
X22998000Y-6490000D02*
X23018000Y-6510000D01*
X23018000Y-6490000D02*
X22998000Y-6510000D01*
X22998000Y-7090000D02*
X23018000Y-7110000D01*
X23018000Y-7090000D02*
X22998000Y-7110000D01*
X22998000Y-7690000D02*
X23018000Y-7710000D01*
X23018000Y-7690000D02*
X22998000Y-7710000D01*
X22998000Y-8290000D02*
X23018000Y-8310000D01*
X23018000Y-8290000D02*
X22998000Y-8310000D01*
X22998000Y-8890000D02*
X23018000Y-8910000D01*
X23018000Y-8890000D02*
X22998000Y-8910000D01*
X22998000Y-9490000D02*
X23018000Y-9510000D01*
X23018000Y-9490000D02*
X22998000Y-9510000D01*
X22998000Y-10090000D02*
X23018000Y-10110000D01*
X23018000Y-10090000D02*
X22998000Y-10110000D01*
X23200000Y-5889000D02*
X23220000Y-5909000D01*
X23220000Y-5889000D02*
X23200000Y-5909000D01*
X23200000Y-6489000D02*
X23220000Y-6509000D01*
X23220000Y-6489000D02*
X23200000Y-6509000D01*
X23200000Y-7089000D02*
X23220000Y-7109000D01*
X23220000Y-7089000D02*
X23200000Y-7109000D01*
X23200000Y-7689000D02*
X23220000Y-7709000D01*
X23220000Y-7689000D02*
X23200000Y-7709000D01*
X23200000Y-8289000D02*
X23220000Y-8309000D01*
X23220000Y-8289000D02*
X23200000Y-8309000D01*
X23200000Y-8889000D02*
X23220000Y-8909000D01*
X23220000Y-8889000D02*
X23200000Y-8909000D01*
X23200000Y-9489000D02*
X23220000Y-9509000D01*
X23220000Y-9489000D02*
X23200000Y-9509000D01*
X23200000Y-10089000D02*
X23220000Y-10109000D01*
X23220000Y-10089000D02*
X23200000Y-10109000D01*
X23395000Y-10390000D02*
X23415000Y-10410000D01*
X23415000Y-10390000D02*
X23395000Y-10410000D01*
X23598000Y-5890000D02*
X23618000Y-5910000D01*
X23618000Y-5890000D02*
X23598000Y-5910000D01*
X23598000Y-6490000D02*
X23618000Y-6510000D01*
X23618000Y-6490000D02*
X23598000Y-6510000D01*
X23598000Y-7090000D02*
X23618000Y-7110000D01*
X23618000Y-7090000D02*
X23598000Y-7110000D01*
X23598000Y-7690000D02*
X23618000Y-7710000D01*
X23618000Y-7690000D02*
X23598000Y-7710000D01*
X23598000Y-8290000D02*
X23618000Y-8310000D01*
X23618000Y-8290000D02*
X23598000Y-8310000D01*
X23598000Y-8890000D02*
X23618000Y-8910000D01*
X23618000Y-8890000D02*
X23598000Y-8910000D01*
X23598000Y-9490000D02*
X23618000Y-9510000D01*
X23618000Y-9490000D02*
X23598000Y-9510000D01*
X23598000Y-10090000D02*
X23618000Y-10110000D01*
X23618000Y-10090000D02*
X23598000Y-10110000D01*
X23800000Y-5889000D02*
X23820000Y-5909000D01*
X23820000Y-5889000D02*
X23800000Y-5909000D01*
X23800000Y-6489000D02*
X23820000Y-6509000D01*
X23820000Y-6489000D02*
X23800000Y-6509000D01*
X23800000Y-7089000D02*
X23820000Y-7109000D01*
X23820000Y-7089000D02*
X23800000Y-7109000D01*
X23800000Y-7689000D02*
X23820000Y-7709000D01*
X23820000Y-7689000D02*
X23800000Y-7709000D01*
X23800000Y-8289000D02*
X23820000Y-8309000D01*
X23820000Y-8289000D02*
X23800000Y-8309000D01*
X23800000Y-8889000D02*
X23820000Y-8909000D01*
X23820000Y-8889000D02*
X23800000Y-8909000D01*
X23800000Y-9489000D02*
X23820000Y-9509000D01*
X23820000Y-9489000D02*
X23800000Y-9509000D01*
X23800000Y-10089000D02*
X23820000Y-10109000D01*
X23820000Y-10089000D02*
X23800000Y-10109000D01*
X23995000Y-10390000D02*
X24015000Y-10410000D01*
X24015000Y-10390000D02*
X23995000Y-10410000D01*
X24198000Y-5890000D02*
X24218000Y-5910000D01*
X24218000Y-5890000D02*
X24198000Y-5910000D01*
X24198000Y-6490000D02*
X24218000Y-6510000D01*
X24218000Y-6490000D02*
X24198000Y-6510000D01*
X24198000Y-7090000D02*
X24218000Y-7110000D01*
X24218000Y-7090000D02*
X24198000Y-7110000D01*
X24198000Y-7690000D02*
X24218000Y-7710000D01*
X24218000Y-7690000D02*
X24198000Y-7710000D01*
X24198000Y-8290000D02*
X24218000Y-8310000D01*
X24218000Y-8290000D02*
X24198000Y-8310000D01*
X24198000Y-8890000D02*
X24218000Y-8910000D01*
X24218000Y-8890000D02*
X24198000Y-8910000D01*
X24198000Y-9490000D02*
X24218000Y-9510000D01*
X24218000Y-9490000D02*
X24198000Y-9510000D01*
X24198000Y-10090000D02*
X24218000Y-10110000D01*
X24218000Y-10090000D02*
X24198000Y-10110000D01*
X24400000Y-5889000D02*
X24420000Y-5909000D01*
X24420000Y-5889000D02*
X24400000Y-5909000D01*
X24400000Y-6489000D02*
X24420000Y-6509000D01*
X24420000Y-6489000D02*
X24400000Y-6509000D01*
X24400000Y-7089000D02*
X24420000Y-7109000D01*
X24420000Y-7089000D02*
X24400000Y-7109000D01*
X24400000Y-7689000D02*
X24420000Y-7709000D01*
X24420000Y-7689000D02*
X24400000Y-7709000D01*
X24400000Y-8289000D02*
X24420000Y-8309000D01*
X24420000Y-8289000D02*
X24400000Y-8309000D01*
X24400000Y-8889000D02*
X24420000Y-8909000D01*
X24420000Y-8889000D02*
X24400000Y-8909000D01*
X24400000Y-9489000D02*
X24420000Y-9509000D01*
X24420000Y-9489000D02*
X24400000Y-9509000D01*
X24400000Y-10089000D02*
X24420000Y-10109000D01*
X24420000Y-10089000D02*
X24400000Y-10109000D01*
X24595000Y-10390000D02*
X24615000Y-10410000D01*
X24615000Y-10390000D02*
X24595000Y-10410000D01*
X24798000Y-5890000D02*
X24818000Y-5910000D01*
X24818000Y-5890000D02*
X24798000Y-5910000D01*
X24798000Y-6490000D02*
X24818000Y-6510000D01*
X24818000Y-6490000D02*
X24798000Y-6510000D01*
X24798000Y-7090000D02*
X24818000Y-7110000D01*
X24818000Y-7090000D02*
X24798000Y-7110000D01*
X24798000Y-7690000D02*
X24818000Y-7710000D01*
X24818000Y-7690000D02*
X24798000Y-7710000D01*
X24798000Y-8290000D02*
X24818000Y-8310000D01*
X24818000Y-8290000D02*
X24798000Y-8310000D01*
X24798000Y-8890000D02*
X24818000Y-8910000D01*
X24818000Y-8890000D02*
X24798000Y-8910000D01*
X24798000Y-9490000D02*
X24818000Y-9510000D01*
X24818000Y-9490000D02*
X24798000Y-9510000D01*
X24798000Y-10090000D02*
X24818000Y-10110000D01*
X24818000Y-10090000D02*
X24798000Y-10110000D01*
X25000000Y-5889000D02*
X25020000Y-5909000D01*
X25020000Y-5889000D02*
X25000000Y-5909000D01*
X25000000Y-6489000D02*
X25020000Y-6509000D01*
X25020000Y-6489000D02*
X25000000Y-6509000D01*
X25000000Y-7089000D02*
X25020000Y-7109000D01*
X25020000Y-7089000D02*
X25000000Y-7109000D01*
X25000000Y-7689000D02*
X25020000Y-7709000D01*
X25020000Y-7689000D02*
X25000000Y-7709000D01*
X25000000Y-8289000D02*
X25020000Y-8309000D01*
X25020000Y-8289000D02*
X25000000Y-8309000D01*
X25000000Y-8889000D02*
X25020000Y-8909000D01*
X25020000Y-8889000D02*
X25000000Y-8909000D01*
X25000000Y-9489000D02*
X25020000Y-9509000D01*
X25020000Y-9489000D02*
X25000000Y-9509000D01*
X25000000Y-10089000D02*
X25020000Y-10109000D01*
X25020000Y-10089000D02*
X25000000Y-10109000D01*
X25195000Y-10390000D02*
X25215000Y-10410000D01*
X25215000Y-10390000D02*
X25195000Y-10410000D01*
X25398000Y-5890000D02*
X25418000Y-5910000D01*
X25418000Y-5890000D02*
X25398000Y-5910000D01*
X25398000Y-6490000D02*
X25418000Y-6510000D01*
X25418000Y-6490000D02*
X25398000Y-6510000D01*
X25398000Y-7090000D02*
X25418000Y-7110000D01*
X25418000Y-7090000D02*
X25398000Y-7110000D01*
X25398000Y-7690000D02*
X25418000Y-7710000D01*
X25418000Y-7690000D02*
X25398000Y-7710000D01*
X25398000Y-8290000D02*
X25418000Y-8310000D01*
X25418000Y-8290000D02*
X25398000Y-8310000D01*
X25398000Y-8890000D02*
X25418000Y-8910000D01*
X25418000Y-8890000D02*
X25398000Y-8910000D01*
X25398000Y-9490000D02*
X25418000Y-9510000D01*
X25418000Y-9490000D02*
X25398000Y-9510000D01*
X25398000Y-10090000D02*
X25418000Y-10110000D01*
X25418000Y-10090000D02*
X25398000Y-10110000D01*
D11*
X4470119Y-11670476D02*
X4470119Y-11470476D01*
X4517738Y-11470476D01*
X4546310Y-11480000D01*
X4565357Y-11499048D01*
X4574881Y-11518095D01*
X4584405Y-11556190D01*
X4584405Y-11584762D01*
X4574881Y-11622857D01*
X4565357Y-11641905D01*
X4546310Y-11660952D01*
X4517738Y-11670476D01*
X4470119Y-11670476D01*
X4670119Y-11670476D02*
X4670119Y-11537143D01*
X4670119Y-11575238D02*
X4679643Y-11556190D01*
X4689167Y-11546667D01*
X4708214Y-11537143D01*
X4727262Y-11537143D01*
X4793929Y-11670476D02*
X4793929Y-11537143D01*
X4793929Y-11470476D02*
X4784405Y-11480000D01*
X4793929Y-11489524D01*
X4803452Y-11480000D01*
X4793929Y-11470476D01*
X4793929Y-11489524D01*
X4917738Y-11670476D02*
X4898690Y-11660952D01*
X4889167Y-11641905D01*
X4889167Y-11470476D01*
X5022500Y-11670476D02*
X5003452Y-11660952D01*
X4993929Y-11641905D01*
X4993929Y-11470476D01*
X5251071Y-11670476D02*
X5251071Y-11470476D01*
X5317738Y-11613333D01*
X5384405Y-11470476D01*
X5384405Y-11670476D01*
X5565357Y-11670476D02*
X5565357Y-11565714D01*
X5555833Y-11546667D01*
X5536786Y-11537143D01*
X5498690Y-11537143D01*
X5479643Y-11546667D01*
X5565357Y-11660952D02*
X5546310Y-11670476D01*
X5498690Y-11670476D01*
X5479643Y-11660952D01*
X5470119Y-11641905D01*
X5470119Y-11622857D01*
X5479643Y-11603809D01*
X5498690Y-11594286D01*
X5546310Y-11594286D01*
X5565357Y-11584762D01*
X5660595Y-11537143D02*
X5660595Y-11737143D01*
X5660595Y-11546667D02*
X5679643Y-11537143D01*
X5717738Y-11537143D01*
X5736786Y-11546667D01*
X5746309Y-11556190D01*
X5755833Y-11575238D01*
X5755833Y-11632381D01*
X5746309Y-11651428D01*
X5736786Y-11660952D01*
X5717738Y-11670476D01*
X5679643Y-11670476D01*
X5660595Y-11660952D01*
X5841548Y-11651428D02*
X5851071Y-11660952D01*
X5841548Y-11670476D01*
X5832024Y-11660952D01*
X5841548Y-11651428D01*
X5841548Y-11670476D01*
X5841548Y-11546667D02*
X5851071Y-11556190D01*
X5841548Y-11565714D01*
X5832024Y-11556190D01*
X5841548Y-11546667D01*
X5841548Y-11565714D01*
D12*
X4192500Y-11990000D02*
X4212500Y-12010000D01*
X4212500Y-11990000D02*
X4192500Y-12010000D01*
D11*
X4508214Y-11890476D02*
X4527262Y-11890476D01*
X4546310Y-11900000D01*
X4555833Y-11909524D01*
X4565357Y-11928571D01*
X4574881Y-11966667D01*
X4574881Y-12014286D01*
X4565357Y-12052381D01*
X4555833Y-12071428D01*
X4546310Y-12080952D01*
X4527262Y-12090476D01*
X4508214Y-12090476D01*
X4489167Y-12080952D01*
X4479643Y-12071428D01*
X4470119Y-12052381D01*
X4460595Y-12014286D01*
X4460595Y-11966667D01*
X4470119Y-11928571D01*
X4479643Y-11909524D01*
X4489167Y-11900000D01*
X4508214Y-11890476D01*
X4660595Y-12071428D02*
X4670119Y-12080952D01*
X4660595Y-12090476D01*
X4651071Y-12080952D01*
X4660595Y-12071428D01*
X4660595Y-12090476D01*
X4746310Y-11909524D02*
X4755833Y-11900000D01*
X4774881Y-11890476D01*
X4822500Y-11890476D01*
X4841548Y-11900000D01*
X4851071Y-11909524D01*
X4860595Y-11928571D01*
X4860595Y-11947619D01*
X4851071Y-11976190D01*
X4736786Y-12090476D01*
X4860595Y-12090476D01*
X4984405Y-11890476D02*
X5003452Y-11890476D01*
X5022500Y-11900000D01*
X5032024Y-11909524D01*
X5041548Y-11928571D01*
X5051071Y-11966667D01*
X5051071Y-12014286D01*
X5041548Y-12052381D01*
X5032024Y-12071428D01*
X5022500Y-12080952D01*
X5003452Y-12090476D01*
X4984405Y-12090476D01*
X4965357Y-12080952D01*
X4955833Y-12071428D01*
X4946310Y-12052381D01*
X4936786Y-12014286D01*
X4936786Y-11966667D01*
X4946310Y-11928571D01*
X4955833Y-11909524D01*
X4965357Y-11900000D01*
X4984405Y-11890476D01*
X5174881Y-11890476D02*
X5193929Y-11890476D01*
X5212976Y-11900000D01*
X5222500Y-11909524D01*
X5232024Y-11928571D01*
X5241548Y-11966667D01*
X5241548Y-12014286D01*
X5232024Y-12052381D01*
X5222500Y-12071428D01*
X5212976Y-12080952D01*
X5193929Y-12090476D01*
X5174881Y-12090476D01*
X5155833Y-12080952D01*
X5146310Y-12071428D01*
X5136786Y-12052381D01*
X5127262Y-12014286D01*
X5127262Y-11966667D01*
X5136786Y-11928571D01*
X5146310Y-11909524D01*
X5155833Y-11900000D01*
X5174881Y-11890476D01*
X5327262Y-12090476D02*
X5327262Y-11957143D01*
X5327262Y-11976190D02*
X5336786Y-11966667D01*
X5355833Y-11957143D01*
X5384405Y-11957143D01*
X5403452Y-11966667D01*
X5412976Y-11985714D01*
X5412976Y-12090476D01*
X5412976Y-11985714D02*
X5422500Y-11966667D01*
X5441548Y-11957143D01*
X5470119Y-11957143D01*
X5489167Y-11966667D01*
X5498690Y-11985714D01*
X5498690Y-12090476D01*
X5593928Y-12090476D02*
X5593928Y-11957143D01*
X5593928Y-11976190D02*
X5603452Y-11966667D01*
X5622500Y-11957143D01*
X5651071Y-11957143D01*
X5670119Y-11966667D01*
X5679643Y-11985714D01*
X5679643Y-12090476D01*
X5679643Y-11985714D02*
X5689167Y-11966667D01*
X5708214Y-11957143D01*
X5736786Y-11957143D01*
X5755833Y-11966667D01*
X5765357Y-11985714D01*
X5765357Y-12090476D01*
X6155833Y-11880952D02*
X5984405Y-12138095D01*
X6412976Y-11890476D02*
X6432024Y-11890476D01*
X6451071Y-11900000D01*
X6460595Y-11909524D01*
X6470119Y-11928571D01*
X6479643Y-11966667D01*
X6479643Y-12014286D01*
X6470119Y-12052381D01*
X6460595Y-12071428D01*
X6451071Y-12080952D01*
X6432024Y-12090476D01*
X6412976Y-12090476D01*
X6393928Y-12080952D01*
X6384405Y-12071428D01*
X6374881Y-12052381D01*
X6365357Y-12014286D01*
X6365357Y-11966667D01*
X6374881Y-11928571D01*
X6384405Y-11909524D01*
X6393928Y-11900000D01*
X6412976Y-11890476D01*
X6565357Y-12071428D02*
X6574881Y-12080952D01*
X6565357Y-12090476D01*
X6555833Y-12080952D01*
X6565357Y-12071428D01*
X6565357Y-12090476D01*
X6698690Y-11890476D02*
X6717738Y-11890476D01*
X6736786Y-11900000D01*
X6746309Y-11909524D01*
X6755833Y-11928571D01*
X6765357Y-11966667D01*
X6765357Y-12014286D01*
X6755833Y-12052381D01*
X6746309Y-12071428D01*
X6736786Y-12080952D01*
X6717738Y-12090476D01*
X6698690Y-12090476D01*
X6679643Y-12080952D01*
X6670119Y-12071428D01*
X6660595Y-12052381D01*
X6651071Y-12014286D01*
X6651071Y-11966667D01*
X6660595Y-11928571D01*
X6670119Y-11909524D01*
X6679643Y-11900000D01*
X6698690Y-11890476D01*
X6889167Y-11890476D02*
X6908214Y-11890476D01*
X6927262Y-11900000D01*
X6936786Y-11909524D01*
X6946309Y-11928571D01*
X6955833Y-11966667D01*
X6955833Y-12014286D01*
X6946309Y-12052381D01*
X6936786Y-12071428D01*
X6927262Y-12080952D01*
X6908214Y-12090476D01*
X6889167Y-12090476D01*
X6870119Y-12080952D01*
X6860595Y-12071428D01*
X6851071Y-12052381D01*
X6841548Y-12014286D01*
X6841548Y-11966667D01*
X6851071Y-11928571D01*
X6860595Y-11909524D01*
X6870119Y-11900000D01*
X6889167Y-11890476D01*
X7022500Y-11890476D02*
X7155833Y-11890476D01*
X7070119Y-12090476D01*
X7241548Y-12090476D02*
X7279643Y-12090476D01*
X7298690Y-12080952D01*
X7308214Y-12071428D01*
X7327262Y-12042857D01*
X7336786Y-12004762D01*
X7336786Y-11928571D01*
X7327262Y-11909524D01*
X7317738Y-11900000D01*
X7298690Y-11890476D01*
X7260595Y-11890476D01*
X7241548Y-11900000D01*
X7232024Y-11909524D01*
X7222500Y-11928571D01*
X7222500Y-11976190D01*
X7232024Y-11995238D01*
X7241548Y-12004762D01*
X7260595Y-12014286D01*
X7298690Y-12014286D01*
X7317738Y-12004762D01*
X7327262Y-11995238D01*
X7336786Y-11976190D01*
X7412976Y-11890476D02*
X7412976Y-11928571D01*
X7489167Y-11890476D02*
X7489167Y-11928571D01*
X7784405Y-12166667D02*
X7774881Y-12157143D01*
X7755833Y-12128571D01*
X7746309Y-12109524D01*
X7736786Y-12080952D01*
X7727262Y-12033333D01*
X7727262Y-11995238D01*
X7736786Y-11947619D01*
X7746309Y-11919048D01*
X7755833Y-11900000D01*
X7774881Y-11871428D01*
X7784405Y-11861905D01*
X7955833Y-11890476D02*
X7860595Y-11890476D01*
X7851071Y-11985714D01*
X7860595Y-11976190D01*
X7879643Y-11966667D01*
X7927262Y-11966667D01*
X7946309Y-11976190D01*
X7955833Y-11985714D01*
X7965357Y-12004762D01*
X7965357Y-12052381D01*
X7955833Y-12071428D01*
X7946309Y-12080952D01*
X7927262Y-12090476D01*
X7879643Y-12090476D01*
X7860595Y-12080952D01*
X7851071Y-12071428D01*
X8136786Y-11957143D02*
X8136786Y-12090476D01*
X8089167Y-11880952D02*
X8041548Y-12023809D01*
X8165357Y-12023809D01*
X8327262Y-11957143D02*
X8327262Y-12090476D01*
X8279643Y-11880952D02*
X8232024Y-12023809D01*
X8355833Y-12023809D01*
X8584405Y-12090476D02*
X8584405Y-11890476D01*
X8670119Y-12090476D02*
X8670119Y-11985714D01*
X8660595Y-11966667D01*
X8641548Y-11957143D01*
X8612976Y-11957143D01*
X8593929Y-11966667D01*
X8584405Y-11976190D01*
X8793929Y-12090476D02*
X8774881Y-12080952D01*
X8765357Y-12071428D01*
X8755833Y-12052381D01*
X8755833Y-11995238D01*
X8765357Y-11976190D01*
X8774881Y-11966667D01*
X8793929Y-11957143D01*
X8822500Y-11957143D01*
X8841548Y-11966667D01*
X8851071Y-11976190D01*
X8860595Y-11995238D01*
X8860595Y-12052381D01*
X8851071Y-12071428D01*
X8841548Y-12080952D01*
X8822500Y-12090476D01*
X8793929Y-12090476D01*
X8974881Y-12090476D02*
X8955833Y-12080952D01*
X8946310Y-12061905D01*
X8946310Y-11890476D01*
X9127262Y-12080952D02*
X9108214Y-12090476D01*
X9070119Y-12090476D01*
X9051071Y-12080952D01*
X9041548Y-12061905D01*
X9041548Y-11985714D01*
X9051071Y-11966667D01*
X9070119Y-11957143D01*
X9108214Y-11957143D01*
X9127262Y-11966667D01*
X9136786Y-11985714D01*
X9136786Y-12004762D01*
X9041548Y-12023809D01*
X9212976Y-12080952D02*
X9232024Y-12090476D01*
X9270119Y-12090476D01*
X9289167Y-12080952D01*
X9298690Y-12061905D01*
X9298690Y-12052381D01*
X9289167Y-12033333D01*
X9270119Y-12023809D01*
X9241548Y-12023809D01*
X9222500Y-12014286D01*
X9212976Y-11995238D01*
X9212976Y-11985714D01*
X9222500Y-11966667D01*
X9241548Y-11957143D01*
X9270119Y-11957143D01*
X9289167Y-11966667D01*
X9365357Y-12166667D02*
X9374881Y-12157143D01*
X9393929Y-12128571D01*
X9403452Y-12109524D01*
X9412976Y-12080952D01*
X9422500Y-12033333D01*
X9422500Y-11995238D01*
X9412976Y-11947619D01*
X9403452Y-11919048D01*
X9393929Y-11900000D01*
X9374881Y-11871428D01*
X9365357Y-11861905D01*
M02*
