G04 #@! TF.GenerationSoftware,KiCad,Pcbnew,6.0.8+dfsg-1~bpo11+1*
G04 #@! TF.CreationDate,2023-05-15T15:14:37-04:00*
G04 #@! TF.ProjectId,08_padded_interleaved_loose,30385f70-6164-4646-9564-5f696e746572,rev?*
G04 #@! TF.SameCoordinates,Original*
G04 #@! TF.FileFunction,Copper,L2,Bot*
G04 #@! TF.FilePolarity,Positive*
%FSLAX46Y46*%
G04 Gerber Fmt 4.6, Leading zero omitted, Abs format (unit mm)*
G04 Created by KiCad (PCBNEW 6.0.8+dfsg-1~bpo11+1) date 2023-05-15 15:14:37*
%MOMM*%
%LPD*%
G01*
G04 APERTURE LIST*
G04 #@! TA.AperFunction,SMDPad,CuDef*
%ADD10R,1.200000X0.600000*%
G04 #@! TD*
G04 #@! TA.AperFunction,SMDPad,CuDef*
%ADD11R,1.400000X0.800000*%
G04 #@! TD*
G04 #@! TA.AperFunction,ViaPad*
%ADD12C,0.400000*%
G04 #@! TD*
G04 #@! TA.AperFunction,Conductor*
%ADD13C,0.127000*%
G04 #@! TD*
G04 APERTURE END LIST*
D10*
X52125000Y-72625000D03*
X49225000Y-73125000D03*
X52125000Y-73625000D03*
X49225000Y-74125000D03*
X52125000Y-74625000D03*
X49225000Y-75125000D03*
X52125000Y-75625000D03*
X49225000Y-76125000D03*
X52125000Y-76625000D03*
X49225000Y-77125000D03*
X52125000Y-77625000D03*
X49225000Y-78125000D03*
X52125000Y-78625000D03*
X49225000Y-79125000D03*
X52125000Y-79625000D03*
X49225000Y-80125000D03*
X52125000Y-80625000D03*
X49225000Y-81125000D03*
X52125000Y-81625000D03*
X49225000Y-82125000D03*
X52125000Y-82625000D03*
X49225000Y-83125000D03*
X52125000Y-83625000D03*
X49225000Y-84125000D03*
X52125000Y-84625000D03*
X49225000Y-85125000D03*
X52125000Y-85625000D03*
X49225000Y-86125000D03*
X52125000Y-86625000D03*
X49225000Y-87125000D03*
X52125000Y-87625000D03*
X49225000Y-88125000D03*
D11*
X52025000Y-71625000D03*
X49325000Y-71625000D03*
X52025000Y-89125000D03*
X49325000Y-89125000D03*
D10*
X265775000Y-76750000D03*
X262875000Y-77250000D03*
X265775000Y-77750000D03*
X262875000Y-78250000D03*
X265775000Y-78750000D03*
X262875000Y-79250000D03*
X265775000Y-79750000D03*
X262875000Y-80250000D03*
D11*
X265675000Y-75750000D03*
X262975000Y-75750000D03*
X265675000Y-81250000D03*
X262975000Y-81250000D03*
D12*
X254080000Y-101000000D03*
X250100000Y-100990000D03*
X248080000Y-101000000D03*
X244100000Y-100990000D03*
X242080000Y-101000000D03*
X238100000Y-100990000D03*
X236080000Y-101000000D03*
X232100000Y-100990000D03*
X230080000Y-101000000D03*
X226100000Y-100990000D03*
X224080000Y-101000000D03*
X220100000Y-100990000D03*
X218080000Y-101000000D03*
X214100000Y-100990000D03*
X212080000Y-101000000D03*
X208100000Y-100990000D03*
X206080000Y-101000000D03*
X202100000Y-100990000D03*
X200080000Y-101000000D03*
X196100000Y-100990000D03*
X194080000Y-101000000D03*
X190100000Y-100990000D03*
X188080000Y-101000000D03*
X184100000Y-100990000D03*
X182080000Y-101000000D03*
X178100000Y-100990000D03*
X176080000Y-101000000D03*
X172100000Y-100990000D03*
X170080000Y-101000000D03*
X166100000Y-100990000D03*
X164080000Y-101000000D03*
X160100000Y-100990000D03*
X158080000Y-101000000D03*
X154100000Y-100990000D03*
X152080000Y-101000000D03*
X148100000Y-100990000D03*
X146080000Y-101000000D03*
X142100000Y-100990000D03*
X140080000Y-101000000D03*
X136100000Y-100990000D03*
X134080000Y-101000000D03*
X130100000Y-100990000D03*
X128080000Y-101000000D03*
X124100000Y-100990000D03*
X122080000Y-101000000D03*
X118100000Y-100990000D03*
X116080000Y-101000000D03*
X112100000Y-100990000D03*
X110080000Y-101000000D03*
X106100000Y-100990000D03*
X104080000Y-101000000D03*
X100100000Y-100990000D03*
X98080000Y-101000000D03*
X94100000Y-100990000D03*
X92080000Y-101000000D03*
X88100000Y-100990000D03*
X86080000Y-101000000D03*
X82100000Y-100990000D03*
X80080000Y-101000000D03*
X76100000Y-100990000D03*
X74080000Y-101000000D03*
X70100000Y-100990000D03*
X68080000Y-101000000D03*
X64100000Y-100990000D03*
X254080000Y-95000000D03*
X250100000Y-94990000D03*
X248080000Y-95000000D03*
X244100000Y-94990000D03*
X242080000Y-95000000D03*
X238100000Y-94990000D03*
X236080000Y-95000000D03*
X232100000Y-94990000D03*
X230080000Y-95000000D03*
X226100000Y-94990000D03*
X224080000Y-95000000D03*
X220100000Y-94990000D03*
X218080000Y-95000000D03*
X214100000Y-94990000D03*
X212080000Y-95000000D03*
X208100000Y-94990000D03*
X206080000Y-95000000D03*
X202100000Y-94990000D03*
X200080000Y-95000000D03*
X196100000Y-94990000D03*
X194080000Y-95000000D03*
X190100000Y-94990000D03*
X188080000Y-95000000D03*
X184100000Y-94990000D03*
X182080000Y-95000000D03*
X178100000Y-94990000D03*
X176080000Y-95000000D03*
X172100000Y-94990000D03*
X170080000Y-95000000D03*
X166100000Y-94990000D03*
X164080000Y-95000000D03*
X160100000Y-94990000D03*
X158080000Y-95000000D03*
X154100000Y-94990000D03*
X152080000Y-95000000D03*
X148100000Y-94990000D03*
X146080000Y-95000000D03*
X142100000Y-94990000D03*
X140080000Y-95000000D03*
X136100000Y-94990000D03*
X134080000Y-95000000D03*
X130100000Y-94990000D03*
X128080000Y-95000000D03*
X124100000Y-94990000D03*
X122080000Y-95000000D03*
X118100000Y-94990000D03*
X116080000Y-95000000D03*
X112100000Y-94990000D03*
X110080000Y-95000000D03*
X106100000Y-94990000D03*
X104080000Y-95000000D03*
X100100000Y-94990000D03*
X98080000Y-95000000D03*
X94100000Y-94990000D03*
X92080000Y-95000000D03*
X88100000Y-94990000D03*
X86080000Y-95000000D03*
X82100000Y-94990000D03*
X80080000Y-95000000D03*
X76100000Y-94990000D03*
X74080000Y-95000000D03*
X70100000Y-94990000D03*
X68080000Y-95000000D03*
X64100000Y-94990000D03*
X254080000Y-89000000D03*
X250100000Y-88990000D03*
X248080000Y-89000000D03*
X244100000Y-88990000D03*
X242080000Y-89000000D03*
X238100000Y-88990000D03*
X236080000Y-89000000D03*
X232100000Y-88990000D03*
X230080000Y-89000000D03*
X226100000Y-88990000D03*
X224080000Y-89000000D03*
X220100000Y-88990000D03*
X218080000Y-89000000D03*
X214100000Y-88990000D03*
X212080000Y-89000000D03*
X208100000Y-88990000D03*
X206080000Y-89000000D03*
X202100000Y-88990000D03*
X200080000Y-89000000D03*
X196100000Y-88990000D03*
X194080000Y-89000000D03*
X190100000Y-88990000D03*
X188080000Y-89000000D03*
X184100000Y-88990000D03*
X182080000Y-89000000D03*
X178100000Y-88990000D03*
X176080000Y-89000000D03*
X172100000Y-88990000D03*
X170080000Y-89000000D03*
X166100000Y-88990000D03*
X164080000Y-89000000D03*
X160100000Y-88990000D03*
X158080000Y-89000000D03*
X154100000Y-88990000D03*
X152080000Y-89000000D03*
X148100000Y-88990000D03*
X146080000Y-89000000D03*
X142100000Y-88990000D03*
X140080000Y-89000000D03*
X136100000Y-88990000D03*
X134080000Y-89000000D03*
X130100000Y-88990000D03*
X128080000Y-89000000D03*
X124100000Y-88990000D03*
X122080000Y-89000000D03*
X118100000Y-88990000D03*
X116080000Y-89000000D03*
X112100000Y-88990000D03*
X110080000Y-89000000D03*
X106100000Y-88990000D03*
X104080000Y-89000000D03*
X100100000Y-88990000D03*
X98080000Y-89000000D03*
X94100000Y-88990000D03*
X92080000Y-89000000D03*
X88100000Y-88990000D03*
X86080000Y-89000000D03*
X82100000Y-88990000D03*
X80080000Y-89000000D03*
X76100000Y-88990000D03*
X74080000Y-89000000D03*
X70100000Y-88990000D03*
X68080000Y-89000000D03*
X64100000Y-88990000D03*
X254080000Y-83000000D03*
X250100000Y-82990000D03*
X248080000Y-83000000D03*
X244100000Y-82990000D03*
X242080000Y-83000000D03*
X238100000Y-82990000D03*
X236080000Y-83000000D03*
X232100000Y-82990000D03*
X230080000Y-83000000D03*
X226100000Y-82990000D03*
X224080000Y-83000000D03*
X220100000Y-82990000D03*
X218080000Y-83000000D03*
X214100000Y-82990000D03*
X212080000Y-83000000D03*
X208100000Y-82990000D03*
X206080000Y-83000000D03*
X202100000Y-82990000D03*
X200080000Y-83000000D03*
X196100000Y-82990000D03*
X194080000Y-83000000D03*
X190100000Y-82990000D03*
X188080000Y-83000000D03*
X184100000Y-82990000D03*
X182080000Y-83000000D03*
X178100000Y-82990000D03*
X176080000Y-83000000D03*
X172100000Y-82990000D03*
X170080000Y-83000000D03*
X166100000Y-82990000D03*
X164080000Y-83000000D03*
X160100000Y-82990000D03*
X158080000Y-83000000D03*
X154100000Y-82990000D03*
X152080000Y-83000000D03*
X148100000Y-82990000D03*
X146080000Y-83000000D03*
X142100000Y-82990000D03*
X140080000Y-83000000D03*
X136100000Y-82990000D03*
X134080000Y-83000000D03*
X130100000Y-82990000D03*
X128080000Y-83000000D03*
X124100000Y-82990000D03*
X122080000Y-83000000D03*
X118100000Y-82990000D03*
X116080000Y-83000000D03*
X112100000Y-82990000D03*
X110080000Y-83000000D03*
X106100000Y-82990000D03*
X104080000Y-83000000D03*
X100100000Y-82990000D03*
X98080000Y-83000000D03*
X94100000Y-82990000D03*
X92080000Y-83000000D03*
X88100000Y-82990000D03*
X86080000Y-83000000D03*
X82100000Y-82990000D03*
X80080000Y-83000000D03*
X76100000Y-82990000D03*
X74080000Y-83000000D03*
X70100000Y-82990000D03*
X68080000Y-83000000D03*
X64100000Y-82990000D03*
X254080000Y-77000000D03*
X250100000Y-76990000D03*
X248080000Y-77000000D03*
X244100000Y-76990000D03*
X242080000Y-77000000D03*
X238100000Y-76990000D03*
X236080000Y-77000000D03*
X232100000Y-76990000D03*
X230080000Y-77000000D03*
X226100000Y-76990000D03*
X224080000Y-77000000D03*
X220100000Y-76990000D03*
X218080000Y-77000000D03*
X214100000Y-76990000D03*
X212080000Y-77000000D03*
X208100000Y-76990000D03*
X206080000Y-77000000D03*
X202100000Y-76990000D03*
X200080000Y-77000000D03*
X196100000Y-76990000D03*
X194080000Y-77000000D03*
X190100000Y-76990000D03*
X188080000Y-77000000D03*
X184100000Y-76990000D03*
X182080000Y-77000000D03*
X178100000Y-76990000D03*
X176080000Y-77000000D03*
X172100000Y-76990000D03*
X170080000Y-77000000D03*
X166100000Y-76990000D03*
X164080000Y-77000000D03*
X160100000Y-76990000D03*
X158080000Y-77000000D03*
X154100000Y-76990000D03*
X152080000Y-77000000D03*
X148100000Y-76990000D03*
X146080000Y-77000000D03*
X142100000Y-76990000D03*
X140080000Y-77000000D03*
X136100000Y-76990000D03*
X134080000Y-77000000D03*
X130100000Y-76990000D03*
X128080000Y-77000000D03*
X124100000Y-76990000D03*
X122080000Y-77000000D03*
X118100000Y-76990000D03*
X116080000Y-77000000D03*
X112100000Y-76990000D03*
X110080000Y-77000000D03*
X106100000Y-76990000D03*
X104080000Y-77000000D03*
X100100000Y-76990000D03*
X98080000Y-77000000D03*
X94100000Y-76990000D03*
X92080000Y-77000000D03*
X88100000Y-76990000D03*
X86080000Y-77000000D03*
X82100000Y-76990000D03*
X80080000Y-77000000D03*
X76100000Y-76990000D03*
X74080000Y-77000000D03*
X70100000Y-76990000D03*
X68080000Y-77000000D03*
X64100000Y-76990000D03*
X254080000Y-71000000D03*
X250100000Y-70990000D03*
X248080000Y-71000000D03*
X244100000Y-70990000D03*
X242080000Y-71000000D03*
X238100000Y-70990000D03*
X236080000Y-71000000D03*
X232100000Y-70990000D03*
X230080000Y-71000000D03*
X226100000Y-70990000D03*
X224080000Y-71000000D03*
X220100000Y-70990000D03*
X218080000Y-71000000D03*
X214100000Y-70990000D03*
X212080000Y-71000000D03*
X208100000Y-70990000D03*
X206080000Y-71000000D03*
X202100000Y-70990000D03*
X200080000Y-71000000D03*
X196100000Y-70990000D03*
X194080000Y-71000000D03*
X190100000Y-70990000D03*
X188080000Y-71000000D03*
X184100000Y-70990000D03*
X182080000Y-71000000D03*
X178100000Y-70990000D03*
X176080000Y-71000000D03*
X172100000Y-70990000D03*
X170080000Y-71000000D03*
X166100000Y-70990000D03*
X164080000Y-71000000D03*
X160100000Y-70990000D03*
X158080000Y-71000000D03*
X154100000Y-70990000D03*
X152080000Y-71000000D03*
X148100000Y-70990000D03*
X146080000Y-71000000D03*
X142100000Y-70990000D03*
X140080000Y-71000000D03*
X136100000Y-70990000D03*
X134080000Y-71000000D03*
X130100000Y-70990000D03*
X128080000Y-71000000D03*
X124100000Y-70990000D03*
X122080000Y-71000000D03*
X118100000Y-70990000D03*
X116080000Y-71000000D03*
X112100000Y-70990000D03*
X110080000Y-71000000D03*
X106100000Y-70990000D03*
X104080000Y-71000000D03*
X100100000Y-70990000D03*
X98080000Y-71000000D03*
X94100000Y-70990000D03*
X92080000Y-71000000D03*
X88100000Y-70990000D03*
X86080000Y-71000000D03*
X82100000Y-70990000D03*
X80080000Y-71000000D03*
X76100000Y-70990000D03*
X74080000Y-71000000D03*
X70100000Y-70990000D03*
X68080000Y-71000000D03*
X64100000Y-70990000D03*
X254080000Y-65000000D03*
X250100000Y-64990000D03*
X248080000Y-65000000D03*
X244100000Y-64990000D03*
X242080000Y-65000000D03*
X238100000Y-64990000D03*
X236080000Y-65000000D03*
X232100000Y-64990000D03*
X230080000Y-65000000D03*
X226100000Y-64990000D03*
X224080000Y-65000000D03*
X220100000Y-64990000D03*
X218080000Y-65000000D03*
X214100000Y-64990000D03*
X212080000Y-65000000D03*
X208100000Y-64990000D03*
X206080000Y-65000000D03*
X202100000Y-64990000D03*
X200080000Y-65000000D03*
X196100000Y-64990000D03*
X194080000Y-65000000D03*
X190100000Y-64990000D03*
X188080000Y-65000000D03*
X184100000Y-64990000D03*
X182080000Y-65000000D03*
X178100000Y-64990000D03*
X176080000Y-65000000D03*
X172100000Y-64990000D03*
X170080000Y-65000000D03*
X166100000Y-64990000D03*
X164080000Y-65000000D03*
X160100000Y-64990000D03*
X158080000Y-65000000D03*
X154100000Y-64990000D03*
X152080000Y-65000000D03*
X148100000Y-64990000D03*
X146080000Y-65000000D03*
X142100000Y-64990000D03*
X140080000Y-65000000D03*
X136100000Y-64990000D03*
X134080000Y-65000000D03*
X130100000Y-64990000D03*
X128080000Y-65000000D03*
X124100000Y-64990000D03*
X122080000Y-65000000D03*
X118100000Y-64990000D03*
X116080000Y-65000000D03*
X112100000Y-64990000D03*
X110080000Y-65000000D03*
X106100000Y-64990000D03*
X104080000Y-65000000D03*
X100100000Y-64990000D03*
X98080000Y-65000000D03*
X94100000Y-64990000D03*
X92080000Y-65000000D03*
X88100000Y-64990000D03*
X86080000Y-65000000D03*
X82100000Y-64990000D03*
X80080000Y-65000000D03*
X76100000Y-64990000D03*
X74080000Y-65000000D03*
X70100000Y-64990000D03*
X68080000Y-65000000D03*
X64100000Y-64990000D03*
X254080000Y-59000000D03*
X250100000Y-58990000D03*
X248080000Y-59000000D03*
X244100000Y-58990000D03*
X242080000Y-59000000D03*
X238100000Y-58990000D03*
X236080000Y-59000000D03*
X232100000Y-58990000D03*
X230080000Y-59000000D03*
X226100000Y-58990000D03*
X224080000Y-59000000D03*
X220100000Y-58990000D03*
X218080000Y-59000000D03*
X214100000Y-58990000D03*
X212080000Y-59000000D03*
X208100000Y-58990000D03*
X206080000Y-59000000D03*
X202100000Y-58990000D03*
X200080000Y-59000000D03*
X196100000Y-58990000D03*
X194080000Y-59000000D03*
X190100000Y-58990000D03*
X188080000Y-59000000D03*
X184100000Y-58990000D03*
X182080000Y-59000000D03*
X178100000Y-58990000D03*
X176080000Y-59000000D03*
X172100000Y-58990000D03*
X170080000Y-59000000D03*
X166100000Y-58990000D03*
X164080000Y-59000000D03*
X160100000Y-58990000D03*
X158080000Y-59000000D03*
X154100000Y-58990000D03*
X152080000Y-59000000D03*
X148100000Y-58990000D03*
X146080000Y-59000000D03*
X142100000Y-58990000D03*
X140080000Y-59000000D03*
X136100000Y-58990000D03*
X134080000Y-59000000D03*
X130100000Y-58990000D03*
X128080000Y-59000000D03*
X124100000Y-58990000D03*
X122080000Y-59000000D03*
X118100000Y-58990000D03*
X116080000Y-59000000D03*
X112100000Y-58990000D03*
X110080000Y-59000000D03*
X106100000Y-58990000D03*
X104080000Y-59000000D03*
X100100000Y-58990000D03*
X98080000Y-59000000D03*
X94100000Y-58990000D03*
X92080000Y-59000000D03*
X88100000Y-58990000D03*
X86080000Y-59000000D03*
X82100000Y-58990000D03*
X80080000Y-59000000D03*
X76100000Y-58990000D03*
X74080000Y-59000000D03*
X70100000Y-58990000D03*
X68080000Y-59000000D03*
X64100000Y-58990000D03*
X66075000Y-56050000D03*
X72075000Y-56050000D03*
X78075000Y-56050000D03*
X84075000Y-56050000D03*
X90075000Y-56050000D03*
X96075000Y-56050000D03*
X102075000Y-56050000D03*
X108075000Y-56050000D03*
X114075000Y-56050000D03*
X120075000Y-56050000D03*
X126075000Y-56050000D03*
X132075000Y-56050000D03*
X138075000Y-56050000D03*
X144075000Y-56050000D03*
X150075000Y-56050000D03*
X156075000Y-56050000D03*
X162050000Y-104000000D03*
X168050000Y-104000000D03*
X174050000Y-104000000D03*
X180050000Y-104000000D03*
X186050000Y-104000000D03*
X192050000Y-104000000D03*
X198050000Y-104000000D03*
X204050000Y-104000000D03*
X210050000Y-104000000D03*
X216050000Y-104000000D03*
X222050000Y-104000000D03*
X228050000Y-104000000D03*
X234050000Y-104000000D03*
X240050000Y-104000000D03*
X246050000Y-104000000D03*
X252050000Y-104000000D03*
D13*
X256775000Y-98650000D02*
X256430000Y-98650000D01*
X256430000Y-98650000D02*
X254080000Y-101000000D01*
X259725000Y-92650000D02*
X256430000Y-92650000D01*
X256430000Y-92650000D02*
X254080000Y-95000000D01*
X258850000Y-86650000D02*
X256430000Y-86650000D01*
X256430000Y-86650000D02*
X254080000Y-89000000D01*
X259062500Y-81112500D02*
X255967500Y-81112500D01*
X255967500Y-81112500D02*
X254080000Y-83000000D01*
X262875000Y-78250000D02*
X260450000Y-78250000D01*
X259050000Y-76850000D02*
X254230000Y-76850000D01*
X254230000Y-76850000D02*
X254080000Y-77000000D01*
X260450000Y-78250000D02*
X259050000Y-76850000D01*
X265775000Y-77750000D02*
X261850000Y-77750000D01*
X261850000Y-77750000D02*
X261325000Y-77225000D01*
X261325000Y-77225000D02*
X261325000Y-71600000D01*
X261325000Y-71600000D02*
X260700000Y-70975000D01*
X260700000Y-70975000D02*
X254105000Y-70975000D01*
X254105000Y-70975000D02*
X254080000Y-71000000D01*
X262875000Y-77250000D02*
X263375000Y-77250000D01*
X264300000Y-66050000D02*
X263400000Y-65150000D01*
X263375000Y-77250000D02*
X264300000Y-76325000D01*
X254230000Y-65150000D02*
X254080000Y-65000000D01*
X264300000Y-76325000D02*
X264300000Y-66050000D01*
X263400000Y-65150000D02*
X254230000Y-65150000D01*
X265775000Y-76750000D02*
X266075000Y-76750000D01*
X266075000Y-76750000D02*
X267025000Y-75800000D01*
X267025000Y-75800000D02*
X267025000Y-62300000D01*
X267025000Y-62300000D02*
X263500000Y-58775000D01*
X263500000Y-58775000D02*
X254305000Y-58775000D01*
X254305000Y-58775000D02*
X254080000Y-59000000D01*
X250100000Y-100990000D02*
X254070000Y-100990000D01*
X244100000Y-100990000D02*
X248070000Y-100990000D01*
X238100000Y-100990000D02*
X242070000Y-100990000D01*
X232100000Y-100990000D02*
X236070000Y-100990000D01*
X226100000Y-100990000D02*
X230070000Y-100990000D01*
X220100000Y-100990000D02*
X224070000Y-100990000D01*
X214100000Y-100990000D02*
X218070000Y-100990000D01*
X208100000Y-100990000D02*
X212070000Y-100990000D01*
X202100000Y-100990000D02*
X206070000Y-100990000D01*
X196100000Y-100990000D02*
X200070000Y-100990000D01*
X190100000Y-100990000D02*
X194070000Y-100990000D01*
X184100000Y-100990000D02*
X188070000Y-100990000D01*
X178100000Y-100990000D02*
X182070000Y-100990000D01*
X172100000Y-100990000D02*
X176070000Y-100990000D01*
X166100000Y-100990000D02*
X170070000Y-100990000D01*
X160100000Y-100990000D02*
X164070000Y-100990000D01*
X154100000Y-100990000D02*
X158070000Y-100990000D01*
X148100000Y-100990000D02*
X152070000Y-100990000D01*
X142100000Y-100990000D02*
X146070000Y-100990000D01*
X136100000Y-100990000D02*
X140070000Y-100990000D01*
X130100000Y-100990000D02*
X134070000Y-100990000D01*
X124100000Y-100990000D02*
X128070000Y-100990000D01*
X118100000Y-100990000D02*
X122070000Y-100990000D01*
X112100000Y-100990000D02*
X116070000Y-100990000D01*
X106100000Y-100990000D02*
X110070000Y-100990000D01*
X100100000Y-100990000D02*
X104070000Y-100990000D01*
X94100000Y-100990000D02*
X98070000Y-100990000D01*
X88100000Y-100990000D02*
X92070000Y-100990000D01*
X82100000Y-100990000D02*
X86070000Y-100990000D01*
X76100000Y-100990000D02*
X80070000Y-100990000D01*
X70100000Y-100990000D02*
X74070000Y-100990000D01*
X64100000Y-100990000D02*
X68070000Y-100990000D01*
X250100000Y-94990000D02*
X254070000Y-94990000D01*
X244100000Y-94990000D02*
X248070000Y-94990000D01*
X238100000Y-94990000D02*
X242070000Y-94990000D01*
X232100000Y-94990000D02*
X236070000Y-94990000D01*
X226100000Y-94990000D02*
X230070000Y-94990000D01*
X220100000Y-94990000D02*
X224070000Y-94990000D01*
X214100000Y-94990000D02*
X218070000Y-94990000D01*
X208100000Y-94990000D02*
X212070000Y-94990000D01*
X202100000Y-94990000D02*
X206070000Y-94990000D01*
X196100000Y-94990000D02*
X200070000Y-94990000D01*
X190100000Y-94990000D02*
X194070000Y-94990000D01*
X184100000Y-94990000D02*
X188070000Y-94990000D01*
X178100000Y-94990000D02*
X182070000Y-94990000D01*
X172100000Y-94990000D02*
X176070000Y-94990000D01*
X166100000Y-94990000D02*
X170070000Y-94990000D01*
X160100000Y-94990000D02*
X164070000Y-94990000D01*
X154100000Y-94990000D02*
X158070000Y-94990000D01*
X148100000Y-94990000D02*
X152070000Y-94990000D01*
X142100000Y-94990000D02*
X146070000Y-94990000D01*
X136100000Y-94990000D02*
X140070000Y-94990000D01*
X130100000Y-94990000D02*
X134070000Y-94990000D01*
X124100000Y-94990000D02*
X128070000Y-94990000D01*
X118100000Y-94990000D02*
X122070000Y-94990000D01*
X112100000Y-94990000D02*
X116070000Y-94990000D01*
X106100000Y-94990000D02*
X110070000Y-94990000D01*
X100100000Y-94990000D02*
X104070000Y-94990000D01*
X94100000Y-94990000D02*
X98070000Y-94990000D01*
X88100000Y-94990000D02*
X92070000Y-94990000D01*
X82100000Y-94990000D02*
X86070000Y-94990000D01*
X76100000Y-94990000D02*
X80070000Y-94990000D01*
X70100000Y-94990000D02*
X74070000Y-94990000D01*
X64100000Y-94990000D02*
X68070000Y-94990000D01*
X250100000Y-88990000D02*
X254070000Y-88990000D01*
X244100000Y-88990000D02*
X248070000Y-88990000D01*
X238100000Y-88990000D02*
X242070000Y-88990000D01*
X232100000Y-88990000D02*
X236070000Y-88990000D01*
X226100000Y-88990000D02*
X230070000Y-88990000D01*
X220100000Y-88990000D02*
X224070000Y-88990000D01*
X214100000Y-88990000D02*
X218070000Y-88990000D01*
X208100000Y-88990000D02*
X212070000Y-88990000D01*
X202100000Y-88990000D02*
X206070000Y-88990000D01*
X196100000Y-88990000D02*
X200070000Y-88990000D01*
X190100000Y-88990000D02*
X194070000Y-88990000D01*
X184100000Y-88990000D02*
X188070000Y-88990000D01*
X178100000Y-88990000D02*
X182070000Y-88990000D01*
X172100000Y-88990000D02*
X176070000Y-88990000D01*
X166100000Y-88990000D02*
X170070000Y-88990000D01*
X160100000Y-88990000D02*
X164070000Y-88990000D01*
X154100000Y-88990000D02*
X158070000Y-88990000D01*
X148100000Y-88990000D02*
X152070000Y-88990000D01*
X142100000Y-88990000D02*
X146070000Y-88990000D01*
X136100000Y-88990000D02*
X140070000Y-88990000D01*
X130100000Y-88990000D02*
X134070000Y-88990000D01*
X124100000Y-88990000D02*
X128070000Y-88990000D01*
X118100000Y-88990000D02*
X122070000Y-88990000D01*
X112100000Y-88990000D02*
X116070000Y-88990000D01*
X106100000Y-88990000D02*
X110070000Y-88990000D01*
X100100000Y-88990000D02*
X104070000Y-88990000D01*
X94100000Y-88990000D02*
X98070000Y-88990000D01*
X88100000Y-88990000D02*
X92070000Y-88990000D01*
X82100000Y-88990000D02*
X86070000Y-88990000D01*
X76100000Y-88990000D02*
X80070000Y-88990000D01*
X70100000Y-88990000D02*
X74070000Y-88990000D01*
X64100000Y-88990000D02*
X68070000Y-88990000D01*
X250100000Y-82990000D02*
X254070000Y-82990000D01*
X244100000Y-82990000D02*
X248070000Y-82990000D01*
X238100000Y-82990000D02*
X242070000Y-82990000D01*
X232100000Y-82990000D02*
X236070000Y-82990000D01*
X226100000Y-82990000D02*
X230070000Y-82990000D01*
X220100000Y-82990000D02*
X224070000Y-82990000D01*
X214100000Y-82990000D02*
X218070000Y-82990000D01*
X208100000Y-82990000D02*
X212070000Y-82990000D01*
X202100000Y-82990000D02*
X206070000Y-82990000D01*
X196100000Y-82990000D02*
X200070000Y-82990000D01*
X190100000Y-82990000D02*
X194070000Y-82990000D01*
X184100000Y-82990000D02*
X188070000Y-82990000D01*
X178100000Y-82990000D02*
X182070000Y-82990000D01*
X172100000Y-82990000D02*
X176070000Y-82990000D01*
X166100000Y-82990000D02*
X170070000Y-82990000D01*
X160100000Y-82990000D02*
X164070000Y-82990000D01*
X154100000Y-82990000D02*
X158070000Y-82990000D01*
X148100000Y-82990000D02*
X152070000Y-82990000D01*
X142100000Y-82990000D02*
X146070000Y-82990000D01*
X136100000Y-82990000D02*
X140070000Y-82990000D01*
X130100000Y-82990000D02*
X134070000Y-82990000D01*
X124100000Y-82990000D02*
X128070000Y-82990000D01*
X118100000Y-82990000D02*
X122070000Y-82990000D01*
X112100000Y-82990000D02*
X116070000Y-82990000D01*
X106100000Y-82990000D02*
X110070000Y-82990000D01*
X100100000Y-82990000D02*
X104070000Y-82990000D01*
X94100000Y-82990000D02*
X98070000Y-82990000D01*
X88100000Y-82990000D02*
X92070000Y-82990000D01*
X82100000Y-82990000D02*
X86070000Y-82990000D01*
X76100000Y-82990000D02*
X80070000Y-82990000D01*
X70100000Y-82990000D02*
X74070000Y-82990000D01*
X64100000Y-82990000D02*
X68070000Y-82990000D01*
X250100000Y-76990000D02*
X254070000Y-76990000D01*
X244100000Y-76990000D02*
X248070000Y-76990000D01*
X238100000Y-76990000D02*
X242070000Y-76990000D01*
X232100000Y-76990000D02*
X236070000Y-76990000D01*
X226100000Y-76990000D02*
X230070000Y-76990000D01*
X220100000Y-76990000D02*
X224070000Y-76990000D01*
X214100000Y-76990000D02*
X218070000Y-76990000D01*
X208100000Y-76990000D02*
X212070000Y-76990000D01*
X202100000Y-76990000D02*
X206070000Y-76990000D01*
X196100000Y-76990000D02*
X200070000Y-76990000D01*
X190100000Y-76990000D02*
X194070000Y-76990000D01*
X184100000Y-76990000D02*
X188070000Y-76990000D01*
X178100000Y-76990000D02*
X182070000Y-76990000D01*
X172100000Y-76990000D02*
X176070000Y-76990000D01*
X166100000Y-76990000D02*
X170070000Y-76990000D01*
X160100000Y-76990000D02*
X164070000Y-76990000D01*
X154100000Y-76990000D02*
X158070000Y-76990000D01*
X148100000Y-76990000D02*
X152070000Y-76990000D01*
X142100000Y-76990000D02*
X146070000Y-76990000D01*
X136100000Y-76990000D02*
X140070000Y-76990000D01*
X130100000Y-76990000D02*
X134070000Y-76990000D01*
X124100000Y-76990000D02*
X128070000Y-76990000D01*
X118100000Y-76990000D02*
X122070000Y-76990000D01*
X112100000Y-76990000D02*
X116070000Y-76990000D01*
X106100000Y-76990000D02*
X110070000Y-76990000D01*
X100100000Y-76990000D02*
X104070000Y-76990000D01*
X94100000Y-76990000D02*
X98070000Y-76990000D01*
X88100000Y-76990000D02*
X92070000Y-76990000D01*
X82100000Y-76990000D02*
X86070000Y-76990000D01*
X76100000Y-76990000D02*
X80070000Y-76990000D01*
X70100000Y-76990000D02*
X74070000Y-76990000D01*
X64100000Y-76990000D02*
X68070000Y-76990000D01*
X250100000Y-70990000D02*
X254070000Y-70990000D01*
X244100000Y-70990000D02*
X248070000Y-70990000D01*
X238100000Y-70990000D02*
X242070000Y-70990000D01*
X232100000Y-70990000D02*
X236070000Y-70990000D01*
X226100000Y-70990000D02*
X230070000Y-70990000D01*
X220100000Y-70990000D02*
X224070000Y-70990000D01*
X214100000Y-70990000D02*
X218070000Y-70990000D01*
X208100000Y-70990000D02*
X212070000Y-70990000D01*
X202100000Y-70990000D02*
X206070000Y-70990000D01*
X196100000Y-70990000D02*
X200070000Y-70990000D01*
X190100000Y-70990000D02*
X194070000Y-70990000D01*
X184100000Y-70990000D02*
X188070000Y-70990000D01*
X178100000Y-70990000D02*
X182070000Y-70990000D01*
X172100000Y-70990000D02*
X176070000Y-70990000D01*
X166100000Y-70990000D02*
X170070000Y-70990000D01*
X160100000Y-70990000D02*
X164070000Y-70990000D01*
X154100000Y-70990000D02*
X158070000Y-70990000D01*
X148100000Y-70990000D02*
X152070000Y-70990000D01*
X142100000Y-70990000D02*
X146070000Y-70990000D01*
X136100000Y-70990000D02*
X140070000Y-70990000D01*
X130100000Y-70990000D02*
X134070000Y-70990000D01*
X124100000Y-70990000D02*
X128070000Y-70990000D01*
X118100000Y-70990000D02*
X122070000Y-70990000D01*
X112100000Y-70990000D02*
X116070000Y-70990000D01*
X106100000Y-70990000D02*
X110070000Y-70990000D01*
X100100000Y-70990000D02*
X104070000Y-70990000D01*
X94100000Y-70990000D02*
X98070000Y-70990000D01*
X88100000Y-70990000D02*
X92070000Y-70990000D01*
X82100000Y-70990000D02*
X86070000Y-70990000D01*
X76100000Y-70990000D02*
X80070000Y-70990000D01*
X70100000Y-70990000D02*
X74070000Y-70990000D01*
X64100000Y-70990000D02*
X68070000Y-70990000D01*
X250100000Y-64990000D02*
X254070000Y-64990000D01*
X244100000Y-64990000D02*
X248070000Y-64990000D01*
X238100000Y-64990000D02*
X242070000Y-64990000D01*
X232100000Y-64990000D02*
X236070000Y-64990000D01*
X226100000Y-64990000D02*
X230070000Y-64990000D01*
X220100000Y-64990000D02*
X224070000Y-64990000D01*
X214100000Y-64990000D02*
X218070000Y-64990000D01*
X208100000Y-64990000D02*
X212070000Y-64990000D01*
X202100000Y-64990000D02*
X206070000Y-64990000D01*
X196100000Y-64990000D02*
X200070000Y-64990000D01*
X190100000Y-64990000D02*
X194070000Y-64990000D01*
X184100000Y-64990000D02*
X188070000Y-64990000D01*
X178100000Y-64990000D02*
X182070000Y-64990000D01*
X172100000Y-64990000D02*
X176070000Y-64990000D01*
X166100000Y-64990000D02*
X170070000Y-64990000D01*
X160100000Y-64990000D02*
X164070000Y-64990000D01*
X154100000Y-64990000D02*
X158070000Y-64990000D01*
X148100000Y-64990000D02*
X152070000Y-64990000D01*
X142100000Y-64990000D02*
X146070000Y-64990000D01*
X136100000Y-64990000D02*
X140070000Y-64990000D01*
X130100000Y-64990000D02*
X134070000Y-64990000D01*
X124100000Y-64990000D02*
X128070000Y-64990000D01*
X118100000Y-64990000D02*
X122070000Y-64990000D01*
X112100000Y-64990000D02*
X116070000Y-64990000D01*
X106100000Y-64990000D02*
X110070000Y-64990000D01*
X100100000Y-64990000D02*
X104070000Y-64990000D01*
X94100000Y-64990000D02*
X98070000Y-64990000D01*
X88100000Y-64990000D02*
X92070000Y-64990000D01*
X82100000Y-64990000D02*
X86070000Y-64990000D01*
X76100000Y-64990000D02*
X80070000Y-64990000D01*
X70100000Y-64990000D02*
X74070000Y-64990000D01*
X64100000Y-64990000D02*
X68070000Y-64990000D01*
X250100000Y-58990000D02*
X254070000Y-58990000D01*
X244100000Y-58990000D02*
X248070000Y-58990000D01*
X238100000Y-58990000D02*
X242070000Y-58990000D01*
X232100000Y-58990000D02*
X236070000Y-58990000D01*
X226100000Y-58990000D02*
X230070000Y-58990000D01*
X220100000Y-58990000D02*
X224070000Y-58990000D01*
X214100000Y-58990000D02*
X218070000Y-58990000D01*
X208100000Y-58990000D02*
X212070000Y-58990000D01*
X202100000Y-58990000D02*
X206070000Y-58990000D01*
X196100000Y-58990000D02*
X200070000Y-58990000D01*
X190100000Y-58990000D02*
X194070000Y-58990000D01*
X184100000Y-58990000D02*
X188070000Y-58990000D01*
X178100000Y-58990000D02*
X182070000Y-58990000D01*
X172100000Y-58990000D02*
X176070000Y-58990000D01*
X166100000Y-58990000D02*
X170070000Y-58990000D01*
X160100000Y-58990000D02*
X164070000Y-58990000D01*
X154100000Y-58990000D02*
X158070000Y-58990000D01*
X148100000Y-58990000D02*
X152070000Y-58990000D01*
X142100000Y-58990000D02*
X146070000Y-58990000D01*
X136100000Y-58990000D02*
X140070000Y-58990000D01*
X130100000Y-58990000D02*
X134070000Y-58990000D01*
X124100000Y-58990000D02*
X128070000Y-58990000D01*
X118100000Y-58990000D02*
X122070000Y-58990000D01*
X112100000Y-58990000D02*
X116070000Y-58990000D01*
X106100000Y-58990000D02*
X110070000Y-58990000D01*
X100100000Y-58990000D02*
X104070000Y-58990000D01*
X94100000Y-58990000D02*
X98070000Y-58990000D01*
X88100000Y-58990000D02*
X92070000Y-58990000D01*
X82100000Y-58990000D02*
X86070000Y-58990000D01*
X76100000Y-58990000D02*
X80070000Y-58990000D01*
X70100000Y-58990000D02*
X74070000Y-58990000D01*
X64100000Y-58990000D02*
X68070000Y-58990000D01*
X68070000Y-58990000D02*
X68080000Y-59000000D01*
X265775000Y-78750000D02*
X261425000Y-78750000D01*
X261425000Y-78750000D02*
X259062500Y-81112500D01*
X259500000Y-86000000D02*
X259500000Y-81775000D01*
X262025000Y-79250000D02*
X262875000Y-79250000D01*
X259500000Y-81775000D02*
X262025000Y-79250000D01*
X258850000Y-86650000D02*
X259500000Y-86000000D01*
X259725000Y-92650000D02*
X260950000Y-91425000D01*
X260950000Y-80894000D02*
X262094000Y-79750000D01*
X260950000Y-91425000D02*
X260950000Y-80894000D01*
X262094000Y-79750000D02*
X265775000Y-79750000D01*
X264325000Y-91100000D02*
X264325000Y-81119000D01*
X256775000Y-98650000D02*
X264325000Y-91100000D01*
X263481000Y-80275000D02*
X262950000Y-80275000D01*
X264325000Y-81119000D02*
X263481000Y-80275000D01*
X61550000Y-52700000D02*
X65325000Y-52700000D01*
X59875000Y-65175000D02*
X59875000Y-54375000D01*
X59875000Y-54375000D02*
X61550000Y-52700000D01*
X66075000Y-53450000D02*
X65325000Y-52700000D01*
X66075000Y-56050000D02*
X66075000Y-53450000D01*
X52425000Y-72625000D02*
X59875000Y-65175000D01*
X52125000Y-72625000D02*
X52425000Y-72625000D01*
X50725000Y-70975000D02*
X59621000Y-62079000D01*
X50725000Y-71625000D02*
X50725000Y-70975000D01*
X59621000Y-54269790D02*
X61465790Y-52425000D01*
X49225000Y-73125000D02*
X50725000Y-71625000D01*
X61465790Y-52425000D02*
X71250000Y-52425000D01*
X72075000Y-56050000D02*
X72075000Y-53250000D01*
X59621000Y-62079000D02*
X59621000Y-54269790D01*
X72075000Y-53250000D02*
X71250000Y-52425000D01*
X52765790Y-68575000D02*
X59367000Y-61973790D01*
X78075000Y-56050000D02*
X78075000Y-52500000D01*
X59367000Y-61973790D02*
X59367000Y-54164580D01*
X48100000Y-73625000D02*
X47700000Y-73225000D01*
X78075000Y-52500000D02*
X77746000Y-52171000D01*
X59367000Y-54164580D02*
X61360580Y-52171000D01*
X52125000Y-73625000D02*
X48100000Y-73625000D01*
X50325000Y-68575000D02*
X52765790Y-68575000D01*
X47700000Y-73225000D02*
X47700000Y-71200000D01*
X47700000Y-71200000D02*
X50325000Y-68575000D01*
X61360580Y-52171000D02*
X77746000Y-52171000D01*
X52660580Y-68321000D02*
X59113000Y-61868580D01*
X59113000Y-54059370D02*
X61255370Y-51917000D01*
X61255370Y-51917000D02*
X83892000Y-51917000D01*
X59113000Y-61868580D02*
X59113000Y-54059370D01*
X48200000Y-74125000D02*
X47446000Y-73371000D01*
X84075000Y-56050000D02*
X84075000Y-52100000D01*
X50219790Y-68321000D02*
X52660580Y-68321000D01*
X47446000Y-73371000D02*
X47446000Y-71094790D01*
X47446000Y-71094790D02*
X50219790Y-68321000D01*
X84075000Y-52100000D02*
X83892000Y-51917000D01*
X49225000Y-74125000D02*
X48200000Y-74125000D01*
X50114580Y-68067000D02*
X47192000Y-70989580D01*
X52555370Y-68067000D02*
X50114580Y-68067000D01*
X47192000Y-70989580D02*
X47192000Y-73517000D01*
X58859000Y-61763370D02*
X52555370Y-68067000D01*
X89563000Y-51663000D02*
X61150160Y-51663000D01*
X61150160Y-51663000D02*
X58859000Y-53954160D01*
X90075000Y-52175000D02*
X89563000Y-51663000D01*
X58859000Y-53954160D02*
X58859000Y-61763370D01*
X90075000Y-56050000D02*
X90075000Y-52175000D01*
X47192000Y-73517000D02*
X48300000Y-74625000D01*
X48300000Y-74625000D02*
X52125000Y-74625000D01*
X96075000Y-56050000D02*
X96075000Y-52250000D01*
X46800000Y-73484210D02*
X48440790Y-75125000D01*
X52450160Y-67813000D02*
X50009370Y-67813000D01*
X48440790Y-75125000D02*
X49225000Y-75125000D01*
X95234000Y-51409000D02*
X61044950Y-51409000D01*
X46800000Y-71022370D02*
X46800000Y-73484210D01*
X58605000Y-61658160D02*
X52450160Y-67813000D01*
X50009370Y-67813000D02*
X46800000Y-71022370D01*
X96075000Y-52250000D02*
X95234000Y-51409000D01*
X58605000Y-53848950D02*
X58605000Y-61658160D01*
X61044950Y-51409000D02*
X58605000Y-53848950D01*
X58351000Y-53743740D02*
X58351000Y-61552950D01*
X46546000Y-70917160D02*
X46546000Y-73727000D01*
X49904160Y-67559000D02*
X46546000Y-70917160D01*
X101080000Y-51155000D02*
X60939740Y-51155000D01*
X102075000Y-56050000D02*
X102075000Y-52150000D01*
X102075000Y-52150000D02*
X101080000Y-51155000D01*
X52344950Y-67559000D02*
X49904160Y-67559000D01*
X46546000Y-73727000D02*
X48444000Y-75625000D01*
X60939740Y-51155000D02*
X58351000Y-53743740D01*
X48444000Y-75625000D02*
X52125000Y-75625000D01*
X58351000Y-61552950D02*
X52344950Y-67559000D01*
X58097000Y-61447740D02*
X52239740Y-67305000D01*
X107401000Y-50901000D02*
X60834530Y-50901000D01*
X108075000Y-56050000D02*
X108075000Y-51575000D01*
X58097000Y-53638530D02*
X58097000Y-61447740D01*
X46292000Y-73832210D02*
X48584790Y-76125000D01*
X108075000Y-51575000D02*
X107401000Y-50901000D01*
X49798950Y-67305000D02*
X46292000Y-70811950D01*
X48584790Y-76125000D02*
X49225000Y-76125000D01*
X60834530Y-50901000D02*
X58097000Y-53638530D01*
X46292000Y-70811950D02*
X46292000Y-73832210D01*
X52239740Y-67305000D02*
X49798950Y-67305000D01*
X60729320Y-50647000D02*
X57843000Y-53533320D01*
X48444000Y-76625000D02*
X52125000Y-76625000D01*
X46038000Y-70706740D02*
X46038000Y-74219000D01*
X57843000Y-61342530D02*
X52134530Y-67051000D01*
X114075000Y-56050000D02*
X114075000Y-51650000D01*
X52134530Y-67051000D02*
X49693740Y-67051000D01*
X113072000Y-50647000D02*
X60729320Y-50647000D01*
X57843000Y-53533320D02*
X57843000Y-61342530D01*
X49693740Y-67051000D02*
X46038000Y-70706740D01*
X46038000Y-74219000D02*
X48444000Y-76625000D01*
X114075000Y-51650000D02*
X113072000Y-50647000D01*
X60624110Y-50393000D02*
X57589000Y-53428110D01*
X120075000Y-51300000D02*
X119168000Y-50393000D01*
X48584790Y-77125000D02*
X49225000Y-77125000D01*
X119168000Y-50393000D02*
X60624110Y-50393000D01*
X57589000Y-53428110D02*
X57589000Y-61237320D01*
X57589000Y-61237320D02*
X52029320Y-66797000D01*
X45784000Y-70601530D02*
X45784000Y-74324210D01*
X49588530Y-66797000D02*
X45784000Y-70601530D01*
X45784000Y-74324210D02*
X48584790Y-77125000D01*
X120075000Y-56050000D02*
X120075000Y-51300000D01*
X52029320Y-66797000D02*
X49588530Y-66797000D01*
X126075000Y-56050000D02*
X126075000Y-51750000D01*
X124464000Y-50139000D02*
X60518900Y-50139000D01*
X57335000Y-61132110D02*
X51924110Y-66543000D01*
X60518900Y-50139000D02*
X57335000Y-53322900D01*
X45530000Y-70496320D02*
X45530000Y-74711000D01*
X49483320Y-66543000D02*
X45530000Y-70496320D01*
X57335000Y-53322900D02*
X57335000Y-61132110D01*
X126075000Y-51750000D02*
X124464000Y-50139000D01*
X51924110Y-66543000D02*
X49483320Y-66543000D01*
X45530000Y-74711000D02*
X48444000Y-77625000D01*
X48444000Y-77625000D02*
X52125000Y-77625000D01*
X130285000Y-49885000D02*
X60413690Y-49885000D01*
X132075000Y-56050000D02*
X132075000Y-51675000D01*
X51818900Y-66289000D02*
X49378110Y-66289000D01*
X45276000Y-74816210D02*
X48584790Y-78125000D01*
X57081000Y-61026900D02*
X51818900Y-66289000D01*
X60413690Y-49885000D02*
X57081000Y-53217690D01*
X48584790Y-78125000D02*
X49225000Y-78125000D01*
X132075000Y-51675000D02*
X130285000Y-49885000D01*
X45276000Y-70391110D02*
X45276000Y-74816210D01*
X49378110Y-66289000D02*
X45276000Y-70391110D01*
X57081000Y-53217690D02*
X57081000Y-61026900D01*
X48444000Y-78625000D02*
X45022000Y-75203000D01*
X49272900Y-66035000D02*
X51713690Y-66035000D01*
X137900000Y-50325000D02*
X137900000Y-55875000D01*
X137900000Y-55875000D02*
X138075000Y-56050000D01*
X52125000Y-78625000D02*
X48444000Y-78625000D01*
X51713690Y-66035000D02*
X56827000Y-60921690D01*
X45022000Y-75203000D02*
X45022000Y-70285900D01*
X60308480Y-49631000D02*
X137206000Y-49631000D01*
X137206000Y-49631000D02*
X137900000Y-50325000D01*
X56827000Y-60921690D02*
X56827000Y-53112480D01*
X56827000Y-53112480D02*
X60308480Y-49631000D01*
X45022000Y-70285900D02*
X49272900Y-66035000D01*
X48584790Y-79125000D02*
X49225000Y-79125000D01*
X51608480Y-65781000D02*
X49167690Y-65781000D01*
X142452000Y-49377000D02*
X60203270Y-49377000D01*
X56573000Y-60816480D02*
X51608480Y-65781000D01*
X44768000Y-75308210D02*
X48584790Y-79125000D01*
X144075000Y-51000000D02*
X142452000Y-49377000D01*
X56573000Y-53007270D02*
X56573000Y-60816480D01*
X44768000Y-70180690D02*
X44768000Y-75308210D01*
X144075000Y-56050000D02*
X144075000Y-51000000D01*
X60203270Y-49377000D02*
X56573000Y-53007270D01*
X49167690Y-65781000D02*
X44768000Y-70180690D01*
X150050000Y-56025000D02*
X150075000Y-56050000D01*
X48444000Y-79625000D02*
X44514000Y-75695000D01*
X150050000Y-51000000D02*
X150050000Y-56025000D01*
X51503270Y-65527000D02*
X56319000Y-60711270D01*
X44514000Y-70075480D02*
X49062480Y-65527000D01*
X49062480Y-65527000D02*
X51503270Y-65527000D01*
X56319000Y-60711270D02*
X56319000Y-52902060D01*
X60098060Y-49123000D02*
X148173000Y-49123000D01*
X56319000Y-52902060D02*
X60098060Y-49123000D01*
X44514000Y-75695000D02*
X44514000Y-70075480D01*
X52125000Y-79625000D02*
X48444000Y-79625000D01*
X148173000Y-49123000D02*
X150050000Y-51000000D01*
X153819000Y-48869000D02*
X156075000Y-51125000D01*
X44260000Y-75887000D02*
X44260000Y-69970270D01*
X49225000Y-80125000D02*
X48498000Y-80125000D01*
X156075000Y-51125000D02*
X156075000Y-56050000D01*
X48957270Y-65273000D02*
X51398060Y-65273000D01*
X48498000Y-80125000D02*
X44260000Y-75887000D01*
X56065000Y-60606060D02*
X56065000Y-52796850D01*
X44260000Y-69970270D02*
X48957270Y-65273000D01*
X59992850Y-48869000D02*
X153819000Y-48869000D01*
X56065000Y-52796850D02*
X59992850Y-48869000D01*
X51398060Y-65273000D02*
X56065000Y-60606060D01*
X59275000Y-105250000D02*
X61925000Y-107900000D01*
X61925000Y-107900000D02*
X161475000Y-107900000D01*
X59275000Y-82850000D02*
X59275000Y-105250000D01*
X57050000Y-80625000D02*
X59275000Y-82850000D01*
X52125000Y-80625000D02*
X57050000Y-80625000D01*
X162050000Y-107325000D02*
X162050000Y-104000000D01*
X161475000Y-107900000D02*
X162050000Y-107325000D01*
X59021000Y-105355210D02*
X61819790Y-108154000D01*
X167975000Y-107725000D02*
X167975000Y-104075000D01*
X61819790Y-108154000D02*
X167546000Y-108154000D01*
X167975000Y-104075000D02*
X168050000Y-104000000D01*
X167546000Y-108154000D02*
X167975000Y-107725000D01*
X59021000Y-82955210D02*
X59021000Y-105355210D01*
X57190790Y-81125000D02*
X59021000Y-82955210D01*
X49225000Y-81125000D02*
X57190790Y-81125000D01*
X52125000Y-81625000D02*
X57331580Y-81625000D01*
X174125000Y-104075000D02*
X174050000Y-104000000D01*
X58767000Y-83060420D02*
X58767000Y-105460420D01*
X173217000Y-108408000D02*
X174125000Y-107500000D01*
X174125000Y-107500000D02*
X174125000Y-104075000D01*
X58767000Y-105460420D02*
X61714580Y-108408000D01*
X57331580Y-81625000D02*
X58767000Y-83060420D01*
X61714580Y-108408000D02*
X173217000Y-108408000D01*
X61609370Y-108662000D02*
X178288000Y-108662000D01*
X178288000Y-108662000D02*
X180050000Y-106900000D01*
X58513000Y-105565630D02*
X61609370Y-108662000D01*
X180050000Y-106900000D02*
X180050000Y-104000000D01*
X49225000Y-82125000D02*
X57472370Y-82125000D01*
X57472370Y-82125000D02*
X58513000Y-83165630D01*
X58513000Y-83165630D02*
X58513000Y-105565630D01*
X58259000Y-83270840D02*
X58259000Y-105670840D01*
X57613160Y-82625000D02*
X58259000Y-83270840D01*
X184934000Y-108916000D02*
X186050000Y-107800000D01*
X61504160Y-108916000D02*
X184934000Y-108916000D01*
X58259000Y-105670840D02*
X61504160Y-108916000D01*
X186050000Y-107800000D02*
X186050000Y-104000000D01*
X52125000Y-82625000D02*
X57613160Y-82625000D01*
X58005000Y-84655000D02*
X58005000Y-105776050D01*
X190705000Y-109170000D02*
X192125000Y-107750000D01*
X56475000Y-83125000D02*
X58005000Y-84655000D01*
X61398950Y-109170000D02*
X190705000Y-109170000D01*
X58005000Y-105776050D02*
X61398950Y-109170000D01*
X192125000Y-104075000D02*
X192050000Y-104000000D01*
X49225000Y-83125000D02*
X56475000Y-83125000D01*
X192125000Y-107750000D02*
X192125000Y-104075000D01*
X198012500Y-108037500D02*
X198012500Y-104037500D01*
X57751000Y-105881260D02*
X61293740Y-109424000D01*
X196626000Y-109424000D02*
X198012500Y-108037500D01*
X52125000Y-83625000D02*
X56615790Y-83625000D01*
X56615790Y-83625000D02*
X57751000Y-84760210D01*
X57751000Y-84760210D02*
X57751000Y-105881260D01*
X198012500Y-104037500D02*
X198050000Y-104000000D01*
X61293740Y-109424000D02*
X196626000Y-109424000D01*
X56756580Y-84125000D02*
X57497000Y-84865420D01*
X49225000Y-84125000D02*
X56756580Y-84125000D01*
X57497000Y-84865420D02*
X57497000Y-105986470D01*
X57497000Y-105986470D02*
X61188530Y-109678000D01*
X204075000Y-104025000D02*
X204050000Y-104000000D01*
X204075000Y-107675000D02*
X204075000Y-104025000D01*
X202072000Y-109678000D02*
X204075000Y-107675000D01*
X61188530Y-109678000D02*
X202072000Y-109678000D01*
X210075000Y-104025000D02*
X210050000Y-104000000D01*
X207843000Y-109932000D02*
X210075000Y-107700000D01*
X57243000Y-84970630D02*
X57243000Y-106091680D01*
X61083320Y-109932000D02*
X207843000Y-109932000D01*
X52125000Y-84625000D02*
X56897370Y-84625000D01*
X210075000Y-107700000D02*
X210075000Y-104025000D01*
X57243000Y-106091680D02*
X61083320Y-109932000D01*
X56897370Y-84625000D02*
X57243000Y-84970630D01*
X216075000Y-108000000D02*
X216075000Y-104025000D01*
X49225000Y-85125000D02*
X55975000Y-85125000D01*
X56989000Y-86139000D02*
X56989000Y-106196890D01*
X216075000Y-104025000D02*
X216050000Y-104000000D01*
X213889000Y-110186000D02*
X216075000Y-108000000D01*
X56989000Y-106196890D02*
X60978110Y-110186000D01*
X55975000Y-85125000D02*
X56989000Y-86139000D01*
X60978110Y-110186000D02*
X213889000Y-110186000D01*
X56735000Y-106302100D02*
X60872900Y-110440000D01*
X60872900Y-110440000D02*
X220185000Y-110440000D01*
X56115790Y-85625000D02*
X56735000Y-86244210D01*
X52125000Y-85625000D02*
X56115790Y-85625000D01*
X222100000Y-104050000D02*
X222050000Y-104000000D01*
X56735000Y-86244210D02*
X56735000Y-106302100D01*
X220185000Y-110440000D02*
X222100000Y-108525000D01*
X222100000Y-108525000D02*
X222100000Y-104050000D01*
X228050000Y-109475000D02*
X226831000Y-110694000D01*
X56481000Y-106407310D02*
X56481000Y-86349420D01*
X56256580Y-86125000D02*
X49225000Y-86125000D01*
X56481000Y-86349420D02*
X56256580Y-86125000D01*
X226831000Y-110694000D02*
X60767690Y-110694000D01*
X228050000Y-104000000D02*
X228050000Y-109475000D01*
X60767690Y-110694000D02*
X56481000Y-106407310D01*
X232177000Y-110948000D02*
X234050000Y-109075000D01*
X54700000Y-86625000D02*
X56227000Y-88152000D01*
X56227000Y-106512520D02*
X60662480Y-110948000D01*
X234050000Y-104000000D02*
X234050000Y-109075000D01*
X52125000Y-86625000D02*
X54700000Y-86625000D01*
X56227000Y-88152000D02*
X56227000Y-106512520D01*
X60662480Y-110948000D02*
X232177000Y-110948000D01*
X240050000Y-104000000D02*
X240050000Y-108725000D01*
X55973000Y-106617730D02*
X60557270Y-111202000D01*
X54840790Y-87125000D02*
X55973000Y-88257210D01*
X55973000Y-88257210D02*
X55973000Y-106617730D01*
X237673000Y-111202000D02*
X240100000Y-108775000D01*
X240050000Y-108725000D02*
X240100000Y-108775000D01*
X49225000Y-87125000D02*
X54840790Y-87125000D01*
X60557270Y-111202000D02*
X237673000Y-111202000D01*
X243344000Y-111456000D02*
X246062500Y-108737500D01*
X55719000Y-88362420D02*
X55719000Y-106722940D01*
X246050000Y-108725000D02*
X246062500Y-108737500D01*
X60452060Y-111456000D02*
X243344000Y-111456000D01*
X54981580Y-87625000D02*
X55719000Y-88362420D01*
X55719000Y-106722940D02*
X60452060Y-111456000D01*
X246050000Y-104000000D02*
X246050000Y-108725000D01*
X52125000Y-87625000D02*
X54981580Y-87625000D01*
X60346850Y-111710000D02*
X248940000Y-111710000D01*
X252025000Y-104025000D02*
X252050000Y-104000000D01*
X252025000Y-108625000D02*
X252025000Y-104025000D01*
X49225000Y-88125000D02*
X53600000Y-88125000D01*
X53600000Y-88125000D02*
X55465000Y-89990000D01*
X55465000Y-106828150D02*
X60346850Y-111710000D01*
X55465000Y-89990000D02*
X55465000Y-106828150D01*
X248940000Y-111710000D02*
X252025000Y-108625000D01*
M02*
