M48
; DRILL file {KiCad 6.0.8+dfsg-1~bpo11+1} date Fri 24 Mar 2023 06:54:55 PM EDT
; FORMAT={-:-/ absolute / metric / decimal}
; #@! TF.CreationDate,2023-03-24T18:54:55-04:00
; #@! TF.GenerationSoftware,Kicad,Pcbnew,6.0.8+dfsg-1~bpo11+1
; #@! TF.FileFunction,Plated,1,2,PTH
FMAT,2
METRIC
; #@! TA.AperFunction,Plated,PTH,ViaDrill
T1C0.200
%
G90
G05
T1
X63.1Y-56.65
X63.1Y-62.65
X63.1Y-68.65
X63.1Y-74.65
X63.1Y-80.65
X63.1Y-86.65
X63.1Y-92.65
X63.1Y-98.65
X66.075Y-56.05
X69.1Y-56.65
X69.1Y-62.65
X69.1Y-68.65
X69.1Y-74.65
X69.1Y-80.65
X69.1Y-86.65
X69.1Y-92.65
X69.1Y-98.65
X72.075Y-56.05
X75.1Y-56.65
X75.1Y-62.65
X75.1Y-68.65
X75.1Y-74.65
X75.1Y-80.65
X75.1Y-86.65
X75.1Y-92.65
X75.1Y-98.65
X78.075Y-56.05
X81.1Y-56.65
X81.1Y-62.65
X81.1Y-68.65
X81.1Y-74.65
X81.1Y-80.65
X81.1Y-86.65
X81.1Y-92.65
X81.1Y-98.65
X84.075Y-56.05
X87.1Y-56.65
X87.1Y-62.65
X87.1Y-68.65
X87.1Y-74.65
X87.1Y-80.65
X87.1Y-86.65
X87.1Y-92.65
X87.1Y-98.65
X90.075Y-56.05
X93.1Y-56.65
X93.1Y-62.65
X93.1Y-68.65
X93.1Y-74.65
X93.1Y-80.65
X93.1Y-86.65
X93.1Y-92.65
X93.1Y-98.65
X96.075Y-56.05
X99.1Y-56.65
X99.1Y-62.65
X99.1Y-68.65
X99.1Y-74.65
X99.1Y-80.65
X99.1Y-86.65
X99.1Y-92.65
X99.1Y-98.65
X102.075Y-56.05
X105.1Y-56.65
X105.1Y-62.65
X105.1Y-68.65
X105.1Y-74.65
X105.1Y-80.65
X105.1Y-86.65
X105.1Y-92.65
X105.1Y-98.65
X108.075Y-56.05
X111.1Y-56.65
X111.1Y-62.65
X111.1Y-68.65
X111.1Y-74.65
X111.1Y-80.65
X111.1Y-86.65
X111.1Y-92.65
X111.1Y-98.65
X114.075Y-56.05
X117.1Y-56.65
X117.1Y-62.65
X117.1Y-68.65
X117.1Y-74.65
X117.1Y-80.65
X117.1Y-86.65
X117.1Y-92.65
X117.1Y-98.65
X120.075Y-56.05
X123.1Y-56.65
X123.1Y-62.65
X123.1Y-68.65
X123.1Y-74.65
X123.1Y-80.65
X123.1Y-86.65
X123.1Y-92.65
X123.1Y-98.65
X126.075Y-56.05
X129.1Y-56.65
X129.1Y-62.65
X129.1Y-68.65
X129.1Y-74.65
X129.1Y-80.65
X129.1Y-86.65
X129.1Y-92.65
X129.1Y-98.65
X132.075Y-56.05
X135.1Y-56.65
X135.1Y-62.65
X135.1Y-68.65
X135.1Y-74.65
X135.1Y-80.65
X135.1Y-86.65
X135.1Y-92.65
X135.1Y-98.65
X138.075Y-56.05
X141.1Y-56.65
X141.1Y-62.65
X141.1Y-68.65
X141.1Y-74.65
X141.1Y-80.65
X141.1Y-86.65
X141.1Y-92.65
X141.1Y-98.65
X144.075Y-56.05
X147.1Y-56.65
X147.1Y-62.65
X147.1Y-68.65
X147.1Y-74.65
X147.1Y-80.65
X147.1Y-86.65
X147.1Y-92.65
X147.1Y-98.65
X150.075Y-56.05
X153.1Y-56.65
X153.1Y-62.65
X153.1Y-68.65
X153.1Y-74.65
X153.1Y-80.65
X153.1Y-86.65
X153.1Y-92.65
X153.1Y-98.65
X156.075Y-56.05
X159.1Y-56.65
X159.1Y-62.65
X159.1Y-68.65
X159.1Y-74.65
X159.1Y-80.65
X159.1Y-86.65
X159.1Y-92.65
X159.1Y-98.65
X162.05Y-104.0
X165.1Y-56.65
X165.1Y-62.65
X165.1Y-68.65
X165.1Y-74.65
X165.1Y-80.65
X165.1Y-86.65
X165.1Y-92.65
X165.1Y-98.65
X168.05Y-104.0
X171.1Y-56.65
X171.1Y-62.65
X171.1Y-68.65
X171.1Y-74.65
X171.1Y-80.65
X171.1Y-86.65
X171.1Y-92.65
X171.1Y-98.65
X174.05Y-104.0
X177.1Y-56.65
X177.1Y-62.65
X177.1Y-68.65
X177.1Y-74.65
X177.1Y-80.65
X177.1Y-86.65
X177.1Y-92.65
X177.1Y-98.65
X180.05Y-104.0
X183.1Y-56.65
X183.1Y-62.65
X183.1Y-68.65
X183.1Y-74.65
X183.1Y-80.65
X183.1Y-86.65
X183.1Y-92.65
X183.1Y-98.65
X186.05Y-104.0
X189.1Y-56.65
X189.1Y-62.65
X189.1Y-68.65
X189.1Y-74.65
X189.1Y-80.65
X189.1Y-86.65
X189.1Y-92.65
X189.1Y-98.65
X192.05Y-104.0
X195.1Y-56.65
X195.1Y-62.65
X195.1Y-68.65
X195.1Y-74.65
X195.1Y-80.65
X195.1Y-86.65
X195.1Y-92.65
X195.1Y-98.65
X198.05Y-104.0
X201.1Y-56.65
X201.1Y-62.65
X201.1Y-68.65
X201.1Y-74.65
X201.1Y-80.65
X201.1Y-86.65
X201.1Y-92.65
X201.1Y-98.65
X204.05Y-104.0
X207.1Y-56.65
X207.1Y-62.65
X207.1Y-68.65
X207.1Y-74.65
X207.1Y-80.65
X207.1Y-86.65
X207.1Y-92.65
X207.1Y-98.65
X210.05Y-104.0
X213.1Y-56.65
X213.1Y-62.65
X213.1Y-68.65
X213.1Y-74.65
X213.1Y-80.65
X213.1Y-86.65
X213.1Y-92.65
X213.1Y-98.65
X216.05Y-104.0
X219.1Y-56.65
X219.1Y-62.65
X219.1Y-68.65
X219.1Y-74.65
X219.1Y-80.65
X219.1Y-86.65
X219.1Y-92.65
X219.1Y-98.65
X222.05Y-104.0
X225.1Y-56.65
X225.1Y-62.65
X225.1Y-68.65
X225.1Y-74.65
X225.1Y-80.65
X225.1Y-86.65
X225.1Y-92.65
X225.1Y-98.65
X228.05Y-104.0
X231.1Y-56.65
X231.1Y-62.65
X231.1Y-68.65
X231.1Y-74.65
X231.1Y-80.65
X231.1Y-86.65
X231.1Y-92.65
X231.1Y-98.65
X234.05Y-104.0
X237.1Y-56.65
X237.1Y-62.65
X237.1Y-68.65
X237.1Y-74.65
X237.1Y-80.65
X237.1Y-86.65
X237.1Y-92.65
X237.1Y-98.65
X240.05Y-104.0
X243.1Y-56.65
X243.1Y-62.65
X243.1Y-68.65
X243.1Y-74.65
X243.1Y-80.65
X243.1Y-86.65
X243.1Y-92.65
X243.1Y-98.65
X246.05Y-104.0
X249.1Y-56.65
X249.1Y-62.65
X249.1Y-68.65
X249.1Y-74.65
X249.1Y-80.65
X249.1Y-86.65
X249.1Y-92.65
X249.1Y-98.65
X252.05Y-104.0
X255.05Y-56.65
X255.05Y-62.65
X255.05Y-68.65
X255.05Y-74.65
X255.05Y-80.65
X255.05Y-86.65
X255.05Y-92.65
X255.05Y-98.65
T0
M30
