%TF.GenerationSoftware,KiCad,Pcbnew,5.1.9+dfsg1-1*%
%TF.CreationDate,2021-12-01T17:00:21-05:00*%
%TF.ProjectId,samd10d13a,73616d64-3130-4643-9133-612e6b696361,rev?*%
%TF.SameCoordinates,Original*%
%TF.FileFunction,Copper,L1,Top*%
%TF.FilePolarity,Positive*%
%FSLAX46Y46*%
G04 Gerber Fmt 4.6, Leading zero omitted, Abs format (unit mm)*
G04 Created by KiCad (PCBNEW 5.1.9+dfsg1-1) date 2021-12-01 17:00:21*
%MOMM*%
%LPD*%
G01*
G04 APERTURE LIST*
%TA.AperFunction,ComponentPad*%
%ADD10O,1.800000X1.000000*%
%TD*%
%TA.AperFunction,ComponentPad*%
%ADD11O,2.100000X1.000000*%
%TD*%
%TA.AperFunction,SMDPad,CuDef*%
%ADD12R,1.150000X0.300000*%
%TD*%
%TA.AperFunction,SMDPad,CuDef*%
%ADD13R,1.150000X0.600000*%
%TD*%
%TA.AperFunction,ComponentPad*%
%ADD14O,1.000000X1.000000*%
%TD*%
%TA.AperFunction,ComponentPad*%
%ADD15R,1.000000X1.000000*%
%TD*%
%TA.AperFunction,ComponentPad*%
%ADD16O,1.700000X1.700000*%
%TD*%
%TA.AperFunction,ComponentPad*%
%ADD17R,1.700000X1.700000*%
%TD*%
%TA.AperFunction,SMDPad,CuDef*%
%ADD18R,0.650000X1.060000*%
%TD*%
%TA.AperFunction,SMDPad,CuDef*%
%ADD19R,1.600000X1.400000*%
%TD*%
%TA.AperFunction,ViaPad*%
%ADD20C,0.800000*%
%TD*%
%TA.AperFunction,Conductor*%
%ADD21C,0.250000*%
%TD*%
G04 APERTURE END LIST*
D10*
X75651500Y-62803500D03*
X75651500Y-54163500D03*
D11*
X79831500Y-54163500D03*
X79831500Y-62803500D03*
D12*
X80406500Y-60233500D03*
X80406500Y-59733500D03*
X80406500Y-59233500D03*
X80406500Y-58733500D03*
X80406500Y-58233500D03*
X80406500Y-57733500D03*
X80406500Y-57233500D03*
X80406500Y-56733500D03*
D13*
X80446500Y-61683500D03*
X80406500Y-60883500D03*
X80406500Y-56083500D03*
X80446500Y-55283500D03*
D14*
X126809500Y-61341000D03*
X125539500Y-61341000D03*
X126809500Y-60071000D03*
X125539500Y-60071000D03*
X126809500Y-58801000D03*
X125539500Y-58801000D03*
X126809500Y-57531000D03*
X125539500Y-57531000D03*
X126809500Y-56261000D03*
D15*
X125539500Y-56261000D03*
D16*
X116840000Y-48260000D03*
X114300000Y-48260000D03*
X111760000Y-48260000D03*
X109220000Y-48260000D03*
X106680000Y-48260000D03*
X104140000Y-48260000D03*
D17*
X101600000Y-48260000D03*
D16*
X119380000Y-68580000D03*
X116840000Y-68580000D03*
X114300000Y-68580000D03*
X111760000Y-68580000D03*
X109220000Y-68580000D03*
X106680000Y-68580000D03*
X104140000Y-68580000D03*
X101600000Y-68580000D03*
X99060000Y-68580000D03*
D17*
X96520000Y-68580000D03*
D18*
X89850000Y-57361000D03*
X87950000Y-57361000D03*
X87950000Y-55161000D03*
X88900000Y-55161000D03*
X89850000Y-55161000D03*
%TA.AperFunction,SMDPad,CuDef*%
G36*
G01*
X108227000Y-54922000D02*
X107927000Y-54922000D01*
G75*
G02*
X107777000Y-54772000I0J150000D01*
G01*
X107777000Y-53022000D01*
G75*
G02*
X107927000Y-52872000I150000J0D01*
G01*
X108227000Y-52872000D01*
G75*
G02*
X108377000Y-53022000I0J-150000D01*
G01*
X108377000Y-54772000D01*
G75*
G02*
X108227000Y-54922000I-150000J0D01*
G01*
G37*
%TD.AperFunction*%
%TA.AperFunction,SMDPad,CuDef*%
G36*
G01*
X109497000Y-54922000D02*
X109197000Y-54922000D01*
G75*
G02*
X109047000Y-54772000I0J150000D01*
G01*
X109047000Y-53022000D01*
G75*
G02*
X109197000Y-52872000I150000J0D01*
G01*
X109497000Y-52872000D01*
G75*
G02*
X109647000Y-53022000I0J-150000D01*
G01*
X109647000Y-54772000D01*
G75*
G02*
X109497000Y-54922000I-150000J0D01*
G01*
G37*
%TD.AperFunction*%
%TA.AperFunction,SMDPad,CuDef*%
G36*
G01*
X110767000Y-54922000D02*
X110467000Y-54922000D01*
G75*
G02*
X110317000Y-54772000I0J150000D01*
G01*
X110317000Y-53022000D01*
G75*
G02*
X110467000Y-52872000I150000J0D01*
G01*
X110767000Y-52872000D01*
G75*
G02*
X110917000Y-53022000I0J-150000D01*
G01*
X110917000Y-54772000D01*
G75*
G02*
X110767000Y-54922000I-150000J0D01*
G01*
G37*
%TD.AperFunction*%
%TA.AperFunction,SMDPad,CuDef*%
G36*
G01*
X112037000Y-54922000D02*
X111737000Y-54922000D01*
G75*
G02*
X111587000Y-54772000I0J150000D01*
G01*
X111587000Y-53022000D01*
G75*
G02*
X111737000Y-52872000I150000J0D01*
G01*
X112037000Y-52872000D01*
G75*
G02*
X112187000Y-53022000I0J-150000D01*
G01*
X112187000Y-54772000D01*
G75*
G02*
X112037000Y-54922000I-150000J0D01*
G01*
G37*
%TD.AperFunction*%
%TA.AperFunction,SMDPad,CuDef*%
G36*
G01*
X113307000Y-54922000D02*
X113007000Y-54922000D01*
G75*
G02*
X112857000Y-54772000I0J150000D01*
G01*
X112857000Y-53022000D01*
G75*
G02*
X113007000Y-52872000I150000J0D01*
G01*
X113307000Y-52872000D01*
G75*
G02*
X113457000Y-53022000I0J-150000D01*
G01*
X113457000Y-54772000D01*
G75*
G02*
X113307000Y-54922000I-150000J0D01*
G01*
G37*
%TD.AperFunction*%
%TA.AperFunction,SMDPad,CuDef*%
G36*
G01*
X114577000Y-54922000D02*
X114277000Y-54922000D01*
G75*
G02*
X114127000Y-54772000I0J150000D01*
G01*
X114127000Y-53022000D01*
G75*
G02*
X114277000Y-52872000I150000J0D01*
G01*
X114577000Y-52872000D01*
G75*
G02*
X114727000Y-53022000I0J-150000D01*
G01*
X114727000Y-54772000D01*
G75*
G02*
X114577000Y-54922000I-150000J0D01*
G01*
G37*
%TD.AperFunction*%
%TA.AperFunction,SMDPad,CuDef*%
G36*
G01*
X115847000Y-54922000D02*
X115547000Y-54922000D01*
G75*
G02*
X115397000Y-54772000I0J150000D01*
G01*
X115397000Y-53022000D01*
G75*
G02*
X115547000Y-52872000I150000J0D01*
G01*
X115847000Y-52872000D01*
G75*
G02*
X115997000Y-53022000I0J-150000D01*
G01*
X115997000Y-54772000D01*
G75*
G02*
X115847000Y-54922000I-150000J0D01*
G01*
G37*
%TD.AperFunction*%
%TA.AperFunction,SMDPad,CuDef*%
G36*
G01*
X117117000Y-54922000D02*
X116817000Y-54922000D01*
G75*
G02*
X116667000Y-54772000I0J150000D01*
G01*
X116667000Y-53022000D01*
G75*
G02*
X116817000Y-52872000I150000J0D01*
G01*
X117117000Y-52872000D01*
G75*
G02*
X117267000Y-53022000I0J-150000D01*
G01*
X117267000Y-54772000D01*
G75*
G02*
X117117000Y-54922000I-150000J0D01*
G01*
G37*
%TD.AperFunction*%
%TA.AperFunction,SMDPad,CuDef*%
G36*
G01*
X118387000Y-54922000D02*
X118087000Y-54922000D01*
G75*
G02*
X117937000Y-54772000I0J150000D01*
G01*
X117937000Y-53022000D01*
G75*
G02*
X118087000Y-52872000I150000J0D01*
G01*
X118387000Y-52872000D01*
G75*
G02*
X118537000Y-53022000I0J-150000D01*
G01*
X118537000Y-54772000D01*
G75*
G02*
X118387000Y-54922000I-150000J0D01*
G01*
G37*
%TD.AperFunction*%
%TA.AperFunction,SMDPad,CuDef*%
G36*
G01*
X119657000Y-54922000D02*
X119357000Y-54922000D01*
G75*
G02*
X119207000Y-54772000I0J150000D01*
G01*
X119207000Y-53022000D01*
G75*
G02*
X119357000Y-52872000I150000J0D01*
G01*
X119657000Y-52872000D01*
G75*
G02*
X119807000Y-53022000I0J-150000D01*
G01*
X119807000Y-54772000D01*
G75*
G02*
X119657000Y-54922000I-150000J0D01*
G01*
G37*
%TD.AperFunction*%
%TA.AperFunction,SMDPad,CuDef*%
G36*
G01*
X119657000Y-64222000D02*
X119357000Y-64222000D01*
G75*
G02*
X119207000Y-64072000I0J150000D01*
G01*
X119207000Y-62322000D01*
G75*
G02*
X119357000Y-62172000I150000J0D01*
G01*
X119657000Y-62172000D01*
G75*
G02*
X119807000Y-62322000I0J-150000D01*
G01*
X119807000Y-64072000D01*
G75*
G02*
X119657000Y-64222000I-150000J0D01*
G01*
G37*
%TD.AperFunction*%
%TA.AperFunction,SMDPad,CuDef*%
G36*
G01*
X118387000Y-64222000D02*
X118087000Y-64222000D01*
G75*
G02*
X117937000Y-64072000I0J150000D01*
G01*
X117937000Y-62322000D01*
G75*
G02*
X118087000Y-62172000I150000J0D01*
G01*
X118387000Y-62172000D01*
G75*
G02*
X118537000Y-62322000I0J-150000D01*
G01*
X118537000Y-64072000D01*
G75*
G02*
X118387000Y-64222000I-150000J0D01*
G01*
G37*
%TD.AperFunction*%
%TA.AperFunction,SMDPad,CuDef*%
G36*
G01*
X117117000Y-64222000D02*
X116817000Y-64222000D01*
G75*
G02*
X116667000Y-64072000I0J150000D01*
G01*
X116667000Y-62322000D01*
G75*
G02*
X116817000Y-62172000I150000J0D01*
G01*
X117117000Y-62172000D01*
G75*
G02*
X117267000Y-62322000I0J-150000D01*
G01*
X117267000Y-64072000D01*
G75*
G02*
X117117000Y-64222000I-150000J0D01*
G01*
G37*
%TD.AperFunction*%
%TA.AperFunction,SMDPad,CuDef*%
G36*
G01*
X115847000Y-64222000D02*
X115547000Y-64222000D01*
G75*
G02*
X115397000Y-64072000I0J150000D01*
G01*
X115397000Y-62322000D01*
G75*
G02*
X115547000Y-62172000I150000J0D01*
G01*
X115847000Y-62172000D01*
G75*
G02*
X115997000Y-62322000I0J-150000D01*
G01*
X115997000Y-64072000D01*
G75*
G02*
X115847000Y-64222000I-150000J0D01*
G01*
G37*
%TD.AperFunction*%
%TA.AperFunction,SMDPad,CuDef*%
G36*
G01*
X114577000Y-64222000D02*
X114277000Y-64222000D01*
G75*
G02*
X114127000Y-64072000I0J150000D01*
G01*
X114127000Y-62322000D01*
G75*
G02*
X114277000Y-62172000I150000J0D01*
G01*
X114577000Y-62172000D01*
G75*
G02*
X114727000Y-62322000I0J-150000D01*
G01*
X114727000Y-64072000D01*
G75*
G02*
X114577000Y-64222000I-150000J0D01*
G01*
G37*
%TD.AperFunction*%
%TA.AperFunction,SMDPad,CuDef*%
G36*
G01*
X113307000Y-64222000D02*
X113007000Y-64222000D01*
G75*
G02*
X112857000Y-64072000I0J150000D01*
G01*
X112857000Y-62322000D01*
G75*
G02*
X113007000Y-62172000I150000J0D01*
G01*
X113307000Y-62172000D01*
G75*
G02*
X113457000Y-62322000I0J-150000D01*
G01*
X113457000Y-64072000D01*
G75*
G02*
X113307000Y-64222000I-150000J0D01*
G01*
G37*
%TD.AperFunction*%
%TA.AperFunction,SMDPad,CuDef*%
G36*
G01*
X112037000Y-64222000D02*
X111737000Y-64222000D01*
G75*
G02*
X111587000Y-64072000I0J150000D01*
G01*
X111587000Y-62322000D01*
G75*
G02*
X111737000Y-62172000I150000J0D01*
G01*
X112037000Y-62172000D01*
G75*
G02*
X112187000Y-62322000I0J-150000D01*
G01*
X112187000Y-64072000D01*
G75*
G02*
X112037000Y-64222000I-150000J0D01*
G01*
G37*
%TD.AperFunction*%
%TA.AperFunction,SMDPad,CuDef*%
G36*
G01*
X110767000Y-64222000D02*
X110467000Y-64222000D01*
G75*
G02*
X110317000Y-64072000I0J150000D01*
G01*
X110317000Y-62322000D01*
G75*
G02*
X110467000Y-62172000I150000J0D01*
G01*
X110767000Y-62172000D01*
G75*
G02*
X110917000Y-62322000I0J-150000D01*
G01*
X110917000Y-64072000D01*
G75*
G02*
X110767000Y-64222000I-150000J0D01*
G01*
G37*
%TD.AperFunction*%
%TA.AperFunction,SMDPad,CuDef*%
G36*
G01*
X109497000Y-64222000D02*
X109197000Y-64222000D01*
G75*
G02*
X109047000Y-64072000I0J150000D01*
G01*
X109047000Y-62322000D01*
G75*
G02*
X109197000Y-62172000I150000J0D01*
G01*
X109497000Y-62172000D01*
G75*
G02*
X109647000Y-62322000I0J-150000D01*
G01*
X109647000Y-64072000D01*
G75*
G02*
X109497000Y-64222000I-150000J0D01*
G01*
G37*
%TD.AperFunction*%
%TA.AperFunction,SMDPad,CuDef*%
G36*
G01*
X108227000Y-64222000D02*
X107927000Y-64222000D01*
G75*
G02*
X107777000Y-64072000I0J150000D01*
G01*
X107777000Y-62322000D01*
G75*
G02*
X107927000Y-62172000I150000J0D01*
G01*
X108227000Y-62172000D01*
G75*
G02*
X108377000Y-62322000I0J-150000D01*
G01*
X108377000Y-64072000D01*
G75*
G02*
X108227000Y-64222000I-150000J0D01*
G01*
G37*
%TD.AperFunction*%
D19*
X94357000Y-60045500D03*
X101557000Y-60045500D03*
X94357000Y-63045500D03*
X101557000Y-63045500D03*
%TA.AperFunction,SMDPad,CuDef*%
G36*
G01*
X96694500Y-56763500D02*
X96694500Y-56393500D01*
G75*
G02*
X96829500Y-56258500I135000J0D01*
G01*
X97099500Y-56258500D01*
G75*
G02*
X97234500Y-56393500I0J-135000D01*
G01*
X97234500Y-56763500D01*
G75*
G02*
X97099500Y-56898500I-135000J0D01*
G01*
X96829500Y-56898500D01*
G75*
G02*
X96694500Y-56763500I0J135000D01*
G01*
G37*
%TD.AperFunction*%
%TA.AperFunction,SMDPad,CuDef*%
G36*
G01*
X95674500Y-56763500D02*
X95674500Y-56393500D01*
G75*
G02*
X95809500Y-56258500I135000J0D01*
G01*
X96079500Y-56258500D01*
G75*
G02*
X96214500Y-56393500I0J-135000D01*
G01*
X96214500Y-56763500D01*
G75*
G02*
X96079500Y-56898500I-135000J0D01*
G01*
X95809500Y-56898500D01*
G75*
G02*
X95674500Y-56763500I0J135000D01*
G01*
G37*
%TD.AperFunction*%
%TA.AperFunction,SMDPad,CuDef*%
G36*
G01*
X86545000Y-52336000D02*
X86175000Y-52336000D01*
G75*
G02*
X86040000Y-52201000I0J135000D01*
G01*
X86040000Y-51931000D01*
G75*
G02*
X86175000Y-51796000I135000J0D01*
G01*
X86545000Y-51796000D01*
G75*
G02*
X86680000Y-51931000I0J-135000D01*
G01*
X86680000Y-52201000D01*
G75*
G02*
X86545000Y-52336000I-135000J0D01*
G01*
G37*
%TD.AperFunction*%
%TA.AperFunction,SMDPad,CuDef*%
G36*
G01*
X86545000Y-53356000D02*
X86175000Y-53356000D01*
G75*
G02*
X86040000Y-53221000I0J135000D01*
G01*
X86040000Y-52951000D01*
G75*
G02*
X86175000Y-52816000I135000J0D01*
G01*
X86545000Y-52816000D01*
G75*
G02*
X86680000Y-52951000I0J-135000D01*
G01*
X86680000Y-53221000D01*
G75*
G02*
X86545000Y-53356000I-135000J0D01*
G01*
G37*
%TD.AperFunction*%
%TA.AperFunction,SMDPad,CuDef*%
G36*
G01*
X89420000Y-62426000D02*
X89420000Y-62796000D01*
G75*
G02*
X89285000Y-62931000I-135000J0D01*
G01*
X89015000Y-62931000D01*
G75*
G02*
X88880000Y-62796000I0J135000D01*
G01*
X88880000Y-62426000D01*
G75*
G02*
X89015000Y-62291000I135000J0D01*
G01*
X89285000Y-62291000D01*
G75*
G02*
X89420000Y-62426000I0J-135000D01*
G01*
G37*
%TD.AperFunction*%
%TA.AperFunction,SMDPad,CuDef*%
G36*
G01*
X90440000Y-62426000D02*
X90440000Y-62796000D01*
G75*
G02*
X90305000Y-62931000I-135000J0D01*
G01*
X90035000Y-62931000D01*
G75*
G02*
X89900000Y-62796000I0J135000D01*
G01*
X89900000Y-62426000D01*
G75*
G02*
X90035000Y-62291000I135000J0D01*
G01*
X90305000Y-62291000D01*
G75*
G02*
X90440000Y-62426000I0J-135000D01*
G01*
G37*
%TD.AperFunction*%
%TA.AperFunction,SMDPad,CuDef*%
G36*
G01*
X86557500Y-62867250D02*
X86557500Y-62354750D01*
G75*
G02*
X86776250Y-62136000I218750J0D01*
G01*
X87213750Y-62136000D01*
G75*
G02*
X87432500Y-62354750I0J-218750D01*
G01*
X87432500Y-62867250D01*
G75*
G02*
X87213750Y-63086000I-218750J0D01*
G01*
X86776250Y-63086000D01*
G75*
G02*
X86557500Y-62867250I0J218750D01*
G01*
G37*
%TD.AperFunction*%
%TA.AperFunction,SMDPad,CuDef*%
G36*
G01*
X84982500Y-62867250D02*
X84982500Y-62354750D01*
G75*
G02*
X85201250Y-62136000I218750J0D01*
G01*
X85638750Y-62136000D01*
G75*
G02*
X85857500Y-62354750I0J-218750D01*
G01*
X85857500Y-62867250D01*
G75*
G02*
X85638750Y-63086000I-218750J0D01*
G01*
X85201250Y-63086000D01*
G75*
G02*
X84982500Y-62867250I0J218750D01*
G01*
G37*
%TD.AperFunction*%
%TA.AperFunction,SMDPad,CuDef*%
G36*
G01*
X99865000Y-52025000D02*
X99525000Y-52025000D01*
G75*
G02*
X99385000Y-51885000I0J140000D01*
G01*
X99385000Y-51605000D01*
G75*
G02*
X99525000Y-51465000I140000J0D01*
G01*
X99865000Y-51465000D01*
G75*
G02*
X100005000Y-51605000I0J-140000D01*
G01*
X100005000Y-51885000D01*
G75*
G02*
X99865000Y-52025000I-140000J0D01*
G01*
G37*
%TD.AperFunction*%
%TA.AperFunction,SMDPad,CuDef*%
G36*
G01*
X99865000Y-52985000D02*
X99525000Y-52985000D01*
G75*
G02*
X99385000Y-52845000I0J140000D01*
G01*
X99385000Y-52565000D01*
G75*
G02*
X99525000Y-52425000I140000J0D01*
G01*
X99865000Y-52425000D01*
G75*
G02*
X100005000Y-52565000I0J-140000D01*
G01*
X100005000Y-52845000D01*
G75*
G02*
X99865000Y-52985000I-140000J0D01*
G01*
G37*
%TD.AperFunction*%
%TA.AperFunction,SMDPad,CuDef*%
G36*
G01*
X97960000Y-52025000D02*
X97620000Y-52025000D01*
G75*
G02*
X97480000Y-51885000I0J140000D01*
G01*
X97480000Y-51605000D01*
G75*
G02*
X97620000Y-51465000I140000J0D01*
G01*
X97960000Y-51465000D01*
G75*
G02*
X98100000Y-51605000I0J-140000D01*
G01*
X98100000Y-51885000D01*
G75*
G02*
X97960000Y-52025000I-140000J0D01*
G01*
G37*
%TD.AperFunction*%
%TA.AperFunction,SMDPad,CuDef*%
G36*
G01*
X97960000Y-52985000D02*
X97620000Y-52985000D01*
G75*
G02*
X97480000Y-52845000I0J140000D01*
G01*
X97480000Y-52565000D01*
G75*
G02*
X97620000Y-52425000I140000J0D01*
G01*
X97960000Y-52425000D01*
G75*
G02*
X98100000Y-52565000I0J-140000D01*
G01*
X98100000Y-52845000D01*
G75*
G02*
X97960000Y-52985000I-140000J0D01*
G01*
G37*
%TD.AperFunction*%
%TA.AperFunction,SMDPad,CuDef*%
G36*
G01*
X96055000Y-52025000D02*
X95715000Y-52025000D01*
G75*
G02*
X95575000Y-51885000I0J140000D01*
G01*
X95575000Y-51605000D01*
G75*
G02*
X95715000Y-51465000I140000J0D01*
G01*
X96055000Y-51465000D01*
G75*
G02*
X96195000Y-51605000I0J-140000D01*
G01*
X96195000Y-51885000D01*
G75*
G02*
X96055000Y-52025000I-140000J0D01*
G01*
G37*
%TD.AperFunction*%
%TA.AperFunction,SMDPad,CuDef*%
G36*
G01*
X96055000Y-52985000D02*
X95715000Y-52985000D01*
G75*
G02*
X95575000Y-52845000I0J140000D01*
G01*
X95575000Y-52565000D01*
G75*
G02*
X95715000Y-52425000I140000J0D01*
G01*
X96055000Y-52425000D01*
G75*
G02*
X96195000Y-52565000I0J-140000D01*
G01*
X96195000Y-52845000D01*
G75*
G02*
X96055000Y-52985000I-140000J0D01*
G01*
G37*
%TD.AperFunction*%
%TA.AperFunction,SMDPad,CuDef*%
G36*
G01*
X99986500Y-56748500D02*
X99986500Y-56408500D01*
G75*
G02*
X100126500Y-56268500I140000J0D01*
G01*
X100406500Y-56268500D01*
G75*
G02*
X100546500Y-56408500I0J-140000D01*
G01*
X100546500Y-56748500D01*
G75*
G02*
X100406500Y-56888500I-140000J0D01*
G01*
X100126500Y-56888500D01*
G75*
G02*
X99986500Y-56748500I0J140000D01*
G01*
G37*
%TD.AperFunction*%
%TA.AperFunction,SMDPad,CuDef*%
G36*
G01*
X99026500Y-56748500D02*
X99026500Y-56408500D01*
G75*
G02*
X99166500Y-56268500I140000J0D01*
G01*
X99446500Y-56268500D01*
G75*
G02*
X99586500Y-56408500I0J-140000D01*
G01*
X99586500Y-56748500D01*
G75*
G02*
X99446500Y-56888500I-140000J0D01*
G01*
X99166500Y-56888500D01*
G75*
G02*
X99026500Y-56748500I0J140000D01*
G01*
G37*
%TD.AperFunction*%
%TA.AperFunction,SMDPad,CuDef*%
G36*
G01*
X89180000Y-59901000D02*
X89180000Y-60241000D01*
G75*
G02*
X89040000Y-60381000I-140000J0D01*
G01*
X88760000Y-60381000D01*
G75*
G02*
X88620000Y-60241000I0J140000D01*
G01*
X88620000Y-59901000D01*
G75*
G02*
X88760000Y-59761000I140000J0D01*
G01*
X89040000Y-59761000D01*
G75*
G02*
X89180000Y-59901000I0J-140000D01*
G01*
G37*
%TD.AperFunction*%
%TA.AperFunction,SMDPad,CuDef*%
G36*
G01*
X90140000Y-59901000D02*
X90140000Y-60241000D01*
G75*
G02*
X90000000Y-60381000I-140000J0D01*
G01*
X89720000Y-60381000D01*
G75*
G02*
X89580000Y-60241000I0J140000D01*
G01*
X89580000Y-59901000D01*
G75*
G02*
X89720000Y-59761000I140000J0D01*
G01*
X90000000Y-59761000D01*
G75*
G02*
X90140000Y-59901000I0J-140000D01*
G01*
G37*
%TD.AperFunction*%
%TA.AperFunction,SMDPad,CuDef*%
G36*
G01*
X89490000Y-52281000D02*
X89490000Y-52621000D01*
G75*
G02*
X89350000Y-52761000I-140000J0D01*
G01*
X89070000Y-52761000D01*
G75*
G02*
X88930000Y-52621000I0J140000D01*
G01*
X88930000Y-52281000D01*
G75*
G02*
X89070000Y-52141000I140000J0D01*
G01*
X89350000Y-52141000D01*
G75*
G02*
X89490000Y-52281000I0J-140000D01*
G01*
G37*
%TD.AperFunction*%
%TA.AperFunction,SMDPad,CuDef*%
G36*
G01*
X90450000Y-52281000D02*
X90450000Y-52621000D01*
G75*
G02*
X90310000Y-52761000I-140000J0D01*
G01*
X90030000Y-52761000D01*
G75*
G02*
X89890000Y-52621000I0J140000D01*
G01*
X89890000Y-52281000D01*
G75*
G02*
X90030000Y-52141000I140000J0D01*
G01*
X90310000Y-52141000D01*
G75*
G02*
X90450000Y-52281000I0J-140000D01*
G01*
G37*
%TD.AperFunction*%
D20*
X123063000Y-58801000D03*
X112522000Y-51117500D03*
D21*
X75651500Y-54163500D02*
X79831500Y-54163500D01*
X79831500Y-54708500D02*
X80406500Y-55283500D01*
X79831500Y-54163500D02*
X79831500Y-54708500D01*
X75651500Y-62803500D02*
X79831500Y-62803500D01*
X79831500Y-62258500D02*
X80406500Y-61683500D01*
X79831500Y-62803500D02*
X79831500Y-62258500D01*
X84492500Y-61683500D02*
X85420000Y-62611000D01*
X80406500Y-61683500D02*
X84492500Y-61683500D01*
X87960000Y-60071000D02*
X88900000Y-60071000D01*
X85420000Y-62611000D02*
X87960000Y-60071000D01*
X88900000Y-60071000D02*
X88900000Y-55161000D01*
X88900000Y-52761000D02*
X89210000Y-52451000D01*
X88900000Y-55161000D02*
X88900000Y-52761000D01*
X75651500Y-62803500D02*
X75651500Y-54163500D01*
X95877374Y-51745000D02*
X95885000Y-51745000D01*
X91606373Y-56016001D02*
X95877374Y-51745000D01*
X88975001Y-56016001D02*
X91606373Y-56016001D01*
X88900000Y-55941000D02*
X88975001Y-56016001D01*
X88900000Y-55161000D02*
X88900000Y-55941000D01*
X95885000Y-51745000D02*
X97790000Y-51745000D01*
X97790000Y-51745000D02*
X99695000Y-51745000D01*
X99695000Y-50165000D02*
X101600000Y-48260000D01*
X99695000Y-51745000D02*
X99695000Y-50165000D01*
X100266500Y-56578500D02*
X100266500Y-58755000D01*
X100266500Y-58755000D02*
X101557000Y-60045500D01*
X125539500Y-57531000D02*
X125539500Y-58801000D01*
X125539500Y-58801000D02*
X123063000Y-58801000D01*
X113157000Y-51752500D02*
X112522000Y-51117500D01*
X113157000Y-53897000D02*
X113157000Y-51752500D01*
X101557000Y-60045500D02*
X94357000Y-60045500D01*
X90991490Y-63411010D02*
X94357000Y-60045500D01*
X80406500Y-61683500D02*
X82134010Y-63411010D01*
X85420000Y-63398020D02*
X85432990Y-63411010D01*
X85420000Y-62611000D02*
X85420000Y-63398020D01*
X85432990Y-63411010D02*
X90991490Y-63411010D01*
X82134010Y-63411010D02*
X85432990Y-63411010D01*
X79596498Y-57233500D02*
X78803500Y-58026498D01*
X80406500Y-57233500D02*
X79596498Y-57233500D01*
X79596498Y-59733500D02*
X80406500Y-59733500D01*
X78803500Y-58940502D02*
X79596498Y-59733500D01*
X78803500Y-58026498D02*
X78803500Y-58940502D01*
X86360000Y-52105000D02*
X86360000Y-52066000D01*
X81231500Y-57233500D02*
X86360000Y-52105000D01*
X80406500Y-57233500D02*
X81231500Y-57233500D01*
X90170000Y-52141000D02*
X90170000Y-52451000D01*
X89844990Y-51815990D02*
X90170000Y-52141000D01*
X88877384Y-51815990D02*
X89844990Y-51815990D01*
X88627374Y-52066000D02*
X88877384Y-51815990D01*
X86360000Y-52066000D02*
X88627374Y-52066000D01*
X89850000Y-52771000D02*
X90170000Y-52451000D01*
X89850000Y-55161000D02*
X89850000Y-52771000D01*
X90170000Y-60381000D02*
X89860000Y-60071000D01*
X90170000Y-62611000D02*
X90170000Y-60381000D01*
X89860000Y-57371000D02*
X89850000Y-57361000D01*
X89860000Y-60071000D02*
X89860000Y-57371000D01*
X95885000Y-52705000D02*
X97790000Y-52705000D01*
X97790000Y-52705000D02*
X99695000Y-52705000D01*
X111887000Y-54323768D02*
X111887000Y-53897000D01*
X110963758Y-55247010D02*
X111887000Y-54323768D01*
X107730242Y-55247010D02*
X110963758Y-55247010D01*
X104140000Y-51656768D02*
X107730242Y-55247010D01*
X104140000Y-48260000D02*
X104140000Y-51656768D01*
X95944500Y-52764500D02*
X95885000Y-52705000D01*
X95944500Y-56578500D02*
X95944500Y-52764500D01*
X89850000Y-57361000D02*
X95162000Y-57361000D01*
X95162000Y-57361000D02*
X95944500Y-56578500D01*
X104140000Y-48570000D02*
X104140000Y-48260000D01*
X100005000Y-52705000D02*
X104140000Y-48570000D01*
X99695000Y-52705000D02*
X100005000Y-52705000D01*
X124644990Y-57155510D02*
X125539500Y-56261000D01*
X114120510Y-57155510D02*
X124644990Y-57155510D01*
X111887000Y-54922000D02*
X114120510Y-57155510D01*
X111887000Y-53897000D02*
X111887000Y-54922000D01*
X96964500Y-56578500D02*
X99306500Y-56578500D01*
X94357000Y-63045500D02*
X101557000Y-63045500D01*
X126425426Y-53897000D02*
X119507000Y-53897000D01*
X128084510Y-55556084D02*
X126425426Y-53897000D01*
X128084511Y-60065989D02*
X128084510Y-55556084D01*
X126809500Y-61341000D02*
X128084511Y-60065989D01*
X125984499Y-62166001D02*
X121665501Y-62166001D01*
X126809500Y-61341000D02*
X125984499Y-62166001D01*
X121665501Y-62166001D02*
X120205500Y-60706000D01*
X103896500Y-60706000D02*
X101557000Y-63045500D01*
X120205500Y-60706000D02*
X103896500Y-60706000D01*
X99306500Y-56268500D02*
X99306500Y-56578500D01*
X99631510Y-55943490D02*
X99306500Y-56268500D01*
X100599116Y-55943490D02*
X99631510Y-55943490D01*
X103896500Y-59240874D02*
X100599116Y-55943490D01*
X103896500Y-60706000D02*
X103896500Y-59240874D01*
X86995000Y-62611000D02*
X89150000Y-62611000D01*
X106680000Y-68580000D02*
X108648500Y-66611500D01*
X113157000Y-64222000D02*
X113157000Y-63197000D01*
X110767500Y-66611500D02*
X113157000Y-64222000D01*
X108648500Y-66611500D02*
X110767500Y-66611500D01*
X111887000Y-63628410D02*
X111887000Y-63197000D01*
X108669970Y-65447030D02*
X110068381Y-65447029D01*
X107118990Y-66998010D02*
X108669970Y-65447030D01*
X105721990Y-66998010D02*
X107118990Y-66998010D01*
X110068381Y-65447029D02*
X111887000Y-63628410D01*
X104140000Y-68580000D02*
X105721990Y-66998010D01*
X101600000Y-68580000D02*
X103632000Y-66548000D01*
X103632000Y-66548000D02*
X106680000Y-66548000D01*
X108230980Y-64997020D02*
X109881980Y-64997020D01*
X106680000Y-66548000D02*
X108230980Y-64997020D01*
X110617000Y-64262000D02*
X110617000Y-63197000D01*
X109881980Y-64997020D02*
X110617000Y-64262000D01*
X99060000Y-68580000D02*
X101663500Y-65976500D01*
X109021990Y-64547010D02*
X109347000Y-64222000D01*
X107536580Y-64547010D02*
X109021990Y-64547010D01*
X106107090Y-65976500D02*
X107536580Y-64547010D01*
X109347000Y-64222000D02*
X109347000Y-63197000D01*
X101663500Y-65976500D02*
X106107090Y-65976500D01*
X105811010Y-65462990D02*
X108077000Y-63197000D01*
X99637010Y-65462990D02*
X105811010Y-65462990D01*
X96520000Y-68580000D02*
X99637010Y-65462990D01*
X106680000Y-52500000D02*
X108077000Y-53897000D01*
X106680000Y-48260000D02*
X106680000Y-52500000D01*
X109220000Y-53770000D02*
X109347000Y-53897000D01*
X109220000Y-48260000D02*
X109220000Y-53770000D01*
X110617000Y-49403000D02*
X110617000Y-53897000D01*
X111760000Y-48260000D02*
X110617000Y-49403000D01*
X114300000Y-53770000D02*
X114427000Y-53897000D01*
X114300000Y-48260000D02*
X114300000Y-53770000D01*
X115697000Y-49403000D02*
X116840000Y-48260000D01*
X115697000Y-53897000D02*
X115697000Y-49403000D01*
X119380000Y-63324000D02*
X119507000Y-63197000D01*
X119380000Y-68580000D02*
X119380000Y-63324000D01*
X118237000Y-67183000D02*
X118237000Y-63197000D01*
X116840000Y-68580000D02*
X118237000Y-67183000D01*
X116967000Y-65913000D02*
X116967000Y-63197000D01*
X114300000Y-68580000D02*
X116967000Y-65913000D01*
X115697000Y-64643000D02*
X115697000Y-63197000D01*
X111760000Y-68580000D02*
X115697000Y-64643000D01*
X110069000Y-68580000D02*
X114427000Y-64222000D01*
X114427000Y-64222000D02*
X114427000Y-63197000D01*
X109220000Y-68580000D02*
X110069000Y-68580000D01*
X123696590Y-56007000D02*
X119322000Y-56007000D01*
X124717600Y-54985990D02*
X123696590Y-56007000D01*
X126878006Y-54985990D02*
X124717600Y-54985990D01*
X118237000Y-54922000D02*
X118237000Y-53897000D01*
X127634501Y-55742485D02*
X126878006Y-54985990D01*
X119322000Y-56007000D02*
X118237000Y-54922000D01*
X127634501Y-56705999D02*
X127634501Y-55742485D01*
X126809500Y-57531000D02*
X127634501Y-56705999D01*
X126691605Y-55435999D02*
X124904001Y-55435999D01*
X126809500Y-55553894D02*
X126691605Y-55435999D01*
X126809500Y-56261000D02*
X126809500Y-55553894D01*
X124904001Y-55435999D02*
X123634500Y-56705500D01*
X116967000Y-54922000D02*
X116967000Y-53897000D01*
X118750500Y-56705500D02*
X116967000Y-54922000D01*
X123634500Y-56705500D02*
X118750500Y-56705500D01*
X87950000Y-54676000D02*
X86360000Y-53086000D01*
X87950000Y-55161000D02*
X87950000Y-54676000D01*
M02*
