%FSLAX45Y45*%
G04 Gerber Fmt 4.5, Leading zero omitted, Abs format (unit mm)*
G04 Created by KiCad (PCBNEW 5.1.9+dfsg1-1) date 2022-01-10 13:17:45*
%MOMM*%
%LPD*%
G01*
G04 APERTURE LIST*
%TA.AperFunction,Profile*%
%ADD10C,0.100000*%
%TD*%
%ADD11C,0.200000*%
%ADD12C,0.300000*%
G04 APERTURE END LIST*
D10*
X12890500Y-4635500D02*
X12890500Y-7048500D01*
X7429500Y-4635500D02*
X12890500Y-4635500D01*
X7429500Y-7048500D02*
X7429500Y-4635500D01*
X12890500Y-7048500D02*
X7429500Y-7048500D01*
D11*
X11232200Y-5091750D02*
X11272200Y-5131750D01*
X11272200Y-5091750D02*
X11232200Y-5131750D01*
X12286300Y-5860100D02*
X12326300Y-5900100D01*
X12326300Y-5860100D02*
X12286300Y-5900100D01*
X7595150Y-5416350D02*
G75*
G03*
X7595150Y-5416350I-30000J0D01*
G01*
X7605150Y-5396350D02*
X7525150Y-5396350D01*
X7605150Y-5436350D02*
X7525150Y-5436350D01*
X7525150Y-5396350D02*
G75*
G03*
X7525150Y-5436350I0J-20000D01*
G01*
X7605150Y-5436350D02*
G75*
G03*
X7605150Y-5396350I0J20000D01*
G01*
X7595150Y-6280350D02*
G75*
G03*
X7595150Y-6280350I-30000J0D01*
G01*
X7605150Y-6260350D02*
X7525150Y-6260350D01*
X7605150Y-6300350D02*
X7525150Y-6300350D01*
X7525150Y-6260350D02*
G75*
G03*
X7525150Y-6300350I0J-20000D01*
G01*
X7605150Y-6300350D02*
G75*
G03*
X7605150Y-6260350I0J20000D01*
G01*
X8013150Y-5416350D02*
G75*
G03*
X8013150Y-5416350I-30000J0D01*
G01*
X8038150Y-5396350D02*
X7928150Y-5396350D01*
X8038150Y-5436350D02*
X7928150Y-5436350D01*
X7928150Y-5396350D02*
G75*
G03*
X7928150Y-5436350I0J-20000D01*
G01*
X8038150Y-5436350D02*
G75*
G03*
X8038150Y-5396350I0J20000D01*
G01*
X8013150Y-6280350D02*
G75*
G03*
X8013150Y-6280350I-30000J0D01*
G01*
X8038150Y-6260350D02*
X7928150Y-6260350D01*
X8038150Y-6300350D02*
X7928150Y-6300350D01*
X7928150Y-6260350D02*
G75*
G03*
X7928150Y-6300350I0J-20000D01*
G01*
X8038150Y-6300350D02*
G75*
G03*
X8038150Y-6260350I0J20000D01*
G01*
X12553950Y-5593600D02*
X12553950Y-5658600D01*
X12521450Y-5626100D02*
X12586450Y-5626100D01*
X12553950Y-5720600D02*
X12553950Y-5785600D01*
X12521450Y-5753100D02*
X12586450Y-5753100D01*
X12553950Y-5847600D02*
X12553950Y-5912600D01*
X12521450Y-5880100D02*
X12586450Y-5880100D01*
X12553950Y-5974600D02*
X12553950Y-6039600D01*
X12521450Y-6007100D02*
X12586450Y-6007100D01*
X12553950Y-6101600D02*
X12553950Y-6166600D01*
X12521450Y-6134100D02*
X12586450Y-6134100D01*
X12680950Y-5593600D02*
X12680950Y-5658600D01*
X12648450Y-5626100D02*
X12713450Y-5626100D01*
X12680950Y-5720600D02*
X12680950Y-5785600D01*
X12648450Y-5753100D02*
X12713450Y-5753100D01*
X12680950Y-5847600D02*
X12680950Y-5912600D01*
X12648450Y-5880100D02*
X12713450Y-5880100D01*
X12680950Y-5974600D02*
X12680950Y-6039600D01*
X12648450Y-6007100D02*
X12713450Y-6007100D01*
X12680950Y-6101600D02*
X12680950Y-6166600D01*
X12648450Y-6134100D02*
X12713450Y-6134100D01*
X9687356Y-6893356D02*
X9687356Y-6822644D01*
X9616644Y-6822644D01*
X9616644Y-6893356D01*
X9687356Y-6893356D01*
X9941356Y-6893356D02*
X9941356Y-6822644D01*
X9870644Y-6822644D01*
X9870644Y-6893356D01*
X9941356Y-6893356D01*
X10195356Y-4861356D02*
X10195356Y-4790644D01*
X10124644Y-4790644D01*
X10124644Y-4861356D01*
X10195356Y-4861356D01*
X10195356Y-6893356D02*
X10195356Y-6822644D01*
X10124644Y-6822644D01*
X10124644Y-6893356D01*
X10195356Y-6893356D01*
X10449356Y-4861356D02*
X10449356Y-4790644D01*
X10378644Y-4790644D01*
X10378644Y-4861356D01*
X10449356Y-4861356D01*
X10449356Y-6893356D02*
X10449356Y-6822644D01*
X10378644Y-6822644D01*
X10378644Y-6893356D01*
X10449356Y-6893356D01*
X10703356Y-4861356D02*
X10703356Y-4790644D01*
X10632644Y-4790644D01*
X10632644Y-4861356D01*
X10703356Y-4861356D01*
X10703356Y-6893356D02*
X10703356Y-6822644D01*
X10632644Y-6822644D01*
X10632644Y-6893356D01*
X10703356Y-6893356D01*
X10957356Y-4861356D02*
X10957356Y-4790644D01*
X10886644Y-4790644D01*
X10886644Y-4861356D01*
X10957356Y-4861356D01*
X10957356Y-6893356D02*
X10957356Y-6822644D01*
X10886644Y-6822644D01*
X10886644Y-6893356D01*
X10957356Y-6893356D01*
X11211356Y-4861356D02*
X11211356Y-4790644D01*
X11140644Y-4790644D01*
X11140644Y-4861356D01*
X11211356Y-4861356D01*
X11211356Y-6893356D02*
X11211356Y-6822644D01*
X11140644Y-6822644D01*
X11140644Y-6893356D01*
X11211356Y-6893356D01*
X11465356Y-4861356D02*
X11465356Y-4790644D01*
X11394644Y-4790644D01*
X11394644Y-4861356D01*
X11465356Y-4861356D01*
X11465356Y-6893356D02*
X11465356Y-6822644D01*
X11394644Y-6822644D01*
X11394644Y-6893356D01*
X11465356Y-6893356D01*
X11719356Y-4861356D02*
X11719356Y-4790644D01*
X11648644Y-4790644D01*
X11648644Y-4861356D01*
X11719356Y-4861356D01*
X11719356Y-6893356D02*
X11719356Y-6822644D01*
X11648644Y-6822644D01*
X11648644Y-6893356D01*
X11719356Y-6893356D01*
X11973356Y-6893356D02*
X11973356Y-6822644D01*
X11902644Y-6822644D01*
X11902644Y-6893356D01*
X11973356Y-6893356D01*
D12*
X7710928Y-7519214D02*
X7710928Y-7219214D01*
X7782357Y-7219214D01*
X7825214Y-7233500D01*
X7853786Y-7262071D01*
X7868071Y-7290643D01*
X7882357Y-7347786D01*
X7882357Y-7390643D01*
X7868071Y-7447786D01*
X7853786Y-7476357D01*
X7825214Y-7504929D01*
X7782357Y-7519214D01*
X7710928Y-7519214D01*
X8010928Y-7519214D02*
X8010928Y-7319214D01*
X8010928Y-7376357D02*
X8025214Y-7347786D01*
X8039500Y-7333500D01*
X8068071Y-7319214D01*
X8096643Y-7319214D01*
X8196643Y-7519214D02*
X8196643Y-7319214D01*
X8196643Y-7219214D02*
X8182357Y-7233500D01*
X8196643Y-7247786D01*
X8210928Y-7233500D01*
X8196643Y-7219214D01*
X8196643Y-7247786D01*
X8382357Y-7519214D02*
X8353786Y-7504929D01*
X8339500Y-7476357D01*
X8339500Y-7219214D01*
X8539500Y-7519214D02*
X8510928Y-7504929D01*
X8496643Y-7476357D01*
X8496643Y-7219214D01*
X8882357Y-7519214D02*
X8882357Y-7219214D01*
X8982357Y-7433500D01*
X9082357Y-7219214D01*
X9082357Y-7519214D01*
X9353786Y-7519214D02*
X9353786Y-7362071D01*
X9339500Y-7333500D01*
X9310928Y-7319214D01*
X9253786Y-7319214D01*
X9225214Y-7333500D01*
X9353786Y-7504929D02*
X9325214Y-7519214D01*
X9253786Y-7519214D01*
X9225214Y-7504929D01*
X9210928Y-7476357D01*
X9210928Y-7447786D01*
X9225214Y-7419214D01*
X9253786Y-7404929D01*
X9325214Y-7404929D01*
X9353786Y-7390643D01*
X9496643Y-7319214D02*
X9496643Y-7619214D01*
X9496643Y-7333500D02*
X9525214Y-7319214D01*
X9582357Y-7319214D01*
X9610928Y-7333500D01*
X9625214Y-7347786D01*
X9639500Y-7376357D01*
X9639500Y-7462071D01*
X9625214Y-7490643D01*
X9610928Y-7504929D01*
X9582357Y-7519214D01*
X9525214Y-7519214D01*
X9496643Y-7504929D01*
X9768071Y-7490643D02*
X9782357Y-7504929D01*
X9768071Y-7519214D01*
X9753786Y-7504929D01*
X9768071Y-7490643D01*
X9768071Y-7519214D01*
X9768071Y-7333500D02*
X9782357Y-7347786D01*
X9768071Y-7362071D01*
X9753786Y-7347786D01*
X9768071Y-7333500D01*
X9768071Y-7362071D01*
X7384500Y-7993500D02*
X7424500Y-8033500D01*
X7424500Y-7993500D02*
X7384500Y-8033500D01*
X7768071Y-7849214D02*
X7796643Y-7849214D01*
X7825214Y-7863500D01*
X7839500Y-7877786D01*
X7853786Y-7906357D01*
X7868071Y-7963500D01*
X7868071Y-8034929D01*
X7853786Y-8092071D01*
X7839500Y-8120643D01*
X7825214Y-8134929D01*
X7796643Y-8149214D01*
X7768071Y-8149214D01*
X7739500Y-8134929D01*
X7725214Y-8120643D01*
X7710928Y-8092071D01*
X7696643Y-8034929D01*
X7696643Y-7963500D01*
X7710928Y-7906357D01*
X7725214Y-7877786D01*
X7739500Y-7863500D01*
X7768071Y-7849214D01*
X7996643Y-8120643D02*
X8010928Y-8134929D01*
X7996643Y-8149214D01*
X7982357Y-8134929D01*
X7996643Y-8120643D01*
X7996643Y-8149214D01*
X8268071Y-7949214D02*
X8268071Y-8149214D01*
X8196643Y-7834929D02*
X8125214Y-8049214D01*
X8310928Y-8049214D01*
X8482357Y-7849214D02*
X8510928Y-7849214D01*
X8539500Y-7863500D01*
X8553786Y-7877786D01*
X8568071Y-7906357D01*
X8582357Y-7963500D01*
X8582357Y-8034929D01*
X8568071Y-8092071D01*
X8553786Y-8120643D01*
X8539500Y-8134929D01*
X8510928Y-8149214D01*
X8482357Y-8149214D01*
X8453786Y-8134929D01*
X8439500Y-8120643D01*
X8425214Y-8092071D01*
X8410928Y-8034929D01*
X8410928Y-7963500D01*
X8425214Y-7906357D01*
X8439500Y-7877786D01*
X8453786Y-7863500D01*
X8482357Y-7849214D01*
X8710928Y-8149214D02*
X8710928Y-7949214D01*
X8710928Y-7977786D02*
X8725214Y-7963500D01*
X8753786Y-7949214D01*
X8796643Y-7949214D01*
X8825214Y-7963500D01*
X8839500Y-7992071D01*
X8839500Y-8149214D01*
X8839500Y-7992071D02*
X8853786Y-7963500D01*
X8882357Y-7949214D01*
X8925214Y-7949214D01*
X8953786Y-7963500D01*
X8968071Y-7992071D01*
X8968071Y-8149214D01*
X9110928Y-8149214D02*
X9110928Y-7949214D01*
X9110928Y-7977786D02*
X9125214Y-7963500D01*
X9153786Y-7949214D01*
X9196643Y-7949214D01*
X9225214Y-7963500D01*
X9239500Y-7992071D01*
X9239500Y-8149214D01*
X9239500Y-7992071D02*
X9253786Y-7963500D01*
X9282357Y-7949214D01*
X9325214Y-7949214D01*
X9353786Y-7963500D01*
X9368071Y-7992071D01*
X9368071Y-8149214D01*
X9953786Y-7834929D02*
X9696643Y-8220643D01*
X10339500Y-7849214D02*
X10368071Y-7849214D01*
X10396643Y-7863500D01*
X10410928Y-7877786D01*
X10425214Y-7906357D01*
X10439500Y-7963500D01*
X10439500Y-8034929D01*
X10425214Y-8092071D01*
X10410928Y-8120643D01*
X10396643Y-8134929D01*
X10368071Y-8149214D01*
X10339500Y-8149214D01*
X10310928Y-8134929D01*
X10296643Y-8120643D01*
X10282357Y-8092071D01*
X10268071Y-8034929D01*
X10268071Y-7963500D01*
X10282357Y-7906357D01*
X10296643Y-7877786D01*
X10310928Y-7863500D01*
X10339500Y-7849214D01*
X10568071Y-8120643D02*
X10582357Y-8134929D01*
X10568071Y-8149214D01*
X10553786Y-8134929D01*
X10568071Y-8120643D01*
X10568071Y-8149214D01*
X10768071Y-7849214D02*
X10796643Y-7849214D01*
X10825214Y-7863500D01*
X10839500Y-7877786D01*
X10853786Y-7906357D01*
X10868071Y-7963500D01*
X10868071Y-8034929D01*
X10853786Y-8092071D01*
X10839500Y-8120643D01*
X10825214Y-8134929D01*
X10796643Y-8149214D01*
X10768071Y-8149214D01*
X10739500Y-8134929D01*
X10725214Y-8120643D01*
X10710928Y-8092071D01*
X10696643Y-8034929D01*
X10696643Y-7963500D01*
X10710928Y-7906357D01*
X10725214Y-7877786D01*
X10739500Y-7863500D01*
X10768071Y-7849214D01*
X11153786Y-8149214D02*
X10982357Y-8149214D01*
X11068071Y-8149214D02*
X11068071Y-7849214D01*
X11039500Y-7892071D01*
X11010928Y-7920643D01*
X10982357Y-7934929D01*
X11410928Y-7849214D02*
X11353786Y-7849214D01*
X11325214Y-7863500D01*
X11310928Y-7877786D01*
X11282357Y-7920643D01*
X11268071Y-7977786D01*
X11268071Y-8092071D01*
X11282357Y-8120643D01*
X11296643Y-8134929D01*
X11325214Y-8149214D01*
X11382357Y-8149214D01*
X11410928Y-8134929D01*
X11425214Y-8120643D01*
X11439500Y-8092071D01*
X11439500Y-8020643D01*
X11425214Y-7992071D01*
X11410928Y-7977786D01*
X11382357Y-7963500D01*
X11325214Y-7963500D01*
X11296643Y-7977786D01*
X11282357Y-7992071D01*
X11268071Y-8020643D01*
X11553786Y-7849214D02*
X11553786Y-7906357D01*
X11668071Y-7849214D02*
X11668071Y-7906357D01*
X12110928Y-8263500D02*
X12096643Y-8249214D01*
X12068071Y-8206357D01*
X12053786Y-8177786D01*
X12039500Y-8134929D01*
X12025214Y-8063500D01*
X12025214Y-8006357D01*
X12039500Y-7934929D01*
X12053786Y-7892071D01*
X12068071Y-7863500D01*
X12096643Y-7820643D01*
X12110928Y-7806357D01*
X12210928Y-7877786D02*
X12225214Y-7863500D01*
X12253786Y-7849214D01*
X12325214Y-7849214D01*
X12353786Y-7863500D01*
X12368071Y-7877786D01*
X12382357Y-7906357D01*
X12382357Y-7934929D01*
X12368071Y-7977786D01*
X12196643Y-8149214D01*
X12382357Y-8149214D01*
X12739500Y-8149214D02*
X12739500Y-7849214D01*
X12868071Y-8149214D02*
X12868071Y-7992071D01*
X12853786Y-7963500D01*
X12825214Y-7949214D01*
X12782357Y-7949214D01*
X12753786Y-7963500D01*
X12739500Y-7977786D01*
X13053786Y-8149214D02*
X13025214Y-8134929D01*
X13010928Y-8120643D01*
X12996643Y-8092071D01*
X12996643Y-8006357D01*
X13010928Y-7977786D01*
X13025214Y-7963500D01*
X13053786Y-7949214D01*
X13096643Y-7949214D01*
X13125214Y-7963500D01*
X13139500Y-7977786D01*
X13153786Y-8006357D01*
X13153786Y-8092071D01*
X13139500Y-8120643D01*
X13125214Y-8134929D01*
X13096643Y-8149214D01*
X13053786Y-8149214D01*
X13325214Y-8149214D02*
X13296643Y-8134929D01*
X13282357Y-8106357D01*
X13282357Y-7849214D01*
X13553786Y-8134929D02*
X13525214Y-8149214D01*
X13468071Y-8149214D01*
X13439500Y-8134929D01*
X13425214Y-8106357D01*
X13425214Y-7992071D01*
X13439500Y-7963500D01*
X13468071Y-7949214D01*
X13525214Y-7949214D01*
X13553786Y-7963500D01*
X13568071Y-7992071D01*
X13568071Y-8020643D01*
X13425214Y-8049214D01*
X13682357Y-8134929D02*
X13710928Y-8149214D01*
X13768071Y-8149214D01*
X13796643Y-8134929D01*
X13810928Y-8106357D01*
X13810928Y-8092071D01*
X13796643Y-8063500D01*
X13768071Y-8049214D01*
X13725214Y-8049214D01*
X13696643Y-8034929D01*
X13682357Y-8006357D01*
X13682357Y-7992071D01*
X13696643Y-7963500D01*
X13725214Y-7949214D01*
X13768071Y-7949214D01*
X13796643Y-7963500D01*
X13910928Y-8263500D02*
X13925214Y-8249214D01*
X13953786Y-8206357D01*
X13968071Y-8177786D01*
X13982357Y-8134929D01*
X13996643Y-8063500D01*
X13996643Y-8006357D01*
X13982357Y-7934929D01*
X13968071Y-7892071D01*
X13953786Y-7863500D01*
X13925214Y-7820643D01*
X13910928Y-7806357D01*
X7424500Y-8409500D02*
G75*
G03*
X7424500Y-8409500I-30000J0D01*
G01*
X7768071Y-8245214D02*
X7796643Y-8245214D01*
X7825214Y-8259500D01*
X7839500Y-8273786D01*
X7853786Y-8302357D01*
X7868071Y-8359500D01*
X7868071Y-8430929D01*
X7853786Y-8488072D01*
X7839500Y-8516643D01*
X7825214Y-8530929D01*
X7796643Y-8545214D01*
X7768071Y-8545214D01*
X7739500Y-8530929D01*
X7725214Y-8516643D01*
X7710928Y-8488072D01*
X7696643Y-8430929D01*
X7696643Y-8359500D01*
X7710928Y-8302357D01*
X7725214Y-8273786D01*
X7739500Y-8259500D01*
X7768071Y-8245214D01*
X7996643Y-8516643D02*
X8010928Y-8530929D01*
X7996643Y-8545214D01*
X7982357Y-8530929D01*
X7996643Y-8516643D01*
X7996643Y-8545214D01*
X8268071Y-8245214D02*
X8210928Y-8245214D01*
X8182357Y-8259500D01*
X8168071Y-8273786D01*
X8139500Y-8316643D01*
X8125214Y-8373786D01*
X8125214Y-8488072D01*
X8139500Y-8516643D01*
X8153786Y-8530929D01*
X8182357Y-8545214D01*
X8239500Y-8545214D01*
X8268071Y-8530929D01*
X8282357Y-8516643D01*
X8296643Y-8488072D01*
X8296643Y-8416643D01*
X8282357Y-8388071D01*
X8268071Y-8373786D01*
X8239500Y-8359500D01*
X8182357Y-8359500D01*
X8153786Y-8373786D01*
X8139500Y-8388071D01*
X8125214Y-8416643D01*
X8482357Y-8245214D02*
X8510928Y-8245214D01*
X8539500Y-8259500D01*
X8553786Y-8273786D01*
X8568071Y-8302357D01*
X8582357Y-8359500D01*
X8582357Y-8430929D01*
X8568071Y-8488072D01*
X8553786Y-8516643D01*
X8539500Y-8530929D01*
X8510928Y-8545214D01*
X8482357Y-8545214D01*
X8453786Y-8530929D01*
X8439500Y-8516643D01*
X8425214Y-8488072D01*
X8410928Y-8430929D01*
X8410928Y-8359500D01*
X8425214Y-8302357D01*
X8439500Y-8273786D01*
X8453786Y-8259500D01*
X8482357Y-8245214D01*
X8710928Y-8545214D02*
X8710928Y-8345214D01*
X8710928Y-8373786D02*
X8725214Y-8359500D01*
X8753786Y-8345214D01*
X8796643Y-8345214D01*
X8825214Y-8359500D01*
X8839500Y-8388071D01*
X8839500Y-8545214D01*
X8839500Y-8388071D02*
X8853786Y-8359500D01*
X8882357Y-8345214D01*
X8925214Y-8345214D01*
X8953786Y-8359500D01*
X8968071Y-8388071D01*
X8968071Y-8545214D01*
X9110928Y-8545214D02*
X9110928Y-8345214D01*
X9110928Y-8373786D02*
X9125214Y-8359500D01*
X9153786Y-8345214D01*
X9196643Y-8345214D01*
X9225214Y-8359500D01*
X9239500Y-8388071D01*
X9239500Y-8545214D01*
X9239500Y-8388071D02*
X9253786Y-8359500D01*
X9282357Y-8345214D01*
X9325214Y-8345214D01*
X9353786Y-8359500D01*
X9368071Y-8388071D01*
X9368071Y-8545214D01*
X9953786Y-8230929D02*
X9696643Y-8616643D01*
X10339500Y-8245214D02*
X10368071Y-8245214D01*
X10396643Y-8259500D01*
X10410928Y-8273786D01*
X10425214Y-8302357D01*
X10439500Y-8359500D01*
X10439500Y-8430929D01*
X10425214Y-8488072D01*
X10410928Y-8516643D01*
X10396643Y-8530929D01*
X10368071Y-8545214D01*
X10339500Y-8545214D01*
X10310928Y-8530929D01*
X10296643Y-8516643D01*
X10282357Y-8488072D01*
X10268071Y-8430929D01*
X10268071Y-8359500D01*
X10282357Y-8302357D01*
X10296643Y-8273786D01*
X10310928Y-8259500D01*
X10339500Y-8245214D01*
X10568071Y-8516643D02*
X10582357Y-8530929D01*
X10568071Y-8545214D01*
X10553786Y-8530929D01*
X10568071Y-8516643D01*
X10568071Y-8545214D01*
X10768071Y-8245214D02*
X10796643Y-8245214D01*
X10825214Y-8259500D01*
X10839500Y-8273786D01*
X10853786Y-8302357D01*
X10868071Y-8359500D01*
X10868071Y-8430929D01*
X10853786Y-8488072D01*
X10839500Y-8516643D01*
X10825214Y-8530929D01*
X10796643Y-8545214D01*
X10768071Y-8545214D01*
X10739500Y-8530929D01*
X10725214Y-8516643D01*
X10710928Y-8488072D01*
X10696643Y-8430929D01*
X10696643Y-8359500D01*
X10710928Y-8302357D01*
X10725214Y-8273786D01*
X10739500Y-8259500D01*
X10768071Y-8245214D01*
X10982357Y-8273786D02*
X10996643Y-8259500D01*
X11025214Y-8245214D01*
X11096643Y-8245214D01*
X11125214Y-8259500D01*
X11139500Y-8273786D01*
X11153786Y-8302357D01*
X11153786Y-8330929D01*
X11139500Y-8373786D01*
X10968071Y-8545214D01*
X11153786Y-8545214D01*
X11410928Y-8345214D02*
X11410928Y-8545214D01*
X11339500Y-8230929D02*
X11268071Y-8445214D01*
X11453786Y-8445214D01*
X11553786Y-8245214D02*
X11553786Y-8302357D01*
X11668071Y-8245214D02*
X11668071Y-8302357D01*
X12110928Y-8659500D02*
X12096643Y-8645214D01*
X12068071Y-8602357D01*
X12053786Y-8573786D01*
X12039500Y-8530929D01*
X12025214Y-8459500D01*
X12025214Y-8402357D01*
X12039500Y-8330929D01*
X12053786Y-8288071D01*
X12068071Y-8259500D01*
X12096643Y-8216643D01*
X12110928Y-8202357D01*
X12282357Y-8245214D02*
X12310928Y-8245214D01*
X12339500Y-8259500D01*
X12353786Y-8273786D01*
X12368071Y-8302357D01*
X12382357Y-8359500D01*
X12382357Y-8430929D01*
X12368071Y-8488072D01*
X12353786Y-8516643D01*
X12339500Y-8530929D01*
X12310928Y-8545214D01*
X12282357Y-8545214D01*
X12253786Y-8530929D01*
X12239500Y-8516643D01*
X12225214Y-8488072D01*
X12210928Y-8430929D01*
X12210928Y-8359500D01*
X12225214Y-8302357D01*
X12239500Y-8273786D01*
X12253786Y-8259500D01*
X12282357Y-8245214D01*
X12739500Y-8545214D02*
X12739500Y-8245214D01*
X12868071Y-8545214D02*
X12868071Y-8388071D01*
X12853786Y-8359500D01*
X12825214Y-8345214D01*
X12782357Y-8345214D01*
X12753786Y-8359500D01*
X12739500Y-8373786D01*
X13053786Y-8545214D02*
X13025214Y-8530929D01*
X13010928Y-8516643D01*
X12996643Y-8488072D01*
X12996643Y-8402357D01*
X13010928Y-8373786D01*
X13025214Y-8359500D01*
X13053786Y-8345214D01*
X13096643Y-8345214D01*
X13125214Y-8359500D01*
X13139500Y-8373786D01*
X13153786Y-8402357D01*
X13153786Y-8488072D01*
X13139500Y-8516643D01*
X13125214Y-8530929D01*
X13096643Y-8545214D01*
X13053786Y-8545214D01*
X13325214Y-8545214D02*
X13296643Y-8530929D01*
X13282357Y-8502357D01*
X13282357Y-8245214D01*
X13553786Y-8530929D02*
X13525214Y-8545214D01*
X13468071Y-8545214D01*
X13439500Y-8530929D01*
X13425214Y-8502357D01*
X13425214Y-8388071D01*
X13439500Y-8359500D01*
X13468071Y-8345214D01*
X13525214Y-8345214D01*
X13553786Y-8359500D01*
X13568071Y-8388071D01*
X13568071Y-8416643D01*
X13425214Y-8445214D01*
X13682357Y-8530929D02*
X13710928Y-8545214D01*
X13768071Y-8545214D01*
X13796643Y-8530929D01*
X13810928Y-8502357D01*
X13810928Y-8488072D01*
X13796643Y-8459500D01*
X13768071Y-8445214D01*
X13725214Y-8445214D01*
X13696643Y-8430929D01*
X13682357Y-8402357D01*
X13682357Y-8388071D01*
X13696643Y-8359500D01*
X13725214Y-8345214D01*
X13768071Y-8345214D01*
X13796643Y-8359500D01*
X14168071Y-8430929D02*
X14396643Y-8430929D01*
X14282357Y-8545214D02*
X14282357Y-8316643D01*
X14896643Y-8345214D02*
X14896643Y-8545214D01*
X14825214Y-8230929D02*
X14753786Y-8445214D01*
X14939500Y-8445214D01*
X15268071Y-8530929D02*
X15296643Y-8545214D01*
X15353786Y-8545214D01*
X15382357Y-8530929D01*
X15396643Y-8502357D01*
X15396643Y-8488072D01*
X15382357Y-8459500D01*
X15353786Y-8445214D01*
X15310928Y-8445214D01*
X15282357Y-8430929D01*
X15268071Y-8402357D01*
X15268071Y-8388071D01*
X15282357Y-8359500D01*
X15310928Y-8345214D01*
X15353786Y-8345214D01*
X15382357Y-8359500D01*
X15568071Y-8545214D02*
X15539500Y-8530929D01*
X15525214Y-8502357D01*
X15525214Y-8245214D01*
X15725214Y-8545214D02*
X15696643Y-8530929D01*
X15682357Y-8516643D01*
X15668071Y-8488072D01*
X15668071Y-8402357D01*
X15682357Y-8373786D01*
X15696643Y-8359500D01*
X15725214Y-8345214D01*
X15768071Y-8345214D01*
X15796643Y-8359500D01*
X15810928Y-8373786D01*
X15825214Y-8402357D01*
X15825214Y-8488072D01*
X15810928Y-8516643D01*
X15796643Y-8530929D01*
X15768071Y-8545214D01*
X15725214Y-8545214D01*
X15910928Y-8345214D02*
X16025214Y-8345214D01*
X15953786Y-8245214D02*
X15953786Y-8502357D01*
X15968071Y-8530929D01*
X15996643Y-8545214D01*
X16025214Y-8545214D01*
X16110928Y-8530929D02*
X16139500Y-8545214D01*
X16196643Y-8545214D01*
X16225214Y-8530929D01*
X16239500Y-8502357D01*
X16239500Y-8488072D01*
X16225214Y-8459500D01*
X16196643Y-8445214D01*
X16153786Y-8445214D01*
X16125214Y-8430929D01*
X16110928Y-8402357D01*
X16110928Y-8388071D01*
X16125214Y-8359500D01*
X16153786Y-8345214D01*
X16196643Y-8345214D01*
X16225214Y-8359500D01*
X16339500Y-8659500D02*
X16353786Y-8645214D01*
X16382357Y-8602357D01*
X16396643Y-8573786D01*
X16410928Y-8530929D01*
X16425214Y-8459500D01*
X16425214Y-8402357D01*
X16410928Y-8330929D01*
X16396643Y-8288071D01*
X16382357Y-8259500D01*
X16353786Y-8216643D01*
X16339500Y-8202357D01*
X7392000Y-8773000D02*
X7392000Y-8838000D01*
X7359500Y-8805500D02*
X7424500Y-8805500D01*
X7768071Y-8641214D02*
X7796643Y-8641214D01*
X7825214Y-8655500D01*
X7839500Y-8669786D01*
X7853786Y-8698357D01*
X7868071Y-8755500D01*
X7868071Y-8826929D01*
X7853786Y-8884072D01*
X7839500Y-8912643D01*
X7825214Y-8926929D01*
X7796643Y-8941214D01*
X7768071Y-8941214D01*
X7739500Y-8926929D01*
X7725214Y-8912643D01*
X7710928Y-8884072D01*
X7696643Y-8826929D01*
X7696643Y-8755500D01*
X7710928Y-8698357D01*
X7725214Y-8669786D01*
X7739500Y-8655500D01*
X7768071Y-8641214D01*
X7996643Y-8912643D02*
X8010928Y-8926929D01*
X7996643Y-8941214D01*
X7982357Y-8926929D01*
X7996643Y-8912643D01*
X7996643Y-8941214D01*
X8268071Y-8641214D02*
X8210928Y-8641214D01*
X8182357Y-8655500D01*
X8168071Y-8669786D01*
X8139500Y-8712643D01*
X8125214Y-8769786D01*
X8125214Y-8884072D01*
X8139500Y-8912643D01*
X8153786Y-8926929D01*
X8182357Y-8941214D01*
X8239500Y-8941214D01*
X8268071Y-8926929D01*
X8282357Y-8912643D01*
X8296643Y-8884072D01*
X8296643Y-8812643D01*
X8282357Y-8784072D01*
X8268071Y-8769786D01*
X8239500Y-8755500D01*
X8182357Y-8755500D01*
X8153786Y-8769786D01*
X8139500Y-8784072D01*
X8125214Y-8812643D01*
X8568071Y-8641214D02*
X8425214Y-8641214D01*
X8410928Y-8784072D01*
X8425214Y-8769786D01*
X8453786Y-8755500D01*
X8525214Y-8755500D01*
X8553786Y-8769786D01*
X8568071Y-8784072D01*
X8582357Y-8812643D01*
X8582357Y-8884072D01*
X8568071Y-8912643D01*
X8553786Y-8926929D01*
X8525214Y-8941214D01*
X8453786Y-8941214D01*
X8425214Y-8926929D01*
X8410928Y-8912643D01*
X8710928Y-8941214D02*
X8710928Y-8741214D01*
X8710928Y-8769786D02*
X8725214Y-8755500D01*
X8753786Y-8741214D01*
X8796643Y-8741214D01*
X8825214Y-8755500D01*
X8839500Y-8784072D01*
X8839500Y-8941214D01*
X8839500Y-8784072D02*
X8853786Y-8755500D01*
X8882357Y-8741214D01*
X8925214Y-8741214D01*
X8953786Y-8755500D01*
X8968071Y-8784072D01*
X8968071Y-8941214D01*
X9110928Y-8941214D02*
X9110928Y-8741214D01*
X9110928Y-8769786D02*
X9125214Y-8755500D01*
X9153786Y-8741214D01*
X9196643Y-8741214D01*
X9225214Y-8755500D01*
X9239500Y-8784072D01*
X9239500Y-8941214D01*
X9239500Y-8784072D02*
X9253786Y-8755500D01*
X9282357Y-8741214D01*
X9325214Y-8741214D01*
X9353786Y-8755500D01*
X9368071Y-8784072D01*
X9368071Y-8941214D01*
X9953786Y-8626929D02*
X9696643Y-9012643D01*
X10339500Y-8641214D02*
X10368071Y-8641214D01*
X10396643Y-8655500D01*
X10410928Y-8669786D01*
X10425214Y-8698357D01*
X10439500Y-8755500D01*
X10439500Y-8826929D01*
X10425214Y-8884072D01*
X10410928Y-8912643D01*
X10396643Y-8926929D01*
X10368071Y-8941214D01*
X10339500Y-8941214D01*
X10310928Y-8926929D01*
X10296643Y-8912643D01*
X10282357Y-8884072D01*
X10268071Y-8826929D01*
X10268071Y-8755500D01*
X10282357Y-8698357D01*
X10296643Y-8669786D01*
X10310928Y-8655500D01*
X10339500Y-8641214D01*
X10568071Y-8912643D02*
X10582357Y-8926929D01*
X10568071Y-8941214D01*
X10553786Y-8926929D01*
X10568071Y-8912643D01*
X10568071Y-8941214D01*
X10768071Y-8641214D02*
X10796643Y-8641214D01*
X10825214Y-8655500D01*
X10839500Y-8669786D01*
X10853786Y-8698357D01*
X10868071Y-8755500D01*
X10868071Y-8826929D01*
X10853786Y-8884072D01*
X10839500Y-8912643D01*
X10825214Y-8926929D01*
X10796643Y-8941214D01*
X10768071Y-8941214D01*
X10739500Y-8926929D01*
X10725214Y-8912643D01*
X10710928Y-8884072D01*
X10696643Y-8826929D01*
X10696643Y-8755500D01*
X10710928Y-8698357D01*
X10725214Y-8669786D01*
X10739500Y-8655500D01*
X10768071Y-8641214D01*
X10982357Y-8669786D02*
X10996643Y-8655500D01*
X11025214Y-8641214D01*
X11096643Y-8641214D01*
X11125214Y-8655500D01*
X11139500Y-8669786D01*
X11153786Y-8698357D01*
X11153786Y-8726929D01*
X11139500Y-8769786D01*
X10968071Y-8941214D01*
X11153786Y-8941214D01*
X11410928Y-8641214D02*
X11353786Y-8641214D01*
X11325214Y-8655500D01*
X11310928Y-8669786D01*
X11282357Y-8712643D01*
X11268071Y-8769786D01*
X11268071Y-8884072D01*
X11282357Y-8912643D01*
X11296643Y-8926929D01*
X11325214Y-8941214D01*
X11382357Y-8941214D01*
X11410928Y-8926929D01*
X11425214Y-8912643D01*
X11439500Y-8884072D01*
X11439500Y-8812643D01*
X11425214Y-8784072D01*
X11410928Y-8769786D01*
X11382357Y-8755500D01*
X11325214Y-8755500D01*
X11296643Y-8769786D01*
X11282357Y-8784072D01*
X11268071Y-8812643D01*
X11553786Y-8641214D02*
X11553786Y-8698357D01*
X11668071Y-8641214D02*
X11668071Y-8698357D01*
X12110928Y-9055500D02*
X12096643Y-9041214D01*
X12068071Y-8998357D01*
X12053786Y-8969786D01*
X12039500Y-8926929D01*
X12025214Y-8855500D01*
X12025214Y-8798357D01*
X12039500Y-8726929D01*
X12053786Y-8684072D01*
X12068071Y-8655500D01*
X12096643Y-8612643D01*
X12110928Y-8598357D01*
X12382357Y-8941214D02*
X12210928Y-8941214D01*
X12296643Y-8941214D02*
X12296643Y-8641214D01*
X12268071Y-8684072D01*
X12239500Y-8712643D01*
X12210928Y-8726929D01*
X12568071Y-8641214D02*
X12596643Y-8641214D01*
X12625214Y-8655500D01*
X12639500Y-8669786D01*
X12653786Y-8698357D01*
X12668071Y-8755500D01*
X12668071Y-8826929D01*
X12653786Y-8884072D01*
X12639500Y-8912643D01*
X12625214Y-8926929D01*
X12596643Y-8941214D01*
X12568071Y-8941214D01*
X12539500Y-8926929D01*
X12525214Y-8912643D01*
X12510928Y-8884072D01*
X12496643Y-8826929D01*
X12496643Y-8755500D01*
X12510928Y-8698357D01*
X12525214Y-8669786D01*
X12539500Y-8655500D01*
X12568071Y-8641214D01*
X13025214Y-8941214D02*
X13025214Y-8641214D01*
X13153786Y-8941214D02*
X13153786Y-8784072D01*
X13139500Y-8755500D01*
X13110928Y-8741214D01*
X13068071Y-8741214D01*
X13039500Y-8755500D01*
X13025214Y-8769786D01*
X13339500Y-8941214D02*
X13310928Y-8926929D01*
X13296643Y-8912643D01*
X13282357Y-8884072D01*
X13282357Y-8798357D01*
X13296643Y-8769786D01*
X13310928Y-8755500D01*
X13339500Y-8741214D01*
X13382357Y-8741214D01*
X13410928Y-8755500D01*
X13425214Y-8769786D01*
X13439500Y-8798357D01*
X13439500Y-8884072D01*
X13425214Y-8912643D01*
X13410928Y-8926929D01*
X13382357Y-8941214D01*
X13339500Y-8941214D01*
X13610928Y-8941214D02*
X13582357Y-8926929D01*
X13568071Y-8898357D01*
X13568071Y-8641214D01*
X13839500Y-8926929D02*
X13810928Y-8941214D01*
X13753786Y-8941214D01*
X13725214Y-8926929D01*
X13710928Y-8898357D01*
X13710928Y-8784072D01*
X13725214Y-8755500D01*
X13753786Y-8741214D01*
X13810928Y-8741214D01*
X13839500Y-8755500D01*
X13853786Y-8784072D01*
X13853786Y-8812643D01*
X13710928Y-8841214D01*
X13968071Y-8926929D02*
X13996643Y-8941214D01*
X14053786Y-8941214D01*
X14082357Y-8926929D01*
X14096643Y-8898357D01*
X14096643Y-8884072D01*
X14082357Y-8855500D01*
X14053786Y-8841214D01*
X14010928Y-8841214D01*
X13982357Y-8826929D01*
X13968071Y-8798357D01*
X13968071Y-8784072D01*
X13982357Y-8755500D01*
X14010928Y-8741214D01*
X14053786Y-8741214D01*
X14082357Y-8755500D01*
X14196643Y-9055500D02*
X14210928Y-9041214D01*
X14239500Y-8998357D01*
X14253786Y-8969786D01*
X14268071Y-8926929D01*
X14282357Y-8855500D01*
X14282357Y-8798357D01*
X14268071Y-8726929D01*
X14253786Y-8684072D01*
X14239500Y-8655500D01*
X14210928Y-8612643D01*
X14196643Y-8598357D01*
X7409856Y-9236856D02*
X7409856Y-9166144D01*
X7339144Y-9166144D01*
X7339144Y-9236856D01*
X7409856Y-9236856D01*
X7868071Y-9337214D02*
X7696643Y-9337214D01*
X7782357Y-9337214D02*
X7782357Y-9037214D01*
X7753786Y-9080072D01*
X7725214Y-9108643D01*
X7696643Y-9122929D01*
X7996643Y-9308643D02*
X8010928Y-9322929D01*
X7996643Y-9337214D01*
X7982357Y-9322929D01*
X7996643Y-9308643D01*
X7996643Y-9337214D01*
X8196643Y-9037214D02*
X8225214Y-9037214D01*
X8253786Y-9051500D01*
X8268071Y-9065786D01*
X8282357Y-9094357D01*
X8296643Y-9151500D01*
X8296643Y-9222929D01*
X8282357Y-9280072D01*
X8268071Y-9308643D01*
X8253786Y-9322929D01*
X8225214Y-9337214D01*
X8196643Y-9337214D01*
X8168071Y-9322929D01*
X8153786Y-9308643D01*
X8139500Y-9280072D01*
X8125214Y-9222929D01*
X8125214Y-9151500D01*
X8139500Y-9094357D01*
X8153786Y-9065786D01*
X8168071Y-9051500D01*
X8196643Y-9037214D01*
X8482357Y-9037214D02*
X8510928Y-9037214D01*
X8539500Y-9051500D01*
X8553786Y-9065786D01*
X8568071Y-9094357D01*
X8582357Y-9151500D01*
X8582357Y-9222929D01*
X8568071Y-9280072D01*
X8553786Y-9308643D01*
X8539500Y-9322929D01*
X8510928Y-9337214D01*
X8482357Y-9337214D01*
X8453786Y-9322929D01*
X8439500Y-9308643D01*
X8425214Y-9280072D01*
X8410928Y-9222929D01*
X8410928Y-9151500D01*
X8425214Y-9094357D01*
X8439500Y-9065786D01*
X8453786Y-9051500D01*
X8482357Y-9037214D01*
X8710928Y-9337214D02*
X8710928Y-9137214D01*
X8710928Y-9165786D02*
X8725214Y-9151500D01*
X8753786Y-9137214D01*
X8796643Y-9137214D01*
X8825214Y-9151500D01*
X8839500Y-9180072D01*
X8839500Y-9337214D01*
X8839500Y-9180072D02*
X8853786Y-9151500D01*
X8882357Y-9137214D01*
X8925214Y-9137214D01*
X8953786Y-9151500D01*
X8968071Y-9180072D01*
X8968071Y-9337214D01*
X9110928Y-9337214D02*
X9110928Y-9137214D01*
X9110928Y-9165786D02*
X9125214Y-9151500D01*
X9153786Y-9137214D01*
X9196643Y-9137214D01*
X9225214Y-9151500D01*
X9239500Y-9180072D01*
X9239500Y-9337214D01*
X9239500Y-9180072D02*
X9253786Y-9151500D01*
X9282357Y-9137214D01*
X9325214Y-9137214D01*
X9353786Y-9151500D01*
X9368071Y-9180072D01*
X9368071Y-9337214D01*
X9953786Y-9022929D02*
X9696643Y-9408643D01*
X10339500Y-9037214D02*
X10368071Y-9037214D01*
X10396643Y-9051500D01*
X10410928Y-9065786D01*
X10425214Y-9094357D01*
X10439500Y-9151500D01*
X10439500Y-9222929D01*
X10425214Y-9280072D01*
X10410928Y-9308643D01*
X10396643Y-9322929D01*
X10368071Y-9337214D01*
X10339500Y-9337214D01*
X10310928Y-9322929D01*
X10296643Y-9308643D01*
X10282357Y-9280072D01*
X10268071Y-9222929D01*
X10268071Y-9151500D01*
X10282357Y-9094357D01*
X10296643Y-9065786D01*
X10310928Y-9051500D01*
X10339500Y-9037214D01*
X10568071Y-9308643D02*
X10582357Y-9322929D01*
X10568071Y-9337214D01*
X10553786Y-9322929D01*
X10568071Y-9308643D01*
X10568071Y-9337214D01*
X10768071Y-9037214D02*
X10796643Y-9037214D01*
X10825214Y-9051500D01*
X10839500Y-9065786D01*
X10853786Y-9094357D01*
X10868071Y-9151500D01*
X10868071Y-9222929D01*
X10853786Y-9280072D01*
X10839500Y-9308643D01*
X10825214Y-9322929D01*
X10796643Y-9337214D01*
X10768071Y-9337214D01*
X10739500Y-9322929D01*
X10725214Y-9308643D01*
X10710928Y-9280072D01*
X10696643Y-9222929D01*
X10696643Y-9151500D01*
X10710928Y-9094357D01*
X10725214Y-9065786D01*
X10739500Y-9051500D01*
X10768071Y-9037214D01*
X10968071Y-9037214D02*
X11153786Y-9037214D01*
X11053786Y-9151500D01*
X11096643Y-9151500D01*
X11125214Y-9165786D01*
X11139500Y-9180072D01*
X11153786Y-9208643D01*
X11153786Y-9280072D01*
X11139500Y-9308643D01*
X11125214Y-9322929D01*
X11096643Y-9337214D01*
X11010928Y-9337214D01*
X10982357Y-9322929D01*
X10968071Y-9308643D01*
X11296643Y-9337214D02*
X11353786Y-9337214D01*
X11382357Y-9322929D01*
X11396643Y-9308643D01*
X11425214Y-9265786D01*
X11439500Y-9208643D01*
X11439500Y-9094357D01*
X11425214Y-9065786D01*
X11410928Y-9051500D01*
X11382357Y-9037214D01*
X11325214Y-9037214D01*
X11296643Y-9051500D01*
X11282357Y-9065786D01*
X11268071Y-9094357D01*
X11268071Y-9165786D01*
X11282357Y-9194357D01*
X11296643Y-9208643D01*
X11325214Y-9222929D01*
X11382357Y-9222929D01*
X11410928Y-9208643D01*
X11425214Y-9194357D01*
X11439500Y-9165786D01*
X11553786Y-9037214D02*
X11553786Y-9094357D01*
X11668071Y-9037214D02*
X11668071Y-9094357D01*
X12110928Y-9451500D02*
X12096643Y-9437214D01*
X12068071Y-9394357D01*
X12053786Y-9365786D01*
X12039500Y-9322929D01*
X12025214Y-9251500D01*
X12025214Y-9194357D01*
X12039500Y-9122929D01*
X12053786Y-9080072D01*
X12068071Y-9051500D01*
X12096643Y-9008643D01*
X12110928Y-8994357D01*
X12382357Y-9337214D02*
X12210928Y-9337214D01*
X12296643Y-9337214D02*
X12296643Y-9037214D01*
X12268071Y-9080072D01*
X12239500Y-9108643D01*
X12210928Y-9122929D01*
X12482357Y-9037214D02*
X12682357Y-9037214D01*
X12553786Y-9337214D01*
X13025214Y-9337214D02*
X13025214Y-9037214D01*
X13153786Y-9337214D02*
X13153786Y-9180072D01*
X13139500Y-9151500D01*
X13110928Y-9137214D01*
X13068071Y-9137214D01*
X13039500Y-9151500D01*
X13025214Y-9165786D01*
X13339500Y-9337214D02*
X13310928Y-9322929D01*
X13296643Y-9308643D01*
X13282357Y-9280072D01*
X13282357Y-9194357D01*
X13296643Y-9165786D01*
X13310928Y-9151500D01*
X13339500Y-9137214D01*
X13382357Y-9137214D01*
X13410928Y-9151500D01*
X13425214Y-9165786D01*
X13439500Y-9194357D01*
X13439500Y-9280072D01*
X13425214Y-9308643D01*
X13410928Y-9322929D01*
X13382357Y-9337214D01*
X13339500Y-9337214D01*
X13610928Y-9337214D02*
X13582357Y-9322929D01*
X13568071Y-9294357D01*
X13568071Y-9037214D01*
X13839500Y-9322929D02*
X13810928Y-9337214D01*
X13753786Y-9337214D01*
X13725214Y-9322929D01*
X13710928Y-9294357D01*
X13710928Y-9180072D01*
X13725214Y-9151500D01*
X13753786Y-9137214D01*
X13810928Y-9137214D01*
X13839500Y-9151500D01*
X13853786Y-9180072D01*
X13853786Y-9208643D01*
X13710928Y-9237214D01*
X13968071Y-9322929D02*
X13996643Y-9337214D01*
X14053786Y-9337214D01*
X14082357Y-9322929D01*
X14096643Y-9294357D01*
X14096643Y-9280072D01*
X14082357Y-9251500D01*
X14053786Y-9237214D01*
X14010928Y-9237214D01*
X13982357Y-9222929D01*
X13968071Y-9194357D01*
X13968071Y-9180072D01*
X13982357Y-9151500D01*
X14010928Y-9137214D01*
X14053786Y-9137214D01*
X14082357Y-9151500D01*
X14196643Y-9451500D02*
X14210928Y-9437214D01*
X14239500Y-9394357D01*
X14253786Y-9365786D01*
X14268071Y-9322929D01*
X14282357Y-9251500D01*
X14282357Y-9194357D01*
X14268071Y-9122929D01*
X14253786Y-9080072D01*
X14239500Y-9051500D01*
X14210928Y-9008643D01*
X14196643Y-8994357D01*
M02*
