%FSLAX45Y45*%
G04 Gerber Fmt 4.5, Leading zero omitted, Abs format (unit mm)*
G04 Created by KiCad (PCBNEW 5.1.9+dfsg1-1) date 2022-01-14 18:56:57*
%MOMM*%
%LPD*%
G01*
G04 APERTURE LIST*
%TA.AperFunction,Profile*%
%ADD10C,0.100000*%
%TD*%
%ADD11C,0.200000*%
%ADD12C,0.300000*%
G04 APERTURE END LIST*
D10*
X12890500Y-4635500D02*
X12890500Y-7048500D01*
X7429500Y-4635500D02*
X12890500Y-4635500D01*
X7429500Y-7048500D02*
X7429500Y-4635500D01*
X12890500Y-7048500D02*
X7429500Y-7048500D01*
D11*
X7900650Y-5526850D02*
X7965650Y-5591850D01*
X7965650Y-5526850D02*
X7900650Y-5591850D01*
X7933150Y-5536850D02*
X7933150Y-5536850D01*
X7933150Y-5581850D02*
X7933150Y-5581850D01*
X7933150Y-5536850D02*
G75*
G03*
X7933150Y-5581850I0J-22500D01*
G01*
X7933150Y-5581850D02*
G75*
G03*
X7933150Y-5536850I0J22500D01*
G01*
X7900650Y-6104850D02*
X7965650Y-6169850D01*
X7965650Y-6104850D02*
X7900650Y-6169850D01*
X7933150Y-6114850D02*
X7933150Y-6114850D01*
X7933150Y-6159850D02*
X7933150Y-6159850D01*
X7933150Y-6114850D02*
G75*
G03*
X7933150Y-6159850I0J-22500D01*
G01*
X7933150Y-6159850D02*
G75*
G03*
X7933150Y-6114850I0J22500D01*
G01*
D12*
X7710928Y-7519214D02*
X7710928Y-7219214D01*
X7782357Y-7219214D01*
X7825214Y-7233500D01*
X7853786Y-7262071D01*
X7868071Y-7290643D01*
X7882357Y-7347786D01*
X7882357Y-7390643D01*
X7868071Y-7447786D01*
X7853786Y-7476357D01*
X7825214Y-7504929D01*
X7782357Y-7519214D01*
X7710928Y-7519214D01*
X8010928Y-7519214D02*
X8010928Y-7319214D01*
X8010928Y-7376357D02*
X8025214Y-7347786D01*
X8039500Y-7333500D01*
X8068071Y-7319214D01*
X8096643Y-7319214D01*
X8196643Y-7519214D02*
X8196643Y-7319214D01*
X8196643Y-7219214D02*
X8182357Y-7233500D01*
X8196643Y-7247786D01*
X8210928Y-7233500D01*
X8196643Y-7219214D01*
X8196643Y-7247786D01*
X8382357Y-7519214D02*
X8353786Y-7504929D01*
X8339500Y-7476357D01*
X8339500Y-7219214D01*
X8539500Y-7519214D02*
X8510928Y-7504929D01*
X8496643Y-7476357D01*
X8496643Y-7219214D01*
X8882357Y-7519214D02*
X8882357Y-7219214D01*
X8982357Y-7433500D01*
X9082357Y-7219214D01*
X9082357Y-7519214D01*
X9353786Y-7519214D02*
X9353786Y-7362071D01*
X9339500Y-7333500D01*
X9310928Y-7319214D01*
X9253786Y-7319214D01*
X9225214Y-7333500D01*
X9353786Y-7504929D02*
X9325214Y-7519214D01*
X9253786Y-7519214D01*
X9225214Y-7504929D01*
X9210928Y-7476357D01*
X9210928Y-7447786D01*
X9225214Y-7419214D01*
X9253786Y-7404929D01*
X9325214Y-7404929D01*
X9353786Y-7390643D01*
X9496643Y-7319214D02*
X9496643Y-7619214D01*
X9496643Y-7333500D02*
X9525214Y-7319214D01*
X9582357Y-7319214D01*
X9610928Y-7333500D01*
X9625214Y-7347786D01*
X9639500Y-7376357D01*
X9639500Y-7462071D01*
X9625214Y-7490643D01*
X9610928Y-7504929D01*
X9582357Y-7519214D01*
X9525214Y-7519214D01*
X9496643Y-7504929D01*
X9768071Y-7490643D02*
X9782357Y-7504929D01*
X9768071Y-7519214D01*
X9753786Y-7504929D01*
X9768071Y-7490643D01*
X9768071Y-7519214D01*
X9768071Y-7333500D02*
X9782357Y-7347786D01*
X9768071Y-7362071D01*
X9753786Y-7347786D01*
X9768071Y-7333500D01*
X9768071Y-7362071D01*
X7359500Y-7981000D02*
X7424500Y-8046000D01*
X7424500Y-7981000D02*
X7359500Y-8046000D01*
X7768071Y-7849214D02*
X7796643Y-7849214D01*
X7825214Y-7863500D01*
X7839500Y-7877786D01*
X7853786Y-7906357D01*
X7868071Y-7963500D01*
X7868071Y-8034929D01*
X7853786Y-8092071D01*
X7839500Y-8120643D01*
X7825214Y-8134929D01*
X7796643Y-8149214D01*
X7768071Y-8149214D01*
X7739500Y-8134929D01*
X7725214Y-8120643D01*
X7710928Y-8092071D01*
X7696643Y-8034929D01*
X7696643Y-7963500D01*
X7710928Y-7906357D01*
X7725214Y-7877786D01*
X7739500Y-7863500D01*
X7768071Y-7849214D01*
X7996643Y-8120643D02*
X8010928Y-8134929D01*
X7996643Y-8149214D01*
X7982357Y-8134929D01*
X7996643Y-8120643D01*
X7996643Y-8149214D01*
X8268071Y-7849214D02*
X8210928Y-7849214D01*
X8182357Y-7863500D01*
X8168071Y-7877786D01*
X8139500Y-7920643D01*
X8125214Y-7977786D01*
X8125214Y-8092071D01*
X8139500Y-8120643D01*
X8153786Y-8134929D01*
X8182357Y-8149214D01*
X8239500Y-8149214D01*
X8268071Y-8134929D01*
X8282357Y-8120643D01*
X8296643Y-8092071D01*
X8296643Y-8020643D01*
X8282357Y-7992071D01*
X8268071Y-7977786D01*
X8239500Y-7963500D01*
X8182357Y-7963500D01*
X8153786Y-7977786D01*
X8139500Y-7992071D01*
X8125214Y-8020643D01*
X8568071Y-7849214D02*
X8425214Y-7849214D01*
X8410928Y-7992071D01*
X8425214Y-7977786D01*
X8453786Y-7963500D01*
X8525214Y-7963500D01*
X8553786Y-7977786D01*
X8568071Y-7992071D01*
X8582357Y-8020643D01*
X8582357Y-8092071D01*
X8568071Y-8120643D01*
X8553786Y-8134929D01*
X8525214Y-8149214D01*
X8453786Y-8149214D01*
X8425214Y-8134929D01*
X8410928Y-8120643D01*
X8710928Y-8149214D02*
X8710928Y-7949214D01*
X8710928Y-7977786D02*
X8725214Y-7963500D01*
X8753786Y-7949214D01*
X8796643Y-7949214D01*
X8825214Y-7963500D01*
X8839500Y-7992071D01*
X8839500Y-8149214D01*
X8839500Y-7992071D02*
X8853786Y-7963500D01*
X8882357Y-7949214D01*
X8925214Y-7949214D01*
X8953786Y-7963500D01*
X8968071Y-7992071D01*
X8968071Y-8149214D01*
X9110928Y-8149214D02*
X9110928Y-7949214D01*
X9110928Y-7977786D02*
X9125214Y-7963500D01*
X9153786Y-7949214D01*
X9196643Y-7949214D01*
X9225214Y-7963500D01*
X9239500Y-7992071D01*
X9239500Y-8149214D01*
X9239500Y-7992071D02*
X9253786Y-7963500D01*
X9282357Y-7949214D01*
X9325214Y-7949214D01*
X9353786Y-7963500D01*
X9368071Y-7992071D01*
X9368071Y-8149214D01*
X9953786Y-7834929D02*
X9696643Y-8220643D01*
X10339500Y-7849214D02*
X10368071Y-7849214D01*
X10396643Y-7863500D01*
X10410928Y-7877786D01*
X10425214Y-7906357D01*
X10439500Y-7963500D01*
X10439500Y-8034929D01*
X10425214Y-8092071D01*
X10410928Y-8120643D01*
X10396643Y-8134929D01*
X10368071Y-8149214D01*
X10339500Y-8149214D01*
X10310928Y-8134929D01*
X10296643Y-8120643D01*
X10282357Y-8092071D01*
X10268071Y-8034929D01*
X10268071Y-7963500D01*
X10282357Y-7906357D01*
X10296643Y-7877786D01*
X10310928Y-7863500D01*
X10339500Y-7849214D01*
X10568071Y-8120643D02*
X10582357Y-8134929D01*
X10568071Y-8149214D01*
X10553786Y-8134929D01*
X10568071Y-8120643D01*
X10568071Y-8149214D01*
X10768071Y-7849214D02*
X10796643Y-7849214D01*
X10825214Y-7863500D01*
X10839500Y-7877786D01*
X10853786Y-7906357D01*
X10868071Y-7963500D01*
X10868071Y-8034929D01*
X10853786Y-8092071D01*
X10839500Y-8120643D01*
X10825214Y-8134929D01*
X10796643Y-8149214D01*
X10768071Y-8149214D01*
X10739500Y-8134929D01*
X10725214Y-8120643D01*
X10710928Y-8092071D01*
X10696643Y-8034929D01*
X10696643Y-7963500D01*
X10710928Y-7906357D01*
X10725214Y-7877786D01*
X10739500Y-7863500D01*
X10768071Y-7849214D01*
X10982357Y-7877786D02*
X10996643Y-7863500D01*
X11025214Y-7849214D01*
X11096643Y-7849214D01*
X11125214Y-7863500D01*
X11139500Y-7877786D01*
X11153786Y-7906357D01*
X11153786Y-7934929D01*
X11139500Y-7977786D01*
X10968071Y-8149214D01*
X11153786Y-8149214D01*
X11410928Y-7849214D02*
X11353786Y-7849214D01*
X11325214Y-7863500D01*
X11310928Y-7877786D01*
X11282357Y-7920643D01*
X11268071Y-7977786D01*
X11268071Y-8092071D01*
X11282357Y-8120643D01*
X11296643Y-8134929D01*
X11325214Y-8149214D01*
X11382357Y-8149214D01*
X11410928Y-8134929D01*
X11425214Y-8120643D01*
X11439500Y-8092071D01*
X11439500Y-8020643D01*
X11425214Y-7992071D01*
X11410928Y-7977786D01*
X11382357Y-7963500D01*
X11325214Y-7963500D01*
X11296643Y-7977786D01*
X11282357Y-7992071D01*
X11268071Y-8020643D01*
X11553786Y-7849214D02*
X11553786Y-7906357D01*
X11668071Y-7849214D02*
X11668071Y-7906357D01*
X12110928Y-8263500D02*
X12096643Y-8249214D01*
X12068071Y-8206357D01*
X12053786Y-8177786D01*
X12039500Y-8134929D01*
X12025214Y-8063500D01*
X12025214Y-8006357D01*
X12039500Y-7934929D01*
X12053786Y-7892071D01*
X12068071Y-7863500D01*
X12096643Y-7820643D01*
X12110928Y-7806357D01*
X12282357Y-7849214D02*
X12310928Y-7849214D01*
X12339500Y-7863500D01*
X12353786Y-7877786D01*
X12368071Y-7906357D01*
X12382357Y-7963500D01*
X12382357Y-8034929D01*
X12368071Y-8092071D01*
X12353786Y-8120643D01*
X12339500Y-8134929D01*
X12310928Y-8149214D01*
X12282357Y-8149214D01*
X12253786Y-8134929D01*
X12239500Y-8120643D01*
X12225214Y-8092071D01*
X12210928Y-8034929D01*
X12210928Y-7963500D01*
X12225214Y-7906357D01*
X12239500Y-7877786D01*
X12253786Y-7863500D01*
X12282357Y-7849214D01*
X12739500Y-8149214D02*
X12739500Y-7849214D01*
X12868071Y-8149214D02*
X12868071Y-7992071D01*
X12853786Y-7963500D01*
X12825214Y-7949214D01*
X12782357Y-7949214D01*
X12753786Y-7963500D01*
X12739500Y-7977786D01*
X13053786Y-8149214D02*
X13025214Y-8134929D01*
X13010928Y-8120643D01*
X12996643Y-8092071D01*
X12996643Y-8006357D01*
X13010928Y-7977786D01*
X13025214Y-7963500D01*
X13053786Y-7949214D01*
X13096643Y-7949214D01*
X13125214Y-7963500D01*
X13139500Y-7977786D01*
X13153786Y-8006357D01*
X13153786Y-8092071D01*
X13139500Y-8120643D01*
X13125214Y-8134929D01*
X13096643Y-8149214D01*
X13053786Y-8149214D01*
X13325214Y-8149214D02*
X13296643Y-8134929D01*
X13282357Y-8106357D01*
X13282357Y-7849214D01*
X13553786Y-8134929D02*
X13525214Y-8149214D01*
X13468071Y-8149214D01*
X13439500Y-8134929D01*
X13425214Y-8106357D01*
X13425214Y-7992071D01*
X13439500Y-7963500D01*
X13468071Y-7949214D01*
X13525214Y-7949214D01*
X13553786Y-7963500D01*
X13568071Y-7992071D01*
X13568071Y-8020643D01*
X13425214Y-8049214D01*
X13682357Y-8134929D02*
X13710928Y-8149214D01*
X13768071Y-8149214D01*
X13796643Y-8134929D01*
X13810928Y-8106357D01*
X13810928Y-8092071D01*
X13796643Y-8063500D01*
X13768071Y-8049214D01*
X13725214Y-8049214D01*
X13696643Y-8034929D01*
X13682357Y-8006357D01*
X13682357Y-7992071D01*
X13696643Y-7963500D01*
X13725214Y-7949214D01*
X13768071Y-7949214D01*
X13796643Y-7963500D01*
X14168071Y-8034929D02*
X14396643Y-8034929D01*
X14282357Y-8149214D02*
X14282357Y-7920643D01*
X14753786Y-7877786D02*
X14768071Y-7863500D01*
X14796643Y-7849214D01*
X14868071Y-7849214D01*
X14896643Y-7863500D01*
X14910928Y-7877786D01*
X14925214Y-7906357D01*
X14925214Y-7934929D01*
X14910928Y-7977786D01*
X14739500Y-8149214D01*
X14925214Y-8149214D01*
X15268071Y-8134929D02*
X15296643Y-8149214D01*
X15353786Y-8149214D01*
X15382357Y-8134929D01*
X15396643Y-8106357D01*
X15396643Y-8092071D01*
X15382357Y-8063500D01*
X15353786Y-8049214D01*
X15310928Y-8049214D01*
X15282357Y-8034929D01*
X15268071Y-8006357D01*
X15268071Y-7992071D01*
X15282357Y-7963500D01*
X15310928Y-7949214D01*
X15353786Y-7949214D01*
X15382357Y-7963500D01*
X15568071Y-8149214D02*
X15539500Y-8134929D01*
X15525214Y-8106357D01*
X15525214Y-7849214D01*
X15725214Y-8149214D02*
X15696643Y-8134929D01*
X15682357Y-8120643D01*
X15668071Y-8092071D01*
X15668071Y-8006357D01*
X15682357Y-7977786D01*
X15696643Y-7963500D01*
X15725214Y-7949214D01*
X15768071Y-7949214D01*
X15796643Y-7963500D01*
X15810928Y-7977786D01*
X15825214Y-8006357D01*
X15825214Y-8092071D01*
X15810928Y-8120643D01*
X15796643Y-8134929D01*
X15768071Y-8149214D01*
X15725214Y-8149214D01*
X15910928Y-7949214D02*
X16025214Y-7949214D01*
X15953786Y-7849214D02*
X15953786Y-8106357D01*
X15968071Y-8134929D01*
X15996643Y-8149214D01*
X16025214Y-8149214D01*
X16110928Y-8134929D02*
X16139500Y-8149214D01*
X16196643Y-8149214D01*
X16225214Y-8134929D01*
X16239500Y-8106357D01*
X16239500Y-8092071D01*
X16225214Y-8063500D01*
X16196643Y-8049214D01*
X16153786Y-8049214D01*
X16125214Y-8034929D01*
X16110928Y-8006357D01*
X16110928Y-7992071D01*
X16125214Y-7963500D01*
X16153786Y-7949214D01*
X16196643Y-7949214D01*
X16225214Y-7963500D01*
X16339500Y-8263500D02*
X16353786Y-8249214D01*
X16382357Y-8206357D01*
X16396643Y-8177786D01*
X16410928Y-8134929D01*
X16425214Y-8063500D01*
X16425214Y-8006357D01*
X16410928Y-7934929D01*
X16396643Y-7892071D01*
X16382357Y-7863500D01*
X16353786Y-7820643D01*
X16339500Y-7806357D01*
X16882357Y-8263500D02*
X16868071Y-8249214D01*
X16839500Y-8206357D01*
X16825214Y-8177786D01*
X16810928Y-8134929D01*
X16796643Y-8063500D01*
X16796643Y-8006357D01*
X16810928Y-7934929D01*
X16825214Y-7892071D01*
X16839500Y-7863500D01*
X16868071Y-7820643D01*
X16882357Y-7806357D01*
X16996643Y-7949214D02*
X16996643Y-8149214D01*
X16996643Y-7977786D02*
X17010928Y-7963500D01*
X17039500Y-7949214D01*
X17082357Y-7949214D01*
X17110928Y-7963500D01*
X17125214Y-7992071D01*
X17125214Y-8149214D01*
X17310928Y-8149214D02*
X17282357Y-8134929D01*
X17268071Y-8120643D01*
X17253786Y-8092071D01*
X17253786Y-8006357D01*
X17268071Y-7977786D01*
X17282357Y-7963500D01*
X17310928Y-7949214D01*
X17353786Y-7949214D01*
X17382357Y-7963500D01*
X17396643Y-7977786D01*
X17410928Y-8006357D01*
X17410928Y-8092071D01*
X17396643Y-8120643D01*
X17382357Y-8134929D01*
X17353786Y-8149214D01*
X17310928Y-8149214D01*
X17496643Y-7949214D02*
X17610928Y-7949214D01*
X17539500Y-7849214D02*
X17539500Y-8106357D01*
X17553786Y-8134929D01*
X17582357Y-8149214D01*
X17610928Y-8149214D01*
X17939500Y-7949214D02*
X17939500Y-8249214D01*
X17939500Y-7963500D02*
X17968071Y-7949214D01*
X18025214Y-7949214D01*
X18053786Y-7963500D01*
X18068071Y-7977786D01*
X18082357Y-8006357D01*
X18082357Y-8092071D01*
X18068071Y-8120643D01*
X18053786Y-8134929D01*
X18025214Y-8149214D01*
X17968071Y-8149214D01*
X17939500Y-8134929D01*
X18253786Y-8149214D02*
X18225214Y-8134929D01*
X18210928Y-8106357D01*
X18210928Y-7849214D01*
X18496643Y-8149214D02*
X18496643Y-7992071D01*
X18482357Y-7963500D01*
X18453786Y-7949214D01*
X18396643Y-7949214D01*
X18368071Y-7963500D01*
X18496643Y-8134929D02*
X18468071Y-8149214D01*
X18396643Y-8149214D01*
X18368071Y-8134929D01*
X18353786Y-8106357D01*
X18353786Y-8077786D01*
X18368071Y-8049214D01*
X18396643Y-8034929D01*
X18468071Y-8034929D01*
X18496643Y-8020643D01*
X18596643Y-7949214D02*
X18710928Y-7949214D01*
X18639500Y-7849214D02*
X18639500Y-8106357D01*
X18653786Y-8134929D01*
X18682357Y-8149214D01*
X18710928Y-8149214D01*
X18925214Y-8134929D02*
X18896643Y-8149214D01*
X18839500Y-8149214D01*
X18810928Y-8134929D01*
X18796643Y-8106357D01*
X18796643Y-7992071D01*
X18810928Y-7963500D01*
X18839500Y-7949214D01*
X18896643Y-7949214D01*
X18925214Y-7963500D01*
X18939500Y-7992071D01*
X18939500Y-8020643D01*
X18796643Y-8049214D01*
X19196643Y-8149214D02*
X19196643Y-7849214D01*
X19196643Y-8134929D02*
X19168071Y-8149214D01*
X19110928Y-8149214D01*
X19082357Y-8134929D01*
X19068071Y-8120643D01*
X19053786Y-8092071D01*
X19053786Y-8006357D01*
X19068071Y-7977786D01*
X19082357Y-7963500D01*
X19110928Y-7949214D01*
X19168071Y-7949214D01*
X19196643Y-7963500D01*
X19310928Y-8263500D02*
X19325214Y-8249214D01*
X19353786Y-8206357D01*
X19368071Y-8177786D01*
X19382357Y-8134929D01*
X19396643Y-8063500D01*
X19396643Y-8006357D01*
X19382357Y-7934929D01*
X19368071Y-7892071D01*
X19353786Y-7863500D01*
X19325214Y-7820643D01*
X19310928Y-7806357D01*
M02*
