M48
; DRILL file {KiCad 5.1.9+dfsg1-1} date Wed Dec  1 17:02:13 2021
; FORMAT={-:-/ absolute / metric / decimal}
; #@! TF.CreationDate,2021-12-01T17:02:13-05:00
; #@! TF.GenerationSoftware,Kicad,Pcbnew,5.1.9+dfsg1-1
; #@! TF.FileFunction,Plated,1,2,PTH
FMAT,2
METRIC
T1C0.400
T2C0.600
T3C0.650
T4C1.000
%
G90
G05
T1
X112.522Y-51.117
X123.063Y-58.801
T3
X125.539Y-56.261
X125.539Y-57.531
X125.539Y-58.801
X125.539Y-60.071
X125.539Y-61.341
X126.809Y-56.261
X126.809Y-57.531
X126.809Y-58.801
X126.809Y-60.071
X126.809Y-61.341
T4
X96.52Y-68.58
X99.06Y-68.58
X101.6Y-48.26
X101.6Y-68.58
X104.14Y-48.26
X104.14Y-68.58
X106.68Y-48.26
X106.68Y-68.58
X109.22Y-48.26
X109.22Y-68.58
X111.76Y-48.26
X111.76Y-68.58
X114.3Y-48.26
X114.3Y-68.58
X116.84Y-48.26
X116.84Y-68.58
X119.38Y-68.58
T2
X76.051Y-54.163G85X75.251Y-54.163
G05
X76.051Y-62.803G85X75.251Y-62.803
G05
X80.382Y-54.163G85X79.281Y-54.163
G05
X80.382Y-62.803G85X79.281Y-62.803
G05
T0
M30
